<svg xmlns="http://www.w3.org/2000/svg" cursor="default" viewBox="0 0 256 256" xmlns:v="https://vecta.io/nano"><path d="M46.459 244.392c-8.561-1.795-15.579-5.555-21.742-11.648-9.415-9.308-13.457-19.673-12.861-32.977.466-10.395 3.631-18.273 10.726-26.695 5.62-6.671 19.198-14.334 30.459-17.189 2.092-.53 4.43-.964 5.196-.964 1.254 0 1.427-.222 1.728-2.215.184-1.218 1.015-3.278 1.847-4.578s1.512-2.885 1.512-3.521c0-2.526 1.612-6.453 3.361-8.187 1.475-1.463 1.694-1.941 1.257-2.75-1.375-2.547-.339-7.229 1.985-8.974.683-.513.663-.781-.175-2.323-.724-1.332-.888-2.44-.7-4.698.218-2.604.468-3.156 2.103-4.642s1.797-1.842 1.356-2.99c-1.539-4.014.163-8.338 3.972-10.093 1.953-.9 2.172-1.181 2.174-2.787.004-3.636 3.116-6.601 6.928-6.601 1.804 0 1.854-.049 1.434-1.394-.239-.766-.437-2.775-.439-4.462-.002-2.525.334-3.745 1.901-6.887l1.904-3.818-.957-3.317c-2.603-9.024-2.771-22.708-.369-30.066 4.974-15.242 19.897-19.874 33.787-10.487 15.638 10.569 26.396 32.83 26.511 54.855.033 6.301-.112 7.719-1.016 9.949-1.552 3.829-3.499 6.087-6.094 7.07-2.129.806-2.395.805-4.588-.026-5.148-1.949-6.544-7.473-3.335-13.201l2.531-4.552c2.512-4.589-1.253-19.99-7.4-30.273-3.278-5.484-10.07-12.327-14.229-14.337-10.421-5.037-17.436 2.63-16.473 18.005 1.249 19.938 11.57 42.227 21.924 47.342 3.371 1.666 4.047 1.642 5.413-.19 2.956-3.964 10.311-.986 10.318 4.178.003 2.242-1.878 5.305-4.187 6.821-1.878 1.232-2.605 1.394-6.251 1.394-4.646 0-6.252-.581-11.306-4.092-5.34-3.709-12.053-11.557-15.78-18.446-1.341-2.479-1.725-2.85-2.596-2.51-.562.219-1.731.414-2.598.434-2.105.048-2.355.406-1.47 2.102 1.73 3.317-.091 8.12-3.726 9.832-1.793.844-2.172 1.271-2.172 2.442 0 1.861-1.145 3.996-2.952 5.504-1.355 1.13-1.411 1.319-.808 2.721 1.246 2.897.484 6.579-1.799 8.688l-1.072.99 1.016 1.976c1.63 3.17 1.041 6.844-1.451 9.045-.894.79-1.023 1.32-.768 3.165.224 1.622 0 3.05-.837 5.325-.917 2.494-1.032 3.351-.58 4.333.754 1.642.675 7.144-.131 9.017-.637 1.481-.602 1.538 2.195 3.588 4.728 3.464 8.473 8.116 11.29 14.025.834 1.749 2.318 4.663 3.297 6.474 3.341 6.18 4.462 10.56 4.734 18.497.206 6.021.08 7.77-.831 11.555-2.996 12.44-11.516 23.223-22.802 28.859-5.78 2.886-10.759 4.047-18.144 4.23-4.537.113-8.037-.067-10.222-.525zm19.166-3.026c17.909-4.856 30.515-21.105 30.504-39.319-.006-10.67-4.553-22.202-9.891-25.082-1.358-.733-2.469-1.236-2.469-1.117s.723 1.102 1.606 2.185c3.707 4.548 6.597 13.541 6.554 20.396-.074 11.81-6.22 23.481-15.424 29.289-5.608 3.539-13.525 5.748-20.599 5.748-4.358 0-9.228-.758-9.696-1.51-.142-.228.196-1.407.751-2.619 1.325-2.896 1.29-5.282-.118-8.052-1.325-2.605-4.55-4.549-7.519-4.53-2.612.016-6.028 1.716-7.06 3.514-.485.845-1.229 1.538-1.652 1.539-.917.005-4.541-5.196-6.356-9.119-3.337-7.212-3.775-17.917-1.037-25.338 1.733-4.699 5.604-11.721 4.539-8.235-.149.488.216.089.811-.887.884-1.449 1.028-1.542.789-.507-1.349 5.83-1.385 6.211-.798 8.527.853 3.364 2.326 5.479 4.829 6.934 6.123 3.558 14.759-.509 18.559-8.739 2.505-5.426 1.488-11.744-2.414-15-1.421-1.186-4.387-2.354-5.996-2.361-1.207-.006-.025-1.5 1.667-2.107 2.669-.957 1.512-1.609-2.189-1.234-3.808.387-7.559 2.091-12.175 5.532-20.053 14.946-22.269 43.542-4.743 61.192 5.488 5.527 13.396 9.844 20.874 11.395 4.31.894 14.532.623 18.655-.495zm-36.033-65.523c0-.31.916-1.712 2.035-3.116 1.978-2.481 6.377-5.583 7.018-4.948.175.173.089.315-.191.315-1.262 0-5.31 3.283-7 5.677-1.024 1.45-1.861 2.382-1.861 2.072zm55.71 55.85c.954-.976 1.619-1.774 1.478-1.774s-1.036.798-1.989 1.774-1.619 1.774-1.478 1.774 1.036-.798 1.989-1.774zm-19.696-.237c8.812-2.526 14.966-6.786 19.425-13.446 4.312-6.44 6.054-12.186 5.989-19.758-.07-8.229-2.739-15.963-7.114-20.615-.7-.744-1.138-1.567-.975-1.829s-.256-.417-.932-.343c-.775.084-1.143-.088-.997-.465.274-.708-9.085-5.019-15.967-7.356a97.94 97.94 0 0 0-9.455-2.587c-4.464-.933-4.94-.946-7.239-.196-1.353.442-2.32.942-2.148 1.113s1.387.889 2.699 1.595c1.603.863 2.895 2.103 3.937 3.779 1.411 2.269 1.551 2.886 1.551 6.841 0 3.648-.219 4.81-1.36 7.223-2.642 5.589-7.722 9.545-13.243 10.315-4.658.65-8.456-1.321-11.07-5.744-1.144-1.935-1.379-2.948-1.396-6.009l-.02-3.682-1.142 2.226c-.628 1.224-1.764 4.009-2.526 6.189-1.183 3.389-1.388 4.808-1.408 9.791-.018 4.267.227 6.642.914 8.868 1.219 3.951 4.064 9.671 5.912 11.886l1.461 1.751 1.44-1.696c4.747-5.594 13.406-4.2 16.279 2.619 1.051 2.494.982 4.738-.227 7.379-.735 1.606-.833 2.237-.372 2.412 3.816 1.449 12.448 1.323 17.983-.264zm-39.152-27.337c-.956-.768-1.207-1.46-1.207-3.336 0-2.033.235-2.575 1.669-3.846 2.013-1.783 3.65-1.88 5.142-.306.808.853 1.111 1.808 1.111 3.502 0 1.979-.237 2.527-1.573 3.641-1.868 1.559-3.494 1.667-5.143.343zm4.439-1.289c1.549-1.536 1.653-3.935.232-5.344-1.306-1.295-1.682-1.274-3.396.188-2.426 2.069-1.603 6.4 1.217 6.4.381 0 1.257-.56 1.947-1.244zm-4.879 29.431c0-.105-.402-.504-.894-.887-.811-.63-.829-.612-.193.191.668.844 1.087 1.113 1.087.696zm59.871-59.734c-2.657-4.165-8.861-10.248-10.475-10.271-.348-.006-1.274-.509-2.057-1.12-4.623-3.606-14.182-4.588-21.826-2.244-2.558.785-3.876 1.446-3.876 1.945 0 .58.514.715 2.215.581 1.218-.096 2.215.024 2.215.267s1.092.306 2.428.14 2.024-.131 1.531.077c-.62.261.563.742 3.833 1.56 5.664 1.416 15.856 5.347 21.851 8.428 2.389 1.228 4.539 2.244 4.778 2.258s-.039-.716-.617-1.622zm-12.594-5.683c-1.974-.896-1.056-.909 1.278-.018.984.376 1.444.69 1.022.699s-1.457-.298-2.3-.68zm3.578.235c.174-.279.546-.507.827-.507s.369.228.195.507-.546.507-.827.507-.369-.228-.195-.507zm-12.938-2.962c-3.462-1.007-6.067-1.906-5.789-1.998.547-.181 12.785 3.206 13.249 3.666.546.541-1.227.145-7.46-1.668zm12.24.375c-.665-.835-1.094-1.632-.953-1.772.298-.295 2.418 2.254 2.418 2.907 0 .64-.131.539-1.465-1.135zm-23.163-3.334c.369-.146.81-.128.98.04s-.132.288-.671.266c-.595-.024-.717-.144-.309-.306zm-26.416 10.101c.636-.804.618-.822-.193-.191-.492.383-.894.782-.894.887 0 .417.42.149 1.087-.696zm47.868-14.696c1.017-2.698 1.102-3.192.802-4.676l-.302-1.498-2.134 2.337c-1.963 2.15-2.229 2.287-3.321 1.707-.986-.523-1.323-.496-1.985.161-.676.67-.686.83-.068 1.047.401.141 1.88.696 3.285 1.234 3.329 1.274 3.119 1.291 3.723-.312zm-7.045-4.196c0-.758.335-2.319.744-3.469.847-2.381.565-2.523-2.011-1.016-1.942 1.136-2.985 2.703-3.56 5.352-.334 1.537-.27 1.62 1.344 1.783 2.106.212 3.483-.835 3.483-2.65zm4.154.142c.636-.804.618-.822-.193-.191-.492.383-.894.782-.894.887 0 .417.42.149 1.087-.696zm2.426-6.461c1.98-3.964 2.402-6.281 1.387-7.601-.761-.99-.779-.991-.795-.03-.014.856-.099.885-.655.222-.351-.419-1.256-1.021-2.01-1.337-1.156-.485-1.578-.414-2.693.456-1.503 1.172-2.555 3.001-3.057 5.317l-.345 1.588 2.323-.26c1.403-.157 2.609-.024 3.044.334.576.474.921.309 1.72-.821.55-.778 1.129-1.757 1.287-2.175.219-.579.298-.536.328.18.022.517-.607 1.772-1.398 2.787s-1.726 2.759-2.078 3.874l-.909 2.787c-.61 1.716 2.442-2.503 3.85-5.321zm1.598 2.479c0-.419-.992-.657-1.22-.292-.148.237.067.431.476.431s.744-.062.744-.139zm3.132-13.755c.636-.804.618-.822-.193-.191-.492.383-.894.782-.894.887 0 .417.42.149 1.087-.696zm-.98-1.146c1.33-1.628 1.636-3.336.911-5.072-.64-1.531-1.523-2.035-1.537-.877-.004.348-.305.063-.668-.633-.528-1.013-1.012-1.249-2.413-1.179-3.733.187-5.544 5.336-2.824 8.032 1.624 1.61 5.113 1.466 6.531-.27zm-2.415.637c1.489-2.904 1.791-3.339 1.794-2.589.001.457-.474 1.369-1.058 2.027s-.915.911-.736.561zm3.202-13.789c1.174-2.307 1.56-2.169.64.23-.7 1.825.222 1.155 1.012-.735.699-1.672.269-4.806-.491-3.586-.316.507-.476.368-.604-.528-.254-1.775-2.593-2.778-4.577-1.963-2.018.829-3.008 2.337-3.008 4.581 0 2.779 1.668 4.612 4.02 4.417 1.628-.135 2-.433 3.008-2.415zm51.505-6.481c1.421-.759 3.131-2.71 3.535-4.034.387-1.266-.532-3.372-1.273-2.917-.267.164-.485.064-.485-.221s-.486-.776-1.079-1.091c-.935-.496-1.339-.321-3.026 1.313-1.882 1.822-2.049 1.878-4.973 1.668-2.495-.179-3.554-.575-6.046-2.262-1.661-1.125-3.01-2.253-2.997-2.507s-1.198-2.029-2.69-3.944c-5.397-6.926-9.295-15.379-12.183-26.417-1.519-5.809-2.491-7.786-1.277-2.599.334 1.429.306 1.811-.104 1.404-.31-.307-.61-2.216-.666-4.243s-.14-3.684-.184-3.684-.184-1.254-.311-2.787c-.42-5.09-.223-10.855.485-14.189.846-3.986.664-4.514-.408-1.183-.606 1.883-.724 2.04-.509.676.873-5.522 5.29-9.889 11.292-11.166 10.58-2.25 23.989 10.702 30.185 29.156 2.096 6.243 2.816 9.926 2.873 14.696.048 3.96-.014 4.169-2.633 9.02-2.85 5.277-3.137 6.42-1.915 7.631.422.418.767.969.767 1.225 0 .954 2.111 2.311 3.595 2.311 2.005 0 4.161-2.056 5.687-5.423 1.05-2.318 1.175-3.346 1.146-9.442-.086-17.87-7.92-36.869-19.775-47.957-8.317-7.779-16.086-10.668-23.076-8.582-2.618.781-6.496 3.087-6.291 3.741.069.22-.75 1.165-1.821 2.1-6.301 5.5-7.864 20.318-3.811 36.13 1.1 4.293 1.108 4.48.222 5.828-1.772 2.698-3.052 5.958-3.227 8.224-.174 2.242-.163 2.23.483-.568.739-3.195 2.987-6.517 4.41-6.517.748 0 1.222 1.022 2.378 5.126 1.407 4.993 1.419 5.144.476 5.828-.532.386-1.499.702-2.148.702s-1.18.252-1.18.561.365.422.811.252 1.654-.438 2.683-.596c1.848-.284 1.891-.25 3.389 2.627 5.337 10.254 14.051 19.34 21.073 21.971 2.393.897 2.8.922 4.089.255.787-.407 1.661-.749 1.943-.759.682-.026 2.876-1.972 3.973-3.524.486-.687.883-.944.883-.57 0 1.153-3.882 4.598-5.555 4.93-.871.173-1.474.491-1.34.706.281.451 3.115-.1 4.606-.897zm-19.638-12.604c-4.971-5.599-8.847-13.126-11.364-22.064-.861-3.059-1.464-5.663-1.339-5.786s.755 1.773 1.4 4.215c2.38 9.007 6.836 17.676 11.984 23.317 1.335 1.463 2.196 2.661 1.913 2.661s-1.451-1.054-2.595-2.343zm28.91-5.581c2.519-1.619 3.525-3.218 4.475-7.106.398-1.628.742-2.489.765-1.912s-.327 2.281-.778 3.787c-.888 2.965-3.966 6.567-5.611 6.567-.608 0-.21-.462 1.148-1.336zm4.871-21.215c.01-.836.125-1.117.255-.624s.121 1.177-.019 1.52-.246-.06-.236-.896zm-.849-4.119c-.195-1.29-.469-2.715-.608-3.167-.216-.703-.181-.712.248-.062.553.839 1.377 5.574.97 5.574-.141 0-.415-1.055-.61-2.345zm-47.253-5.045c.025-.59.146-.71.309-.306.148.366.129.803-.04.971s-.291-.131-.268-.665zm44.97-2.883c-5.03-15.576-16.493-28.508-28.892-32.595-2.008-.662-2.015-.672-.274-.397 4.632.732 10.141 4.149 15.863 9.837 4.822 4.794 8.009 9.175 10.366 14.248 1.963 4.226 4.695 11.999 4.341 12.35-.122.121-.753-1.429-1.404-3.443zM98.08 32.037c0-.637 4.354-2.335 6.515-2.541l2.429-.231-2.124.46a21.14 21.14 0 0 0-4.196 1.508c-2.127 1.076-2.624 1.228-2.624.805zm-17.092 77.651c1.13-1.331 1.328-1.428 1.033-.507-.518 1.619.047 1.412.969-.355.841-1.613 1.039-3.573.361-3.573-.231 0-1.363-.801-2.517-1.78-1.909-1.62-2.22-1.725-3.452-1.168-3.617 1.634-3.617 7.822 0 8.672 1.932.454 2.213.353 3.607-1.289zm1.289-2.703c.025-.59.146-.71.309-.306.148.366.129.803-.04.971s-.291-.131-.268-.665zm28.07.611c0-.105-.402-.504-.894-.887-.811-.63-.829-.612-.193.191.668.844 1.087 1.113 1.087.695zM88.4 101.32c2.189-1.94 2.359-4.602.356-5.573-.771-.374-1.641-1.124-1.935-1.667-.723-1.34-2.159-1.242-3.975.274-3.475 2.899-1.655 8.267 2.831 8.347.628.011 1.853-.61 2.723-1.38zm-3.353.532c1.452-.347 3.833-2.699 3.833-3.787 0-.505.218-.919.485-.919.864 0-.529 3.002-1.882 4.057-.713.556-1.782.984-2.377.952-1.031-.056-1.033-.07-.059-.303zm51.877-1.84c0-.096-.517-.609-1.15-1.14l-1.15-.965.974 1.14c.915 1.072 1.326 1.371 1.326.965zM93.97 83.641c-.626-2.217-.711-2.304-1.197-1.223-.414.919-.341 1.295.348 1.794.479.347.871 1.043.871 1.547s.147.77.326.592.023-1.397-.348-2.709zm-6.284.71c-.142-.348-.258-.063-.258.633s.116.982.258.633.142-.919 0-1.267zm39.016-37.058c0-.105-.402-.504-.894-.887-.811-.63-.829-.612-.193.191.668.844 1.087 1.113 1.087.696zm-24.788-7.41c.509-.557.81-1.014.67-1.014s-.672.456-1.181 1.014-.81 1.014-.67 1.014.672-.456 1.181-1.014zm29.388-.651c0-.079-1.322-1.39-2.939-2.914l-2.939-2.77 2.794 2.914c2.595 2.707 3.084 3.146 3.084 2.77zm60.31 197.053c-16.831-3.531-29.825-16.055-33.787-32.564-.898-3.741-1.036-5.605-.857-11.555.191-6.339.387-7.599 1.848-11.833 2.808-8.139 7.872-15.515 13.678-19.922a158.01 158.01 0 0 0 5.768-4.647c5.785-4.933 11.37-7.693 18.589-9.188 1.308-.271 1.406-.468 1.406-2.84 0-2.822.922-5.018 3.071-7.313 1.2-1.282 1.456-2.057 1.628-4.935.143-2.393.512-3.824 1.233-4.781.959-1.273.978-1.507.28-3.432-.487-1.343-.623-2.732-.389-3.971.38-2.008 3.006-5.431 4.166-5.431.558 0 .549-.255-.05-1.394-1.54-2.927-.596-7.719 1.857-9.423.981-.681 1.007-.84.309-1.931-1.154-1.804-1.497-4.204-.906-6.33.452-1.624.39-2.069-.414-2.947-1.578-1.724-2.097-3.131-2.095-5.688.002-2.545 1.38-5.514 2.812-6.059 1.27-.483.885-.99-1.81-2.376l-2.573-1.324-4.165 3.062c-11.51 8.462-25.873 12.298-32.952 8.8-3.32-1.64-5.334-4.429-5.665-7.841-.454-4.69 1.714-7.106 6.352-7.075 2.979.019 4.051.737 4.95 3.311.861 2.466 2.489 3.005 6.702 2.218 6.134-1.146 14.272-6.167 21.235-13.101 11.293-11.246 19.933-26.313 19.933-34.757 0-2.916-1.878-6.285-4.517-8.102-2.082-1.434-2.504-1.526-6.9-1.502-4.077.022-5.212.239-8.771 1.678-6.001 2.427-11.179 5.823-16.234 10.648-5.286 5.046-9.416 10.252-11.591 14.611-1.568 3.144-1.569 3.148-1.271 9.629.349 7.585-.129 8.873-3.981 10.722-4.221 2.026-7.756 1.077-9.699-2.602-2.42-4.582-1.169-12.413 3.281-20.548 9.952-18.192 25.854-31.495 42.525-35.574 6.311-1.544 13.066-1.296 17.288.635 4.095 1.873 8.095 5.771 9.902 9.649 1.383 2.969 1.468 3.538 1.453 9.741-.014 5.835-.174 7.036-1.399 10.508-2.511 7.114-6.128 13.769-10.441 19.213l-2.397 3.025.138 4.708c.148 5.033-.529 7.6-2.574 9.758-1.072 1.131-.921 2.198.311 2.198.376 0 1.382.789 2.235 1.752 1.791 2.022 2.506 5.324 1.642 7.573-.475 1.236-.41 1.639.41 2.534 1.607 1.754 2.125 3.148 2.123 5.718-.002 2.495-1.373 5.512-2.743 6.033-.561.213-.511.621.258 2.117 1.752 3.407.873 7.637-2.028 9.764-1.317.966-1.473 1.31-1.069 2.363 1.095 2.855.385 6.828-1.566 8.763-1.009 1-1.021 1.155-.276 3.332.929 2.712.975 4.332.202 7.062-.316 1.115-.583 4.356-.594 7.203l-.021 5.176 3.281 2.162c6.366 4.196 15.494 14.35 19.611 21.815 3.696 6.701 5.369 13.148 5.383 20.737.036 19.857-12.6 36.612-31.679 42.007-4.921 1.392-15.557 1.789-20.444.763zm16.76-2.599c24.851-5.01 39.34-31.498 29.959-54.769-2.791-6.924-7.474-13.134-11.382-15.091-2.069-1.037-10.247-3.84-11.202-3.84-.19 0 1.14.855 2.956 1.9 7.033 4.048 12.505 11.227 14.58 19.13 1.836 6.995 1.342 15.81-1.27 22.656-2.408 6.311-8.157 13.247-13.604 16.412-5.431 3.156-14.042 5.45-19.425 5.175-2.697-.138-3.011-.265-2.874-1.168.711-4.672.649-5.632-.504-7.855-3.128-6.028-12.124-5.953-15.165.127-.662 1.324-1.471 2.407-1.798 2.407s-1.806-1.051-3.287-2.337c-9.152-7.938-13.486-22.239-10.363-34.196 1.296-4.961 3.971-10.964 3.31-7.429-.117.627.314-.342.958-2.154 1.338-3.766 1.516-4.098 3.63-6.791 1.51-1.924 5.599-4.887 6.682-4.842.296.012-.266.446-1.25.963-4.303 2.262-7.752 7.001-8.644 11.878-.68 3.712-.283 6.53 1.307 9.294 3.621 6.294 12.635 6.258 18.5-.074 6.104-6.592 6.598-15.648 1.103-20.232-1.813-1.513-5.193-2.557-7.104-2.195-1.235.234-1.254.208-.327-.464.717-.52.783-.722.246-.748-.468-.023-.364-.211.286-.516.726-.341.213-.407-1.768-.229-3.382.304-6.593 2.33-11.149 7.035-7.662 7.912-11.521 17.476-11.483 28.459.022 6.145 1.247 11.159 4.211 17.23 4.25 8.704 10.409 14.819 19.166 19.029 7.898 3.797 17.146 4.96 25.704 3.235zm-36.182-8.481c0-.085-.862-.94-1.917-1.9l-1.917-1.746 1.761 1.9c1.639 1.769 2.072 2.133 2.072 1.746zm31.467-.885c14.862-2.61 24.689-10.876 28.586-24.046 2.984-10.082 1.064-21.905-4.812-29.646-2.772-3.652-8.173-7.983-12.069-9.68-1.397-.608-2.657-1.283-2.8-1.5-.749-1.133-26.511-2.114-25.806-.982.174.279.037.507-.305.507s.853.741 2.653 1.647c2.603 1.309 3.588 2.158 4.807 4.141 1.389 2.26 1.534 2.903 1.534 6.841 0 3.648-.219 4.81-1.36 7.223-4.446 9.403-15.381 13.401-21.673 7.923-2.313-2.013-3.337-3.966-4.07-7.758l-.588-3.041-1.384 4.282c-3.251 10.055-1.897 19.803 4.015 28.911 1.87 2.882 6.703 8.092 7.891 8.507.229.08.695-.52 1.035-1.334 1.274-3.05 5.368-5.665 8.833-5.642 3.808.025 7.836 3.068 9.104 6.876.593 1.781.473 4.575-.275 6.415-.307.755-.062.887 1.645.887 1.103 0 3.37-.24 5.038-.533zm-29.397-23.837c-3.795-.807-4.794-5.407-1.816-8.36 4.119-4.084 8.955 2.911 4.986 7.212-1.235 1.338-1.62 1.478-3.169 1.148zm2.298-2.212c1.543-1.53 1.632-3.738.212-5.249-1.32-1.405-2.091-1.398-3.41.031-1.456 1.577-1.85 3.172-1.122 4.542 1.208 2.274 2.503 2.476 4.319.676zm56.453-31.38c0-.105-.403-.504-.894-.887-.811-.63-.829-.612-.193.191.668.844 1.087 1.113 1.087.695zm-8.944-8.225c-3.602-3.153-6.978-5.773-7.441-5.773-.247 0-.296.399-.109.887s-.417.034-1.342-1.008c-3.194-3.597-12.064-4.993-19.978-3.144-3.462.809-9.571 3.54-11.763 5.258l-1.278 1.002 8.178-.227c13.078-.363 27.369 1.335 33.477 3.976 2.528 1.093 2.544 1.032.256-.972zm-12.522-3.24l-1.789-.373 1.631-.067c.897-.037 1.773.161 1.947.44s.245.477.158.44-.963-.235-1.947-.44zm3.578.308c0-.11.345-.33.767-.491s.767-.071.767.199-.345.491-.767.491-.767-.09-.767-.199zm-29.229-.654c.369-.146.81-.128.98.04s-.132.288-.671.266c-.595-.024-.716-.144-.309-.306zm-.554 2.067c-.17-.168-.611-.186-.98-.04-.408.162-.287.282.309.306.539.022.841-.098.671-.266zm27.865-13.114c.027-1.762-.311-2.628-1.708-4.381l-1.741-2.185-.266 2.947c-.287 3.188-1.217 4.371-3.436 4.371-.893 0-1.398-.456-1.947-1.757-.407-.967-.741-2.24-.741-2.829 0-1.412-1.094-1.033-1.931.669-.626 1.273-1.019 4.739-.579 5.117.116.1 2.437.33 5.157.512 4.464.299 4.968.244 5.168-.564.125-.505.173-.405.111.228-.13 1.315.826 1.839 1.448.792.237-.398.445-1.712.464-2.92zm-5.586-8.244c.224-.348 1.085-.633 1.911-.633 1.147 0 1.503-.233 1.503-.984 0-.541.215-1.116.478-1.277.29-.178.314.275.06 1.152-.333 1.15-.223 1.566.537 2.037 1.359.842 1.383.82 1.738-1.562.361-2.426-.616-5.997-1.741-6.364-.516-.168-.636.07-.431.849.157.595.077.954-.178.798s-.463-.557-.463-.89c0-.931-3.417-1.847-4.329-1.16-1.319.994-1.852 4.96-1.247 9.273.705 5.026 1.163 5.696 1.492 2.182.144-1.533.445-3.072.669-3.421zm.686 3.294c-.142-.348-.258-.063-.258.633s.116.982.258.633.142-.918 0-1.267zm4.038-14.421c.48-.476 1.177-1.559 1.55-2.407.44-1.001.685-1.219.698-.622.011.506-.223 1.418-.52 2.027-.508 1.041-.478 1.036.511-.089 1.207-1.374 1.431-4.701.375-5.571-.541-.445-.646-.23-.524 1.078.132 1.417.084 1.368-.36-.371-.582-2.28-1.163-2.79-3.19-2.801-1.671-.009-3.743 1.832-4.23 3.759-.449 1.775.643 4.22 2.28 5.102 1.762.95 2.367.931 3.412-.105zm4.419-14.592c.856-1.762.944-1.828.67-.507-.173.836-.768 2.145-1.323 2.908l-1.009 1.388 1.327-.599c1.527-.69 2.784-2.807 2.784-4.689 0-2.011-2.536-4.328-4.738-4.328-4.716 0-6.125 7.437-1.724 9.102 1.389.525 2.679-.527 4.013-3.274zm-3.174-7.539c0-.105-.402-.504-.894-.887-.811-.63-.829-.612-.193.191.668.844 1.087 1.113 1.087.695zm4.366-1.903c.224-.701.474-.875.711-.495.651 1.045 2.181-1.25 2.181-3.273 0-1.317-.377-2.242-1.276-3.134-1.543-1.53-2.809-1.124-1.643.526.425.601.754 1.441.732 1.867-.035.679-.075.68-.322.014-.628-1.694-1.877-2.534-3.766-2.534-1.743 0-1.981.166-2.509 1.754-.477 1.434-.433 2.07.243 3.482 1.318 2.753 4.971 3.912 5.65 1.792zm-1.711-10.843c.377-.82.719-1.072.951-.7.216.346.604-.144.959-1.209.713-2.142-.235-4.99-1.966-5.909-1.238-.657-1.349-.184-.283 1.214 1.081 1.417.927 2.132-.169.79-1.352-1.656-4.91-1.762-5.768-.173-1.676 3.105.606 7.268 3.983 7.268 1.327 0 1.835-.284 2.293-1.281zm-31.941-4.461c5.295-1.834 11.545-5.176 16.253-8.69 2.249-1.678 4.721-3.375 5.494-3.771s1.406-.92 1.406-1.167 1.27-2.007 2.822-3.912c3.177-3.898 5.328-4.944 5.391-2.62.02.728.246 1.779.504 2.337.309.669.368-.107.173-2.286l-.295-3.3 2.774-3.356c5.189-6.276 9.604-14.86 11.388-22.138 1.042-4.25.846-11.117-.392-13.769l-.828-1.774.218 1.774c.181 1.468.097 1.364-.486-.603-.989-3.335-2.573-5.681-5.065-7.498-10.102-7.366-30.741-.934-45.724 14.25-9.07 9.192-16.581 21.617-17.753 29.369-.405 2.677.425 6.306 1.589 6.952.439.243.735.65.659.904s.476.676 1.227.937c1.67.582 4.511-.603 5.678-2.369.953-1.442 1.043-2.901.547-8.83-.378-4.515-.345-4.734 1.203-8.014.875-1.855 2.072-4.042 2.66-4.86s.933-1.488.768-1.488c-.66 0-4.841 7.041-5.666 9.539-.483 1.464-.987 2.555-1.119 2.423-1.13-1.12 6.226-14.027 7.537-13.224.237.145.597-.003.801-.329.231-.371.148-.458-.22-.232-.325.199-.59.145-.59-.12 0-.683 11.742-12.754 12.407-12.754.302 0-.009.627-.69 1.394l-1.239 1.394 1.278-1.086c2.342-1.991 8.396-5.622 11.5-6.899 4.819-1.982 6.559-2.437 11.095-2.905 3.86-.398 4.466-.334 6.794.717 2.971 1.342 5.025 3.255 6.565 6.113.887 1.646 1.088 2.855 1.055 6.341-.05 5.275-1.905 10.674-6.069 17.66-11.439 19.193-30.095 33.759-41.344 32.28-3.476-.457-4.139-.904-4.853-3.267-.711-2.354-1.193-2.751-3.267-2.692-3.125.088-4.267 2.768-2.733 6.409.507 1.204 1.259 1.901 2.55 2.364 1.179.423 1.609.792 1.209 1.037-1.323.811 2.001 1.444 6.509 1.241 3.155-.142 5.756-.608 8.28-1.483zm-6.619-.168a1.99 1.99 0 0 1 1.278 0c.351.141.064.256-.639.256s-.99-.115-.639-.256zm2.587-.517c.369-.146.81-.128.98.04s-.132.288-.671.266c-.595-.024-.717-.144-.309-.306zm2.396-.667c1.405-.599 2.212-.599 1.278 0-.422.27-1.112.479-1.533.463-.506-.018-.418-.176.256-.463zm2.343-.698c.117-.105 1.932-.934 4.034-1.842 10.019-4.329 20.672-13.829 29.258-26.092 4.861-6.942 7.461-11.443 8.681-15.022.567-1.664 1.136-2.92 1.266-2.791.34.338-1.149 4.488-2.715 7.566-1.65 3.243-6.911 11.208-10.116 15.315-3.538 4.534-11.271 12.138-15.736 15.475-3.924 2.933-12.562 7.583-14.085 7.583-.44 0-.704-.086-.587-.191zm-20.777-18.532c.824-.539 1.818-1.507 2.207-2.15.445-.735.6-.826.418-.242-.16.511-.291 1.132-.291 1.381 0 .453-2.657 2.002-3.425 1.995-.225-.002.266-.444 1.09-.983zm2.886-9.445c.025-.59.146-.71.309-.306.148.366.129.803-.04.971s-.291-.131-.268-.665zm61.606-20.482c.166-1.254.49-2.479.72-2.722s.199.555-.069 1.774c-.695 3.161-1.003 3.61-.651.948zm-40.176-8.874c1.972-2.356 13.131-7.904 15.735-7.822.479.015-.436.442-2.033.948-3.343 1.06-9.024 4.051-11.736 6.179-2.013 1.579-2.997 1.928-1.966.696zm24.356 51.316c-.142-.348-.258-.063-.258.633s.116.982.258.633.142-.919 0-1.267zm-4.179-2.813c-.839-.781-1.641-1.331-1.781-1.224-.289.221 2.423 2.643 2.96 2.643.191 0-.339-.639-1.178-1.42zm7.31-2.704c-.128-.38-.359-.15-.54.535-.222.843-.156 1.041.223.665.297-.294.439-.835.317-1.2zm-3.367-.944c.659 0 .92-.389.92-1.368 0-.753-.176-1.152-.391-.887l-1.653 2.002c-.694.836-.932 1.235-.529.887s1.147-.633 1.653-.633zm2.291-1.615c-.163-.404-.284-.284-.309.306-.022.534.099.834.268.665s.188-.605.04-.971zm-12.36-1.932c1.098-1.115 1.881-2.027 1.741-2.027s-1.154.912-2.252 2.027-1.881 2.027-1.741 2.027 1.154-.912 2.252-2.027zm20.527-36.614c-.142-.348-.258-.063-.258.633s.116.982.258.633.142-.919 0-1.267zm5.284-13.731c0-.096-.517-.609-1.15-1.14l-1.15-.965.974 1.14c.915 1.072 1.326 1.371 1.326.965z"/><path d="M125.757 114.787c.124-.12.711-.396 1.303-.614 1.993-.734 5.358-3.742 5.358-4.791 0-.617-.595-.278-1.472.837-1.574 2.002-2.757 2.772-6.29 4.097-.509.191-.924.157-1.919-.155-7.33-2.301-15.862-10.804-22.067-21.993-.93-1.677-1.75-2.886-2.049-3.022-.357-.163-1.077-.115-2.538.169-2.175.422-2.271.43-2.285.181-.005-.088.539-.27 1.209-.404 1.455-.291 2.36-.836 2.532-1.526.241-.969-2.099-9.042-2.857-9.855-.544-.584-.794-.588-1.713-.028-.868.529-2.144 2.387-2.896 4.215-.3.729-.547 1.144-.55.922-.009-.707 1.306-3.828 2.399-5.692 1.3-2.218 1.311-2.596.207-7.115-1.655-6.773-2.302-12.41-2.088-18.177.161-4.341.605-7.102 1.651-10.274 1.015-3.076 2.227-5.088 4.412-7.32.973-.994 1.769-1.884 1.769-1.978s.152-.113.338-.042 1.38-.334 2.653-.902 3.166-1.234 4.205-1.481c1.699-.404 2.505-.696 1.924-.696-1.001 0-4.147.548-5.28.92-.773.254-1.461.405-1.529.337-.209-.209 3.205-1.684 4.727-2.042 2.041-.481 5.606-.441 7.667.086 5.126 1.311 10.042 4.44 15.456 9.837 9.211 9.183 15.517 22.292 17.965 37.345.579 3.559.864 14.049.437 16.102-.682 3.286-3.531 7.305-5.56 7.841-1.6.423-3.732-.554-4.329-1.985a6.89 6.89 0 0 0-.901-1.479c-.922-1.095-.665-2.01 2.099-7.492l2.438-4.834.097-2.541c.161-4.203-.405-8.166-1.899-13.308-3.24-11.148-9.356-21.32-16.246-27.018-5.64-4.665-10.747-6.285-15.766-5.001-4.186 1.07-7.713 3.815-9.373 7.292-1.028 2.154-1.671 4.683-1.19 4.683.105 0 .375-.61.601-1.356.508-1.678.713-1.587.37.164-.738 3.766-.994 12.013-.503 16.208.13 1.106.131 1.836.003 1.882-.288.104-.264 1.336.028 1.434.131.044.325 1.24.434 2.672.204 2.684.484 3.835.934 3.835.26 0 .218-.686-.152-2.484-.389-1.887.173-.212 1.476 4.403 2.982 10.558 6.138 17.524 10.911 24.084 1.092 1.501 1.946 2.768 1.898 2.816-.177.177-2.726-3.04-4.492-5.669-2.103-3.131-5.213-9.339-6.393-12.764a154.69 154.69 0 0 1-1.832-5.871c-.558-1.925-1.111-3.596-1.228-3.714-.93-.936 1.338 7.537 3.442 12.859 2.546 6.44 6.689 13.042 10.308 16.428 1.159 1.084 1.609 1.303 1.626.789.005-.155.163.002.351.349.411.758 3.442 3.049 5.107 3.861 1.451.708 3.11 1.04 5.191 1.04 1.837 0 2.066-.103 4.088-1.841.845-.726 1.744-1.321 1.997-1.321.61 0 1.772.842 1.772 1.284 0 .242.143.312.466.228.582-.152 1.339.978 1.34 2.001.002 1.52-2.61 4.4-4.647 5.124-1.319.469-3.478.787-3.142.462zm13.352-17.821c1.032-.49 3.02-2.716 3.9-4.368.746-1.399 1.602-4.341 1.602-5.506 0-1.15-.414-.396-1.043 1.899-.982 3.583-1.852 4.938-4.289 6.677-1.887 1.347-1.994 2.164-.17 1.298zm5.502-22.199c0-.489-.102-.953-.226-1.029-.138-.085-.226.261-.226.89 0 .566.102 1.029.226 1.029s.226-.4.226-.89zm-.452-2.477c0-1.742-1.232-6.235-1.509-5.503-.096.254.284 2.495.863 5.088.266 1.191.646 1.435.646.415zm-2.27-9.184c-.391-1.231-1.272-3.661-1.957-5.399-2.947-7.477-5.755-11.846-11.227-17.468-5.674-5.83-11.009-9.428-15.61-10.529-2.364-.566-3.105-.354-1.112.318 12.348 4.164 23.223 16.244 28.676 31.857.586 1.677 1.229 3.353 1.429 3.726.674 1.253.567-.092-.199-2.504zm28.968 23.376c-1.27-.25-1.433-.372-1.285-.963.108-.429-.07-.591-1.293-1.178-1.614-.775-2.268-1.578-2.813-3.452-.848-2.916.562-5.005 3.379-5.006 1.427 0 2.159.711 2.842 2.762.772 2.319 1.564 2.789 5.439 3.23 2.894.329 7.534-.854 11.685-2.98 5.312-2.72 9.794-6.155 15.54-11.91 4.617-4.624 7.88-8.587 11.265-13.683 6.404-9.642 8.671-15.856 8.427-23.094-.116-3.426-.447-4.42-2.286-6.85-2.012-2.659-5.744-4.859-8.509-5.016-1.888-.107-7.06.494-9.267 1.076-3.484.919-7.683 2.814-11.914 5.376-.91.551-1.704.953-1.764.892-.211-.211 3.872-2.754 6.806-4.238 1.631-.825 3.781-1.771 4.78-2.104s2.008-.75 2.243-.928c.404-.306.393-.324-.21-.331-2.454-.028-12.629 5.016-15.123 7.496-.596.593-1.2 1.077-1.342 1.077-.322 0-9.068 8.783-10.966 11.014-1.481 1.74-1.639 2.07-1.003 2.103.217.011.062.116-.345.234-.502.145-1.07.637-1.762 1.53-2.999 3.862-6.525 11.068-5.781 11.813.267.267.591-.3 1.512-2.645.656-1.671 3.025-6.08 3.182-5.923.051.051-.403 1.1-1.008 2.33-1.706 3.467-1.706 3.47-1.476 7.986.32 6.28.269 7.625-.331 8.866-.624 1.288-1.955 2.323-3.608 2.804-1.111.324-1.288.321-2.218-.035-.556-.212-1.071-.553-1.145-.756s-.463-.741-.866-1.195c-.997-1.123-1.569-3.637-1.368-6.014.388-4.593 4.363-12.938 9.595-20.144 3.948-5.438 9.264-11.141 13.806-14.812 5.331-4.308 12.315-8.221 18.064-10.12 6.685-2.208 11.958-2.637 16.822-1.366 5.004 1.307 8.69 4.97 10.16 10.096.418 1.46.825 1.744.646.452-.09-.648-.06-.767.129-.508.913 1.255 1.477 6.264 1.139 10.119-.694 7.916-5.183 17.557-12.298 26.414l-2.411 3.001.249 2.733c.137 1.503.205 2.777.152 2.831s-.212-.495-.352-1.218c-.465-2.408-.432-2.332-1.042-2.332-.881 0-1.668.516-3.163 2.072-1.713 1.783-2.991 3.356-3.913 4.815-.741 1.172-.928 1.312-9.731 7.271-5.104 3.456-11.673 6.635-15.954 7.723-3.386.86-8.774 1.187-11.314.686zm8.139-1.228c.06-.274-.857-.429-1.372-.232-.322.123-.327.172-.04.359.409.265 1.345.181 1.412-.127zm2.365-.508c.061-.184-.145-.282-.59-.282-.723 0-1.132.332-.655.532.46.192 1.144.055 1.244-.249zm2.416-.544c.735-.335.79-.958.067-.754-1.039.293-1.75.625-1.75.818 0 .283 1.005.245 1.683-.064zm4.346-1.506c4.333-1.885 10.289-5.522 13.715-8.375 2.667-2.221 9.373-8.805 11.746-11.534 3.125-3.592 8.564-11.415 11.305-16.258 1.835-3.243 3.848-8.527 3.413-8.962-.243-.243-.459.173-1.603 3.091-1.236 3.152-3.04 6.436-5.942 10.816-4.674 7.056-9.063 12.428-14.313 17.522-6.298 6.111-11.678 9.779-19.214 13.101-1.335.588-2.427 1.158-2.427 1.267 0 .439 1.444.148 3.319-.668zm-23.066-17.632c1.429-.82 1.593-1.026 1.797-2.266l.166-1.004-1.326 1.356c-.729.746-1.681 1.625-2.116 1.953-.766.58-.773.598-.226.606.31.005 1.078-.286 1.705-.645zm2.544-9.655c-.104-.879-.636-.957-.636-.093 0 .481.109.696.354.696.251 0 .333-.176.282-.604zm61.449-19.662c.435-1.551.767-3.665.6-3.831-.356-.356-.761.965-1.141 3.718-.165 1.196.215 1.275.541.113zm-16.329 54.934c-2.182-.778-3.537-3.294-3.036-5.64.316-1.482 1.199-2.159 2.819-2.159 1.38 0 2.46.417 3.246 1.255 1.092 1.162 1.228.332.192-1.173-.385-.559-.647-1.068-.584-1.132.198-.198.967.323 1.691 1.148 1.15 1.309 1.518 3.606.838 5.232-.263.63-.427.77-.771.661s-.548.06-.944.764c-.736 1.31-1.801 1.631-3.452 1.043zm2.225 10.522c-1.578-.717-3.046-2.777-3.046-4.273 0-1.016.678-2.741 1.183-3.012.253-.136 1.037-.205 1.742-.154 1.552.112 2.52.731 3.232 2.065l.502.941.073-.745c.049-.497-.124-1.08-.518-1.753-.325-.555-.535-1.099-.466-1.21.36-.583 2.208.877 2.754 2.176.573 1.363.258 3.407-.695 4.516-.474.551-.569.58-.926.284s-.425-.282-.647.107c-.476.834-1.248 1.479-1.763 1.474-.285-.003-.926-.19-1.423-.416zm-2.733 11.733a5.16 5.16 0 0 1-1.242-1.185c-.462-.647-.539-1.019-.539-2.579 0-1.617.071-1.93.63-2.775 1.095-1.655 2.807-2.357 4.506-1.848 1.235.37 3.247 2.38 3.447 3.443.288 1.536-.788 3.881-2.238 4.874-.4.274-.787.499-.859.499s.258-.787.734-1.75c.922-1.866 1.265-2.992.91-2.992-.12 0-.591.71-1.047 1.579-.915 1.741-2.305 3.164-3.091 3.162-.279 0-.824-.194-1.21-.429zm-2.701 11.97c-1.617-.735-2.807-2.649-2.807-4.519 0-1.595 1.958-3.924 3.549-4.223 1.124-.211 2.379.056 2.824.599.214.262.563 1.052.776 1.757.52 1.723.754 1.924.754.648 0-1.218.27-1.367.681-.376.374.902.166 2.85-.424 3.973l-.458.873.132-1.185c.073-.652.042-1.185-.069-1.185s-.488.55-.839 1.221c-.771 1.476-2.088 2.845-2.73 2.838-.259-.003-.884-.193-1.39-.422zM83.307 101.882c-2.682-1.657-2.851-5.079-.362-7.324 1.699-1.532 2.676-1.656 3.712-.471.393.45 1.248 1.215 1.9 1.701 1.292.962 1.421 1.206.734 1.386-.256.067-.452.308-.452.557 0 1.087-2.168 3.361-3.749 3.933-.422.153-.767.359-.767.458 0 .281-.281.215-1.016-.24zm-6.043 8.903c-1.127-.402-1.413-.665-1.962-1.799-1.117-2.308-.146-5.353 2.067-6.482 1.132-.577 1.273-.524 3.901 1.481 1.065.813 2.035 1.477 2.156 1.477.595 0-.116 2.872-1.013 4.093l-.394.536.146-.847c.08-.466.069-.847-.026-.847s-.738.61-1.429 1.355c-1.376 1.483-1.815 1.614-3.446 1.032zm5.478-3.742c0-.373-.095-.677-.211-.677-.274 0-.537.833-.355 1.127.276.447.566.217.566-.45zm-9.022 15.313c-1.338-.695-2.042-2.012-2.042-3.817 0-1.554.27-2.353 1.087-3.218 2.042-2.16 5.248-1.94 6.114.419.421 1.148.402 1.129.815.787.516-.428.67-.12.67 1.34 0 .911-.165 1.662-.543 2.468-.676 1.444-.839 1.357-.337-.179.644-1.968.05-1.856-1.044.198-.927 1.739-1.492 2.239-2.711 2.396-.783.101-1.224.014-2.01-.393zm-1.478 12.023c-1.235-.632-1.974-1.787-2.097-3.277s.237-2.627 1.158-3.677c.845-.963 1.835-1.415 3.099-1.415.752 0 1.059.136 1.588.701.36.386.655.792.655.903s.152.202.339.202.339-.168.339-.374c0-.645.833.288 1.263 1.415.71 1.86-.02 4.061-1.779 5.366-.932.691-3.357.773-4.565.155zm4.644-1.738c.447-.924.429-1.598-.036-1.311-.271.167-1.56 2.703-1.56 3.068 0 .473 1.106-.745 1.596-1.758zm-6.563 18.586c0-.04.24-.779.533-1.641.661-1.943 1.197-3.002 2.633-5.201.843-1.292 1.121-1.927 1.111-2.54-.012-.716-.047-.766-.282-.403-2.168 3.347-2.04 3.202-2.753 3.109-.373-.049-1.77-.098-3.105-.111l-2.427-.023.143-.792c.425-2.353 1.822-4.785 3.409-5.933.893-.647 1.012-.674 1.829-.43.481.144 1.34.618 1.91 1.053s1.093.791 1.163.791.13-.279.134-.621l.007-.621.557.634c1.349 1.533.067 5.727-3.278 10.729-1.215 1.816-1.583 2.282-1.583 1.999zm-7.429 3.479c-.85-.538.669-4.633 2.182-5.88 1.02-.84 3.137-1.97 3.33-1.776.078.078-.072.834-.333 1.68s-.573 2.229-.693 3.072c-.256 1.807-.529 2.314-1.492 2.771-.783.372-2.495.447-2.994.132zm7.429 1.888l-2.921-1.124c-.251-.096-.188-.26.277-.726l.602-.602 1.137.409c1.406.506 1.561.423 3.752-1.996.982-1.084 1.619-1.622 1.757-1.484.119.119.224.905.234 1.747.023 2.035-.993 4.812-1.752 4.79-.269-.008-1.657-.464-3.085-1.014zm135.562-17.636c-.507-2.69-.574-7.811-.123-9.304.164-.542.553-1.241.865-1.552.497-.497.695-.549 1.607-.424 1.477.203 2.613.815 2.767 1.493.071.31.315.599.543.643.362.07.395-.024.262-.733-.259-1.383.513-.98 1.27.663.441.957.517 1.492.517 3.65 0 2.899-.148 3.23-1.2 2.686-.836-.432-1.014-.914-.718-1.945.303-1.056.283-1.351-.09-1.351-.342 0-.589.473-.589 1.131 0 .643-.631 1.127-1.469 1.127-1.118 0-1.898.369-2.143 1.013-.119.313-.333 1.509-.476 2.657s-.337 2.173-.432 2.277-.361-.81-.592-2.032zm5.836 8.235c-.15-.15-.274-.634-.275-1.075l-.001-.802-.532.665-.532.665-4.265-.283c-5.851-.388-5.367-.171-5.218-2.338.146-2.136 1.091-4.355 1.854-4.355.37 0 .479.211.621 1.2.237 1.644 1.155 3.515 1.888 3.85.676.308 1.978.142 2.765-.352s1.368-2.041 1.59-4.235l.309-2.063c.139-.139 2.231 2.684 2.762 3.728.566 1.113.404 4.572-.245 5.221-.35.35-.506.388-.72.173zm10.452 11.767c-2.934-1.024-6.724-1.806-11.854-2.446-5.594-.698-9.57-.917-17.048-.939-3.726-.011-6.647-.071-6.492-.134.52-.21.29-.528-.382-.528-.651 0-1.228.426-.648.478.616.056-1.107.373-2.164.398l-1.105.027.997-.761c2.389-1.824 8.305-4.459 11.962-5.327 2.71-.643 6.514-.911 9.393-.661 4.605.4 7.903 1.612 10.188 3.743 1.378 1.286 1.742 1.461 1.556.748s.243-.543 2.037.808c1.817 1.367 6.383 5.237 6.383 5.409 0 .162-.153.117-2.822-.814zm-8.467-3.131c0-.541-1.053-.916-2.572-.916-.862 0-1.506.061-1.431.137.111.111 3.209.896 3.834.972.093.011.169-.075.169-.193zm2.933-.123c.226-.272.21-.363-.086-.476-.544-.209-1.493.095-1.493.478 0 .446 1.208.445 1.578-.002zM81.162 171.507c-4.619-2.225-9.311-4.195-14.79-6.209-2.875-1.057-2.553-1.039 1.788.097 1.911.5 3.224.741 3.35.615.271-.271.205-.302-2.316-1.117-3.959-1.279-10.823-3.071-11.018-2.876-.239.239.293.529 1.885 1.029 2.357.739 1.774.834-.755.122-2.732-.768-3.262-.985-3.088-1.266.099-.161-.465-.225-1.736-.197-1.036.022-2.179-.077-2.54-.222s-1.352-.239-2.201-.209c-2.93.101-2.308-.91 1.264-2.054 3.066-.982 5.853-1.397 9.363-1.394 5.668.005 9.376 1.021 13.23 3.623.745.503 1.513.915 1.706.916 1.475.003 7.513 5.869 10.225 9.933.825 1.237.977 1.599.657 1.566-.093-.01-2.354-1.07-5.024-2.356zm-3.598-3.957c.505-.27.592-1.121.114-1.121-.341 0-1.032.591-1.032.882 0 .183.24.473.391.473.05 0 .287-.105.527-.234zm-1.821-.202c0-.208-1.787-.942-3.014-1.236-1.111-.267-.574.38.773.931 1.29.528 2.241.657 2.241.305zm1.818-2.247c-.328-.792-1.857-2.511-2.234-2.511-.619 0 .118 1.374 1.728 3.223.52.597.854.127.506-.712zm-23.494-3.865c0-.124-.305-.226-.677-.226s-.677.102-.677.226.305.226.677.226.677-.102.677-.226z" fill="#ffb380"/><path d="M48.482 241.997c-5.732-.809-13.269-4.221-18.681-8.459-2.051-1.606-5.586-5.186-7.186-7.277-3.476-4.544-6.189-10.471-7.387-16.142-2.422-11.464.623-24.171 7.972-33.266 4.476-5.539 10.98-10.414 16.258-12.186 2.539-.852 6.93-1.206 6.93-.558 0 .104-.659.503-1.465.888-1.465.699-2.065 1.334-1.833 1.938.068.177.415.321.772.321.838 0 2.911.716 4.364 1.507 2.963 1.613 4.94 5.44 4.932 9.548-.004 2.227-.489 4.216-1.574 6.462-3.292 6.813-10.427 10.89-16.014 9.151-3.559-1.108-5.835-3.682-6.899-7.805-.473-1.833-.441-2.616.234-5.762.704-3.279.667-3.863-.168-2.642-.385.563-.633.759-.713.565-.209-.509-.932.54-2.486 3.608-1.824 3.601-2.914 6.514-3.567 9.538-.435 2.012-.511 3.045-.516 6.99-.006 5.026.358 7.671 1.577 11.44 1.43 4.423 6.215 12.043 7.563 12.043.406 0 .761-.329 2.376-2.203.53-.615 1.444-1.265 2.538-1.806 1.596-.789 1.847-.846 3.758-.846 1.847 0 2.192.071 3.512.721 1.899.935 3.275 2.306 4.149 4.134.628 1.313.701 1.682.693 3.5-.008 1.761-.105 2.266-.734 3.788-.399.966-.725 2.055-.725 2.421 0 .609.101.694 1.185 1.006 2.766.796 7.89 1.155 11.572.812 5.089-.475 10.263-1.851 14.424-3.837 9.03-4.31 15.604-13.215 18.012-24.399.739-3.43.739-9.89.001-13.322-1.14-5.3-3.303-10.489-5.718-13.714-.714-.953-1.258-1.773-1.21-1.822s.713.245 1.476.651c6.115 3.259 10.989 17.009 9.967 28.116-.662 7.2-2.819 13.289-6.833 19.294-1.972 2.95-5.407 6.721-8.216 9.019-4.789 3.918-11.914 7.318-17.328 8.268-2.217.389-12.9.614-15.013.316zm-17.147-67.814c2.257-2.89 5.372-5.533 6.981-5.922.81-.196.8-.553-.016-.553-.864 0-3.121 1.403-5.004 3.11-1.374 1.246-3.843 4.482-3.843 5.038 0 .53.529.06 1.882-1.672zm19.118 58.116c-2.11-.389-2.935-.696-2.934-1.093.001-.213.303-1.163.673-2.113.819-2.106 1.042-3.8.707-5.365-.656-3.057-2.618-5.588-5.397-6.962-1.672-.826-1.783-.849-4.213-.849-2.35 0-2.588.043-4.076.742-1.202.564-1.962 1.144-3.174 2.421l-1.593 1.678-1.282-1.625c-2.083-2.64-5.146-8.983-6.159-12.753-.488-1.817-.769-7.579-.544-11.164.14-2.239.344-3.499.795-4.928.801-2.534 2.18-5.983 3.143-7.859l.776-1.512.011 2.529c.014 3.151.295 4.537 1.285 6.331.954 1.729 2.972 3.946 4.3 4.724 4.87 2.854 11.872 1.262 16.68-3.792 1.722-1.81 2.595-3.088 3.717-5.444s1.436-4.327 1.304-8.242c-.099-2.937-.116-3.021-.973-4.71-1.135-2.236-2.867-3.978-5.25-5.278-1.454-.794-1.792-1.069-1.573-1.282.531-.515 3.08-1.207 4.446-1.207 2.842 0 11.234 2.169 17.113 4.422 6.474 2.481 12.201 5.276 12.588 6.142.171.384.414.5 1.048.5.676 0 .849.095.957.527.073.29.748 1.28 1.501 2.202 4.58 5.605 6.801 13.11 6.475 21.883-.195 5.258-.977 8.434-3.197 12.985-2.444 5.009-5.978 9.386-10.042 12.437-3.483 2.614-9.25 5.137-14.202 6.213-1.738.378-3.166.49-7.036.552-2.67.043-5.312-.006-5.871-.109zm-19.925-27.688c2.248-1.12 2.987-2.611 2.696-5.437-.307-2.977-2.673-4.492-5.088-3.26-1.217.621-2.688 2.3-2.872 3.278-.266 1.416-.013 3.673.487 4.36.538.739 2.202 1.639 3.028 1.639.322 0 1.109-.261 1.748-.58zm-2.116-.718c-.262-.044-.764-.38-1.115-.746-.914-.954-1.056-2.935-.306-4.269.452-.805 2.2-2.268 2.709-2.268.333 0 1.581 1.193 1.906 1.822.42.811.425 2.31.011 3.1-.368.703-1.617 1.927-2.277 2.232a1.87 1.87 0 0 1-.929.128zm169.093 20.783c-.606-.117-.598-.028-.144-1.589.258-.888.338-1.855.274-3.321-.115-2.628-.808-4.162-2.767-6.127-3.511-3.52-8.146-3.976-12.29-1.208-1.575 1.052-2.467 2.049-3.36 3.759-.344.659-.78 1.193-.974 1.193-.413.001-4.17-3.745-5.941-5.923-1.655-2.036-3.057-4.321-4.403-7.179-3.158-6.705-3.923-13.703-2.269-20.768.7-2.992 2.113-7.207 2.194-6.548.207 1.683 1.254 5.368 1.874 6.597 1.421 2.814 4.473 5.051 7.653 5.609 3.72.652 8.196-.758 11.762-3.705 2.565-2.12 4.88-5.489 5.864-8.533.479-1.483.536-2.06.525-5.387-.014-4.241-.191-4.946-1.869-7.416-1.091-1.606-2.005-2.33-4.812-3.81-2.136-1.126-2.528-1.71-1.365-2.035.342-.095 3.161-.158 6.266-.139 8.709.053 17.168.675 18.516 1.361l2.71 1.365c4.175 2.095 8.606 5.447 11.228 8.494 4.772 5.545 7.254 12.744 7.252 21.035-.002 7.151-1.909 13.568-5.734 19.286-4.393 6.568-11.302 11.272-19.911 13.558-3.669.974-8.885 1.701-10.279 1.432zm-20.514-24.689c2.468-2.167 2.611-6.24.289-8.279-1.884-1.654-4.406-.961-5.923 1.629-1.177 2.008-.938 4.468.58 5.986.951.951 1.819 1.299 3.319 1.331.756.016 1.113-.121 1.735-.667zm-3.896-1.453a5.38 5.38 0 0 1-.95-1.653c-.226-.753-.194-1.019.243-2.034.546-1.268 1.996-2.752 2.69-2.752.556 0 1.743.997 2.17 1.822.421.815.424 2.309.007 3.117-.178.345-.737 1-1.243 1.456-1.211 1.094-1.983 1.105-2.916.043zm22.556 35.539c-7.645-.989-15.427-4.252-21.122-8.855-5.89-4.762-10.63-11.769-13.201-19.517-1.385-4.174-1.612-5.545-1.746-10.558-.199-7.421.762-12.224 3.67-18.351 2.174-4.579 4.599-7.898 8.719-11.933 2.787-2.73 4.334-3.957 6.133-4.865 1.337-.675 3.737-1.306 4.994-1.314.633-.004.644.012.226.33-.349.266-.377.375-.137.533.234.154.171.301-.282.658-.321.252-.584.519-.584.592s.586.072 1.302-.003c2.387-.249 5.849 1.036 7.572 2.811 3.847 3.963 4.075 10.374.577 16.224-1.005 1.681-3.74 4.579-5.295 5.612-6.493 4.31-13.729 2.386-16.254-4.323-2.322-6.168 1.298-15.019 7.641-18.684 1.748-1.01 2.267-1.498 1.594-1.498-1.238 0-5.411 3.203-7.137 5.477-1.396 1.839-2.065 3.106-2.971 5.628-.449 1.248-.712 1.699-.941 1.612-.684-.262-3.337 6.931-4.067 11.029-.454 2.549-.51 8.086-.107 10.689.959 6.199 3.26 11.822 6.757 16.511 1.508 2.022 4.807 5.267 6.461 6.355 1.385.911 1.641.785 2.89-1.428 1.167-2.067 2.231-3.131 4.009-4.007 1.351-.666 1.636-.721 3.73-.721 2.103 0 2.376.053 3.763.736 1.799.886 2.934 2.083 3.877 4.091.624 1.328.698 1.698.657 3.302-.025.994-.138 2.362-.25 3.041-.24 1.45-.169 1.724.493 1.901.929.249 5.912.137 7.844-.177 4.551-.739 10.508-2.752 13.758-4.65 5.778-3.375 11.66-10.48 14.019-16.937 2.126-5.816 2.793-13.756 1.68-19.983-1.607-8.992-7.302-17.029-15.448-21.805-.919-.538-1.554-1.018-1.412-1.065.666-.222 9.323 3.035 10.968 4.127 3.732 2.477 8.502 9.496 10.716 15.768 4.198 11.895 2.584 24.84-4.424 35.49-6.524 9.914-17.038 16.54-28.665 18.064-2.746.36-7.589.405-10.002.093z" fill="#ff8080"/></svg>