<?xml version="1.0" encoding="UTF-8" standalone="no"?>
<svg
   xmlns:dc="http://purl.org/dc/elements/1.1/"
   xmlns:cc="http://creativecommons.org/ns#"
   xmlns:rdf="http://www.w3.org/1999/02/22-rdf-syntax-ns#"
   xmlns:svg="http://www.w3.org/2000/svg"
   xmlns="http://www.w3.org/2000/svg"
   xmlns:sodipodi="http://sodipodi.sourceforge.net/DTD/sodipodi-0.dtd"
   xmlns:inkscape="http://www.inkscape.org/namespaces/inkscape"
   viewBox="0 0 255 255"
   version="1.1"
   id="svg12"
   sodipodi:docname="heartless.svg"
   inkscape:version="1.0.2-2 (e86c870879, 2021-01-15)">
  <metadata
     id="metadata18">
    <rdf:RDF>
      <cc:Work
         rdf:about="">
        <dc:format>image/svg+xml</dc:format>
        <dc:type
           rdf:resource="http://purl.org/dc/dcmitype/StillImage" />
      </cc:Work>
    </rdf:RDF>
  </metadata>
  <defs
     id="defs16" />
  <sodipodi:namedview
     pagecolor="#ffffff"
     bordercolor="#666666"
     borderopacity="1"
     objecttolerance="10"
     gridtolerance="10"
     guidetolerance="10"
     inkscape:pageopacity="0"
     inkscape:pageshadow="2"
     inkscape:window-width="1920"
     inkscape:window-height="1017"
     id="namedview14"
     showgrid="false"
     inkscape:zoom="3.2452107"
     inkscape:cx="113.26169"
     inkscape:cy="114.37964"
     inkscape:window-x="-8"
     inkscape:window-y="-8"
     inkscape:window-maximized="1"
     inkscape:current-layer="svg12" />
  <path
     style="fill:#000000;stroke-width:0.813424"
     d="m 121.05718,237.54237 c -4.98737,-6.65486 -9.38386,-14.9857 -11.13703,-21.10335 l -1.28118,-4.47065 h -3.94104 c -13.907938,0 -26.053408,-7.24482 -31.850008,-18.99864 -1.57309,-3.18977 -2.86016,-6.67172 -2.86016,-7.73768 0,-2.30436 0.18325,-2.31897 12.15093,-0.96904 7.48571,0.84438 9.30891,0.79204 14.17058,-0.40679 6.848718,-1.68881 8.626238,-3.53172 9.939978,-10.30562 0.81955,-4.22579 0.77202,-5.83691 -0.29715,-10.07048 -0.70004,-2.77192 -2.05341,-6.36036 -3.00749,-7.97431 C 100.2178,150.89307 90.346712,138.59576 75.583712,121.4199 51.647402,93.571438 48.952662,89.774929 45.294822,78.747159 c -2.82697,-8.522855 -3.50425,-20.409763 -1.62395,-28.502124 3.39701,-14.619905 13.07466,-27.639454 24.57136,-33.056355 6.80663,-3.207076 12.02758,-4.282495 20.84146,-4.292955 9.84142,-0.01168 16.306278,1.755691 23.374938,6.390284 4.33691,2.843507 13.25501,11.852994 13.25501,13.390843 0,0.34132 2.99829,-2.417314 6.66287,-6.1303 10.09496,-10.228289 17.95801,-13.660551 31.29533,-13.660551 17.02393,0 30.3192,7.485025 38.56349,21.710628 4.69189,8.095915 6.7899,14.998768 7.27719,23.943379 0.51978,9.541163 -0.69401,15.974733 -4.6022,24.393493 -3.76898,8.118882 -7.2386,12.878638 -21.50338,29.499169 -23.39876,27.26297 -33.09083,40.14318 -35.91227,47.72541 -2.04961,5.50801 -1.92194,14.45523 0.2673,18.73316 3.0305,5.92183 15.65931,7.42128 32.7942,3.89376 l 2.75096,-0.56634 -0.53062,2.69138 c -1.63804,8.30835 -9.67004,18.91529 -17.32214,22.87541 -4.72669,2.44615 -11.84725,4.18292 -17.14953,4.18292 h -4.52856 l -1.444,4.7108 c -2.72754,8.89811 -13.37386,26.42142 -16.05238,26.42142 -0.58147,0 -2.9317,-2.50119 -5.22272,-5.55822 z m 13.16435,-9.10503 c 1.94135,-3.33351 4.47851,-8.69984 5.63814,-11.92519 l 2.10841,-5.86427 7.01567,-0.90531 c 15.48666,-1.99841 24.66386,-8.41727 29.96253,-20.95684 l 1.52085,-3.59918 -4.15763,0.76874 c -2.2867,0.42281 -8.51879,0.64215 -13.84909,0.48743 -11.30068,-0.32804 -14.32601,-1.55141 -16.96005,-6.85829 -2.53672,-5.11079 -2.29805,-16.52607 0.47059,-22.50708 2.85429,-6.16604 14.17425,-21.21722 29.50962,-39.23641 19.5447,-22.965176 22.68916,-27.024867 26.08535,-33.677717 4.35008,-8.521454 5.71747,-13.806327 5.71747,-22.097653 0,-13.312819 -4.74889,-25.255128 -13.72956,-34.526504 -8.02403,-8.283769 -17.49486,-12.350141 -29.02851,-12.463599 -13.77751,-0.135531 -25.67429,5.82752 -34.03326,17.058574 -1.84648,2.480919 -3.76787,4.493069 -4.26974,4.471444 -0.50187,-0.02162 -2.36621,-2.107094 -4.14298,-4.634378 -6.35553,-9.040158 -16.36334,-15.124661 -27.612848,-16.78794 -12.74287,-1.884077 -26.3872,2.736758 -35.38162,11.982448 -9.15162,9.407296 -13.40559,19.174704 -13.94081,32.009084 -0.41412,9.930399 1.03108,17.063465 5.18802,25.606466 3.01871,6.203833 8.16209,12.76866 29.3625,37.477245 25.640088,29.88295 28.334648,34.12571 28.877428,45.46943 0.44932,9.39023 -1.26399,14.26463 -5.87558,16.7162 -2.906898,1.54533 -4.576298,1.71607 -16.666188,1.70455 l -13.43571,-0.0128 0.69777,1.86172 c 4.96062,13.23564 15.4067,20.49211 31.648768,21.98515 l 5.98122,0.54983 1.0605,4.19755 c 1.37229,5.43159 5.96989,14.40518 10.4966,20.48724 l 3.58032,4.81048 2.31605,-2.76474 c 1.27382,-1.52061 3.90442,-5.49216 5.84577,-8.82567 z m -12.23681,-11.18239 c -1.58126,-3.4718 -3.32792,-8.5701 -3.88147,-11.32954 l -1.00645,-5.01717 -10.43067,-0.53703 c -11.436658,-0.5888 -15.151218,-1.37957 -15.516608,-3.30321 -0.18542,-0.9762 0.82752,-1.38714 4.44192,-1.80204 15.589968,-1.78957 24.106618,-14.3843 21.268578,-31.45277 -1.60238,-9.63698 -7.88522,-20.68967 -19.946138,-35.08895 -1.92781,-2.30157 -3.49093,-4.69793 -3.4736,-5.32525 0.0298,-1.07985 5.96486,-6.02201 8.344048,-6.94815 0.60957,-0.23729 4.28738,0.86897 8.17292,2.45834 l 7.06464,2.88978 -0.50685,-2.57079 c -0.27876,-1.41392 -0.73359,-5.04567 -1.01073,-8.07055 l -0.50388,-5.49978 4.75089,-3.84437 c 2.61298,-2.114408 5.21109,-4.043262 5.77358,-4.286347 0.93747,-0.405145 12.32565,7.669847 12.28561,8.711337 -0.01,0.24961 -0.49563,3.67971 -1.08009,7.62245 -0.61276,4.13367 -0.74782,7.1686 -0.319,7.1686 0.40901,0 3.46652,-1.10601 6.79446,-2.45781 3.32795,-1.35179 6.39623,-2.4578 6.8184,-2.4578 1.60224,0 8.80183,6.1489 8.80183,7.51732 0,0.78798 -2.00295,3.70981 -4.45099,6.49296 -20.89564,23.75591 -25.43474,47.19948 -11.48409,59.31296 3.4624,3.00642 11.67608,6.14585 16.07937,6.14585 1.84667,0 2.33541,0.32917 2.12871,1.43372 -0.39969,2.13579 -6.1962,3.34022 -16.43981,3.41596 l -8.91728,0.0659 -1.35954,5.9397 c -1.64313,7.17859 -6.10027,16.4604 -8.09109,16.84933 -1.09414,0.21375 -2.10938,-1.20837 -4.30667,-6.03268 z m 6.97386,-2.32018 c 2.10871,-4.71772 2.83536,-7.14102 4.42433,-14.75454 l 0.4939,-2.36653 5.5186,0.5203 c 3.03524,0.28616 7.8155,0.27676 10.62282,-0.0209 l 5.10421,-0.54118 -4.68399,-1.54273 c -12.23108,-4.02845 -17.45622,-11.81034 -17.45622,-25.99785 0,-13.57752 5.52072,-25.44837 19.50366,-41.93745 l 3.91359,-4.61501 -2.62288,-1.99719 c -4.14037,-3.15266 -4.46356,-3.24564 -6.87841,-1.97886 -4.12576,2.16428 -12.51564,4.71344 -13.2065,4.01262 -0.59205,-0.60059 -0.22096,-4.46967 1.33007,-13.86748 0.38832,-2.35285 0.0212,-2.90469 -4.18279,-6.28783 l -4.60846,-3.70862 -4.56691,3.63971 -4.56689,3.63971 1.06053,7.1541 c 1.39151,9.38673 1.36982,10.02155 -0.34243,10.02155 -0.79082,0 -4.45741,-1.29186 -8.14799,-2.8708 -3.69057,-1.57893 -7.13212,-2.6189 -7.64789,-2.31103 -0.51575,0.30785 -2.098338,1.44323 -3.516828,2.52304 l -2.57908,1.9633 4.875058,5.8778 c 6.87981,8.29495 13.94065,19.23955 15.98077,24.77092 2.42293,6.56925 3.40431,15.40578 2.40796,21.68175 -1.71756,10.81889 -6.99001,17.08878 -17.25995,20.52514 l -4.076168,1.36389 6.864788,0.57366 c 3.77563,0.31552 8.46501,0.45498 10.42084,0.30992 l 3.55605,-0.26375 1.47267,5.99932 c 1.36103,5.54455 5.31697,15.71131 6.11335,15.71131 0.18929,0 1.39538,-2.35183 2.68019,-5.22629 z M 78.837022,108.94529 C 67.027602,95.94477 58.364652,83.13128 55.435092,74.331176 c -1.52297,-4.574852 -1.71612,-6.537427 -1.37077,-13.927573 0.4199,-8.985521 2.32878,-16.38538 4.22678,-16.38538 0.90649,0 7.22168,4.750201 19.62161,14.75911 l 2.55266,2.060441 -0.94243,7.145238 c -0.51834,3.929881 -0.74127,7.349311 -0.49539,7.598729 0.24588,0.249418 3.22826,-0.66727 6.62754,-2.03708 3.39927,-1.369808 6.56783,-2.490561 7.04125,-2.490561 1.58651,0 23.325898,17.536338 23.321218,18.812333 -0.007,1.803138 -28.630298,24.608927 -30.886808,24.608927 -0.69868,0 -3.53086,-2.48853 -6.29373,-5.53007 z M 106.12882,95.756502 c 3.66458,-2.917441 6.66288,-5.563254 6.66288,-5.879582 0,-0.494552 -17.393188,-14.312613 -19.856968,-15.77541 -0.48282,-0.286662 -3.57197,0.556726 -6.86478,1.874201 -3.29281,1.317475 -6.85689,2.408102 -7.92019,2.423611 -1.92032,0.02802 -1.9297,-0.01426 -1.40121,-6.321136 0.29264,-3.492134 0.7397,-7.13619 0.9935,-8.097901 0.38522,-1.459721 -0.96095,-2.880742 -8.14917,-8.602325 -4.73583,-3.769567 -9.13013,-7.149577 -9.76511,-7.511134 -1.47085,-0.8375 -2.46986,1.71083 -3.62089,9.236409 -1.07478,7.027047 0.0389,13.974719 3.38451,21.113275 3.00081,6.402956 12.57589,19.522238 20.15762,27.61894 l 5.77457,6.1668 6.97118,-5.47066 c 3.83415,-3.00885 9.969478,-7.857646 13.634058,-10.775088 z m 46.97547,8.656428 c -17.302,-13.759638 -16.89157,-13.40777 -16.89157,-14.481627 0,-1.156775 2.42846,-3.272144 13.91185,-12.118234 4.82573,-3.717433 9.22306,-6.758969 9.77184,-6.758969 0.54878,0 4.03202,1.298129 7.74051,2.884728 l 6.74272,2.884736 -0.51517,-2.612976 c -0.28333,-1.437142 -0.74055,-5.073089 -1.01603,-8.079885 l -0.50087,-5.466902 10.40122,-8.329675 c 5.72068,-4.581321 10.91022,-8.234409 11.53231,-8.117972 1.86265,0.348632 3.45076,6.28045 3.8961,14.55256 0.73386,13.631139 -1.85745,21.091782 -12.09243,34.815284 -7.84254,10.515632 -17.32152,20.898822 -19.04797,20.864982 -0.74025,-0.0145 -7.00988,-4.53074 -13.93251,-10.03605 z m 25.79125,-5.913318 c 15.25452,-18.286707 19.29711,-28.883655 16.72358,-43.837853 -0.63579,-3.694424 -1.35668,-6.920724 -1.60197,-7.169555 -0.41355,-0.419508 -3.54191,1.89626 -15.03455,11.129342 l -4.47597,3.595949 0.99036,7.080927 c 1.31088,9.372455 1.30357,9.948368 -0.12633,9.948368 -0.67271,0 -4.3734,-1.28862 -8.22375,-2.863599 -6.17063,-2.524086 -7.19859,-2.731746 -8.67025,-1.751548 -4.0606,2.704587 -18.62965,14.574206 -18.62965,15.177859 0,0.854752 2.32154,2.810085 16.11908,13.576368 l 11.27335,8.79665 3.09436,-3.56438 c 1.70189,-1.9604 5.55467,-6.51374 8.56174,-10.118528 z M 118.95302,77.534747 c -6.90941,-5.594882 -6.74729,-5.095397 -5.42722,-16.72151 0.35814,-3.154185 0.56107,-5.848042 0.45096,-5.986347 -0.11011,-0.138304 -3.54742,1.059876 -7.63846,2.662625 -4.09104,1.602748 -7.774658,2.914088 -8.185818,2.914088 -0.41115,0 -2.55526,-1.369044 -4.76467,-3.042319 -3.8059,-2.88234 -4.01496,-3.237756 -3.97567,-6.758969 0.0228,-2.044158 0.30733,-6.137313 0.63225,-9.0959 l 0.59078,-5.379249 -7.20312,2.716624 c -3.96172,1.494145 -7.81489,2.716626 -8.5626,2.716626 -2.34116,0 -10.13123,-6.446552 -10.13123,-8.383944 0,-2.259749 6.09482,-6.743709 12.05471,-8.868652 6.04499,-2.155286 16.6564,-2.166421 22.66591,-0.02378 12.905818,4.601444 22.427898,16.246893 25.849348,31.613586 0.50857,2.284136 0.67519,2.049561 2.35798,-3.319719 2.64564,-8.441415 5.74027,-13.661368 11.32324,-19.099724 13.48457,-13.135295 31.39628,-14.830551 45.47868,-4.304335 1.91519,1.431551 3.43239,3.243585 3.43239,4.099389 0,1.854583 -7.94275,8.287182 -10.23271,8.287182 -0.88193,0 -4.79668,-1.271669 -8.69945,-2.82593 l -7.09595,-2.825929 0.55896,7.127091 c 0.30743,3.919901 0.72589,7.864435 0.92993,8.76563 0.27929,1.233579 -0.74923,2.522802 -4.16158,5.216432 l -4.53256,3.577894 -6.60243,-2.456319 c -3.63134,-1.350975 -7.27244,-2.737201 -8.09133,-3.080504 -1.41357,-0.592612 -1.45967,-0.166914 -0.91131,8.415803 l 0.57758,9.039988 -6.20828,5.00465 c -3.41456,2.752555 -6.68275,5.004644 -7.26266,5.004644 -0.57989,0 -3.82695,-2.245108 -7.21567,-4.989119 z m 14.27167,-3.188791 c 2.87171,-2.295722 4.46096,-4.138053 4.24035,-4.915614 -0.19407,-0.684026 -0.60573,-5.075334 -0.91482,-9.758463 l -0.56197,-8.51478 1.92938,0.459166 c 1.06116,0.252542 5.12723,1.78985 9.03571,3.41624 l 7.10635,2.957073 3.63092,-3.018176 c 2.9895,-2.485007 3.56158,-3.39341 3.23842,-5.142322 -0.21588,-1.168281 -0.62826,-5.350018 -0.9164,-9.29275 -0.4436,-6.069937 -0.33774,-7.168604 0.69076,-7.168604 0.66805,0 4.54787,1.290349 8.6218,2.867441 4.07393,1.577093 7.83026,2.861957 8.3474,2.855254 0.51713,-0.0067 2.39396,-1.298626 4.17073,-2.870939 l 3.23049,-2.858751 -2.80941,-2.465526 c -4.44895,-3.904368 -10.71239,-5.990171 -18.18875,-6.057076 -5.81331,-0.05202 -7.06815,0.236946 -12.51813,2.882734 -11.38379,5.526459 -17.72415,13.422893 -22.26878,27.734104 -1.55929,4.910303 -2.89866,7.816077 -3.60268,7.816077 -0.73796,0 -1.61475,-2.198558 -2.56757,-6.438175 -2.90264,-12.915475 -10.65276,-23.460362 -21.00623,-28.581282 -8.806558,-4.355803 -16.342498,-4.794879 -25.002788,-1.456769 -4.02417,1.551117 -9.54457,5.296552 -9.54457,6.475719 0,0.351281 1.65451,1.844014 3.6767,3.317183 l 3.6767,2.67849 8.10483,-2.953065 c 4.45766,-1.624186 8.48242,-2.716333 8.94393,-2.426994 0.8136,0.510082 0.24591,14.624152 -0.68744,17.091505 -0.56704,1.498973 6.92031,7.179969 8.54083,6.48032 6.788858,-2.931051 15.422148,-5.532478 16.053868,-4.837429 0.45527,0.500901 0.38587,4.219456 -0.17859,9.569094 l -0.9232,8.749824 5.62779,4.498027 c 4.65744,3.722464 5.85224,4.332704 6.92949,3.53921 0.71593,-0.527347 3.36863,-2.611183 5.89488,-4.630746 z"
     id="path34" />
  <path
     style="fill:#ff8080;stroke-width:0.308146"
     d="m 123.22965,235.86636 c -5.92902,-8.19175 -9.46626,-15.16524 -11.37117,-22.41765 l -0.80937,-3.08146 -4.28627,-0.38475 c -11.53673,-1.03557 -19.068666,-3.88304 -25.035847,-9.46487 -3.431355,-3.20976 -6.268156,-7.52022 -8.209732,-12.47452 l -0.731026,-1.86536 h 12.246364 c 7.517959,0 12.947551,-0.12962 14.062409,-0.33571 3.575332,-0.66094 6.542622,-2.755 7.906022,-5.5794 1.37969,-2.85815 1.64093,-4.57544 1.60803,-10.57072 -0.0733,-13.36121 -1.46554,-15.58444 -32.593823,-52.04932 C 56.341165,94.595622 52.374401,89.287662 49.20399,81.766243 46.121179,74.452641 45.165722,69.104023 45.396964,60.454647 45.628056,51.810875 46.809403,46.567555 49.944572,40.270435 56.510215,27.083058 67.766951,18.291342 81.561438,15.577084 c 3.967305,-0.780622 11.032005,-0.72059 14.906274,0.126666 7.073488,1.546886 12.756678,4.249568 18.280988,8.693649 2.64808,2.130269 4.42802,4.030485 7.075,7.553083 2.23784,2.978109 3.90654,4.776269 4.4324,4.776269 0.54653,0 2.13327,-1.648357 4.80419,-4.990737 7.02263,-8.788096 15.42859,-14.013934 25.50802,-15.857879 4.30007,-0.786661 11.78454,-0.709578 15.92949,0.164059 8.31136,1.751793 13.96785,4.908687 20.43716,11.405994 9.97151,10.014667 14.64642,22.243848 14.07409,36.816707 -0.26935,6.858372 -1.42049,11.17448 -4.85983,18.221597 -3.52558,7.223817 -6.56072,11.27348 -23.20928,30.967218 -18.78611,22.22226 -29.15467,35.76772 -32.55377,42.5282 -2.02513,4.02779 -2.58888,6.89762 -2.60237,13.24779 -0.0156,7.33762 0.85632,10.49516 3.75607,13.60234 1.53052,1.63999 3.34085,2.51431 6.4055,3.09362 3.05681,0.57783 20.77283,0.56546 23.65573,-0.0165 1.15162,-0.23248 2.16953,-0.347 2.26204,-0.2545 0.27841,0.27842 -2.28428,5.82989 -3.91277,8.4761 -2.06247,3.35139 -5.64698,7.08266 -8.88439,9.24813 -4.98188,3.33232 -10.39762,5.09259 -19.6313,6.38072 -3.00555,0.41929 -5.49863,0.79687 -5.54018,0.83907 -0.0416,0.0422 -0.79596,2.01805 -1.67645,4.39078 -2.01026,5.41719 -4.86551,11.3006 -7.68239,15.83001 -2.20966,3.55303 -6.01468,8.66762 -6.44831,8.66762 -0.1304,0 -1.41637,-1.62932 -2.8577,-3.62072 z m 4.38784,-13.40437 c 2.22448,-2.43021 5.5497,-10.32034 7.08662,-16.81524 0.50857,-2.14918 0.9974,-4.15027 1.08627,-4.44686 0.1455,-0.48553 0.67377,-0.53933 5.30229,-0.54 13.07931,-0.002 19.73866,-1.27424 20.03343,-3.8276 0.12717,-1.10164 -0.3267,-1.39941 -2.1422,-1.40543 -2.07601,-0.007 -6.93139,-1.32213 -10.20817,-2.76526 -6.71765,-2.95852 -10.9811,-7.90335 -12.91215,-14.97575 -0.87341,-3.19886 -0.93568,-9.82605 -0.12722,-13.54056 2.35403,-10.81568 7.96415,-21.09358 17.9918,-32.96149 3.34048,-3.95352 5.29327,-6.76318 5.29327,-7.61592 0,-0.78271 -4.10126,-4.79004 -6.5689,-6.41845 -1.45206,-0.95823 -2.10903,-1.21857 -2.76252,-1.09476 -0.47156,0.0893 -3.58011,1.2095 -6.90788,2.48925 -3.66932,1.4111 -6.16171,2.21559 -6.3331,2.04419 -0.27938,-0.27938 0.25617,-5.8002 1.12528,-11.60007 0.22849,-1.52479 0.35312,-2.93474 0.27696,-3.13322 -0.38133,-0.99374 -10.12553,-7.914716 -11.69949,-8.309756 -0.91581,-0.229853 -2.3643,0.721654 -7.57456,4.975726 -3.12894,2.55472 -3.62072,3.07914 -3.62072,3.86106 0,1.46949 0.94161,10.11641 1.37427,12.61999 0.21966,1.2711 0.37608,2.33977 0.3476,2.37481 -0.0285,0.035 -1.896,-0.69043 -4.15005,-1.61217 -4.33423,-1.77237 -9.54285,-3.53596 -10.44319,-3.53596 -1.54513,0 -8.698882,5.92592 -8.698882,7.20585 0,0.90102 1.443814,2.97411 6.185339,8.88117 7.680103,9.56799 13.518993,19.2445 15.680273,25.98615 1.55413,4.84779 1.94986,7.73694 1.77113,12.93096 -0.18339,5.32979 -0.58431,7.09093 -2.52536,11.09328 -2.28077,4.70282 -5.45457,7.87594 -10.17219,10.17 -3.10419,1.50949 -5.070002,2.07371 -9.514838,2.73093 -3.458912,0.51144 -4.203961,0.95487 -3.649387,2.17203 0.655366,1.43837 2.816132,2.08269 8.850185,2.63906 3.45595,0.31865 13.89986,0.93033 15.89006,0.93065 l 1.09904,1.8e-4 0.55725,3.00443 c 1.17137,6.31547 4.80563,15.77656 7.11401,18.5199 1.03833,1.23399 1.79504,1.226 2.94573,-0.0311 z M 88.514684,112.74076 c 8.931103,-5.97124 27.674396,-21.467656 27.674396,-22.880387 0,-1.113607 -17.960509,-15.919354 -22.436951,-18.495905 l -1.020779,-0.587539 -3.293271,1.192843 c -1.8113,0.656063 -4.818596,1.729429 -6.682882,2.385254 l -3.38961,1.192412 -0.08422,-1.923033 c -0.04632,-1.05767 0.241985,-4.39211 0.64068,-7.409861 L 80.646946,60.72772 73.381119,54.940126 C 61.973612,45.853481 58.739174,43.563369 57.814377,43.918247 c -0.754528,0.289539 -1.950935,3.139683 -2.624683,6.252655 -0.859829,3.97274 -1.279911,8.447075 -1.323261,14.0942 -0.03263,4.250685 0.06217,5.350672 0.654125,7.590339 2.173018,8.221568 8.837335,19.145915 19.268195,31.585009 5.3841,6.42069 10.292497,11.24734 11.437824,11.24734 0.206782,0 1.68643,-0.87616 3.288107,-1.94703 z m 79.597066,1.36581 c 3.5502,-2.22328 15.78564,-16.63539 21.92882,-25.82994 2.80056,-4.191638 5.51573,-9.448804 6.55629,-12.694454 1.34696,-4.201321 1.7007,-6.97311 1.69473,-13.279273 -0.01,-10.310939 -1.66347,-17.774989 -4.01396,-18.117032 -0.86599,-0.126018 -6.24802,3.699262 -14.8415,10.548592 -5.92192,4.719999 -7.1644,5.844222 -7.1644,6.482489 0,1.407449 0.9655,10.135329 1.3971,12.629392 0.23348,1.349219 0.39348,2.484162 0.35554,2.522092 -0.0379,0.03793 -1.15919,-0.405105 -2.49169,-0.984528 -4.7058,-2.046261 -10.92703,-4.452906 -11.51086,-4.452906 -1.58328,0 -22.12604,15.695366 -23.50015,17.954905 -1.02319,1.682501 -0.99169,1.716236 9.24947,9.906225 12.15374,9.719508 20.39436,15.898728 21.19696,15.894508 0.12057,-6.2e-4 0.63521,-0.26167 1.14365,-0.58007 z M 128.8743,81.126432 c 1.60807,-1.077415 9.40828,-7.129602 10.91961,-8.472525 0.0174,-0.01547 -0.14721,-2.593419 -0.36577,-5.728808 -0.54854,-7.86899 -0.55547,-11.709564 -0.0211,-11.709564 0.2283,0 3.76908,1.261755 7.86839,2.803902 l 7.45329,2.803904 3.75402,-3.035014 c 4.19933,-3.395031 5.29931,-4.721136 5.03157,-6.065915 -0.19018,-0.955235 -0.94984,-8.63285 -1.27698,-12.906011 l -0.20568,-2.68662 4.58079,1.847875 c 5.38893,2.173864 9.94709,3.679438 11.13962,3.679438 1.38394,0 4.63118,-2.126518 7.52872,-4.930343 3.24974,-3.144617 3.36381,-3.614185 1.39683,-5.749547 -2.48457,-2.697255 -7.3815,-5.583636 -12.18025,-7.179362 -3.77551,-1.255469 -7.12703,-1.672439 -11.74837,-1.461644 -4.88643,0.222887 -8.48861,1.164129 -13.14194,3.433963 -7.97162,3.888447 -15.07912,10.920523 -19.02533,18.823417 -0.59489,1.191365 -1.87699,4.488738 -2.8491,7.327496 -0.97212,2.838759 -1.82298,5.105888 -1.89081,5.038062 -0.0678,-0.06782 -0.46626,-1.423874 -0.88541,-3.013447 -2.92357,-11.087171 -9.04229,-20.147186 -17.33481,-25.667738 -6.75511,-4.497057 -12.466114,-5.993244 -21.476743,-5.626544 -5.238556,0.213191 -9.035595,1.098279 -12.807669,2.985462 -5.206783,2.604976 -8.608505,5.591468 -8.608505,7.557712 0,0.933707 0.295381,1.382123 2.079988,3.157613 2.706524,2.692698 6.100487,4.996892 7.658008,5.199096 0.937642,0.121729 2.350593,-0.245686 6.43969,-1.674537 2.881168,-1.006765 6.174483,-2.190493 7.318477,-2.630506 l 2.079988,-0.800023 -6.16e-4,0.67952 c -3.09e-4,0.373736 -0.206828,2.620842 -0.458923,4.993569 -0.600978,5.656459 -0.610795,10.995915 -0.02231,12.133921 0.790334,1.528243 7.114463,6.20079 8.392599,6.20079 0.392504,0 3.855466,-1.17866 7.695466,-2.619244 3.84,-1.440585 7.16882,-2.619245 7.39737,-2.619245 0.53912,0 0.53054,1.240046 -0.0438,6.317002 -0.69487,6.143009 -0.62345,9.308008 0.24749,10.967768 1.06571,2.03091 11.08794,10.094463 12.58888,10.128587 0.28239,0.0064 1.53038,-0.669688 2.77331,-1.50246 z"
     id="path36" />
  <path
     style="fill:#ffccaa;stroke-width:0.308146"
     d="m 125.4508,218.56708 c -1.84552,-3.6175 -4.31156,-10.8002 -5.72467,-16.67386 l -0.85255,-3.54368 -4.65482,0.11301 c -2.56016,0.0622 -7.1464,-0.0656 -10.19165,-0.28378 l -5.536818,-0.39679 2.917578,-0.9802 c 8.80799,-2.95917 13.66373,-7.29615 16.32107,-14.57742 2.51537,-6.8923 2.51231,-16.33813 -0.008,-25.61252 -1.73319,-6.3771 -9.02018,-17.93137 -18.422737,-29.21115 l -3.145026,-3.77292 2.957606,-2.19398 c 2.824337,-2.09512 3.014607,-2.18487 4.222657,-1.99169 0.69577,0.11126 3.69967,1.15713 6.67532,2.32415 2.97565,1.16702 6.06942,2.28703 6.87503,2.48889 2.77611,0.69562 2.86096,0.13027 1.45903,-9.72105 -0.50646,-3.55889 -0.92083,-6.6893 -0.92083,-6.95646 0,-0.38909 7.04172,-6.3061 8.54893,-7.18348 0.23603,-0.1374 1.57638,0.74341 3.49227,2.29495 3.8704,3.13437 5.1546,4.40931 5.39131,5.35246 0.10181,0.40565 -0.10802,2.57825 -0.4663,4.82801 -0.85828,5.38952 -1.2357,9.16136 -1.02603,10.25385 0.1663,0.86649 0.2048,0.88234 1.74451,0.71832 2.14202,-0.22818 6.0881,-1.49797 10.42062,-3.35321 3.50991,-1.50299 3.63368,-1.53187 4.56771,-1.06592 1.23766,0.61743 5.82182,3.97669 5.83512,4.27597 0.006,0.12573 -1.51985,2.04526 -3.38984,4.2656 -9.09954,10.80433 -14.93482,20.14734 -17.38072,27.82869 -1.99344,6.26043 -2.75192,13.48312 -2.04881,19.5099 1.32923,11.39347 6.2201,17.25247 17.71688,21.22388 1.80645,0.62401 3.24512,1.17154 3.19707,1.21674 -0.0481,0.0452 -2.37536,0.24528 -5.17179,0.44464 -4.17923,0.29793 -5.96217,0.28299 -10.01476,-0.084 -2.71169,-0.24554 -4.97071,-0.41216 -5.02006,-0.37026 -0.0493,0.0419 -0.5634,2.18992 -1.14234,4.77338 -0.57894,2.58346 -1.42199,5.82485 -1.87343,7.20308 -0.82129,2.50738 -4.25231,10.05546 -4.57076,10.05546 -0.0929,0 -0.44413,-0.53938 -0.78045,-1.19863 z"
     id="path38" />
  <path
     style="fill:#ffccaa;stroke-width:0.308146"
     d="M 81.618755,107.51629 C 76.334073,101.81911 73.501598,98.427614 69.042682,92.458205 59.258191,79.359135 56.100534,72.004894 56.100534,62.315709 c 0,-5.783247 1.652079,-13.809592 2.944542,-14.305556 0.889046,-0.341159 16.310428,11.906746 18.026803,14.317171 0.568308,0.798115 0.573889,0.96677 0.133214,4.025019 -0.252972,1.7556 -0.550254,5.160015 -0.660628,7.565368 l -0.200678,4.373367 0.812129,0.203833 c 1.117506,0.280475 3.277007,-0.273851 8.601668,-2.207977 5.563451,-2.020864 6.700148,-2.237517 7.854936,-1.497134 2.084413,1.336406 18.30619,14.260928 18.70109,14.899882 0.26213,0.424136 -2.53219,2.895855 -9.83704,8.701364 -10.234322,8.133694 -16.736214,13.215284 -16.908962,13.215284 -0.08522,0 -1.862207,-1.84052 -3.948853,-4.09004 z"
     id="path40" />
  <path
     style="fill:#ffccaa;stroke-width:0.308146"
     d="m 125.25345,78.624551 c -1.02464,-0.50919 -8.74448,-6.343397 -9.91089,-7.490071 -0.30685,-0.301657 -0.26106,-1.555742 0.22717,-6.222456 0.3363,-3.214561 0.61324,-7.355072 0.61541,-9.201131 l 0.004,-3.35647 -1.77184,0.185528 c -1.97205,0.206492 -8.08295,2.083297 -12.24009,3.759224 -3.296344,1.328903 -3.693178,1.251223 -7.232587,-1.415802 -3.385114,-2.550759 -3.559029,-2.875171 -3.104788,-5.791486 0.497857,-3.196343 0.756168,-14.538166 0.344778,-15.138453 -0.278639,-0.406582 -0.624119,-0.382619 -2.870111,0.199074 -1.404338,0.363712 -5.111989,1.577039 -8.239224,2.696281 -3.127235,1.119243 -5.841327,2.034987 -6.031315,2.034987 -0.357042,0 -4.427059,-2.934997 -6.285807,-4.532862 -0.714808,-0.614482 -0.992103,-1.070668 -0.860027,-1.414853 0.297674,-0.775725 4.085795,-3.43501 6.845292,-4.805437 3.093062,-1.536083 5.701912,-2.384302 9.244422,-3.005651 9.971759,-1.749025 22.399497,3.610865 29.868387,12.881769 4.23796,5.260458 6.92546,10.794915 8.95501,18.441379 0.60729,2.287987 1.2676,4.616169 1.46735,5.173735 0.42807,1.194853 1.28702,2.058818 1.75768,1.767937 0.60486,-0.373824 1.74743,-3.019489 3.53018,-8.174258 5.11393,-14.786834 10.94165,-21.867704 22.67582,-27.551884 5.09029,-2.465798 6.51649,-2.761712 12.32586,-2.557415 8.24285,0.289874 13.5726,2.267933 18.79693,6.976198 l 1.38666,1.249685 -1.84888,1.690692 c -1.01689,0.92988 -2.58393,2.20691 -3.48233,2.837844 l -1.63344,1.147152 -2.83468,-0.953872 c -1.55907,-0.52463 -4.984,-1.747414 -7.61095,-2.717298 -5.28014,-1.949458 -6.99534,-2.332863 -7.42198,-1.65907 -0.41366,0.653289 -0.33668,3.743966 0.24729,9.927756 0.29093,3.080747 0.53009,6.185246 0.53145,6.898887 0.003,1.506784 -0.46657,2.088023 -4.23534,5.243691 l -2.40456,2.013386 -1.13913,-0.461113 c -0.62651,-0.253611 -3.70543,-1.509918 -6.84203,-2.791788 -3.1366,-1.281872 -6.70725,-2.608992 -7.93477,-2.949156 l -2.23186,-0.618481 v 0.952043 c 0,1.492602 0.91826,13.737663 1.19114,15.883854 0.28956,2.277408 -0.0151,2.954307 -2.19199,4.870494 -1.41171,1.242643 -7.4983,6.031815 -8.11542,6.385542 -0.18375,0.105325 -0.87708,-0.07833 -1.54073,-0.408131 z"
     id="path42" />
  <path
     style="fill:#ffccaa;stroke-width:0.308146"
     d="M 161.02438,107.10676 C 149.88122,98.417109 142.24658,92.272771 141.04721,91.029191 l -1.18024,-1.223748 3.79948,-3.221593 c 4.60794,-3.907081 10.80862,-8.853228 13.56065,-10.817039 1.39643,-0.996469 2.3321,-1.446199 3.00886,-1.446199 0.54021,0 2.46393,0.570082 4.27492,1.266848 6.88826,2.650203 10.06172,3.691237 10.97884,3.601545 0.87052,-0.08513 0.94917,-0.19135 1.03665,-1.399995 0.0521,-0.719329 -0.33794,-4.463307 -0.86669,-8.319952 l -0.96136,-7.012082 1.59927,-1.386659 c 2.91013,-2.523252 15.37694,-12.223196 16.45819,-12.805487 0.58402,-0.314519 1.1298,-0.503919 1.21283,-0.420889 0.3649,0.364905 1.75219,8.248004 2.00503,11.393343 0.93695,11.655795 -3.02528,21.406619 -14.55205,35.811779 -2.46767,3.083883 -10.62607,12.779187 -13.30984,15.817207 l -0.92444,1.04646 z"
     id="path44" />
</svg>
