<?xml version="1.0" encoding="UTF-8" standalone="no"?>
<svg
   xmlns:dc="http://purl.org/dc/elements/1.1/"
   xmlns:cc="http://creativecommons.org/ns#"
   xmlns:rdf="http://www.w3.org/1999/02/22-rdf-syntax-ns#"
   xmlns:svg="http://www.w3.org/2000/svg"
   xmlns="http://www.w3.org/2000/svg"
   xmlns:sodipodi="http://sodipodi.sourceforge.net/DTD/sodipodi-0.dtd"
   xmlns:inkscape="http://www.inkscape.org/namespaces/inkscape"
   viewBox="0 0 67.733331 67.733331"
   version="1.1"
   id="svg8"
   inkscape:version="1.0.2-2 (e86c870879, 2021-01-15)"
   sodipodi:docname="sai.svg">
  <defs
     id="defs2" />
  <sodipodi:namedview
     id="base"
     pagecolor="#ffffff"
     bordercolor="#666666"
     borderopacity="1.0"
     inkscape:pageopacity="0.0"
     inkscape:pageshadow="2"
     inkscape:zoom="2"
     inkscape:cx="221.13968"
     inkscape:cy="95.11616"
     inkscape:document-units="px"
     inkscape:current-layer="layer2"
     inkscape:document-rotation="0"
     showgrid="false"
     inkscape:window-width="1920"
     inkscape:window-height="1017"
     inkscape:window-x="-8"
     inkscape:window-y="-8"
     inkscape:window-maximized="1"
     fit-margin-top="0"
     fit-margin-left="0"
     fit-margin-right="0"
     fit-margin-bottom="0"
     units="px" />
  <metadata
     id="metadata5">
    <rdf:RDF>
      <cc:Work
         rdf:about="">
        <dc:format>image/svg+xml</dc:format>
        <dc:type
           rdf:resource="http://purl.org/dc/dcmitype/StillImage" />
        <dc:title />
      </cc:Work>
    </rdf:RDF>
  </metadata>
  <g
     inkscape:groupmode="layer"
     id="layer2"
     inkscape:label="Layer 2"
     transform="translate(184.82596,-111.58497)"
     style="display:inline">
    <path
       style="fill:#ffe680;fill-opacity:1;stroke:none;stroke-width:0.0310184;stroke-miterlimit:4;stroke-dasharray:none"
       d="m 19.944391,240.17798 c -2.236592,-2.39262 -4.039497,-4.38728 -4.192347,-4.51827 l -0.416119,-0.35659 0.236959,-1.12223 0.149687,-1.16253 5.784582,-5.69186 c 5.492213,-5.40418 5.751316,-5.65417 6.174788,-5.93748 l 0.548334,-0.36685 0.459299,0.16957 0.522207,0.10883 1.770305,1.90483 c 0.962638,1.03578 2.261197,2.22979 2.704104,2.75615 0.442908,0.52635 1.369751,1.64456 2.116521,2.46596 1.153783,1.26908 1.441739,1.65748 1.916739,2.40988 0.373274,0.59127 0.69536,1.09011 0.782459,1.37687 0.07174,0.23617 0.358056,0.27022 0.255524,0.52299 -0.03972,0.0979 -0.02672,0.2533 -0.104565,0.28262 -0.04955,0.0187 -2.621349,2.45918 -5.790943,5.48024 -3.169595,3.02106 -5.880627,5.56248 -6.002143,5.70657 l -0.299415,0.35503 -1.189468,0.10757 c -0.593471,0.0686 -1.316566,0.1249 -1.316566,0.1249 -0.05387,5e-5 -1.206443,-1.51016 -3.443041,-3.90278 z"
       id="path1616"
       transform="matrix(0.26458332,0,0,0.26458332,-184.82596,111.58497)"
       sodipodi:nodetypes="sscccsscccsssssssssccsss" />
    <path
       style="fill:#ffd42a;stroke:none;stroke-width:0.264583px;stroke-linecap:butt;stroke-linejoin:miter;stroke-opacity:1;fill-opacity:1"
       d="m -177.87031,175.54179 -0.1962,0.18548 -0.16421,0.39062 -0.23086,0.23554 0.66305,-0.0615 1.00722,-0.9403 1.9141,-1.83555 0.26295,-0.25821 0.15472,-0.0233 -0.14217,-0.13397 -0.12254,-0.32039 -0.12609,-0.17984 -0.40721,0.33487 -0.25012,0.32039 -0.69659,0.67593 -1.07074,1.048 z"
       id="path1620" />
    <path
       style="fill:#ff9955;fill-opacity:1;stroke:none;stroke-width:0.0620368;stroke-miterlimit:4;stroke-dasharray:none"
       d="m 39.10138,232.90756 c 0,0 -0.467416,-0.72224 -0.548359,-0.95443 -0.277532,-0.79613 -1.188536,-2.04272 -2.621363,-3.62959 -0.788678,-0.87346 -1.662688,-1.85532 -1.88863,-2.12828 -0.225943,-0.27296 -1.419349,-1.57005 -2.652015,-2.81542 -1.7529,-1.77095 -2.219985,-2.24798 -2.53746,-2.30754 -0.516978,-0.097 -0.68917,-0.32808 -0.468577,-0.75466 0.284991,-0.55111 0.6499,-0.81776 1.834073,-1.23484 2.648685,-0.93291 4.490241,-2.53325 5.022097,-4.36277 0.17368,-0.59743 0.276387,-0.82282 1.369049,-1.73533 0.660115,-0.55128 1.421508,-1.18931 1.67858,-1.48486 0.632769,-0.72749 1.288441,-1.13901 1.907097,-1.13901 0.440089,0 0.43688,0.0263 0.602398,-0.29377 0.325202,-0.62887 1.035731,-1.28628 1.337645,-1.28628 0.215781,0 0.387547,0.079 0.446333,0.37292 0.147465,0.73732 0.806153,1.99561 1.985673,3.62598 0.653656,0.90351 1.51508,2.22088 1.492061,2.2439 -0.02302,0.023 -1.220414,-1.02622 -2.158238,-1.91612 -1.240788,-1.17738 -1.630016,-1.61825 -1.780945,-1.56034 -0.159257,0.0611 0.540963,0.62342 2.871007,2.9298 3.377844,3.34355 5.636935,5.7527 5.751054,6.47772 0.04604,0.29251 -0.02743,0.87523 -0.171966,1.19375 -0.29666,0.65367 -1.697073,2.0093 -2.63214,2.50556 -0.604889,0.32102 -1.378785,1.0054 -3.936296,3.58542 -1.77037,1.78595 -3.43156,3.54629 -3.718339,3.93868 -0.557649,0.763 -0.717651,0.84222 -1.182739,0.72951 z"
       id="path1602"
       transform="matrix(0.26458332,0,0,0.26458332,-184.82596,111.58497)"
       sodipodi:nodetypes="ssssssssssssssssssssssssss" />
    <path
       style="fill:#ff7f2a;fill-opacity:1;stroke:none;stroke-width:0.0620368;stroke-miterlimit:4;stroke-dasharray:none"
       d="m 30.070216,218.77895 c 0,-0.1502 0.768045,-1.0326 2.852132,-2.75919 1.040667,-0.86216 2.111455,-1.59655 2.111455,-1.52474 0,0.29285 -0.555017,1.40663 -1.149128,2.05668 -0.651377,0.71271 -1.905846,1.53915 -2.88044,1.95691 -0.630186,0.27013 -0.934019,0.40796 -0.934019,0.27034 z"
       id="path1604"
       transform="matrix(0.26458332,0,0,0.26458332,-184.82596,111.58497)"
       sodipodi:nodetypes="ssssss" />
    <path
       style="fill:#ff9955;fill-opacity:1;stroke:none;stroke-width:0.0620368;stroke-miterlimit:4;stroke-dasharray:none"
       d="m 50.128448,219.51878 c -2.425081,-2.92201 -6.222382,-7.9192 -6.873876,-9.20869 -0.69562,-1.37684 -1.219494,-1.03613 2.752991,-4.86822 3.078091,-2.96931 3.865843,-3.65845 4.079673,-4.21777 0.231625,-0.60588 1.120552,-1.46435 1.366717,-1.46435 0.06299,0 0.03894,0.42372 0.04038,0.71375 0.004,0.81168 0.486648,1.94181 1.474588,3.56567 1.014712,1.66787 1.925497,3.55221 2.718256,5.42966 0.523384,1.2395 0.464114,1.30034 0.60062,0.94461 0.140165,-0.36526 -1.716239,-4.16862 -3.135423,-6.50436 -1.087904,-1.79051 -1.600043,-2.5573 -1.416598,-3.43682 l 0.1316,-0.79319 3.104342,-3.19174 c 2.872966,-2.95385 3.290611,-3.34065 4.322521,-4.90015 0.673985,-1.01858 1.354259,-1.85486 1.603759,-2.0225 0.441098,-0.29639 0.784005,-0.22629 0.662254,0.091 -0.09375,0.24431 0.62279,1.78348 1.922919,4.13616 0.972316,1.75948 2.627288,5.25572 2.627288,5.56797 0,0.0785 -0.02193,0.13027 0.08659,0.0886 0.107942,-0.0414 0.185893,-0.0972 0.213437,-0.0972 0.191345,0 -1.675361,-3.79359 -2.760291,-5.72315 -0.94012,-1.67202 -1.864465,-3.647 -1.864465,-3.90811 0,-0.10638 5.547537,-5.62046 6.960754,-6.94699 0.08758,-0.0822 0.2196,-0.451 0.346985,-0.80612 0.249819,-0.69644 1.003223,-1.3946 1.310205,-1.3946 0.108878,0 0.347908,0.4417 0.572899,0.88512 0.216403,0.42651 0.716441,1.20017 1.084387,1.75946 1.123744,1.70813 2.898299,5.29086 3.47553,6.90376 0.154689,0.43224 0.220805,0.50557 0.402463,0.32391 0.248811,-0.24881 -2.29549,-5.23024 -3.742076,-7.43093 -0.364044,-0.55383 -0.929245,-1.30417 -1.074693,-1.74002 l -0.32506,-0.93046 3.383446,-3.33191 c 3.548851,-3.49479 4.795173,-5.18803 5.10075,-6.2153 0.139859,-0.47016 0.295204,-0.48163 0.636627,-0.48163 0.316607,0 0.359093,-0.0655 0.676762,-0.54467 0.672367,-1.01423 0.9886,-1.31411 0.9886,0.4531 0,0.85489 -0.177739,2.28254 -0.234126,2.24768 -0.05639,-0.0349 -0.357986,-0.46486 -0.482562,-0.74112 -0.146153,-0.32411 -0.143342,-0.46939 -0.291303,-0.46939 -0.126117,0 -0.20737,-0.0339 -0.20737,-0.008 0,0.1963 1.587158,3.23778 2.376066,4.60754 0.535927,0.93052 1.378857,2.45756 1.873179,3.44705 0.494321,0.98948 0.786429,1.6685 0.786429,1.6685 0,0 0.141688,0.0983 0.251107,0.0563 0.165654,-0.0636 -0.03542,-0.29235 -0.819624,-1.85838 -0.517989,-1.03441 -1.404597,-2.59133 -1.943428,-3.52687 -0.70054,-1.21629 -1.062249,-1.93858 -1.159341,-2.45233 -0.145903,-0.77203 0.0026,-3.45014 0.226041,-5.52307 0.129836,-1.2047 0.777962,-3.8476 1.368258,-5.30544 0.603946,-1.49154 2.049185,-3.55541 2.922258,-4.19012 0.622139,-0.45228 1.249931,-0.3317 1.924884,0.20459 0.244784,0.1945 0.514516,0.35536 0.586003,0.39768 0.07149,0.0423 0.368349,-0.11478 0.833942,-0.34911 0.598789,-0.30137 1.091402,-0.45916 1.497708,-0.45965 0.315927,-3.9e-4 0.74674,0.008 0.997572,-0.0616 0.561371,-0.15592 1.663009,-0.90214 2.347059,-1.56599 0.373717,-0.36268 0.723765,-0.55025 1.006872,-0.55025 0.252763,0 0.412932,-0.19474 0.69002,-0.43802 0.233165,-0.20472 0.848116,-0.21868 0.897429,-0.21868 0.198568,0 0.07277,2.69357 -0.105673,4.62362 -0.07887,0.853 -0.191646,2.40536 -0.264023,3.46309 -0.146647,2.14309 -0.607063,7.13585 -0.948128,10.0299 -0.21579,1.83106 -0.358238,1.77149 -0.138867,1.77149 0.124677,0 0.171853,-0.12413 0.171853,-0.12413 0,-0.02 0.131504,-1.32113 0.332444,-3.09243 0.20094,-1.7713 0.463724,-4.34894 0.583965,-5.72808 0.120242,-1.37914 0.346106,-2.79678 0.346106,-2.79678 0.09716,0.0972 0.55695,6.58861 0.494905,7.14725 -0.140483,1.26487 -0.06914,4.781 0.09046,5.27656 0.08342,0.25901 0.253584,0.6616 0.485371,0.94825 0.416097,0.51459 0.483906,0.6765 0.224539,0.8153 -0.197374,0.10564 -0.50538,0.11463 -0.774781,0.003 -0.197205,-0.0817 -0.46846,-0.0908 -0.642999,-0.047 -0.174541,0.0438 -0.597829,0.023 -0.873623,-0.0596 l -0.426202,-0.0745 -0.449367,0.57979 c -0.302935,0.39085 -0.871148,0.64924 -1.083266,0.7 -0.203048,0.0486 -0.866692,0.46737 -1.514976,0.95742 -1.391543,1.05191 -2.258773,1.5657 -3.857246,2.34618 -0.7358,0.35927 -1.330698,0.85824 -1.75021,1.14782 l -0.725043,0.66003 -0.104804,-0.83306 c -0.06236,-0.49572 -0.02625,-0.52601 -0.187336,-0.48413 -0.16833,0.0438 -0.09753,0.13173 -0.064,0.83085 0.02695,0.56188 -0.02348,1.09559 -0.15092,1.40059 -0.288342,0.6901 -1.197764,1.82864 -2.003518,2.45025 -0.394784,0.30457 -2.057394,1.86089 -3.713008,3.40949 l -2.995219,2.97638 -0.240032,-0.69289 c -0.104203,-0.3008 -0.136262,-0.54398 -0.210485,-0.58985 -0.276763,-0.17105 -0.208657,0.0584 -0.03062,0.64997 0.09961,0.33098 0.136255,0.78145 0.09484,0.96084 -0.224343,0.97171 -1.312799,2.27975 -2.713365,3.06299 -0.430108,0.24053 -0.948997,0.61072 -1.166492,0.86285 -0.217496,0.25213 -1.538711,1.63894 -2.936036,3.05498 -2.505444,2.53901 -3.026348,3.13592 -2.576474,1.62005 0.04596,-0.15487 0.0606,-0.19519 -0.112838,-0.19519 -0.197869,0 -0.117971,0.0618 -0.289847,0.76314 -0.268776,1.09676 -0.778106,2.31823 -1.235874,2.74195 -0.196232,0.18163 -0.759496,0.54958 -1.18468,0.76403 -0.662849,0.33433 -1.2192,0.85771 -3.902444,3.67113 -1.721159,1.80466 -3.144705,3.5773 -3.28894,3.3799 0,0 -0.166255,-0.50624 -0.201247,-0.81669 -0.07229,-0.64132 0.01214,-0.68114 -0.248193,-0.58124 -0.146512,0.0562 -0.171402,0.0896 -0.07836,0.41399 0.190805,0.6653 0.199142,1.88151 -0.0583,2.44855 -0.251921,0.55489 -0.956765,1.10127 -1.995708,1.62791 -0.739952,0.37508 -2.410942,1.8569 -3.234247,2.87039 -0.324555,0.39952 -0.664017,0.78441 -0.700747,0.78829 -0.03673,0.004 -0.307584,-0.42764 -0.548283,-0.71767 z M 90.27534,176.68513 c -1.1e-5,-1.91918 0.03308,-2.952 0.176765,-3.70215 0.309506,-1.6158 0.180482,-2.31959 -0.535425,-3.79079 -0.542719,-1.1153 -0.599039,-1.40083 -0.597898,-2.18753 0.0016,-1.11046 0.341306,-2.59486 1.189145,-4.71856 0.602607,-1.50943 0.86387,-1.87458 0.495429,-1.64687 -0.206518,0.12763 -1.306816,3.15168 -1.628995,4.42175 -0.168636,0.66478 -0.321263,1.53061 -0.321263,1.99717 0,0.71527 0.08005,0.94906 0.517748,1.85418 0.847186,1.75187 0.898194,2.20649 0.602424,4.10924 -0.3702,2.38159 -0.410145,6.17488 -0.01126,6.17488 0.136269,0 0.113348,-0.01 0.113336,-2.16038 z"
       id="path1608"
       transform="matrix(0.26458332,0,0,0.26458332,-184.82596,111.58497)"
       sodipodi:nodetypes="csssssssssscssssssssssssssssssscssssssssssscssssssssssssssssssssssssssssssccssssscsssssscssssssssssssscsssssscccsssssssssssss" />
    <path
       style="fill:#ff7f2a;fill-opacity:1;stroke:none;stroke-width:0.0620368;stroke-miterlimit:4;stroke-dasharray:none"
       d="m 81.658652,165.63985 c -0.06613,-0.21162 -0.37202,-0.7483 -0.303368,-1.11357 l 0.1146,-0.60974 0.482999,-0.23447 c 0.240245,-0.11663 0.616138,-0.20702 0.653421,-0.21754 0,0 -0.0858,0.82428 -0.278331,1.43578 -0.347572,1.10393 -0.385442,1.64803 -0.504819,1.26599 z"
       id="path1610"
       transform="matrix(0.26458332,0,0,0.26458332,-184.82596,111.58497)"
       sodipodi:nodetypes="sscsssss" />
    <path
       style="fill:#ff7f2a;fill-opacity:1;stroke:none;stroke-width:0.0620368;stroke-miterlimit:4;stroke-dasharray:none"
       d="m 81.22437,167.72616 c -0.145512,-0.27881 -0.174366,-0.56373 0.08344,-0.79004 l 0.35915,-0.31528 -0.01097,0.65911 c -0.01036,0.62268 -0.08203,1.11604 -0.431623,0.44621 z"
       id="path1612"
       transform="matrix(0.26458332,0,0,0.26458332,-184.82596,111.58497)"
       sodipodi:nodetypes="sscss" />
    <path
       style="fill:#ff7f2a;fill-opacity:1;stroke:none;stroke-width:0.0620368;stroke-miterlimit:4;stroke-dasharray:none"
       d="m 102.135,169.40457 c -1.03717,-0.27929 -1.98206,-0.2486 -3.218964,0.0321 -0.534359,0.12129 -1.140763,0.27853 -1.159913,0.25559 -0.01915,-0.0229 -0.125793,-0.82228 -0.169957,-1.62889 -0.07453,-1.36104 -0.02074,-1.5609 0.181731,-1.50474 0.119995,0.0333 0.889161,0.0536 1.588626,0.0988 1.074107,0.0694 1.205947,0.14153 1.205947,-0.0127 0,-0.23171 -0.2074,-0.20587 -1.702241,-0.31285 -0.665344,-0.0476 -1.278957,-0.10283 -1.278957,-0.10283 -0.02168,-0.10251 -0.51179,-4.97447 -0.519709,-5.24929 -0.0059,-0.20473 0.03338,-0.85849 0.103003,-1.34852 l 0.12469,-0.8776 0.387652,-0.1316 c 0.75689,-0.25695 2.486142,0.39533 3.481822,0.81525 2.12866,0.89776 3.10987,1.90616 3.12362,3.67207 0.006,0.82546 -0.12641,1.14959 -0.42175,1.84607 -0.19534,0.46063 -0.59069,1.0678 -0.59069,1.0678 -0.033,0 -0.32138,-0.34233 -0.61398,-0.59988 -0.5475,-0.48193 -1.51789,-0.89034 -2.887125,-1.20243 -0.712791,-0.16246 -0.603951,-0.22507 -0.657934,-0.0186 -0.04815,0.18411 -0.01788,0.19172 0.612563,0.31575 2.492416,0.49035 4.007266,1.64238 3.540136,2.96698 l -0.26929,0.76361 -0.46792,-0.49162 c -0.38454,-0.40401 -0.55865,-0.44499 -0.55865,-0.13267 0,0.0819 0.0505,0.13384 0.19263,0.22261 0.14213,0.0888 0.51084,0.45359 0.6451,0.7571 0.13426,0.30351 0.28672,0.61919 0.43264,0.75513 0.32098,0.29904 0.50862,0.47927 -0.53281,0.19883 z"
       id="path1614"
       transform="matrix(0.26458332,0,0,0.26458332,-184.82596,111.58497)"
       sodipodi:nodetypes="ssssssssssscsscssssssscsssssss" />
    <path
       style="fill:#ff8080;stroke-width:0.0620368;stroke-miterlimit:4;stroke-dasharray:none;fill-opacity:1"
       d="m 78.241792,160.74449 c -4.625339,-4.9356 -6.109474,-6.60164 -6.965617,-8.34321 -0.810798,-1.64933 -1.052942,-2.46449 -1.041289,-4.80629 0.0089,-1.78388 0.18261,-2.24372 0.459174,-3.27767 0.595325,-2.22569 1.495133,-3.77698 4.595673,-7.80521 2.471693,-3.21124 7.157095,-8.47859 11.247653,-12.64087 3.899887,-3.96827 4.535017,-4.75699 5.864658,-7.41524 0.817084,-1.63353 1.036589,-2.42541 1.398181,-4.53215 0.152263,-0.88713 0.30382,-1.91517 0.3636,-2.07008 0.285665,-0.74026 1.98849,-0.46273 2.144381,0.36967 0.166171,0.88728 0.258159,5.99264 0.116483,6.80618 -0.420158,2.41273 -1.424097,4.4326 -4.956857,9.97293 -1.967567,3.08568 -2.656825,4.1556 -5.790092,8.33862 -1.303438,1.74013 -2.735475,3.59458 -3.1555,4.17463 -0.420024,0.58004 -1.42753,1.76812 -2.131673,2.53293 -3.127876,3.39738 -3.096815,4.55292 -0.15879,8.66924 1.119696,1.56875 3.624883,4.26919 5.229537,5.72986 0.593158,0.53994 1.051984,1.03622 1.057149,1.26244 9.17e-4,0.0402 -0.310101,0.16533 -0.569623,0.34462 -0.259522,0.17929 -0.767578,0.72366 -1.129012,1.20972 -0.361435,0.48605 -0.651748,0.9923 -0.702007,0.9923 -0.176847,0 -5.619389,-5.47867 -6.798894,-6.88344 -1.485052,-1.76867 -3.263537,-4.3003 -3.83618,-5.38425 -1.191601,-2.25556 -1.067845,-4.26152 0.542757,-7.41348 0.931792,-1.82352 2.278191,-3.79968 3.324069,-5.10661 1.033454,-1.2914 4.138332,-4.50115 5.407852,-5.68467 0.880372,-0.82074 1.065498,-1.15079 0.645483,-1.15079 -0.183166,0 -3.46495,3.31831 -5.092371,5.14905 -1.417527,1.59462 -2.338324,2.83631 -3.335589,4.49801 -1.180361,1.96679 -1.908504,3.49129 -2.270807,4.75434 -0.275128,0.95914 -0.3151,1.3062 -0.274896,2.38682 0.0427,1.14783 0.08888,1.35251 0.500511,2.21874 0.509447,1.07206 1.155185,1.86685 2.640491,3.86133 1.399475,1.87923 2.639093,3.41445 5.681231,6.49083 l 2.685156,2.59802 -0.488177,0.814 c -0.250054,0.41695 -0.323301,1.06193 -0.503594,1.23253 -0.180292,0.17061 -0.543153,0.64932 -0.645514,0.79576 -0.105126,0.15038 -0.494853,0.22602 -0.747214,0.16876 l -0.206758,0.4544 z"
       id="path1592"
       transform="matrix(0.26458332,0,0,0.26458332,-184.82596,111.58497)"
       sodipodi:nodetypes="sssssssssssssssssssssssssssssssssscsssscs" />
    <path
       style="fill:#ff8080;stroke-width:0.0620368;stroke-miterlimit:4;stroke-dasharray:none;fill-opacity:1"
       d="m 118.29509,184.66644 c -1.70011,0.077 -3.33283,-0.62717 -13.517,-4.99055 -5.843369,-2.50357 -6.217319,-2.67531 -6.597371,-3.08274 -0.575564,-0.61704 -0.657897,-1.19046 -0.648587,-3.61206 0.0048,-1.24758 0.156917,-2.67266 0.204007,-2.79155 0.07507,-0.18952 0.44836,0.26593 2.405391,1.19934 3.17336,1.51353 9.68917,4.51415 11.22737,5.17037 4.53023,1.93267 8.38138,2.2856 11.01153,1.00913 0.35826,-0.17388 0.65138,-0.36457 0.65138,-0.42376 0,-0.25925 -0.29688,-0.24076 -0.90409,0.0563 -2.14056,1.04728 -5.58653,0.86442 -9.19757,-0.48808 -1.31235,-0.49153 -5.1722,-2.23223 -10.2464,-4.62088 -4.277431,-2.01358 -4.914133,-2.01709 -4.679096,-2.09783 0.489081,-0.16802 2.032656,-0.56975 2.677506,-0.56975 1.00691,0 1.74817,0.23608 4.71304,1.5806 6.21727,2.81944 10.5819,4.63627 12.19931,5.06181 1.72844,0.45475 3.77888,0.36271 5.49934,-0.50074 0.76343,-0.38314 5.3085,-3.33657 6.32775,-4.11183 0.95764,-0.7284 4.14312,-4.36332 5.73199,-6.12116 1.4177,-1.56847 1.95255,-1.8156 5.61321,-4.56182 5.56405,-4.17415 9.45436,-6.43503 12.24694,-7.32585 1.38657,-0.44231 3.65046,-0.92937 6.36475,-1.35481 2.6946,-0.42235 2.7269,-0.44695 3.07982,0.2183 0.24323,0.45849 0.28965,0.80607 0.26007,1.19829 l -0.0465,0.61623 -2.55273,0.91202 c -2.90162,1.03668 -6.10586,2.73427 -7.44818,3.62185 -2.19881,1.45392 -4.65802,4.00266 -8.95423,9.32803 -3.5189,4.36185 -7.0462,7.8521 -9.35294,9.67795 -1.18818,0.94049 -6.56493,4.4476 -8.43067,5.34692 -1.54924,0.74676 -2.89513,1.17807 -4.13399,1.43198 -0.78763,0.12871 -3.18106,0.55969 -3.50406,0.22429 z"
       id="path1590"
       transform="matrix(0.26458332,0,0,0.26458332,-184.82596,111.58497)"
       sodipodi:nodetypes="csssssssscsssssssssssssscssssscc" />
    <path
       style="fill:#ff8080;stroke:none;stroke-width:0.124074;stroke-miterlimit:4;stroke-dasharray:none;fill-opacity:1"
       d="m 104.15927,161.56739 c -0.41449,-0.9794 -0.92165,-1.43752 -2.44068,-2.20465 l -1.283,-0.48831 69.70955,-72.144442 c 38.2811,-39.618218 69.58892,-72.174816 69.58892,-72.332574 0,-0.372018 6.35719,-6.9279169 -70.10039,72.291593 -36.81645,38.146413 -67.51503,69.945913 -68.21905,70.665563 l -1.28004,1.30845 -1.356432,-0.19515 -1.654074,5.9e-4 0.297644,-1.45561 -0.492289,-1.08095 71.214201,-71.022748 c 38.98297,-38.878164 70.74887,-71.135376 71.26434,-71.518511 1.2885,-0.957704 3.22637,-1.57417 3.85025,-0.950293 0.25747,0.257469 0.66553,1.552841 0.66553,1.886731 0,1.097144 -1.91028,3.364815 -4.93678,6.648698 -14.84638,16.108978 -46.81199,49.813759 -74.80705,79.237243 -23.78351,24.99706 -59.48887,62.57757 -59.66243,62.57757 -0.0576,0 -0.17051,-0.77964 -0.35822,-1.2232 z"
       id="path1600"
       transform="matrix(0.26458332,0,0,0.26458332,-184.82596,111.58497)"
       sodipodi:nodetypes="sscsssscccccssssssss" />
    <path
       style="fill:none;stroke:#000000;stroke-width:0.132292;stroke-linecap:butt;stroke-linejoin:miter;stroke-miterlimit:4;stroke-dasharray:none;stroke-opacity:1"
       d="m -163.30333,154.99152 c 0,0 -1.99084,-2.07985 -2.27615,-2.45972 -0.28531,-0.37986 -0.44418,-0.65116 -0.56237,-1.02142 -0.0983,-0.30783 -0.123,-0.64013 -0.11093,-0.96304 0.0142,-0.38005 0.0865,-0.76253 0.21487,-1.12055 0.12045,-0.33605 0.51236,-0.94045 0.51236,-0.94045 l 1.20621,-1.56907 1.74395,-1.91415 1.10989,-1.12766 c 0,0 0.54599,-0.60679 0.638,-0.72457 0.092,-0.11778 0.49016,-0.77988 0.64448,-1.21002 0.15048,-0.41943 0.265,-1.31029 0.265,-1.31029 0,0 0.16089,-0.11792 0.25383,-0.11562 0.12059,0.003 0.32149,0.16613 0.32149,0.16613 0,0 0.17336,1.36121 0.016,2.01379 -0.23588,0.97811 -0.86923,1.8191 -1.39709,2.67565 -0.70177,1.13875 -1.5711,2.16539 -2.34262,3.25808 -0.36524,0.51728 -1.02642,0.93045 -1.08234,1.5612 -0.0419,0.47223 0.32779,0.89957 0.59207,1.29315 0.47463,0.70684 1.74722,1.86315 1.74722,1.86315"
       id="path848"
       sodipodi:nodetypes="csaaaccccsacacaaaaac" />
    <path
       style="fill:none;stroke:#000000;stroke-width:0.132292;stroke-linecap:butt;stroke-linejoin:miter;stroke-miterlimit:4;stroke-dasharray:none;stroke-opacity:1"
       d="m -158.76148,158.42643 c 0,0 2.73058,1.19749 4.24215,1.79775 1.92454,0.76426 3.36402,-0.42594 4.79592,-1.24988 1.23707,-0.71184 3.01565,-3.03966 3.01565,-3.03966 0,0 1.29926,-1.66498 2.14387,-2.27536 0.82821,-0.59853 2.7782,-1.29583 2.7782,-1.29583 0,0 0.0531,-0.22743 0.0283,-0.33759 -0.0265,-0.11733 -0.18149,-0.31183 -0.18149,-0.31183 0,0 -1.88727,0.20803 -2.74952,0.57265 -1.51166,0.63922 -4.0782,2.75892 -4.0782,2.75892 0,0 -1.40217,1.65581 -2.32358,2.18728 -0.85718,0.49442 -1.53329,1.31111 -2.84369,0.85225 -1.25967,-0.4411 -3.68036,-1.5833 -3.68036,-1.5833"
       id="path850"
       sodipodi:nodetypes="csacacacacasc" />
    <path
       style="fill:none;stroke:#000000;stroke-width:0.132292;stroke-linecap:butt;stroke-linejoin:miter;stroke-miterlimit:4;stroke-dasharray:none;stroke-opacity:1"
       d="m -157.23459,154.74101 c 0,0 22.54666,-23.40313 36.26363,-38.27245 0.28964,-0.31397 0.68761,-1.0814 0.68761,-1.0814 0,0 -0.0183,-0.43091 -0.17464,-0.53416 -0.20511,-0.13548 -0.73465,0.0643 -0.73465,0.0643 0,0 -0.61347,0.46926 -0.88504,0.74218 -12.28278,12.34403 -37.10237,37.18247 -37.10237,37.18247"
       id="path852"
       sodipodi:nodetypes="cscacsc" />
    <path
       style="fill:#ffd42a;fill-opacity:1;stroke:none;stroke-width:0.264583px;stroke-linecap:butt;stroke-linejoin:miter;stroke-opacity:1"
       d="m -180.70563,173.54533 0.0509,-0.0647 0.20059,0.18769 0.1749,0.37062 0.68042,0.12332 0.25409,0.68733 0.70495,0.76807 0.51497,0.0766 -0.10591,0.42363 -0.23086,0.23554 -0.22469,-0.22393 -1.15628,-1.27235 -0.79359,-0.86758 -0.14798,-0.19005 0.0784,-0.25417"
       id="path1618"
       sodipodi:nodetypes="ccccccccccccccc" />
    <path
       style="fill:none;stroke:#000000;stroke-width:0.132292;stroke-linecap:butt;stroke-linejoin:miter;stroke-miterlimit:4;stroke-dasharray:none;stroke-opacity:1"
       d="m -177.3567,170.06375 -0.26631,0.13132 -3.04302,3.04267 -0.1023,0.60451 2.28882,2.52807 0.68098,-0.0784 3.18427,-3.03406 0.15472,-0.0233"
       id="path854"
       sodipodi:nodetypes="cccccccc" />
    <path
       style="fill:none;stroke:#000000;stroke-width:0.132292;stroke-linecap:butt;stroke-linejoin:miter;stroke-miterlimit:4;stroke-dasharray:none;stroke-opacity:1"
       d="m -180.50182,173.70861 0.25346,0.26995 0.70159,0.12955 0.1411,0.75281"
       id="path856" />
    <path
       style="fill:none;stroke:#000000;stroke-width:0.132292;stroke-linecap:butt;stroke-linejoin:miter;stroke-miterlimit:4;stroke-dasharray:none;stroke-opacity:1"
       d="m -179.54677,174.10811 2.68018,-2.69188"
       id="path858" />
    <path
       style="fill:none;stroke:#000000;stroke-width:0.132292;stroke-linecap:butt;stroke-linejoin:miter;stroke-miterlimit:4;stroke-dasharray:none;stroke-opacity:1"
       d="m -178.16829,176.13172 0.10178,-0.40445 2.85704,-2.74664"
       id="path860" />
    <path
       style="fill:none;stroke:#000000;stroke-width:0.132292;stroke-linecap:butt;stroke-linejoin:miter;stroke-miterlimit:4;stroke-dasharray:none;stroke-opacity:1"
       d="m -177.40655,169.96431 0.0499,0.0994 0.25964,0.0737 0.93004,0.93588 0.11277,0.11099 0.34671,0.41638 0.73189,0.80234 0.30419,0.48125 0.0697,0.21634 0.14221,0.13399 0.10588,0.003 c 0,0 0.0561,-0.0247 0.078,-0.0454 0.0638,-0.0605 0.14456,-0.22062 0.14456,-0.22062 l 0.33699,-0.37275 1.20234,-1.18949 0.29546,-0.29239 c 0,0 0.31126,-0.15179 0.44027,-0.26428 0.18486,-0.16118 0.39111,-0.33833 0.46106,-0.57341 0.0333,-0.11209 -0.0104,-0.23271 -0.0346,-0.34915 0,0 0.11533,-0.17268 0.18304,-0.25104 0.22155,-0.25634 0.7259,-0.71149 0.7259,-0.71149 0.25141,-0.12957 0.54494,-0.23753 0.67522,-0.4813 0.12782,-0.23914 0.0963,-0.56368 0.0245,-0.81308"
       id="path862"
       sodipodi:nodetypes="cccccccccccaccccaacacac" />
    <path
       style="fill:none;stroke:#000000;stroke-width:0.132292;stroke-linecap:butt;stroke-linejoin:miter;stroke-miterlimit:4;stroke-dasharray:none;stroke-opacity:1"
       d="m -169.76952,168.18881 1.79586,-1.88014 c 0,0 0.43798,-0.18214 0.58196,-0.35878 0.2044,-0.25077 0.33228,-0.91191 0.33228,-0.91191"
       id="path866"
       sodipodi:nodetypes="ccac" />
    <path
       style="fill:none;stroke:#000000;stroke-width:0.132292;stroke-linecap:butt;stroke-linejoin:miter;stroke-miterlimit:4;stroke-dasharray:none;stroke-opacity:1"
       d="m -167.21004,165.57923 1.76458,-1.80975 c 0,0 0.4441,-0.23608 0.61248,-0.41669 0.14056,-0.15076 0.28039,-0.33054 0.31118,-0.53435 0.0223,-0.1472 -0.10071,-0.43512 -0.10071,-0.43512"
       id="path868"
       sodipodi:nodetypes="ccaac" />
    <path
       style="fill:none;stroke:#000000;stroke-width:0.132292;stroke-linecap:butt;stroke-linejoin:miter;stroke-miterlimit:4;stroke-dasharray:none;stroke-opacity:1"
       d="m -164.5361,162.8735 1.52328,-1.52805 c 0,0 0.40989,-0.28965 0.57436,-0.4762 0.14366,-0.16295 0.29215,-0.34044 0.34982,-0.54988 0.0454,-0.1651 -0.015,-0.51351 -0.015,-0.51351"
       id="path870"
       sodipodi:nodetypes="ccaac" />
    <path
       style="fill:none;stroke:#000000;stroke-width:0.132292;stroke-linecap:butt;stroke-linejoin:miter;stroke-miterlimit:4;stroke-dasharray:none;stroke-opacity:1"
       d="m -162.0844,160.3169 0.28354,-0.31262 0.20076,-0.16226 0.42505,-0.19629 c 0,0 0.38102,-0.21107 0.5615,-0.33248 0.19961,-0.13428 0.57467,-0.43664 0.57467,-0.43664 0,0 0.18945,-0.0431 0.26638,-0.0983 0.0711,-0.051 0.16513,-0.20396 0.16513,-0.20396 l 0.0718,-0.0815 c 0,0 0.15221,0.0634 0.23301,0.0687 0.0631,0.004 0.18721,-0.0295 0.18721,-0.0295 0,0 0.12383,0.0678 0.191,0.0648 0.0888,-0.004 0.24379,-0.10783 0.24379,-0.10783 l 0.12005,0.0209"
       id="path872"
       sodipodi:nodetypes="ccccacaccacacc" />
    <path
       style="fill:none;stroke:#000000;stroke-width:0.132292;stroke-linecap:butt;stroke-linejoin:miter;stroke-miterlimit:4;stroke-dasharray:none;stroke-opacity:1"
       d="m -158.68059,158.48911 c 0,0 -0.23637,-0.21761 -0.2956,-0.36158 -0.0877,-0.21317 -0.0657,-0.68838 -0.0657,-0.68838 l 0.0452,-1.05378 -0.0658,-1.00058 -0.0584,-0.91969 -0.0587,-0.33485 0.0357,-0.33865"
       id="path874"
       sodipodi:nodetypes="cacccccc" />
    <path
       style="fill:none;stroke:#000000;stroke-width:0.132292;stroke-linecap:butt;stroke-linejoin:miter;stroke-miterlimit:4;stroke-dasharray:none;stroke-opacity:1"
       d="m -159.54247,157.93486 0.14532,-1.24264 0.11663,-1.17485 0.13915,-1.78969 0.0361,-0.43541 c 0,0 0.0237,-0.16825 0.0126,-0.25144 -0.0113,-0.0846 -0.0932,-0.15923 -0.0792,-0.24341 0.01,-0.0578 0.10538,-0.1408 0.10538,-0.1408 0,0 -0.10119,-0.0726 -0.15815,-0.0669 -0.11258,0.0112 -0.28025,0.19149 -0.28025,0.19149 0,0 -0.14931,-0.009 -0.21403,0.0224 -0.0687,0.0329 -0.16121,0.16194 -0.16121,0.16194 l -0.37569,0.2811 c 0,0 -0.15451,0.0779 -0.23777,0.0987 -0.13277,0.0331 -0.27675,0.002 -0.40864,0.0391 -0.15183,0.0421 -0.42683,0.203 -0.42683,0.203 0,0 -0.2706,-0.24892 -0.44084,-0.26001 -0.10526,-0.007 -0.20563,0.0623 -0.29113,0.12402 -0.14251,0.103 -0.3486,0.39591 -0.3486,0.39591 0,0 -0.19463,0.28451 -0.27343,0.4373 -0.0904,0.17529 -0.22691,0.54647 -0.22691,0.54647 l -0.23529,0.79544 -0.081,0.83621 -0.0188,0.77729 0.0438,0.31538"
       id="path876"
       sodipodi:nodetypes="cccccaacacaccaacaacaccccc" />
    <path
       style="fill:none;stroke:#000000;stroke-width:0.132292;stroke-linecap:butt;stroke-linejoin:miter;stroke-miterlimit:4;stroke-dasharray:none;stroke-opacity:1"
       d="m -160.97105,159.05015 c 0,0 -0.0343,-0.87353 -0.0128,-1.30954 0.0151,-0.30841 0.13563,-0.61425 0.0998,-0.92095 -0.041,-0.35044 -0.34571,-0.64494 -0.3536,-0.99768 -0.0138,-0.61549 0.53855,-1.76669 0.53855,-1.76669"
       id="path878"
       sodipodi:nodetypes="caaac" />
    <path
       style="fill:none;stroke:#000000;stroke-width:0.132292;stroke-linecap:butt;stroke-linejoin:miter;stroke-miterlimit:4;stroke-dasharray:none;stroke-opacity:1"
       d="m -159.01895,156.54013 c 0,0 0.57503,-0.16915 0.86929,-0.15752 0.25852,0.0102 0.75042,0.19827 0.75042,0.19827 0,0 0.002,-0.0874 -0.0167,-0.12518 -0.0252,-0.051 -0.0877,-0.0745 -0.12085,-0.12073 -0.0691,-0.0963 -0.0774,-0.23123 -0.15737,-0.31865 -0.0459,-0.0503 -0.17434,-0.10646 -0.17434,-0.10646"
       id="path880"
       sodipodi:nodetypes="cacaaac" />
    <path
       style="fill:none;stroke:#000000;stroke-width:0.132292;stroke-linecap:butt;stroke-linejoin:miter;stroke-miterlimit:4;stroke-dasharray:none;stroke-opacity:1"
       d="m -158.64478,155.02982 c 0,0 0.64631,0.1093 0.90241,0.29526 0.12644,0.0918 0.24416,0.22568 0.27652,0.37856 0.0373,0.17601 -0.11449,0.52745 -0.11449,0.52745"
       id="path882"
       sodipodi:nodetypes="caac" />
    <path
       style="fill:none;stroke:#000000;stroke-width:0.132292;stroke-linecap:butt;stroke-linejoin:miter;stroke-miterlimit:4;stroke-dasharray:none;stroke-opacity:1"
       d="m -158.17938,155.67497 -0.87956,-0.0725"
       id="path884" />
    <path
       style="fill:none;stroke:#000000;stroke-width:0.132292;stroke-linecap:butt;stroke-linejoin:miter;stroke-miterlimit:4;stroke-dasharray:none;stroke-opacity:1"
       d="m -157.50876,155.6106 c 0,0 0.25915,-0.43988 0.28071,-0.68601 0.0215,-0.24584 -0.0144,-0.52205 -0.15696,-0.7235 -0.20038,-0.28323 -0.5608,-0.42501 -0.88573,-0.54663 -0.27141,-0.10158 -0.85781,-0.14138 -0.85781,-0.14138"
       id="path886"
       sodipodi:nodetypes="caaac" />
    <path
       style="fill:none;stroke:#000000;stroke-width:0.132292;stroke-linecap:butt;stroke-linejoin:miter;stroke-miterlimit:4;stroke-dasharray:none;stroke-opacity:1"
       d="m -162.78192,154.52839 c 0,0 -0.13102,0.0919 -0.18111,0.15309 -0.0423,0.0516 -0.0966,0.17543 -0.0966,0.17543 0,0 -0.20127,-0.006 -0.24828,0.065 -0.12737,0.19374 0.10494,0.68763 0.10494,0.68763 0,0 -0.19265,0.13262 -0.20325,0.23586 -0.0114,0.11163 0.16337,0.29434 0.16337,0.29434 l -0.0164,0.0811 c 0,0 -0.16562,0.13326 -0.23259,0.21484 -0.0642,0.0781 -0.15844,0.25861 -0.15844,0.25861"
       id="path888"
       sodipodi:nodetypes="cacacaccac" />
    <path
       style="fill:none;stroke:#000000;stroke-width:0.132292;stroke-linecap:butt;stroke-linejoin:miter;stroke-miterlimit:4;stroke-dasharray:none;stroke-opacity:1"
       d="m -177.3567,170.06375 -0.0499,-0.0994 c 0,0 0.0953,-0.19937 0.17452,-0.27257 0.0643,-0.0594 0.23156,-0.12354 0.23156,-0.12354 l 0.21811,-0.30115 1.13716,-0.94284 0.85342,-0.71586 c 0,0 0.24244,-0.29232 0.40975,-0.36774 0.0886,-0.0399 0.28952,-0.0336 0.28952,-0.0336 0,0 0.17639,-0.31967 0.32937,-0.39963 0.07,-0.0366 0.23601,-0.0194 0.23601,-0.0194 l 1.87782,-1.82348 c 0,0 0.0964,-0.30871 0.20389,-0.42212 0.0947,-0.0999 0.36169,-0.19928 0.36169,-0.19928 l 1.6168,-1.61537 0.34699,-0.53351 c 0,0 0.25172,-0.4519 0.4753,-0.53514 0.0595,-0.0221 0.18877,0.025 0.18877,0.025 l 1.82393,-1.78087 c 0,0 0.10944,-0.38153 0.25327,-0.50145 0.0627,-0.0523 0.235,-0.0693 0.235,-0.0693 l 1.7512,-1.76102 c 0,0 0.35707,-0.43186 0.48802,-0.67742 0.0444,-0.0832 0.0251,-0.20605 0.0985,-0.26525 0.0503,-0.0406 0.19196,-0.0274 0.19196,-0.0274"
       id="path890"
       sodipodi:nodetypes="ccaccccacaccacccaccaccaac" />
    <path
       style="fill:none;stroke:#000000;stroke-width:0.132292;stroke-linecap:butt;stroke-linejoin:miter;stroke-miterlimit:4;stroke-dasharray:none;stroke-opacity:1"
       d="m -163.52997,156.86153 c 0,0 0.32649,0.75408 0.66403,1.30505 0.33753,0.55098 0.70173,1.35055 0.70173,1.35055"
       id="path892" />
    <path
       style="fill:none;stroke:#000000;stroke-width:0.132292;stroke-linecap:butt;stroke-linejoin:miter;stroke-miterlimit:4;stroke-dasharray:none;stroke-opacity:1"
       d="m -165.93446,159.12097 -0.20921,0.21148 c 0,0 0.15501,0.35931 0.26783,0.51737 0.6559,0.91895 1.12911,2.17214 1.12911,2.17214"
       id="path894"
       sodipodi:nodetypes="ccsc" />
    <path
       style="fill:none;stroke:#000000;stroke-width:0.132292;stroke-linecap:butt;stroke-linejoin:miter;stroke-miterlimit:4;stroke-dasharray:none;stroke-opacity:1"
       d="m -168.14529,161.38525 -0.31058,0.29886 -0.0617,0.14032 c 0,0 0.27476,0.62344 0.452,0.91315 0.41246,0.67422 0.78749,1.6398 0.78749,1.6398"
       id="path896"
       sodipodi:nodetypes="cccsc" />
    <path
       style="fill:none;stroke:#000000;stroke-width:0.132292;stroke-linecap:butt;stroke-linejoin:miter;stroke-miterlimit:4;stroke-dasharray:none;stroke-opacity:1"
       d="m -170.85595,164.11527 c 0,0 -0.28433,0.23433 -0.30694,0.40118 -0.0603,0.44471 0.27262,0.86393 0.50408,1.24843 0.35931,0.5969 0.74256,1.56262 0.74256,1.56262"
       id="path898"
       sodipodi:nodetypes="casc" />
    <path
       style="fill:none;stroke:#000000;stroke-width:0.132292;stroke-linecap:butt;stroke-linejoin:miter;stroke-miterlimit:4;stroke-dasharray:none;stroke-opacity:1"
       d="m -173.72055,167.52301 c 0,0 1.05691,0.99703 1.55,1.5298 0.25993,0.28084 0.74091,0.87693 0.74091,0.87693"
       id="path900"
       sodipodi:nodetypes="cac" />
    <path
       style="fill:none;stroke:#000000;stroke-width:0.132292;stroke-linecap:butt;stroke-linejoin:miter;stroke-miterlimit:4;stroke-dasharray:none;stroke-opacity:1"
       d="m -173.52713,166.788 c 0,0 -0.0157,0.0999 -0.003,0.14732 0.12843,0.47768 0.49383,0.85815 0.77006,1.26847 0.25091,0.37271 0.80435,1.08161 0.80435,1.08161 l 0.52606,0.64434"
       id="path902"
       sodipodi:nodetypes="caacc" />
    <path
       style="fill:none;stroke:#000000;stroke-width:0.132292;stroke-linecap:butt;stroke-linejoin:miter;stroke-miterlimit:4;stroke-dasharray:none;stroke-opacity:1"
       d="m -177.00047,169.5682 c 0,0 0.22949,-0.0612 0.33716,-0.10994 0.2273,-0.10307 0.45319,-0.22123 0.64362,-0.38255 0.16135,-0.13668 0.30664,-0.2998 0.40937,-0.48463 0.0717,-0.12897 0.13639,-0.42112 0.13639,-0.42112 l 0.68214,-0.56161"
       id="path904"
       sodipodi:nodetypes="caaacc" />
    <path
       style="fill:none;stroke:#000000;stroke-width:0.132292;stroke-linecap:butt;stroke-linejoin:miter;stroke-miterlimit:4;stroke-dasharray:none;stroke-opacity:1"
       d="m -159.01895,156.54013 c 0,0 2.43933,1.16976 3.68008,1.70763 2.17832,0.94432 3.04007,0.16382 3.04007,0.16382"
       id="path906"
       sodipodi:nodetypes="csc" />
    <path
       style="fill:none;stroke:#000000;stroke-width:0.132292;stroke-linecap:butt;stroke-linejoin:miter;stroke-miterlimit:4;stroke-dasharray:none;stroke-opacity:1"
       d="m -162.55565,154.07468 c 0,0 -1.61864,-1.52682 -2.25681,-2.42924 -0.33498,-0.47369 -0.77571,-0.96258 -0.80748,-1.54188 -0.0428,-0.78012 0.44352,-1.51795 0.85381,-2.18284 0.53936,-0.87405 2.06147,-2.29003 2.06147,-2.29003"
       id="path908"
       sodipodi:nodetypes="caaac" />
    <path
       style="fill:none;stroke:#000000;stroke-width:0.132292;stroke-linecap:butt;stroke-linejoin:miter;stroke-miterlimit:4;stroke-dasharray:none;stroke-opacity:1"
       d="m -158.33265,153.63527 36.9568,-38.26268"
       id="path910"
       sodipodi:nodetypes="cc" />
  </g>
</svg>
