<svg xmlns="http://www.w3.org/2000/svg" cursor="default" viewBox="0 0 256 256" xmlns:v="https://vecta.io/nano"><path d="M114.257 34.202l-1.439.627a7.86 7.86 0 0 1-3.009.637c-.864.005-2.353.197-3.309.427s-2.178.421-2.715.426-1.452.2-2.031.433-1.704.508-2.498.611-2.146.494-3.003.87-2.081.684-2.723.684-1.747.273-2.46.605c-1.067.499-1.813.606-4.229.61-1.613.002-3.617-.09-4.454-.206s-2.694-.071-4.127.099c-1.772.211-3.094.218-4.128.023-.836-.158-2.246-.35-3.133-.427s-2.109-.327-2.716-.555-1.982-.621-3.058-.873c-1.776-.417-3.742-1.206-4.722-1.895-.536-.377-1.539-.329-1.972.095-.401.392-.389.076-.378 10.312.014 13.584-.787 49.448-1.197 53.58-.105 1.064-.351 1.527-1.846 3.48-2.024 2.644-2.062 2.876-1.178 7.118.297 1.428.467 2.629.377 2.67-.635.285-1.661 1.377-1.968 2.094-.202.472-.435.859-.518.859-.395.005-2.946-2.875-3.475-3.923-.329-.651-.875-2.468-1.214-4.038-.525-2.431-.705-2.911-1.21-3.235-.404-.26-.78-.3-1.182-.125-1.236.537-1.827 5.347-1.036 8.429.522 2.036 1.968 3.943 4.63 6.103l1.999 1.623-3.703 6.165c-2.037 3.391-4.21 7.155-4.829 8.365l-1.127 2.2-2.064.192c-3.483.325-4.084.88-3.789 3.498l.137 1.218-2.137 1.98c-1.175 1.089-3.653 3.063-5.506 4.387-5.469 3.906-6.493 4.932-10.492 10.508-5.539 7.724-6.006 8.483-6.462 10.507-.407 1.805-.046 2.7 1.538 3.821.703.498 1.648 1.085 2.1 1.305 1.756.856 12.806.474 21.243-.733 9.174-1.313 13.598-2.831 27.807-9.544 2.987-1.411 5.984-2.758 6.661-2.992s3.609-.752 6.517-1.151c6.121-.839 6.814-.985 11.042-2.329 3.722-1.182 6.213-2.665 7.699-4.584 1.131-1.459 1.849-3.272 1.857-4.685.003-.512.487-4.795 1.076-9.519 1.293-10.359 1.484-13.027 1.05-14.677-.282-1.074-.278-1.215.054-1.49.672-.557 1.357-2.946 1.24-4.324-.091-1.07-.034-1.314.389-1.682.272-.237.74-.911 1.039-1.499.489-.961.554-1.43.648-4.674.116-4.026-.155-2.274 5.473-35.335l4.138-25.227c.65-4.616.822-5.413 1.294-5.994.761-.936 1.061-1.815 1.749-5.123.33-1.586.733-3.029.895-3.205.518-.564.319-1.116-.661-1.827zm-.805 2.817c.037.002.06.005.065.012.088.117-.654 3.852-1.016 5.116-.36 1.258-1.119 1.673-4.409 2.414l-3.142.701c-.017 0 .05-.48.15-1.068s.248-2.196.329-3.573l.147-2.504 1.114-.2c2.15-.386 6.2-.918 6.762-.898zm-53.47 1.151c.065 0 .141.047.227.138.25.265 1.295.6 4.691 1.501l2.072.549c.03.004-.313 3.511-.423 4.328-.075.555-.526 8.408-1.003 17.451l-1.412 25.527c-1.011 16.871-1.146 17.752-2.99 19.582a22.7 22.7 0 0 0-1.983 2.297c-.734 1.013-.864 1.393-.95 2.771-.092 1.475-.142 1.598-.642 1.598-.529 0-.54-.042-.454-1.816.078-1.627.19-1.995 1.073-3.534 1.301-2.267 1.167-1.884 2.143-6.094 1.189-5.129 1.704-8.154 1.956-11.503.408-5.42 1.303-27.112 1.642-39.79.151-5.665.243-5.31-2.071-8.055-1.955-2.32-2.172-2.694-2.172-3.755 0-.795.101-1.198.296-1.195zm44.89.184v1.82c0 1.001-.112 2.557-.248 3.459-.289 1.911.14 1.674-4.64 2.567-3.254.608-4.037.642-12.274.528l-13.228-.144-4.43-.023-.392.721c-.337.619-.564 3.547-1.605 20.624l-2.39 34.475c-.163.876-.733 2.826-1.267 4.333-1.221 3.446-1.45 4.551-1.452 6.989-.002 1.762-.05 1.978-.49 2.197-1.196.594-1.41.614-1.695.158-.159-.255-.722-.859-1.251-1.342-.936-.855-.958-.911-.852-2.16.135-1.592.938-2.977 2.665-4.593 1.103-1.033 1.337-1.423 1.767-2.949.734-2.605.966-5.905 3.015-42.733l1.418-21.464c.061-.082.743-.029 1.514.117 3.451.655 7.834.955 9.924.681 1.167-.153 2.552-.174 3.076-.047s2.48.252 4.345.278c3.241.046 3.699-.025 10.343-1.588l7.549-1.77zm-44.711 5.974c.226-.032.65.47 1.446 1.415l.932 1.106-.56 14.711c-.988 25.951-1.206 29.733-1.98 34.325-.294 1.745-.727 3.952-.962 4.904l-.428 1.731.106-3.317 1.188-52.579c0-1.537.002-2.259.257-2.295zm50.379 2.12c.046.003.074.012.082.025.157.262-1.775 12.582-4.878 31.095l-4.173 24.951c-.471 2.847-.708 5.194-.802 7.954-.126 3.707-.166 3.973-.738 4.969-.799 1.391-2.197 2.445-4.123 3.109-2.019.696-1.964.711-1.461-.385.514-1.119.557-2.808.102-3.977-.379-.972-.273-1.69 2.098-14.267l2.252-12.692 5.442-36.344c.212-1.586.491-3.028.621-3.204.198-.269 4.887-1.285 5.578-1.235zm-6.458 1.242c.05-.004.078-.003.082 0 .088.109-3.556 24.952-5.038 34.349l-3.371 19.465-1.961 11.46c0 .515.155 1.45.343 2.076.316 1.047.314 1.221-.02 2.155-.747 2.09-1.071 2.326-4.133 3.016-1.549.349-3.941.761-5.315.915-5.575.627-12.147.079-15.876-1.323-.251-.095.067-.695 1.195-2.253 1.814-2.505 3.167-5.381 3.167-6.727 0-2.081-2.051-3.582-3.674-2.689-.352.194-1.438 1.564-2.412 3.044s-1.91 2.763-2.079 2.849c-.244.124-.307-.205-.307-1.601 0-1.589.123-2.066 1.278-4.966.703-1.765 1.385-3.663 1.516-4.219s.385-3.021.565-5.48l2.532-43.467c.143-2.728.339-5.129.436-5.336.141-.302 1.524-.348 6.972-.232 12.653.268 18.828.129 22.655-.513 1.673-.281 3.097-.495 3.446-.521zm-45.499 55.237c.011 0 .017.007.017.022 0 .841-.802 2.884-1.65 4.202-.554.861-1.128 2.031-1.275 2.599l-.268 1.034-.289-1.81-.289-1.81 1.07-1.169c.588-.643 1.437-1.64 1.885-2.217.392-.504.722-.853.799-.852zm-12.939 6.47c.02.004.043.049.069.135.063.208.055.457-.017.553s-.124-.075-.114-.379c.007-.21.029-.315.062-.309zm-.67.033c.093.006.197.439.384 1.474l.326 1.821c-.006-.018-.174-.091-.374-.161-.429-.151-.72-1.973-.462-2.893.044-.157.084-.243.126-.24zm26.013.454c.08.006.182.124.36.357.374.491.369.561-.131 1.814-.36.902-.59 1.211-.747 1.004-.296-.393-.943-.384-1.129.016-.081.174-.026.616.122.983.236.585.195.797-.334 1.717-.695 1.21-1.311 1.744-1.513 1.311-.207-.444-.976-.343-1.118.147-.069.24-.006.629.141.865.226.362.054.558-1.116 1.271-1.659 1.01-2.521 1.224-3.176.789-.8-.531-.573-.884 1.036-1.612 1.632-.738 3.349-2.095 4.521-3.575.689-.87 2.427-3.778 2.853-4.773.091-.213.15-.319.23-.313zm-.977.281c.071-.002.046.175-.112.566-.126.313-.711 1.338-1.3 2.278s-1.394 2.009-1.788 2.377c-.603.562-.545.416.369-.927.597-.877 1.428-2.199 1.846-2.937.482-.85.866-1.353.984-1.357zm-24.18.444c.048.025.147.242.291.685.178.543.289 1.124.247 1.29s-.191-.135-.331-.67c-.225-.858-.287-1.348-.207-1.306zm.008 2.704c.07-.01.207.169.4.599.25.555.856 1.561 1.348 2.236s.849 1.217.794 1.206c-.367-.071-2.016-2.018-2.278-2.69-.309-.791-.38-1.334-.264-1.351zm1.267 1.068c.107-.007.586.481 1.11 1.14.56.702.922 1.276.804 1.276-.286 0-2.069-2.224-1.931-2.408zm9.273 1.874c.252-.011.277.264.059.806-.143.354-.458.602-.765.602-.72 0-.924.574-.404 1.134.237.255.389.633.337.84s.112.631.363.943.458.626.458.699c0 .694-1.464-1.343-1.642-2.284-.173-.914.335-2.077 1.112-2.547.206-.125.367-.189.482-.194zm1.814 1.414c.128-.021.19.139.076.498-.089.278-.228.959-.309 1.514l-.148 1.01-.163-.921c-.097-.548-.066-1.161.076-1.514.147-.364.34-.566.468-.587zm.823.283c.071 0 .131.909.135 2.019s-.072 2.018-.168 2.018c-.217 0-.599-1.29-.599-2.024 0-.619.439-2.015.632-2.012zm-8.869.709c.087-.01.46.157.904.409.508.287 1.065.583 1.238.658s.222.212.109.304c-.195.158-2.271-1.081-2.271-1.356 0-.009.007-.014.019-.015zm48.531.844c.114.021.113.246.028.806-.197 1.311-.911 2.196-2.169 2.692-1.287.507-1.285.507-1.114.139.074-.159.373-.288.665-.288.473 0 .53-.124.53-1.137 0-1.37.281-1.703.615-.729.263.767.413.843.881.45.183-.154.259-.543.195-.99-.07-.485.004-.793.215-.901.065-.033.115-.049.153-.041zm-45.341.753c.121 0 .277.195.346.433s.091.433.05.433-.197-.195-.346-.433c-.156-.249-.177-.433-.05-.433zm41.081 1.033c.171.007.127.234-.02.947-.118.576-.315 1.21-.437 1.409-.417.679-.627.36-.561-.846.057-1.027.152-1.236.64-1.408.177-.062.299-.105.377-.101zm-27.802.024c.111.005.211.026.295.068.537.264.381.42-.925.928-.938.365-.95.384-.314.476.365.053 1.103-.154 1.64-.46.958-.545 1.016-.545 3.063-.022 2.196.561 7.804 1.416 9.291 1.416.481 0 .875.116.875.257 0 .473.742.652.972.234.144-.261.879-.474 2.069-.6 1.016-.107 2.775-.351 3.91-.542l2.247-.353c.101-.003.304.46.451 1.029l.268 1.036-2.714.499a55.29 55.29 0 0 1-5.393.667l-2.68.168v-.892c0-.491-.102-.976-.227-1.078-.318-.261-.859.403-.859 1.052 0 .612-.679.684-3.313.354-1.234-.155-1.466-.269-1.466-.719 0-.611-.767-.753-.942-.175-.06.198-.117.068-.127-.289-.022-.83-.788-.888-.949-.072-.155.787-.699.741-3.413-.289-1.254-.476-2.591-.865-2.971-.865-.484 0-.713-.151-.766-.505-.085-.569 1.202-1.356 1.976-1.323zm26.097.547c.174.015.211.226.208.803-.002.501-.075 1.052-.163 1.226-.213.421-1.572.763-1.572.396 0-.156.196-.506.435-.778s.434-.71.434-.973a.71.71 0 0 1 .434-.63.57.57 0 0 1 .223-.043zm-40.83.428c.039-.003.074.011.099.045.067.089-.77 1.541-1.861 3.226s-2.029 3.063-2.084 3.063c-.081 0 2.926-5.101 3.644-6.182.062-.093.138-.146.202-.151zm2.248.869c.206.045-.542 1.159-6.581 10.16l-6.028 8.862c-.263 0 .157-.709 2.373-3.998l6.116-9.27c2.013-3.094 3.807-5.671 3.986-5.727.056-.017.104-.033.134-.027zm1.213.507c.038-.002.075.002.113.006.355.053.717.186.804.296s-.749 1.559-1.857 3.221l-6.637 10.088-4.801 7.153c-.098.047-.382-.294-.631-.758l-.453-.844 6.464-9.626c5.648-8.411 6.426-9.506 6.998-9.536zm5.616.036c.4.02 1.022.281 2.389.907 3.024 1.385 4.796 1.872 9.585 2.634 4.776.76 10.969.821 14.451.144l3.422-.663 1.032-.197-.005 1.986c-.007 2.613-1.642 21.741-1.886 22.064-.325.431-6.074 2.236-9.499 2.983-1.801.392-5.864 1.177-9.031 1.744-5.044.903-6.066 1.176-8.255 2.202-4.962 2.327-17.559 7.819-20.749 9.045-3.609 1.388-6.611 2.218-10.42 2.881h0c-3.006.523-8.201.528-10.715.011-.992-.204-1.849-.432-1.905-.505-.148-.196 4.353-5.905 5.904-7.488 2.672-2.729 12.412-10.038 13.377-10.038.308 0 .681.195.83.433.353.566 1.005.554 1.171-.021.162-.56-.094-1.171-.948-2.263-.362-.463-.658-.923-.658-1.024s.842-.475 1.87-.834c1.643-.572 1.913-.6 2.227-.232.734.862 4.696 3.941 5.071 3.941.653 0 .454-1.064-.497-2.662a24.74 24.74 0 0 1-1.536-3.196c-.64-1.683-.643-1.713-.237-2.322l6.436-9.775c5.545-8.429 6.08-9.157 6.718-9.16.382 0 .95-.18 1.264-.397.194-.134.354-.209.594-.196zm35.829 1.413c.274-.018.367.068.419.25.385 1.333-.771 15.323-1.8 21.78-.154.964-1.155 1.825-2.979 2.561-1.51.61-1.678.643-1.674.334.002-.119.344-4.24.762-9.158l.899-11.759c.127-2.551.184-2.831.596-2.95l2.265-.68c.781-.237 1.237-.36 1.512-.378zm-48.874 3.797c.06 0-.068.259-.284.577s-.442.577-.502.577.068-.259.285-.577.442-.577.502-.577zm-8.441 11.27c.169 0 .259.019.227.063-.06.081-.814.461-1.676.843-1.334.592-1.586.632-1.691.269-.068-.235-.047-.522.047-.638.154-.192 2.363-.539 3.093-.537zm.191 2.405c.201 0 .276.121.341.347.077.265.113.496.08.513-.795.412-2.123 1.489-2.21 1.792-.254.881-.782.179-.782-1.039 0-.361.293-.669.923-.97.922-.44 1.389-.643 1.647-.643zm.672 1.707c.256.013.469.125.598.36.158.287.287.599.287.695s-.628.395-1.396.667-1.561.578-1.763.681c-.313.159-.331.099-.126-.411.471-1.17 1.632-2.029 2.4-1.991zm4.829.483c.101 0 .184.148.184.329s.292.96.649 1.731.626 1.402.597 1.402c-.065 0-2.133-1.946-2.29-2.155-.137-.182.604-1.306.86-1.306zm-8.883 2.499c.097.079-.933 1.019-2.288 2.088-5.886 4.643-11.883 10.217-15.858 14.738-2.873 3.267-3.744 5.693-3.135 8.726.188.934.166.937-1.33.174-1.992-1.016-1.953-2.162.19-5.605 1.689-2.715 7.81-9.089 12.146-12.647 3.108-2.551 10.088-7.628 10.275-7.475zm.367.962c.111 0 .35.281.531.624.323.612.252.677-3.844 3.56-7.756 5.459-9.383 6.958-13.46 12.405-2.012 2.688-2.335 3.25-2.335 4.062 0 .518.147 1.136.326 1.374.976 1.297 8.437 2.047 13.251 1.333 6.889-1.022 11.185-2.536 27.807-9.802 6.279-2.745 10.037-4.059 11.514-4.025.239.006-.243.33-1.071.721-1.652.78-2.159 1.159-3.563 2.663-1.067 1.143-2.558 1.918-10.681 5.553-10.374 4.641-16.564 6.138-28.567 6.91-6.897.443-10.42.395-10.759-.148-.515-.823-.517-3.07-.005-4.65.554-1.709 1.619-3.139 5-6.716 3.757-3.973 15.069-13.864 15.857-13.864zm58.61 2.084c.116.06-1.016 1.852-1.792 2.759-.533.623-1.465 1.406-2.071 1.74l-1.102.608.066-1.336.066-1.336 2.141-.952c1.177-.523 2.298-1.118 2.49-1.322.117-.124.181-.173.203-.162zm-5.664 2.975c.051-.003.084 0 .097.011.23.189.247 1.579.024 2.037-.088.181-.551.473-1.028.649-1.179.435-8.768 2.211-11.793 2.76-3.262.592-3.762.567-4.654-.237-.416-.375-.879-.736-1.028-.802s1.131-.355 2.845-.641c5.094-.851 9.45-1.868 12.539-2.926 1.398-.479 2.64-.828 2.998-.85zm-18.332 5.226c.196.008.303.127.463.362.398.584.254.892-.418.892-.26 0-1.196.255-2.082.566-2.764.972-2.733.964-2.37.601.667-.665 2.316-1.694 3.403-2.122.521-.205.808-.307 1.004-.298z"/><path d="M215.846 60.96c-.244-.006-.412.059-.412.202 0 .115-.577.582-1.282 1.038s-2.528 1.769-4.049 2.918c-2.374 1.792-3.211 2.268-5.898 3.352l-5.387 2.205c-2.547 1.063-4.067 1.48-7.524 2.064-1.432.242-2.838.634-3.482.971-1.171.613-3.622 1.443-4.262 1.443-.666 0-5.861 1.847-6.952 2.471-.564.323-1.124.587-1.245.587s-.997.295-1.946.655l-1.992.655c-.146 0-.825.229-1.508.509s-1.954.636-2.824.79-1.814.382-2.099.506-1.293.397-2.239.606l-3.171.812-2.503.677-5.972 1.434c-1.256.311-3.212.627-4.348.703s-2.213.235-2.394.353c-.572.374-.362 1.031.733 2.298.833.965 1.432 2.171 2.782 5.608 3.606 9.18 6.289 17.786 12.057 38.673 2.065 7.478 2.029 7.277 2.092 11.717.056 3.952.073 4.062.743 4.9.407.508 1.328 1.168 2.263 1.62l1.577.762-.008 1.531c-.009 1.667.614 3.16 1.631 3.908.307.226.502.488.433.581-.315.423.568 3.896 1.883 7.402 3.02 8.05 3.574 10.643 4.575 21.423.788 8.489 1.096 9.916 3.035 14.093 1.602 3.451 2.955 5.576 6.216 9.767 7.821 10.053 14.517 16.742 18.23 18.212 1.127.446 1.654.527 2.907.444 2.36-.156 4.181-1.01 6.784-3.178 3.374-2.811 8.451-9.43 10.72-13.975 2.943-5.896 6.918-18.858 7.35-23.968.261-3.093-.423-7.57-4.017-26.277l-2.283-11.884.449-1.034c.655-1.51.814-3.278.342-3.798-.344-.379-.306-.559.372-1.747.851-1.492.923-2.375.362-4.492-.207-.781-1.392-9.726-2.633-19.878l-4.059-32.645c-1.783-14.042-1.796-14.195-1.311-14.854.611-.831.663-3.634.121-6.624-.202-1.114-.31-2.209-.239-2.432.082-.259-.092-.534-.48-.759-.377-.219-.819-.341-1.133-.347zm-.283 2.654c.189.168.662 3.318.662 4.412 0 1.588-.209 1.97-1.935 3.543-2.924 2.664-12.694 8.222-19.747 11.234-2.538 1.084-4.751 2.107-4.918 2.273s-.365.631-.44 1.032c-.129.684 1.664 10.367 7.485 40.412 1.991 10.278 2.25 11.913 1.861 11.741-1.348-.598-4.41-.004-5.6 1.086-.276.253-.696.936-.934 1.517l-.432 1.058-3.62-18.805-4.936-25.983c-.723-3.948-1.431-7.357-1.573-7.576-.422-.653-1.203-.704-3.625-.234-2.532.491-10.173 1.382-15.416 1.797-2.654.211-3.815.21-5.473 0-3.062-.389-5.994-1.068-7.457-1.727-1.189-.536-3.332-2.271-3.332-2.697 0-.103.445-.187.988-.188s1.937-.148 3.096-.329c3-.468 18.894-4.046 19.367-4.36.534-.353 2.874-1.328 3.689-1.537.362-.093 1.403-.45 2.312-.794s1.752-.625 1.874-.625.681-.264 1.245-.587c1.091-.625 6.285-2.471 6.952-2.471.584 0 2.822-.748 4.481-1.497.797-.36 2.22-.766 3.162-.903 2.95-.428 5.113-1.056 8.647-2.511 1.881-.775 4.007-1.593 4.725-1.819.828-.261 2.679-1.348 5.059-2.973 2.064-1.409 3.788-2.529 3.832-2.491zm-.711 9.967l.157.84c.153.82.767 5.222 3.177 22.793l3.038 23.809 2.404 17.617c.546 2.422.546 2.441.036 3.397-.282.528-.897 1.324-1.367 1.767s-1.325 1.116-1.901 1.494l-1.047.687.2-.85c.11-.467.203-1.363.207-1.99.006-.931-.119-1.253-.676-1.748-1.342-1.192-1.325-1.066-1.556-11.836-.12-5.597-.348-11.406-.506-12.907-.965-9.147-3.344-24.554-5.666-36.684-.375-1.96-.648-3.581-.606-3.603.518-.267 2.637-1.656 3.277-2.148zm-4.828 3.356c.299.278 3.895 21.399 4.996 29.342 1.321 9.53 1.482 11.558 1.73 21.843l.417 11.402c.128.863.391 1.351 1.097 2.035.88.853.922.964.793 2.142-.219 1.999-.703 2.682-2.736 3.853-1.001.577-1.544.806-1.217.512.649-.581.757-1.4.255-1.942-.582-.628-1.449-.856-3.268-.854-1.396.002-2.011.11-2.764.491-1.376.697-1.844 1.272-3.758 4.619-.934 1.634-1.758 2.971-1.83 2.971s-.201-.467-.287-1.038-.386-2.069-.667-3.331c-.52-2.336-4.908-25.56-9.224-48.82l-2.315-13.432c.062-.441.553-.759 2.58-1.668l4.608-2.077c1.158-.524 4.221-2.115 6.808-3.536s4.739-2.551 4.781-2.512zm-30.722 14.032c.509.017.87 2.038 6.859 32.348 3.337 16.888 4.379 22.608 4.178 22.936-.147.24-.723.933-1.28 1.54-1.759 1.917-2.191 2.974-2.204 5.394-.012 2.258.005 2.233-1.329 1.979l-3.557-.646c-1.667-.3-4.252-.882-5.744-1.292-2.879-.791-8.707-3.138-10.571-4.258-1.687-1.013-1.884-1.605-1.594-4.774.355-3.873.359-3.849-3.594-17.931-4.624-16.47-6.62-22.82-9.145-29.086-2.318-5.754-2.403-6.028-1.769-5.759 1.26.535 4.89 1.027 8.455 1.146 3.83.127 6.752-.06 15.134-.968l5.916-.59c.096-.003.172-.041.244-.039zm16.665 48.519c.126-.012.118.086.043.324s-.36.433-.646.433c-.28 0-.816.27-1.192.601-.465.409-.595.461-.407.162.323-.514 1.017-1.045 1.814-1.386.187-.08.311-.127.387-.134zm.042 1.178c.59-.01 1.22.201 1.812.639.801.593.829.668.597 1.584-.212.838-.34.97-.999 1.033-.691.065-.744.131-.615.764.077.381.211.841.297 1.021.273.572-2.461 3.309-3.945 3.948-1.109.478-1.306.658-1.309 1.201-.002.351-.099 1.044-.215 1.539-.208.89-.11 1.187.955 2.867.208.328.553.491 1.034.491.556 0 .762.129.892.56.093.308.056.77-.082 1.027l-.252.467-.158-.502c-.135-.427-.275-.481-.94-.36-.69.126-.943.009-2.172-1.011-1.345-1.115-1.37-1.157-.752-1.278.959-.188.853-.944-.152-1.088-1.616-.23-.978-1.841 2.311-5.839 1.089-1.323 2.059-2.64 2.157-2.925s.306-.738.465-1.006c.244-.412.181-.576-.405-1.062-.539-.447-.637-.664-.438-.971.462-.715 1.155-1.089 1.914-1.101zm3.987 4.028c.091-.005.155.096.155.33 0 .239.303 1.793.674 3.453s.743 3.632.829 4.383c.086.759.05 1.355-.081 1.342s-.67-.23-1.201-.483c-.923-.439-1.091-.448-3.806-.196-2.255.209-2.886.207-3.06-.009-.486-.602.103-1.57 1.923-3.159 2.062-1.8 3.805-3.889 4.066-4.875.126-.476.351-.778.502-.786zm-6.615.579c.117-.002.015.274-.226.612-.895 1.256-1.458 1.671-.725.535.406-.629.833-1.145.95-1.147zm29.621.33c.169.024.216.276.132.752-.122.691-.585 1.153-.585.584 0-.177-.148-.365-.329-.418-.237-.069-.191-.225.167-.559.277-.259.483-.378.615-.359zm-10.629 1.094c.572.007 1.217.131 1.217.309 0 .371-1.284 1.103-1.936 1.103-.79 0-1.182.501-.738.945.213.212.047.576-.658 1.444-.931 1.146-2.202 3.309-2.202 3.748 0 .124-.248.704-.551 1.288-.53 1.022-.583 1.057-1.444.941-.679-.091-.934-.033-1.061.241s-.25.304-.528.113c-.628-.432-1.243-.056-1.071.655.125.519.05.651-.429.758-.859.191-.91.178-1.356-.35-.542-.642-.52-1.244.051-1.407 3.287-.934 5.024-2.155 6.16-4.33.494-.946.751-1.198 1.226-1.201.715-.005 1.035-.537.589-.982-.256-.256-.135-.567.628-1.608.52-.71 1.107-1.402 1.304-1.537.137-.095.455-.132.799-.128zm9.406.299c.103.002.23.115.346.366.279.603.178.914-.522 1.604-.735.724-1.162.857-1.162.362 0-.17-.081-.49-.181-.71-.159-.351-.127-.364.26-.103.755.509 1.289.15 1.09-.731-.11-.487-.002-.792.169-.788zm-11.447.102c.17-.037-.019.298-.566 1.016-.735.965-.919 1.06-.919.474 0-.218.356-.679.791-1.024.362-.287.593-.443.695-.465zm8.085 1.638l.551.539c.303.296.717.578.921.627.426.101-1.608 1.395-3.316 2.11l-1.102.461-.084-.488c-.053-.308-.297-.514-.66-.556-.495-.058-.588.049-.659.764-.08.804-.158.864-2.233 1.742l-2.15.909.525-1.048c.493-.984.76-1.171 4.366-3.053zm-28.276.577c.091-.011-.103.384-.458.922-.782 1.185-.863 1.285-.863 1.07 0-.268 1.035-1.849 1.299-1.984.009-.005.016-.008.022-.008zm17.735.981c.499 0-.956 2.586-2.074 3.687-.386.38-.956.804-1.266.942-.326.144-.168-.065.372-.496.53-.422 1.331-1.482 1.845-2.439.499-.931 1.005-1.693 1.123-1.693zm14.127.876c.082-.006.132.013.15.057.153.373 4.748 23.97 5.241 26.917.763 4.561.986 7.761.69 9.923-.71 5.199-2.327 10.217-5.527 17.16-1.265 2.746-3.285 6.41-2.786 5.054.496-1.347.933-4.474.933-6.683 0-4.055-1.153-6.945-4.098-10.273-1.561-1.764-6.064-5.429-6.879-5.598-.423-.088-.903.064-1.599.508-1.273.811-2.465 1.432-2.573 1.34-.046-.04-.166-.526-.265-1.081-.213-1.184-.403-1.106 3.689-1.517 3.312-.333 3.924-.51 3.743-1.082-.075-.238-.027-.489.106-.557.38-.195 1.289-1.779 1.289-2.247 0-.232.178-.479.395-.548s.395-.389.395-.711v-.586l-2.964.149c-1.63.082-3.439.201-4.019.266-.743.083-.393-.075 1.186-.534 4.783-1.39 7.705-2.732 10.221-4.693 1.969-1.534 2.685-2.849 2.688-4.936.002-1.228-2.038-13.541-3.011-18.168-.103-.49.095-.69 1.458-1.469.768-.44 1.293-.674 1.538-.691zm-53.64 1.089c.053 0 .972.34 2.042.756 1.9.739 1.978.814.892.859-.415.018-.545.2-.61.861-.046.462.037 1.125.184 1.474s.2.635.118.635c-.466 0-2.18-1.776-2.428-2.517-.28-.835-.398-2.07-.198-2.07zm49.809.922c.023-.002.038 0 .044.005.034.031.378 1.825.765 3.987l1.63 8.847c.609 3.226.881 5.312.791 6.072-.297 2.516-2.931 4.776-7.932 6.805-1.746.709-3.917 1.492-4.823 1.742s-2.044.453-2.528.453h-.88l-.172-3.44c-.095-1.892-.174-5.652-.174-8.355-.002-4.454-.307-7.429-.945-9.21-.094-.263.084-.402.651-.505.939-.171 3.604-1.713 3.988-2.308.222-.344 8.866-4.022 9.584-4.093zm-44.306 1.049c.607.057 2.807.816 2.83.977.049.349-.57.328-1.776-.059-.616-.198-1.12-.486-1.12-.642s.03-.279.066-.276zm-2.434.258c.187.01.415.264.476.694.107.752.793.997 1.272.454.347-.394.399-.394 1.74-.01.76.218 1.59.592 1.843.831.331.313.647.397 1.12.298.363-.075 1.815.055 3.228.29s3.968.539 5.678.675c2.73.217 3.268.329 4.414.92.718.37 1.305.756 1.305.858s-1.249.186-2.775.186c-2.402 0-2.798-.051-2.945-.382-.37-.832-1.034-.907-1.442-.164-.271.493-.443.543-1.773.52-1.859-.032-3.912-.314-4.321-.593-.173-.118-.729-.218-1.236-.222s-1.456-.141-2.108-.303c-1.06-.263-1.2-.374-1.317-1.05-.157-.903-.993-1.05-1.469-.258-.289.48-.318.484-.834.109-.587-.426-1.122-1.572-1.122-2.405 0-.319.122-.458.267-.45zm26.883.298c.493-.037 1.308.206 1.308.429 0 .114-.075.108-1.186-.094-.653-.119-.707-.171-.31-.301a.81.81 0 0 1 .188-.034zm4.865.538c.145 0 .086.095-.132.212s-.514.212-.659.212-.085-.095.132-.212.514-.212.658-.212zm-4.77.225c.125.003.299.045.533.119.286.091.419.417.423 1.038.003.498.229 1.312.502 1.81.362.661.417.971.205 1.147-.425.352-2.65.319-2.485-.037.373-.807.75-2.918.619-3.464-.106-.437-.071-.619.203-.613zm-19.591.006c.244-.007.7.074 1.549.236.781.15 1.337.377 1.337.546 0 .326-.144.328-1.91.022-.769-.133-1.252-.334-1.252-.52s.032-.278.276-.284zm22.89.226c.091.003.17.023.214.06.088.073-.068.124-.346.115-.307-.011-.37-.062-.159-.132.095-.031.199-.045.291-.042zm-17.933.665c.428-.011.828.152.828.393 0 .263-.442.268-1.186.015-.484-.165-.489-.192-.066-.336a1.45 1.45 0 0 1 .424-.073zm3.431.4c.821 0 1.403.118 1.613.328.18.18.284.309.23.286s-.78-.077-1.613-.12c-1.841-.096-2.027-.494-.23-.494zm8.908 1.409c.064.014.05.154-.071.416-.091.197-.273.359-.403.359s-.093-.192.084-.427c.186-.248.327-.361.391-.348zm-25.213.362l1.12.41c1.696.621 5.308 1.441 8.083 1.834 1.696.24 4.093.352 7.555.352h5.071l.401 1.474c.882 3.244 1.225 5.618 1.476 10.212l.406 7.208.143 2.403-2.4.874c-2.489.906-2.945 1.249-2.325 1.747.306.246.706.244 2.457-.013 1.15-.168 2.117-.283 2.148-.256s.139.598.239 1.268l.182 1.218-4.377.945c-2.408.52-4.567 1.061-4.8 1.201-.55.333-.241 1.206.427 1.206.267 0 1.68-.234 3.138-.52l2.653-.52 1.441.465 1.441.465.134 1.092c.074.601.262 3.107.418 5.57.282 4.451.692 7.963 1.465 12.56l1.861 10.43c.079.33.034.601-.1.601-.648 0-4.151-2.354-6.412-4.308-1.979-1.711-3.238-3.106-5.789-6.42-3.841-4.988-5.811-8.119-7.311-11.625-1.467-3.426-1.793-5.187-2.431-13.134-.794-9.892-1.578-13.347-4.723-20.829-1.104-2.625-1.59-4.109-1.59-4.848zm24.22.876c.091.003.17.023.214.06.088.073-.068.124-.346.115-.307-.011-.37-.062-.159-.132a.86.86 0 0 1 .291-.042zm6.848.964c.049-.004.085.006.104.03.352.474.705 5.939.841 13.013l.149 7.809-1.259.005c-.692.002-1.994.132-2.893.289l-1.634.284-.137-1.108c-.075-.609-.205-3.073-.289-5.476-.198-5.676-.501-8.153-1.391-11.359l-.728-2.621h2.95c2.725 0 3-.039 3.603-.508.269-.21.536-.345.683-.358zm3.692 21.316c.091.003.17.023.214.06.088.073-.068.124-.346.115-.307-.011-.37-.062-.159-.132a.86.86 0 0 1 .291-.042zm-3.233.002c1.223-.006.523.323-1.686.578-1.268.147-2.573.327-2.899.401s-.593.038-.593-.083c0-.279 1.75-.643 4.019-.835a15.17 15.17 0 0 1 1.159-.062zm10.917.904c.231.017.21.135.105.428-.097.273-.453.852-.79 1.286-.589.758-.689.795-2.544.935l-3.461.278-1.531.132.082-1.067.082-1.067 3.162-.365 4.17-.497c.357-.047.587-.073.726-.063zm-10.804 1.281c.575.014.512.273.455 1.004-.079 1.018-.095 1.035-1.134 1.186a69.34 69.34 0 0 0-2.683.474c-1.858.365-1.928.322-1.928-1.171 0-.942-.293-.831 3.426-1.301.945-.119 1.52-.199 1.865-.191zm.77 3.696v1.523c0 1.434-.035 1.524-.593 1.526-.326.002-1.186.039-1.911.084a17.83 17.83 0 0 1-2.319-.016l-1.002-.098.079-1.011.079-1.01 1.976-.357 2.833-.499zm6.154.839c.703.006 1.435.654 3.43 2.308 5.848 4.848 7.886 9.29 7.018 15.299-.408 2.822-1.395 6.031-2.21 7.184-.915 1.294-4.93 4.766-6.441 5.57-.703.374-1.346.68-1.43.68-.443 0-2.956-12.285-3.731-18.239-.554-4.261-.846-11.031-.474-11.031.158 0 1.076-.448 2.04-.995.85-.482 1.318-.78 1.799-.776zm-14.473.709c.159-.009.278.003.318.036.079.065.102.265.053.444-.076.278-.206.284-.88.045l-.791-.281.737-.163c.203-.045.403-.072.562-.08zm2.573 2.045h2.873c1.58 0 2.874.049 2.874.109.02 1.718.642 9.131.934 11.14.835 5.745 3.529 17.917 4.09 18.477.442.442 1.413.381 2.692-.167.61-.262 1.524-.469 2.031-.459.615.011.702-.015.261-.08-.617-.09-.491-.24 1.862-2.217 1.388-1.166 2.964-2.562 3.502-3.103.79-.793.639-.498-.782 1.529-3.76 5.362-6.928 8.645-9.647 9.999-.878.437-1.942.763-2.73.836-1.136.105-1.451.036-2.61-.579-1.332-.707-4.619-3.36-5.654-4.564l-.562-.655 1.132.536c1.892.897 3.373.627 3.37-.613 0-.386-.408-3.11-.906-6.054-1.268-7.499-1.932-12.576-2.245-17.147l-.377-5.461z"/><path d="M73.436 120.643c-.351-.141-1.428-.43-2.394-.643l-1.755-.387 1.995-3.534c2.126-3.767 2.487-6.063 1.198-7.617-1.424-1.715-3.141-1.075-5.284 1.972-2.575 3.66-2.912 2.459-.848-3.024 1.698-4.511 1.943-7.089 3.893-41.044.523-9.101 1.12-16.717 1.328-16.924s6.46-.394 13.895-.414 14.604-.27 15.932-.554l2.414-.516-.356 2.47-7.388 47.15c-1.421 8.065-2.526 15.537-2.456 16.605.241 3.664-.022 4.227-2.453 5.255-2.226.942-16.035 1.881-17.723 1.205zm-52.578 48.252c-2.345-1.487 14.845-16.933 18.41-16.543 1.64.179 1.902-.568.983-2.801-.305-.741-.035-1.187.897-1.483.949-.301 2.047.143 3.81 1.539 3.986 3.157 4.859 2.532 2.613-1.87-.703-1.377-1.277-2.96-1.277-3.517s2.781-5.149 6.18-10.203c6.658-9.9 7.667-10.709 11.124-8.921 4.734 2.448 19.3 3.729 25.645 2.256 2.199-.511 2.393-.444 2.376.814-.058 4.241-1.91 21.749-2.343 22.142-1.026.932-7.089 2.57-15.435 4.167-6.249 1.196-10.184 2.374-14.689 4.396-12.646 5.675-18.886 8.15-23.572 9.348-4.928 1.26-13.202 1.64-14.723.676zm73.922-51.231c.189-.683.23-1.825.095-2.649-.358-2.19-.243-3.266 1.15-10.792 2.703-14.607 3.818-21.495 7.161-44.229l1.908-12.034c.229-.37 4.926-1.431 5.186-1.171s-.871 7.562-5.363 34.526c-2.557 15.349-3.94 24.531-4.16 27.622-.181 2.547-.393 4.951-.471 5.343-.304 1.527-2.796 3.646-5.14 4.37-.667.206-.683.164-.365-.986zm-3.774 31.115c.103-.75.483-5.459.844-10.464l.887-10.526c.219-1.349.306-1.447 1.633-1.829l2.045-.608c.631-.2.64-.112.457 4.703-.244 6.428-1.426 16.831-2.017 17.753-.448.698-1.534 1.382-3.2 2.016-.838.318-.838.318-.65-1.045zM59.15 90.416l.46-20.916.325-17.563.265-6.671c.211-.538.348-.469 1.251.627.961 1.166 1.006 1.338.858 3.318-.086 1.148-.307 6.399-.492 11.668-.838 23.874-1.373 32.144-2.386 36.882-.404 1.89-.429 1.233-.28-7.345zm-3.805 18.631c-.607-.607-.129-1.983 1.206-3.472.788-.88 1.426-1.374 1.43-1.109.011.69-2.377 4.84-2.636 4.581zm147.687 40.346l-10.777-57.438c-.702-3.954-.808-5.105-.504-5.471.212-.255 1.926-1.145 3.81-1.978s5.842-2.803 8.797-4.379 5.442-2.793 5.529-2.707c.425.425 4.347 24 5.508 33.114.755 5.924.925 8.558 1.313 20.35.304 9.248.448 10.176 1.736 11.246 1.084.899.314 3.518-1.372 4.667l-1.162.792-.162-.884c-.182-.99-1.542-1.634-3.51-1.663-2.865-.042-4.365 1.05-6.554 4.77l-1.582 2.616c-.292.438-.495-.136-1.07-3.034zm-21.45 4.838l-7.504-1.908c-3.448-1.167-9.224-3.854-9.605-4.468-.15-.242-.288-2.38-.306-4.751-.038-4.862.266-3.513-4.815-21.395-3.285-11.563-6.271-20.778-8.535-26.345-.786-1.932-1.4-3.542-1.365-3.579s1.351.143 2.925.398c3.956.642 10.683.582 18.386-.163l7.529-.775c.916-.13 1.054-.041 1.35.87.537 1.652 9.056 44.576 10.266 51.725l.368 2.172-1.327 1.573c-1.705 2.021-2.257 3.38-2.257 5.549 0 .961-.108 1.812-.239 1.89s-2.323-.279-4.87-.793zm14.812 64.811c-7.141-4.766-15.814-16.619-17.833-24.37-.258-.991-.771-4.986-1.14-8.88-1.024-10.811-1.717-13.924-4.763-21.41-1.337-3.287-1.876-5.314-1.41-5.308.151.002.994.224 1.872.493 3.621 1.11 8.747 1.739 14.183 1.739h5.338l.537 2.315a57.51 57.51 0 0 1 .844 4.71c.478 3.733 1.004 13.828.734 14.072-.133.121-.994.463-1.913.761s-1.975.789-2.348 1.091c-.584.473-.614.602-.211.936.341.283 1.015.311 2.508.103 1.122-.156 2.056-.265 2.075-.241s.121.502.228 1.063c.226 1.187.602 1.014-4.733 2.184-4.119.903-5.107 1.41-4.3 2.208.408.403.838.391 3.384-.101s3.106-.508 4.391-.133c.811.236 1.474.608 1.474.827s.214 3.052.476 6.297c.525 6.513 1.045 10.393 2.416 18.021.503 2.802.868 5.142.811 5.2s-1.237-.652-2.622-1.576zm9.031-38.469c-.117-.117-.218-2.308-.223-4.87-.011-4.804-.486-13.621-.81-15.042-.159-.698-.033-.86.945-1.214.621-.225 1.842-.899 2.714-1.498 1.784-1.227 9.669-4.668 9.972-4.352.267.28 2.825 14.35 3.054 16.798.218 2.338-.196 3.335-2.104 5.058-2.952 2.667-12.421 6.246-13.547 5.12zm-.101 4.308c.109-.408.201-.833.203-.943.005-.25 7.29-1.082 7.514-.857.09.09-.133.539-.494.998-.696.885-1.218 1.024-5.063 1.347-2.351.197-2.358.196-2.16-.544zm3.765 31.43c-1.967-8.493-3.183-16.663-3.315-22.273l-.083-3.513 1.827-.956c1.816-.95 1.833-.952 2.885-.386 1.707.919 5.816 4.851 7.116 6.81 2.623 3.952 3.031 8.525 1.264 14.17-.794 2.538-.995 2.853-3.083 4.855-2.295 2.201-4.864 4.086-5.567 4.086-.238 0-.658-1.124-1.045-2.794zm11.588-11.903c.012-4.937-.425-6.491-2.728-9.708-1.352-1.888-5.682-5.791-7.525-6.784-1.062-.572-1.062-.572-2.939.46l-1.878 1.032-.154-.807c-.085-.444-.046-.874.087-.956s1.68-.313 3.438-.513 3.32-.453 3.471-.561.687-1.027 1.191-2.041 1.041-1.92 1.194-2.015.278-.471.278-.837c0-.641-.109-.658-2.954-.467l-2.954.199 2.905-1.064c5.119-1.876 8.671-4.275 9.593-6.482.649-1.554.556-2.757-.86-11.128l-1.469-8.778c-.162-1.049-.088-1.169 1.157-1.868.732-.411 1.384-.693 1.451-.627.169.169 4.816 24.119 5.454 28.11 1.29 8.071-.226 15.448-5.398 26.271l-1.37 2.866.01-4.303zm-.823-60.693c.095-1.372-.009-1.757-.672-2.475-.431-.467-.882-1.126-1.001-1.463s-.356-5.295-.526-11.017-.458-11.769-.641-13.438c-.791-7.244-2.801-20.437-4.808-31.566-.708-3.926-1.242-7.182-1.187-7.236.575-.563 3.55-2.4 3.679-2.272.245.245 2.937 19.875 5.697 41.553l2.868 21.555c.723 4.184.703 4.28-1.265 6.248-.955.955-1.853 1.736-1.996 1.736s-.21-.731-.148-1.625z" fill="#ff8080"/><path d="M57.363 112.081c0-1.274.244-2.086 1.081-3.592 1.873-3.373 3.669-12.109 4.176-20.308.384-6.21 1.118-25.036 1.307-33.529.22-9.879.474-8.607-2.492-12.462-.956-1.243-1.517-2.293-1.517-2.842v-.87l2.229.727c1.226.4 2.754.825 3.395.946l1.166.219-.205 2.751c-.113 1.513-.778 13.025-1.478 25.583-1.76 31.589-2.045 35.17-2.937 36.849-.196.37-1.043 1.463-1.88 2.429-1.697 1.957-2.206 3.03-2.206 4.651 0 .603-.144 1.097-.319 1.097s-.319-.741-.319-1.646zm2.608 2.784c-1.154-1.252-1.294-1.563-1.12-2.482.279-1.47.635-2.075 2.222-3.772 2.849-3.046 2.686-1.626 5.067-44.06l1.301-21.665.199-2.026 1.009.181c3.309.595 7.702.814 14.9.745l8.143-.079 6.28-1.511 6.505-1.511c.444 0-.031 5.743-.514 6.227-.255.255-2.187.767-4.292 1.137-3.631.638-4.497.662-16.807.46l-12.979-.213-.34 1.064c-.418 1.309-.704 5.096-2.127 28.207-1.679 27.27-1.55 26.07-3.414 31.759-.583 1.779-1.067 4.059-1.18 5.551-.158 2.093-.307 2.608-.862 2.975-.62.41-.772.334-1.99-.987zm45.492-73.096c.11-1.785.29-3.333.399-3.442.242-.24 7.169-1.222 7.359-1.043.285.268-.95 5.04-1.447 5.589-.578.639-1.543.998-4.516 1.682l-1.996.459zm85.785 97.607l-9.539-49.509c-.108-.389-.462-.792-.786-.895s-2.644.108-5.155.468c-6.138.882-13.476 1.614-16.169 1.614-2.512 0-6.906-.701-8.978-1.432-1.393-.491-4.137-2.34-4.156-2.799-.005-.132.601-.24 1.347-.24 2.55-.002 20.829-4.052 22.839-5.061.655-.329 2.197-.924 3.426-1.323s3.529-1.273 5.109-1.941a67.79 67.79 0 0 1 6.279-2.197c1.873-.54 3.935-1.203 4.583-1.474s2.728-.835 4.624-1.254c6.397-1.415 13.373-4.436 18.903-8.186 1-.678 1.889-1.117 1.977-.975s.26 1.371.383 2.731l.224 2.474-1.728 1.674c-2.889 2.798-11.709 7.884-20.351 11.736-3.387 1.509-4.657 2.231-4.862 2.763-.371.959.434 5.553 6.251 35.684l3.035 16.366c0 .266-.53.399-1.59.399-2.286 0-4.061.799-4.748 2.139l-.565 1.102zm6.207 42.15c-.087-.144-.255-2.417-.374-5.051-.317-7.042-.955-11.717-1.951-14.312-.134-.348.457-.49 2.77-.664 1.617-.122 3.189-.356 3.495-.519.465-.249.589-.118.762.808.159.849.762 14.635.811 18.554.008.6-.228.695-2.2.878-1.215.113-2.422.287-2.682.387s-.544.064-.631-.08zm.093 4.049c0-.773.139-.963.718-.985.395-.015 1.553-.131 2.573-.258 1.95-.243 2.298-.088 1.99.884-.133.419-.716.699-1.99.955-2.914.585-3.292.517-3.292-.596zm.199 4.232l.266-.952c.046-.061 4.945-1.044 5.203-1.044.044 0 .08.419.08.932 0 1.844-.155 1.942-3.074 1.942h-2.686zm3.378 35.393c-3.232-2.396-3.343-2.583-1.541-2.583 1.121 0 1.476-.131 1.624-.597.104-.328-.39-4.336-1.098-8.905-1.194-7.702-2.236-17.213-2.24-20.448l-.002-1.37 2.634.093 2.634.093.087 1.597c.372 6.859 1.966 16.835 3.902 24.416.957 3.748 1.085 3.94 2.506 3.75 1.328-.177 4.53-1.103 4.044-1.169-.176-.024.537-.821 1.583-1.771s1.965-1.666 2.041-1.59c.225.225-2.433 3.588-4.821 6.102-2.58 2.716-5.292 4.271-7.448 4.271-1.158 0-1.734-.279-3.904-1.888zM42.482 143.691c-.224-.355-.408-.725-.408-.822 0-.193 10.396-15.673 11.733-17.471 1.112-1.495 1.381-1.72 1.9-1.59.23.058.418.165.418.239s-.264.584-.587 1.135c-.654 1.116-11.851 18.142-12.339 18.761l-.309.393zm-4.211 2.205c.515-.916 1.708-1.7 2.264-1.487.18.069.582.718.582.94 0 .072-2.9 1.204-3.084 1.203-.071 0 .036-.295.238-.656zm-24.566 27.002c-.455-.261-.94-.635-1.078-.832-.885-1.264.622-4.19 4.302-8.35 1.809-2.045 5.791-5.992 7.832-7.762 2.664-2.311 10.192-7.954 10.372-7.774.04.04-.982.93-2.272 1.977-8.215 6.669-15.6 14.078-17.18 17.238-.762 1.523-.963 2.538-.861 4.341.069 1.217.044 1.639-.098 1.638-.105-.001-.563-.215-1.018-.476zm3.302.85c-.907-.143-1.071-.224-1.25-.616-.335-.735-.228-3.216.19-4.398.652-1.846 2.441-4.11 6.164-7.798 3.493-3.46 10.893-9.998 13.412-11.849 1.069-.786 1.248-.8 1.606-.131.217.406-.251.81-4.275 3.69-4.838 3.463-6.398 4.693-8.242 6.496-2.065 2.019-6.069 7.033-6.866 8.598-.541 1.062-.24 2.586.589 2.975 1.727.811 4.112 1.134 8.411 1.137 3.063.002 3.898-.052 5.668-.368 5.987-1.069 9.873-2.441 23.71-8.369 7.92-3.393 10.439-4.39 12.369-4.896 1.832-.48 1.923-.406.453.366-.911.478-1.745 1.103-2.747 2.056-1.253 1.192-1.723 1.513-3.641 2.485-2.805 1.421-8.327 3.916-11.623 5.25-8.474 3.431-14.438 4.6-27.121 5.317-2.77.157-5.997.183-6.808.055zm19.419-32.321a.55.55 0 0 1 .167-.743c.385-.183 2.942-.549 2.942-.42s-2.621 1.278-2.906 1.278a.32.32 0 0 1-.203-.115zm.989 3.99c-.157-.24-.27-.694-.273-1.096-.003-.455.306-.751 1.258-1.206.453-.216.958-.411 1.122-.434.264-.035.31-.015.395.172.189.416.129.56-.363.866-.715.445-1.526 1.16-1.698 1.496-.207.405-.285.441-.442.201zm29.622 15.449c.564-.611 2.658-1.832 3.736-2.179l.551-.177.23.257c.385.431.412.86.057.926l-.702.126c-.285.05-1.273.347-2.195.659l-1.796.607c-.066.022-.012-.077.12-.219zm6.047-1.868c-.143-.052-.6-.363-1.015-.692l-.755-.598.336-.103c.185-.057 1.235-.265 2.332-.463 6.152-1.11 8.74-1.716 12.698-2.972 2.402-.762 2.875-.879 3.012-.742.063.063.097.371.097.875 0 1.377-.14 1.463-3.912 2.4-3.981.989-8.704 2.006-10.588 2.279-.99.143-1.838.15-2.206.017zm17.281-4.186l.072-1.284.047-.746.451-.199 3.485-1.644c.351-.196.653-.345.67-.329s-.287.505-.675 1.088c-1.045 1.57-2.099 2.579-3.471 3.324l-.602.327z" fill="#fca"/><path d="M36.447 141.425c-.097-.096-.055-.492.064-.611.14-.14.608-.255 1.679-.414 1.291-.191 1.389-.16.639.204-.855.414-2.002.874-2.183.874-.08 0-.17-.024-.199-.053zm8.841 5.446l-.906-.916.319-.525c.312-.513.634-.562.634-.097 0 .128.216.71.48 1.293s.458 1.082.43 1.11-.458-.362-.957-.865z" fill="#ff8080"/><g fill="#fd5"><path d="M200.342 153.637l-.958-.403-2.766.204c-2.48.183-2.792.178-3.017-.048-.439-.439.009-1.07 2.654-3.732 1.919-1.932 2.624-2.756 2.993-3.497l.613-1.18c.17-.275 1.676 7.134 1.678 8.257.001.461-.052.83-.118.82s-.551-.199-1.078-.421zm-12.367 6.01c-.53-.028-.865-.084-1.002-.169-.06-.037-.135-.132-.207-.262-.226-.41-.454-.594-.735-.594s-.46.136-.748.579c-.275.423-.433.463-1.739.437-1.88-.037-3.652-.274-4.248-.568-.326-.161-.441-.179-1.673-.269-.946-.069-2.29-.37-2.64-.593-.19-.12-.263-.253-.36-.649s-.128-.465-.275-.627c-.134-.149-.289-.218-.485-.218-.286 0-.546.181-.765.531-.159.255-.246.343-.338.343-.102 0-.48-.25-.666-.44-.492-.504-.912-1.513-.913-2.191 0-.183.066-.377.142-.418.224-.12.473.165.573.657.072.351.203.562.417.672a.61.61 0 0 0 .487.043c.133-.039.201-.085.41-.283.339-.321.406-.331 1.087-.155 1.163.301 2.036.659 2.467 1.012a2.27 2.27 0 0 0 .335.231c.166.08.441.099.808.056.449-.053 1.475.03 2.766.225l2.334.336 3.232.353 1.454.129c1.253.111 1.951.226 2.522.415a10.57 10.57 0 0 1 1.431.672c.482.275.863.553.83.607-.018.029-.384.078-.832.113a64.45 64.45 0 0 1-3.669.027zm-17.174-2.878c-.423-.211-1.381-1.154-1.882-1.852-.307-.427-.435-.77-.56-1.496-.106-.615-.101-1.14.011-1.14.048 0 1.074.378 1.895.698 1.269.495 1.694.687 1.694.768 0 .055-.109.078-.528.109-.266.02-.383.041-.452.081-.205.119-.302.471-.303 1.096a3.55 3.55 0 0 0 .211 1.271c.18.533.169.592-.085.465zm23.303.696c-.038-.161-.123-.359-.187-.44l-.117-.148-.671.04c-.652.039-.68.036-.964-.109-.541-.274-2.387-1.823-2.34-1.963.011-.033.189-.115.396-.182.467-.151.606-.271.606-.519 0-.314-.303-.53-.862-.613-.681-.102-.918-.552-.67-1.274.317-.921 1.066-2.033 2.942-4.369 1.682-2.095 1.999-2.547 2.467-3.526.315-.659.409-.91.384-1.023-.02-.09-.235-.343-.538-.632-.413-.393-.505-.512-.505-.648 0-.339.522-.879 1.126-1.165.331-.156.423-.175.878-.172.786.005 1.456.298 2.125.929.295.279.33.336.33.536 0 .284-.231 1.154-.357 1.346-.15.229-.314.305-.8.37-.708.095-.752.227-.437 1.302l.164.593c.06.288-.859 1.455-1.821 2.312-.883.786-1.463 1.19-2.318 1.612-.999.493-1.066.565-1.117 1.196-.021.258-.103.829-.182 1.27-.1.557-.133.88-.106 1.061.081.542 1.024 2.161 1.376 2.364.114.065.378.127.674.157.267.027.545.088.616.134.369.241.439.955.15 1.519l-.171.335zm3.949 2.381c-.301-.057-.459-.148-.421-.241.241-.591.485-1.655.59-2.577.049-.425.049-.655.001-.922-.082-.45-.026-.539.311-.501.577.065.732.277.814 1.116a4.79 4.79 0 0 0 .516 1.866c.384.829.365 1.042-.106 1.183-.221.066-1.464.121-1.706.076zm-22.567-4.568c-1.011-.267-1.65-.595-1.65-.845 0-.188.115-.184.878.035 1.078.309 1.945.669 1.945.808 0 .19-.459.191-1.172.002zm5.406 1.236c-1.776-.302-2.233-.436-2.292-.673-.058-.23.016-.268.452-.231.913.077 2.252.41 2.545.633.259.197-.169.362-.704.271zm2.663.349l-.446-.166c-.069-.069.395-.203.703-.203.37 0 .71.14.741.304.045.241-.372.268-.998.065z"/><path d="M187.694 157.336c-.763-.051-1.355-.135-1.591-.225-.153-.058-.155-.063-.046-.127.161-.095 2.011-.089 2.331.007a1.31 1.31 0 0 1 .423.238l.181.165-.31-.006-.988-.052zm14.091.683c-.334-.349-.514-.689-.514-.975 0-.336.164-.458.931-.693 2.808-.862 4.441-2.035 5.535-3.978.638-1.133.812-1.325 1.251-1.383.488-.064.57-.09.718-.227.197-.182.198-.498.004-.761a.71.71 0 0 1-.141-.323c0-.223.257-.657.87-1.468.752-.995 1.134-1.395 1.382-1.444.477-.095 1.369-.006 1.626.162.171.112.106.242-.253.503-.573.416-1.041.59-1.844.685a.67.67 0 0 0-.466.22c-.227.227-.237.391-.042.679.216.319.14.504-.6 1.446-1.008 1.283-2.023 3.013-2.227 3.798-.089.342-.721 1.658-.935 1.947-.196.266-.369.31-.969.248-.752-.077-.918-.047-1.103.202-.218.293-.24.3-.493.151-.472-.276-.907-.236-1.081.1-.069.132-.081.268-.053.599.019.235.015.459-.01.496-.083.126-.481.252-.894.283l-.409.031zm2.957-3.397c.801-.712 1.334-1.395 2.016-2.585.546-.952 1.003-1.649 1.103-1.682.284-.093-.276 1.158-1.006 2.244-.53.79-1.332 1.644-1.9 2.025-.512.343-.6.343-.213-.002zm5.053.091c0-.081.673-1.326.823-1.522.082-.107.317-.319.524-.47.617-.453 1.148-.744 5.709-3.132l1.552-.812.395.377c.385.367.802.68 1.002.753.159.058.118.135-.198.372-.777.585-2.298 1.407-3.553 1.919l-.547.223-.06-.282c-.033-.155-.087-.333-.12-.394-.109-.203-.395-.331-.743-.331-.296 0-.33.013-.403.155a1.85 1.85 0 0 0-.118.494c-.066.598-.172.803-.541 1.041-.18.116-1.052.521-1.939.899l-1.785.71zm10.727-5.168c-.032-.035-.058-.131-.073-.267-.026-.233-.074-.414-.187-.702-.041-.105-.066-.199-.056-.209s.091.029.181.086c.284.183.516.282.69.294.209.015.282-.005.403-.111.177-.155.224-.451.142-.881-.072-.378-.043-.629.084-.712.06-.039.076-.04.15-.001a.61.61 0 0 1 .17.178 1.86 1.86 0 0 1 .231.668c0 .14-.075.345-.189.517a5.51 5.51 0 0 1-.792.835c-.403.33-.642.426-.753.303zm2.074-2.427c-.016-.03-.03-.097-.03-.148-.001-.212-.123-.369-.373-.482-.121-.055-.13-.101-.048-.235a2.66 2.66 0 0 1 .605-.551c.168-.096.268-.103.341-.022.045.05.054.102.052.332a1.78 1.78 0 0 1-.197.842c-.136.279-.283.39-.351.264zm-177.18-34.562c-.25-.125-.416-.434-.529-.984-.103-.503-.117-1.379-.028-1.792.122-.569.176-.416.531 1.49l.236 1.367c-.009.009-.103-.028-.21-.081zm2.338 4.207c-1.201-1.225-1.789-2.197-1.921-3.175-.035-.257-.03-.275.055-.206.051.042.172.245.269.452.275.586.891 1.597 1.514 2.488.498.712.618.907.555.907-.008 0-.221-.21-.472-.466zm1.009-.181c-.379-.319-1.65-1.969-1.65-2.143s1.092 1.071 1.621 1.844c.285.415.295.523.029.299zm2.894 3.142c-.702-.369-1.542-.944-1.475-1.011s2.237 1.099 2.237 1.202c0 .143-.243.082-.762-.191zm4.552 1.592c-.229-.161-.789-.97-1.089-1.575-.239-.482-.293-.647-.317-.969-.049-.685.2-1.381.689-1.924.287-.319.794-.607.959-.544.219.084-.02.892-.339 1.143-.167.132-.231.153-.599.203-.557.076-.715.506-.372 1.013.347.513.437.722.437 1.01a1.76 1.76 0 0 0 .392.97c.196.218.408.586.389.675-.017.082-.031.082-.151-.003zm2.583.346c-.482-1.091-.455-2.411.072-3.435l.121-.236.052.169c.066.215.086 2.998.024 3.429-.026.179-.071.325-.102.325s-.106-.114-.167-.252zm-1.084-1.738l-.096-.842c0-.52.265-1.215.514-1.348.18-.096.194.083.051.675a20.04 20.04 0 0 0-.252 1.326l-.121.783zm4.843.304c-.345-.158-.593-.416-.593-.619 0-.25.267-.444 1.383-1.007l1.496-.83c1.182-.763 2.379-1.853 3.145-2.864.671-.886 1.856-2.83 2.576-4.228.2-.388.396-.706.437-.706s.183.134.317.298c.207.254.243.336.243.555 0 .384-.588 1.853-.862 2.151l-.115.125-.191-.168c-.163-.143-.238-.168-.502-.168-.255 0-.336.025-.45.139-.189.189-.187.604.007 1.195.091.276.135.513.117.626-.094.592-1.143 2.195-1.574 2.406-.184.09-.186.089-.363-.103-.098-.106-.244-.21-.325-.23-.368-.092-.775.144-.844.488-.04.199.041.608.169.856.162.314-.06.549-1.136 1.198-1.5.906-2.336 1.158-2.935.884zm3.982-4.659c-.001-.028.35-.587.78-1.242l1.479-2.347c.713-1.185 1.098-1.75 1.193-1.75.273 0-1.319 2.758-2.454 4.254-.37.488-.995 1.167-.998 1.085zm13.151 9.826c0-.709-.089-1.193-.237-1.287-.344-.218-.892.436-.892 1.065 0 .243-.197.446-.484.5-.552.104-3.182-.136-3.82-.348-.224-.074-.294-.13-.358-.282a1.06 1.06 0 0 1-.079-.335c0-.368-.577-.574-.83-.296a.76.76 0 0 0-.141.209c-.014.045-.054-.093-.09-.307-.075-.45-.199-.613-.47-.613-.236 0-.415.206-.533.613-.205.704-.58.671-3.233-.29-1.498-.543-2.525-.842-3.164-.921-.358-.044-.452-.078-.557-.201-.167-.194-.161-.398.019-.658.295-.425 1.205-.895 1.733-.895.258 0 .604.174.604.302 0 .097-.584.403-1.319.69-.493.193-.671.311-.589.393.014.014.18.042.368.061.485.051 1.013-.094 1.806-.494.62-.313.682-.332 1.061-.332.278 0 .681.069 1.301.222 2.702.666 7.123 1.381 9.456 1.529.988.063 1.294.143 1.294.338 0 .213.246.395.534.395.221 0 .287-.03.479-.216.324-.314.786-.432 2.6-.662l4.418-.648 1.194-.149c.043.016.134.178.202.358.132.35.472 1.601.442 1.622-.01.007-.818.156-1.796.331a55.89 55.89 0 0 1-7.196.887l-1.708.113c-.009 0-.016-.314-.016-.697zm11.56-1.069c-.041-.106.128-.445.372-.746.233-.289.449-.745.449-.951.001-.378.336-.747.638-.703.179.026.232.432.157 1.203-.071.735-.127.834-.594 1.07-.394.198-.968.27-1.022.128zm2.253-.449c-.143-.231-.057-1.788.117-2.125.09-.175.375-.335.684-.385.183-.03.195-.022.195.124 0 .221-.272 1.408-.408 1.778-.193.525-.465.807-.588.608zm1.899-.551c0-.231.382-.452.783-.452.379 0 .416-.092.466-1.158.041-.89.112-1.241.248-1.241.031 0 .127.152.214.339.398.849.396.846.577.864.128.013.227-.032.395-.177l.224-.194.016-.67.042-.793c.033-.15.175-.3.285-.3.203 0 .015 1.149-.293 1.793-.382.799-1.027 1.329-2.139 1.757-.755.291-.819.309-.819.232z"/></g><path d="M200.33 153.493c-.54-.249-1.389-.291-3.682-.18-2.701.131-2.981.107-2.981-.251 0-.398.957-1.536 3.657-4.35.802-.836 1.726-1.993 2.054-2.572s.6-.947.605-.818.321 1.759.702 3.624c.69 3.375.856 4.926.522 4.89-.096-.01-.491-.165-.877-.343z" fill="#fca"/></svg>