<?xml version="1.0" encoding="UTF-8" standalone="no"?>
<svg
   xmlns:dc="http://purl.org/dc/elements/1.1/"
   xmlns:cc="http://creativecommons.org/ns#"
   xmlns:rdf="http://www.w3.org/1999/02/22-rdf-syntax-ns#"
   xmlns:svg="http://www.w3.org/2000/svg"
   xmlns="http://www.w3.org/2000/svg"
   xmlns:xlink="http://www.w3.org/1999/xlink"
   xmlns:sodipodi="http://sodipodi.sourceforge.net/DTD/sodipodi-0.dtd"
   xmlns:inkscape="http://www.inkscape.org/namespaces/inkscape"
   cursor="default"
   version="1.1"
   viewBox="0 0 256 256"
   id="svg25"
   sodipodi:docname="borosicon.svg"
   inkscape:version="1.0.2-2 (e86c870879, 2021-01-15)">
  <metadata
     id="metadata29">
    <rdf:RDF>
      <cc:Work
         rdf:about="">
        <dc:format>image/svg+xml</dc:format>
        <dc:type
           rdf:resource="http://purl.org/dc/dcmitype/StillImage" />
        <dc:title />
      </cc:Work>
    </rdf:RDF>
  </metadata>
  <sodipodi:namedview
     pagecolor="#ffffff"
     bordercolor="#666666"
     borderopacity="1"
     objecttolerance="10"
     gridtolerance="10"
     guidetolerance="10"
     inkscape:pageopacity="0"
     inkscape:pageshadow="2"
     inkscape:window-width="1920"
     inkscape:window-height="1017"
     id="namedview27"
     showgrid="false"
     inkscape:zoom="3.6587696"
     inkscape:cx="167.03626"
     inkscape:cy="124.94484"
     inkscape:window-x="-8"
     inkscape:window-y="-8"
     inkscape:window-maximized="1"
     inkscape:current-layer="svg25"
     inkscape:document-rotation="0" />
  <defs
     id="defs9">
    <linearGradient
       id="innoGrad1">
      <stop
         stop-color="#f55"
         offset="0"
         id="stop2" />
      <stop
         stop-color="#ff8080"
         offset="1"
         id="stop4" />
    </linearGradient>
    <linearGradient
       id="linearGradient828"
       x1="173.54"
       x2="139.41"
       y1="204.61"
       y2="178.91"
       gradientTransform="translate(-4.8814,-1.0847)"
       gradientUnits="userSpaceOnUse"
       xlink:href="#innoGrad1" />
    <linearGradient
       id="linearGradient830"
       x1="144.01"
       x2="119.27"
       y1="149.77"
       y2="137.3"
       gradientTransform="translate(-4.8814,-1.0847)"
       gradientUnits="userSpaceOnUse"
       xlink:href="#innoGrad1" />
  </defs>
  <path
     style="fill:#000000;stroke-width:0.308251"
     d="M 103.43428,198.26411 C 83.524339,191.21326 64.183686,182.22223 53.176705,174.90047 45.057969,169.49994 35.129323,160.12145 23.311538,146.69018 15.689118,138.02704 4.4992662,124.27566 4.7703354,123.90453 5.3748486,123.07683 25.835244,108.75956 34.848197,102.8574 51.673028,91.839576 61.916992,86.275526 72.917339,82.179986 c 18.804225,-7.00103 30.058151,-9.2502 48.395571,-9.67214 23.45498,-0.53974 40.13058,2.54782 65.96594,12.21388 12.04962,4.50823 24.32167,10.69462 40.53516,20.433924 11.18484,6.71861 20.80702,12.97133 20.80702,13.52086 0,0.75867 -12.05052,16.36382 -18.77612,24.31464 -7.51663,8.88599 -16.23589,17.96099 -21.90691,22.80075 -6.72398,5.73839 -16.75511,12.3064 -29.36691,19.22841 -8.22036,4.51177 -26.42316,13.45622 -27.38464,13.45622 -0.16761,0 -1.7213,-1.26017 -3.45263,-2.80035 -7.06735,-6.28709 -15.43604,-10.44378 -21.0265,-10.44378 -5.67506,0 -13.15419,3.81742 -19.38272,9.89311 -1.88536,1.83909 -3.42794,3.33449 -3.42794,3.32309 0,-0.0116 -0.20807,-0.0945 -0.46238,-0.18449 z m 55.33033,-3.85743 c 18.89665,-8.9174 36.14783,-19.02353 46.54699,-27.26825 4.51059,-3.5761 15.85002,-14.96042 21.66137,-21.7471 5.59138,-6.52979 11.70623,-14.16234 17.09396,-21.33657 l 3.95123,-5.26141 -0.79185,-0.61648 c -2.87969,-2.24208 -22.78774,-14.46795 -31.12589,-19.114954 -14.76654,-8.22966 -23.44781,-12.03991 -40.07277,-17.58803 -15.44283,-5.15364 -26.31183,-7.33674 -40.53515,-8.14172 -16.8081,-0.95125 -31.19353,0.23875 -44.542414,3.68472 -21.388642,5.52137 -37.768943,13.78601 -66.274209,33.438544 -9.468626,6.52799 -18.9575045,13.4054 -18.9575045,13.74014 0,0.566 11.1855985,14.26474 17.9902565,22.03223 8.091409,9.23633 17.902125,19.02959 23.777911,23.73558 2.980467,2.3871 8.600488,6.16265 12.573681,8.44702 5.063341,2.91114 15.943954,8.20847 23.344917,11.3657 6.728897,2.87051 19.440902,7.77995 20.120222,7.77052 0.20421,-0.002 1.84491,-1.42466 3.64598,-3.15959 6.29349,-6.06238 13.74695,-9.75794 19.71786,-9.7765 5.51742,-0.0162 14.27544,4.34667 21.24164,10.58397 2.21508,1.9833 3.07834,2.5788 3.54397,2.44469 0.33857,-0.0976 3.52897,-1.55214 7.0898,-3.23251 z m -8.32188,-13.83526 c -4.18216,-3.78024 -9.07478,-7.44209 -11.86771,-8.88231 -3.39708,-1.75174 -5.92459,-2.31619 -10.32644,-2.30606 -7.80536,0.0185 -13.9084,2.43752 -22.81663,9.04573 l -2.93395,2.17644 -6.390467,-2.3486 C 78.164151,171.66213 61.980269,164.54119 54.113945,159.77939 48.155139,156.17226 42.43566,151.43476 35.156441,144.07668 c -6.69008,-6.76256 -16.799724,-18.281 -16.799724,-19.14079 0,-0.40643 7.815832,-5.68936 15.720857,-10.62615 10.509971,-6.56362 22.479092,-13.07032 30.216042,-16.426214 6.557008,-2.84409 20.129517,-7.60337 27.272959,-9.56344 24.871325,-6.8244 53.737785,-5.79496 83.998705,2.99554 13.58989,3.94772 22.04495,7.59835 33.33324,14.392244 7.26371,4.37167 23.05237,15.12349 23.07165,15.71142 0.009,0.31736 -9.13746,10.46438 -15.32599,16.99994 -6.4009,6.75983 -14.40312,14.44196 -19.19301,18.42528 -6.97748,5.80255 -18.18959,12.98705 -32.41074,20.76815 -5.33416,2.91858 -10.91207,5.76348 -11.27839,5.75227 -0.13023,-0.005 -1.62392,-1.26105 -3.31931,-2.79351 z m 9.51609,-0.95111 c 11.46863,-6.09935 19.63591,-10.92096 27.75688,-16.38638 6.95188,-4.67867 10.08815,-7.24422 18.26812,-14.94383 7.37326,-6.9403 25.27979,-26.28266 24.9002,-26.89684 -0.29334,-0.47463 -9.33307,-6.85515 -14.47534,-10.21715 -13.96527,-9.13042 -22.1415,-13.167024 -35.41326,-17.483484 -31.01675,-10.08778 -61.59994,-11.92409 -87.380096,-5.24661 -7.607135,1.97038 -21.464239,6.74101 -29.020792,9.99109 -7.348206,3.160474 -19.096333,9.534894 -29.746335,16.140074 -4.756577,2.95004 -15.051103,9.66939 -15.662343,10.22298 -0.402454,0.36449 5.90799,7.76372 13.637866,15.99088 4.096162,4.35972 10.273788,10.15329 14.200442,13.31765 6.06157,4.88484 15.985083,10.16023 30.516958,16.223 8.821227,3.68025 23.83022,9.34147 24.76607,9.34147 0.20564,0 1.68774,-0.96706 3.29357,-2.14904 6.9182,-5.0921 12.05282,-7.45839 18.4603,-8.50748 5.46511,-0.8948 10.83387,-0.10542 15.13047,2.22455 2.55029,1.38299 7.94526,5.4774 11.6961,8.87652 1.601,1.45088 2.97051,2.63796 3.04334,2.63796 0.0728,0 2.78537,-1.41092 6.02785,-3.13536 z m -37.02115,-17.67385 c -3.64207,-0.84294 -8.64282,-2.77173 -11.17618,-4.31066 -0.96534,-0.58641 -2.5158,-1.79791 -3.44547,-2.6922 -3.37444,-3.24608 -9.164259,-11.82122 -10.448435,-15.47494 -1.323595,-3.76586 -1.360941,-8.84978 -0.119756,-16.30058 1.06433,-6.38914 4.786351,-12.71695 9.923391,-16.87073 5.45794,-4.41326 11.13486,-6.329404 20.57735,-6.945454 7.38177,-0.48161 15.99943,2.653854 21.46515,7.809944 4.55375,4.29577 8.15343,10.33128 9.69927,16.26253 0.99086,3.80186 1.12587,9.66914 0.3084,13.40173 -2.14563,9.79706 -6.56484,16.12794 -14.51895,20.7996 -8.18507,4.80732 -14.69988,6.07158 -22.26478,4.32076 z m 11.1677,-0.45602 c 6.92541,-1.39719 15.55194,-6.63755 19.43919,-11.80875 3.18868,-4.24185 5.33645,-10.08973 5.98119,-16.28537 0.88494,-8.50373 -2.38943,-17.49875 -8.87105,-24.36962 -3.59595,-3.81189 -8.04333,-6.4415 -13.77506,-8.14481 -2.37948,-0.70714 -3.34452,-0.82523 -6.78155,-0.82992 -10.56332,-0.0139 -18.18573,2.69973 -24.04937,8.56336 -4.82511,4.82512 -7.309238,10.36883 -8.152073,18.19259 -1.017655,9.44652 -0.399917,12.11696 4.527923,19.57401 4.64087,7.02279 7.48839,9.80813 12.33244,12.06324 3.3349,1.5525 5.62188,2.30577 9.5632,3.14974 3.64568,0.78071 5.49561,0.76094 9.78516,-0.10449 z"
     id="path849" />
  <path
     style="font-variation-settings:normal;opacity:1;vector-effect:none;fill:#0000ff;fill-opacity:1;stroke-width:0.0380953;stroke-linecap:butt;stroke-linejoin:miter;stroke-miterlimit:4;stroke-dasharray:none;stroke-dashoffset:0;stroke-opacity:1;stop-color:#000000;stop-opacity:1"
     d="m 99.108873,196.06937 c -10.80718,-4.03383 -18.761867,-7.427 -28.689795,-12.23797 -9.780395,-4.73948 -17.071135,-9.17118 -23.368512,-14.20465 -5.647415,-4.51396 -17.625057,-16.665 -25.679115,-26.05087 -6.856573,-7.99037 -15.7311161,-18.91732 -15.726329,-19.36335 0.00518,-0.48224 14.742323,-10.97642 25.963094,-18.48806 12.499722,-8.367818 19.998013,-12.837049 29.51812,-17.593774 8.869758,-4.431778 16.339843,-7.352705 25.628225,-10.021058 12.139592,-3.487444 21.066939,-4.752901 35.090009,-4.974029 21.74407,-0.34288 34.81313,1.73657 55.98767,8.908334 19.58079,6.631966 30.57594,11.986456 54.11655,26.354037 8.081,4.93209 15.68633,9.81645 15.95047,10.24384 0.24449,0.3956 -9.84872,13.51669 -17.28797,22.47421 -9.38758,11.30351 -20.62652,22.62041 -27.77065,27.96331 -8.91154,6.6647 -21.7308,14.2719 -36.43086,21.61878 -9.66265,4.82925 -14.57171,7.04772 -15.2136,6.87524 -0.30738,-0.0826 -1.7888,-1.20302 -3.29204,-2.48983 -6.51849,-5.57995 -13.80465,-9.46299 -19.18656,-10.22516 -4.68012,-0.66279 -10.97646,1.44388 -16.74321,5.60203 -1.13363,0.81741 -3.33749,2.66008 -4.89747,4.09483 -1.55997,1.43474 -3.03965,2.71744 -3.28816,2.85044 -0.31706,0.16969 -1.71311,-0.22895 -4.679867,-1.3363 z m 58.519297,-14.64992 c 9.67895,-4.85013 22.59305,-12.37878 30.59007,-17.83338 7.90012,-5.3885 12.87424,-9.64113 22.43425,-19.18021 7.52144,-7.50498 20.76702,-21.91636 20.96892,-22.8145 0.10109,-0.4497 -1.20585,-1.5098 -5.82223,-4.72258 -18.18497,-12.65585 -29.48711,-18.740398 -43.28421,-23.302212 -15.6322,-5.168564 -31.21391,-8.267459 -46.91004,-9.329479 -6.60794,-0.447102 -18.89987,-0.169152 -25.12957,0.568239 -10.10586,1.1962 -16.77747,2.733959 -27.893723,6.429312 -15.993024,5.316527 -24.040558,8.8948 -37.990914,16.89236 -10.365329,5.9423 -26.101671,16.11157 -26.101671,16.86764 0,0.41478 4.05333,5.31241 8.365849,10.10844 10.624981,11.81624 18.936657,19.38432 26.394722,24.03334 7.629185,4.7557 22.640802,11.46409 41.306569,18.4591 l 7.874818,2.95109 1.14461,-0.85321 c 3.13724,-2.33854 8.65766,-5.90944 10.78333,-6.97523 2.53074,-1.26887 5.69628,-2.37923 8.40013,-2.94645 2.50518,-0.52555 9.17845,-0.44809 11.34261,0.13165 4.47581,1.199 9.2135,4.30313 16.88889,11.0656 1.39689,1.23074 2.65932,2.23772 2.80539,2.23772 0.14607,0 1.87056,-0.80426 3.8322,-1.78724 z"
     id="path851" />
  <path
     style="font-variation-settings:normal;opacity:1;vector-effect:none;fill:#00ffff;fill-opacity:1;stroke-width:0.0380953;stroke-linecap:butt;stroke-linejoin:miter;stroke-miterlimit:4;stroke-dasharray:none;stroke-dashoffset:0;stroke-opacity:1;stop-color:#000000;stop-opacity:1"
     d="m 124.12566,161.58742 c -3.86634,-0.80932 -6.73574,-1.80386 -9.98005,-3.4591 -4.63749,-2.36606 -7.06606,-4.77025 -11.48471,-11.36939 -5.106543,-7.62651 -5.867878,-10.81751 -4.781123,-20.03921 1.076008,-9.13049 4.172673,-15.12706 10.391113,-20.12197 5.65017,-4.53845 12.02024,-6.46426 21.45774,-6.48715 5.01285,-0.0122 5.07986,-0.004 7.78951,0.89652 5.39276,1.79309 9.13111,4.04077 12.72358,7.65008 6.33864,6.36832 10.08557,15.77523 9.42704,23.66717 -0.73866,8.8523 -4.12953,16.31802 -9.51786,20.95561 -5.23061,4.50185 -11.58509,7.55912 -17.81003,8.56877 -3.27923,0.53187 -4.63133,0.48885 -8.21521,-0.26133 z"
     id="path853" />
  <path
     style="font-variation-settings:normal;opacity:1;vector-effect:none;fill:#ffffff;fill-opacity:1;stroke-width:0.0380953;stroke-linecap:butt;stroke-linejoin:miter;stroke-miterlimit:4;stroke-dasharray:none;stroke-dashoffset:0;stroke-opacity:1;stop-color:#000000;stop-opacity:1"
     d="m 151.52916,180.75009 c -7.71039,-6.83172 -12.6054,-10.07436 -17.0175,-11.27303 -0.9176,-0.2493 -3.20486,-0.50547 -5.193,-0.58163 -2.94972,-0.11299 -4.03917,-0.0358 -6.4153,0.45444 -5.78997,1.1946 -9.28155,2.79382 -15.91678,7.29019 -4.37168,2.96248 -4.6575,3.11155 -5.51308,2.87532 -1.543223,-0.42611 -10.678887,-3.83829 -17.102541,-6.38783 -20.445343,-8.11474 -31.524868,-13.94879 -39.643578,-20.87481 -7.040094,-6.00586 -23.490179,-23.44009 -25.447703,-26.97015 -0.231286,-0.41708 0.592231,-1.0477 6.098903,-4.67035 14.135081,-9.29898 28.1821,-17.3041 38.207599,-21.773787 7.360146,-3.281385 22.397045,-8.470652 30.474725,-10.516896 26.821225,-6.794375 57.727035,-4.630062 89.741815,6.284558 9.26965,3.160247 16.02868,6.312965 24.50424,11.429865 9.01076,5.44001 22.54857,14.74167 22.54857,15.49283 0,0.59504 -7.29154,8.74013 -15.98951,17.86127 -6.15766,6.45723 -12.59795,12.61299 -17.49169,16.71892 -6.83259,5.73264 -18.38852,13.19013 -31.84131,20.54842 -5.8579,3.20411 -11.34336,6.09374 -11.56788,6.09374 -0.0976,0 -1.19384,-0.90048 -2.43598,-2.00107 z m -15.3776,-19.16187 c 5.72608,-1.70615 11.90393,-5.38318 15.75285,-9.37606 3.49982,-3.63071 5.66255,-7.60882 7.27797,-13.38704 0.70464,-2.52042 0.74663,-2.98891 0.72973,-8.14064 -0.0169,-5.15057 -0.0612,-5.60841 -0.76692,-7.92617 -2.10464,-6.91213 -6.62743,-13.61438 -11.75054,-17.41293 -5.53636,-4.10496 -12.65019,-6.250328 -19.42446,-5.857968 -10.49698,0.607978 -17.28497,3.436048 -23.04352,9.600608 -5.135415,5.49749 -7.485697,11.95775 -7.906625,21.73311 -0.279066,6.48079 0.619047,9.3189 5.059675,15.98899 4.59137,6.89651 7.29979,9.62783 11.65993,11.75854 2.71157,1.32508 7.15282,2.87276 10.11269,3.52406 3.0894,0.6798 9.16029,0.43078 12.29922,-0.5045 z"
     id="path855" />
</svg>
