<?xml version="1.0" encoding="UTF-8" standalone="no"?>
<svg
   xmlns:dc="http://purl.org/dc/elements/1.1/"
   xmlns:cc="http://creativecommons.org/ns#"
   xmlns:rdf="http://www.w3.org/1999/02/22-rdf-syntax-ns#"
   xmlns:svg="http://www.w3.org/2000/svg"
   xmlns="http://www.w3.org/2000/svg"
   xmlns:sodipodi="http://sodipodi.sourceforge.net/DTD/sodipodi-0.dtd"
   xmlns:inkscape="http://www.inkscape.org/namespaces/inkscape"
   cursor="default"
   viewBox="0 0 256 256"
   version="1.1"
   id="svg30"
   sodipodi:docname="saitamaitem.svg"
   inkscape:version="1.0.2-2 (e86c870879, 2021-01-15)">
  <metadata
     id="metadata36">
    <rdf:RDF>
      <cc:Work
         rdf:about="">
        <dc:format>image/svg+xml</dc:format>
        <dc:type
           rdf:resource="http://purl.org/dc/dcmitype/StillImage" />
        <dc:title />
      </cc:Work>
    </rdf:RDF>
  </metadata>
  <defs
     id="defs34" />
  <sodipodi:namedview
     pagecolor="#ffffff"
     bordercolor="#666666"
     borderopacity="1"
     objecttolerance="10"
     gridtolerance="10"
     guidetolerance="10"
     inkscape:pageopacity="0"
     inkscape:pageshadow="2"
     inkscape:window-width="1920"
     inkscape:window-height="1017"
     id="namedview32"
     showgrid="false"
     inkscape:zoom="1.8293848"
     inkscape:cx="-59.09424"
     inkscape:cy="192.60743"
     inkscape:window-x="-8"
     inkscape:window-y="-8"
     inkscape:window-maximized="1"
     inkscape:current-layer="svg30"
     inkscape:document-rotation="0" />
  <path
     style="fill:#000000;stroke-width:0.603011"
     d="m 43.031417,222.92486 c -9.911272,-1.56676 -22.236158,-6.66572 -27.655339,-11.44135 -4.101144,-3.61415 -9.5645968,-11.45244 -7.9825703,-11.45244 0.1608234,0 1.6104736,0.811 3.2213993,1.80217 13.440184,8.26983 26.231305,11.23851 46.193525,10.72104 9.040325,-0.23427 12.122152,-0.5642 18.100462,-1.93735 17.207114,-3.9522 30.268186,-9.33712 42.714526,-17.61067 9.10486,-6.05236 23.7637,-17.69361 32.44722,-25.76785 19.43505,-18.07129 31.16343,-26.84305 59.34119,-44.38172 13.70667,-8.53147 25.06407,-16.19161 27.61973,-18.62852 1.26127,-1.2027 3.12121,-3.47562 4.1332,-5.050969 1.01199,-1.5754 2.03706,-2.86434 2.27792,-2.86434 0.75554,0 4.18901,5.167789 6.05512,9.113659 6.21362,13.13868 3.61317,17.40824 -20.48806,33.63825 -14.43617,9.7215 -20.43434,13.18789 -31.9796,18.48136 -14.55257,6.67228 -17.27933,8.39339 -27.1025,17.10685 -7.15517,6.34688 -11.93412,9.88287 -22.62612,16.74111 -28.26815,18.13222 -42.15345,24.71847 -59.396758,28.17387 -14.556651,2.91699 -37.023928,4.59772 -44.873345,3.3569 z m 18.642292,-1.21124 c 17.23822,-1.2742 32.498086,-4.11168 42.210891,-7.84883 16.61818,-6.39414 50.72933,-27.25945 64.41888,-39.40415 10.5976,-9.40167 14.54907,-11.92292 28.40324,-18.12304 14.89712,-6.66685 40.49681,-23.07292 48.974,-31.38595 6.17054,-6.0511 6.83022,-9.36697 3.4182,-17.18152 -1.58256,-3.62454 -5.07553,-9.648869 -5.59354,-9.647149 -0.17868,5.9e-4 -1.0826,1.20052 -2.00876,2.666569 -3.08566,4.88427 -7.25121,7.90925 -34.49685,25.05124 -24.51301,15.42273 -37.70102,25.20112 -51.96373,38.52894 -21.76885,20.342 -41.94815,34.65439 -57.579891,40.83926 -6.454314,2.55373 -21.572314,6.71072 -28.244784,7.76652 -3.809265,0.60273 -9.938385,1.00569 -15.385272,1.01157 -16.873347,0.0181 -28.163246,-2.44243 -39.338126,-8.57353 -2.404515,-1.31924 -4.371844,-2.13706 -4.371844,-1.8174 0,0.31974 1.967329,2.58479 4.371844,5.03364 4.895067,4.98535 10.524462,8.11087 19.748662,10.96481 8.632857,2.67095 14.17693,3.09915 27.43708,2.11902 z M 46.598388,208.43587 c -8.553453,-0.72082 -21.477199,-2.85937 -25.366853,-4.19761 -4.9215,-1.69321 -10.269976,-4.71607 -12.9551941,-7.32199 -2.7276723,-2.64712 -3.0663378,-4.91113 -1.4459959,-9.66655 0.7782528,-2.28409 1.703327,-3.31863 5.509122,-6.16127 2.515599,-1.87895 9.123372,-5.71452 14.683939,-8.5235 13.185428,-6.66079 16.856532,-9.40343 34.426946,-25.71987 3.857036,-3.58176 7.151254,-6.51226 7.320485,-6.51226 0.169236,0 4.882784,2.84738 10.474571,6.32751 6.282337,3.90992 10.784024,6.3291 11.782098,6.33164 2.00796,0.005 3.510393,-1.42964 3.510393,-3.3522 0,-1.18139 -1.157861,-2.23203 -6.047316,-5.48749 -3.326025,-2.21444 -5.836066,-4.21261 -5.577871,-4.44028 0.258195,-0.22749 2.504623,-0.19809 4.99205,0.066 6.465511,0.68635 12.553368,0.65591 13.908938,-0.0696 1.3252,-0.70923 1.53326,-2.895 0.41259,-4.33477 -0.41458,-0.53263 -3.874355,-3.32465 -7.688414,-6.2045 -3.814054,-2.87986 -6.934644,-5.54869 -6.934644,-5.93076 0,-0.72972 1.124312,-0.71877 14.170798,0.13794 7.76742,0.51015 9.76412,0.11307 10.79381,-2.14692 0.89589,-1.96624 0.41522,-2.52795 -6.69102,-7.81902 -2.91984,-2.17406 -5.30881,-4.1683 -5.30881,-4.43169 0,-0.26322 4.27385,-0.66035 9.49745,-0.88209 5.22359,-0.22161 10.23466,-0.68658 11.13568,-1.03287 1.80016,-0.69187 2.6333,-2.39019 1.85488,-3.78112 -0.49791,-0.88973 -9.00703,-7.846789 -13.90578,-11.369389 -1.41543,-1.01781 -2.36517,-2.05213 -2.11054,-2.29843 0.25462,-0.24648 3.7104,-0.0466 7.67949,0.44366 3.9691,0.49048 7.82808,0.73827 8.57553,0.55068 2.88083,-0.72303 3.1865,-4.94664 0.48605,-6.71606 -1.28033,-0.83889 -4.15061,-1.16525 -20.95147,-2.38209 -4.731671,-0.34282 -5.276359,-0.50568 -5.276359,-1.57848 0,-2.52953 3.208449,-10.582874 5.723329,-14.365799 5.48779,-8.254777 12.38311,-9.205788 20.67381,-2.851316 5.38796,4.129627 14.3597,9.375341 16.82603,9.838002 1.10153,0.206683 2.00279,0.574912 2.00279,0.818364 0,0.243315 -1.93257,4.622769 -4.2946,9.731859 -7.81937,16.913279 -12.00662,26.613979 -14.72602,34.116059 -1.47831,4.07825 -2.67919,7.62288 -2.66861,7.87691 0.0104,0.25417 2.94287,-5.37221 6.5162,-12.50285 6.07416,-12.12105 18.04466,-33.681849 19.69248,-35.469309 0.60715,-0.65863 1.52569,-0.63258 5.31796,0.1506 8.28016,1.71031 19.97956,0.82506 27.80875,-2.10423 6.13235,-2.294399 17.71474,-12.035482 20.3916,-17.149813 1.62372,-3.102275 1.75637,-9.094759 0.25213,-11.390564 -2.43017,-3.70889 -7.36496,-0.897599 -13.08553,7.454639 -5.00827,7.312268 -9.56667,11.326433 -17.42027,15.340463 -8.89212,4.544845 -12.87622,5.783265 -18.56912,5.772055 -4.2385,-0.009 -6.95833,-0.63936 -6.1669,-1.43077 0.16475,-0.164623 2.81516,-0.84862 5.88975,-1.519683 10.02263,-2.187444 19.28501,-6.701446 24.22788,-11.807411 1.16079,-1.199076 5.23147,-6.699818 9.04595,-12.223852 7.65965,-11.092479 9.61472,-12.843628 15.70068,-14.06301 12.8706,-2.578739 19.30229,11.697557 11.86459,26.335525 -1.98218,3.901055 -6.80717,8.313163 -13.87422,12.686965 -6.78138,4.196966 -9.57676,5.482836 -15.80236,7.268896 l -4.8241,1.38401 4.52259,-0.36317 c 7.80565,-0.62642 18.64778,-4.63751 25.4691,-9.42242 4.35219,-3.052842 8.47708,-8.626669 10.97361,-14.828143 0.95636,-2.375674 1.90852,-4.319395 2.11591,-4.319395 0.20736,0 1.92102,3.595464 3.80809,7.989934 l 3.43103,7.989933 -3.58372,3.434595 c -16.0304,15.363486 -24.88715,29.778035 -28.64199,46.615425 -0.88753,3.97989 -1.65861,7.25891 -1.71349,7.28667 -0.0549,0.0271 -6.01746,4.05329 -13.25018,8.94556 -7.23272,4.89232 -13.51578,8.75489 -13.96237,8.58348 -0.44661,-0.1714 -1.25426,-2.25614 -1.79484,-4.63281 -1.54027,-6.77209 -0.16778,-14.84854 4.51607,-26.57472 4.51788,-11.31065 4.77848,-12.00003 4.53609,-12.00003 -0.62292,0 -5.84325,9.93532 -7.76261,14.77378 -3.33192,8.39936 -6.45217,19.34092 -6.45217,22.62541 0,1.62655 0.57274,4.48818 1.27274,6.35909 1.06829,2.85525 1.14094,3.5226 0.45226,4.15441 -11.89442,10.91212 -15.14147,13.66597 -15.81069,13.40918 -1.13111,-0.43417 -2.79894,-6.81904 -2.79714,-10.70838 0.002,-4.20764 2.22948,-12.48725 5.78198,-21.49128 3.29755,-8.35789 4.77711,-11.38007 8.78034,-17.93485 l 2.96556,-4.85573 -3.82082,4.06229 c -8.80911,9.36588 -17.51163,29.22492 -18.36706,41.91342 -0.31622,4.69043 -0.2283,5.18782 1.55867,8.81766 1.04158,2.11576 1.89378,4.09476 1.89378,4.39777 0,1.18166 -17.87435,15.22817 -26.55923,20.87146 -7.77981,5.05522 -30.640662,16.1179 -33.307401,16.1179 -0.458085,0 -1.874512,-2.05217 -3.147618,-4.56036 -1.702468,-3.35414 -3.40432,-5.56922 -6.434016,-8.37422 -2.265603,-2.09762 -4.119284,-3.95781 -4.119284,-4.13379 0,-0.17593 2.152425,-1.03676 4.783169,-1.91287 8.672715,-2.88831 15.859512,-9.38756 19.327854,-17.47889 l 1.178602,-2.74955 -6.753659,6.13345 c -10.479016,9.51672 -15.217407,12.10907 -26.238692,14.35504 -4.884833,0.99546 -8.482625,1.24366 -18.623048,1.28464 l -12.568546,0.0507 2.657016,1.21911 c 3.961793,1.81781 14.218542,2.56101 23.574037,1.70819 4.145714,-0.37809 8.1027,-0.82497 8.793305,-0.99348 0.987925,-0.24106 1.970847,0.57003 4.609985,3.80395 3.158124,3.8699 8.292952,13.06723 7.65277,13.7074 -0.610039,0.61005 -15.521163,3.27852 -19.850033,3.55236 -2.487427,0.15739 -7.236152,0.0574 -10.552725,-0.22205 z m 14.354908,-1.4433 c 4.753175,-0.4708 13.257934,-2.17492 13.931194,-2.79139 1.460288,-1.33715 -8.41086,-16.0942 -10.284598,-15.3752 -0.444074,0.1705 -4.26905,0.63032 -8.499938,1.02202 -10.78492,0.99845 -20.079044,0.1497 -25.555617,-2.33334 -3.593908,-1.62954 -5.6161,-3.11779 -4.333216,-3.18902 0.268325,-0.0136 7.678779,-0.0968 16.467688,-0.18226 14.369714,-0.1393 16.46591,-0.2899 20.803938,-1.49422 9.893779,-2.74635 14.75859,-5.83352 25.790742,-16.36655 3.485402,-3.32773 6.502778,-6.05038 6.705273,-6.05038 0.789333,0 0.266154,1.58337 -2.343451,7.09229 -2.176196,4.59397 -3.51639,6.51286 -6.787235,9.71798 -4.114151,4.03144 -9.203681,7.17663 -13.815955,8.53798 l -2.510886,0.74107 3.517019,3.25613 c 2.376864,2.20056 4.26602,4.71513 5.827455,7.75671 1.270736,2.4753 2.526792,4.5017 2.791232,4.5031 1.109307,0.005 21.024929,-9.3127 26.366179,-12.33696 7.93025,-4.49013 16.39823,-10.6812 30.57378,-22.35302 l 1.48822,-1.22535 -1.96927,-3.87528 c -2.93526,-5.77621 -2.66131,-10.55126 1.31496,-22.92011 2.26795,-7.05484 7.36876,-17.87388 10.84311,-22.99875 2.59782,-3.8319 13.54271,-15.59404 14.51057,-15.59404 1.01277,0 0.44235,1.09487 -4.10672,7.88243 -2.54026,3.79025 -6.05759,9.87626 -7.81629,13.5245 -4.0349,8.36997 -8.59918,21.9662 -9.07129,27.02192 -0.32626,3.4938 0.44588,9.05786 1.53367,11.05151 0.22568,0.41381 3.28876,-1.97362 7.70368,-6.00388 l 7.32903,-6.69051 -1.14815,-2.91286 c -0.63149,-1.60213 -1.14816,-4.34825 -1.14816,-6.10257 0,-5.37379 5.06561,-21.47247 9.53228,-30.29388 2.62002,-5.17439 9.09258,-14.826379 9.69345,-14.455029 0.2832,0.17503 -1.75166,5.95495 -4.52189,12.844219 -2.77024,6.88931 -5.59645,14.69685 -6.28049,17.35012 -1.46264,5.67342 -1.68962,13.46517 -0.48777,16.74468 l 0.83276,2.27238 12.04793,-8.21145 c 6.62636,-4.51631 12.40431,-8.55064 12.83988,-8.96523 0.43557,-0.41472 1.43871,-3.61527 2.22918,-7.11264 3.54812,-15.69825 10.67165,-27.977819 24.64146,-42.476939 l 7.16016,-7.431438 -2.59092,-6.329146 c -1.42502,-3.481041 -2.7476,-6.311869 -2.93908,-6.290749 -0.19149,0.02261 -1.48239,2.396749 -2.8687,5.279135 -3.22616,6.707778 -7.50516,11.133816 -14.06184,14.544988 -9.85692,5.12812 -17.62794,7.21263 -27.03552,7.25202 -6.04313,0.0271 -6.49429,-1.04788 -0.96147,-2.28712 10.46033,-2.34279 16.20603,-4.81091 25.11556,-10.78856 9.18615,-6.163257 12.75978,-12.212636 12.80454,-21.675307 0.0244,-5.19203 -0.0837,-5.682189 -1.79124,-8.111773 -2.47128,-3.516182 -5.21316,-5.024241 -9.03459,-4.968975 -3.14531,0.04568 -8.09225,1.848294 -10.12871,3.691297 -0.61893,0.560123 -4.25982,5.579843 -8.09085,11.154936 -4.13588,6.018761 -8.21424,11.228926 -10.03945,12.825583 -4.72923,4.136999 -11.38195,7.413755 -20.28577,9.991634 l -3.91958,1.134815 3.61808,-0.2284 c 7.08815,-0.447733 20.76745,-7.17541 26.57258,-13.069166 1.57711,-1.60118 4.38413,-5.164125 6.23783,-7.917662 3.7911,-5.631446 7.91917,-8.926066 11.18421,-8.926066 2.57792,0 3.79431,1.46116 4.61392,5.542305 1.07055,5.330602 -0.31907,9.103216 -5.29657,14.379637 -8.04025,8.523102 -15.92956,13.144792 -25.14983,14.733212 -6.56862,1.13165 -14.36027,1.15105 -19.97118,0.0498 -2.3216,-0.4557 -4.41009,-0.64922 -4.64109,-0.4301 -2.51337,2.38391 -30.63515,56.133319 -30.63515,58.553229 0,0.35141 -0.40704,0.63886 -0.90452,0.63886 -0.49749,0 -0.90452,-0.11894 -0.90452,-0.26457 0,-0.14563 1.88228,-5.71353 4.18284,-12.37355 4.48908,-12.99563 7.77387,-20.95698 15.99575,-38.768909 2.87046,-6.21861 5.06992,-11.54781 4.88768,-11.84273 -0.18226,-0.29487 -1.03008,-0.711496 -1.88408,-0.925821 -2.0342,-0.510556 -12.45416,-6.760557 -15.25934,-9.152738 -3.37125,-2.874879 -5.93115,-3.954829 -9.44929,-3.986442 -2.26933,-0.02261 -3.81725,0.351858 -5.31608,1.278085 -2.21149,1.366774 -5.80751,6.279398 -7.43086,10.151463 -1.2727,3.035703 -2.750546,8.057273 -2.457494,8.350343 0.12953,0.12934 4.286174,0.50522 9.236974,0.83482 13.71441,0.91307 15.17712,1.14648 16.99732,2.71211 2.24795,1.93364 2.31588,5.91859 0.13106,7.68914 -1.52229,1.23363 -4.10328,1.25339 -12.95106,0.099 -2.29526,-0.29939 -2.35366,-0.26774 -1.20602,0.65524 0.66331,0.53348 3.83283,3.03606 7.04338,5.56134 6.41442,5.045269 7.35676,6.620899 5.47066,9.147129 -1.53929,2.06172 -2.79117,2.34669 -12.36671,2.81532 l -8.29484,0.40613 4.07375,3.0181 c 5.18968,3.8448 7.39032,5.91447 7.39032,6.95047 0,1.7463 -1.85285,4.27715 -3.56947,4.87553 -1.23241,0.42965 -4.36415,0.43689 -9.96687,0.0226 -4.493394,-0.33151 -8.7585,-0.51639 -9.478013,-0.4102 -1.039618,0.15331 0.0059,1.18329 5.09299,5.01696 6.407873,4.82913 7.670153,6.32005 7.670153,9.05966 0,2.84462 -2.19826,3.51718 -10.27885,3.14488 -3.964688,-0.18272 -7.208524,-0.25055 -7.208524,-0.15015 0,0.1 1.327187,1.03341 2.949311,2.07433 6.222911,3.99327 7.339471,6.13775 4.846088,9.30759 -2.339448,2.97411 -4.456425,2.33751 -15.619122,-4.69712 l -9.934261,-6.26045 -5.970681,5.51942 c -18.247094,16.86806 -24.050673,21.1672 -36.668108,27.16258 -4.714462,2.24017 -10.111654,5.3708 -12.962065,7.51867 -4.3114807,3.24877 -4.9634666,3.99563 -5.5614442,6.3704 -1.1499512,4.56687 -0.9029497,5.7512 1.7007175,8.15491 5.5918177,5.16232 14.2990607,8.05877 29.8830697,9.94049 11.231585,1.35614 13.8483,1.43741 21.591056,0.67043 z m 15.946481,-74.32782 c -0.912054,-0.13793 -1.658282,-0.41291 -1.658282,-0.61064 0,-0.61805 3.723037,-6.1936 4.135737,-6.1936 0.872739,0 7.890803,6.19985 7.582584,6.69855 -0.326939,0.52896 -6.815828,0.59712 -10.060039,0.10583 z m 7.386909,-1.08415 c 0,-0.53977 -3.891883,-3.87492 -4.543336,-3.89341 -0.343084,-0.009 -1.094256,0.77883 -1.669326,1.75237 l -1.04557,1.77 1.970834,0.24422 c 3.278809,0.40613 5.287398,0.45425 5.287398,0.12709 z M 204.28621,118.33948 c 0,-0.48831 1.0852,-5.14133 2.41154,-10.34001 2.72191,-10.668669 5.7196,-17.985589 10.01837,-24.453399 2.81518,-4.23564 10.74764,-13.162745 11.69616,-13.162745 0.90157,0 11.60454,17.000075 12.43019,19.743485 1.33034,4.42038 0.42852,6.19794 -5.29895,10.444609 -2.63859,1.95639 -7.15545,4.83181 -10.03746,6.38975 -2.882,1.55799 -8.67495,4.95523 -12.87321,7.54943 -4.19826,2.59421 -7.79372,4.71676 -7.98992,4.71676 -0.19619,0 -0.35674,-0.39935 -0.35674,-0.88788 z m 7.95839,-5.04039 c 3.08517,-1.9339 8.45864,-5.10461 11.94103,-7.04598 7.47905,-4.16942 14.21216,-8.930449 15.17566,-10.730759 1.13119,-2.11363 0.64906,-5.18398 -1.37893,-8.78134 -1.54165,-2.73463 -8.45485,-13.433555 -9.37793,-14.513325 -0.47306,-0.55334 -7.00283,6.471115 -9.88037,10.628915 -4.21286,6.08723 -7.43746,13.1698 -9.83274,21.596929 -2.12199,7.46567 -3.1435,12.36179 -2.5791,12.36179 0.17765,0 2.84721,-1.58232 5.93238,-3.51623 z m -125.395113,3.07469 c -1.409539,-0.12709 -2.562801,-0.49559 -2.562801,-0.81922 0,-0.79051 2.950912,-6.57844 3.353961,-6.57844 0.99119,0 9.309306,6.21274 9.309306,6.95304 0,0.89828 -3.4011,1.04802 -10.100466,0.44457 z m 7.677576,-1.21676 c -0.0104,-0.43146 -5.687078,-4.37186 -6.298302,-4.37186 -0.298718,0 -2.133037,3.31511 -2.133037,3.85497 0,0.27136 2.530835,0.59359 6.783893,0.86377 0.912054,0.0579 1.653407,-0.0981 1.647446,-0.34688 z M 90.17084,102.55757 c -0.381209,-0.6646 4.505735,-12.258539 5.170991,-12.267819 0.759647,-0.009 14.874409,10.243049 14.874409,10.805479 0,0.26909 -2.51005,0.66432 -5.57788,0.87842 -3.06782,0.21392 -7.511429,0.54914 -9.87468,0.7446 -2.36325,0.19538 -4.430022,0.12302 -4.59284,-0.16055 z m 12.38463,-1.75418 5.304,-0.38216 -5.86336,-4.164679 c -3.224849,-2.29056 -6.018687,-4.16377 -6.208527,-4.16269 -0.273346,0.002 -2.114373,4.0575 -4.186427,9.222979 -0.128984,0.32155 1.016354,0.4111 2.713557,0.21256 1.615214,-0.18905 5.323543,-0.51571 8.240757,-0.72601 z"
     id="path844" />
  <path
     style="font-variation-settings:normal;opacity:1;vector-effect:none;fill:#e6e6e6;fill-opacity:1;stroke-width:0.0324669;stroke-linecap:butt;stroke-linejoin:miter;stroke-miterlimit:4;stroke-dasharray:none;stroke-dashoffset:0;stroke-opacity:1;stop-color:#000000;stop-opacity:1"
     d="m 43.702958,207.02975 c -0.751619,-0.13231 -4.1954,-0.61908 -7.652846,-1.08172 -13.012498,-1.74121 -22.542683,-5.26554 -26.8372709,-9.92461 -2.2282661,-2.41739 -2.2677039,-2.52837 -1.95952,-5.51439 0.1729826,-1.67603 0.7754227,-3.67677 1.3387557,-4.44608 1.9568312,-2.67231 8.6095392,-7.13374 17.3256392,-11.6189 13.762249,-7.08182 18.577827,-10.59864 34.928142,-25.50802 4.167264,-3.80001 7.763577,-6.98044 7.991801,-7.06764 0.22823,-0.0872 3.814987,1.97498 7.970576,4.58261 7.475715,4.69101 13.499614,7.87388 14.903715,7.87471 1.130079,5.5e-4 3.921034,-3.06825 3.921034,-4.31155 0,-1.53395 -2.742294,-4.52251 -6.157114,-6.71002 l -2.847115,-1.82385 7.918563,-0.27331 c 4.355208,-0.15032 8.226042,-0.47232 8.601852,-0.71555 0.37581,-0.24323 0.68329,-1.38564 0.68329,-2.53869 0,-2.53395 -1.04241,-3.73495 -7.789502,-8.9745 -2.630666,-2.04288 -4.783029,-3.9775 -4.783029,-4.29915 0,-0.40703 2.80532,-0.47093 9.228101,-0.21021 6.38614,0.25924 9.64105,0.18646 10.56898,-0.23633 1.39132,-0.63393 3.16146,-3.12794 3.16146,-4.45427 0,-0.94261 -2.97944,-3.79265 -7.65285,-7.32048 -2.71192,-2.04717 -3.29428,-2.71097 -2.45984,-2.80388 0.60129,-0.067 4.63374,-0.36921 8.96099,-0.67169 8.28498,-0.57911 10.07785,-1.14781 10.95466,-3.47485 0.76977,-2.04291 -0.8047,-4.0104 -7.38283,-9.225695 -3.45033,-2.735504 -6.15778,-5.089192 -6.01656,-5.23042 0.14123,-0.141222 2.74141,0.03209 5.77818,0.38513 6.60788,0.768209 8.83257,0.282734 9.83903,-2.147088 1.40404,-3.389641 -0.75285,-6.700726 -4.794,-7.359397 -1.11858,-0.182318 -6.5474,-0.678089 -12.06404,-1.101714 -5.51664,-0.423625 -10.177753,-0.917721 -10.358021,-1.097991 -0.534628,-0.534626 0.890032,-5.202046 2.874361,-9.416911 1.13425,-2.409236 2.97819,-5.089513 4.76268,-6.922868 2.47373,-2.541452 3.30569,-3.049544 5.52924,-3.376785 3.69325,-0.543539 6.91015,0.516786 11.21975,3.698158 4.55755,3.3644 11.66771,7.680217 15.02081,9.117524 l 2.54318,1.090133 -0.73407,2.075773 c -0.40374,1.141674 -3.23442,7.58535 -6.29038,14.319281 -6.60262,14.54909 -10.27527,23.70603 -14.76655,36.81704 -3.64913,10.65264 -3.53855,10.24901 -2.80787,10.24901 0.28379,0 1.18658,-1.53741 2.00621,-3.41645 3.43875,-7.88354 22.54362,-44.439839 27.41812,-52.463314 2.36698,-3.896078 1.60324,-3.703402 10.63384,-2.682669 8.84683,0.999963 18.27043,-0.189488 25.25383,-3.187547 7.22329,-3.101043 17.52464,-12.131785 20.29289,-17.78988 1.28059,-2.61742 1.44878,-3.513962 1.21218,-6.461477 -0.4627,-5.764265 -2.27656,-7.991923 -5.86553,-7.203653 -2.85845,0.627821 -5.826,3.361824 -10.95844,10.095997 -5.5665,7.303688 -8.85988,10.175853 -16.06036,14.006294 -5.94463,3.162364 -11.81032,5.198134 -15.91117,5.522197 -3.24814,0.256678 -3.21385,0.236238 3.5531,-2.117935 8.15715,-2.83781 13.47554,-5.704945 17.32054,-9.337477 1.55913,-1.472981 6.06695,-7.20975 10.01737,-12.748376 3.95041,-5.538626 7.96342,-10.658232 8.91779,-11.376904 2.33793,-1.760537 6.40702,-3.060918 9.54383,-3.049974 3.44933,0.01203 6.49831,1.801189 8.727,5.121054 1.64372,2.448477 1.77656,2.980573 1.77656,7.116101 0,10.48358 -3.52827,16.419706 -13.83581,23.278054 -6.16761,4.103746 -13.54557,7.424485 -20.61846,9.280134 -8.88493,2.331059 -8.94463,2.93526 -0.25686,2.599549 8.5579,-0.330691 14.0577,-1.782275 22.68522,-5.987409 7.62149,-3.714777 12.27999,-8.242352 16.05163,-15.600518 1.42897,-2.787809 2.80675,-4.939814 3.06172,-4.782234 0.25496,0.157581 1.61006,3.002675 3.01132,6.322432 l 2.54774,6.035922 -5.75562,6.006457 c -15.79607,16.484471 -21.58302,26.435326 -26.61648,45.767916 -0.64987,2.49604 -1.53339,4.89006 -1.96338,5.32005 -0.85034,0.85035 -11.63641,8.41984 -19.72489,13.84262 l -5.06285,3.3943 -0.67148,-1.52171 c -0.4221,-0.95658 -0.657,-4.05929 -0.6325,-8.35461 0.044,-7.70725 0.54283,-9.65806 6.08065,-23.77848 6.51885,-16.621876 6.61188,-17.824592 0.66916,-8.65095 -5.87792,9.07358 -11.09107,22.1059 -13.38087,33.45065 -0.95339,4.72359 -0.87972,5.52817 1.13787,12.42789 0.27723,0.94805 -0.75069,2.12163 -5.85618,6.68602 -8.42423,7.53139 -8.42819,7.53393 -9.28521,5.97929 -0.37677,-0.68347 -0.77768,-3.70251 -0.89092,-6.70899 -0.19012,-5.04798 -0.0528,-5.96832 1.79515,-12.0259 3.76778,-12.35121 8.5521,-22.61527 15.03308,-32.25128 3.16145,-4.70048 4.57042,-7.37953 3.88107,-7.37953 -0.95951,0 -11.77088,12.00216 -14.6615,16.27633 -5.23015,7.73353 -11.1476,22.29305 -13.10076,32.23368 -1.05614,5.37525 -0.63795,8.61941 1.71498,13.30398 0.76753,1.52811 1.39551,2.96763 1.39551,3.19891 0,0.47846 -12.86868,10.86781 -19.3135,15.59249 -8.61113,6.31278 -16.77008,10.8138 -31.755086,17.51824 l -7.064724,3.16082 -1.055497,-1.30348 c -0.580523,-0.71692 -1.652704,-2.48202 -2.382627,-3.92245 -0.729917,-1.44043 -3.032166,-4.41393 -5.116107,-6.60777 l -3.788979,-3.98882 2.850319,-0.90198 c 4.364582,-1.38116 9.4862,-4.64644 13.560395,-8.64541 2.99253,-2.93727 4.222178,-4.71302 6.516884,-9.41114 1.555611,-3.18492 2.741304,-6.05199 2.63487,-6.37129 -0.10643,-0.3193 -2.654483,1.70186 -5.662341,4.49146 -11.130764,10.32308 -15.259091,13.25777 -22.227833,15.80105 -7.015512,2.56034 -8.693077,2.76348 -25.862826,3.13169 l -16.398955,0.35168 1.913211,1.23902 c 3.968211,2.56986 8.420059,3.53716 17.575145,3.81873 4.957211,0.15246 10.902981,-0.01 14.136507,-0.38566 5.508877,-0.64044 5.598377,-0.63246 6.945814,0.61935 3.461005,3.21537 9.42103,13.26449 8.445566,14.23995 -0.231258,0.23126 -2.622078,0.92926 -5.312928,1.55111 -3.706148,0.85648 -7.278267,1.17827 -14.731827,1.32711 -5.411655,0.10806 -10.454334,0.0882 -11.205953,-0.0441 z"
     id="path846" />
  <path
     style="font-variation-settings:normal;opacity:1;vector-effect:none;fill:#e6e6e6;fill-opacity:1;stroke-width:0.00627467;stroke-linecap:butt;stroke-linejoin:miter;stroke-miterlimit:4;stroke-dasharray:none;stroke-dashoffset:0;stroke-opacity:1;stop-color:#000000;stop-opacity:1"
     d="m 82.582202,131.83274 c -0.21259,-0.0328 -1.538861,-0.16404 -2.947269,-0.29165 -1.408408,-0.12762 -2.560742,-0.29151 -2.560742,-0.36422 0,-0.25904 1.387547,-2.43781 1.885136,-2.9601 0.278488,-0.29231 0.626596,-0.53147 0.773574,-0.53147 0.392906,0 1.704582,0.9525 3.187512,2.31468 1.234608,1.13408 1.60374,1.74058 1.062949,1.74649 -0.132868,0.001 -0.415516,0.0349 -0.628106,0.0743 -0.21259,0.0394 -0.560464,0.0448 -0.773054,0.012 z"
     id="path848" />
  <path
     style="font-variation-settings:normal;opacity:1;vector-effect:none;fill:#e6e6e6;fill-opacity:1;stroke-width:0.00627467;stroke-linecap:butt;stroke-linejoin:miter;stroke-miterlimit:4;stroke-dasharray:none;stroke-dashoffset:0;stroke-opacity:1;stop-color:#000000;stop-opacity:1"
     d="m 89.443058,115.28972 c -2.62506,-0.26945 -3.181407,-0.41498 -3.243162,-0.84835 -0.02987,-0.20963 0.372088,-1.12038 0.893246,-2.02389 0.726568,-1.25962 1.032212,-1.62778 1.310527,-1.57861 0.447674,0.0791 4.337158,2.6518 5.372664,3.55375 0.458685,0.39952 0.702155,0.75034 0.616701,0.88861 -0.16361,0.26473 -2.415975,0.26859 -4.949976,0.008 z"
     id="path850" />
  <path
     style="font-variation-settings:normal;opacity:1;vector-effect:none;fill:#e6e6e6;fill-opacity:1;stroke-width:0.00627467;stroke-linecap:butt;stroke-linejoin:miter;stroke-miterlimit:4;stroke-dasharray:none;stroke-dashoffset:0;stroke-opacity:1;stop-color:#000000;stop-opacity:1"
     d="m 91.568957,101.4109 c 0,-0.2718 2.644788,-6.468466 3.406595,-7.981564 0.361239,-0.717491 0.746601,-1.304529 0.85636,-1.304529 0.380765,0 12.039218,8.113463 11.882968,8.269703 -0.0437,0.0437 -2.23766,0.24473 -4.87551,0.44676 -2.63785,0.20204 -5.653243,0.45422 -6.700881,0.5604 -2.406348,0.24388 -4.569532,0.24825 -4.569532,0.009 z"
     id="path852" />
  <path
     style="font-variation-settings:normal;opacity:1;vector-effect:none;fill:#e6e6e6;fill-opacity:1;stroke-width:0.00627467;stroke-linecap:butt;stroke-linejoin:miter;stroke-miterlimit:4;stroke-dasharray:none;stroke-dashoffset:0;stroke-opacity:1;stop-color:#000000;stop-opacity:1"
     d="m 45.95876,222.06308 c -4.245892,-0.41573 -8.754666,-1.42542 -13.604503,-3.04657 -8.576737,-2.86696 -13.134146,-5.58354 -18.396316,-10.96568 -3.568068,-3.64942 -4.4408016,-4.83423 -3.318094,-4.5046 0.239164,0.0702 2.304668,1.06652 4.590009,2.214 9.207418,4.62308 15.771386,6.53161 26.380474,7.67037 2.405573,0.25821 4.937575,0.33432 11.402549,0.34276 10.580828,0.0138 14.071395,-0.28171 20.6792,-1.75079 8.584975,-1.90864 19.456017,-5.09856 24.600887,-7.21871 15.344734,-6.32341 33.992054,-19.5455 55.527404,-39.37233 17.1479,-15.78746 26.9779,-23.06496 55.63935,-41.19183 20.4813,-12.95334 25.97267,-16.73052 29.35766,-20.19328 0.68079,-0.69644 1.94858,-2.29396 2.81728,-3.55003 0.86872,-1.256082 1.70319,-2.283782 1.8544,-2.283782 0.81801,0 5.52682,8.707052 6.81138,12.594932 1.51689,4.59097 1.08939,7.31287 -1.73019,11.01625 -4.07332,5.35013 -17.41958,15.17762 -33.98905,25.02777 -7.18917,4.2738 -12.20359,6.90397 -20.19604,10.59327 -11.46365,5.29159 -15.98015,8.18599 -24.54773,15.73138 -5.66438,4.98858 -11.91443,9.6791 -20.68386,15.52277 -16.86907,11.24103 -35.10003,21.3437 -45.89217,25.43112 -9.830187,3.72308 -25.807294,6.5597 -43.759233,7.76912 -3.809143,0.25663 -11.62964,0.35125 -13.543407,0.16386 z"
     id="path854" />
  <path
     style="font-variation-settings:normal;opacity:1;vector-effect:none;fill:#e6e6e6;fill-opacity:1;stroke-width:0.00627467;stroke-linecap:butt;stroke-linejoin:miter;stroke-miterlimit:4;stroke-dasharray:none;stroke-dashoffset:0;stroke-opacity:1;stop-color:#000000;stop-opacity:1"
     d="m 206.17424,116.01109 c 0,-1.72985 1.98607,-9.60143 3.87872,-15.37287 2.71537,-8.280224 6.7337,-15.79015 11.51816,-21.526492 2.23903,-2.684486 6.53552,-7.020533 6.86054,-6.9237 0.2793,0.08321 4.41497,6.182212 7.21132,10.634762 3.92011,6.241879 4.95846,9.32261 4.04538,12.002373 -0.7142,2.096067 -6.1719,6.124847 -15.63724,11.543147 -4.73163,2.70855 -8.83476,5.14286 -12.75667,7.56828 -3.04277,1.88173 -4.76022,2.86153 -5.01588,2.86153 -0.0574,0 -0.10433,-0.35416 -0.10433,-0.78703 z"
     id="path856" />
</svg>
