<?xml version="1.0" encoding="UTF-8" standalone="no"?>
<svg
   xmlns:dc="http://purl.org/dc/elements/1.1/"
   xmlns:cc="http://creativecommons.org/ns#"
   xmlns:rdf="http://www.w3.org/1999/02/22-rdf-syntax-ns#"
   xmlns:svg="http://www.w3.org/2000/svg"
   xmlns="http://www.w3.org/2000/svg"
   xmlns:xlink="http://www.w3.org/1999/xlink"
   xmlns:sodipodi="http://sodipodi.sourceforge.net/DTD/sodipodi-0.dtd"
   xmlns:inkscape="http://www.inkscape.org/namespaces/inkscape"
   cursor="default"
   version="1.1"
   viewBox="0 0 256 256"
   id="svg82"
   sodipodi:docname="EA.svg"
   inkscape:version="1.0.2-2 (e86c870879, 2021-01-15)">
  <metadata
     id="metadata86">
    <rdf:RDF>
      <cc:Work
         rdf:about="">
        <dc:format>image/svg+xml</dc:format>
        <dc:type
           rdf:resource="http://purl.org/dc/dcmitype/StillImage" />
      </cc:Work>
    </rdf:RDF>
  </metadata>
  <sodipodi:namedview
     pagecolor="#ffffff"
     bordercolor="#666666"
     borderopacity="1"
     objecttolerance="10"
     gridtolerance="10"
     guidetolerance="10"
     inkscape:pageopacity="0"
     inkscape:pageshadow="2"
     inkscape:window-width="1528"
     inkscape:window-height="1009"
     id="namedview84"
     showgrid="false"
     inkscape:lockguides="true"
     inkscape:zoom="0.505298"
     inkscape:cx="-376.48552"
     inkscape:cy="87.480747"
     inkscape:window-x="130"
     inkscape:window-y="0"
     inkscape:window-maximized="0"
     inkscape:current-layer="layer3"
     inkscape:document-rotation="0" />
  <defs
     id="defs44">
    <inkscape:path-effect
       effect="spiro"
       id="path-effect351"
       is_visible="true" />
    <inkscape:path-effect
       effect="spiro"
       id="path-effect347"
       is_visible="true" />
    <inkscape:path-effect
       effect="spiro"
       id="path-effect343"
       is_visible="true" />
    <inkscape:path-effect
       effect="spiro"
       id="path-effect339"
       is_visible="true" />
    <inkscape:path-effect
       effect="spiro"
       id="path-effect335"
       is_visible="true" />
    <inkscape:path-effect
       effect="spiro"
       id="path-effect331"
       is_visible="true" />
    <inkscape:path-effect
       effect="spiro"
       id="path-effect327"
       is_visible="true" />
    <inkscape:path-effect
       effect="spiro"
       id="path-effect319"
       is_visible="true" />
    <inkscape:path-effect
       effect="spiro"
       id="path-effect315"
       is_visible="true" />
    <inkscape:path-effect
       effect="spiro"
       id="path-effect311"
       is_visible="true" />
    <inkscape:path-effect
       effect="spiro"
       id="path-effect307"
       is_visible="true" />
    <inkscape:path-effect
       effect="spiro"
       id="path-effect303"
       is_visible="true" />
    <inkscape:path-effect
       effect="spiro"
       id="path-effect299"
       is_visible="true" />
    <inkscape:path-effect
       effect="spiro"
       id="path-effect295"
       is_visible="true" />
    <inkscape:path-effect
       effect="spiro"
       id="path-effect291"
       is_visible="true" />
    <inkscape:path-effect
       effect="spiro"
       id="path-effect287"
       is_visible="true" />
    <inkscape:path-effect
       effect="spiro"
       id="path-effect283"
       is_visible="true" />
    <inkscape:path-effect
       effect="spiro"
       id="path-effect279"
       is_visible="true" />
    <inkscape:path-effect
       effect="spiro"
       id="path-effect275"
       is_visible="true" />
    <inkscape:path-effect
       effect="spiro"
       id="path-effect271"
       is_visible="true" />
    <inkscape:path-effect
       effect="spiro"
       id="path-effect267"
       is_visible="true" />
    <inkscape:path-effect
       effect="spiro"
       id="path-effect263"
       is_visible="true" />
    <inkscape:path-effect
       effect="spiro"
       id="path-effect259"
       is_visible="true" />
    <inkscape:path-effect
       effect="spiro"
       id="path-effect255"
       is_visible="true" />
    <inkscape:path-effect
       effect="spiro"
       id="path-effect251"
       is_visible="true" />
    <inkscape:path-effect
       effect="spiro"
       id="path-effect247"
       is_visible="true" />
    <inkscape:path-effect
       effect="spiro"
       id="path-effect243"
       is_visible="true" />
    <inkscape:path-effect
       effect="spiro"
       id="path-effect239"
       is_visible="true" />
    <inkscape:path-effect
       effect="spiro"
       id="path-effect235"
       is_visible="true" />
    <inkscape:path-effect
       effect="spiro"
       id="path-effect231"
       is_visible="true" />
    <inkscape:path-effect
       effect="spiro"
       id="path-effect227"
       is_visible="true" />
    <inkscape:path-effect
       effect="spiro"
       id="path-effect223"
       is_visible="true" />
    <inkscape:path-effect
       effect="spiro"
       id="path-effect219"
       is_visible="true" />
    <inkscape:path-effect
       effect="spiro"
       id="path-effect215"
       is_visible="true" />
    <inkscape:path-effect
       effect="spiro"
       id="path-effect211"
       is_visible="true" />
    <inkscape:path-effect
       effect="spiro"
       id="path-effect207"
       is_visible="true" />
    <inkscape:path-effect
       effect="spiro"
       id="path-effect203"
       is_visible="true" />
    <inkscape:path-effect
       effect="spiro"
       id="path-effect199"
       is_visible="true" />
    <inkscape:path-effect
       effect="spiro"
       id="path-effect195"
       is_visible="true" />
    <inkscape:path-effect
       effect="spiro"
       id="path-effect191"
       is_visible="true" />
    <inkscape:path-effect
       effect="spiro"
       id="path-effect187"
       is_visible="true" />
    <inkscape:path-effect
       effect="spiro"
       id="path-effect183"
       is_visible="true" />
    <inkscape:path-effect
       effect="spiro"
       id="path-effect179"
       is_visible="true" />
    <inkscape:path-effect
       effect="spiro"
       id="path-effect175"
       is_visible="true" />
    <inkscape:path-effect
       effect="spiro"
       id="path-effect171"
       is_visible="true" />
    <inkscape:path-effect
       effect="spiro"
       id="path-effect167"
       is_visible="true" />
    <inkscape:path-effect
       effect="spiro"
       id="path-effect163"
       is_visible="true" />
    <inkscape:path-effect
       effect="spiro"
       id="path-effect159"
       is_visible="true" />
    <inkscape:path-effect
       effect="spiro"
       id="path-effect155"
       is_visible="true" />
    <inkscape:path-effect
       effect="spiro"
       id="path-effect151"
       is_visible="true" />
    <inkscape:path-effect
       effect="spiro"
       id="path-effect147"
       is_visible="true" />
    <inkscape:path-effect
       effect="spiro"
       id="path-effect143"
       is_visible="true" />
    <inkscape:path-effect
       effect="spiro"
       id="path-effect139"
       is_visible="true" />
    <inkscape:path-effect
       effect="spiro"
       id="path-effect135"
       is_visible="true" />
    <inkscape:path-effect
       effect="spiro"
       id="path-effect131"
       is_visible="true" />
    <inkscape:path-effect
       effect="spiro"
       id="path-effect127"
       is_visible="true" />
    <inkscape:path-effect
       effect="spiro"
       id="path-effect123"
       is_visible="true" />
    <inkscape:path-effect
       effect="spiro"
       id="path-effect119"
       is_visible="true" />
    <inkscape:path-effect
       effect="spiro"
       id="path-effect115"
       is_visible="true" />
    <inkscape:path-effect
       effect="spiro"
       id="path-effect111"
       is_visible="true" />
    <inkscape:path-effect
       effect="spiro"
       id="path-effect107"
       is_visible="true" />
    <inkscape:path-effect
       effect="spiro"
       id="path-effect103"
       is_visible="true" />
    <linearGradient
       id="innoGrad4">
      <stop
         stop-color="#ffb380"
         offset="0"
         id="stop2" />
      <stop
         stop-color="#fca"
         offset="1"
         id="stop4" />
    </linearGradient>
    <linearGradient
       id="linearGradient1232"
       x1="149.74"
       x2="147.34"
       y1="110.12"
       y2="107.69"
       gradientTransform="matrix(-.0051354 .99999 .99999 .0051354 1.54 -1.5321)"
       gradientUnits="userSpaceOnUse">
      <stop
         stop-color="#f55"
         offset="0"
         id="stop7" />
      <stop
         stop-color="#ff8080"
         offset="1"
         id="stop9" />
    </linearGradient>
    <linearGradient
       id="linearGradient1242"
       x1="86.619"
       x2="85.723"
       y1="171.39"
       y2="170.49"
       gradientTransform="matrix(-.0051354 .99999 .99999 .0051354 1.54 -1.5321)"
       gradientUnits="userSpaceOnUse">
      <stop
         stop-color="#ff2a2a"
         offset="0"
         id="stop12" />
      <stop
         stop-color="#f55"
         offset="1"
         id="stop14" />
    </linearGradient>
    <linearGradient
       id="linearGradient1250"
       x1="18.12"
       x2="21.466"
       y1="241.29"
       y2="228.73"
       gradientTransform="matrix(-.0051354 .99999 .99999 .0051354 1.54 -1.5321)"
       gradientUnits="userSpaceOnUse">
      <stop
         stop-color="#fd5"
         offset="0"
         id="stop17" />
      <stop
         stop-color="#fea"
         offset="1"
         id="stop19" />
    </linearGradient>
    <linearGradient
       id="linearGradient1284"
       x1="30"
       x2="30.714"
       y1="226.18"
       y2="225.42"
       gradientTransform="matrix(-.0051354 .99999 .99999 .0051354 1.54 -1.5321)"
       gradientUnits="userSpaceOnUse"
       xlink:href="#innoGrad4" />
    <linearGradient
       id="linearGradient1292"
       x1="37.634"
       x2="38.214"
       y1="219.17"
       y2="218.59"
       gradientTransform="matrix(-.0051354 .99999 .99999 .0051354 1.54 -1.5321)"
       gradientUnits="userSpaceOnUse"
       xlink:href="#innoGrad4" />
    <linearGradient
       id="linearGradient1306"
       x1="40.045"
       x2="40.938"
       y1="216.76"
       y2="215.78"
       gradientTransform="matrix(-.0051354 .99999 .99999 .0051354 1.54 -1.5321)"
       gradientUnits="userSpaceOnUse"
       xlink:href="#innoGrad4" />
    <linearGradient
       id="linearGradient1314"
       x1="42.455"
       x2="43.348"
       y1="214.21"
       y2="213.32"
       gradientTransform="matrix(-.0051354 .99999 .99999 .0051354 1.54 -1.5321)"
       gradientUnits="userSpaceOnUse"
       xlink:href="#innoGrad4" />
    <linearGradient
       id="linearGradient1322"
       x1="50.58"
       x2="51.071"
       y1="206.49"
       y2="206.04"
       gradientTransform="matrix(-.0051354 .99999 .99999 .0051354 1.54 -1.5321)"
       gradientUnits="userSpaceOnUse"
       xlink:href="#innoGrad4" />
    <linearGradient
       id="linearGradient1330"
       x1="27.009"
       x2="54.821"
       y1="229.57"
       y2="202.83"
       gradientTransform="matrix(-.0051354 .99999 .99999 .0051354 1.54 -1.5321)"
       gradientUnits="userSpaceOnUse">
      <stop
         stop-color="#f95"
         offset="0"
         id="stop27" />
      <stop
         stop-color="#ff7f2a"
         offset=".088"
         id="stop29" />
      <stop
         stop-color="#f95"
         offset=".265"
         id="stop31" />
      <stop
         stop-color="#ff7f2a"
         offset=".446"
         id="stop33" />
      <stop
         stop-color="#ff7f2a"
         offset=".601"
         id="stop35" />
      <stop
         stop-color="#f95"
         offset=".733"
         id="stop37" />
      <stop
         stop-color="#ff7f2a"
         offset=".863"
         id="stop39" />
      <stop
         stop-color="#f95"
         offset="1"
         id="stop41" />
    </linearGradient>
  </defs>
  <g
     inkscape:groupmode="layer"
     id="layer3"
     inkscape:label="color"
     style="display:inline">
    <path
       style="fill:#000000;stroke-width:0.220059"
       d="m 10.274058,250.10218 c -1.0163856,-2.26792 -1.5120827,-4.7426 -1.6201069,-8.08814 -0.091305,-2.82828 0.373113,-7.77221 0.8124138,-8.64812 0.1476423,-0.29423 1.1182351,-0.76542 3.1118641,-1.51046 3.919277,-1.46467 5.359042,-2.3459 8.853544,-5.41887 1.911742,-1.68114 2.041587,-1.74307 3.076709,-1.46752 2.382436,0.63418 4.498085,-1.37633 4.544575,-4.3187 l 0.01432,-0.90759 1.984085,-1.10731 c 2.11262,-1.17907 5.699548,-3.73541 9.671902,-6.89302 4.326344,-3.43898 18.733878,-18.6996 22.01621,-23.31981 l 1.373322,-1.93309 -0.02042,-3.96414 c -0.01756,-3.40698 0.360495,-8.18513 0.783621,-9.90384 0.180288,-0.73228 1.309601,-1.83734 2.170634,-2.12394 0.686296,-0.22844 0.729905,-0.27636 0.655014,-0.71985 -0.04404,-0.26135 -0.398784,-1.15571 -0.788145,-1.98758 -1.631568,-3.4857 -2.132984,-5.88493 -1.389213,-6.64725 0.303164,-0.31072 1.224555,-0.45397 3.619904,-0.56274 1.767288,-0.0802 3.271305,-0.20507 3.342312,-0.27738 0.07093,-0.0724 0.547714,-1.28552 1.059359,-2.69598 0.646926,-1.78347 1.17355,-2.86094 1.729169,-3.53801 l 0.7989,-0.97355 3.263822,-0.64346 c 1.795107,-0.35391 3.330801,-0.71221 3.41265,-0.79626 0.08193,-0.084 0.367994,-1.04099 0.635892,-2.12652 0.470508,-1.90666 0.514955,-1.99036 1.307308,-2.46236 2.362433,-1.40732 7.458285,-3.60944 11.807209,-5.10235 l 4.897308,-1.68119 10.55193,-10.45794 C 184.54986,57.872064 228.886,13.908058 229.97706,12.788931 l 1.3378,-1.371997 1.2463,1.124112 1.24631,1.12411 -0.31461,-2.238434 c -0.2666,-1.8971182 -0.24613,-2.3088351 0.13527,-2.7003375 0.38844,-0.3988407 0.71754,-0.4136205 2.4093,-0.108243 1.07766,0.1945381 2.02763,0.2836328 2.11103,0.1979952 0.0834,-0.085648 0.48537,-1.2079976 0.89324,-2.4941231 0.40786,-1.2861453 0.80541,-2.4039985 0.88345,-2.4841284 0.23081,-0.2369746 2.04587,0.7293727 2.86093,1.5231785 0.61608,0.6000268 0.8422,1.0739328 1.23212,2.5823482 0.26268,1.0160946 0.55955,1.9272829 0.65973,2.0248441 0.10012,0.09757 1.15018,0.334613 2.3333,0.526759 l 2.15115,0.349331 -0.0595,0.646809 c -0.0509,0.554242 -0.33791,0.932828 -2.00558,2.645115 l -1.94621,1.998299 -1.38636,-0.182517 -1.38634,-0.182519 -0.0219,0.642826 c -0.0594,1.741749 -0.70793,2.473224 -2.12782,2.399775 l -1.03377,-0.05347 1.03514,1.00816 c 0.68855,0.670606 0.99251,1.09521 0.90784,1.268156 -0.07,0.143037 -6.33473,7.00085 -13.92161,15.239663 -7.58685,8.238811 -19.52704,21.215178 -26.53374,28.836369 -7.00672,7.621181 -22.26851,24.205025 -33.91512,36.852968 -11.6466,12.64794 -22.18303,24.12115 -23.41431,25.49601 l -2.23874,2.49972 2.11601,0.0686 c 1.16382,0.0378 2.17203,0.12316 2.24047,0.18981 0.17997,0.17528 -0.13213,0.46077 -4.71673,4.3145 -7.72659,6.49493 -14.01354,12.5274 -16.7763,16.09733 l -1.50375,1.94302 1.29414,0.36628 c 0.77613,0.21966 1.44898,0.55616 1.68102,0.84067 l 0.38685,0.47447 -1.67041,1.60345 c -2.00599,1.92555 -2.99063,3.26201 -6.19123,8.40283 -5.78958,9.29928 -11.53378,20.28457 -13.59417,25.99772 -1.92287,5.33176 -3.92048,13.27413 -4.526924,17.99879 -0.325988,2.53972 -0.356338,2.62784 -0.96727,2.80914 -0.584791,0.17356 -0.740831,0.0944 -2.143117,-1.08794 -0.831804,-0.70137 -2.220446,-1.95016 -3.085882,-2.77508 l -1.573441,-1.49994 -0.545537,0.77422 c -1.037231,1.47221 -6.193453,9.73156 -8.258713,13.22895 -3.020008,5.11427 -5.809644,11.24676 -7.406217,16.28132 -0.418616,1.32003 -0.851611,2.40104 -0.962243,2.40228 -0.11059,0.001 -0.672631,-0.45948 -1.248944,-1.02379 -0.845402,-0.82804 -1.15868,-1.32202 -1.622014,-2.55899 -0.762362,-2.03515 -0.857107,-2.54374 -2.45467,-13.1774 -0.756397,-5.03465 -1.878051,-11.97306 -2.492566,-15.4187 -0.614511,-3.44563 -1.169126,-6.61517 -1.232462,-7.04344 l -0.115105,-0.77868 -10.425167,10.85835 c -6.451637,6.7196 -10.654254,11.2207 -11.026102,11.80902 -0.330479,0.52289 -1.632726,2.22658 -2.893889,3.78596 -1.261162,1.5594 -2.574523,3.21772 -2.918602,3.68513 -0.545209,0.74077 -0.661796,0.81457 -0.907276,0.57547 -0.25779,-0.25105 -0.400737,-0.13591 -1.683203,1.35571 -0.803436,0.93445 -1.642671,2.14394 -1.966609,2.83424 -0.310818,0.66231 -0.8304,1.57315 -1.154623,2.02412 l -0.589539,0.81986 -0.487836,-0.47511 c -0.389201,-0.37908 -0.585735,-0.41473 -0.971802,-0.17663 -0.606415,0.37406 -3.231386,0.29004 -4.44146,-0.14206 -1.099853,-0.39278 -1.944628,-1.16616 -2.233682,-2.04484 -0.21113,-0.64184 -0.217304,-0.64329 -0.522521,-0.12305 -0.169862,0.28961 -0.534078,0.99833 -0.809271,1.57505 l -0.500386,1.04858 1.146071,1.15585 c 0.630846,0.63516 1.226346,1.2508 1.324584,1.36677 0.139722,0.1653 -1.269569,1.6978 -6.500431,7.06864 -7.659588,7.86453 -6.741753,7.31774 -7.909546,4.71191 z m 7.633003,-5.05805 6.410533,-6.58142 -1.301202,-1.16777 c -1.288535,-1.15634 -1.299229,-1.17436 -1.094643,-1.84769 0.392473,-1.29184 1.645097,-3.23645 2.952209,-4.58308 2.187699,-2.25343 4.3898,-3.34951 7.619313,-3.79142 2.029923,-0.2778 2.696467,-0.14791 4.106541,0.80022 0.60365,0.4059 1.139287,0.73745 1.190319,0.73677 0.108939,-10e-4 3.023527,-3.72098 5.489324,-7.00545 1.430105,-1.90493 3.530334,-4.17352 12.056788,-13.02337 l 10.32495,-10.71667 -0.668148,-5.49254 c -0.632253,-5.1977 -0.689679,-5.45929 -1.069651,-4.8727 -2.059611,3.17957 -13.735587,16.2115 -18.621216,20.78371 -4.236928,3.96516 -10.391746,8.68088 -13.858644,10.6183 -1.932241,1.0798 -1.948898,1.09434 -1.912076,1.67036 0.04548,0.71134 -0.495116,2.48209 -1.007665,3.3008 -0.785389,1.25448 -2.787478,1.91159 -4.454299,1.46193 -0.383331,-0.10341 -0.825044,0.18598 -2.73424,1.79117 -3.391417,2.85144 -4.70529,3.64456 -8.240533,4.97432 -2.788832,1.04902 -3.1792929,1.25339 -3.3608731,1.75914 -0.4046811,1.12725 -0.8312605,6.52372 -0.683868,8.65146 0.2714606,3.91901 0.9519181,6.46995 2.4181881,9.0653 0.01584,0.027 2.912985,-2.91169 6.438731,-6.53154 z m 8.702774,-10.03451 c 0.529438,0.17623 1.300769,0.30541 1.714056,0.28705 l 0.751438,-0.0334 -2.055035,-2.00147 -2.055011,-2.00146 -0.311265,0.4717 c -0.749818,1.13626 0.173979,2.68441 1.955822,3.27759 z m 3.489176,0.35422 c 0.07751,-0.0796 0.293308,-0.21504 0.47949,-0.30094 0.299451,-0.13814 0.06559,-0.42211 -2.024622,-2.45778 l -2.363178,-2.3016 -0.459175,0.32077 -0.459153,0.32075 2.342831,2.28179 c 1.317665,1.28333 2.404558,2.21842 2.483819,2.13702 z m 2.106514,0.045 c 0.03811,-0.0391 0.341219,-0.5041 0.673754,-1.03331 l 0.604541,-0.96225 -2.489576,-2.4247 -2.489575,-2.42468 -0.533631,0.36598 c -0.293497,0.20129 -0.760986,0.50625 -1.038885,0.67768 l -0.505337,0.31164 2.854728,2.78034 c 1.570097,1.52919 2.885919,2.7483 2.923921,2.70927 z m 1.52857,-2.67337 c 0.033,-0.14888 -0.846536,-1.13163 -2.141648,-2.393 -1.36007,-1.32463 -2.256243,-2.08041 -2.351277,-1.98283 -0.09535,0.0979 0.716612,1.00512 2.141637,2.39301 1.489978,1.45114 2.314899,2.14674 2.351288,1.98282 z m 0.87909,-1.49055 c 0.336698,-0.45594 0.982442,-1.20933 1.435127,-1.67412 0.751401,-0.77152 0.792073,-0.87504 0.467466,-1.18963 -0.954601,-0.92504 -1.833526,-1.15394 -3.561841,-0.92731 -0.950995,0.12467 -2.044479,0.29967 -2.42994,0.38887 l -0.700847,0.16213 2.088963,2.03453 2.088951,2.03453 z m 40.175189,6.49052 c 0.07501,-0.0771 0.603402,-1.53216 1.174291,-3.23369 0.814192,-2.42673 2.653786,-6.89345 3.847607,-9.34244 0.06993,-0.14319 -0.05613,-0.43868 -0.27998,-0.65662 -1.187184,-1.15625 -0.890535,-3.00349 0.75573,-4.70581 0.84768,-0.87753 1.062396,-0.99193 1.98491,-1.06405 0.903338,-0.0707 1.093065,-0.16883 1.500394,-0.7765 0.554484,-0.8272 3.975626,-16.64924 3.752224,-17.35334 -0.08072,-0.25414 -0.259171,-0.4554 -0.396828,-0.44706 -0.137554,0.009 -2.647557,1.67778 -5.577568,3.70994 -2.930019,2.03216 -5.397048,3.69577 -5.482305,3.6969 -0.0852,0.001 -0.156138,-0.0844 -0.15752,-0.19003 -0.0011,-0.10574 1.62881,-2.79161 3.622701,-5.96879 1.993866,-3.17722 3.628142,-5.80993 3.631686,-5.8505 0.0035,-0.0405 -0.700254,-0.89604 -1.563973,-1.90111 -0.863749,-1.00505 -1.895771,-2.2243 -2.293418,-2.70944 l -0.723022,-0.88205 -3.305472,1.09951 c -1.81799,0.60474 -3.342928,1.05634 -3.388707,1.00356 -0.04527,-0.0534 0.253184,-4.05616 0.664376,-8.89641 l 0.747571,-8.80041 -1.361794,0.0663 c -2.049043,0.0999 -2.360833,-0.17256 -3.589284,-3.13652 l -0.347425,-0.83823 -0.822655,0.35055 c -1.503171,0.64053 -1.917865,1.47945 -2.298515,4.64984 -0.187301,1.55997 -0.352347,4.19677 -0.366772,5.85953 -0.03967,4.57476 1.308154,15.69206 3.055638,25.2038 0.553484,3.01265 1.567782,9.23002 2.253989,13.81632 1.84979,12.36311 2.058597,13.40254 3.072473,15.29639 0.508452,0.94965 1.693924,2.20329 1.891585,2.00033 z m 5.511407,-13.63526 c 0.102509,-0.19584 0.716207,-1.29149 1.363865,-2.4347 0.64768,-1.14319 1.184005,-2.18977 1.19186,-2.32572 0.0079,-0.13596 -0.279815,-0.24329 -0.63921,-0.23856 -0.519428,0.007 -0.843497,0.20372 -1.579639,0.95955 -1.495204,1.53522 -1.846542,3.10666 -0.900577,4.02797 0.28574,0.27829 0.422699,0.28107 0.563704,0.0115 z m 8.044322,-13.4378 c 1.757481,-2.7655 3.197206,-5.11891 3.199383,-5.22983 0.0047,-0.23821 -3.175163,-4.04946 -3.37631,-4.04679 -0.07585,0.001 -0.817866,3.22043 -1.649051,7.15431 -0.831214,3.93389 -1.479366,7.15207 -1.440384,7.15153 0.03891,-7.6e-4 1.508849,-2.26372 3.266362,-5.02922 z m -6.334518,-7.62458 c 2.552711,-1.77764 4.639861,-3.29155 4.638083,-3.36423 -0.0046,-0.18133 -2.953526,-3.67545 -3.100469,-3.67352 -0.06485,0.001 -1.5721,2.32239 -3.349439,5.15894 -1.77732,2.83653 -3.141061,5.14688 -3.030498,5.13412 0.1106,-0.0127 2.2896,-1.47768 4.842323,-3.25531 z m -6.570861,-12.37052 2.764976,-0.89338 -0.773728,-0.96803 -0.77373,-0.96808 0.830543,-6.58958 c 0.45679,-3.62429 0.851781,-6.76318 0.877742,-6.97534 0.03775,-0.30867 -0.413695,-0.33794 -2.259774,-0.1463 -2.062376,0.21355 -2.315492,0.29239 -2.387371,0.73841 -0.290537,1.80298 -1.395776,16.71039 -1.238449,16.70378 0.107172,-0.004 1.439085,-0.41018 2.959832,-0.90153 z m 20.908388,18.37257 c 3.801828,3.34281 3.802978,3.08371 0.05999,-13.4509 -1.648925,-7.28411 -2.929666,-13.31404 -2.846084,-13.39986 0.08363,-0.0858 1.691196,-0.95694 3.572528,-1.93582 5.397254,-2.80833 10.419854,-6.79035 12.368864,-9.80624 0.50255,-0.77767 1.31726,-1.98858 1.81045,-2.6909 0.49321,-0.70227 1.5578,-2.58723 2.36579,-4.18874 0.80801,-1.6015 1.56886,-3.01426 1.69081,-3.13949 0.12196,-0.12521 0.49153,-0.14989 0.8213,-0.0547 0.32972,0.0952 0.66225,0.1085 0.73893,0.0298 0.0767,-0.0788 0.46221,-1.33842 0.85677,-2.79935 l 0.71736,-2.65623 1.36603,-0.22798 c 0.75132,-0.12544 2.03217,-0.14393 2.84635,-0.0413 1.93458,0.24409 3.00582,-0.0741 2.36167,-0.70146 -0.75432,-0.73466 -8.24991,-2.33016 -13.90514,-2.95979 -4.31513,-0.48043 -13.150391,-0.59282 -17.548768,-0.22324 -6.374991,0.53566 -6.831195,0.59807 -12.161307,1.66337 l -5.191355,1.0376 -0.71585,0.90485 c -0.438854,0.55467 -1.075881,1.89605 -1.646096,3.46613 -0.511597,1.40871 -1.018805,2.6523 -1.127156,2.76355 -0.108364,0.11126 -1.639283,0.26381 -3.4021,0.33909 -2.253036,0.0963 -3.316293,0.251 -3.579317,0.52107 -0.48599,0.49899 -0.0082,2.85619 1.016541,5.01523 0.403555,0.85022 1.14625,2.61256 1.650418,3.91636 1.093433,2.82754 1.299968,3.2148 1.900652,3.56377 0.274987,0.15977 2.069355,0.0992 4.469327,-0.15094 3.236565,-0.33702 4.007576,-0.34178 3.998034,-0.0236 -0.0065,0.21695 -0.395541,3.38512 -0.864536,7.04047 -0.468998,3.65535 -0.797471,6.76592 -0.729923,6.91234 0.241727,0.52404 13.919011,16.35224 15.445714,17.87477 0.856686,0.85512 2.504119,2.38561 3.660078,3.40204 z M 83.565172,178.7454 c 2.626962,-2.03758 9.729801,-6.65562 13.74751,-8.93824 0.759756,-0.43164 1.380874,-0.82035 1.38031,-0.86381 -1.21e-4,-0.0434 -1.517358,0.36963 -3.370625,0.91795 -1.853258,0.54833 -3.474105,0.97375 -3.601872,0.94536 -0.378446,-0.084 0.355863,-0.69701 2.47117,-2.06259 4.531999,-2.92574 10.453575,-5.75236 13.488605,-6.43867 1.45132,-0.32816 4.10125,-0.39018 4.39624,-0.10286 0.27421,0.26708 -1.21451,2.30362 -3.02469,4.13767 -3.60205,3.64967 -6.79241,5.63099 -14.914548,9.26255 -6.339277,2.83439 -10.788876,4.39065 -11.255201,3.93648 -0.08962,-0.0873 0.187963,-0.40967 0.683076,-0.79384 z m 3.712562,-0.70182 c 2.397208,-0.82668 11.837823,-5.11515 14.108266,-6.40877 1.10546,-0.62985 2.77516,-1.7131 3.71045,-2.40719 2.65483,-1.97025 6.74646,-6.33106 6.32519,-6.74136 -0.0914,-0.0891 -0.87058,-0.1247 -1.73161,-0.0794 -1.6805,0.0885 -4.47662,0.99061 -7.69296,2.48208 -2.620866,1.21531 -9.30355,5.09993 -8.749408,5.08597 0.08452,-0.002 1.848716,-0.49567 3.920338,-1.09676 4.33029,-1.25644 3.99848,-1.17985 4.00186,-0.92368 0.001,0.10927 -1.239602,0.89339 -2.757899,1.74254 -4.426872,2.47593 -13.135277,8.07468 -14.111999,9.07283 -0.277725,0.28355 0.838345,0.0115 2.977772,-0.7263 z M 73.889055,162.6836 c 0.04381,-0.55001 1.052312,-2.66106 1.966996,-4.11741 l 0.777973,-1.23869 3.12737,-1.25105 c 2.976698,-1.19075 6.09136,-2.00083 9.707395,-2.52471 2.067403,-0.29952 7.20935,-0.63855 8.938995,-0.58936 2.063576,0.0587 6.489076,0.70233 6.382856,0.92834 -0.0529,0.11256 -1.50673,0.38486 -3.23083,0.60536 -9.777728,1.25041 -15.170008,2.85109 -22.983556,6.82258 -1.956345,0.99437 -3.728083,1.88319 -3.937222,1.9752 -0.454413,0.19986 -0.792574,-0.0753 -0.750018,-0.61023 z m 3.75934,-1.37376 c 7.333133,-3.85965 14.082672,-5.98604 22.310269,-7.02869 1.514576,-0.19195 2.653776,-0.39564 2.531546,-0.45268 -0.82265,-0.38393 -5.509782,-0.52004 -8.834413,-0.25659 -6.251934,0.49549 -9.59151,1.24078 -14.750901,3.29195 -1.722943,0.68497 -1.904935,0.80788 -2.514443,1.69804 -1.120626,1.63664 -2.272701,4.14747 -2.017199,4.39632 0.02772,0.027 1.50148,-0.71482 3.275141,-1.64835 z m 9.808412,4.17731 c 3.463603,-3.21225 5.353276,-4.06583 10.935145,-4.9396 4.369408,-0.68397 11.697988,-0.61005 11.707608,0.11811 0.001,0.0846 -1.7076,0.53176 -3.79714,0.99413 -5.86171,1.29704 -11.592256,2.88153 -16.387954,4.53126 -2.403611,0.82685 -4.421575,1.45343 -4.484327,1.39244 -0.06273,-0.061 0.849205,-1.00441 2.026123,-2.09688 z m 11.673058,-2.53141 c 1.920355,-0.495 4.849145,-1.20639 6.508425,-1.58085 1.65926,-0.37445 2.82648,-0.73276 2.59381,-0.79625 -0.98523,-0.2688 -8.242478,0.0779 -10.697728,0.51099 -4.560836,0.80459 -7.314867,2.12438 -9.798833,4.69579 l -1.01814,1.05488 4.460674,-1.49206 c 2.453395,-0.82065 6.031901,-1.89705 7.952234,-2.39205 z m 0.754375,42.30211 c 0.32494,-2.0638 1.50913,-6.79945 2.73744,-10.9472 l 0.91908,-3.10353 -0.39544,-3.39147 c -0.21748,-1.86529 -0.31121,-3.47602 -0.20828,-3.57943 1.06078,-1.06553 11.07507,-14.44022 12.33907,-16.47963 4.8258,-7.78614 5.49552,-8.79197 7.03334,-10.56299 0.8942,-1.0298 1.59076,-1.90651 1.54794,-1.94823 -0.18413,-0.17932 -2.62652,-0.27467 -3.76179,-0.14684 l -1.23697,0.13897 -0.77135,2.87603 c -0.83137,3.09976 -0.75366,3.00217 -2.11339,2.65401 -0.29981,-0.0768 -0.60603,0.40533 -1.89587,2.98539 -0.84605,1.69231 -2.05696,3.80925 -2.69088,4.70429 -0.63391,0.89507 -1.50005,2.15931 -1.92474,2.80945 -0.60908,0.93238 -1.2892,1.63255 -3.21954,3.3152 -3.42095,2.98063 -4.94544,4.01941 -8.873665,6.04646 -1.884393,0.97238 -3.425394,1.85632 -3.424478,1.96431 0.0045,0.44778 5.469041,24.34849 5.567562,24.34824 0.05911,4.4e-4 0.226629,-0.75742 0.372338,-1.68292 z m 5.16443,-17.80582 c 0.9004,-2.18023 4.06459,-8.67506 6.29067,-12.91219 0.78077,-1.48617 0.39759,-1.03427 -3.8772,4.57226 -2.13068,2.79446 -3.95873,5.16819 -4.06232,5.27494 -0.1695,0.17465 0.30404,5.69266 0.48829,5.69023 0.0423,-1e-5 0.56451,-1.18191 1.16054,-2.62524 z M 85.322304,151.26455 c 1.628879,-0.32167 4.173531,-0.57927 9.781212,-0.99029 3.546255,-0.25989 11.371694,-0.13043 15.316904,0.2534 2.00625,0.19519 5.43873,0.69375 7.62772,1.10791 l 3.97999,0.75302 0.96232,-1.21303 c 0.52929,-0.66717 1.4703,-1.82417 2.09121,-2.57103 1.05398,-1.26789 1.29698,-2.0379 0.43254,-1.37101 -1.36186,1.05065 -1.41631,-1.76023 -0.0611,-3.15173 0.70226,-0.72106 0.97349,-0.47116 0.57711,0.53167 -0.16876,0.42695 -0.2524,0.82493 -0.18585,0.88441 0.0661,0.0598 0.50869,0.12797 0.98257,0.15226 0.72744,0.0372 1.01108,-0.0886 1.82169,-0.80882 0.79503,-0.70631 1.35916,-1.5765 3.28135,-5.06135 1.27671,-2.31461 2.27139,-4.257 2.21039,-4.31642 -0.2128,-0.20723 -4.09248,0.81136 -7.7756,2.04146 l -3.71049,1.23923 0.60532,0.40894 c 0.71509,0.4831 1.16627,1.70383 1.02536,2.77435 -0.13628,1.03534 -2.53971,3.7173 -4.14846,4.62922 -1.50776,0.85466 -3.67779,1.60599 -5.13151,1.77667 -4.46504,0.52421 -9.10366,-4.36248 -6.59048,-6.94291 1.642,-1.68592 4.1631,-2.69922 12.24832,-4.92282 9.86551,-2.71325 16.66632,-4.19527 20.11973,-4.38442 1.94076,-0.10629 2.37951,-0.21568 3.11842,-0.77706 l 0.85984,-0.65341 -0.80705,-0.12479 c -1.62694,-0.2516 -4.99097,0.20186 -10.75417,1.44957 -11.72043,2.53741 -16.63604,3.8701 -28.42807,7.70727 -11.766904,3.82902 -14.445676,4.87251 -19.429586,7.56857 l -1.135192,0.6141 -0.428269,1.77978 c -0.235544,0.97888 -0.380946,1.8215 -0.323094,1.87243 0.05738,0.0513 0.897919,-0.0639 1.866889,-0.25519 z m 0.88521,-2.84302 c 0.521889,-0.53584 6.835208,-3.1563 10.871114,-4.51224 2.802342,-0.9415 6.350742,-1.76343 6.197692,-1.43564 -0.0638,0.1367 -1.12355,0.78836 -2.35506,1.44829 -1.231508,0.65996 -3.589598,2.0712 -5.240245,3.13611 -1.650626,1.06491 -3.142993,2.01692 -3.316356,2.11559 -0.17333,0.0988 -1.11129,0.0408 -2.084237,-0.12867 -0.972949,-0.16944 -2.259496,-0.29355 -2.858992,-0.27585 -1.069401,0.0316 -1.471194,-0.0834 -1.213916,-0.34759 z m 4.122539,0.19436 c 1.702189,0.27478 1.757352,0.26491 2.905864,-0.51938 1.75287,-1.19704 6.258033,-3.95711 7.272963,-4.45578 0.49006,-0.24076 0.86677,-0.46136 0.83714,-0.49022 -0.0839,-0.0818 -3.230073,0.79648 -4.780323,1.33435 -1.800566,0.6247 -7.411707,2.86737 -8.486435,3.39184 l -0.829631,0.40486 0.672635,0.0272 c 0.369955,0.0149 1.453466,0.15314 2.407789,0.3072 z m 21.883797,24.41418 c 0.0721,-0.1748 -10e-4,-0.17387 -0.18812,0.002 -0.16895,0.15927 -0.22215,0.2889 -0.11876,0.28752 0.10341,-8.7e-4 0.24138,-0.13191 0.30669,-0.29008 z m -6.88244,-33.99056 2.56299,-0.8886 0.37451,-2.01016 c 0.20597,-1.10557 0.37888,-2.13721 0.38419,-2.29252 0.005,-0.15949 -1.3066,1.0692 -3.01499,2.82329 -1.66357,1.70809 -2.98982,3.13957 -2.94713,3.18117 0.0426,0.0415 1.23084,-0.32439 2.64048,-0.81312 z m 6.31324,8.29451 c 2.2683,0.99716 5.20565,0.60899 8.17384,-1.08017 1.59373,-0.90696 4.0314,-3.63702 4.06495,-4.55253 0.0381,-1.03973 -0.34183,-1.84191 -1.13798,-2.40267 -0.51857,-0.36522 -0.67791,-0.57201 -0.54536,-0.7081 0.3242,-0.33287 8.404,-2.9434 10.25071,-3.31192 1.01388,-0.20239 1.88055,-0.24109 2.03559,-0.0909 0.28613,0.27713 -0.0263,0.95316 -2.34396,5.0721 -1.29857,2.3078 -1.09268,2.40279 0.89907,0.41476 1.06342,-1.06138 7.91267,-6.99774 9.0033,-7.80323 0.50761,-0.37499 0.43235,-0.39356 -1.32877,-0.32795 -3.18583,0.11865 -9.50434,1.47227 -19.22326,4.11821 -7.1733,1.95291 -10.06409,2.98884 -11.69668,4.19153 -1.69466,1.24847 -1.95767,1.80614 -1.49126,3.16154 0.46118,1.34004 1.74906,2.62004 3.33982,3.31938 z m -1.61144,-9.84388 1.41821,-0.45258 0.60685,-3.55397 0.60683,-3.55397 -1.72192,1.6788 -1.72179,1.67891 -0.41521,2.21862 c -0.22837,1.22023 -0.36481,2.26768 -0.3032,2.32769 0.0617,0.06 0.75023,-0.0945 1.53025,-0.34348 z m 4.21415,-1.30027 1.92571,-0.5909 0.6389,-4.26654 c 0.3514,-2.34658 0.69377,-4.32287 0.76086,-4.39176 0.0671,-0.069 1.90619,-0.56388 4.08687,-1.1 2.18072,-0.53613 4.09514,-1.00996 4.25428,-1.05296 0.26045,-0.0704 1.01857,-8.3442 0.80384,-8.77268 -0.0461,-0.092 -3.10635,2.84158 -6.80048,6.51922 l -6.71662,6.68653 -0.6273,3.68919 c -0.345,2.02907 -0.54281,3.73006 -0.43956,3.77998 0.10319,0.05 1.0543,-0.17508 2.11347,-0.50011 z m 11.09898,10.52478 c 0.12594,-0.12933 0.45717,-0.18556 0.73604,-0.12496 0.27891,0.0606 0.64069,-0.0271 0.80399,-0.19464 0.28289,-0.29046 0.26386,-0.30548 -0.40185,-0.31738 -0.84438,-0.0152 -1.25212,-0.36429 -1.1065,-0.94728 0.0595,-0.23773 0.037,-0.36325 -0.0498,-0.27882 -0.25477,0.24739 -0.54566,1.77244 -0.371,1.94254 0.088,0.0857 0.26304,0.0501 0.38899,-0.0793 z m -7.27278,-11.61451 c 0.70265,-0.20105 1.36329,-0.40132 1.46808,-0.44505 0.10485,-0.0438 0.39325,-1.23954 0.64102,-2.65735 l 0.45048,-2.57784 4.21691,-0.9662 4.21688,-0.96619 0.53039,-7.50733 0.53038,-7.50732 -1.42874,1.46857 -1.42874,1.46856 -0.31543,4.60772 c -0.17349,2.53423 -0.35909,4.71847 -0.41246,4.85383 -0.0534,0.13539 -1.81925,0.66292 -3.9242,1.17238 -2.10495,0.50947 -4.0418,0.99438 -4.30414,1.0776 -0.41074,0.13029 -0.56019,0.70929 -1.0766,4.17094 -0.32983,2.21078 -0.56416,4.0541 -0.52072,4.09622 0.0434,0.0422 0.65386,-0.0878 1.35653,-0.28889 z m 6.14044,-1.58117 c 2.12339,-0.51722 5.05153,-1.19129 6.507,-1.49796 l 2.64628,-0.55754 0.26331,-7.17087 c 0.14484,-3.94397 0.32064,-7.22367 0.39071,-7.28821 0.07,-0.0646 0.76038,-0.0442 1.53407,0.0451 l 1.40674,0.16246 -0.0712,4.51733 c -0.0391,2.48453 -0.0761,5.51906 -0.0821,6.74339 l -0.011,2.22608 1.79334,-0.31199 1.79335,-0.31194 2.39377,-2.68492 2.39379,-2.68493 -6.91729,-6.73704 -6.91732,-6.73704 -0.38388,0.39415 c -0.27733,0.28476 -0.53162,2.52359 -0.91624,8.06754 -0.29281,4.22038 -0.5828,7.79084 -0.64448,7.93438 -0.0617,0.14355 -1.97889,0.67843 -4.26047,1.18863 l -4.14835,0.92767 -0.39574,2.35914 c -0.21766,1.29755 -0.35954,2.35869 -0.31532,2.3581 0.0444,-2.2e-4 1.81774,-0.42423 3.9411,-0.94145 z m 10.95917,-2.44868 1.15752,-0.2773 0.017,-1.41968 c 0.009,-0.78084 0.0522,-3.70079 0.0953,-6.4888 0.043,-2.788 -0.004,-5.14401 -0.10551,-5.23558 -0.10121,-0.0916 -0.59754,-0.19297 -1.10327,-0.22534 l -0.91954,-0.0589 -0.25865,6.88567 c -0.14224,3.78711 -0.20951,6.93326 -0.14949,6.99144 0.06,0.0582 0.63003,-0.019 1.26669,-0.17154 z m 10.49771,-6.80107 c 0.10012,-0.10275 -2.26368,-2.51189 -6.7829,-6.91332 -4.51919,-4.40143 -6.98993,-6.70075 -7.08998,-6.59803 -0.10012,0.10274 2.26371,2.51189 6.78291,6.91331 4.51921,4.40145 6.98994,6.70076 7.08997,6.59804 z m 2.42962,-2.62545 c 1.06902,-1.19743 3.34442,-3.70357 5.05652,-5.56911 l 3.11295,-3.39187 -3.68961,0.82851 c -2.02928,0.45568 -3.74294,0.88328 -3.80814,0.95022 -0.0652,0.067 -0.43201,1.80163 -0.81517,3.85485 -0.6228,3.33751 -0.76513,3.79282 -1.34297,4.29638 l -0.64629,0.56329 -0.90786,-0.8026 -0.90783,-0.80258 0.56529,-4.99607 c 0.31092,-2.74783 0.60227,-5.07542 0.64746,-5.17244 0.0452,-0.097 3.35421,-0.74895 7.35339,-1.44872 l 7.27124,-1.27231 14.71567,-15.98034 c 8.0936,-8.789183 14.72065,-16.043441 14.72674,-16.120581 0.007,-0.07718 -0.15914,-0.0898 -0.36715,-0.02804 -0.20802,0.06176 -1.13026,0.236665 -2.04944,0.388787 l -1.67122,0.27662 -0.2308,-1.508151 c -0.14524,-0.94911 -0.11957,-1.559502 0.0695,-1.646682 0.1652,-0.07626 1.99781,-0.389901 4.07247,-0.697107 l 3.77209,-0.558556 0.90196,-0.93791 0.90196,-0.937907 -2.3851,0.08873 -2.38512,0.08872 -0.14197,-1.265552 c -0.0788,-0.695985 -0.0704,-1.339456 0.0176,-1.42983 0.0881,-0.09036 1.70068,-0.238396 3.58372,-0.328877 l 3.42363,-0.164586 -5.53708,-5.392795 -5.5371,-5.392798 -0.88643,0.902969 -0.88643,0.902969 0.12226,3.344516 0.12229,3.344525 -10.41558,10.706071 -10.41556,10.706084 -0.14888,3.775828 c -0.0819,2.076715 -0.19661,3.824856 -0.25496,3.884761 -0.0583,0.05989 -4.33045,1.063593 -9.49356,2.230445 -5.16309,1.166853 -9.62862,2.198272 -9.92339,2.292052 -0.33671,0.107062 -1.03783,0.719518 -1.88601,1.647365 l -1.3501,1.47684 7.70888,-1.92252 c 4.23989,-1.057378 7.83018,-1.872401 7.97844,-1.811158 0.28461,0.11759 0.81042,2.722318 0.59433,2.944198 -0.0695,0.0713 -4.80667,1.28615 -10.52708,2.6996 l -10.40072,2.5699 -1.78655,1.71584 -1.78653,1.71582 6.9627,6.78125 6.9627,6.78125 z m -15.10355,-11.34891 c 0.067,-0.15584 0.41331,-0.61337 0.76957,-1.01679 0.62652,-0.70928 1.02076,-0.80973 11.98561,-3.05356 l 11.33779,-2.32015 7.28734,-7.693807 7.28735,-7.693795 0.47529,-3.999073 0.47529,-3.999081 8.14879,-8.366829 8.1488,-8.36684 1.18234,1.151535 1.18235,1.151534 -7.95619,8.16909 -7.9562,8.169077 -0.54707,3.983278 -0.54707,3.983281 -5.61233,5.970183 c -3.08677,3.283619 -6.66978,7.068947 -7.96217,8.411897 l -2.3499,2.44164 -11.89816,2.48677 -11.89815,2.48678 -0.83755,-0.80579 c -0.54752,-0.52702 -0.79536,-0.90395 -0.71576,-1.08924 z m 13.41836,-1.01678 11.71841,-2.44581 7.86495,-8.306519 7.86497,-8.306516 0.55927,-4.015445 0.55928,-4.015458 7.83641,-8.046096 7.8364,-8.046097 -0.86704,-0.844453 -0.86705,-0.844461 -7.96281,8.175872 -7.9628,8.175859 -0.45237,3.892909 -0.45239,3.892889 -1.86538,2.109286 c -1.02597,1.160092 -4.37023,4.715185 -7.43169,7.900228 l -5.56617,5.791082 -11.3883,2.31978 c -10.66149,2.17175 -11.41449,2.35978 -11.79873,2.94636 -0.48571,0.7415 -0.45303,1.0373 0.18273,1.65314 0.44852,0.4345 1.10809,0.32707 12.19254,-1.98642 z m 0.011,12.9544 c 0.33242,-0.34131 0.66678,-1.57268 1.17728,-4.33535 l 0.71297,-3.85862 4.28689,-0.95964 c 4.61666,-1.03344 4.66941,-1.06008 6.10315,-3.08442 l 0.55349,-0.78143 -6.69342,1.19528 c -3.68139,0.6574 -6.74361,1.28568 -6.80495,1.39617 -0.0612,0.11055 -0.34247,2.31522 -0.62473,4.8994 l -0.51323,4.6985 0.66922,0.65333 c 0.63994,0.62482 0.68943,0.6326 1.13343,0.17673 z m -0.0113,-18.43477 c 5.30964,-1.33333 9.7325,-2.44669 9.82854,-2.47413 0.0961,-0.0274 0.0857,-0.56342 -0.0234,-1.19107 -0.18692,-1.078138 -0.22475,-1.136751 -0.68489,-1.061422 -0.26783,0.04397 -3.94413,0.940702 -8.16946,1.993012 l -7.68246,1.91327 -1.58614,1.62859 c -0.87239,0.89573 -1.52993,1.62576 -1.46117,1.62233 0.0687,-0.004 4.46919,-1.09722 9.77885,-2.43054 z m 7.41959,-7.335978 c 7.81318,-1.776923 8.92867,-2.087455 8.9532,-2.49232 0.0154,-0.254371 0.0934,-1.95192 0.17356,-3.772308 l 0.14555,-3.309814 10.3745,-10.776753 10.37461,-10.776642 0.0121,-0.950486 c 0.007,-0.522773 -0.0515,-1.843127 -0.12938,-2.934127 l -0.1415,-1.983642 -1.20836,1.240702 -1.20838,1.240703 -0.0804,1.501888 -0.0804,1.501875 -10.49835,10.779279 -10.49839,10.779271 0.039,1.562373 c 0.0215,0.859304 -0.003,2.164198 -0.0557,2.899736 l -0.0947,1.337343 -6.14418,1.494708 -6.14416,1.494719 -1.72454,1.612919 c -1.29926,1.215278 -1.63389,1.608962 -1.35693,1.596675 0.2022,-0.0088 4.3839,-0.929705 9.29276,-2.046122 z m 0.12433,-3.133347 5.67271,-1.386742 -0.0301,-2.799757 -0.03,-2.799744 10.50858,-10.801573 10.50858,-10.801573 0.0734,-1.139089 0.0733,-1.139068 -0.76627,0.617872 c -0.42147,0.339791 -5.88596,5.722554 -12.14335,11.961647 -6.25736,6.239122 -13.28649,13.216426 -15.62024,15.505185 -2.33371,2.28876 -4.17033,4.163164 -4.08116,4.16554 0.089,0.0022 2.71467,-0.619893 5.83467,-1.38261 z m 34.00403,-16.976726 1.9657,-0.362451 1.29309,-1.327691 c 0.7112,-0.73023 1.23523,-1.326448 1.16455,-1.324872 -0.0707,0.0019 -1.67011,0.229295 -3.55434,0.506053 l -3.42587,0.503205 0.0893,1.080442 c 0.0491,0.594244 0.18207,1.127089 0.29556,1.184099 0.11342,0.05696 1.09081,-0.05949 2.17196,-0.258847 z m 8.06194,-6.951809 1.04635,-1.060155 -2.03501,0.09728 c -1.11927,0.05349 -2.64398,0.135021 -3.38824,0.181173 l -1.35322,0.08398 0.0131,0.997541 0.0131,0.997553 2.32851,-0.118778 2.32855,-0.118759 1.04636,-1.060144 z m 1.65476,-1.684833 c 0.0994,-0.102222 -1.84333,-2.102468 -5.52175,-5.685025 -3.67842,-3.582556 -5.72929,-5.471912 -5.82881,-5.369728 -0.0995,0.102233 1.84332,2.102469 5.52174,5.685025 3.67842,3.582556 5.7293,5.471903 5.82882,5.369728 z m 1.47135,-1.562039 1.01073,-1.089094 -0.93705,0.7769 -0.93703,0.776887 -0.6819,-0.572865 -0.68188,-0.572865 1.13506,-5.727405 c 0.6243,-3.150054 1.19106,-5.818469 1.25951,-5.929785 0.0684,-0.111398 3.02209,-0.628697 6.5637,-1.14974 3.54161,-0.52103 6.54529,-1.052217 6.67486,-1.180425 0.12954,-0.128218 0.17378,-4.853359 0.0982,-10.500372 l -0.13733,-10.267304 -1.22829,1.261163 -1.22829,1.261162 -0.0223,4.584289 -0.0223,4.584279 -4.13675,4.259244 -4.13675,4.259244 -2.84892,0.04355 -2.84892,0.04356 -0.85044,5.66072 c -0.46774,3.113383 -0.91198,5.803998 -0.98722,5.979108 -0.11411,0.265486 -0.36831,0.09217 -1.53087,-1.04376 l -1.39394,-1.362273 0.80644,-4.897459 c 0.44356,-2.693598 0.77336,-4.893157 0.73289,-4.887913 -0.0405,0.0053 -1.37312,1.258228 -2.96141,2.784426 l -2.88781,2.774898 0.44525,0.556713 c 0.2449,0.30621 2.75752,2.830866 5.58363,5.610349 l 5.13837,5.053591 z m -5.18844,-4.285248 c 0.0399,-0.172424 0.4322,-2.712579 0.87191,-5.64487 0.43969,-2.932303 0.87754,-5.411633 0.97298,-5.509622 0.0955,-0.09802 1.43097,-0.191811 2.96781,-0.208559 l 2.79425,-0.0304 4.0741,-4.18311 4.0741,-4.183111 -0.0598,-4.196615 -0.0598,-4.196603 -1.22327,1.256013 -1.2233,1.256027 0.0324,2.884175 0.0324,2.884176 -2.99786,3.174839 -2.99788,3.174829 -3.40754,0.180769 c -2.78069,0.147509 -3.49649,0.269932 -3.89096,0.665376 -0.37469,0.375233 -0.67386,1.657202 -1.32874,5.689346 l -0.84533,5.20475 1.0707,1.048237 c 0.81589,0.798517 1.08818,0.973352 1.14336,0.73455 z m 5.20635,3.259288 c 0.46337,-0.587185 1.12522,-1.359473 1.47067,-1.716287 0.53997,-0.556836 0.70323,-1.108083 1.16016,-3.907451 l 0.53192,-3.258844 3.44932,-0.509959 c 3.75195,-0.554705 3.74149,-0.549428 5.30636,-2.680866 l 0.6231,-0.848646 -5.91326,0.893607 c -3.25228,0.491484 -5.98634,0.971831 -6.0757,1.067438 -0.20171,0.216594 -2.28449,10.617217 -2.20357,11.006116 0.0324,0.155718 0.22755,0.449425 0.4337,0.65279 0.36573,0.36084 0.3952,0.343921 1.21729,-0.697906 z m 7.15012,-6.8335 2.27069,-2.568922 -2.94379,0.4446 -2.94379,0.444601 -0.53212,3.20317 c -0.50158,3.019467 -0.58002,3.256316 -1.36775,4.13004 -0.45963,0.509759 0.0827,0.02429 1.20516,-1.078898 1.12252,-1.103083 3.06296,-3.161444 4.31148,-4.574701 z m -2.48672,-13.461431 2.89655,-3.168984 -0.0228,-2.465715 c -0.0124,-1.356142 -0.0832,-2.461697 -0.15694,-2.456774 -0.0738,0.0044 -2.72728,2.598018 -5.89657,5.7625 l -5.76237,5.753585 3.0228,-0.1278 3.02283,-0.12779 z m 10.76481,4.571012 1.26909,-1.298258 -0.23252,-10.095027 -0.23253,-10.095038 -1.2931,1.234727 -1.29296,1.234834 0.22534,10.112057 c 0.12394,5.561633 0.23946,10.133059 0.25671,10.15873 0.017,0.02566 0.60236,-0.5376 1.30025,-1.251765 z m 3.95059,-7.121153 c -0.0473,-1.477449 -0.13007,-4.434814 -0.18412,-6.571914 l -0.0982,-3.885645 7.11292,-7.417026 7.11292,-7.417014 1.26116,1.228312 1.26119,1.228298 -4.89341,5.2176 c -2.69141,2.869638 -5.5745,5.936566 -6.40705,6.815194 l -1.51378,1.597529 0.15532,3.782944 0.1553,3.782944 1.91244,-1.963618 1.91246,-1.963631 0.0743,-3.545738 c 0.0409,-1.950155 0.11541,-3.587036 0.16567,-3.637493 0.0505,-0.05019 0.69525,-0.146214 1.43337,-0.212838 l 1.34207,-0.121025 0.0197,2.061697 0.0196,2.061695 1.53818,-1.76055 1.5382,-1.760539 0.68641,-3.864552 c 0.37754,-2.125503 0.72239,-3.901483 0.76636,-3.946635 0.0439,-0.04516 1.29246,-0.227128 2.77444,-0.404304 1.48197,-0.177177 2.9808,-0.35746 3.33069,-0.400589 l 0.63622,-0.07834 -4.66202,-4.540523 -4.66201,-4.540523 -1.31888,1.354177 -1.31889,1.354178 -0.25076,3.096084 c -0.13789,1.702848 -0.28761,3.133944 -0.3327,3.180235 -0.12262,0.1259 -2.73862,0.569959 -2.83051,0.480479 -0.0435,-0.04252 -0.052,-0.765954 -0.0181,-1.607673 l 0.0612,-1.530368 -0.54883,0.364329 c -0.30185,0.200396 -2.4223,2.271155 -4.71214,4.601682 l -4.16333,4.237363 0.12778,9.88283 0.12781,9.88285 1.23725,-1.176906 1.23722,-1.176913 z m 2.45854,0.07157 1.13234,-1.374587 -0.19671,-4.018391 -0.19669,-4.018379 1.16286,-1.248147 c 0.63957,-0.686459 1.21419,-1.336336 1.277,-1.444116 0.0629,-0.107824 2.41989,-2.581156 5.23796,-5.496378 l 5.12378,-5.300396 -1.04042,-1.013305 -1.0404,-1.013294 -6.91229,7.321495 c -3.80181,4.026783 -6.90824,7.407987 -6.90329,7.513706 0.004,0.105736 0.0874,2.879327 0.18329,6.163592 0.19572,6.704864 0.0709,6.479243 2.17254,3.928157 z m 8.02222,-10.667598 -0.0171,-1.961413 -1.06649,0.01406 -1.06649,0.01406 -0.053,3.020658 -0.053,3.020647 1.13664,-1.073371 1.13664,-1.073383 z m 6.02569,-5.803539 0.35548,-1.650295 1.30825,-0.218345 c 1.23101,-0.205443 1.36552,-0.282691 2.27827,-1.307955 l 0.96998,-1.089618 -2.85064,0.337551 -2.85066,0.337552 -0.63658,3.400752 -0.63656,3.400754 0.85347,-0.780033 c 0.76015,-0.694616 0.89246,-0.96055 1.20898,-2.430295 z m -8.27005,-4.985877 c 0.79972,-0.145648 0.9891,-0.258237 1.02813,-0.611014 0.0263,-0.2378 0.13022,-1.439555 0.23089,-2.670478 l 0.18305,-2.238064 -1.218,1.158327 -1.21798,1.158339 -0.0956,1.590981 c -0.0526,0.875047 -0.0494,1.635872 0.007,1.69072 0.0563,0.05484 0.54354,0.01939 1.08269,-0.07887 z m 10.07304,4.161374 0.42489,-0.685757 -0.75179,0.0835 -0.75181,0.0835 -0.25636,1.109205 -0.25637,1.109204 0.58327,-0.507084 c 0.32073,-0.278948 0.77405,-0.816073 1.0081,-1.19287 z m 3.05229,-10.051762 5.08522,0.658535 1.88884,-1.939395 c 1.50708,-1.547399 1.85999,-2.002007 1.74592,-2.249274 -0.0841,-0.182465 -2.23522,-0.664644 -5.23187,-1.17276 -2.79891,-0.4745737 -5.97491,-1.0176418 -7.05782,-1.206819 -1.2189,-0.2129351 -2.1094,-0.2371723 -2.33778,-0.06364 -0.28149,0.2137515 -0.29375,0.8614486 -0.052,2.730758 0.17427,1.347752 0.44228,2.480524 0.59557,2.517263 0.15332,0.03676 2.56706,0.363153 5.36393,0.725334 z m -1.83037,2.712721 c 0.0714,-0.07328 0.11338,-0.392246 0.0934,-0.708833 -0.02,-0.316599 0.11887,-0.825429 0.30858,-1.130739 l 0.34487,-0.555158 -1.11877,-0.166375 c -0.61533,-0.09152 -1.50176,-0.198942 -1.96987,-0.238724 l -0.8511,-0.07234 1.53155,1.502656 c 0.84226,0.826539 1.58991,1.442726 1.66126,1.369456 z m 1.80592,0.612182 c 1.45542,0.09364 1.93072,-0.296802 1.9882,-1.633388 l 0.041,-0.952462 -1.08618,-0.182178 c -1.04853,-0.175873 -1.33596,-0.08526 -1.89056,0.595903 -0.28775,0.35338 -0.56467,1.798375 -0.37927,1.97895 0.065,0.06348 0.66227,0.150423 1.32683,0.193175 z m 1.78678,-8.7647339 2.46521,0.4170909 -0.4871,-1.8173416 c -0.54171,-2.0211361 -1.31225,-3.0209252 -2.77336,-3.5984582 l -0.78197,-0.3090876 -0.72766,2.371814 c -0.46317,1.5097544 -0.62455,2.3985317 -0.44399,2.4453457 0.15601,0.040471 1.393,0.2612285 2.74887,0.4906358 z"
       id="path124" />
    <path
       style="fill:#ffb380;fill-opacity:1;stroke-width:0.122393"
       d="m 97.476664,210.00906 c -2.598357,-2.06974 -5.024228,-4.52383 -9.27626,-9.38417 -4.009294,-4.58288 -9.177108,-10.59946 -10.333266,-12.03041 l -0.705823,-0.87359 0.142546,-1.38112 c 0.0784,-0.75962 0.441072,-3.79998 0.805938,-6.75636 0.364864,-2.95638 0.66339,-5.50367 0.66339,-5.66065 0,-0.27082 -0.04227,-0.2854 -0.826149,-0.28502 -0.454382,2.4e-4 -1.679837,0.0866 -2.723234,0.19196 -1.043396,0.10536 -2.565222,0.20156 -3.381835,0.21379 -2.047534,0.0306 -1.815432,0.29694 -3.661032,-4.20032 -0.621569,-1.51461 -1.38099,-3.35968 -1.687602,-4.10015 -0.624944,-1.50926 -1.005685,-3.15309 -0.882456,-3.80996 0.132091,-0.7041 0.486444,-0.78924 4.288851,-1.03048 2.946789,-0.18695 2.80145,-0.14289 3.155317,-0.95658 0.16499,-0.37938 0.619234,-1.50695 1.009431,-2.50571 0.681436,-1.74422 1.239678,-2.8075 1.893681,-3.60687 0.300948,-0.36784 0.382501,-0.38912 4.956897,-1.29354 5.164028,-1.021 6.279687,-1.19191 10.097383,-1.54686 5.46216,-0.50784 11.259199,-0.58729 17.134949,-0.23482 4.47577,0.26848 10.33073,1.20506 14.56471,2.32981 1.68598,0.44788 2.50905,0.82686 2.50905,1.1553 0,0.4686 -0.47556,0.5554 -2.57545,0.47007 -1.36342,-0.0554 -2.28991,-0.0312 -3.03162,0.0791 l -1.06815,0.15891 -0.17507,0.6225 c -0.0963,0.34237 -0.42808,1.53126 -0.73731,2.64197 -0.30924,1.11071 -0.64438,2.08203 -0.74475,2.15849 -0.12494,0.0952 -0.33709,0.10429 -0.67264,0.0289 -0.29769,-0.0669 -0.57404,-0.0652 -0.7038,0.004 -0.11751,0.0629 -0.80993,1.25534 -1.5387,2.64988 -1.69249,3.23867 -1.89628,3.58512 -3.66744,6.23504 -1.25954,1.88447 -1.70354,2.43361 -3.07018,3.79725 -2.8961,2.88975 -6.19591,5.15801 -11.721333,8.05716 -0.990523,0.51971 -1.832861,0.99657 -1.871865,1.05968 -0.09985,0.16157 0.53341,3.19666 2.69379,12.91073 2.562409,11.52179 2.874639,13.10387 2.875615,14.57083 8.57e-4,1.27659 -0.434787,1.35717 -1.735583,0.32101 z M 84.219656,179.39721 c 2.385554,-0.57411 8.231868,-2.95931 13.89155,-5.66754 5.143034,-2.461 8.472234,-4.77178 11.368944,-7.89112 1.28028,-1.37869 2.5838,-3.12704 2.5838,-3.46555 0,-0.51071 -3.17534,-0.39597 -5.18877,0.18751 -3.29798,0.95571 -9.313783,3.96464 -13.301526,6.65303 -0.963,0.64922 -1.775324,1.25745 -1.805164,1.35163 -0.08102,0.25572 0.506223,0.13234 3.758037,-0.78958 1.562801,-0.44306 2.902693,-0.78516 2.97754,-0.76021 0.07484,0.025 -0.602542,0.47708 -1.505305,1.00473 -5.175192,3.02482 -14.064227,8.9334 -14.064227,9.34855 0,0.11881 0.130534,0.2663 0.234586,0.26505 0.03927,-4.9e-4 0.512008,-0.10689 1.050535,-0.2365 z m 5.483864,-13.1746 c 4.711277,-1.54849 8.28708,-2.58293 12.39901,-3.5869 1.67544,-0.40907 4.12024,-1.00634 5.4329,-1.32727 1.31266,-0.32093 2.38665,-0.63463 2.38665,-0.6971 0,-0.53712 -7.05116,-0.62401 -10.770537,-0.13271 -4.77293,0.63045 -7.325131,1.52184 -9.772903,3.41333 -1.273974,0.98444 -4.017024,3.61605 -3.775269,3.62189 0.08788,0.002 1.932951,-0.57894 4.100149,-1.29124 z m -11.419901,-4.76204 c 8.498674,-4.24023 12.415992,-5.43675 22.642611,-6.91605 1.78388,-0.25804 3.381,-0.52143 3.54917,-0.58531 0.28036,-0.1065 0.25088,-0.12792 -0.3548,-0.25781 -2.6903,-0.57697 -5.527799,-0.78906 -8.432119,-0.63027 -7.392802,0.40418 -11.086697,1.14207 -16.60931,3.31788 l -2.447851,0.9644 -0.761058,1.25739 c -0.838389,1.38514 -1.80207,3.36926 -1.926022,3.96547 -0.09948,0.4785 0.193292,0.82987 0.588706,0.70653 0.144368,-0.045 1.832171,-0.86504 3.750673,-1.82223 z"
       id="path126" />
    <path
       style="fill:#ffb380;fill-opacity:1;stroke-width:0.122393"
       d="m 103.82487,189.9518 c -0.11832,-0.19144 -0.45079,-3.60454 -0.45079,-4.62778 v -0.9267 l 3.63046,-4.73743 c 3.98676,-5.20237 4.57261,-5.93819 4.65907,-5.85173 0.032,0.032 -0.63069,1.39738 -1.47271,3.03412 -1.86294,3.62121 -4.13137,8.34461 -5.17278,10.77095 -0.93473,2.17777 -1.09659,2.49498 -1.19325,2.33857 z"
       id="path128" />
    <path
       style="fill:#ffb380;fill-opacity:1;stroke-width:0.122393"
       d="m 73.816259,237.00606 c -1.28594,-1.41796 -1.853195,-3.00064 -2.555275,-7.12936 -0.171703,-1.00974 -0.8366,-5.25064 -1.477547,-9.42423 -0.640948,-4.17358 -1.525213,-9.65371 -1.965034,-12.17805 -1.943787,-11.15634 -3.012595,-19.32671 -3.306229,-25.27406 -0.129717,-2.62731 0.277161,-8.00994 0.74014,-9.7914 0.236067,-0.90834 0.653681,-1.55849 1.252071,-1.94923 0.475037,-0.31019 1.484529,-0.7473 1.540261,-0.66693 0.01751,0.0253 0.269287,0.61077 0.559496,1.30114 0.631511,1.50228 1.104814,2.19132 1.666425,2.42597 0.270984,0.11323 0.867934,0.17417 1.705907,0.17417 h 1.289052 v 0.35934 c 0,0.19763 -0.271342,3.62615 -0.602982,7.61893 -0.780139,9.39249 -0.797327,9.64626 -0.653362,9.64626 0.1348,0 4.268919,-1.29336 5.652539,-1.7684 0.499404,-0.17146 0.924893,-0.29486 0.945531,-0.27423 0.647079,0.64708 4.554724,5.45211 4.516901,5.5542 -0.02971,0.0802 -1.535754,2.53109 -3.346774,5.44647 -3.776906,6.08005 -3.904906,6.29613 -3.794912,6.40612 0.04483,0.0448 1.323653,-0.76386 2.841833,-1.79708 6.994243,-4.76007 8.096045,-5.48918 8.295084,-5.48918 0.330131,0 0.489393,0.42951 0.398835,1.0756 -0.410095,2.92583 -2.822664,13.99345 -3.493267,16.02531 -0.335942,1.01786 -0.696831,1.31054 -1.82188,1.47752 -1.000766,0.14854 -1.616005,0.56256 -2.377524,1.59996 -0.676477,0.92155 -0.92423,1.56804 -0.927278,2.41968 -0.0024,0.67681 0.04656,0.82476 0.49581,1.49751 l 0.498498,0.74651 -0.545897,1.19512 c -1.221246,2.67366 -2.4257,5.6657 -3.511169,8.72227 -0.418349,1.17802 -0.815129,2.29333 -0.881732,2.47844 -0.0666,0.18512 -0.193703,0.33658 -0.282444,0.33658 -0.08874,0 -0.473525,-0.34423 -0.855077,-0.76495 z"
       id="path130" />
    <path
       style="fill:#ffb380;fill-opacity:1;stroke-width:0.122393"
       d="m 11.17438,251.05771 c -0.806169,-1.44239 -1.4578124,-3.48074 -1.8806486,-5.8827 -0.4210041,-2.39155 -0.2219082,-8.78123 0.343591,-11.02703 0.1877379,-0.74557 0.4611616,-0.90935 3.5570366,-2.13061 3.568083,-1.40755 4.74669,-2.11271 7.869806,-4.70852 0.808315,-0.67184 1.731479,-1.39802 2.051474,-1.61372 0.573866,-0.38684 0.596707,-0.39123 1.672617,-0.32153 0.848978,0.055 1.233894,0.0239 1.736228,-0.14044 0.901821,-0.29497 1.638552,-0.83706 2.018326,-1.48509 0.430113,-0.73394 0.906197,-2.26056 0.906197,-2.90585 0,-0.28538 0.08299,-0.63735 0.184419,-0.78216 0.101431,-0.14482 0.693504,-0.55146 1.31572,-0.90366 4.381762,-2.48025 10.812197,-7.47026 15.437027,-11.97912 4.633326,-4.51715 13.841028,-14.78079 16.842585,-18.77409 0.487936,-0.64916 0.909347,-1.18028 0.936469,-1.18028 0.165104,0 0.3519,1.15278 0.905056,5.58538 0.340702,2.73015 0.602866,5.00574 0.582586,5.05685 -0.02028,0.0511 -3.425485,3.61203 -7.567121,7.91315 -12.630939,13.1173 -13.051657,13.57542 -15.932509,17.34889 -2.712474,3.55292 -4.240918,5.46439 -4.369404,5.46439 -0.05947,0 -0.589856,-0.30244 -1.178642,-0.67209 -0.588788,-0.36965 -1.269419,-0.72734 -1.512514,-0.79487 -1.660117,-0.46114 -5.453084,0.3672 -7.625292,1.66528 -2.329195,1.39189 -5.257641,5.04155 -5.564993,6.93554 -0.06354,0.39155 -0.0073,0.46629 1.193688,1.58653 l 1.260369,1.17561 -4.472517,4.56802 c -2.459885,2.51241 -5.351822,5.47314 -6.426528,6.57941 l -1.954012,2.01138 z"
       id="path132" />
    <path
       style="fill:#ffb380;fill-opacity:1;stroke-width:0.122393"
       d="m 30.958056,234.3338 c -1.954174,-1.85374 -4.44647,-4.32524 -4.44647,-4.40937 0,-0.0429 0.439902,-0.36687 0.977559,-0.71985 l 0.977559,-0.64179 0.950123,0.86262 c 0.522568,0.47445 1.65678,1.57389 2.520471,2.44322 l 1.570347,1.58058 -0.578198,0.90638 c -0.318009,0.49851 -0.620976,0.95432 -0.673261,1.01291 -0.05228,0.0586 -0.636443,-0.40702 -1.29813,-1.0347 z"
       id="path134" />
    <path
       style="fill:#ffb380;fill-opacity:1;stroke-width:0.122393"
       d="m 31.83834,230.01182 c -1.737393,-1.6705 -2.03831,-2.01044 -1.835888,-2.07396 0.133158,-0.0418 0.894729,-0.18717 1.69238,-0.32309 1.601462,-0.27288 2.717806,-0.31187 3.411737,-0.11915 0.591787,0.16436 1.492082,0.85253 1.539341,1.17666 0.02496,0.17119 -0.216575,0.52962 -0.744751,1.10516 -0.429931,0.46849 -1.017707,1.16439 -1.30617,1.54646 -0.288462,0.38207 -0.559167,0.6927 -0.601566,0.69029 -0.0424,-0.002 -1.012187,-0.90347 -2.155083,-2.00237 z"
       id="path136" />
    <path
       style="fill:#ffb380;fill-opacity:1;stroke-width:0.122393"
       d="m 27.001156,235.14802 c -1.749307,-0.48675 -2.876342,-1.7807 -2.557328,-2.93607 0.06357,-0.23022 0.215101,-0.54149 0.336744,-0.69171 l 0.221168,-0.27313 2.070643,2.03356 2.070642,2.03357 -0.795551,-0.006 c -0.437553,-0.004 -1.043396,-0.0754 -1.346318,-0.15974 z"
       id="path138" />
    <path
       style="fill:#ffb380;fill-opacity:1;stroke-width:0.122393"
       d="m 119.89707,152.0209 c -7.24486,-1.4101 -11.33722,-1.79546 -19.15442,-1.8037 -4.044455,-0.004 -5.459658,0.0423 -8.139107,0.26767 -3.722498,0.31313 -5.79434,0.54948 -7.668483,0.87479 -0.725354,0.12591 -1.367987,0.19854 -1.428075,0.16141 -0.132631,-0.082 -0.05036,-0.62805 0.35514,-2.35735 l 0.30884,-1.31707 2.227411,-1.1701 c 4.420866,-2.32236 8.162475,-3.7298 20.402694,-7.67468 9.2422,-2.97864 14.9184,-4.52149 24.05013,-6.53705 5.77655,-1.27501 8.6998,-1.80277 10.97071,-1.98064 1.07598,-0.0843 2.92474,0.0255 2.91607,0.17323 -0.006,0.10991 -0.94112,0.79013 -1.44064,1.04844 -0.26279,0.1359 -1.05102,0.26975 -2.26333,0.38434 -4.46458,0.42201 -9.02511,1.37915 -18.13832,3.80681 -6.70036,1.7849 -10.50166,3.02014 -12.45843,4.04839 -1.00213,0.5266 -2.25444,1.63327 -2.49241,2.20254 -0.62451,1.49395 0.39497,3.52879 2.45992,4.90992 2.22528,1.48835 4.49468,1.61872 7.57848,0.43537 2.29901,-0.88221 3.74442,-1.92844 5.2117,-3.77241 0.87505,-1.09968 1.15644,-1.78003 1.05439,-2.5493 -0.11641,-0.87754 -0.51338,-1.63453 -1.05978,-2.02091 -0.25973,-0.18366 -0.47341,-0.36497 -0.47485,-0.4029 -0.003,-0.0822 6.43801,-2.18171 8.0141,-2.61222 1.63165,-0.44569 2.72388,-0.68461 3.12972,-0.68461 h 0.3607 l -0.62844,1.25232 c -0.88042,1.75444 -2.93796,5.44746 -3.67623,6.59835 -0.6985,1.0889 -1.78799,2.13216 -2.40439,2.30235 -0.4537,0.12528 -1.5841,0.0336 -1.68956,-0.13705 -0.0366,-0.0592 0.0241,-0.38053 0.13486,-0.71403 0.11077,-0.33349 0.18105,-0.73156 0.15617,-0.88459 -0.0421,-0.25918 -0.0835,-0.23946 -0.60413,0.28782 -0.64357,0.65181 -0.95952,1.4349 -0.95952,2.37817 0,0.856 0.20942,1.03723 0.83203,0.72 0.2492,-0.12697 0.4944,-0.25065 0.54488,-0.27485 0.0505,-0.0242 0.0918,0.0504 0.0918,0.16578 0,0.27225 -0.54118,1.01792 -2.40832,3.31832 -1.75048,2.15667 -1.39626,2.00802 -3.71131,1.55744 z m -24.888674,-4.55883 c 1.47094,-0.93322 3.417971,-2.12737 4.326735,-2.65367 0.908769,-0.52631 2.174739,-1.25927 2.813279,-1.62882 0.63854,-0.36955 1.09533,-0.69379 1.0151,-0.72053 -0.2571,-0.0857 -2.21779,0.33408 -4.121495,0.88241 -4.054405,1.16781 -12.624588,4.62875 -12.773907,5.15856 -0.05253,0.18637 0.542688,0.28985 1.730417,0.30083 0.546941,0.005 1.435052,0.0811 1.973579,0.16895 2.190292,0.35736 2.012778,0.4105 5.036292,-1.50773 z"
       id="path140" />
    <path
       style="fill:#ffb380;fill-opacity:1;stroke-width:0.122393"
       d="m 242.84035,15.429243 c -0.67316,-0.09506 -2.68345,-0.364701 -4.46732,-0.599197 -1.78387,-0.234497 -3.39397,-0.457853 -3.578,-0.496349 -0.43849,-0.09172 -0.62918,-0.723678 -0.90967,-3.014739 -0.18611,-1.5201061 -0.18949,-1.7522684 -0.0296,-2.0381337 0.1518,-0.2714552 0.27746,-0.3283347 0.79243,-0.3586888 0.89825,-0.052945 11.6012,1.7840955 13.43125,2.3053215 0.90436,0.257577 0.78576,0.480321 -1.5332,2.879376 -1.68392,1.742083 -1.41459,1.645976 -3.70585,1.32241 z"
       id="path142" />
    <path
       style="fill:#ffb380;fill-opacity:1;stroke-width:0.122393"
       d="m 242.90155,9.8192557 c -0.43755,-0.085959 -1.53209,-0.2826242 -2.4323,-0.4370338 l -1.63674,-0.2807444 0.0674,-0.6224 c 0.0693,-0.6402301 1.02023,-3.9705086 1.18486,-4.1496596 0.13276,-0.1444717 1.58413,0.5433943 2.09739,0.9940365 0.60882,0.5345592 1.13073,1.5788873 1.56891,3.1393877 0.20592,0.7333546 0.3744,1.3788969 0.3744,1.4345384 0,0.1299495 -0.24408,0.1143695 -1.22392,-0.078125 z"
       id="path144" />
    <path
       style="fill:#ffb380;fill-opacity:1;stroke-width:0.122393"
       d="m 238.7708,18.234861 c -0.22626,-0.04358 -0.27526,-0.133399 -0.2747,-0.503501 10e-4,-0.744289 0.24498,-1.393762 0.69064,-1.839419 l 0.42131,-0.421307 1.0371,0.07319 c 0.5704,0.04025 1.09113,0.106585 1.15718,0.147403 0.15714,0.09712 0.15282,1.099688 -0.007,1.675901 -0.20867,0.751322 -0.59376,0.956941 -1.7557,0.937442 -0.54628,-0.0092 -1.11716,-0.04054 -1.26862,-0.06971 z"
       id="path146" />
    <path
       style="fill:#ffb380;fill-opacity:1;stroke-width:0.122393"
       d="m 237.29936,17.195648 c -0.8704,-0.772619 -2.35332,-2.224544 -2.35332,-2.304131 0,-0.08021 1.4283,0.04361 2.89737,0.251178 l 1.00028,0.14133 -0.29653,0.557695 c -0.16309,0.306732 -0.29653,0.765294 -0.29653,1.019026 0,0.528301 -0.0984,0.848529 -0.26061,0.848529 -0.0616,0 -0.37242,-0.231132 -0.69066,-0.513627 z"
       id="path148" />
    <path
       style="fill:#ffe680;fill-opacity:1;stroke-width:0.0865446"
       d="m 74.29579,162.84931 c 0,-0.45659 0.891456,-2.39449 1.71084,-3.71912 0.888088,-1.4357 1.067244,-1.56413 3.520592,-2.52365 4.621722,-1.8076 8.585344,-2.65447 14.370914,-3.07048 1.586015,-0.11404 5.703194,-0.11178 6.966834,0.004 1.15152,0.10535 1.74588,0.23516 1.5541,0.33943 -0.14711,0.08 -1.21964,0.25597 -3.458076,0.56741 -6.143875,0.85482 -11.482871,2.35577 -16.919465,4.75655 -1.181257,0.52164 -3.864303,1.84369 -6.05812,2.98509 -1.480882,0.77048 -1.687619,0.85144 -1.687619,0.66095 z"
       id="path150" />
    <path
       style="fill:#ffe680;fill-opacity:1;stroke-width:0.0865446"
       d="m 86.758209,166.78625 c 0,-0.0854 1.840868,-1.87819 2.379976,-2.31778 2.370879,-1.93323 5.857425,-3.17733 10.125715,-3.61312 3.75762,-0.38365 8.95736,-0.51702 8.95736,-0.22974 0,0.11814 -1.07496,0.41392 -4.11086,1.13113 -5.809558,1.37247 -8.693146,2.19696 -14.647673,4.18812 -1.487485,0.49741 -2.704518,0.87603 -2.704518,0.84139 z"
       id="path152" />
    <path
       style="fill:#ffe680;fill-opacity:1;stroke-width:0.0865446"
       d="m 84.252511,178.82744 c 0.02548,-0.40388 8.240243,-5.73156 13.71322,-8.89371 2.664159,-1.53928 3.274039,-1.94623 3.131049,-2.08922 -0.0289,-0.0289 -1.790207,0.44264 -3.914089,1.0478 -2.123882,0.60515 -3.884706,1.07718 -3.91294,1.04894 -0.07276,-0.0727 0.126582,-0.21419 1.479439,-1.04966 2.752798,-1.70004 6.84493,-3.90444 8.58231,-4.62323 2.35891,-0.97594 4.21553,-1.56812 5.60775,-1.78863 0.9057,-0.14345 2.32893,-0.13443 2.4789,0.0157 0.24488,0.24516 -0.7118,1.4488 -2.89365,3.64065 -3.60434,3.62087 -5.68031,4.97607 -12.3941,8.09088 -5.419611,2.51438 -8.433379,3.76554 -10.525828,4.36975 -1.02321,0.29546 -1.359768,0.35289 -1.352061,0.23073 z"
       id="path154" />
    <path
       style="fill:#ffe680;fill-opacity:1;stroke-width:0.0865446"
       d="m 99.40712,206.62617 c -0.237432,-0.90885 -0.435694,-1.74831 -1.562776,-6.61695 -1.114128,-4.81267 -2.821418,-12.33177 -3.601032,-15.85934 -0.176212,-0.79732 -0.300544,-1.50138 -0.276293,-1.56457 0.05998,-0.15631 0.877305,-0.63272 3.225234,-1.87997 4.163987,-2.21196 5.269567,-2.94251 8.168337,-5.39756 1.74316,-1.47633 3.39351,-3.07343 3.85092,-3.72667 2.57684,-3.67999 3.30179,-4.85754 4.9562,-8.05043 1.08182,-2.08782 1.4335,-2.6835 1.62845,-2.75831 0.0647,-0.0248 0.2462,-0.008 0.40331,0.0368 0.51336,0.14722 0.82062,0.10246 1.01787,-0.14829 0.21325,-0.27112 0.37386,-0.78021 1.08771,-3.44793 l 0.53264,-1.99053 0.85809,-0.10074 c 0.47195,-0.0554 1.24754,-0.10339 1.72353,-0.10664 0.87061,-0.006 2.36123,0.11651 2.44562,0.2009 0.055,0.055 -0.4326,0.69344 -1.32102,1.72984 -1.5855,1.84958 -2.34142,2.95077 -5.51859,8.03917 -1.15327,1.84702 -2.72856,4.23212 -3.50064,5.30022 -3.62315,5.01225 -9.50116,12.78725 -10.34819,13.68783 l -0.26092,0.27741 0.0493,1.1073 c 0.0271,0.60902 0.17192,2.17829 0.32175,3.48728 l 0.27242,2.37998 -0.69327,2.34933 c -1.49104,5.05276 -2.39636,8.62721 -2.955275,11.66833 -0.312907,1.70255 -0.375284,1.87399 -0.503405,1.38356 z"
       id="path156" />
    <path
       style="fill:#ffe680;fill-opacity:1;stroke-width:0.0865446"
       d="m 72.478354,190.90799 c 0,-1.624 0.91515,-13.83237 1.179663,-15.73706 0.104221,-0.75047 0.177004,-0.78889 1.892669,-0.9992 1.4441,-0.17702 2.594026,-0.20392 2.735193,-0.064 0.08371,0.083 -0.07449,1.54379 -0.749876,6.92432 l -0.855967,6.81915 0.758795,0.94325 c 0.417337,0.51878 0.727937,0.97243 0.690221,1.0081 -0.03772,0.0357 -0.204881,0.10255 -0.371479,0.14862 -0.166598,0.0461 -1.218115,0.37714 -2.336704,0.73571 -1.118588,0.35857 -2.238259,0.71184 -2.488156,0.78506 l -0.454359,0.13312 z"
       id="path158" />
    <path
       style="fill:#ffe680;fill-opacity:1;stroke-width:0.0865446"
       d="m 79.686351,224.02072 c -0.34914,-0.36195 -0.45752,-0.65527 -0.45752,-1.23824 0,-0.89578 0.545183,-1.89063 1.600945,-2.92141 0.579892,-0.56617 0.932244,-0.75435 1.41248,-0.75435 0.448366,0 0.621447,0.0698 0.621447,0.25054 0,0.08 -0.403849,0.88395 -0.897443,1.78654 -1.364766,2.49562 -1.730719,3.10775 -1.874467,3.13543 -0.07239,0.0139 -0.254843,-0.10239 -0.405442,-0.25851 z"
       id="path160" />
    <path
       style="fill:#ffe680;fill-opacity:1;stroke-width:0.0865446"
       d="m 85.092272,215.40694 c 0.43154,-2.50796 2.897054,-13.81705 3.048182,-13.98173 0.154038,-0.16784 3.376378,3.66271 3.377334,4.01481 7.37e-4,0.27134 -6.240622,10.20149 -6.413561,10.20412 -0.0291,4.4e-4 -0.03448,-0.1063 -0.01196,-0.2372 z"
       id="path162" />
    <path
       style="fill:#ffe680;fill-opacity:1;stroke-width:0.0865446"
       d="m 77.151761,206.23166 c 0,-0.30283 6.220293,-10.23234 6.409999,-10.23234 0.125022,0 2.586757,2.87926 2.96976,3.47345 l 0.146979,0.22802 -1.10686,0.8177 c -1.491972,1.10219 -4.007035,2.86512 -6.212991,4.35497 -1.927986,1.30212 -2.206887,1.47377 -2.206887,1.3582 z"
       id="path164" />
    <path
       style="fill:#ffe680;fill-opacity:1;stroke-width:0.0865446"
       d="m 113.11103,147.78794 c -1.42622,-0.27726 -2.50399,-0.855 -3.56621,-1.91169 -0.77229,-0.76826 -1.22994,-1.55606 -1.41122,-2.42931 -0.18359,-0.88433 0.19401,-1.50496 1.51565,-2.49114 1.82883,-1.36464 5.20224,-2.54498 13.8904,-4.8602 6.53679,-1.74191 11.49004,-2.86085 14.75585,-3.33335 1.40779,-0.20368 4.02433,-0.33152 4.02433,-0.19663 0,0.0482 -0.76917,0.73023 -1.70926,1.51552 -2.34533,1.95912 -6.45871,5.56535 -7.72961,6.77659 -1.07326,1.02288 -1.43371,1.31405 -1.51996,1.22781 -0.12278,-0.12279 0.14336,-0.69913 1.23043,-2.66453 1.44062,-2.60461 1.8569,-3.44877 1.91527,-3.88394 0.0444,-0.33135 0.0392,-0.33906 -0.26916,-0.39691 -0.36594,-0.0687 -1.45358,0.073 -2.40851,0.31379 -2.41756,0.60946 -9.18256,2.82059 -9.56076,3.12491 -0.16051,0.12915 -0.0593,0.27279 0.51888,0.73619 0.70279,0.56329 1.02182,1.13695 1.07934,1.9408 0.0366,0.5114 0.0121,0.65169 -0.18336,1.05123 -0.44329,0.90607 -2.08572,2.69789 -3.27634,3.57439 -0.98787,0.72722 -2.82631,1.51529 -4.23748,1.81645 -0.89552,0.19111 -2.32227,0.23311 -3.05828,0.09 z"
       id="path166" />
    <path
       style="fill:#ffe680;fill-opacity:1;stroke-width:0.0865446"
       d="m 89.960358,148.59526 c -0.547394,-0.0912 -1.384713,-0.19644 -1.860708,-0.23392 l -0.865446,-0.0681 0.519267,-0.26805 c 0.890939,-0.45991 4.963929,-2.1263 7.78627,-3.18562 1.822187,-0.68392 5.458199,-1.74674 5.700029,-1.66613 0.0533,0.0178 -0.17473,0.18049 -0.50675,0.3616 -1.117655,0.60966 -4.746136,2.79934 -6.185799,3.73293 -2.458289,1.59415 -2.19547,1.46176 -2.934864,1.47836 -0.361205,0.008 -1.104604,-0.0598 -1.651999,-0.15103 z"
       id="path168" />
    <path
       style="fill:#ffe680;fill-opacity:1;stroke-width:0.0865446"
       d="m 124.98206,146.81315 c -0.19097,-0.19097 0.0684,-1.66937 0.33784,-1.92574 0.13327,-0.1268 0.13961,-0.11268 0.0859,0.19142 -0.11538,0.65336 0.14036,0.87906 1.10846,0.97824 0.31554,0.0323 0.57371,0.0895 0.57371,0.12709 0,0.0376 -0.10261,0.14903 -0.22803,0.24769 -0.17737,0.13952 -0.35523,0.17998 -0.80054,0.18212 -0.36562,0.002 -0.63321,0.0487 -0.7405,0.12982 -0.18656,0.1411 -0.25169,0.15452 -0.33685,0.0694 z"
       id="path170" />
    <path
       style="fill:#ffe680;fill-opacity:1;stroke-width:0.0152991"
       d="m 30.002364,235.34014 c -0.235743,-0.12658 -0.97887,-0.76914 -1.889434,-1.63373 -0.577893,-0.54872 -2.830327,-2.74554 -2.830327,-2.76045 0,-0.007 0.204244,-0.15497 0.453876,-0.32914 l 0.453875,-0.31666 0.123617,0.1195 c 0.06799,0.0657 0.26133,0.25399 0.429645,0.41838 0.168316,0.16438 0.567606,0.55336 0.887312,0.86439 2.002157,1.94785 2.590827,2.53993 2.856548,2.87312 0.177662,0.22277 0.22628,0.33755 0.179786,0.42442 -0.0088,0.0164 -0.07243,0.0581 -0.141516,0.0928 -0.147852,0.0742 -0.346178,0.19898 -0.385587,0.24253 -0.03323,0.0367 -0.07565,0.0382 -0.137795,0.005 z"
       id="path172" />
    <path
       style="fill:#ffe680;fill-opacity:1;stroke-width:0.0152991"
       d="m 33.596405,232.72174 c -0.324002,-0.17868 -1.280772,-1.04184 -2.597341,-2.34323 -0.900901,-0.89051 -1.54978,-1.59957 -1.715222,-1.87432 -0.05787,-0.0961 -0.06726,-0.14106 -0.03225,-0.15449 0.146778,-0.0563 1.273472,0.9251 2.733091,2.38069 1.169207,1.16599 1.7965,1.88683 1.749208,2.01007 -0.01348,0.0351 -0.04848,0.0304 -0.137489,-0.0187 z"
       id="path174" />
    <path
       style="fill:#1a1a1a;fill-opacity:1;stroke-width:0.0865446"
       d="m 102.80184,139.68059 c 0.28431,-0.5239 5.56974,-5.82013 5.80826,-5.82013 0.0456,0 0.0636,0.1071 0.0401,0.238 -0.54679,3.04114 -0.7327,4.03245 -0.76166,4.06142 -0.076,0.076 -4.85598,1.67216 -5.0075,1.67216 -0.12732,0 -0.14404,-0.032 -0.0792,-0.15145 z"
       id="path202" />
    <path
       style="fill:#1a1a1a;fill-opacity:1;stroke-width:0.0865446"
       d="m 112.10924,136.08899 c 0.0716,-0.76021 0.48398,-3.47993 0.82345,-5.43021 l 0.24848,-1.42753 5.43893,-5.40949 c 5.33006,-5.30122 7.91121,-7.78948 8.08027,-7.78948 0.0466,0 0.0847,0.22394 0.0847,0.49763 -2.5e-4,1.29086 -0.49942,6.67555 -0.71895,7.75532 l -0.10313,0.50722 -3.72141,0.93331 c -2.04678,0.51332 -3.93562,1.00556 -4.19742,1.09386 l -0.47599,0.16055 -0.14472,0.73563 c -0.0796,0.4046 -0.38616,2.33238 -0.68125,4.28396 -0.29509,1.95158 -0.56099,3.57225 -0.59091,3.60149 -0.1313,0.12837 -3.62914,1.11519 -3.95285,1.11519 -0.13173,0 -0.14165,-0.0698 -0.0892,-0.62745 z"
       id="path204" />
    <path
       style="fill:#1a1a1a;fill-opacity:1;stroke-width:0.0865446"
       d="m 120.24994,134.22828 c 0.0208,-0.1309 0.1837,-1.16395 0.36193,-2.29568 0.17823,-1.13172 0.34645,-2.0939 0.37381,-2.13818 0.0274,-0.0443 1.27528,-0.35606 2.77315,-0.69284 2.74917,-0.61813 4.83145,-1.14706 5.33292,-1.35465 0.23892,-0.0989 0.27907,-0.16431 0.32315,-0.52639 0.0982,-0.80667 0.23174,-2.46131 0.57474,-7.12066 0.3467,-4.70957 0.61282,-7.46616 0.77816,-8.06027 0.10746,-0.38616 0.40967,-0.78533 0.56789,-0.7501 0.11155,0.0248 1.09618,0.97361 8.73403,8.41599 1.80878,1.7625 3.68788,3.59222 4.17577,4.06605 0.4879,0.47383 0.88709,0.8946 0.88709,0.93504 0,0.0404 -1.06833,1.27057 -2.37406,2.73362 l -2.37407,2.66008 -1.71517,0.29051 c -0.94334,0.15978 -1.75411,0.29507 -1.80171,0.30065 -0.0904,0.0106 -0.089,-0.9864 0.0121,-9.08558 l 0.0541,-4.33577 -0.2035,-0.0532 c -0.11192,-0.0293 -0.74278,-0.10146 -1.4019,-0.16043 -0.97528,-0.0873 -1.21125,-0.0864 -1.26742,0.004 -0.10802,0.17477 -0.27703,3.48385 -0.48012,9.39998 -0.0752,2.18958 -0.15738,4.21743 -0.18272,4.50633 l -0.0461,0.52528 -1.74731,0.36613 c -1.98896,0.41677 -5.1077,1.13296 -8.74173,2.00746 -1.37176,0.3301 -2.5294,0.60018 -2.57254,0.60018 -0.0431,0 -0.0614,-0.1071 -0.0406,-0.238 z"
       id="path206" />
    <path
       style="fill:#1a1a1a;fill-opacity:1;stroke-width:0.0865446"
       d="m 139.17043,117.03822 c -3.81315,-3.71482 -6.933,-6.76534 -6.933,-6.77893 0,-0.0136 0.79787,-0.79367 1.77304,-1.73353 l 1.77303,-1.70883 7.81178,-1.93348 c 7.37596,-1.82562 12.20602,-3.04975 12.8651,-3.26054 l 0.29337,-0.0938 -0.0522,-0.70329 c -0.0555,-0.74765 -0.34669,-1.931688 -0.51811,-2.106486 -0.0807,-0.08225 -0.32829,-0.05845 -1.14154,0.10969 -1.52486,0.315267 -4.86709,1.117 -9.94281,2.385076 -2.46978,0.61703 -4.52559,1.11017 -4.56848,1.09587 -0.15179,-0.0506 2.59654,-2.814026 2.9791,-2.995473 0.35075,-0.166354 1.78052,-0.506193 10.06093,-2.391355 6.04684,-1.376655 9.3157,-2.155952 9.43839,-2.250115 0.13465,-0.103342 0.24149,-1.542007 0.38902,-5.238748 l 0.095,-2.379976 0.71082,-0.735628 c 0.39095,-0.404596 4.85696,-5.00028 9.92447,-10.212632 5.06751,-5.212352 9.43438,-9.710664 9.70416,-9.99625 l 0.4905,-0.519246 -0.12663,-3.327167 -0.12664,-3.327167 0.90773,-0.907721 0.90772,-0.907721 1.50158,1.465812 c 0.82587,0.806197 3.3011,3.217036 5.50052,5.357419 2.19942,2.140384 3.99894,3.92212 3.99894,3.959415 0,0.03729 -0.16551,0.06806 -0.36781,0.06837 -1.4065,0.0021 -6.14403,0.324981 -6.44432,0.439151 -0.23732,0.09023 -0.2506,0.331727 -0.0965,1.754355 l 0.10173,0.939169 1.08838,-0.05127 c 0.59861,-0.0282 1.67111,-0.07623 2.38334,-0.106743 l 1.29495,-0.05547 -0.4443,0.509015 c -0.24436,0.279959 -0.65605,0.716421 -0.91485,0.969918 l -0.47056,0.460903 -2.58699,0.383777 c -3.9754,0.589746 -5.1672,0.80777 -5.2915,0.968016 -0.0595,0.0767 -0.10828,0.258588 -0.10841,0.404189 -3.4e-4,0.414363 0.27308,2.352974 0.34925,2.476223 0.0706,0.11423 1.39229,-0.06416 3.22255,-0.434944 0.41738,-0.08456 0.77802,-0.122759 0.80142,-0.0849 0.0683,0.110494 -3.70662,4.247577 -22.58122,24.747714 l -6.81282,7.39956 -5.42584,0.95997 c -6.63032,1.17308 -9.02895,1.64786 -9.15532,1.8122 -0.0998,0.1298 -0.22136,1.06851 -0.86138,6.65292 -0.32459,2.83207 -0.37541,3.47159 -0.28245,3.55396 0.0624,0.0553 0.44885,0.39974 0.85891,0.76553 0.41005,0.3658 0.77347,0.66509 0.8076,0.66509 0.12907,0 0.83118,-0.63588 0.98988,-0.89649 0.27758,-0.45583 0.43681,-1.04688 0.84178,-3.12454 0.59769,-3.06639 0.90747,-4.49378 0.99963,-4.60593 0.0462,-0.0563 0.6754,-0.24442 1.39814,-0.41808 2.40061,-0.57685 5.87911,-1.34759 5.96009,-1.32059 0.0439,0.0146 -1.08084,1.29366 -2.49945,2.84228 -2.5883,2.82551 -6.06317,6.66405 -6.94768,7.6748 -0.26034,0.2975 -0.49938,0.54091 -0.5312,0.54091 -0.0318,0 -3.17771,-3.03941 -6.99086,-6.75423 z m 7.69304,-7.44189 c 6.21173,-1.29382 11.37881,-2.40566 11.48239,-2.47076 0.23779,-0.14946 4.24181,-4.34303 10.80071,-11.311999 l 5.10401,-5.423114 0.53984,-3.918251 c 0.29691,-2.155038 0.54127,-3.947402 0.54303,-3.983032 0.002,-0.03563 3.58421,-3.73541 7.96102,-8.221734 l 7.95785,-8.156954 -1.16055,-1.152808 -1.16055,-1.152808 -1.88947,1.93171 c -1.03921,1.062439 -4.1044,4.209994 -6.81153,6.994566 -2.70714,2.784572 -5.52176,5.669412 -6.25473,6.410754 l -1.33267,1.347896 -0.469,3.931323 c -0.25795,2.162228 -0.47943,3.976623 -0.49217,4.031989 -0.0127,0.05537 -3.30135,3.560422 -7.30802,7.789012 l -7.28485,7.68835 -8.20663,1.67937 c -14.64096,2.99608 -14.39892,2.93527 -15.19779,3.81804 -0.67981,0.75123 -0.73944,0.89065 -0.53958,1.26175 0.0895,0.1662 0.4434,0.56878 0.78644,0.89464 l 0.62372,0.59247 0.50723,-0.114 c 0.27898,-0.0627 5.58956,-1.17259 11.8013,-2.46641 z"
       id="path208" />
    <path
       style="fill:#1a1a1a;fill-opacity:1;stroke-width:0.0865446"
       d="m 148.16164,94.643616 c 0,-0.06399 20.65635,-20.636033 28.17267,-28.057691 2.92027,-2.883492 4.18679,-4.067039 4.35214,-4.067039 0.0339,0 0.0301,0.49655 -0.008,1.103444 -0.0694,1.095335 -0.0721,1.105669 -0.36027,1.406349 -0.15968,0.166598 -4.89362,5.034731 -10.51986,10.818072 l -10.22954,10.515166 0.0302,2.801453 0.0302,2.801454 -3.80796,0.931563 c -3.76998,0.922271 -7.51797,1.817081 -7.61101,1.817081 -0.0265,0 -0.0482,-0.03143 -0.0482,-0.06985 z"
       id="path210" />
    <path
       style="fill:#1a1a1a;fill-opacity:1;stroke-width:0.0865446"
       d="m 216.12373,45.477578 c -0.0288,-1.011908 -0.0959,-5.452098 -0.14917,-9.867089 l -0.0969,-8.027255 2.29994,-2.365326 c 3.08813,-3.175931 6.26405,-6.291214 6.7651,-6.635948 l 0.40865,-0.281157 -0.0636,1.569129 -0.0637,1.569129 h 0.34481 c 0.36165,0 1.65844,-0.206798 2.19738,-0.350417 0.21648,-0.05769 0.33026,-0.14483 0.36285,-0.277899 0.0261,-0.106622 0.14867,-1.401155 0.27234,-2.87674 0.12367,-1.475585 0.24467,-2.810376 0.26889,-2.966202 0.0345,-0.222189 0.32789,-0.572835 1.35955,-1.625099 l 1.3155,-1.341779 4.59814,4.481071 c 2.52898,2.464588 4.60398,4.519787 4.61112,4.567109 0.007,0.04964 -1.22319,0.239451 -2.90889,0.448652 -3.84066,0.476637 -3.68052,0.444209 -3.77182,0.763732 -0.0408,0.142658 -0.37322,1.900436 -0.7388,3.906172 l -0.66467,3.646793 -1.51453,1.742429 -1.51453,1.74243 -0.0552,-0.80236 c -0.0304,-0.441298 -0.0596,-1.358951 -0.0649,-2.039229 l -0.01,-1.236869 -0.67072,0.05879 c -0.3689,0.03233 -0.98228,0.102111 -1.36308,0.155062 l -0.69235,0.09627 -0.0545,0.898587 c -0.03,0.494222 -0.0829,2.110936 -0.11767,3.592697 l -0.0631,2.694111 -1.92358,1.98638 -1.92358,1.98638 -0.0549,-1.078759 c -0.0302,-0.593319 -0.10193,-2.315645 -0.15938,-3.827394 l -0.10445,-2.748633 0.82051,-0.842967 c 0.83767,-0.860598 11.01612,-11.698198 11.63314,-12.386491 l 0.33999,-0.379274 -1.24304,-1.20648 c -0.68367,-0.663563 -1.27432,-1.174428 -1.31255,-1.135255 -0.0382,0.03917 -3.22949,3.362081 -7.09169,7.38424 l -7.02218,7.313017 0.0539,2.639609 c 0.0297,1.451785 0.10831,4.411517 0.17478,6.577181 l 0.12085,3.937572 -0.23366,0.246421 c -0.12851,0.135533 -0.68694,0.671462 -1.24095,1.190957 l -1.00729,0.944534 z"
       id="path212" />
    <path
       style="fill:#1a1a1a;fill-opacity:1;stroke-width:0.0865446"
       d="m 192.78547,61.968936 c -2.91199,-2.894628 -5.41485,-5.414847 -5.56191,-5.600487 l -0.26737,-0.337526 1.16729,-1.133732 c 2.29176,-2.225881 4.57818,-4.379153 4.64993,-4.379153 0.0401,0 0.0569,0.126572 0.0373,0.28127 -0.0848,0.668721 -0.49679,3.28139 -0.9859,6.252846 l -0.52708,3.202149 1.24246,1.190635 c 1.24196,1.190162 1.51229,1.386843 1.63445,1.189177 0.0838,-0.135571 0.54481,-2.962674 1.25604,-7.702303 0.31071,-2.070579 0.58236,-3.813371 0.60367,-3.87287 0.0299,-0.08338 0.65309,-0.108181 2.7187,-0.108181 1.47398,0 2.77116,-0.03467 2.88261,-0.07704 0.11145,-0.04237 2.04177,-1.967126 4.28959,-4.277224 l 4.08695,-4.200178 0.003,-4.57196 0.003,-4.57196 1.23827,-1.266693 1.23827,-1.266693 0.056,1.419531 c 0.0894,2.267383 0.17606,17.558427 0.10477,18.493045 -0.0596,0.782119 -0.0808,0.855257 -0.26732,0.926186 -0.34142,0.129811 -2.93467,0.578647 -6.74732,1.16782 -3.8627,0.596907 -5.97195,0.966239 -6.1938,1.084539 -0.17412,0.09285 -0.2905,0.607294 -1.50973,6.673322 -0.54759,2.724402 -0.96609,4.982945 -0.93,5.018983 0.0361,0.03604 0.3375,0.297034 0.6698,0.57999 l 0.60418,0.514466 0.67614,-0.563952 c 0.37188,-0.310173 0.69894,-0.541154 0.72681,-0.513289 0.0497,0.04965 -1.38919,1.632118 -1.53228,1.685233 -0.04,0.01486 -2.45531,-2.341318 -5.36731,-5.235947 z"
       id="path214" />
    <path
       style="fill:#1a1a1a;fill-opacity:1;stroke-width:0.0865446"
       d="m 200.23262,42.894017 c 5.57205,-5.526614 6.27981,-6.203359 6.38142,-6.101751 0.0327,0.03269 0.0754,1.145445 0.0949,2.472779 l 0.0354,2.413334 -2.75031,3.01348 c -1.51268,1.657415 -2.81596,3.08421 -2.89619,3.170656 -0.12991,0.139976 -0.44331,0.170462 -2.8639,0.278589 -1.49491,0.06678 -2.87381,0.12061 -3.06421,0.119629 l -0.34617,-0.0018 z"
       id="path216" />
    <path
       style="fill:#1a1a1a;fill-opacity:1;stroke-width:0.0865446"
       d="m 201.13904,63.491274 c 0.43768,-0.636283 0.59114,-1.228082 1.09118,-4.208098 0.24583,-1.46506 0.45191,-2.669704 0.45794,-2.676988 0.0325,-0.03919 5.80727,-0.883251 5.83732,-0.853202 0.13198,0.131984 -7.3615,8.179462 -7.61638,8.179462 -0.0404,0 0.063,-0.198528 0.22994,-0.441174 z"
       id="path218" />
    <path
       style="fill:#1a1a1a;fill-opacity:1;stroke-width:0.0865446"
       d="m 235.28685,26.615992 c 0.002,-0.06274 0.11045,-0.561942 0.24095,-1.109336 l 0.23727,-0.995263 0.60286,-0.06749 c 0.95162,-0.106535 0.95668,-0.10212 0.57231,0.500214 -0.5535,0.867374 -1.66363,1.989922 -1.65339,1.671876 z"
       id="path220" />
    <path
       style="fill:#ff8080;fill-opacity:1;stroke-width:0.0618447"
       d="m 108.49019,137.79979 c -0.0535,-0.13949 0.08,-1.07124 0.41221,-2.87698 l 0.30099,-1.6359 0.45086,-0.44027 c 0.24797,-0.24215 1.01429,-0.99272 1.70293,-1.66792 0.68864,-0.67521 1.26523,-1.21449 1.28131,-1.1984 0.0161,0.0161 -0.24121,1.61309 -0.57178,3.54891 l -0.60102,3.51966 -0.8349,0.26832 c -0.73469,0.23612 -1.37321,0.41326 -1.93401,0.53652 -0.12046,0.0265 -0.18188,0.0104 -0.20659,-0.0539 z"
       id="path325" />
    <path
       style="fill:#ff8080;fill-opacity:1;stroke-width:0.0618447"
       d="m 116.71726,135.03498 c 0.0767,-0.69791 0.34362,-2.64315 0.56742,-4.13505 0.42958,-2.86369 0.63387,-3.63855 0.99609,-3.77798 0.0953,-0.0367 1.30049,-0.3438 2.67808,-0.68244 3.36085,-0.82617 4.47597,-1.12962 5.23767,-1.4253 0.25287,-0.0982 0.32811,-0.15951 0.35437,-0.28899 0.0535,-0.26385 0.27159,-3.01885 0.49651,-6.27297 l 0.20848,-3.01636 0.61971,-0.6634 c 0.34083,-0.36487 0.98343,-1.02479 1.42799,-1.46649 l 0.80828,-0.80308 -0.003,0.2774 c -0.001,0.15258 -0.23231,3.51448 -0.51309,7.47089 -0.35677,5.02692 -0.53279,7.20724 -0.58444,7.23916 -0.0407,0.0251 -1.93138,0.47049 -4.20162,0.9897 -2.27024,0.5192 -4.13614,0.95244 -4.14645,0.96275 -0.0103,0.0103 -0.12798,0.63479 -0.26148,1.38775 -0.40627,2.29124 -0.6768,3.57738 -0.79042,3.75787 -0.0704,0.11173 -1.97208,0.67849 -2.66616,0.79456 l -0.27161,0.0454 z"
       id="path327" />
    <path
       style="fill:#ff8080;fill-opacity:1;stroke-width:0.0618447"
       d="m 133.88427,130.15114 c -2.1e-4,-1.91287 0.38134,-12.70228 0.45168,-12.77262 0.0497,-0.0497 1.49739,0.0831 1.78389,0.16367 0.15284,0.043 0.2364,0.10787 0.25933,0.20141 0.0186,0.0759 0.0531,0.68071 0.0766,1.34399 0.0468,1.3209 -0.0856,11.63209 -0.15026,11.69951 -0.0626,0.0653 -1.6233,0.41813 -2.04377,0.46208 l -0.3773,0.0394 z"
       id="path329" />
    <path
       style="fill:#ff8080;fill-opacity:1;stroke-width:0.0618447"
       d="m 145.11814,123.8783 c -1.95201,-1.66555 -11.83548,-11.30338 -13.05346,-12.72905 -0.97499,-1.14123 0.75698,0.33981 3.64413,3.11619 5.05028,4.8565 9.72432,9.51644 9.92917,9.8992 0.11135,0.20807 -0.0346,0.12765 -0.51984,-0.28634 z"
       id="path331" />
    <path
       style="fill:#ff8080;fill-opacity:1;stroke-width:0.0618447"
       d="m 145.24327,122.01026 c -0.31184,-0.29734 -0.58207,-0.56098 -0.60052,-0.58585 -0.0824,-0.11106 1.01243,-9.47899 1.12341,-9.61271 0.12882,-0.15522 2.90419,-0.71793 8.34144,-1.69122 1.92183,-0.34401 3.85594,-0.69131 4.29804,-0.77177 0.4421,-0.0805 0.81431,-0.13581 0.82714,-0.12298 0.0293,0.0294 -0.73688,1.10507 -1.22164,1.71509 -0.41334,0.52014 -0.96602,0.9205 -1.63589,1.18502 -0.56997,0.22508 -1.82376,0.53617 -5.20338,1.29105 l -2.84297,0.63501 -0.20404,1.11088 c -0.76616,4.17121 -1.0987,5.73395 -1.38033,6.48668 -0.16544,0.44216 -0.56409,0.90143 -0.78246,0.90143 -0.10638,0 -0.32153,-0.16182 -0.7188,-0.54063 z"
       id="path333" />
    <path
       style="fill:#ff8080;fill-opacity:1;stroke-width:0.0618447"
       d="m 136.78081,106.01011 c 0.10158,-0.12825 0.78898,-0.86394 1.52756,-1.63487 l 1.34287,-1.40168 6.84165,-1.70089 c 7.10922,-1.767414 8.83795,-2.18703 9.09899,-2.208604 0.29847,-0.02467 0.35842,0.0084 0.4557,0.251535 0.12625,0.315554 0.3205,1.655939 0.26921,1.857639 -0.0363,0.14258 -0.1202,0.17525 -1.07787,0.41964 -2.25324,0.575 -18.24393,4.57432 -18.43709,4.61118 l -0.20571,0.0392 z"
       id="path335" />
    <path
       style="fill:#ff8080;fill-opacity:1;stroke-width:0.0618447"
       d="m 134.40164,111.40201 c -0.31317,-0.14353 -0.70709,-0.70152 -0.70709,-1.00159 0,-0.18994 0.25982,-0.73868 0.44246,-0.93448 0.3219,-0.34508 1.4761,-0.67625 4.90711,-1.40797 1.85589,-0.39581 12.07097,-2.48799 16.6906,-3.41846 l 1.47681,-0.29745 3.53024,-3.67976 c 1.94164,-2.023872 3.81126,-3.97198 4.15473,-4.329133 3.30023,-3.431756 7.20373,-7.719232 7.20348,-7.912078 -6e-5,-0.05324 0.19671,-1.794446 0.43729,-3.869336 l 0.43741,-3.772526 0.41925,-0.432913 c 1.35711,-1.401333 14.52413,-14.937179 14.9741,-15.39354 l 0.54309,-0.550813 0.87117,0.829115 c 0.47915,0.456012 0.86423,0.848962 0.85574,0.87322 -0.008,0.02426 -3.36896,3.48457 -7.46772,7.689582 -4.09876,4.205012 -7.61582,7.825163 -7.81569,8.04478 l -0.36341,0.399304 -0.5488,3.939631 c -0.30184,2.166797 -0.54881,3.960039 -0.54881,3.984982 0,0.02494 -3.49639,3.740386 -7.76976,8.256542 -4.27337,4.516153 -7.81524,8.259613 -7.87084,8.318803 -0.13248,0.14106 -18.45091,3.97382 -21.6476,4.52933 -1.16612,0.20265 -1.95093,0.25064 -2.20376,0.13476 z"
       id="path337" />
    <path
       style="fill:#ff8080;fill-opacity:1;stroke-width:0.0618447"
       d="m 144.45553,98.425204 c 0,-0.111588 1.1658,-1.28989 2.41194,-2.437809 l 0.77306,-0.712125 3.61792,-0.878272 c 1.98985,-0.483049 4.74503,-1.152121 6.12262,-1.486826 l 2.50471,-0.608554 0.0455,-0.396168 c 0.0251,-0.217893 0.0621,-1.522585 0.0823,-2.899316 0.0324,-2.207721 0.0489,-2.51885 0.13998,-2.636203 0.0568,-0.07318 4.7709,-4.921653 10.47579,-10.774384 l 10.37253,-10.641328 0.0697,-1.410583 c 0.0384,-0.775822 0.0959,-1.481471 0.12791,-1.56811 0.032,-0.08664 0.58354,-0.682359 1.22568,-1.323823 l 1.16751,-1.166298 0.0347,0.272463 c 0.11631,0.912724 0.27128,4.305105 0.23463,5.136471 l -0.0208,0.473034 -5.17483,5.375785 c -2.84615,2.956682 -7.49864,7.789822 -10.33886,10.740311 l -5.16403,5.364526 -0.0436,0.413457 c -0.024,0.227402 -0.10154,1.804964 -0.1724,3.505693 -0.0709,1.700729 -0.14218,3.154623 -0.15849,3.230875 -0.0596,0.278825 -0.73582,0.523015 -3.02701,1.093103 -2.90557,0.722958 -14.9417,3.437531 -15.24164,3.437531 -0.0357,0 -0.0649,-0.04655 -0.0649,-0.10345 z"
       id="path339" />
    <path
       style="fill:#ff8080;fill-opacity:1;stroke-width:0.0618447"
       d="m 190.29638,69.693565 0.017,-1.004976 1.14413,-0.0712 c 2.06131,-0.12827 5.28445,-0.282202 5.44161,-0.259883 0.13813,0.01962 0.0488,0.129296 -0.87236,1.0709 l -1.02625,1.049045 -2.03434,0.10646 c -1.11889,0.05855 -2.18114,0.108297 -2.36056,0.110543 l -0.32622,0.0041 z"
       id="path341" />
    <path
       style="fill:#ff8080;fill-opacity:1;stroke-width:0.0618447"
       d="m 185.678,76.434637 c -0.0904,-0.217606 -0.18937,-0.848426 -0.25196,-1.605517 -0.0383,-0.463244 -0.0353,-0.477806 0.10478,-0.510305 0.0793,-0.0184 1.59136,-0.2417 3.36012,-0.496223 1.76876,-0.254523 3.27854,-0.473266 3.35508,-0.486095 0.0765,-0.01283 0.13915,-0.0037 0.13915,0.02032 0,0.0721 -0.58359,0.718647 -1.54543,1.71213 l -0.90814,0.938025 -1.23009,0.225049 c -1.4174,0.259318 -2.36866,0.400857 -2.70496,0.402478 -0.2073,9.99e-4 -0.24494,-0.02261 -0.31855,-0.199862 z"
       id="path343" />
    <path
       style="fill:#ff8080;fill-opacity:1;stroke-width:0.0618447"
       d="m 197.19432,67.39192 c -1.85993,-1.534161 -10.86993,-10.387585 -10.86993,-10.681036 0,-0.113816 0.13267,-0.03068 0.62649,0.392589 2.15815,1.849801 10.38499,9.930881 10.68977,10.500369 0.10942,0.204463 -0.0106,0.147458 -0.44633,-0.211922 z"
       id="path345" />
    <path
       style="fill:#ff8080;fill-opacity:1;stroke-width:0.0618447"
       d="m 198.05204,65.942118 c -0.26762,-0.210512 -0.53377,-0.645506 -0.5337,-0.872279 2.2e-4,-0.660776 1.71761,-9.349874 2.11496,-10.70052 0.0645,-0.2191 0.085,-0.232982 0.47591,-0.321494 0.70264,-0.159102 3.1483,-0.570239 5.88179,-0.988781 4.96415,-0.760095 5.63284,-0.857401 5.66577,-0.824469 0.0603,0.06028 -1.3932,1.943526 -1.76733,2.289903 -0.4281,0.396341 -0.83102,0.602331 -1.51851,0.776315 -0.47008,0.118963 -2.36431,0.425736 -4.85372,0.786063 -0.62927,0.09108 -1.15077,0.171136 -1.15889,0.177894 -0.008,0.0068 -0.16869,0.952108 -0.3568,2.100775 -0.53249,3.251511 -0.68809,3.968963 -0.98552,4.544138 -0.0566,0.109406 -0.32863,0.454857 -0.60456,0.767668 -0.27593,0.312811 -0.79026,0.922316 -1.14295,1.354454 -0.5937,0.727427 -0.8958,1.038712 -1.00808,1.038712 -0.0248,0 -0.1186,-0.05777 -0.20837,-0.128379 z"
       id="path347" />
    <path
       style="fill:#ff8080;fill-opacity:1;stroke-width:0.0618447"
       d="m 193.37343,61.657132 c -0.2204,-0.184367 -0.67711,-0.615132 -1.0149,-0.957258 l -0.61417,-0.622047 0.0769,-0.513351 c 0.23064,-1.539388 1.20302,-7.328562 1.36771,-8.142784 0.22498,-1.112313 0.43876,-1.824614 0.6337,-2.111488 0.35466,-0.521898 1.05159,-0.645045 4.71604,-0.833321 0.98642,-0.05068 1.99639,-0.108953 2.24437,-0.129492 l 0.45089,-0.03734 2.97391,-3.147651 2.97391,-3.14765 -0.008,-2.923079 -0.008,-2.923079 1.21215,-1.225948 c 0.66669,-0.67427 1.22067,-1.216958 1.23107,-1.205971 0.0104,0.01099 0.0365,1.912423 0.0579,4.225415 l 0.039,4.205439 -4.0485,4.143594 -4.0485,4.143595 -1.96772,0.04373 c -2.15746,0.04795 -3.72183,0.139522 -3.80504,0.222736 -0.11814,0.11814 -0.47074,2.158641 -1.25238,7.247662 -0.65352,4.254781 -0.60511,3.984233 -0.71662,4.005707 -0.0508,0.0098 -0.27273,-0.133051 -0.49314,-0.317417 z"
       id="path349" />
    <path
       style="fill:#ff8080;fill-opacity:1;stroke-width:0.0618447"
       d="m 226.78029,33.915029 c 0.0192,-1.050858 0.051,-2.414527 0.0706,-3.030376 l 0.0357,-1.119726 1.02947,-0.03401 c 0.5662,-0.0187 1.05037,-0.02108 1.07593,-0.0053 0.0256,0.01579 0.0465,0.911737 0.0465,1.990985 v 1.962271 l -0.7576,0.713769 c -0.41668,0.392573 -0.93264,0.875601 -1.14657,1.073396 l -0.38898,0.359627 z"
       id="path351" />
    <path
       style="fill:#ff8080;fill-opacity:1;stroke-width:0.0618447"
       d="m 232.99652,29.031822 c 0,-0.05243 1.24704,-6.732956 1.25932,-6.746293 0.0309,-0.0336 5.66728,-0.669982 5.66728,-0.639875 0,0.07472 -1.43146,1.642471 -1.67734,1.837045 -0.35938,0.284383 -0.759,0.414291 -1.84364,0.599323 -0.52493,0.08955 -0.96226,0.170658 -0.97184,0.18024 -0.01,0.0096 -0.10314,0.419633 -0.2079,0.911224 -0.45078,2.11525 -0.53749,2.31736 -1.32578,3.089959 -0.58613,0.574467 -0.9001,0.842491 -0.9001,0.768377 z"
       id="path353" />
    <path
       style="fill:#ff8080;fill-opacity:1;stroke-width:0.0618447"
       d="m 225.66002,20.862862 c -0.0397,-0.158376 -0.001,-1.418619 0.08,-2.605352 l 0.0392,-0.573949 1.20528,-1.143976 c 0.66291,-0.629187 1.21625,-1.133009 1.22966,-1.119605 0.0399,0.03988 -0.35668,4.689545 -0.42194,4.94728 -0.0498,0.196723 -0.10483,0.25688 -0.32332,0.353527 -0.25637,0.113406 -1.25986,0.30541 -1.5988,0.30591 -0.13127,1.91e-4 -0.17806,-0.0363 -0.21007,-0.163835 z"
       id="path355" />
    <path
       style="fill:#ff8080;fill-opacity:1;stroke-width:0.0618447"
       d="m 219.24916,43.923944 c -0.25352,-0.280142 -0.30895,-1.093347 -0.48258,-7.080199 -0.11755,-4.053176 -0.122,-4.576523 -0.04,-4.700197 0.21175,-0.319196 3.20755,-3.57023 6.97683,-7.571237 0.96688,-1.026325 2.87117,-3.048716 4.23175,-4.494202 1.36059,-1.445486 2.49843,-2.630406 2.52855,-2.633156 0.0301,-0.0028 0.51446,0.450179 1.07633,1.006508 l 1.02158,1.011508 -2.77418,2.869246 c -5.85708,6.057791 -7.03812,7.294608 -7.71089,8.075053 -0.28807,0.334177 -0.92903,1.043722 -1.42436,1.576766 l -0.9006,0.969171 0.0267,0.36049 c 0.0147,0.19827 0.0951,1.835486 0.1786,3.638259 0.0835,1.802773 0.16482,3.445122 0.18063,3.649664 l 0.0287,0.371895 -1.1559,1.389664 c -1.00495,1.208195 -1.45273,1.669994 -1.61929,1.669994 -0.0237,0 -0.0876,-0.04915 -0.14196,-0.109227 z"
       id="path357" />
    <path
       style="fill:#ff8080;fill-opacity:1;stroke-width:0.0618447"
       d="m 213.24571,49.490965 c -0.0368,-1.05587 -0.16197,-6.325987 -0.37068,-15.600324 l -0.0786,-3.494225 0.86974,-0.834217 c 1.5396,-1.476728 1.70439,-1.629541 1.729,-1.603412 0.0133,0.01413 0.12838,4.557954 0.25571,10.097391 l 0.23153,10.071706 -1.26021,1.261335 c -0.69312,0.693734 -1.27729,1.261334 -1.29815,1.261334 -0.0209,0 -0.0561,-0.521814 -0.0783,-1.159588 z"
       id="path359" />
  </g>
  <g
     inkscape:groupmode="layer"
     id="layer2"
     inkscape:label="Line"
     style="display:inline" />
  <g
     inkscape:groupmode="layer"
     id="layer1"
     inkscape:label="Real"
     style="display:inline;opacity:0.61000001" />
</svg>
