<svg xmlns="http://www.w3.org/2000/svg" xmlns:xlink="http://www.w3.org/1999/xlink" xml:space="preserve" viewBox="0 0 67.73 67.73"><defs><linearGradient id="k"><stop offset="0" style="stop-color:#362121;stop-opacity:1"/><stop offset=".31" style="stop-color:#8c5252;stop-opacity:1"/><stop offset=".52" style="stop-color:#b17878;stop-opacity:1"/><stop offset=".55" style="stop-color:#b17878;stop-opacity:1"/><stop offset=".77" style="stop-color:#8c5252;stop-opacity:1"/><stop offset="1" style="stop-color:#362121;stop-opacity:1"/></linearGradient><linearGradient id="j"><stop offset="0" style="stop-color:#474a41;stop-opacity:1"/><stop offset="1" style="stop-color:#666961;stop-opacity:1"/></linearGradient><linearGradient id="i"><stop offset="0" style="stop-color:#2e2e29;stop-opacity:1"/><stop offset=".14" style="stop-color:#2e2e29;stop-opacity:1"/><stop offset=".19" style="stop-color:#6a6d65;stop-opacity:1"/><stop offset=".31" style="stop-color:#6a6d65;stop-opacity:1"/><stop offset=".37" style="stop-color:#43463b;stop-opacity:1"/><stop offset=".62" style="stop-color:#43463b;stop-opacity:1"/><stop offset=".69" style="stop-color:#6a6d65;stop-opacity:1"/><stop offset=".83" style="stop-color:#6a6d65;stop-opacity:1"/><stop offset=".87" style="stop-color:#43463b;stop-opacity:1"/><stop offset=".94" style="stop-color:#43463b;stop-opacity:1"/><stop offset=".96" style="stop-color:#656860;stop-opacity:1"/><stop offset="1" style="stop-color:#676a62;stop-opacity:1"/></linearGradient><linearGradient id="h"><stop offset="0" style="stop-color:#94887d;stop-opacity:1"/><stop offset=".13" style="stop-color:#94887d;stop-opacity:1"/><stop offset=".26" style="stop-color:#dfdfdf;stop-opacity:1"/><stop offset=".42" style="stop-color:#dfdfdf;stop-opacity:1"/><stop offset=".54" style="stop-color:#94887d;stop-opacity:1"/><stop offset="1" style="stop-color:#94887d;stop-opacity:1"/></linearGradient><linearGradient id="g"><stop offset="0" style="stop-color:#000;stop-opacity:.61214954"/><stop offset=".31" style="stop-color:#000;stop-opacity:0"/><stop offset=".77" style="stop-color:#000;stop-opacity:0"/><stop offset="1" style="stop-color:#000;stop-opacity:.61214954"/></linearGradient><linearGradient id="f"><stop offset="0" style="stop-color:#e7edd0;stop-opacity:1"/><stop offset=".85" style="stop-color:#30302b;stop-opacity:1"/><stop offset=".87" style="stop-color:#2f2f2a;stop-opacity:1"/><stop offset=".92" style="stop-color:#6a6d65;stop-opacity:1"/><stop offset=".94" style="stop-color:#6a6d65;stop-opacity:1"/><stop offset=".98" style="stop-color:#2f2f2a;stop-opacity:1"/><stop offset="1" style="stop-color:#2f2f2a;stop-opacity:1"/></linearGradient><linearGradient id="e"><stop offset="0" style="stop-color:#2f3129;stop-opacity:1"/><stop offset=".26" style="stop-color:#2f3129;stop-opacity:1"/><stop offset=".27" style="stop-color:#abb877;stop-opacity:1"/><stop offset=".68" style="stop-color:#abb877;stop-opacity:1"/><stop offset=".69" style="stop-color:#2f3129;stop-opacity:1"/><stop offset="1" style="stop-color:#2f3129;stop-opacity:1"/></linearGradient><linearGradient id="d"><stop offset="0" style="stop-color:#929c81;stop-opacity:1"/><stop offset=".51" style="stop-color:#50544b;stop-opacity:1"/><stop offset=".71" style="stop-color:#50544b;stop-opacity:1"/><stop offset=".84" style="stop-color:#61655b;stop-opacity:1"/><stop offset=".97" style="stop-color:#50544b;stop-opacity:1"/><stop offset="1" style="stop-color:#717d60;stop-opacity:1"/></linearGradient><linearGradient id="c"><stop offset="0" style="stop-color:#362d21;stop-opacity:1"/><stop offset=".31" style="stop-color:#897755;stop-opacity:1"/><stop offset=".52" style="stop-color:#a39a86;stop-opacity:1"/><stop offset=".55" style="stop-color:#a39a86;stop-opacity:1"/><stop offset=".77" style="stop-color:#897755;stop-opacity:1"/><stop offset="1" style="stop-color:#362d21;stop-opacity:1"/></linearGradient><linearGradient id="b"><stop offset="0" style="stop-color:#50544b;stop-opacity:1"/><stop offset=".3" style="stop-color:#62655c;stop-opacity:1"/><stop offset=".38" style="stop-color:#50544b;stop-opacity:1"/><stop offset=".59" style="stop-color:#50544b;stop-opacity:1"/><stop offset=".68" style="stop-color:#62655c;stop-opacity:1"/><stop offset="1" style="stop-color:#50544b;stop-opacity:1"/></linearGradient><linearGradient id="a"><stop offset="0" style="stop-color:#929c81;stop-opacity:1"/><stop offset=".31" style="stop-color:#50544b;stop-opacity:1"/><stop offset=".86" style="stop-color:#50544b;stop-opacity:1"/><stop offset=".91" style="stop-color:#61655b;stop-opacity:1"/><stop offset=".97" style="stop-color:#50544b;stop-opacity:1"/><stop offset="1" style="stop-color:#717d60;stop-opacity:1"/></linearGradient><linearGradient xlink:href="#b" id="q" x1="113.49" x2="170.77" y1="200.11" y2="200.11" gradientUnits="userSpaceOnUse"/><linearGradient xlink:href="#c" id="o" x1="35.41" x2="39.24" y1="39.76" y2="39.76" gradientTransform="matrix(1.0055 0 0 .74586 -.06 6.3)" gradientUnits="userSpaceOnUse"/><linearGradient xlink:href="#e" id="l" x1="139.55" x2="139.95" y1="199.29" y2="101.69" gradientUnits="userSpaceOnUse"/><linearGradient xlink:href="#g" id="u" x1="21.75" x2="24.72" y1="5.38" y2="19.08" gradientUnits="userSpaceOnUse"/><linearGradient xlink:href="#i" id="m" x1="33.34" x2="42.33" y1="13.69" y2="13.3" gradientUnits="userSpaceOnUse"/><linearGradient xlink:href="#j" id="w" x1="43.77" x2="43.12" y1="4.15" y2="2.6" gradientUnits="userSpaceOnUse"/><linearGradient xlink:href="#k" id="p" x1="35.41" x2="39.24" y1="39.76" y2="39.76" gradientTransform="matrix(1.02188 0 0 .2128 -.68 41.68)" gradientUnits="userSpaceOnUse"/><radialGradient xlink:href="#a" id="r" cx="37.32" cy="60.43" r="9.54" fx="37.32" fy="60.43" gradientTransform="matrix(1 -.00282 .00347 1.23054 -.01 -13.83)" gradientUnits="userSpaceOnUse"/><radialGradient xlink:href="#d" id="n" cx="37.84" cy="19.13" r="10.9" fx="37.84" fy="19.13" gradientTransform="matrix(.9716 0 0 1.11842 1.07 -2.23)" gradientUnits="userSpaceOnUse"/><radialGradient xlink:href="#f" id="t" cx="90.63" cy="51.62" r="27.12" fx="90.63" fy="51.62" gradientTransform="matrix(-.98684 0 0 -.97976 178.47 96.59)" gradientUnits="userSpaceOnUse"/><radialGradient xlink:href="#h" id="v" cx="25.65" cy="15.47" r="1.09" fx="25.65" fy="15.47" gradientTransform="matrix(.01275 1.05231 -1.65336 .02003 50.9 -11.8)" gradientUnits="userSpaceOnUse"/><filter id="s" width="1.08" height="1.1" x="-.04" y="-.05" style="color-interpolation-filters:sRGB"><feGaussianBlur stdDeviation=".23"/></filter></defs><g style="display:inline" transform="matrix(.9024 .521 -.521 .9024 20.62 -15.37)"><path d="M113.65 104.65v99.8h57.62v-99.8Zm51 2.05c2.32 0 4.2 3.8 4.2 8.48 0 4.68-1.88 8.48-4.2 8.48-2.31 0-4.2-3.8-4.2-8.48 0-4.68 1.89-8.48 4.2-8.48zm-44.17 0c2.32 0 4.2 3.8 4.2 8.48 0 4.68-1.88 8.48-4.2 8.48-2.32 0-4.2-3.8-4.2-8.48 0-4.68 1.88-8.47 4.2-8.47zm43.92 36.13c2.32 0 4.2 3.8 4.2 8.48 0 4.68-1.88 8.48-4.2 8.48-2.32 0-4.2-3.8-4.2-8.48 0-4.68 1.88-8.48 4.2-8.48zm-44.18 0c2.32 0 4.2 3.8 4.2 8.48 0 4.68-1.88 8.48-4.2 8.48-2.31 0-4.2-3.8-4.2-8.48 0-4.68 1.89-8.48 4.2-8.48zm44.43 35.72c2.32 0 4.2 3.8 4.2 8.48 0 4.68-1.88 8.48-4.2 8.48-2.32 0-4.2-3.8-4.2-8.48 0-4.69 1.88-8.48 4.2-8.48zm-44.18 0c2.32 0 4.2 3.8 4.2 8.48 0 4.68-1.88 8.48-4.2 8.48-2.32 0-4.2-3.8-4.2-8.48 0-4.68 1.88-8.48 4.2-8.48z" style="fill:url(#l);fill-opacity:1;stroke:#020000;stroke-width:.5;stroke-linecap:round;stroke-miterlimit:4;stroke-dasharray:none;stroke-opacity:1" transform="scale(.26458)"/><path d="m40.83 6.75 3.14-2.55s.36-.29.41-.69c.05-.4-.18-.72-.89-.72-.7 0-3.42.2-3.42.2z" style="fill:#2e2e29;fill-opacity:1;stroke:#4f524a;stroke-width:.264583px;stroke-linecap:butt;stroke-linejoin:miter;stroke-opacity:1"/><path d="M33.27 14.95s-.43-1.95.56-1.95c1 0 2.09-2.12 2.09-2.12l2.05-4.2 2.15-.16 1.7-.43.03 3.93s.12 1.42.52 2.08l.06.8-.36.26s.4-.13.3 1.33" style="opacity:1;fill:url(#m);fill-opacity:1;stroke:#545c43;stroke-width:.264583px;stroke-linecap:butt;stroke-linejoin:miter;stroke-opacity:1"/><path d="m48.59 16.73-1.7-2.24H28.68l-1.6 2.18v5.02l1.89 1.89H46.7l1.91-1.95z" style="fill:url(#n);fill-opacity:1;stroke:#000;stroke-width:.264583;stroke-linecap:butt;stroke-linejoin:miter;stroke-miterlimit:4;stroke-dasharray:none;stroke-opacity:1"/><path d="M42.84 16.54v5.14c-3.99 2.1-6.15 2.09-9.94-.1v-4.9c3.72-2.43 5.97-2.4 9.94-.14z" style="fill:#50544b;fill-opacity:1;stroke:#000;stroke-width:.264583px;stroke-linecap:butt;stroke-linejoin:miter;stroke-opacity:1"/><path d="M48.59 16.73v4.66c-2.64 3.84-5.85.25-5.75.33v-5.18c3.17-4 5.77.26 5.75.2z" style="fill:#43463b;fill-opacity:1;stroke:#000;stroke-width:.264583;stroke-linecap:butt;stroke-linejoin:miter;stroke-miterlimit:4;stroke-dasharray:none;stroke-opacity:1"/><path d="M20.22 40.73s-.23 2.23-.23 2.5c.02.83.16.54.3.55.06 0 .35-2.95.43-2.99.06-.03.4-.73.44-.73.32.04.72.01.77-.33.07-.58.8-12.63.8-12.63l3.33-10.12 3.56-5.27-2.7.66-3.37 6.85-2 7.42z" style="fill:#292b25;fill-opacity:1;stroke:#545c43;stroke-width:.264583px;stroke-linecap:butt;stroke-linejoin:miter;stroke-opacity:1"/><path d="M32.9 16.76v4.66c-2.63 3.84-5.84.25-5.74.33v-5.18c3.08-3.97 5.68.03 5.75.19z" style="display:inline;fill:#43463b;fill-opacity:1;stroke:#000;stroke-width:.264583;stroke-linecap:butt;stroke-linejoin:miter;stroke-miterlimit:4;stroke-dasharray:none;stroke-opacity:1"/><rect width="6.49" height="20.86" x="34.27" y="24.87" ry=".82" style="fill:url(#o);fill-opacity:1;stroke:#020000;stroke-width:.229129;stroke-linecap:round;stroke-miterlimit:4;stroke-dasharray:none"/><rect width="6.6" height="5.95" x="34.21" y="46.97" ry=".23" style="display:inline;fill:url(#p);fill-opacity:1;stroke:#020000;stroke-width:.123382;stroke-linecap:round;stroke-miterlimit:4;stroke-dasharray:none"/><path d="M113.18 89.1v124.8h58.55V89.1Zm29.24 17.65a8.2 8.2 0 1 1 0 16.4 8.2 8.2 0 0 1 0-16.4zm-24.16.06c2.32 0 4.2 3.74 4.2 8.36 0 4.61-1.88 8.35-4.2 8.35-2.32 0-4.2-3.74-4.2-8.35 0-4.62 1.88-8.36 4.2-8.36zm48.18.09c2.32 0 4.2 3.74 4.2 8.36 0 4.61-1.88 8.35-4.2 8.35-2.32 0-4.2-3.74-4.2-8.35 0-4.62 1.88-8.36 4.2-8.36zm-52.98 32.74h57.84v24.4h-57.84zm4.76 39c2.32-.01 4.2 3.73 4.2 8.35 0 4.61-1.88 8.35-4.2 8.35-2.32 0-4.2-3.74-4.2-8.35 0-4.62 1.88-8.36 4.2-8.36zm48.17.08c2.32 0 4.2 3.74 4.2 8.35 0 4.62-1.88 8.36-4.2 8.36-2.32 0-4.2-3.74-4.2-8.36 0-4.61 1.88-8.35 4.2-8.35zm-24.64 1.08a8.2 8.2 0 1 1 0 16.4 8.2 8.2 0 0 1 0-16.4z" style="fill:url(#q);fill-opacity:1;stroke:#020000;stroke-width:1;stroke-linecap:round;stroke-miterlimit:4;stroke-dasharray:none" transform="scale(.26458)"/><path d="M29.95 33.65v11.7c5.34.93 9.53.9 15.49 0v-11.7a54.6 54.6 0 0 1-15.5 0zm1.35 4.17c.61 0 1.1.99 1.1 2.21s-.49 2.21-1.1 2.21c-.62 0-1.11-.99-1.11-2.2 0-1.23.5-2.22 1.1-2.22zm12.74.02c.62 0 1.11 1 1.11 2.21 0 1.23-.5 2.22-1.1 2.22-.62 0-1.12-1-1.12-2.22 0-1.22.5-2.2 1.11-2.2zm-6.5.04a2.17 2.17 0 1 1 0 4.34 2.17 2.17 0 0 1 0-4.34z" style="display:inline;fill:#e7edd0;fill-opacity:1;stroke:#020000;stroke-width:.264583;stroke-linecap:round;stroke-miterlimit:4;stroke-dasharray:none"/><path d="M45.56 55.2c1.48.2 1.37 1.49 1.37 1.49v7.14c.06 2.02-4.76 1.95-9.76 1.95-5.44.01-9.06.13-9.06-2.61v-6.48s.45-1.46 1.65-1.61l.08.09c-.35.33-.76 1.38 7.63 1.38 8.47 0 8.62-.57 8.02-1.1z" style="fill:url(#r);fill-opacity:1;stroke:#000;stroke-width:.264583;stroke-linecap:butt;stroke-linejoin:miter;stroke-miterlimit:4;stroke-dasharray:none;stroke-opacity:1"/><path d="M28.13 63.5c2.05 2.41 6.78 2.39 9.37.86v-5.1c-3.03-2.92-7.42-2.65-9.35-1.07z" style="fill:#62655c;fill-opacity:.962617;stroke:#000;stroke-width:.264583px;stroke-linecap:butt;stroke-linejoin:miter;stroke-opacity:1"/><path d="M46.92 63.5c-2.05 2.41-6.82 2.39-9.42.86v-5.1c3.04-2.92 7.43-2.65 9.36-1.07z" style="display:inline;fill:#62655c;fill-opacity:.962617;stroke:#000;stroke-width:.264583px;stroke-linecap:butt;stroke-linejoin:miter;stroke-opacity:1"/><text xml:space="preserve" x="34.88" y="20.05" style="font-style:normal;font-variant:normal;font-weight:700;font-stretch:normal;font-size:2.09095px;line-height:1.25;font-family:sans-serif;-inkscape-font-specification:&quot;sans-serif Bold&quot;;fill:#c9dad5;fill-opacity:1;stroke:none;stroke-width:.0522739;stroke-miterlimit:4;stroke-dasharray:none"><tspan x="34.88" y="20.05" style="font-style:normal;font-variant:normal;font-weight:700;font-stretch:normal;font-family:sans-serif;-inkscape-font-specification:&quot;sans-serif Bold&quot;;fill:#c9dad5;fill-opacity:1;stroke-width:.0522739;stroke-miterlimit:4;stroke-dasharray:none">M-84</tspan></text><text xml:space="preserve" x="72.68" y="11.72" style="font-style:normal;font-variant:normal;font-weight:700;font-stretch:normal;font-size:1.31755px;line-height:1.25;font-family:sans-serif;-inkscape-font-specification:&quot;sans-serif Bold&quot;;text-align:center;text-anchor:middle;display:inline;fill:#c9dad5;fill-opacity:1;stroke:none;stroke-width:.0329388;stroke-miterlimit:4;stroke-dasharray:none" transform="scale(.63012 1.587)"><tspan x="72.68" y="11.72" style="font-style:normal;font-variant:normal;font-weight:700;font-stretch:normal;font-family:sans-serif;-inkscape-font-specification:&quot;sans-serif Bold&quot;;text-align:center;text-anchor:middle;fill:#c9dad5;fill-opacity:1;stroke-width:.0329388;stroke-miterlimit:4;stroke-dasharray:none">P/N</tspan><tspan x="72.68" y="13.36" style="font-style:normal;font-variant:normal;font-weight:700;font-stretch:normal;font-family:sans-serif;-inkscape-font-specification:&quot;sans-serif Bold&quot;;text-align:center;text-anchor:middle;fill:#c9dad5;fill-opacity:1;stroke-width:.0329388;stroke-miterlimit:4;stroke-dasharray:none">1888-001</tspan></text><path d="m28.52 12.74.25 1.28.8.33h.77l.47-.26.01-1.64-2.3.29" style="fill:#292b25;fill-opacity:1;stroke:#484848;stroke-width:.264583;stroke-linecap:round;stroke-linejoin:miter;stroke-miterlimit:4;stroke-dasharray:none;stroke-opacity:1"/><path d="M28.01 12.77h7.54s.04-.5.57-1.03c.52-.53.72-.96 2.74-.93v-3.7h2.02v-4.2l-.37-.1v-.7h-.92l-9.03.5-1.49.57z" style="display:inline;fill:#43463b;fill-opacity:1;stroke:none;stroke-width:.264583px;stroke-linecap:butt;stroke-linejoin:miter;stroke-opacity:1"/><path d="m40.85 6.96.03-4.05-.37-.1v-.7h-.92l-9.03.5-1.49.57-1.06 9.59h7.4" style="fill:none;fill-opacity:1;stroke:#535b42;stroke-width:.264583;stroke-linecap:round;stroke-linejoin:miter;stroke-miterlimit:4;stroke-dasharray:none;stroke-opacity:1"/><path d="M28.52 12.74s5.8-3.51 2.59-7.2l4-1.67 3.37-.33 1.94-1.01.09-.41-8.7.22-2.36.36-.68 1.27-1.85 8.4.13.73z" style="fill:#2e2e29;fill-opacity:1;stroke:none;stroke-width:.264583px;stroke-linecap:butt;stroke-linejoin:miter;stroke-opacity:1;filter:url(#s)"/><path d="m20.83 26.49 7.95-23.32s.17-.6.94-.78c.77-.2 9.62-.54 10.36-.5.74.04 1.73-.26 2.01.8.29 1.07.52 1.8 1.4 1.68.88-.11 1.04-.58 1.05-.84 0-.26.22-.05.1.34-.13.39-.64.9-1.7.55s-.64-2.28-1.74-2.31c-1.1-.03-1.7 0-1.7 0v.35l-1.14.67-3.52.17-2.7 1.09s-1.02.45-1.32-.08l-.7-1.18s-.22-.47-.66.1c-.45.58-.34.5.05 1.05.38.55 1.73 2.45 1.73 3.62 0 1.18-2.64 3.89-5.5 7.65L22.04 26.8l-.7 13.2s.07.74-1.1.74v3.1s-.38.54-.38 0v-.53z" style="opacity:1;fill:#43463b;fill-opacity:1;stroke:#545c43;stroke-width:.264583;stroke-linecap:round;stroke-linejoin:round;stroke-miterlimit:4;stroke-dasharray:none;stroke-opacity:1"/><circle cx="28.71" cy="8.06" r=".94" style="opacity:1;fill:#252620;fill-opacity:1;stroke:#545c43;stroke-width:.185208;stroke-linecap:round;stroke-linejoin:round;stroke-miterlimit:4;stroke-dasharray:none;stroke-opacity:1"/><path d="M89 19.38A26.62 26.62 0 0 0 62.37 46 26.62 26.62 0 0 0 89 72.63 26.62 26.62 0 0 0 115.63 46 26.62 26.62 0 0 0 89 19.37Zm.13 3.8a22.94 22.94 0 0 1 22.94 22.95 22.94 22.94 0 0 1-22.94 22.94 22.94 22.94 0 0 1-22.95-22.94 22.94 22.94 0 0 1 22.94-22.95Z" style="opacity:1;fill:url(#t);fill-opacity:1;stroke:#000;stroke-width:.5;stroke-linecap:round;stroke-miterlimit:4;stroke-dasharray:none;stroke-opacity:1" transform="scale(.26458)"/><path d="M23.55 5.13a7.04 7.04 0 0 0-7.05 7.04 7.04 7.04 0 0 0 7.05 7.05 7.04 7.04 0 0 0 7.04-7.05 7.04 7.04 0 0 0-7.04-7.04zm.03 1a6.07 6.07 0 0 1 6.07 6.07 6.07 6.07 0 0 1-6.07 6.07 6.07 6.07 0 0 1-6.07-6.07 6.07 6.07 0 0 1 6.07-6.07z" style="display:inline;fill:url(#u);fill-opacity:1;stroke:#000;stroke-width:.132292;stroke-linecap:round;stroke-miterlimit:4;stroke-dasharray:none;stroke-opacity:1"/><rect width="2.18" height=".73" x="24.62" y="15.16" ry=".36" style="opacity:1;fill:url(#v);fill-opacity:1;stroke:none;stroke-width:.132292;stroke-linecap:round;stroke-miterlimit:4;stroke-dasharray:none;stroke-opacity:1" transform="rotate(-15)"/><path d="M33.48 13.9c-.02-.6.3-.8.77-.9h7.98" style="fill:none;stroke:#2e2e29;stroke-width:.264583px;stroke-linecap:round;stroke-linejoin:miter;stroke-opacity:1"/><circle cx="43.46" cy="3.37" r=".75" style="opacity:1;fill:#50544b;fill-opacity:1;stroke:url(#w);stroke-width:.209577;stroke-linecap:round;stroke-linejoin:round;stroke-miterlimit:4;stroke-dasharray:none;stroke-opacity:1"/></g></svg>