<?xml version="1.0" encoding="UTF-8" standalone="no"?>
<svg
   viewBox="0 0 256 256"
   version="1.1"
   id="svg157"
   sodipodi:docname="stalion_strapon.svg"
   xml:space="preserve"
   inkscape:version="1.2.2 (732a01da63, 2022-12-09)"
   xmlns:inkscape="http://www.inkscape.org/namespaces/inkscape"
   xmlns:sodipodi="http://sodipodi.sourceforge.net/DTD/sodipodi-0.dtd"
   xmlns:xlink="http://www.w3.org/1999/xlink"
   xmlns="http://www.w3.org/2000/svg"
   xmlns:svg="http://www.w3.org/2000/svg"><sodipodi:namedview
     id="namedview159"
     pagecolor="#ffffff"
     bordercolor="#666666"
     borderopacity="1.0"
     inkscape:showpageshadow="2"
     inkscape:pageopacity="0.0"
     inkscape:pagecheckerboard="0"
     inkscape:deskcolor="#d1d1d1"
     showgrid="false"
     inkscape:zoom="16.150801"
     inkscape:cx="117.79601"
     inkscape:cy="126.37144"
     inkscape:window-width="1920"
     inkscape:window-height="1017"
     inkscape:window-x="-8"
     inkscape:window-y="-8"
     inkscape:window-maximized="1"
     inkscape:current-layer="g577" /><defs
     id="defs13"><linearGradient
       id="innoGrad1"
       x1="25.86"
       y1="130.26"
       x2="152.5"
       y2="130.26"
       gradientTransform="matrix(1, 0, 0, -1, 0, 258)"
       gradientUnits="userSpaceOnUse"><stop
         offset="0"
         stop-color="#fca"
         id="stop2" /><stop
         offset="1"
         stop-color="#f95"
         id="stop4" /></linearGradient><linearGradient
       id="innoGrad2"
       x1="73.05"
       y1="213.05"
       x2="68.67"
       y2="210.26"
       xlink:href="#innoGrad1"
       gradientTransform="matrix(0.76129418,0.13423671,-0.13607823,0.77173805,9.0524432,-9.8288377)" /><linearGradient
       id="innoGrad3"
       x1="119.79"
       y1="89.6"
       x2="135.52"
       y2="126.71"
       gradientTransform="matrix(1, 0, 0, -1, 0, 258)"
       gradientUnits="userSpaceOnUse"><stop
         offset="0"
         stop-color="#f55"
         id="stop8" /><stop
         offset="1"
         stop-color="#ff8080"
         id="stop10" /></linearGradient><linearGradient
       inkscape:collect="always"
       xlink:href="#innoGrad1"
       id="linearGradient998"
       gradientUnits="userSpaceOnUse"
       gradientTransform="matrix(0.76129418,0.13423671,0.13607823,-0.77173805,-26.055743,189.27957)"
       x1="25.86"
       y1="130.26"
       x2="152.5"
       y2="130.26" /></defs><path
     d="m 57.548255,31.212032 c -13.472288,12.87866 -39.083504,4.630727 -41.311321,-4.236646 1.133159,-4.200593 14.552051,-0.1714 41.311321,4.236646 z m 0,0 c 19.443457,3.428405 64.159755,6.116963 68.356485,33.911858 l -7.8579,-4.671934 C 113.33446,38.207881 85.133502,39.171454 57.542916,33.868835 Z"
     style="fill:#ffccaa;fill-rule:evenodd;stroke:#000000;stroke-width:0.630441px"
     id="path15" /><path
     d="m 114.69008,61.459492 c -3.33836,-3.325963 -6.96201,8.321198 -8.79744,12.230858 l 9.46942,-9.764959 z M 23.914252,38.458777 C 7.7455822,72.283107 15.691794,135.97417 43.979765,156.15262 l 2.805024,-0.68308 C 13.488946,129.01299 12.46703,79.250718 27.100365,36.816395 Z"
     style="fill:url(#linearGradient998);fill-rule:evenodd;stroke:#000000;stroke-width:0.630441px"
     id="path17" /><path
     d="m 98.084462,51.330094 c 6.066928,15.942002 -2.71809,80.900266 -50.596122,104.868266 -1.379857,-0.18762 -4.546177,0.18508 -3.30751,-0.82988 C 91.331032,136.06246 99.909422,75.881934 95.185552,49.251347 Z"
     style="fill:#ff9955;fill-rule:evenodd;stroke:#000000;stroke-width:0.630441px"
     id="path19" /><path
     d="m 57.458443,31.721378 -2.498942,10.922427 c 27.598201,5.30396 59.317159,11.366352 64.005899,33.566472 l 6.12457,-11.763192 C 119.3348,37.833583 76.890202,35.171594 57.458443,31.721378 Z"
     style="fill:#ff9955;fill-rule:evenodd;stroke:#000000;stroke-width:0.630441px"
     id="path21" /><path
     d="M 16.821843,26.640868 C 20.077319,24.8277 30.662468,27.298904 57.45083,31.720036 L 54.951888,42.642462 C 27.411318,37.412323 5.1487832,40.712087 4.4339662,45.567329 Z"
     style="fill:#ff9955;fill-rule:evenodd;stroke:#000000;stroke-width:0.630441px"
     id="path23" /><path
     d="M 117.01528,68.394492 C 104.91011,48.634554 76.053852,46.458797 54.963512,41.419085 41.189456,39.404128 20.439337,35.506602 11.63866,36.270386"
     style="fill:none;stroke:#000000;stroke-width:0.252177px;stroke-dasharray:0.778323, 0"
     id="path25" /><path
     d="M 122.25517,59.467261 C 110.83992,37.441776 76.309772,36.326506 57.367159,32.90684 43.593102,30.891882 25.679229,26.579371 16.875832,27.35859"
     style="fill:none;stroke:#000000;stroke-width:0.252177px;stroke-dasharray:0.778323, 0"
     id="path27" /><path
     d="m 60.389192,38.516477 c 0.16811,-0.463711 0.079,-0.893208 -0.55206,-0.964693 l -8.440594,1.837858 c -0.99439,0.341888 -0.54589,1.137129 0.343243,0.99153 z"
     style="fill:#ff7f2a;fill-rule:evenodd;stroke:#000000;stroke-width:0.291093px"
     id="path29" /><path
     d="m 52.249818,37.399579 a 0.77303836,0.78364336 10 1 0 -0.556701,-0.893894 0.77303836,0.78364336 10 0 0 0.556701,0.893894 z"
     style="fill:#4d4d4d;stroke:#000000;stroke-width:0.305102px;stroke-linecap:round;stroke-linejoin:bevel"
     id="path31" /><path
     d="m 60.240712,41.89603 c 0.1605,-0.465053 0.42681,-1.174041 -0.19664,-1.244187 l -5.024768,0.450829 c -0.993031,0.334171 -0.538277,1.138472 0.343243,0.99153 z"
     style="fill:#ff7f2a;fill-rule:evenodd;stroke:#000000;stroke-width:0.291093px"
     id="path33" /><path
     d="m 60.548522,35.297982 a 0.77303836,0.78364336 10 1 0 -0.51102,-0.885839 0.7111953,0.72095188 10 0 0 0.51102,0.885839 z"
     style="fill:#4d4d4d;stroke:#000000;stroke-width:0.294205px;stroke-linecap:round;stroke-linejoin:bevel"
     id="path35" /><path
     d="m 53.06908,33.955283 a 0.77303836,0.78364336 10 1 0 -0.511022,-0.885838 0.7111953,0.72095188 10 0 0 0.511022,0.885838 z"
     style="fill:#4d4d4d;stroke:#000000;stroke-width:0.294205px;stroke-linecap:round;stroke-linejoin:bevel"
     id="path37" /><path
     d="m 60.629322,35.017809 c 0.71561,0.126186 0.76365,-0.947543 0.17826,-1.010977 L 53.31483,32.606084 c -0.994392,0.341888 -0.545892,1.13713 0.343242,0.991529 z"
     style="fill:#ffccaa;fill-rule:evenodd;stroke:#000000;stroke-width:0.291093px"
     id="path39" /><path
     d="m 61.120922,34.945346 c 0.16186,-0.472771 0.0714,-0.894546 -0.55206,-0.964692 l -8.305214,2.00496 a 0.71943523,0.72930486 10 1 0 0.363838,1.408943 z"
     style="fill:url(#innoGrad2);fill-rule:evenodd;stroke:#000000;stroke-width:0.291093px"
     id="path41" /><path
     d="m 59.794752,38.905016 a 0.77303836,0.78364336 10 1 0 -0.51102,-0.885839 0.7111953,0.72095188 10 0 0 0.51102,0.885839 z"
     style="fill:#4d4d4d;stroke:#000000;stroke-width:0.294205px;stroke-linecap:round;stroke-linejoin:bevel"
     id="path43" /><path
     d="m 53.052531,33.737518 c -0.660596,-0.705323 0.08997,-1.400541 0.707638,-0.941507 l 6.422003,4.713169 c 0.81749,0.661372 0.0585,1.538117 -0.72724,1.097197 z"
     style="fill:#ffb380;fill-rule:evenodd;stroke:#000000;stroke-width:0.291093px"
     id="path45" /><path
     d="m 51.367224,40.713346 a 0.77303836,0.78364336 10 1 0 -0.549087,-0.892551 0.77303836,0.78364336 10 0 0 0.549087,0.892551 z"
     style="fill:#4d4d4d;stroke:#000000;stroke-width:0.306659px;stroke-linecap:round;stroke-linejoin:bevel"
     id="path47" /><path
     d="m 50.982827,40.31136 c 0.02865,-0.607662 0.238611,-0.952592 0.792445,-0.799235 l 3.244032,1.590547 c 0.722309,0.755992 0.04733,1.51228 -0.651368,1.023043 z"
     style="fill:#ffb380;fill-rule:evenodd;stroke:#000000;stroke-width:0.306659px"
     id="path49" /><path
     d="m 59.745282,42.079222 a 0.77303836,0.78364336 10 1 0 -0.51102,-0.885839 0.71892568,0.72878831 10 0 0 0.51102,0.885839 z"
     style="fill:#4d4d4d;stroke:#000000;stroke-width:0.294205px;stroke-linecap:round;stroke-linejoin:bevel"
     id="path51" /><path
     d="m 52.087813,37.116378 a 0.64935222,0.65826042 10 0 1 0.533387,-1.15525 l 7.534602,4.813862 c 0.72694,0.685192 0.0683,1.348872 -0.62824,0.891847 z"
     style="fill:#ffb380;fill-rule:evenodd;stroke:#000000;stroke-width:0.288758px"
     id="path53" /><path
     d="M 104.84922,79.474358 C 91.038082,79.672958 76.818662,76.043706 62.575332,72.282922 L 49.665298,85.356213 c 0,0 -11.597556,32.473897 -7.440107,48.071247 0.914906,3.4477 7.451036,6.97944 12.824701,11.09398 4.06056,3.10318 6.87374,7.3153 9.36943,7.76329 4.02724,0.71012 8.57923,-1.73383 12.70122,-3.38626 3.55613,-1.42594 6.72219,-1.88621 9.7373,-3.58262 11.41945,-6.44507 20.890528,-18.00014 24.712148,-47.731208 z"
     style="fill:#ff7f2a;fill-rule:evenodd;stroke:#000000;stroke-width:0.630441px"
     id="path55" /><path
     d="M 101.20262,83.772862 C 89.115872,83.941309 76.660992,80.766426 64.188452,77.469071 L 52.863316,88.943892 c 0,0 -10.157449,28.446788 -6.51139,42.091948 0.801596,3.0219 6.527812,6.1164 11.2297,9.72258 3.555166,2.71965 6.014686,6.39992 8.221076,6.79692 3.5248,0.62152 7.51255,-1.51609 11.1198,-2.96486 3.1091,-1.25013 5.88798,-1.65136 8.52808,-3.13538 9.99893,-5.6452 18.291368,-15.76888 21.634078,-41.804658 z"
     style="fill:none;stroke:#000000;stroke-width:0.315221px;stroke-dasharray:0.778323, 0"
     id="path57" /><path
     d="M 103.3864,81.181882 C 90.306402,81.374125 76.784092,77.931453 63.230262,74.355906 L 50.956847,86.801417 c 0,0 -10.998556,30.813003 -7.062581,45.663093 0.865994,3.27992 7.079952,6.6355 12.183928,10.54334 3.851228,2.95487 6.521958,6.95087 8.904808,7.37104 3.80648,0.67119 8.13957,-1.64427 12.06606,-3.2118 3.37856,-1.35381 6.39182,-1.79328 9.2356,-3.40849 10.84353,-6.11694 19.845208,-17.10227 23.474068,-45.339538 z"
     style="fill:none;stroke:#000000;stroke-width:0.315221px;stroke-dasharray:0.778323, 0"
     id="path59" /><path
     d="m 104.17784,86.398206 -4.338048,-0.550068 c 0.0346,14.583912 -10.05206,14.404792 -7.88922,18.343082 8.394338,4.79038 9.508818,-12.837508 12.227268,-17.793014 z"
     style="fill:#ff9955;fill-rule:evenodd;stroke:#000000;stroke-width:0.630441px"
     id="path63" /><path
     d="m 92.913302,104.60765 c -2.16285,-3.93829 8.367838,-4.22993 7.611648,-18.638699 l 4.62105,0.814817 c -2.72526,4.994104 -3.83972,22.621992 -12.232698,17.823882 z m 23.362548,-40.2108 -9.70657,8.394272 c 2.42287,-3.14562 5.70382,-14.184794 9.01933,-10.862859 z"
     style="fill:#ff7f2a;fill-rule:evenodd;stroke:#000000;stroke-width:0.630441px"
     id="path65" /><path
     d="m 120.14808,79.920037 c -1.23238,0.801236 -2.28388,-0.40271 -2.78527,-2.010967 l -4.19619,-14.888019 c -0.40542,-1.440147 -0.29144,-3.377553 1.32298,-4.342186 5.45022,-3.264319 10.0172,0.572705 11.51217,5.093475 a 13.296259,13.478666 10 0 1 -0.73443,9.952427 14.471278,14.669803 10 0 1 -5.11926,6.19527 z m 3.93005,-6.707335 a 11.015796,11.166918 10 0 0 0.90111,-8.315661 c -1.09163,-3.55843 -5.06341,-7.521264 -9.22773,-4.73841 a 2.9993889,3.0405362 10 0 0 -1.0724,3.45536 l 3.46323,12.634178 c 0.35517,1.280095 1.14298,2.198826 2.08385,1.537166 a 11.850679,12.013253 10 0 0 3.85194,-4.572633 z"
     style="fill:#ffe680;fill-rule:evenodd;stroke:#000000;stroke-width:0.435082px"
     id="path67" /><path
     d="m 122.5825,75.996636 a 14.49447,14.693312 10 0 1 -5.01621,6.189568 c -1.20818,0.797545 -2.2382,-0.394658 -2.68767,-1.9858 l -4.01808,-14.785003 c -0.39157,-1.429746 -0.27136,-3.358091 1.2974,-4.330777 5.28761,-3.277075 9.74314,0.524377 11.17992,5.018975 a 13.597745,13.784287 10 0 1 -0.75536,9.893037 z m -1.15875,-0.506698 a 11.278629,11.433357 10 0 0 0.91088,-8.282106 c -1.04866,-3.534941 -4.89238,-7.467238 -8.95502,-4.682367 a 3.0921535,3.1345734 10 0 0 -1.05581,3.450327 l 3.28108,12.554316 c 0.3413,1.269692 1.10762,2.176676 2.08522,1.529448 a 11.90479,12.068108 10 0 0 3.73365,-4.569618 z"
     style="fill:#ffe680;fill-rule:evenodd;stroke:#000000;stroke-width:0.428078px"
     id="path69" /><path
     d="m 92.913302,104.60765 c 1.99583,-0.63479 3.71812,-1.14275 5.59692,-5.832548 4.188968,-10.40161 1.877298,-10.37952 2.361368,-15.840428 0.77359,-8.616646 14.88186,-19.759876 14.11255,-20.739001 2.32828,-1.674281 3.97435,9.780089 2.47997,11.577537 -12.18467,10.161493 -5.39745,30.87757 -15.64251,38.45278 z"
     style="fill:#ffccaa;fill-rule:evenodd;stroke:#000000;stroke-width:0.630441px"
     id="path71" /><path
     d="m 95.782722,104.18259 c 1.84656,-0.58949 2.15479,-1.62529 3.89212,-5.958058 3.854418,-9.61715 1.728178,-9.57828 2.176818,-14.615731 0.70717,-7.928119 14.80744,-20.139037 14.09576,-21.044343 2.1488,-1.546782 3.82582,16.676772 2.45273,18.320545 -4.79832,4.063594 -6.26709,10.345529 -6.32447,16.947939 -0.0756,8.397558 -0.0155,16.381398 -5.44922,20.086288 z"
     style="fill:#ffb380;fill-rule:evenodd;stroke:#000000;stroke-width:0.581407px"
     id="path73" /><path
     d="m 116.27585,64.39685 c -13.9567,18.69758 -13.24339,13.094084 -13.1016,25.333582 0.0639,5.24717 -4.738088,17.744878 -8.498328,17.034118"
     style="fill:none;stroke:#000000;stroke-width:0.315221px;stroke-dasharray:0.778323, 0"
     id="path75" /><path
     d="m 108.88517,112.81103 c 2.96972,-8.42834 1.14318,-15.386818 2.69011,-22.601898 a 21.815143,22.114415 10 0 1 7.00693,-11.870202"
     style="fill:none;stroke:#000000;stroke-width:0.315221px;stroke-dasharray:0.778323, 0"
     id="path77" /><path
     d="m 48.238707,41.005181 c 1.36985,1.490841 0.382774,3.616459 -1.367948,5.042456 l -15.89655,12.960467 c -1.531271,1.249844 -3.827843,1.943007 -5.489632,-0.02901 -5.702229,-6.702901 -2.804807,-15.255398 1.932657,-19.552528 a 13.860578,14.050725 10 0 1 11.823534,-3.350044 16.326571,16.550548 10 0 1 8.997939,4.928655 z M 29.050081,40.494302 c -3.76389,3.227455 -7.001318,10.948139 -2.315431,15.936069 1.395409,1.479433 3.209865,1.027509 4.408556,0.06119 L 44.656754,45.649292 c 1.370552,-1.095166 2.162044,-2.690301 1.06159,-3.839218 a 13.481789,13.66674 10 0 0 -6.65628,-3.696155 11.402316,11.558739 10 0 0 -10.011983,2.380383 z"
     style="fill:#ffe680;fill-rule:evenodd;stroke:#000000;stroke-width:0.600088px"
     id="path79" /><path
     d="m 51.519538,50.177588 c -0.72165,1.822298 0.338792,1.595503 0.720472,0.365759 l 3.1773,-9.115862 c 0.355272,-1.035466 -0.170904,-0.722422 -0.453797,-0.0084 z m 2.391934,1.392556 c -0.279288,1.940084 0.741249,1.316344 0.865447,0.03324 l 0.864842,-9.356506 c 0.150351,-1.564954 -0.219191,-1.383437 -0.434784,0.106355 z"
     style="fill:#ff9955;fill-rule:evenodd;stroke:#000000;stroke-width:0.315221px"
     id="path81" /><path
     d="m 56.221597,41.362413 c 4.608685,8.14133 -3.971997,13.622812 -0.903807,0.09527 0.07073,-0.178506 0.04083,-0.231521 0.04083,-0.231521 l 0.08702,-0.04832 a 0.50247493,0.50936818 10 0 1 0.775968,0.184572 z m -0.621358,0.407664 c -2.206338,10.687556 3.542103,7.690671 0.28168,0.04967 -0.38631,-0.346622 -0.0068,0.03858 -0.28168,-0.04967 z"
     style="fill:#ffb380;fill-rule:evenodd;stroke:#000000;stroke-width:0.238166px"
     id="path83" /><path
     d="m 55.952677,43.065606 c -2.993716,13.683906 -6.891781,3.026047 -0.643492,-2.18237 0.228388,0.04027 0.45593,0.263412 0.598884,0.654655 a 2.7597469,2.7976068 10 0 1 0.04461,1.527715 z M 55.31779,41.457682 c -4.329235,3.62908 -2.906297,14.479138 0.282449,0.312395 -0.02221,-0.497271 -0.102974,-0.439896 -0.282449,-0.312395 z"
     style="fill:#ffb380;fill-rule:evenodd;stroke:#000000;stroke-width:0.231162px"
     id="path85" /><path
     d="m 51.666659,45.158586 c 1.486212,1.54319 0.443933,3.714774 -1.429148,5.166941 L 33.25904,63.501045 c -1.635683,1.263263 -4.098931,1.966823 -5.935265,-0.08372 -6.187803,-6.931751 -3.17751,-15.679195 1.89875,-20.027989 a 15.213395,15.422101 10 0 1 12.714542,-3.32821 18.150941,18.399946 10 0 1 9.729592,5.097452 z M 41.767336,42.092154 A 12.538682,12.710695 10 0 0 31.03319,44.472516 c -4.022471,3.269391 -7.465487,11.176632 -2.348128,16.344085 1.510414,1.539498 3.452119,1.078183 4.692958,0.09542 L 47.811152,49.929524 c 1.461101,-1.118986 2.302904,-2.776866 1.111093,-3.941893 a 14.973754,15.179171 10 0 0 -7.154909,-3.895477 z"
     style="fill:#ffe680;fill-rule:evenodd;stroke:#000000;stroke-width:0.630441px"
     id="path87" /><path
     d="m 58.503062,93.686232 -3.293426,1.13806 c 12.034766,8.273068 17.827196,23.545988 20.428246,23.129318 2.92188,-8.4686 -5.3262,-16.44797 -17.13482,-24.267378 z"
     style="fill:#ffb380;fill-rule:evenodd;stroke:#000000;stroke-width:0.630441px"
     id="path89" /><path
     d="m 59.337622,93.093362 -3.027822,1.36791 c 13.159382,9.641088 18.112952,23.572498 20.162632,22.899458 2.92189,-8.46861 -5.32619,-16.44797 -17.13481,-24.267368 z"
     style="fill:#ff7f2a;fill-rule:evenodd;stroke:#000000;stroke-width:0.630441px"
     id="path91" /><path
     d="m 87.198712,139.37614 c -1.45732,1.23105 2.93196,6.0314 -7.81926,9.66601 1.44053,3.1823 10.56976,-4.65331 13.02253,-9.39308 0.58061,-0.62174 -4.60741,-1.11478 -5.20327,-0.27293 z"
     style="fill:#ff9955;fill-rule:evenodd;stroke:#000000;stroke-width:0.630441px"
     id="path93" /><g
     id="g933"
     transform="matrix(-0.49012878,-0.60360229,-0.59821392,0.49926285,288.91269,145.93777)"
     style="display:inline"><path
       fill="#ffb380"
       stroke="#000000"
       stroke-width="0.262"
       d="m 187.18,151.867 c 7.481,-1.975 13.76726,11.91609 22.61726,13.79409 8.85,1.88 16.61774,-2.25409 17.91374,5.55891 2.567,2.944 4.175,6.538 4.394,12.352 0.019,3.272 -1.642,17.961 -8.088,24.868 -3.191,3.42 -6.575,5.228 -9.942,5.114 0,0 0.143,32.719 -17.048,34.946 -17.192,2.226 -19.627,-5.926 -26.138,-12.5 -13.343,-0.529 -21.221,-8.864 -21.024,-21.735 0.102,-6.73 6.945,-14.764 12.51,-15.712 3.353,-0.572 3.217,-1.894 4.518,-3.233 65.91192,-35.51786 13.94516,-45.27448 20.286,-43.453 z"
       id="path687"
       sodipodi:nodetypes="ccccccccccccc"
       style="display:inline;fill:#ff8080;fill-opacity:1" /><path
       fill="#ff7f2a"
       d="m 164.903,197.653 c -0.008,0.007 -0.02,0.011 -0.029,0.017 -0.143,0.1 -0.303,0.194 -0.485,0.285 -0.073,0.035 -0.157,0.068 -0.237,0.101 -0.25605,0.10841 -0.51855,0.20092 -0.786,0.277 -0.32589,0.0915 -0.65634,0.16595 -0.99,0.223 -0.018,0.003 -0.037,0.01 -0.056,0.015 -5.557,0.99 -12.355,8.989 -12.456,15.696 -0.09,5.832 1.49,10.722 4.478,14.384 l -0.006,0.014 c 0.053,0.064 0.11,0.123 0.162,0.186 l 0.13,0.152 c 0.66716,0.77928 1.40057,1.4993 2.192,2.152 l 0.06,0.047 c 3.512,2.878 8.245,4.57 14.007,4.798 0.111,0.112 0.214,0.228 0.322,0.34 l 0.02,0.023 c 1.876,1.952 3.433,4.017 5.143,5.898 0.337,0.373 0.683,0.737 1.037,1.092 l 0.094,0.094 c 0.279,0.277 0.57,0.543 0.863,0.807 0.123,0.11 0.241,0.225 0.367,0.333 0.304,0.26 0.623,0.505 0.947,0.748 0.105,0.08 0.204,0.162 0.311,0.24 0.319,0.228 0.658,0.44 0.999,0.65 0.143,0.09 0.28,0.185 0.427,0.27 0.343,0.197 0.713,0.373 1.08,0.549 0.167,0.08 0.32,0.167 0.493,0.24 0.087,0.04 0.18,0.074 0.269,0.112 0.468,0.195 0.953,0.377 1.467,0.536 0.238,0.073 0.482,0.14 0.731,0.207 0.06,0.016 0.12,0.035 0.182,0.05 0.235,0.06 0.478,0.114 0.722,0.166 0.096,0.021 0.19,0.044 0.288,0.063 0.243,0.05 0.497,0.091 0.75,0.132 0.102,0.017 0.2,0.036 0.304,0.052 0.201,0.029 0.41,0.052 0.618,0.077 0.185,0.021 0.366,0.047 0.556,0.065 0.154,0.016 0.317,0.024 0.475,0.037 0.22,0.017 0.438,0.038 0.665,0.052 0.207,0.01 0.423,0.013 0.635,0.02 0.216,0.007 0.428,0.018 0.65,0.02 h 0.052 c 0.838,0.008 1.722,-0.018 2.656,-0.078 h 0.01 c 0.95,-0.06 1.95,-0.157 3.006,-0.294 0.40643,-0.0539 0.81018,-0.12627 1.21,-0.217 0.115,-0.026 0.226,-0.058 0.339,-0.086 0.276,-0.07 0.55,-0.146 0.817,-0.231 0.38731,-0.12578 0.76841,-0.26995 1.142,-0.432 0.1,-0.044 0.201,-0.087 0.3,-0.133 0.313,-0.145 0.619,-0.302 0.917,-0.468 0.029,-0.017 0.059,-0.032 0.088,-0.048 0.70406,-0.4046 1.37157,-0.86968 1.995,-1.39 1.58,-1.315 2.907,-2.984 4.037,-4.851 1.353,-2.235 2.416,-4.755 3.241,-7.355 0.022,-0.063 0.044,-0.123 0.063,-0.185 l -0.016,0.025 c 1.28,-4.082 2.008,-8.31 2.407,-11.79 -0.01,0.002 -0.017,0.01 -0.026,0.014 0.522,-4.511 0.534,-7.799 0.534,-7.799 3.367,0.115 6.75,-1.694 9.942,-5.112 2.483,-2.661 4.252,-6.478 5.492,-10.351 -0.725,0.95 -1.28,1.786 -2.003,2.812 -1.121,1.59 -2.697,3.669 -4.236,4.957 -1.54,1.289 -3.048,1.792 -4.487,2.176 -1.44,0.385 -2.81,0.654 -3.765,-0.401 -0.956,-1.055 -1.492,-3.431 -1.676,-5.324 -0.185,-1.893 -0.017,-3.3 -0.168,-3.35 -0.151,-0.05 -0.618,1.256 -0.803,3.466 -0.184,2.21 -0.084,5.325 0.167,7.802 0.251,2.478 0.653,4.32 0.72,6.311 0.055,1.651 -0.134,3.433 -0.576,5.616 -0.475,0.777 -0.82,1.968 -1.182,3.14 -0.754,2.443 -1.59,4.756 -2.744,6.865 -1.155,2.109 -2.63,4.017 -5.008,5.624 -2.376,1.608 -5.657,2.914 -9.408,3.383 -6.443,0.454 -12.915,-1.333 -14.933,-7.65 -1.5,-4.764 -1.005,-7.946 -0.01,-10.273 1.211,-2.832 2.438,-5.788 5.482,-7.697 2.632,-1.652 3.861,-1.614 7.222,-2.253 3.362,-0.64 6.347,-1.682 8.241,-3.008 1.893,-1.327 2.698,-2.937 2.864,-3.6 0.167,-0.662 -0.308,-0.378 -1.375,0.19 -1.068,0.57 -2.719,1.42 -5.301,1.752 -2.583,0.332 -6.085,0.144 -7.714,-0.09 -1.63,-0.234 -1.383,-0.51 -0.611,-0.648 0.773,-0.139 2.085,-0.138 4.109,-0.39 2.025,-0.25 4.773,-0.755 7.15,-1.659 2.376,-0.904 4.387,-2.21 6.261,-3.615 1.685,-1.264 3.258,-2.616 4.52,-4.65 1.87,-1.955 3.598,-4.258 4.87,-6.917 1.846,-3.859 2.745,-8.454 3.338,-11.484 0.592,-3.03 0.876,-4.498 1.776,-5.657 -21.31067,-32.38787 -16.2579,26.53081 -55.325,24.133 z m -2.352,19.805 c 2.346,-0.413 2.88,0.612 3.527,2.557 0.697,2.1 0.683,3.873 0.567,6.055 -0.067,1.278 -0.197,2.575 -1.57,2.872 -0.833,0.18 -2.188,0.044 -3.275,-0.728 -1.04,-0.736 -2.907,-3.29 -2.972,-6.418 -0.037,-1.83 2.174,-4.065 3.723,-4.337 z"
       id="path691"
       sodipodi:nodetypes="ccccccccccccccccccccccccccccccccccccccccccccccccccccccccccccccccccccsccccccccccccccccccccccsccccccccccc"
       style="display:inline;fill:#ff5555;fill-opacity:1" /><path
       d="m 162.376,198.556 c -2.557,0.436 -5.375,2.372 -7.692,4.983 -0.338,0.379 -0.662,0.774 -0.976,1.18 l -0.027,0.032 c -0.294,0.384 -0.576,0.777 -0.844,1.18 l -0.099,0.148 c -0.50179,0.7663 -0.9534,1.5643 -1.352,2.389 -0.054,0.112 -0.11,0.223 -0.162,0.335 -0.146,0.323 -0.277,0.647 -0.403,0.972 -0.055,0.144 -0.115,0.286 -0.165,0.43 -0.107,0.3 -0.194,0.602 -0.281,0.904 -0.045,0.157 -0.098,0.312 -0.136,0.468 -0.0725,0.30304 -0.13424,0.60856 -0.185,0.916 -0.026,0.147 -0.064,0.297 -0.084,0.443 -0.062,0.448 -0.1,0.892 -0.106,1.33 -0.002,0.154 0.01,0.297 0.01,0.45 v 0.003 c -0.003,12.61 7.831,20.762 21.015,21.282 6.511,6.575 8.947,14.727 26.138,12.5 6.003,-0.776 9.889,-5.275 12.409,-10.797 -0.796,0.964 -4.152,5.893 -5.223,6.48 -8.285,4.546 -13.682,4.707 -20.687,1.539 -7.857,-3.555 -10.1,-9.17 -10.76,-11.011 -0.298,-0.837 -1.848,-6.973 -1.524,-7.531 0,0 -0.84,3.808 -1.978,5.014 -0.41837,0.4299 -0.90877,0.78324 -1.449,1.044 -0.746,-0.017 -1.846,-0.053 -3.22,-0.45 -2.72124,-0.81188 -5.0945,-2.50712 -6.745,-4.818 -1.93,-2.717 -3.103,-6.664 -2.3,-10.23 0.803,-3.567 3.581,-6.746 6.56,-7.671 2.98,-0.927 6.159,0.402 7.917,2.577 1.409,2.218 1.988,5.366 1.945,8.117 -0.029,1.884 -0.397,3.393 -0.468,4.023 -0.071,0.63 -0.025,0.274 0.189,-0.52 0.32269,-1.18062 0.72255,-2.33878 1.197,-3.467 0.604,-1.446 1.432,-3.101 2.77,-4.592 1.338,-1.492 3.185,-2.818 5.683,-3.74 2.497,-0.924 5.647,-1.445 6.155,-1.752 0.508,-0.308 -1.624,-0.403 -3.02,-0.629 -1.397,-0.225 -2.058,-0.58 -1.881,-1.29 0.178,-0.713 1.194,-1.777 3.681,-2.712 2.486,-0.935 6.438,-1.739 9.564,-2.582 3.125,-0.845 5.42,-1.729 6.566,-2.169 1.147,-0.442 1.147,-0.442 1.764,-0.794 0.617,-0.352 1.801,-1.108 3.272,-2.437 2.052,-1.854 4.578,-4.318 5.62,-6.69 0.837,-1.9 1.901,-4.805 2.587,-7.734 0.687,-2.93 1.02,-5.877 1.306,-7.802 0.285,-1.925 0.52,-2.829 0.286,-3.849 -0.234,-1.02 -0.94,-2.16 -2.312,-3.759 -0.943,-1.099 -2.204,-2.417 -4.89,-2.364 -1.221,0.025 -2.736,0.335 -4.651,1.074 -6.127,2.37 -6.63646,21.97965 -13.45046,26.85065 -8.23376,3.1958 -20.89283,3.04507 -29.56354,4.72635 z"
       opacity="0.5"
       id="path695"
       sodipodi:nodetypes="cccccccccccccccsscccccccccccccccsccccccccccsccccsscccc"
       style="display:inline" /><path
       fill="#ff7f2a"
       d="m 166.101,197.42 c -0.36,0.513 -1.123,1.276 -2.216,1.756 -1.091,0.482 -2.509,0.678 -3.918,1.431 -1.407,0.752 -2.803,2.061 -4.058,3.612 -1.257,1.55 -2.368,3.338 -3.264,5.107 -0.895,1.768 -1.571,3.514 -1.92,3.917 -0.35,0.403 -0.372,-0.534 -0.187,-1.505 0.187,-0.972 0.58,-1.976 1.037,-2.958 0.46,-0.982 0.983,-1.943 1.561,-2.805 a 19.214,19.214 0 0 1 1.9,-2.367 24.004,24.004 0 0 1 2.16,-2.075 14.883,14.883 0 0 1 2.14,-1.505 10.03,10.03 0 0 1 2.126,-0.917 c 0.786,-0.24 1.705,-0.436 2.413,-0.687 0.71,-0.252 1.212,-0.557 1.593,-0.906 0.382,-0.35 0.645,-0.743 0.797,-0.81 0.152,-0.064 0.196,0.198 -0.164,0.711 z"
       id="path697"
       style="fill:#ff8080;fill-opacity:1" /><path
       fill="#ffffff"
       d="m 158.495,201.128 c -0.813,0.712 -2.437,2.134 -3.6,3.57 -1.164,1.438 -1.861,2.881 -2.216,3.313 -0.357,0.43 -0.367,-0.153 0.168,-1.204 0.536,-1.05 1.616,-2.566 2.784,-3.71 1.168,-1.142 2.423,-1.911 3.05,-2.296 0.627,-0.384 0.627,-0.384 -0.186,0.327 z"
       id="path705"
       style="fill:#ffd5d5;fill-opacity:1" /><path
       fill="#ffe6d5"
       d="m 206.719,219.127 c 0.927,0.34 1.681,2.036 1.182,4.877 -0.499,2.839 -2.25,6.82 -4.916,9.264 -2.665,2.445 -6.242,3.353 -8.402,2.27 -2.158,-1.082 -2.9,-4.15 -2.312,-6.545 0.588,-2.395 2.506,-4.118 4.613,-5.367 2.106,-1.248 4.405,-2.027 6.104,-2.925 1.7,-0.897 2.804,-1.915 3.731,-1.574 z M 163,220.269 c 0.344,0.359 0.54,1.629 1.043,3.006 0.502,1.38 1.31,2.865 1.318,3.71 0.008,0.846 -0.784,1.05 -1.66,0.88 -0.877,-0.174 -1.835,-0.722 -2.427,-1.629 -0.591,-0.906 -0.813,-2.169 -0.685,-3.1 0.13,-0.93 0.608,-1.527 1.092,-2.101 0.484,-0.575 0.976,-1.126 1.32,-0.766 z m 64.232,-43.153 c -1.12,-0.804 -2.761,-0.804 -3.95,1.09 -1.19,1.891 -1.926,5.672 -1.842,9.156 0.083,3.482 0.987,6.663 2.226,7.063 1.24,0.401 2.813,-1.975 3.851,-4.653 1.037,-2.679 1.54,-5.66 1.49,-7.951 -0.05,-2.295 -0.654,-3.902 -1.775,-4.705 z"
       id="path725"
       style="fill:#ffd5d5;fill-opacity:1" /></g><path
     d="m 96.378882,138.99757 c -26.58346,10.93284 -27.80221,-38.95964 -1.86856,-35.38945 0.96383,0.32114 2.5955,-1.36456 3.09116,-2.88456 -33.60555,-8.495778 -32.82014,57.29859 2.01706,40.02292 z"
     style="fill:#ffe680;fill-rule:evenodd;stroke:#000000;stroke-width:0.630441px"
     id="path95" /><path
     d="M 26.924682,54.951987 C 20.132329,48.733241 3.8215952,39.379957 4.4339662,45.567329 12.52726,45.832627 19.500523,51.470558 26.924682,54.951987 Z"
     style="fill:#ffaaaa;fill-rule:evenodd;stroke:#000000;stroke-width:0.630441px"
     id="path97" /><path
     d="m 34.26007,52.704405 c 8.86975,15.449505 51.612202,35.208598 48.634992,50.980225 -5.88323,4.20652 -1.95551,8.24116 -6.42535,13.69153 C 78.037002,110.49094 59.654482,98.997872 49.40811,86.814795 41.316377,77.191963 26.91541,56.74075 26.91541,56.74075 Z"
     style="fill:#ff9955;fill-rule:evenodd;stroke:#000000;stroke-width:0.630441px"
     id="path99" /><path
     d="M 40.306606,42.63032 C 33.369849,44.709472 30.368832,50.020986 26.924682,54.951987 19.226089,52.003052 13.104303,43.762027 4.4339662,45.567329 2.6396332,42.744384 15.586672,26.25597 17.048651,26.378483 c 4.685561,0.404483 19.478501,3.585775 23.257955,16.251837 z"
     style="fill:#ffb380;fill-rule:evenodd;stroke:#000000;stroke-width:0.630441px"
     id="path101" /><path
     d="m 119.17514,59.306118 c -0.12655,0.717718 -1.95533,2.185653 -3.60175,2.619461 2.23261,2.963884 7.15027,-2.399586 3.60175,-2.619461 z"
     style="fill:#ffaaaa;fill-rule:evenodd;stroke:#000000;stroke-width:0.630441px"
     id="path103" /><path
     d="m 124.49086,71.717883 c 2.8773,-8.571958 -3.25232,-12.183206 -5.31572,-12.411765 1.96818,0.545976 -2.4992,4.246189 -3.60175,2.619461 2.08336,4.433545 2.91099,9.489147 3.36235,14.319255 0.29751,3.076239 4.06573,-0.08679 5.55512,-4.526951 z M 94.605732,139.61591 c -0.55604,-1.60993 -6.83123,-1.32388 -7.39942,-0.23843 4.57308,9.67877 -11.66779,11.86001 -24.93131,11.98011 -10.222051,0.0994 -14.658159,3.84488 -18.087369,3.9723 -0.387486,0.19426 -1.635167,1.43841 3.307511,0.82987 1.798604,0.0386 11.107918,-3.47622 16.942338,-3.5774 10.19977,-0.15105 28.41537,-0.2653 30.16825,-12.96645 z"
     style="fill:#ffb380;fill-rule:evenodd;stroke:#000000;stroke-width:0.630441px"
     id="path105" /><path
     d="m 45.104044,43.91389 c 4.343935,2.787114 9.593495,15.752182 19.456538,27.660761 9.06327,10.924084 30.06362,25.822961 27.35269,31.225409 a 75.139329,76.170134 10 0 0 -14.77428,13.76311 C 78.646142,109.92994 60.815842,98.510342 50.987301,86.806782 43.197583,77.563456 27.33313,56.241477 27.33313,56.241477 Z"
     style="fill:#ffb380;fill-rule:evenodd;stroke:#000000;stroke-width:0.605536px"
     id="path109" /><path
     d="M 78.095242,115.01302 C 80.440522,110.8829 67.107212,102.31722 52.230784,86.254189 43.872488,77.252765 36.007748,66.253553 28.372168,55.557339"
     style="fill:none;stroke:#000000;stroke-width:0.315221px;stroke-dasharray:0.778323, 0"
     id="path111" /><path
     d="M 90.707342,103.18422 C 93.052622,99.054142 80.386822,90.486782 64.842882,74.425407 54.756633,64.005276 51.355142,51.198969 43.863759,44.849007"
     style="fill:none;stroke:#000000;stroke-width:0.315221px;stroke-dasharray:0.778323, 0"
     id="path113" /><path
     d="M 38.648785,42.950715 C 36.882744,35.15943 26.643899,28.364805 15.696597,27.413251"
     style="fill:none;stroke:#000000;stroke-width:0.315221px;stroke-dasharray:0.778323, 0"
     id="path115" /><path
     d="M 4.3161332,44.54393 C 10.280752,41.433973 19.054822,48.567119 27.432433,54.253741"
     style="fill:none;stroke:#000000;stroke-width:0.315221px;stroke-dasharray:0.778323, 0"
     id="path117" /><path
     d="m 119.15443,75.805956 c 1.19601,2.120646 3.52946,-2.966413 5.43099,-5.336614"
     style="fill:none;stroke:#000000;stroke-width:0.315221px;stroke-dasharray:0.778323, 0"
     id="path119" /><path
     d="m 121.15986,60.06986 c -1.02506,1.673309 -3.61351,4.734034 -5.05808,2.999253"
     style="fill:none;stroke:#000000;stroke-width:0.315221px;stroke-dasharray:0.778323, 0"
     id="path121" /><path
     d="m 123.98197,61.204061 a 12.368614,12.538294 10 0 1 1.56415,3.816811 l 0.069,0.410031 a 12.414996,12.585313 10 0 1 0.17073,3.48358 c -0.0544,0.308695 -0.0646,0.633161 -0.1037,0.944549 -0.0393,0.311378 -0.10885,0.617391 -0.16327,0.926088 -0.0544,0.308695 -0.10885,0.617391 -0.22423,0.915342 -0.11534,0.297952 -0.17739,0.605306 -0.27748,0.90595 a 12.368614,12.538294 10 0 1 -1.41979,2.932581 14.200715,14.395529 10 0 0 1.55683,-2.908419 14.579503,14.779513 10 0 0 0.98108,-3.694266 11.255438,11.409847 10 0 0 -0.0521,-3.621821 0.53339647,0.54071391 10 0 1 -0.0204,-0.107037 l -0.0279,-0.108382 -0.028,-0.108385 a 0.5179357,0.52504104 10 0 0 -0.0293,-0.100663 14.247097,14.442546 10 0 0 -1.99131,-3.709113 z M 45.387163,41.863079 a 15.785443,16.001997 10 0 1 2.858749,1.594228 7.9622951,8.0715264 10 0 1 1.879879,1.803577 3.4554815,3.5028858 10 0 1 0.434892,0.872416 2.2340809,2.2647293 10 0 1 0.106469,0.687188 l -0.01494,0.0849 a 2.1258555,2.1550192 10 0 1 -0.03413,0.86133 2.1799682,2.2098743 10 0 1 -0.595357,1.017006 7.0578403,7.1546637 10 0 0 0.932754,-0.838155 2.0253605,2.0531456 10 0 0 0.499367,-0.962314 l 0.0136,-0.07718 v 0 a 2.1722379,2.2020378 10 0 0 -0.01872,-0.249978 c 0.0136,-0.07718 -0.02745,-0.156027 -0.05189,-0.239913 l -0.0685,-0.234878 a 1.8011794,1.825889 10 0 0 -0.09404,-0.223472 c -0.04729,-0.08791 -0.08698,-0.174483 -0.141888,-0.263737 l -0.153574,-0.241935 a 2.6669823,2.7035695 10 0 0 -0.177783,-0.238239 l -0.189487,-0.216425 a 8.9517843,9.0745903 10 0 0 -2.212421,-1.742854 25.858134,26.21287 10 0 0 -2.990927,-1.378816 z m -4.648668,-4.798348 a 23.593131,23.916795 10 0 1 3.495183,2.080442 l 0.426287,0.297972 c 0.596751,0.399644 2.439781,1.432822 3.001189,1.810319 -0.561408,-0.377497 -2.158578,-1.781104 -2.75533,-2.180748 l -0.112282,-0.0755 -0.113641,-0.06779 -0.113641,-0.06779 -0.131591,-0.05504 a 30.821039,31.24386 10 0 0 -3.714121,-1.72912 z m 52.285587,63.575829 c 0.35019,0.0618 1.33873,0.55435 1.69654,0.61744 0.3578,0.0631 1.58517,-0.0865 1.96366,-0.0516 -0.38065,-0.067 -1.48041,-0.50771 -1.86241,-0.5671 -0.38208,-0.059 -1.4476,0.063 -1.79779,0.002 z"
     style="fill:#fff6d5;stroke-width:0.778323"
     id="path123" /><g
     id="g577"
     transform="matrix(-0.25564687,-0.73807452,-0.7298841,0.26238354,272.541,217.52686)"
     style="display:inline"><path
       fill="#ff7f2a"
       stroke="#000000"
       stroke-width="0.183"
       d="m 145.839,151.389 c -4.697,10.313 -5.687,28.237 6.313,39.036 10.133,9.12 33.285,15.787 46.53,-0.696 7.144,-8.893 7.414,-34.637 -9.437,-45.591 -12.3,-7.995 -37.269,-6.226 -43.405,7.251 z"
       id="path319" /><path
       fill="#ff9955"
       d="m 155.517,151.118 c -4.696,10.384 -0.925,23.298 6.314,31.588 3.295,3.774 21.07,15.252 33.271,4.604 8.514,-7.43 10.99,-32.465 -5.862,-43.493 -12.298,-8.05 -27.585,-6.27 -33.722,7.301 z"
       id="path321"
       style="fill:#ff8080;fill-opacity:1" /><path
       fill="#ffccaa"
       d="m 171.798,158.632 c 1.9,6.127 7.197,11.519 12.065,13.863 2.217,1.067 11.32,2.517 11.621,-5.478 0.211,-5.579 -7.071,-18.3 -15.749,-19.745 -6.333,-1.054 -10.422,3.353 -7.937,11.36 z"
       id="path323" /><path
       stroke="#000000"
       stroke-width="0.182"
       d="m 164.648,139.805 c -8.316,1.22 -15.814,5.002 -18.813,11.588 -4.697,10.313 -5.687,28.238 6.312,39.038 10.133,9.119 33.286,15.787 46.53,-0.696 6.514,-8.108 7.304,-30.218 -5.375,-42.36 -3.31,1.958 -8.444,2.46 -13.783,1.81 -5.566,-0.676 -11.35,-2.596 -13.643,-5.903 -0.731,-1.056 -1.104,-2.255 -1.227,-3.477 z"
       opacity="0.75"
       id="path325" /><path
       fill="#ffccaa"
       d="m 184.168,141.826 c -0.42,-0.239 -1.326,-0.665 -2.626,-1.086 a 30.373,32.56 0 0 0 -4.49,-1.048 21.84,23.412 0 0 0 -3.59,-0.19 c -0.78,0.033 -1.031,0.109 -0.813,0.487 0.22,0.378 0.905,1.052 1.844,1.46 0.94,0.41 2.129,0.553 3.296,0.58 1.167,0.027 2.314,-0.06 3.422,-0.056 1.106,0.006 2.177,0.105 2.745,0.126 0.567,0.022 0.633,-0.034 0.212,-0.273 z"
       id="path327"
       style="fill:#ffaaaa;fill-opacity:1" /><path
       fill="#ffffff"
       d="m 178.829,140.413 c -0.568,-0.059 -1.484,-0.18 -2.025,-0.141 -0.54,0.036 -0.703,0.233 -0.412,0.447 0.291,0.213 1.029,0.442 2.044,0.562 1.014,0.12 2.303,0.13 2.581,-0.022 0.278,-0.154 -0.453,-0.47 -0.928,-0.628 -0.475,-0.158 -0.692,-0.158 -1.26,-0.218 z"
       id="path329"
       style="fill:#ffd5d5;fill-opacity:1" /><path
       fill="#ffb380"
       stroke="#000000"
       stroke-width="0.262"
       d="m 187.18,151.867 c 59.07501,26.90301 -9.79429,41.71309 -20.287,43.453 -20.888,-18.083 -39.057,-37.341 -55.4,-56.939 -4.141,-0.117 -5.938,-1.53 -8.08,-2.957 -1.237,-0.824 -2.573,-2.99 -2.842,-4.403 -0.243,-1.274 -0.396,-2.558 0.568,-3.836 l 0.995,-1.278 C 81.174,102.999 60.367,77.243 39.06,60.986 l -3.693,-7.671 14.773,-24.291 16.052,-7.529 5.256,1.989 c 1.413,4.076 4.02,9.14 7.529,14.206 15.14,21.85 31.158,39.712 51.14,57.531 0.268,-0.647 1.05,-1.02 1.99,-0.994 1.2,0.033 2.505,0.21 3.66,0.734 1.67,0.76 2.98,2.047 3.868,3.67 1.473,2.692 2.043,5.765 1.847,9.09 13.61,16.735 28.585,33.471 45.697,44.146 z"
       id="path331"
       sodipodi:nodetypes="cccccccccccccccccccc" /><path
       fill="#ffb380"
       stroke="#000000"
       stroke-width="0.262"
       d="m 187.18,151.867 c 58.8411,2.62435 -11.95212,55.83425 -15.9091,40.6312 -20.888,-18.083 -43.4349,-34.5192 -59.7779,-54.1172 -4.141,-0.117 -5.938,-1.53 -8.08,-2.957 -1.237,-0.824 -2.573,-2.99 -2.842,-4.403 -0.243,-1.274 -0.396,-2.558 0.568,-3.836 l 0.995,-1.278 C 81.174,102.999 60.367,77.243 39.06,60.986 l -3.693,-7.671 14.773,-24.291 16.052,-7.529 5.256,1.989 c 1.413,4.076 4.02,9.14 7.529,14.206 15.14,21.85 31.158,39.712 51.14,57.531 0.268,-0.647 1.05,-1.02 1.99,-0.994 1.2,0.033 2.505,0.21 3.66,0.734 1.67,0.76 2.98,2.047 3.868,3.67 1.473,2.692 2.043,5.765 1.847,9.09 13.61,16.735 28.585,33.471 45.697,44.146 z"
       id="path333"
       sodipodi:nodetypes="cccccccccccccccccccc"
       style="fill:#ff8080;fill-opacity:1" /><path
       fill="#ff7f2a"
       d="m 70.521,30.158 c -0.356,0.079 -0.881,2.244 -1.905,3.064 -1.365,1.091 -1.483,2.945 -3.578,3.677 -2.097,0.731 -4.038,1.484 -6.548,2.173 -1.111765,0.298603 -2.196293,0.690666 -3.242,1.172 -1.026,-1.758 -2.87,-3.436 -5.013,-4.897 -0.907,-0.618 -1.855,-1.216 -2.709,-2.02 l -12.158,19.99 3.693,7.672 c 21.307,16.257 42.116,42.013 63.072,64.92 l -0.995,1.278 c -0.964,1.278 -0.811,2.562 -0.568,3.835 0.27,1.414 1.605,3.58 2.84,4.404 2.143,1.428 3.94,2.84 8.083,2.957 16.343,19.598 34.51,38.856 55.4,56.94 7.6306,-0.66288 24.00519,-15.60402 16.364,-16.131 -6.195,-0.435 -11.384,-1.104 -14.95,-1.305 -3.566,-0.202 -6.23,-21.976 -6.161,-25.419 0.125,-6.45 -8.079,1.949 -9.253,7.218 -4.336,19.446 -12.294,0.622 -16.83,-4.2 -4.536,-4.82 -4.09,-5.868 -10.204,-12.702 -0.765,-0.855 0.117,-6.64 2.942,-10.96 2.825,-4.32 4.99,-12.478 4.436,-11.4 -2.228,4.324 -4.819,8.535 -14.065,13.47 -6.737,3.596 -16.546,0.407 -3.078,-6.249 2.248,-1.11 8.324,-7.475 11.771,-12.673 1.723,-2.598 5.7,-10.187 4.76,-17.822 -0.175,-1.42 -1.046,-2.434 -2.508,-1.928 5.697,7.086 -5.543,21.146 -11.465,24.599 -10.876,6.335 -15.025,-0.335 -15.805,-1.208 -0.88,-0.969 -7.82,-9.104 -8.635,-10.008 -6.776,-7.541 -7.044,-7.935 -13.435,-15.228 -6.393,-7.292 -12.834,-14.3 -18.09,-19.652 -5.255,-5.35 -9.328,-9.044 -10.464,-12.928 -1.136,-3.884 1.013,-7.826 2.036,-11.174 1.28,-4.189 3.816,-5.257 7.154,-7.105 2.946,-1.625 4.711,-2.797 6.636,-4.54 3.491,-3.164 3.405,-8.175 3.384,-8.764 -0.006,-0.146 -0.795,0.917 -0.912,0.943 z"
       id="path335"
       sodipodi:nodetypes="cccccccccccccccccccccscccccccccccssccccc"
       style="fill:#ff2a2a;fill-opacity:1" /><path
       fill="none"
       stroke="#000000"
       stroke-linecap="round"
       stroke-linejoin="round"
       stroke-width="0.262"
       d="m 187.18,151.867 c 30.04413,-10.0919 15.8201,62.76276 -20.287,43.453 -20.888,-18.083 -39.057,-37.341 -55.4,-56.939 -4.141,-0.117 -5.938,-1.53 -8.08,-2.957 -1.237,-0.824 -2.573,-2.99 -2.842,-4.403 -0.243,-1.274 -0.396,-2.558 0.568,-3.836 l 0.995,-1.278 C 81.174,102.999 60.367,77.243 39.06,60.986 l -3.693,-7.671 14.773,-24.291 16.052,-7.529 5.256,1.989 c 1.413,4.076 4.02,9.14 7.529,14.206 15.14,21.85 31.158,39.712 51.14,57.531 0.268,-0.647 1.05,-1.02 1.99,-0.994 1.2,0.033 2.505,0.21 3.66,0.734 1.67,0.76 2.98,2.047 3.868,3.67 1.473,2.692 2.043,5.765 1.847,9.09 13.61,16.735 28.585,33.471 45.697,44.146 z"
       id="path337"
       sodipodi:nodetypes="cccccccccccccccccccc" /><path
       d="m 51.08,45.35 c -0.045,-0.02 -0.142,0.041 -0.31,0.2 -0.674,0.638 -2.5,2.889 -5.116,5.387 -2.45,2.34 -5.581,4.893 -7.886,7.367 l 1.293,2.685 c 21.307,16.257 42.116,42.013 63.072,64.92 l -0.994,1.278 c -0.964,1.278 -0.812,2.562 -0.569,3.835 0.27,1.414 1.605,3.58 2.84,4.404 2.144,1.428 3.94,2.84 8.083,2.957 11.613,13.926 24.155,27.679 37.933,40.963 l 0.714,0.685 c 3.40707,3.27236 6.86618,6.4901 10.376,9.652 l 0.601,0.54 c 1.77556,1.59478 3.56428,3.17483 5.366,4.74 v 0.001 c 0.058,0.216 0.147,0.387 0.264,0.526 -0.021,0.024 -0.033,0.046 -0.053,0.07 -0.112,0.13 -0.23,0.262 -0.326,0.391 52.20446,4.23258 -4.16869,-11.10152 3.765,-4.833 -0.04,0.049 -0.07,0.095 -0.108,0.142 -0.039,-0.09 -0.06,-0.18 -0.107,-0.268 -1.065,-2.012 -4.239,-3.858 -6.82,-9.398 -2.58,-5.542 -4.568,-14.777 -6.7,-16.884 -2.13,-2.106 -4.403,2.913 -7.032,4.476 -2.63,1.563 -5.61,-0.33 -8.973,-3.266 -3.362,-2.936 -7.103,-6.914 -10.49,-10.749 -3.384,-3.836 -6.414,-7.53 -7.361,-10.82 -0.947,-3.292 2.808,-9.192 4.602,-12.901 -3.73,2.925 -10.372,6.719 -14.917,5.903 -3.457,-1.04 -5.479,-2.05 -7.539,-4.673 -1.04,-1.327 -1.23,-2.986 -0.662,-3.838 0.568,-0.851 1.895,-0.897 3.063,-1.047 1.168,-0.149 2.18,-0.401 3.272,-0.744 1.17831,-0.3635 2.32701,-0.81683 3.436,-1.356 1.13131,-0.56547 2.22016,-1.21216 3.258,-1.935 0.912,-0.636 1.564,-1.189 1.364,-1.164 -0.2,0.024 -1.257,0.629 -2.74,1.24 -1.483,0.611 -3.389,1.23 -5.206,1.356 -1.817,0.126 -3.54,-0.24 -5.248,-1.037 -1.708,-0.796 -3.4,-2.017 -4.73,-3.098 -1.329,-1.08 -2.297,-2.022 -3.634,-3.628 -1.335,-1.607 -3.04,-3.88 -4.957,-6.307 -1.870209,-2.36404 -3.784207,-4.69311 -5.741,-6.986 -1.693,-1.976 -2.947,-3.347 -5.812,-6.449 -2.865,-3.1 -7.342,-7.932 -12.006,-12.762 -4.663,-4.83 -9.516,-9.66 -12.912,-13.484 -3.398,-3.824 -5.34,-6.642 -6.228,-9.222 -0.887,-2.582 -0.722,-4.925 -0.343,-6.831 0.379,-1.906 0.971,-3.374 1.278,-4.723 0.308,-1.348 0.331,-2.58 0.58,-3.68 0.187,-0.826 0.499,-1.58 0.36,-1.636 z"
       opacity="0.5"
       id="path339"
       sodipodi:nodetypes="cccccccccccccccccccccccccccccccccccccsscccccccccscscc" /><path
       fill="#ffb380"
       d="m 25.886,35.904 c -2.326,7.195 -3.251,16.871 1.712,22.158 3.303,2.286 7.247,3.422 14.027,1.43 2.811,-1.03 5.624,-6.222 8.437,-10.546 5.978,-9.332 18.326,-6.26 23.506,-24.208 0.412,-4.706 -1.09,-12.763 -10.026,-13.459 -0.776,-0.06 -1.529,-0.36 -2.45,-0.96 -5.113,-3.33 -9.32,-2.405 -11.262,-1.7 -2.452,0.89 -4.627,2.033 -6.967,3.548 -2.91,0.876 -5.49,2.66 -7.675,4.5 -2.223,1.873 -4.602,4.658 -6.34,7.731 -1.55,2.74 -2.472,5.043 -2.962,11.507 z"
       id="path343"
       style="fill:#ff8080;fill-opacity:1" /><path
       fill="#ff7f2a"
       d="m 201.428,164.23 -8.952,24.896 -23.44,0.143 -7.448,7.094 c 11.176,5.087 27.244,6.331 37.358,-5.412 4.442,-5.157 6.136,-16.574 2.482,-26.722 z"
       id="path345" /><path
       d="m 201.428,164.23 -8.952,24.896 -23.44,0.143 -7.448,7.094 c 11.176,5.087 27.244,6.331 37.358,-5.412 4.442,-5.157 6.136,-16.574 2.482,-26.722 z"
       opacity="0.75"
       id="path347" /><path
       fill="#ff7f2a"
       stroke="#000000"
       stroke-width="0.182"
       d="m 156.442,155.014 c -4.84,9.915 -5.86,27.147 6.507,37.53 10.443,8.767 34.303,15.177 47.953,-0.671 7.365,-8.549 7.642,-33.3 -9.726,-43.83 -12.675,-7.686 -38.407,-5.985 -44.733,6.971 z"
       id="path351" /><path
       stroke="#000000"
       stroke-width="0.182"
       d="m 156.442,155.014 c -4.84,9.915 -5.86,27.147 6.507,37.53 10.443,8.767 34.303,15.177 47.953,-0.671 7.365,-8.549 7.642,-33.3 -9.726,-43.83 -12.675,-7.686 -38.407,-5.985 -44.733,6.971 z"
       opacity="0.5"
       id="path353"
       style="fill:#ff2a2a;fill-opacity:1;opacity:1" /><path
       fill="#ff7f2a"
       d="m 157.518,154.607 c -4.077,10.522 -4.348,24.803 8.246,35.375 10.635,8.929 34.947,14.292 44.442,1.421 6.823,-9.246 8.392,-33.613 -9.294,-44.337 -12.907,-7.827 -38.09,-6.151 -43.394,7.54 z"
       id="path355"
       style="fill:#ff5555;fill-opacity:1" /><path
       fill="#ffb380"
       d="m 166.417,155.014 c -4.84,9.915 -0.953,22.246 6.507,30.161 3.397,3.604 21.715,14.564 34.29,4.396 8.775,-7.094 11.325,-30.997 -6.041,-41.528 -12.675,-7.685 -28.43,-5.985 -34.755,6.972 z"
       id="path357"
       style="fill:#ff8080;fill-opacity:1" /><path
       fill="#ffb380"
       d="m 171.433,162.102 c 0.223,9.343 7.237,17.957 15.114,21.978 3.587,1.832 19.925,4.977 24.87,-6.913 3.452,-8.297 -3.286,-28.055 -18.827,-31.148 -11.342,-2.258 -21.45,3.872 -21.158,16.083 z"
       id="path359"
       style="fill:#ff8080;fill-opacity:1" /><path
       fill="#ffe6d5"
       d="m 200.904,173.752 c -2.292,-0.785 -4.823,-3.971 -9.036,-7.202 -4.212,-3.23 -10.105,-6.504 -11.655,-9.626 -1.549,-3.121 1.244,-6.09 5.914,-6.286 4.669,-0.196 11.22,2.38 15.06,6.286 3.842,3.906 4.976,9.145 4.518,12.572 -0.458,3.428 -2.51,5.042 -4.8,4.257 z"
       id="path361"
       style="fill:#ffaaaa;fill-opacity:1" /><path
       fill="#ffb380"
       d="m 164.368,168.261 c -0.04,-1.551 -0.122,-4.652 -0.166,-7.883 -0.045,-3.232 -0.05,-6.596 -0.244,-8.73 -0.192,-2.136 -0.575,-3.047 -1.568,-2.862 -0.993,0.183 -2.6,1.463 -3.937,2.246 -1.337,0.782 -2.402,1.068 -1.964,-0.373 0.438,-1.443 2.378,-4.604 5.542,-6.144 3.165,-1.54 7.555,-1.457 9.34,-1.342 1.786,0.114 0.967,0.259 0.496,0.697 -0.471,0.437 -0.593,1.17 0.276,1.395 0.87,0.226 2.722,-0.054 4.483,-0.393 1.76,-0.339 3.425,-0.734 5.036,-0.62 1.612,0.113 3.185,0.74 2.004,2.386 -1.182,1.648 -5.113,4.32 -7.744,9.334 -2.631,5.014 -3.963,12.367 -5.261,16.193 -1.299,3.826 -2.566,4.121 -3.604,3.14 -1.037,-0.982 -1.843,-3.239 -2.245,-4.365 -0.403,-1.128 -0.403,-1.128 -0.444,-2.679 z"
       id="path363"
       style="fill:#ff8080;fill-opacity:1" /><path
       fill="#ff7f2a"
       d="m 146.728,182.934 c 1.26,2.15 3.267,4.7 5.537,6.743 2.269,2.043 4.798,3.578 6.877,4.642 2.078,1.064 3.705,1.659 3.95,1.503 0.243,-0.155 -0.894,-1.06 -2.29,-2.287 -1.395,-1.225 -3.05,-2.77 -5.146,-4.788 a 323.442,323.442 0 0 1 -6.578,-6.49 c -1.94,-1.987 -3.282,-3.47 -3.7,-3.342 -0.416,0.128 0.091,1.87 1.35,4.02 z"
       id="path365"
       style="fill:#ff2a2a;fill-opacity:1" /><path
       fill="#ffffff"
       d="m 148.28,184.7 c -0.035,0.205 0.664,1.537 1.723,2.857 1.058,1.322 2.477,2.63 3.857,3.673 1.381,1.042 2.723,1.817 2.571,1.5 -0.152,-0.317 -1.798,-1.724 -3.144,-2.97 a 51.587,51.587 0 0 1 -3.3,-3.338 c -0.906,-1.005 -1.674,-1.925 -1.708,-1.721 z m 55.092,-21.42 c -0.182,-0.628 -0.548,-1.88 -1.732,-3.144 -1.185,-1.263 -3.191,-2.536 -4.908,-2.92 -1.716,-0.388 -3.144,0.113 -2.817,1.614 0.328,1.5 2.407,3.994 4.298,5.61 1.89,1.616 3.59,2.351 4.448,2.116 0.859,-0.236 0.877,-1.444 0.886,-2.047 0.009,-0.602 0.009,-0.602 -0.175,-1.23 z"
       id="path367"
       style="fill:#ffd5d5;fill-opacity:1" /><path
       fill="#ff9955"
       d="m 55.849,58.033 c 0.32,4.757 3.731,8.193 8.907,13.95 5.176,5.757 12.08,13.787 18.304,20.734 6.226,6.946 11.752,12.783 16.406,16.86 4.654,4.076 8.431,6.392 8.693,5.171 0.262,-1.22 -2.993,-5.974 -6.527,-11.133 C 98.097,98.457 94.279,92.896 87.054,85.652 79.829,78.407 69.194,69.48 64.297,61.781 c -4.898,-7.7 -4.058,-14.167 -5.025,-14.368 -0.968,-0.201 -3.744,5.864 -3.424,10.62 z"
       id="path373"
       style="fill:#ff5555;fill-opacity:1" /><path
       fill="none"
       stroke="#000000"
       stroke-width="0.157"
       d="m 130.114,95.224 c 9.52,6.553 -14.636,39.844 -27.984,30.685"
       id="path375" /><path
       fill="#ffffff"
       d="m 137.238,97.16 c -0.419,-0.1 -1.255,-0.301 -1.69,0.168 -0.437,0.468 -0.47,1.606 -0.068,2.594 0.403,0.989 1.239,1.825 1.64,2.846 0.402,1.02 0.369,2.226 0.603,2.963 0.235,0.738 0.737,1.006 1.256,0.503 0.519,-0.503 1.055,-1.776 1.055,-3.08 0,-1.305 -0.536,-2.646 -1.022,-3.633 a 14.843,14.843 0 0 0 -1.138,-1.943 c -0.218,-0.317 -0.218,-0.317 -0.636,-0.418 z m 1.09,12.822 c -0.099,-0.043 -0.294,0.098 -0.526,0.356 -0.504,0.558 -1.274,1.802 -2.33,3.44 -0.137,0.267 -0.258,0.523 -0.268,0.718 -0.021,0.36 0.342,0.506 0.806,0.065 0.346,-0.33 0.75,-0.99 1.04,-1.247 0.234,-0.44 0.485,-0.903 0.651,-1.252 0.681,-1.422 0.79,-2.008 0.627,-2.08 z m -9.693,13.713 c -0.35,-0.055 -0.939,0.036 -1.494,0.27 -0.122,0.053 -0.226,0.122 -0.344,0.185 l -0.141,0.123 c -1.19,0.928 -1.43,1.047 -2.785,2.236 -1.356,1.187 -2.224,2.593 -2.207,3.215 0.015,0.62 0.92,0.453 2.711,-0.77 1.002,-0.683 2.292,-1.74 3.683,-3.09 0.203,-0.266 0.422,-0.54 0.586,-0.763 0.357,-0.478 0.465,-0.713 0.461,-0.931 -0.004,-0.218 -0.12,-0.42 -0.47,-0.475 z"
       id="path377"
       style="fill:#ffd5d5;fill-opacity:1" /><path
       fill="#ff9955"
       d="m 129.014,136.959 c -0.569,0.05 0.218,1.724 1.09,3.441 0.87,1.718 1.823,3.472 4.067,6.47 2.244,2.998 5.775,7.232 8.999,10.014 3.223,2.782 6.136,4.11 6.705,3.648 0.569,-0.46 -1.207,-2.708 -3.081,-4.644 -1.875,-1.936 -3.851,-3.56 -5.61,-5.335 -1.757,-1.775 -3.297,-3.7 -4.552,-5.475 -1.257,-1.775 -2.228,-3.398 -3.676,-4.997 -1.447,-1.598 -3.373,-3.173 -3.942,-3.122 z"
       id="path379"
       style="fill:#ff5555;fill-opacity:1" /><path
       fill="#ffccaa"
       d="m 140.496,157.702 c 0.106,0.71 0.792,2.107 1.823,2.959 1.031,0.853 2.29,1.134 2.823,0.932 0.532,-0.202 0.28,-0.898 -0.483,-1.754 -0.765,-0.857 -2.043,-1.876 -2.919,-2.373 -0.876,-0.497 -1.35,-0.474 -1.244,0.236 z"
       id="path381"
       style="fill:#ffaaaa;fill-opacity:1" /><path
       fill="#ffe6d5"
       d="m 146.374,118.918 c 1.59,2.72 1.909,3.691 2.085,5.483 0.175,1.792 0.21,4.403 -0.579,5.458 -0.785,1.055 -2.391,0.553 -4.419,0.067 -2.026,-0.485 -4.468,-0.954 -5.29,-0.133 -0.82,0.82 -0.017,2.928 2.06,4.53 2.078,1.6 5.426,2.692 7.535,5.085 2.11,2.394 2.979,6.09 4.385,7.177 1.407,1.086 3.348,-0.437 3.532,-2.438 0.184,-2 -1.39,-4.478 -1.759,-6.445 -0.366,-1.968 0.47,-3.424 1.976,-3.751 1.508,-0.325 3.684,0.479 7.065,2.57 3.38,2.092 7.966,5.473 7.403,4.44 -0.561,-1.033 -6.262,-6.47 -10.24,-10.434 -3.977,-3.963 -6.208,-6.427 -9.43,-10.057 -3.221,-3.63 -7.43,-8.42 -8.104,-8.58 -0.673,-0.162 2.19,4.307 3.78,7.028 z"
       id="path383"
       style="fill:#ffaaaa;fill-opacity:1" /><path
       fill="#ffffff"
       d="m 159.648,131.375 c -1.574,-1.54 -3.399,-3.416 -4.763,-4.688 -1.365,-1.272 -2.268,-1.942 -2.562,-1.372 -0.293,0.568 0.026,2.376 0.913,3.632 0.888,1.256 2.344,1.96 3.675,2.587 1.33,0.629 2.535,1.18 3.674,1.8 1.138,0.618 2.21,1.305 2.085,1.046 -0.126,-0.26 -1.449,-1.465 -3.022,-3.005 z"
       id="path385"
       style="fill:#ffd5d5;fill-opacity:1" /><path
       fill="#ffe6d5"
       d="m 118.014,87.743 c 2.118,1.503 4.944,4.238 6.288,7.267 1.344,3.03 1.208,6.357 -0.48,8.771 -1.685,2.416 -4.919,3.919 -7.084,3.6 -2.166,-0.32 -3.259,-2.46 -2.894,-4.602 0.365,-2.142 2.188,-4.284 2.302,-7.13 0.114,-2.847 -1.482,-6.403 -1.572,-8.043 -0.091,-1.64 1.321,-1.367 3.44,0.136 z"
       id="path387"
       style="display:inline;fill:#ffaaaa;fill-opacity:1" /><path
       fill="#ff7f2a"
       d="m 53.26,14.71 a 9.534,9.534 0 0 0 -0.835,0.062 c -2.38,0.285 -6.024,1.516 -9.02,3.375 -2.996,1.858 -5.34,4.343 -6.643,6.853 -1.3,2.51 -1.56,5.042 -2.341,6.736 -0.782,1.694 -2.085,2.546 -3.102,3.575 -1.019,1.03 -1.75,2.236 -2.012,3.683 -0.186,1.029 0.15,2.126 -0.117,3.2 -0.186,0.749 -0.415,1.603 -0.576,1.707 -1.054,0.675 -1.509,-1.001 -1.758,-2.683 -0.249,-1.682 -0.131,-4.593 0.2,-7.35 0.332,-2.757 0.878,-5.364 2.12,-8.678 0.43,-1.148 0.912,-2.32 1.35,-3.403 a 28.933,28.933 0 0 0 -1.678,2.61 c -1.55,2.739 -2.472,5.044 -2.962,11.507 -2.326,7.195 -3.251,16.87 1.712,22.155 3.304,2.288 7.248,3.423 14.028,1.43 2.813,-1.03 5.623,-6.22 8.436,-10.545 5.978,-9.33 18.326,-6.26 23.506,-24.208 a 16.95,16.95 0 0 0 0.024,-2.412 c -0.123,-0.49 -0.268,-0.941 -0.449,-1.288 -0.381,-0.736 -0.85,-1.094 -1.29,-1.037 a 0.836,0.836 0 0 0 -0.426,0.196 c -0.544,0.45 -0.97,1.656 -1.113,2.853 -0.143,1.196 0,2.378 -0.64,4.225 -0.64,1.848 -2.06,4.357 -3.966,6.417 -1.907,2.06 -4.295,3.669 -6.722,5.055 a 64.63,64.63 0 0 1 -3.976,2.072 c -0.825,0.472 -1.653,0.99 -2.406,1.584 -1.586,1.25 -2.922,2.915 -4.491,5.008 -1.57,2.095 -3.535,4.82 -5.617,6.63 -2.083,1.811 -4.287,2.712 -6.642,2.843 -2.356,0.13 -5.649,-0.543 -7,-1.396 -1.352,-0.852 -1.345,-3.912 -0.977,-4.337 0.183,-0.214 0.652,2.188 1.565,2.566 0.376,0.155 0.445,-1.638 1.863,-1.219 6.004,1.777 8.5,0.205 11.367,-2.536 0.972,-0.945 1.804,-2.137 2.472,-3.413 a 21.492,21.492 0 0 0 1.385,-3.342 c 0.21,-0.69 0.117,-0.696 -0.164,-0.268 -0.28,0.428 -0.737,1.276 -1.47,2.283 a 18.152,18.152 0 0 1 -2.954,3.182 c -1.215,1.02 -2.642,1.899 -4.064,2.473 a 14.183,14.183 0 0 1 -3.852,0.936 c -0.335,0.032 -0.57,0.035 -0.828,0.045 -0.45,-0.13 -0.803,-0.247 -0.981,-0.425 -0.38,-0.382 -0.508,-0.635 -0.755,-1.204 -0.163,-0.374 -0.462,-1.516 -0.482,-2.193 0.245,-0.42 1.797,-0.775 1.81,-0.778 1.137,-0.344 2.391,-0.71 4.263,-2.308 1.87,-1.598 3.928,-3.684 5.064,-6.228 1.136,-2.546 1.35,-5.552 3.858,-9.28 2.51,-3.728 7.317,-8.18 9.543,-10.57 2.224,-2.391 1.87,-2.724 1.136,-3.222 -0.64,-0.435 -1.574,-0.995 -3.392,-0.939 z"
       id="path389"
       style="display:inline;fill:#ff5555;fill-opacity:1" /><path
       stroke="#000000"
       stroke-width="0.157149"
       d="m 37.51,29.035 c -0.336,-0.02 -0.754,0.465 -1.071,0.884 -0.51,0.67 -0.776,1.194 -0.915,1.574 -0.14,0.38 -0.17,0.66 -0.34,1.045 -0.17,0.386 -0.477,0.88 -0.606,1.583 -0.129,0.706 -0.078,1.622 -0.35,2.825 -0.272,1.203 -0.87,2.705 -1.465,3.615 -0.594,0.912 -1.194,1.252 -1.586,1.677 -0.39,0.424 -0.576,0.934 -0.738,1.667 -0.163,0.733 -0.302,1.692 -0.64,2.5 -0.34,0.81 -0.888,1.482 -1.345,1.606 -0.457,0.126 -0.838,-0.277 -1.062,-0.58 -0.225,-0.304 -0.292,-0.502 -0.427,-0.962 a 30.664,30.664 0 0 1 -0.514,-1.955 28.101,28.101 0 0 1 -0.419,-2.326 22.698,22.698 0 0 1 -0.185,-2.12 37.633,37.633 0 0 1 -0.024,-2.369 c 0.014,-0.71 0.048,-1.32 0.058,-1.779 -2.321,7.195 -3.243,16.858 1.719,22.14 3.302,2.288 7.246,3.423 14.026,1.432 a 3.97,3.97 0 0 0 0.586,-0.28 c -1.892,0.256 -5.71,0.514 -6.789,0.361 -1.298,-0.202 -2.696,-0.247 -4.397,-0.968 -4.229,-1.794 -4.44,-4.785 -4.444,-6.253 -0.003,-1.145 1.7,-2.955 2.077,-2.476 0.377,0.478 0.274,2.09 0.491,2.3 0.217,0.21 0.618,-1.315 0.882,-1.57 0.262,-0.254 0.47,0.299 1.197,0.887 0.528,0.426 1.889,0.77 2.281,0.807 0.247,0.025 0.153,-0.167 -0.043,-0.457 -0.083,0.003 -0.186,0.01 -0.27,0.013 -0.45,-0.13 -0.804,-0.247 -0.981,-0.425 -0.38,-0.381 -0.509,-0.634 -0.756,-1.203 -0.162,-0.375 -0.462,-1.516 -0.482,-2.194 0.245,-0.42 1.798,-0.774 1.81,-0.777 0.447,-0.136 0.926,-0.296 1.438,-0.512 a 5.7,5.7 0 0 0 0.555,-0.707 c 1.109,-1.69 2.092,-4.818 2.686,-8.137 0.594,-3.319 0.8,-6.83 0.522,-8.16 -0.105,-0.502 -0.276,-0.694 -0.479,-0.706 z"
       opacity="0.5"
       id="path391"
       style="opacity:0.5" /><path
       fill="#ffb380"
       stroke="#000000"
       stroke-linecap="round"
       stroke-linejoin="round"
       stroke-width="0.157149"
       d="m 32.348,45.043 c -1.076,-1.002 -1.51,-2.036 -2.38,-3.835 -0.038,-1.024 0.15,-2.447 0.64,-3.445 0.748,-1.526 0.905,-2.182 2.84,-3.48 2.005,0.257 3.241,1.154 4.723,1.847 l -0.958,5.966 z"
       id="path393"
       style="display:inline;fill:#ff8080;fill-opacity:1;stroke:#000000;stroke-opacity:1" /><path
       fill="#ffb380"
       d="m 31.46,50.228 c -0.377,-1.255 -1.001,-2.595 -0.497,-4.83 0.341,-1.512 0.768,-1.013 1.615,-1.61 0.848,-0.597 2.368,-1.224 2.86,-2.794 1.172,-3.742 -0.503,-2.472 0.497,-9.624 0.558,-3.998 3.16,-7.51 6.676,-10.653 8.954,-8.009 15.338,-6.79 19.178,-4.048 6.59,4.7 3.967,11.165 0.071,15.625 -4.567,5.226 -8.023,3.342 -13.78,9.305"
       id="path397"
       style="display:inline;fill:#ff8080;fill-opacity:1" /><g
       fill="none"
       stroke="#000000"
       stroke-width="0.15"
       id="g405"
       style="display:inline"><path
         stroke-width="0.157149"
         d="m 25.886,35.904 c -2.326,7.195 -3.251,16.871 1.712,22.158 3.303,2.286 7.247,3.422 14.027,1.43 2.811,-1.03 5.624,-6.222 8.437,-10.546 5.978,-9.332 18.326,-6.26 23.506,-24.208 0.412,-4.706 -1.09,-12.763 -10.026,-13.459 -0.776,-0.06 -1.529,-0.36 -2.45,-0.96 -5.113,-3.33 -9.32,-2.405 -11.262,-1.7 -2.452,0.89 -4.627,2.033 -6.967,3.548 -2.91,0.876 -5.49,2.66 -7.675,4.5 -2.223,1.873 -4.602,4.658 -6.34,7.731 -1.55,2.74 -2.472,5.043 -2.962,11.507 z"
         id="path401"
         style="display:inline;fill:none;fill-opacity:1" /><path
         fill="#ff7f2a"
         d="m 35.736,34.939 c -0.103,0.163 -0.21,0.334 -0.283,0.515 -0.193,0.479 -0.23,0.925 -0.258,1.625 -0.026,0.7 -0.042,1.647 -0.213,2.462 -0.17,0.814 -0.492,1.492 -0.981,1.986 -0.49,0.495 -1.146,0.803 -1.699,0.745 -0.553,-0.057 -0.999,-0.482 -1.28,-0.726 -0.283,-0.245 -0.399,-0.312 -0.183,-0.428 0.216,-0.115 0.76,-0.278 1.312,-0.791 0.55,-0.514 1.107,-1.375 1.424,-2.221 0.317,-0.846 0.391,-1.674 0.364,-2.177 -0.027,-0.502 -0.157,-0.678 -0.364,-0.683 -0.206,-0.006 -0.49,0.159 -0.632,0.24 -0.143,0.083 -0.144,0.083 -0.155,0.142 -0.012,0.06 -0.034,0.178 0.083,0.246 0.118,0.068 0.368,0.084 0.495,0.317 0.127,0.234 0.129,0.692 0.09,1.075 -0.039,0.382 -0.115,0.69 -0.413,1.018 -0.297,0.329 -0.814,0.675 -1.197,0.755 -0.383,0.082 -0.629,-0.104 -0.759,-0.378 -0.132,-0.274 -0.146,-0.637 -0.166,-0.968 -0.01,-0.189 -0.029,-0.352 -0.084,-0.403 -0.076,0.158 -0.14,0.293 -0.23,0.472 -0.489,0.997 -0.679,2.422 -0.639,3.447 0.745,1.542 1.195,2.515 1.98,3.396 0.2,0.09 0.407,0.166 0.62,0.21 0.045,0.01 0.09,0.006 0.135,0.014 l 3.153,-1.91 c 0.436,-0.897 0.727,-2.034 0.856,-3.15 0.177,-1.544 0.055,-3.04 -0.058,-4.002 -0.023,-0.199 -0.05,-0.281 -0.073,-0.435 a 14.925,14.925 0 0 0 -0.845,-0.393 z"
         id="path395"
         style="display:inline;fill:#ff5555;fill-opacity:1;stroke:#ff5555;stroke-opacity:1" /><path
         stroke-linecap="round"
         stroke-linejoin="round"
         stroke-width="0.157149"
         d="m 32.348,45.043 c -1.076,-1.002 -1.51,-2.036 -2.38,-3.835 -0.038,-1.024 0.15,-2.447 0.64,-3.445 0.748,-1.526 0.905,-2.182 2.84,-3.48 2.005,0.257 3.241,1.154 4.723,1.847 l -0.958,5.966 z"
         id="path399"
         style="display:inline;fill:none;fill-opacity:1" /><path
         stroke-linecap="round"
         stroke-linejoin="round"
         stroke-width="0.157149"
         d="m 56.44,13.762 c -1.347,-0.81 -2.892,-1.514 -4.997,-1.833 -3.837,-0.582 -6.48,-0.353 -8.58,0.237 M 27.235,47.327 c -0.65,-1.865 -1.802,-5.351 -1.35,-11.423"
         id="path403"
         style="display:inline;fill:#ffaaaa;fill-opacity:1" /></g><path
       fill="#ffccaa"
       d="m 102.643,114.078 c 0.852,0.13 2.729,1.31 4.213,2.03 1.485,0.72 2.576,0.983 4.06,1.004 1.483,0.022 3.363,-0.196 3.863,0.458 0.503,0.653 -0.37,2.182 -2.03,2.706 -1.66,0.524 -4.103,0.045 -6.002,-0.872 -1.9,-0.918 -3.253,-2.27 -4.017,-3.405 -0.764,-1.135 -0.938,-2.053 -0.087,-1.921 z"
       id="path407"
       style="fill:#ffaaaa;fill-opacity:1" /><path
       fill="#ffe6d5"
       d="m 102.991,70.623 c -2.728,-2.135 -6.15,-1.25 -5.472,0.691 0.42,1.202 1.144,2.555 -0.932,3.58 -2.299,-0.097 -6.744,-2.26 -8.378,-2.755 -1.635,-0.497 -3.307,-0.691 -3.087,-0.133 0.22,0.558 1.454,2.231 2.813,3.697 1.688,1.358 2.85,2.868 4.09,3.969 1.172,1.042 3.63,5.284 4.084,5.458 0.672,0.26 0.912,-6.043 1.386,-6.875 1.2,-0.495 2.758,-0.256 4.362,-0.252 2.19,0.004 3.862,0.711 5.248,0.64 1.384,-0.068 2.478,-0.916 1.41,-2.42 -2.42,-2.365 -3.058,-3.67 -5.524,-5.6 z"
       id="path409"
       style="fill:#ffaaaa;fill-opacity:1" /><path
       fill="#ffccaa"
       d="m 91.604,56.062 c -1.695,-1.914 -3.486,-3.806 -5.015,-3.873 -1.53,-0.067 -2.796,1.69 -3.189,3.28 -0.393,1.59 0.09,3.01 1.446,3.865 1.353,0.856 3.578,1.147 5.664,1.472 2.088,0.325 4.04,0.686 4.215,-0.104 0.175,-0.79 -1.425,-2.726 -3.12,-4.64 z"
       id="path411"
       style="fill:#ffaaaa;fill-opacity:1" /><path
       fill="#ffffff"
       d="m 120.622,93.739 c -0.355,0.286 -0.88,0.579 -1.01,1.77 -0.133,1.19 0.13,3.269 0.756,4.017 0.625,0.749 1.613,0.162 1.836,-1.163 0.223,-1.326 -0.317,-3.398 -0.68,-4.292 -0.362,-0.896 -0.547,-0.618 -0.902,-0.332 z M 105.684,75.335 c -0.432,-0.678 -1.204,-1.372 -1.998,-1.343 -0.794,0.032 -1.614,0.787 -1.18,1.467 0.434,0.681 2.113,1.281 2.907,1.25 0.796,-0.032 0.702,-0.695 0.27,-1.374 z"
       id="path413"
       style="fill:#ffd5d5;fill-opacity:1" /><path
       fill="#ff9955"
       d="m 47.07,40.32 c -3.178,4.043 -3.95,5.806 -4.736,6.805 -0.967,1.231 -2.228,2.535 -3.707,3.046 -0.99,0.342 -2.7,0.158 -3.733,-0.032 -1.51,-0.378 -2.19,-0.746 -2.593,-2.006 -0.334,-1.047 -0.066,-2.213 0.738,-2.907 0.804,-0.695 2.375,-1.003 3.487,-1.59 a 4.426,4.426 0 0 0 2.116,-2.362 c 0.354,-0.912 0.417,-1.87 0.34,-3.536 -0.078,-1.666 -0.294,-4.04 -0.063,-5.923 0.232,-1.884 0.91,-3.273 1.914,-5.157 1.003,-1.883 2.332,-4.259 4.677,-6.296 2.347,-2.037 5.709,-3.734 8.472,-4.537 1.98,-0.575 4.253,0.462 4.931,-0.64 -0.364,-0.175 -2.324,-0.697 -3.628,-0.595 -3.415,0.037 -7.637,1.62 -12.675,6.126 -3.516,3.145 -6.118,6.656 -6.676,10.654 -0.999,7.152 0.675,5.883 -0.497,9.626 -0.492,1.57 -2.011,2.196 -2.859,2.793 -0.847,0.597 -1.275,0.098 -1.617,1.61 -0.503,2.235 0.088,3.584 0.498,4.83 0.144,0.436 0.369,0.847 0.754,1.203 0.405,0.373 1.509,0.857 2.468,0.898 1.21,0.052 2.85,-0.092 4.142,-0.62 1.671,-0.682 3.122,-1.888 4.388,-3.175 1.63,-1.661 2.755,-4.772 4.87,-6.935 a 19.748,19.748 0 0 1 4.499,-3.567 58.048,58.048 0 0 1 4.494,-2.1 c 1.515,-0.615 2.889,-1.738 4.22,-3.02 1.664,-1.795 3.097,-3.769 3.96,-6.186 0.665,-2.088 0.68,-3.592 0.372,-4.807 -0.178,1.863 -0.377,3.663 -1.065,4.815 -1.412,2.366 -3.058,4.39 -4.7,5.534 -2.855,1.989 -5.36,3.444 -8.032,4.607 -2.376,1.034 -3.715,2.116 -4.759,3.443 z"
       id="path415"
       style="fill:#ff2a2a;fill-opacity:1" /><path
       fill="none"
       stroke="#000000"
       stroke-linecap="round"
       stroke-linejoin="round"
       stroke-width="0.157"
       d="m 31.46,50.228 c -0.377,-1.255 -1.001,-2.595 -0.497,-4.83 0.341,-1.512 0.768,-1.013 1.615,-1.61 0.848,-0.597 2.368,-1.224 2.86,-2.794 1.172,-3.742 -0.503,-2.472 0.497,-9.624 0.558,-3.998 3.16,-7.51 6.676,-10.653 8.954,-8.009 15.338,-6.79 19.178,-4.048 6.59,4.7 3.967,11.165 0.071,15.625 -4.567,5.226 -8.023,3.342 -13.78,9.305"
       id="path417" /><g
       fill="#ffe6d5"
       id="g423"><path
         d="m 61.683,20.832 c -0.587,-1.628 -1.852,-2.585 -4.128,-2.708 -2.276,-0.124 -5.563,0.586 -8.04,2.415 -2.478,1.829 -4.145,4.776 -5.163,8.295 -1.02,3.52 -1.39,7.608 -0.17,8.38 1.22,0.771 4.028,-1.775 7.277,-4.02 3.248,-2.245 6.938,-4.19 8.828,-6.312 1.89,-2.122 1.983,-4.422 1.396,-6.05 z M 46.714,13.385 c -0.216,0.57 -1.266,1.496 -3.103,2.693 -1.838,1.197 -4.459,2.662 -6.265,4.662 -1.806,1.998 -2.794,4.528 -3.766,5.423 -0.974,0.896 -1.93,0.156 -1.79,-1.389 0.138,-1.544 1.373,-3.889 2.392,-5.463 1.018,-1.574 1.822,-2.376 2.993,-3.24 1.174,-0.864 2.718,-1.791 4.2,-2.416 1.48,-0.624 2.901,-0.949 3.92,-1.003 1.017,-0.053 1.635,0.162 1.42,0.733 z m -7.31,29.693 c 0.815,-0.404 1.674,-0.482 2.195,-0.174 0.521,0.308 0.707,1.005 0.406,1.823 -0.3,0.817 -1.086,1.755 -2.2,2.41 -1.113,0.655 -2.552,1.026 -3.085,0.665 -0.532,-0.36 -0.083,-1.66 0.508,-2.622 0.59,-0.964 1.361,-1.698 2.175,-2.102 z"
         id="path419"
         style="fill:#ffaaaa;fill-opacity:1" /><path
         d="m 59.309,12.99 c 0.622,-0.295 1.561,-0.71 2.623,-0.964 1.063,-0.253 2.351,-0.354 3.617,-0.016 1.264,0.338 2.56,1.112 3.501,1.914 0.941,0.8 1.53,1.63 1.662,2.732 0.13,1.102 -0.196,2.477 -0.665,3.973 -0.47,1.496 -1.08,3.11 -1.572,4.66 -0.491,1.55 -0.862,3.033 -1.833,4.638 -0.972,1.605 -2.542,3.327 -3.885,4.54 -1.342,1.211 -2.455,1.91 -2.574,1.745 -0.12,-0.165 0.752,-1.19 1.613,-2.139 0.862,-0.949 1.714,-1.823 2.478,-2.815 0.764,-0.993 1.44,-2.107 1.91,-3.34 0.468,-1.232 0.73,-2.587 0.764,-4.211 0.031,-1.626 -0.165,-3.527 -0.765,-5.032 a 7.527,7.527 0 0 0 -2.62,-3.34 c -1.014,-0.719 -2.04,-1.047 -2.956,-1.265 -0.917,-0.218 -1.724,-0.328 -1.975,-0.469 -0.251,-0.143 0.055,-0.317 0.677,-0.612 z M 54.921,8.843 c 0.885,0.142 2.216,0.404 3.197,0.796 a 6.428,6.428 0 0 1 2.008,1.278 c 0.393,0.36 0.545,0.555 0.273,0.807 -0.273,0.251 -0.97,0.555 -1.702,0.687 -0.732,0.13 -1.495,0.088 -2.161,-0.284 -0.666,-0.372 -1.233,-1.069 -1.876,-1.528 -0.645,-0.457 -1.365,-0.675 -1.626,-0.96 -0.262,-0.285 -0.066,-0.634 0.25,-0.796 0.315,-0.164 0.754,-0.142 1.637,0 z"
         id="path421"
         style="fill:#ffaaaa;fill-opacity:1" /></g><g
       fill="#ffffff"
       id="g427"><path
         d="m 66.948,13.797 c -0.688,-0.186 -1.54,-0.47 -1.998,-0.405 -0.458,0.065 -0.524,0.48 -0.086,1.071 0.438,0.591 1.373,1.353 1.93,2.465 0.557,1.113 0.73,2.575 0.819,3.809 0.087,1.234 0.087,2.236 0.426,2.061 0.339,-0.176 1.014,-1.527 1.451,-2.836 0.436,-1.31 0.633,-2.577 0.458,-3.535 a 3.064,3.064 0 0 0 -1.255,-1.986 c -0.534,-0.372 -1.058,-0.459 -1.745,-0.644 z m -8.84,6.308 c -0.949,-0.055 -2.258,0.01 -3.765,1.004 -1.506,0.994 -3.208,2.912 -4.201,4.877 -0.994,1.965 -1.278,3.972 -0.228,4.54 1.047,0.568 3.425,-0.305 5.324,-1.516 1.898,-1.212 3.318,-2.763 4.07,-4.235 0.753,-1.473 0.84,-2.87 0.59,-3.656 -0.25,-0.785 -0.84,-0.96 -1.79,-1.014 z M 42.414,14.43 c -0.752,0.054 -2.17,0.775 -2.88,1.495 -0.71,0.72 -0.71,1.44 0.044,1.385 0.755,-0.055 2.26,-0.883 2.967,-1.603 0.71,-0.72 0.622,-1.332 -0.13,-1.278 z m 15.487,-4.092 c -0.393,0 -0.895,-0.021 -1.037,0.218 -0.143,0.24 0.075,0.741 0.578,0.916 0.503,0.175 1.289,0.022 1.572,-0.228 0.282,-0.252 0.065,-0.602 -0.186,-0.765 -0.25,-0.163 -0.534,-0.141 -0.927,-0.141 z"
         id="path425"
         style="fill:#ffd5d5;fill-opacity:1" /></g><path
       fill="#ffe6d5"
       d="m 47.246,44.568 c 0.472,-0.61 0.873,-0.794 1.18,-0.626 0.308,0.169 0.524,0.696 0.355,1.367 -0.17,0.671 -0.725,1.488 -1.636,2.632 -0.912,1.142 -2.175,2.607 -3.518,3.78 -1.343,1.174 -2.762,2.054 -3.419,2.145 -0.656,0.092 -0.548,-0.602 0.107,-1.327 0.656,-0.724 1.862,-1.481 2.85,-2.368 0.986,-0.888 1.759,-1.907 2.414,-2.934 0.655,-1.024 1.196,-2.06 1.667,-2.67 z"
       id="path429"
       style="fill:#ffd5d5;fill-opacity:1" /><path
       fill="#ffffff"
       d="m 40.286,43.82 c -0.177,0.092 -0.533,0.277 -0.702,0.632 -0.171,0.357 -0.155,0.88 0.077,1.08 0.233,0.2 0.68,0.078 1.003,-0.208 0.324,-0.285 0.524,-0.733 0.471,-1.027 -0.054,-0.29 -0.363,-0.43 -0.518,-0.5 -0.154,-0.07 -0.154,-0.07 -0.331,0.023 z"
       id="path431"
       style="fill:#ffd5d5;fill-opacity:1" /><path
       fill="none"
       stroke="#000000"
       stroke-width="0.157"
       d="m 32.8,35.568 c 0.284,-0.164 0.568,-0.328 0.774,-0.322 0.207,0.005 0.338,0.18 0.366,0.683 0.027,0.502 -0.05,1.33 -0.367,2.176 -0.315,0.846 -0.871,1.707 -1.422,2.22 -0.552,0.514 -1.096,0.678 -1.37,0.562 -0.273,-0.115 -0.273,-0.507 -0.273,-0.899"
       id="path433" /><g
       id="g441"><path
         fill="#ffffff"
         d="m 33.665,34.565 c -0.068,0.027 -0.204,0.081 -0.151,0.156 0.052,0.074 0.29,0.166 0.473,0.253 0.182,0.087 0.308,0.169 0.346,0.525 0.039,0.356 -0.01,0.991 -0.157,1.671 -0.148,0.68 -0.393,1.404 -0.737,2.002 -0.345,0.597 -0.786,1.067 -0.79,1.142 -0.005,0.077 0.425,-0.239 0.795,-0.727 0.37,-0.487 0.682,-1.15 0.878,-1.83 a 9.178,9.178 0 0 0 0.312,-1.903 c 0.032,-0.515 0.015,-0.843 -0.093,-1.033 -0.109,-0.19 -0.31,-0.245 -0.46,-0.27 a 1.27,1.27 0 0 0 -0.298,-0.016 c -0.05,0.002 -0.05,0.002 -0.118,0.03 z"
         id="path435"
         style="fill:#ffd5d5;fill-opacity:1" /><path
         fill="#ffccaa"
         d="m 32.232,35.555 c -0.01,0.003 -0.031,0.008 -0.153,0.148 -0.12,0.14 -0.316,0.388 -0.48,0.689 -0.164,0.3 -0.283,0.638 -0.24,0.648 0.045,0.01 0.252,-0.305 0.455,-0.602 0.205,-0.297 0.408,-0.576 0.62,-0.796 0.212,-0.22 0.437,-0.386 0.408,-0.391 -0.03,-0.006 -0.314,0.148 -0.457,0.224 -0.142,0.078 -0.142,0.078 -0.153,0.08 z"
         id="path437"
         style="fill:#ffd5d5;fill-opacity:1" /><path
         fill="#ffffff"
         d="m 34.423,38.93 c -0.094,0.25 -0.286,0.751 -0.64,1.178 -0.351,0.426 -0.862,0.775 -1.019,1.023 -0.155,0.25 0.047,0.396 0.363,0.28 0.317,-0.12 0.748,-0.502 1.053,-1.047 0.305,-0.544 0.486,-1.256 0.573,-1.76 0.087,-0.505 0.082,-0.805 0.027,-0.76 -0.054,0.047 -0.157,0.44 -0.21,0.638 -0.052,0.197 -0.052,0.197 -0.147,0.447 z"
         id="path439"
         style="fill:#ffd5d5;fill-opacity:1" /></g><g
       id="g455"><path
         fill="#ff2a2a"
         d="m 133.079,123.056 c -0.312,0.3 -0.524,0.767 -0.536,1.191 -0.021,0.786 0.631,1.4 1.33,3.277 0.698,1.875 1.442,5.016 2.73,6.938 1.288,1.922 3.12,2.62 5.304,3.1 2.183,0.48 4.716,0.742 5.676,1.746 0.958,1.002 0.346,2.75 -0.025,4.321 -0.371,1.572 -0.502,2.968 0.482,3.712 0.981,0.743 3.075,0.829 5.434,0.786 2.357,-0.044 4.978,-0.218 6.505,0.196 1.526,0.415 1.963,1.418 2.727,2.924 0.765,1.506 1.856,3.515 3.493,5.414 1.637,1.9 3.817,3.688 7.026,5.042 3.21,1.354 7.445,2.27 11.285,4.43 3.84,2.161 7.291,5.566 9.2,9.111 1.909,3.547 2.281,7.237 2.586,9.528 0.306,2.292 0.545,3.185 1.006,3.59 a 1.027,1.027 0 0 0 0.322,0.181 c 0.168,-0.574 0.074,-1.29 -0.052,-2.087 a 61.262,61.262 0 0 0 -1.004,-5.031 c -0.463,-1.883 -1.079,-3.95 -2.113,-5.956 -1.034,-2.007 -2.487,-3.952 -4.076,-5.603 -1.59,-1.651 -3.318,-3.011 -4.646,-4 -1.326,-0.986 -2.252,-1.602 -3.302,-2.065 -1.049,-0.463 -2.223,-0.773 -3.55,-1.205 a 68.812,68.812 0 0 1 -4.228,-1.558 c -1.42,-0.57 -2.78,-1.157 -4.107,-1.96 a 23.694,23.694 0 0 1 -3.517,-2.64 c -0.895,-0.817 -1.389,-1.434 -1.96,-2.654 -0.572,-1.22 -1.22,-3.042 -2.208,-4.307 -0.987,-1.264 -2.316,-1.976 -3.765,-2.3 -1.45,-0.324 -3.025,-0.261 -4.553,-0.184 -1.527,0.078 -3.008,0.169 -4.012,-0.047 -1.004,-0.216 -1.529,-0.739 -1.652,-1.496 -0.124,-0.756 0.153,-1.744 0.246,-2.778 0.092,-1.034 0,-2.117 -0.324,-2.918 -0.325,-0.803 -0.879,-1.326 -1.634,-1.758 -0.757,-0.432 -1.714,-0.772 -2.902,-1.127 -1.188,-0.356 -2.609,-0.726 -3.89,-1.19 -1.28,-0.463 -2.423,-1.018 -3.32,-2.16 -0.895,-1.142 -1.541,-2.87 -2.035,-4.445 -0.494,-1.575 -0.835,-2.993 -1.236,-4.213 a 17.647,17.647 0 0 0 -0.706,-1.805 z"
         id="path443" /><path
         fill="#ff2a2a"
         d="m 161.188,146.377 c -0.44,0.061 -4.851,0.43 -4.792,0.82 0.057,0.391 4.583,0.8 4.723,1.11 0.102,0.227 0.121,0.426 0.104,0.659 0.617,0.531 0.983,1.297 1.483,2.284 0.35,0.691 0.78,1.498 1.292,2.342 0.037,-0.106 2.47,3.264 2.503,2.913 0.058,-0.614 -2.235,-5.36 -2.39,-6.485 -0.153,-1.126 -0.578,-2.154 -1.16,-2.797 -0.582,-0.645 -1.323,-0.907 -1.763,-0.846 z"
         id="path445" /><path
         fill="#ff8080"
         d="m 180.842,161.065 a 4.845,4.845 0 0 0 -1.276,-1.974 c -0.688,-0.644 -1.67,-1.19 -1.976,-2.871 -0.305,-1.683 0.066,-4.497 -0.305,-6.722 -0.372,-2.226 -1.485,-3.864 -3.274,-5.13 -1.79,-1.265 -4.257,-2.16 -6.658,-3.132 -2.401,-0.97 -4.735,-2.017 -6.143,-3.077 -1.408,-1.059 -1.89,-2.128 -2.412,-2.663 -0.524,-0.534 -1.09,-0.534 -1.31,-0.206 -0.219,0.327 -0.088,0.98 -0.022,1.351 0.065,0.371 0.065,0.46 0.573,0.922 0.509,0.464 1.5,1.284 2.93,2.18 1.43,0.894 3.285,1.854 4.945,2.585 1.658,0.731 3.12,1.233 4.375,1.866 1.255,0.633 2.302,1.397 3.099,2.204 0.796,0.807 1.343,1.66 1.626,2.849 0.284,1.189 0.306,2.716 0.273,3.928 -0.032,1.212 -0.12,2.106 -0.076,3.057 0.044,0.95 0.218,1.952 0.698,2.826 0.481,0.874 1.266,1.616 2.172,2.172 0.906,0.556 1.932,0.927 2.444,0.895 0.514,-0.034 0.514,-0.47 0.317,-1.06 z"
         id="path447" /><path
         d="m 178.003,160.615 c 0.03,-0.424 -0.233,-1.057 -0.587,-1.674 -0.355,-0.617 -0.803,-1.22 -1.073,-2.169 -0.27,-0.95 -0.362,-2.246 -0.401,-3.48 -0.039,-1.234 -0.023,-2.409 -0.147,-3.58 -0.123,-1.173 -0.385,-2.347 -0.864,-3.18 -0.478,-0.833 -1.173,-1.326 -1.898,-1.812 -0.725,-0.487 -1.482,-0.965 -2.431,-1.366 -0.95,-0.402 -2.091,-0.726 -2.91,-0.973 -0.817,-0.247 -1.311,-0.417 -2.083,-0.772 a 47.828,47.828 0 0 1 -2.708,-1.38 26.274,26.274 0 0 1 -2.408,-1.467 c -0.796,-0.548 -1.66,-1.211 -2.146,-1.745 -0.486,-0.533 -0.594,-0.933 -0.67,-1.22 -0.078,-0.284 -0.125,-0.455 -0.24,-0.24 -0.115,0.215 -0.3,0.82 -0.293,1.391 0.007,0.572 0.208,1.11 0.927,1.792 0.718,0.679 1.952,1.496 3.27,2.244 1.32,0.749 2.725,1.428 4.122,2.045 1.397,0.618 2.786,1.173 3.935,1.697 1.15,0.526 2.06,1.02 2.731,1.598 0.671,0.578 1.104,1.242 1.459,2.037 0.356,0.795 0.633,1.72 0.702,2.917 0.07,1.197 -0.07,2.661 -0.116,3.85 -0.046,1.19 0,2.099 0.147,2.84 0.147,0.741 0.394,1.312 0.912,1.869 0.517,0.555 1.303,1.095 1.86,1.257 0.554,0.161 0.88,-0.055 0.91,-0.48 z"
         opacity="0.5"
         id="path449" /><path
         fill="#ff8080"
         d="m 98.17,91.845 c -0.149,-0.009 -0.178,0.095 -0.022,0.352 0.414,0.688 2.14,2.478 3.23,4.66 1.09,2.182 1.55,4.756 2.532,6.83 0.982,2.075 2.487,3.646 4.06,4.814 1.571,1.168 3.208,1.931 5.385,2.69 2.178,0.758 4.894,1.512 6.875,2.238 1.98,0.725 3.224,1.423 4.246,1.352 1.021,-0.07 1.816,-0.912 2.76,-1.194 0.944,-0.283 2.036,-0.011 3.045,0.845 1.009,0.856 1.939,2.3 2.402,3.515 a 5.69,5.69 0 0 1 0.309,3.124 c -0.152,0.917 -0.457,1.758 -0.518,2.38 a 1.781,1.781 0 0 0 0.077,0.765 c -10e-4,0.01 -0.004,0.021 -0.004,0.031 -0.023,0.786 0.631,1.4 1.33,3.277 0.697,1.875 1.44,5.017 2.73,6.938 1.288,1.922 3.12,2.62 5.303,3.1 2.183,0.48 4.716,0.742 5.676,1.746 0.96,1.002 0.346,2.75 -0.024,4.321 -0.371,1.572 -0.503,2.97 0.48,3.712 0.982,0.743 3.078,0.829 5.435,0.786 2.357,-0.044 4.978,-0.218 6.506,0.196 1.525,0.415 1.962,1.418 2.727,2.924 0.764,1.506 1.854,3.515 3.493,5.414 1.636,1.9 3.818,3.688 7.026,5.042 3.21,1.354 7.444,2.27 11.284,4.43 3.84,2.161 7.292,5.566 9.2,9.112 1.91,3.546 2.281,7.236 2.51,10.837 0.231,3.601 0.316,7.108 0.535,9.273 0.219,2.166 0.566,2.973 1.058,1.226 0.491,-1.746 1.125,-6.047 1.289,-9.768 0.164,-3.723 -0.143,-6.864 -1.126,-9.614 -0.981,-2.75 -2.64,-5.106 -4.452,-7.31 -1.812,-2.206 -3.776,-4.259 -5.87,-5.807 -2.096,-1.55 -4.322,-2.599 -6.657,-3.405 -2.335,-0.808 -4.782,-1.375 -6.658,-2.117 -1.877,-0.741 -3.185,-1.66 -4.473,-2.664 -1.288,-1.003 -2.555,-2.094 -3.493,-3.513 -0.939,-1.42 -1.55,-3.166 -2.292,-4.475 -0.742,-1.31 -1.616,-2.183 -2.816,-2.51 -1.2,-0.328 -2.728,-0.11 -4.583,-0.043 -1.855,0.065 -4.034,-0.022 -4.908,-0.744 -0.875,-0.72 -0.44,-2.072 -0.395,-3.447 0.043,-1.376 -0.306,-2.774 -0.83,-3.69 -0.523,-0.915 -1.223,-1.352 -3.1,-1.876 -1.875,-0.524 -4.932,-1.134 -6.94,-2.705 -2.01,-1.572 -2.969,-4.103 -3.887,-6.155 -0.72,-1.613 -1.413,-2.918 -2.057,-3.556 -0.023,-0.174 0.008,-0.326 0.084,-0.67 0.097,-0.447 0.23,-1.233 0.317,-1.931 0.087,-0.7 0.13,-1.31 0.031,-2.194 -0.097,-0.884 -0.337,-2.04 -0.883,-3.098 -0.545,-1.058 -1.398,-2.018 -2.402,-2.858 -1.004,-0.84 -2.162,-1.563 -3.143,-1.64 -0.98,-0.076 -1.788,0.493 -2.617,0.865 -0.829,0.37 -1.682,0.544 -2.567,0.402 -0.883,-0.141 -1.8,-0.6 -3.25,-1.048 -1.452,-0.447 -3.44,-0.883 -5.458,-1.45 -2.019,-0.567 -4.068,-1.265 -5.684,-2.335 a 10.493,10.493 0 0 1 -3.516,-3.918 c -0.72,-1.41 -0.981,-2.784 -1.351,-4.115 -0.372,-1.33 -0.853,-2.618 -1.638,-3.753 -0.785,-1.135 -1.878,-2.117 -2.87,-2.815 C 99,92.187 98.418,91.861 98.17,91.845 Z"
         id="path451" /><path
         d="m 98.172,92.085 c -0.014,0.004 -0.016,0.026 -0.004,0.072 0.046,0.185 0.293,0.741 0.726,1.498 0.433,0.756 1.047,1.714 1.488,2.64 0.44,0.925 0.704,1.82 1.074,2.87 0.37,1.05 0.849,2.252 1.211,3.279 0.363,1.026 0.608,1.875 0.956,2.677 a 9.722,9.722 0 0 0 1.39,2.293 c 0.594,0.733 1.335,1.443 2.346,2.137 1.01,0.696 2.292,1.375 3.643,1.908 1.351,0.532 2.77,0.917 4.044,1.273 1.271,0.355 2.4,0.678 3.448,0.972 1.05,0.293 2.022,0.555 2.763,0.863 0.74,0.308 1.249,0.663 1.527,1.033 0.277,0.37 0.324,0.757 0.387,1.127 0.061,0.371 0.136,0.726 0.37,0.734 0.233,0.007 0.618,-0.333 0.972,-0.71 0.354,-0.378 0.68,-0.797 1.181,-1.08 0.5,-0.286 1.182,-0.44 1.86,-0.432 a 4.336,4.336 0 0 1 1.983,0.509 5.645,5.645 0 0 1 1.606,1.311 c 0.408,0.487 0.655,0.964 0.855,1.551 0.2,0.587 0.356,1.28 0.395,1.944 0.039,0.664 -0.04,1.296 -0.194,2.03 a 18.253,18.253 0 0 1 -0.61,2.192 c -0.224,0.625 -0.44,1.042 -0.346,1.267 0.09,0.218 0.472,0.258 0.855,0.587 0.127,0.747 0.492,1.433 0.986,2.637 0.582,1.413 1.322,3.543 2.473,5.227 1.15,1.682 2.707,2.915 4.575,3.625 1.868,0.71 4.044,0.896 5.332,1.53 1.289,0.63 1.69,1.711 1.582,2.883 -0.108,1.174 -0.723,2.436 -0.67,3.518 0.054,1.083 0.778,1.977 1.736,2.425 0.957,0.448 2.145,0.447 3.604,0.431 1.456,-0.014 3.186,-0.046 4.305,0.032 1.117,0.076 1.629,0.262 2.238,0.417 0.61,0.154 1.32,0.278 1.882,0.618 0.564,0.34 0.98,0.894 1.49,1.604 0.509,0.71 1.11,1.574 1.627,2.338 0.517,0.765 0.95,1.427 1.776,2.585 0.826,1.158 2.045,2.81 3.65,3.99 1.606,1.181 3.595,1.89 5.417,2.523 1.821,0.633 3.473,1.19 5.179,1.807 1.705,0.617 3.464,1.296 5.316,2.392 1.852,1.095 3.797,2.607 5.31,4.227 0.83,0.89 1.523,1.827 2.14,2.863 a 7.501,7.501 0 0 1 0.399,-0.301 c 0.31,-0.215 0.65,-0.41 0.997,-0.597 -1.645,-2.572 -3.677,-4.685 -6.022,-6.501 -3.01,-2.33 -6.527,-4.182 -9.722,-5.433 -3.196,-1.25 -6.064,-1.896 -8.296,-3.603 -2.231,-1.706 -3.821,-4.47 -4.994,-6.66 -1.173,-2.192 -1.93,-3.813 -3.233,-4.545 -1.303,-0.733 -3.153,-0.58 -5.385,-0.419 -2.233,0.16 -4.843,0.325 -5.974,-0.207 -0.057,-0.028 -0.095,-0.063 -0.145,-0.095 0.005,-0.02 0.002,-0.038 0.012,-0.058 0.102,-0.195 0.487,-0.388 0.7,-0.51 0.213,-0.123 0.229,-0.166 -0.032,-0.102 -0.262,0.063 -0.802,0.231 -1.073,0.316 a 1.297,1.297 0 0 1 -0.183,-0.425 0.879,0.879 0 0 1 0.445,-0.44 c 0.205,-0.092 0.466,-0.136 0.72,-0.2 a 5.54,5.54 0 0 0 0.557,-0.167 c 0.053,-0.02 -0.084,0.018 -0.322,0.032 a 3.803,3.803 0 0 1 -0.844,-0.05 2.453,2.453 0 0 1 -0.575,-0.19 c 0.042,-0.328 0.106,-0.664 0.167,-0.996 0.21,-1.124 0.279,-2.142 0.005,-3.045 -0.274,-0.903 -0.892,-1.691 -2.538,-2.62 -1.645,-0.927 -4.32,-1.995 -6.204,-3.153 -1.884,-1.157 -2.972,-2.405 -4.026,-4.264 -0.804,-1.416 -1.526,-3.039 -2.123,-4.346 -0.018,-0.108 -0.039,-0.224 -0.051,-0.336 a 1.456,1.456 0 0 1 0.076,-0.68 c 0.066,-0.176 0.154,-0.292 0.194,-0.365 0.04,-0.074 0.03,-0.099 -0.086,-0.07 -0.077,0.02 -0.2,0.068 -0.313,0.109 -0.003,-0.258 -0.019,-0.509 -0.071,-0.677 -0.018,-0.058 -0.045,-0.092 -0.07,-0.133 l -0.008,-0.05 c -0.015,-0.076 -0.005,-0.127 0.059,-0.17 0.065,-0.041 0.178,-0.072 0.25,-0.1 0.072,-0.028 0.091,-0.052 -0.01,-0.034 -0.103,0.016 -0.328,0.07 -0.478,0.08 -0.052,0.002 -0.084,-0.002 -0.12,-0.005 -0.047,-0.025 -0.103,-0.047 -0.134,-0.084 a 0.29,0.29 0 0 1 -0.056,-0.136 c 0.01,-0.068 0.01,-0.149 0.039,-0.194 0.049,-0.08 0.12,-0.105 0.219,-0.124 0.098,-0.02 0.223,-0.03 0.214,-0.042 -0.008,-0.015 -0.148,-0.032 -0.22,-0.094 -0.073,-0.06 -0.074,-0.162 -0.067,-0.284 l 0.002,-0.042 c 0.13,-0.29 0.293,-0.62 0.371,-1.203 0.092,-0.685 0.063,-1.707 -0.354,-2.863 -0.417,-1.157 -1.22,-2.454 -1.999,-3.363 a 8.537,8.537 0 0 0 -2.161,-1.816 c -0.624,-0.378 -1.12,-0.608 -1.668,-0.725 a 4.13,4.13 0 0 0 -1.712,0.008 c -0.563,0.124 -1.088,0.37 -1.521,0.524 -0.39,0.14 -0.695,0.196 -0.855,0.15 -0.036,-0.035 -0.063,-0.048 -0.098,-0.096 a 1.057,1.057 0 0 1 -0.176,-0.36 c -0.028,-0.114 -0.014,-0.2 -0.032,-0.203 -0.016,-0.002 -0.066,0.084 -0.121,0.157 a 0.715,0.715 0 0 1 -0.26,0.214 c -0.112,0.06 -0.256,0.13 -0.377,0.2 -0.152,0.045 -0.308,0.094 -0.443,0.109 0.002,-0.023 -0.009,-0.027 0.002,-0.056 0.033,-0.096 0.121,-0.232 0.07,-0.235 -0.05,-0.003 -0.242,0.128 -0.44,0.199 -0.017,0.006 -0.03,0.007 -0.046,0.011 -0.18,-0.12 -0.286,-0.32 -0.462,-0.398 -0.127,-0.056 -0.298,-0.047 -0.52,-0.031 a 0.126,0.126 0 0 1 0.002,-0.086 c 0.036,-0.099 0.155,-0.233 0.22,-0.331 0.066,-0.099 0.076,-0.156 0.01,-0.131 -0.067,0.025 -0.215,0.136 -0.418,0.234 -0.204,0.1 -0.46,0.185 -0.64,0.261 -0.032,0.014 -0.04,0.029 -0.067,0.042 -0.666,-0.067 -1.56,-0.293 -2.408,-0.543 -0.888,-0.262 -1.706,-0.542 -2.586,-0.835 -0.88,-0.294 -1.822,-0.6 -3.01,-1.126 -1.189,-0.525 -2.623,-1.265 -3.743,-2.053 a 11.974,11.974 0 0 1 -2.576,-2.455 10.737,10.737 0 0 1 -1.59,-2.715 c -0.424,-1.049 -0.764,-2.316 -1.197,-3.504 a 24.743,24.743 0 0 0 -1.412,-3.148 c -0.455,-0.848 -0.84,-1.435 -1.341,-2.022 -0.503,-0.587 -1.121,-1.173 -1.507,-1.559 -0.289,-0.29 -0.447,-0.466 -0.489,-0.459 z"
         opacity="0.5"
         id="path453" /></g><g
       fill="#ffd5d5"
       id="g459"><path
         d="m 184.069,162.48 c -0.928,-0.383 -1.844,-0.623 -1.823,-0.317 0.022,0.306 0.981,1.157 2.466,2.128 1.484,0.971 3.493,2.063 3.939,2.019 0.448,-0.043 -0.665,-1.223 -1.69,-2.073 a 10.913,10.913 0 0 0 -2.892,-1.757 z m 12.561,13.41 c -0.283,-0.088 -0.567,0.02 -0.468,0.46 0.098,0.438 0.576,1.198 0.86,1.285 0.284,0.087 0.372,-0.503 0.273,-0.937 -0.097,-0.436 -0.382,-0.72 -0.665,-0.808 z m -34.164,-29.198 c -0.349,-0.231 -0.349,0.075 0.121,0.896 0.472,0.822 1.406,2.148 1.755,2.378 0.35,0.229 0.11,-0.645 -0.36,-1.462 -0.469,-0.818 -1.167,-1.582 -1.516,-1.812 z m -0.534,-0.482 c -0.139,0.023 -0.416,0.069 -0.665,-0.016 -0.248,-0.086 -0.463,-0.3 -0.4,-0.409 0.062,-0.108 0.401,-0.108 0.698,-0.031 0.296,0.077 0.55,0.232 0.628,0.316 0.079,0.085 -0.022,0.1 -0.073,0.11 z m -9.922,-0.933 c -0.304,0.115 -0.853,0.27 -1.077,0.235 -0.223,-0.035 -0.123,-0.259 0.18,-0.373 0.304,-0.115 0.817,-0.124 1.04,-0.09 0.224,0.034 0.162,0.112 -0.143,0.228 z m -0.775,-0.576 c -0.12,-0.007 -0.358,-0.023 -0.49,0.042 -0.131,0.065 -0.154,0.211 -0.034,0.219 0.122,0.007 0.381,-0.123 0.512,-0.189 0.131,-0.065 0.131,-0.065 0.01,-0.072 z m -0.304,-0.765 c -0.027,0.08 -0.08,0.242 -0.197,0.246 -0.117,0.005 -0.293,-0.148 -0.293,-0.709 0,-0.56 0.178,-1.524 0.136,-2.47 -0.043,-0.943 -0.306,-1.87 -0.645,-2.48 -0.34,-0.609 -0.757,-0.902 -0.961,-1.158 -0.204,-0.254 -0.197,-0.471 -0.016,-0.555 0.18,-0.084 0.538,-0.038 0.814,0.12 0.278,0.157 0.479,0.429 0.552,0.648 0.074,0.22 0.02,0.389 0.032,0.605 0.01,0.218 0.088,0.478 0.207,0.93 0.12,0.453 0.282,1.092 0.344,1.675 0.062,0.582 0.023,1.106 0.016,1.61 -0.008,0.501 0.014,0.979 0.026,1.218 0.012,0.24 0.011,0.24 -0.015,0.32 z m -13.295,-13.85 c -0.092,0.084 -0.015,0.594 0.38,1.127 0.393,0.535 1.102,1.089 1.194,1.003 0.094,-0.084 -0.432,-0.81 -0.825,-1.342 -0.394,-0.532 -0.657,-0.873 -0.749,-0.788 z m 42.368,30.864 a 3.224,3.224 0 0 1 -1.048,-0.78 c -0.394,-0.454 -0.743,-1.141 -1.048,-1.67 -0.306,-0.53 -0.567,-0.901 -0.437,-0.851 0.131,0.05 0.655,0.519 1.114,0.917 0.458,0.398 0.85,0.726 1.13,1.075 0.277,0.348 0.44,0.72 0.507,0.96 0.066,0.24 0.033,0.348 0.016,0.403 -0.016,0.055 -0.016,0.055 -0.234,-0.053 z m -3.93,-14.09 c 0.142,0.234 0.426,0.703 0.628,1.309 0.203,0.605 0.322,1.347 0.383,2.085 0.06,0.736 0.06,1.466 0.005,1.94 -0.054,0.475 -0.163,0.693 -0.307,0.61 -0.142,-0.081 -0.316,-0.461 -0.343,-1.045 -0.027,-0.584 0.094,-1.37 0.07,-2.123 a 6.145,6.145 0 0 0 -0.387,-1.986 c -0.201,-0.513 -0.442,-0.818 -0.48,-0.954 -0.037,-0.136 0.126,-0.104 0.208,-0.087 0.081,0.015 0.081,0.015 0.223,0.25 z m -17.453,-10.823 c -0.06,0.054 -0.18,0.163 0.03,0.505 0.209,0.34 0.739,0.903 1.344,1.394 a 10.454,10.454 0 0 0 1.704,1.12 c 0.419,0.212 0.583,0.222 0.302,-0.027 -0.282,-0.25 -1.018,-0.765 -1.569,-1.24 -0.55,-0.475 -0.922,-0.912 -1.184,-1.205 a 9.607,9.607 0 0 0 -0.492,-0.524 c -0.075,-0.078 -0.075,-0.078 -0.135,-0.023 z m 9.282,5.772 c -0.327,-0.13 -0.699,-0.261 -0.824,-0.24 -0.126,0.023 -0.007,0.196 0.322,0.327 0.328,0.131 0.863,0.22 0.988,0.197 0.126,-0.02 -0.159,-0.153 -0.486,-0.284 z"
         id="path457" /></g><g
       id="g467"><path
         fill="#ff8080"
         d="m 195.038,175.293 c -0.59,-0.01 -1.397,-0.164 -2.796,0.185 -1.397,0.35 -3.381,1.2 -6.874,2.543 -3.494,1.343 -8.49,3.175 -12.233,3.044 -3.744,-0.13 -6.232,-2.225 -8.054,-4.966 -1.823,-2.738 -2.98,-6.121 -4.223,-8.434 -1.245,-2.314 -2.577,-3.558 -3.45,-3.908 -0.872,-0.35 -1.287,0.196 -1.55,0.349 -0.262,0.153 -0.37,-0.087 -0.293,-0.524 0.075,-0.436 0.338,-1.07 1.058,-1.08 0.718,-0.01 1.9,0.601 2.902,1.387 1.005,0.786 1.833,1.745 2.532,2.912 0.699,1.168 1.266,2.544 1.987,4.083 0.72,1.54 1.592,3.24 2.98,4.682 1.385,1.44 3.285,2.62 5.554,3.055 2.27,0.437 4.912,0.131 7.15,-0.403 2.236,-0.535 4.07,-1.3 5.903,-2.075 1.833,-0.774 3.666,-1.56 4.79,-2.161 1.125,-0.6 1.54,-1.015 2.15,-1.157 0.61,-0.141 1.419,-0.01 2.084,0.405 0.665,0.414 1.19,1.113 1.267,1.527 0.076,0.415 -0.294,0.546 -0.884,0.535 z"
         id="path461" /><path
         fill="#ff5555"
         d="m 156.62,162.5 c -0.719,0.011 -0.982,0.647 -1.058,1.083 -0.077,0.437 0.031,0.675 0.294,0.522 0.263,-0.153 0.677,-0.698 1.55,-0.348 0.872,0.35 2.204,1.595 3.446,3.908 1.245,2.314 2.402,5.696 4.225,8.435 0.766,1.153 1.661,2.177 2.707,3.004 -0.087,-0.075 -0.18,-0.145 -0.262,-0.225 -0.644,-0.629 -1.113,-1.446 -1.252,-2.07 -0.14,-0.622 0.051,-1.043 0.237,-1.311 0.083,-0.118 0.163,-0.197 0.235,-0.262 -1.216,-1.368 -2.032,-2.926 -2.7,-4.352 -0.721,-1.54 -1.29,-2.915 -1.988,-4.083 -0.698,-1.167 -1.527,-2.127 -2.531,-2.912 -1.004,-0.786 -2.184,-1.399 -2.903,-1.388 z"
         id="path463" /><path
         d="m 156.714,163.045 a 0.702,0.702 0 0 0 -0.197,0.022 c -0.254,0.07 -0.485,0.302 -0.639,0.472 -0.155,0.17 -0.233,0.278 -0.257,0.434 -0.023,0.155 0.008,0.354 0.117,0.423 0.11,0.07 0.293,0.007 0.532,-0.07 0.239,-0.077 0.534,-0.169 0.942,-0.008 0.406,0.162 0.932,0.579 1.411,1.08 a 9.662,9.662 0 0 1 1.303,1.752 c 0.394,0.663 0.748,1.405 1.142,2.308 0.394,0.903 0.828,1.968 1.344,3.11 0.518,1.143 1.118,2.362 1.898,3.52 a 21.524,21.524 0 0 0 2.548,3.063 c 0.81,0.81 1.472,1.334 2.344,1.765 a 8.678,8.678 0 0 0 3.105,0.867 c 1.149,0.092 2.37,-0.063 3.772,-0.356 1.404,-0.294 2.994,-0.726 4.699,-1.211 1.704,-0.487 3.528,-1.027 5.118,-1.582 1.589,-0.556 2.948,-1.128 4.06,-1.55 1.11,-0.426 1.973,-0.705 2.59,-0.558 0.337,0.08 0.6,0.285 0.834,0.476 0.015,0.036 0.032,0.066 0.045,0.103 0.926,2.315 1.698,5.216 1.946,6.971 0.247,1.756 0.43,8.095 0.463,8.656 0.034,0.56 0.282,5.029 0.818,5.295 0.537,0.267 0.183,-0.298 0.64,-0.333 0.454,-0.035 1.36,-9.23 0.884,-11.53 -0.474,-2.3 -1.61,-6.806 -3.427,-10.463 -0.229,-0.46 -0.481,-0.893 -0.733,-1.326 -0.184,-0.216 -0.37,-0.19 -0.48,-0.247 a 2.46,2.46 0 0 0 -0.581,0.069 c -0.426,0.1 -0.964,0.33 -1.938,0.772 -0.975,0.44 -2.373,1.086 -4.212,1.874 -1.836,0.787 -4.104,1.713 -5.924,2.362 -1.823,0.647 -3.196,1.017 -4.5,1.241 -1.306,0.224 -2.539,0.303 -3.743,0.056 -1.205,-0.248 -2.379,-0.819 -3.366,-1.46 a 10.781,10.781 0 0 1 -2.476,-2.177 c -0.686,-0.825 -1.258,-1.766 -1.806,-2.724 a 42.828,42.828 0 0 1 -1.605,-3.054 c -0.533,-1.127 -1.073,-2.41 -1.59,-3.397 a 12.077,12.077 0 0 0 -1.512,-2.276 c -0.501,-0.594 -1.01,-1.087 -1.504,-1.442 a 6.395,6.395 0 0 0 -1.351,-0.726 c -0.283,-0.116 -0.51,-0.196 -0.713,-0.2 z"
         opacity="0.5"
         id="path465" /></g><g
       fill="#ffd5d5"
       id="g471"><path
         d="m 195.415,174.444 c 0.1,-0.105 0.301,-0.313 0.251,-0.581 -0.05,-0.27 -0.352,-0.603 -0.792,-0.78 -0.439,-0.178 -1.017,-0.201 -1.48,-0.162 -0.464,0.037 -0.81,0.138 -1.29,0.37 -0.48,0.232 -1.087,0.594 -1.709,0.941 -0.622,0.347 -1.254,0.678 -1.207,0.721 0.048,0.042 0.772,-0.204 1.504,-0.474 0.733,-0.27 1.475,-0.564 2.1,-0.66 0.624,-0.096 1.134,0.005 1.477,0.162 0.342,0.158 0.52,0.375 0.667,0.479 0.147,0.105 0.263,0.096 0.32,0.093 0.058,-0.004 0.058,-0.004 0.159,-0.109 z m -24.264,4.096 c 0.213,0.11 0.419,0.252 0.442,0.376 0.023,0.126 -0.141,0.234 -0.553,0.158 -0.412,-0.077 -1.062,-0.337 -1.778,-0.823 -0.715,-0.486 -1.489,-1.194 -1.953,-1.665 -0.464,-0.469 -0.617,-0.698 -0.311,-0.518 0.305,0.18 1.07,0.77 1.73,1.207 0.66,0.436 1.217,0.72 1.605,0.9 0.387,0.18 0.605,0.256 0.817,0.365 z m -10.267,-12.97 c 0.057,0.135 0.343,0.552 0.67,1.154 0.33,0.602 0.7,1.389 0.916,1.697 0.216,0.308 0.278,0.138 0.205,-0.134 -0.073,-0.272 -0.283,-0.653 -0.556,-1.096 a 16.049,16.049 0 0 0 -0.87,-1.281 c -0.253,-0.328 -0.423,-0.475 -0.365,-0.34 z m -4.421,-2.902 c -0.074,0.042 -0.22,0.127 -0.184,0.163 0.036,0.034 0.25,0.019 0.477,0.011 0.226,-0.007 0.467,-0.007 0.825,0.143 0.357,0.15 0.838,0.451 0.973,0.51 0.135,0.058 -0.073,-0.128 -0.348,-0.302 a 4.186,4.186 0 0 0 -0.902,-0.428 2.987,2.987 0 0 0 -0.648,-0.127 c -0.121,-0.012 -0.121,-0.012 -0.193,0.03 z"
         id="path469" /></g><g
       id="g481"><path
         fill="#ff8080"
         d="m 74.416,49.824 c -0.17,-0.247 -0.509,-0.74 -0.679,-1.312 -0.17,-0.572 -0.17,-1.22 0.186,-1.983 0.354,-0.764 1.065,-1.645 1.728,-2.447 0.664,-0.802 1.282,-1.528 1.683,-2.477 0.4,-0.948 0.587,-2.123 0.447,-3.179 a 5.357,5.357 0 0 0 -1.173,-2.685 c -0.571,-0.686 -1.25,-1.119 -1.937,-1.914 -0.687,-0.796 -1.382,-1.953 -1.744,-2.74 -0.363,-0.787 -0.393,-1.204 -0.448,-1.19 -0.053,0.016 -0.13,0.464 -0.06,0.929 0.069,0.464 0.284,0.94 0.6,1.519 0.317,0.58 0.734,1.258 1.189,1.883 0.456,0.626 0.949,1.197 1.335,1.644 0.386,0.447 0.664,0.771 0.887,1.18 a 4.1,4.1 0 0 1 0.463,1.443 5.043,5.043 0 0 1 -0.092,1.72 6.807,6.807 0 0 1 -0.663,1.752 c -0.302,0.557 -0.67,1.065 -1.128,1.614 -0.455,0.548 -0.995,1.133 -1.404,1.782 -0.408,0.65 -0.687,1.358 -0.802,1.898 -0.116,0.54 -0.07,0.91 -0.039,1.25 0.032,0.34 0.046,0.649 0.348,0.904 0.303,0.256 0.887,0.455 1.18,0.555 0.293,0.101 0.293,0.101 0.123,-0.146 z"
         id="path473" /><path
         d="m 73.41,49.858 c 0.142,-0.136 0.126,-0.46 0.041,-0.798 -0.083,-0.338 -0.238,-0.695 -0.309,-1.065 a 2.63,2.63 0 0 1 0.047,-1.147 3.94,3.94 0 0 1 0.553,-1.183 c 0.265,-0.402 0.614,-0.811 0.953,-1.218 0.34,-0.406 0.676,-0.813 0.96,-1.228 0.282,-0.416 0.516,-0.842 0.712,-1.257 0.197,-0.415 0.358,-0.818 0.471,-1.232 a 6.62,6.62 0 0 0 0.215,-1.274 4.78,4.78 0 0 0 -0.063,-1.35 5.22,5.22 0 0 0 -0.498,-1.342 5.411,5.411 0 0 0 -0.69,-0.988 c -0.26,-0.304 -0.553,-0.622 -0.908,-1.066 a 34.133,34.133 0 0 1 -1.1,-1.477 C 73.467,32.77 73.228,32.415 73.046,32.071 a 5.689,5.689 0 0 1 -0.398,-0.972 4.396,4.396 0 0 1 -0.176,-0.76 c -0.023,-0.2 -0.009,-0.34 -0.027,-0.315 -0.02,0.027 -0.074,0.221 -0.09,0.465 -0.015,0.244 0.008,0.536 0.085,0.884 0.078,0.348 0.209,0.749 0.429,1.2 0.22,0.453 0.528,0.953 0.853,1.463 0.324,0.509 0.663,1.026 1.076,1.52 0.413,0.494 0.899,0.964 1.223,1.47 0.324,0.505 0.486,1.045 0.548,1.55 0.062,0.506 0.023,0.976 -0.066,1.4 a 7.604,7.604 0 0 1 -0.347,1.123 c -0.119,0.32 -0.22,0.582 -0.378,0.919 a 5.846,5.846 0 0 1 -0.691,1.146 c -0.317,0.402 -0.731,0.794 -1.072,1.176 a 7.806,7.806 0 0 0 -0.83,1.123 5.689,5.689 0 0 0 -0.54,1.088 4.096,4.096 0 0 0 -0.196,1.054 6.974,6.974 0 0 0 -0.009,1.211 c 0.04,0.39 0.131,0.73 0.33,0.926 0.196,0.198 0.497,0.252 0.638,0.115 z"
         opacity="0.5"
         id="path475" /><path
         fill="#ff8080"
         d="m 85.565,66.028 c -1.037,-0.141 -2.935,-0.338 -3.994,-1.224 -1.058,-0.884 -1.277,-2.455 -1.32,-3.818 -0.044,-1.364 0.087,-2.522 -0.404,-3.95 -0.491,-1.43 -1.605,-3.133 -3.23,-4.344 -1.627,-1.21 -3.765,-1.932 -5.632,-3.591 -1.867,-1.66 -3.46,-4.256 -4.224,-5.905 -0.764,-1.648 -0.698,-2.346 -0.534,-2.87 0.164,-0.524 0.426,-0.873 0.524,-0.733 0.098,0.142 0.032,0.777 0.185,1.465 0.153,0.69 0.524,1.43 1.179,2.412 a 30.875,30.875 0 0 0 2.52,3.241 c 0.929,1.037 1.844,1.888 3.046,2.598 1.2,0.71 2.685,1.276 3.688,1.768 1.004,0.491 1.528,0.906 2.052,1.713 0.524,0.806 1.048,2.007 1.352,3.066 0.306,1.058 0.393,1.975 0.535,2.663 0.142,0.688 0.338,1.145 0.372,1.899 0.032,0.754 -0.099,1.8 0.12,2.477 0.22,0.677 0.786,0.983 1.484,1.223 0.698,0.24 1.53,0.415 2.161,0.556 0.633,0.143 1.07,0.252 1.451,0.35 0.382,0.098 0.71,0.186 1.015,0.436 0.304,0.25 0.589,0.665 0.623,1.157 0.032,0.49 -0.186,1.058 0,1.593 0.186,0.537 0.775,1.037 1.44,1.507 0.665,0.47 1.408,0.905 2.073,1.33 0.666,0.427 1.255,0.842 0.983,0.83 -0.272,-0.01 -1.408,-0.447 -2.467,-0.905 -1.058,-0.459 -2.04,-0.939 -2.565,-1.464 -0.524,-0.524 -0.589,-1.091 -0.687,-1.626 -0.099,-0.534 -0.23,-1.037 -0.381,-1.33 -0.153,-0.295 -0.328,-0.383 -1.365,-0.524 z"
         id="path477" /><path
         d="M 92.593,71.675 C 92.178,71.473 91.35,71.069 90.558,70.644 89.767,70.218 89.013,69.77 88.517,69.279 a 3.032,3.032 0 0 1 -0.85,-1.544 c -0.116,-0.519 -0.106,-1.02 -0.16,-1.364 -0.054,-0.344 -0.174,-0.53 -0.414,-0.681 -0.239,-0.153 -0.6,-0.273 -1.069,-0.372 -0.47,-0.099 -1.047,-0.174 -1.583,-0.283 A 11.556,11.556 0 0 1 82.93,64.614 C 82.443,64.445 81.965,64.249 81.576,64.003 81.188,63.757 80.895,63.463 80.747,62.883 80.6,62.305 80.6,61.443 80.577,60.69 80.557,59.938 80.513,59.293 80.491,58.764 80.469,58.234 80.469,57.82 80.261,57.204 80.055,56.59 79.639,55.769 79.224,55.032 78.81,54.295 78.395,53.64 77.8,53.031 77.206,52.419 76.43,51.851 75.618,51.305 74.805,50.76 73.954,50.237 73.081,49.669 72.208,49.101 71.313,48.49 70.423,47.605 c -0.89,-0.883 -1.773,-2.04 -2.44,-3.033 -0.665,-0.993 -1.112,-1.823 -1.341,-2.456 -0.23,-0.633 -0.241,-1.07 -0.203,-1.425 0.04,-0.354 0.126,-0.628 0.175,-0.813 0.05,-0.185 0.06,-0.282 -0.01,-0.288 -0.071,-0.004 -0.23,0.087 -0.392,0.481 a 3.683,3.683 0 0 0 -0.224,1.823 c 0.103,0.746 0.471,1.543 0.99,2.569 0.516,1.025 1.18,2.273 1.89,3.293 0.71,1.02 1.467,1.806 2.28,2.43 0.815,0.625 1.686,1.086 2.445,1.504 0.76,0.418 1.406,0.792 1.982,1.209 0.576,0.416 1.08,0.874 1.618,1.452 0.536,0.578 1.103,1.274 1.517,2.095 0.414,0.82 0.675,1.764 0.74,2.905 0.065,1.141 -0.067,2.476 -0.026,3.42 0.04,0.945 0.252,1.496 0.582,1.991 a 3.5,3.5 0 0 0 1.424,1.247 c 0.65,0.313 1.499,0.499 2.308,0.637 0.81,0.14 1.582,0.232 2.092,0.498 0.509,0.266 0.756,0.706 1.002,1.188 0.247,0.482 0.495,1.007 0.884,1.435 0.39,0.43 0.922,0.76 1.509,1.058 0.587,0.297 1.227,0.56 1.86,0.744 0.632,0.185 1.258,0.293 1.577,0.331 0.32,0.038 0.332,0.006 0.34,-0.008 0.006,-0.015 0.006,-0.015 -0.409,-0.217 z"
         opacity="0.5"
         id="path479" /></g><g
       fill="#ffd5d5"
       id="g485"><path
         d="m 78.89,52.468 c -0.223,-0.235 -0.485,-0.496 -0.823,-0.627 -0.337,-0.131 -0.752,-0.131 -0.675,0.104 0.076,0.235 0.642,0.703 1.084,1.107 0.442,0.404 0.758,0.742 1.064,1.228 0.305,0.485 0.6,1.118 0.703,1.183 0.105,0.065 0.017,-0.437 -0.141,-0.922 a 6.366,6.366 0 0 0 -0.595,-1.292 4.279,4.279 0 0 0 -0.616,-0.78 z m 2.451,7.077 c -0.098,-0.228 -0.207,-0.316 -0.267,-0.18 -0.06,0.136 -0.071,0.495 -0.01,0.83 0.06,0.333 0.19,0.638 0.293,0.686 0.105,0.05 0.181,-0.157 0.176,-0.446 a 2.702,2.702 0 0 0 -0.192,-0.89 z m 6.407,5.874 -0.162,-0.057 A 3.597,3.597 0 0 0 87.18,65.244 c -0.163,-0.035 -0.343,-0.056 -0.266,0.034 0.077,0.091 0.408,0.291 0.604,0.492 0.196,0.202 0.257,0.405 0.303,0.683 0.046,0.279 0.079,0.632 0.15,0.849 0.071,0.216 0.18,0.292 0.268,0.189 0.087,-0.105 0.153,-0.39 0.164,-0.646 a 1.91,1.91 0 0 0 -0.096,-0.676 1.49,1.49 0 0 0 -0.238,-0.46 1.46,1.46 0 0 0 -0.248,-0.242 c -0.052,-0.04 -0.052,-0.04 -0.073,-0.048 z m -6.182,-2.637 c -0.07,-0.003 -0.158,0.1 -0.172,0.175 -0.014,0.075 0.046,0.119 0.117,0.12 0.071,0.003 0.154,-0.035 0.168,-0.108 0.012,-0.074 -0.042,-0.184 -0.113,-0.187 z m 0.163,0.536 c -0.075,-0.02 -0.168,0.046 -0.14,0.134 0.027,0.089 0.172,0.197 0.341,0.297 0.17,0.1 0.36,0.194 0.364,0.159 0.003,-0.035 -0.184,-0.2 -0.306,-0.334 -0.123,-0.134 -0.184,-0.237 -0.259,-0.256 z m 6.556,4.789 c -0.056,0.027 -0.17,0.081 -0.149,0.15 0.022,0.07 0.179,0.15 0.26,0.142 0.082,-0.01 0.088,-0.108 0.066,-0.175 a 0.259,0.259 0 0 0 -0.095,-0.126 c -0.025,-0.019 -0.025,-0.019 -0.082,0.009 z m 0.357,0.689 c -0.027,0.03 -0.081,0.089 0.144,0.312 0.225,0.222 0.712,0.592 1.177,0.878 0.464,0.287 0.895,0.483 0.766,0.352 -0.127,-0.13 -0.816,-0.589 -1.241,-0.908 -0.425,-0.32 -0.59,-0.5 -0.681,-0.587 -0.093,-0.088 -0.115,-0.083 -0.126,-0.08 -0.011,0.004 -0.011,0.004 -0.039,0.033 z M 75.645,50.58 A 15.959,15.959 0 0 1 74.616,49.983 C 74.308,49.778 74.172,49.631 74.043,49.42 a 3.238,3.238 0 0 1 -0.327,-0.756 5.25,5.25 0 0 1 -0.147,-0.769 c -0.03,-0.223 -0.053,-0.398 -0.082,-0.377 -0.03,0.02 -0.068,0.24 -0.046,0.542 0.02,0.3 0.103,0.68 0.18,0.995 0.076,0.314 0.147,0.558 0.349,0.789 0.203,0.23 0.534,0.442 0.873,0.622 0.338,0.18 0.683,0.327 0.857,0.363 0.175,0.034 0.18,-0.042 0.182,-0.08 0.003,-0.038 0.003,-0.038 -0.237,-0.169 z m -6.161,-5.062 c 0,0.014 0,0.04 0.19,0.272 0.19,0.233 0.541,0.637 0.937,1.069 0.395,0.43 0.82,0.872 0.85,0.968 0.031,0.094 -0.334,-0.156 -0.725,-0.524 A 7.851,7.851 0 0 1 69.719,46.13 c -0.213,-0.32 -0.225,-0.474 -0.23,-0.55 -0.005,-0.076 -0.005,-0.076 -0.005,-0.062 z m 7.803,-8.51 a 0.77,0.77 0 0 0 -0.135,-0.249 c -0.07,-0.09 -0.204,-0.257 -0.236,-0.203 -0.032,0.054 0.032,0.327 0.14,0.702 0.106,0.374 0.253,0.848 0.29,1.344 0.04,0.497 -0.03,1.014 -0.136,1.596 -0.103,0.582 -0.24,1.225 -0.373,1.636 -0.134,0.413 -0.264,0.592 -0.277,0.653 -0.013,0.06 0.09,0 0.211,-0.147 0.122,-0.146 0.265,-0.383 0.407,-0.685 a 5.27,5.27 0 0 0 0.388,-1.16 7.352,7.352 0 0 0 0.157,-1.58 4.531,4.531 0 0 0 -0.191,-1.199 7.543,7.543 0 0 0 -0.245,-0.707 z m 58.547,88.699 c -0.081,-0.226 -0.245,-0.68 -0.452,-0.901 -0.207,-0.22 -0.458,-0.21 -0.474,-0.006 -0.017,0.202 0.2,0.593 0.409,0.815 a 0.953,0.953 0 0 0 0.502,0.293 c 0.097,0.025 0.097,0.025 0.015,-0.201 z m -1.33,-2.315 c -0.038,0.046 -0.114,0.138 -0.098,0.249 0.017,0.11 0.125,0.234 0.24,0.303 0.114,0.068 0.235,0.078 0.317,0.034 a 0.222,0.222 0 0 0 0.109,-0.23 c -0.016,-0.085 -0.095,-0.163 -0.175,-0.228 a 1.223,1.223 0 0 0 -0.23,-0.146 c -0.06,-0.029 -0.092,-0.029 -0.109,-0.029 -0.016,0 -0.016,0 -0.054,0.047 z m -0.566,-0.262 c 0.085,0.003 0.255,0.008 0.37,-0.022 a 0.287,0.287 0 0 0 0.217,-0.186 c 0.031,-0.089 0.031,-0.205 -0.008,-0.217 -0.04,-0.011 -0.122,0.082 -0.222,0.132 -0.098,0.05 -0.211,0.055 -0.313,0.063 -0.1,0.009 -0.187,0.02 -0.206,0.058 -0.02,0.039 0.028,0.104 0.052,0.136 0.025,0.032 0.025,0.032 0.11,0.036 z m 0.681,-1.216 c -0.05,0.111 -0.147,0.336 -0.213,0.388 -0.066,0.051 -0.098,-0.068 -0.069,-0.319 0.03,-0.25 0.124,-0.634 0.184,-1.257 0.06,-0.623 0.087,-1.494 -0.021,-2.246 -0.11,-0.753 -0.357,-1.392 -0.577,-1.886 a 10.655,10.655 0 0 0 -0.57,-1.102 c -0.153,-0.259 -0.263,-0.428 -0.202,-0.463 0.06,-0.035 0.29,0.063 0.499,0.275 0.21,0.212 0.401,0.54 0.581,1.004 0.18,0.464 0.35,1.064 0.461,1.703 0.112,0.639 0.167,1.314 0.164,1.849 -0.003,0.534 -0.063,0.927 -0.103,1.228 -0.042,0.3 -0.063,0.507 -0.073,0.61 -0.012,0.105 -0.012,0.105 -0.061,0.216 z m -1.97,-7.815 -0.27,-0.369 c -0.247,-0.335 -0.731,-0.995 -1.328,-1.465 a 4.54,4.54 0 0 0 -1.874,-0.859 c -0.562,-0.107 -0.97,-0.035 -0.785,0.225 0.186,0.26 0.965,0.706 1.698,1.152 0.733,0.448 1.422,0.896 1.843,1.117 0.42,0.22 0.573,0.216 0.65,0.212 0.075,-0.003 0.075,-0.003 0.066,-0.013 z m -8.611,-1.876 c -0.068,0.028 -0.205,0.082 -0.262,0.164 -0.058,0.083 -0.037,0.19 0.063,0.21 0.1,0.018 0.272,-0.052 0.374,-0.137 0.1,-0.084 0.127,-0.183 0.098,-0.23 -0.03,-0.044 -0.117,-0.039 -0.161,-0.036 -0.044,0.003 -0.044,0.003 -0.112,0.03 z m -1.77,-0.377 c -0.015,-0.003 -0.042,-0.008 -0.17,0.02 -0.128,0.029 -0.345,0.086 -0.477,0.178 -0.131,0.094 -0.17,0.218 -0.126,0.306 0.045,0.09 0.17,0.138 0.362,0.116 0.194,-0.021 0.457,-0.116 0.585,-0.225 0.128,-0.109 0.122,-0.234 0.073,-0.302 -0.048,-0.068 -0.141,-0.079 -0.188,-0.084 l -0.06,-0.009 z m -2.955,-0.775 c 0.289,0.1 0.704,0.254 0.876,0.387 0.171,0.133 0.1,0.247 -0.255,0.255 -0.355,0.009 -0.982,-0.088 -1.864,-0.4 -0.882,-0.311 -2.01,-0.834 -3.237,-1.273 -1.228,-0.44 -2.553,-0.794 -3.394,-1.108 -0.84,-0.315 -1.195,-0.587 -0.987,-0.57 0.207,0.017 0.976,0.321 1.68,0.566 0.703,0.24 1.342,0.422 2.053,0.626 a 1041.734,1041.734 0 0 1 4.221,1.233 c 0.454,0.134 0.619,0.183 0.907,0.284 z M 102.355,95.787 c -0.146,-0.01 -0.343,0.054 -0.293,0.307 0.05,0.251 0.341,0.686 0.663,1.34 0.323,0.656 0.67,1.528 1,2.434 0.326,0.907 0.632,1.844 0.725,1.937 0.093,0.092 -0.028,-0.66 -0.229,-1.516 a 24.43,24.43 0 0 0 -0.754,-2.555 c -0.266,-0.736 -0.518,-1.25 -0.692,-1.55 -0.175,-0.299 -0.273,-0.387 -0.42,-0.397 z"
         id="path483"
         style="fill:#ffd5d5;fill-opacity:1" /></g></g></svg>
