<?xml version="1.0" encoding="UTF-8" standalone="no"?>
<svg
   xmlns:dc="http://purl.org/dc/elements/1.1/"
   xmlns:cc="http://creativecommons.org/ns#"
   xmlns:rdf="http://www.w3.org/1999/02/22-rdf-syntax-ns#"
   xmlns:svg="http://www.w3.org/2000/svg"
   xmlns="http://www.w3.org/2000/svg"
   xmlns:sodipodi="http://sodipodi.sourceforge.net/DTD/sodipodi-0.dtd"
   xmlns:inkscape="http://www.inkscape.org/namespaces/inkscape"
   viewBox="0 0 64 64"
   version="1.1"
   id="svg4"
   sodipodi:docname="raceBackground.svg"
   inkscape:version="1.0.2-2 (e86c870879, 2021-01-15)">
  <metadata
     id="metadata10">
    <rdf:RDF>
      <cc:Work
         rdf:about="">
        <dc:format>image/svg+xml</dc:format>
        <dc:type
           rdf:resource="http://purl.org/dc/dcmitype/StillImage" />
      </cc:Work>
    </rdf:RDF>
  </metadata>
  <defs
     id="defs8" />
  <sodipodi:namedview
     pagecolor="#ffffff"
     bordercolor="#666666"
     borderopacity="1"
     objecttolerance="10"
     gridtolerance="10"
     guidetolerance="10"
     inkscape:pageopacity="0"
     inkscape:pageshadow="2"
     inkscape:window-width="1920"
     inkscape:window-height="1017"
     id="namedview6"
     showgrid="false"
     inkscape:zoom="12.930136"
     inkscape:cx="32"
     inkscape:cy="32"
     inkscape:window-x="-8"
     inkscape:window-y="-8"
     inkscape:window-maximized="1"
     inkscape:current-layer="svg4" />
  <ellipse
     cx="28.466"
     cy="35.066"
     fill="#ffe6d5"
     fill-rule="evenodd"
     stroke="#000"
     stroke-width="2"
     color="#000"
     overflow="visible"
     rx="29.831"
     ry="29.831"
     transform="rotate(-6.004)"
     style="isolation:auto;mix-blend-mode:normal;solid-color:#000;solid-opacity:1"
     id="ellipse2" />
  <path
     style="fill:#ff8080;stroke-width:0.0773387"
     d="m 30.298549,60.647112 c -0.170146,-0.01696 -0.709583,-0.06848 -1.19875,-0.114504 C 27.0981,60.344293 24.737115,59.831118 22.739994,59.150264 14.119248,56.211301 7.4337251,49.428214 4.593817,40.739274 4.0184599,38.978919 3.6144666,37.137761 3.3719824,35.170887 3.2012739,33.78621 3.177302,30.157326 3.3306003,28.906452 3.9332939,23.988631 5.4150375,19.905249 8.0313246,15.952219 14.094323,6.7914455 25.05253,1.8500772 35.905605,3.3829104 c 4.385153,0.6193368 8.418903,2.158609 12.064837,4.6039222 1.618588,1.0855798 2.67446,1.9440642 4.084493,3.3209264 4.640223,4.531059 7.494861,10.182853 8.459151,16.747967 0.156267,1.063902 0.176064,1.494545 0.17599,3.828266 -7.7e-5,2.804198 -0.04976,3.393485 -0.466892,5.539693 -1.703315,8.763719 -7.522396,16.361892 -15.539637,20.290633 -3.024115,1.481927 -5.960295,2.34584 -9.473991,2.787535 -0.911866,0.114628 -4.232766,0.212854 -4.911007,0.145259 z"
     id="path12" />
</svg>
