<?xml version="1.0" encoding="UTF-8" standalone="no"?>
<svg
   xmlns:dc="http://purl.org/dc/elements/1.1/"
   xmlns:cc="http://creativecommons.org/ns#"
   xmlns:rdf="http://www.w3.org/1999/02/22-rdf-syntax-ns#"
   xmlns:svg="http://www.w3.org/2000/svg"
   xmlns="http://www.w3.org/2000/svg"
   xmlns:sodipodi="http://sodipodi.sourceforge.net/DTD/sodipodi-0.dtd"
   xmlns:inkscape="http://www.inkscape.org/namespaces/inkscape"
   cursor="default"
   viewBox="0 0 256 256"
   version="1.1"
   id="svg50"
   sodipodi:docname="blackblade.svg"
   inkscape:version="1.0.2-2 (e86c870879, 2021-01-15)">
  <metadata
     id="metadata56">
    <rdf:RDF>
      <cc:Work
         rdf:about="">
        <dc:format>image/svg+xml</dc:format>
        <dc:type
           rdf:resource="http://purl.org/dc/dcmitype/StillImage" />
      </cc:Work>
    </rdf:RDF>
  </metadata>
  <defs
     id="defs54" />
  <sodipodi:namedview
     pagecolor="#ffffff"
     bordercolor="#666666"
     borderopacity="1"
     objecttolerance="10"
     gridtolerance="10"
     guidetolerance="10"
     inkscape:pageopacity="0"
     inkscape:pageshadow="2"
     inkscape:window-width="1920"
     inkscape:window-height="1017"
     id="namedview52"
     showgrid="false"
     inkscape:zoom="1.0258408"
     inkscape:cx="300.8502"
     inkscape:cy="240.8799"
     inkscape:window-x="-8"
     inkscape:window-y="-8"
     inkscape:window-maximized="1"
     inkscape:current-layer="svg50"
     inkscape:document-rotation="0" />
  <path
     style="fill:#000000;stroke-width:0.227208"
     d="m 6.2700168,245.9477 c -1.4422883,-2.83362 -0.012031,-7.14577 3.9456022,-11.89582 3.114347,-3.73789 4.882694,-4.88392 6.072366,-3.93522 l 0.474297,0.37821 6.091619,-6.01669 c 10.571161,-10.44002 16.099991,-16.42792 25.024214,-27.10361 4.265597,-5.10277 13.257543,-16.11943 13.261146,-16.24717 0.0024,-0.0812 -6.938957,-5.33016 -8.004649,-6.05296 -0.431764,-0.29291 -0.472774,-0.49604 -0.267333,-1.33231 l 0.242242,-0.98669 -1.288931,-1.28176 c -1.154227,-1.14769 -1.598344,-1.42109 -4.252454,-2.61067 -3.145665,-1.4099 -3.725321,-1.80857 -3.65508,-2.51391 0.02973,-0.29906 -0.253666,-0.74223 -0.881917,-1.3788 -0.751609,-0.76156 -0.938851,-1.10146 -0.994839,-1.80678 -0.13357,-1.68079 2.153276,-7.02228 3.689146,-8.61689 0.98928,-1.0271 1.800879,-1.12135 3.82497,-0.44419 1.459984,0.48844 2.300648,0.40471 5.13969,-0.5119 0.937714,-0.30275 1.834414,-0.4913 1.992688,-0.41905 0.543693,0.24824 0.691652,1.03296 0.518535,2.75054 -0.267692,2.65605 -0.169014,3.41575 0.848064,6.53132 1.490789,4.56652 4.138366,8.71004 5.931211,9.28254 1.768605,0.56477 3.744462,-0.72828 4.051896,-2.65162 0.259742,-1.62517 0.167879,-2.56562 -0.335517,-3.43218 -0.249376,-0.42927 -1.731827,-2.17398 -3.294367,-3.87709 l -2.841036,-3.09656 0.868479,-2.19284 c 0.477673,-1.20606 0.964657,-2.29959 1.082231,-2.43005 0.180569,-0.19976 0.836181,0.42207 4.187898,3.97211 l 3.974167,4.20929 1.278991,0.18015 c 1.683297,0.23696 2.238663,-0.10448 2.745217,-1.68774 0.59615,-1.86321 0.55821,-2.73879 -0.167983,-3.87788 -0.350051,-0.54902 -0.808175,-1.17232 -1.018131,-1.38505 -0.209939,-0.21272 -0.358762,-0.48142 -0.33057,-0.59722 0.02814,-0.11557 1.243665,-0.81269 2.701202,-1.54877 2.831728,-1.43009 7.592349,-4.20837 10.925895,-6.37632 2.003025,-1.30268 3.063576,-2.30635 56.202394,-53.189961 53.23915,-50.979664 54.23917,-51.926042 58.76257,-55.609452 12.72017,-10.358087 19.20235,-15.023508 31.07684,-22.366927 4.49536,-2.780028 12.24504,-7.4711996 13.85174,-8.3849881 0.85225,-0.4847272 1.18225,-0.2400208 0.73822,0.547383 -0.15535,0.2757209 -1.66032,2.9624851 -3.34416,5.9707321 -3.65684,6.533141 -9.35981,16.036698 -11.95003,19.913876 -3.46629,5.188512 -9.15619,12.317012 -16.34352,20.47574 -2.5156,2.855609 -17.93474,18.730189 -56.36934,58.034437 l -52.90651,54.10358 -2.66159,3.77228 c -1.90412,2.69869 -3.11462,4.67245 -4.25336,6.93521 -0.875484,1.73963 -1.69181,3.18587 -1.814066,3.21387 -0.122253,0.0278 -0.555077,-0.19347 -0.961805,-0.49215 -0.861634,-0.63263 -1.871035,-0.66315 -3.678557,-0.111 -1.589809,0.48567 -1.938507,1.03648 -1.723716,2.72278 l 0.163198,1.28123 4.156598,4.02926 c 3.505548,3.39825 4.118988,4.06227 3.916598,4.23986 -0.13197,0.11594 -1.231831,0.58837 -2.444086,1.05012 l -2.204106,0.83954 -3.058853,-2.88157 c -1.682397,-1.58484 -3.407392,-3.09015 -3.83336,-3.34513 -0.859869,-0.51472 -1.799024,-0.61903 -3.427467,-0.38069 -1.927234,0.28207 -3.246179,2.24073 -2.704783,4.01662 0.548857,1.80024 4.657094,4.50219 9.203623,6.05295 3.101919,1.05806 3.860257,1.16669 6.519586,0.934 1.719706,-0.15048 2.502416,0.008 2.743496,0.55472 0.0701,0.15919 -0.13368,1.06162 -0.4529,2.00539 -0.93586,2.76631 -1.046825,3.76996 -0.57327,5.1853 0.65217,1.94932 0.5435,2.77508 -0.493188,3.7476 -1.614666,1.51477 -6.985816,3.73104 -8.664728,3.57533 -0.704444,-0.0653 -1.041897,-0.25697 -1.793522,-1.01856 -0.628232,-0.63657 -1.067646,-0.92583 -1.367057,-0.89999 -0.706194,0.0609 -1.097193,-0.52391 -2.46556,-3.68785 -1.15453,-2.66955 -1.421596,-3.11771 -2.554438,-4.28646 l -1.264662,-1.30572 -0.989785,0.22922 c -0.838739,0.19422 -1.041516,0.15076 -1.328662,-0.28487 -0.708692,-1.07508 -5.865701,-8.0849 -5.947012,-8.08365 -0.150621,0.002 -4.536011,3.7153 -7.873015,6.66594 -14.20147,12.55723 -22.043944,19.95308 -32.861511,30.99009 l -7.277059,7.4247 0.401203,0.40651 c 0.476988,0.48331 0.477324,2.37791 6.36e-4,3.16245 -0.367378,0.60449 -4.294252,3.8723 -6.779185,5.64136 -2.805121,1.99704 -6.001254,2.72466 -8.35513,1.90215 -1.2409524,-0.43365 -3.8367822,-2.87908 -4.5559983,-4.29209 z m 4.9648092,3.80233 c 2.236575,0.59951 4.770678,0.0569 7.13148,-1.527 0.755327,-0.50675 2.682843,-1.97384 4.283351,-3.26021 l 2.910017,-2.33882 0.120163,-1.05995 c 0.06616,-0.58298 -0.0169,-1.24724 -0.18445,-1.47611 -0.275886,-0.37707 -0.341992,-0.35866 -0.700168,0.19319 -0.807387,1.24375 -2.65304,0.8402 -3.286719,-0.71862 -0.366008,-0.90033 0.02505,-1.47826 0.995862,-1.47187 0.705677,0.005 0.856173,-0.0918 1.647381,-1.05456 0.478936,-0.58279 0.849359,-1.15293 0.823245,-1.26691 -0.02612,-0.11401 -0.576371,0.0638 -1.222798,0.39492 -0.646412,0.33116 -1.225928,0.49968 -1.287819,0.37445 -0.06177,-0.12518 0.331003,-0.76249 0.873055,-1.41622 0.542087,-0.65372 0.986013,-1.25377 0.986539,-1.33342 7.18e-4,-0.0797 -0.605316,0.19786 -1.346341,0.61669 -0.753259,0.42577 -1.398626,0.65836 -1.463717,0.52747 -0.06403,-0.12884 0.277185,-0.69724 0.758247,-1.26335 l 0.874627,-1.02936 -1.379026,0.69102 c -1.762395,0.88315 -2.138962,0.72738 -1.012515,-0.41878 l 0.849429,-0.86442 -1.236726,0.66754 c -1.406733,0.75929 -1.830067,0.70523 -1.410743,-0.18014 0.280765,-0.5928 0.268526,-0.59176 -0.389824,0.0336 -0.627673,0.59554 -0.650237,0.69035 -0.29791,1.2265 0.483335,0.73547 0.01079,1.27939 -0.934724,1.07596 -1.275655,-0.27448 -2.1742,-2.22924 -1.580388,-3.43818 0.469195,-0.95531 -0.07457,-1.30641 -1.234378,-0.79682 -0.851099,0.37398 -1.206797,0.70468 -3.038202,2.82462 -2.2847481,2.64492 -3.2570789,4.07051 -4.2599756,6.24586 -1.6669305,3.61568 -1.2375499,5.90848 1.6021403,8.55531 1.0066856,0.93828 1.5020873,1.244 2.4107213,1.48756 z m 1.697499,-11.98389 c -0.05076,-1.89794 0.221559,-2.40547 1.44074,-2.68482 1.035349,-0.23724 0.979202,-0.26512 1.557355,0.77359 1.202217,2.15984 0.110806,4.8073 -1.734223,4.20665 -1.075222,-0.35005 -1.218721,-0.61063 -1.263872,-2.29542 z m 1.883998,1.7668 c 1.488405,-0.33237 1.257146,-4.1286 -0.237965,-3.90654 -0.835985,0.1241 -1.126452,0.62567 -1.135252,1.96002 -0.009,1.36029 0.536428,2.13341 1.373217,1.94652 z m 1.418769,2.57938 c -0.528275,-1.82565 2.138267,-2.85275 4.253773,-1.63846 1.031001,0.5918 1.003873,0.53528 0.75301,1.56741 -0.295369,1.21544 -0.80648,1.48109 -2.703553,1.40525 -1.65266,-0.0666 -1.99338,-0.26345 -2.30323,-1.3342 z m 2.285107,0.84492 c 0.5878,0.0421 1.277172,-0.0465 1.531901,-0.1967 0.569431,-0.33597 0.8704,-1.21462 0.533001,-1.55649 -0.476973,-0.48328 -1.764153,-0.8012 -2.499138,-0.61724 -2.045403,0.51193 -1.733365,2.21529 0.434236,2.37043 z m -0.937043,-5.36097 c 0.06138,-0.81924 0.373165,-1.62502 0.653788,-1.68933 0.140286,-0.0322 0.717544,0.41031 1.282933,0.9832 0.907911,0.91994 0.991716,1.0774 0.716952,1.34856 -0.415284,0.40987 -2.060888,0.52423 -2.412766,0.1677 -0.154222,-0.15618 -0.262547,-0.52075 -0.240907,-0.81013 z m 1.870601,0.40118 c 0.250106,-0.16495 0.18082,-0.34416 -0.33483,-0.86665 -0.73536,-0.74513 -0.769118,-0.73905 -0.965859,0.1751 -0.129288,0.60111 -0.08995,0.67402 0.421378,0.78124 0.310216,0.065 0.705896,0.0249 0.879311,-0.0897 z m 3.958981,2.44338 c 0.255292,0.0301 0.752617,-0.40727 1.816068,-1.59744 0.805602,-0.90135 1.468922,-1.68481 1.474273,-1.74082 0.0052,-0.056 -0.255652,-0.27359 -0.579274,-0.48409 l -0.588895,-0.38226 -1.268588,1.44209 c -1.225426,1.39278 -1.280326,1.43022 -1.611574,1.09456 -0.456592,-0.46263 -0.899465,-0.003 -0.624145,0.64832 0.225288,0.53255 0.790783,0.94972 1.382031,1.01967 z m -6.053943,-6.12936 c 0.595642,0.003 0.657486,-0.18737 0.235107,-0.72683 -0.375723,-0.47993 -0.359209,-0.52044 0.534791,-1.31126 1.010446,-0.89381 1.063882,-1.20127 0.338356,-1.94465 -0.426279,-0.43678 -0.458286,-0.42557 -1.375789,0.47994 -1.068328,1.05434 -1.236483,1.60913 -0.759434,2.50558 0.466272,0.87611 0.588018,0.99432 1.027005,0.99718 z m 5.556752,-3.19998 c 0.127774,0.12944 0.09432,0.45504 -0.07409,0.72364 -0.303059,0.48321 -0.298553,0.48523 0.427141,0.19021 0.927038,-0.37685 1.094244,-0.20506 0.699646,0.71862 l -0.313467,0.73363 0.568695,-0.33475 c 0.971272,-0.57175 1.126394,0.15462 0.293036,1.37212 -0.593577,0.86715 -0.630241,0.99777 -0.211536,0.75352 0.27862,-0.16243 0.762891,-0.32673 1.076257,-0.36501 0.533688,-0.0652 0.565683,-0.0386 0.505449,0.41993 -0.05442,0.41351 0.05615,0.55897 0.710974,0.9361 l 0.775289,0.44654 1.12588,-1.33237 c 0.619263,-0.7328 1.126119,-1.36423 1.126389,-1.40319 2.57e-4,-0.0391 -0.60528,-0.40201 -1.345706,-0.80675 -0.851642,-0.46555 -2.44692,-1.7018 -4.342549,-3.36517 l -2.996384,-2.62932 -1.212858,1.197 -1.212859,1.197 0.562052,0.67164 c 0.409194,0.4891 0.702146,0.65396 1.07743,0.60652 0.448946,-0.0566 0.504768,-0.0133 0.433001,0.33661 -0.04537,0.22095 -0.221579,0.55179 -0.391721,0.7352 -0.170701,0.18284 0.320058,0.0253 1.089267,-0.35185 0.865855,-0.4243 1.487025,-0.59573 1.630782,-0.45007 z m 1.952459,-1.24557 c 2.095784,1.80243 3.380265,2.76588 4.13509,3.10161 l 1.094928,0.48699 0.957035,-0.84876 c 0.526383,-0.4668 0.934562,-0.86966 0.907088,-0.89519 -0.02751,-0.0256 -0.666363,-0.37185 -1.419726,-0.76957 -1.203731,-0.6355 -1.70273,-1.07156 -4.117098,-3.59817 l -2.747387,-2.87502 -1.213514,1.10377 c -1.073935,0.97681 -1.180376,1.13691 -0.925046,1.39178 0.158588,0.15834 1.656515,1.46451 3.328597,2.90255 z m 6.378726,0.85882 1.073913,0.53625 0.855361,-0.75058 0.855396,-0.75057 -1.700065,-1.76771 c -1.619145,-1.68379 -2.379229,-2.823 -4.62856,-6.93797 -0.253089,-0.46289 -0.268369,-0.45339 -1.971908,1.22785 l -1.716869,1.6944 3.079552,3.10583 c 2.470204,2.49084 3.291972,3.21213 4.15327,3.6423 z m 4.366457,-2.55361 1.19128,-1.17568 -2.725068,-2.97685 c -1.498756,-1.63729 -3.170412,-3.51563 -3.714662,-4.17424 l -0.989527,-1.19744 -0.729624,0.81919 c -0.829049,0.93074 -0.960062,0.47583 1.239157,4.30295 0.997839,1.73646 1.653275,2.61622 2.912415,3.90923 l 1.624977,1.66837 z m 3.84489,-3.79457 c 1.158408,-1.14325 2.027826,-2.10902 1.932003,-2.14615 -0.09586,-0.0371 -1.147781,-0.39951 -2.337701,-0.80532 l -2.163526,-0.73783 -2.409395,-2.33072 -2.409379,-2.33071 -1.198034,1.18235 -1.198015,1.18236 0.897543,0.94972 c 0.49382,0.52219 2.144597,2.30477 3.668753,3.96086 1.524241,1.65604 2.847821,3.04328 2.941304,3.08268 0.09358,0.0392 1.117914,-0.86387 2.276341,-2.00714 z m -0.394852,-3.55516 c 2.864966,1.02862 2.959401,1.02418 4.197197,-0.19742 0.564336,-0.55696 0.990413,-1.0488 0.94671,-1.09308 -0.04364,-0.0443 -0.863551,-0.20467 -1.822031,-0.35658 -3.41029,-0.54041 -5.468931,-1.49818 -7.364921,-3.42639 l -1.314255,-1.33656 -0.533557,0.52659 c -0.293441,0.28959 -0.536125,0.63685 -0.539283,0.77164 -0.0032,0.13475 0.969582,1.17045 2.161787,2.30132 2.148714,2.03842 2.185737,2.06286 4.268319,2.81049 z m -0.815158,-3.40342 c 1.34002,0.64485 3.332292,1.15235 5.473435,1.39422 1.149817,0.12993 1.28764,0.0859 2.031258,-0.64794 0.438763,-0.43303 0.777634,-0.8077 0.752971,-0.83267 -0.02463,-0.025 -0.891351,-0.39621 -1.926094,-0.82503 -3.523864,-1.46033 -4.67797,-2.19743 -6.248071,-3.99043 l -1.404078,-1.60343 -1.366851,1.34895 c -1.263351,1.24683 -1.351459,1.38813 -1.163869,1.86689 0.31505,0.80411 2.41649,2.59894 3.851301,3.28939 z m 4.319718,-2.44059 c 0.992857,0.48261 2.403392,1.11312 3.134498,1.40113 l 1.329286,0.52365 1.058885,-1.04502 c 0.95737,-0.94486 1.017791,-1.05812 0.630658,-1.18105 -0.235493,-0.0748 -1.238255,-0.62948 -2.228313,-1.23254 -1.577495,-0.96091 -2.023664,-1.34952 -3.608164,-3.1428 -0.9944,-1.1255 -1.962706,-2.28871 -2.151711,-2.58499 -0.342098,-0.5361 -0.347821,-0.53462 -1.229409,0.33542 -0.487127,0.48076 -1.177604,1.25367 -1.534479,1.71745 l -0.648794,0.84331 1.721191,1.744 c 1.497267,1.51713 1.955976,1.85819 3.526368,2.62147 z m 4.154273,-2.07932 c 0.621088,0.36062 0.962599,0.45937 0.875549,0.25322 -0.07846,-0.18585 -0.487447,-1.07517 -0.908741,-1.9762 -0.421293,-0.901 -1.29829,-3.02672 -1.948872,-4.72379 l -1.182868,-3.08556 -1.381112,1.58285 c -0.759603,0.87055 -1.384833,1.67757 -1.389363,1.79341 -0.0144,0.35457 2.635112,3.54101 3.809807,4.58284 0.609007,0.54019 1.56557,1.24812 2.12565,1.57329 z m 2.736929,1.4965 c 0.02851,-10e-4 0.59834,-0.43802 1.266349,-0.97081 l 1.214511,-0.96878 -0.580365,-0.34396 c -1.746683,-1.03523 -3.328916,-3.61516 -5.076075,-8.27711 l -0.938846,-2.50513 -0.590834,0.5879 c -0.325068,0.3232 -0.614137,0.71647 -0.642659,0.87368 -0.06949,0.3824 1.580238,4.75092 3.094291,8.19399 0.802432,1.82476 1.392022,2.89104 1.712702,3.09744 0.269017,0.17303 0.512318,0.31386 0.540809,0.31266 z m 2.093007,-2.83155 c 0.66898,0.48594 0.725706,0.48087 1.332935,-0.11841 0.620049,-0.61194 0.62239,-0.65878 0.106208,-2.09997 -0.669911,-1.8704 -1.667584,-3.28072 -4.591356,-6.49055 -2.862574,-3.14264 -3.05536,-3.07889 -1.682116,0.55723 1.798312,4.76071 3.033732,6.84386 4.834325,8.1517 z m 3.098872,-1.74689 c 0.388003,-0.274 1.004349,-0.79178 1.369801,-1.15052 l 0.663871,-0.6528 -2.061513,-2.30984 c -1.946033,-2.18047 -3.8956,-4.87803 -5.270619,-7.29311 l -0.610912,-1.07302 -0.447927,0.44208 c -0.246377,0.24314 -0.729946,0.80873 -1.074758,1.25676 l -0.626781,0.81467 2.62393,3.04015 c 2.83755,3.28757 3.793364,4.68647 4.251418,6.22235 0.161828,0.54258 0.335483,1.03476 0.385909,1.0937 0.05069,0.0588 0.409068,-0.11706 0.797004,-0.39109 z m 3.015489,-2.76678 c 0.334745,-0.32798 0.80917,-0.71024 1.054203,-0.84959 0.44079,-0.25044 0.423939,-0.27499 -1.536303,-2.23908 -2.098179,-2.10174 -2.055289,-2.03451 -5.485108,-8.67851 l -0.523571,-1.01422 -0.905619,1.09297 c -0.498056,0.60119 -0.964026,1.20125 -1.035437,1.33351 -0.118471,0.21932 0.999289,2.20482 2.733039,4.855 0.372191,0.56902 1.555442,2.03484 2.629364,3.25745 1.07394,1.22256 2.066885,2.36147 2.206635,2.53079 0.200545,0.24298 0.382382,0.18218 0.862714,-0.28841 z m 1.886749,-1.75121 c 0.07119,-0.003 0.9526,-0.72011 1.958742,-1.5922 l 1.829475,-1.58551 -1.807398,-1.18793 c -1.996419,-1.31215 -4.880737,-4.04161 -7.275319,-6.88466 -1.424013,-1.69069 -1.433478,-1.69772 -1.796491,-1.33511 -1.056294,1.05445 -1.130811,0.846 3.041308,8.48626 0.37018,0.6779 3.764616,4.11379 4.050066,4.0989 z m 1.40305,-5.49033 c 2.908263,2.04917 2.635425,1.9548 3.514047,1.21557 0.429712,-0.3616 0.762246,-0.7403 0.739324,-0.8412 -0.146703,-0.64051 -7.120407,-9.28172 -9.151011,-11.33926 -0.140828,-0.1428 -0.525498,0.19742 -1.491505,1.31901 -0.715897,0.83126 -1.304891,1.58085 -1.308805,1.66582 -0.02989,0.63458 5.694973,6.56876 7.698018,7.98006 z m 7.216343,-2.0057 c 1.19663,-1.05577 2.123628,-1.97232 2.059461,-2.03732 -0.06364,-0.0645 -0.518704,-0.15469 -1.011102,-0.20048 -2.485405,-0.23051 -4.35681,-1.42651 -8.748554,-5.59125 l -3.183794,-3.01932 -0.533523,0.62277 -0.533523,0.6228 3.068157,3.51611 c 1.687408,1.93392 3.799891,4.51777 4.69424,5.74201 0.894348,1.22424 1.713058,2.23439 1.819341,2.24478 0.1064,0.0105 1.172323,-0.8448 2.368986,-1.90055 z m -3.432502,-4.81752 c 0.945011,0.70436 1.800616,1.28123 1.901338,1.28188 0.100715,0.001 -0.126938,-0.89855 -0.505943,-1.99825 -0.795346,-2.30779 -1.790421,-3.73696 -4.58214,-6.58106 l -1.81267,-1.84643 -0.96936,1.17478 c -0.533139,0.64612 -0.99723,1.2895 -1.031312,1.42972 -0.08326,0.3429 4.772166,4.87909 6.999962,6.53951 z m 4.416044,1.99028 c 1.653784,0.24197 2.13015,0.11537 3.290081,-0.87465 l 0.765415,-0.65342 -1.211693,-1.67121 c -0.930547,-1.28345 -1.4117,-1.78974 -2.073615,-2.18188 -1.158489,-0.68649 -2.42781,-2.00686 -3.973964,-4.1339 -1.001025,-1.37701 -1.58519,-1.99535 -2.653268,-2.80829 -0.753196,-0.57347 -1.465907,-1.0484 -1.583646,-1.05554 -0.117768,-0.007 -0.521029,0.39091 -0.896221,0.88451 l -0.682099,0.89751 2.250376,2.40784 c 2.972637,3.18065 3.577866,4.09501 4.345153,6.56538 0.354757,1.14224 0.703356,2.14984 0.774649,2.2391 0.07139,0.0894 0.813225,0.26234 1.648746,0.38459 z m 18.969224,15.8476 c 0.299429,-0.0259 0.738824,0.26341 1.367056,0.9 0.775843,0.7861 1.081501,0.95244 1.886631,1.02717 1.584476,0.14702 6.829765,-1.98271 8.190161,-3.32529 0.826897,-0.81607 0.903747,-1.35585 0.41198,-2.89261 -0.567277,-1.77257 -0.528887,-2.43103 0.296177,-5.08107 0.37176,-1.19407 0.61472,-2.29148 0.53989,-2.43864 -0.0749,-0.14706 -0.6473,-0.22727 -1.272208,-0.17789 -2.847404,0.22474 -4.774786,0.0559 -6.65212,-0.58282 -1.06573,-0.36255 -2.067106,-0.72496 -2.225246,-0.80535 -0.208428,-0.1059 -0.34737,0.20395 -0.504894,1.12622 -0.269572,1.57822 -0.879388,2.21525 -3.170509,3.31194 -1.924431,0.92123 -2.278335,1.30399 -2.137105,2.31123 0.08447,0.6023 2.410237,6.176 2.735882,6.55656 0.05135,0.0594 0.291458,0.0915 0.5342,0.0706 z m -40.759568,-42.6312 c 3.090772,1.45873 4.299532,1.79298 4.895167,1.35372 0.223127,-0.16467 0.771555,-1.03824 1.218623,-1.94141 1.126823,-2.27643 1.77183,-2.87783 3.353423,-3.12664 0.924241,-0.14537 1.235949,-0.28019 1.13278,-0.48999 -0.07843,-0.15928 -0.42749,-1.16523 -0.775982,-2.23563 -0.613911,-1.88562 -0.757382,-3.81506 -0.495161,-6.65924 0.05754,-0.62419 -0.01503,-1.19767 -0.161177,-1.27442 -0.146112,-0.0768 -1.246693,0.15171 -2.445541,0.50769 -2.660692,0.79012 -3.319579,0.81983 -5.084536,0.22929 -1.530176,-0.51201 -2.070894,-0.44225 -2.897787,0.37383 -1.360397,1.34259 -3.558934,6.55939 -3.432865,8.14563 0.06399,0.80611 0.226405,1.11389 1.002246,1.90001 0.628233,0.63655 0.911683,1.07975 0.881917,1.37881 -0.02457,0.24239 -0.0229,0.46227 0.0034,0.48864 0.02595,0.0264 1.288468,0.63372 2.805432,1.34968 z m 34.85203,33.22958 c 1.614032,-0.50148 2.02845,-0.73446 3.285054,-1.84672 1.843577,-1.63175 1.919622,-1.94645 0.535777,-2.21662 -1.747308,-0.34107 -4.220148,-1.76289 -6.158122,-3.5407 -2.057296,-1.88733 -2.591862,-2.88619 -2.579124,-4.81971 0.01589,-2.4089 0.817879,-3.63152 2.859213,-4.35865 3.465984,-1.23458 7.633763,0.67111 13.584917,6.21166 l 2.54831,2.37249 1.829245,-0.70729 c 1.006095,-0.38901 1.836596,-0.71453 1.845584,-0.72341 0.0088,-0.008 -2.193407,-2.25258 -4.894208,-4.98602 l -4.910089,-4.97036 -0.369275,-1.3195 c -0.374135,-1.33702 -0.226738,-2.72103 0.350453,-3.29068 0.174112,-0.17184 0.625098,-0.2937 1.002191,-0.27082 1.814073,0.11011 6.247737,1.69555 7.069035,2.52771 0.173541,0.17587 0.369508,0.26527 0.435472,0.19867 0.06584,-0.0667 0.643274,-1.19755 1.282915,-2.51319 0.639655,-1.31566 1.819745,-3.36175 2.622425,-4.54688 0.80266,-1.18514 1.42217,-2.15293 1.37662,-2.15069 -0.0454,0.002 -1.47829,1.54732 -3.18405,3.43334 -1.705743,1.88597 -3.163934,3.42875 -3.240552,3.42823 -0.07671,-3.2e-4 -1.049718,-0.92342 -2.162509,-2.05097 l -2.023234,-2.05004 2.591899,-2.79166 c 2.200964,-2.37041 4.230976,-4.81664 3.608969,-4.34878 -0.10089,0.0757 -1.669885,1.45866 -3.486874,3.07307 -2.645071,2.35013 -3.289708,3.00284 -3.233732,3.27425 0.03837,0.18641 -0.881265,-0.66153 -2.043849,-1.88439 l -2.113703,-2.22349 1.992768,-2.18578 c 2.814913,-3.08742 5.757331,-6.61946 5.625626,-6.75294 -0.124138,-0.12574 -3.626865,2.49649 -6.884615,5.15379 -1.167278,0.95209 -2.153,1.73306 -2.190597,1.73542 -0.199866,0.0127 -4.413323,-4.138 -4.37219,-4.30715 0.02677,-0.11015 1.72731,-1.95793 3.778977,-4.10621 2.051617,-2.14834 3.575159,-3.86325 3.385544,-3.81108 -0.436272,0.12013 -4.99484,3.1923 -7.105392,4.78859 l -1.599357,1.20968 -1.76253,-1.7859 -1.762531,-1.78588 1.918771,-1.6947 c 1.055312,-0.9321 3.05096,-2.73083 4.434738,-3.99725 l 2.515985,-2.30253 -3.858446,2.23613 c -2.122136,1.22984 -4.748429,2.68147 -5.836182,3.22583 -1.087767,0.54434 -1.958104,1.06311 -1.934067,1.15279 0.02415,0.0898 0.348889,0.57768 0.721925,1.08433 0.90423,1.22829 1.851917,3.39885 2.326657,5.32905 0.495651,2.01514 0.531288,2.86926 0.135966,3.25939 -0.577208,0.56965 -1.96307,0.69879 -3.294999,0.30707 l -1.314544,-0.38664 -4.88826,-4.95792 -4.888244,-4.95791 -0.441594,1.01362 c -0.242879,0.55749 -0.599797,1.39916 -0.79315,1.87038 l -0.351571,0.85674 1.632554,1.65662 c 3.007461,3.05219 5.751772,6.9522 6.675328,9.48637 0.870479,2.38856 0.489722,5.37391 -0.855728,6.70953 -1.154682,1.14677 -3.875759,1.45137 -5.668721,0.6352 -2.171691,-0.98858 -5.496376,-5.64177 -5.995631,-8.39165 -0.251363,-1.3844 -0.567971,-1.31476 -2.204035,0.48483 -1.020577,1.12262 -1.373788,1.69249 -1.785547,2.88093 -0.924246,2.66778 -1.523287,1.87553 5.265445,6.96346 3.267997,2.44927 6.036503,4.40362 6.15227,4.34298 0.115764,-0.0605 0.753215,-0.41224 1.416627,-0.7814 1.499594,-0.83445 2.389563,-0.83953 3.854241,-0.022 1.137634,0.63496 1.14949,0.64956 1.769434,2.18062 0.699524,1.72752 0.629225,2.38085 -0.449088,4.17384 l -0.65874,1.09539 4.09181,5.66316 c 2.250497,3.11475 4.279312,5.8281 4.508488,6.02968 0.335162,0.29471 0.778172,0.25415 2.263695,-0.20739 z m -8.154222,-23.66116 c 0.76495,-1.64886 1.000871,-2.76973 0.945826,-4.49392 -0.03908,-1.2246 0.04962,-1.87597 0.254743,-1.87462 0.172991,0.002 1.087941,0.21038 2.033074,0.46499 l 1.718468,0.46291 1.819259,1.8434 1.819259,1.84337 0.441311,2.27475 c 0.242711,1.25109 0.396113,2.31936 0.340837,2.37392 -0.0554,0.0545 -1.116967,0.0422 -2.359283,-0.0275 -1.242334,-0.0697 -2.79546,-0.009 -3.451414,0.13419 -0.655954,0.14349 -1.243362,0.20975 -1.305375,0.14724 -0.06199,-0.0626 -0.110403,-0.47513 -0.107442,-0.91693 0.0068,-1.02206 -0.391452,-1.41854 -1.530822,-1.52418 l -0.907697,-0.084 0.289216,-0.62338 z m 4.313123,2.31021 c 0.772397,-0.11329 2.106185,-0.12952 2.964015,-0.0361 l 1.559646,0.16974 -0.415307,-2.07148 -0.415326,-2.07145 -1.586723,-1.60778 c -1.538128,-1.55851 -1.634406,-1.61944 -3.127385,-2.00265 -0.847131,-0.21741 -1.590152,-0.3972 -1.651182,-0.39955 -0.06096,-0.002 -0.108313,0.77129 -0.105147,1.7192 0.0033,0.99955 -0.186572,2.17339 -0.452228,2.79464 -0.490807,1.14804 -0.435777,1.34113 0.417554,1.46524 0.742165,0.1079 1.077993,0.49541 1.147944,1.32449 0.03229,0.38262 0.104036,0.74643 0.159462,0.80851 0.05589,0.0614 0.73268,0.0206 1.505094,-0.0931 z m -8.465076,8.85691 c 0.39941,0.20261 0.825579,0.37522 0.94691,0.38365 0.228762,0.0154 1.155685,-1.42816 1.170446,-1.82332 0.0045,-0.12346 -0.49073,-0.51905 -1.101773,-0.87815 -0.610604,-0.3595 -1.817025,-1.2744 -2.68092,-2.03312 -1.487454,-1.30631 -1.597221,-1.36382 -2.070232,-1.08483 -0.274753,0.16199 -0.501021,0.38506 -0.502847,0.49563 -0.0039,0.23735 1.971907,2.90461 2.879584,3.88707 0.347842,0.3767 0.959384,0.85056 1.358884,1.05307 z m 14.373144,14.1464 c 0.176854,-0.46361 0.586515,-0.75098 2.262688,-1.58778 1.125685,-0.56191 2.196103,-1.1691 2.378709,-1.34931 0.43157,-0.42593 0.76727,-1.47404 0.732143,-2.28581 -0.02743,-0.63284 -0.05242,-0.6572 -1.52368,-1.48177 -3.627185,-2.03299 -5.785582,-4.08191 -5.825256,-5.52986 -0.02852,-1.04301 0.258796,-1.91626 0.932458,-2.83364 0.603668,-0.82201 1.609917,-1.24782 3.038888,-1.28603 0.46862,-0.0126 0.852551,-0.097 0.853162,-0.1876 0.0012,-0.31704 -2.457389,-1.38129 -3.671228,-1.58864 -3.348618,-0.572 -5.720867,1.11659 -5.632448,4.00923 0.06658,2.17947 1.180818,3.80864 3.889025,5.68647 1.992928,1.38182 3.490981,2.03742 5.208812,2.27954 0.677696,0.0955 1.257727,0.28525 1.288977,0.42164 0.104659,0.45694 -3.302054,3.59768 -4.549834,4.19454 l -1.138462,0.54461 0.770038,0.78025 c 0.757262,0.76729 0.77318,0.77131 0.985991,0.21418 z m -30.49912,-32.14019 c 0.621925,-1.2573 3.799753,-4.60463 4.264275,-4.49173 0.141639,0.0342 0.308604,0.55189 0.371154,1.15001 0.352584,3.36953 3.637017,8.1788 6.166071,9.02875 3.735808,1.25549 6.426223,-1.1923 5.785792,-5.26401 -0.191325,-1.21645 -1.22312,-3.68973 -1.54013,-3.6918 -0.09067,-7.5e-4 -0.180125,0.3822 -0.198827,0.85061 -0.05623,1.42834 -0.496073,2.42888 -1.325945,3.02166 -0.926148,0.66153 -1.803119,0.93737 -2.845655,0.89506 -1.447317,-0.0584 -3.46763,-2.24392 -5.452673,-5.89759 -0.805118,-1.48196 -0.829154,-1.50732 -1.461581,-1.54305 -0.81121,-0.0458 -1.863658,0.27605 -2.295229,0.70198 -0.182589,0.18021 -0.803855,1.24253 -1.380547,2.36072 -0.858729,1.66506 -1.151526,2.07082 -1.61743,2.24157 -0.559438,0.20504 -0.556077,0.22145 0.201167,0.98874 l 0.770057,0.78025 z m 17.174646,15.03074 c 0.825639,0.52725 1.391651,0.76665 1.430929,0.60512 0.03559,-0.14705 -0.155792,-0.84934 -0.425571,-1.56081 -0.365454,-0.96385 -0.660862,-1.41179 -1.158832,-1.75729 -1.008043,-0.69935 -1.933548,-0.92719 -2.743249,-0.67532 l -0.728618,0.22662 1.129685,1.14467 c 0.62134,0.62955 1.744361,1.53726 2.495656,2.01701 z m 20.914121,-4.53438 c 0.08501,-1.48238 0.517238,-1.88376 2.521078,-2.34083 0.680715,-0.15529 1.183798,-0.33692 1.117994,-0.40361 -0.0658,-0.0666 -1.079464,-0.38912 -2.252567,-0.71654 -2.367281,-0.66072 -2.949082,-0.5048 -3.118143,0.83565 -0.121886,0.96713 0.444221,2.65151 1.122396,3.33898 l 0.537132,0.54454 z m -17.05732,-16.95084 c 0.564139,0.20027 1.355025,0.32702 1.757522,0.28163 1.178206,-0.13293 1.452256,-0.60976 1.163821,-2.02525 -0.253011,-1.24169 -0.833598,-3.22881 -0.989552,-3.38682 -0.04381,-0.0443 -0.213952,0.4746 -0.37819,1.15322 -0.483481,1.99759 -0.890515,2.42452 -2.373849,2.49003 l -1.258988,0.0556 0.526792,0.53378 c 0.289711,0.29356 0.988338,0.69763 1.552477,0.89792 z m 23.890281,10.89262 c 5.864866,-6.71762 14.322896,-15.46942 61.082936,-63.20467 28.03066,-28.61527 52.41182,-53.615123 54.18036,-55.555244 5.7467,-6.304303 12.65788,-14.628052 16.26613,-19.590783 3.20302,-4.405355 6.94745,-10.412774 12.10986,-19.428484 4.41707,-7.7140634 4.50237,-7.8667667 4.52248,-8.0972407 0.0108,-0.114404 -2.34312,2.1589917 -5.22922,5.0521087 -2.8861,2.8931 -36.24949,36.217924 -74.14095,74.055081 -58.55354,58.469592 -69.112819,69.082432 -70.354223,70.711132 -0.803342,1.05398 -2.512814,3.10631 -3.798817,4.56075 -1.285952,1.45444 -2.65265,3.05354 -3.037008,3.55359 l -0.698811,0.90921 1.432397,1.54454 c 1.063175,1.14641 1.50362,1.50901 1.708006,1.40718 0.151521,-0.0756 2.250076,-1.92104 4.663398,-4.10118 3.977838,-3.59342 5.240288,-4.55281 4.818938,-3.66202 -0.40208,0.85002 -3.135913,4.2563 -5.070753,6.31799 -1.198043,1.2767 -2.379421,2.59051 -2.625159,2.91969 l -0.446809,0.59851 1.69051,1.71292 1.690496,1.71292 z m -8.323637,-12.31549 c 1.783471,-1.4396 4.171599,-3.27735 5.306931,-4.08386 1.991704,-1.41486 4.609252,-4.00997 74.463382,-73.82529 39.81922,-39.796992 73.26313,-73.229386 74.3195,-74.293837 l 1.9207,-1.9353329 -2.24049,1.2878419 c -3.85382,2.215114 -13.97459,8.485346 -18.52238,11.475393 -6.97097,4.58319 -14.2556,10.095278 -23.66632,17.907704 -5.19032,4.308809 -5.97111,5.047921 -55.78427,52.805018 C 91.648051,144.67511 88.966056,147.22963 82.788184,152.77258 l -4.105726,3.68376 1.36672,1.38477 1.366736,1.38477 2.732749,-2.002 c 2.672825,-1.95812 7.247243,-4.83438 7.684028,-4.83149 0.121027,6.6e-4 0.183652,0.15061 0.139187,0.33319 -0.07992,0.32865 -4.503108,5.11498 -7.048153,7.62672 -0.726945,0.71742 -1.322343,1.40083 -1.323099,1.51865 -2.48e-4,0.11779 0.795407,1.02161 1.76932,2.00843 l 1.770746,1.79422 z"
     id="path854" />
  <path
     style="font-variation-settings:normal;opacity:1;vector-effect:none;fill:#ff5555;fill-opacity:1;stroke-width:0.000528748;stroke-linecap:butt;stroke-linejoin:miter;stroke-miterlimit:4;stroke-dasharray:none;stroke-dashoffset:0;stroke-opacity:1;stop-color:#000000;stop-opacity:1"
     d="m 95.83901,175.13208 c -0.916908,-0.92036 -1.667105,-1.75115 -1.667105,-1.84621 0,-0.0951 0.940799,-1.21808 2.090664,-2.49561 2.296321,-2.55127 4.957321,-5.74862 5.628911,-6.76345 1.02443,-1.54802 0.0315,-0.80745 -5.376169,4.00986 -1.968279,1.75339 -3.70128,3.21553 -3.851114,3.24918 -0.269346,0.0605 -2.972709,-2.63806 -2.972709,-2.96743 0,-0.19668 0.796666,-1.19281 2.843875,-3.5559 0.862143,-0.99517 2.525456,-2.97259 3.696251,-4.39426 1.727897,-2.09814 15.694846,-16.15819 74.176786,-74.671235 39.62643,-39.647511 73.05093,-73.030922 74.27666,-74.185359 1.22573,-1.154436 2.17099,-1.9438831 2.10058,-1.754327 -0.18362,0.494297 -5.63895,10.033432 -8.17966,14.302868 -5.5122,9.262744 -8.62811,13.717492 -15.00642,21.454302 -6.01128,7.291615 -8.50751,10.034798 -18.34543,20.160339 -8.75561,9.011588 -9.69719,9.975438 -50.08297,51.267842 -46.51363,47.55781 -51.03276,52.243 -56.962699,59.05586 l -0.702345,0.80692 z"
     id="path862" />
  <path
     style="font-variation-settings:normal;opacity:1;vector-effect:none;fill:#ff5555;fill-opacity:1;stroke-width:0.000528748;stroke-linecap:butt;stroke-linejoin:miter;stroke-miterlimit:4;stroke-dasharray:none;stroke-dashoffset:0;stroke-opacity:1;stop-color:#000000;stop-opacity:1"
     d="m 85.287783,163.80328 c -0.969811,-0.99679 -1.737888,-1.88128 -1.706838,-1.96552 0.03105,-0.0842 1.482442,-1.65056 3.225316,-3.48072 3.871652,-4.06554 5.303641,-5.71357 5.040721,-5.80121 -0.433053,-0.14435 -5.142238,2.80987 -8.776262,5.50562 l -1.632745,1.21118 -1.355901,-1.34795 c -0.745746,-0.74137 -1.355901,-1.39344 -1.355901,-1.44904 0,-0.0556 1.725391,-1.65441 3.834203,-3.55291 6.30143,-5.67298 9.251519,-8.48026 58.373344,-55.547537 57.27244,-54.876995 55.60609,-53.29952 61.39628,-58.121621 8.1578,-6.793856 15.38775,-12.292978 21.83739,-16.60958 7.00046,-4.685261 21.61448,-13.654024 21.85554,-13.4129607 0.0565,0.056531 -7.10605,7.2871237 -15.91685,16.0679847 -8.8108,8.78086 -40.64038,40.555957 -70.73241,70.611327 -30.09203,30.055367 -56.42144,56.312057 -58.50981,58.348197 -2.461789,2.40022 -4.643335,4.34494 -6.203655,5.53021 -1.323641,1.00548 -3.531033,2.72768 -4.905314,3.82711 -1.374282,1.09942 -2.544847,1.99914 -2.601255,1.99937 -0.05641,1.7e-4 -0.896043,-0.81515 -1.865853,-1.81195 z"
     id="path864" />
  <path
     style="font-variation-settings:normal;opacity:1;vector-effect:none;fill:#ffdd55;fill-opacity:1;stroke-linecap:butt;stroke-linejoin:miter;stroke-miterlimit:4;stroke-dasharray:none;stroke-dashoffset:0;stroke-opacity:1;stop-color:#000000;stop-opacity:1"
     d="m 11.849985,249.89774 c -0.94753,-0.17721 -1.602055,-0.4452 -2.1664659,-0.88706 -1.7460053,-1.36689 -2.9044016,-2.89719 -3.2929262,-4.35011 -0.1706548,-0.63817 -0.1839004,-1.7897 -0.028713,-2.49617 0.4502488,-2.04971 1.7340807,-4.51438 3.5582532,-6.83105 1.2652989,-1.60691 3.0632119,-3.64209 3.6349679,-4.11467 0.688229,-0.56886 1.703449,-0.94963 2.097125,-0.78657 0.312986,0.12965 0.339851,0.35422 0.118767,0.99278 -0.170268,0.49179 -0.186891,0.60123 -0.158518,1.04368 0.08333,1.29954 1.028109,2.41388 2.046,2.41321 0.436022,-2.8e-4 0.711577,-0.15352 0.772168,-0.42939 0.03424,-0.15587 -0.0012,-0.28148 -0.177236,-0.62892 -0.121009,-0.23877 -0.219893,-0.49935 -0.219743,-0.57905 1.83e-4,-0.10045 0.15953,-0.30418 0.519302,-0.66395 0.285465,-0.28546 0.535741,-0.50231 0.55617,-0.48189 0.02043,0.0204 -0.03735,0.21243 -0.128405,0.42666 -0.09105,0.21423 -0.156265,0.45517 -0.144922,0.53542 0.04461,0.31555 0.622745,0.13905 1.991651,-0.60804 0.376086,-0.20526 0.699575,-0.37319 0.718863,-0.37319 0.01929,0 -0.269461,0.31678 -0.641664,0.70395 -0.647237,0.67326 -0.822407,0.94226 -0.695947,1.06872 0.09678,0.0968 0.772849,-0.1516 1.839646,-0.67586 0.549231,-0.26991 1.007254,-0.48209 1.017829,-0.47151 0.01058,0.0106 -0.239718,0.33056 -0.556209,0.71107 -0.599379,0.72063 -0.898536,1.15069 -0.97329,1.39916 -0.04223,0.14036 -0.03459,0.14476 0.191485,0.11032 0.129507,-0.0197 0.728965,-0.28493 1.332129,-0.58936 1.057246,-0.5336 1.248975,-0.61019 1.248975,-0.49894 0,0.0284 -0.185061,0.29202 -0.411248,0.58583 -0.226186,0.2938 -0.581685,0.75581 -0.789997,1.02668 -0.208312,0.27087 -0.440847,0.60955 -0.516744,0.75262 -0.25967,0.48948 -0.02627,0.47402 1.214699,-0.0805 0.806179,-0.36022 1.173628,-0.45997 1.173244,-0.31849 -5.48e-4,0.19447 -0.799422,1.28381 -1.342025,1.82993 -0.37288,0.3753 -0.611925,0.47684 -1.125235,0.47799 -0.435945,9.7e-4 -0.711851,0.0937 -0.917348,0.3084 -0.515208,0.53821 0.09298,1.91194 1.05189,2.37593 0.195011,0.0944 0.438891,0.14978 0.734557,0.16692 0.638061,0.037 1.006511,-0.1506 1.424507,-0.7253 0.16803,-0.23102 0.341998,-0.42003 0.386594,-0.42003 0.143642,0 0.380529,0.34945 0.459207,0.67742 0.05299,0.22087 0.0635,0.5265 0.03418,0.9936 -0.07699,1.22657 0.154271,0.92875 -2.168821,2.79307 -2.375989,1.90677 -4.406215,3.45533 -5.284785,4.03098 -1.091638,0.71525 -2.378428,1.26796 -3.550091,1.52486 -0.654887,0.1436 -2.210615,0.17701 -2.831877,0.0608 z m 8.332717,-6.57024 c 0.400253,-0.12046 0.635359,-0.31001 0.80864,-0.65197 0.141176,-0.27859 0.392115,-1.17674 0.393078,-1.40689 8.28e-4,-0.1974 -0.299752,-0.45454 -0.892893,-0.76383 -1.135923,-0.59234 -2.147845,-0.69507 -3.15066,-0.31987 -0.437832,0.16381 -0.91239,0.59066 -1.046186,0.941 -0.151417,0.39648 -0.101045,0.93588 0.134301,1.43816 0.221003,0.47166 0.431719,0.62936 1.008171,0.75453 0.530485,0.11519 2.37251,0.12114 2.745549,0.009 z m -4.72932,-3.42338 c 0.596155,-0.3669 0.935563,-1.14362 0.935563,-2.141 0,-0.70151 -0.111625,-1.16457 -0.437503,-1.81491 -0.278162,-0.55512 -0.48687,-0.85214 -0.666209,-0.94812 -0.290584,-0.15552 -1.695077,0.28179 -1.951385,0.60759 -0.329018,0.41822 -0.437115,1.18053 -0.357497,2.52108 0.06897,1.1613 0.182762,1.43786 0.701403,1.70475 0.673207,0.34642 1.287773,0.37086 1.775628,0.0706 z m 4.345664,-1.45488 c 0.331546,-0.11998 0.550065,-0.31467 0.550065,-0.49007 0,-0.27227 -1.426352,-1.72059 -1.940853,-1.97074 -0.20273,-0.0986 -0.205682,-0.0979 -0.346266,0.0784 -0.390401,0.48961 -0.571295,1.83608 -0.296514,2.20709 0.07016,0.0947 0.220948,0.20683 0.335091,0.24912 0.277045,0.10265 1.338308,0.0565 1.698477,-0.0738 z"
     id="path866" />
  <path
     style="font-variation-settings:normal;opacity:1;vector-effect:none;fill:#ffdd55;fill-opacity:1;stroke-width:0.000106797;stroke-linecap:butt;stroke-linejoin:miter;stroke-miterlimit:4;stroke-dasharray:none;stroke-dashoffset:0;stroke-opacity:1;stop-color:#000000;stop-opacity:1"
     d="m 90.525387,212.56014 c -0.197761,-0.10312 -0.639606,-0.45234 -0.981879,-0.77605 -0.703223,-0.66508 -1.249841,-0.98457 -1.684521,-0.98457 -0.328963,0 -0.471855,-0.25468 -1.5504,-2.7634 -0.99645,-2.31777 -1.455273,-3.64987 -1.455273,-4.2251 0,-0.46726 0.05901,-0.59284 0.432777,-0.92101 0.238027,-0.20899 0.882315,-0.6054 1.431752,-0.88091 1.538703,-0.77157 2.574403,-1.48654 2.887676,-1.99342 0.155037,-0.25086 0.397343,-0.92923 0.538457,-1.50749 0.219054,-0.89764 0.291987,-1.04866 0.498773,-1.03274 0.133212,0.0103 0.872783,0.24141 1.643493,0.5137 2.035847,0.71925 3.153285,0.88078 5.925363,0.85654 1.281915,-0.0112 2.392285,0.0177 2.467485,0.0641 0.23874,0.14754 0.15133,0.70467 -0.42317,2.69742 -0.702516,2.43673 -0.73687,3.12685 -0.24624,4.94665 0.41847,1.55217 0.37827,1.97269 -0.255669,2.67438 -0.615356,0.68113 -2.114963,1.5699 -3.858301,2.28669 -2.796373,1.14976 -4.5247,1.48613 -5.370323,1.04517 z"
     id="path868" />
  <path
     style="font-variation-settings:normal;opacity:1;vector-effect:none;fill:#ffdd55;fill-opacity:1;stroke-width:0.000106797;stroke-linecap:butt;stroke-linejoin:miter;stroke-miterlimit:4;stroke-dasharray:none;stroke-dashoffset:0;stroke-opacity:1;stop-color:#000000;stop-opacity:1"
     d="m 50.003852,169.32671 c -0.636673,-0.22371 -2.130874,-0.86442 -3.320447,-1.42379 -2.06448,-0.97077 -2.16286,-1.03295 -2.16286,-1.36701 0,-0.45686 -0.164116,-0.75214 -0.829013,-1.49154 -0.859354,-0.95564 -0.997787,-1.24523 -0.9983,-2.0883 -0.0011,-1.79203 1.886934,-6.34146 3.264531,-7.8663 0.83733,-0.92682 1.504321,-1.03422 3.20212,-0.5156 1.414828,0.43219 2.741286,0.36491 4.865061,-0.24674 0.837728,-0.24127 1.76989,-0.45098 2.071472,-0.46602 l 0.54833,-0.0274 0.0057,2.8635 c 0.0063,3.18648 0.05628,3.52166 0.894848,6.00131 0.560134,1.65634 0.621912,1.52359 -0.860227,1.84836 -1.528905,0.335 -2.030655,0.8379 -3.341383,3.34899 -0.780543,1.49536 -1.101506,1.83976 -1.713233,1.83834 -0.257939,-6e-4 -0.989894,-0.18413 -1.626567,-0.40785 z"
     id="path870" />
  <path
     style="font-variation-settings:normal;opacity:1;vector-effect:none;fill:#ffdd55;fill-opacity:1;stroke-width:0.000106797;stroke-linecap:butt;stroke-linejoin:miter;stroke-miterlimit:4;stroke-dasharray:none;stroke-dashoffset:0;stroke-opacity:1;stop-color:#000000;stop-opacity:1"
     d="m 79.849663,201.53108 c -0.32593,-0.32593 -2.314684,-3.00679 -5.758508,-7.76253 l -2.759059,-3.81011 0.603857,-1.05314 c 0.877908,-1.53108 1.048718,-2.11603 0.870237,-2.98015 -0.187229,-0.90647 -0.806625,-2.39902 -1.14509,-2.7593 -0.147058,-0.15653 -0.676902,-0.48701 -1.17743,-0.73438 -0.77609,-0.38356 -1.03059,-0.44977 -1.728932,-0.44977 -0.752727,0 -0.919627,0.0526 -2.065955,0.65079 -1.092682,0.57022 -1.28428,0.63384 -1.547588,0.51387 -0.811137,-0.36958 -9.944345,-7.12974 -10.954937,-8.10855 -0.866753,-0.8395 -0.902956,-1.07324 -0.395045,-2.55056 0.557522,-1.62162 1.068678,-2.44853 2.311943,-3.7401 1.41461,-1.46957 1.596015,-1.45721 1.989633,0.13554 0.460835,1.86473 2.237455,4.80524 3.974339,6.57799 1.44474,1.47458 2.482383,1.9487 4.264794,1.9487 3.09371,0 4.575305,-1.64014 4.565372,-5.05393 -0.003,-1.04271 -0.06599,-1.54331 -0.283476,-2.25425 -0.774134,-2.5305 -3.547268,-6.54506 -6.873922,-9.95112 l -1.579052,-1.61674 0.552429,-1.31391 c 0.303836,-0.72264 0.665737,-1.57694 0.804225,-1.89842 l 0.251796,-0.58452 4.932049,4.98119 4.932048,4.9812 0.963808,0.26413 c 1.610628,0.4414 3.34389,0.27571 3.679701,-0.35176 0.182386,-0.34079 0.136374,-1.28907 -0.118455,-2.44126 -0.4954,-2.23993 -1.365087,-4.32007 -2.531707,-6.05541 l -0.697165,-1.03702 0.287787,-0.19528 c 0.158284,-0.10739 1.143673,-0.65238 2.189755,-1.21108 1.046082,-0.5587 3.482065,-1.92131 5.413295,-3.02802 1.931232,-1.10672 3.531782,-1.99176 3.556781,-1.96676 0.04085,0.0409 -5.037105,4.67591 -7.592868,6.93061 l -1.012163,0.89294 1.756036,1.75604 1.756038,1.75603 1.692889,-1.26122 c 2.049537,-1.52693 6.875304,-4.77139 6.964393,-4.6823 0.09499,0.095 -0.574083,0.87319 -2.726886,3.17162 -3.576491,3.81843 -4.310936,4.63037 -4.310936,4.76578 0,0.168 4.077704,4.19604 4.247782,4.19604 0.06818,0 1.100608,-0.78519 2.294277,-1.74486 3.741128,-3.00776 6.674211,-5.18495 6.806666,-5.05249 0.145087,0.14509 -2.176321,2.94498 -5.503135,6.63743 -1.098202,1.2189 -1.996136,2.26073 -1.995411,2.31518 7.31e-4,0.0544 0.875182,0.98897 1.943238,2.07672 l 1.941922,1.97772 0.707026,-0.748 c 0.936402,-0.99068 6.136239,-5.61734 6.219581,-5.53399 0.09289,0.0929 -1.024646,1.43165 -3.104428,3.71895 -0.989379,1.08809 -2.082997,2.29274 -2.430264,2.67698 l -0.631392,0.69862 1.3625,1.39829 c 0.749375,0.76907 1.682009,1.69767 2.07252,2.06357 l 0.710022,0.66527 0.447565,-0.49477 c 2.484047,-2.74603 5.671677,-6.14131 5.720167,-6.09282 0.0334,0.0334 -0.37785,0.7342 -0.9139,1.55732 -1.3411,2.0593 -2.16787,3.50092 -3.216819,5.60906 -0.491855,0.98852 -0.939942,1.79731 -0.995749,1.79731 -0.05581,0 -0.276015,-0.13104 -0.489352,-0.29119 -1.316926,-0.98865 -5.3992,-2.38954 -6.963234,-2.38954 -0.559291,0 -0.739232,0.0533 -0.974945,0.28907 -0.596723,0.59672 -0.686956,1.60736 -0.29324,3.28437 l 0.259576,1.10565 4.848174,4.94107 c 2.666497,2.71759 4.863393,4.9959 4.881991,5.06292 0.0186,0.067 -0.777333,0.4395 -1.768736,0.82774 l -1.80255,0.70589 -1.54171,-1.43968 c -4.754582,-4.4399 -7.495464,-6.34084 -10.324753,-7.16073 -3.027855,-0.87744 -6.159444,0.20966 -6.797981,2.35985 -0.456145,1.53601 -0.351404,3.29697 0.265469,4.46323 0.404139,0.76406 2.34829,2.7015 3.631394,3.61886 1.374361,0.9826 2.85477,1.73743 4.129383,2.10549 1.247956,0.36036 1.489152,0.52469 1.297032,0.88367 -0.223104,0.41687 -2.213129,2.22235 -2.864484,2.59885 -0.807365,0.46667 -2.782017,1.08956 -3.454068,1.08956 -0.365614,0 -0.598285,-0.0756 -0.774165,-0.25145 z m -2.002796,-20.83756 c 0.487176,-0.0771 1.845798,-0.11718 3.168132,-0.0935 l 2.315175,0.0414 -0.01872,-0.56701 c -0.0103,-0.31185 -0.167113,-1.35368 -0.348484,-2.31517 l -0.329766,-1.74816 -1.833938,-1.84879 -1.833937,-1.8488 -1.816261,-0.45223 c -1.316911,-0.32791 -1.852977,-0.41552 -1.94981,-0.31869 -0.07843,0.0784 -0.15205,0.80187 -0.178367,1.7527 -0.05505,1.98896 -0.181429,2.67455 -0.732057,3.97134 -0.236297,0.55651 -0.409737,1.02584 -0.38542,1.04297 0.02432,0.0171 0.428043,0.0936 0.89717,0.17001 0.984076,0.16024 1.400363,0.50551 1.402631,1.16336 7.31e-4,0.21407 0.03576,0.59753 0.07784,0.85213 0.06963,0.42137 0.105046,0.4571 0.394675,0.39818 0.175,-0.0356 0.702011,-0.12545 1.171139,-0.19965 z"
     id="path872" />
  <path
     style="font-variation-settings:normal;opacity:1;vector-effect:none;fill:#ff9955;fill-opacity:1;stroke-linecap:butt;stroke-linejoin:miter;stroke-miterlimit:4;stroke-dasharray:none;stroke-dashoffset:0;stroke-opacity:1;stop-color:#000000;stop-opacity:1"
     d="m 22.871584,240.29278 c -0.581533,-0.30657 -0.904699,-0.76065 -0.904699,-1.27119 0,-0.42933 0.269167,-0.56941 0.609979,-0.31744 0.134564,0.0995 0.321579,0.18089 0.41559,0.18089 0.112109,0 0.577728,-0.45833 1.353077,-1.33189 0.659309,-0.74283 1.223555,-1.3078 1.275771,-1.27743 0.41848,0.24347 1.084485,0.73568 1.084485,0.80148 0,0.121 -1.48451,1.83337 -2.295568,2.64792 -0.77341,0.77674 -0.990279,0.85675 -1.538635,0.56766 z"
     id="path874" />
  <path
     style="font-variation-settings:normal;opacity:1;vector-effect:none;fill:#ff9955;fill-opacity:1;stroke-linecap:butt;stroke-linejoin:miter;stroke-miterlimit:4;stroke-dasharray:none;stroke-dashoffset:0;stroke-opacity:1;stop-color:#000000;stop-opacity:1"
     d="m 16.873414,234.15605 c -0.113016,-0.0893 -0.337957,-0.42174 -0.49987,-0.73869 -0.337629,-0.66092 -0.378342,-1.13113 -0.138327,-1.59759 0.191982,-0.37311 1.611182,-1.8094 1.787869,-1.8094 0.071,0 0.308879,0.1922 0.528615,0.42712 0.622935,0.66597 0.539424,1.01133 -0.458466,1.89603 -0.715052,0.63394 -0.793571,0.82712 -0.49838,1.22614 0.275618,0.37256 0.330549,0.54389 0.212295,0.66214 -0.152914,0.15291 -0.706391,0.11394 -0.933736,-0.0658 z"
     id="path876" />
  <path
     style="font-variation-settings:normal;opacity:1;vector-effect:none;fill:#ff9955;fill-opacity:1;stroke-linecap:butt;stroke-linejoin:miter;stroke-miterlimit:4;stroke-dasharray:none;stroke-dashoffset:0;stroke-opacity:1;stop-color:#000000;stop-opacity:1"
     d="m 26.702795,236.33881 c -0.78074,-0.47749 -0.858627,-0.57237 -0.858627,-1.04595 0,-0.36843 -0.0024,-0.37126 -0.308411,-0.37126 -0.169627,0 -0.56007,0.10067 -0.867652,0.22373 -0.307583,0.12305 -0.58009,0.20288 -0.605573,0.1774 -0.02548,-0.0255 0.137504,-0.34129 0.362193,-0.70179 0.509629,-0.81766 0.679792,-1.28085 0.555722,-1.51267 -0.121081,-0.22624 -0.233765,-0.2135 -0.804306,0.091 -0.267311,0.14264 -0.486019,0.2388 -0.486019,0.21369 0,-0.0251 0.09693,-0.28421 0.215404,-0.57578 0.241529,-0.5944 0.271885,-0.8911 0.098,-0.95783 -0.06457,-0.0248 -0.382319,0.0475 -0.706105,0.16066 -0.323785,0.11314 -0.600096,0.19431 -0.614025,0.18038 -0.01393,-0.0139 0.05967,-0.22651 0.163558,-0.4724 0.166304,-0.39363 0.173721,-0.46223 0.06205,-0.57391 -0.16325,-0.16325 -0.500735,-0.0754 -1.686616,0.43903 -0.480558,0.20846 -0.915662,0.37902 -0.966896,0.37902 -0.05123,0 0.0027,-0.18025 0.119826,-0.40056 0.31697,-0.59614 0.290721,-0.71947 -0.153207,-0.71986 -0.46804,-4.2e-4 -0.788568,-0.19878 -1.312891,-0.81251 l -0.418888,-0.49031 1.198612,-1.20091 c 0.659237,-0.6605 1.218519,-1.20019 1.242848,-1.19932 0.02433,8.8e-4 0.664601,0.5491 1.422825,1.21827 3.368786,2.97313 4.714911,4.03345 6.304288,4.96583 0.537014,0.31502 0.976389,0.59582 0.976389,0.62398 0,0.0519 -1.869828,2.32554 -2.141591,2.60411 -0.140549,0.14407 -0.178749,0.13238 -0.790904,-0.242 z"
     id="path878" />
  <path
     style="font-variation-settings:normal;opacity:1;vector-effect:none;fill:#ff9955;fill-opacity:1;stroke-linecap:butt;stroke-linejoin:miter;stroke-miterlimit:4;stroke-dasharray:none;stroke-dashoffset:0;stroke-opacity:1;stop-color:#000000;stop-opacity:1"
     d="m 29.151766,233.03825 c -1.063481,-0.52006 -2.211801,-1.38084 -4.774229,-3.57873 -2.871204,-2.46274 -2.966672,-2.55599 -2.897804,-2.83038 0.05871,-0.23392 2.079463,-2.16377 2.215254,-2.11561 0.03963,0.0141 1.130696,1.12808 2.424587,2.4756 1.293892,1.34752 2.66925,2.70457 3.056351,3.01566 0.387101,0.3111 1.172251,0.8161 1.744777,1.12224 0.572527,0.30613 1.040958,0.58523 1.040958,0.62023 0,0.0752 -1.813253,1.70958 -1.896716,1.70958 -0.03146,0 -0.442392,-0.18836 -0.913178,-0.41859 z"
     id="path880" />
  <path
     style="font-variation-settings:normal;opacity:1;vector-effect:none;fill:#ff9955;fill-opacity:1;stroke-linecap:butt;stroke-linejoin:miter;stroke-miterlimit:4;stroke-dasharray:none;stroke-dashoffset:0;stroke-opacity:1;stop-color:#000000;stop-opacity:1"
     d="m 31.351808,230.78222 c -1.033036,-0.53632 -1.741862,-1.16416 -4.946652,-4.38146 l -2.411597,-2.421 1.076088,-1.08575 c 1.352475,-1.36462 2.216787,-2.12022 2.38637,-2.08623 0.07232,0.0145 0.557319,0.78242 1.077782,1.70651 1.710588,3.03716 2.43737,4.03787 4.462095,6.1439 0.886677,0.92228 1.040922,1.12116 0.93954,1.21137 -1.176611,1.04701 -1.542257,1.34658 -1.640541,1.34409 -0.06481,-0.002 -0.489194,-0.19579 -0.943085,-0.43143 z"
     id="path882" />
  <path
     style="font-variation-settings:normal;opacity:1;vector-effect:none;fill:#ff9955;fill-opacity:1;stroke-linecap:butt;stroke-linejoin:miter;stroke-miterlimit:4;stroke-dasharray:none;stroke-dashoffset:0;stroke-opacity:1;stop-color:#000000;stop-opacity:1"
     d="m 33.285963,228.17943 c -1.833643,-1.85432 -2.338166,-2.528 -3.823219,-5.10509 -1.04278,-1.80959 -1.378368,-2.48566 -1.378368,-2.77682 0,-0.17529 0.165193,-0.42378 0.617185,-0.92839 0.339452,-0.37898 0.639942,-0.6966 0.667755,-0.70582 0.02781,-0.009 0.321979,0.31757 0.653702,0.72622 0.741376,0.91331 2.296377,2.66798 4.517885,5.098 0.927173,1.0142 1.817634,1.99652 1.978802,2.18294 l 0.293033,0.33894 -1.153455,1.15583 c -0.6344,0.63571 -1.173918,1.15583 -1.198929,1.15583 -0.02501,0 -0.553487,-0.51374 -1.174391,-1.14164 z"
     id="path884" />
  <path
     style="font-variation-settings:normal;opacity:1;vector-effect:none;fill:#ff9955;fill-opacity:1;stroke-linecap:butt;stroke-linejoin:miter;stroke-miterlimit:4;stroke-dasharray:none;stroke-dashoffset:0;stroke-opacity:1;stop-color:#000000;stop-opacity:1"
     d="m 36.218329,225.42225 c -0.984961,-1.00861 -6.303488,-6.71497 -6.453063,-6.92363 -0.06523,-0.091 0.189105,-0.39427 1.075826,-1.28282 0.63869,-0.64001 1.188749,-1.16365 1.222352,-1.16365 0.0336,0 1.133942,1.03717 2.445196,2.30483 l 2.384098,2.30483 2.230282,0.76481 c 1.526771,0.52356 2.230282,0.80386 2.230282,0.88862 0,0.23333 -3.893018,4.07633 -4.129381,4.07633 -0.03245,0 -0.484967,-0.43619 -1.005592,-0.96932 z"
     id="path886" />
  <path
     style="font-variation-settings:normal;opacity:1;vector-effect:none;fill:#ff9955;fill-opacity:1;stroke-linecap:butt;stroke-linejoin:miter;stroke-miterlimit:4;stroke-dasharray:none;stroke-dashoffset:0;stroke-opacity:1;stop-color:#000000;stop-opacity:1"
     d="m 40.577846,221.3543 c -2.150813,-0.66847 -3.326508,-1.18244 -4.070302,-1.77937 -0.737096,-0.59156 -2.802769,-2.55698 -3.388028,-3.2236 -0.586239,-0.66773 -0.582213,-0.74162 0.07994,-1.46713 l 0.467473,-0.51221 1.15063,1.12501 c 2.347221,2.29495 3.760447,2.97197 7.655851,3.66764 1.618,0.28895 1.723237,0.31502 1.723237,0.4269 0,0.14486 -1.324146,1.47786 -1.718566,1.73004 -0.480807,0.30743 -0.988233,0.31616 -1.900232,0.0327 z"
     id="path888" />
  <path
     style="font-variation-settings:normal;opacity:1;vector-effect:none;fill:#ff9955;fill-opacity:1;stroke-linecap:butt;stroke-linejoin:miter;stroke-miterlimit:4;stroke-dasharray:none;stroke-dashoffset:0;stroke-opacity:1;stop-color:#000000;stop-opacity:1"
     d="m 42.932641,218.72146 c -1.919376,-0.29057 -3.654745,-0.77702 -4.767327,-1.33636 -0.850148,-0.4274 -2.018777,-1.29314 -2.84606,-2.10841 -0.79793,-0.78634 -1.082006,-1.25069 -0.989829,-1.61795 0.03204,-0.12767 0.603422,-0.77829 1.322725,-1.50618 l 1.266315,-1.28142 1.061537,1.20972 c 2.032364,2.31605 2.741928,2.77658 7.121341,4.62192 0.758224,0.31949 1.395879,0.59573 1.417011,0.61387 0.07291,0.0626 -1.238745,1.31834 -1.512875,1.44843 -0.346115,0.16424 -0.756931,0.15559 -2.072838,-0.0436 z"
     id="path890" />
  <path
     style="font-variation-settings:normal;opacity:1;vector-effect:none;fill:#ff9955;fill-opacity:1;stroke-linecap:butt;stroke-linejoin:miter;stroke-miterlimit:4;stroke-dasharray:none;stroke-dashoffset:0;stroke-opacity:1;stop-color:#000000;stop-opacity:1"
     d="m 45.575233,216.34767 c -1.825669,-0.757 -4.048814,-1.85615 -4.732622,-2.33986 -0.311482,-0.22034 -1.239617,-1.06928 -2.06252,-1.88655 l -1.496189,-1.48593 0.548408,-0.71282 c 0.716117,-0.93079 2.316657,-2.57454 2.505873,-2.57351 0.08144,4.4e-4 0.312677,0.22374 0.51387,0.49623 0.425371,0.57611 1.675045,2.04023 2.734139,3.20333 1.155864,1.26937 2.339664,2.1331 4.466195,3.25864 0.513252,0.27166 0.883159,0.52099 0.883159,0.59528 0,0.15122 -1.793787,2.0141 -1.930746,2.00512 -0.05173,-0.003 -0.695037,-0.25537 -1.429567,-0.55993 z"
     id="path892" />
  <path
     style="font-variation-settings:normal;opacity:1;vector-effect:none;fill:#ff9955;fill-opacity:1;stroke-linecap:butt;stroke-linejoin:miter;stroke-miterlimit:4;stroke-dasharray:none;stroke-dashoffset:0;stroke-opacity:1;stop-color:#000000;stop-opacity:1"
     d="m 46.76447,212.91938 c -1.320723,-0.75265 -2.732773,-2.01968 -4.286556,-3.84634 -0.709309,-0.83388 -1.595997,-2.01824 -1.680256,-2.24435 -0.05859,-0.15722 0.413151,-0.78646 1.714302,-2.28666 0.735046,-0.84749 1.038859,-1.14274 1.087134,-1.05648 0.03685,0.0659 0.463231,1.14641 0.947515,2.40126 1.010221,2.61761 1.577953,3.98743 2.409716,5.81416 0.323664,0.71084 0.600907,1.34575 0.616096,1.41091 0.05352,0.22958 -0.154087,0.18012 -0.807951,-0.1925 z"
     id="path894" />
  <path
     style="font-variation-settings:normal;opacity:1;vector-effect:none;fill:#ff9955;fill-opacity:1;stroke-linecap:butt;stroke-linejoin:miter;stroke-miterlimit:4;stroke-dasharray:none;stroke-dashoffset:0;stroke-opacity:1;stop-color:#000000;stop-opacity:1"
     d="m 49.08855,214.19912 c -0.380297,-0.25842 -0.700759,-0.70899 -1.163965,-1.63653 -1.314715,-2.63263 -3.814103,-9.01687 -3.814103,-9.74245 0,-0.14672 0.193719,-0.41451 0.624673,-0.86352 l 0.624674,-0.65084 0.377017,1.01875 c 2.162976,5.84464 3.646286,8.45642 5.490119,9.66688 0.356761,0.23421 0.648817,0.45206 0.649013,0.48412 3.71e-4,0.0611 -2.347572,1.93875 -2.425,1.93925 -0.02454,1.7e-4 -0.187634,-0.0969 -0.362428,-0.21566 z"
     id="path896" />
  <path
     style="font-variation-settings:normal;opacity:1;vector-effect:none;fill:#ff9955;fill-opacity:1;stroke-linecap:butt;stroke-linejoin:miter;stroke-miterlimit:4;stroke-dasharray:none;stroke-dashoffset:0;stroke-opacity:1;stop-color:#000000;stop-opacity:1"
     d="m 51.642876,211.63761 c -1.141917,-0.75073 -2.263566,-2.20984 -3.252553,-4.23112 -0.848175,-1.73349 -2.33373,-5.5395 -2.49556,-6.39364 -0.158633,-0.83727 0.38852,-0.47663 2.097678,1.38264 3.076219,3.34641 4.046801,4.65685 4.842533,6.5382 0.424219,1.00298 0.604552,1.70323 0.505631,1.96341 -0.105445,0.27734 -0.915198,1.01928 -1.112445,1.01928 -0.08868,0 -0.352062,-0.12545 -0.585284,-0.27877 z"
     id="path898" />
  <path
     style="font-variation-settings:normal;opacity:1;vector-effect:none;fill:#ff9955;fill-opacity:1;stroke-linecap:butt;stroke-linejoin:miter;stroke-miterlimit:4;stroke-dasharray:none;stroke-dashoffset:0;stroke-opacity:1;stop-color:#000000;stop-opacity:1"
     d="m 53.811698,210.11994 c -0.02488,-0.0403 -0.197935,-0.50669 -0.384558,-1.03651 -0.62506,-1.77452 -1.413568,-2.90084 -4.742388,-6.7741 -1.14038,-1.32689 -2.073904,-2.43763 -2.074497,-2.46831 -0.0019,-0.0975 1.345615,-1.73842 1.74876,-2.12954 l 0.387481,-0.37592 0.12645,0.2036 c 0.06955,0.11198 0.350795,0.59132 0.624994,1.06521 1.541969,2.66494 3.261889,4.97888 5.891953,7.92689 l 1.306776,1.46475 -0.792995,0.76502 c -0.76226,0.73536 -1.704131,1.43211 -1.935933,1.43211 -0.06094,0 -0.131159,-0.0329 -0.156043,-0.0732 z"
     id="path900" />
  <path
     style="font-variation-settings:normal;opacity:1;vector-effect:none;fill:#ff9955;fill-opacity:1;stroke-linecap:butt;stroke-linejoin:miter;stroke-miterlimit:4;stroke-dasharray:none;stroke-dashoffset:0;stroke-opacity:1;stop-color:#000000;stop-opacity:1"
     d="m 56.636928,207.15594 c -0.531243,-0.55974 -2.48874,-2.82901 -3.423564,-3.96885 -1.248135,-1.52186 -2.834117,-3.96797 -3.684686,-5.683 l -0.368581,-0.74319 0.210831,-0.29409 c 0.115958,-0.16175 0.566155,-0.72682 1.000438,-1.25572 l 0.789607,-0.96162 0.253947,0.45421 c 0.139671,0.24982 0.691715,1.30722 1.226764,2.34978 1.235096,2.40662 2.054345,3.877 2.61522,4.69378 0.243291,0.35429 1.169338,1.39351 2.057882,2.30938 1.120524,1.15498 1.614533,1.72322 1.612266,1.85453 -0.0022,0.12723 -0.150523,0.29579 -0.45235,0.51407 -0.246994,0.17862 -0.65409,0.49849 -0.904658,0.71083 -0.250567,0.21234 -0.484825,0.38607 -0.520572,0.38607 -0.03575,0 -0.221392,-0.16478 -0.412544,-0.36618 z"
     id="path902" />
  <path
     style="font-variation-settings:normal;opacity:1;vector-effect:none;fill:#ff9955;fill-opacity:1;stroke-linecap:butt;stroke-linejoin:miter;stroke-miterlimit:4;stroke-dasharray:none;stroke-dashoffset:0;stroke-opacity:1;stop-color:#000000;stop-opacity:1"
     d="m 58.32163,204.26951 c -0.581979,-0.55682 -1.431861,-1.42705 -1.888626,-1.93385 -0.734545,-0.81501 -0.941098,-1.12357 -1.788033,-2.67102 -2.139377,-3.9089 -2.779922,-5.26908 -2.779922,-5.9031 0,-0.57496 0.588284,-1.29724 0.977095,-1.19965 0.134818,0.0338 0.679873,0.59847 1.48671,1.54012 1.469919,1.71552 3.979151,4.25205 5.290762,5.34833 0.497585,0.41589 1.534758,1.18226 2.30483,1.70303 0.770071,0.52078 1.40013,0.96109 1.40013,0.97846 0,0.0359 -2.677657,2.34527 -3.283025,2.83152 -0.218131,0.17521 -0.456266,0.31857 -0.52919,0.31857 -0.07292,0 -0.608752,-0.45558 -1.190731,-1.01241 z"
     id="path904" />
  <path
     style="font-variation-settings:normal;opacity:1;vector-effect:none;fill:#ff9955;fill-opacity:1;stroke-linecap:butt;stroke-linejoin:miter;stroke-miterlimit:4;stroke-dasharray:none;stroke-dashoffset:0;stroke-opacity:1;stop-color:#000000;stop-opacity:1"
     d="m 71.876332,186.50104 c -0.481834,-0.21872 -1.393093,-0.81686 -2.089617,-1.37161 -0.692703,-0.55171 -2.418941,-2.25568 -2.36825,-2.3377 0.09917,-0.16046 1.133339,-0.35967 1.589086,-0.30611 0.872837,0.10259 1.964293,0.72819 2.416103,1.38488 0.500785,0.72786 1.165362,2.80523 0.895297,2.79856 -0.04214,-0.001 -0.241321,-0.0767 -0.442619,-0.16802 z"
     id="path906" />
  <path
     style="font-variation-settings:normal;opacity:1;vector-effect:none;fill:#ff9955;fill-opacity:1;stroke-linecap:butt;stroke-linejoin:miter;stroke-miterlimit:4;stroke-dasharray:none;stroke-dashoffset:0;stroke-opacity:1;stop-color:#000000;stop-opacity:1"
     d="m 70.038535,188.98365 c -0.944943,-0.47296 -1.718894,-1.24558 -3.085653,-3.08033 -1.493183,-2.00447 -1.489666,-1.99409 -0.81064,-2.39203 0.36692,-0.21503 0.397715,-0.21931 0.65766,-0.0914 0.149993,0.0738 0.821596,0.59521 1.49245,1.15867 0.670855,0.56346 1.553607,1.25506 1.961671,1.53689 1.844307,1.27376 1.796927,1.23236 1.739388,1.52006 -0.09233,0.46162 -0.943093,1.70645 -1.166263,1.70645 -0.03998,0 -0.39486,-0.16124 -0.788613,-0.35832 z"
     id="path908" />
  <path
     style="font-variation-settings:normal;opacity:1;vector-effect:none;fill:#ff9955;fill-opacity:1;stroke-linecap:butt;stroke-linejoin:miter;stroke-miterlimit:4;stroke-dasharray:none;stroke-dashoffset:0;stroke-opacity:1;stop-color:#000000;stop-opacity:1"
     d="m 69.312825,195.02025 c -0.284334,-0.0404 -0.798495,-0.13539 -1.142579,-0.21098 -0.523087,-0.11491 -0.644786,-0.17526 -0.74264,-0.36829 -0.06437,-0.12698 -0.354882,-0.9591 -0.645587,-1.84916 -0.950826,-2.91118 -1.362551,-3.5262 -4.890984,-7.30594 -1.14003,-1.22123 -1.741735,-1.92779 -1.700774,-1.99715 0.286759,-0.48557 1.392828,-1.70132 1.547831,-1.70132 0.170702,0 1.855473,1.23871 2.505608,1.84222 0.339657,0.3153 1.153886,1.2795 1.809399,2.14267 1.37567,1.81146 2.788184,3.28849 3.772271,3.94457 0.865099,0.57674 1.288602,1.02866 2.465575,2.63099 l 0.945207,1.2868 -0.324589,0.29003 c -1.448631,1.2944 -2.059979,1.51449 -3.598738,1.29556 z"
     id="path910" />
  <path
     style="font-variation-settings:normal;opacity:1;vector-effect:none;fill:#ff9955;fill-opacity:1;stroke-linecap:butt;stroke-linejoin:miter;stroke-miterlimit:4;stroke-dasharray:none;stroke-dashoffset:0;stroke-opacity:1;stop-color:#000000;stop-opacity:1"
     d="m 65.763817,193.74011 c -0.971102,-0.6564 -2.008581,-1.4867 -3.607462,-2.88707 -1.424394,-1.24755 -3.782534,-3.51573 -4.189866,-4.03003 -0.330225,-0.41694 -0.34703,-0.3803 0.872484,-1.90241 l 0.902053,-1.12588 1.459368,1.50274 c 3.29031,3.3881 4.179616,4.67207 5.048042,7.2883 0.390197,1.17552 0.497892,1.66744 0.365048,1.66744 -0.04982,0 -0.43217,-0.23089 -0.849667,-0.51309 z"
     id="path912" />
  <path
     style="font-variation-settings:normal;opacity:1;vector-effect:none;fill:#ff9955;fill-opacity:1;stroke-linecap:butt;stroke-linejoin:miter;stroke-miterlimit:4;stroke-dasharray:none;stroke-dashoffset:0;stroke-opacity:1;stop-color:#000000;stop-opacity:1"
     d="m 65.12681,198.9705 c -0.311969,-0.39093 -0.81416,-1.04034 -1.115981,-1.44315 -1.35825,-1.81271 -3.290841,-4.14606 -6.065883,-7.32376 -0.88976,-1.01886 -1.636954,-1.90038 -1.660431,-1.95893 -0.02348,-0.0585 0.193279,-0.37993 0.481679,-0.71418 l 0.524365,-0.60774 1.794508,1.70505 c 3.478652,3.30523 4.829001,4.48276 6.170951,5.38118 1.388327,0.92948 2.258132,1.2768 3.742035,1.49424 1.034147,0.15154 1.219471,0.1965 1.219471,0.29588 0,0.0382 -0.378035,0.4394 -0.840078,0.89147 -1.397777,1.36761 -3.335002,2.9909 -3.569172,2.99077 -0.06284,-3e-5 -0.369495,-0.31991 -0.681464,-0.71083 z"
     id="path914" />
  <path
     style="font-variation-settings:normal;opacity:1;vector-effect:none;fill:#ff9955;fill-opacity:1;stroke-linecap:butt;stroke-linejoin:miter;stroke-miterlimit:4;stroke-dasharray:none;stroke-dashoffset:0;stroke-opacity:1;stop-color:#000000;stop-opacity:1"
     d="m 62.974859,201.20844 c -1.710482,-1.03018 -3.25646,-2.30464 -5.500299,-4.53431 -2.402273,-2.3871 -4.230921,-4.47035 -4.230921,-4.81998 0,-0.27709 2.437861,-3.02915 2.683311,-3.02915 0.07781,0 0.359529,0.23553 0.626047,0.5234 2.355378,2.54409 8.658435,10.41568 8.665405,10.82182 0.0053,0.30728 -1.176727,1.32057 -1.540445,1.32057 -0.128851,0 -0.445245,-0.12706 -0.703098,-0.28235 z"
     id="path916" />
  <path
     style="font-variation-settings:normal;opacity:1;vector-effect:none;fill:#000000;fill-opacity:1;stroke-width:0.0069214;stroke-linecap:butt;stroke-linejoin:miter;stroke-miterlimit:4;stroke-dasharray:none;stroke-dashoffset:0;stroke-opacity:1;stop-color:#000000;stop-opacity:1"
     d="m 18.426025,238.06191 c -0.09566,-0.0251 -0.208756,-0.0779 -0.251318,-0.11737 -0.06581,-0.061 -0.07735,-0.0981 -0.07711,-0.24834 3.23e-4,-0.20652 0.126451,-0.7906 0.204572,-0.94733 0.07509,-0.15065 0.130765,-0.17819 0.255655,-0.12646 0.123497,0.0512 0.797277,0.72054 0.935848,0.92974 0.172379,0.26025 0.09298,0.43936 -0.235181,0.53051 -0.159103,0.0442 -0.629735,0.0325 -0.832466,-0.0207 z"
     id="path920" />
  <path
     style="font-variation-settings:normal;opacity:1;vector-effect:none;fill:#000000;fill-opacity:1;stroke-width:0.0069214;stroke-linecap:butt;stroke-linejoin:miter;stroke-miterlimit:4;stroke-dasharray:none;stroke-dashoffset:0;stroke-opacity:1;stop-color:#000000;stop-opacity:1"
     d="m 14.348888,239.5359 c -0.404282,-0.11359 -0.673638,-0.46527 -0.828849,-1.08217 -0.05808,-0.23085 -0.06622,-0.3442 -0.06492,-0.90368 0.002,-0.86769 0.09357,-1.26365 0.360916,-1.561 0.312219,-0.34726 0.926733,-0.47582 1.281281,-0.26804 0.615547,0.36074 0.912571,1.72175 0.606356,2.77843 -0.09553,0.32967 -0.197514,0.52167 -0.387909,0.73033 -0.251685,0.27584 -0.638643,0.39835 -0.966876,0.30613 z"
     id="path922" />
  <path
     style="font-variation-settings:normal;opacity:1;vector-effect:none;fill:#000000;fill-opacity:1;stroke-width:0.0069214;stroke-linecap:butt;stroke-linejoin:miter;stroke-miterlimit:4;stroke-dasharray:none;stroke-dashoffset:0;stroke-opacity:1;stop-color:#000000;stop-opacity:1"
     d="m 18.41718,242.95458 c -0.584101,-0.0588 -1.065386,-0.24139 -1.370218,-0.51999 -0.234101,-0.21396 -0.331311,-0.40916 -0.331388,-0.66544 -1.52e-4,-0.5035 0.471984,-0.93305 1.278325,-1.16302 0.278207,-0.0793 0.831563,-0.0927 1.165259,-0.0282 0.740888,0.14333 1.39823,0.47184 1.51808,0.75868 0.20199,0.48343 -0.236588,1.31366 -0.789814,1.49513 -0.360789,0.11834 -0.99114,0.17099 -1.470244,0.12281 z"
     id="path924" />
  <path
     style="font-variation-settings:normal;opacity:1;vector-effect:none;fill:#ffe6d5;fill-opacity:1;stroke-linecap:butt;stroke-linejoin:miter;stroke-miterlimit:4;stroke-dasharray:none;stroke-dashoffset:0;stroke-opacity:1;stop-color:#000000;stop-opacity:1"
     d="m 83.223006,202.80437 c -0.363592,-0.35829 -0.661077,-0.67353 -0.661077,-0.70054 0,-0.027 0.334367,-0.21525 0.743037,-0.41832 0.771301,-0.38328 1.02682,-0.54993 1.846303,-1.20418 1.209886,-0.96593 2.749199,-2.48162 2.989008,-2.94314 0.07353,-0.14151 0.07046,-0.17169 -0.02639,-0.25934 -0.118261,-0.10703 -0.730306,-0.26826 -1.652714,-0.4354 -1.337854,-0.2424 -2.763786,-0.88143 -4.386646,-1.96585 -2.933861,-1.96045 -4.117916,-3.5699 -4.244768,-5.76977 -0.140276,-2.43267 1.426399,-4.10492 4.004016,-4.27384 0.706191,-0.0463 1.588545,0.0536 2.303017,0.26061 1.340388,0.38843 2.994563,1.18167 2.994563,1.43601 0,0.0989 -0.278407,0.15633 -1.084513,0.22377 -1.604893,0.13426 -2.381718,0.56558 -3.086503,1.71373 -0.35278,0.5747 -0.572683,1.26281 -0.620972,1.94312 -0.07046,0.99262 0.22929,1.59106 1.380152,2.75539 1.098309,1.11117 2.363965,2.01568 4.620882,3.30237 1.100815,0.62758 1.265906,0.78036 1.32117,1.22268 0.07662,0.61323 -0.165751,1.61799 -0.525545,2.17869 -0.228344,0.35584 -0.587491,0.58378 -2.43608,1.54609 -1.937067,1.00838 -2.169741,1.1746 -2.433991,1.73878 -0.09903,0.21144 -0.176534,0.30058 -0.261327,0.30058 -0.07137,0 -0.390202,-0.26573 -0.781619,-0.65144 z"
     id="path926" />
  <path
     style="font-variation-settings:normal;opacity:1;vector-effect:none;fill:#ffe6d5;fill-opacity:1;stroke-linecap:butt;stroke-linejoin:miter;stroke-miterlimit:4;stroke-dasharray:none;stroke-dashoffset:0;stroke-opacity:1;stop-color:#000000;stop-opacity:1"
     d="m 91.365181,182.24688 c -1.272766,-1.34178 -1.675233,-3.95587 -0.697485,-4.53028 0.27733,-0.16293 0.978446,-0.15556 1.733723,0.0182 0.715073,0.16452 2.796973,0.77962 3.001513,0.88679 l 0.159142,0.0834 -0.179701,0.0929 c -0.09884,0.0511 -0.576942,0.19464 -1.06246,0.31896 -0.978542,0.25057 -1.645938,0.52885 -1.909387,0.79615 -0.370578,0.37599 -0.454081,0.69817 -0.573313,2.212 l -0.04505,0.57199 z"
     id="path928" />
  <path
     style="font-variation-settings:normal;opacity:1;vector-effect:none;fill:#ffe6d5;fill-opacity:1;stroke-linecap:butt;stroke-linejoin:miter;stroke-miterlimit:4;stroke-dasharray:none;stroke-dashoffset:0;stroke-opacity:1;stop-color:#000000;stop-opacity:1"
     d="m 76.782861,179.89282 c -0.03532,-0.15916 -0.08188,-0.44018 -0.103471,-0.62448 -0.05339,-0.45572 -0.216264,-0.80573 -0.453575,-0.97471 -0.108892,-0.0775 -0.419848,-0.19263 -0.691014,-0.25578 -0.796091,-0.18537 -0.843865,-0.3015 -0.503688,-1.22443 0.413275,-1.12125 0.499682,-1.6408 0.559382,-3.36348 0.02323,-0.67018 0.05912,-1.26473 0.07976,-1.32122 0.03371,-0.0922 0.168439,-0.0696 1.322211,0.22238 1.332595,0.33721 1.753694,0.50348 2.218548,0.876 0.390162,0.31265 1.551717,1.44905 2.270148,2.22098 l 0.612193,0.65778 0.40821,2.03818 0.408211,2.03818 -0.21962,-0.001 c -0.120791,-6.5e-4 -0.576035,-0.0415 -1.011653,-0.0908 -1.018467,-0.1152 -2.368224,-0.11516 -3.2923,1.2e-4 -0.400836,0.05 -0.911119,0.0911 -1.133963,0.0914 l -0.405172,4.6e-4 z"
     id="path930" />
  <path
     style="font-variation-settings:normal;opacity:1;vector-effect:none;fill:#ffe6d5;fill-opacity:1;stroke-linecap:butt;stroke-linejoin:miter;stroke-miterlimit:4;stroke-dasharray:none;stroke-dashoffset:0;stroke-opacity:1;stop-color:#000000;stop-opacity:1"
     d="m 65.411364,176.85271 c -1.621503,-0.34417 -2.888711,-1.30121 -4.377501,-3.30606 -1.429197,-1.9246 -2.329191,-3.9581 -2.630604,-5.94376 -0.117963,-0.77711 -0.239668,-1.12894 -0.39053,-1.12894 -0.418954,0 -2.702259,2.2785 -3.752673,3.74478 -0.166491,0.2324 -0.468756,0.74696 -0.671699,1.14346 l -0.368987,0.72091 -0.68198,-0.69792 c -0.390944,-0.40008 -0.68198,-0.74799 -0.68198,-0.81524 0,-0.0797 0.08293,-0.15337 0.258934,-0.22989 0.608537,-0.26458 0.785351,-0.49443 1.705951,-2.21764 0.928752,-1.73847 1.322917,-2.37544 1.590441,-2.57018 0.498607,-0.36295 1.599236,-0.64035 2.251083,-0.56737 0.484895,0.0543 0.604351,0.19201 1.406001,1.62079 1.237112,2.20491 2.270587,3.64401 3.340057,4.65097 0.95873,0.90269 1.468247,1.15276 2.333305,1.14516 0.669829,-0.006 1.186854,-0.13245 1.827769,-0.44747 1.237694,-0.60834 1.806004,-1.42086 1.979485,-2.83009 0.197086,-1.60097 0.196883,-1.60033 0.428282,-1.36068 0.369896,0.38309 1.226949,2.56727 1.406512,3.58446 0.116084,0.6576 0.101921,1.81507 -0.02945,2.40657 -0.05954,0.26807 -0.233292,0.74786 -0.386123,1.06619 -0.508822,1.05985 -1.443483,1.80636 -2.557049,2.04231 -0.526335,0.11153 -1.447475,0.10675 -1.999248,-0.0104 z"
     id="path932" />
  <path
     style="font-variation-settings:normal;opacity:1;vector-effect:none;fill:#ffe6d5;fill-opacity:1;stroke-linecap:butt;stroke-linejoin:miter;stroke-miterlimit:4;stroke-dasharray:none;stroke-dashoffset:0;stroke-opacity:1;stop-color:#000000;stop-opacity:1"
     d="m 75.738258,164.72584 c -0.924107,-0.15534 -1.923905,-0.63147 -2.557169,-1.21777 -0.235503,-0.21804 -0.428187,-0.42129 -0.428187,-0.45166 0,-0.0304 0.267312,-0.0561 0.594025,-0.0571 0.769977,-0.002 1.420407,-0.0889 1.740107,-0.23118 0.55558,-0.24735 0.827753,-0.69767 1.174516,-1.9433 0.307667,-1.10518 0.423162,-1.44871 0.487058,-1.44871 0.148737,0 0.937959,2.80114 1.067001,3.78705 0.117764,0.89973 -0.08508,1.31424 -0.738021,1.50814 -0.300745,0.0893 -0.970254,0.11657 -1.33933,0.0545 z"
     id="path934" />
</svg>
