<?xml version="1.0" encoding="UTF-8" standalone="no"?>
<svg
   xmlns:dc="http://purl.org/dc/elements/1.1/"
   xmlns:cc="http://creativecommons.org/ns#"
   xmlns:rdf="http://www.w3.org/1999/02/22-rdf-syntax-ns#"
   xmlns:svg="http://www.w3.org/2000/svg"
   xmlns="http://www.w3.org/2000/svg"
   xmlns:sodipodi="http://sodipodi.sourceforge.net/DTD/sodipodi-0.dtd"
   xmlns:inkscape="http://www.inkscape.org/namespaces/inkscape"
   cursor="default"
   viewBox="0 0 256 256"
   version="1.1"
   id="svg50"
   sodipodi:docname="bladeofmagnus.svg"
   inkscape:version="1.0.2-2 (e86c870879, 2021-01-15)">
  <metadata
     id="metadata56">
    <rdf:RDF>
      <cc:Work
         rdf:about="">
        <dc:format>image/svg+xml</dc:format>
        <dc:type
           rdf:resource="http://purl.org/dc/dcmitype/StillImage" />
      </cc:Work>
    </rdf:RDF>
  </metadata>
  <defs
     id="defs54" />
  <sodipodi:namedview
     pagecolor="#ffffff"
     bordercolor="#666666"
     borderopacity="1"
     objecttolerance="10"
     gridtolerance="10"
     guidetolerance="10"
     inkscape:pageopacity="0"
     inkscape:pageshadow="2"
     inkscape:window-width="1920"
     inkscape:window-height="1017"
     id="namedview52"
     showgrid="false"
     inkscape:zoom="4.1033632"
     inkscape:cx="155.5483"
     inkscape:cy="139.67179"
     inkscape:window-x="-8"
     inkscape:window-y="-8"
     inkscape:window-maximized="1"
     inkscape:current-layer="svg50"
     inkscape:document-rotation="0" />
  <path
     style="fill:#000000;stroke-width:0.214578"
     d="m 4.2438099,249.74974 c 1.8434891,-2.28385 2.4249277,-3.40671 3.0689849,-5.92686 l 0.5346579,-2.09208 2.8267313,-2.47195 c 1.554958,-1.35927 3.065373,-2.5863 3.356599,-2.72657 0.684853,-0.32987 1.204148,-0.0499 1.192658,0.64325 -0.01239,0.77885 0.35366,0.71803 1.982062,-0.32876 l 1.416645,-0.91065 0.215268,-1.41203 0.215251,-1.41205 1.380707,-1.23284 c 1.324806,-1.18307 1.395927,-1.21976 1.759565,-0.90656 l 0.378873,0.32634 3.008689,-2.80916 c 2.885632,-2.69417 23.327315,-21.36965 81.631889,-74.57864 14.82275,-13.52728 27.87515,-25.48116 29.00538,-26.56414 2.03935,-1.95412 2.05241,-1.97197 1.71608,-2.35621 -0.3376,-0.38572 -0.33275,-0.39243 1.48876,-1.98671 l 1.82757,-1.59959 1.73911,0.40266 1.73913,0.40268 -0.65075,-1.28398 c -0.3579,-0.70619 -0.79291,-1.84652 -0.96667,-2.53403 -0.28716,-1.13621 -0.26886,-1.2758 0.20097,-1.53291 8.33234,-4.56008 21.24464,-14.50724 24.49552,-18.870446 0.49476,-0.664052 1.05061,-1.410059 1.23521,-1.657784 0.28389,-0.380851 0.49728,-0.406152 1.38217,-0.163943 l 1.04648,0.286507 1.78674,-1.754187 c 2.37968,-2.336218 4.00898,-4.205057 4.28225,-4.911809 0.39042,-1.009752 0.34253,-2.571682 -0.10068,-3.281568 -0.23017,-0.368776 -0.80699,-0.939103 -1.28173,-1.267458 -0.7631,-0.527843 -0.85146,-0.64898 -0.76268,-1.045358 0.0792,-0.353292 -0.87034,-2.018768 -4.47811,-7.85464 -2.51824,-4.07347 -4.57243,-7.498987 -4.56489,-7.612269 0.008,-0.11325 0.13482,-0.192238 0.28286,-0.175504 0.14808,0.01738 2.80724,2.685358 5.90925,5.930174 7.0156,7.338597 7.22369,7.532926 7.77146,7.257738 0.85286,-0.428442 4.88907,-1.367139 6.71737,-1.562227 1.11561,-0.119071 2.78397,-0.05584 4.08352,0.15479 3.8847,0.629491 9.33604,-0.05699 14.32886,-1.804371 l 2.80821,-0.982825 -0.006,-0.705416 c -0.005,-0.590603 0.22013,-0.97176 1.38379,-2.341868 1.61754,-1.904473 1.86564,-2.616852 1.46084,-4.19458 -0.54629,-2.129053 -2.60638,-4.866634 -4.64974,-6.178817 -0.81915,-0.52602 -1.33546,-1.684136 -2.07807,-4.660804 -0.56875,-2.279858 -0.60948,-2.364385 -1.57031,-3.259071 -1.0348,-0.963605 -1.7917,-2.25088 -2.63167,-4.476232 -0.42675,-1.130455 -0.42497,-1.141719 0.53893,-3.437719 1.09451,-2.607075 1.13874,-3.429465 0.42414,-7.885173 -0.2156,-1.344299 -0.29078,-2.485908 -0.16701,-2.536875 0.1244,-0.05145 0.44982,0.208692 0.72804,0.581683 1.87617,2.515083 3.55721,4.634262 3.82625,4.823488 0.41398,0.291183 0.8985,-0.14885 2.22513,-2.0207 1.6712,-2.358174 2.09618,-3.622493 2.3095,-6.870727 0.20338,-3.096367 0.0159,-6.949671 -0.39903,-8.202005 -0.19137,-0.577568 -0.60893,-1.131625 -1.64725,-2.185727 -1.74943,-1.775911 -2.50361,-3.147391 -3.27039,-5.946558 -0.6806,-2.484612 -0.64406,-4.159628 0.13535,-6.200097 0.64394,-1.686 0.88146,-3.5553174 0.76566,-6.0257028 -0.0443,-0.9460942 -0.004,-1.7870733 0.0893,-1.8688444 0.39075,-0.3420102 3.11912,4.1489447 3.35995,5.5305757 0.0743,0.4261436 -0.0437,1.4599015 -0.26223,2.2972355 -0.2185,0.837334 -0.35704,1.810307 -0.30784,2.162138 0.1016,0.726833 1.08128,2.1862 1.80347,2.686556 0.45795,0.317249 0.51719,0.295976 1.10416,-0.396707 l 0.62028,-0.731955 0.87374,1.176171 c 0.7079,0.952951 1.01142,1.668738 1.5992,3.771405 0.60483,2.163611 0.85398,2.74205 1.49821,3.478105 0.64189,0.733375 0.90472,0.891709 1.55272,0.934754 1.0876,0.07232 1.72269,-0.693413 3.05573,-3.684396 1.06385,-2.38704 1.33555,-2.839721 1.55437,-2.589677 0.15219,0.173841 1.15441,7.860217 1.28058,9.820909 0.11944,1.856349 -0.0848,2.260586 -1.24951,2.479793 -0.48169,0.09067 -0.96431,0.310901 -1.0725,0.489571 -0.10816,0.178702 0.0388,1.602934 0.32665,3.165051 0.28782,1.562132 0.46592,3.074014 0.39574,3.359734 -0.22552,0.918398 -1.17457,1.544678 -2.19796,1.450462 -0.8105,-0.07453 -0.98115,-0.0073 -1.54776,0.610444 -1.4134,1.54092 -1.01173,2.808002 1.25077,3.945531 4.20735,2.115365 6.66723,5.899922 6.60917,10.168284 -0.009,0.727155 -0.30485,2.332763 -0.65542,3.568059 -0.50272,1.771387 -0.56785,2.325531 -0.30814,2.622268 0.18114,0.206939 0.35571,0.35314 0.38781,0.325054 0.0322,-0.02817 0.39922,-0.737704 0.81567,-1.576739 1.83891,-3.705064 2.56884,-7.122523 2.39808,-11.227651 -0.0624,-1.49819 -0.16347,-2.940657 -0.22481,-3.205479 -0.0614,-0.264823 -0.0236,-0.559205 0.0838,-0.654173 0.35842,-0.317987 21.14972,-10.43517 21.48876,-10.457379 0.18386,-0.01213 0.35057,0.07651 0.37063,0.196932 0.0983,0.589395 -5.67988,17.716381 -7.67045,22.73551 -1.69713,4.279275 -4.58238,9.737217 -6.89933,13.051243 -2.33136,3.334631 -3.87385,4.992934 -7.93352,8.529138 -3.52609,3.071255 -4.24473,3.614048 -7.81235,5.898242 -6.42332,4.112624 -10.28783,6.20409 -15.48014,8.377829 -3.68266,1.541737 -9.49586,3.492234 -9.85051,3.305141 -0.1423,-0.075 -0.28593,-0.542717 -0.31951,-1.039175 -0.24435,-3.621457 -2.98581,-5.317871 -6.24533,-3.864619 -0.73918,0.329558 -1.36077,0.613936 -1.38132,0.631924 -0.0207,0.01805 0.0572,0.848269 0.17259,1.84505 0.11543,0.996813 0.12686,1.885104 0.0254,1.974004 -0.1016,0.08885 -0.87588,-0.131583 -1.72072,-0.490097 -1.86209,-0.790019 -1.95772,-0.732353 -2.99445,1.805911 -0.58767,1.438835 -0.77488,2.346291 -0.86144,4.175898 -0.12835,2.71417 -0.36348,3.06454 -2.19995,3.27915 -1.78427,0.20851 -5.17205,1.256 -7.46505,2.30815 -2.99915,1.37621 -7.41085,3.93796 -9.37322,5.44277 -3.63049,2.78398 -7.18811,7.78859 -10.18655,14.32979 l -0.55918,1.21987 -0.75067,-0.17818 c -0.82081,-0.19483 -2.83876,-1.28714 -3.25368,-1.76118 -0.19641,-0.22441 -0.39364,-0.18915 -0.80139,0.14323 -0.2971,0.24293 -1.52595,1.22138 -2.72983,2.17544 -2.13899,1.69482 -2.19781,1.72687 -2.57787,1.39936 l -0.38892,-0.33516 -3.16365,2.95526 c -1.73999,1.62539 -26.55915,24.38719 -55.153732,50.58173 -28.594573,26.19451 -53.130777,48.70564 -54.524874,50.0247 -2.317693,2.1928 -2.51257,2.42365 -2.275812,2.69416 0.305411,0.34893 -0.03452,0.76545 -2.831433,3.46575 l -1.864881,1.80078 -0.529249,-0.23907 c -0.592019,-0.26741 -0.495815,-0.30189 -3.309541,1.18533 -1.125925,0.59512 -3.13112,1.44324 -4.455973,1.88474 -1.324869,0.44146 -2.407374,0.8342 -2.405566,0.87271 0.01989,0.42668 0.325067,1.17758 0.611587,1.50494 0.542245,0.61953 1.205272,0.36209 2.485865,-0.9652 1.323869,-1.37217 1.574202,-1.27453 1.329156,0.51835 -0.413367,3.0243 -2.141362,4.64709 -6.2094469,5.83147 -1.9088551,0.55574 -5.5817817,1.13968 -5.7761246,0.91832 -0.083883,-0.0954 0.4786968,-0.95527 1.2499845,-1.91078 z m 2.0869294,1.01957 c 3.9131657,-0.7159 6.9488057,-2.36047 7.6587317,-4.14915 0.169648,-0.42757 0.363899,-1.12863 0.431551,-1.55786 l 0.123052,-0.78044 -1.142673,1.00014 c -1.212422,1.06116 -2.053317,1.26675 -2.599555,0.63556 -0.403084,-0.46542 -0.8773145,-2.48339 -0.9312967,-3.96129 l -0.050446,-1.38165 -0.5204745,0.36681 c -0.6304179,0.44441 -1.2175484,1.74722 -1.6490614,3.65948 -0.3916602,1.73567 -1.0420014,2.9971 -2.5674331,4.9798 -0.639176,0.83081 -1.1419869,1.53362 -1.1173387,1.56178 0.024742,0.0282 1.0888927,-0.13978 2.3649851,-0.37323 z m 6.4752937,-8.28475 c 1.641653,-0.52678 6.069316,-2.564 6.619885,-3.04588 0.08205,-0.0719 -0.131731,-0.23766 -0.475121,-0.36836 -0.597835,-0.22749 -0.622151,-0.28357 -0.570305,-1.31506 l 0.05414,-1.07744 -0.943614,0.62785 c -1.142926,0.76046 -2.35076,1.19142 -2.585945,0.92271 -0.09492,-0.10851 -0.168664,-0.44343 -0.163681,-0.7442 0.0066,-0.43055 -0.05908,-0.53547 -0.311379,-0.49331 -0.437099,0.073 -3.14543,2.1438 -3.63031,2.7758 -0.415782,0.54207 -0.560969,3.01019 -0.190077,3.23098 0.115137,0.0684 1.10341,-0.16233 2.196244,-0.51301 z m 7.819779,-3.16933 c 0.276691,0.17709 0.526142,0.0382 1.560856,-0.86913 0.677338,-0.59399 1.68145,-1.55553 2.231398,-2.13676 l 0.99981,-1.05687 -1.73778,-1.98544 c -0.955773,-1.09201 -1.819744,-1.96917 -1.919932,-1.94925 -0.100275,0.0199 -0.635911,0.51338 -1.190507,1.09653 -0.988659,1.03962 -1.015971,1.10819 -1.396861,3.51652 l -0.388465,2.45626 0.756114,0.35872 c 0.415865,0.19729 0.904323,0.45358 1.085445,0.56951 z m 4.45318,-5.40981 c 0.306383,0.0906 7.770554,-6.6951 57.205635,-52.00687 31.269293,-28.66114 57.237563,-52.44176 57.707313,-52.84586 l 0.85405,-0.73467 -1.05993,-1.211 -1.05993,-1.21101 -1.41226,1.23724 c -0.77678,0.68042 -26.3304,24.00839 -56.785917,51.83978 -30.455506,27.83139 -55.900274,51.06381 -56.543899,51.62758 l -1.170205,1.02509 0.956354,1.08776 c 0.525869,0.5984 1.115002,1.13464 1.30877,1.19204 z m 115.947818,-106.24475 1.05687,0.99981 2.31792,-2.02876 2.31793,-2.02875 -0.7427,-0.84856 c -0.66956,-0.765 -0.93142,-0.89386 -2.65825,-1.30918 l -1.91552,-0.46062 -1.60615,1.32408 -1.60612,1.32406 0.8895,1.01403 c 0.48927,0.55769 1.36514,1.46392 1.94637,2.01386 z m 7.01861,-2.69098 c 1.44056,1.00407 3.13681,1.77345 3.26936,1.48294 0.0571,-0.12513 0.78277,-1.57774 1.61257,-3.22796 4.29081,-8.53303 8.01994,-12.22353 16.86985,-16.69504 3.11717,-1.57496 6.17644,-2.64916 8.7761,-3.08153 0.977,-0.16251 1.85696,-0.366 1.9555,-0.45223 0.0986,-0.0862 0.25069,-1.28526 0.33813,-2.66451 0.25961,-4.093998 1.56197,-6.55114 4.67009,-8.810569 2.30618,-1.6765 7.36349,-3.504131 12.08931,-4.368925 7.30288,-1.336406 9.34275,-1.861027 12.22723,-3.144649 2.15919,-0.960888 6.0999,-3.15793 6.19,-3.451094 0.14543,-0.472988 -0.39888,-3.290369 -0.70274,-3.637539 -0.36348,-0.415284 -1.31194,-0.392072 -1.81051,0.04435 -0.18116,0.158565 -1.30307,1.782128 -2.49316,3.607924 -1.19006,1.825813 -2.19723,3.348931 -2.23812,3.384736 -0.29529,0.258449 -0.27456,-0.473267 0.0534,-1.857555 0.40302,-1.705505 0.39165,-2.357756 -0.0603,-3.460415 -0.30826,-0.752079 -0.0765,-0.767997 -2.48963,0.171039 -4.67021,1.817285 -9.35301,2.472158 -14.86267,2.078517 -2.53302,-0.180953 -4.68895,-0.187032 -5.62668,-0.01587 -2.59647,0.473919 -5.70114,1.451313 -7.44841,2.344837 -0.92092,0.470942 -1.82454,0.927918 -2.00803,1.015489 -0.29216,0.139412 -0.21818,0.269243 0.59425,1.043557 0.51035,0.486371 1.04445,1.112221 1.18699,1.390667 0.40658,0.794317 0.30199,2.347476 -0.23353,3.46878 -0.54015,1.130952 -2.81494,3.649429 -5.11502,5.662991 l -1.39955,1.22518 -0.86635,-0.266331 c -0.71387,-0.219462 -0.92896,-0.18809 -1.22203,0.17794 -0.19562,0.244349 -0.93494,1.175265 -1.64294,2.068672 -3.00706,3.794698 -15.54805,13.492748 -22.48537,17.388108 -0.72657,0.40797 -1.42926,0.83649 -1.56155,0.95228 -0.2379,0.20822 0.21296,1.9813 0.80071,3.14883 0.16441,0.32662 0.7867,1.25767 1.38283,2.06905 0.59614,0.81134 1.0958,1.5104 1.11036,1.55343 0.0148,0.0432 0.52796,0.42776 1.1409,0.85498 z m -0.40383,-3.95595 c 0.13352,-0.74893 0.82619,-2.17042 1.51476,-3.10841 0.87497,-1.19188 1.65742,-1.59116 3.65768,-1.86606 2.47091,-0.33967 2.66083,-0.0792 1.64819,2.26055 -0.61913,1.43052 -0.83758,1.73757 -1.69606,2.38408 -1.01627,0.76524 -3.07717,1.50977 -4.00809,1.44785 -0.61261,-0.0407 -1.20311,-0.63205 -1.11648,-1.11801 z m 1.74004,0.52192 c 1.30964,-0.18669 3.17638,-1.0951 3.69504,-1.79811 0.52442,-0.71079 1.18679,-2.11578 1.32504,-2.81056 l 0.10566,-0.53089 -0.54768,0.0259 c -1.54437,0.0731 -3.03128,0.51012 -3.69121,1.08514 -1.15739,1.00873 -2.38492,3.53874 -1.95502,4.02991 0.0647,0.0737 0.54524,0.0733 1.06814,-10e-4 z m 17.04852,-16.03421 c 1.28258,-0.43237 2.29277,-1.01644 2.80645,-1.62261 0.50676,-0.59798 0.75951,-0.70391 2.17247,-0.91054 1.87728,-0.27445 2.44369,-0.681 3.43669,-2.46667 0.6539,-1.17592 0.70882,-1.228772 1.63183,-1.570049 0.52532,-0.194258 1.38582,-0.363229 1.9122,-0.375513 l 0.95709,-0.02227 0.12971,1.766262 c 0.0713,0.97143 0.0483,1.84343 -0.0507,1.93776 -0.23942,0.22667 -1.82888,-0.0243 -2.09755,-0.3313 -0.17706,-0.2023 -0.39666,-0.0473 -1.36997,0.96695 l -1.15912,1.20783 -1.47656,0.074 c -1.29889,0.0651 -1.61465,0.17388 -2.62422,0.90419 -1.2577,0.90981 -1.35406,0.94152 -3.06036,1.00698 -1.19039,0.0457 -1.95603,-0.31255 -1.20737,-0.56494 z m 3.89697,-0.70558 c 0.9956,-0.87138 1.39658,-1.00997 3.09458,-1.0694 l 1.16649,-0.0409 1.2777,-1.32106 1.27769,-1.32104 0.53756,0.41234 c 0.29562,0.22681 0.72451,0.40746 0.95307,0.40148 0.3462,-0.009 0.41471,-0.22264 0.41009,-1.27933 -0.003,-0.697595 -0.11802,-1.362406 -0.25545,-1.477345 -0.1374,-0.11494 -0.84977,-0.05234 -1.5829,0.138994 l -1.33297,0.347979 -0.5214,0.954322 c -0.28677,0.52488 -0.85698,1.30398 -1.26714,1.73134 -0.6667,0.69472 -0.92174,0.8079 -2.40738,1.06865 -1.44985,0.25446 -1.73187,0.37617 -2.21279,0.95499 -0.30316,0.36482 -0.86208,0.79324 -1.2421,0.95198 l -0.69096,0.28866 0.94992,0.0206 c 0.81602,0.0187 1.0762,-0.0892 1.84603,-0.76306 z m 6.07822,-8.165795 c 0.52065,-1.303193 1.25876,-1.850323 2.61737,-1.940178 0.62999,-0.04173 1.24963,-0.01421 1.37702,0.06115 0.13208,0.07808 0.0244,0.466604 -0.25057,0.904676 -0.26521,0.422251 -0.48614,1.008246 -0.49101,1.302111 -0.0132,0.739922 -0.17186,0.812898 -0.78626,0.359596 -0.63274,-0.466828 -1.47829,-0.417415 -2.09508,0.12242 -0.63396,0.55488 -0.78504,0.225538 -0.37147,-0.809737 z m 2.24702,0.03797 c 0.43258,0.293383 0.35872,0.356107 0.85686,-0.727729 l 0.41047,-0.892959 -0.72343,0.03792 c -0.98558,0.05169 -1.46479,0.290048 -2.03078,1.009775 l -0.48022,0.610636 0.80459,-0.140257 c 0.44252,-0.07717 0.96563,-0.0311 1.16248,0.102419 z m 2.02676,-6.395322 c -0.3299,-2.687843 3.0538,-3.757085 4.16673,-1.316692 0.44445,0.974542 0.28273,1.744238 -0.51277,2.440489 -0.80001,0.700203 -1.53418,0.897421 -2.34554,0.63012 -0.90618,-0.298566 -1.17386,-0.657374 -1.30842,-1.753917 z m 2.11249,1.339208 c 2.27843,-0.119638 2.34565,-3.432751 0.0694,-3.418205 -0.92646,0.0059 -1.44531,0.449829 -1.62094,1.386859 -0.24899,1.328255 0.33675,2.095153 1.55161,2.031362 z m 2.48921,2.448291 c 0.58468,0.233238 1.10242,0.388348 1.15057,0.344649 0.16801,-0.153489 -0.19025,-2.488442 -0.39174,-2.550386 -0.25134,-0.07735 -2.21247,1.612721 -1.98536,1.710943 0.09,0.03896 0.6419,0.261574 1.22657,0.494827 z m -7.5793,-11.112118 c 0.75907,-0.387094 1.38504,-0.75334 1.39101,-0.813939 0.007,-0.06065 -2.2572,-2.461113 -5.0291,-5.334614 -2.77198,-2.873473 -5.2356,-5.438217 -5.47469,-5.69947 -0.23925,-0.261127 -0.39262,-0.354003 -0.3412,-0.206085 0.1947,0.560298 7.22686,11.896937 7.64044,12.317301 0.40586,0.412401 0.52145,0.395641 1.81358,-0.263256 z m 20.47928,11.099063 c 2.95948,-0.985654 6.11798,-2.160531 6.34694,-2.360923 0.0562,-0.04933 -0.25777,-0.06306 -0.69795,-0.03085 -0.44024,0.03236 -1.10929,0.03538 -1.48676,0.0067 -0.88234,-0.06721 -1.61074,0.209248 -2.42196,0.91927 -0.8724,0.763582 -1.02427,0.336145 -0.33369,-0.939136 0.75057,-1.386039 1.48068,-1.754434 3.33523,-1.682884 l 1.52176,0.05911 1.16721,-1.040835 c 1.91297,-1.706397 2.27134,-1.233272 0.67771,0.894762 -0.43396,0.579344 -0.80293,1.152402 -0.82003,1.273331 -0.0378,0.266497 4.53971,-1.923118 7.59482,-3.633027 1.21799,-0.681693 4.24324,-2.545048 6.72278,-4.140785 13.14571,-8.460107 18.70368,-16.146813 25.18347,-34.828886 2.04084,-5.883971 4.71562,-14.16052 4.61391,-14.276718 -0.0842,-0.0961 -9.79111,4.580744 -10.10988,4.871083 -0.0793,0.0715 -0.15665,0.921634 -0.17265,1.888404 -0.0641,3.873321 -1.62916,12.720753 -2.98768,16.890781 -1.52737,4.688176 -6.08803,11.61825 -10.38389,15.778655 -0.97867,0.947913 -1.95479,2.005196 -2.16908,2.349668 -0.25025,0.402309 -0.50825,0.631974 -0.72131,0.642006 -0.18237,0.0089 -1.05485,0.582268 -1.93879,1.274657 -1.32493,1.037751 -1.66233,1.396147 -1.92147,2.040116 -0.34826,0.865546 -1.30792,2.172311 -2.6996,3.676053 -1.17863,1.273516 -1.44094,1.040636 -0.89794,-0.7972 0.40786,-1.380491 0.37203,-1.764907 -0.12405,-1.330715 -0.65834,0.576215 -6.01081,3.196395 -7.68648,3.762752 -1.88968,0.638685 -5.7119,1.501705 -10.28455,2.322157 -2.16859,0.389103 -6.35429,1.518127 -6.67769,1.801194 -0.0367,0.03205 0.41224,0.229078 0.99775,0.437594 1.629,0.580196 2.46701,1.625493 2.87846,3.590391 0.17977,0.858545 0.33185,1.576898 0.33796,1.596339 0.005,0.01933 1.42695,-0.436217 3.15744,-1.012549 z m -2.99346,-1.513918 c -0.20641,-0.791458 -0.28446,-1.52516 -0.17344,-1.630452 0.36876,-0.349698 1.71074,-0.124773 1.90457,0.319186 0.21673,0.49645 0.36875,0.379764 1.28021,-0.982564 0.37371,-0.558617 1.00956,-1.30612 1.41303,-1.661122 0.63145,-0.554815 0.8819,-0.633072 1.79403,-0.556724 0.58324,0.0488 1.42473,0.02879 1.87001,-0.04512 0.88086,-0.145619 1.12316,-0.03142 0.88612,0.417957 -0.26349,0.499557 -1.49183,0.95609 -2.4585,0.913764 -1.1805,-0.05196 -1.99272,0.616268 -2.70256,2.22256 -0.2815,0.636963 -0.786,1.399324 -1.12113,1.694157 -0.6503,0.571325 -2.0797,1.148076 -2.22782,0.89791 -0.0488,-0.08279 -0.258,-0.798016 -0.46443,-1.589491 z m 1.48329,0.928845 c 0.78332,-0.286259 1.78354,-1.450669 2.08306,-2.424959 0.26802,-0.871817 1.30463,-1.898023 2.11112,-2.089904 0.28354,-0.06738 0.82483,-0.09216 1.2029,-0.05476 0.37807,0.03741 0.79186,-0.0236 0.91954,-0.135282 0.13,-0.113909 -0.36221,-0.246927 -1.12018,-0.302782 -1.56729,-0.115556 -2.11441,0.234604 -3.43139,2.195528 -0.89033,1.325665 -1.39581,1.614181 -1.79212,1.022884 -0.2938,-0.438317 -0.78988,-0.664226 -1.01887,-0.463804 -0.14505,0.126976 0.14621,2.112392 0.34385,2.343838 0.0594,0.06943 0.37533,0.0288 0.70209,-0.09073 z m 41.96275,-41.108429 c -0.21263,-1.096386 1.0373,-2.64649 2.53979,-3.149727 1.01929,-0.3414 1.61047,-0.868698 2.14064,-1.909305 0.52138,-1.023325 0.9025,-1.063769 0.72847,-0.07737 -0.0706,0.400715 -0.0244,1.006525 0.10242,1.346241 0.24994,0.66845 0.1605,0.758666 -2.23998,2.259523 -0.78013,0.487761 -0.78153,0.491759 -0.34569,0.989712 0.73108,0.835283 0.0633,1.896216 -1.23633,1.964468 -0.76695,0.0403 -1.53018,-0.602907 -1.68936,-1.423602 z m 1.78934,0.946112 c 0.89064,-0.124616 1.18019,-0.722885 0.68422,-1.413927 -0.38153,-0.531693 -0.36822,-0.5893 0.25682,-1.110706 0.36266,-0.302434 1.06273,-0.799904 1.55588,-1.105283 0.69093,-0.42787 0.88408,-0.635853 0.84192,-0.906484 -0.0927,-0.595181 -0.21288,-0.58959 -0.91347,0.04261 -0.3722,0.336455 -1.03772,0.699954 -1.47824,0.808569 -1.10433,0.272257 -2.29527,1.530602 -2.26232,2.390324 0.0334,0.870343 0.57042,1.399114 1.31521,1.294959 z m -0.49168,-6.137814 c 0.0795,-0.759859 0.65859,-1.862372 1.25287,-2.385791 0.64162,-0.56587 0.98186,-1.734163 0.86306,-2.967857 -0.0681,-0.708313 -0.009,-1.542839 0.132,-1.854457 0.37065,-0.820509 1.8518,-2.325252 2.32863,-2.365737 0.4567,-0.03878 0.46825,-0.13648 -0.23634,1.997516 -0.25873,0.783641 -0.38436,1.890844 -0.31942,2.815232 0.11505,1.63792 -0.0903,2.194149 -1.68276,4.559029 -0.70744,1.050534 -0.94,1.28078 -1.35747,1.343805 -0.75105,0.113399 -1.07284,-0.261252 -0.98029,-1.142004 z m 1.44961,0.214444 c 0.29249,-0.334498 0.90926,-1.229209 1.37057,-1.988228 0.82923,-1.364424 0.89448,-1.702007 0.69256,-3.583692 -0.04,-0.373368 0.0926,-1.286895 0.29488,-2.030097 0.20224,-0.743188 0.3198,-1.354458 0.26123,-1.358346 -0.0586,-0.0034 -0.41832,0.351171 -0.79897,0.789545 -0.71512,0.822668 -0.77373,1.096501 -0.67955,3.177042 0.0495,1.095246 0.008,1.185424 -1.56966,3.459108 -0.58836,0.847578 -0.77953,1.934872 -0.36274,2.063007 0.14867,0.04574 0.48759,-0.180524 0.79173,-0.528272 z m 3.77406,-6.203974 c -0.10823,-0.52386 -0.0762,-1.312294 0.0711,-1.752089 0.24046,-0.717796 0.37619,-0.860496 1.32699,-1.395126 1.13143,-0.636166 1.76417,-0.752676 1.49483,-0.275257 -1.14751,2.034032 -1.463,2.793359 -1.47924,3.560358 -0.0157,0.719986 -0.10288,0.912625 -0.43952,0.965643 -0.62261,0.09814 -0.75725,-0.05456 -0.97425,-1.103357 z m 1.02625,-0.172793 c 0.0427,-0.519548 0.33064,-1.383611 0.63981,-1.920165 l 0.56214,-0.975522 -0.67528,0.338294 c -0.98983,0.495897 -1.28037,1.062047 -1.16821,2.276687 0.1254,1.358305 0.53807,1.538868 0.64154,0.280706 z M 202.8206,91.263134 c 1.7671,-4.2e-4 1.89579,-0.05769 2.85989,-1.272245 l 0.74593,-0.93967 -1.0012,0.718677 c -0.87842,0.630455 -1.15853,0.710051 -2.28392,0.648591 -1.50686,-0.08232 -2.38759,0.197985 -2.92923,0.932184 l -0.3917,0.530811 0.75632,-0.309008 c 0.416,-0.169915 1.42572,-0.309155 2.24388,-0.309372 z m 6.94298,-9.7208 c 0.78903,-1.397928 2.95895,-4.44277 3.50968,-4.924781 0.90035,-0.788043 1.70589,-0.76351 2.44007,0.0743 0.70049,0.799333 1.04369,3.54237 0.65294,5.218591 -0.34391,1.475222 -0.0724,1.388956 1.28286,-0.40783 1.12342,-1.489285 1.41714,-2.412068 1.69319,-5.319329 0.20668,-2.17712 0.56299,-2.966668 1.4948,-3.312787 0.63782,-0.236919 0.95712,0.141457 1.53882,1.823128 0.2562,0.740707 0.49354,1.378409 0.52744,1.41713 0.14178,0.161933 0.78581,-1.013811 1.18117,-2.156454 0.92785,-2.681646 0.96909,-3.714934 0.25043,-6.277117 -0.72288,-2.577543 -0.69282,-3.313724 0.21195,-5.186184 0.46533,-0.963072 0.47216,-1.140232 0.073,-1.872223 -0.40268,-0.737155 -0.39038,-0.994555 0.13928,-2.915601 0.64875,-2.352892 0.79368,-4.856707 0.37031,-6.397662 -0.15451,-0.562345 -0.65165,-1.673283 -1.10478,-2.468725 -1.01271,-1.777811 -2.7317,-3.366914 -4.71816,-4.361696 -0.71794,-0.359555 -1.61685,-0.923242 -1.99759,-1.252653 -0.62043,-0.536826 -0.68302,-0.690928 -0.60274,-1.486688 0.0836,-0.829405 0.71294,-2.110089 1.28145,-2.607676 0.13678,-0.11966 0.77554,-0.229676 1.41961,-0.244454 1.97279,-0.04537 2.22248,-0.63917 1.60295,-3.812138 -0.76629,-3.924324 -0.69845,-4.233605 1.03569,-4.721014 0.76595,-0.215283 0.80721,-0.254765 0.87713,-0.838936 0.0718,-0.599715 -0.59115,-6.975903 -0.9143,-8.794209 l -0.16318,-0.918275 -1.0164,2.198975 c -1.78245,3.856258 -3.34431,4.469271 -5.35249,2.100752 -0.73504,-0.86696 -0.91918,-1.302317 -1.41621,-3.348113 -0.427,-1.75754 -0.75651,-2.611794 -1.30435,-3.381777 l -0.73299,-1.030272 -0.38631,0.523747 c -0.6123,0.829945 -1.40936,0.627175 -2.4702,-0.628388 -1.24509,-1.473626 -1.44179,-2.322735 -0.97493,-4.20815 0.59362,-2.3972978 0.39785,-3.2244657 -1.41956,-5.9978249 l -0.59374,-0.9061076 0.0211,1.2647008 c 0.0408,2.4412513 -0.18449,4.0218027 -0.80098,5.6169557 -0.74001,1.914954 -0.80385,3.351767 -0.24522,5.517645 0.76975,2.984014 1.28738,3.964675 3.18565,6.035259 1.64494,1.79436 1.70914,1.895813 1.97557,3.127294 0.35407,1.636422 0.4524,5.782806 0.20517,8.651382 -0.26946,3.126352 -1.74277,6.151491 -3.92693,8.063193 -0.76426,0.668911 -0.87411,0.702622 -1.30806,0.40196 -0.26064,-0.180485 -1.17712,-1.271075 -2.03682,-2.423392 -0.85971,-1.1523 -1.59486,-2.104244 -1.6338,-2.115361 -0.0388,-0.01083 0.0789,1.111084 0.26204,2.49378 0.4199,3.171764 0.24811,4.762313 -0.75846,7.022125 -0.78233,1.756438 -0.79029,1.819618 -0.36938,2.934665 0.73775,1.954344 1.20091,2.745566 2.36521,4.040275 1.09525,1.217885 1.14817,1.331361 1.86615,3.987551 0.80258,2.969764 0.64611,2.721357 3.56113,5.653098 2.54543,2.56003 3.45287,4.434148 3.17303,6.553288 -0.1495,1.13179 -0.26174,1.322958 -1.75998,2.996547 -0.61562,0.687674 -1.08204,1.397044 -1.11733,1.699424 -0.0334,0.28547 0.15186,1.067943 0.41155,1.738829 0.27383,0.7074 0.43589,1.661077 0.38579,2.270356 -0.0945,1.149899 -0.0784,1.260743 0.1304,0.890987 z m 11.57537,-4.289318 1.0529,-0.917288 -0.53009,-1.460859 c -0.29156,-0.803479 -0.60988,-1.487274 -0.7074,-1.51954 -0.0976,-0.03226 -0.39808,0.134587 -0.66789,0.370689 -0.38601,0.337839 -0.5275,0.867799 -0.66378,2.485976 -0.19796,2.351112 -0.08,2.431833 1.51623,1.040973 z m 4.58462,-4.126275 c 1.9469,-1.994713 3.11185,-3.409043 4.80421,-5.832732 4.54673,-6.511457 6.01323,-10.410659 7.41138,-19.705913 0.85319,-5.672112 0.99262,-7.994942 0.48097,-8.012093 -0.24706,-0.0083 -9.1557,4.334832 -9.48769,4.625414 -0.11628,0.101773 -0.13471,1.223596 -0.0413,2.493037 0.33524,4.548645 -0.42765,8.644091 -2.28503,12.266866 -0.51119,0.997051 -1.31437,2.730733 -1.78483,3.852611 -0.92672,2.209847 -0.93035,2.803083 -0.0315,5.117023 0.46286,1.191415 0.36985,4.130964 -0.17522,5.565751 -0.17693,0.464977 -0.2956,0.875227 -0.26374,0.911649 0.0319,0.03639 0.65,-0.540225 1.37342,-1.281638 z"
     id="path881" />
  <path
     style="font-variation-settings:normal;opacity:1;vector-effect:none;fill:#ff5555;fill-opacity:1;stroke-linecap:butt;stroke-linejoin:miter;stroke-miterlimit:4;stroke-dasharray:none;stroke-dashoffset:0;stroke-opacity:1;stop-color:#000000;stop-opacity:1"
     d="m 216.29799,82.349084 c 0.35168,-2.933934 0.11774,-4.757813 -0.73074,-5.696978 -0.56445,-0.62477 -0.99095,-0.710104 -1.72613,-0.345357 -0.65858,0.326744 -1.7181,1.630994 -3.28871,4.04833 l -0.94099,1.448294 -0.0664,-1.326442 c -0.0487,-0.972488 -0.15436,-1.596374 -0.39602,-2.338006 -0.18129,-0.556359 -0.32961,-1.16383 -0.32961,-1.349936 0,-0.410326 0.45944,-1.114219 1.52069,-2.329774 0.97766,-1.11981 1.24777,-1.656352 1.35161,-2.684782 0.14134,-1.399997 -0.32881,-2.856333 -1.39444,-4.319438 -0.24317,-0.333865 -1.28102,-1.485359 -2.30633,-2.558876 -2.17702,-2.279362 -2.34632,-2.568259 -3.07185,-5.241833 -0.60613,-2.233536 -0.87225,-2.795796 -1.86355,-3.937258 -0.93785,-1.079913 -1.42125,-1.860216 -2.03652,-3.287344 -0.72531,-1.682368 -0.72534,-1.706491 -0.006,-3.491387 0.34281,-0.85018 0.70326,-1.88495 0.80102,-2.299492 0.23443,-0.994196 0.2303,-3.267584 -0.01,-5.22997 -0.27902,-2.283299 -0.26849,-2.297798 0.72964,-1.003814 1.80761,2.343398 2.5805,3.257322 2.89004,3.417393 0.29511,0.152605 0.36172,0.137961 0.79275,-0.174275 1.8973,-1.374402 3.62524,-4.419832 4.1211,-7.263319 0.41614,-2.386342 0.34597,-7.859746 -0.12745,-9.941219 -0.21297,-0.936351 -0.42685,-1.263088 -1.87042,-2.85729 -1.78129,-1.967163 -2.42049,-3.137536 -3.14689,-5.761949 -0.27665,-0.999491 -0.32813,-1.429944 -0.33101,-2.76764 -0.003,-1.538563 0.0112,-1.627819 0.50494,-3.107207 0.61321,-1.837365 0.77023,-2.8838363 0.7738,-5.157033 0.003,-1.7005012 0.006,-1.7230078 0.22633,-1.4367421 0.41038,0.5337135 1.68287,2.7482876 1.89835,3.303791 0.28365,0.731254 0.2671,1.9622751 -0.0459,3.4118351 -0.13746,0.636673 -0.25079,1.298426 -0.25184,1.470562 -0.009,1.405185 1.76824,3.769043 2.83303,3.769043 0.26699,0 0.47947,-0.129227 0.81375,-0.49492 l 0.4524,-0.49492 0.63018,0.932801 c 0.63562,0.94086 0.84443,1.498995 1.6625,4.443684 0.37749,1.358763 0.68037,1.915992 1.48438,2.730907 1.91721,1.943188 3.27021,1.163384 5.21447,-3.005369 0.3986,-0.854643 0.76328,-1.512639 0.8104,-1.462213 0.17077,0.18274 0.86003,5.913694 1.03818,8.63213 0.0948,1.446164 0.0723,1.484023 -1.11397,1.878798 -1.36335,0.453694 -1.41449,0.753365 -0.77657,4.551225 0.5704,3.395955 0.45448,3.671571 -1.62979,3.874979 -0.74927,0.07312 -1.22608,0.183225 -1.42907,0.329995 -0.51202,0.370217 -1.14013,1.746176 -1.19293,2.613281 -0.0449,0.738139 -0.0362,0.763075 0.4212,1.203241 0.25691,0.247214 1.15252,0.843587 1.99024,1.325274 2.9135,1.675235 4.36642,3.179209 5.50238,5.695712 0.91841,2.034566 0.93166,4.626441 0.0404,7.899247 -0.37053,1.360554 -0.38034,1.952231 -0.0453,2.731035 0.30927,0.718921 0.28018,0.931743 -0.32397,2.370263 -0.59304,1.412067 -0.60721,2.193515 -0.0773,4.264794 0.73665,2.879576 0.74528,3.771958 0.0577,5.970712 -0.31125,0.995417 -1.2076,2.863505 -1.37396,2.863505 -0.0507,0 -0.29325,-0.564403 -0.53903,-1.254228 -0.58957,-1.65479 -0.8258,-2.035756 -1.26236,-2.035756 -0.34645,0 -0.82358,0.26396 -1.09117,0.603665 -0.29681,0.376802 -0.51888,1.325047 -0.75751,3.23465 -0.25176,2.014627 -0.51912,3.015051 -1.04604,3.914181 -0.43241,0.737841 -1.74098,2.361159 -1.90335,2.361159 -0.0924,0 -0.11137,-0.20458 -0.0592,-0.639719 z"
     id="path883" />
  <path
     style="font-variation-settings:normal;opacity:1;vector-effect:none;fill:#ff5555;fill-opacity:1;stroke-linecap:butt;stroke-linejoin:miter;stroke-miterlimit:4;stroke-dasharray:none;stroke-dashoffset:0;stroke-opacity:1;stop-color:#000000;stop-opacity:1"
     d="m 240.4601,47.814404 c -0.13223,-0.132231 -0.0928,-0.855583 0.0667,-1.222933 0.0814,-0.187454 0.45704,-0.806906 0.83479,-1.37656 1.08843,-1.64138 1.08861,-1.641914 1.08938,-3.192545 3.7e-4,-0.757283 0.0572,-1.580211 0.12617,-1.828729 0.1197,-0.430987 1.3006,-1.877773 1.42839,-1.749989 0.0335,0.03347 -0.0639,0.597408 -0.21638,1.253198 -0.20691,0.88991 -0.28051,1.595398 -0.29018,2.781379 -0.0145,1.780808 -0.0819,1.982241 -1.25031,3.739854 -0.90453,1.3606 -1.49624,1.888699 -1.78861,1.596325 z"
     id="path885" />
  <path
     style="font-variation-settings:normal;opacity:1;vector-effect:none;fill:#ff5555;fill-opacity:1;stroke-linecap:butt;stroke-linejoin:miter;stroke-miterlimit:4;stroke-dasharray:none;stroke-dashoffset:0;stroke-opacity:1;stop-color:#000000;stop-opacity:1"
     d="m 245.72622,41.654885 c -0.0815,-0.152277 -0.17178,-0.661018 -0.20063,-1.130537 -0.0459,-0.747268 -0.0165,-0.906354 0.23574,-1.276358 0.27741,-0.406842 1.38248,-1.199796 1.50346,-1.078819 0.0324,0.03235 -0.15372,0.46956 -0.4135,0.97157 -0.29802,0.575896 -0.52676,1.23543 -0.61981,1.787108 -0.16326,0.967934 -0.28363,1.141141 -0.50526,0.727036 z"
     id="path887" />
  <path
     style="font-variation-settings:normal;opacity:1;vector-effect:none;fill:#ff5555;fill-opacity:1;stroke-linecap:butt;stroke-linejoin:miter;stroke-miterlimit:4;stroke-dasharray:none;stroke-dashoffset:0;stroke-opacity:1;stop-color:#000000;stop-opacity:1"
     d="m 239.89146,53.297022 c -0.36215,-0.14212 -0.61258,-0.452699 -0.7367,-0.91365 -0.26728,-0.99262 0.73122,-2.235342 2.26784,-2.822519 0.46685,-0.178393 1.11755,-0.546411 1.44598,-0.817817 0.52411,-0.433098 0.61898,-0.471657 0.77544,-0.315191 0.34009,0.340085 0.0785,0.727612 -0.97659,1.446974 -0.55502,0.378398 -1.20104,0.851948 -1.43561,1.052333 l -0.42648,0.364338 0.27417,0.489075 c 0.35438,0.632169 0.3523,1.054164 -0.006,1.289171 -0.3288,0.215435 -0.92142,0.329421 -1.18168,0.227286 z"
     id="path889" />
  <path
     style="font-variation-settings:normal;opacity:1;vector-effect:none;fill:#ff5555;fill-opacity:1;stroke-linecap:butt;stroke-linejoin:miter;stroke-miterlimit:4;stroke-dasharray:none;stroke-dashoffset:0;stroke-opacity:1;stop-color:#000000;stop-opacity:1"
     d="m 195.90623,93.433144 c -0.16153,-0.301829 -0.40551,-1.927204 -0.32197,-2.144923 0.11706,-0.305037 0.51905,-0.192218 0.97023,0.272293 0.3924,0.404 0.46558,0.434555 0.7406,0.309248 0.16784,-0.07648 0.6823,-0.648331 1.14324,-1.27079 1.02459,-1.383626 1.51996,-1.875899 2.07057,-2.057617 0.41485,-0.136912 2.26575,-0.102651 2.41307,0.04467 0.20554,0.205539 -0.17634,0.332876 -0.99828,0.332876 -0.50574,0 -1.09251,0.076 -1.31972,0.170937 -0.71913,0.300471 -1.37413,1.010334 -1.84225,1.996549 -0.7004,1.475575 -1.37503,2.177175 -2.36707,2.461688 -0.30127,0.0864 -0.39211,0.06503 -0.48842,-0.114928 z"
     id="path891" />
  <path
     style="font-variation-settings:normal;opacity:1;vector-effect:none;fill:#ff5555;fill-opacity:1;stroke-linecap:butt;stroke-linejoin:miter;stroke-miterlimit:4;stroke-dasharray:none;stroke-dashoffset:0;stroke-opacity:1;stop-color:#000000;stop-opacity:1"
     d="m 200.10632,91.428603 c 0.57724,-0.756809 1.1353,-0.968217 2.68143,-1.0158 1.71979,-0.05293 1.70943,-0.0502 2.65833,-0.699923 0.44201,-0.302654 0.83675,-0.550279 0.87719,-0.550279 0.19048,0 -1.36904,1.719361 -1.69842,1.872488 -0.20619,0.09586 -1.00547,0.214035 -1.77618,0.262617 -1.24886,0.07872 -1.73764,0.165041 -2.7934,0.493313 l -0.29545,0.09187 z"
     id="path893" />
  <path
     style="font-variation-settings:normal;opacity:1;vector-effect:none;fill:#ff5555;fill-opacity:1;stroke-linecap:butt;stroke-linejoin:miter;stroke-miterlimit:4;stroke-dasharray:none;stroke-dashoffset:0;stroke-opacity:1;stop-color:#000000;stop-opacity:1"
     d="m 181.6365,91.260582 c -0.73431,-0.656106 -0.55997,-2.315638 0.29824,-2.838949 0.85372,-0.520574 2.11011,-0.160515 2.47334,0.708815 0.51906,1.24228 -0.35177,2.467721 -1.75433,2.468722 -0.5258,3.76e-4 -0.70443,-0.05908 -1.01725,-0.338588 z"
     id="path895" />
  <path
     style="font-variation-settings:normal;opacity:1;vector-effect:none;fill:#ff5555;fill-opacity:1;stroke-linecap:butt;stroke-linejoin:miter;stroke-miterlimit:4;stroke-dasharray:none;stroke-dashoffset:0;stroke-opacity:1;stop-color:#000000;stop-opacity:1"
     d="m 178.65117,96.701148 c -0.0577,-0.09336 -0.39588,-0.116798 -1.04411,-0.07237 l -0.95876,0.06571 0.37531,-0.473868 c 0.5463,-0.689764 0.90177,-0.931194 1.5876,-1.078279 0.64798,-0.138965 1.32943,-0.173268 1.32943,-0.06692 0,0.03518 -0.19261,0.44643 -0.42801,0.913884 -0.40525,0.804701 -0.66925,1.022848 -0.86146,0.711835 z"
     id="path897" />
  <path
     style="font-variation-settings:normal;opacity:1;vector-effect:none;fill:#ff5555;fill-opacity:1;stroke-linecap:butt;stroke-linejoin:miter;stroke-miterlimit:4;stroke-dasharray:none;stroke-dashoffset:0;stroke-opacity:1;stop-color:#000000;stop-opacity:1"
     d="m 167.63366,105.55407 c 0,-0.0321 0.23304,-0.1761 0.51787,-0.31989 0.28482,-0.1438 0.80265,-0.52893 1.15072,-0.85585 0.73423,-0.68961 0.92481,-0.77417 2.45489,-1.08929 0.62597,-0.12892 1.32945,-0.32519 1.56328,-0.43615 0.47795,-0.2268 1.49897,-1.44253 2.12899,-2.53498 0.39405,-0.683279 0.46022,-0.737989 1.14482,-0.946543 0.39963,-0.121741 1.06071,-0.254904 1.46906,-0.295916 0.65215,-0.0655 0.75308,-0.04689 0.82979,0.153005 0.1448,0.377355 0.23269,1.695254 0.14442,2.165754 -0.0713,0.38013 -0.12907,0.44092 -0.41889,0.44092 -0.1849,0 -0.59655,-0.16512 -0.91479,-0.36694 l -0.57861,-0.36694 -1.25822,1.3111 -1.25822,1.31111 -1.38779,0.0738 c -1.54014,0.0819 -1.81192,0.17853 -2.90659,1.03328 -0.3686,0.28782 -0.82455,0.5815 -1.01321,0.65264 -0.33867,0.12769 -1.66752,0.18418 -1.66752,0.0709 z"
     id="path899" />
  <path
     style="font-variation-settings:normal;opacity:1;vector-effect:none;fill:#ff5555;fill-opacity:1;stroke-linecap:butt;stroke-linejoin:miter;stroke-miterlimit:4;stroke-dasharray:none;stroke-dashoffset:0;stroke-opacity:1;stop-color:#000000;stop-opacity:1"
     d="m 148.24985,121.01737 c 0.0991,-0.87955 0.87783,-2.3124 1.72485,-3.17386 0.63878,-0.64966 0.86054,-0.79103 1.5949,-1.01674 0.7544,-0.23186 2.83663,-0.55883 2.93464,-0.46082 0.0204,0.0204 -0.0174,0.28228 -0.084,0.58204 -0.18322,0.82526 -1.03553,2.49919 -1.51831,2.98197 -0.83587,0.83586 -2.82856,1.64508 -4.05102,1.64508 H 148.187 Z"
     id="path901" />
  <path
     style="font-variation-settings:normal;opacity:1;vector-effect:none;fill:#ffaaaa;fill-opacity:1;stroke-width:0.121851;stroke-linecap:butt;stroke-linejoin:miter;stroke-miterlimit:4;stroke-dasharray:none;stroke-dashoffset:0;stroke-opacity:1;stop-color:#000000;stop-opacity:1"
     d="m 194.72622,93.835712 c -0.35063,-1.581374 -0.72116,-2.367327 -1.4195,-3.011034 -0.51758,-0.477097 -0.81187,-0.642188 -2.05774,-1.154364 -0.38367,-0.157723 -0.44752,-0.22412 -0.30463,-0.316764 0.54688,-0.354575 4.60004,-1.387075 7.84946,-1.999568 3.1477,-0.593319 6.56349,-1.35341 8.00024,-1.780237 1.9284,-0.572884 6.51306,-2.685434 8.27486,-3.812946 0.38326,-0.245278 0.7161,-0.38333 0.77744,-0.322457 0.0617,0.06122 -0.0375,0.681239 -0.23347,1.459455 -0.4672,1.85526 -0.34888,1.952542 0.85604,0.703866 1.12034,-1.161019 2.11358,-2.478459 2.59435,-3.441168 0.52504,-1.05135 2.32259,-2.659736 3.82388,-3.421481 0.31246,-0.158537 0.69466,-0.467971 0.84933,-0.687632 0.15468,-0.219662 1.15461,-1.304129 2.22208,-2.40993 2.80556,-2.9063 4.88829,-5.569636 6.99667,-8.947135 0.92483,-1.481526 2.4466,-4.449326 2.95266,-5.758382 1.39905,-3.619011 2.95868,-11.793959 3.33732,-17.492886 0.0835,-1.256155 0.17495,-2.305524 0.20331,-2.33193 0.20987,-0.195406 9.2949,-4.587156 9.86084,-4.766778 0.17261,-0.05479 0.24345,-0.02175 0.24345,0.113524 0,0.484067 -3.76114,11.942537 -5.4223,16.519252 -3.41645,9.41278 -6.58827,15.583522 -10.57226,20.568195 -1.36832,1.712013 -4.54425,4.958238 -6.24329,6.381471 -4.27587,3.581767 -11.7704,8.425572 -17.46173,11.285732 -2.83306,1.423745 -4.24962,2.055243 -4.36082,1.944044 -0.0381,-0.03809 0.31308,-0.636039 0.78035,-1.328787 0.46728,-0.692746 0.88661,-1.382914 0.93184,-1.533705 0.15913,-0.53047 -0.35865,-0.293263 -1.57377,0.720979 l -1.19224,0.995145 -1.53898,0.01013 c -1.86363,0.01226 -2.27108,0.172853 -2.97308,1.17177 -0.66325,0.94379 -0.93179,2.02607 -0.40608,1.636627 0.0873,-0.06465 0.47726,-0.336873 0.86665,-0.604946 l 0.70797,-0.487405 1.595,-0.06492 c 0.87725,-0.03571 1.64123,-0.02786 1.69773,0.01744 0.0565,0.0453 -0.62228,0.364892 -1.5084,0.710214 -1.52712,0.59511 -6.88587,2.442244 -7.5613,2.606339 -0.31176,0.07574 -0.31883,0.06176 -0.59188,-1.16973 z m 2.28476,-0.09607 c 0.86361,-0.431554 1.26392,-0.890421 2.01241,-2.306799 0.56261,-1.06463 1.16283,-1.777356 1.66707,-1.979534 0.16754,-0.06718 0.74849,-0.164973 1.29099,-0.217319 1.06921,-0.10317 1.90122,-0.440163 2.12664,-0.861365 0.0747,-0.139558 0.10293,-0.286604 0.0628,-0.32677 -0.14751,-0.147508 -3.64266,-0.01333 -3.9616,0.152087 -0.49533,0.256893 -1.1841,0.986165 -2.09048,2.213398 -0.46318,0.627138 -0.87453,1.140251 -0.91412,1.140251 -0.0396,0 -0.22827,-0.167318 -0.4193,-0.371819 -0.32086,-0.343487 -0.40119,-0.36902 -1.05416,-0.335091 l -0.70683,0.03673 0.0235,0.52256 c 0.0217,0.481712 0.45767,2.377454 0.59955,2.607021 0.12083,0.195513 0.62918,0.0936 1.36352,-0.273348 z M 240.78857,53.65735 c 0.9276,-0.257681 1.27325,-1.107807 0.74237,-1.825866 -0.14521,-0.196402 -0.26401,-0.414198 -0.26401,-0.48399 0,-0.06979 0.62729,-0.539379 1.39398,-1.043524 0.76669,-0.504144 1.42635,-1.018613 1.46592,-1.143264 0.0396,-0.124652 0.0122,-0.493368 -0.0609,-0.819371 -0.0731,-0.326003 -0.097,-0.853312 -0.0532,-1.171798 0.10931,-0.794758 -0.16284,-0.776037 -0.60798,0.04182 -0.55952,1.028026 -1.01949,1.455146 -2.1106,1.959847 -2.10702,0.974623 -3.09638,2.529664 -2.38948,3.755697 0.13113,0.227429 0.4392,0.495033 0.71727,0.623047 0.57119,0.26297 0.59779,0.265418 1.16663,0.107399 z m 0.39498,-5.502715 c 0.33819,-0.180122 0.4199,-0.28171 1.37201,-1.70589 1.24499,-1.862267 1.30366,-2.042757 1.39969,-4.305845 0.074,-1.743807 0.12522,-2.081368 0.48531,-3.197636 0.22142,-0.686409 0.36344,-1.287168 0.31559,-1.33502 -0.2562,-0.256201 -2.00145,1.28242 -2.45961,2.168406 -0.13412,0.259358 -0.19592,0.815569 -0.21911,1.972006 -0.037,1.843248 -0.17102,2.249797 -1.09994,3.335723 -0.55523,0.649071 -1.05093,1.750196 -1.05093,2.33451 0,0.728382 0.60451,1.081256 1.25699,0.733746 z m 5.24658,-6.224975 c 0.0276,-0.150791 0.1085,-0.603163 0.17989,-1.005273 0.0807,-0.454458 0.38802,-1.231798 0.81221,-2.054293 0.37533,-0.727753 0.65306,-1.352541 0.61718,-1.388419 -0.1049,-0.104906 -1.05641,0.299468 -1.80192,0.765785 -0.89935,0.562551 -1.12727,1.09816 -1.04751,2.461645 0.0708,1.210465 0.21729,1.494721 0.77019,1.494721 0.33934,0 0.42947,-0.05258 0.46996,-0.274166 z"
     id="path903" />
  <path
     style="font-variation-settings:normal;opacity:1;vector-effect:none;fill:#ffaaaa;fill-opacity:1;stroke-width:0.121851;stroke-linecap:butt;stroke-linejoin:miter;stroke-miterlimit:4;stroke-dasharray:none;stroke-dashoffset:0;stroke-opacity:1;stop-color:#000000;stop-opacity:1"
     d="m 175.85122,83.159898 c -0.34093,-0.370956 -1.47647,-2.153011 -4.7453,-7.446974 -2.24108,-3.629499 -2.88322,-4.737496 -2.79612,-4.824597 0.0536,-0.05357 9.48854,9.727295 10.42876,10.811081 0.29574,0.34089 0.34882,0.471062 0.23163,0.567955 -0.2933,0.2425 -2.37313,1.244042 -2.58341,1.244042 -0.11688,0 -0.35788,-0.158178 -0.53556,-0.351507 z"
     id="path905" />
  <path
     style="font-variation-settings:normal;opacity:1;vector-effect:none;fill:#ffaaaa;fill-opacity:1;stroke-width:0.121851;stroke-linecap:butt;stroke-linejoin:miter;stroke-miterlimit:4;stroke-dasharray:none;stroke-dashoffset:0;stroke-opacity:1;stop-color:#000000;stop-opacity:1"
     d="m 185.51847,94.159495 c -1.42642,-0.513582 -1.52164,-0.554788 -1.52164,-0.65846 0,-0.143147 1.33702,-1.323714 1.73791,-1.534549 0.31874,-0.16763 0.34257,-0.161375 0.4487,0.117773 0.17325,0.455688 0.369,2.055682 0.27258,2.227979 -0.0663,0.118525 -0.28148,0.08347 -0.93755,-0.152743 z"
     id="path907" />
  <path
     style="font-variation-settings:normal;opacity:1;vector-effect:none;fill:#ff9955;fill-opacity:1;stroke-width:0.121851;stroke-linecap:butt;stroke-linejoin:miter;stroke-miterlimit:4;stroke-dasharray:none;stroke-dashoffset:0;stroke-opacity:1;stop-color:#000000;stop-opacity:1"
     d="m 149.95587,126.09027 c -0.50075,-0.2398 -1.36382,-0.74064 -1.91794,-1.11296 -1.04968,-0.7053 -1.69679,-1.46628 -3.18352,-3.74373 -0.65152,-0.99802 -1.2294,-2.53463 -1.26812,-3.37194 l -0.0242,-0.52298 2.43702,-1.47221 c 4.34977,-2.6277 8.85637,-5.80953 13.70827,-9.67856 4.2197,-3.3649 6.74522,-5.72511 8.57196,-8.010885 0.651,-0.814594 1.26878,-1.513751 1.37284,-1.553682 0.10405,-0.03993 0.53655,0.01996 0.96111,0.133086 l 0.77191,0.205686 0.58874,-0.479133 c 1.04942,-0.854038 3.70872,-3.498043 4.64777,-4.621032 1.12538,-1.345817 1.59463,-2.300117 1.68816,-3.433179 0.10708,-1.297224 -0.0629,-1.714463 -1.1831,-2.903694 -0.53321,-0.566074 -0.96947,-1.076138 -0.96947,-1.133475 0,-0.18802 3.80795,-1.943666 5.17868,-2.387613 3.37235,-1.09223 4.95085,-1.350533 7.6157,-1.246221 5.32345,0.208379 6.83036,0.223388 8.40774,0.08374 3.17533,-0.281107 5.95488,-0.93534 9.1683,-2.15798 2.02639,-0.770998 2.02265,-0.771312 2.36519,0.198932 0.35614,1.00879 0.35359,1.417377 -0.0209,3.329125 -0.16829,0.859255 -0.27152,1.618043 -0.2294,1.686196 0.0421,0.06815 1.05558,-1.347704 2.25214,-3.146348 1.19655,-1.798644 2.32994,-3.443755 2.51863,-3.655802 0.61796,-0.694425 1.71404,-0.644608 2.06804,0.09399 0.17529,0.365726 0.46298,1.689502 0.58503,2.691981 l 0.0846,0.694516 -0.83577,0.538985 c -0.45967,0.296442 -1.60605,0.953398 -2.5475,1.459903 -4.18272,2.250319 -6.47818,2.98233 -13.45875,4.291943 -3.60359,0.676063 -5.33183,1.100645 -7.71619,1.895666 -5.68511,1.895591 -8.54378,4.093114 -9.94325,7.643604 -0.35391,0.897882 -0.58545,2.177155 -0.79775,4.407681 -0.1148,1.20621 -0.25224,2.06981 -0.34399,2.16156 -0.084,0.084 -0.98625,0.31754 -2.0049,0.51887 -3.11859,0.61638 -6.12611,1.72171 -9.53239,3.50334 -8.56643,4.48064 -11.8815,7.95651 -16.62046,17.4267 -0.76826,1.53526 -1.11006,2.10193 -1.26782,2.10193 -0.1188,0 -0.62571,-0.19621 -1.12645,-0.43602 z m -0.11841,-4.14026 c 1.02126,-0.23987 2.59392,-1.00441 3.27985,-1.59449 0.40551,-0.34884 0.68832,-0.77728 1.14714,-1.73777 0.73217,-1.53273 0.87185,-2.34332 0.44333,-2.57266 -0.49738,-0.26619 -3.19612,0.13641 -4.15101,0.61925 -0.70783,0.35791 -1.61401,1.45943 -2.21883,2.69712 -0.71768,1.46866 -0.77978,1.78306 -0.43802,2.21754 0.46023,0.58509 0.77196,0.64478 1.93754,0.37101 z m 19.56516,-16.14149 c 0.19393,-0.0737 0.79237,-0.43175 1.32987,-0.79561 1.08196,-0.73242 1.69027,-0.90725 3.15662,-0.90725 h 0.86666 l 1.12089,-1.17307 c 0.88514,-0.92635 1.16707,-1.15354 1.3405,-1.0802 0.74756,0.31611 1.13783,0.4154 1.65136,0.42015 l 0.57879,0.005 -10e-4,-1.18805 c -6.1e-4,-0.65343 -0.0356,-1.475925 -0.0779,-1.82777 l -0.0768,-0.639719 h -0.74946 c -0.79273,0 -1.9095,0.244254 -2.58727,0.565876 -0.29452,0.139758 -0.5809,0.480686 -1.03427,1.231253 -1.16514,1.92896 -1.52176,2.18744 -3.56083,2.58094 -0.71897,0.13875 -1.33236,0.25228 -1.36305,0.25228 -0.0307,0 -0.39164,0.30874 -0.8021,0.68609 -0.50895,0.46789 -1.11437,0.85809 -1.90361,1.22691 -1.10961,0.51852 -1.23484,0.66384 -0.69889,0.81098 0.37779,0.10372 2.41632,-0.0182 2.81062,-0.16816 z m 7.45797,-8.454466 c 0.71402,-0.461238 1.10039,-0.490708 1.79741,-0.137092 0.3336,0.169239 0.66807,0.307936 0.74328,0.308217 0.0752,2.43e-4 0.17372,-0.230788 0.21893,-0.513485 0.0452,-0.282698 0.24413,-0.832668 0.44205,-1.222158 0.52827,-1.039565 0.51502,-1.066545 -0.52356,-1.065746 -1.12851,8.53e-4 -1.6967,0.162133 -2.23429,0.634149 -0.70498,0.618977 -1.39186,2.289601 -0.94138,2.289601 0.0238,0 0.24767,-0.132068 0.49756,-0.293486 z m 6.91244,-5.619461 c 0.84472,-0.482277 1.28096,-1.118083 1.27825,-1.863003 -0.002,-0.512423 -0.54072,-1.542045 -0.96522,-1.844321 -0.8023,-0.571286 -1.94956,-0.480038 -2.67731,0.21294 -0.62708,0.597124 -0.82049,1.282792 -0.63945,2.266945 0.15912,0.864943 0.47197,1.23715 1.23091,1.464428 0.66184,0.198199 1.1172,0.137327 1.77282,-0.236989 z"
     id="path909" />
  <path
     style="font-variation-settings:normal;opacity:1;vector-effect:none;fill:#ff9955;fill-opacity:1;stroke-width:0.0430809;stroke-linecap:butt;stroke-linejoin:miter;stroke-miterlimit:4;stroke-dasharray:none;stroke-dashoffset:0;stroke-opacity:1;stop-color:#000000;stop-opacity:1"
     d="m 219.86461,78.080123 c -0.12166,-0.154667 -0.14962,-0.542736 -0.0948,-1.315225 0.14726,-2.073342 0.31414,-2.732222 0.78658,-3.105669 0.27958,-0.220993 0.4448,-0.305797 0.56299,-0.288972 0.16229,0.02311 0.40012,0.539697 0.97471,2.117161 0.17118,0.469936 0.30476,0.859223 0.29686,0.865081 -0.008,0.0059 -0.32455,0.28054 -0.70366,0.610404 -0.90061,0.783615 -1.03115,0.888384 -1.33433,1.070949 -0.30171,0.181681 -0.37632,0.18875 -0.4884,0.04627 z"
     id="path911" />
  <path
     style="font-variation-settings:normal;opacity:1;vector-effect:none;fill:#ff9955;fill-opacity:1;stroke-width:0.0430809;stroke-linecap:butt;stroke-linejoin:miter;stroke-miterlimit:4;stroke-dasharray:none;stroke-dashoffset:0;stroke-opacity:1;stop-color:#000000;stop-opacity:1"
     d="m 224.55238,74.315613 c 9e-5,-0.05449 0.0879,-0.351097 0.1951,-0.659125 0.36632,-1.052409 0.50884,-2.010706 0.50938,-3.424934 5.2e-4,-1.368244 -0.0493,-1.653144 -0.52465,-2.999582 -0.31852,-0.902259 -0.40316,-1.288281 -0.40496,-1.847023 -0.002,-0.531594 0.0557,-0.849501 0.26848,-1.486292 0.2681,-0.802426 1.19866,-2.916642 1.90308,-4.323795 0.44359,-0.886104 0.86213,-1.791688 1.07791,-2.332208 1.21219,-3.036558 1.72243,-6.289012 1.53756,-9.800911 -0.0642,-1.218966 -0.0803,-2.965549 -0.0291,-3.147364 0.0249,-0.08833 0.17001,-0.184043 0.73238,-0.483051 1.64407,-0.874141 7.73935,-3.829525 8.64784,-4.193032 0.16689,-0.06678 0.18229,-0.06643 0.26212,0.0058 0.14694,0.13298 0.18741,0.387645 0.18459,1.161634 -0.005,1.416416 -0.37941,4.496322 -1.02608,8.443862 -1.26161,7.701485 -2.70423,11.508292 -6.47011,17.073399 -1.41894,2.096875 -2.51016,3.54357 -3.69449,4.898028 -1.01344,1.159022 -2.84276,3.030943 -3.10583,3.178165 -0.0478,0.02673 -0.0634,0.01102 -0.0633,-0.06358 z"
     id="path913" />
  <path
     style="font-variation-settings:normal;opacity:1;vector-effect:none;fill:#ff9955;fill-opacity:1;stroke-width:0.0861619;stroke-linecap:butt;stroke-linejoin:miter;stroke-miterlimit:4;stroke-dasharray:none;stroke-dashoffset:0;stroke-opacity:1;stop-color:#000000;stop-opacity:1"
     d="m 10.480545,242.82854 c -0.122972,-0.22978 -0.05479,-2.10005 0.09525,-2.61295 0.12479,-0.42657 0.823184,-1.12893 2.028715,-2.04022 1.068669,-0.80784 1.683492,-1.19085 1.911604,-1.19085 0.193583,0 0.277506,0.20859 0.27937,0.69437 0.0019,0.48349 0.16247,0.63562 0.59759,0.56605 0.50496,-0.0808 1.337561,-0.47298 2.206939,-1.03967 0.404367,-0.26358 0.753265,-0.47923 0.775329,-0.47923 0.02206,0 0.04071,0.43619 0.04144,0.96932 7.23e-4,0.53312 0.02981,1.0127 0.06462,1.06572 0.03482,0.053 0.269437,0.20038 0.521381,0.32746 0.251943,0.12708 0.442858,0.27757 0.424256,0.33441 -0.07162,0.21884 -3.195102,1.73378 -5.393442,2.6159 -1.123372,0.45078 -2.879233,0.97661 -3.261969,0.97687 -0.107835,7e-5 -0.234433,-0.0813 -0.291081,-0.18718 z"
     id="path917" />
  <path
     style="font-variation-settings:normal;opacity:1;vector-effect:none;fill:#ffaaaa;fill-opacity:1;stroke-width:0.0430809;stroke-linecap:butt;stroke-linejoin:miter;stroke-miterlimit:4;stroke-dasharray:none;stroke-dashoffset:0;stroke-opacity:1;stop-color:#000000;stop-opacity:1"
     d="m 3.9792839,251.12056 c 0,-0.064 0.2012815,-0.35062 0.9036286,-1.28671 1.1781537,-1.57026 1.5875107,-2.19879 2.0202006,-3.10183 0.3385934,-0.70666 0.4791272,-1.12079 0.7652274,-2.25498 0.2971167,-1.17787 0.5089172,-1.80334 0.8338205,-2.46238 0.2945116,-0.5974 0.5461443,-0.90512 1.0044801,-1.2284 l 0.3101086,-0.21873 0.032456,0.7451 c 0.081198,1.86407 0.3877433,3.50751 0.8111383,4.34864 0.367669,0.73042 1.08543,0.78427 2.031458,0.15241 0.19581,-0.13079 0.690433,-0.53039 1.099163,-0.888 0.491115,-0.4297 0.743088,-0.62448 0.742973,-0.57435 -7.28e-4,0.31824 -0.251242,1.44903 -0.449833,2.03048 -0.292054,0.8551 -0.901622,1.55893 -1.96089,2.26411 -1.793923,1.19426 -4.3896151,2.0059 -7.9823779,2.49598 -0.094315,0.0129 -0.1615535,0.004 -0.1615535,-0.0213 z"
     id="path919" />
  <path
     style="font-variation-settings:normal;opacity:1;vector-effect:none;fill:#ffdd55;fill-opacity:1;stroke-linecap:butt;stroke-linejoin:miter;stroke-miterlimit:4;stroke-dasharray:none;stroke-dashoffset:0;stroke-opacity:1;stop-color:#000000;stop-opacity:1"
     d="m 24.428187,233.39567 c -0.344848,-0.32256 -0.851388,-0.85449 -1.125644,-1.18206 l -0.498648,-0.59558 0.963819,-0.86915 c 2.230711,-2.0116 22.788012,-20.77587 57.754159,-52.71678 35.139547,-32.09931 53.926097,-49.24179 56.196657,-51.27872 l 0.99558,-0.89314 0.418,0.46666 c 1.06596,1.19007 1.6704,1.91375 1.6704,1.99992 0,0.0517 -0.13152,0.1975 -0.29227,0.32395 -0.35674,0.28061 -8.45207,7.68226 -33.15438,30.31341 -47.444339,43.46638 -54.29229,49.73677 -62.878341,57.57517 -13.273728,12.11787 -16.814401,15.31815 -18.337046,16.57412 -1.172236,0.96693 -1.009016,0.94003 -1.712286,0.2822 z"
     id="path921" />
  <path
     style="font-variation-settings:normal;opacity:1;vector-effect:none;fill:#ffdd55;fill-opacity:1;stroke-linecap:butt;stroke-linejoin:miter;stroke-miterlimit:4;stroke-dasharray:none;stroke-dashoffset:0;stroke-opacity:1;stop-color:#000000;stop-opacity:1"
     d="m 140.59748,127.25184 c -0.79198,-0.78938 -1.65814,-1.70247 -1.92481,-2.0291 l -0.48485,-0.59386 0.48485,-0.41964 c 0.26667,-0.2308 0.99345,-0.83314 1.61507,-1.33853 l 1.13022,-0.91889 1.55051,0.38618 c 1.98108,0.49344 2.44107,0.72121 3.18076,1.57505 l 0.60361,0.69676 -2.01317,1.76206 c -1.10724,0.96913 -2.1682,1.88651 -2.3577,2.03863 l -0.34453,0.27657 z"
     id="path923" />
  <path
     style="font-variation-settings:normal;opacity:1;vector-effect:none;fill:#ffdd55;fill-opacity:1;stroke-linecap:butt;stroke-linejoin:miter;stroke-miterlimit:4;stroke-dasharray:none;stroke-dashoffset:0;stroke-opacity:1;stop-color:#000000;stop-opacity:1"
     d="m 19.774059,238.91065 c -0.791906,-0.42054 -0.944055,-0.55042 -0.944165,-0.80596 -7.3e-5,-0.16754 0.158041,-1.22021 0.351365,-2.33926 0.400705,-2.31948 0.462783,-2.45327 1.710742,-3.68687 l 0.857317,-0.84745 0.383444,0.36005 c 0.210894,0.19802 1.035703,1.08776 1.832909,1.97719 1.169011,1.30425 1.427612,1.65791 1.336526,1.82777 -0.151584,0.2827 -2.564557,2.62006 -3.524233,3.41381 -0.422343,0.34932 -0.833591,0.62768 -0.913885,0.61858 -0.08029,-0.009 -0.570802,-0.24214 -1.09002,-0.51786 z"
     id="path925" />
</svg>
