<?xml version="1.0" encoding="UTF-8" standalone="no"?>
<svg
   xmlns:dc="http://purl.org/dc/elements/1.1/"
   xmlns:cc="http://creativecommons.org/ns#"
   xmlns:rdf="http://www.w3.org/1999/02/22-rdf-syntax-ns#"
   xmlns:svg="http://www.w3.org/2000/svg"
   xmlns="http://www.w3.org/2000/svg"
   xmlns:sodipodi="http://sodipodi.sourceforge.net/DTD/sodipodi-0.dtd"
   xmlns:inkscape="http://www.inkscape.org/namespaces/inkscape"
   cursor="default"
   viewBox="0 0 256 256"
   version="1.1"
   id="svg50"
   sodipodi:docname="bladeofthelear.svg"
   inkscape:version="1.0.2-2 (e86c870879, 2021-01-15)">
  <metadata
     id="metadata56">
    <rdf:RDF>
      <cc:Work
         rdf:about="">
        <dc:format>image/svg+xml</dc:format>
        <dc:type
           rdf:resource="http://purl.org/dc/dcmitype/StillImage" />
      </cc:Work>
    </rdf:RDF>
  </metadata>
  <defs
     id="defs54" />
  <sodipodi:namedview
     pagecolor="#ffffff"
     bordercolor="#666666"
     borderopacity="1"
     objecttolerance="10"
     gridtolerance="10"
     guidetolerance="10"
     inkscape:pageopacity="0"
     inkscape:pageshadow="2"
     inkscape:window-width="1920"
     inkscape:window-height="1017"
     id="namedview52"
     showgrid="false"
     inkscape:zoom="2.0516816"
     inkscape:cx="104.19198"
     inkscape:cy="118.81086"
     inkscape:window-x="-8"
     inkscape:window-y="-8"
     inkscape:window-maximized="1"
     inkscape:current-layer="svg50"
     inkscape:document-rotation="0" />
  <path
     style="fill:#000000;stroke-width:0.227706"
     d="m 9.51665,249.69195 c 2.01297,1.13092 4.360762,1.31934 6.496592,0.52137 1.494143,-0.55823 3.332379,-2.44951 4.164716,-4.28488 0.605283,-1.3347 0.922962,-3.83958 0.647768,-5.10734 -0.100077,-0.46099 0.02705,-0.53509 2.773001,-1.61614 1.582818,-0.62313 2.952821,-1.12824 3.044449,-1.12247 0.355123,0.0224 0.964059,1.93697 1.097192,3.4496 0.0768,0.87278 0.0048,2.49992 -0.159901,3.61587 -0.164751,1.11596 -0.232528,2.15515 -0.150627,2.30933 0.341679,0.64319 3.19057,-2.69104 4.157069,-4.86526 0.582684,-1.3108 0.860001,-5.48842 0.480038,-7.23172 -0.200113,-0.91811 -0.184437,-1.43078 0.05007,-1.63788 0.187774,-0.16583 9.683112,-9.07376 21.100804,-19.79542 11.417707,-10.72169 21.46534,-20.15063 22.328075,-20.95323 l 1.568633,-1.45926 1.963352,0.76128 c 3.900451,1.51235 8.60952,2.20885 11.92983,1.76454 2.238797,-0.29962 6.506272,-1.41755 9.368039,-2.45409 1.16963,-0.42366 2.16556,-0.80462 2.21318,-0.84658 0.26822,-0.23636 -0.52392,-0.46327 -3.306136,-0.94735 -3.803951,-0.66173 -7.20675,-1.576 -7.93731,-2.13256 -1.158177,-0.88235 -0.76371,-2.10312 0.782426,-2.42143 1.5341,-0.31586 1.329409,-0.64743 -1.102243,-1.78546 l -1.780862,-0.83345 1.475219,-1.49371 c 0.811357,-0.82152 2.507107,-2.41835 3.768304,-3.54848 l 2.293112,-2.05479 7.75523,-1.52453 c 4.26537,-0.83852 7.81324,-1.57497 7.88415,-1.63657 0.22893,-0.19901 -0.33585,-0.66842 -3.7795,-3.14131 -1.86089,-1.33633 -3.37813,-2.51386 -3.37164,-2.61672 0.0175,-0.27786 5.02949,-3.98501 7.98262,-5.90444 5.77127,-3.75116 9.24498,-3.57044 17.40395,0.90539 1.83164,1.00482 1.92884,1.02857 2.35722,0.57643 0.24573,-0.25938 15.64417,-15.77273 34.21874,-34.47412 18.57458,-18.7014 38.33056,-38.593581 43.9022,-44.204826 7.00481,-7.054624 11.36558,-11.297546 14.13428,-13.75225 4.17994,-3.705922 4.94903,-4.256756 9.42761,-6.752293 l 2.47679,-1.380123 1.20485,-2.363473 c 3.19481,-6.26709 6.61668,-14.249903 8.08069,-18.851326 1.42767,-4.487172 2.50189,-10.679888 3.43711,-19.814456 0.71607,-6.9941 1.27561,-15.6567704 1.01239,-15.673558 -0.13629,-0.00854 -2.12171,3.1627228 -4.4121,7.047571 -8.14663,13.817949 -10.00633,16.398398 -16.00697,22.210668 -2.60607,2.524262 -7.31609,6.182059 -8.91941,6.926812 -0.65145,0.302588 -1.97872,0.838324 -2.9495,1.190507 l -1.76504,0.640339 -2.11924,4.595326 c -4.26001,9.237293 -4.637,9.733425 -16.20643,21.32847 -14.48319,14.515261 -39.7753,39.607582 -53.68058,53.256542 -7.54022,7.40124 -10.65121,9.76692 -13.98707,10.63607 -1.89475,0.49369 -3.22175,0.48556 -5.16852,-0.0316 -1.45291,-0.38599 -5.53507,-2.3521 -8.21864,-3.95838 -0.62043,-0.37136 -1.22926,-0.6869 -1.35297,-0.70117 -0.1237,-0.0137 -2.58544,3.20284 -5.47051,7.14916 -2.88507,3.94632 -5.39578,7.35242 -5.57936,7.5691 -0.28605,0.33765 -0.67012,0.26744 -2.68588,-0.49104 -1.29365,-0.48676 -2.435025,-0.89026 -2.536386,-0.89666 -0.101426,-0.007 -1.058509,1.60748 -2.126981,3.58637 -2.375841,4.40027 -4.015942,7.15805 -4.522453,7.60442 -0.39955,0.3521 -1.784275,0.16822 -2.188619,-0.29055 -0.124481,-0.14123 -0.36304,-0.80652 -0.53014,-1.47835 -0.24922,-1.00199 -0.407844,-1.27636 -0.882538,-1.5266 -0.318331,-0.16771 -0.617525,-0.27086 -0.664944,-0.22907 -0.158739,0.13987 -2.344868,4.52124 -4.448638,8.91578 l -2.083333,4.35185 -4.56163,4.20875 c -2.508897,2.3148 -4.589838,4.17674 -4.624321,4.1376 -0.03446,-0.0391 -0.421418,-0.96094 -0.859846,-2.04851 -0.9672,-2.3992 -1.596809,-4.7368 -2.024462,-7.51632 -0.192716,-1.25259 -0.438183,-2.09561 -0.613381,-2.10667 -0.376752,-0.0237 -2.812074,5.87351 -3.53592,8.5624 -1.170933,4.34973 -0.564425,9.59834 1.642189,14.21103 l 0.612812,1.28102 -1.758007,1.75924 c -0.966928,0.96762 -5.501184,5.33837 -10.076157,9.71281 -4.574959,4.37444 -9.089982,8.70496 -10.03338,9.62338 -3.933802,3.82965 -20.67751,19.88659 -21.422553,20.54387 -0.802591,0.7079 -0.816816,0.70957 -2.040356,0.22171 -2.852197,-1.13726 -6.997619,-0.65076 -9.850916,1.15608 -1.457792,0.92313 -4.1659486,3.33403 -4.1104964,3.65931 0.018803,0.11015 0.8030836,0.10042 1.7429154,-0.0219 2.793036,-0.36326 4.156014,-0.34842 5.892316,0.0642 2.949213,0.70076 2.846578,0.54366 1.637114,2.50585 -1.716737,2.78518 -1.703813,2.77414 -2.905595,2.48045 -1.479488,-0.36154 -3.699627,-0.0265 -5.350762,0.80759 -1.2255984,0.61909 -1.5594474,0.89292 -2.6425689,2.16743 -2.3548198,2.77094 -2.9118216,5.25589 -1.7435988,7.77856 0.6462223,1.39545 2.5326033,3.50512 3.7413488,4.18425 z m -3.3627675,-4.67314 c -0.5713422,-1.23415 -0.4160162,-3.50874 0.3349231,-4.90413 0.3243058,-0.60261 1.2133548,-1.69768 2.0374853,-2.50962 1.2297975,-1.2116 1.6665261,-1.5176 2.7484521,-1.92575 1.5299,-0.57715 3.663876,-0.62683 5.198703,-0.12108 3.234189,1.06583 4.932258,6.85013 3.059463,10.4217 -1.507727,2.87532 -3.540765,4.20499 -6.303956,4.12302 -2.487752,-0.0738 -4.1188376,-0.91736 -5.7068167,-2.95139 -0.5147082,-0.65922 -1.1303951,-1.61902 -1.3682538,-2.13281 z m 7.6557345,-18.68975 c 1.34919,-0.87769 4.486825,-1.61042 6.334139,-1.47919 3.008213,0.21371 5.428052,1.63433 8.281991,4.86212 2.366252,2.67733 3.230442,4.8089 3.326769,8.21283 0.08799,3.10944 -0.723715,5.1849 -3.207085,8.20027 l -0.554143,0.67286 0.224588,-2.68613 c 0.351811,-4.20749 -0.590722,-6.84028 -3.708868,-10.36019 -1.476634,-1.66783 -1.979101,-2.09878 -3.361629,-2.8887 -2.852585,-1.62989 -6.185534,-2.28159 -9.38403,-1.83481 l -1.198831,0.16753 1.223449,-1.17296 c 0.672895,-0.64512 1.583604,-1.40718 2.023654,-1.69354 z m 6.01316,11.67077 c -0.391004,-0.83168 -0.848911,-1.44866 -1.530637,-2.06228 l -0.972666,-0.87566 1.334294,-2.11437 1.334293,-2.1144 1.075822,0.60542 c 0.837805,0.47149 1.548806,1.14214 3.213721,3.03139 1.23126,1.39717 2.125067,2.55734 2.107507,2.73591 -0.04561,0.46541 -5.746266,2.67499 -5.891764,2.28364 -0.06194,-0.16669 -0.363694,-0.837 -0.670519,-1.4897 z m 12.176354,-7.81558 c 0.112629,-0.0992 0.84916,-0.13372 1.636735,-0.0765 l 1.431951,0.10383 -1.38828,1.22343 c -0.763546,0.67288 -1.481815,1.4012 -1.59614,1.61845 -0.127453,0.2422 -0.223537,-0.20149 -0.248456,-1.14684 -0.02234,-0.84801 0.05156,-1.62306 0.164188,-1.72231 z m -2.293271,-0.0323 c -0.05388,-0.22724 0.176409,-0.29624 0.809435,-0.24265 l 0.884849,0.075 -0.09186,1.22367 -0.0919,1.22369 -0.717523,-0.98106 c -0.394675,-0.53957 -0.751491,-1.12394 -0.792975,-1.2986 z m -2.974522,-4.09064 c 0.642004,-0.0292 1.244889,0.035 1.339744,0.1426 0.178243,0.20226 0.107728,1.88387 -0.08616,2.05472 -0.06022,0.0531 -0.460024,-0.24334 -0.888521,-0.65864 -0.428548,-0.41526 -0.948511,-0.91953 -1.155757,-1.12035 -0.363975,-0.35309 -0.337311,-0.36727 0.790669,-0.41836 z m 1.951252,1.43926 0.02364,-1.4369 1.449458,0.1093 1.449469,0.1093 -0.077,1.43364 c -0.04235,0.78851 -0.168355,1.51415 -0.27999,1.61254 -0.22235,0.19593 -2.248158,-0.003 -2.458483,-0.24273 -0.07192,-0.0816 -0.12011,-0.79496 -0.107096,-1.58525 z m -1.562779,-3.92132 1.183004,-1.06393 -0.09574,1.51684 -0.09576,1.51685 -1.284945,-0.0657 c -1.543418,-0.0789 -1.512425,-0.28008 0.293401,-1.90403 z m 4.890779,4.1624 0.10421,-1.43677 1.674436,0.10571 1.674449,0.10571 -0.08886,1.60026 -0.08884,1.60026 -1.527315,-0.0847 c -0.840019,-0.0466 -1.600437,-0.1677 -1.689815,-0.2692 -0.08937,-0.10144 -0.115601,-0.83093 -0.05829,-1.62114 z m -2.796455,-5.36616 c 0.25223,-0.0202 0.913187,-0.0263 1.468792,-0.0137 l 1.010195,0.023 -0.0961,1.69057 -0.0961,1.69057 -1.348041,-0.0724 -1.348055,-0.0724 -0.02464,-1.60452 c -0.02092,-1.36071 0.04503,-1.6101 0.433952,-1.64127 z m 3.79577,-0.0847 c 0.367643,-0.0205 1.178823,-0.0382 1.802598,-0.0394 l 1.13414,-0.002 -0.200943,1.80636 -0.200957,1.80636 -1.696624,-0.0965 -1.69661,-0.0965 0.09497,-1.67048 c 0.09451,-1.66264 0.09806,-1.67062 0.763425,-1.70783 z m 3.494835,4.21551 c 0.221026,-0.0506 0.815892,-0.0553 1.321943,-0.0102 l 0.920092,0.0811 -0.960487,1.04288 c -1.8604,2.02 -1.846573,2.0169 -1.759536,0.39643 0.05689,-1.05909 0.177801,-1.44097 0.477984,-1.50962 z m -5.691955,-6.48498 1.097298,-0.98839 -0.0842,1.33403 -0.08419,1.33403 -1.223593,0.0644 c -1.075573,0.0565 -1.198125,0.0154 -1.013129,-0.34567 0.115737,-0.22548 0.704255,-0.85474 1.307792,-1.39835 z m 5.467137,3.9783 0.12069,-1.73911 1.35352,-0.0485 c 0.744448,-0.0266 1.382325,0.0302 1.417505,0.12655 0.03525,0.0963 -0.02447,0.97438 -0.132593,1.95118 l -0.196552,1.77597 -1.254131,-0.0642 c -0.68975,-0.0353 -1.293491,-0.10879 -1.341617,-0.16344 -0.04813,-0.0546 -0.0332,-0.88189 0.03318,-1.83839 z m -3.887352,-3.83451 -0.01418,-1.31357 1.872251,-0.0494 1.872249,-0.0492 -0.09169,1.45257 -0.09169,1.45257 -1.66562,0.0256 c -0.916103,0.0137 -1.711001,-0.0263 -1.766445,-0.0897 -0.05569,-0.0632 -0.107164,-0.70643 -0.114934,-1.4289 z m 7.533989,2.13654 c 0.07996,-0.0782 0.894523,-0.1537 1.81,-0.1677 l 1.664509,-0.0256 -0.408802,0.55235 c -0.224813,0.3038 -1.131207,1.20491 -2.014174,2.00248 l -1.605396,1.45013 0.204176,-1.83474 c 0.112288,-1.00912 0.269648,-1.89873 0.349679,-1.97691 z m -4.992919,-6.20646 1.430674,-1.29104 -0.08875,1.59862 c -0.04883,0.87926 -0.164632,1.63007 -0.257396,1.6685 -0.09272,0.0384 -0.827756,0.10434 -1.633343,0.1467 -1.368604,0.0717 -1.445602,0.047 -1.173294,-0.37746 0.160277,-0.2498 0.935232,-1.03517 1.722108,-1.74525 z m 1.751276,2.67752 c 0.05147,-0.0441 0.739077,-0.0893 1.528086,-0.10025 1.596467,-0.022 1.609385,-0.003 1.26762,1.89072 l -0.192059,1.06393 -1.423123,8e-4 -1.423138,8.2e-4 0.07456,-1.38781 c 0.04099,-0.76326 0.116626,-1.42399 0.168064,-1.46824 z m 1.9698,-4.39826 1.627164,-0.18081 -0.197522,1.77429 c -0.108633,0.97585 -0.271596,1.84584 -0.362145,1.93329 -0.09046,0.0874 -0.776586,0.18613 -1.524559,0.21932 l -1.359935,0.0603 0.09492,-1.81277 0.09492,-1.8128 z m 1.461563,5.6517 0.177173,-1.39158 1.061259,-0.0444 c 0.583682,-0.0244 1.46189,-0.0548 1.951583,-0.0673 l 0.89035,-0.0229 -0.125318,0.89101 c -0.302371,2.14963 -0.267902,2.10825 -1.784882,2.14274 -0.751982,0.0171 -1.542367,0.0495 -1.75641,0.0721 -0.576141,0.0606 -0.607406,-0.0586 -0.413749,-1.57956 z m 0.509851,-4.10483 0.193862,-1.75104 1.921528,-0.22874 c 1.056859,-0.12587 1.968109,-0.18089 2.024991,-0.12228 0.102912,0.1064 -0.289416,3.25696 -0.475547,3.81631 -0.105593,0.31731 -3.680713,0.52206 -3.792525,0.21718 -0.03641,-0.0992 0.02108,-0.9683 0.127693,-1.93136 z m -1.634155,-3.73632 1.654899,-1.45839 -0.0375,0.90069 c -0.02063,0.49538 -0.133498,1.15801 -0.25081,1.4725 -0.190413,0.51044 -0.350599,0.58552 -1.492367,0.69958 -0.703474,0.0702 -1.335324,0.0639 -1.404088,-0.0137 -0.06876,-0.078 0.619669,-0.79814 1.529869,-1.60026 z m 5.831617,6.40325 c 0.191559,-0.18179 2.409625,-0.25905 2.559353,-0.0891 0.06894,0.0782 -0.587771,0.76662 -1.459365,1.52973 l -1.584755,1.38748 0.17554,-1.35062 c 0.09656,-0.74286 0.235689,-1.40771 0.309197,-1.47747 z m -1.461974,-8.69044 c 1.107965,-0.14345 2.046856,-0.17605 2.086424,-0.0724 0.102809,0.26905 -0.366994,3.06381 -0.540761,3.21695 -0.07982,0.0704 -0.999642,0.23219 -2.044122,0.35973 l -1.89903,0.23185 0.19149,-1.7376 0.191513,-1.73762 z m 1.830285,5.79337 0.330522,-2.01307 1.705428,-0.15968 1.705429,-0.15968 -0.430556,2.08927 c -0.236798,1.14909 -0.499244,2.14981 -0.583232,2.22383 -0.187655,0.16531 -2.82768,0.29055 -2.9616,0.14038 -0.0527,-0.0598 0.05222,-1.01404 0.234009,-2.12121 z m 0.933899,-10.25477 c 0.04852,8e-4 -0.02166,0.81307 -0.155939,1.80503 l -0.244135,1.80355 -1.945532,0.24157 -1.945534,0.24155 2.101476,-2.04659 c 1.155813,-1.12563 2.141159,-2.04591 2.189666,-2.04511 z m 2.974226,9.87418 c 0.171012,-0.92651 0.401283,-1.7642 0.511728,-1.86153 0.32288,-0.28454 3.45214,-0.56125 3.495119,-0.30908 0.03614,0.21175 -4.145356,4.05076 -4.264669,3.91537 -0.02919,-0.0331 0.08684,-0.81826 0.257822,-1.74476 z m -2.830036,-5.58412 c 0.18846,-0.1745 3.394571,-0.6925 3.505657,-0.56644 0.02234,0.0253 -0.135821,0.85376 -0.351484,1.8409 l -0.392098,1.79479 -1.674295,0.16071 -1.674295,0.1607 0.184197,-1.59431 c 0.101306,-0.87689 0.282348,-1.68519 0.402318,-1.79623 z m 0.304104,-2.79695 c 0.179032,-1.10918 0.374925,-2.06023 0.435311,-2.11345 0.1066,-0.0939 3.655098,-0.50228 3.720414,-0.42816 0.106994,0.12142 -0.775229,3.90288 -0.945573,4.053 -0.154983,0.13662 -3.431555,0.62341 -3.520034,0.52301 -0.0085,-0.0103 0.130869,-0.92523 0.309882,-2.0344 z m 3.449351,3.86144 0.334402,-1.71496 1.896859,-0.23439 c 1.043275,-0.12894 1.979099,-0.20945 2.079628,-0.17893 0.181906,0.0553 -0.04935,2.02952 -0.358848,3.06284 -0.14629,0.48839 -0.357619,0.56582 -2.114942,0.77486 -1.073831,0.12774 -2.001733,0.18125 -2.061967,0.11886 -0.05982,-0.0627 0.04094,-0.88508 0.224868,-1.8283 z m 0.920182,-4.49903 0.429353,-1.96089 1.617877,-0.17978 c 0.889824,-0.0989 1.766205,-0.15643 1.947524,-0.12809 0.224881,0.0354 0.234822,0.63961 0.03113,1.90251 -0.164171,1.01792 -0.360773,1.90565 -0.436879,1.97271 -0.188474,0.16617 -3.832453,0.59172 -3.935826,0.45972 -0.04474,-0.0586 0.110683,-0.98777 0.346813,-2.06624 z m -0.42393,-5.10587 1.083236,-0.87333 -0.360062,1.73876 -0.360045,1.73874 -1.604316,0.14414 -1.604341,0.14414 0.881157,-1.00955 c 0.484646,-0.55526 1.368609,-1.40255 1.964371,-1.88288 z m 4.620774,7.40244 c 0.194915,-0.18839 3.088553,-0.50351 3.226909,-0.35145 0.06338,0.0693 -0.75132,0.88694 -1.810071,1.81653 l -1.92495,1.69024 0.185586,-1.51145 c 0.102058,-0.83127 0.247228,-1.571 0.322576,-1.64381 z m 0.402436,-2.78471 c 0.156366,-1.00591 0.368051,-1.85706 0.47035,-1.89142 0.434985,-0.14618 3.345471,-0.40152 3.436824,-0.30159 0.137359,0.15062 -0.340584,3.5929 -0.521179,3.75205 -0.221352,0.19506 -3.547918,0.57433 -3.613228,0.41195 -0.03147,-0.078 0.07086,-0.96508 0.227233,-1.97099 z m -3.424059,-5.07938 0.246577,-0.99927 1.682745,-0.15934 c 0.925516,-0.0876 1.733328,-0.10639 1.795166,-0.0418 0.121561,0.12758 -0.376154,3.60528 -0.536453,3.74655 -0.05369,0.0473 -0.917756,0.17044 -1.920203,0.27361 l -1.822618,0.18762 0.154094,-1.00403 c 0.08474,-0.55222 0.265057,-1.45371 0.400687,-2.00332 z m 4.163987,0.49801 0.315853,-1.87588 1.833009,-0.16361 1.832999,-0.1636 -0.174479,1.43854 c -0.29707,2.44904 -0.307508,2.46147 -2.2419,2.67148 -0.930654,0.1011 -1.734677,0.13543 -1.786721,0.0763 -0.05204,-0.0591 0.04753,-0.95155 0.221239,-1.98329 z m 3.831319,2.71922 c 0.07094,-0.44498 0.268064,-0.51606 1.781378,-0.6424 0.935865,-0.078 1.695661,-0.0478 1.688405,0.0671 -0.0073,0.1151 -0.884699,0.97725 -1.949843,1.91591 l -1.93665,1.70668 0.168491,-1.27353 c 0.09267,-0.70046 0.204364,-1.49868 0.24822,-1.77388 z m -5.396595,-6.82444 1.924161,-1.69113 -0.168252,1.1867 c -0.304745,2.14934 -0.359519,2.21381 -1.99399,2.3466 -0.797074,0.0647 -1.502505,0.0572 -1.567632,-0.0171 -0.06514,-0.0739 0.747448,-0.89538 1.805727,-1.82552 z m 5.867023,3.80074 0.28218,-1.93388 1.809318,-0.15592 c 0.995127,-0.0857 1.856593,-0.10862 1.91436,-0.0509 0.05776,0.0577 -0.0051,0.9191 -0.139835,1.91408 l -0.24489,1.80907 -1.298025,0.14243 c -1.900196,0.20859 -2.534026,0.26679 -2.571726,0.23619 -0.01808,-0.0154 0.09342,-0.89753 0.248613,-1.96119 z m -3.373071,-5.40927 0.159662,-0.72723 1.786784,-0.0859 1.786769,-0.0859 -0.283223,1.94094 -0.283209,1.94093 -1.813023,0.15917 -1.813022,0.15917 0.149825,-1.28703 c 0.0824,-0.70787 0.221657,-1.61428 0.309449,-2.01425 z m 4.190662,0.0663 c 0.113637,-0.6349 0.279528,-0.93962 0.52154,-0.95803 0.195201,-0.0154 0.983307,-0.0569 1.751388,-0.0934 l 1.39648,-0.0664 -0.04635,1.08196 c -0.02551,0.5951 -0.121715,1.41271 -0.213801,1.81693 l -0.167467,0.73498 -1.844057,0.17664 -1.84407,0.17665 0.139851,-0.96905 c 0.0769,-0.53297 0.21484,-1.38803 0.306484,-1.90008 z m -1.741681,-3.20173 c 1.760845,-1.71122 1.76737,-1.71532 1.760064,-1.10244 -0.0041,0.33835 -0.09378,1.09578 -0.199423,1.68317 l -0.192081,1.06801 -1.579577,0.0938 c -0.868759,0.0516 -1.574341,0.0671 -1.567969,0.0345 0.0063,-0.0326 0.806918,-0.83228 1.778981,-1.77697 z m 5.559502,6.6841 c 0.11666,-0.32134 0.542824,-0.46039 1.820631,-0.59403 0.917586,-0.096 1.721184,-0.11869 1.785771,-0.0504 0.06466,0.0682 -0.782206,0.91695 -1.881816,1.88599 l -1.999291,1.76191 0.06119,-1.29201 c 0.03364,-0.71059 0.129724,-1.48076 0.213505,-1.7115 z m -2.416811,-8.96406 c 0.335159,-0.0393 1.124423,-0.0734 1.753915,-0.076 l 1.144568,-0.005 -0.235916,1.93168 -0.235916,1.93167 -1.799831,0.0758 -1.799833,0.0758 0.281819,-1.93143 c 0.268291,-1.83865 0.311106,-1.93487 0.891194,-2.00285 z m 2.720961,6.04586 0.220875,-1.71091 1.696272,-0.0958 c 0.932957,-0.0528 1.769264,-0.0736 1.85845,-0.0466 0.0892,0.0272 0.108907,0.81691 0.0438,1.75517 l -0.118384,1.70592 -1.853469,0.15934 c -1.019412,0.0876 -1.901831,0.11084 -1.960929,0.0516 -0.05909,-0.0593 -0.008,-0.87769 0.11338,-1.81866 z m 0.507879,-4.43193 0.19433,-1.75534 1.65089,-0.0253 c 0.907983,-0.0137 1.69135,0.0205 1.740791,0.0767 0.143523,0.16293 -0.08638,3.46328 -0.25139,3.6087 -0.220915,0.19467 -3.399147,0.20957 -3.469055,0.0171 -0.03289,-0.091 0.02755,-0.95541 0.134437,-1.92086 z m -0.684619,-4.8281 0.758259,-0.68938 -0.185576,1.51143 c -0.102075,0.83129 -0.248012,1.56926 -0.324313,1.63993 -0.07634,0.0707 -0.725257,0.13321 -1.442095,0.13902 l -1.303344,0.0102 0.869452,-0.96091 c 0.478214,-0.52851 1.210663,-1.27116 1.627667,-1.65036 z m 6.278732,7.26657 c 0.844165,-0.0461 1.589949,-0.0299 1.657291,0.036 0.06722,0.0659 -0.662652,0.81161 -1.622194,1.65721 l -1.744652,1.53748 0.08735,-1.57344 0.08735,-1.57345 z M 72.04701,189.854 c 0.916377,-0.0137 1.714033,0.0287 1.772563,0.0951 0.05853,0.0664 0.05262,0.89584 -0.01315,1.84312 l -0.119529,1.7224 -1.771801,0.0857 -1.771812,0.0857 0.118778,-1.90329 0.118794,-1.90331 z m -5.259112,-3.97917 c 0.08037,-0.0675 0.829927,-0.12177 1.665539,-0.12057 l 1.519312,0.002 -0.104142,1.77604 -0.104158,1.77605 -1.704859,0.0704 -1.704875,0.0704 0.143455,-1.72585 c 0.0789,-0.94921 0.209269,-1.78103 0.289718,-1.84849 z m 3.722278,1.90059 0.101751,-1.40262 1.143869,1.07638 c 0.629143,0.59199 1.339666,1.22273 1.578967,1.40162 0.394734,0.29501 0.386552,0.33041 -0.08769,0.38079 -0.900374,0.0956 -2.646488,0.11357 -2.744693,0.0282 -0.05127,-0.0453 -0.04813,-0.71287 0.0079,-1.48432 z m 3.976692,2.23472 c 0.05612,-0.0495 0.563613,0.18622 1.127854,0.52361 l 1.025905,0.61348 -1.216424,1.07196 -1.216435,1.07201 0.08858,-1.59562 c 0.04872,-0.87758 0.134455,-1.63603 0.19052,-1.68544 z m -5.905572,-6.1984 c 0.239815,-0.0996 1.263385,1.18408 1.075936,1.34928 -0.05574,0.0492 -0.579111,0.0666 -1.163096,0.0389 l -1.061798,-0.0504 0.456603,-0.61994 c 0.251132,-0.34098 0.562722,-0.66405 0.69242,-0.71791 z m -0.195293,-2.08307 c -1.007919,-2.10473 -2.059654,-6.02411 -2.253085,-8.39631 -0.181158,-2.22147 0.148903,-4.32631 1.178769,-7.51704 0.697584,-2.16127 2.033566,-5.38186 2.227071,-5.36867 0.04796,0.003 0.279994,1.06524 0.515617,2.35997 1.025545,5.63512 3.924495,11.44874 7.565877,15.17287 2.125034,2.1732 3.534277,2.93285 7.225114,3.89424 2.652778,0.69099 6.495336,2.12703 6.89008,2.57495 0.09096,0.10315 -0.163846,0.31828 -0.682812,0.5764 -0.974897,0.48487 -1.138213,0.97754 -0.726836,2.19264 0.23179,0.68467 0.368677,0.81879 1.250925,1.22548 1.238506,0.57097 3.359764,1.12035 6.658909,1.72469 1.407623,0.25783 2.556028,0.52064 2.552038,0.58398 -0.0149,0.23672 -5.207115,1.84454 -7.416616,2.29665 -3.221352,0.65917 -5.179196,0.74093 -7.79833,0.32564 -4.831836,-0.76608 -8.029259,-2.0181 -11.272261,-4.41379 -1.783668,-1.31765 -4.917009,-5.14884 -5.914446,-7.23172 z m 6.365066,4.84009 c 0.135412,-0.0231 0.234666,-0.47595 0.220423,-1.00638 -0.03498,-1.30248 0.201786,-1.90031 1.055608,-2.66549 l 0.720737,-0.64586 -1.81295,-2.05723 c -2.283757,-2.59148 -3.244347,-4.26494 -4.868279,-8.48099 -0.701832,-1.82212 -1.318712,-3.36133 -1.370828,-3.42047 -0.476598,-0.54081 -0.717359,2.31608 -0.496597,5.89261 0.110973,1.79751 0.627193,3.47772 1.652582,5.37857 0.818647,1.51764 1.545165,2.6283 4.036829,6.17111 0.338863,0.48191 0.727008,0.85727 0.862542,0.83413 z m -2.339528,-3.9103 c -1.95298,-2.90449 -3.065007,-5.11185 -3.399592,-6.74811 -0.274597,-1.34303 -0.464764,-5.68539 -0.248364,-5.67175 0.06488,0.003 0.487689,0.97196 0.939448,2.1508 1.427233,3.7242 2.188036,5.03924 4.305568,7.44209 l 1.911706,2.1693 -0.666455,0.79192 c -0.379509,0.45094 -0.723601,1.17268 -0.799142,1.6762 -0.156742,1.04463 -0.07426,1.11774 -2.043169,-1.81045 z m 6.466776,6.46327 c 0.437967,0.3358 1.379883,0.87152 2.093131,1.1905 3.628964,1.62292 5.596504,1.23863 6.604402,-1.2899 0.59129,-1.48337 0.329208,-2.54873 -0.997096,-4.05334 -0.989908,-1.12298 -1.152907,-1.22068 -2.680415,-1.60608 -1.765406,-0.44544 -3.357304,-0.51847 -4.588557,-0.21049 -1.662155,0.41578 -2.705844,2.69426 -1.949065,4.25502 0.429637,0.88612 0.413094,0.86742 1.517575,1.71432 z m -1.153206,-2.71993 c -0.05472,-0.97858 0.525867,-2.2352 1.164543,-2.52056 1.572009,-0.70236 5.385116,-0.19827 6.77241,0.89535 1.582463,1.24748 2.0587,3.29844 1.101276,4.74271 -1.093775,1.64994 -3.222243,1.60533 -6.335966,-0.13269 -1.803507,-1.00672 -2.643549,-1.9346 -2.702263,-2.98474 z m 5.323561,2.27457 c 1.971358,0.25352 2.692296,-1.38651 1.302669,-2.96339 -0.551345,-0.62564 -0.774264,-0.71586 -1.620074,-0.65593 -1.8836,0.13355 -2.533677,1.45296 -1.367707,2.77604 0.481883,0.5468 0.86305,0.73756 1.685112,0.84328 z m -1.747517,-1.95974 c -0.157049,-0.6678 0.35788,-1.05084 1.446111,-1.07572 1.079955,-0.0248 1.746393,0.58511 1.782646,1.63115 0.0228,0.6574 -0.01452,0.70397 -0.683953,0.85482 -1.158276,0.261 -2.300682,-0.37209 -2.544809,-1.41025 z m -6.788714,-13.73992 -1.031029,-1.71763 4.728499,-4.33752 4.728485,-4.33752 1.643667,-3.47313 c 1.940499,-4.10047 4.479075,-9.2603 4.614722,-9.37982 0.243325,-0.21444 0.697089,0.68277 0.814787,1.61112 0.09251,0.72964 0.271448,1.12547 0.617518,1.3662 0.676563,0.4706 1.536566,0.68442 2.308243,0.57384 0.602586,-0.0864 0.721423,-0.19966 1.523308,-1.4524 0.478358,-0.7473 1.837096,-3.12819 3.019435,-5.29086 1.182326,-2.16267 2.245019,-4.08593 2.361509,-4.27389 0.165005,-0.26622 0.739245,-0.12911 2.598485,0.62074 1.61449,0.65108 2.48031,0.87994 2.67614,0.70737 0.15922,-0.14021 2.69776,-3.54891 5.64123,-7.57467 2.94346,-4.02576 5.39053,-7.30903 5.4379,-7.29614 0.0473,0.0137 1.37283,0.73335 2.94542,1.60104 4.23873,2.33875 5.93765,3.00891 8.17675,3.22537 4.4848,0.43356 8.1523,-1.53922 14.67556,-7.89413 13.06981,-12.73247 51.78587,-51.139948 61.64974,-61.158337 6.61241,-6.716002 7.99362,-8.736139 12.0217,-17.582654 0.92372,-2.028693 1.69165,-3.43404 1.95014,-3.568905 0.23451,-0.122449 1.45226,-0.634379 2.70609,-1.137804 1.75234,-0.703578 2.78533,-1.284179 4.46543,-2.509797 2.49957,-1.823399 8.49729,-7.31035 10.55795,-9.658795 2.55113,-2.907441 7.55453,-10.626638 13.04656,-20.1281442 1.08631,-1.8793636 2.01969,-3.4141961 2.0742,-3.4107634 0.13048,0.00854 -1.15684,14.6482126 -1.62925,18.5283986 -0.84169,6.913372 -1.63466,11.09922 -2.82016,14.886724 -1.41102,4.508058 -4.75289,12.358755 -7.95871,18.696599 l -1.33098,2.63129 -2.14783,1.170286 c -3.8104,2.076171 -5.88254,3.536833 -9.34037,6.584075 -3.50702,3.090568 -9.51601,9.092027 -60.71026,60.634197 -16.58469,16.69738 -30.59117,30.78011 -31.12552,31.29493 l -0.97152,0.93604 -2.59698,-1.3535 c -3.49539,-1.82174 -5.69134,-2.62256 -7.86822,-2.86937 -2.08855,-0.23679 -3.93277,-0.0137 -5.65921,0.68467 -2.21271,0.89504 -11.78553,7.60544 -11.84822,8.30542 -0.013,0.14516 1.52984,1.37853 3.4285,2.74106 1.89867,1.36254 3.44864,2.53252 3.44439,2.59994 -0.004,0.0675 -3.29322,0.76535 -7.30879,1.55092 l -7.301082,1.42835 -4.103616,3.64678 -4.103591,3.64675 -2.75197,-0.70643 c -3.237005,-0.83091 -4.71595,-1.44002 -6.343569,-2.61252 -1.411589,-1.01689 -3.374352,-3.39647 -4.905546,-5.94733 z m 4.77825,4.91436 c 1.801474,1.2731 3.974055,1.90095 5.76281,1.66535 1.620712,-0.21344 4.376699,-1.49405 5.78088,-2.68617 0.983353,-0.83485 1.238637,-1.18563 1.549695,-2.12953 0.396032,-1.20173 0.466547,-3.20546 0.156025,-4.43398 -0.103527,-0.40956 -0.188314,-0.79358 -0.188427,-0.85337 -1.09e-4,-0.0598 1.641862,-0.43649 3.648867,-0.83713 3.32981,-0.66467 4.117329,-0.92687 3.420006,-1.13865 -0.33659,-0.1023 -11.448916,2.15075 -11.700147,2.37214 -0.462897,0.40795 0.1633,0.42321 1.966825,0.0482 1.058033,-0.22006 1.955646,-0.36388 1.994698,-0.31956 0.574625,0.65206 0.537542,4.5117 -0.05414,5.63416 -0.978483,1.85626 -5.714851,4.11231 -8.01297,3.81676 -3.125679,-0.40196 -6.437203,-3.08577 -6.990097,-5.66511 -0.407274,-1.90002 0.938262,-4.1329 4.203405,-6.97536 1.527971,-1.33014 2.139889,-1.73611 3.200011,-2.12288 1.39284,-0.50815 4.424397,-1.01549 7.169008,-1.19973 1.726949,-0.11596 2.096577,-0.35023 1.124517,-0.71285 -0.432553,-0.16139 -0.666452,-0.41529 -0.99572,-1.08107 -1.248753,-2.52467 0.104175,-5.32285 4.395466,-9.09093 0.910771,-0.79966 2.260186,-1.7948 2.998742,-2.2113 1.527385,-0.86138 5.405935,-2.29096 8.324575,-3.06833 1.78352,-0.47504 2.11019,-0.47969 3.3799,-0.048 0.77305,0.26285 2.00302,0.47643 2.73326,0.47463 1.9397,-0.005 6.3791,-0.87342 9.49721,-1.85829 1.4952,-0.47227 3.27276,-1.03029 3.95014,-1.24006 1.38011,-0.4274 2.16621,-0.29221 3.46915,0.59662 0.48983,0.3342 0.9592,0.53298 1.04299,0.44179 0.2299,-0.25021 -0.78917,-1.08794 -1.91936,-1.57787 -1.12699,-0.48852 -1.67355,-0.3917 -6.20901,1.09999 -2.90371,0.95502 -6.42624,1.70498 -9.10866,1.93927 -1.2529,0.10947 -2.07862,0.005 -3.15937,-0.40047 l -1.46317,-0.54863 0.19293,-0.96751 0.19294,-0.96752 1.01581,0.4683 c 1.95967,0.90339 4.99027,-0.0733 7.16456,-2.30903 1.1554,-1.18805 1.29153,-1.27137 2.04627,-1.25246 0.45181,0.0119 1.86512,-0.42738 3.20347,-0.99435 2.6246,-1.1119 5.41306,-1.58923 7.20106,-1.23267 0.55591,0.11083 1.71853,0.55394 2.58358,0.98463 1.87188,0.93196 2.65621,1.03805 4.29758,0.58126 2.3588,-0.65642 3.46124,-1.37536 7.13445,-4.65252 4.76929,-4.25505 6.80973,-6.31224 6.64469,-6.69921 -0.1079,-0.25288 -0.31338,-0.1146 -1.12799,0.7591 -0.54787,0.58758 -2.64473,2.61296 -4.65972,4.50083 -3.16763,2.9678 -3.88375,3.554 -5.2895,4.32992 -3.00414,1.65819 -4.81934,1.81006 -6.93242,0.57995 -2.47685,-1.44188 -6.29276,-1.34916 -9.84844,0.23926 -2.38167,1.06396 -3.25554,1.20643 -4.46516,0.72793 -1.19313,-0.47198 -3.3797,-0.72393 -4.5508,-0.52436 -2.42547,0.41334 -4.94536,3.17753 -5.18968,5.69285 l -0.0793,0.81605 -1.71437,0.44843 c -2.55301,0.66782 -6.15313,1.92833 -7.832262,2.74232 -1.712289,0.83006 -5.847748,4.32665 -7.319625,6.18887 -1.526068,1.93077 -2.000409,4.54572 -1.131879,6.23995 l 0.478679,0.93374 -2.981654,0.37859 c -3.848873,0.4887 -5.031259,0.93329 -7.301606,2.74554 -2.943503,2.34955 -4.744485,4.75543 -4.957787,6.62296 -0.211578,1.85243 1.143326,4.2344 3.259058,5.72958 z m 31.082859,-35.32119 c 0.62971,-0.96737 2.16312,-2.17248 3.13711,-2.46547 1.06829,-0.3213 4.30357,-0.11032 4.66921,0.30462 0.19393,0.22007 -0.0128,0.4847 -1.18684,1.51935 -1.65989,1.4628 -2.94897,2.06565 -4.5284,2.11777 -1.76364,0.0582 -2.67239,-0.58332 -2.09115,-1.47622 z m -27.511767,33.23338 c 1.108622,0.49775 3.008534,0.53295 3.538902,0.0656 0.475376,-0.41894 1.073907,-2.45464 0.809825,-2.75431 -0.271839,-0.30846 -0.361114,-0.17161 -0.569387,0.87311 -0.258936,1.29844 -0.902623,1.78148 -2.2124,1.66024 -1.235744,-0.11442 -2.790539,-1.09009 -3.369838,-2.11475 -0.885254,-1.56583 -0.05093,-3.47643 2.249439,-5.15121 1.585421,-1.15427 4.931814,-2.11269 7.564991,-2.16664 2.585328,-0.0529 4.003636,-0.24734 6.398345,-0.87685 2.184832,-0.57433 2.275457,-0.61132 2.069798,-0.84469 -0.07487,-0.0849 -1.428433,0.13423 -3.00791,0.48713 -1.579494,0.3529 -3.854308,0.64931 -5.055136,0.65868 -2.30707,0.0181 -4.735359,0.50998 -6.687386,1.35483 -1.593458,0.68966 -3.899619,2.89672 -4.314302,4.12889 -0.555302,1.65004 0.634599,3.80424 2.585059,4.68 z m 13.478148,-13.69465 c 0.289214,-0.0494 0.24537,-0.21078 -0.462103,-1.70293 -0.389046,-0.8205 -0.578665,-1.63768 -0.536212,-2.31053 0.110272,-1.74701 2.018776,-4.25787 4.278731,-5.62918 0.650633,-0.39479 0.796013,-0.55751 0.599953,-0.67151 -0.733089,-0.42628 -3.834239,2.34944 -4.941145,4.42264 -0.876883,1.64237 -0.770248,2.98537 0.407726,5.13477 0.239326,0.43661 0.533248,0.77711 0.65316,0.75665 z m 7.510169,-4.03601 c 1.13833,0.68546 3.24513,1.01256 4.27499,0.66372 0.42149,-0.14277 1.29111,-0.72202 1.93252,-1.28727 1.01594,-0.89531 1.22244,-1.20598 1.60282,-2.41124 0.42558,-1.34854 0.41964,-1.40111 -0.23534,-2.07962 -0.36953,-0.3829 -1.2198,-0.94016 -1.88937,-1.23844 -2.59032,-1.15396 -5.8043,0.0254 -6.92099,2.5399 -0.76475,1.72196 -0.40786,2.82351 1.23537,3.81295 z m -1.03642,-2.58516 c 0.0446,-0.44008 0.39985,-1.2389 0.78945,-1.77519 0.95132,-1.30952 2.04951,-1.83311 3.84691,-1.83415 1.11529,-6.4e-4 1.66119,0.1566 2.66019,0.76637 1.46465,0.89398 1.53829,1.13804 0.84302,2.7936 -0.47147,1.12267 -1.55078,2.14139 -2.79492,2.638 -1.13825,0.45434 -1.79594,0.42202 -3.22375,-0.15848 -1.56765,-0.6373 -2.22615,-1.39184 -2.12103,-2.43006 z m 3.54677,0.59655 c 0.89698,0.43375 1.69274,0.056 2.15295,-1.0221 0.40324,-0.94465 0.1974,-1.23518 -1.0027,-1.41525 -0.93775,-0.14072 -1.6089,0.22698 -1.91572,1.04949 -0.23638,0.6337 -0.0335,1.00151 0.76547,1.38786 z m -0.13392,-1.31719 c 0.21497,-0.57628 0.75396,-0.79503 1.38185,-0.5608 0.53571,0.19982 0.5274,0.16411 0.22243,0.95561 -0.19875,0.51577 -0.29941,0.57034 -0.87289,0.47321 -0.82128,-0.13918 -0.94744,-0.28882 -0.73144,-0.86797 z m 18.48521,-0.3439 c 1.04788,0.45411 2.36775,0.46937 2.86276,0.0331 0.73965,-0.65181 1.08201,-1.83631 0.78458,-2.71444 -0.54278,-1.60248 -3.19307,-3.12071 -4.99656,-2.86229 -0.63248,0.0907 -0.71414,0.1631 -1.17737,1.04509 -0.57662,1.09783 -0.54357,1.2385 0.67405,2.86996 0.72371,0.96975 1.10436,1.30431 1.85254,1.62854 z m -2.26075,-3.66435 c 0.18883,-0.6745 0.72342,-1.32588 1.15368,-1.40574 0.22885,-0.0425 0.99152,0.14943 1.69478,0.42662 2.54448,1.00265 3.40615,2.92893 1.83379,4.09945 -0.6023,0.44839 -0.84721,0.47556 -1.70099,0.18873 -0.84193,-0.28284 -1.16045,-0.53676 -2.04341,-1.62891 -0.72685,-0.89919 -1.01302,-1.41167 -0.93785,-1.68015 z m 2.97419,1.89659 c 0.95658,0.0304 1.18486,-0.21188 0.90415,-0.95986 -0.42768,-1.13953 -2.41625,-1.39975 -2.31619,-0.3031 0.0695,0.76195 0.60081,1.23714 1.41204,1.26296 z m -0.50369,-1.32427 c 0.4695,-0.0137 1.10781,0.54128 0.86666,0.7538 -0.24758,0.21817 -0.55906,0.11186 -0.9406,-0.32113 -0.31157,-0.35355 -0.29988,-0.42164 0.0739,-0.43269 z"
     id="path865" />
  <path
     style="font-variation-settings:normal;opacity:1;vector-effect:none;fill:#ff5555;fill-opacity:1;stroke-width:0.243703;stroke-linecap:butt;stroke-linejoin:miter;stroke-miterlimit:4;stroke-dasharray:none;stroke-dashoffset:0;stroke-opacity:1;stop-color:#000000;stop-opacity:1"
     d="m 85.481893,181.52747 c -3.485416,-0.97346 -5.345647,-1.86489 -6.899724,-3.30638 -1.357847,-1.25947 -3.635629,-4.23205 -4.50342,-5.8771 l -0.582429,-1.1041 1.435388,-1.34592 c 0.789464,-0.74025 2.893095,-2.69485 4.674736,-4.34355 l 3.239347,-2.99763 3.154826,-6.46149 c 2.643715,-5.41467 3.211451,-6.4145 3.504347,-6.17141 0.192237,0.15954 0.422934,0.7246 0.51266,1.25569 0.196402,1.16248 0.585565,1.59119 1.731695,1.90765 1.717831,0.47432 2.029881,0.0947 6.256235,-7.61038 0.946589,-1.72573 1.865265,-3.19303 2.041496,-3.26066 0.17624,-0.0676 1.35594,0.24297 2.62156,0.69021 1.26563,0.44724 2.35005,0.76019 2.40985,0.69543 0.0598,-0.0648 2.4924,-3.3529 5.40579,-7.30697 2.9134,-3.95407 5.38209,-7.28141 5.48598,-7.39408 0.1039,-0.11267 1.77285,0.62722 3.70879,1.6442 4.04051,2.12254 5.60367,2.71454 7.77822,2.94575 3.96905,0.42203 7.72639,-1.49901 13.3895,-6.84572 8.07462,-7.6235 64.95407,-64.305045 67.2285,-66.994595 2.57294,-3.042526 3.58451,-4.682491 6.59304,-10.688662 l 2.80258,-5.595015 2.55888,-1.125903 c 4.11705,-1.811497 6.88096,-3.940911 12.8104,-9.869568 3.26397,-3.263538 3.99654,-4.158046 6.59899,-8.057719 1.61009,-2.412655 4.72089,-7.397478 6.91289,-11.077384 2.192,-3.6799064 4.03105,-6.5539593 4.08677,-6.3867845 0.0557,0.1671749 -0.08,2.4651774 -0.30161,5.1066725 -1.53068,18.244738 -2.69061,24.777257 -5.81333,32.739572 -1.6013,4.082999 -4.49215,10.577832 -6.40353,14.386727 l -1.06018,2.112667 -2.26171,1.27058 c -3.37299,1.894868 -5.17898,3.107246 -7.74502,5.199313 -1.27335,1.038144 -23.04207,22.670382 -48.37495,48.071639 l -46.05978,46.1841 -2.88171,-1.47587 c -4.00049,-2.04887 -6.25375,-2.72625 -9.06861,-2.72625 -1.66133,0 -2.57405,0.12918 -3.58488,0.50738 -2.95452,1.10543 -12.65367,7.87359 -12.24074,8.54171 0.0682,0.11032 1.61256,1.31302 3.43195,2.67267 1.8194,1.35965 3.25808,2.52202 3.19707,2.58303 -0.061,0.061 -3.36928,0.76446 -7.35169,1.56323 l -7.240766,1.4523 -4.103347,3.65789 c -2.256841,2.01185 -4.140267,3.65032 -4.185392,3.64104 -0.04512,-0.009 -1.354027,-0.37211 -2.908672,-0.80631 z m 2.051536,-2.83752 c 2.472711,-1.04038 4.003116,-2.22984 4.597328,-3.57316 0.404587,-0.91464 0.474322,-1.50854 0.404755,-3.44708 l -0.08405,-2.34206 3.470941,-0.75714 c 1.909017,-0.41643 3.554009,-0.84086 3.655538,-0.94317 0.21545,-0.21712 -0.382247,-0.11811 -5.806635,0.96186 -4.400613,0.87613 -6.177187,1.3087 -6.020095,1.46579 0.05563,0.0556 0.948245,-0.0462 1.983586,-0.2262 1.753848,-0.30498 1.898445,-0.29743 2.116775,0.11052 0.350417,0.65476 0.282517,4.02579 -0.09951,4.9401 -0.807669,1.93302 -4.834948,4.13318 -7.586629,4.14467 -3.411856,0.0143 -7.68348,-3.50124 -7.67411,-6.31571 0.0047,-1.40409 1.134303,-3.24222 3.291845,-5.35649 3.114618,-3.05214 4.953313,-3.75655 11.442137,-4.38355 l 1.698277,-0.1641 -0.669364,-0.4876 c -1.529315,-1.11403 -1.808378,-3.14115 -0.732945,-5.32413 0.813971,-1.65225 4.746857,-5.60727 6.759915,-6.79797 1.638247,-0.969 6.280172,-2.71788 8.843232,-3.33176 1.67677,-0.4016 1.84507,-0.40058 3.69769,0.0225 2.95843,0.67569 6.37148,0.17454 13.40902,-1.9689 1.93363,-0.58893 3.64668,-1.07078 3.80677,-1.07078 0.16008,0 0.90967,0.3301 1.66573,0.73356 1.60544,0.85671 1.87384,0.55432 0.31753,-0.35773 -1.45746,-0.85413 -2.48067,-0.7941 -6.16893,0.3619 -3.98072,1.24768 -8.59649,2.19211 -10.59483,2.16781 -0.8544,-0.0104 -2.10178,-0.21349 -2.77195,-0.45135 -1.16989,-0.41521 -1.21529,-0.4655 -1.13774,-1.26055 0.11123,-1.14029 0.30542,-1.26197 1.33047,-0.83368 2.0347,0.85015 4.44111,0.12162 6.87056,-2.08004 1.0164,-0.9211 1.81044,-1.44805 2.18201,-1.44805 0.32128,0 1.78849,-0.43143 3.26046,-0.95872 3.04618,-1.09121 5.56512,-1.5237 7.13791,-1.22553 0.58906,0.11168 1.80887,0.53916 2.71068,0.94995 3.44609,1.56977 5.93418,0.74742 10.91105,-3.60629 2.63931,-2.30884 7.06737,-6.65954 7.06737,-6.94391 0,-0.11953 -1.67241,1.36225 -3.71646,3.29284 -5.32521,5.02961 -5.9352,5.5253 -8.09022,6.5742 -2.5331,1.23291 -3.78873,1.26372 -6.13902,0.15061 -1.57742,-0.74707 -1.82453,-0.7915 -4.35308,-0.78264 -2.55511,0.009 -2.80554,0.0575 -5.34419,1.03574 -2.93785,1.13207 -3.36804,1.18745 -5.11283,0.65815 -1.49887,-0.4547 -4.04966,-0.46862 -5.10457,-0.0279 -1.85484,0.775 -3.45715,2.7574 -3.93167,4.8643 l -0.27559,1.22365 -3.1416,0.94472 c -4.45961,1.34108 -6.500073,2.2527 -8.622033,3.85212 -5.493634,4.14079 -7.485435,7.5605 -6.155172,10.56779 0.36378,0.82238 0.422492,1.16587 0.209561,1.22602 -0.162693,0.046 -1.611799,0.26783 -3.220236,0.49305 -1.608436,0.22522 -3.386855,0.61354 -3.952042,0.86293 -3.218373,1.42009 -6.937346,5.2497 -7.643023,7.87038 -0.546693,2.03027 1.09331,4.95831 3.599936,6.42729 2.655712,1.55635 4.949368,1.72409 7.707443,0.56365 z m -0.871197,-3.44181 c 0.445548,-0.93279 0.684894,-2.27056 0.371593,-2.07693 -0.139765,0.0864 -0.325761,0.53894 -0.413324,1.0057 -0.175171,0.93374 -0.914748,1.59376 -1.785869,1.59376 -1.581761,0 -3.844425,-1.7001 -4.103973,-3.08362 -0.341588,-1.82081 1.826712,-4.36743 4.603076,-5.4062 1.696176,-0.63462 3.574419,-0.96848 7.007235,-1.24557 2.621709,-0.21161 7.221721,-1.14675 6.954655,-1.41382 -0.06515,-0.0652 -1.357579,0.11222 -2.872055,0.39416 -1.514477,0.28193 -4.069588,0.61724 -5.678024,0.74512 -4.688994,0.3728 -7.239724,1.41898 -9.375504,3.84535 -1.221434,1.38763 -1.426032,2.35501 -0.795973,3.76353 0.846009,1.89129 2.169027,2.68379 4.320387,2.58794 1.308492,-0.0583 1.491924,-0.1319 1.767776,-0.70942 z m 9.200663,-14.78486 c -0.334869,-0.82412 -0.608853,-1.80804 -0.608853,-2.1865 0,-1.56396 2.091052,-4.40111 4.386646,-5.95183 0.428442,-0.28942 0.494552,-0.41535 0.222771,-0.42434 -0.512667,-0.017 -2.396683,1.46723 -3.31836,2.61413 -1.02653,1.27738 -1.778462,2.82863 -1.778462,3.669 0,0.82054 0.57926,2.57488 1.125412,3.40841 0.627185,0.95721 0.6142,0.45443 -0.02915,-1.12887 z m 13.595815,-2.61968 c 1.96791,-1.44367 2.90925,-3.73344 1.96462,-4.77883 -1.80686,-1.99959 -5.65312,-2.18852 -7.59916,-0.37328 -0.78226,0.72968 -1.50275,2.19344 -1.50275,3.053 0,1.63111 2.02218,2.95678 4.50849,2.95561 1.28754,-4.9e-4 1.60158,-0.10292 2.6288,-0.8565 z m 18.28709,-3.74206 c 0.24468,-0.23995 0.50351,-0.87346 0.57518,-1.40779 0.11262,-0.83965 0.026,-1.09033 -0.63836,-1.84697 -1.04382,-1.18884 -2.63924,-1.93287 -3.93949,-1.83718 -0.9102,0.067 -1.08201,0.18023 -1.50026,0.98886 l -0.47234,0.91322 0.60961,1.0364 c 1.4702,2.4995 3.98402,3.5084 5.36566,2.15346 z"
     id="path867" />
  <path
     style="font-variation-settings:normal;opacity:1;vector-effect:none;fill:#ff5555;fill-opacity:1;stroke-width:0.243703;stroke-linecap:butt;stroke-linejoin:miter;stroke-miterlimit:4;stroke-dasharray:none;stroke-dashoffset:0;stroke-opacity:1;stop-color:#000000;stop-opacity:1"
     d="m 10.980144,249.8138 c -1.4318593,-0.45944 -3.2558975,-2.09812 -4.3368812,-3.89619 -0.7262423,-1.208 -0.8353303,-1.59683 -0.8227636,-2.93261 0.018869,-2.00571 0.6666502,-3.33779 2.5565767,-5.25729 1.9235841,-1.95368 3.1612191,-2.49902 5.6853551,-2.50514 1.616027,-0.004 2.131162,0.0962 2.996122,0.58234 1.189124,0.66833 2.275107,2.16384 2.868404,3.95009 0.56449,1.69952 0.389792,4.79621 -0.351645,6.23329 -0.74659,1.44706 -2.124889,2.91338 -3.304883,3.51594 -1.278874,0.65306 -3.766184,0.7986 -5.290285,0.30957 z"
     id="path869" />
  <path
     style="font-variation-settings:normal;opacity:1;vector-effect:none;fill:#ffaaaa;fill-opacity:1;stroke-width:0.00742386;stroke-linecap:butt;stroke-linejoin:miter;stroke-miterlimit:4;stroke-dasharray:none;stroke-dashoffset:0;stroke-opacity:1;stop-color:#000000;stop-opacity:1"
     d="m 86.750808,193.58704 c -0.331723,-0.0354 -1.417363,-0.22022 -2.412532,-0.41078 -7.003099,-1.34102 -11.329583,-4.20802 -15.124076,-10.02218 -2.313215,-3.54445 -3.628262,-9.75653 -2.891511,-13.65906 0.48655,-2.57722 2.766193,-9.04699 3.187738,-9.04699 0.0726,0 0.301997,0.87239 0.509769,1.93864 1.270476,6.51989 4.423223,12.66826 8.319456,16.22427 1.603067,1.46309 2.967177,2.16229 5.917708,3.03321 4.315442,1.27381 7.311772,2.42232 7.442113,2.8526 0.0303,0.10003 -0.248372,0.35244 -0.619275,0.56089 -0.921367,0.51784 -1.096983,1.09041 -0.691347,2.25402 0.34392,0.98657 2.081079,1.6347 7.186672,2.68132 1.641194,0.33643 3.017627,0.6117 3.058747,0.6117 0.0411,0 0.0748,0.0735 0.0748,0.16322 0,0.21675 -3.797715,1.44365 -6.429099,2.07699 -3.130183,0.75341 -5.361081,0.97331 -7.529123,0.74215 z m -1.151777,-2.54273 c 0.892993,-0.31848 1.29993,-0.71498 1.777651,-1.73206 0.790208,-1.68237 0.341925,-3.28595 -1.356158,-4.85119 -0.659383,-0.6078 -0.989322,-0.76022 -2.323728,-1.0735 -1.678864,-0.39415 -3.378269,-0.46722 -4.382022,-0.18842 -0.364686,0.10129 -0.886065,0.45904 -1.240075,0.85089 -0.989067,1.09478 -1.171966,2.38849 -0.518476,3.66736 0.550519,1.07737 3.430716,2.798 5.539449,3.30927 1.254639,0.30419 1.691293,0.30727 2.503359,0.0177 z m -10.684254,-5.69065 c 0.12042,-1.28954 0.412074,-1.94069 1.145771,-2.55806 0.287738,-0.24211 0.523161,-0.49109 0.523161,-0.55327 0,-0.0622 -0.707901,-0.93304 -1.573114,-1.93522 -2.508171,-2.90525 -3.074534,-3.89003 -5.063127,-8.80366 -0.665312,-1.64393 -1.286041,-3.00098 -1.379397,-3.01566 -0.405072,-0.0637 -0.557967,3.77268 -0.248665,6.23941 0.330541,2.63612 1.265952,4.65143 4.090191,8.81221 1.468201,2.163 2.065716,2.9295 2.28367,2.9295 0.06455,0 0.164232,-0.50186 0.22151,-1.11525 z"
     id="path871" />
  <path
     style="font-variation-settings:normal;opacity:1;vector-effect:none;fill:#ffaaaa;fill-opacity:1;stroke-width:0.00742386;stroke-linecap:butt;stroke-linejoin:miter;stroke-miterlimit:4;stroke-dasharray:none;stroke-dashoffset:0;stroke-opacity:1;stop-color:#000000;stop-opacity:1"
     d="m 27.99863,246.2078 c 0.04775,-0.33173 0.134846,-1.45614 0.193538,-2.4987 0.200528,-3.56198 -0.639609,-6.15297 -2.910378,-8.97564 -1.773713,-2.20481 -3.001719,-3.23875 -4.989932,-4.20137 -2.665628,-1.29059 -3.497745,-1.46987 -6.816273,-1.46858 l -2.823546,0.001 1.352941,-1.25984 c 1.589728,-1.48034 3.164328,-2.31314 5.105423,-2.70023 3.49172,-0.69633 6.025646,-0.0769 8.842723,2.16177 2.274956,1.80782 4.330425,4.49919 5.221759,6.8372 0.406816,1.0671 0.443632,1.38632 0.451974,3.91891 0.008,2.43908 -0.03486,2.87353 -0.371804,3.76568 -0.467969,1.23908 -1.691066,3.20924 -2.636806,4.24737 l -0.706445,0.77546 z"
     id="path873" />
  <path
     style="font-variation-settings:normal;opacity:1;vector-effect:none;fill:#ff5555;fill-opacity:1;stroke-width:0.0419958;stroke-linecap:butt;stroke-linejoin:miter;stroke-miterlimit:4;stroke-dasharray:none;stroke-dashoffset:0;stroke-opacity:1;stop-color:#000000;stop-opacity:1"
     d="m 111.17175,143.95943 c -0.60289,-0.14193 -1.04236,-0.55852 -1.04236,-0.98807 0,-0.40245 1.67366,-2.02904 2.61484,-2.54129 0.79045,-0.43022 1.06911,-0.48648 2.379,-0.48034 1.87408,0.009 2.92979,0.18485 3.05431,0.50936 0.24745,0.64482 -2.84604,2.98611 -4.50864,3.41233 -1.11604,0.28611 -1.58542,0.30265 -2.49715,0.088 z"
     id="path877" />
  <path
     style="font-variation-settings:normal;opacity:1;vector-effect:none;fill:#ff9955;fill-opacity:1;stroke-width:0.00742387;stroke-linecap:butt;stroke-linejoin:miter;stroke-miterlimit:4;stroke-dasharray:none;stroke-dashoffset:0;stroke-opacity:1;stop-color:#000000;stop-opacity:1"
     d="m 105.58798,158.1713 c -1.9395,-0.63308 -2.87273,-1.50529 -2.78194,-2.60005 0.0908,-1.09536 1.17692,-2.62556 2.26676,-3.19368 0.86612,-0.45149 2.11346,-0.63559 3.1862,-0.47025 0.82416,0.12702 2.08781,0.76122 2.70509,1.35762 0.46487,0.44914 0.46488,0.44918 0.41395,0.87924 -0.0707,0.59705 -0.52584,1.64753 -0.96955,2.23779 -0.40631,0.5405 -1.1553,1.16928 -1.75762,1.4755 -1.10621,0.56241 -2.01583,0.65561 -3.06289,0.31383 z m 2.00754,-2.07101 c 0.73773,-0.38541 1.34391,-1.76847 0.92682,-2.11463 -0.17212,-0.14284 -0.97123,-0.34642 -1.36468,-0.34765 -0.36257,-0.001 -0.87432,0.18633 -1.12335,0.41153 -0.25024,0.2263 -0.48941,0.75413 -0.48941,1.08009 0,0.72443 1.32312,1.35072 2.05062,0.97066 z"
     id="path879" />
  <path
     style="font-variation-settings:normal;opacity:1;vector-effect:none;fill:#ff9955;fill-opacity:1;stroke-width:0.00742387;stroke-linecap:butt;stroke-linejoin:miter;stroke-miterlimit:4;stroke-dasharray:none;stroke-dashoffset:0;stroke-opacity:1;stop-color:#000000;stop-opacity:1"
     d="m 125.31173,154.03622 c -0.62596,-0.23272 -0.91862,-0.43146 -1.3927,-0.94577 -0.53531,-0.58075 -1.3938,-1.76724 -1.45494,-2.01083 -0.0874,-0.3483 0.15301,-0.90173 0.58786,-1.35317 l 0.4055,-0.42097 0.44026,0.0584 c 0.24214,0.0321 0.71916,0.15788 1.06004,0.27947 1.7243,0.61502 2.81229,1.58404 2.95604,2.63279 0.0704,0.51395 -0.0669,0.90343 -0.46285,1.31281 -0.67931,0.7023 -1.17466,0.80587 -2.13921,0.44727 z m 0.95173,-1.54931 c 0.12662,-0.0926 0.149,-0.18931 0.1104,-0.47711 -0.0976,-0.72757 -0.75988,-1.25472 -1.58009,-1.25766 -0.56384,-0.002 -0.72407,0.13061 -0.72407,0.59936 0,0.45169 0.27675,0.89249 0.69101,1.10062 0.36423,0.183 1.27135,0.204 1.50275,0.0348 z"
     id="path881" />
  <path
     style="font-variation-settings:normal;opacity:1;vector-effect:none;fill:#ff9955;fill-opacity:1;stroke-width:0.00742387;stroke-linecap:butt;stroke-linejoin:miter;stroke-miterlimit:4;stroke-dasharray:none;stroke-dashoffset:0;stroke-opacity:1;stop-color:#000000;stop-opacity:1"
     d="m 83.728997,190.67975 c -1.545485,-0.22665 -4.127842,-1.55185 -5.186198,-2.66143 -0.674934,-0.7076 -0.860091,-1.15108 -0.809527,-1.93898 0.07269,-1.13266 0.676792,-2.08834 1.475747,-2.33462 1.054493,-0.32505 3.311866,-0.21496 4.774933,0.23287 1.731944,0.53013 2.845364,1.62875 3.207638,3.16502 0.231702,0.98256 -0.119188,2.20161 -0.819521,2.84715 -0.452792,0.41737 -0.73106,0.56245 -1.316394,0.68634 -0.506607,0.10723 -0.618272,0.10754 -1.326678,0.004 z m 0.601434,-2.20878 c 0.424251,-0.21115 0.638295,-0.53632 0.687051,-1.04373 0.05045,-0.525 -0.222989,-1.186 -0.716653,-1.73242 -0.500395,-0.55388 -0.725621,-0.63852 -1.560458,-0.58644 -1.479105,0.0923 -2.241392,0.94665 -1.795905,2.01285 0.18165,0.43475 0.600458,0.93741 0.972739,1.16749 0.669626,0.41385 1.779493,0.49767 2.413226,0.18225 z"
     id="path884" />
  <path
     style="font-variation-settings:normal;opacity:1;vector-effect:none;fill:#ff9955;fill-opacity:1;stroke-width:0.00742387;stroke-linecap:butt;stroke-linejoin:miter;stroke-miterlimit:4;stroke-dasharray:none;stroke-dashoffset:0;stroke-opacity:1;stop-color:#000000;stop-opacity:1"
     d="m 73.953985,184.89222 c -0.143481,-0.16342 -0.726251,-0.99119 -1.295044,-1.8395 -2.288939,-3.41376 -3.399709,-5.62307 -3.685758,-7.33092 -0.264872,-1.58141 -0.423536,-5.45558 -0.22343,-5.45558 0.100574,0 0.255651,0.34492 1.138418,2.53203 1.53251,3.79689 2.018754,4.59186 4.646405,7.59658 0.730159,0.83493 1.338826,1.54852 1.352593,1.58574 0.01377,0.0372 -0.16969,0.29562 -0.407683,0.57419 -0.517394,0.60562 -0.932884,1.41375 -1.007774,1.96013 -0.02998,0.21876 -0.100041,0.46 -0.155684,0.53609 -0.08914,0.12191 -0.132183,0.10303 -0.362043,-0.15876 z"
     id="path886" />
  <path
     style="font-variation-settings:normal;opacity:1;vector-effect:none;fill:#ffaaaa;fill-opacity:1;stroke-width:0.000452303;stroke-linecap:butt;stroke-linejoin:miter;stroke-miterlimit:4;stroke-dasharray:none;stroke-dashoffset:0;stroke-opacity:1;stop-color:#000000;stop-opacity:1"
     d="m 82.574523,188.07115 c -0.626326,-0.22692 -1.083519,-0.69331 -1.253784,-1.279 -0.08089,-0.27827 -0.08163,-0.34524 -0.0058,-0.52676 0.182508,-0.4368 0.607307,-0.61423 1.472483,-0.61503 0.617147,-5.7e-4 0.855166,0.0758 1.211301,0.38845 0.383488,0.33671 0.488905,0.61047 0.491963,1.2776 l 0.0027,0.57879 -0.243702,0.11969 c -0.335406,0.16472 -1.287521,0.1967 -1.675127,0.0563 z"
     id="path888" />
  <path
     style="font-variation-settings:normal;opacity:1;vector-effect:none;fill:#ffaaaa;fill-opacity:1;stroke-width:0.000452303;stroke-linecap:butt;stroke-linejoin:miter;stroke-miterlimit:4;stroke-dasharray:none;stroke-dashoffset:0;stroke-opacity:1;stop-color:#000000;stop-opacity:1"
     d="m 106.63982,155.57782 c -0.1843,-0.0494 -0.37358,-0.12822 -0.42062,-0.17509 -0.19874,-0.19802 0.0196,-0.88618 0.35758,-1.12681 0.27061,-0.19269 0.63011,-0.22096 1.0326,-0.0812 0.46248,0.1606 0.49116,0.23 0.31223,0.75558 -0.21038,0.61795 -0.30979,0.72632 -0.66172,0.72137 -0.15674,-0.002 -0.43577,-0.0445 -0.62007,-0.0939 z"
     id="path890" />
  <path
     style="font-variation-settings:normal;opacity:1;vector-effect:none;fill:#ffaaaa;fill-opacity:1;stroke-width:0.000452303;stroke-linecap:butt;stroke-linejoin:miter;stroke-miterlimit:4;stroke-dasharray:none;stroke-dashoffset:0;stroke-opacity:1;stop-color:#000000;stop-opacity:1"
     d="m 125.11743,152.02558 c -0.24341,-0.17633 -0.50455,-0.48777 -0.50455,-0.60175 0,-0.0328 0.072,-0.0734 0.15989,-0.0902 0.5269,-0.10072 1.31154,0.5337 0.96944,0.78385 -0.17739,0.12971 -0.35491,0.1036 -0.62478,-0.0919 z"
     id="path892" />
  <path
     style="font-variation-settings:normal;opacity:1;vector-effect:none;fill:#ffdd55;fill-opacity:1;stroke-width:0.0861619;stroke-linecap:butt;stroke-linejoin:miter;stroke-miterlimit:4;stroke-dasharray:none;stroke-dashoffset:0;stroke-opacity:1;stop-color:#000000;stop-opacity:1"
     d="m 26.259203,225.44971 c -0.478689,-0.0668 -0.620834,-0.17878 -0.542012,-0.42712 0.05463,-0.17214 2.021041,-2.09196 2.449277,-2.39126 l 0.205959,-0.14395 -0.05148,0.29339 c -0.02831,0.16136 -0.07797,0.84589 -0.11035,1.52119 l -0.05887,1.2278 -0.741823,-0.0115 c -0.408003,-0.006 -0.925818,-0.0372 -1.150701,-0.0685 z"
     id="path894" />
  <path
     style="font-variation-settings:normal;opacity:1;vector-effect:none;fill:#ffdd55;fill-opacity:1;stroke-width:0.0861619;stroke-linecap:butt;stroke-linejoin:miter;stroke-miterlimit:4;stroke-dasharray:none;stroke-dashoffset:0;stroke-opacity:1;stop-color:#000000;stop-opacity:1"
     d="m 26.807678,227.33461 c -0.574363,-0.52789 -1.044297,-1.01349 -1.044297,-1.07911 0,-0.17996 0.326628,-0.22778 1.333428,-0.19522 0.69434,0.0224 0.932884,0.0605 0.994896,0.15878 0.0919,0.14561 0.09829,1.48213 0.0086,1.80301 -0.03213,0.11496 -0.101147,0.22326 -0.153381,0.24067 -0.05223,0.0174 -0.564905,-0.40025 -1.139268,-0.92813 z"
     id="path896" />
  <path
     style="font-variation-settings:normal;opacity:1;vector-effect:none;fill:#ffdd55;fill-opacity:1;stroke-width:0.0861619;stroke-linecap:butt;stroke-linejoin:miter;stroke-miterlimit:4;stroke-dasharray:none;stroke-dashoffset:0;stroke-opacity:1;stop-color:#000000;stop-opacity:1"
     d="m 29.352855,229.28461 c -0.276767,-0.0594 -0.53789,-0.16277 -0.580273,-0.22972 -0.04238,-0.0669 -0.07765,-0.7732 -0.07838,-1.56944 l -0.0013,-1.44771 0.710835,0.0546 c 0.390959,0.03 1.040404,0.0805 1.443211,0.1122 l 0.732376,0.0576 -0.02564,0.94778 c -0.02786,1.03003 -0.152962,1.919 -0.294039,2.08942 -0.115442,0.13946 -1.228351,0.13086 -1.906778,-0.0147 z"
     id="path898" />
  <path
     style="font-variation-settings:normal;opacity:1;vector-effect:none;fill:#ffdd55;fill-opacity:1;stroke-width:0.0861619;stroke-linecap:butt;stroke-linejoin:miter;stroke-miterlimit:4;stroke-dasharray:none;stroke-dashoffset:0;stroke-opacity:1;stop-color:#000000;stop-opacity:1"
     d="m 30.751286,231.81893 c -0.653785,-0.87492 -1.024459,-1.49046 -1.024459,-1.70124 0,-0.22963 0.22777,-0.275 1.033942,-0.20594 l 0.646214,0.0553 -0.03002,0.51697 c -0.01651,0.28433 -0.05528,0.84654 -0.08616,1.24935 l -0.05614,0.73237 z"
     id="path900" />
  <path
     style="font-variation-settings:normal;opacity:1;vector-effect:none;fill:#ffdd55;fill-opacity:1;stroke-width:0.0861619;stroke-linecap:butt;stroke-linejoin:miter;stroke-miterlimit:4;stroke-dasharray:none;stroke-dashoffset:0;stroke-opacity:1;stop-color:#000000;stop-opacity:1"
     d="m 29.494297,221.73274 c -0.08034,-0.0824 -0.07662,-0.15747 0.01678,-0.33808 0.116966,-0.22618 2.244405,-2.327 2.356566,-2.32707 0.07147,-5e-5 -0.07024,2.52242 -0.145944,2.59779 -0.03093,0.0308 -0.521502,0.0824 -1.090171,0.11462 -0.769768,0.0437 -1.060332,0.0316 -1.137229,-0.0473 z"
     id="path902" />
  <path
     style="font-variation-settings:normal;opacity:1;vector-effect:none;fill:#ffdd55;fill-opacity:1;stroke-width:0.0861619;stroke-linecap:butt;stroke-linejoin:miter;stroke-miterlimit:4;stroke-dasharray:none;stroke-dashoffset:0;stroke-opacity:1;stop-color:#000000;stop-opacity:1"
     d="m 33.185621,218.21993 c -0.07193,-0.0483 -0.09504,-0.14753 -0.06005,-0.25777 0.05703,-0.17968 2.548091,-2.63857 2.996749,-2.95804 l 0.238968,-0.17016 -8.89e-4,0.41513 c -0.0014,0.66244 -0.172137,2.43057 -0.255968,2.65106 -0.06459,0.16988 -0.155158,0.20927 -0.577625,0.25119 -1.107278,0.10988 -2.230761,0.14279 -2.341187,0.0686 z"
     id="path904" />
  <path
     style="font-variation-settings:normal;opacity:1;vector-effect:none;fill:#ffdd55;fill-opacity:1;stroke-width:0.0861619;stroke-linecap:butt;stroke-linejoin:miter;stroke-miterlimit:4;stroke-dasharray:none;stroke-dashoffset:0;stroke-opacity:1;stop-color:#000000;stop-opacity:1"
     d="m 37.573616,213.81732 c -0.195773,-0.12389 0.181537,-0.5453 1.697846,-1.89627 1.551871,-1.38266 1.48841,-1.38538 1.318356,0.0565 -0.114971,0.97486 -0.294579,1.45579 -0.603289,1.61543 -0.126877,0.0656 -0.605203,0.16106 -1.062948,0.2121 -1.003141,0.11186 -1.189835,0.11354 -1.349965,0.0122 z"
     id="path906" />
  <path
     style="font-variation-settings:normal;opacity:1;vector-effect:none;fill:#ffdd55;fill-opacity:1;stroke-width:0.0861619;stroke-linecap:butt;stroke-linejoin:miter;stroke-miterlimit:4;stroke-dasharray:none;stroke-dashoffset:0;stroke-opacity:1;stop-color:#000000;stop-opacity:1"
     d="m 41.875649,209.46976 c 0,-0.0715 4.165249,-4.01571 4.240786,-4.01571 0.04599,0 0.05637,0.20959 0.02455,0.49543 -0.105392,0.94667 -0.388522,3.0664 -0.412822,3.0907 -0.03354,0.0335 -3.434538,0.46348 -3.666284,0.46348 -0.102427,0 -0.18623,-0.0153 -0.18623,-0.0339 z"
     id="path908" />
  <path
     style="font-variation-settings:normal;opacity:1;vector-effect:none;fill:#ffdd55;fill-opacity:1;stroke-width:0.0861619;stroke-linecap:butt;stroke-linejoin:miter;stroke-miterlimit:4;stroke-dasharray:none;stroke-dashoffset:0;stroke-opacity:1;stop-color:#000000;stop-opacity:1"
     d="m 48.234028,203.40771 c 1.112023,-1.22983 3.216615,-3.14106 3.331894,-3.02578 0.02902,0.029 -0.629144,3.36095 -0.672912,3.40663 -0.02152,0.0225 -2.851644,0.2869 -3.070432,0.2869 -0.163622,0 -0.102184,-0.0997 0.41145,-0.66775 z"
     id="path910" />
  <path
     style="font-variation-settings:normal;opacity:1;vector-effect:none;fill:#ffdd55;fill-opacity:1;stroke-width:0.0861619;stroke-linecap:butt;stroke-linejoin:miter;stroke-miterlimit:4;stroke-dasharray:none;stroke-dashoffset:0;stroke-opacity:1;stop-color:#000000;stop-opacity:1"
     d="m 52.904366,198.92863 c 0,-0.1666 3.530421,-3.46489 3.712489,-3.46838 0.02783,-5.4e-4 5.36e-4,0.33829 -0.06067,0.75294 -0.307073,2.08051 -0.405877,2.34572 -0.961153,2.57994 -0.384076,0.162 -2.690671,0.27817 -2.690671,0.1355 z"
     id="path912" />
  <path
     style="font-variation-settings:normal;opacity:1;vector-effect:none;fill:#ffdd55;fill-opacity:1;stroke-width:0.0861619;stroke-linecap:butt;stroke-linejoin:miter;stroke-miterlimit:4;stroke-dasharray:none;stroke-dashoffset:0;stroke-opacity:1;stop-color:#000000;stop-opacity:1"
     d="m 59.508379,192.53707 c 0.907339,-0.9044 1.711875,-1.64437 1.787859,-1.64437 0.107121,0 0.138152,0.0908 0.138152,0.40404 0,0.46536 -0.331736,2.62521 -0.416903,2.71435 -0.03134,0.0328 -0.754898,0.0846 -1.607901,0.11501 l -1.550913,0.0554 z"
     id="path914" />
  <path
     style="font-variation-settings:normal;opacity:1;vector-effect:none;fill:#ffdd55;fill-opacity:1;stroke-width:0.0861619;stroke-linecap:butt;stroke-linejoin:miter;stroke-miterlimit:4;stroke-dasharray:none;stroke-dashoffset:0;stroke-opacity:1;stop-color:#000000;stop-opacity:1"
     d="m 67.46572,185.13121 c 0,-0.14367 0.878433,-1.21135 1.038413,-1.26212 0.08874,-0.0282 0.238478,-0.01 0.332753,0.0405 0.202179,0.10821 0.869042,1.01459 0.869042,1.18119 0,0.0903 -0.242502,0.11521 -1.120104,0.11521 -0.616057,0 -1.120104,-0.0337 -1.120104,-0.0748 z"
     id="path916" />
  <path
     style="font-variation-settings:normal;opacity:1;vector-effect:none;fill:#ffdd55;fill-opacity:1;stroke-width:0.0861619;stroke-linecap:butt;stroke-linejoin:miter;stroke-miterlimit:4;stroke-dasharray:none;stroke-dashoffset:0;stroke-opacity:1;stop-color:#000000;stop-opacity:1"
     d="m 62.899142,189.42847 c 0,-0.15278 3.11995,-3.23609 3.16175,-3.12462 0.05367,0.14314 -0.221028,2.27188 -0.351429,2.72332 -0.09958,0.34473 -0.118806,0.35976 -0.530581,0.41477 -0.688076,0.0919 -2.27974,0.0825 -2.27974,-0.0135 z"
     id="path918" />
  <path
     style="font-variation-settings:normal;opacity:1;vector-effect:none;fill:#ffdd55;fill-opacity:1;stroke-width:0.0861619;stroke-linecap:butt;stroke-linejoin:miter;stroke-miterlimit:4;stroke-dasharray:none;stroke-dashoffset:0;stroke-opacity:1;stop-color:#000000;stop-opacity:1"
     d="m 66.381669,188.76019 c 0.103278,-1.22495 0.232582,-2.30155 0.314187,-2.61595 0.0771,-0.29703 0.10122,-0.31357 0.533011,-0.36543 0.248742,-0.0299 0.971663,-0.0547 1.606492,-0.0551 l 1.154235,-7.4e-4 -0.05699,1.09856 c -0.03134,0.60421 -0.08065,1.41274 -0.109574,1.79674 l -0.05259,0.69817 -1.036649,0.0557 c -0.570156,0.0307 -1.345298,0.0557 -1.722538,0.0557 h -0.68589 z"
     id="path920" />
  <path
     style="font-variation-settings:normal;opacity:1;vector-effect:none;fill:#ffdd55;fill-opacity:1;stroke-width:0.0861619;stroke-linecap:butt;stroke-linejoin:miter;stroke-miterlimit:4;stroke-dasharray:none;stroke-dashoffset:0;stroke-opacity:1;stop-color:#000000;stop-opacity:1"
     d="m 70.513811,189.21585 c -0.06292,-0.16397 0.01983,-2.71222 0.09036,-2.78276 0.0234,-0.0234 0.519079,0.39901 1.101519,0.93867 0.58244,0.53966 1.264024,1.15285 1.514631,1.36264 0.371816,0.31126 0.430696,0.3954 0.320024,0.45733 -0.07459,0.0417 -0.772937,0.0985 -1.551875,0.12612 -1.301332,0.0461 -1.42099,0.0379 -1.474661,-0.102 z"
     id="path922" />
  <path
     style="font-variation-settings:normal;opacity:1;vector-effect:none;fill:#ffdd55;fill-opacity:1;stroke-width:0.0861619;stroke-linecap:butt;stroke-linejoin:miter;stroke-miterlimit:4;stroke-dasharray:none;stroke-dashoffset:0;stroke-opacity:1;stop-color:#000000;stop-opacity:1"
     d="m 70.136497,193.57572 c -6.25e-4,-0.36751 0.188537,-3.35251 0.223378,-3.52492 l 0.03954,-0.19567 1.6996,0.0233 1.699599,0.0234 0.02222,0.86161 c 0.01222,0.47389 -0.0072,1.28812 -0.04308,1.8094 l -0.0653,0.94778 -1.077023,0.0586 c -0.592362,0.0322 -1.396899,0.0764 -1.787858,0.0982 -0.617282,0.0343 -0.710867,0.021 -0.711076,-0.1017 z"
     id="path924" />
  <path
     style="font-variation-settings:normal;opacity:1;vector-effect:none;fill:#ffdd55;fill-opacity:1;stroke-width:0.0861619;stroke-linecap:butt;stroke-linejoin:miter;stroke-miterlimit:4;stroke-dasharray:none;stroke-dashoffset:0;stroke-opacity:1;stop-color:#000000;stop-opacity:1"
     d="m 74.230908,192.34966 c 0.06804,-1.20393 0.180576,-2.22779 0.252796,-2.30001 0.02963,-0.0296 0.172733,-0.009 0.318017,0.0458 0.344188,0.12991 1.797156,0.99033 1.797156,1.06424 0,0.0488 -0.407425,0.41546 -2.13595,1.92231 l -0.28758,0.2507 z"
     id="path926" />
  <path
     style="font-variation-settings:normal;opacity:1;vector-effect:none;fill:#ffdd55;fill-opacity:1;stroke-width:0.0861619;stroke-linecap:butt;stroke-linejoin:miter;stroke-miterlimit:4;stroke-dasharray:none;stroke-dashoffset:0;stroke-opacity:1;stop-color:#000000;stop-opacity:1"
     d="m 69.936466,196.55784 c 0.02586,-0.43835 0.07181,-1.14595 0.102107,-1.57246 l 0.05508,-0.77545 1.397955,-0.0745 c 0.768876,-0.041 1.49705,-0.0496 1.618164,-0.0192 l 0.220209,0.0553 -0.234123,0.30695 c -0.220094,0.28856 -3.064409,2.87644 -3.161467,2.87644 -0.02472,0 -0.02379,-0.35865 0.0021,-0.797 z"
     id="path928" />
  <path
     style="font-variation-settings:normal;opacity:1;vector-effect:none;fill:#ffdd55;fill-opacity:1;stroke-width:0.0861619;stroke-linecap:butt;stroke-linejoin:miter;stroke-miterlimit:4;stroke-dasharray:none;stroke-dashoffset:0;stroke-opacity:1;stop-color:#000000;stop-opacity:1"
     d="m 64.99084,200.93055 c 0.02823,-0.61605 0.09665,-1.32764 0.152037,-1.58129 0.09253,-0.42376 0.1297,-0.47387 0.457859,-0.61732 0.450354,-0.19686 1.795267,-0.36377 2.640441,-0.32768 l 0.646214,0.0276 -0.387729,0.42132 c -0.331197,0.3599 -2.904476,2.6857 -3.39561,3.06905 -0.160625,0.12537 -0.163319,0.10177 -0.113212,-0.99168 z"
     id="path930" />
  <path
     style="font-variation-settings:normal;opacity:1;vector-effect:none;fill:#ffdd55;fill-opacity:1;stroke-width:0.0861619;stroke-linecap:butt;stroke-linejoin:miter;stroke-miterlimit:4;stroke-dasharray:none;stroke-dashoffset:0;stroke-opacity:1;stop-color:#000000;stop-opacity:1"
     d="m 59.711153,206.83726 c 0,-0.19728 0.319728,-2.57611 0.398332,-2.96365 0.07039,-0.34707 0.407134,-0.46014 1.7303,-0.58101 1.052379,-0.0961 1.748651,-0.0652 1.748651,0.0776 0,0.0986 -1.48556,1.52977 -2.735639,2.6355 -0.886449,0.78409 -1.141644,0.96996 -1.141644,0.83153 z"
     id="path932" />
  <path
     style="font-variation-settings:normal;opacity:1;vector-effect:none;fill:#ffdd55;fill-opacity:1;stroke-width:0.0861619;stroke-linecap:butt;stroke-linejoin:miter;stroke-miterlimit:4;stroke-dasharray:none;stroke-dashoffset:0;stroke-opacity:1;stop-color:#000000;stop-opacity:1"
     d="m 54.627603,211.63007 c 0,-0.29947 0.354532,-2.65816 0.428977,-2.85397 0.04255,-0.11192 0.110835,-0.22417 0.151743,-0.24945 0.178619,-0.11039 2.025428,-0.3214 2.60837,-0.29802 l 0.6402,0.0257 -0.604255,0.60313 c -0.33234,0.33173 -1.087305,1.02682 -1.6777,1.54467 -0.590394,0.51784 -1.18007,1.03883 -1.31039,1.15776 -0.19511,0.17806 -0.236945,0.19045 -0.236945,0.0702 z"
     id="path934" />
  <path
     style="font-variation-settings:normal;opacity:1;vector-effect:none;fill:#ffdd55;fill-opacity:1;stroke-width:0.0861619;stroke-linecap:butt;stroke-linejoin:miter;stroke-miterlimit:4;stroke-dasharray:none;stroke-dashoffset:0;stroke-opacity:1;stop-color:#000000;stop-opacity:1"
     d="m 48.854759,216.84835 c 0,-0.38695 0.328566,-2.15306 0.520469,-2.79762 0.107795,-0.36206 0.235619,-0.61331 0.34061,-0.6695 0.509944,-0.27291 3.360852,-0.46833 3.360852,-0.23036 0,0.20274 -3.124581,3.16538 -3.983257,3.77681 l -0.238674,0.16996 z"
     id="path936" />
  <path
     style="font-variation-settings:normal;opacity:1;vector-effect:none;fill:#ffdd55;fill-opacity:1;stroke-width:0.0861619;stroke-linecap:butt;stroke-linejoin:miter;stroke-miterlimit:4;stroke-dasharray:none;stroke-dashoffset:0;stroke-opacity:1;stop-color:#000000;stop-opacity:1"
     d="m 44.428077,220.55392 c 0.208367,-1.54524 0.297375,-1.9145 0.485793,-2.01534 0.227837,-0.12193 2.223938,-0.19644 2.379945,-0.0888 0.09715,0.067 0.07601,0.13887 -0.114224,0.38828 -0.209484,0.27465 -2.732011,2.55597 -2.826213,2.55597 -0.02122,0 0.0124,-0.37803 0.0747,-0.84007 z"
     id="path938" />
  <path
     style="font-variation-settings:normal;opacity:1;vector-effect:none;fill:#ffdd55;fill-opacity:1;stroke-width:0.0861619;stroke-linecap:butt;stroke-linejoin:miter;stroke-miterlimit:4;stroke-dasharray:none;stroke-dashoffset:0;stroke-opacity:1;stop-color:#000000;stop-opacity:1"
     d="m 39.377703,225.98865 c 0.0028,-0.59483 0.412244,-3.47863 0.518199,-3.65007 0.08173,-0.13224 1.197867,-0.24057 2.567206,-0.24917 l 0.975188,-0.006 -0.195672,0.28002 c -0.547105,0.78296 -3.86621,3.89632 -3.864921,3.62534 z"
     id="path940" />
  <path
     style="font-variation-settings:normal;opacity:1;vector-effect:none;fill:#ffdd55;fill-opacity:1;stroke-width:0.0861619;stroke-linecap:butt;stroke-linejoin:miter;stroke-miterlimit:4;stroke-dasharray:none;stroke-dashoffset:0;stroke-opacity:1;stop-color:#000000;stop-opacity:1"
     d="m 36.04775,229.10535 c -0.02887,-0.0752 -0.03542,-0.57127 -0.01455,-1.10228 0.03606,-0.91743 0.132581,-1.30604 0.362531,-1.45959 0.113325,-0.0757 1.804172,-0.0686 2.139847,0.009 0.229213,0.0529 0.203687,0.088 -0.935102,1.28394 -1.25893,1.32213 -1.467074,1.49225 -1.552724,1.26905 z"
     id="path942" />
  <path
     style="font-variation-settings:normal;opacity:1;vector-effect:none;fill:#ffdd55;fill-opacity:1;stroke-width:0.0861619;stroke-linecap:butt;stroke-linejoin:miter;stroke-miterlimit:4;stroke-dasharray:none;stroke-dashoffset:0;stroke-opacity:1;stop-color:#000000;stop-opacity:1"
     d="m 33.905677,229.66312 c -1.193809,-0.0873 -1.667758,-0.16982 -1.813668,-0.31573 -0.140094,-0.1401 -0.1606,-0.8105 -0.0677,-2.21349 l 0.05638,-0.85147 0.955577,0.0567 c 0.525568,0.0312 1.298577,0.081 1.717799,0.11055 l 0.762221,0.0538 -0.04811,0.43936 c -0.02646,0.24165 -0.07365,0.97249 -0.104859,1.62409 l -0.05675,1.18472 -0.269634,-0.0128 c -0.148299,-0.007 -0.657363,-0.0411 -1.131253,-0.0758 z"
     id="path944" />
  <path
     style="font-variation-settings:normal;opacity:1;vector-effect:none;fill:#ffdd55;fill-opacity:1;stroke-width:0.0861619;stroke-linecap:butt;stroke-linejoin:miter;stroke-miterlimit:4;stroke-dasharray:none;stroke-dashoffset:0;stroke-opacity:1;stop-color:#000000;stop-opacity:1"
     d="m 31.905156,232.97542 c -0.03705,-0.0907 -0.06736,-0.71154 -0.06736,-1.37956 0,-0.90281 0.03035,-1.25115 0.118253,-1.35705 0.09923,-0.11956 0.293229,-0.14125 1.206266,-0.13492 0.598407,0.004 1.277139,0.0332 1.508293,0.0646 l 0.420281,0.0571 -0.635685,0.54592 c -0.349627,0.30025 -1.051259,0.95609 -1.559183,1.4574 -0.800173,0.78977 -0.932494,0.88946 -0.990861,0.74652 z"
     id="path946" />
  <path
     style="font-variation-settings:normal;opacity:1;vector-effect:none;fill:#ffdd55;fill-opacity:1;stroke-width:0.0861619;stroke-linecap:butt;stroke-linejoin:miter;stroke-miterlimit:4;stroke-dasharray:none;stroke-dashoffset:0;stroke-opacity:1;stop-color:#000000;stop-opacity:1"
     d="m 29.812989,225.69819 c -0.497585,-0.0336 -0.933779,-0.0659 -0.969321,-0.0717 -0.03554,-0.006 -0.06462,-0.66107 -0.06462,-1.45614 0,-1.95293 -0.109543,-1.82857 1.610685,-1.82857 h 1.342428 l -0.05309,0.797 c -0.0292,0.43835 -0.07858,1.21381 -0.109725,1.72324 l -0.05664,0.92624 -0.39751,-0.0145 c -0.218631,-0.008 -0.804626,-0.042 -1.30221,-0.0756 z"
     id="path948" />
  <path
     style="font-variation-settings:normal;opacity:1;vector-effect:none;fill:#ffdd55;fill-opacity:1;stroke-width:0.0861619;stroke-linecap:butt;stroke-linejoin:miter;stroke-miterlimit:4;stroke-dasharray:none;stroke-dashoffset:0;stroke-opacity:1;stop-color:#000000;stop-opacity:1"
     d="m 33.435133,225.77182 c -0.685301,-0.0426 -1.261392,-0.0928 -1.280202,-0.1116 -0.04653,-0.0465 0.145393,-2.79401 0.212709,-3.04503 0.02957,-0.11026 0.147916,-0.23627 0.262996,-0.28003 0.11508,-0.0437 0.904623,-0.0796 1.75454,-0.0796 h 1.545304 l -0.0012,0.19387 c -6.63e-4,0.10662 -0.07767,0.853 -0.171117,1.65861 -0.09345,0.80562 -0.170455,1.53261 -0.171118,1.61554 -0.0014,0.17315 -0.103317,0.17544 -2.151906,0.0482 z"
     id="path950" />
  <path
     style="font-variation-settings:normal;opacity:1;vector-effect:none;fill:#ffdd55;fill-opacity:1;stroke-width:0.0861619;stroke-linecap:butt;stroke-linejoin:miter;stroke-miterlimit:4;stroke-dasharray:none;stroke-dashoffset:0;stroke-opacity:1;stop-color:#000000;stop-opacity:1"
     d="m 32.902185,221.68192 c -0.500269,-0.0477 -0.501634,-0.0521 -0.503164,-1.63127 l -0.0012,-1.21411 1.823746,-0.0568 c 1.003059,-0.0312 1.840864,-0.0397 1.861788,-0.0188 0.05874,0.0587 -0.07877,2.68539 -0.146311,2.79467 -0.06346,0.10267 -2.304157,0.19589 -3.034882,0.12626 z"
     id="path952" />
  <path
     style="font-variation-settings:normal;opacity:1;vector-effect:none;fill:#ffdd55;fill-opacity:1;stroke-width:0.0861619;stroke-linecap:butt;stroke-linejoin:miter;stroke-miterlimit:4;stroke-dasharray:none;stroke-dashoffset:0;stroke-opacity:1;stop-color:#000000;stop-opacity:1"
     d="m 36.485034,220.51083 c 0.03346,-0.6279 0.08868,-1.27703 0.122718,-1.44251 0.05911,-0.28737 0.08298,-0.30401 0.532384,-0.37102 0.258775,-0.0386 0.866627,-0.0583 1.350781,-0.0438 1.04765,0.0314 1.170826,0.10633 1.158808,0.70506 -0.0074,0.36872 -0.226722,1.81294 -0.325455,2.14312 -0.04059,0.13572 -0.187684,0.15078 -1.472581,0.15078 h -1.427492 z"
     id="path954" />
  <path
     style="font-variation-settings:normal;opacity:1;vector-effect:none;fill:#ffdd55;fill-opacity:1;stroke-width:0.0861619;stroke-linecap:butt;stroke-linejoin:miter;stroke-miterlimit:4;stroke-dasharray:none;stroke-dashoffset:0;stroke-opacity:1;stop-color:#000000;stop-opacity:1"
     d="m 36.812264,225.96177 c -0.296939,-0.0338 -0.566324,-0.0878 -0.598635,-0.12014 -0.0618,-0.0618 0.125498,-3.50641 0.194401,-3.57532 0.02196,-0.022 0.619214,-0.043 1.327236,-0.0469 0.913256,-0.005 1.318344,0.0239 1.394101,0.0993 0.08493,0.0845 0.0756,0.42833 -0.04559,1.68016 -0.08381,0.86566 -0.173294,1.68055 -0.198855,1.81087 l -0.04648,0.23694 -0.743146,-0.0118 c -0.40873,-0.006 -0.986095,-0.0394 -1.283033,-0.0732 z"
     id="path956" />
  <path
     style="font-variation-settings:normal;opacity:1;vector-effect:none;fill:#ffdd55;fill-opacity:1;stroke-width:0.0861619;stroke-linecap:butt;stroke-linejoin:miter;stroke-miterlimit:4;stroke-dasharray:none;stroke-dashoffset:0;stroke-opacity:1;stop-color:#000000;stop-opacity:1"
     d="m 36.851299,217.49517 c 0.02207,-0.39096 0.06625,-1.21488 0.09817,-1.83094 l 0.05804,-1.1201 1.637075,-0.18566 c 0.900391,-0.10211 1.64389,-0.1793 1.65222,-0.17154 0.03269,0.0305 -0.310018,2.75326 -0.402798,3.20017 -0.06398,0.30818 -0.156179,0.50563 -0.262747,0.56266 -0.146998,0.0787 -1.857668,0.24929 -2.549594,0.25429 l -0.270491,0.002 z"
     id="path958" />
  <path
     style="font-variation-settings:normal;opacity:1;vector-effect:none;fill:#ffdd55;fill-opacity:1;stroke-width:0.0861619;stroke-linecap:butt;stroke-linejoin:miter;stroke-miterlimit:4;stroke-dasharray:none;stroke-dashoffset:0;stroke-opacity:1;stop-color:#000000;stop-opacity:1"
     d="m 40.690923,217.97287 c -0.173877,-0.0335 -0.193887,-0.0878 -0.194085,-0.52677 -1.96e-4,-0.43497 0.256402,-3.21029 0.302366,-3.27035 0.04549,-0.0594 2.905377,-0.363 3.424355,-0.36347 l 0.581593,-5.3e-4 v 0.25519 c 0,0.38604 -0.336721,2.92803 -0.437367,3.3018 -0.05933,0.22033 -0.156256,0.3537 -0.295526,0.40665 -0.474756,0.1805 -2.772701,0.31471 -3.381336,0.19748 z"
     id="path960" />
  <path
     style="font-variation-settings:normal;opacity:1;vector-effect:none;fill:#ffdd55;fill-opacity:1;stroke-width:0.0861619;stroke-linecap:butt;stroke-linejoin:miter;stroke-miterlimit:4;stroke-dasharray:none;stroke-dashoffset:0;stroke-opacity:1;stop-color:#000000;stop-opacity:1"
     d="m 40.081912,221.54752 c -0.134836,-0.13484 -0.130387,-0.32752 0.03973,-1.72057 l 0.144014,-1.17932 0.524971,-0.0454 c 0.288734,-0.025 1.174416,-0.0679 1.968183,-0.0956 1.150686,-0.04 1.443026,-0.0276 1.442298,0.0615 -0.0032,0.38937 -0.362746,2.35414 -0.468108,2.55789 -0.155029,0.29979 -0.283883,0.354 -0.951588,0.40029 -1.588829,0.11015 -2.602544,0.11809 -2.699498,0.0211 z"
     id="path962" />
  <path
     style="font-variation-settings:normal;opacity:1;vector-effect:none;fill:#ffdd55;fill-opacity:1;stroke-width:0.0861619;stroke-linecap:butt;stroke-linejoin:miter;stroke-miterlimit:4;stroke-dasharray:none;stroke-dashoffset:0;stroke-opacity:1;stop-color:#000000;stop-opacity:1"
     d="m 44.949986,217.80042 c -0.07031,-0.11376 0.472574,-4.03702 0.571417,-4.12946 0.04829,-0.0452 3.338224,-0.31387 3.376332,-0.27576 0.05181,0.0518 -0.475818,2.62264 -0.742918,3.61984 -0.109234,0.40782 -0.232038,0.68528 -0.320214,0.72349 -0.226077,0.098 -2.827824,0.15379 -2.884617,0.0619 z"
     id="path964" />
  <path
     style="font-variation-settings:normal;opacity:1;vector-effect:none;fill:#ffdd55;fill-opacity:1;stroke-width:0.0861619;stroke-linecap:butt;stroke-linejoin:miter;stroke-miterlimit:4;stroke-dasharray:none;stroke-dashoffset:0;stroke-opacity:1;stop-color:#000000;stop-opacity:1"
     d="m 40.953943,213.44556 c 0.02462,-0.10662 0.113859,-0.86284 0.198317,-1.68047 0.08446,-0.81764 0.175275,-1.52175 0.201815,-1.56469 0.06065,-0.0981 2.79134,-0.43828 3.518402,-0.43827 0.415428,10e-6 0.553446,0.0319 0.593838,0.13714 0.06298,0.16414 -0.278257,2.39659 -0.436632,2.85653 -0.10484,0.30446 -0.141482,0.32965 -0.620326,0.42636 -0.478603,0.0967 -3.1524,0.45727 -3.390546,0.45727 -0.0695,0 -0.09324,-0.071 -0.06487,-0.19387 z"
     id="path966" />
  <path
     style="font-variation-settings:normal;opacity:1;vector-effect:none;fill:#ffdd55;fill-opacity:1;stroke-width:0.0861619;stroke-linecap:butt;stroke-linejoin:miter;stroke-miterlimit:4;stroke-dasharray:none;stroke-dashoffset:0;stroke-opacity:1;stop-color:#000000;stop-opacity:1"
     d="m 45.709202,212.6398 c 0.127408,-1.11588 0.316921,-2.30583 0.414824,-2.60467 0.08083,-0.24672 0.169742,-0.33725 0.407847,-0.41526 0.465778,-0.15259 2.377146,-0.46086 2.857501,-0.46086 0.419526,0 0.426056,0.004 0.380225,0.23695 -0.166139,0.84417 -0.594666,2.87286 -0.660709,3.12785 l -0.07927,0.30606 -1.229077,0.10748 c -0.675992,0.0591 -1.436142,0.1307 -1.689223,0.15908 l -0.460146,0.0516 z"
     id="path968" />
  <path
     style="font-variation-settings:normal;opacity:1;vector-effect:none;fill:#ffdd55;fill-opacity:1;stroke-width:0.0861619;stroke-linecap:butt;stroke-linejoin:miter;stroke-miterlimit:4;stroke-dasharray:none;stroke-dashoffset:0;stroke-opacity:1;stop-color:#000000;stop-opacity:1"
     d="m 46.269903,208.82617 c 0,-0.33103 0.600717,-3.72358 0.688314,-3.88726 0.04714,-0.0881 0.192658,-0.18123 0.323371,-0.207 0.250701,-0.0494 2.011039,-0.26141 2.942066,-0.3543 l 0.550357,-0.0549 -0.05577,0.41489 c -0.06669,0.49615 -0.399805,1.98337 -0.661322,2.95257 -0.119307,0.44215 -0.24496,0.72839 -0.342718,0.78071 -0.17778,0.0952 -1.899369,0.38618 -2.819624,0.47666 -0.598445,0.0588 -0.624674,0.0537 -0.624674,-0.12137 z"
     id="path970" />
  <path
     style="font-variation-settings:normal;opacity:1;vector-effect:none;fill:#ffdd55;fill-opacity:1;stroke-width:0.0861619;stroke-linecap:butt;stroke-linejoin:miter;stroke-miterlimit:4;stroke-dasharray:none;stroke-dashoffset:0;stroke-opacity:1;stop-color:#000000;stop-opacity:1"
     d="m 50.615513,207.92436 c 0.07713,-0.6173 0.699697,-3.49473 0.771713,-3.56675 0.06593,-0.0659 1.518977,-0.24043 2.741837,-0.32927 l 0.836968,-0.0608 0.105594,0.23175 c 0.124167,0.27252 0.0042,1.43991 -0.291259,2.83443 -0.157035,0.74116 -0.206101,0.85741 -0.391697,0.92797 -0.291954,0.111 -2.760506,0.42186 -3.350006,0.42186 H 50.55814 Z"
     id="path972" />
  <path
     style="font-variation-settings:normal;opacity:1;vector-effect:none;fill:#ffdd55;fill-opacity:1;stroke-width:0.0861619;stroke-linecap:butt;stroke-linejoin:miter;stroke-miterlimit:4;stroke-dasharray:none;stroke-dashoffset:0;stroke-opacity:1;stop-color:#000000;stop-opacity:1"
     d="m 49.829075,212.03406 c 0.04689,-0.59259 0.460661,-2.86727 0.536197,-2.94772 0.04079,-0.0435 2.375564,-0.33624 3.237055,-0.40595 0.699224,-0.0566 0.743637,-0.05 0.787026,0.11589 0.109431,0.41846 -0.239446,2.62741 -0.492147,3.11608 -0.07611,0.14718 -0.242652,0.28496 -0.409749,0.33898 -0.306962,0.0993 -1.838405,0.30441 -2.987637,0.40024 l -0.72439,0.0604 z"
     id="path974" />
  <path
     style="font-variation-settings:normal;opacity:1;vector-effect:none;fill:#ffdd55;fill-opacity:1;stroke-width:0.0861619;stroke-linecap:butt;stroke-linejoin:miter;stroke-miterlimit:4;stroke-dasharray:none;stroke-dashoffset:0;stroke-opacity:1;stop-color:#000000;stop-opacity:1"
     d="m 55.344209,207.72731 c -0.07107,-0.1852 0.102729,-1.62134 0.322029,-2.66099 0.231577,-1.09785 0.248944,-1.14336 0.455798,-1.19452 0.289161,-0.0715 1.564044,-0.21407 2.490553,-0.2785 l 0.840078,-0.0584 v 0.52254 c 0,0.59561 -0.116599,1.54312 -0.318538,2.58851 -0.164062,0.84931 -0.109697,0.81342 -1.508883,0.99603 -1.84056,0.2402 -2.216223,0.25426 -2.281037,0.0853 z"
     id="path976" />
  <path
     style="font-variation-settings:normal;opacity:1;vector-effect:none;fill:#ffdd55;fill-opacity:1;stroke-width:0.0861619;stroke-linecap:butt;stroke-linejoin:miter;stroke-miterlimit:4;stroke-dasharray:none;stroke-dashoffset:0;stroke-opacity:1;stop-color:#000000;stop-opacity:1"
     d="m 51.562146,203.54933 c 0.02523,-0.11343 0.108319,-0.58793 0.184645,-1.05443 0.07633,-0.4665 0.243049,-1.28072 0.370494,-1.80939 l 0.231717,-0.96122 0.902356,-0.1029 c 1.141198,-0.13013 2.483787,-0.16177 2.575321,-0.0607 0.165334,0.18257 -0.336058,3.53922 -0.553255,3.70385 -0.109417,0.0829 -1.427905,0.26328 -3.170805,0.4337 -0.585524,0.0573 -0.586279,0.0571 -0.540473,-0.14892 z"
     id="path978" />
  <path
     style="font-variation-settings:normal;opacity:1;vector-effect:none;fill:#ffdd55;fill-opacity:1;stroke-width:0.0861619;stroke-linecap:butt;stroke-linejoin:miter;stroke-miterlimit:4;stroke-dasharray:none;stroke-dashoffset:0;stroke-opacity:1;stop-color:#000000;stop-opacity:1"
     d="m 56.045097,202.76149 c 0.125694,-1.03236 0.507943,-3.30096 0.567538,-3.36825 0.05484,-0.0619 3.62262,-0.42852 3.665781,-0.37667 0.0084,0.0101 -0.01946,0.28983 -0.062,0.62155 -0.355185,2.76997 -0.442543,3.04383 -1.041434,3.26491 -0.45562,0.1682 -1.605903,0.31081 -2.506859,0.31081 h -0.6781 z"
     id="path980" />
  <path
     style="font-variation-settings:normal;opacity:1;vector-effect:none;fill:#ffdd55;fill-opacity:1;stroke-width:0.0861619;stroke-linecap:butt;stroke-linejoin:miter;stroke-miterlimit:4;stroke-dasharray:none;stroke-dashoffset:0;stroke-opacity:1;stop-color:#000000;stop-opacity:1"
     d="m 56.78165,198.57738 c 0,-0.71022 0.459817,-3.60038 0.595745,-3.74453 0.07438,-0.0789 3.447673,-0.2701 3.518333,-0.19944 0.05514,0.0551 -0.401221,3.44331 -0.500844,3.71843 -0.05911,0.16324 -0.177441,0.18743 -1.38658,0.28352 -0.727075,0.0578 -1.525512,0.12821 -1.774305,0.15651 l -0.452349,0.0514 z"
     id="path982" />
  <path
     style="font-variation-settings:normal;opacity:1;vector-effect:none;fill:#ffdd55;fill-opacity:1;stroke-width:0.0861619;stroke-linecap:butt;stroke-linejoin:miter;stroke-miterlimit:4;stroke-dasharray:none;stroke-dashoffset:0;stroke-opacity:1;stop-color:#000000;stop-opacity:1"
     d="m 60.315293,202.76149 c 0.0025,-0.26703 0.518989,-3.71516 0.563098,-3.75927 0.06785,-0.0678 2.256164,-0.2545 3.076233,-0.26238 l 0.667755,-0.006 3.1e-4,0.36618 c 4.22e-4,0.49394 -0.35099,3.27923 -0.4239,3.35987 -0.06529,0.0722 -2.952306,0.40779 -3.518315,0.40896 -0.236444,4.9e-4 -0.365831,-0.0374 -0.365181,-0.10695 z"
     id="path984" />
  <path
     style="font-variation-settings:normal;opacity:1;vector-effect:none;fill:#ffdd55;fill-opacity:1;stroke-width:0.0861619;stroke-linecap:butt;stroke-linejoin:miter;stroke-miterlimit:4;stroke-dasharray:none;stroke-dashoffset:0;stroke-opacity:1;stop-color:#000000;stop-opacity:1"
     d="m 60.953941,198.2915 c 0.02477,-0.11236 0.106114,-0.63079 0.180766,-1.15207 0.207064,-1.44589 0.342195,-2.07459 0.496531,-2.31014 0.131162,-0.20018 0.202907,-0.21813 1.070432,-0.26787 0.511416,-0.0293 1.255755,-0.0759 1.654086,-0.10355 l 0.724239,-0.0502 -0.05025,1.10742 c -0.0468,1.03142 -0.259736,2.41137 -0.39252,2.54375 -0.03186,0.0318 -0.717067,0.12011 -1.522681,0.19631 -0.805613,0.0762 -1.631452,0.16153 -1.835196,0.18961 -0.355127,0.049 -0.368583,0.0426 -0.325409,-0.15322 z"
     id="path986" />
  <path
     style="font-variation-settings:normal;opacity:1;vector-effect:none;fill:#ffdd55;fill-opacity:1;stroke-width:0.0861619;stroke-linecap:butt;stroke-linejoin:miter;stroke-miterlimit:4;stroke-dasharray:none;stroke-dashoffset:0;stroke-opacity:1;stop-color:#000000;stop-opacity:1"
     d="m 61.607449,194.00984 c 0.004,-0.3141 0.531681,-3.40142 0.611275,-3.57611 0.151343,-0.33216 0.518405,-0.40162 2.12527,-0.40217 l 1.401772,-4.8e-4 -0.04266,0.19386 c -0.02346,0.10663 -0.122062,0.89178 -0.219111,1.74478 -0.09705,0.853 -0.194621,1.63406 -0.216826,1.73568 -0.03858,0.17654 -0.100766,0.18712 -1.398066,0.23779 -0.74673,0.0292 -1.561249,0.0692 -1.810042,0.089 -0.248792,0.0198 -0.452018,0.01 -0.451614,-0.0224 z"
     id="path988" />
  <path
     style="font-variation-settings:normal;opacity:1;vector-effect:none;fill:#ffdd55;fill-opacity:1;stroke-width:0.0861619;stroke-linecap:butt;stroke-linejoin:miter;stroke-miterlimit:4;stroke-dasharray:none;stroke-dashoffset:0;stroke-opacity:1;stop-color:#000000;stop-opacity:1"
     d="m 66.520551,193.76255 c -0.588817,-0.046 -0.683009,-0.12309 -0.642028,-0.52531 0.01792,-0.17586 0.09692,-0.98654 0.175569,-1.80152 l 0.142992,-1.48178 1.129749,-0.026 c 0.621361,-0.0143 1.391169,-0.0146 1.710684,-5.9e-4 0.539749,0.0237 0.584799,0.0409 0.635442,0.24263 0.05353,0.21327 -0.08684,2.43324 -0.194357,3.07396 -0.03013,0.17952 -0.117313,0.35951 -0.19375,0.39998 -0.166038,0.0879 -2.097182,0.17082 -2.764301,0.11868 z"
     id="path990" />
  <path
     style="font-variation-settings:normal;opacity:1;vector-effect:none;fill:#ffdd55;fill-opacity:1;stroke-width:0.0861619;stroke-linecap:butt;stroke-linejoin:miter;stroke-miterlimit:4;stroke-dasharray:none;stroke-dashoffset:0;stroke-opacity:1;stop-color:#000000;stop-opacity:1"
     d="m 65.462347,197.99376 c -0.03548,-0.0355 -0.06298,-0.30038 -0.0611,-0.58866 0.0039,-0.60363 0.282997,-2.86408 0.36354,-2.94463 0.05939,-0.0594 2.093874,-0.19654 3.014906,-0.20323 l 0.581593,-0.004 v 0.97762 c 0,0.5377 -0.02485,1.32768 -0.05522,1.75553 l -0.05522,0.7779 -1.17259,0.095 c -2.276484,0.18441 -2.552028,0.1986 -2.61591,0.13472 z"
     id="path992" />
  <path
     style="font-variation-settings:normal;opacity:1;vector-effect:none;fill:#ffdd55;fill-opacity:1;stroke-width:0.0861619;stroke-linecap:butt;stroke-linejoin:miter;stroke-miterlimit:4;stroke-dasharray:none;stroke-dashoffset:0;stroke-opacity:1;stop-color:#000000;stop-opacity:1"
     d="m 20.372639,239.2724 c -0.352132,-0.84277 -0.822349,-1.79308 -1.073275,-2.16909 -0.152534,-0.22857 -0.662692,-0.78525 -1.133684,-1.23705 l -0.85635,-0.82147 1.30429,-2.06496 c 0.892542,-1.41307 1.35083,-2.06341 1.451714,-2.06006 0.08108,0.003 0.47546,0.19583 0.876392,0.4292 0.566576,0.32979 0.997763,0.69339 1.935579,1.63219 1.789199,1.79107 3.535544,3.9223 3.47351,4.23906 -0.03516,0.17954 -0.809313,0.60878 -2.009104,1.11399 -1.041971,0.43875 -3.00318,1.10954 -3.511458,1.20103 -0.311408,0.056 -0.328469,0.0463 -0.457614,-0.26284 z"
     id="path994" />
</svg>
