<?xml version="1.0" encoding="UTF-8" standalone="no"?>
<svg
   xmlns:osb="http://www.openswatchbook.org/uri/2009/osb"
   xmlns:dc="http://purl.org/dc/elements/1.1/"
   xmlns:cc="http://creativecommons.org/ns#"
   xmlns:rdf="http://www.w3.org/1999/02/22-rdf-syntax-ns#"
   xmlns:svg="http://www.w3.org/2000/svg"
   xmlns="http://www.w3.org/2000/svg"
   xmlns:xlink="http://www.w3.org/1999/xlink"
   xmlns:sodipodi="http://sodipodi.sourceforge.net/DTD/sodipodi-0.dtd"
   xmlns:inkscape="http://www.inkscape.org/namespaces/inkscape"
   cursor="default"
   viewBox="0 0 256 256"
   version="1.1"
   id="svg53"
   sodipodi:docname="deamonsword.svg"
   inkscape:version="1.0.2-2 (e86c870879, 2021-01-15)">
  <metadata
     id="metadata57">
    <rdf:RDF>
      <cc:Work
         rdf:about="">
        <dc:format>image/svg+xml</dc:format>
        <dc:type
           rdf:resource="http://purl.org/dc/dcmitype/StillImage" />
      </cc:Work>
    </rdf:RDF>
  </metadata>
  <sodipodi:namedview
     pagecolor="#ffffff"
     bordercolor="#666666"
     borderopacity="1"
     objecttolerance="10"
     gridtolerance="10"
     guidetolerance="10"
     inkscape:pageopacity="0"
     inkscape:pageshadow="2"
     inkscape:window-width="1920"
     inkscape:window-height="1017"
     id="namedview55"
     showgrid="false"
     inkscape:zoom="5.5527332"
     inkscape:cx="52.727363"
     inkscape:cy="181.32577"
     inkscape:window-x="-8"
     inkscape:window-y="-8"
     inkscape:window-maximized="1"
     inkscape:current-layer="svg53"
     inkscape:document-rotation="0" />
  <defs
     id="defs25">
    <linearGradient
       id="linearGradient881"
       osb:paint="solid">
      <stop
         style="stop-color:#ff5591;stop-opacity:1;"
         offset="0"
         id="stop879" />
    </linearGradient>
    <linearGradient
       id="innoGrad2">
      <stop
         offset="0"
         stop-color="#f55"
         id="stop2" />
      <stop
         offset="1"
         stop-color="#ff8080"
         id="stop4" />
    </linearGradient>
    <linearGradient
       id="innoGrad3">
      <stop
         offset="0"
         stop-color="#f55"
         id="stop7" />
      <stop
         offset="1"
         stop-color="#ff2a2a"
         id="stop9" />
    </linearGradient>
    <linearGradient
       id="innoGrad1">
      <stop
         offset="0"
         stop-color="#ff7f2a"
         id="stop12" />
      <stop
         offset="1"
         stop-color="#f95"
         id="stop14" />
    </linearGradient>
    <linearGradient
       id="linearGradient1068"
       x1="87.051"
       x2="54.78"
       y1="102.78"
       y2="123.932"
       gradientTransform="translate(6.903 5.37)"
       gradientUnits="userSpaceOnUse"
       xlink:href="#innoGrad1" />
    <linearGradient
       id="linearGradient1076"
       x1="125.831"
       x2="107.39"
       y1="56.949"
       y2="73.763"
       gradientTransform="translate(6.903 5.37)"
       gradientUnits="userSpaceOnUse"
       xlink:href="#innoGrad1" />
    <linearGradient
       id="linearGradient1084"
       x1="184.678"
       x2="165.966"
       y1="32"
       y2="46.373"
       gradientTransform="translate(6.903 5.37)"
       gradientUnits="userSpaceOnUse"
       xlink:href="#innoGrad1" />
    <linearGradient
       id="linearGradient1092"
       x1="53.966"
       x2="38.78"
       y1="163.525"
       y2="179.525"
       gradientTransform="translate(6.903 5.37)"
       gradientUnits="userSpaceOnUse"
       xlink:href="#innoGrad1" />
    <linearGradient
       id="linearGradient1100"
       x1="156.475"
       x2="120.949"
       y1="104.678"
       y2="137.492"
       gradientTransform="translate(6.903 5.37)"
       gradientUnits="userSpaceOnUse"
       xlink:href="#innoGrad1" />
    <linearGradient
       id="linearGradient1108"
       x1="120.136"
       x2="184.678"
       y1="232.136"
       y2="130.712"
       gradientTransform="translate(6.903 5.37)"
       gradientUnits="userSpaceOnUse"
       xlink:href="#innoGrad1" />
    <linearGradient
       id="linearGradient1116"
       x1="82.072"
       x2="27.613"
       y1="213.813"
       y2="231.839"
       gradientTransform="translate(6.903 5.37)"
       gradientUnits="userSpaceOnUse"
       xlink:href="#innoGrad3" />
    <linearGradient
       id="linearGradient1124"
       x1="204.03"
       x2="223.206"
       y1="87.637"
       y2="49.285"
       gradientTransform="translate(6.903 5.37)"
       gradientUnits="userSpaceOnUse"
       xlink:href="#innoGrad2" />
  </defs>
  <path
     style="fill:#000000;stroke-width:0.222721"
     d="m 12.10275,252.75994 c -0.0017,-0.0807 0.944557,-0.80504 2.102848,-1.60959 1.158309,-0.80454 3.02528,-2.20008 4.148853,-3.10122 3.279715,-2.6304 3.256881,-2.91172 -0.541401,-6.66936 -2.599375,-2.57153 -2.6031,-2.57441 -3.448481,-2.59313 -1.024514,-0.0227 -1.536542,0.45347 -2.325777,2.16297 -0.312348,0.67653 -1.267919,2.48729 -2.1235197,4.02395 -1.5394358,2.76482 -2.2082875,3.55544 -2.3037416,2.72316 -0.068003,-0.593 1.6486157,-5.83996 2.7304933,-8.34597 1.539094,-3.56504 2.180781,-4.4542 5.859515,-8.11927 4.164276,-4.14881 7.170982,-6.55988 8.695468,-6.97291 0.620473,-0.16807 1.195282,-0.18371 1.300886,-0.0352 0.112318,0.15785 -0.166373,0.95906 -0.685735,1.97157 -0.773603,1.50818 -0.831152,1.74765 -0.496949,2.06777 l 0.377977,0.36206 15.906514,-16.60723 15.906502,-16.60721 2.13824,-3.34908 c 3.234995,-5.06691 4.353895,-6.49633 6.553314,-8.37197 1.026385,-0.8753 1.865374,-1.62864 1.864393,-1.67409 -10e-4,-0.0454 -0.340332,-0.44304 -0.7541,-0.88355 l -0.752237,-0.80083 -2.052083,1.88954 c -1.128632,1.03923 -3.471812,3.413 -5.207048,5.27501 -4.07531,4.37308 -4.274168,4.28092 -1.69415,-0.78517 2.382547,-4.67836 3.365635,-6.23285 4.907044,-7.75916 1.460368,-1.44607 1.478145,-1.23 -0.306025,-3.72032 -0.892756,-1.2461 -1.287526,-1.65112 -1.97763,-2.02897 -1.277059,-0.6991 -2.859475,-0.57562 -4.6015,0.35897 -0.794564,0.42629 -1.560906,0.78281 -1.702968,0.79226 -0.407983,0.0271 -1.013028,-1.32017 -1.004092,-2.23586 0.02,-2.04764 2.43065,-7.93029 4.702848,-11.47621 0.746454,-1.16489 1.799208,-2.43741 3.33239,-4.02803 5.637242,-5.84843 13.215082,-9.85036 17.139589,-9.0516 1.427421,0.29055 2.805598,0.88497 2.812643,1.21319 0.0035,0.16203 -0.857206,0.45828 -2.053588,0.70677 -5.233589,1.08698 -7.64888,2.53363 -12.225676,7.32262 -2.562008,2.68069 -3.123808,3.36698 -3.842837,4.69374 -1.132158,2.08904 -1.603912,3.74654 -1.616206,5.67842 -0.01453,2.2969 0.645681,3.74699 1.860809,4.08655 0.401756,0.11225 0.483029,0.005 1.278653,-1.67965 0.995075,-2.1076 4.056172,-6.22476 6.055653,-8.14483 1.149281,-1.10363 1.532129,-1.33151 3.326224,-1.9798 1.11511,-0.40295 2.11858,-0.64534 2.22994,-0.53867 0.155482,0.149 -0.434321,0.85447 -2.541376,3.04 -2.407167,2.49682 -2.846696,3.04271 -3.58188,4.44871 -0.875933,1.67519 -1.747954,4.20213 -1.620279,4.69525 0.0432,0.16704 0.870539,0.27035 1.973115,0.24665 l 1.898682,-0.0409 -0.223014,-0.6981 c -0.122658,-0.38396 -0.270702,-1.15543 -0.328988,-1.71438 -0.151606,-1.45379 0.310697,-1.35731 1.36512,0.28492 0.974491,1.51769 1.124654,1.58469 2.933432,1.30842 l 1.223361,-0.18685 -1.536204,-1.81297 c -0.844905,-0.99715 -1.57181,-2.03291 -1.615341,-2.30171 -0.186842,-1.15381 -0.188232,-2.75062 -0.0025,-2.79871 0.110831,-0.0287 1.245663,0.94923 2.521822,2.17316 1.275768,1.22434 2.621391,2.42193 2.989374,2.66223 0.608911,0.39751 0.762589,0.38378 1.708031,-0.15317 0.882407,-0.50113 1.837806,-1.45112 6.341348,-6.30544 2.916322,-3.14347 6.104264,-6.63467 7.084298,-7.75819 1.714174,-1.96514 1.781544,-2.07757 1.772532,-2.95862 -0.008,-0.79065 -0.217603,-1.20704 -1.532751,-3.04606 -1.737318,-2.42937 -3.388294,-5.58476 -3.713804,-7.09795 -0.331358,-1.54032 -0.128237,-6.42809 0.322291,-7.75575 0.613328,-1.8074 1.518745,-3.12497 2.725429,-3.96604 1.317833,-0.91853 2.676201,-1.2948 5.076009,-1.40605 2.353291,-0.10908 2.558771,0.24272 0.699132,1.19691 -2.422437,1.24299 -5.301453,4.41217 -5.717227,6.29345 -0.391647,1.77213 0.663623,4.44664 2.769312,7.01857 1.509931,1.84431 2.701828,2.64332 3.754024,2.51645 1.78584,-0.21527 2.02841,-0.38281 6.22397,-4.29832 2.20762,-2.06028 4.13683,-3.87104 4.28713,-4.02391 0.35342,-0.35954 -0.47699,-1.18907 -1.63895,-1.63722 -1.51187,-0.58311 -1.11733,-1.19427 1.2916,-2.00076 1.63956,-0.54895 2.39555,-0.49128 3.16011,0.24108 l 0.39453,0.37791 1.93182,-2.01676 c 3.33784,-3.48461 18.45249,-19.90955 18.69894,-20.31995 0.35438,-0.59016 0.2438,-4.01577 -0.17006,-5.26817 -0.20039,-0.60639 -0.25518,-1.2064 -0.12177,-1.33334 0.1334,-0.12695 0.97065,-0.0954 1.86054,0.07 1.40911,0.26196 1.85084,0.21988 3.4217,-0.32593 l 1.80372,-0.62672 20.15899,-21.510858 20.15899,-21.510826 0.83818,-2.731259 c 0.61453,-2.002474 1.06932,-3.050908 1.70437,-3.929262 1.42027,-1.964372 4.42591,-4.218878 4.95226,-3.714681 0.0852,0.08168 -0.10941,0.589155 -0.4324,1.12788 -0.32301,0.538725 -0.71748,1.340556 -0.8766,1.781846 l -0.28928,0.802333 0.78801,-0.787249 c 0.43345,-0.432954 4.75663,-5.174188 9.60716,-10.535996 l 8.81914,-9.74873 3.51288,-2.80337 c 9.46161,-7.550567 15.16702,-11.693977 22.43375,-16.291888 5.81965,-3.682292 13.79377,-8.4623955 14.14045,-8.4765272 0.44842,-0.018207 0.0117,0.8218097 -2.55454,4.9196332 -7.98757,12.752216 -12.26531,19.310558 -19.31656,29.614817 l -4.207,6.147855 -13.69448,14.485386 c -7.53191,7.967018 -17.99351,19.064239 -23.24797,24.660573 l -9.55354,10.175136 0.93058,0.474531 c 0.5118,0.261019 1.24984,0.477638 1.64003,0.481413 0.70729,0.0067 3.28539,-1.034704 3.74259,-1.512024 0.14733,-0.153845 0.32883,-0.124613 0.46772,0.07517 0.20202,0.290668 0.0441,0.506151 -1.43721,1.961382 -1.38694,1.362522 -1.83456,1.687534 -2.687,1.951042 l -1.02282,0.316176 0.54325,1.027817 c 0.29879,0.5653 0.44241,1.08098 0.31915,1.14596 -0.12328,0.065 -0.90468,-0.15285 -1.73651,-0.48424 -1.80194,-0.71766 -2.10867,-0.73881 -3.86619,-0.26666 l -1.3522,0.36328 -8.19776,8.03485 -8.19777,8.03485 -0.68212,2.01998 c -0.37516,1.111 -0.87016,3.01804 -1.09999,4.23789 l -0.41787,2.21789 -1.98484,0.51053 c -4.41827,1.13643 -6.50903,2.08847 -10.11505,4.60598 l -2.30417,1.60862 -22.45852,23.0646 -22.45853,23.06461 -0.293098,0.97452 c -0.264476,0.87939 -0.229089,1.05516 0.362522,1.80087 0.360546,0.45455 1.284791,1.42915 2.053852,2.16582 0.769062,0.73667 1.400199,1.42751 1.402514,1.5352 0.0067,0.30957 -2.197635,1.00161 -2.863539,0.89901 -0.429444,-0.0661 -0.984244,-0.45871 -1.933589,-1.36807 -0.732239,-0.7014 -1.378833,-1.22568 -1.436723,-1.16526 -0.05801,0.0606 -0.253415,0.56727 -0.434299,1.12608 -0.363192,1.12203 -0.162831,1.48312 1.015672,1.8305 0.647879,0.19098 0.700111,0.24325 0.56487,0.56537 -0.08992,0.2142 -0.632878,0.44942 -1.369567,0.59335 l -1.220562,0.23845 0.03399,1.99395 0.03398,1.99394 0.782152,-0.25382 c 2.300941,-0.74665 9.17024,-4.9859 12.406295,-7.65625 0.57895,-0.47776 1.08633,-0.74389 1.27065,-0.66648 0.16882,0.0708 0.3081,0.1841 0.30948,0.2518 0.003,0.12227 -7.678347,7.11165 -9.635756,8.76811 -0.56413,0.47741 -1.503725,1.16751 -2.088006,1.53356 -0.58429,0.36607 -1.061019,0.72706 -1.059397,0.8022 0.0016,0.0752 0.586834,0.18191 1.30049,0.23726 2.192574,0.17009 3.940322,-0.49581 8.281023,-3.15511 3.553416,-2.17696 6.395016,-4.43634 12.998036,-10.33487 1.59032,-1.42066 1.93371,-1.26669 1.2107,0.54288 -0.50479,1.26345 -0.59843,1.37221 -6.29361,7.31036 -4.73523,4.93718 -6.12126,6.28251 -7.660734,7.43533 -3.924827,2.93911 -9.867504,6.27571 -14.132585,7.93496 -1.512497,0.5884 -2.407506,0.78463 -3.340618,0.73236 -2.089822,-0.1171 -2.230979,-0.66949 -0.357365,-1.39882 1.026246,-0.39948 1.455943,-0.71799 2.657842,-1.9701 1.317555,-1.37258 1.432316,-1.55614 1.417033,-2.2665 -0.0229,-1.06451 -1.252734,-2.24133 -2.943772,-2.81747 -0.671531,-0.22865 -1.243445,-0.39617 -1.27093,-0.37229 -2.945235,2.56048 -3.179437,2.71464 -6.082154,4.00402 -4.404291,1.95633 -5.081174,2.2027 -5.348498,1.94663 -0.193411,-0.18527 -0.09025,-0.35642 0.500848,-0.83098 1.873266,-1.50394 4.269802,-3.60811 6.266155,-5.50169 l 2.175893,-2.06386 -0.564877,-0.5411 -0.564878,-0.54108 -1.689348,1.54306 c -2.296188,2.09736 -3.415277,2.93275 -7.645341,5.70717 l -3.631178,2.38162 -15.276994,15.28264 c -8.40234,8.40545 -15.949491,15.92223 -16.77144,16.70397 -0.821965,0.78172 -1.440098,1.47337 -1.373655,1.53701 0.06645,0.0636 1.051555,-0.31118 2.189164,-0.83295 2.473006,-1.1343 2.828253,-1.0077 2.220435,0.79111 -0.398736,1.18006 -0.489444,1.29036 -4.504372,5.4775 -4.467962,4.65958 -6.225185,6.16739 -8.907211,7.64294 -2.041079,1.12292 -5.135331,2.46658 -8.171678,3.54851 -2.102973,0.74934 -2.547649,0.82145 -2.556405,0.41456 z m 7.717805,-3.20627 c 1.19762,-0.54604 2.875539,-1.42747 3.728703,-1.95871 3.924179,-2.44348 12.884376,-11.78742 12.060276,-12.57681 -0.0616,-0.059 -0.939148,0.2801 -1.950105,0.75356 -1.758262,0.82346 -1.859855,0.84013 -2.339487,0.38394 -1.173689,-1.11732 -1.850951,-1.42381 -2.504861,-1.13631 -0.348089,0.15301 -1.152926,0.40646 -1.78851,0.56318 -0.940866,0.23197 -1.243261,0.20095 -1.627359,-0.16704 -0.530351,-0.50803 -0.539051,-1.06532 -0.05988,-3.83691 l 0.305669,-1.768 -0.911741,-0.88259 -0.911742,-0.8826 0.810406,-1.59267 0.810429,-1.59269 -0.666633,0.15385 c -1.016777,0.23471 -4.458152,3.07601 -8.091662,6.68073 -2.924208,2.90104 -3.341999,3.3871 -4.257592,4.95344 -1.279675,2.18918 -3.9630882,8.93638 -3.3018686,8.30222 0.09214,-0.0885 0.7663119,-1.31622 1.4981286,-2.72855 0.731816,-1.41234 1.597197,-2.9106 1.923078,-3.3295 0.543724,-0.6989 0.689924,-0.76109 1.775198,-0.75496 l 1.182687,0.007 2.844429,2.8183 c 2.571865,2.54844 2.858521,2.89264 2.992017,3.59385 0.246125,1.29281 -0.200167,2.10126 -1.9529,3.53761 -1.495534,1.22559 -3.328692,2.6218 -4.075572,3.10417 -0.712984,0.46045 2.313051,-0.6429 4.508416,-1.64384 z m -2.16404,-10.75766 c 0.07111,-0.33311 4.229222,-0.73188 4.53887,-0.43528 0.287262,0.27517 -0.471209,3.88139 -0.836211,3.97589 -0.334854,0.0867 -3.77479,-3.20272 -3.703074,-3.54018 z m 3.689319,1.75799 c 0.400833,-1.74117 0.388953,-1.75647 -1.22423,-1.57854 l -1.462685,0.16136 1.234385,1.18241 1.234386,1.18238 z m -5.495245,-4.02653 -0.400639,-0.51422 1.701035,-1.58577 c 0.935565,-0.87216 1.814491,-1.61512 1.953169,-1.65102 0.345894,-0.0895 2.964318,2.44299 2.889335,2.79447 -0.06162,0.28866 -5.313313,1.77514 -5.586376,1.58123 -0.08547,-0.0611 -0.335692,-0.34239 -0.556414,-0.62482 z m 3.101393,-0.5796 2.075898,-0.55595 -0.845221,-0.90307 c -0.464894,-0.49666 -0.902843,-0.90182 -0.973246,-0.90034 -0.07041,10e-4 -0.738332,0.54885 -1.484202,1.21628 -1.818809,1.6275 -1.542685,1.88485 1.226725,1.14313 z m 4.917621,4.9482 c 0.503695,-1.29215 1.033234,-2.37975 1.176732,-2.41689 0.300325,-0.0778 2.817766,2.26096 2.754224,2.55866 -0.02322,0.10874 -0.733965,1.02388 -1.579456,2.03381 l -1.537297,1.83628 -0.865199,-0.83106 -0.865197,-0.83108 0.915799,-2.34932 z m 1.112537,2.6466 c 0.199414,-0.20817 0.742208,-0.86793 1.206225,-1.4661 l 0.843657,-1.08761 -0.878911,-0.84189 c -0.993645,-0.9518 -0.811879,-1.09398 -1.816083,1.42064 -0.537245,1.34528 -0.554138,1.55009 -0.159241,1.92926 0.357365,0.34232 0.511404,0.35154 0.804354,0.0458 z m 1.30752,-6.0211 c 0.02816,-0.13197 0.633638,-0.45314 1.3455,-0.71372 1.414435,-0.51781 1.876648,-0.37355 3.053107,0.95295 l 0.586592,0.66135 -0.74247,0.87111 c -1.058501,1.2419 -1.440337,1.20161 -3.028202,-0.31937 -0.696151,-0.66683 -1.242702,-1.32036 -1.2145,-1.45234 z m 2.804513,1.86293 c 0.222678,0.0935 0.536121,-0.0505 0.870668,-0.39967 0.501769,-0.52382 0.498451,-0.56881 -0.08277,-1.12099 -0.741169,-0.70303 -0.978483,-0.75408 -1.957634,-0.41495 l -0.768548,0.26618 0.79517,0.76169 c 0.437344,0.41892 0.951716,0.82742 1.14306,0.90777 z m -8.376988,-7.70094 c 0.07919,-0.18861 0.498239,-0.58525 0.931206,-0.8814 l 0.787241,-0.53849 0.953573,0.82181 c 0.947601,0.81679 0.952884,0.82995 0.852537,2.12393 -0.146562,1.88921 -0.432423,1.91679 -2.210836,0.21328 -1.171835,-1.12248 -1.429367,-1.46355 -1.313688,-1.73917 z m 2.88143,1.39038 c 0.0964,-0.65961 0.0033,-0.92198 -0.496584,-1.40091 -0.607652,-0.58205 -0.987088,-0.59191 -1.516345,-0.0394 -0.16644,0.17376 0.03319,0.46917 0.837912,1.24 l 1.056406,1.01192 z m 4.296062,1.52738 c 1.64267,-0.59482 1.761405,-0.59998 2.437812,-0.10624 0.391032,0.28552 0.795492,0.51723 0.898705,0.51501 0.103215,-0.002 7.50851,-7.3196 16.456202,-16.26084 9.589212,-9.58229 17.73324,-17.57618 19.836064,-19.4704 1.962156,-1.76748 3.833949,-3.49507 4.159536,-3.83909 0.56705,-0.59923 0.56921,-0.6389 0.05035,-0.94544 -0.297923,-0.17596 -1.378249,-1.04037 -2.400824,-1.92077 -1.50996,-1.30017 -2.049936,-1.89676 -2.874621,-3.17671 l -1.015392,-1.57595 -1.605482,1.57528 c -0.883031,0.86641 -9.779255,10.1573 -19.769394,20.6464 -15.043114,15.79443 -18.12694,19.10654 -17.948653,19.2773 0.118399,0.11342 0.03603,1.353 -0.183022,2.75461 -0.501089,3.2061 -0.373097,3.37123 1.958748,2.52686 z m 35.686226,-45.90038 c 2.745757,-2.60445 3.081575,-2.86487 4.200778,-3.25762 2.14481,-0.75267 3.596989,-0.1802 6.11968,2.41253 1.801861,1.8518 2.06478,2.61326 1.502494,4.35037 -0.321472,0.99315 -0.498441,1.2176 -2.250243,2.8541 -1.045749,0.97689 -2.395816,2.20468 -3.000148,2.72837 -0.604344,0.52369 -1.026025,0.9525 -0.937065,0.95289 0.404497,0.002 4.3797,-2.9634 6.547881,-4.88425 l 2.396432,-2.12307 1.049674,0.91364 1.049677,0.91363 -1.443308,1.48503 c -0.793744,0.81681 -2.47914,2.39464 -3.745176,3.50636 -1.266031,1.11173 -2.206357,2.01524 -2.089613,2.00781 0.116795,-0.007 1.390486,-0.55041 2.830514,-1.20656 2.27568,-1.03694 2.82177,-1.38138 4.173988,-2.63272 l 1.555764,-1.43971 1.427227,0.44187 c 1.190838,0.36869 1.619745,0.62627 2.589652,1.55534 1.055727,1.01125 1.164189,1.19356 1.181459,1.98634 0.01844,0.84553 -0.03277,0.92696 -1.633907,2.59849 -0.909123,0.94911 -1.915792,1.89021 -2.237064,2.09136 l -0.584122,0.36572 0.987226,-0.09 c 1.680033,-0.15334 8.260908,-3.31937 12.568521,-6.04679 3.89869,-2.46852 5.197666,-3.61569 11.257556,-9.94205 3.94578,-4.11927 5.72888,-6.09059 5.72378,-6.32792 -0.005,-0.24966 -0.49417,0.1069 -1.77303,1.29326 -2.61965,2.43025 -6.13998,5.29632 -8.66654,7.05586 -2.414629,1.68161 -6.404407,3.94159 -7.849362,4.44621 -1.250632,0.43676 -2.993764,0.52547 -4.506114,0.22934 -0.706635,-0.13831 -1.346894,-0.18675 -1.422786,-0.10757 -0.07592,0.0792 -0.246577,0.0401 -0.379269,-0.087 -0.305485,-0.29261 -0.380098,-0.22853 1.665739,-1.43051 1.593514,-0.93623 4.872324,-3.59225 6.138527,-4.97257 0.387449,-0.42234 0.06094,-0.28577 -1.23258,0.51563 -6.03104,3.73656 -9.25923,4.35744 -11.521043,2.21582 -0.808792,-0.76547 -0.967912,-1.06802 -1.273195,-2.41601 -0.802082,-3.54242 -0.873456,-6.94973 -0.161095,-7.69342 0.100643,-0.10507 1.155866,0.86087 3.03424,2.77715 2.214266,2.25885 2.982521,2.94549 3.323656,2.96969 0.243958,0.0174 0.499324,-0.0266 0.567429,-0.0977 0.06805,-0.071 -1.216954,-1.42391 -2.855706,-3.00622 -1.63926,-1.58178 -3.006251,-2.98002 -3.038834,-3.10607 -0.03257,-0.12611 0.245868,-0.54771 0.618893,-0.93713 0.722293,-0.75406 1.550292,-0.9119 2.57143,-0.4902 0.281405,0.11626 1.832079,1.47607 3.445947,3.02197 3.114428,2.98326 3.216923,3.04559 4.488455,2.72704 l 0.663157,-0.16621 -1.957647,-2.06648 c -3.390811,-3.57928 -4.14659,-5.4453 -3.303048,-8.15501 0.381466,-1.22533 1.994685,-4.49755 3.20162,-6.49408 0.519507,-0.85938 0.9512,-1.66801 0.959302,-1.79693 0.0082,-0.12896 -0.404096,0.11125 -0.91602,0.53366 -1.470325,1.21329 -4.636231,3.11466 -6.182346,3.71296 -3.334432,1.29031 -5.906495,0.31984 -10.509634,-3.96542 -1.053633,-0.9808 -1.9333,-1.76489 -1.955024,-1.74223 -0.02161,0.0225 0.06292,0.49359 0.187955,1.04665 0.215264,0.95234 0.370477,1.1525 2.932184,3.78086 3.4178,3.50673 3.72155,4.23595 2.478288,5.94948 -0.565009,0.77875 -0.646117,0.82143 -1.085172,0.57108 -0.260934,-0.14883 -1.812669,-1.59337 -3.448275,-3.21005 -2.421307,-2.39333 -2.958405,-2.8523 -2.890237,-2.47112 0.184125,1.03268 0.899596,1.84371 3.633714,4.11905 2.424433,2.01763 2.728008,2.3246 2.737525,2.76819 0.0099,0.45524 -0.07729,0.54055 -0.995703,0.97527 -1.46819,0.69496 -4.858627,1.37549 -5.930322,1.19036 -0.813229,-0.14049 -1.058242,-0.30308 -2.009114,-1.33308 -2.062454,-2.23411 -2.948957,-5.8926 -2.102858,-8.67839 0.731066,-2.40705 2.075824,-4.66513 4.218997,-7.08443 l 1.984755,-2.24045 -0.94522,0.30628 c -1.912244,0.61966 -7.166411,6.90501 -8.46595,10.12748 l -0.597425,1.48141 -0.791072,-0.0424 c -1.979779,-0.10607 -3.099834,-2.6893 -2.618944,-6.04016 0.525696,-3.6631 2.267398,-6.53614 6.355291,-10.48345 3.880116,-3.74667 6.601599,-5.35833 10.743502,-6.36232 0.808628,-0.19602 1.469081,-0.41017 1.467668,-0.47588 -0.0014,-0.0657 -0.524361,-0.22457 -1.162092,-0.35299 -3.772271,-0.75964 -11.084223,3.16857 -16.633114,8.93586 -2.490564,2.58848 -3.57811,4.20155 -5.432995,8.05767 -1.647835,3.4257 -2.525763,6.3131 -2.269802,7.46515 0.109512,0.49291 0.303095,0.88878 0.430178,0.87973 0.127035,-0.008 0.73874,-0.29349 1.359238,-0.63207 2.498305,-1.36324 4.314356,-1.23337 6.034833,0.43155 0.991414,0.9589 2.987646,3.76501 3.017863,4.24126 0.009,0.14383 -0.790449,1.13084 -1.776773,2.19349 -1.626539,1.75243 -1.947026,2.22579 -3.445626,5.08933 l -1.652287,3.1572 4.100358,-4.05059 c 2.296913,-2.26904 4.33587,-4.14556 4.635848,-4.26652 0.511148,-0.20611 0.579745,-0.1637 1.508343,0.93206 0.535055,0.63142 0.977871,1.25772 0.984003,1.39184 0.006,0.13413 -0.862905,0.98969 -1.931171,1.90128 -1.068275,0.91159 -2.315519,2.13265 -2.771679,2.71347 -0.972593,1.23838 -3.466087,4.87209 -3.341474,4.8694 0.04717,-0.001 1.428637,-1.27569 3.070027,-2.8326 z m 8.064308,-5.19506 c -0.62922,-0.89159 -0.859838,-1.94735 -0.506063,-2.31668 0.155699,-0.16253 0.740078,-0.39759 1.298644,-0.52234 1.463183,-0.32678 6.759581,-0.43038 7.064622,-0.13814 0.380961,0.36491 0.399095,7.53374 0.02075,8.19765 -0.740626,1.2996 -1.860729,0.79144 -5.072297,-2.30113 -1.279222,-1.23228 -2.541999,-2.54573 -2.805649,-2.91931 z m 6.174915,4.95598 c 0.420009,0.22559 0.85392,0.31594 0.964338,0.20066 0.344761,-0.35992 0.484104,-2.24279 0.371799,-5.02441 l -0.108059,-2.67661 -2.185565,0.0169 c -2.763934,0.0214 -5.061376,0.36033 -5.234219,0.77205 -0.07325,0.17449 0.111851,0.68567 0.411351,1.13595 0.745016,1.12013 4.840693,5.07059 5.780407,5.57534 z m -5.556994,5.55985 c 0.559344,0.29289 0.688237,0.25656 1.39723,-0.39373 0.971036,-0.89065 1.506348,-2.39643 1.217818,-3.42555 -0.2289,-0.81647 -2.454127,-3.08851 -3.818307,-3.8987 -1.080886,-0.6419 -2.655604,-0.57024 -3.953835,0.17999 -0.589666,0.34077 -1.070262,0.70642 -1.067967,0.81254 0.0022,0.10624 0.364719,0.79163 0.805431,1.52327 0.638995,1.06084 1.206564,1.6897 2.802355,3.10491 1.100592,0.97606 2.278368,1.91982 2.617275,2.09727 z m -0.327981,-15.18815 c 0.873887,0.0854 4.655499,-0.80219 5.490178,-1.28857 l 0.606524,-0.35342 -1.759076,-1.45303 c -0.967428,-0.79923 -2.339633,-1.97909 -3.049223,-2.62203 l -1.29017,-1.16899 -2.031837,0.0301 -2.031837,0.0301 0.09557,1.0659 c 0.215321,2.40146 2.426187,5.60942 3.969841,5.76019 z m 13.362976,12.64146 c 1.923006,0.51589 2.093031,0.30835 2.006645,-2.44935 l -0.06109,-1.94989 -2.549244,-2.5589 -2.549243,-2.55892 -0.136273,0.69387 c -0.219674,1.11867 0.380846,5.52283 0.94219,6.90984 0.331017,0.81791 1.344923,1.64446 2.347044,1.9133 z m 3.023733,-7.65237 c 0.147097,-0.48864 0.356795,-0.98171 0.465977,-1.0957 0.147848,-0.15435 -0.185909,-0.57551 -1.307743,-1.6501 -1.280322,-1.22639 -1.617803,-1.45366 -2.249383,-1.5154 -0.500448,-0.049 -0.890372,0.0812 -1.194115,0.39824 l -0.451008,0.47086 2.234404,2.14028 2.234405,2.1403 z m -9.153646,-8.99154 c 0.728989,-0.88106 0.539403,-1.63509 -0.756353,-3.00812 -0.723997,-0.76705 -1.204877,-1.15412 -1.305751,-1.04882 -0.08746,0.0914 -0.732871,0.25573 -1.43413,0.36526 l -1.275046,0.19916 2.176613,1.99888 2.176613,1.99888 z m 12.107795,3.79061 c 0.293743,-0.76867 2.399058,-2.97774 22.856231,-23.98275 21.41942,-21.99304 22.62456,-23.20048 24.39246,-24.43911 3.68676,-2.58304 5.80593,-3.59386 9.89942,-4.72192 l 2.35836,-0.64991 0.47905,-2.35107 c 0.26346,-1.2931 0.7858,-3.17653 1.16073,-4.18541 l 0.6817,-1.83433 8.26994,-8.10821 8.26995,-8.10824 1.05981,-0.301091 c 1.74048,-0.494492 2.86477,-0.52496 4.07492,-0.110414 l 1.14522,0.392295 -0.36245,-0.831363 -0.36246,-0.831381 0.70871,-0.169998 c 0.38979,-0.09354 0.94293,-0.219409 1.22919,-0.279794 0.28625,-0.06047 0.86567,-0.476886 1.28755,-0.925576 l 0.76709,-0.81578 -1.10451,0.37429 c -0.81926,0.277639 -1.36228,0.287127 -2.10262,0.03675 -1.20255,-0.406696 -2.39288,-1.176672 -2.32326,-1.502787 0.0277,-0.130292 10.56939,-11.375328 23.42574,-24.98906 l 23.3752,-24.752278 5.59291,-8.212869 c 3.07612,-4.517081 6.78634,-10.053631 8.24498,-12.303443 2.92063,-4.504853 10.22349,-16.0879473 10.36538,-16.4406049 0.0493,-0.1224412 -33.42926,34.8429419 -74.39673,77.7008259 -72.594531,75.944388 -74.519727,77.974018 -75.801969,79.914888 -1.791401,2.71152 -3.562862,6.08131 -4.254216,8.09262 -0.590371,1.71755 -0.573709,2.9153 0.05785,4.15665 0.553568,1.08811 0.651785,1.10557 1.005846,0.17906 z M 82.425033,170.051 c 2.166341,0.66177 4.733934,-0.28227 9.178702,-3.37473 l 2.051576,-1.42741 46.683219,-48.73252 C 166.01432,89.713478 199.94936,54.213897 215.7498,37.628434 l 28.72808,-30.1553795 -4.54503,2.7399445 c -11.18396,6.742138 -17.86233,11.424589 -29.00069,20.333402 l -3.50927,2.806812 -9.13101,10.066843 c -5.02205,5.536767 -9.56542,10.55285 -10.09636,11.146849 -1.35295,1.513611 -1.60749,1.135998 -0.86317,-1.280522 l 0.5847,-1.898307 -1.01981,0.864706 c -1.87494,1.589782 -2.77113,3.067413 -3.5893,5.918006 l -0.7384,2.572636 -20.32776,21.72103 -20.32778,21.721026 -1.78144,0.66769 c -1.38808,0.52023 -2.10581,0.63607 -3.25044,0.52461 -0.80794,-0.0787 -1.53139,-0.11393 -1.60765,-0.0782 -0.0763,0.0358 -0.0129,0.57167 0.14107,1.19107 0.15384,0.61941 0.24325,1.96589 0.1987,2.9922 l -0.081,1.86603 -9.73934,10.53745 c -5.35663,5.7956 -10.21445,10.98447 -10.79515,11.53079 l -1.05582,0.99335 -0.55659,-0.63446 c -0.46123,-0.52578 -0.71201,-0.62582 -1.46371,-0.58406 -0.49895,0.0277 -1.31652,0.23947 -1.81685,0.47052 -0.85379,0.39427 -0.88546,0.42851 -0.51541,0.55739 0.2169,0.0755 0.83788,0.50688 1.38012,0.95858 0.76465,0.63691 0.95449,0.89579 0.84687,1.15238 -0.0765,0.18211 -2.12973,2.19406 -4.56283,4.47098 l -4.42384,4.13987 -1.4059,0.31552 c -1.925795,0.43224 -2.657299,0.18507 -4.333663,-1.4643 -3.413439,-3.35848 -4.77109,-7.39543 -3.374084,-10.03307 0.572046,-1.08007 3.183961,-3.9166 4.331959,-4.7045 l 0.750311,-0.51495 -0.911631,-0.003 c -0.501405,-0.001 -1.463935,0.17334 -2.138974,0.38844 -2.261734,0.7207 -4.135814,3.2406 -4.390072,5.90293 -0.215001,2.2512 -0.109078,5.76012 0.200536,6.64354 0.482313,1.37613 2.313014,4.63521 3.599016,6.40712 1.44437,1.99008 1.703152,2.69205 1.452366,3.93973 -0.190876,0.94965 -0.257982,1.03162 -4.984855,6.08809 -7.141072,7.63903 -9.643499,10.21923 -10.432974,10.75714 -0.707734,0.48225 -0.708561,0.48656 -0.157169,0.80803 0.304887,0.17778 0.930144,0.43802 1.389452,0.57833 z"
     id="path38" />
  <path
     style="fill:#ffdd55;fill-opacity:1;stroke:#fff6d5;stroke-width:0.0900457"
     d="m 71.956647,193.82189 c -0.76187,-0.50876 -2.986492,-2.43891 -3.824871,-3.31858 -0.727812,-0.76366 -1.245474,-1.49759 -1.817142,-2.57633 l -0.334034,-0.63032 0.34579,-0.29931 c 0.190185,-0.16463 0.669956,-0.45806 1.066157,-0.65208 1.258022,-0.61605 2.435445,-0.6585 3.523425,-0.12705 0.996154,0.4866 3.341156,2.73473 3.84053,3.68187 0.243638,0.4621 0.25598,1.33443 0.02848,2.01256 -0.346615,1.03317 -1.455078,2.27251 -2.032533,2.27251 -0.144186,0 -0.484276,-0.15525 -0.795797,-0.36327 z"
     id="path85" />
  <path
     style="fill:#ffdd55;fill-opacity:1;stroke:#fff6d5;stroke-width:0.0900457"
     d="m 25.930785,234.90743 c -0.301928,-0.24449 -0.312573,-0.72023 -0.05762,-2.57487 0.128372,-0.93381 0.233403,-2.03054 0.233403,-2.43716 v -0.73931 l 0.781155,-0.89454 c 1.355336,-1.55205 4.405559,-4.80693 11.553529,-12.32872 11.681729,-12.29266 25.246397,-26.45849 26.546019,-27.7225 l 0.44933,-0.43701 0.527742,0.83119 c 0.800912,1.26143 1.470503,2.14334 2.11015,2.77924 0.734966,0.73066 2.673901,2.37878 3.450418,2.93289 0.327268,0.23353 0.595033,0.46299 0.595033,0.50991 0,0.22303 -0.491035,0.71645 -3.007513,3.02209 -3.692011,3.3827 -9.917236,9.47553 -24.546485,24.02447 -6.80971,6.77232 -12.608035,12.5098 -12.885167,12.74995 l -0.503877,0.43663 -0.708056,-0.44711 c -0.419544,-0.26492 -0.81225,-0.44711 -0.963764,-0.44711 -0.140639,0 -0.855644,0.20261 -1.5889,0.45023 -1.460785,0.49332 -1.694111,0.5276 -1.985402,0.29173 z"
     id="path87" />
  <path
     style="fill:#ffdd55;fill-opacity:1;stroke:#fff6d5;stroke-width:0.031836"
     d="m 16.685649,236.30744 c -0.238218,-0.10354 -0.102975,-0.39377 0.437745,-0.93939 0.461967,-0.46615 1.598888,-1.46067 1.937183,-1.69455 0.127075,-0.0879 0.145296,-0.0922 0.221762,-0.0522 0.100088,0.0522 0.82952,0.77355 1.369449,1.35419 0.31087,0.3343 0.378353,0.42271 0.33295,0.43616 -0.03132,0.009 -0.594177,0.16039 -1.250794,0.33582 -2.128827,0.56874 -2.760986,0.68487 -3.048295,0.56 z"
     id="path89" />
  <path
     style="fill:#ffdd55;fill-opacity:1;stroke:#fff6d5;stroke-width:0.031836"
     d="m 22.577667,233.02008 c -0.849261,-0.83715 -1.059767,-1.08808 -1.060609,-1.2643 -3.96e-4,-0.0827 0.311216,-0.37472 0.494713,-0.46355 0.11394,-0.0552 0.185224,-0.0674 0.330671,-0.0569 0.245997,0.0178 0.474155,0.15514 0.814076,0.49006 0.283544,0.27937 0.441966,0.54763 0.478357,0.81002 0.02701,0.19476 -0.119964,1.33629 -0.172049,1.33629 -0.01168,0 -0.409997,-0.38322 -0.885159,-0.85161 z"
     id="path91" />
  <path
     style="fill:#ffdd55;fill-opacity:1;stroke:#fff6d5;stroke-width:0.031836"
     d="m 19.886859,240.32372 c -0.677572,-0.64969 -1.228594,-1.18461 -1.224492,-1.18871 0.0041,-0.004 0.479685,-0.0596 1.056852,-0.12323 0.71248,-0.0786 1.143753,-0.11183 1.343296,-0.10348 0.271018,0.0113 0.301217,0.0193 0.387853,0.1023 0.180299,0.17274 0.167299,0.35985 -0.111883,1.61032 -0.09578,0.42899 -0.184385,0.8034 -0.196907,0.83202 -0.0177,0.0405 -0.297038,-0.21094 -1.254719,-1.12922 z"
     id="path93" />
  <path
     style="fill:#ffdd55;fill-opacity:1;stroke:#fff6d5;stroke-width:0.031836"
     d="m 24.456707,243.72172 c -0.142308,-0.0702 -0.455908,-0.38497 -0.508191,-0.5101 -0.06579,-0.15747 -0.0536,-0.38581 0.03737,-0.69974 0.102733,-0.35451 0.901452,-2.37053 1.054749,-2.66225 0.179905,-0.34236 0.315726,-0.41356 0.512273,-0.26855 0.159852,0.11793 1.474834,1.39614 1.464694,1.42373 -0.04143,0.11274 -1.710128,2.19716 -1.994767,2.49172 -0.269049,0.27844 -0.373745,0.32008 -0.566133,0.22519 z"
     id="path95" />
  <path
     style="fill:#ffdd55;fill-opacity:1;stroke:#fff6d5;stroke-width:0.031836"
     d="m 28.918358,239.28632 c -0.280811,-0.18377 -0.731943,-0.57175 -1.286044,-1.10602 l -0.49041,-0.47285 0.64787,-0.21809 c 0.922498,-0.31054 1.173124,-0.31929 1.581722,-0.0552 0.222142,0.14358 0.851651,0.73815 0.918604,0.86763 0.06868,0.13281 0.05508,0.22649 -0.0552,0.38032 -0.161373,0.22508 -0.520711,0.5564 -0.70077,0.64613 -0.241736,0.12046 -0.382257,0.1109 -0.615768,-0.0419 z"
     id="path97" />
  <path
     style="font-variation-settings:normal;opacity:1;vector-effect:none;fill:#ff8080;fill-opacity:1;stroke:#fff6d5;stroke-width:0.00252749;stroke-linecap:butt;stroke-linejoin:miter;stroke-miterlimit:4;stroke-dasharray:none;stroke-dashoffset:0;stroke-opacity:1;stop-color:#000000;stop-opacity:1"
     d="m 81.796919,169.83094 c -0.578722,-0.23795 -1.082495,-0.46291 -1.119494,-0.49991 -0.037,-0.037 1.571078,-1.7281 3.573505,-3.75799 5.222063,-5.29371 11.496847,-12.09479 11.970006,-12.97398 0.745142,-1.38456 0.489805,-2.45842 -1.12903,-4.74833 -0.885946,-1.2532 -2.788582,-4.52896 -3.364931,-5.79339 -0.364219,-0.79905 -0.397249,-1.15637 -0.405045,-4.38177 -0.0078,-3.23704 0.02383,-3.5969 0.404569,-4.59964 0.533346,-1.40465 1.534568,-2.72406 2.621489,-3.45461 1.045885,-0.70296 1.817886,-0.9464 3.358703,-1.05911 1.146948,-0.0839 1.1615,-0.0795 0.720366,0.22016 -0.95068,0.64569 -4.075514,3.99801 -4.555029,4.88662 -1.142486,2.1172 -0.687787,4.84164 1.295463,7.76211 1.060629,1.56185 2.950521,3.36909 3.903924,3.7332 0.713504,0.27248 0.949895,0.27989 2.185895,0.0685 1.35992,-0.23263 1.41468,-0.26292 2.92466,-1.61816 0.84633,-0.7596 2.91107,-2.71473 4.5883,-4.34471 2.27419,-2.21014 3.01999,-3.04055 2.9334,-3.26619 -0.0639,-0.16641 -0.60109,-0.64847 -1.19386,-1.07125 -0.59276,-0.42277 -1.08212,-0.81445 -1.08746,-0.87039 -0.023,-0.24075 1.42371,-0.75627 2.36478,-0.84268 0.97877,-0.0899 1.04753,-0.068 1.56334,0.49671 l 0.53954,0.59071 0.50804,-0.4317 c 0.9602,-0.8159 4.17267,-4.23952 18.31745,-19.52139 l 2.83375,-3.06156 -0.0875,-2.52128 c -0.0481,-1.3867 -0.14406,-2.74508 -0.21316,-3.01861 l -0.12564,-0.49734 1.77728,0.033 c 1.58502,0.0294 1.95195,-0.0288 3.39188,-0.53839 0.88802,-0.31426 1.70781,-0.67259 1.82176,-0.7963 0.11394,-0.1237 9.11232,-9.752822 19.99638,-21.398048 10.88407,-11.645223 19.9294,-21.334207 20.10073,-21.531072 0.17132,-0.196865 0.60354,-1.321297 0.96048,-2.498737 0.9144,-3.016315 1.49469,-4.068148 3.16885,-5.743845 0.78118,-0.781898 1.45739,-1.384564 1.5027,-1.339256 0.0453,0.0453 -0.1174,0.72556 -0.36158,1.511677 -0.46405,1.494037 -0.56986,2.419805 -0.27657,2.419805 0.19106,0 1.86882,-1.820451 12.813,-13.902651 l 7.4546,-8.229767 4.59234,-3.634958 c 10.56999,-8.366438 16.63708,-12.599767 27.7014,-19.328723 2.40876,-1.4649268 4.40852,-2.6345402 4.44392,-2.5991411 0.12537,0.1253707 -62.81602,66.0518231 -130.39783,136.5820761 -19.152683,19.98828 -20.298075,21.14808 -22.070317,22.34792 -5.244335,3.55053 -7.426992,4.25776 -9.945044,3.22243 z"
     id="path863" />
  <path
     style="font-variation-settings:normal;opacity:1;vector-effect:none;fill:#ff8080;fill-opacity:1;stroke:#fff6d5;stroke-width:0.00252749;stroke-linecap:butt;stroke-linejoin:miter;stroke-miterlimit:4;stroke-dasharray:none;stroke-dashoffset:0;stroke-opacity:1;stop-color:#000000;stop-opacity:1"
     d="m 90.200218,178.26542 c -0.872043,-1.90479 -0.372511,-3.94923 2.063065,-8.44352 2.082731,-3.8432 3.054453,-5.02419 11.113477,-13.50687 14.70402,-15.47699 40.7221,-42.72271 91.66368,-95.98876 47.89383,-50.07922 49.56329,-51.8149653 49.38194,-51.3423654 -0.11862,0.3091171 -3.13263,5.1420814 -7.19809,11.5421454 -1.38422,2.179107 -4.9662,7.608866 -7.95997,12.06613 -9.45588,14.078384 -7.52126,11.653184 -18.91812,23.715404 -26.53245,28.081452 -36.6409,38.863058 -36.6409,39.080961 0,0.236341 1.34733,1.008204 2.30887,1.322705 0.83431,0.272889 0.98611,0.273693 1.89311,0.01001 1.35109,-0.392774 1.36653,-0.381556 0.58145,0.422443 -0.71835,0.735652 -1.10453,0.940312 -2.39722,1.270425 -0.42096,0.1075 -0.76539,0.222957 -0.76539,0.256567 0,0.03361 0.12631,0.363412 0.28069,0.73289 0.15438,0.369479 0.24806,0.704405 0.20818,0.744285 -0.0399,0.0399 -0.41949,-0.0499 -0.8436,-0.199559 -1.01586,-0.358416 -2.86779,-0.345426 -4.22579,0.02964 -1.091,0.301329 -1.10265,0.311819 -9.37657,8.443769 l -8.28421,8.14206 -0.58004,1.68638 c -0.5734,1.66708 -1.0859,3.59566 -1.48804,5.59966 -0.20251,1.00915 -0.22361,1.03602 -0.96045,1.22294 -4.17031,1.05794 -7.55291,2.50358 -10.57597,4.5199 -2.21062,1.47445 -4.07721,3.30834 -20.32497,19.96894 -24.735157,25.36367 -27.371647,28.12123 -27.850851,29.1298 -0.152951,0.32192 -0.359815,0.5853 -0.459698,0.5853 -0.09988,0 -0.389945,-0.45508 -0.644583,-1.01128 z"
     id="path865" />
  <path
     style="font-variation-settings:normal;opacity:1;vector-effect:none;fill:#ffccaa;fill-opacity:1;stroke:#fff6d5;stroke-width:0.000455179;stroke-linecap:butt;stroke-linejoin:miter;stroke-miterlimit:4;stroke-dasharray:none;stroke-dashoffset:0;stroke-opacity:1;stop-color:#000000;stop-opacity:1"
     d="m 17.00846,249.89803 c 3.402245,-2.56288 4.340128,-3.60132 4.338765,-4.80395 -0.001,-0.90963 -0.544963,-1.63476 -3.336309,-4.4477 l -2.572909,-2.59282 -1.142136,0.10305 c -1.43948,0.12989 -1.577862,0.2846 -3.593162,4.01729 -0.8243769,1.52689 -1.5580063,2.77616 -1.6302881,2.77616 -0.2025565,0 0.2983741,-1.53222 1.2880891,-3.93995 1.931121,-4.69793 2.541508,-5.58741 6.51189,-9.48938 4.13807,-4.06678 6.807026,-6.22462 8.221798,-6.64729 0.386541,-0.11548 0.358308,-0.0118 -0.417094,1.53215 l -0.8317,1.65602 0.923907,0.83536 0.923907,0.83536 -0.288517,1.76808 c -0.674398,4.13282 -0.308023,4.63966 2.685483,3.71506 1.393294,-0.43035 1.672819,-0.37529 2.856935,0.56269 0.973376,0.77105 0.918958,0.77552 3.237433,-0.26575 1.080201,-0.48514 1.570666,-0.58126 1.570666,-0.30781 0,0.76866 -4.371595,5.74625 -7.68588,8.75131 -2.964676,2.68807 -4.133122,3.53067 -6.721439,4.84704 -2.305678,1.17262 -5.361042,2.45032 -5.859482,2.45032 -0.153479,0 0.530541,-0.60986 1.520043,-1.35524 z m 9.187938,-6.87722 c 0.800086,-0.96203 1.454703,-1.88588 1.454703,-2.05298 0,-0.29444 -1.691808,-1.97343 -2.335753,-2.31806 -0.271863,-0.1455 -0.39862,0.006 -0.871024,1.03898 -0.304074,0.66509 -0.754897,1.75111 -1.00183,2.41337 l -0.44897,1.20411 0.793987,0.73187 c 0.436693,0.40253 0.830031,0.73187 0.874086,0.73187 0.04405,0 0.734714,-0.78712 1.534801,-1.74916 z m -4.425077,-1.8085 c 0.159937,-0.57001 0.312438,-1.44121 0.338892,-1.93599 l 0.0481,-0.8996 -0.713693,-0.0582 c -0.853032,-0.0695 -3.698548,0.31098 -3.698548,0.4946 0,0.40588 3.163616,3.43555 3.587448,3.43555 0.08085,0 0.277867,-0.46637 0.437804,-1.03638 z m 8.759765,-1.97619 0.749499,-0.85148 -0.900896,-0.85939 c -0.761996,-0.7269 -1.007083,-0.85789 -1.589627,-0.8496 -0.796146,0.0113 -2.247466,0.52332 -2.349067,0.82871 -0.08958,0.26925 0.923092,1.42165 1.822424,2.07386 0.992454,0.71975 1.385129,0.66051 2.267667,-0.3421 z m -10.317448,-3.02931 c 0.812387,-0.24623 1.533646,-0.53924 1.602798,-0.65113 0.166702,-0.26973 -2.350443,-2.7191 -2.714257,-2.64118 -0.334285,0.0716 -3.484651,2.86897 -3.50377,3.11118 -0.0074,0.0936 0.195929,0.38877 0.451822,0.65586 l 0.465261,0.48563 1.11054,-0.25633 c 0.610797,-0.14098 1.77522,-0.4578 2.587606,-0.70403 z m 3.857737,-2.07559 c 0.06715,-0.24028 0.130163,-0.83471 0.140036,-1.32095 0.01691,-0.83281 -0.03143,-0.92941 -0.833558,-1.66585 -0.46833,-0.42997 -0.898091,-0.78177 -0.955025,-0.78177 -0.308412,0 -1.615204,1.15972 -1.615204,1.43342 0,0.3864 2.636816,2.94031 2.933616,2.84138 0.114428,-0.0381 0.262988,-0.26595 0.330135,-0.50623 z"
     id="path867" />
  <path
     style="font-variation-settings:normal;opacity:1;vector-effect:none;fill:#ffccaa;fill-opacity:1;stroke:#fff6d5;stroke-width:0.000455179;stroke-linecap:butt;stroke-linejoin:miter;stroke-miterlimit:4;stroke-dasharray:none;stroke-dashoffset:0;stroke-opacity:1;stop-color:#000000;stop-opacity:1"
     d="m 82.398914,204.22249 c 0,-0.0843 0.08193,-0.1532 0.182065,-0.1532 0.258779,0 3.014494,-2.6542 3.627394,-3.49378 0.336161,-0.46048 0.512737,-0.92327 0.512737,-1.34383 0,-0.5545 -0.165074,-0.80297 -1.2177,-1.8329 -0.98326,-0.96206 -1.440735,-1.26676 -2.376157,-1.58266 -0.637153,-0.21517 -1.271799,-0.39122 -1.410326,-0.39122 -0.138526,0 -0.750859,0.45389 -1.36074,1.00865 -0.60988,0.55475 -1.470446,1.25929 -1.912369,1.56564 -0.928407,0.6436 -4.988779,2.51852 -5.259055,2.42843 -0.100062,-0.0333 0.493707,-0.66508 1.319486,-1.40384 0.82578,-0.73875 2.448677,-2.26441 3.606438,-3.39033 l 2.105023,-2.04715 -1.006766,-0.88099 c -0.848447,-0.74246 -1.052027,-0.84596 -1.294609,-0.65819 -0.158315,0.12254 -0.895654,0.76007 -1.638532,1.41673 -2.55443,2.25795 -6.733464,5.37274 -6.936312,5.16989 -0.04807,-0.0481 0.893311,-0.96927 2.091965,-2.0471 3.576739,-3.21623 4.123981,-3.98443 4.123981,-5.78911 0,-0.94227 -0.738499,-2.04579 -2.396214,-3.58058 -1.683665,-1.55881 -2.444137,-1.94896 -3.816942,-1.95825 -1.685828,-0.0114 -2.620171,0.55935 -5.851347,3.57431 -1.534385,1.43172 -2.824764,2.56814 -2.867509,2.5254 -0.08743,-0.0874 1.185592,-1.99111 2.708121,-4.04972 0.557059,-0.75319 1.893901,-2.15781 2.970761,-3.12136 1.07686,-0.96356 2.019018,-1.86109 2.093685,-1.99451 0.08584,-0.15339 -0.118095,-0.56304 -0.554631,-1.11412 -0.948185,-1.19696 -1.205566,-1.38212 -1.736142,-1.24895 -0.251996,0.0632 -2.225704,1.85667 -4.481523,4.07216 -2.21716,2.17753 -4.083632,3.95915 -4.147715,3.95915 -0.12132,0 1.435213,-3.01344 2.604635,-5.04256 0.37105,-0.64383 1.451882,-2.06134 2.401847,-3.15002 0.949966,-1.08869 1.72721,-2.0224 1.72721,-2.07492 0,-0.0525 -0.303904,-0.55363 -0.675343,-1.11358 -3.085753,-4.6518 -4.837178,-5.33102 -8.707965,-3.37706 -0.93762,0.47331 -1.049151,0.49317 -1.270056,0.22616 -0.426815,-0.51591 -0.251448,-2.15727 0.455483,-4.26314 0.769381,-2.2919 2.621729,-6.1371 3.879032,-8.05229 2.977849,-4.53602 8.933156,-9.4935 14.062783,-11.70654 1.579731,-0.68154 3.701875,-1.24627 4.683206,-1.24627 0.70157,0 2.160271,0.35932 2.160271,0.53213 0,0.0711 -0.830672,0.34918 -1.845938,0.61806 -2.34236,0.62034 -5.074841,1.94136 -7.004121,3.38615 -0.827861,0.61997 -2.561157,2.18403 -3.851769,3.47569 -2.507037,2.50908 -4.086919,4.64535 -4.881297,6.60032 -1.762451,4.33742 -0.99614,8.79686 1.571615,9.14579 l 0.793779,0.10787 0.932887,-1.89291 c 1.122883,-2.27841 3.321233,-5.2514 5.544806,-7.49865 1.504974,-1.52099 2.922544,-2.51655 3.370625,-2.36719 0.102583,0.0342 -0.511417,0.85891 -1.364449,1.8327 -4.079554,4.6571 -5.408803,8.18329 -4.514691,11.97645 0.526096,2.23191 2.308493,4.81494 3.621515,5.24828 0.771602,0.25465 2.259008,0.11996 4.256802,-0.38546 1.927066,-0.48753 3.010053,-1.03291 3.010053,-1.51583 0,-0.51503 -0.206968,-0.74999 -1.981006,-2.24889 -3.071565,-2.59519 -4.66918,-4.39621 -4.261419,-4.80397 0.09915,-0.0991 3.716836,3.18008 4.801693,4.35247 0.247626,0.26761 0.757523,0.73111 1.133102,1.03001 0.670839,0.53387 0.689426,0.53752 1.054689,0.20719 0.2045,-0.18494 0.533017,-0.65211 0.730039,-1.03815 0.66642,-1.30576 0.245337,-2.06733 -3.076208,-5.56367 -2.287183,-2.40754 -2.596584,-2.84705 -2.802049,-3.98035 l -0.127101,-0.70107 0.711806,0.61102 c 0.391494,0.33606 1.419242,1.23832 2.283883,2.00502 2.950801,2.61655 4.847668,3.60614 6.935316,3.61813 1.354473,0.008 2.089607,-0.20365 3.973052,-1.14264 1.519079,-0.75733 2.975195,-1.65974 4.561959,-2.82721 0.583669,-0.42943 1.099777,-0.74223 1.146907,-0.6951 0.04713,0.0471 -0.405672,0.96079 -1.00623,2.03035 -1.645611,2.93076 -3.039069,5.96355 -3.270103,7.11722 -0.248622,1.24148 0.06452,2.73999 0.82817,3.96318 0.583677,0.93491 2.620747,3.35573 3.747652,4.45365 0.453245,0.44159 0.824082,0.86209 0.824082,0.93445 0,0.0724 -0.354011,0.18464 -0.786692,0.24953 -1.101612,0.1652 -1.485111,-0.0771 -4.352067,-2.74932 -2.892853,-2.69639 -3.412527,-3.09042 -4.239267,-3.21434 -0.716257,-0.10735 -1.589221,0.35494 -2.07753,1.10019 l -0.309457,0.47229 2.910997,2.91502 c 1.601049,1.60325 2.910997,3.01542 2.910997,3.13814 0,0.70299 -0.945711,0.0217 -3.717556,-2.67797 -2.141668,-2.08593 -3.033526,-2.84618 -3.17405,-2.70565 -0.72615,0.72615 -0.232763,7.05535 0.691197,8.86668 0.312013,0.61167 1.425742,1.58235 2.174491,1.8952 0.797879,0.33337 2.660108,0.31283 3.858163,-0.0426 1.332374,-0.39523 3.88406,-1.63109 5.840637,-2.82879 0.891453,-0.54569 1.661344,-0.95017 1.710869,-0.89884 0.276066,0.28612 -4.806539,4.42168 -6.921191,5.63157 -0.561353,0.32117 -0.994242,0.66314 -0.961977,0.75994 0.07855,0.23565 1.823536,0.41405 3.921155,0.40087 2.031159,-0.0128 2.833317,-0.29756 6.092496,-2.16318 3.97438,-2.27501 7.10213,-4.59251 11.9731,-8.87141 1.36822,-1.20191 2.52306,-2.1853 2.5663,-2.1853 0.23579,0 -0.004,0.43498 -0.6652,1.20466 -1.73878,2.0253 -9.04259,9.58356 -10.78203,11.15766 -3.684704,3.33446 -11.372502,7.8754 -16.478371,9.73324 -0.94941,0.34546 -2.431235,0.58254 -2.431235,0.38898 z M 79.115535,189.1513 c 0.125622,-0.0797 0.307965,-0.42238 0.405205,-0.76144 0.196423,-0.68488 0.24345,-6.45374 0.06008,-7.37056 l -0.116715,-0.58358 -3.440092,0.0816 c -4.054061,0.0962 -4.970867,0.32627 -4.970867,1.24732 0,0.9327 0.639636,1.81498 3.001185,4.13966 2.978038,2.93154 4.261199,3.75474 5.0612,3.24696 z"
     id="path869" />
  <path
     style="font-variation-settings:normal;opacity:1;vector-effect:none;fill:#ff8080;fill-opacity:1;stroke:none;stroke-linecap:butt;stroke-linejoin:miter;stroke-miterlimit:4;stroke-dasharray:none;stroke-dashoffset:0;stroke-opacity:0.37254903;stop-color:#000000;stop-opacity:1"
     d="m 71.73646,178.80938 c -0.901546,-0.2124 -2.155757,-1.54674 -2.958603,-3.14763 -0.50173,-1.00046 -0.730108,-1.74924 -0.835022,-2.73777 -0.100922,-0.95092 -0.110615,-0.89806 0.169983,-0.9269 0.130004,-0.0134 1.043949,-0.0323 2.03099,-0.0421 l 1.79462,-0.0178 0.794195,0.72198 c 1.072874,0.97532 2.471284,2.18007 4.002298,3.44803 0.69942,0.57924 1.271673,1.06694 1.271673,1.08377 0,0.0499 -0.647587,0.40536 -1.000759,0.54928 -0.863601,0.35191 -3.052046,0.88752 -4.288712,1.04963 -0.577332,0.0757 -0.729644,0.0787 -0.980663,0.0196 z"
     id="path877" />
  <path
     style="font-variation-settings:normal;opacity:1;vector-effect:none;fill:#ff8080;fill-opacity:1;stroke:#fff6d5;stroke-linecap:butt;stroke-linejoin:miter;stroke-miterlimit:4;stroke-dasharray:none;stroke-dashoffset:0;stroke-opacity:0.00000013;stop-color:#000000;stop-opacity:1"
     d="m 76.603376,173.37748 c -1.180278,-1.08372 -2.152741,-1.98955 -2.16103,-2.01296 -0.0083,-0.0234 0.336536,-0.0978 0.766276,-0.16536 0.89708,-0.14099 1.36077,-0.23753 1.729473,-0.36008 0.244192,-0.0812 0.268352,-0.0819 0.405206,-0.012 0.19611,0.10018 1.398,1.31236 1.691072,1.70556 0.360546,0.48372 0.520286,0.83758 0.54063,1.19761 0.02757,0.48792 -0.09204,0.74393 -0.66802,1.42986 l -0.157648,0.18774 z"
     id="path891" />
  <path
     style="font-variation-settings:normal;opacity:1;vector-effect:none;fill:#ff8080;fill-opacity:1;stroke:none;stroke-linecap:butt;stroke-linejoin:miter;stroke-miterlimit:4;stroke-dasharray:none;stroke-dashoffset:0;stroke-opacity:1;stop-color:#000000;stop-opacity:1"
     d="m 86.380849,183.12619 c -0.903834,-0.86904 -1.905822,-1.83065 -2.226639,-2.13691 l -0.583305,-0.55685 0.334185,-0.33643 c 0.500202,-0.50357 0.846165,-0.62506 1.476934,-0.51867 0.548785,0.0926 0.985281,0.41117 2.2459,1.63929 0.779146,0.75906 1.18416,1.22919 1.18416,1.37456 0,0.0424 -0.06893,0.21763 -0.153168,0.38949 -0.142324,0.29033 -0.567198,1.54364 -0.567198,1.67314 0,0.0316 -0.0152,0.0564 -0.03377,0.055 -0.01857,-0.001 -0.773268,-0.71358 -1.677102,-1.58261 z"
     id="path897" />
  <path
     style="font-variation-settings:normal;opacity:1;vector-effect:none;fill:#ff8080;fill-opacity:1;stroke:none;stroke-linecap:butt;stroke-linejoin:miter;stroke-miterlimit:4;stroke-dasharray:none;stroke-dashoffset:0;stroke-opacity:1;stop-color:#000000;stop-opacity:1"
     d="m 78.208609,188.63739 c -0.323828,-0.11197 -0.598487,-0.28333 -1.094359,-0.68276 -1.263256,-1.01756 -3.79392,-3.49061 -4.747078,-4.639 -0.392862,-0.47332 -0.706131,-1.04876 -0.741426,-1.36189 -0.01907,-0.16916 -0.0061,-0.21627 0.08219,-0.29852 0.233228,-0.21729 1.210588,-0.42963 2.629294,-0.57125 0.648212,-0.0647 4.644591,-0.16744 4.703876,-0.12092 0.04677,0.0367 0.137528,2.7797 0.141895,4.28857 0.0058,2.01126 -0.09455,2.96796 -0.352712,3.36197 -0.08467,0.12923 -0.293658,0.13723 -0.62168,0.0238 z"
     id="path899" />
  <path
     style="font-variation-settings:normal;opacity:1;vector-effect:none;fill:#ff8080;fill-opacity:1;stop-color:#000000;stop-opacity:1;"
     d="m 85.573511,191.55389 c -0.851561,-0.21825 -1.482544,-0.56869 -2.029103,-1.12694 -0.386897,-0.39517 -0.570024,-0.71387 -0.748527,-1.30264 -0.418924,-1.38179 -0.827226,-4.19101 -0.827309,-5.69209 -3.2e-5,-0.58758 0.09338,-1.33829 0.178505,-1.43459 0.04038,-0.0457 5.033415,4.9757 5.086536,5.11541 0.06799,0.17883 0.112615,3.33168 0.05257,3.71389 -0.06355,0.40447 -0.187441,0.65824 -0.378128,0.77451 -0.217594,0.13268 -0.698114,0.11555 -1.33454,-0.0476 z"
     id="path901" />
</svg>
