<?xml version="1.0" encoding="UTF-8" standalone="no"?>
<svg
   xmlns:dc="http://purl.org/dc/elements/1.1/"
   xmlns:cc="http://creativecommons.org/ns#"
   xmlns:rdf="http://www.w3.org/1999/02/22-rdf-syntax-ns#"
   xmlns:svg="http://www.w3.org/2000/svg"
   xmlns="http://www.w3.org/2000/svg"
   xmlns:xlink="http://www.w3.org/1999/xlink"
   xmlns:sodipodi="http://sodipodi.sourceforge.net/DTD/sodipodi-0.dtd"
   xmlns:inkscape="http://www.inkscape.org/namespaces/inkscape"
   cursor="default"
   version="1.1"
   viewBox="0 0 256 256"
   id="svg25"
   sodipodi:docname="icon.svg"
   inkscape:version="1.0.2-2 (e86c870879, 2021-01-15)">
  <metadata
     id="metadata29">
    <rdf:RDF>
      <cc:Work
         rdf:about="">
        <dc:format>image/svg+xml</dc:format>
        <dc:type
           rdf:resource="http://purl.org/dc/dcmitype/StillImage" />
        <dc:title />
      </cc:Work>
    </rdf:RDF>
  </metadata>
  <sodipodi:namedview
     pagecolor="#ffffff"
     bordercolor="#666666"
     borderopacity="1"
     objecttolerance="10"
     gridtolerance="10"
     guidetolerance="10"
     inkscape:pageopacity="0"
     inkscape:pageshadow="2"
     inkscape:window-width="1920"
     inkscape:window-height="1017"
     id="namedview27"
     showgrid="false"
     inkscape:zoom="3.6189208"
     inkscape:cx="123.3681"
     inkscape:cy="131.23042"
     inkscape:window-x="-8"
     inkscape:window-y="-8"
     inkscape:window-maximized="1"
     inkscape:current-layer="svg25"
     inkscape:document-rotation="0" />
  <defs
     id="defs9">
    <linearGradient
       id="innoGrad1">
      <stop
         stop-color="#f55"
         offset="0"
         id="stop2" />
      <stop
         stop-color="#ff8080"
         offset="1"
         id="stop4" />
    </linearGradient>
    <linearGradient
       id="linearGradient828"
       x1="173.54"
       x2="139.41"
       y1="204.61"
       y2="178.91"
       gradientTransform="translate(-4.8814,-1.0847)"
       gradientUnits="userSpaceOnUse"
       xlink:href="#innoGrad1" />
    <linearGradient
       id="linearGradient830"
       x1="144.01"
       x2="119.27"
       y1="149.77"
       y2="137.3"
       gradientTransform="translate(-4.8814,-1.0847)"
       gradientUnits="userSpaceOnUse"
       xlink:href="#innoGrad1" />
  </defs>
  <path
     style="fill:#000000;stroke-width:0.479789"
     d="M 92.165314,243.89718 C 79.330194,241.816 67.744457,232.34372 64.296498,221.11216 c -1.821642,-5.93392 -1.227849,-16.69782 1.248795,-22.63735 2.549972,-6.11539 8.086751,-13.26697 18.415301,-23.78615 l 6.31237,-6.42887 0.54999,2.16244 c 1.18774,4.66988 4.36953,8.5258 8.53982,10.34917 2.508746,1.0969 8.679236,1.47049 11.559156,0.69986 3.04261,-0.81417 6.47129,-3.37305 8.4327,-6.29346 1.52191,-2.26603 1.74328,-3.00228 1.89952,-6.31749 0.15194,-3.2239 0.003,-4.09637 -1.06104,-6.19331 -2.49441,-4.9183 -6.79579,-7.77266 -12.62427,-8.37738 -1.59703,-0.16569 -2.90369,-0.38457 -2.90369,-0.48639 0,-0.10182 1.14171,-1.42352 2.53712,-2.93711 9.90083,-10.73932 15.12311,-21.84709 14.52431,-30.89315 -0.26999,-4.07884 -1.4897,-6.55703 -4.5676,-9.2804 -3.04571,-2.69488 -5.91949,-3.71387 -10.47387,-3.71387 -4.66004,0 -7.525726,1.05389 -10.566746,3.88607 -3.51,3.26895 -4.30656,5.03191 -4.31936,9.55972 l -0.0111,3.91799 -2.52495,-1.66572 C 77.579244,114.96897 61.40092,109.30785 31.127371,102.33395 l -7.636679,-1.75921 11.676594,-2.782295 C 62.88466,91.187948 76.014604,86.60322 87.243024,79.608578 l 4.54491,-2.831207 0.004,4.137834 c 0.004,4.517076 0.75807,6.427591 3.75213,9.50579 3.95971,4.071002 11.496166,5.605147 16.789296,3.417691 5.72468,-2.365801 8.96235,-6.421423 9.3852,-11.756253 0.32379,-4.084983 -0.78318,-7.025562 -3.77581,-10.030174 -3.55809,-3.572337 -5.50939,-4.31865 -11.29547,-4.320159 l -4.83559,-0.0014 1.94765,-2.224193 c 5.22861,-5.970987 10.71248,-16.016163 14.96144,-27.405873 1.96663,-5.271725 7.24262,-22.180667 9.81424,-31.4534549 0.16677,-0.6013846 0.27277,-0.6662598 0.31141,-0.1906052 0.14437,1.7771608 7.4391,25.4821201 9.73783,31.6440601 4.24896,11.38971 9.73282,21.434886 14.96143,27.405873 l 1.94766,2.224193 -4.8356,0.0014 c -5.78607,0.0014 -7.73738,0.747822 -11.29545,4.320159 -2.99263,3.004612 -4.0996,5.945191 -3.77581,10.030174 0.42286,5.33483 3.66052,9.390452 9.3852,11.756253 5.29312,2.187456 12.82958,0.653311 16.7893,-3.417691 2.99406,-3.078199 3.74817,-4.988714 3.75213,-9.50579 l 0.004,-4.137834 4.54491,2.831207 c 11.44133,7.127271 27.12677,12.483192 56.11565,19.161148 l 7.63668,1.759204 -11.67659,2.7823 c -28.86338,6.87762 -42.64388,11.81085 -54.09553,19.36553 l -2.52494,1.66572 -0.0111,-3.91799 c -0.0128,-4.52781 -0.80935,-6.29077 -4.31936,-9.55972 -3.04101,-2.83218 -5.90671,-3.88607 -10.56675,-3.88607 -4.55439,0 -7.42816,1.01899 -10.47387,3.71387 -3.07789,2.72337 -4.2976,5.20156 -4.56761,9.2804 -0.5988,9.04606 4.62348,20.15383 14.52432,30.89315 1.39542,1.51359 2.53711,2.83529 2.53711,2.93711 0,0.10182 -1.2887,0.32186 -2.86376,0.48896 -5.72942,0.60785 -9.74097,3.11785 -12.26226,7.67239 -2.99588,5.41186 -1.79641,11.99646 2.9441,16.16197 3.29436,2.89477 5.26864,3.55371 10.66695,3.56026 5.55929,0.007 7.58851,-0.67131 10.86779,-3.63147 2.27782,-2.05616 3.67526,-4.43214 4.48939,-7.63311 l 0.54998,-2.16244 6.31237,6.42887 c 16.93002,17.24248 20.70456,24.24037 20.70456,38.38562 0,9.1742 -3.14217,15.4936 -11.27336,22.67254 -8.1483,7.19405 -20.47691,10.14458 -32.03444,7.6666 -6.65031,-1.42585 -15.42223,-6.83604 -19.67364,-12.13397 -1.05033,-1.30888 -2.13693,-2.37977 -2.41468,-2.37977 -0.27774,0 -1.36435,1.07089 -2.41467,2.37977 -4.18973,5.22105 -12.30611,10.32276 -19.04737,11.97259 -3.51832,0.86106 -11.562886,1.20648 -15.024786,0.64514 z m 15.976336,-5.14387 c 7.03073,-2.20711 12.77394,-6.63134 17.48056,-13.466 1.38872,-2.01661 2.75219,-3.66657 3.02993,-3.66657 0.27775,0 1.64122,1.64996 3.02994,3.66657 6.48781,9.42119 14.9299,14.29436 25.7081,14.83991 7.13357,0.36107 14.57468,-1.51609 19.39986,-4.89398 10.71821,-7.50334 14.63106,-16.59985 12.51352,-29.09124 -1.34163,-7.91436 -5.54714,-14.67139 -15.66872,-25.17509 l -4.50625,-4.67637 -0.79613,1.08043 c -1.80544,2.45015 -6.32522,6.06126 -8.9379,7.14098 -7.59517,3.13881 -17.46663,1.2214 -23.19891,-4.50611 -5.5171,-5.5125 -6.39821,-15.01232 -1.97868,-21.33348 1.4907,-2.1321 5.82021,-5.73319 8.04357,-6.69026 0.98658,-0.42469 1.79378,-0.96106 1.79378,-1.19194 0,-0.23087 -0.64858,-1.16726 -1.44129,-2.08084 -4.29669,-4.95189 -8.42301,-12.25174 -10.24219,-18.11941 -0.85102,-2.74496 -1.12504,-4.89801 -1.15477,-9.07372 -0.0377,-5.29397 0.0155,-5.5749 1.61117,-8.50551 7.40749,-13.604766 28.31316,-13.562396 35.59166,0.0721 0.87137,1.63231 1.62288,3.02505 1.67002,3.09497 0.0471,0.0699 2.67352,-1.09838 5.8364,-2.59623 3.16289,-1.49786 8.2504,-3.62572 11.30558,-4.72859 5.09254,-1.83831 25.12822,-7.61736 26.40903,-7.61736 0.84808,0 1.25897,-0.89352 0.51366,-1.11702 -0.36478,-0.1094 -5.32177,-1.473241 -11.01552,-3.030775 -12.13472,-3.319465 -19.27365,-5.823324 -27.22985,-9.550422 -3.17463,-1.487156 -5.80539,-2.654517 -5.84614,-2.594135 -0.0408,0.06038 -0.46454,1.061595 -0.94174,2.224917 -3.71537,9.05736 -14.31821,13.789365 -24.49252,10.930923 -5.43336,-1.52649 -10.2872,-5.614227 -12.52445,-10.547651 -0.68578,-1.512214 -0.92628,-3.22614 -0.92628,-6.601027 0,-5.175853 0.85347,-7.45988 4.14063,-11.081052 2.05486,-2.263651 6.96984,-5.334889 9.26614,-5.790162 0.81973,-0.162523 1.49041,-0.493883 1.49041,-0.736362 0,-0.242474 -1.01268,-2.025702 -2.2504,-3.962729 -4.50472,-7.04985 -7.9257,-15.062587 -13.03663,-30.534867 -0.93619,-2.834103 -1.88351,-5.193112 -2.10517,-5.242243 -0.22165,-0.04913 -1.18244,2.269681 -2.13509,5.152914 -5.14666,15.576618 -8.55354,23.56135 -13.06656,30.624196 -1.23773,1.937027 -2.25041,3.720255 -2.25041,3.962729 0,0.242479 0.67069,0.573839 1.49041,0.736362 2.29631,0.455273 7.21129,3.526511 9.26615,5.790162 3.28716,3.621172 4.14063,5.905199 4.14063,11.081052 0,5.141058 -0.69292,7.217574 -3.60227,10.795226 -9.24173,11.364594 -28.874986,8.747584 -34.340976,-4.577471 -0.4772,-1.163322 -0.90098,-2.164535 -0.94174,-2.224917 -0.0408,-0.06038 -2.67152,1.106979 -5.84614,2.594135 -3.17462,1.487156 -8.27078,3.607214 -11.324801,4.711235 -5.084153,1.837908 -25.121375,7.619446 -26.406908,7.619446 -0.848085,0 -1.258971,0.893526 -0.513664,1.117026 0.364784,0.10939 5.32177,1.47324 11.015525,3.03078 12.253713,3.35202 19.385868,5.85908 27.212748,9.56568 3.16288,1.49785 5.78926,2.66616 5.8364,2.59623 0.0471,-0.0699 0.79864,-1.46266 1.67002,-3.09497 4.59086,-8.59987 15.224716,-12.41569 25.205706,-9.04472 3.86193,1.30432 8.29686,5.13573 10.38594,8.97259 1.59565,2.93061 1.64887,3.21154 1.61118,8.50551 -0.0298,4.17571 -0.30375,6.32876 -1.15478,9.07372 -1.81918,5.86767 -5.94549,13.16752 -10.24219,18.11941 -0.7927,0.91358 -1.44128,1.8852 -1.44128,2.15915 0,0.27396 0.79055,0.79627 1.75678,1.16069 2.11582,0.79802 6.53979,4.43705 8.07614,6.6432 2.73614,3.92901 3.59644,10.15325 2.05201,14.84626 -1.7665,5.36777 -6.91608,9.95995 -13.08287,11.66672 -4.55944,1.2619 -10.09742,0.99821 -14.142296,-0.67339 -2.61268,-1.07972 -7.13246,-4.69083 -8.9379,-7.14098 l -0.79613,-1.08043 -4.50625,4.67637 c -10.12158,10.5037 -14.327088,17.26073 -15.668725,25.17509 -2.117532,12.49139 1.79531,21.5879 12.513525,29.09124 2.28349,1.59857 7.44818,3.71497 10.7029,4.38586 4.71551,0.972 12.307406,0.58362 16.924496,-0.86579 z"
     id="path30" />
  <path
     style="fill:#666666;stroke-width:0.276325"
     d="m 93.249064,239.7969 c -4.375448,-0.53455 -10.170366,-2.90575 -13.954879,-5.71013 -4.537007,-3.36199 -8.052038,-7.66652 -9.820346,-12.02604 -1.4809,-3.65097 -1.880251,-6.24004 -1.710988,-11.09267 0.340249,-9.75466 3.465316,-16.08544 13.282415,-26.90758 1.749203,-1.92828 4.041348,-4.35421 5.093653,-5.39095 l 1.913284,-1.885 2.460045,2.44816 c 4.421216,4.39984 7.826358,6.16072 12.915932,6.67915 4.49547,0.45791 8.71889,-0.22106 12.18836,-1.95944 5.25478,-2.6329 8.8241,-6.79532 9.96062,-11.61573 0.85096,-3.60922 0.35251,-8.35705 -1.23311,-11.74543 -1.38498,-2.95965 -5.51226,-6.82669 -9.3348,-8.74621 -0.79789,-0.40067 -1.44848,-0.88182 -1.44577,-1.06924 0.003,-0.18741 0.94195,-1.52204 2.08719,-2.96584 5.66745,-7.14496 9.66978,-15.68409 10.37236,-22.12984 0.41792,-3.83421 0.18994,-9.42858 -0.44382,-10.89106 -0.86331,-1.99215 -2.78833,-4.66662 -4.60351,-6.39571 -4.46943,-4.25748 -8.84613,-5.84086 -15.36983,-5.56039 -5.65116,0.24295 -9.676302,2.01533 -13.600713,5.98876 -1.761113,1.78312 -2.653401,2.96539 -3.566345,4.72538 -0.669669,1.291 -1.242276,2.38104 -1.272462,2.42232 -0.03018,0.0413 -1.969203,-0.81071 -4.308928,-1.8933 -9.716521,-4.49582 -15.550729,-6.55347 -29.68984,-10.4712 -5.007692,-1.38755 -9.322501,-2.58689 -9.588464,-2.66518 -0.850642,-0.25041 -0.525037,-0.85682 0.552651,-1.02926 1.545681,-0.247323 10.348313,-2.694174 18.1684,-5.050235 7.573138,-2.281661 11.677056,-3.828263 19.606431,-7.38888 l 5.237509,-2.351856 0.917508,2.123807 c 1.907171,4.414634 4.795949,7.379176 9.331887,9.576635 3.201396,1.550929 5.651236,2.081463 9.587776,2.076315 4.50268,-0.0059 7.53773,-0.827018 10.99847,-2.975628 3.12687,-1.941324 6.46561,-5.866249 7.50449,-8.82205 1.18599,-3.374343 0.94744,-10.318767 -0.45362,-13.205694 -1.97314,-4.065717 -7.50189,-8.548117 -12.30165,-9.973493 l -1.38373,-0.410926 0.45742,-0.886949 c 0.25159,-0.487825 1.32151,-2.316937 2.37761,-4.064696 3.92155,-6.48986 6.90282,-13.40031 11.2654,-26.112757 1.25173,-3.647496 2.49209,-7.058844 2.75636,-7.580773 0.44469,-0.878263 0.50197,-0.908819 0.76886,-0.41014 0.1586,0.296352 1.24759,3.33466 2.41999,6.751797 4.59839,13.402766 7.80577,20.8217 12.01233,27.78555 1.20984,2.002843 2.27238,3.830948 2.36122,4.062451 0.12108,0.315531 -0.20637,0.539363 -1.30785,0.89399 -5.09039,1.638873 -10.35468,6.013304 -12.26926,10.195302 -0.99027,2.163026 -1.4018,5.954651 -1.03708,9.555098 0.37902,3.741676 1.5773,6.166835 4.51434,9.1365 4.54991,4.60044 10.58005,6.714195 17.23111,6.040046 4.94466,-0.50119 8.89799,-2.354732 12.37721,-5.803136 1.77667,-1.760939 2.34775,-2.569658 3.54399,-5.018825 l 1.42604,-2.919624 3.91881,1.79774 c 9.85437,4.520668 16.43184,6.827146 30.9987,10.870103 5.01531,1.391973 9.16228,2.573728 9.21549,2.626118 0.2652,0.26112 -0.3337,0.62986 -1.26501,0.77887 -1.5329,0.24528 -10.28152,2.67813 -18.15772,5.04937 -8.4531,2.54493 -12.47753,4.10736 -22.60376,8.77562 l -2.13887,0.98603 -1.14054,-2.07813 c -2.60436,-4.74527 -4.92824,-7.03868 -9.22697,-9.10601 -3.40217,-1.63615 -6.21745,-2.17731 -10.34605,-1.98873 -7.77321,0.35504 -13.78247,4.1687 -17.20282,10.91741 l -1.18898,2.34599 0.0431,5.00586 c 0.0488,5.66929 0.40592,7.88375 1.90477,11.81141 1.92948,5.0561 5.10914,10.51014 8.90843,15.28051 1.08062,1.35683 1.90011,2.57157 1.82109,2.69943 -0.079,0.12786 -0.7877,0.55588 -1.57483,0.95115 -2.11786,1.06352 -4.8956,3.19913 -6.777,5.21035 -6.43291,6.87681 -5.19362,18.94513 2.52996,24.63692 4.59796,3.38841 10.49145,4.96917 15.92733,4.27204 5.26462,-0.67516 8.54978,-2.40137 12.88765,-6.77193 l 2.51144,-2.53035 4.45323,4.70448 c 11.24341,11.87777 14.87417,18.31477 15.77553,27.96852 0.76594,8.20337 -1.46268,14.8409 -6.95399,20.71112 -3.52854,3.77201 -7.83609,6.63085 -12.2278,8.11534 -12.52752,4.23457 -26.24089,0.98674 -34.68072,-8.21367 -0.80676,-0.87947 -2.48176,-2.96685 -3.72221,-4.63862 -2.50498,-3.37597 -2.98313,-3.86304 -3.57086,-3.63751 -0.22174,0.0851 -1.48731,1.62225 -2.81237,3.4159 -1.32505,1.79366 -3.22802,4.11875 -4.2288,5.16688 -4.52111,4.73499 -10.62814,8.06709 -16.75086,9.13957 -3.00957,0.52716 -8.624572,0.72203 -11.319226,0.39282 z"
     id="path32" />
</svg>
