<?xml version="1.0" encoding="UTF-8" standalone="no"?>
<svg
   xmlns:dc="http://purl.org/dc/elements/1.1/"
   xmlns:cc="http://creativecommons.org/ns#"
   xmlns:rdf="http://www.w3.org/1999/02/22-rdf-syntax-ns#"
   xmlns:svg="http://www.w3.org/2000/svg"
   xmlns="http://www.w3.org/2000/svg"
   xmlns:sodipodi="http://sodipodi.sourceforge.net/DTD/sodipodi-0.dtd"
   xmlns:inkscape="http://www.inkscape.org/namespaces/inkscape"
   version="1.1"
   width=""
   height=""
   id="svg2"
   viewBox="0 0 725.66931 725.66931"
   sodipodi:docname="aegisV.svg"
   inkscape:version="1.0.2-2 (e86c870879, 2021-01-15)">
  <metadata
     id="metadata8">
    <rdf:RDF>
      <cc:Work
         rdf:about="">
        <dc:format>image/svg+xml</dc:format>
        <dc:type
           rdf:resource="http://purl.org/dc/dcmitype/StillImage" />
        <dc:title />
      </cc:Work>
    </rdf:RDF>
  </metadata>
  <defs
     id="defs6" />
  <sodipodi:namedview
     pagecolor="#ffffff"
     bordercolor="#666666"
     borderopacity="1"
     objecttolerance="10"
     gridtolerance="10"
     guidetolerance="10"
     inkscape:pageopacity="0"
     inkscape:pageshadow="2"
     inkscape:window-width="1920"
     inkscape:window-height="1017"
     id="namedview4"
     showgrid="false"
     inkscape:zoom="2.6211858"
     inkscape:cx="372.04623"
     inkscape:cy="550.6049"
     inkscape:window-x="-8"
     inkscape:window-y="-8"
     inkscape:window-maximized="1"
     inkscape:current-layer="svg2"
     inkscape:measure-start="878.402,489.209"
     inkscape:measure-end="158.721,719.681"
     showguides="false"
     inkscape:document-rotation="0" />
  <path
     style="fill:#000000;stroke-width:0.811086"
     d="m 336.13968,709.73053 -8.98779,-1.46742 -26.22939,-16.76233 -26.22939,-16.76237 -4.93157,2.25209 c -4.14848,1.89447 -5.96191,2.2413 -11.42033,2.18417 -3.5687,-0.0373 -8.72708,-0.69984 -11.46281,-1.47222 -2.82723,-0.7982 -14.9047,-6.77339 -27.9825,-13.84405 -25.42586,-13.74679 -22.90661,-11.66861 -24.6658,-20.34715 -0.23593,-1.16412 -1.7291,-2.30681 -4.61773,-3.53384 -6.18718,-2.62825 -27.17234,-13.19469 -34.92495,-17.58535 -19.75695,-11.18936 -37.67199,-24.49795 -52.7222,-39.16582 -19.424292,-18.93089 -27.035196,-30.02441 -30.974369,-45.14778 -0.771252,-2.96089 -2.122381,-5.62305 -3.658363,-7.20775 -1.339502,-1.38202 -2.435468,-2.92258 -2.435468,-3.42346 0,-0.80942 -2.431229,-1.20649 -12.571819,-2.05325 -2.129553,-0.17783 -2.466331,-0.54963 -2.697804,-2.97822 -0.205609,-2.15723 -1.785603,-4.45919 -7.096989,-10.34003 l -6.83248,-7.565 v -25.77273 -25.77274 l 6.850193,-5.25267 6.850303,-5.25267 0.04455,-25.16078 0.04456,-25.1608 8.418995,-7.2016 8.419104,-7.2016 0.574988,-10.39631 0.574988,-10.3963 24.582669,-14.28598 24.582672,-14.28599 -0.42165,-31.36379 c -0.49457,-36.77816 -0.29396,-38.57095 6.74521,-60.28134 14.3296,-44.19607 26.88805,-68.3095 48.95755,-94.00253 23.58418,-27.45653 42.50924,-45.462982 60.06001,-57.144651 9.62994,-6.409645 33.55753,-19.735654 38.60429,-21.499903 2.34462,-0.819644 2.37787,-0.926306 7.14644,-22.914627 2.63499,-12.150139 5.08969,-22.912378 5.45483,-23.916098 l 0.66389,-1.824947 h 78.30998 78.31007 l 0.67423,1.824947 c 0.37083,1.00372 2.82547,11.729184 5.45476,23.834364 l 4.78054,22.009416 4.86651,2.123043 c 6.97657,3.043568 28.21816,14.927 36.32804,20.323422 18.26794,12.155732 43.23953,36.613894 66.12607,64.766484 17.11374,21.05152 29.82276,46.79744 42.66027,86.42108 7.02784,21.69184 7.23112,23.50653 6.75329,60.28661 l -0.40753,31.36909 24.52184,14.24175 24.52184,14.24175 0.52564,6.21834 c 0.2891,3.42008 0.52599,8.07946 0.52641,10.35417 l 7.6e-4,4.13583 8.51565,7.28269 8.51565,7.28268 0.044,25.1608 0.0439,25.16078 6.85028,5.25267 6.85026,5.25267 v 25.79582 25.79581 l -6.83436,7.56713 c -5.27437,5.83984 -6.89433,8.19327 -7.09703,10.3103 -0.16123,1.68405 -0.73239,2.80557 -1.47927,2.90473 -0.66915,0.0889 -4.0453,0.39673 -7.50256,0.68416 -3.4906,0.29022 -6.28592,0.89899 -6.28592,1.36897 0,0.46549 -1.27746,2.26036 -2.83881,3.98857 -1.56133,1.72821 -2.85091,3.9624 -2.8657,4.96483 -0.0536,3.62404 -5.43121,15.91153 -9.90923,22.64158 -7.31063,10.98721 -22.60856,26.79783 -37.34904,38.60079 -18.08462,14.48064 -45.64503,30.98628 -68.07221,40.76768 l -7.88837,3.44045 -0.93791,4.76735 -0.93792,4.76737 -22.79458,12.36108 c -12.53701,6.7986 -24.07722,12.8092 -25.64491,13.3569 -4.31766,1.50846 -15.37068,2.84252 -18.62275,2.24772 -1.58542,-0.28997 -4.91937,-1.4342 -7.40878,-2.54274 l -4.5262,-2.01551 -26.18754,16.77354 -26.18754,16.7736 -10.1849,1.55737 c -5.60169,0.85659 -10.66868,1.37179 -11.26001,1.14484 -0.79388,-0.30464 -1.07511,-2.5408 -1.07511,-8.54884 v -8.13634 h -12.54347 -12.54345 l -0.23115,8.31364 c -0.27429,9.86524 0.62411,9.3837 -13.27439,7.11445 z m 10.21861,-24.55282 c 0.0109,-12.60227 0.54717,-78.92761 1.19867,-147.38968 1.3558,-142.47122 2.04391,-128.26012 -6.42789,-132.75876 -2.64521,-1.40467 -8.12004,-3.68959 -12.16626,-5.0776 l -7.35682,-2.52368 -37.71546,-0.25044 c -41.56748,-0.27603 -42.57585,-0.37789 -56.91893,-5.74901 -8.8814,-3.32585 -15.0388,-6.98862 -21.1109,-12.55794 -5.49026,-5.03561 -8.00821,-9.02114 -10.04354,-15.89717 -0.79223,-2.67659 -1.83049,-5.28638 -2.30724,-5.79955 -0.47664,-0.51315 -11.99889,-4.47965 -25.60484,-8.81442 -13.60606,-4.33477 -25.01193,-8.04258 -25.34653,-8.23957 -0.3345,-0.197 -0.60825,12.62047 -0.60825,28.48328 v 28.84146 h 2.38037 c 4.0084,0 6.33281,1.38168 8.45638,5.02672 2.43493,4.17939 7.87868,18.2302 10.2284,26.40039 1.91243,6.6497 5.18087,11.01728 9.18829,12.27795 1.42753,0.44908 6.42789,1.19107 11.11191,1.64889 4.68412,0.45782 11.62082,1.73807 15.41513,2.845 8.6496,2.52347 25.64017,9.47147 30.20508,12.35182 5.22717,3.2983 11.55627,10.20571 13.91002,15.18111 3.74356,7.91321 3.9358,12.16607 3.02958,67.01865 -0.46066,27.88069 -0.57966,50.95006 -0.26451,51.26527 0.31526,0.31519 8.6008,4.08118 18.41244,8.36886 9.81164,4.28769 19.42408,8.71879 21.36096,9.84689 5.04557,2.93865 6.57655,6.73657 6.59916,16.37012 0.0109,4.55335 0.54564,9.39619 1.33961,12.12733 0.95121,3.27209 1.18486,6.14951 0.8333,10.26341 -1.03337,12.09277 -4.77683,18.75002 -12.66137,22.5165 l -3.88331,1.85509 25.24144,16.10503 25.24155,16.1051 8.51637,1.44243 c 4.68402,0.79333 8.79022,1.48454 9.12472,1.53604 0.3346,0.052 0.61476,-10.21726 0.62247,-22.81952 z m 75.10628,3.74511 25.23855,-16.11419 -3.74474,-1.69493 c -5.03276,-2.27792 -9.43298,-7.32996 -11.02096,-12.65352 -2.08763,-6.99857 -2.46083,-15.05448 -0.93984,-20.28655 0.79397,-2.73114 1.32892,-7.57398 1.33962,-12.12733 0.02,-8.54141 1.6082,-13.37695 5.15704,-15.70226 1.13655,-0.74468 10.74809,-5.18202 21.359,-9.86075 10.6109,-4.67872 19.53937,-8.7515 19.84101,-9.05061 0.30164,-0.29911 0.17501,-23.53814 -0.28143,-51.64231 -0.89754,-55.26472 -0.74329,-58.57011 3.11366,-66.72303 2.41067,-5.09574 9.50237,-12.58236 14.9337,-15.76534 5.48814,-3.21626 23.62056,-10.25566 31.95502,-12.40562 4.02478,-1.03824 10.58252,-2.12722 14.57278,-2.41997 3.99025,-0.29276 8.38717,-1.00531 9.77091,-1.58348 3.84905,-1.60823 6.71735,-5.6541 8.55885,-12.07266 2.17108,-7.5673 8.43339,-23.7379 10.50946,-27.13766 1.75064,-2.86679 4.39169,-4.23798 8.16281,-4.23798 h 2.38046 v -28.68759 -28.6876 l -24.94092,7.96536 c -13.71751,4.38094 -25.433,8.26169 -26.03441,8.62389 -0.60142,0.36221 -1.921,3.26859 -2.93241,6.45862 -2.37741,7.49848 -4.30894,10.5323 -10.06826,15.81403 -8.19563,7.516 -16.96308,11.92721 -31.62586,15.91206 l -7.81173,2.12297 -38.32655,0.26289 -38.32654,0.26289 -7.09432,2.50218 c -8.12518,2.86578 -15.65424,6.49779 -17.11274,8.25517 -0.54966,0.66232 -1.33301,2.36743 -1.74075,3.78913 -0.45225,1.57694 -0.28727,50.07803 0.42308,124.37768 0.64045,66.98601 1.17188,132.96273 1.18097,146.61494 l 0.0165,24.82217 9.12473,-1.4082 9.12473,-1.40821 25.23855,-16.11419 z m -46.73444,-4.5562 c -8.2e-4,-4.1264 -0.56529,-66.2658 -1.25362,-138.08755 -0.68834,-71.82174 -1.02109,-131.84984 -0.73946,-133.39577 0.86331,-4.7388 2.65927,-7.21062 7.08198,-9.74705 l 4.24068,-2.43206 h -21.8993 -21.89942 l 4.24074,2.43206 c 4.27334,2.45078 6.07753,4.83984 7.03352,9.31348 0.28603,1.33829 -0.0326,60.46653 -0.70811,131.39609 -0.67551,70.92954 -1.2305,133.25144 -1.23344,138.49309 v 9.53027 h 12.57193 12.57182 l -0.002,-7.50256 z m -106.83538,-10.13035 3.0649,-1.21684 -5.27921,-3.08498 c -2.90353,-1.69673 -6.90464,-4.25227 -8.89118,-5.67896 -3.49014,-2.50638 -3.63174,-2.77552 -4.19217,-7.9701 -1.37177,-12.71474 5.06829,-25.87297 14.10846,-28.82641 8.5055,-2.77874 9.96704,-2.64924 16.29408,1.44369 l 5.75738,3.72444 -10e-4,-6.6751 c -10e-4,-8.38892 -1.43328,-11.56243 -6.48712,-14.3761 -3.04479,-1.69518 -4.72553,-2.03206 -10.13852,-2.03206 -5.78607,0 -7.14742,0.31664 -12.57193,2.92406 -9.73122,4.67763 -16.67183,12.55179 -20.26227,22.98756 -4.65978,13.54375 -1.81505,33.86495 5.3103,37.93511 2.95155,1.68599 12.40903,3.06706 16.9797,2.47955 1.78441,-0.22936 4.62359,-0.9646 6.30922,-1.63386 z m 205.47173,0.97922 c 8.13107,-0.98056 11.48589,-4.98269 13.24002,-15.79468 3.3573,-20.69358 -5.12805,-38.93457 -21.84364,-46.95731 -5.42113,-2.6019 -6.78931,-2.91965 -12.57184,-2.91965 -5.41303,0 -7.09375,0.33688 -10.13858,2.03206 -5.05988,2.81708 -6.48586,5.9844 -6.48745,14.40954 l -0.001,6.70856 5.46617,-3.66699 c 6.18299,-4.14784 7.59943,-4.3385 15.07583,-2.02929 4.28709,1.32416 5.92878,2.3495 8.5748,5.35554 5.07004,5.75986 6.91996,11.31262 6.95078,20.86355 0.0299,9.28006 0.4677,8.6781 -11.49778,15.8111 l -6.76943,4.03546 3.46888,1.25588 c 6.07059,2.19778 5.84292,2.18544 16.53348,0.89623 z m -237.80016,-9.74448 c -1.92308,-6.32416 -2.34125,-18.42766 -0.87417,-25.30042 3.44895,-16.15744 14.08857,-28.06763 29.56098,-33.09119 2.35939,-0.76602 4.16619,-1.51633 4.01513,-1.66735 -0.15094,-0.15101 -7.37367,-3.39357 -16.05043,-7.20568 -15.80669,-6.94461 -21.27185,-8.52022 -29.56446,-8.52349 -6.6536,-0.002 -10.00094,1.36513 -14.54325,5.94256 -4.89517,4.93314 -9.58744,14.04915 -11.03844,21.44539 -1.13183,5.76975 -0.68214,21.67919 0.79624,28.16085 l 0.92492,4.05543 18.82453,10.23338 c 10.35348,5.62834 18.90234,10.17368 18.99753,10.10073 0.0956,-0.0729 -0.37666,-1.94054 -1.04858,-4.15021 z m 46.42863,1.62529 c 4.31192,-2.5268 6.52472,-6.14897 7.99473,-13.08724 1.39743,-6.59508 1.48415,-10.1571 0.34689,-14.25222 -0.93089,-3.3517 -1.2467,-3.44374 -7.33585,-2.13784 -4.90637,1.05223 -10.1244,5.35777 -13.52434,11.15933 -1.74898,2.98446 -2.19432,4.91969 -2.47285,10.7465 l -0.33982,7.10657 2.73301,1.70687 c 3.35864,2.09761 7.61536,1.67797 12.59823,-1.24197 z m 172.92907,1.20128 2.73299,-1.66618 -0.35462,-7.04997 c -0.40706,-8.09254 -1.49698,-10.69525 -6.89576,-16.46697 -3.66713,-3.92047 -5.93044,-5.03738 -12.15859,-6.0001 l -3.39886,-0.52538 -0.94798,3.51027 c -1.08801,4.0288 -0.54383,11.38722 1.30173,17.60189 1.50008,5.05132 5.38001,9.18307 10.23579,10.90016 4.77474,1.68842 6.29763,1.63965 9.4853,-0.30372 z m 57.89098,-12.11623 12.72114,-6.89424 0.92083,-4.05543 c 1.46751,-6.4631 1.92261,-22.39987 0.80228,-28.09439 -2.27042,-11.54034 -11.30811,-24.61611 -18.36918,-26.57661 -8.92713,-2.47862 -17.75787,-0.6843 -35.9636,7.30741 -8.28182,3.63546 -15.55324,6.87368 -16.15873,7.19607 -0.70689,0.37637 0.45421,1.0911 3.24434,1.99708 11.3564,3.68753 20.84922,11.67928 25.76859,21.69387 5.0116,10.20235 6.27392,25.91472 2.9528,36.75374 -0.68344,2.23049 -1.24656,4.12707 -1.2514,4.21462 -0.009,0.16459 3.70363,-1.8201 25.33293,-13.54212 z m -249.03471,1.82494 c 0.42861,-7.17774 1.9647,-10.78143 7.05874,-16.55935 3.50687,-3.97771 8.97072,-7.16494 12.28286,-7.16494 1.63704,0 1.2405,-0.48695 -2.38461,-2.92824 l -4.34822,-2.92824 -4.96852,1.02151 c -6.85128,1.40862 -11.8297,6.36868 -14.2468,14.19419 -1.63911,5.30698 -2.0287,11.16078 -0.98218,14.75951 0.45479,1.56395 5.23781,5.73563 6.70924,5.85171 0.27723,0.022 0.67301,-2.78888 0.87949,-6.24615 z m 200.90795,4.21132 c 4.60566,-3.04788 5.41217,-9.01415 2.49521,-18.4582 -2.40693,-7.79275 -6.82574,-12.30273 -13.80019,-14.08493 l -5.29647,-1.35343 -4.42576,2.98048 c -3.67544,2.47519 -4.09286,2.98048 -2.46217,2.98048 3.31216,0 8.77602,3.18722 12.28289,7.16493 5.09394,5.77792 6.63008,9.38161 7.05872,16.55935 0.20646,3.45727 0.51881,6.28593 0.69411,6.28593 0.1753,0 1.72945,-0.93358 3.45366,-2.07461 z M 193.04872,628.36926 c 0,-5.51956 0.48294,-11.01103 1.21561,-13.82419 1.94677,-7.47385 6.87551,-16.62966 11.52932,-21.41711 l 4.22857,-4.34993 -3.823,-1.61962 c -17.87853,-7.57435 -41.25841,-23.62274 -58.54109,-40.18361 -15.02913,-14.40155 -17.73911,-18.56769 -33.94852,-52.19031 -1.89211,-3.92468 -8.46931,-8.12271 -12.70995,-8.11239 -9.329995,0.0227 -21.512874,10.70723 -25.670806,22.51347 -2.083476,5.91608 -2.909173,19.36017 -1.598361,26.02325 4.707817,23.92942 33.571107,54.50811 75.885157,80.39532 11.52411,7.05031 40.41913,21.82914 42.82482,21.90343 0.3345,0.01 0.60825,-4.10191 0.60825,-9.13831 z m 341.97689,7.85856 c 5.93753,-2.45495 27.48221,-13.46178 35.17855,-17.97216 20.10961,-11.78508 38.24375,-25.52433 52.71416,-39.93865 12.11134,-12.06439 17.46205,-18.96263 22.33409,-28.79359 4.51502,-9.11053 6.06044,-15.12381 6.06044,-23.58123 0,-8.5859 -1.09987,-14.15601 -4.03284,-20.42364 -4.89485,-10.46003 -16.88862,-19.54123 -24.65281,-18.6661 -4.55169,0.51304 -10.21744,4.25199 -12.042,7.94675 -0.76446,1.54806 -3.90178,8.13124 -6.97182,14.62929 -7.44536,15.75888 -12.34139,22.79058 -24.02254,34.50126 -18.14699,18.19286 -42.95816,35.70003 -61.0747,43.09532 l -4.23945,1.73058 4.28284,4.38674 c 4.7516,4.8669 9.49374,13.65481 11.45915,21.23562 0.77089,2.97342 1.25331,8.35886 1.25331,13.99125 0,5.0364 0.13792,9.15709 0.30649,9.15709 0.16858,0 1.71977,-0.58433 3.44713,-1.29853 z M 242.01203,570.00336 c 1.05717,-43.2744 1.31451,-81.52474 0.5814,-86.41212 -1.33831,-8.92185 -6.34573,-16.62397 -14.41937,-22.17874 -8.92671,-6.14173 -32.34821,-14.1604 -44.85841,-15.3579 -10.66939,-1.02128 -13.87611,-1.87405 -17.03143,-4.5291 -3.18824,-2.68266 -5.21043,-6.66724 -7.35965,-14.50111 -2.1138,-7.70505 -8.24338,-22.68373 -10.14037,-24.77985 -0.87808,-0.97028 -2.4784,-1.55557 -4.25346,-1.55557 h -2.8456 l 0.53804,41.49882 c 0.29603,22.82437 0.53815,53.68356 0.53815,68.57599 v 27.07717 l 5.8804,5.74764 c 15.63998,15.28697 40.00976,32.28605 57.38437,40.02846 6.43224,2.86629 7.36281,3.0606 13.88589,2.89941 6.92018,-0.171 17.01861,1.09001 19.36866,2.41863 0.66921,0.37829 1.44937,0.6989 1.73376,0.71247 0.28451,0.0136 0.73344,-8.82633 0.99762,-19.6442 z m 249.11116,17.49923 c 3.12268,-0.62538 8.96251,-1.06523 12.97738,-0.97744 6.86139,0.15003 7.71383,-0.0248 14.19403,-2.91034 17.26572,-7.68827 41.82812,-24.82076 57.3844,-40.02612 l 5.88038,-5.74774 8.1e-4,-36.33528 c 6.1e-4,-19.98441 0.24243,-50.84361 0.53739,-68.576 l 0.53627,-32.2407 h -2.47525 c -1.36138,0 -3.2543,0.63873 -4.20648,1.41941 -2.03558,1.66894 -8.11553,16.01945 -10.55626,24.91601 -2.14919,7.83387 -4.17145,11.81845 -7.35961,14.50111 -3.13334,2.63653 -6.65426,3.59481 -16.75905,4.56126 -9.37025,0.8962 -18.86542,3.5087 -31.3786,8.6335 -14.29668,5.85524 -20.98223,11.00982 -25.16819,19.40479 -3.67766,7.37554 -3.86359,11.35623 -2.96622,63.50301 0.45804,26.61685 0.83494,49.25454 0.83755,50.306 0.004,1.50899 0.30375,1.78467 1.42414,1.30865 0.78066,-0.33168 3.97432,-1.11474 7.097,-1.74012 z M 138.89084,435.28228 c -0.24973,-57.81335 -0.12465,-98.6047 0.3033,-98.86059 0.40057,-0.23959 44.52708,13.57418 98.05889,30.69728 l 97.33034,31.13291 27.52173,10e-4 27.52166,10e-4 62.50898,-19.97825 c 34.37994,-10.98745 78.2035,-25.00465 97.38571,-31.14875 19.1822,-6.1441 35.19678,-10.86769 35.58793,-10.49684 0.40362,0.38264 0.5621,42.96076 0.36647,98.44711 -0.33373,94.6521 -0.29744,97.73006 1.13733,96.43164 2.60184,-2.35465 8.68207,-12.20008 13.12478,-21.25237 l 4.30779,-8.77633 0.3866,-118.72971 c 0.30476,-93.59622 0.16903,-119.98636 -0.64115,-124.66599 -1.34969,-7.79578 -5.10097,-20.07728 -11.31703,-37.05134 -15.43704,-42.15361 -25.76324,-58.66946 -59.37163,-94.95972 -23.69441,-25.58516 -39.62941,-37.835115 -69.48447,-53.415858 -5.71227,-2.981125 -10.56194,-5.244226 -10.77705,-5.029119 -0.2151,0.215107 1.69833,9.882742 4.25208,21.483635 4.36245,19.817332 4.82502,23.640972 2.85996,23.640972 -1.08894,0 -1.12495,-0.14957 -11.80901,-49.070757 -5.1635,-23.643191 -9.58354,-43.626344 -9.82229,-44.407015 -0.40936,-1.338578 -4.74735,-1.419402 -76.18482,-1.419402 h -75.75063 l -0.79255,3.041576 c -0.43589,1.672866 -4.84866,21.65602 -9.8061,44.407011 -10.31935,47.358257 -10.34109,47.448587 -11.41999,47.448587 -1.94253,0 -1.48915,-3.71312 2.88178,-23.599709 2.5524,-11.61289 4.44146,-21.313692 4.19782,-21.557304 -0.57564,-0.575673 -20.51461,9.939556 -31.0148,16.356351 -20.16946,12.325763 -39.12799,29.712742 -64.12644,58.810862 -15.45578,17.99048 -22.57428,28.43603 -30.67758,45.01532 -8.63004,17.6568 -19.79857,47.76332 -24.13939,65.07107 l -1.78463,7.11567 0.2193,120.44641 0.2192,120.4464 4.37158,9.0988 c 4.03763,8.40375 7.67665,14.5259 12.56149,21.13305 1.06423,1.43945 2.0036,2.61718 2.0875,2.61718 0.0837,0 -0.0391,-44.29123 -0.27266,-98.42495 z M 285.05887,114.13641 c -0.43415,-1.13117 0.97121,-9.68555 4.59121,-27.946378 l 0.84406,-4.258205 h 70.52717 70.52715 l 0.7485,1.968728 c 2.06015,5.418592 7.4735,28.099495 7.00071,29.331585 -0.94909,2.47328 -2.15096,0.0578 -4.47584,-8.99543 l -0.83315,-3.24434 -71.99182,0.25461 c -39.59539,0.14004 -72.0802,0.3431 -72.18833,0.45126 -0.10759,0.10812 -0.76713,2.90832 -1.46426,6.2226 -1.34265,6.38287 -2.43112,8.44196 -3.2854,6.21557 z M 432.80996,96.328622 c -0.28033,-1.003724 -1.09724,-4.106128 -1.81537,-6.894238 l -1.30568,-5.069296 h -68.37104 -68.37098 l -0.81483,3.85266 c -0.44817,2.118968 -1.06651,5.221372 -1.37417,6.894238 l -0.55923,3.041579 h 71.56053 71.56048 z M 72.151259,508.65554 c 3.539258,-10.41906 10.400536,-18.26055 19.977005,-22.83099 8.185786,-3.90672 15.075536,-2.7533 21.878456,3.66266 l 2.79985,2.64058 v -79.78506 c 0,-43.88178 -0.20268,-79.78506 -0.45045,-79.78506 -0.24778,0 -10.61386,5.90191 -23.035715,13.11535 l -22.585262,13.11535 -0.470879,13.04221 c -0.934587,25.88627 -2.246159,155.3423 -1.584233,156.3666 0.404806,0.62636 0.886227,-2.05558 1.194749,-6.65626 0.29972,-4.46837 1.256041,-9.88144 2.276479,-12.88538 z M 655.42131,458.17106 c -0.48791,-37.63747 -1.1016,-75.38528 -1.36373,-83.88404 l -0.4766,-15.45227 -22.59039,-13.13854 c -12.42472,-7.22619 -22.78976,-13.13854 -23.03341,-13.13854 -0.24366,0 -0.44302,35.90328 -0.44302,79.78506 v 79.78506 l 2.79984,-2.64058 c 6.85773,-6.46768 14.05869,-7.64622 22.11652,-3.61968 13.2762,6.6342 20.95219,18.78894 21.91393,34.70016 0.28095,4.64818 0.74532,7.25379 1.20995,6.78916 0.46464,-0.46464 0.41357,-27.01746 -0.13309,-69.18579 z M 65.176635,490.51685 c 0.288527,-17.95544 0.765166,-49.78954 1.059235,-70.74245 l 0.534779,-38.09621 -2.379284,2.00283 c -1.30853,1.10157 -4.467541,3.80615 -7.01994,6.0102 l -4.640766,4.00736 v 64.28801 64.28801 l 5.069372,0.28796 c 2.78811,0.15838 5.470374,0.35831 5.960706,0.44426 0.628564,0.11019 1.046085,-9.46993 1.415898,-32.48997 z m 601.613215,31.83516 h 4.80018 v -64.33093 -64.33093 l -6.69147,-5.77076 -6.69147,-5.77076 -0.26889,3.79533 c -0.14789,2.08743 0.12747,30.07455 0.6119,62.1936 0.48443,32.11904 0.87917,62.17844 0.8772,66.79867 -0.003,7.32773 0.16025,8.33755 1.2794,7.9081 0.70562,-0.27078 3.44304,-0.49232 6.08315,-0.49232 z M 49.48634,480.12804 v -34.1131 l -5.217493,4.30566 -5.217601,4.30565 -0.03912,24.33261 -0.03912,24.33261 4.921685,5.47484 c 2.707041,3.01116 5.072414,5.47483 5.256614,5.47483 0.184092,0 0.334822,-15.3509 0.334822,-34.1131 z m 635.839,-1.16918 -0.0389,-24.33261 -4.74277,-3.85266 c -2.60853,-2.11897 -4.96023,-3.85267 -5.226,-3.85267 -0.26576,0 -0.46633,15.2383 -0.44568,33.86289 l 0.0376,33.86287 5.22743,-5.6776 5.22744,-5.67761 -0.039,-24.33261 z M 309.03417,393.59408 c -0.6691,-0.26297 -25.97216,-8.39833 -56.22886,-18.07855 -61.73705,-19.75194 -55.91262,-18.72055 -52.37869,-9.27528 2.96666,7.9291 12.94979,16.26504 25.68668,21.44834 5.48439,2.23188 18.09968,5.40719 23.71155,5.96825 4.95548,0.49546 60.47992,0.43659 59.20932,-0.0628 z m 166.89627,-0.2294 c 18.63827,-2.33704 36.48678,-10.80205 44.25547,-20.98902 2.81953,-3.69723 6.69917,-12.84287 5.82067,-13.72139 -0.35705,-0.35703 -110.61826,34.51394 -111.46351,35.25123 -0.8114,0.70775 55.3777,0.21273 61.38737,-0.54082 z"
     id="path34" />
  <path
     style="fill:#ff5555;fill-opacity:1;stroke-width:0.385549"
     d="m 253.75299,393.80417 c -6.26556,-0.25348 -8.75426,-0.64026 -16.28243,-2.53051 -12.95935,-3.25398 -23.23366,-8.51759 -30.41741,-15.5831 -3.59563,-3.53644 -5.60812,-6.59444 -7.52174,-11.42936 -1.43235,-3.61892 -1.44606,-3.7017 -0.70443,-4.25148 1.15458,-0.85591 4.76952,-0.15152 14.44335,2.8144 6.94626,2.12966 71.78338,22.9105 84.43527,27.0622 l 11.3737,3.73227 -6.36156,0.23583 c -8.37003,0.31028 -40.87766,0.27692 -48.96475,-0.0503 z"
     id="path36" />
  <path
     style="fill:#ff5555;fill-opacity:1;stroke-width:0.385549"
     d="m 414.71977,393.89036 c 0.86363,-0.87643 109.07781,-35.16397 110.98027,-35.16397 0.34992,0 0.63622,0.17897 0.63622,0.39772 0,1.01542 -1.7962,5.55416 -3.58082,9.04824 -1.64634,3.22334 -2.54147,4.42543 -5.45938,7.33155 -7.13776,7.10893 -17.72095,12.58935 -30.60451,15.84829 -9.51544,2.40697 -10.76555,2.4859 -43.05559,2.71842 -19.818,0.14272 -29.17695,0.0844 -28.91619,-0.18025 z"
     id="path38" />
  <path
     style="fill:#ffccaa;fill-opacity:1;stroke-width:0.545249"
     d="m 136.5017,530.38283 c -3.88976,-5.22489 -7.33554,-11.07755 -11.96409,-20.32104 l -4.35432,-8.69583 -0.39465,-120.46838 -0.39464,-120.46837 2.0155,-7.63349 c 7.00162,-26.51774 21.86014,-63.32744 32.50383,-80.52322 13.30314,-21.49237 45.56309,-57.37164 67.27859,-74.826747 10.42577,-8.380322 19.72001,-14.319227 36.56829,-23.366678 8.99314,-4.82927 13.19142,-6.744272 13.69078,-6.244905 0.15783,0.15782 -0.72178,5.157117 -1.95467,11.109545 -5.39809,26.062125 -6.011,29.252965 -6.011,31.293885 0,3.30586 1.32911,2.75226 2.34957,-0.97864 0.47164,-1.72435 2.34012,-9.882638 4.15217,-18.129528 12.04106,-54.80038 15.82222,-71.814166 16.1468,-72.654411 0.34824,-0.901529 3.83321,-0.951183 63.15018,-0.899777 66.65064,0.05776 87.69875,0.378549 88.67003,1.351391 0.52094,0.521791 2.88345,10.947517 15.86718,70.021802 4.3003,19.565773 5.34054,23.445703 6.28602,23.445703 1.5699,0 1.23417,-2.29214 -3.97676,-27.150467 -1.9673,-9.384851 -3.41345,-17.226822 -3.21367,-17.426606 0.47341,-0.473411 13.24067,5.888856 22.94292,11.433072 22.20531,12.688923 37.53552,25.299871 58.67395,48.266401 34.61394,37.60745 45.73272,56.57439 62.73325,107.01334 5.78107,17.15189 6.4997,20.52667 7.08248,33.26019 0.30724,6.71309 0.37213,55.60484 0.16246,122.40837 l -0.3491,111.23077 -4.21569,8.45135 c -6.29073,12.6113 -12.87604,22.76289 -14.0302,21.62829 -0.25417,-0.24986 -0.52872,-44.13884 -0.61011,-97.53106 l -0.14797,-97.07676 -2.03302,0.33114 c -1.11816,0.18212 -6.57222,1.70022 -12.12013,3.37355 -9.3404,2.81721 -25.91659,8.09305 -140.62254,44.75703 l -41.65987,13.31593 -27.31411,-0.15075 -27.31411,-0.15076 -52.34389,-16.80882 c -86.74938,-27.8572 -104.64787,-33.52619 -141.62691,-44.85754 -0.90399,-0.277 -0.95976,4.74959 -1.0905,98.29807 l -0.13779,98.59001 z M 286.87498,112.80307 c 0.31557,-0.97463 1.05962,-3.82612 1.65344,-6.33665 0.59383,-2.51053 1.17441,-4.65932 1.29019,-4.7751 0.11578,-0.11578 32.61695,-0.37178 72.22482,-0.56889 l 72.01433,-0.35838 0.62824,2.40724 c 2.16088,8.27981 3.40348,11.46108 4.17523,10.68933 0.77707,-0.77707 -2.90515,-17.6481 -6.21079,-28.456301 l -1.00057,-3.271493 -70.41366,-0.138357 c -66.71541,-0.131094 -70.42851,-0.08814 -70.69644,0.817874 -0.45815,1.549264 -3.48909,17.418417 -4.40031,23.038807 -0.95807,5.90935 -1.06815,8.72398 -0.34122,8.72398 0.27663,0 0.76116,-0.79742 1.07674,-1.77206 z"
     id="path42" />
  <path
     style="fill:#ffccaa;fill-opacity:1;stroke-width:0.545249"
     d="m 655.00137,526.70094 c -0.15863,-0.5248 -0.54319,-3.49503 -0.85459,-6.60049 -1.22092,-12.17599 -4.54808,-19.8125 -11.66637,-26.77668 -8.81559,-8.62473 -18.0464,-11.51965 -25.62606,-8.03673 -1.75638,0.80707 -4.63938,2.72007 -6.40668,4.2511 l -3.21327,2.78371 0.075,-66.71063 c 0.0412,-36.69084 0.22526,-72.66217 0.40893,-79.93628 l 0.33395,-13.22566 5.45249,3.06595 c 2.99887,1.68628 13.22115,7.58179 22.71618,13.10115 l 17.26369,10.03519 0.32329,4.48651 c 0.91923,12.75648 2.58339,164.51704 1.80405,164.51704 -0.1772,0 -0.45197,-0.42938 -0.6106,-0.95418 z"
     id="path44" />
  <path
     style="fill:#ffccaa;fill-opacity:1;stroke-width:0.545249"
     d="m 659.68553,522.48281 c -0.34964,-0.56839 -0.84019,-33.04149 -1.51157,-100.06072 -0.40011,-39.94018 -0.38946,-40.60747 0.63502,-39.81177 0.57306,0.4451 3.67958,3.10386 6.90336,5.90837 l 5.86143,5.0991 v 64.52997 64.52996 l -5.77874,0.17139 c -3.40564,0.10101 -5.91457,-0.0494 -6.1095,-0.3663 z"
     id="path46" />
  <path
     style="fill:#ffccaa;fill-opacity:1;stroke-width:0.545249"
     d="m 674.86096,481.20484 c -0.009,-19.30052 0.19292,-33.76588 0.47378,-33.93946 0.26921,-0.16638 2.56078,1.31744 5.09238,3.29738 l 4.6029,3.5999 0.34358,24.31202 0.34359,24.31202 -1.33406,1.66554 c -0.73373,0.91605 -3.17286,3.62845 -5.42027,6.02754 l -4.08621,4.362 z"
     id="path49" />
  <path
     style="fill:#ffccaa;fill-opacity:1;stroke-width:0.545249"
     d="m 59.168414,522.91876 c -1.799321,-0.0925 -4.06892,-0.30257 -5.043552,-0.46685 l -1.772059,-0.29869 0.0044,-64.17834 0.0044,-64.17835 6.545454,-5.60855 c 3.6,-3.0847 6.920776,-5.75257 7.379504,-5.9286 0.735382,-0.28219 0.798648,0.76832 0.534791,8.88004 -0.164592,5.06005 -0.554808,29.44246 -0.867146,54.18312 -0.589526,46.69702 -1.31532,76.51406 -1.884907,77.43567 -0.18183,0.29421 -0.622822,0.48853 -0.979983,0.43183 -0.35716,-0.0567 -2.121554,-0.17878 -3.920875,-0.27128 z"
     id="path51" />
  <path
     style="fill:#ffccaa;fill-opacity:1;stroke-width:0.545249"
     d="m 43.73488,508.74949 -4.983707,-5.35794 -0.0148,-24.32628 -0.01479,-24.32629 5.316176,-4.40065 5.316176,-4.40065 0.140519,33.26613 c 0.07729,18.29638 -0.06567,33.63457 -0.317673,34.08488 -0.356555,0.63713 -1.56368,-0.36976 -5.441901,-4.5392 z"
     id="path53" />
  <path
     style="fill:#ffccaa;fill-opacity:1;stroke-width:0.545249"
     d="m 68.467887,526.70232 c -0.429843,-1.95706 0.568922,-104.93349 1.36573,-140.8119 0.523723,-23.58207 0.686528,-26.53942 1.504033,-27.32084 1.093347,-1.04509 44.34987,-26.11355 45.05986,-26.11355 0.16206,0 0.29466,35.82285 0.29466,79.60633 0,43.78349 -0.15858,79.60634 -0.35239,79.60634 -0.19382,0 -1.50846,-1.08137 -2.92143,-2.40303 -6.66405,-6.23345 -13.41336,-7.09068 -22.080253,-2.80444 -7.761888,3.83868 -13.557028,9.96524 -17.386205,18.38053 -2.285236,5.02221 -2.825202,7.26577 -3.84394,15.97162 -0.449802,3.84388 -0.924942,7.096 -1.055866,7.22692 -0.130925,0.13093 -0.393814,-0.47116 -0.584199,-1.33798 z"
     id="path55" />
  <path
     style="fill:#ffccaa;fill-opacity:1;stroke-width:0.771098"
     d="m 217.70281,659.71871 c -14.31939,-7.71731 -18.88708,-10.53603 -19.44304,-11.99833 -1.55942,-4.10158 -2.50984,-20.62454 -1.59441,-27.71869 1.12708,-8.73434 5.29687,-17.77254 10.96379,-23.76447 5.3278,-5.63336 8.69245,-6.86679 17.46469,-6.40226 8.07034,0.42736 13.25064,2.08802 31.00047,9.93788 11.31737,5.00511 12.46422,5.68061 10.79537,6.35854 -14.02786,5.69847 -21.13631,11.056 -26.37432,19.87795 -4.76054,8.01778 -6.29302,14.15066 -6.23707,24.96034 0.0309,5.96056 0.49061,10.8878 1.29206,13.84694 0.68429,2.52658 1.15521,4.68272 1.04649,4.79144 -0.10871,0.10871 -8.62003,-4.34149 -18.91403,-9.88934 z"
     id="path57" />
  <path
     style="fill:#ffccaa;fill-opacity:1;stroke-width:0.771098"
     d="m 249.76822,675.18865 c -7.09439,-1.67053 -9.52539,-4.6254 -11.82319,-14.37104 -1.62396,-6.88766 -1.06164,-18.81427 1.18853,-25.20829 3.65599,-10.38877 10.72049,-18.44075 20.35829,-23.20401 5.63443,-2.78469 5.89223,-2.83412 13.41114,-2.57156 6.99891,0.2444 7.91264,0.45577 10.49629,2.42809 1.55651,1.18821 3.31284,3.09667 3.90296,4.24104 1.46317,2.83738 2.51628,15.57488 1.2877,15.57488 -0.4975,0 -3.20584,-1.38798 -6.01854,-3.0844 -5.69395,-3.43418 -7.80681,-3.71154 -14.13181,-1.85513 -10.31624,3.02785 -17.2977,16.52104 -15.45788,29.87573 0.71729,5.20657 1.41804,5.93127 11.43155,11.82216 3.48187,2.04837 6.34457,3.92118 6.36156,4.16181 0.017,0.24062 -1.82133,1.02136 -4.08515,1.73497 -4.37875,1.38028 -12.1108,1.58853 -16.92145,0.45575 z"
     id="path59" />
  <path
     style="fill:#ffccaa;fill-opacity:1;stroke-width:0.771098"
     d="m 457.21873,674.71762 c -2.01449,-0.69922 -3.65177,-1.47064 -3.63839,-1.71425 0.0134,-0.24362 3.5282,-2.52491 7.81071,-5.06954 4.28252,-2.54462 8.3063,-5.41402 8.94175,-6.37644 0.90853,-1.37604 1.0817,-3.53742 0.81059,-10.11744 -0.29253,-7.09999 -0.66028,-9.01247 -2.42752,-12.62458 -2.76452,-5.65049 -7.74667,-10.16381 -12.91329,-11.69813 -6.43503,-1.911 -8.96122,-1.5811 -14.42236,1.88345 -2.6677,1.69239 -5.2346,3.07707 -5.70422,3.07707 -1.12357,0 -0.19908,-12.58573 1.12202,-15.27487 0.52276,-1.0641 2.28298,-3.00724 3.9116,-4.31808 2.79601,-2.25046 3.39198,-2.39828 10.68825,-2.65106 7.60231,-0.26339 7.82098,-0.22133 13.53624,2.6033 16.72808,8.26747 25.11034,26.53713 21.73119,47.36447 -1.91229,11.7863 -6.08481,15.34826 -18.60381,15.88155 -5.32058,0.22665 -8.1286,-0.0234 -10.84276,-0.96545 z"
     id="path61" />
  <path
     style="fill:#ffccaa;fill-opacity:1;stroke-width:0.771098"
     d="m 487.49269,669.34738 c 0.005,-0.35335 0.52021,-2.32964 1.14582,-4.39176 3.13499,-10.33342 1.82303,-25.42018 -3.12085,-35.8878 -3.77825,-7.99964 -11.08084,-15.0978 -19.76267,-19.20943 -3.52866,-1.67113 -7.081,-3.2657 -7.8941,-3.54348 -0.91743,-0.31342 -1.20471,-0.77871 -0.75713,-1.22628 1.33433,-1.33434 23.45407,-10.72657 30.81663,-13.08501 8.88187,-2.84511 17.34936,-3.17493 22.31135,-0.86906 5.95544,2.76754 12.5634,11.69646 15.96249,21.5691 1.56582,4.54793 1.74068,6.37856 1.59281,16.67525 -0.0914,6.36157 -0.61567,13.47495 -1.16513,15.80752 l -0.99902,4.24104 -10.39442,5.64414 c -21.83073,11.85402 -27.74386,14.89754 -27.73578,14.27577 z"
     id="path63" />
  <path
     style="fill:#ffccaa;fill-opacity:1;stroke-width:0.545249"
     d="m 239.15755,589.07021 c -1.91889,-1.12208 -6.71072,-1.76068 -16.30879,-2.17345 -11.36579,-0.48878 -12.20059,-0.70448 -22.00329,-5.68528 -16.46506,-8.36599 -34.87489,-21.48096 -50.83436,-36.21387 l -7.13515,-6.5868 -0.3656,-49.23577 c -0.20108,-27.07967 -0.52687,-58.16522 -0.72398,-69.079 l -0.35839,-19.84322 2.82111,0.27107 c 1.68745,0.16214 3.28107,0.68646 3.96571,1.30477 2.2782,2.05746 6.96569,12.89617 10.58677,24.47939 2.64661,8.46604 4.53262,12.16816 7.55368,14.82741 3.03732,2.67355 4.83721,3.21965 15.03432,4.56152 14.9152,1.96273 32.50438,7.51343 44.02306,13.89257 5.07526,2.81072 11.8903,9.75384 14.18994,14.45661 3.25836,6.66339 3.40434,8.13551 3.40356,34.32185 -5.5e-4,24.17875 -0.74695,64.79865 -1.3848,75.38065 -0.35707,5.92385 -0.58646,6.41932 -2.46379,5.32155 z"
     id="path65" />
  <path
     style="fill:#ffccaa;fill-opacity:1;stroke-width:0.545249"
     d="m 482.75963,589.22333 c -0.49024,-0.79871 -1.60695,-80.4566 -1.31312,-93.66867 0.3101,-13.94407 0.61869,-16.02011 3.17855,-21.38381 3.90937,-8.19136 12.07977,-14.31141 27.04563,-20.25857 11.66965,-4.63731 19.57855,-6.73559 30.03085,-7.96737 9.96248,-1.17406 13.22218,-2.13291 16.2191,-4.77091 3.01154,-2.65086 4.98373,-6.4379 7.31589,-14.04808 2.29388,-7.4853 6.68167,-18.60073 8.78766,-22.26148 1.7954,-3.12088 3.92918,-4.45571 7.1226,-4.45571 h 1.7403 l -0.35878,14.58541 c -0.19732,8.02197 -0.52225,39.07259 -0.72205,69.00138 l -0.36327,54.41598 -7.13479,6.5734 c -16.02897,14.76775 -33.93281,27.56251 -50.29133,35.9401 -10.23209,5.2401 -11.12434,5.48 -22.27331,5.98877 -8.40686,0.38363 -13.19097,1.04495 -17.81102,2.46207 -0.49956,0.15323 -1.02737,0.0846 -1.17291,-0.15251 z"
     id="path67" />
  <path
     style="fill:#ffdd55;fill-opacity:1;stroke-width:0.545249"
     d="m 187.91495,635.84654 c -12.78333,-5.63171 -34.63326,-17.59037 -46.97646,-25.71062 -31.38694,-20.64862 -53.449093,-42.6702 -63.101876,-62.9858 -3.213265,-6.76276 -4.310121,-10.73195 -4.76653,-17.24862 -0.405432,-5.78881 0.543991,-15.32039 1.989717,-19.97544 3.439099,-11.07346 15.337345,-22.30499 24.51017,-23.13676 2.597459,-0.23552 3.678129,-0.047 6.108399,1.06561 5.56577,2.54809 6.36049,3.63381 14.62415,19.97883 4.18994,8.28745 9.06727,17.27746 10.83849,19.97779 12.54055,19.11872 46.21068,46.04117 72.58615,58.03947 2.84893,1.29599 5.403,2.55839 5.67572,2.80533 0.28259,0.25587 -1.04549,2.08289 -3.0877,4.24776 -8.19309,8.68509 -12.94259,20.54647 -12.95162,32.34523 -0.004,5.861 -0.54943,12.43388 -1.02915,12.41309 -0.18156,-0.008 -2.17031,-0.82501 -4.41946,-1.81587 z"
     id="path69" />
  <path
     style="fill:#ffdd55;fill-opacity:1;stroke-width:0.545249"
     d="m 259.7483,662.44661 c -1.37469,-1.07101 -2.88713,-2.76429 -3.36097,-3.76283 -1.1764,-2.47908 -1.09433,-7.92687 0.19538,-12.96961 2.47886,-9.69225 7.15658,-14.60079 15.7673,-16.54534 l 3.94203,-0.89022 3.79336,2.5224 c 3.9518,2.62778 4.64347,3.60053 2.56654,3.60954 -2.62285,0.0114 -7.15543,2.77221 -11.05036,6.73085 -5.2476,5.33341 -6.67902,8.44496 -7.65367,16.63725 -0.41503,3.48845 -0.76226,6.40398 -0.77161,6.47895 -0.0633,0.50721 -1.27235,-0.13153 -3.428,-1.81099 z"
     id="path71" />
  <path
     style="fill:#ffdd55;fill-opacity:1;stroke-width:0.545249"
     d="m 269.87163,668.74592 c -3.51322,-1.78682 -3.51662,-1.79735 -2.96544,-9.1956 0.586,-7.86562 1.79471,-10.87167 6.34967,-15.79157 3.46488,-3.74249 6.95927,-5.75023 11.573,-6.64943 4.03239,-0.7859 4.73829,-0.42529 5.62682,2.87445 1.97465,7.33332 -0.89921,20.28428 -5.52838,24.91345 -4.15146,4.15147 -11.0121,5.90526 -15.05567,3.8487 z"
     id="path73" />
  <path
     style="fill:#ffdd55;fill-opacity:1;stroke-width:0.545249"
     d="m 445.46682,668.74076 c -3.7592,-1.4855 -7.46029,-4.84993 -9.16245,-8.32901 -2.66013,-5.4371 -3.75271,-15.14778 -2.37559,-21.11379 l 0.65185,-2.82394 2.75596,0.34408 c 5.41465,0.67602 8.45831,1.98559 11.79532,5.07508 6.08863,5.637 7.7961,9.50727 8.4079,19.05792 l 0.35576,5.55379 -2.23562,1.47946 c -2.96462,1.96189 -6.482,2.22291 -10.19313,0.75641 z"
     id="path75" />
  <path
     style="fill:#ffdd55;fill-opacity:1;stroke-width:0.545249"
     d="m 460.88285,663.16636 c -0.18072,-0.67433 -0.33619,-2.33019 -0.34549,-3.67968 -0.0267,-3.86915 -1.46754,-9.70661 -3.07708,-12.46634 -3.4508,-5.91675 -11.8504,-12.61511 -15.81907,-12.61511 -0.70182,0 -1.27604,-0.21926 -1.27604,-0.48725 0,-0.71976 7.20696,-5.51322 8.2869,-5.51175 0.50932,6.9e-4 2.87899,0.6182 5.26594,1.37223 8.37369,2.64525 13.21485,9.24714 14.75479,20.12113 0.91291,6.44628 -0.80337,10.7661 -5.27095,13.26677 l -2.19042,1.22607 z"
     id="path77" />
  <path
     style="fill:#ffdd55;fill-opacity:1;stroke-width:0.545249"
     d="m 531.40386,635.08679 c -0.0592,-8.58492 -1.08143,-19.22093 -2.18779,-22.76414 -2.36495,-7.57389 -6.34522,-14.3449 -11.61541,-19.75949 -2.07359,-2.13039 -3.11553,-3.58909 -2.78754,-3.90249 0.28808,-0.27525 2.11862,-1.16515 4.06789,-1.97755 20.15344,-8.39939 48.47151,-29.19219 65.87505,-48.36932 7.54949,-8.31887 12.22804,-15.72676 19.9513,-31.59034 7.27476,-14.94234 7.97112,-15.90806 13.40894,-18.59546 6.19801,-3.06309 14.09189,-0.45993 21.71412,7.16065 8.72759,8.72569 11.99762,18.12536 11.4083,32.79305 -0.31152,7.75372 -1.82615,13.23223 -5.90957,21.37534 -4.98767,9.94635 -10.11228,16.61648 -21.48891,27.96968 -15.12851,15.09736 -35.2516,30.41231 -54.25109,41.28854 -10.74986,6.15373 -36.36283,18.96146 -37.91925,18.96146 -0.13649,0 -0.25621,-1.16547 -0.26604,-2.58993 z"
     id="path79" />
  <path
     style="fill:#ffdd55;fill-opacity:1;stroke-width:0.545249"
     d="m 336.55254,706.64179 c -3.86704,-0.6976 -7.43488,-1.37398 -7.92854,-1.50308 -0.97083,-0.25388 -48.89944,-30.62572 -50.11853,-31.75957 -0.60723,-0.56478 -0.045,-1.0515 3.15958,-2.73548 6.13701,-3.22491 9.46596,-7.71595 11.21132,-15.12497 1.46964,-6.23864 1.56945,-11.04382 0.36495,-17.56934 -0.60889,-3.29876 -1.25317,-8.98999 -1.43173,-12.64719 -0.48932,-10.02178 -1.86216,-12.99043 -7.36327,-15.92249 -1.81711,-0.96851 -11.19258,-5.29103 -20.83436,-9.60559 -9.64179,-4.31456 -17.73272,-8.16342 -17.97985,-8.55302 -0.59488,-0.93782 -0.58786,-3.41607 0.15111,-53.32488 0.83637,-56.48636 0.53401,-60.13032 -5.71593,-68.88883 -5.3786,-7.53742 -11.25578,-11.64629 -24.34465,-17.01985 -13.95429,-5.72886 -22.39563,-7.95414 -36.11406,-9.52033 -6.59686,-0.75314 -8.22756,-1.21457 -10.54857,-2.98489 -2.7,-2.05939 -4.17964,-4.97097 -7.62177,-14.99787 -5.21681,-15.19652 -8.32485,-22.1447 -11.07264,-24.75345 -1.35019,-1.28189 -2.31244,-1.64234 -5.0944,-1.90838 l -3.42978,-0.32798 0.13836,-28.08032 c 0.0761,-15.44418 0.24738,-28.3739 0.38063,-28.73271 0.1737,-0.46776 1.60054,-0.21057 5.0415,0.90872 33.98042,11.05335 45.45553,14.96634 46.13666,15.73253 0.44682,0.50262 1.48159,2.87675 2.2995,5.27585 2.87929,8.44554 5.7235,12.65817 12.02463,17.80996 7.1903,5.87876 16.58722,10.561 27.60018,13.75243 7.24606,2.09982 14.50644,2.50349 51.68736,2.87373 l 34.6233,0.34476 5.45249,1.86609 c 7.21518,2.46936 16.59672,6.59561 18.13566,7.97655 2.57789,2.31323 2.5838,2.44002 2.5838,55.42964 0,55.8233 -1.2284,226.95289 -1.70939,238.13745 -0.36348,8.45185 0.80634,7.74485 -9.68356,5.85251 z"
     id="path83" />
  <path
     style="fill:#ffdd55;fill-opacity:1;stroke-width:0.545249"
     d="m 377.64149,672.49702 c -0.011,-19.601 -0.24526,-56.86198 -0.52052,-82.8022 -0.27525,-25.94021 -0.67359,-76.3621 -0.88521,-112.04864 -0.38373,-64.71436 -0.3818,-64.89126 0.73673,-67.41631 0.93743,-2.11623 1.68997,-2.84794 4.5857,-4.4588 3.63871,-2.02416 9.24782,-4.36571 16.55019,-6.90896 l 4.362,-1.51919 38.44004,-0.28144 38.44005,-0.28145 7.08823,-1.99825 c 14.27847,-4.02526 22.62135,-8.07087 30.491,-14.78563 5.57041,-4.75293 8.52874,-8.87779 10.60572,-14.78776 3.17685,-9.03958 2.02384,-8.07899 14.79129,-12.32293 8.87965,-2.95163 32.53806,-10.57704 39.12645,-12.61095 l 1.23164,-0.38023 -0.14114,28.80016 -0.14116,28.80016 -3.28289,0.31451 c -4.05788,0.38877 -5.69713,1.42454 -7.49891,4.73825 -1.99636,3.67155 -6.70489,15.60567 -9.22768,23.38823 -2.52789,7.79832 -4.78501,11.82709 -7.81595,13.95083 -1.93822,1.3581 -3.19795,1.66686 -10.63235,2.60598 -4.63849,0.58594 -9.78311,1.32849 -11.43249,1.6501 -7.97715,1.55549 -25.01086,7.7622 -34.07805,12.41729 -6.31506,3.24215 -13.1593,9.89235 -16.26646,15.80527 -3.96417,7.54384 -3.94149,7.24054 -3.63688,48.6284 0.14898,20.24237 0.27166,44.4072 0.27263,53.69962 l 0.002,16.89532 -9.00965,4.09677 c -4.95531,2.25321 -13.86499,6.27844 -19.7993,8.94496 -5.93431,2.66651 -11.57177,5.36584 -12.52768,5.99852 -3.25542,2.15462 -4.15807,5.05007 -5.02142,16.10734 -0.42521,5.44564 -0.90216,10.10999 -1.0599,10.36522 -0.90428,1.46317 -1.38203,8.99937 -0.84465,13.32388 1.32017,10.62382 4.63581,16.22866 11.91373,20.13923 3.28416,1.76464 3.86932,2.27311 3.27149,2.84275 -0.40042,0.38154 -11.70824,7.69179 -25.12846,16.24498 l -24.40042,15.55126 -7.49664,1.14509 c -4.12304,0.62979 -8.29396,1.28947 -9.26859,1.46594 l -1.77206,0.32085 z"
     id="path85" />
  <path
     style="fill:#010101;fill-opacity:1;stroke-width:0.272624"
     d="m 290.24457,97.706289 c 0.007,-0.262401 0.59566,-3.360096 1.30765,-6.883767 l 1.29454,-6.406674 68.43693,-0.06869 68.43693,-0.06869 1.72463,6.611676 c 0.94855,3.636422 1.78038,6.765027 1.8485,6.952457 0.0989,0.272073 -14.31045,0.34078 -71.46922,0.34078 -68.00714,0 -71.59243,-0.0239 -71.57996,-0.477093 z"
     id="path87" />
  <path
     style="fill:#ffe6d5;fill-opacity:1;stroke:#fff6d5;stroke-width:0.381507"
     d="m 349.5477,672.4645 c 0.35796,-31.41876 1.27681,-136.14835 1.7531,-199.81763 0.40678,-54.37723 0.39227,-59.30944 -0.18033,-61.27912 -1.07044,-3.68217 -2.65176,-5.57866 -6.79693,-8.15162 l -3.68776,-2.28904 10.86818,-0.10127 c 5.97749,-0.0557 15.69717,-0.0557 21.59929,0 l 10.73111,0.10127 -3.10994,1.80668 c -5.11034,2.96878 -6.89108,5.23368 -7.72332,9.82321 -0.48763,2.68909 -0.19897,52.02356 1.14961,196.48203 0.41234,44.16894 0.75131,80.86512 0.75326,81.54706 l 0.004,1.2399 h -12.79021 -12.79021 z"
     id="path32" />
</svg>
