<?xml version="1.0" encoding="UTF-8" standalone="no"?>
<svg
   xmlns:dc="http://purl.org/dc/elements/1.1/"
   xmlns:cc="http://creativecommons.org/ns#"
   xmlns:rdf="http://www.w3.org/1999/02/22-rdf-syntax-ns#"
   xmlns:svg="http://www.w3.org/2000/svg"
   xmlns="http://www.w3.org/2000/svg"
   xmlns:sodipodi="http://sodipodi.sourceforge.net/DTD/sodipodi-0.dtd"
   xmlns:inkscape="http://www.inkscape.org/namespaces/inkscape"
   version="1.1"
   width=""
   height=""
   id="svg2"
   viewBox="0 0 725.66931 725.66931"
   sodipodi:docname="aegis.svg"
   inkscape:version="1.0.2-2 (e86c870879, 2021-01-15)">
  <metadata
     id="metadata8">
    <rdf:RDF>
      <cc:Work
         rdf:about="">
        <dc:format>image/svg+xml</dc:format>
        <dc:type
           rdf:resource="http://purl.org/dc/dcmitype/StillImage" />
        <dc:title />
      </cc:Work>
    </rdf:RDF>
  </metadata>
  <defs
     id="defs6" />
  <sodipodi:namedview
     pagecolor="#ffffff"
     bordercolor="#666666"
     borderopacity="1"
     objecttolerance="10"
     gridtolerance="10"
     guidetolerance="10"
     inkscape:pageopacity="0"
     inkscape:pageshadow="2"
     inkscape:window-width="1920"
     inkscape:window-height="1017"
     id="namedview4"
     showgrid="false"
     inkscape:zoom="0.90739764"
     inkscape:cx="527.45847"
     inkscape:cy="264.09085"
     inkscape:window-x="-8"
     inkscape:window-y="-8"
     inkscape:window-maximized="1"
     inkscape:current-layer="svg2"
     inkscape:measure-start="878.402,489.209"
     inkscape:measure-end="158.721,719.681"
     showguides="false"
     inkscape:document-rotation="0" />
  <path
     style="fill:#000000;stroke-width:0.872479"
     d="m 357.95696,700.29434 c -0.45587,-0.44065 -12.80362,-6.96809 -27.43945,-14.50542 -55.47169,-28.56743 -86.76368,-45.84008 -112.11354,-61.88478 -20.86528,-13.20627 -73.69469,-48.86157 -77.36993,-52.21805 -0.80535,-0.73549 -6.10567,-4.9537 -11.77847,-9.37378 -12.61016,-9.82548 -11.69848,-9.00104 -11.96552,-10.82049 -0.1549,-1.05542 -7.4295,-4.84973 -24.150821,-12.59667 -20.997329,-9.72802 -23.982594,-11.35713 -24.365394,-13.29666 -0.265826,-1.34694 -3.193313,-4.66931 -7.49443,-8.50538 l -7.058196,-6.29505 -0.574467,-26.78019 C 53.330788,469.28876 53.071594,441.59573 53.07075,422.47779 l -0.0012,-34.7599 8.288544,-10.81531 8.288544,-10.8153 v -5.51781 -5.51782 l 25.175856,-18.02105 25.175856,-18.02107 0.61739,-25.11365 c 0.64204,-26.1162 1.80238,-37.96641 4.90906,-50.13407 10.84398,-42.47161 47.89342,-100.91953 89.49668,-141.18682 10.56673,-10.227419 17.30197,-15.622708 31.35384,-25.116148 8.90589,-6.016834 12.96945,-7.926516 21.76027,-10.226347 3.35904,-0.878775 6.22638,-1.682894 6.37186,-1.786918 0.25579,-0.182898 8.86,-46.397016 8.88442,-47.719165 0.0174,-0.943137 147.25605,-0.819415 147.83924,0.124243 0.26466,0.428215 2.83127,11.085712 5.70358,23.68331 2.87231,12.59761 5.3291,22.985549 5.45952,23.084317 0.13044,0.09878 4.22807,1.446714 9.10585,2.995443 7.1934,2.283956 10.73836,4.080291 18.76626,9.50943 14.56244,9.848329 20.08218,14.295096 31.58292,25.443565 24.31224,23.56756 48.6869,55.70341 66.51364,87.69241 11.91853,21.38705 19.76349,41.1467 23.48756,59.15965 2.14723,10.38603 3.38581,29.48468 4.13145,63.70617 l 0.20574,9.44356 27.04685,16.41719 27.04685,16.41719 0.20851,4.67601 c 0.59616,13.36917 0.417,12.94959 9.78221,22.90969 l 8.56036,9.10415 -0.35397,53.51197 c -0.19468,29.43157 -0.47305,55.55186 -0.6186,58.04507 -0.25058,4.29225 -0.62027,4.92482 -6.95849,11.90624 -3.68163,4.05525 -6.69387,8.15096 -6.69387,9.10162 0,0.95065 -0.49077,2.12836 -1.09059,2.61714 -0.59984,0.48879 -13.7285,7.43325 -29.17483,15.43216 -22.40633,11.60317 -28.13909,14.92195 -28.35556,16.41553 -0.26625,1.83692 -8.68367,8.63316 -28.33746,22.8797 -52.77202,38.25308 -63.21351,44.92283 -103.67819,66.2268 -19.09033,10.05074 -103.68986,52.86657 -104.45873,52.86657 -0.17929,0 -0.69896,-0.36054 -1.15484,-0.8012 z m -0.58879,-133.77868 c -0.11702,-71.13974 -0.41523,-147.28978 -0.66266,-169.22231 l -0.44988,-39.87732 -8.54401,9.98621 c -16.63841,19.4469 -32.12831,30.19811 -50.12815,34.79284 -6.41444,1.63738 -22.55379,3.12329 -33.96559,3.12712 -28.90737,0.009 -54.92452,-9.98162 -72.83951,-27.97242 -7.23956,-7.2702 -11.89163,-15.41716 -15.67932,-27.45851 l -1.93102,-6.13886 -13.04887,-3.70861 c -7.17687,-2.03975 -13.13531,-3.59604 -13.24096,-3.45843 -0.49521,0.64505 -3.17471,231.89248 -2.69594,232.66714 1.18438,1.91636 55.47168,38.68109 79.02034,53.51456 16.07087,10.12316 38.50514,22.81901 67.61711,38.26544 17.87914,9.48644 62.32757,32.68003 66.53483,34.71845 0.12452,0.0604 0.13065,-58.09554 0.0136,-129.2353 z m 51.15676,105.90448 c 47.55914,-24.06718 75.59851,-38.80807 88.63603,-46.59783 15.29677,-9.13962 38.0358,-24.73807 63.47284,-43.5409 l 11.56035,-8.5453 V 454.57269 c 0,-113.07604 -0.078,-119.14078 -1.52684,-118.7205 -0.83976,0.2436 -6.43862,1.87954 -12.44192,3.63544 l -10.91508,3.1925 -2.14487,7.11124 c -2.78554,9.23533 -7.58213,19.05219 -12.07398,24.71102 -12.99326,16.36891 -48.45276,28.52429 -86.53426,29.66361 -13.29516,0.39776 -15.03459,0.26524 -22.7487,-1.73321 -16.35089,-4.23592 -26.75616,-9.69942 -40.4477,-21.23787 -5.43149,-4.57734 -8.8394,-8.20779 -19.95925,-21.26259 l -3.32384,-3.9022 0.48828,12.13452 c 0.26855,6.674 0.48827,83.13587 0.48827,169.91527 0,86.77942 0.25872,157.78075 0.57493,157.78075 0.31621,0 21.41929,-10.54824 46.89574,-23.44053 z m 176.59336,-107.86755 7.08535,-5.23487 0.0288,-114.88753 0.0288,-114.88751 -5.88923,1.71713 c -3.23908,0.94442 -6.96893,1.94732 -8.28856,2.22866 l -2.39937,0.51156 v 118.59142 c 0,99.15165 0.19251,118.47706 1.17443,117.89372 0.64593,-0.38374 4.36283,-3.0534 8.25979,-5.93258 z M 141.6182,453.31152 c 0.72909,-53.0249 1.32295,-101.31661 1.31967,-107.31491 l -0.006,-10.90598 -9.59594,-2.71167 c -5.27776,-1.49143 -9.61265,-2.66928 -9.63308,-2.61744 -0.16276,0.41301 -2.53079,189.18878 -2.55241,203.47524 l -0.028,18.41546 9.37915,7.11512 9.37914,7.11512 0.20585,-8.08101 c 0.11333,-4.44454 0.80254,-51.46502 1.53165,-104.48993 z m 482.04041,85.57603 26.59882,-13.82586 -0.25278,-16.46244 c -0.65519,-42.66929 -2.79881,-150.69937 -2.99405,-150.88744 -0.34687,-0.33416 -42.51155,-25.98786 -47.09645,-28.65427 l -4.12546,-2.39923 -0.0278,113.0579 c -0.0153,62.18185 0.27072,113.04426 0.63555,113.02756 0.36486,-0.0166 12.63284,-6.25198 27.26219,-13.85622 z M 117.67292,523.32796 c 0.0222,-12.35648 0.56698,-62.31681 1.21079,-111.02295 0.64379,-48.70613 1.11644,-88.61606 1.05033,-88.68871 -0.0661,-0.0727 -10.62241,7.38704 -23.458459,16.5771 l -23.338266,16.70921 -0.0023,24.42941 c -0.0012,13.43617 -0.255255,51.32357 -0.563746,84.19421 l -0.560903,59.76481 22.157065,10.23772 c 12.186379,5.63074 22.451519,10.24397 22.811409,10.25162 0.3599,0.008 0.67247,-10.09594 0.69462,-22.45242 z M 69.116338,373.18793 c -0.109408,-0.16047 -3.039426,3.48721 -6.511099,8.10597 l -6.312143,8.39774 0.594534,59.51115 0.594535,59.51115 5.427718,4.93645 5.427718,4.93644 0.488858,-72.55357 c 0.268864,-39.90446 0.39931,-72.68485 0.289879,-72.84533 z M 664.11012,495.31732 c 0.29774,-6.54791 0.62304,-32.19842 0.7229,-57.00115 l 0.18157,-45.09588 -6.49431,-6.88076 c -3.57187,-3.78442 -6.6375,-6.77414 -6.81252,-6.64383 -0.48353,0.36005 1.65979,131.18849 2.20656,134.68935 l 0.47694,3.05368 4.58876,-5.10808 4.58877,-5.10806 z M 280.44138,400.92578 c 6.18795,-0.5002 13.55548,-1.5047 16.37228,-2.23221 5.67243,-1.46505 14.5062,-4.88448 14.5081,-5.61589 6.6e-4,-0.25797 -1.86371,-2.29224 -4.14306,-4.52061 -5.73949,-5.61107 -15.80717,-10.34785 -33.03923,-15.54471 -25.27967,-7.62388 -96.47697,-28.00785 -96.77725,-27.70757 -0.61409,0.61409 6.53169,17.47892 9.10534,21.48961 8.38455,13.0662 28.71591,26.33527 47.75288,31.16543 15.24854,3.86897 26.28741,4.57732 46.22094,2.96595 z m 190.54523,-2.61181 c 25.94071,-4.48471 45.53625,-12.40598 55.88772,-22.59193 3.66963,-3.61096 6.88549,-7.83093 8.69003,-11.40337 3.54737,-7.02271 8.01263,-19.54684 7.08464,-19.87095 -0.3782,-0.13207 -21.85911,6.02058 -47.73536,13.6726 -75.2999,22.26737 -78.7753,23.50078 -84.65981,30.04579 l -3.95214,4.39572 2.04343,1.07066 c 3.27826,1.71766 12.87701,4.79205 19.01754,6.09115 8.03294,1.69947 29.68743,0.99972 43.62395,-1.40967 z m -154.15329,-7.94636 c 3.8916,-2.03781 16.03464,-12.05665 21.13356,-17.43666 6.65473,-7.0216 17.28563,-19.77535 18.63303,-22.35382 0.56421,-1.07969 1.50279,-1.96066 2.08573,-1.95772 0.58295,0.002 3.4156,3.22988 6.29478,7.17093 7.30186,9.99488 22.17712,24.73268 30.85491,30.56977 l 7.298,4.90899 3.39899,-4.30003 c 1.86943,-2.36503 4.27826,-4.87421 5.35294,-5.57598 3.02406,-1.97471 16.3662,-6.92878 30.30954,-11.25423 10.14008,-3.14562 124.90191,-37.07702 145.04961,-42.88652 l 5.01676,-1.44657 -0.0297,-13.67962 c -0.0545,-25.15058 -1.50482,-50.58221 -3.45796,-60.63657 -5.73363,-29.51591 -24.26157,-66.20658 -52.94903,-104.8544 -22.20384,-29.91308 -47.61717,-54.524448 -71.81773,-69.551398 -5.46462,-3.393159 -19.74174,-9.151573 -20.58909,-8.304222 -0.13639,0.136396 2.07816,10.446329 4.92125,22.910951 2.8431,12.464619 5.17575,22.957409 5.18368,23.317309 0.008,0.35989 -0.74437,0.65436 -1.67175,0.65436 -1.9067,0 -1.7164,0.52359 -4.87419,-13.41101 -1.94302,-8.574183 -2.9595,-11.249709 -5.90413,-15.540602 -1.95637,-2.850798 -4.31997,-5.591587 -5.25245,-6.090635 -4.329,-2.316813 -140.91133,-3.132601 -152.84913,-0.912949 -3.2115,0.597133 -3.71242,1.09424 -6.35344,6.30513 -2.09298,4.129611 -3.51302,9.070354 -5.25968,18.299976 -1.91307,10.10905 -2.69439,12.70121 -3.8982,12.93305 -2.12977,0.41015 -2.03639,-0.55206 2.42059,-24.942938 2.15937,-11.817302 3.92614,-21.807445 3.92614,-22.20032 0,-0.85657 -2.79778,-0.224823 -10.69801,2.415616 -8.85563,2.959767 -26.99003,15.485089 -42.71863,29.505512 -3.22659,2.87618 -10.46612,10.29522 -16.08782,16.48676 -36.44551,40.13979 -64.89436,87.5192 -74.92178,124.77658 -3.61246,13.42228 -4.71308,25.70629 -4.96883,55.45745 l -0.23505,27.34413 49.73129,14.20958 c 111.87886,31.9668 121.47395,35.00483 130.78079,41.4081 2.17281,1.49492 5.24155,4.27289 6.81943,6.17325 3.30181,3.9766 2.86977,3.7747 5.32555,2.48875 z M 283.41194,115.50802 c 0.008,-1.84827 3.6448,-22.698614 4.82896,-27.681792 l 0.4985,-2.097824 69.84118,0.489794 c 38.57154,0.270504 70.18673,0.835347 70.61297,1.261588 1.42019,1.4202 6.06638,27.615294 5.07162,28.593604 -1.29764,1.27614 -3.06874,-1.40054 -3.75137,-5.66946 l -0.55597,-3.47679 -70.85904,0.22324 -70.85904,0.22325 -0.90835,4.78999 c -0.6425,3.38802 -1.35022,4.87507 -2.41806,5.08072 -1.08315,0.2086 -1.50735,-0.28198 -1.5014,-1.73632 z m 145.65761,-13.15115 c -0.0209,-0.59983 -0.52722,-3.446292 -1.12504,-6.325465 l -1.08699,-5.234873 -27.88487,-0.535983 C 383.63596,89.96576 353.16109,89.671294 331.25069,89.606181 l -39.83708,-0.118373 -1.05315,6.325475 c -0.57922,3.479009 -1.22679,6.619927 -1.43903,6.979827 -0.21224,0.3599 31.24282,0.65436 69.90015,0.65436 55.66748,0 70.27811,-0.22682 70.24797,-1.0906 z m 6.28389,-51.694369 -6.76413,-29.664284 h -71.04993 -71.04995 l -3.72435,20.503249 c -2.04839,11.27679 -4.45987,24.549413 -5.35882,29.494708 l -1.63448,8.991446 2.0406,-1.917053 c 1.88696,-1.772708 3.34034,-1.979821 19.30243,-2.750598 18.90983,-0.913146 126.60347,-0.161524 134.85773,0.941186 3.76172,0.502536 5.64811,1.276098 7.41112,3.039113 1.30075,1.30073 2.44799,2.063824 2.54945,1.695742 0.10144,-0.368082 -2.85939,-14.018157 -6.57967,-30.333509 z"
     id="path42" />
  <path
     style="fill:#ff5555;fill-opacity:1;stroke-width:0.389634"
     d="m 255.03813,401.54728 c -20.798,-1.41909 -40.87069,-9.13086 -56.37055,-21.65715 -7.1957,-5.81524 -11.82588,-11.51286 -15.16805,-18.66492 -2.15344,-4.60823 -5.45146,-12.59099 -5.95437,-14.41236 -0.32994,-1.19498 -0.28801,-1.34407 0.37805,-1.34407 1.55645,0 64.10294,17.82056 92.4719,26.34682 22.3514,6.71769 31.22094,10.92499 38.36926,18.20062 1.60912,1.63777 2.40949,2.74167 2.26356,3.12196 -0.29672,0.77323 -2.84898,1.89598 -9.03885,3.9762 -7.44531,2.50214 -15.35824,3.66244 -30.39149,4.4564 -8.14224,0.43003 -9.95017,0.42746 -16.55946,-0.0235 z"
     id="path46" />
  <path
     style="fill:#ff5555;fill-opacity:1;stroke-width:0.389634"
     d="m 431.34772,400.35741 c -5.63844,-0.53728 -18.02017,-4.15245 -23.18407,-6.76919 l -1.9959,-1.0114 2.84912,-3.16395 c 3.49186,-3.87771 4.98129,-5.0024 9.47291,-7.15313 7.24209,-3.46775 19.66829,-7.43184 69.93939,-22.3114 39.53623,-11.70219 53.83049,-15.73789 54.25407,-15.31757 0.68172,0.67647 -3.15764,11.60722 -6.4935,18.48714 -7.36747,15.19477 -23.99974,25.68311 -51.3743,32.39672 -17.3415,4.253 -39.03596,6.21795 -53.46772,4.84278 z"
     id="path48" />
  <path
     style="fill:#ffccaa;fill-opacity:1;stroke-width:0.551026"
     d="m 439.15563,79.351407 c -1.51391,-1.267906 -3.34449,-2.174234 -5.19154,-2.570356 -6.60752,-1.417059 -119.07279,-2.322558 -140.42056,-1.130579 -12.18251,0.680231 -13.4458,0.892238 -15.47113,2.596447 -0.91148,0.766957 -1.79708,1.254621 -1.968,1.083698 -0.25974,-0.259737 9.25628,-54.321501 10.08125,-57.272924 0.25595,-0.915679 4.0029,-0.959031 71.43916,-0.82654 l 71.16905,0.139825 0.96975,4.132697 c 4.45331,18.978471 12.03003,53.818726 11.89656,54.704347 -0.15077,1.000322 -0.38156,0.921382 -2.50454,-0.856615 z"
     id="path50" />
  <path
     style="fill:#ffccaa;fill-opacity:1;stroke-width:0.551026"
     d="m 62.557188,513.38048 -5.341055,-5.08589 -0.309948,-42.98006 C 56.735713,441.6755 56.451894,415.0196 56.275476,406.0792 l -0.320761,-16.25528 6.454331,-8.42569 c 3.549882,-4.63413 6.571155,-8.30887 6.71394,-8.16608 0.386794,0.38679 -0.501699,145.25825 -0.890787,145.24533 -0.183676,-0.006 -2.73743,-2.29975 -5.675011,-5.097 z"
     id="path52" />
  <path
     style="fill:#ffccaa;fill-opacity:1;stroke-width:0.551026"
     d="m 101.51085,538.97922 c -8.485805,-3.87976 -18.626381,-8.52758 -22.534612,-10.32847 l -7.105875,-3.27435 0.3538,-39.12287 c 0.194591,-21.51757 0.517087,-59.48814 0.716658,-84.37904 l 0.362857,-45.25617 23.195521,-16.54346 23.195521,-16.54345 0.16992,4.7684 c 0.0935,2.62262 -0.21261,35.26771 -0.68014,72.54464 -0.46753,37.27693 -1.00875,83.76978 -1.20272,103.31744 -0.19396,19.54766 -0.5078,36.9655 -0.69743,38.70632 l -0.34476,3.16513 z"
     id="path54" />
  <path
     style="fill:#ffccaa;fill-opacity:1;stroke-width:0.551026"
     d="m 595.87211,524.96313 c -0.20072,-15.22899 -0.36522,-66.08769 -0.36555,-113.01935 -4.9e-4,-70.44417 0.12627,-85.2816 0.72664,-85.05121 0.86177,0.33069 22.82467,13.53965 39.35993,23.6719 l 11.70931,7.17508 10e-4,3.36858 c 8.3e-4,1.85272 0.24735,14.15492 0.54788,27.33823 0.55314,24.2642 2.02159,103.40099 2.31926,124.98787 l 0.16205,11.75195 -26.44926,13.71658 c -14.54707,7.54412 -26.71868,13.72397 -27.04799,13.73302 -0.41855,0.0115 -0.70858,-8.31685 -0.9637,-27.67265 z"
     id="path56" />
  <path
     style="fill:#ffccaa;fill-opacity:1;stroke-width:0.551026"
     d="m 653.67786,512.28953 c -0.51652,-7.7491 -1.38463,-55.30669 -1.75769,-96.29185 l -0.33355,-36.64326 6.70213,6.64293 6.70213,6.64293 -0.0411,40.01279 c -0.0226,22.00704 -0.28116,47.74322 -0.57457,57.19153 -0.52709,16.97281 -0.54938,17.19761 -1.85885,18.75383 -3.27811,3.89582 -7.8075,8.78751 -8.13693,8.78778 -0.19901,1.7e-4 -0.51473,-2.29333 -0.70159,-5.09668 z"
     id="path60" />
  <path
     style="fill:#ffccaa;fill-opacity:1;stroke-width:0.551026"
     d="m 576.03301,563.28326 c -0.19774,-3.87716 -0.36053,-57.06613 -0.36176,-118.19771 l -0.002,-111.14832 2.34186,-0.59533 c 2.40142,-0.61048 11.49682,-3.1116 13.22463,-3.63661 0.91626,-0.27842 0.96374,5.43901 0.9532,114.77086 l -0.0111,115.06389 -7.15676,5.23475 c -3.93621,2.87911 -7.48785,5.30744 -7.89253,5.3963 -0.56965,0.12508 -0.81697,-1.43019 -1.09531,-6.88783 z"
     id="path62" />
  <path
     style="fill:#ffccaa;fill-opacity:1;stroke-width:0.551026"
     d="m 130.30413,558.79026 -9.22753,-6.96459 0.006,-17.90836 c 0.003,-9.84959 0.36445,-45.80406 0.80293,-79.89882 0.43848,-34.09475 0.96289,-75.75234 1.16536,-92.57242 0.20247,-16.82008 0.52207,-30.85996 0.71023,-31.19974 0.23586,-0.42592 3.21121,0.18992 9.58022,1.98292 5.08095,1.43039 9.39342,2.75603 9.58326,2.94587 0.54905,0.54905 -2.38948,224.09053 -2.99745,228.02335 l -0.39518,2.55639 z"
     id="path64" />
  <path
     style="fill:#ffccaa;fill-opacity:1;stroke-width:0.389634"
     d="m 310.80221,387.35586 c -10.53911,-10.88732 -9.54895,-10.55262 -149.9981,-50.70273 -19.92365,-5.69556 -36.35493,-10.48567 -36.51395,-10.64469 -0.39774,-0.39774 0.32889,-48.33357 0.84585,-55.80162 1.56259,-22.57307 6.59535,-39.69636 19.12462,-65.06896 14.74624,-29.8621 35.67127,-59.99087 60.75169,-87.47293 15.80777,-17.32149 34.76584,-32.933614 50.77465,-41.81334 4.3908,-2.435478 13.53668,-5.768592 16.44143,-5.991891 l 1.55854,-0.119811 -0.12985,1.363721 c -0.0714,0.750046 -1.60859,9.604489 -3.41594,19.67654 -4.5289,25.238851 -4.70351,26.932711 -2.69696,26.162721 1.02902,-0.39487 1.65745,-2.47251 3.51502,-11.62087 2.23542,-11.009334 3.3228,-14.813413 5.52369,-19.324 2.20869,-4.526601 3.3878,-5.748805 6.07118,-6.293109 4.27499,-0.867147 22.51735,-1.22479 62.10611,-1.217594 49.08004,0.0089 84.12412,0.716925 90.04665,1.819232 2.12473,0.395456 6.77013,6.15007 9.08383,11.252835 1.05592,2.328781 2.7746,8.653346 4.65882,17.143966 0.47557,2.14299 1.12491,4.55386 1.44298,5.35748 0.50959,1.28751 0.73532,1.46113 1.89972,1.46113 1.07577,0 1.32142,-0.14966 1.32142,-0.80506 0,-0.44278 -0.86891,-4.69467 -1.93091,-9.44863 -1.062,-4.75397 -3.15541,-14.123634 -4.65201,-20.821474 -1.49661,-6.697839 -2.84324,-12.992305 -2.99251,-13.987702 l -0.27139,-1.809812 1.65357,0.264417 c 4.40576,0.704509 16.06536,6.123033 22.9756,10.677364 12.68025,8.357175 24.30674,18.160404 37.82936,31.896947 14.19341,14.41799 25.72788,28.48095 38.74639,47.24015 21.95563,31.63724 36.67337,61.3566 42.85729,86.54127 3.09666,12.61151 4.34669,28.69168 4.75943,61.22542 0.23841,18.79129 0.22435,19.34526 -0.49686,19.56327 -0.40819,0.1234 -8.80761,2.58461 -18.66537,5.46936 -32.45709,9.49816 -84.93068,25.00922 -115.52661,34.14938 -23.69585,7.07884 -38.18839,12.00825 -43.86216,14.91903 -2.00075,1.02642 -5.34451,4.25803 -8.54113,8.25464 -1.02843,1.2858 -2.05496,2.28217 -2.28119,2.21417 -0.71918,-0.21616 -8.9197,-5.93095 -11.61072,-8.0913 -8.12649,-6.52392 -18.74576,-17.42274 -25.59143,-26.26512 -4.9092,-6.34108 -6.23698,-7.79528 -7.11759,-7.79528 -0.46364,0 -1.35609,0.94959 -2.47177,2.63003 -3.95302,5.95409 -17.23887,21.07447 -23.1061,26.29664 -7.28163,6.48106 -15.14123,12.42157 -17.63449,13.32866 -0.38347,0.13951 -1.92437,-1.17155 -4.4808,-3.81245 z M 285.83172,116.33865 c 0.37408,-0.41335 1.03975,-2.54188 1.50333,-4.80701 l 0.83199,-4.06517 30.02004,-0.25797 c 16.51102,-0.14188 48.43991,-0.25809 70.95309,-0.25824 l 40.93305,-2.8e-4 0.48312,2.87523 c 0.54986,3.27239 1.87687,6.22121 2.88332,6.40716 0.58829,0.10869 0.68186,-0.19833 0.68186,-2.23734 0,-4.44106 -3.9297,-25.157445 -4.96934,-26.197082 -0.63263,-0.632634 -22.37479,-1.035065 -83.0279,-1.536787 -45.21293,-0.374 -57.08283,-0.372115 -57.31844,0.0091 -0.36078,0.583768 -2.31305,10.605808 -3.87655,19.900449 -1.56152,9.28288 -1.63426,10.90977 -0.48779,10.90977 0.39538,0 1.02098,-0.33383 1.39022,-0.74183 z"
     id="path70" />
  <path
     style="fill:#ffdd55;fill-opacity:1;stroke-width:0.389634"
     d="m 335.94284,684.75808 c -68.76997,-35.75775 -93.9313,-49.73441 -120.9815,-67.203 -19.44662,-12.55831 -55.0791,-36.61899 -66.30006,-44.76882 -3.31837,-2.41014 -4.27349,-3.31275 -4.46555,-4.22004 -0.13436,-0.63478 -0.1753,-7.8169 -0.091,-15.96026 0.0843,-8.14336 0.33093,-33.56701 0.54799,-56.497 0.87485,-92.41919 1.86985,-159.0839 2.3791,-159.39864 0.52592,-0.32504 25.51265,6.52231 26.05986,7.14143 0.14572,0.16488 1.29068,3.36815 2.54436,7.11838 3.92375,11.73751 7.74478,18.37382 14.76422,25.64229 14.07579,14.57515 33.1286,23.9204 55.76813,27.35382 10.7215,1.62598 27.73483,1.45632 42.58152,-0.42465 9.39389,-1.19013 15.3964,-2.96906 23.68278,-7.01874 12.81799,-6.26433 23.72004,-15.63316 38.66001,-33.223 l 4.91628,-5.78828 0.25814,2.47639 c 0.52928,5.07753 1.14852,149.86355 1.0317,241.22634 l -0.12093,94.58521 z"
     id="path72" />
  <path
     style="fill:#ffdd55;fill-opacity:1;stroke-width:0.389634"
     d="m 361.47189,694.72513 c -0.14922,-0.58932 -0.44414,-75.15074 -0.65539,-165.69205 -0.21124,-90.54131 -0.46764,-166.54925 -0.56977,-168.90654 l -0.1857,-4.28598 1.28588,1.55365 c 4.26577,5.15404 12.22599,14.16299 15.26849,17.28005 8.74971,8.9641 19.08442,16.50598 29.17666,21.29201 7.84555,3.72059 19.63996,7.25495 26.8151,8.03552 4.53966,0.49386 21.3691,-0.0942 29.57724,-1.03355 19.50788,-2.23244 36.60253,-6.84804 50.45767,-13.6237 18.49216,-9.04333 25.99029,-18.69619 33.59163,-43.24484 l 1.08583,-3.50671 11.80466,-3.45603 c 6.49256,-1.90082 11.90644,-3.35424 12.03085,-3.22984 0.75459,0.7546 0.93072,19.65511 1.14612,122.99175 l 0.23918,114.74735 -10.76263,7.90647 c -28.76508,21.13146 -51.31265,36.53665 -66.66919,45.55043 -15.03257,8.82362 -49.92002,26.9869 -103.51434,53.89215 -16.21608,8.14075 -29.56641,14.80136 -29.66739,14.80136 -0.10098,0 -0.30568,-0.48218 -0.4549,-1.0715 z"
     id="path74" />
  <path
     style="fill:#000000;fill-opacity:1;stroke-width:0.194817"
     d="m 303.5469,103.25039 c -6.69684,-0.086 -12.73155,-0.2149 -13.41046,-0.28637 -1.2103,-0.12742 -1.23191,-0.13984 -1.10723,-0.63657 0.32968,-1.31357 1.09358,-5.369262 1.65938,-8.810008 0.34359,-2.089415 0.69978,-3.878604 0.79154,-3.975975 0.19159,-0.203299 75.41588,0.174612 95.25373,0.478535 23.22603,0.355832 39.97622,0.730503 40.12443,0.897511 0.24838,0.279889 2.01188,9.452607 2.03329,10.576037 0.0202,1.05842 0.0191,1.06033 -0.66165,1.21013 -2.28052,0.50178 -11.2974,0.59798 -60.88039,0.64949 -28.39461,0.0295 -57.1058,-0.0168 -63.80264,-0.10278 z"
     id="path76" />
</svg>
