<?xml version="1.0" encoding="UTF-8" standalone="no"?>
<svg
   xmlns:dc="http://purl.org/dc/elements/1.1/"
   xmlns:cc="http://creativecommons.org/ns#"
   xmlns:rdf="http://www.w3.org/1999/02/22-rdf-syntax-ns#"
   xmlns:svg="http://www.w3.org/2000/svg"
   xmlns="http://www.w3.org/2000/svg"
   xmlns:sodipodi="http://sodipodi.sourceforge.net/DTD/sodipodi-0.dtd"
   xmlns:inkscape="http://www.inkscape.org/namespaces/inkscape"
   version="1.1"
   width=""
   height=""
   id="svg2"
   viewBox="0 0 725.66931 725.66931"
   sodipodi:docname="primarchhelmet.svg"
   inkscape:version="1.0.2-2 (e86c870879, 2021-01-15)">
  <metadata
     id="metadata8">
    <rdf:RDF>
      <cc:Work
         rdf:about="">
        <dc:format>image/svg+xml</dc:format>
        <dc:type
           rdf:resource="http://purl.org/dc/dcmitype/StillImage" />
        <dc:title />
      </cc:Work>
    </rdf:RDF>
  </metadata>
  <defs
     id="defs6" />
  <sodipodi:namedview
     pagecolor="#ffffff"
     bordercolor="#666666"
     borderopacity="1"
     objecttolerance="10"
     gridtolerance="10"
     guidetolerance="10"
     inkscape:pageopacity="0"
     inkscape:pageshadow="2"
     inkscape:window-width="1920"
     inkscape:window-height="1017"
     id="namedview4"
     showgrid="false"
     inkscape:zoom="0.90739764"
     inkscape:cx="732.47524"
     inkscape:cy="405.25016"
     inkscape:window-x="-8"
     inkscape:window-y="-8"
     inkscape:window-maximized="1"
     inkscape:current-layer="svg2"
     inkscape:measure-start="878.402,489.209"
     inkscape:measure-end="158.721,719.681"
     showguides="false"
     inkscape:document-rotation="0" />
  <path
     style="fill:#000000;stroke-width:0.657376"
     d="m 318.40158,696.19244 c -35.56851,-17.98688 -50.02223,-25.68693 -67.10919,-35.75163 -11.195,-6.59415 -38.26169,-23.43554 -50.85308,-31.64171 l -7.52298,-4.90291 -2.66635,2.18151 c -1.4665,1.19984 -4.885,3.41855 -7.59668,4.93052 -2.71168,1.51196 -6.52656,3.74652 -8.4775,4.96569 -4.2871,2.679 -12.03414,4.57646 -16.29867,3.99192 -7.2218,-0.98987 -7.47424,-1.19873 -37.4422,-30.98157 l -17.8595,-17.74917 -1.10196,-6.24507 -1.10196,-6.24508 -4.041877,-2.95819 c -5.27302,-3.85927 -18.367987,-15.35103 -22.170763,-19.45642 -1.642019,-1.77269 -3.925153,-4.59381 -5.073654,-6.26917 -2.091745,-3.05131 -5.41708,-11.81245 -5.41708,-14.27218 0,-3.19953 -0.413992,-3.38826 -7.465819,-3.40352 -9.150403,-0.0198 -13.481407,-2.12147 -15.549282,-7.5454 -0.844163,-2.21422 -1.91409,-35.59828 -1.927743,-60.14996 -0.01023,-18.00197 -0.04438,-17.8705 6.641036,-25.40488 2.292523,-2.58364 6.10887,-6.87302 8.480785,-9.53196 l 4.312575,-4.83444 -0.472971,-22.67949 C 57.426581,389.76561 57.186878,375.2321 57.15406,369.94263 l -0.05973,-9.6172 26.130719,-19.77222 c 14.371893,-10.87472 26.806211,-20.31132 27.631821,-20.97023 l 1.5011,-1.19801 -0.0816,-33.50678 c -0.0684,-28.09875 0.0933,-34.65938 1.00208,-40.64793 2.11884,-13.96208 5.85964,-25.68885 12.10969,-37.96172 4.1959,-8.23926 22.19512,-39.25375 28.0778,-48.3809 14.24604,-22.10313 41.75798,-53.25901 62.0616,-70.281588 14.98504,-12.563492 41.25475,-27.734337 52.26684,-30.1843 2.70574,-0.601967 4.92771,-1.138748 4.93772,-1.192843 0.0102,-0.0541 2.16651,-10.156219 4.79223,-22.449161 l 4.77401,-22.350804 66.04011,-0.165593 c 36.32206,-0.09108 68.70249,0.05686 71.9565,0.328688 l 5.91638,0.494282 4.7139,22.022116 c 2.59265,12.112163 4.73734,22.214286 4.76598,22.44916 0.0286,0.234874 2.26587,0.919565 4.97161,1.521531 10.50765,2.33773 35.11591,16.281805 50.05042,28.360665 20.05434,16.219717 48.5598,48.052807 63.57954,71.001577 4.29885,6.56826 22.19256,37.06425 27.62545,47.08165 6.39479,11.79101 11.24969,26.53771 13.2592,40.27462 0.99818,6.82347 1.13687,12.43167 1.02728,41.53849 l -0.12669,33.64998 1.51168,0.8033 c 0.83142,0.44182 13.29504,9.67882 27.69693,20.52667 l 26.18523,19.72337 -0.41244,29.96755 c -0.22685,16.48216 -0.56455,30.95008 -0.75048,32.15094 -0.30482,1.96882 0.10186,2.67005 4.13784,7.13527 10.51722,11.6357 12.87956,14.48946 14.05301,16.97641 1.11021,2.35296 1.23894,4.28885 1.22389,18.40655 -0.0312,29.19974 -1.02373,57.63742 -2.10011,60.16717 -2.25404,5.29759 -6.73824,7.39516 -15.71335,7.35025 l -6.35506,-0.0318 -1.09814,4.93587 c -1.4377,6.46224 -2.50757,8.93404 -5.92754,13.69483 -4.3211,6.01521 -16.65097,17.53037 -26.39575,24.65162 l -4.04804,2.95819 -1.1018,6.24508 -1.10181,6.24508 -19.18856,19.06392 c -30.5405,30.34214 -29.55148,29.58412 -38.53882,29.53678 -5.81753,-0.0309 -10.50975,-1.45425 -15.20262,-4.61229 -1.82639,-1.22909 -5.2985,-3.27399 -7.71582,-4.54424 -2.41733,-1.27025 -6.15469,-3.76026 -8.30526,-5.53334 l -3.91012,-3.22384 -1.99005,1.3945 c -1.09452,0.76689 -4.65242,3.34808 -7.90643,5.73587 -9.50318,6.97345 -30.21266,21.08252 -39.10771,26.64347 -12.16328,7.60427 -26.00144,14.93389 -65.41517,34.64822 -36.47115,18.24246 -44.65061,22.18863 -45.93408,22.16102 -0.40682,-0.008 -15.82645,-7.64536 -34.26586,-16.97011 z m 33.74889,-135.19666 0.11205,-142.65072 -12.32884,-7.49875 c -6.78086,-4.12431 -18.1285,-11.00599 -25.21698,-15.29263 l -12.88815,-7.79387 -8.1479,3.90318 c -9.81459,4.70157 -13.01068,5.81053 -20.30937,7.0468 -8.11533,1.3746 -25.32702,1.86972 -33.60701,0.96676 -15.65626,-1.70739 -28.00994,-7.25468 -42.05321,-18.88354 -8.40977,-6.96391 -12.4772,-12.22406 -18.26296,-23.61831 l -3.2844,-6.46819 -21.24248,-6.09548 c -11.68336,-3.35252 -21.46037,-6.10487 -21.72668,-6.11636 -0.26632,-0.0115 -0.30425,43.39064 -0.0843,96.44914 l 0.39994,96.47002 3.04246,3.15694 c 2.95058,3.06159 3.13183,3.14486 6.00067,2.75659 2.88057,-0.38986 3.13069,-0.27216 9.53197,4.48511 3.61556,2.68701 13.22969,9.82896 21.36473,15.87101 18.98143,14.09789 24.92686,19.45621 27.5898,24.86544 5.07571,10.31022 4.09568,21.16398 -3.14494,34.83024 l -2.65076,5.00309 14.90499,9.49108 c 43.59179,27.75798 58.48284,36.1795 110.22459,62.33653 l 30.8967,15.61926 0.384,-3.09132 c 0.21121,-1.70023 0.43443,-67.28414 0.49606,-145.74202 z m 40.17428,130.15858 c 54.03151,-26.94409 61.25449,-30.89722 82.86114,-45.34998 13.88164,-9.28544 35.27854,-24.42857 35.87057,-25.3865 0.20156,-0.32612 -0.57676,-2.44044 -1.7296,-4.69853 -6.06459,-11.87873 -6.70442,-22.77317 -1.9095,-32.51306 2.30747,-4.68716 8.53575,-10.72181 19.3726,-18.77041 3.61557,-2.68531 13.21475,-9.82831 21.33152,-15.87334 l 14.75776,-10.99094 2.99141,0.40675 c 2.9103,0.39572 3.07394,0.32114 6.03523,-2.7502 l 3.04382,-3.15695 0.37403,-96.47001 c 0.2057,-53.05851 0.22746,-96.47002 0.0484,-96.47002 -0.45179,0 -31.62415,8.92637 -38.06407,10.89985 l -5.25901,1.6116 -2.44667,5.17763 c -3.61936,7.6593 -9.73949,16.4093 -14.76661,21.11191 -13.61255,12.73388 -28.82987,20.33353 -44.58013,22.26368 -13.47365,1.65115 -34.72804,0.26141 -44.09582,-2.88325 -2.68891,-0.90263 -8.16959,-3.28647 -12.17928,-5.2974 l -7.29037,-3.65626 -25.47034,14.87744 -25.47036,14.87744 -0.43171,13.86219 c -0.66883,21.47589 -0.5215,277.25819 0.1597,277.25819 0.32528,0 16.90659,-8.13596 36.84736,-18.07983 z M 555.8253,636.18769 c 3.42734,-1.62904 7.4723,-5.96562 9.83621,-10.54537 1.53767,-2.97904 1.85167,-4.50579 2.07393,-10.08429 0.33162,-8.32338 -0.8606,-13.68054 -4.90098,-22.02211 -2.49438,-5.14983 -3.96047,-7.18066 -8.3593,-11.57969 -5.96007,-5.9603 -10.16982,-8.4291 -16.75232,-9.82433 -5.73844,-1.21632 -10.22614,-1.18342 -14.57093,0.10685 -5.02014,1.49082 -12.28243,8.74942 -14.40206,14.39471 -1.95561,5.20846 -2.11814,14.7982 -0.34035,20.082 1.17438,3.49034 1.21675,3.53163 1.62853,1.5873 0.55244,-2.60834 7.14687,-13.38195 8.85316,-14.46379 2.00998,-1.27433 8.64031,-2.43111 11.03448,-1.92514 3.64047,0.76927 9.80925,4.43362 13.4555,7.99272 4.05693,3.95997 6.6786,9.15101 7.20693,14.27007 0.65474,6.34382 0.0802,7.62149 -5.57233,12.39155 -2.79733,2.36063 -6.40111,4.97752 -8.0084,5.81528 l -2.92234,1.52321 3.45472,1.56758 c 6.53943,2.96739 13.01215,3.21996 18.28555,0.71345 z m -386.64821,-0.66691 c 5.38863,-2.02235 5.49832,-2.22647 2.12698,-3.9578 -1.65215,-0.84848 -5.2378,-3.45031 -7.96812,-5.78189 -4.405,-3.7617 -5.01196,-4.55773 -5.38822,-7.0668 -1.0121,-6.74915 1.70657,-14.17291 7.1283,-19.46512 3.64625,-3.5591 9.81503,-7.22344 13.4555,-7.99271 2.40544,-0.50835 9.02821,0.65297 11.05477,1.93848 1.82244,1.15598 8.83073,12.85039 8.89767,14.84711 0.0476,1.41967 0.16647,1.34085 1.05709,-0.70123 2.69906,-6.18854 2.35116,-17.48247 -0.72554,-23.55406 -0.87824,-1.73318 -3.54075,-4.96964 -5.91667,-7.19216 -6.36855,-5.95749 -12.05898,-7.26173 -22.25569,-5.10099 -6.61643,1.40204 -11.5714,4.3571 -17.22055,10.27 -8.3068,8.69466 -12.84141,19.82622 -12.84141,31.52325 0,6.91764 1.23354,11.14043 4.51263,15.44815 6.37032,8.36867 14.07835,10.54051 24.08326,6.78577 z m 366.4292,-5.47035 c 1.96164,-1.01441 2.66968,-3.28275 2.67686,-8.57601 0.009,-6.59204 -3.53516,-11.16344 -11.56972,-14.92331 -4.65874,-2.18005 -6.05,-2.16875 -11.15799,0.0908 l -2.89908,1.28234 0.003,4.47431 c 0.002,3.23567 0.34826,5.04136 1.25164,6.52282 2.49936,4.09881 14.37188,12.06168 18.00681,12.07719 1.01224,0.006 2.6723,-0.42237 3.68901,-0.94813 z m -353.66004,-1.70011 c 4.92746,-2.62629 11.62364,-8.08416 12.86603,-10.48668 0.5837,-1.12871 0.98855,-3.66947 0.98855,-6.20385 v -4.29228 l -2.79384,-1.43787 c -5.65071,-2.90831 -11.66383,-1.40653 -18.33025,4.57783 -4.20051,3.77071 -5.31744,7.98733 -4.08739,15.43054 0.77099,4.6654 5.31772,5.63115 11.3569,2.41231 z m 365.93969,-9.59376 c 0.58298,-3.10742 -0.68707,-9.04432 -2.65213,-12.39746 -2.83179,-4.83205 -10.1342,-10.37564 -15.1611,-11.50935 -1.30357,-0.29405 -3.87342,-0.19294 -6.04549,0.23777 -3.56387,0.70674 -3.91461,0.95419 -6.18634,4.36478 -1.32454,1.98857 -2.33316,3.69906 -2.24138,3.80102 0.0918,0.10207 1.51224,-0.17434 3.15656,-0.61412 3.68752,-0.98626 6.59142,-0.24159 12.28584,3.15054 7.4719,4.45103 9.87087,8.47464 9.87799,16.5676 l 0.004,4.16981 3.26517,-2.7337 c 2.38187,-1.99422 3.38206,-3.35684 3.69722,-5.03689 z m -378.85782,-5.87747 c 1.60556,-3.09138 5.70542,-6.44084 11.21944,-9.16606 5.07803,-2.50968 6.6526,-2.6804 11.49672,-1.24652 1.45941,0.43202 1.42531,0.28727 -0.72774,-3.08829 -2.69061,-4.21832 -4.60608,-5.29372 -9.57358,-5.37491 -4.5129,-0.0737 -8.70649,1.88214 -13.74151,6.40903 -4.75438,4.27458 -7.06199,9.18894 -7.06666,15.04938 l -0.003,4.50527 3.28688,2.85762 3.28689,2.85761 0.38662,-5.39075 c 0.21266,-2.96496 0.8591,-6.30049 1.43654,-7.41238 z m 434.17004,-23.1388 c 1.27215,-3.3805 2.15802,-10.02769 1.72467,-12.94112 -0.21728,-1.46075 -1.49706,-5.02242 -2.84399,-7.91488 -6.30372,-13.53701 -17.22921,-22.71979 -32.11024,-26.98837 l -6.02578,-1.72849 -18.89031,14.02975 -18.8903,14.02973 5.72993,0.43777 c 10.57034,0.80761 16.92848,3.74981 24.52978,11.3511 4.58829,4.58829 5.9049,6.43506 8.73692,12.25514 1.83398,3.76901 3.78287,8.77552 4.33087,11.12564 1.13248,4.8567 1.33852,15.64648 0.36368,19.04551 -0.55141,1.9227 1.91005,-0.26032 15.94139,-14.13793 10.45848,-10.34388 16.89293,-17.20736 17.40338,-18.56385 z M 138.56317,621.6431 c -0.93984,-3.27709 -0.70762,-14.1353 0.40431,-18.90391 0.54801,-2.35013 2.4969,-7.35664 4.33088,-11.12565 2.84197,-5.84052 4.1256,-7.63693 8.69023,-12.16199 2.94564,-2.92012 6.88672,-6.12901 8.75796,-7.13091 4.52338,-2.42193 12.57738,-4.42241 17.8047,-4.42241 h 4.23352 l -11.73417,-8.7336 c -6.45379,-4.80349 -15.0655,-11.19057 -19.13715,-14.19353 l -7.40299,-5.45992 -5.96729,1.7117 c -7.35579,2.10999 -11.47636,4.0949 -17.15066,8.26157 -5.89627,4.32968 -11.16502,10.85482 -14.86828,18.41378 -2.88471,5.88817 -3.05266,6.52685 -2.93855,11.1754 0.24348,9.91889 -0.12735,9.36064 18.61256,28.01811 9.20673,9.1662 16.79282,16.66982 16.85797,16.67469 0.0652,0.006 -0.15671,-0.95064 -0.49304,-2.12333 z m 473.02838,-48.08161 c 5.72796,-4.36677 16.09256,-13.68299 20.8551,-18.74559 7.73261,-8.21981 9.75306,-13.78271 10.64849,-29.31846 0.4577,-7.94088 -0.10165,-12.54462 -2.20501,-18.14707 -3.0529,-8.13186 -8.03911,-13.17976 -15.49368,-15.68541 -8.75435,-2.94252 -13.63809,-2.37551 -18.55192,2.15391 -3.44315,3.17378 -10.25644,12.60873 -15.28072,21.16054 -5.41968,9.22482 -7.04541,11.38784 -13.6332,18.13896 l -6.1536,6.30621 4.65951,1.72029 c 10.57008,3.90246 21.63299,13.96764 27.09255,24.64912 1.68387,3.29445 3.25781,7.03588 3.49764,8.31427 0.47784,2.54708 0.51191,2.54301 4.56484,-0.54677 z M 106.01231,562.9679 c 3.18887,-5.72303 12.90428,-15.61533 18.56125,-18.89921 2.22331,-1.29062 5.85168,-3.0063 8.06308,-3.81261 l 4.02072,-1.46603 -6.11914,-6.31762 c -6.70208,-6.91947 -8.20278,-8.93214 -14.19537,-19.03819 -5.30744,-8.9506 -11.12197,-16.94682 -14.76457,-20.30446 -4.003367,-3.69017 -7.188478,-4.5798 -12.894012,-3.60141 -11.584162,1.98646 -17.798125,7.4391 -21.887648,19.20597 -1.307112,3.761 -1.470592,5.41499 -1.364435,13.8049 0.208397,16.4697 2.350745,22.87327 10.578369,31.61928 5.038964,5.35646 15.430188,14.66088 21.439988,19.19762 l 3.214398,2.42653 1.39167,-4.10657 c 0.76543,-2.25861 2.54549,-6.1773 3.9557,-8.7082 z M 661.2745,529.00534 c 4.56479,-2.56555 4.54932,-2.46353 5.29482,-34.91299 0.36737,-15.99046 0.57207,-32.66109 0.4549,-37.04585 -0.19886,-7.4415 -0.33156,-8.13865 -1.99322,-10.47141 -1.51542,-2.12744 -7.83766,-9.17566 -33.47311,-37.31679 l -3.6992,-4.06078 -19.47332,-0.22496 -19.47332,-0.22498 v 29.20622 c 0,16.06343 -0.15926,40.86559 -0.35391,55.11592 -0.29049,21.26787 -0.20217,25.68297 0.49304,24.64416 0.46581,-0.69604 3.10789,-4.6896 5.8713,-8.87458 8.62234,-13.05795 12.92268,-16.88327 19.77481,-17.59048 4.0562,-0.41864 10.31706,0.9746 15.34749,3.41528 10.31973,5.00696 16.7508,18.52132 15.84999,33.30745 l -0.39333,6.45621 h 6.62111 c 5.57014,0 7.02282,-0.22577 9.15195,-1.42242 z M 62.562426,523.31417 c -0.900802,-14.78612 5.530262,-28.30048 15.849999,-33.30745 5.030424,-2.44068 11.291288,-3.83391 15.347491,-3.41528 6.852124,0.70722 11.152464,4.53253 19.774804,17.59049 2.76341,4.18497 5.40548,8.17853 5.87129,8.87458 0.69485,1.03827 0.78354,-3.81043 0.49387,-27.00167 -0.19418,-15.54695 -0.35344,-40.32184 -0.3539,-55.05528 l -8.3e-4,-26.7881 H 100.21071 80.876251 l -17.774316,19.47397 c -9.775871,10.71069 -18.602669,20.66797 -19.615109,22.12729 -1.76232,2.54016 -1.849659,3.0342 -2.048453,11.58706 -0.114206,4.91357 0.08202,21.55534 0.436134,36.9817 0.71703,31.23935 0.732985,31.3432 5.213519,33.9405 2.064254,1.19662 3.495023,1.42057 9.157122,1.4333 l 6.710611,0.0151 z m 520.461974,0.15465 2.48289,-3.34338 0.70023,-91.93753 c 0.38512,-50.56565 0.62286,-92.01491 0.52831,-92.10946 -0.0946,-0.0946 -1.9617,0.30763 -4.14922,0.89375 l -3.97729,1.06566 -0.43596,62.5044 c -0.23978,34.37742 -0.43613,77.41518 -0.43633,95.63946 l -3.9e-4,33.13506 1.40244,-1.25229 c 0.77134,-0.68877 2.51973,-2.75681 3.88532,-4.59567 z m -452.66662,-108.48943 -0.45442,-77.64922 -3.94792,-1.09762 c -2.17136,-0.60369 -4.05643,-0.98912 -4.18906,-0.85648 -0.13262,0.13261 0.0765,41.60968 0.46465,92.17124 l 0.70577,91.93012 1.7167,2.35263 c 0.94418,1.29394 2.62158,3.33071 3.72753,4.52615 l 2.01083,2.17352 0.21018,-17.95056 c 0.11558,-9.87281 0.006,-52.89272 -0.24426,-95.59978 z m -36.194682,-13.3926 14.389232,-0.005 -0.31255,-34.34793 c -0.1719,-18.89136 -0.18833,-34.71771 -0.0365,-35.16965 0.15182,-0.45195 1.13885,-0.82172 2.19338,-0.82172 h 1.91736 v -4.62719 -4.62718 l -26.332248,19.87408 -26.332254,19.8741 0.389048,26.00347 c 0.213971,14.30192 0.548121,27.83415 0.742548,30.07163 l 0.353478,4.06813 9.319631,-10.14402 9.31962,-10.14405 14.389235,-0.005 z m 554.164442,-12.21833 0.4384,-27.00446 -25.87749,-19.50493 c -14.23261,-10.72772 -26.07273,-19.50493 -26.31136,-19.50493 -0.23864,0 -0.43389,1.90408 -0.43389,4.2313 v 4.23129 l 2.13646,0.20599 2.13648,0.206 -0.26164,35.0053 -0.26165,35.00531 h 14.40546 14.40545 l 9.19036,9.98707 9.19036,9.98706 0.40234,-2.92027 c 0.22128,-1.60614 0.59961,-15.07227 0.84072,-29.92473 z m -270.43339,12.72486 c 12.47373,-7.26652 24.20543,-14.17888 26.07046,-15.3608 2.81204,-1.78205 18.86146,-6.60206 94.00486,-28.2318 49.83764,-14.34556 91.71493,-26.2372 93.06065,-26.42586 l 2.44674,-0.34301 -0.0229,-35.06014 -0.0229,-35.06016 -2.97823,-4.44133 c -5.89804,-8.79551 -8.07863,-15.12612 -8.10309,-23.52452 -0.0102,-3.51779 -0.11469,-3.81749 -1.01632,-2.91587 -0.90162,0.90162 -0.89551,1.47351 0.0594,5.56423 1.58214,6.77725 1.0708,11.60589 -1.84951,17.46535 -3.92038,7.86602 -7.44923,11.79716 -13.25691,14.76822 -4.24418,2.17121 -5.10848,2.41453 -5.62902,1.58467 -0.90084,-1.43618 -1.59569,-7.43081 -1.60082,-13.81058 -0.004,-4.55387 0.2737,-6.11781 1.49905,-8.45291 0.82694,-1.57587 1.25031,-2.75916 0.94084,-2.62951 -0.30948,0.12964 -3.71155,1.81688 -7.56016,3.74942 l -6.99747,3.51372 2.35985,4.51774 c 4.52926,8.67086 3.31609,14.90618 -4.52882,23.27685 l -3.71353,3.96239 -5.66905,0.23282 c -7.48049,0.30721 -7.81086,0.0233 -7.49986,-6.44598 0.21357,-4.44238 0.62878,-5.76952 3.96895,-12.68561 2.05175,-4.24829 3.54633,-7.72418 3.32131,-7.72418 -0.22501,0 -2.68903,0.93218 -5.47559,2.07151 l -5.06648,2.07149 -0.25357,8.67731 c -0.24784,8.48148 -0.30945,8.79039 -2.7297,13.68743 -1.48247,2.99957 -3.98919,6.60018 -6.2466,8.97248 -4.30952,4.52888 -6.16891,4.97015 -11.02899,2.61742 -3.24042,-1.56866 -3.52492,-2.13194 -4.01934,-7.95802 -0.45861,-5.40433 0.57383,-7.79071 6.64038,-15.34864 2.3217,-2.89245 4.16431,-5.31889 4.09469,-5.39208 -0.0696,-0.0732 -3.76319,0.94619 -8.20794,2.26531 -7.88799,2.341 -8.07247,2.43857 -7.70982,4.07734 0.20435,0.92342 0.56066,3.46689 0.7918,5.65218 0.35499,3.3562 0.18891,4.42813 -1.06945,6.90245 -3.96415,7.79479 -14.33559,20.83544 -17.92564,22.53903 -2.9297,1.39022 -8.44685,2.56373 -10.78971,2.29497 -1.83096,-0.21003 -1.84133,-0.23823 -1.64866,-4.48431 0.44858,-9.88669 1.63028,-12.97046 9.15643,-23.89482 3.2708,-4.74764 4.50698,-7.00929 3.69787,-6.76548 -0.66847,0.20144 -4.32151,1.13547 -8.11786,2.07563 l -6.90245,1.70938 0.22586,3.96775 c 0.33892,5.95393 -0.24595,7.83141 -4.41988,14.18795 -7.45075,11.34687 -12.34497,15.72795 -21.0641,18.85563 -6.44061,2.31035 -6.92099,2.08265 -6.38688,-3.02748 0.50879,-4.86775 2.18515,-8.67554 7.61072,-17.2875 l 4.10747,-6.51974 -2.65385,2.39759 c -3.99481,3.60906 -6.4162,4.04827 -22.50457,4.082 l -14.18854,0.0298 -3.88933,-2.40701 c -5.59948,-3.46541 -5.53909,-4.56717 0.5158,-9.40828 6.76101,-5.40569 10.36827,-6.90466 18.69367,-7.7681 9.27356,-0.96178 18.32955,1.1e-4 23.1901,2.46314 4.10485,2.08009 5.15061,1.90308 1.35613,-0.22955 -7.4822,-4.20523 -16.54417,-10.76949 -18.4383,-13.35621 -2.86624,-3.91433 -5.48441,-9.38054 -5.04344,-10.52969 0.48596,-1.26626 6.71298,-2.47987 12.72414,-2.47987 4.26274,0 5.31691,0.27509 9.65325,2.51906 5.29251,2.73874 13.8035,8.88241 17.31745,12.50062 2.14564,2.20928 2.5914,3.66629 2.31593,7.5699 -0.11614,1.64576 0.0545,1.83833 1.35887,1.53289 11.25109,-2.63473 19.56955,-4.78693 19.56955,-5.06317 0,-0.18928 -1.55305,-0.88343 -3.45123,-1.54257 -9.55758,-3.31881 -22.45103,-9.27922 -24.49579,-11.32398 -3.62789,-3.62789 -6.71111,-13.63824 -4.7117,-15.2976 0.54621,-0.45331 3.76409,-1.13897 7.15087,-1.52368 10.21374,-1.16021 14.19854,0.22566 24.91159,8.66403 6.46484,5.09216 9.42015,8.81121 10.90169,13.71901 0.6133,2.03162 1.32644,3.94556 1.58478,4.25323 0.55108,0.6563 15.06223,-3.4679 15.06223,-4.28082 0,-0.30333 -0.37756,-0.55151 -0.83902,-0.55151 -0.46147,0 -4.10764,-1.60803 -8.10262,-3.57339 -8.25875,-4.06299 -11.14696,-6.74351 -14.12428,-13.10861 -2.54205,-5.43454 -3.05892,-8.15264 -1.65291,-8.69217 1.36047,-0.52207 12.59606,1.47504 17.81638,3.16682 6.19258,2.00689 9.39093,4.19489 16.17674,11.0665 l 6.31609,6.39597 6.17407,-2.6112 c 3.39573,-1.43616 6.91361,-2.91073 7.8175,-3.27681 1.50006,-0.60754 1.14641,-0.8289 -4.05382,-2.53736 -6.45898,-2.12198 -11.27904,-4.43009 -15.23308,-7.29438 -5.58256,-4.04398 -14.2732,-12.07139 -14.0913,-13.01591 0.28697,-1.49012 4.53862,-2.14332 14.64296,-2.24964 8.88041,-0.0935 9.33698,-0.0312 13.01447,1.77459 4.7752,2.3448 10.88841,7.95785 14.92134,13.70055 l 3.09778,4.41108 6.50532,-3.77498 c 3.57793,-2.07624 8.11443,-4.9395 10.08112,-6.36277 l 3.57577,-2.58779 -1.93233,-0.45412 c -1.0628,-0.24978 -5.77801,-0.91539 -10.47825,-1.47916 -10.68167,-1.28118 -14.74778,-2.33304 -17.68802,-4.57566 -2.54386,-1.94029 -9.07824,-12.01323 -8.78405,-13.54086 0.25731,-1.33608 6.83426,-2.66425 13.65324,-2.75718 6.45264,-0.0879 13.89439,0.91513 21.29901,2.87092 6.02761,1.59207 9.20734,4.20416 11.29442,9.27815 0.69381,1.68672 1.43748,3.06787 1.6526,3.06923 0.21513,0.001 0.92472,-0.58711 1.57685,-1.30771 1.15749,-1.27901 1.10908,-1.37592 -2.03459,-4.07317 -7.37512,-6.32782 -11.05867,-10.85177 -15.79162,-19.39445 -2.73238,-4.93178 -1.97479,-5.22739 6.54341,-2.55324 6.73613,2.1147 7.03745,2.15411 6.17633,0.80784 -0.49789,-0.77842 -4.99911,-8.51498 -10.0027,-17.19235 -10.0669,-17.45829 -16.57871,-27.73954 -23.35527,-36.87472 -16.55232,-22.31346 -43.27771,-50.142824 -60.33143,-62.823585 -11.71907,-8.71404 -33.84351,-20.854412 -41.62744,-22.842279 -2.66904,-0.681621 -4.92637,-1.171583 -5.0163,-1.088807 -0.0899,0.08277 2.23174,11.44803 5.15927,25.256126 2.92753,13.808097 5.13493,25.595175 4.90534,26.193485 -0.36122,0.94133 -0.54113,0.96146 -1.33579,0.14941 -0.52421,-0.53567 -5.28049,-21.481148 -11.08215,-48.803033 -5.59008,-26.325533 -10.31725,-48.018066 -10.50482,-48.205636 -0.18757,-0.187575 -31.54087,-0.511616 -69.67399,-0.720097 -67.81008,-0.370734 -69.34105,-0.351525 -69.7021,0.874522 -0.20304,0.689469 -4.8454,22.404676 -10.31636,48.25601 -5.61766,26.544452 -10.34413,47.410874 -10.85914,47.940854 -0.78883,0.81177 -0.9681,0.79205 -1.32811,-0.14611 -0.2289,-0.59651 1.98414,-12.377936 4.91787,-26.180958 2.93373,-13.803022 5.24212,-25.188324 5.12978,-25.300676 -0.11236,-0.112346 -2.03771,0.223435 -4.27856,0.746194 -5.04804,1.177625 -14.5388,5.864786 -27.42333,13.543443 -16.38738,9.766218 -24.81625,16.604249 -41.75536,33.874587 -17.2162,17.55286 -29.66623,32.50277 -40.4245,48.54146 -5.14468,7.66981 -27.44501,45.11552 -27.06295,45.44287 0.0651,0.0557 3.18859,-0.89562 6.94117,-2.11414 9.208,-2.98998 9.54368,-2.69368 5.23553,4.62151 -3.91795,6.65265 -8.31356,11.95657 -13.60268,16.41356 l -4.61053,3.88515 1.63293,1.28446 c 0.8981,0.70646 1.69129,1.17678 1.76263,1.04517 0.0714,-0.13161 1.01719,-1.97575 2.10186,-4.09811 1.08468,-2.12235 2.86351,-4.54455 3.95297,-5.38267 3.79121,-2.91656 17.97558,-5.78626 27.9298,-5.65059 6.81896,0.093 13.39593,1.42111 13.65323,2.75718 0.29345,1.52375 -6.2372,11.59828 -8.77135,13.53117 -2.81906,2.15021 -9.48818,3.80909 -19.46709,4.84228 -9.13509,0.94582 -10.54098,1.2108 -10.11143,1.90582 0.53705,0.86897 10.80722,7.60656 15.52616,10.18571 l 4.30575,2.35332 2.7372,-4.16328 c 3.56448,-5.42159 10.22741,-11.60889 15.05279,-13.97826 3.71179,-1.8226 4.14011,-1.88109 13.04112,-1.7812 9.77759,0.10973 14.19366,0.73432 14.63905,2.07047 0.15038,0.45111 -1.36296,2.31901 -3.36296,4.15085 -10.35787,9.48702 -17.45034,13.85167 -26.97599,16.60081 l -5.04731,1.45667 8.00362,3.34816 8.00361,3.34814 6.31425,-6.39409 c 8.83818,-8.94993 12.98021,-11.05787 26.51564,-13.4942 9.36866,-1.68633 9.6795,-1.36659 6.37907,6.5614 -3.07052,7.37572 -6.01639,10.2722 -14.75028,14.50304 -4.05617,1.96487 -7.71171,3.57249 -8.12342,3.57249 -0.41172,0 -0.74857,0.25749 -0.74857,0.57219 0,0.54585 13.24006,4.69847 14.95532,4.6906 0.45194,-0.002 0.82171,-0.58432 0.82171,-1.29387 0,-3.27352 2.79588,-8.59402 6.42113,-12.21926 7.74431,-7.74432 15.12291,-12.47771 21.08891,-13.5286 4.6951,-0.82702 14.97576,0.25709 16.4811,1.73797 1.20636,1.18675 0.10197,6.53281 -2.37737,11.5082 -2.23593,4.48691 -4.62624,5.9498 -18.90839,11.57215 -6.31567,2.48625 -11.49361,4.67803 -11.50652,4.87061 -0.0207,0.3095 19.36794,5.28689 20.45647,5.25151 0.23646,-0.008 0.44135,-1.48888 0.45532,-3.29154 0.0159,-2.05715 0.44775,-3.83179 1.15969,-4.76598 2.69308,-3.53376 14.15611,-11.87298 20.16816,-14.6721 2.6031,-1.21196 4.54154,-1.59598 8.08092,-1.60086 5.88541,-0.008 12.11209,1.21467 12.59511,2.47341 0.43743,1.1399 -2.1707,6.60685 -4.98479,10.44872 -1.75768,2.39964 -9.31057,7.88012 -19.16911,13.90937 -3.18475,1.94772 -1.9688,1.78286 2.11552,-0.28683 4.76828,-2.41627 13.90476,-3.37289 23.10287,-2.41894 8.32541,0.86343 11.93266,2.36242 18.69367,7.7681 6.05489,4.8411 6.11529,5.94287 0.5158,9.40827 l -3.88933,2.40703 -14.18853,-0.0298 c -16.08838,-0.0337 -18.50977,-0.47295 -22.50458,-4.08202 l -2.65384,-2.39758 4.10747,6.51974 c 2.2591,3.58585 4.78318,8.00865 5.60907,9.82844 1.7713,3.90293 2.77413,11.11784 1.64253,11.81721 -0.93606,0.57851 -6.43466,-1.19617 -11.40179,-3.67993 -5.29378,-2.6471 -11.76412,-9.78764 -17.61605,-19.44073 -2.12682,-3.50829 -2.26805,-4.09854 -2.26805,-9.47904 v -5.73779 l -6.90245,-1.71162 c -3.79635,-0.94139 -7.44938,-1.87644 -8.11786,-2.07787 -0.80911,-0.24382 0.42707,2.01784 3.69787,6.76547 7.52615,10.92437 8.70785,14.00814 9.15644,23.89483 l 0.19388,4.27294 -3.28689,-0.0259 c -6.14522,-0.0483 -9.47904,-1.4646 -13.6242,-5.78817 -4.73313,-4.93684 -11.35283,-14.13188 -13.49947,-18.75133 -1.66049,-3.57327 -1.75992,-6.20216 -0.46554,-12.30827 0.42563,-2.00781 0.384,-2.0458 -3.41043,-3.11268 -2.11272,-0.59403 -5.93387,-1.7665 -8.49143,-2.6055 l -4.65012,-1.52544 4.91397,6.28156 c 6.21937,7.95024 6.94995,9.65753 6.48562,15.15615 -0.48277,5.71695 -0.777,6.29369 -4.00909,7.85831 -4.86008,2.35273 -6.71945,1.91145 -11.02899,-2.61742 -2.25739,-2.37229 -4.76413,-5.97292 -6.2466,-8.97249 -2.42025,-4.89704 -2.48186,-5.20594 -2.7297,-13.68741 l -0.25357,-8.67731 -5.06647,-2.07151 c -2.78657,-1.13929 -5.25059,-2.07147 -5.4756,-2.07147 -0.22502,0 1.26957,3.47588 3.32131,7.72417 3.34017,6.9161 3.7554,8.24323 3.96896,12.68561 0.31042,6.45736 -0.0303,6.75383 -7.40866,6.44638 l -5.57786,-0.23241 -3.34932,-3.28688 c -1.99331,-1.95615 -4.30054,-5.20524 -5.69881,-8.0252 -2.97247,-5.99472 -2.83306,-9.31094 0.67369,-16.02426 l 2.37575,-4.54816 -4.35025,-1.97249 c -2.39263,-1.08487 -5.79164,-2.8594 -7.55336,-3.94339 -1.76172,-1.08399 -3.32576,-1.9709 -3.47566,-1.9709 -0.14989,0 0.42275,1.25723 1.27252,2.79385 0.84979,1.53662 1.74237,4.14803 1.98352,5.80314 0.55971,3.84155 -0.81952,15.77372 -1.95904,16.94838 -1.49187,1.53785 -9.73104,-3.2764 -13.28371,-7.76185 -7.07723,-8.93534 -9.28058,-16.85088 -7.18673,-25.81824 0.99897,-4.27833 0.89,-6.42756 -0.3259,-6.42756 -0.32287,0 -0.59218,1.70095 -0.59846,3.7799 -0.025,8.26131 -2.23505,14.63289 -8.11962,23.40833 l -2.99478,4.46599 -0.0138,35.11957 -0.0138,35.11958 1.46809,-1e-4 c 0.80744,-6e-5 42.67334,11.85235 93.03534,26.33872 83.54432,24.03106 91.92481,26.56576 95.64829,28.92912 17.51443,11.11668 48.30981,29.37227 49.11134,29.11333 0.54234,-0.17519 11.19184,-6.26389 23.66556,-13.53041 z m 50.97876,-288.55199 c -0.16352,-0.48201 -0.91815,-2.97539 -1.67697,-5.54082 l -1.37966,-4.66443 -10.3205,-0.42805 c -5.67627,-0.23542 -37.89313,-0.42903 -71.59302,-0.43024 l -61.27254,-0.002 -1.37845,4.76598 c -0.75814,2.62129 -1.50093,5.13577 -1.65064,5.58771 -0.3706,1.11875 -1.58665,1.03758 -2.03698,-0.13596 -0.37007,-0.96441 7.33227,-28.514114 8.23677,-29.461223 0.56556,-0.592198 99.72588,-0.515501 122.00303,0.09436 l 15.11882,0.413898 4.08459,13.804908 c 2.24653,7.592697 4.02182,14.373367 3.94511,15.068167 -0.16643,1.50715 -1.65736,2.17239 -2.07956,0.92788 z m -4.34928,-14.516956 c -0.0243,-0.451946 -0.85392,-3.484096 -1.84348,-6.738109 l -1.7992,-5.91639 -29.54627,-0.484316 C 375.08424,85.619184 345.08041,85.471275 324.6595,85.556871 l -37.12894,0.155628 -2.08153,7.066798 -2.08154,7.066798 h 70.60021 c 56.06551,0 70.59108,-0.169169 70.55593,-0.821721 z M 597.46518,370.84959 c 0.004,-17.26435 0.1906,-32.49905 0.41471,-33.85489 l 0.40745,-2.46516 h -4.35895 -4.35897 l -0.003,19.55695 c -10e-4,10.75633 -0.19613,25.99103 -0.43234,33.85489 l -0.42947,14.29795 h 4.3766 4.37659 l 0.007,-31.38974 z m -478.14333,13.86262 c -0.23874,-9.27835 -0.43407,-24.51306 -0.43407,-33.85489 v -16.98515 h -4.36801 -4.36801 l 0.41907,4.43728 c 0.2305,2.44052 0.42118,17.67522 0.42375,33.85489 l 0.005,29.41762 h 4.37835 4.37834 z m 354.87798,12.26993 c 16.87752,-3.10754 37.58303,-16.51103 46.61149,-30.17346 3.34779,-5.06609 7.86425,-13.86096 7.13731,-13.89845 -0.27571,-0.0142 -27.08034,7.60314 -59.56585,16.92745 l -59.06457,16.9533 7.81592,3.77677 c 8.73119,4.21904 15.28116,6.09335 24.52556,7.01815 7.58135,0.75843 27.10979,0.39609 32.54014,-0.60376 z m -208.33822,-0.0328 c 10.2259,-0.98023 16.52517,-2.72146 25.47832,-7.04268 l 7.83277,-3.78047 -59.57444,-17.1327 c -32.76596,-9.42299 -59.57447,-16.82584 -59.57447,-16.45078 0,0.37506 1.84563,3.94496 4.1014,7.93314 6.68375,11.8168 18.99364,23.08833 32.71169,29.95242 7.6167,3.81115 13.88234,5.53538 24.65163,6.78381 4.4981,0.52144 17.67413,0.37941 24.3731,-0.26274 z m 175.13571,-85.306 c 4.35369,-2.14164 5.46978,-3.10175 9.61663,-8.27261 7.24226,-9.03064 9.02546,-12.32299 9.3387,-17.24205 0.39321,-6.17537 0.36871,-6.20042 -4.84294,-4.95344 -5.12378,1.22594 -4.80195,0.87945 -13.11903,14.12381 -6.19534,9.86562 -7.85898,13.23481 -8.4322,17.07688 -0.3473,2.32779 -0.27435,2.4705 1.07041,2.09414 0.7937,-0.22214 3.65949,-1.49417 6.36843,-2.82673 z m -166.02132,0.0423 c -0.23485,-1.35583 -1.08648,-3.94425 -1.89251,-5.75204 -1.65012,-3.70089 -13.00644,-21.77651 -14.71089,-23.41504 -0.60888,-0.58531 -2.97595,-1.51875 -5.26016,-2.07427 -4.94424,-1.20246 -5.00063,-1.14095 -4.60789,5.02699 0.20728,3.25532 0.73908,4.9436 2.44246,7.75418 3.38876,5.59142 11.34085,15.14516 13.78651,16.56328 2.33262,1.35258 9.25994,4.31999 10.14664,4.34646 0.28755,0.008 0.33068,-1.09372 0.0958,-2.44956 z m 199.88818,-5.39197 c 2.86399,-1.23076 7.19034,-5.87716 12.89249,-13.84629 5.49918,-7.68544 6.2353,-9.73459 5.35116,-14.89616 -0.40321,-2.35391 -0.88955,-4.4363 -1.08076,-4.62752 -0.81679,-0.81677 -8.89472,1.31085 -10.13875,2.67043 -2.39723,2.61988 -11.33017,16.09777 -12.6562,19.09549 -0.75429,1.70519 -1.48953,5.24428 -1.72568,8.30667 l -0.41146,5.33567 2.56636,-0.45266 c 1.4115,-0.24895 3.75277,-0.96249 5.20284,-1.58563 z M 240.947,302.29014 c -0.48586,-6.30054 -1.64355,-9.12249 -7.06931,-17.23206 -7.20876,-10.77452 -7.73512,-11.27774 -12.97286,-12.40233 l -4.59365,-0.98629 -0.72321,3.60114 c -1.0281,5.11925 -0.92283,6.31854 0.86409,9.84485 1.94511,3.83849 8.22575,12.36549 12.59318,17.09732 2.70333,2.92886 3.83887,3.65459 6.85557,4.38138 5.81396,1.40071 5.50633,1.66311 5.04619,-4.30401 z M 513.8724,290.7968 c 1.82604,-1.99799 4.28143,-5.58549 5.45641,-7.9722 1.96524,-3.99197 2.15852,-4.9616 2.41327,-12.10727 l 0.27696,-7.76776 -2.4604,0.75512 c -1.84558,0.56641 -3.57951,2.09497 -6.9388,6.11693 -9.70012,11.61354 -10.52299,13.38748 -9.39037,20.24347 0.33392,2.02126 0.83438,2.71873 2.45793,3.42549 3.5306,1.53695 4.65723,1.16616 8.185,-2.69378 z m -311.24611,2.0638 c 1.78696,-0.74663 2.2575,-1.37094 2.60116,-3.45122 0.89211,-5.40011 0.54511,-7.09311 -2.28345,-11.14096 -6.92199,-9.90584 -13.11578,-16.05036 -16.17906,-16.05036 -0.18118,0 -0.2042,3.51217 -0.0511,7.80483 0.25623,7.18659 0.44749,8.14857 2.4146,12.14432 2.46027,4.99753 8.1803,11.60492 10.04641,11.60492 0.69845,0 2.25162,-0.41019 3.4515,-0.91153 z m 231.27297,-0.38563 c 1.63344,-0.48201 3.62488,-2.03834 6.08073,-4.75214 2.00851,-2.21947 3.65182,-4.24041 3.65182,-4.49098 0,-0.25056 -1.70095,-1.20404 -3.7799,-2.11883 -7.00867,-3.08399 -24.94484,-2.93854 -31.24622,0.25339 -2.44886,1.24046 -10.99024,7.56339 -10.99024,8.13576 0,0.5269 4.93271,3.19965 6.80924,3.68954 2.84053,0.74157 26.48082,0.16671 29.47457,-0.71674 z m -126.16415,-1.53373 c 1.72615,-1.01464 2.97047,-2.11662 2.76515,-2.44881 -0.69386,-1.12271 -7.85666,-6.35707 -10.62881,-7.76724 -6.38831,-3.24968 -24.18715,-3.40772 -31.26616,-0.27764 -2.07895,0.91925 -3.77991,1.90293 -3.77991,2.18598 0,0.78526 6.57342,7.80527 8.04741,8.59413 2.22761,1.19218 9.60837,1.78187 20.87716,1.66801 10.60949,-0.10721 10.91536,-0.14995 13.98516,-1.95443 z m 232.81537,-10.28921 c 2.28322,-1.4111 5.29524,-5.31659 7.58854,-9.83954 1.85097,-3.65054 1.56395,-7.14343 -1.00406,-12.219 -2.46174,-4.86555 -3.00853,-5.25159 -5.56557,-3.9293 -1.69599,0.87704 -2.87922,2.72474 -6.43481,10.04852 -3.6429,7.50357 -4.39976,9.64996 -4.61946,13.10026 l -0.26276,4.12638 h 4.1076 c 2.93106,0 4.70421,-0.36872 6.19052,-1.28732 z m -362.6084,-3.49643 c -0.2197,-3.4503 -0.97656,-5.5967 -4.61946,-13.10027 -3.55559,-7.32377 -4.73882,-9.17148 -6.43481,-10.04851 -1.51337,-0.7826 -2.31,-0.8822 -2.93138,-0.3665 -1.65422,1.37288 -4.96868,9.06059 -4.96868,11.52458 0,3.2171 3.38335,9.53598 7.09124,13.24387 2.84833,2.84833 2.91325,2.87321 7.49951,2.87321 h 4.62633 z m 280.23303,0.46074 c 0.317,-0.19592 0.57637,-1.94289 0.57637,-3.88216 0,-3.44233 -0.0818,-3.5956 -3.45123,-6.46283 -4.8646,-4.13963 -13.85193,-10.03324 -17.3192,-11.3574 -2.32474,-0.88783 -4.16567,-1.03933 -8.90093,-0.73255 -3.28349,0.21273 -6.14152,0.5583 -6.35116,0.76794 -0.59207,0.59209 2.18244,5.86548 4.43709,8.43339 1.80719,2.05827 10.07847,7.76389 19.42396,13.39885 3.263,1.96745 3.31494,1.97535 7.14781,1.08642 2.1235,-0.4925 4.12028,-1.05573 4.43729,-1.25166 z m -192.12754,-3.03298 c 10.32776,-6.37892 14.25294,-9.33042 16.45958,-12.37658 2.10019,-2.89923 3.70893,-6.42697 3.17456,-6.96133 -0.19617,-0.19619 -3.1521,-0.52346 -6.56873,-0.72731 -5.69473,-0.33975 -6.51645,-0.23125 -9.86747,1.3029 -4.34873,1.99091 -10.11248,5.83059 -15.57001,10.37241 l -3.96979,3.30368 v 3.80599 3.80598 l 4.10861,1.02674 c 2.25973,0.56471 4.21486,1.05988 4.34474,1.10037 0.12986,0.0405 3.67969,-2.05328 7.88851,-4.65285 z m 225.04469,-6.18087 c -0.99175,-6.23867 -3.59944,-10.02618 -11.00432,-15.98311 -9.45807,-7.60862 -13.61111,-9.06454 -22.85726,-8.01299 -2.825,0.32128 -5.26979,0.71758 -5.43287,0.88065 -0.55699,0.55698 2.34572,8.85718 3.6993,10.57795 1.68944,2.14778 7.08077,4.75623 21.33222,10.321 11.6412,4.54555 14.70896,5.02228 14.26293,2.2165 z m -248.35711,-7.34193 c 8.95779,-3.8224 10.9845,-5.65665 12.8214,-11.60387 0.76964,-2.49179 1.27071,-4.65915 1.11351,-4.81635 -0.84945,-0.84945 -10.69089,-1.47157 -13.89865,-0.87858 -4.47429,0.82711 -6.15328,1.70436 -12.69165,6.63117 -8.34703,6.28968 -11.69422,10.86212 -12.71482,17.36915 -0.52097,3.32155 5.78432,1.65601 25.37021,-6.70152 z m 329.43425,-0.66059 c 3.69519,-4.67164 6.86895,-10.95683 7.35226,-14.56011 0.37863,-2.8229 -1.00584,-12.73468 -1.73266,-12.40454 -3.42735,1.55684 -12.45387,10.98317 -14.73241,15.38496 -1.41578,2.73503 -1.77718,9.41776 -0.83962,15.52557 l 0.47797,3.11386 3.24638,-1.64506 c 2.06944,-1.04867 4.32734,-3.01168 6.22808,-5.41468 z m -425.49535,-3.082 c 0.13992,-7.72613 -0.46261,-9.27089 -6.15119,-15.77053 -2.9752,-3.39937 -8.17564,-8.01782 -9.88652,-8.78011 -0.78438,-0.34948 -2.05711,9.18977 -1.66633,12.48926 0.75099,6.34102 8.02177,17.09214 13.41851,19.84164 l 3.123,1.59109 0.52146,-1.38368 c 0.2868,-0.76101 0.57527,-4.35546 0.64107,-7.98767 z m 371.11512,4.18187 4.07335,-1.37559 -1.3118,-1.84225 c -2.50072,-3.51196 -11.26064,-11.12575 -14.78361,-12.84938 -3.99616,-1.95514 -18.28514,-5.10794 -18.65708,-4.11661 -0.51557,1.37424 4.55004,10.2583 6.84904,12.01183 1.94472,1.48331 8.46002,4.75432 17.38253,8.72689 2.18755,0.97397 1.82901,1.00482 6.44757,-0.55489 z m -317.6093,-1.48777 c 13.19856,-5.65037 15.87633,-7.59071 18.94742,-13.72946 3.12671,-6.24991 3.10368,-6.33825 -1.46868,-5.63472 -7.27246,1.119 -13.97245,3.29722 -17.76548,5.77572 -3.53931,2.3127 -13.77943,12.24282 -13.2111,12.81116 0.40997,0.40997 6.73071,2.8411 7.58146,2.91603 0.4199,0.037 3.08228,-0.92544 5.91638,-2.13873 z m 392.69597,-11.68648 c -0.77411,-7.01005 -3.0359,-17.78096 -4.58974,-21.85693 -0.70076,-1.83824 -0.76082,-1.85963 -2.02028,-0.71984 -2.51775,2.27854 -1.26832,16.27978 2.02965,22.74431 2.00136,3.92303 4.6871,7.90144 5.07332,7.51522 0.17605,-0.17606 -0.0457,-3.63328 -0.49295,-7.68276 z M 119.89521,248.0845 c 3.67489,-7.33693 4.93494,-19.78158 2.33729,-23.08395 l -1.2569,-1.59789 -1.01216,3.13765 c -2.48663,7.70841 -4.99785,21.5211 -4.99247,27.46058 l 0.002,1.97212 1.30879,-1.64344 c 0.71985,-0.90389 2.34599,-3.71418 3.61366,-6.24507 z m 426.49492,1.55439 c 0.78973,-0.41052 1.54789,-0.84301 1.68479,-0.96107 0.67392,-0.58115 -4.48066,-7.2604 -8.60727,-11.15325 -6.9707,-6.57581 -8.75955,-7.21444 -19.80756,-7.07138 -5.00611,0.0648 -9.26725,0.28309 -9.46922,0.48506 -0.20196,0.20197 1.05963,1.62803 2.80355,3.16903 9.38417,8.29222 14.45657,11.2191 24.97094,14.40869 6.98179,2.11798 6.60676,2.068 8.42477,1.12292 z M 170.89938,247.7029 c 3.75298,-1.11379 8.74642,-3.03938 11.09654,-4.27909 3.95527,-2.08643 15.85298,-11.34413 16.29908,-12.68243 0.26554,-0.7966 -13.49928,-1.64582 -17.06076,-1.05255 -4.24314,0.7068 -7.28304,2.49781 -12.34568,7.27365 -4.0351,3.80651 -9.18025,10.4903 -8.50628,11.05008 0.56204,0.46683 2.90721,1.67683 3.28596,1.69541 0.22415,0.0109 3.47816,-0.89129 7.23114,-2.00507 z m 405.84236,-17.02908 c 1.11854,-1.23599 1.12274,-1.45751 0.0794,-4.18942 -1.62292,-4.24958 -4.75908,-7.36914 -8.61646,-8.5709 -6.32111,-1.96931 -16.11538,-3.16284 -23.33688,-2.84382 -9.28712,0.41026 -9.4623,0.50303 -7.51797,3.9818 0.84939,1.51972 2.61035,4.00852 3.91324,5.53066 2.90525,3.39413 5.63851,4.29906 17.22733,5.70364 4.61974,0.55991 9.28698,1.12557 10.37165,1.25702 5.00665,0.60674 6.71462,0.41838 7.87968,-0.86898 z M 152.16696,229.3468 c 4.74516,-0.67404 9.6512,-1.65325 10.90233,-2.17599 2.32321,-0.97071 5.77718,-4.78864 8.24231,-9.11087 1.76325,-3.09158 1.45292,-3.23862 -7.72222,-3.65891 -7.33442,-0.33596 -20.61282,1.43961 -25.24739,3.37605 -2.52139,1.05351 -5.8268,5.1681 -6.9948,8.70713 -0.64939,1.96769 -0.58653,2.47719 0.4465,3.61867 1.08646,1.20053 1.71023,1.28714 6.474,0.899 2.89943,-0.23624 9.15411,-0.98102 13.89927,-1.65508 z m 433.8943,-7.60018 c 0.21715,-0.56589 -0.88372,-3.98829 -2.44639,-7.60534 -2.50885,-5.80712 -3.15957,-6.76301 -5.56266,-8.17131 -3.02527,-1.77293 -10.21773,-4.40811 -10.70406,-3.92177 -0.17168,0.17167 0.69036,2.0213 1.91564,4.11031 2.11499,3.60588 14.47477,16.61701 15.78513,16.61701 0.33963,0 0.79518,-0.463 1.01234,-1.0289 z m -455.56555,-6.0379 c 5.71551,-5.66207 11.48616,-13.44507 10.6148,-14.31644 -0.52353,-0.52354 -8.42656,2.30834 -11.03192,3.95303 -2.05319,1.29613 -2.91676,2.62967 -5.2666,8.13287 -2.58057,6.04351 -3.00241,8.63996 -1.40371,8.63996 0.33962,0 3.52896,-2.88424 7.08743,-6.40942 z"
     id="path42" />
  <path
     style="fill:#ff5555;fill-opacity:1;stroke-width:1.10205"
     d="m 231.57747,395.9212 c -19.26776,-4.40216 -38.42866,-19.09748 -48.59535,-37.26982 l -3.61585,-6.46314 3.75816,0.79819 c 5.13225,1.09002 111.20859,31.22052 113.96344,32.37079 1.96388,0.82 1.70276,1.17614 -2.39589,3.2676 -2.52999,1.29101 -8.48108,3.66821 -13.22463,5.28268 -7.60071,2.5869 -10.65262,2.977 -25.70646,3.28581 -12.19883,0.25025 -19.11187,-0.11339 -24.18342,-1.27211 z"
     id="path44" />
  <path
     style="fill:#ff5555;fill-opacity:1;stroke-width:1.10205"
     d="m 440.47483,397.60184 c -8.97534,-1.09533 -16.47576,-3.41577 -24.86508,-7.69263 -4.10537,-2.09292 -5.56969,-3.33016 -4.45943,-3.76789 7.18639,-2.8333 116.34988,-33.19456 116.63858,-32.44028 0.47632,1.2445 -4.49763,9.8914 -9.59857,16.68649 -7.41109,9.87252 -25.64146,21.8439 -38.71274,25.42159 -7.50343,2.05373 -28.83115,3.03404 -39.00276,1.79272 z"
     id="path46" />
  <path
     style="fill:#ffccaa;fill-opacity:1;stroke-width:1.10205"
     d="m 335.65971,702.34014 c -7.87968,-4.11965 -25.48497,-13.21422 -39.12287,-20.21016 -13.6379,-6.99595 -30.25134,-15.85826 -36.91876,-19.69403 -12.30033,-7.07639 -62.09877,-37.98055 -63.67913,-39.51831 -0.47417,-0.46139 0.62567,-3.83756 2.44409,-7.50261 8.13389,-16.39396 7.1842,-29.11769 -2.94346,-39.43557 -2.88795,-2.94219 -15.06411,-12.70175 -27.05813,-21.6879 -17.73164,-13.28488 -22.48186,-16.33846 -25.41654,-16.33846 -2.5059,0 -4.48782,-0.92646 -6.48328,-3.03064 l -2.87405,-3.03065 -0.71325,-95.32755 c -0.41009,-54.80948 -0.29876,-95.91903 0.26193,-96.71911 0.75765,-1.08115 5.62949,-0.0781 21.84049,4.4967 l 20.86532,5.88825 4.95924,8.85155 c 6.67302,11.91043 10.65711,16.62576 20.11286,23.80438 17.10278,12.98411 28.26154,16.57166 51.52056,16.56391 18.91148,-0.006 25.87767,-1.28019 38.97412,-7.1271 5.37334,-2.39893 10.34419,-4.21233 11.04633,-4.02978 0.70213,0.18255 12.2993,7.00995 25.77147,15.17202 l 24.49488,14.84011 v 114.19627 c 0,111.12878 -0.78689,177.39401 -2.106,177.3504 -0.35702,-0.0118 -7.09614,-3.39207 -14.97582,-7.51172 z"
     id="path48" />
  <path
     style="fill:#ffccaa;fill-opacity:1;stroke-width:1.10205"
     d="m 354.94563,564.02215 c 0,-136.48674 0.11009,-144.84425 1.9286,-146.41565 1.06072,-0.91659 12.71465,-7.94366 25.89762,-15.61572 l 23.96904,-13.94919 6.44871,3.2553 c 13.30425,6.71597 19.17824,8.06 37.77208,8.64269 20.57918,0.6449 29.59564,-0.94291 42.60772,-7.50327 15.74641,-7.93893 26.71367,-18.66137 34.85696,-34.07884 l 3.76301,-7.1244 21.5834,-6.2488 21.5834,-6.2488 v 96.51787 96.51786 l -2.96132,3.09095 c -1.984,2.07086 -4.07668,3.09095 -6.34094,3.09095 -2.64251,0 -8.311,3.68895 -25.9897,16.91358 -24.94226,18.65819 -31.97185,25.49536 -34.127,33.19284 -1.99883,7.13907 -0.89943,17.73385 2.64315,25.47186 2.80152,6.11932 2.84279,6.47303 0.96325,8.2553 -5.55223,5.26487 -44.84521,31.65046 -59.58547,40.01217 -11.0343,6.25944 -92.4068,46.97242 -93.88315,46.97242 -0.76538,0 -1.12936,-46.65099 -1.12936,-144.74912 z"
     id="path50" />
  <path
     style="fill:#ffccaa;fill-opacity:1;stroke-width:1.10205"
     d="m 349.9864,413.77953 c -1.81839,-0.96662 -13.11456,-7.67323 -25.10261,-14.90359 -11.98806,-7.23035 -24.63411,-14.12782 -28.10235,-15.32771 -14.62979,-5.06141 -177.27991,-51.67898 -180.30952,-51.67898 -1.59349,0 -1.77377,-3.59548 -1.77377,-35.37508 v -35.3751 l 3.95338,-6.40498 c 5.09004,-8.24652 6.95868,-13.59811 7.01877,-20.10099 0.0266,-2.87911 0.54719,-5.23475 1.15686,-5.23475 0.70843,0 0.86403,3.28124 0.43113,9.09194 -0.65476,8.78867 -0.55362,9.32919 3.03208,16.2052 2.37855,4.56117 5.41777,8.41626 8.47096,10.74501 6.2543,4.77031 8.69071,4.73951 9.60262,-0.1214 0.79452,-4.23514 0.13573,-15.35452 -1.13351,-19.1321 -0.78705,-2.34247 -0.36272,-2.24198 6.84499,1.62095 l 7.68406,4.11823 -2.58091,5.54239 c -1.41949,3.04831 -2.58574,6.42618 -2.59166,7.50638 -0.019,3.45754 2.96338,9.23371 7.17372,13.89406 3.81606,4.22393 4.48827,4.52992 9.9513,4.52992 4.76997,0 5.98121,-0.38573 6.51755,-2.07557 0.93743,-2.95357 -1.18152,-11.4743 -4.4646,-17.95315 -1.54338,-3.04571 -2.60246,-5.74132 -2.35352,-5.99027 0.24893,-0.24893 2.69785,0.37954 5.44204,1.39661 l 4.98943,1.84921 0.54134,9.4943 c 0.58294,10.2239 2.02079,14.08159 7.6294,20.46946 4.94194,5.62855 6.79355,6.37661 11.21293,4.53007 3.20137,-1.33761 3.8083,-2.20815 4.34875,-6.23745 0.77657,-5.78981 -0.33711,-8.82221 -5.991,-16.31254 -2.43698,-3.22855 -4.22438,-6.0766 -3.97199,-6.32898 0.2524,-0.25239 3.89255,0.70494 8.08925,2.12742 l 7.63034,2.58632 -0.36506,5.53962 c -0.42602,6.46446 1.40139,10.64836 9.15745,20.9662 6.36881,8.47239 9.98482,11.10734 16.46099,11.995 l 5.05307,0.69261 -0.007,-4.83352 c -0.009,-7.26864 -1.60323,-11.69626 -7.66912,-21.30239 -3.03225,-4.80197 -5.39463,-8.84939 -5.24976,-8.99427 0.14488,-0.14487 3.55342,0.52377 7.57453,1.48588 l 7.31111,1.7493 0.73432,6.70577 c 0.82079,7.49548 5.04756,14.99929 12.83586,22.78758 6.4805,6.4805 18.63284,11.20012 18.63284,7.23644 0,-3.31281 -3.27263,-11.99948 -6.49169,-17.23112 -1.88427,-3.06307 -3.42632,-5.82246 -3.42632,-6.13198 0,-0.30953 1.59235,0.26065 3.53854,1.26707 5.2659,2.72311 31.08738,3.59229 35.70962,1.20204 6.09866,-3.15374 6.70035,-4.812 3.10694,-8.56271 -7.53641,-7.86632 -23.48349,-11.70771 -36.77211,-8.85781 -3.24755,0.69647 -6.05931,1.11164 -6.24835,0.92259 -0.18905,-0.18905 3.45778,-3.0509 8.10405,-6.35966 6.34081,-4.51548 9.11794,-7.32728 11.13475,-11.27366 1.47783,-2.89176 2.32535,-5.61934 1.88339,-6.06129 -0.44195,-0.44196 -5.10156,-0.80357 -10.35468,-0.80357 h -9.55112 l -7.92917,5.27902 c -9.15998,6.09847 -13.56086,10.85036 -13.56086,14.64249 0,1.8159 -0.61722,2.66454 -1.92859,2.65169 -2.23057,-0.0218 -17.86775,-3.98137 -18.59482,-4.70843 -0.26827,-0.26828 5.19821,-2.84234 12.14776,-5.72014 13.41367,-5.55458 16.07249,-7.54282 18.79255,-14.05286 3.51641,-8.41594 2.2046,-9.62964 -10.4169,-9.63793 -5.87996,-0.004 -8.15056,0.56238 -12.67361,3.16052 -7.96084,4.5729 -16.74792,13.62781 -18.32149,18.87993 -0.77431,2.58441 -1.99348,4.38343 -2.9706,4.38343 -2.33985,0 -13.42315,-3.5794 -13.41972,-4.33396 0.002,-0.3439 3.83997,-2.60898 8.52979,-5.03349 9.21481,-4.76381 13.96621,-10.02902 15.32424,-16.98136 l 0.73382,-3.75672 -6.66505,0.69663 c -10.94378,1.14386 -17.96994,4.43283 -26.66255,12.48086 l -7.79809,7.21983 -7.83442,-3.27076 c -4.30893,-1.79891 -7.40751,-3.51592 -6.88573,-3.81558 0.52178,-0.29965 3.48039,-1.37071 6.57468,-2.38013 9.02944,-2.94559 26.88457,-15.43446 26.88457,-18.80457 0,-3.26386 -19.20046,-3.78819 -25.97909,-0.70943 -4.74577,2.15546 -11.3162,8.05692 -16.03559,14.40293 l -2.83833,3.81659 -9.53302,-6.00412 c -5.24316,-3.30227 -9.53302,-6.37409 -9.53302,-6.82625 0,-0.98101 2.14028,-1.45324 13.75565,-3.035 4.83803,-0.65884 10.54115,-2.05165 12.6736,-3.09517 3.9091,-1.91288 11.45136,-11.68533 10.71759,-13.88665 -1.05966,-3.17896 -18.49082,-3.52295 -31.61761,-0.62393 -5.94091,1.31203 -10.86859,4.99288 -13.86498,10.35679 -0.78407,1.40358 -1.81389,1.8526 -3.10906,1.35559 -1.60638,-0.61643 -0.71755,-1.94439 5.212,-7.78701 6.0543,-5.96555 13.90119,-17.01233 13.93683,-19.62014 0.006,-0.41622 -3.21316,0.13709 -7.153,1.22958 -3.93984,1.09249 -7.16334,1.60246 -7.16334,1.13327 0,-1.72992 27.82141,-46.95479 33.8354,-55.00087 18.14219,-24.27229 48.56921,-54.909946 66.11115,-66.568799 21.60181,-14.357159 42.36728,-23.292123 40.71185,-17.5175 -1.86394,6.501969 -9.62257,46.781589 -9.23168,47.926989 0.5775,1.69216 2.7192,-7.49975 13.0285,-55.916871 4.38808,-20.608385 8.45615,-38.089695 9.04018,-38.847357 0.82115,-1.065283 12.08605,-1.37686 49.69274,-1.374451 26.747,0.0017 57.86449,0.325825 69.15,0.72025 l 20.5191,0.717136 2.32616,10.575789 c 1.27938,5.816685 5.58808,25.701464 9.57489,44.188397 8.17345,37.900597 9.24239,42.329687 10.02682,41.545247 0.30538,-0.30538 -1.74089,-11.814354 -4.54726,-25.575502 -2.80638,-13.761147 -4.92066,-25.202115 -4.69841,-25.424372 1.89446,-1.894459 24.59395,9.04209 40.05522,19.298488 21.81842,14.47348 55.17187,49.410216 73.71886,77.218306 8.06639,12.09417 27.07782,44.38945 26.48183,44.98544 -0.22144,0.22145 -3.22028,-0.41648 -6.66409,-1.41763 -3.4438,-1.00114 -6.53581,-1.54591 -6.87112,-1.2106 -0.86819,0.86818 2.86439,7.47217 7.65733,13.54801 2.25193,2.85469 3.9185,5.36628 3.70348,5.5813 -0.21502,0.21502 -1.81083,-0.3433 -3.54623,-1.24072 -4.53331,-2.34425 -14.8853,-4.04348 -24.52775,-4.02607 -14.71581,0.0266 -15.89752,1.32553 -9.3393,10.26607 4.71525,6.42809 7.79549,7.80836 21.38877,9.58443 5.75822,0.75236 10.86147,1.71843 11.34055,2.14684 0.8706,0.77851 -3.77607,4.18737 -13.6182,9.99051 l -5.22459,3.08052 -4.89686,-6.30576 c -2.69327,-3.46817 -7.28934,-7.89046 -10.21348,-9.82733 -5.10325,-3.38026 -5.76237,-3.52092 -16.42371,-3.50472 -14.63022,0.0223 -15.90125,0.92305 -9.45403,6.70029 7.93457,7.11004 14.19955,11.09794 22.52718,14.33941 l 7.77927,3.02801 -5.51026,2.39317 c -3.03065,1.31624 -6.50211,2.77683 -7.71437,3.24576 -1.76127,0.6813 -3.65323,-0.51157 -9.41669,-5.93711 -3.96692,-3.73435 -9.03356,-7.65384 -11.25921,-8.70997 -4.70051,-2.23054 -21.47286,-5.80558 -22.48561,-4.79284 -1.06935,1.06936 2.84417,10.37646 5.88048,13.98492 1.5006,1.78335 6.42724,5.07056 10.9481,7.30488 4.52086,2.23433 7.8319,4.43526 7.35786,4.89093 -0.47403,0.45568 -3.69564,1.56049 -7.15914,2.45512 -6.97204,1.80091 -7.81788,1.42136 -9.2121,-4.13365 -0.98496,-3.92443 -8.06204,-11.17729 -16.13953,-16.54044 -6.65222,-4.41684 -13.85728,-5.84329 -21.24964,-4.20702 -4.31828,0.95583 -4.40619,1.07096 -4.30927,5.64299 0.17546,8.27739 4.85529,12.29122 22.21763,19.05578 5.00056,1.94827 9.09193,3.88702 9.09193,4.30834 0,1.08447 -18.64218,5.63226 -19.90029,4.85471 -0.5713,-0.35308 -1.03871,-2.05832 -1.03871,-3.78942 0,-3.68549 -5.86703,-9.31887 -16.09842,-15.45736 -5.82913,-3.49728 -7.17879,-3.85082 -14.46443,-3.78888 -10.41387,0.0885 -11.56398,1.17193 -8.12528,7.65397 2.50816,4.72792 9.16665,10.59072 18.08261,15.92171 5.17908,3.09666 4.82336,3.74996 -0.92669,1.70195 -5.19331,-1.84971 -20.79376,-2.12701 -27.29664,-0.48518 -5.05128,1.27533 -14.7928,7.79657 -15.88039,10.63077 -0.44871,1.16933 0.42007,2.66224 2.53325,4.35311 3.02554,2.42091 4.13319,2.57377 18.68741,2.57892 13.00887,0.004 16.12221,-0.32642 19.56143,-2.07983 2.24961,-1.14692 4.0902,-1.85352 4.0902,-1.57024 0,0.28328 -2.04564,3.9584 -4.54587,8.16691 -2.88312,4.85301 -4.75609,9.51687 -5.1206,12.75072 l -0.57472,5.0989 3.19201,-0.78741 c 9.70987,-2.39527 18.22507,-9.61512 24.79429,-21.02255 2.36016,-4.09839 3.17586,-6.95839 3.18356,-11.16206 l 0.01,-5.65179 7.30031,-1.83379 c 4.01516,-1.00857 7.55451,-1.57956 7.86521,-1.26887 0.31069,0.31071 -1.54532,3.8038 -4.12448,7.76246 -2.57916,3.95863 -5.35285,9.05663 -6.16376,11.32887 -1.63272,4.57503 -2.07017,14.16233 -0.68525,15.01825 0.48722,0.30113 3.09082,0.0555 5.78577,-0.54571 5.96987,-1.33193 11.32215,-6.24216 18.47983,-16.95352 4.88576,-7.31148 5.14306,-8.0732 4.92659,-14.5851 l -0.2284,-6.87075 6.28969,-1.74562 c 3.45932,-0.96009 6.90959,-1.94406 7.66725,-2.1866 2.08458,-0.66732 1.79088,-0.0333 -3.69876,7.9852 -4.69216,6.8536 -5.03715,7.82241 -4.55869,12.80178 0.52627,5.47715 1.56507,6.84143 6.13461,8.05686 3.96018,1.05334 7.09298,-1.00816 11.7021,-7.70039 3.81871,-5.54459 4.34084,-7.16615 5.34562,-16.60152 l 1.11352,-10.45674 4.26344,-1.70589 c 2.34531,-0.93824 4.72368,-1.70589 5.2857,-1.70589 0.56202,0 -0.54722,3.34749 -2.46497,7.43886 -2.42083,5.16466 -3.49812,9.12345 -3.52377,12.94912 l -0.0369,5.51026 6.22079,0.32705 c 6.14281,0.32295 6.26878,0.26768 10.04831,-4.40822 2.10513,-2.60439 4.38899,-5.81848 5.07525,-7.14242 1.92674,-3.71713 1.48065,-10.99973 -0.96774,-15.799 l -2.21548,-4.3427 6.7352,-3.39992 c 3.70437,-1.86996 6.90559,-3.22954 7.11382,-3.02131 0.20823,0.20823 -0.034,2.20844 -0.53849,4.4449 -1.04399,4.62893 -0.221,18.23628 1.15437,19.0863 1.56593,0.9678 9.3831,-3.66323 12.59566,-7.4619 1.68844,-1.9965 4.28499,-6.27332 5.77009,-9.50405 2.41729,-5.25862 2.61862,-6.74448 1.92169,-14.18189 -0.55473,-5.91973 -0.43118,-8.09318 0.42981,-7.56105 0.66458,0.41073 1.20873,3.07316 1.2092,5.9165 8.8e-4,5.22905 4.15196,15.70211 8.82462,22.26425 2.07985,2.92089 2.19496,4.89533 2.19347,37.62719 l -10e-4,34.54454 -65.29507,18.64533 c -114.68033,32.74755 -120.0863,34.47498 -135.02653,43.14659 -32.17369,18.67428 -38.95223,22.51226 -39.68764,22.47098 -0.43238,-0.0242 -2.27392,-0.83499 -4.09231,-1.8016 z m -69.01745,-306.46148 1.33445,-4.69169 71.8078,0.28348 71.80781,0.28348 1.62556,5.23475 c 0.89406,2.87911 2.06783,5.23475 2.6084,5.23475 0.54056,0 0.73328,-0.86787 0.42829,-1.92859 -0.30499,-1.06073 -2.14451,-7.69984 -4.0878,-14.753583 l -3.53328,-12.824989 -36.48689,-0.764834 c -54.32836,-1.138822 -99.68271,-0.447379 -100.90853,1.538388 -0.94911,1.5375 -7.76281,26.296868 -7.76281,28.208198 0,2.11303 1.90796,-1.39285 3.167,-5.81936 z"
     id="path52" />
  <path
     style="fill:#ffccaa;fill-opacity:1;stroke-width:1.10205"
     d="m 60.311565,411.04774 c -0.393827,-5.54827 -0.696361,-19.0622 -0.672296,-30.03093 l 0.04376,-19.94316 22.177397,-16.53079 c 12.197568,-9.09194 24.080044,-17.93749 26.405504,-19.65678 l 4.22811,-3.12598 v 5.05458 c 0,4.43556 -0.28983,5.05457 -2.3666,5.05457 h -2.3666 l 0.43801,34.99017 0.43801,34.99018 -14.877707,0.37921 -14.877711,0.37922 -8.265395,9.24785 c -4.545968,5.08632 -8.563077,9.255 -8.926911,9.26374 -0.363833,0.009 -0.983738,-4.5236 -1.377566,-10.07188 z"
     id="path54" />
  <path
     style="fill:#ffccaa;fill-opacity:1;stroke-width:1.10205"
     d="m 47.328097,528.5748 c -1.594984,-0.86662 -3.27173,-2.45853 -3.726103,-3.53754 -1.080666,-2.56632 -2.998612,-54.16818 -2.493975,-67.09977 0.455053,-11.66097 -1.857304,-8.09137 23.311921,-35.98676 l 16.665602,-18.47071 19.285918,0.28684 19.28593,0.28684 0.28589,54.2761 c 0.15725,29.85185 -0.0907,54.26969 -0.55102,54.26186 -0.46031,-0.008 -3.23988,-3.70771 -6.17683,-8.22196 -2.93694,-4.51426 -7.51316,-10.21097 -10.16936,-12.65938 -4.484287,-4.13347 -5.284138,-4.45087 -11.190891,-4.44087 -4.381224,0.007 -8.076676,0.82165 -11.87169,2.61574 -11.166456,5.27895 -16.124259,14.14229 -16.870063,30.15956 l -0.474658,10.19398 -6.20535,-0.0441 c -3.412944,-0.0242 -7.510338,-0.75317 -9.105321,-1.61981 z"
     id="path56" />
  <path
     style="fill:#ffccaa;fill-opacity:1;stroke-width:1.10205"
     d="m 637.62215,412.23828 -8.81643,-9.76232 -14.60219,-0.0377 -14.6022,-0.0377 v -35.26568 c 0,-30.61258 -0.21812,-35.26569 -1.65308,-35.26569 -1.19774,0 -1.65308,-1.23144 -1.65308,-4.4707 0,-5.33389 -3.74173,-7.5154 28.94778,16.87716 l 23.98854,17.89999 -0.69949,29.2044 c -0.38472,16.06241 -1.01313,29.52302 -1.39646,29.91245 -0.38333,0.38942 -4.66436,-3.685 -9.51339,-9.05427 z"
     id="path58" />
  <path
     style="fill:#ffccaa;fill-opacity:1;stroke-width:1.10205"
     d="m 645.30413,521.6964 c -0.0726,-19.15034 -9.10388,-31.10644 -25.56749,-33.84768 -9.29728,-1.54803 -14.76246,2.37688 -25.23096,18.12005 -2.83041,4.25655 -5.3214,7.73917 -5.53554,7.73917 -0.21414,0 -0.38934,-24.54822 -0.38934,-54.5516 v -54.55161 h 19.58688 19.58688 l 17.6074,19.46415 c 9.68407,10.70528 18.472,20.74774 19.52873,22.31657 1.71659,2.54846 1.91607,6.14061 1.872,33.70989 -0.0271,16.97161 -0.42885,34.27553 -0.89271,38.45316 -1.10767,9.97599 -3.04662,11.69079 -13.2167,11.68881 l -7.31676,-10e-4 -0.0324,-8.53949 z"
     id="path60" />
  <path
     style="fill:#ffccaa;fill-opacity:1;stroke-width:0.551026"
     d="m 588.72666,395.16329 c 0.18762,-4.0156 0.50418,-19.39903 0.70347,-34.1854 l 0.36235,-26.88431 4.19237,0.15953 c 3.67454,0.13982 4.18199,0.28414 4.1084,1.16843 -0.0462,0.5549 -0.2669,15.86654 -0.49047,34.02588 l -0.40651,33.01697 h -4.40537 -4.40536 z"
     id="path64" />
  <path
     style="fill:#ffccaa;fill-opacity:1;stroke-width:0.551026"
     d="m 577.78957,445.30669 c 0.23101,-46.14157 0.5734,-89.20966 0.76087,-95.70688 l 0.34085,-11.81311 3.84126,-0.96826 c 2.11269,-0.53254 3.94356,-0.86595 4.0686,-0.74091 0.12503,0.12504 -0.0574,37.61577 -0.40535,83.31274 -0.34799,45.69697 -0.62909,87.06222 -0.62469,91.92277 l 0.008,8.83736 -3.62046,4.52503 c -1.99126,2.48876 -3.88341,4.52502 -4.20479,4.52502 -0.41102,0 -0.45974,-24.88139 -0.1643,-83.89376 z"
     id="path66" />
  <path
     style="fill:#ffccaa;fill-opacity:1;stroke-width:0.551026"
     d="m 110.79156,373.12224 c -0.002,-15.83512 -0.16294,-31.20876 -0.35862,-34.16363 l -0.35577,-5.37251 h 4.49132 4.49132 v 15.88981 c 0,8.7394 0.16408,24.11303 0.36463,34.16364 l 0.36464,18.27381 h -4.49734 -4.49733 z"
     id="path68" />
  <path
     style="fill:#ffccaa;fill-opacity:1;stroke-width:0.551026"
     d="m 127.43455,525.41828 c -1.60671,-1.92866 -3.29598,-4.0785 -3.75393,-4.77742 -0.72031,-1.09934 -0.89967,-8.76565 -1.32958,-56.83073 -0.27333,-30.55798 -0.50576,-72.00713 -0.51653,-92.10924 l -0.0196,-36.54928 1.77899,0.39073 c 0.97844,0.21491 2.77616,0.67926 3.99494,1.03189 l 2.21595,0.64115 0.40248,37.7215 c 0.22137,20.74682 0.34535,63.88147 0.27552,95.85478 l -0.12697,58.13328 z"
     id="path70" />
  <path
     style="fill:#ffccaa;fill-opacity:1;stroke-width:0.551026"
     d="m 122.30008,607.03292 c -10.06784,-10.14763 -16.66791,-17.23275 -17.324,-18.59714 -0.78677,-1.63617 -1.10866,-3.71134 -1.24923,-8.05356 -0.17847,-5.51324 -0.0909,-6.08592 1.52334,-9.96352 6.32383,-15.19051 18.81047,-25.6975 35.59179,-29.94901 l 3.87382,-0.98143 18.89926,14.00426 18.89927,14.00426 -4.03819,0.43341 c -6.23314,0.66899 -13.04367,2.41106 -16.9873,4.34519 -2.63728,1.29343 -5.04628,3.21969 -9.13623,7.30542 -5.93187,5.92575 -8.62511,10.27627 -12.13357,19.6 -1.49431,3.9711 -1.55595,4.52588 -1.57645,14.18871 -0.0117,5.53081 -0.0342,10.05611 -0.0499,10.05623 -0.0157,1.2e-4 -7.34738,-7.37665 -16.29264,-16.39282 z"
     id="path72" />
  <path
     style="fill:#ffccaa;fill-opacity:1;stroke-width:0.551026"
     d="m 570.03666,613.92041 c -0.0434,-10.15715 -0.4087,-11.6927 -5.1458,-21.62744 -6.61701,-13.87733 -19.57864,-23.0662 -33.11232,-23.47425 -6.67391,-0.20122 -7.32716,0.52642 13.24334,-14.75155 l 18.82374,-13.98065 3.66565,0.9701 c 17.22904,4.55957 29.72304,15.28304 35.93937,30.84638 1.64465,4.11759 1.73844,4.71316 1.4317,9.09193 -0.45201,6.45282 -1.1089,8.33279 -4.18965,11.99058 -3.41017,4.04892 -29.44496,29.88953 -30.11367,29.88908 -0.28258,-2e-4 -0.52095,-3.9355 -0.54236,-8.95418 z"
     id="path74" />
  <path
     style="fill:#ffccaa;fill-opacity:1;stroke-width:0.551026"
     d="m 540.59496,636.6988 c -3.6082,-1.1841 -6.06874,-2.30571 -6.0417,-2.75404 0.0108,-0.17865 1.64148,-1.31667 3.62379,-2.52892 1.98231,-1.21226 5.50696,-3.96973 7.83254,-6.12771 l 4.22833,-3.9236 -0.0225,-5.16833 c -0.0205,-4.71194 -0.18631,-5.50895 -1.87725,-9.02552 -2.53857,-5.27937 -7.29238,-9.89384 -13.32952,-12.93884 -4.44841,-2.24368 -4.74598,-2.31403 -8.60978,-2.03563 -5.33963,0.38474 -7.60885,1.58984 -10.31627,5.47859 -2.35782,3.3866 -4.84762,7.88799 -5.86193,10.59793 l -0.61873,1.65308 -0.83662,-1.92859 c -1.46689,-3.38151 -2.08185,-10.5093 -1.34366,-15.574 0.80488,-5.5223 2.60231,-9.34305 6.29727,-13.38592 6.66136,-7.2886 13.0494,-9.21942 23.45537,-7.08953 6.90814,1.41396 10.63469,3.57464 17.03077,9.87458 5.2431,5.16428 5.82308,5.96012 8.64347,11.86036 4.12786,8.63546 4.90427,11.89679 4.89155,20.54709 -0.0103,7.00879 -0.0248,7.08827 -2.03044,11.14646 -2.44692,4.951 -6.4239,9.17952 -10.35452,11.00942 -3.65684,1.70245 -10.10949,1.83934 -14.76015,0.31312 z"
     id="path76" />
  <path
     style="fill:#ffccaa;fill-opacity:1;stroke-width:0.551026"
     d="m 154.71011,636.40596 c -4.95486,-1.76735 -9.40257,-6.11209 -12.12551,-11.84475 -1.46989,-3.09461 -1.71641,-4.29942 -1.92737,-9.4196 -0.54581,-13.24729 3.96074,-24.53868 13.63156,-34.15458 2.92703,-2.9104 6.01546,-5.37538 8.1291,-6.48809 7.13863,-3.75807 17.16244,-5.04899 22.7422,-2.92885 6.40084,2.43213 12.98555,9.24772 14.96345,15.48813 1.89113,5.96662 1.5901,14.934 -0.70057,20.86976 -0.55348,1.4342 -0.56688,1.42451 -1.53789,-1.11196 -1.11819,-2.92092 -4.42283,-8.58886 -6.77507,-11.62023 -2.93448,-3.78173 -10.77633,-4.9242 -16.26378,-2.36945 -6.01563,2.80065 -11.55003,7.67412 -14.15946,12.46849 -2.68345,4.93038 -3.44926,11.2858 -1.86378,15.46728 0.65853,1.73677 5.85157,6.2712 11.069,9.66517 2.04568,1.33073 3.71943,2.62493 3.71943,2.87599 0,0.53466 -4.27431,2.42496 -7.43886,3.28982 -2.99821,0.8194 -8.91125,0.72287 -11.46245,-0.18713 z"
     id="path78" />
  <path
     style="fill:#ffdd55;fill-opacity:1;stroke-width:0.779269"
     d="m 93.794152,570.60638 c -9.079909,-7.33098 -21.145833,-19.43111 -23.549748,-23.6165 -2.951219,-5.13828 -4.40624,-11.66709 -4.950581,-22.21369 -0.393199,-7.61822 -0.231954,-10.2189 0.868225,-14.00339 4.007702,-13.786 11.785902,-20.51178 24.586,-21.25941 5.515113,-0.32213 6.023984,-0.21026 9.028756,1.98484 3.891756,2.84307 8.910856,9.45767 16.936816,22.32082 3.43052,5.49805 9.10685,13.12362 12.98675,17.44634 l 6.89254,7.67919 -5.97333,2.44259 c -11.13851,4.55472 -22.52231,16.17538 -27.40805,27.97834 -1.38141,3.33723 -2.5988,6.16581 -2.7053,6.28573 -0.10651,0.11992 -3.126939,-2.15026 -6.712078,-5.04486 z"
     id="path80" />
  <path
     style="fill:#ffdd55;fill-opacity:1;stroke-width:0.779269"
     d="m 163.29892,622.567 -3.42784,-2.9577 0.52805,-4.49291 c 0.71519,-6.08515 2.7424,-10.34711 6.81362,-14.32477 5.95805,-5.82113 13.53507,-8.34248 18.91898,-6.29552 1.76804,0.67221 6.70055,6.43665 6.70055,7.83069 0,0.30483 -1.54067,0.20168 -3.42371,-0.22922 -3.08062,-0.70494 -3.92971,-0.54666 -8.47328,1.57953 -9.37147,4.38544 -13.00623,9.1085 -13.04721,16.9537 -0.0258,4.93376 -0.75737,5.24243 -4.58916,1.9362 z"
     id="path82" />
  <path
     style="fill:#ffdd55;fill-opacity:1;stroke-width:0.779269"
     d="m 172.88276,629.77527 c -2.94886,-1.969 -3.65944,-11.18159 -1.21413,-15.74113 0.78934,-1.4718 3.3885,-4.05721 5.77592,-5.74534 5.35364,-3.78556 10.6077,-4.6196 15.42284,-2.44828 3.03748,1.36971 3.08196,1.45048 3.08196,5.5961 0,5.54764 -1.38072,7.97699 -6.9844,12.28892 -7.15433,5.50514 -13.38666,7.84959 -16.08219,6.04973 z"
     id="path84" />
  <path
     style="fill:#ffdd55;fill-opacity:1;stroke-width:0.779269"
     d="m 526.41123,629.00807 c -2.2873,-1.17857 -6.30279,-4.11483 -8.9233,-6.52503 l -4.76456,-4.38218 -6e-4,-5.29334 -6e-4,-5.29334 4.36739,-1.57837 c 4.25826,-1.53894 4.45906,-1.54338 8.03542,-0.17755 4.69637,1.79356 9.71278,5.62279 11.60063,8.85523 1.48746,2.54688 2.04316,9.92308 0.99611,13.22203 -0.50953,1.60539 -3.49434,3.31541 -5.78701,3.31541 -0.75061,0 -3.23618,-0.96429 -5.52348,-2.14286 z"
     id="path86" />
  <path
     style="fill:#ffdd55;fill-opacity:1;stroke-width:0.779269"
     d="m 540.38622,621.77467 c 0,-8.17991 -3.31812,-12.86285 -12.21974,-17.246 -4.24539,-2.09042 -5.29647,-2.30574 -8.86175,-1.81539 l -4.04505,0.55634 1.45868,-2.47058 c 2.49855,-4.2318 4.47241,-5.55621 8.97306,-6.02072 5.42086,-0.55948 10.2047,1.59159 15.89527,7.14736 3.11031,3.03664 4.41511,5.03308 5.35257,8.18985 2.01544,6.78672 1.69241,8.88999 -1.97668,12.87049 -1.76897,1.91911 -3.52233,3.48929 -3.89634,3.48929 -0.37401,0 -0.68002,-2.11528 -0.68002,-4.70064 z"
     id="path88" />
  <path
     style="fill:#ffdd55;fill-opacity:1;stroke-width:0.779269"
     d="m 606.95667,574.45911 c -0.21876,-0.75004 -1.84802,-4.34442 -3.62056,-7.9875 -4.50812,-9.26547 -13.82068,-18.63901 -23.1026,-23.25387 -3.58556,-1.7827 -7.0387,-3.24128 -7.67364,-3.24128 -0.63493,0 1.82107,-3.2437 5.45779,-7.20823 3.98059,-4.3394 9.47054,-11.70534 13.79401,-18.50764 12.95976,-20.39011 17.26495,-24.53074 25.33254,-24.36426 4.51703,0.0932 11.40947,2.47875 15.16311,5.2481 3.93613,2.90398 7.70167,8.72628 9.52409,14.72617 1.43105,4.71143 1.5762,6.62844 1.18088,15.5958 -0.74825,16.97333 -2.73202,21.60511 -14.07698,32.8675 -7.8612,7.804 -19.39534,17.48893 -20.82821,17.48893 -0.41397,0 -0.93166,-0.61367 -1.15043,-1.36372 z"
     id="path90" />
  <path
     style="fill:#ffdd55;fill-opacity:1;stroke-width:0.779269"
     d="m 122.60834,221.60759 c -0.21256,-2.37228 0.39249,-4.45096 2.8467,-9.77994 2.5112,-5.45274 2.78842,-5.74705 7.52303,-7.98689 4.48102,-2.11988 8.42246,-3.00093 8.42246,-1.88272 0,1.14837 -5.47312,8.18351 -10.40896,13.37967 -5.88336,6.19364 -8.23263,7.95068 -8.38323,6.26988 z"
     id="path92" />
  <path
     style="fill:#ffdd55;fill-opacity:1;stroke-width:0.779269"
     d="m 115.23264,250.2183 c 0.44886,-6.37392 1.72592,-13.28726 4.08554,-22.11703 l 1.329,-4.97312 1.41508,1.74756 c 1.0778,1.33102 1.41508,3.10044 1.41508,7.42365 0,7.02543 -2.0901,14.09435 -5.87421,19.86711 l -2.80951,4.28598 z"
     id="path94" />
  <path
     style="fill:#ffdd55;fill-opacity:1;stroke-width:0.779269"
     d="m 131.24793,229.52637 c -0.67861,-1.26799 -0.50611,-2.32305 0.83162,-5.08643 2.36311,-4.88153 5.50114,-6.97397 12.82769,-8.55349 6.54363,-1.41074 24.91524,-2.01835 26.68416,-0.88253 1.37654,0.88386 -1.17287,5.57627 -5.08692,9.3629 -3.45663,3.34413 -5.1196,3.86141 -17.93563,5.57908 -12.48185,1.67288 -16.24995,1.58161 -17.32092,-0.41953 z"
     id="path96" />
  <path
     style="fill:#ffdd55;fill-opacity:1;stroke-width:0.779269"
     d="m 141.74244,264.73277 c -3.6058,-2.19885 -8.05535,-7.7059 -10.66643,-13.20147 -2.14011,-4.50431 -2.3077,-5.44735 -1.97855,-11.13323 0.19779,-3.41663 0.75184,-6.6043 1.23124,-7.08369 0.64266,-0.64266 2.51641,0.72898 7.13288,5.22148 7.85229,7.64142 9.39732,10.66415 9.38319,18.35744 -0.0175,9.54997 -0.6653,10.54521 -5.10233,7.83947 z"
     id="path98" />
  <path
     style="fill:#ffdd55;fill-opacity:1;stroke-width:0.779269"
     d="m 168.6995,280.78235 c -2.69488,-1.36364 -7.58208,-8.05722 -9.01122,-12.34189 -1.1287,-3.38392 -1.10315,-3.85597 0.43071,-7.95556 0.89683,-2.397 2.28311,-5.16157 3.08061,-6.14349 l 1.45001,-1.7853 2.20748,1.58311 c 1.34579,0.96515 3.86168,4.85141 6.4452,9.95583 3.35843,6.63547 4.30758,9.33867 4.57445,13.02818 l 0.33675,4.65546 -3.79519,-0.0115 c -2.08735,-0.006 -4.66081,-0.44951 -5.7188,-0.98486 z"
     id="path100" />
  <path
     style="fill:#ffdd55;fill-opacity:1;stroke-width:0.779269"
     d="m 161.27959,248.76176 c -1.39362,-1.01904 -1.33207,-1.23994 1.37159,-4.92306 3.92703,-5.34969 10.10232,-10.95895 14.02536,-12.73978 2.57339,-1.16818 5.00957,-1.48874 11.09049,-1.45936 10.67084,0.0516 11.33584,0.39434 7.61781,3.92663 -3.65672,3.47405 -10.68101,8.64665 -14.06229,10.35529 -2.87035,1.45046 -16.17462,5.90719 -17.63419,5.90719 -0.52233,0 -1.60628,-0.48011 -2.40877,-1.06691 z"
     id="path102" />
  <path
     style="fill:#ffdd55;fill-opacity:1;stroke-width:0.779269"
     d="m 189.91002,260.90964 c -1.82154,-0.6999 -3.31189,-1.50243 -3.31189,-1.78339 0,-1.19915 13.12995,-12.96981 15.97501,-14.32118 5.92321,-2.81345 19.09209,-5.51438 19.09209,-3.91577 0,0.22652 -1.03344,2.45907 -2.29652,4.96123 -3.3279,6.59253 -7.11086,9.39387 -19.46395,14.41338 -5.75588,2.33883 -5.6125,2.32956 -9.99474,0.64573 z"
     id="path104" />
  <path
     style="fill:#ffdd55;fill-opacity:1;stroke-width:0.779269"
     d="m 195.62462,291.10654 c -1.844,-1.69974 -4.52958,-5.28286 -5.96794,-7.96249 -2.38027,-4.43437 -2.64308,-5.58965 -2.92527,-12.85957 -0.2793,-7.19519 -0.17526,-7.98751 1.04876,-7.98751 1.80181,0 10.87586,9.3215 14.79297,15.19638 2.7141,4.0706 3.10397,5.20419 3.01572,8.76849 -0.1143,4.61619 -0.91447,5.94913 -4.27441,7.12042 -2.14455,0.74759 -2.61334,0.5601 -5.68983,-2.27572 z"
     id="path106" />
  <path
     style="fill:#ffdd55;fill-opacity:1;stroke-width:0.779269"
     d="m 235.07757,306.61495 c -4.0488,-1.16764 -13.55134,-12.03088 -18.54126,-21.19623 -1.75348,-3.22073 -1.97604,-4.3447 -1.5444,-7.7994 0.73984,-5.92148 1.01061,-6.16636 5.70508,-5.15958 4.81269,1.03214 6.61231,2.70885 12.92944,12.04639 5.46084,8.07184 7.45909,13.11002 7.49508,18.89728 0.0233,3.75111 -0.1203,4.08532 -1.72791,4.02088 -0.96435,-0.0386 -2.90656,-0.40286 -4.31603,-0.80934 z"
     id="path108" />
  <path
     style="fill:#ffdd55;fill-opacity:1;stroke-width:0.779269"
     d="m 217.44782,268.64207 c -0.51475,-0.83288 0.51135,-4.50425 2.13802,-7.6499 1.904,-3.68193 11.8042,-12.39767 17.07334,-15.0307 4.18219,-2.08986 5.52036,-2.36556 11.43084,-2.35502 8.7181,0.0155 9.18739,0.32319 7.83905,5.13899 -1.69537,6.05529 -5.05471,9.02136 -14.94628,13.19655 -15.6507,6.60611 -22.40471,8.52888 -23.53497,6.70008 z"
     id="path110" />
  <path
     style="fill:#ffdd55;fill-opacity:1;stroke-width:0.779269"
     d="m 253.61525,278.3565 -3.50671,-0.93137 -0.23234,-3.96506 c -0.23014,-3.92749 -0.19322,-3.99796 3.89635,-7.43846 4.94635,-4.1613 9.96536,-7.58972 14.42295,-9.85215 4.21994,-2.14181 16.33325,-2.46306 17.10434,-0.45362 0.69503,1.8112 -2.02947,6.36685 -5.81381,9.72133 -3.63392,3.22114 -20.46423,14.05196 -21.64187,13.92721 -0.39721,-0.0421 -2.30022,-0.49562 -4.22891,-1.00788 z"
     id="path112" />
  <path
     style="fill:#ffdd55;fill-opacity:1;stroke-width:0.779269"
     d="m 268.38153,311.53728 c -5.03214,-2.4932 -6.5094,-3.75106 -11.15413,-9.49759 -2.94458,-3.64309 -6.18584,-8.37715 -7.2028,-10.52014 -1.91687,-4.03935 -2.53734,-10.79141 -1.07472,-11.69536 0.43423,-0.26837 2.73133,0.0766 5.10466,0.76651 4.21909,1.22652 4.42545,1.42285 9.26979,8.81909 8.72525,13.32154 13.45087,23.39853 11.52962,24.58593 -0.36965,0.22845 -3.28224,-0.87785 -6.47242,-2.45844 z"
     id="path114" />
  <path
     style="fill:#ffdd55;fill-opacity:1;stroke-width:0.779269"
     d="m 282.4482,292.70943 c -9.20663,-0.54754 -10.69341,-1.20114 -15.17599,-6.67154 l -2.79593,-3.41207 1.77773,-1.11598 c 3.66091,-2.29818 8.17817,-3.14772 16.97346,-3.1921 4.94431,-0.025 10.70926,0.40545 12.86022,0.96013 4.26408,1.0996 14.71542,8.22093 14.22488,9.69254 -1.07857,3.23572 -11.9033,4.68825 -27.86437,3.73902 z"
     id="path116" />
  <path
     style="fill:#ffdd55;fill-opacity:1;stroke-width:0.779269"
     d="m 438.12718,272.48531 c -8.39292,-5.56071 -10.99082,-7.72317 -12.95441,-10.78317 -3.65318,-5.69298 -3.43888,-6.13886 3.17798,-6.61229 3.38959,-0.24253 6.89328,-0.0242 8.79475,0.54808 3.67993,1.10749 12.58631,6.81068 17.79267,11.3935 3.3802,2.97537 3.62481,3.44668 3.62481,6.98417 0,3.7198 -0.0568,3.80926 -2.92226,4.60504 -5.40133,1.50003 -6.64894,1.06297 -17.51354,-6.13533 z"
     id="path118" />
  <path
     style="fill:#ffdd55;fill-opacity:1;stroke-width:0.779269"
     d="m 400.70226,291.89448 c -1.60724,-0.86959 -2.92226,-1.92515 -2.92226,-2.34569 0,-1.28559 10.16278,-8.31234 13.44389,-9.29538 9.45867,-2.83389 27.81829,-1.28111 32.41639,2.74164 0.61624,0.53913 -5.07217,6.76714 -7.63892,8.36356 -2.56245,1.59374 -3.84736,1.73401 -17.57073,1.9182 -13.61398,0.18272 -15.0414,0.0714 -17.72837,-1.38233 z"
     id="path120" />
  <path
     style="fill:#ffdd55;fill-opacity:1;stroke-width:0.779269"
     d="m 433.72869,311.32168 c 0.81722,-3.6372 2.66093,-7.45396 6.67114,-13.81033 9.76613,-15.47979 10.52458,-16.24248 16.60461,-16.69746 l 2.72744,-0.2041 0.24244,3.82209 c 0.31854,5.02183 -2.75497,11.28501 -9.37439,19.1031 -3.74033,4.41764 -6.08963,6.38709 -9.96013,8.3497 -6.98198,3.54035 -7.81777,3.47226 -6.91111,-0.563 z"
     id="path122" />
  <path
     style="fill:#ffdd55;fill-opacity:1;stroke-width:0.779269"
     d="m 474.92763,265.52595 c -13.86484,-5.52286 -17.32484,-7.28773 -19.36008,-9.87512 -1.81128,-2.30267 -4.41868,-9.57757 -3.69285,-10.30341 0.98813,-0.98813 10.32058,-1.61002 13.9285,-0.92817 4.55439,0.86073 8.65979,3.20569 15.50925,8.85873 5.58721,4.61126 9.00269,9.53365 9.73155,14.02511 0.44462,2.7399 0.40807,2.78604 -2.18239,2.75519 -1.44902,-0.0173 -7.71931,-2.0568 -13.93398,-4.53233 z"
     id="path124" />
  <path
     style="fill:#ffdd55;fill-opacity:1;stroke-width:0.779269"
     d="m 467.13494,305.67148 c 0,-7.56316 2.30533,-12.76711 11.52686,-26.02026 2.97263,-4.27224 3.85672,-4.99706 7.36643,-6.03933 2.19361,-0.65143 4.43723,-1.18442 4.98581,-1.18442 1.36736,0 2.85924,5.95096 2.38265,9.50415 -0.47037,3.50693 -6.10377,12.21293 -12.07829,18.66613 -4.69103,5.06687 -6.87063,6.47764 -11.28813,7.30637 l -2.89533,0.54317 z"
     id="path126" />
  <path
     style="fill:#ffdd55;fill-opacity:1;stroke-width:0.779269"
     d="m 503.22936,258.41134 c -10.00414,-4.89037 -12.46834,-7.18574 -15.49761,-14.4358 l -1.136,-2.71883 h 2.61324 c 4.08016,0 14.45233,2.91081 18.20163,5.10805 3.76243,2.20493 14.27314,11.97474 14.27314,13.26702 0,0.64178 -7.16627,3.48841 -8.64045,3.43222 -0.17662,-0.007 -4.59291,-2.10043 -9.81395,-4.65266 z"
     id="path128" />
  <path
     style="fill:#ffdd55;fill-opacity:1;stroke-width:0.779269"
     d="m 504.53985,292.68846 c -1.17272,-1.17272 -1.55854,-2.59756 -1.55854,-5.75572 0,-3.62581 0.4411,-4.85773 3.24026,-9.04951 4.59821,-6.88588 12.35943,-14.80699 14.5081,-14.80699 1.68539,0 1.7297,0.19061 1.31315,5.6497 -0.7839,10.27345 -1.18205,12.03685 -3.58404,15.87381 -5.5455,8.85838 -10.35457,11.65308 -13.91893,8.08871 z"
     id="path130" />
  <path
     style="fill:#ffdd55;fill-opacity:1;stroke-width:0.779269"
     d="m 537.24795,248.37857 c -3.65474,-1.19337 -8.73947,-3.29136 -11.2994,-4.66219 -5.61732,-3.00804 -16.18138,-11.59152 -15.54114,-12.62745 0.62294,-1.00795 16.39281,-0.93547 20.09418,0.0923 3.31722,0.92115 13.39855,9.95998 16.24429,14.56449 1.6425,2.65763 1.65018,2.77612 0.24633,3.80263 -1.88668,1.37958 -1.96572,1.37009 -9.74426,-1.16983 z"
     id="path132" />
  <path
     style="fill:#ffdd55;fill-opacity:1;stroke-width:0.779269"
     d="m 530.48747,277.42065 c 0.31837,-3.08471 1.65942,-6.77954 4.58982,-12.64569 4.40695,-8.82199 7.40241,-12.09029 9.49175,-10.35629 1.41991,1.17842 4.01644,6.6614 4.74234,10.01422 0.71865,3.31931 -2.1359,9.6433 -6.35463,14.07811 -3.00805,3.16212 -3.26696,3.26769 -8.01378,3.26769 h -4.90529 z"
     id="path134" />
  <path
     style="fill:#ffdd55;fill-opacity:1;stroke-width:0.779269"
     d="m 559.08867,230.63258 c -4.50028,-0.61638 -9.58501,-1.49149 -11.2994,-1.94469 -5.17609,-1.36828 -13.12581,-10.81076 -10.93517,-12.98853 0.30327,-0.30149 5.16711,-0.51272 10.80853,-0.46941 12.19949,0.0937 20.52794,1.67916 24.42192,4.64924 3.46045,2.63942 6.38905,8.4298 5.21185,10.30477 -1.10947,1.76709 -7.4422,1.92312 -18.20773,0.44862 z"
     id="path136" />
  <path
     style="fill:#ffdd55;fill-opacity:1;stroke-width:0.779269"
     d="m 561.77277,262.60954 c -0.76248,-6.10264 0.0515,-11.60474 2.27727,-15.39333 1.98857,-3.38485 12.23879,-13.75219 13.59682,-13.75219 0.9598,0 1.81732,4.73624 1.86744,10.31427 0.0283,3.15105 -0.55435,5.3083 -2.44577,9.05518 -3.60444,7.14035 -10.52877,14.13911 -13.98874,14.13911 -0.41904,0 -1.0072,-1.96337 -1.30702,-4.36304 z"
     id="path138" />
  <path
     style="fill:#ffdd55;fill-opacity:1;stroke-width:0.779269"
     d="m 577.98952,216.51492 c -6.36469,-6.6264 -10.32889,-11.90094 -10.32889,-13.74304 0,-1.04279 0.36811,-1.05887 2.99804,-0.13098 5.30843,1.87292 9.19858,4.1869 10.57794,6.29208 1.38361,2.11165 5.12647,11.50065 5.12647,12.8598 0,2.13805 -3.16917,0.14052 -8.37356,-5.27786 z"
     id="path140" />
  <path
     style="fill:#ffdd55;fill-opacity:1;stroke-width:0.779269"
     d="m 590.45428,252.55611 c -3.40655,-5.24092 -4.92044,-10.37845 -5.39629,-18.31282 -0.31155,-5.19485 -0.14089,-6.96001 0.79109,-8.18232 1.68822,-2.21413 2.43389,-1.06917 4.31383,6.62378 2.13964,8.75565 3.3724,17.10345 3.06942,20.78502 l -0.24546,2.98268 z"
     id="path142" />
  <path
     style="fill:#ffccaa;fill-opacity:1;stroke-width:0.137757"
     d="m 382.19258,252.01427 v -84.03152 h 87.7861 87.7861 l 0.6086,0.99874 c 6.77926,11.12515 13.45967,22.54242 17.0184,29.08559 0.73711,1.35528 1.45785,2.65708 1.60165,2.89289 0.38642,0.63369 0.33806,0.77315 -0.26804,0.77315 -0.47158,0 -4.04016,-0.85642 -7.73488,-1.85629 -3.19248,-0.86395 -5.39146,-1.13161 -5.56574,-0.67746 -0.41966,1.09363 2.9522,7.07012 6.86994,12.17671 0.7266,0.94708 1.86061,2.46584 2.52003,3.37504 1.34854,1.85934 3.26321,3.79209 7.05208,7.11873 1.32237,1.16102 2.52575,2.3199 2.6742,2.57527 0.26436,0.45475 0.26463,0.47414 0.0135,0.94032 -0.33825,0.62809 -1.82454,1.99591 -2.11137,1.94307 -0.21796,-0.0401 -1.01951,-1.52267 -2.10795,-3.89873 -1.14697,-2.50387 -3.27267,-5.05042 -4.53029,-5.42721 -0.32903,-0.0986 -1.31443,-0.51742 -2.18978,-0.93076 -2.02184,-0.95472 -3.45955,-1.46244 -5.79309,-2.04582 -5.53186,-1.38296 -12.39659,-2.13404 -19.49256,-2.13272 -5.49013,9.7e-4 -9.14756,0.32503 -10.84716,0.96094 -0.82039,0.30694 -1.57881,0.96114 -1.70717,1.47255 -0.38274,1.52494 0.74194,3.83153 3.96703,8.13591 4.38303,5.84985 7.46816,7.29828 18.99943,8.92 7.78752,1.0952 14.08611,2.20326 14.49185,2.54942 0.24642,0.21024 -5.81769,4.51847 -10.09514,7.17205 -2.56588,1.59182 -9.6467,5.77743 -9.77364,5.77743 -0.0571,0 -1.36834,-1.62307 -2.91385,-3.60682 -3.22431,-4.13853 -4.32319,-5.39911 -6.89009,-7.9039 -3.06211,-2.98801 -5.50066,-4.84953 -8.31186,-6.345 -2.89797,-1.54163 -3.60234,-1.63031 -12.95532,-1.63098 -7.69873,-5.5e-4 -9.59253,0.0906 -11.66885,0.56159 -1.78075,0.40394 -2.27075,1.1279 -1.62291,2.39776 0.95001,1.86217 8.19742,8.08097 13.56727,11.64169 4.2605,2.82511 7.59871,4.46111 15.06149,7.38137 2.69064,1.05288 4.91389,1.93613 4.94055,1.96279 0.0535,0.0535 -0.0953,0.12023 -5.33096,2.39153 -5.20726,2.25898 -7.51588,3.19948 -8.54091,3.47948 -0.49248,0.13453 -1.08935,0.32479 -1.32639,0.42281 l -0.43097,0.17822 -2.04865,-2.06928 c -5.89328,-5.95265 -12.99498,-11.80391 -16.19546,-13.34384 -4.26012,-2.04977 -20.3554,-5.60428 -22.18648,-4.8997 -0.34209,0.13163 -0.37884,0.21142 -0.37884,0.82256 0,2.72832 4.00557,11.17531 6.47463,13.65377 1.8731,1.88023 5.39445,4.17887 10.40056,6.78918 1.59109,0.82963 3.38881,1.80642 3.99494,2.17064 1.07418,0.64547 3.04684,1.51263 3.44102,1.51263 0.38624,0 0.89831,0.32404 0.89831,0.56846 0,0.63804 -3.70992,2.09325 -8.33427,3.26912 -2.27009,0.57723 -5.30318,1.12166 -6.24894,1.12166 -0.47638,0 -0.55692,-0.0502 -0.71777,-0.44771 -0.0996,-0.24624 -0.38334,-0.75767 -0.63042,-1.1365 -0.42057,-0.64481 -0.74043,-1.51704 -1.41585,-3.86086 -1.09658,-3.80533 -7.4589,-10.45271 -15.02555,-15.69877 -4.12714,-2.8614 -7.97102,-4.49502 -12.39809,-5.26907 -1.86505,-0.3261 -6.32435,-0.31492 -8.19652,0.0205 -2.10207,0.37667 -4.43396,0.99603 -4.94942,1.3146 -0.75117,0.46425 -0.95099,1.0653 -1.01704,3.05929 -0.25035,7.55766 2.57676,11.46732 11.5456,15.9666 2.78747,1.39836 4.94643,2.34313 10.0409,4.39395 2.30243,0.92686 4.93703,2.02681 5.85466,2.44433 0.91762,0.41752 2.21896,1.00247 2.89186,1.2999 1.42745,0.63095 1.82103,0.87696 1.61082,1.00688 -0.21453,0.13258 -4.30637,1.39961 -6.5537,2.02933 -2.64589,0.74141 -5.34741,1.38446 -8.5725,2.04054 -1.49795,0.30473 -3.2969,0.68505 -3.99768,0.84515 -1.02428,0.23402 -1.31451,0.2576 -1.47998,0.12027 -0.34979,-0.2903 -0.89115,-2.28633 -1.02081,-3.76382 -0.0678,-0.77214 -0.24575,-1.72386 -0.39586,-2.11679 -1.40652,-3.68156 -8.15876,-9.39296 -17.27445,-14.61165 -3.68134,-2.10755 -5.19019,-2.5775 -9.03117,-2.81289 -2.87285,-0.17606 -8.69392,0.0241 -10.57118,0.36357 -3.15407,0.57028 -3.74386,1.84449 -2.36492,5.10917 1.20177,2.84519 2.70963,4.99423 5.39428,7.68803 3.41564,3.4273 7.7857,6.71778 13.84195,10.42246 1.02284,0.62568 2.20066,1.39812 2.61738,1.71653 0.41671,0.3184 1.1141,0.81434 1.54976,1.10207 0.43565,0.28774 0.7921,0.57638 0.7921,0.64141 0,0.21569 -0.54861,0.12277 -1.40617,-0.23817 -1.65175,-0.69521 -5.90822,-1.98543 -7.44017,-2.25526 -3.5166,-0.6194 -6.65706,-0.83707 -12.09888,-0.83858 -7.79425,-0.002 -11.66248,0.51264 -15.1883,2.02138 -3.8411,1.64365 -9.88154,5.70026 -12.00545,8.06256 -1.23881,1.37786 -1.43216,2.16943 -0.82667,3.38448 0.63027,1.26479 3.15092,3.40439 4.75606,4.03707 2.07975,0.81977 4.34962,0.95911 15.62509,0.9592 14.39946,1.1e-4 16.17348,-0.19074 20.47555,-2.20282 1.13426,-0.53049 2.10549,-0.96461 2.15829,-0.9647 0.0528,-9e-5 0.71329,-0.55545 1.46775,-1.23413 0.75447,-0.67869 1.39755,-1.20819 1.42906,-1.17668 0.0315,0.0315 -0.25091,0.54038 -0.6276,1.13082 -0.3767,0.59044 -1.07571,1.78641 -1.55335,2.65772 -0.47765,0.87131 -1.76281,3.12928 -2.85593,5.01771 -4.58844,7.92684 -5.60309,10.67336 -6.24892,16.91496 -0.17926,1.73249 -0.11198,2.03698 0.4501,2.03698 0.48358,0 4.07303,-0.95634 5.44551,-1.45084 7.32,-2.63741 13.91779,-8.16457 19.31649,-16.18201 3.1363,-4.6576 4.72814,-7.96865 5.33144,-11.0894 0.15082,-0.78018 0.23413,-2.35185 0.28524,-5.38112 l 0.0722,-4.27906 5.11616,-1.2606 c 2.81388,-0.69332 5.70506,-1.36342 6.42484,-1.48911 0.71978,-0.12568 1.90902,-0.37591 2.64275,-0.55607 1.57485,-0.38667 1.62771,-0.39045 1.62771,-0.11634 0,0.43532 -1.83663,3.56085 -5.09805,8.67573 -2.6117,4.09594 -5.2414,9.05223 -5.90933,11.13752 -0.89225,2.78563 -1.31107,5.90177 -1.31713,9.79984 -0.005,3.21711 0.13188,4.24633 0.62395,4.69164 0.54291,0.49133 4.82697,-0.003 7.39361,-0.85359 4.6446,-1.53874 9.2165,-5.65574 14.59469,-13.14251 3.01558,-4.19787 5.6468,-8.37737 6.37453,-10.12545 0.82786,-1.9886 0.89397,-2.55809 0.83088,-7.15711 -0.0312,-2.27299 -0.059,-4.90473 -0.0618,-5.84832 l -0.005,-1.71563 2.89289,-0.80204 c 1.59109,-0.44113 4.7526,-1.33596 7.02558,-1.98852 3.5715,-1.02536 5.90534,-1.55667 6.07827,-1.38375 0.0269,0.0269 -0.56133,0.85368 -1.30725,1.83721 -2.02078,2.66449 -7.16141,10.38725 -7.98071,11.98941 -0.39364,0.76977 -0.82108,1.79261 -0.94986,2.27299 -0.2817,1.05072 -0.30549,3.66298 -0.0512,5.626 0.61746,4.76727 1.64261,6.09732 5.56934,7.22578 1.4374,0.41308 2.95901,0.4627 4.09229,0.13345 2.50794,-0.72864 5.14941,-3.34757 8.60357,-8.53016 3.35755,-5.03764 3.77166,-6.44191 4.89513,-16.59967 0.23045,-2.08357 0.47763,-5.02109 0.54931,-6.52782 0.11196,-2.35425 0.16427,-2.76518 0.37195,-2.92204 0.68921,-0.52056 10.1006,-4.08686 10.28873,-3.89875 0.10811,0.10812 -1.66811,4.68768 -2.76789,7.13636 -1.33318,2.96836 -1.91476,4.41699 -2.51764,6.27111 -0.97189,2.98895 -1.11474,3.95196 -1.24805,8.41317 -0.10925,3.65687 -0.0998,4.01391 0.11218,4.21912 0.19398,0.18784 0.94623,0.2579 4.63973,0.43214 2.42452,0.11437 4.91061,0.16465 5.52466,0.11173 1.97917,-0.17055 2.92385,-0.84008 5.34299,-3.78676 2.56427,-3.12346 5.17284,-6.84395 5.81225,-8.28977 1.34124,-3.03278 1.25162,-8.50329 -0.21081,-12.86835 -0.22398,-0.6685 -1.0285,-2.45683 -1.78784,-3.97407 l -1.38063,-2.75861 0.78855,-0.4356 c 1.07084,-0.59154 13.78358,-6.88054 13.98801,-6.91987 0.26161,-0.0503 0.11379,0.53153 -0.46103,1.81458 -1.11766,2.49477 -1.60124,7.03954 -1.36655,12.84291 0.19894,4.91918 0.75582,8.74347 1.39074,9.55064 0.34122,0.43378 0.74045,0.44588 1.99726,0.0605 2.8081,-0.86108 7.55566,-3.99874 10.07073,-6.65573 2.81104,-2.96968 6.84571,-10.18433 8.08288,-14.45352 0.44313,-1.52915 0.67082,-3.78394 0.55868,-5.53258 -0.22068,-3.44134 -0.62284,-7.66544 -0.81727,-8.58436 -0.32962,-1.55784 -0.28603,-2.60947 0.13379,-3.22729 0.36737,-0.54063 0.81445,-0.85775 1.02544,-0.72736 0.0698,0.0431 0.16948,0.37147 0.22147,0.72959 0.052,0.35813 0.21334,1.11606 0.35855,1.68431 0.1639,0.64143 0.31395,1.93181 0.39571,3.40318 0.19604,3.52793 0.77882,6.14163 2.27684,10.21139 1.55264,4.21815 3.3944,7.86931 6.02255,11.93928 2.36133,3.65674 2.10626,3.07031 2.21689,5.09699 0.0538,0.98496 0.16274,2.50373 0.24217,3.37504 0.19544,2.14375 0.32703,64.60783 0.13611,64.60783 -0.0749,0 -0.22985,0.0937 -0.34432,0.20813 -0.11447,0.11447 -0.50634,0.24639 -0.87082,0.29316 -0.36448,0.0468 -3.90224,1.00694 -7.86168,2.13374 l -7.19901,2.0487 h -97.73708 -97.73708 z"
     id="path144" />
  <path
     style="fill:#000000;fill-opacity:1;stroke-width:0.194817"
     d="m 283.35328,99.686587 c 0.0536,-0.144735 1.00283,-3.342939 2.1095,-7.107118 l 2.01212,-6.843963 16.86485,-0.147997 c 29.77438,-0.261285 81.25499,0.04245 110.27334,0.650607 l 6.32518,0.132561 0.74038,2.435216 c 1.02587,3.374216 2.61862,8.93267 2.77242,9.675291 0.10505,0.507261 0.0592,0.638016 -0.25929,0.739095 -1.38302,0.438951 -12.72224,0.534584 -74.52353,0.62852 -55.72206,0.08469 -66.39668,0.05858 -66.31497,-0.162212 z"
     id="path146" />
</svg>
