<?xml version="1.0" encoding="UTF-8" standalone="no"?>
<svg
   xmlns:dc="http://purl.org/dc/elements/1.1/"
   xmlns:cc="http://creativecommons.org/ns#"
   xmlns:rdf="http://www.w3.org/1999/02/22-rdf-syntax-ns#"
   xmlns:svg="http://www.w3.org/2000/svg"
   xmlns="http://www.w3.org/2000/svg"
   xmlns:sodipodi="http://sodipodi.sourceforge.net/DTD/sodipodi-0.dtd"
   xmlns:inkscape="http://www.inkscape.org/namespaces/inkscape"
   version="1.1"
   width=""
   height=""
   id="svg2"
   viewBox="0 0 725.66931 725.66931"
   sodipodi:docname="primaris.svg"
   inkscape:version="1.0.2-2 (e86c870879, 2021-01-15)">
  <metadata
     id="metadata8">
    <rdf:RDF>
      <cc:Work
         rdf:about="">
        <dc:format>image/svg+xml</dc:format>
        <dc:type
           rdf:resource="http://purl.org/dc/dcmitype/StillImage" />
        <dc:title />
      </cc:Work>
    </rdf:RDF>
  </metadata>
  <defs
     id="defs6" />
  <sodipodi:namedview
     pagecolor="#ffffff"
     bordercolor="#666666"
     borderopacity="1"
     objecttolerance="10"
     gridtolerance="10"
     guidetolerance="10"
     inkscape:pageopacity="0"
     inkscape:pageshadow="2"
     inkscape:window-width="1920"
     inkscape:window-height="1017"
     id="namedview4"
     showgrid="false"
     inkscape:zoom="0.63489961"
     inkscape:cx="631.30137"
     inkscape:cy="419.66027"
     inkscape:window-x="-8"
     inkscape:window-y="-8"
     inkscape:window-maximized="1"
     inkscape:current-layer="svg2"
     inkscape:measure-start="878.402,489.209"
     inkscape:measure-end="158.721,719.681"
     showguides="false"
     inkscape:document-rotation="0" />
  <path
     style="fill:#000000;stroke-width:0.718042"
     d="m 450.50837,686.23936 -3.38534,-0.2679 -0.34572,-2.2953 c -0.19014,-1.26246 -0.52213,-3.85681 -0.73776,-5.76515 -0.5446,-4.82007 -2.3265,-8.2047 -5.38514,-10.22879 l -2.60326,-1.7228 -7.15759,-0.70081 c -3.93667,-0.38544 -17.65895,-1.19647 -30.49394,-1.80228 -12.83499,-0.60589 -25.43663,-1.2206 -28.00362,-1.36622 -23.43584,-1.32895 -79.02295,1.41045 -85.20662,4.19918 l -3.70889,1.6726 -1.20365,1.83697 -1.20366,1.83704 -0.39248,4.32835 c -0.21586,2.3806 -0.75173,4.61744 -1.1908,4.97086 l -0.79834,0.64243 -15.32552,-0.52359 -15.32552,-0.52367 -0.63991,-1.01086 c -0.35195,-0.55591 -0.64486,-6.09991 -0.65091,-12.31994 l -0.011,-11.30916 -14.89936,-0.0316 c -8.19465,-0.0172 -16.28972,-0.3 -17.98904,-0.62857 l -3.08968,-0.59727 -1.74611,-1.64037 c -0.96036,-0.90222 -1.94266,-2.68806 -2.18287,-3.96854 l -0.43675,-2.32811 -6.62867,0.0223 -6.62867,0.0223 -1.62286,-0.86854 c -0.89257,-0.47772 -2.10767,-2.02883 -2.70023,-3.44703 l -1.07737,-2.57856 0.21923,-9.03182 0.21924,-9.03188 -31.21344,-0.45187 -31.21343,-0.45186 -5.7294,-1.16064 C 99.693492,615.60072 84.940695,606.14871 74.54736,590.58458 l -3.026162,-4.5317 -1.605902,-5.11253 -1.605903,-5.11246 v -8.25748 -8.25748 l 1.58878,-5.05609 c 2.809274,-8.94019 8.448151,-16.10861 19.962098,-25.37666 l 5.039956,-4.05687 -1.669712,-1.4243 -1.669713,-1.42424 -0.708233,-3.17202 c -0.38953,-1.74455 -0.558766,-3.56149 -0.376082,-4.03755 l 0.332159,-0.8656 -2.665708,1.46014 -2.6657,1.46014 -1.986491,-0.49854 c -5.594724,-1.40341 -10.73937,-8.6473 -12.614612,-17.7611 -4.319294,-20.99211 -4.222765,-24.33445 0.702794,-24.33445 h 3.547832 V 458.4664 442.70701 l -3.769719,-0.21704 -3.769718,-0.21703 0.01817,-13.28377 0.01817,-13.28377 1.283024,-3.94923 c 0.705664,-2.17208 2.488479,-6.5215 3.961811,-9.66537 L 75.547285,396.37465 65.186253,378.0364 C 59.487686,367.95036 54.023381,357.97001 53.043352,355.85785 l -1.781869,-3.8403 0.807304,-4.01987 c 0.444019,-2.21093 1.47568,-5.40055 2.292582,-7.08804 l 1.485277,-3.06817 27.052571,-17.37497 C 117.07752,298.51492 134.2471,287.17994 135.37091,285.82584 l 0.88021,-1.06059 0.67603,-7.41115 c 0.37181,-4.07613 0.98417,-10.65676 1.36079,-14.62361 2.34409,-24.68967 20.71873,-73.3519 36.72592,-97.2626 18.48853,-27.61718 65.04685,-68.503014 93.62512,-82.218176 l 6.46237,-3.101401 7.67979,-1.956936 c 4.22389,-1.076316 7.82077,-2.324315 7.99307,-2.773336 0.17231,-0.44902 1.36111,-7.594245 2.64178,-15.878284 2.67774,-17.32098 2.18555,-16.430322 9.68899,-17.532724 3.15938,-0.464171 12.20671,-1.869522 20.10516,-3.122993 l 14.36084,-2.279049 21.90027,0.06017 21.90027,0.06017 12.92475,1.220836 c 13.79891,1.303411 54.88613,6.607376 55.43486,7.156104 0.18083,0.180831 1.67607,7.935566 3.32275,17.23274 l 2.99397,16.903957 4.66727,1.939523 c 45.24941,18.803773 76.87903,47.056139 107.71209,96.211179 19.85014,31.64572 26.91658,52.38612 32.63464,95.78451 2.46125,18.68012 2.56341,19.20107 4.2674,21.76009 1.85968,2.79284 3.0164,3.56343 42.0276,27.9979 l 31.18572,19.53303 3.3992,3.23118 3.39921,3.23119 0.49863,2.68794 c 0.76638,4.13125 0.54345,4.58945 -14.00788,28.79157 -7.51034,12.49134 -13.65517,23.04862 -13.65517,23.46059 0,0.41197 0.93227,2.59775 2.07171,4.8573 1.13943,2.25954 2.72132,6.21421 3.51529,8.78813 l 1.44359,4.67988 0.80287,9.68096 c 0.44158,5.32453 0.95999,11.58653 1.15203,13.91557 l 0.34917,4.2346 -0.80602,0.9712 -0.80602,0.97119 h -4.10998 -4.10999 l -0.46936,8.72923 c -0.25816,4.80108 -0.46937,11.74813 -0.46937,15.4379 v 6.70866 h 3.90685 c 4.93087,0 4.87095,-0.13786 3.6234,8.3356 -3.41639,23.20452 -12.03151,37.61907 -22.48371,37.61907 h -2.81807 l -0.41974,2.09869 c -0.23086,1.15425 -0.86756,2.51702 -1.41491,3.02834 l -0.99517,0.92957 6.36969,4.19631 6.3697,4.19631 2.91539,3.68829 c 3.66989,4.64271 6.80504,10.81507 8.18559,16.11537 l 1.06923,4.10504 v 6.86448 6.86448 l -1.4829,5.3512 c -0.81559,2.94318 -2.82535,7.94506 -4.46611,11.11522 l -2.98321,5.764 -6.48403,6.49914 -6.48402,6.49921 -4.35405,2.26765 c -6.03863,3.14509 -15.12607,5.58119 -29.03488,7.7835 l -11.84769,1.87595 -24.55378,0.36405 -24.55378,0.36405 -0.36084,1.89304 c -0.19845,1.04124 -0.33725,4.01551 -0.30841,6.60958 0.0963,8.66784 -0.61321,9.28162 -11.36431,9.83035 l -7.43186,0.37926 v 3.00293 3.00292 l -1.61559,1.51004 c -0.88858,0.83056 -3.1493,1.89427 -5.02382,2.36394 l -3.40822,0.85382 -16.42338,-0.28312 -16.42339,-0.28313 -0.44877,5.76336 c -0.24682,3.1698 -0.4507,9.7215 -0.45307,14.5593 l -0.004,8.79601 -13.8223,-0.12939 c -7.60226,-0.0711 -15.3457,-0.25002 -17.20765,-0.39736 z m 28.42277,-22.27107 c 2.85473,-116.07703 16.89504,-151.23551 77.89158,-195.04881 4.86815,-3.49676 11.13613,-8.66089 13.92884,-11.47585 l 5.07764,-5.11811 1.30138,-2.92826 c 2.53814,-5.71113 4.15507,-47.30052 4.20108,-108.0568 l 0.0144,-19.07574 -0.78228,-4.23174 c -1.52514,-8.25026 -6.55895,-15.25308 -15.60981,-21.71571 l -4.5444,-3.24486 -2.27398,1.07694 -2.27398,1.07694 -0.003,20.74726 -0.003,20.74727 -1.9642,9.0831 c -6.64118,30.71088 -20.25061,50.47091 -39.52225,57.38382 l -4.46849,1.60278 -11.57182,0.32344 -11.57181,0.32344 -7.81531,-1.50128 c -18.32442,-3.52002 -24.26215,-5.52863 -39.98075,-13.52466 -12.46214,-6.33946 -17.58807,-10.91903 -27.3452,-24.43044 -1.49725,-2.07335 -2.80368,-3.76972 -2.90319,-3.76972 -0.0995,0 -3.38395,0.48277 -7.29877,1.07282 l -7.11785,1.07284 -16.51496,-0.002 c -17.67479,-0.002 -29.41443,-0.76652 -39.00271,-2.53983 l -5.97278,-1.10464 -12.6963,8.17787 c -35.1685,22.65256 -46.32558,28.19212 -62.51473,31.03889 -19.03437,3.34708 -38.784,-2.10588 -51.55128,-14.23355 l -5.34179,-5.07417 -3.91651,-5.88616 c -6.66579,-10.01781 -13.17312,-25.85693 -16.2071,-39.44847 l -0.96171,-4.30825 -0.007,-16.87398 c -0.004,-9.28069 0.2338,-18.69732 0.52848,-20.92586 l 0.53576,-4.05188 -2.88393,-1.15392 -2.88394,-1.15392 h -4.59249 -4.59249 l -4.07456,4.48776 c -2.241,2.46827 -4.59759,5.45711 -5.23686,6.64188 l -1.1623,2.15413 -0.578,25.49048 c -0.3179,14.01976 -0.4926,45.20072 -0.38822,69.29101 l 0.1898,43.80054 1.49047,2.87217 1.49048,2.87216 6.40798,4.92913 c 3.52439,2.71102 10.44697,7.85545 15.3835,11.43207 25.66909,18.59777 36.752,29.68164 47.18146,47.18549 10.26462,17.22725 18.21518,37.37191 21.08364,53.4205 l 1.4249,7.97206 0.79937,53.85312 c 0.43965,29.61922 0.89381,53.96621 1.00923,54.10444 0.11541,0.13822 6.20908,0.42867 13.54148,0.64537 l 13.33163,0.39406 0.004,-2.44048 c 0.0138,-8.41128 4.06709,-12.31714 15.2291,-14.67526 l 4.82151,-1.01861 33.2347,-0.78784 33.2347,-0.78783 17.95105,0.79724 c 28.99941,1.28788 53.65002,2.88925 56.56841,3.67486 l 2.7153,0.73097 3.12784,3.01786 3.12785,3.01792 0.77832,3.94923 c 0.42808,2.17208 0.96111,5.147 1.18451,6.61094 l 0.40617,2.66178 5.17907,0.24722 c 2.84849,0.136 9.24819,0.31149 14.22156,0.38997 l 9.04251,0.14268 0.49003,-19.92566 z m -32.22723,-43.61658 c -3.54505,-0.9504 -29.76417,-11.78392 -43.79115,-18.09421 l -7.18041,-3.23026 -1.97462,-2.09654 -1.97461,-2.09661 v -3.89113 c 0,-6.55077 2.17129,-10.20251 7.53944,-12.68012 5.11745,-2.36185 3.31647,-2.96845 35.90208,12.09261 l 19.38712,8.96066 2.68146,2.57238 c 1.4748,1.41483 3.02773,3.62166 3.45096,4.90401 l 0.7695,2.33163 -0.78852,2.92832 c -0.89939,3.34011 -4.36974,7.65073 -6.69615,8.31743 -3.23121,0.92606 -3.80824,0.92462 -7.3251,-0.0179 z m 6.81382,-3.22659 c 1.99947,-1.07002 4.32522,-5.27681 4.32522,-7.82328 v -2.25946 l -2.33364,-2.44787 -2.33363,-2.44788 -15.07888,-6.97147 c -34.92635,-16.1476 -34.37754,-15.96041 -38.79255,-13.23178 -7.07771,4.37424 -6.25601,12.2154 1.66221,15.86176 32.56047,14.99428 49.20213,21.11243 52.55127,19.31998 z m -176.54484,-0.46716 c -2.02271,-1.41676 -4.99079,-7.85932 -5.57102,-12.09253 l -0.42034,-3.06683 0.8645,-2.61949 0.86452,-2.61949 2.65075,-1.35229 c 6.27026,-3.19887 51.13338,-18.48677 56.23709,-19.16374 l 3.43972,-0.45631 2.13662,0.88498 2.13661,0.88506 1.41702,2.97585 c 0.77937,1.63678 1.62924,4.15459 1.88862,5.5952 l 0.47159,2.61927 -0.80322,3.8431 c -0.44177,2.1137 -1.07504,4.27774 -1.40726,4.80887 -0.61874,0.98932 -46.83194,18.05839 -53.9004,19.90835 -5.11566,1.33894 -7.9395,1.29657 -10.0048,-0.15 z m 30.79936,-10.46136 c 12.04515,-4.34329 23.78032,-8.54706 26.07815,-9.34179 l 4.17788,-1.44499 0.71124,-1.87071 c 1.79797,-4.72903 0.17086,-12.80168 -2.91293,-14.4521 l -1.50693,-0.8065 -2.68259,0.493 c -6.69448,1.2303 -53.16993,17.6756 -55.66604,19.69739 l -1.58772,1.28602 0.0727,3.11472 c 0.0828,3.54691 2.77654,10.34604 4.51129,11.38663 l 1.16033,0.69607 2.87216,-0.43047 c 1.57969,-0.23681 12.72729,-3.98405 24.77244,-8.32727 z m 139.30008,-64.52911 c -6.91116,-3.18415 -19.99746,-9.44217 -29.08069,-13.90667 l -16.51496,-8.11739 -1.70506,-1.84759 -1.70505,-1.84767 -0.53217,-2.91015 c -1.15869,-6.33635 0.8521,-10.64015 6.09641,-13.04837 l 2.87216,-1.31891 3.49138,-0.0158 3.49138,-0.0158 28.10245,14.23532 28.10246,14.23525 2.33363,3.05354 2.33364,3.05354 v 3.21101 c 0,4.11223 -1.48556,6.94189 -4.84174,9.22246 l -2.67204,1.81571 -3.60304,-0.007 -3.60304,-0.007 -12.56572,-5.78936 z m 21.62572,0.13866 2.78769,-2.78766 v -2.26642 -2.26636 l -2.69266,-2.82542 -2.69265,-2.82542 -27.02768,-13.66175 -27.02767,-13.66175 -2.05301,0.0158 c -5.82754,0.0447 -9.59245,3.5556 -9.59245,8.94515 v 3.31103 l 1.83096,1.83094 c 1.85616,1.8562 21.36361,11.6169 45.55979,22.79624 l 13.28377,6.13746 2.41811,0.023 2.41811,0.023 2.78769,-2.78772 z m -202.33851,1.02198 c -3.08119,-1.34029 -4.55573,-3.82479 -5.03691,-8.48689 l -0.40267,-3.90155 0.85981,-2.6052 c 1.47576,-4.4716 4.36414,-5.87839 49.51857,-24.11736 20.23218,-8.17231 22.09387,-8.6653 26.21708,-6.94251 l 2.41147,1.00757 0.74533,2.40313 c 1.35928,4.38261 1.69208,7.07139 1.22063,9.86192 l -0.46634,2.76029 -1.92777,2.26664 -1.92776,2.26672 -15.07888,6.52319 c -8.29338,3.5877 -22.28256,9.55807 -31.08706,13.26747 l -16.0082,6.74428 -3.37893,-0.028 c -1.85841,-0.0158 -4.40468,-0.47434 -5.65837,-1.01962 z m 19.26426,-6.73278 c 46.78685,-19.56621 51.2995,-21.76342 52.62686,-25.62447 l 0.90483,-2.63198 -0.6103,-3.26673 c -0.7312,-3.91392 -1.52084,-4.98432 -4.09385,-5.54944 l -1.94333,-0.42683 -19.72781,7.97989 c -10.85029,4.38896 -25.41471,10.38482 -32.36537,13.32405 l -12.63756,5.3441 -1.60262,1.70592 -1.60262,1.70593 -0.33776,2.76324 -0.33776,2.76324 1.29418,2.50316 c 2.91458,5.63728 5.73697,5.55578 20.43311,-0.59008 z m 174.55005,-65.88563 c -62.68599,-32.42494 -62.6464,-32.39883 -62.6464,-41.31391 v -3.01165 l 1.78875,-3.05228 c 0.98382,-1.67875 2.87989,-3.72663 4.2135,-4.55084 l 2.42474,-1.49858 3.14643,0.0225 3.14644,0.0225 3.23118,1.65463 c 5.60751,2.8715 52.56307,27.76536 57.44333,30.45403 8.45955,4.66062 10.36317,6.79201 11.14533,12.47901 l 0.47663,3.46551 -1.52798,3.15639 -1.52798,3.15638 -2.706,1.87526 -2.706,1.87526 h -3.37484 -3.37484 l -9.15229,-4.73412 z m 17.85874,-0.92574 2.78769,-2.7877 v -3.68522 -3.68523 l -2.33363,-2.45292 -2.33364,-2.45292 -16.87398,-8.92837 c -9.28069,-4.91061 -24.07371,-12.68781 -32.87339,-17.28269 l -15.99941,-8.3543 h -1.85659 -1.85659 l -2.74113,2.74112 c -1.50761,1.50762 -2.96601,3.63716 -3.24088,4.73232 l -0.49976,1.9912 0.83538,2.78824 0.83538,2.78825 2.31047,1.75487 c 3.85018,2.92434 15.77244,9.33401 56.73498,30.502 l 9.90594,5.11904 h 2.20573 2.20574 z m -220.28662,1.61314 c -1.64701,-0.58364 -3.81255,-1.87916 -4.81231,-2.87891 l -1.81773,-1.81774 -0.46511,-3.10153 c -0.53684,-3.57995 0.0621,-7.02044 1.73562,-9.96949 l 1.17367,-2.06824 15.13683,-7.38847 c 30.98089,-15.12214 59.48358,-28.38821 62.39515,-29.04071 l 3.00413,-0.67323 2.49399,0.68862 c 5.31914,1.46869 6.80439,4.41758 6.15091,12.21232 -0.84742,10.10795 -0.62201,9.96269 -53.99697,34.79809 -24.61044,11.45125 -24.6896,11.47484 -30.99818,9.23929 z m 16.1798,-5.94523 c 13.76869,-6.24003 43.33951,-20.23678 53.39157,-25.27181 l 9.85153,-4.93459 1.12752,-2.18036 c 0.62012,-1.1992 1.32004,-4.24222 1.55537,-6.76228 l 0.42786,-4.58191 -1.86021,-1.86022 -1.86022,-1.86022 h -2.65942 -2.65941 l -6.52826,2.99781 c -53.66281,24.64219 -69.83004,33.28907 -70.86655,37.90224 l -0.68722,3.05857 1.27795,2.61361 1.27795,2.61362 3.59021,1.24086 c 4.36782,1.50961 5.0166,1.37758 14.62133,-2.97532 z m -25.21621,195.81932 c -0.13335,-3.27685 -0.2432,-0.78805 -0.24411,5.53072 -7.2e-4,6.31876 0.10819,8.99986 0.24245,5.95795 0.13426,-3.04191 0.13501,-8.21181 0.001,-11.48867 z m 105.53987,-0.37862 c -1.48977,-0.15546 -3.7516,-0.1528 -5.02629,0.007 -1.2747,0.15861 -0.0558,0.28578 2.70867,0.28262 2.76446,0 3.80739,-0.13298 2.31762,-0.28844 z m 144.00502,-4.3089 c -1.6665,-0.15064 -4.57457,-0.15237 -6.46237,-0.007 -1.8878,0.14842 -0.52429,0.27164 3.03001,0.27379 3.55431,0 5.09887,-0.11919 3.43236,-0.26977 z m 22.05812,-2.59737 1.79511,-0.84643 0.20577,-47.74014 0.20578,-47.74015 -0.72356,-9.45173 -0.72356,-9.45179 -1.41281,-3.71817 c -5.52272,-14.5346 -8.59992,-17.06533 -12.43754,-10.22872 -15.92711,28.37378 -24.93939,74.50745 -24.96431,127.79167 l -0.001,2.31396 10.2321,0.2605 c 13.75925,0.35034 25.6356,-0.15717 27.82411,-1.189 z m -274.00938,-40.31947 -0.0765,-39.49229 -1.20643,-8.08853 C 242.61787,549.47892 234.74488,528.4724 224.6829,511.32234 l -2.88005,-4.90882 -2.66128,6.3449 c -1.46371,3.48975 -3.44909,9.05601 -4.41196,12.36949 l -1.75068,6.02458 -0.68194,7.97723 c -0.81167,9.49473 -2.06195,56.43434 -2.3394,87.82891 l -0.19803,22.40828 1.28074,1.28709 1.28074,1.28709 4.82261,0.43363 c 2.65244,0.23853 10.31563,0.40009 17.02932,0.35902 l 12.20671,-0.0746 z m 2.40407,25.66998 c -0.13816,-2.66573 -0.2512,-0.48467 -0.2512,4.84679 0,5.33145 0.11304,7.51251 0.2512,4.84678 0.13816,-2.66573 0.13816,-7.02784 0,-9.69357 z m 291.53097,3.97544 0.89755,-0.74059 v -50.55709 -50.55703 l -0.97796,-2.31058 c -0.53788,-1.27086 -1.674,-2.93083 -2.52471,-3.68894 l -1.54675,-1.37828 -4.11718,-0.5674 c -2.26444,-0.31206 -5.30653,-0.38106 -6.76018,-0.15344 l -2.64301,0.41395 0.66594,1.75159 c 0.36628,0.96339 0.98189,4.56071 1.36803,7.9941 l 0.70208,6.24258 0.11655,47.03173 c 0.0641,25.86745 0.27672,47.31241 0.47246,47.65542 l 0.3559,0.62376 6.54687,-0.5096 c 3.60077,-0.28025 6.95075,-0.84283 7.44441,-1.25018 z M 206.82198,619.80873 c 0.89258,-44.81815 1.88788,-76.28503 2.63694,-83.36815 0.89496,-8.46291 1.24386,-8.00494 -6.08894,-7.99317 l -5.90918,0.009 -1.84856,1.21119 -1.84857,1.21126 -0.45159,7.03674 c -0.59899,9.33361 -1.82631,63.5604 -1.93553,85.51761 l -0.0868,17.44719 1.26822,1.4014 1.26822,1.40133 h 6.26014 6.26015 l 0.47548,-23.87488 z m -17.00621,7.19327 c -0.15981,-1.29054 -0.29386,-0.40778 -0.29789,1.96176 -0.004,2.36954 0.12672,3.42549 0.29056,2.34649 0.16384,-1.07893 0.16713,-3.01764 0.007,-4.30825 z m 18.67176,-4.68012 c -0.15491,-1.48096 -0.28165,-0.26927 -0.28165,2.69265 0,2.96192 0.12674,4.17362 0.28165,2.69266 0.15491,-1.48096 0.15491,-3.90435 0,-5.38531 z m 334.62223,-47.39075 c -0.11338,-9.37942 -0.20614,-1.70535 -0.20614,17.05349 0,18.75884 0.0928,26.43291 0.20614,17.05349 0.11337,-9.37942 0.11337,-24.72756 0,-34.10698 z m 60.49564,48.3586 c 32.77643,-4.96067 47.17071,-15.52406 53.18207,-39.02822 l 1.38909,-5.43134 v -5.11964 c 0,-18.75424 -8.28975,-28.3946 -36.27723,-42.18775 -17.40454,-8.57751 -24.74493,-10.12417 -36.38914,-7.66732 -14.97635,3.15989 -31.2689,20.28856 -26.48485,27.84394 l 0.63458,1.00217 6.35533,-0.50522 c 9.13563,-0.7263 15.50394,-2.18191 27.15744,-6.2074 5.65108,-1.95206 10.63336,-3.5492 11.07174,-3.5492 1.29306,0 0.90984,2.67463 -0.45952,3.20727 -5.84172,2.27196 -18.90439,6.4977 -23.87488,7.7234 l -6.10336,1.50502 -14.71985,0.42407 c -8.09592,0.23322 -14.63907,0.66635 -14.54034,0.96254 0.0987,0.29619 0.17951,16.08887 0.17951,35.09478 v 34.55633 l 23.15684,-0.36081 23.15684,-0.36082 z M 188.57734,609.69382 c 0,-4.87205 0.21277,-19.52154 0.47283,-32.55443 l 0.47283,-23.69609 -8.78054,-0.47211 c -10.22248,-0.54966 -18.38494,-2.10379 -33.81154,-6.43775 l -11.12964,-3.12671 -0.22945,-1.56052 c -0.2864,-1.9479 -0.33179,-1.94977 7.44091,0.30546 3.53723,1.02629 9.97149,2.79548 14.29836,3.93149 l 7.86703,2.06552 0.53994,-0.87371 c 0.29698,-0.48052 0.76173,-2.64872 1.0328,-4.81821 l 0.49284,-3.94456 -0.85776,-3.24203 c -2.06376,-7.80023 -11.25863,-16.46132 -21.11596,-19.89011 l -3.72438,-1.29556 -10.4116,0.0165 -10.41161,0.0165 -4.50505,1.91114 c -9.06699,3.8464 -21.637398,12.5067 -31.88676,21.96812 -7.765155,7.16821 -11.960112,15.37155 -13.104054,25.62518 l -0.480647,4.30825 0.744025,5.15123 c 2.115573,14.64719 12.901896,28.11076 29.456826,36.76819 l 7.16708,3.7481 7.02234,1.80968 7.02233,1.80968 9.33454,0.55957 c 5.134,0.30776 20.07824,0.60811 33.20942,0.66749 l 23.87489,0.108 z m 366.92629,-60.97121 0.007,-3.76972 1.75087,-3.76067 c 3.36926,-7.23685 13.43222,-15.7567 22.46646,-19.02135 l 4.13128,-1.49296 8.53628,-0.34078 8.53628,-0.34078 4.02945,0.85935 4.02945,0.85935 12.04299,5.83316 12.043,5.83315 1.11728,-1.11727 1.11728,-1.11727 0.33697,-45.84718 c 0.18534,-25.21592 0.20141,-45.69721 0.0358,-45.51398 -0.16568,0.18323 -6.93785,11.00602 -15.04927,24.05062 -8.11143,13.04461 -16.48369,25.96507 -18.60504,28.71212 l -3.85699,4.99465 -2.84845,1.61333 -2.84846,1.61333 -3.23119,7.2e-4 c -6.45559,0.001 -6.31806,0.63895 -9.02361,-41.81692 l -0.44702,-7.01471 -1.96955,2.70646 c -2.99416,4.11445 -10.41412,10.75205 -18.37622,16.43866 -19.13184,13.66415 -30.63384,23.96007 -40.63628,36.37525 -6.5631,8.14618 -6.34161,7.31598 -3.24643,12.16872 1.32732,2.08103 3.08908,5.1139 3.91503,6.73969 l 1.50173,2.95603 7.47775,0.3326 7.47777,0.33252 2.37654,1.38798 2.37654,1.38797 1.66857,3.15529 1.66856,3.15536 v 6.70845 6.70845 h 5.74433 5.74434 l 0.007,-3.76972 z m -365.31744,-8.25748 c 0.40687,-11.25695 0.60674,-11.99682 3.68396,-13.63633 l 2.24663,-1.1969 7.66054,-0.29002 7.66054,-0.29001 0.46243,-1.89714 c 0.25433,-1.04346 2.09945,-6.01317 4.10025,-11.04384 l 3.63784,-9.14663 -3.07016,-4.06636 c -9.43766,-12.5001 -17.17977,-19.2784 -47.01898,-41.16566 -5.52893,-4.0555 -11.09542,-8.36064 -12.37,-9.56698 l -2.3174,-2.19334 0.16328,22.2049 0.16328,22.20491 -1.73105,4.29942 c -0.95207,2.36469 -2.62359,5.19198 -3.71448,6.28287 l -1.98343,1.98344 h -1.9451 c -2.96177,0 -6.31206,-2.44837 -11.26251,-8.23058 l -4.49488,-5.2501 -8.74309,-14.6214 C 116.50515,466.80361 108.42052,453.0923 103.348,444.37581 l -9.222762,-15.84817 0.167985,45.6469 c 0.09239,25.10579 0.179841,45.89613 0.194324,46.20079 0.0145,0.30467 0.790104,0.90193 1.723594,1.3273 l 1.69725,0.77326 6.619049,-3.9903 c 3.64048,-2.19469 8.45051,-4.70123 10.68896,-5.57006 l 4.06992,-1.57977 9.33454,-0.31874 9.33454,-0.31873 4.30825,0.7828 c 2.36954,0.43054 6.72823,1.99853 9.68598,3.48452 l 5.37772,2.7017 4.36496,4.30825 4.36497,4.30825 1.72582,3.59021 1.72582,3.59021 0.2574,4.66727 c 0.14156,2.567 -0.0532,6.02207 -0.43284,7.67794 l -0.69024,3.01075 3.68418,0.40038 c 6.88636,0.74849 8.70642,0.88772 13.1062,1.00275 l 4.39572,0.11488 z m 455.83965,-16.17288 c 3.08698,-2.08031 7.28525,-7.56916 10.01013,-13.08731 l 2.12742,-4.30825 1.36981,-6.8214 c 0.7534,-3.75177 1.59449,-8.51777 1.86907,-10.59111 l 0.49926,-3.76972 h -3.93978 -3.93979 l -0.32884,-0.89755 c -3.16427,-8.63679 1.3562,-35.72258 5.96191,-35.72258 h 4.26587 l -0.002,-3.76971 c -0.008,-13.05248 -2.23017,-25.82692 -5.86459,-33.72085 l -2.21901,-4.81966 -8.20771,13.37678 -8.2077,13.37679 -0.63199,41.70579 c -0.61365,40.49489 -0.50608,46.78817 0.8448,49.42475 l 0.64381,1.25657 h 1.66366 c 0.915,0 2.75376,-0.73463 4.08613,-1.63254 z m -556.096536,-15.38928 1.353393,-2.72433 -0.211319,-41.60723 -0.21132,-41.60723 -6.68677,-11.72229 -6.686773,-11.7223 -2.170569,4.86172 c -1.193812,2.67394 -2.724205,6.47731 -3.400872,8.45192 l -1.230303,3.59021 -0.397027,11.62702 -0.397026,11.62701 3.874594,0.22068 3.874594,0.22066 0.191633,18.48958 0.191633,18.48957 H 74.338106 70.65304 l 0.499823,4.12874 c 0.274901,2.2708 1.259579,8.2803 2.188171,13.35442 l 1.68835,9.22569 2.023303,2.92458 c 1.112817,1.60856 3.269969,3.82882 4.793672,4.93388 l 2.77037,2.0093 1.979584,-1.02364 c 1.088773,-0.56309 2.588619,-2.24963 3.332991,-3.74796 z M 637.16001,491.25762 c -0.15059,-1.66651 -0.27201,-0.12195 -0.26982,3.43236 0.002,3.5543 0.1254,4.91781 0.2738,3.03001 0.1484,-1.8878 0.14661,-4.79587 -0.004,-6.46237 z m -489.54058,7.24787 c 0.80438,-0.8634 2.17277,-3.36757 3.04087,-5.56483 l 1.57838,-3.99502 -0.0495,-10.4116 c -0.0272,-5.72638 -0.27308,-41.10788 -0.54636,-78.62556 l -0.49687,-68.21395 0.61303,-16.55218 0.61304,-16.55219 1.89263,-3.19396 c 1.04096,-1.75668 3.81713,-5.0844 6.16928,-7.39493 l 4.27664,-4.20097 6.72758,0.25174 6.72757,0.25174 31.95286,16.61693 c 105.73573,54.98734 121.21581,60.55488 168.38076,60.55956 28.76109,0.003 36.72302,-2.46722 89.03716,-27.62234 6.31877,-3.03836 22.31315,-10.63277 35.54306,-16.87646 13.22992,-6.2437 31.45308,-14.93871 40.49592,-19.32227 21.58974,-10.46573 34.5062,-4.45158 39.94132,18.59743 l 0.93126,3.94923 -0.65342,52.05802 c -0.35939,28.63191 -0.61311,60.62067 -0.56382,71.08612 l 0.0896,19.0281 1.22052,16.07058 c 0.67129,8.83881 1.51154,16.836 1.86723,17.77153 l 0.6467,1.70096 h 2.06571 c 2.86002,0 6.29233,-2.50006 10.37317,-7.55571 5.74221,-7.11389 78.2563,-124.55778 82.83553,-134.16052 l 1.14515,-2.40139 -1.26133,-2.65806 c -1.67556,-3.53099 -1.35084,-3.30474 -35.16621,-24.50167 -16.19184,-10.14974 -32.43798,-20.39422 -36.10255,-22.76551 l -6.66283,-4.31143 -1.70423,-2.96428 -1.70422,-2.96428 -0.79388,-5.02629 c -0.43662,-2.76446 -1.60965,-11.16555 -2.60672,-18.66908 -5.25615,-39.55569 -12.4437,-59.9339 -32.34581,-91.70717 -12.29531,-19.62918 -25.76657,-36.92254 -39.36689,-50.53617 l -9.39645,-9.40564 -8.25748,-6.10189 C 493.78334,101.60844 479.16325,92.995485 463.6967,86.029849 c -8.34121,-3.756607 -7.68503,-5.557175 -4.75676,13.052669 2.91759,18.541992 2.85403,17.558542 1.13495,17.558542 h -1.35824 l -0.37719,-1.61559 c -0.20745,-0.88858 -1.57697,-9.532 -3.04338,-19.207615 l -2.66619,-17.59202 -0.98424,-0.7976 c -0.54134,-0.438681 -2.51881,-0.985426 -4.39439,-1.214984 -1.87558,-0.229565 -9.87253,-1.231599 -17.77098,-2.226755 -7.89846,-0.995155 -20.66165,-2.344434 -28.36265,-2.998398 l -14.00181,-1.189034 -25.13146,0.408594 c -25.78245,0.419179 -31.51682,0.78589 -53.85312,3.443893 C 292.4014,75.523392 294.60963,73.048518 289.456,94.58189 l -4.33091,18.09583 -1.24214,0.23922 -1.24216,0.23922 0.0315,-2.02727 c 0.0173,-1.11499 1.59208,-8.48964 3.49945,-16.388097 1.90738,-7.898458 3.20403,-14.462421 2.88145,-14.586585 -11.8281,-4.552822 -75.53257,41.780532 -101.82353,74.057992 -17.53142,21.52334 -33.70414,56.56308 -42.79457,92.71847 l -2.51869,10.01764 -0.75189,7.9334 c -2.52802,26.67346 4.96097,18.938 -56.344207,58.19857 -29.861843,19.12388 -29.798728,19.06558 -29.798728,27.52339 v 2.49737 l 6.214024,11.19702 c 14.230228,25.64136 43.871351,76.99967 61.086511,105.8428 l 11.06173,18.53339 5.51972,5.70051 c 6.01218,6.20913 6.54449,6.46141 8.71585,4.13073 z m 274.68046,-392.28422 -9.33454,-3.10611 -8.97552,-1.47652 c -28.34994,-4.663725 -50.98672,-3.655229 -80.4948,3.58614 l -9.18888,2.25498 -2.52827,-0.47431 -2.52827,-0.4743 -1.0977,-1.56719 -1.0977,-1.56718 v -3.30169 -3.301682 l 1.97461,-3.861434 1.97462,-3.861441 2.51314,-1.232827 c 3.38827,-1.662123 30.52518,-6.224387 42.39762,-7.127892 l 9.57163,-0.728417 13.32815,0.754468 c 47.75755,2.703405 61.70323,7.275348 61.7802,20.254005 0.0522,8.80197 -4.04388,9.97328 -18.29429,5.2314 z m 13.67542,-1.39526 1.76247,-1.76246 -0.0158,-1.64824 c -0.0256,-2.680324 -2.53258,-7.423205 -4.76321,-9.011556 -5.79692,-4.127799 -31.60584,-7.870662 -59.1267,-8.574688 l -16.15594,-0.413298 -7.53943,0.866296 c -4.1467,0.476464 -13.6787,1.976395 -21.18223,3.333185 l -13.64279,2.466883 -1.93636,2.11833 c -1.06499,1.16508 -2.31907,3.395705 -2.78682,4.956936 l -0.85047,2.838605 0.46687,1.860157 0.46686,1.86015 h 3.2266 c 1.77463,0 5.56512,-0.64863 8.42331,-1.44142 25.30258,-7.018184 55.06903,-8.266916 83.46325,-3.501367 l 8.6165,1.446157 9.33454,3.11776 c 11.26977,3.76413 10.1054,3.62252 12.23934,1.48857 z M 368.62628,81.651993 c -1.48096,-0.154911 -3.90435,-0.154911 -5.38532,0 -1.48096,0.154917 -0.26926,0.281659 2.69266,0.281659 2.96192,0 4.17362,-0.126742 2.69266,-0.281659 z M 92.880146,451.08181 c -0.159807,-1.29057 -0.293858,-0.40778 -0.297887,1.96175 -0.0043,2.36954 0.12672,3.42546 0.290563,2.3465 0.163836,-1.07897 0.167132,-3.01768 0.0073,-4.30825 z M 637.87374,441.02923 c -0.1598,-1.29058 -0.29386,-0.40779 -0.29788,1.96175 -0.004,2.36954 0.12672,3.42546 0.29056,2.3465 0.16383,-1.07897 0.16713,-3.01768 0.007,-4.30825 z M 512.64417,400.37998 c 27.53798,-9.92319 43.03726,-46.65295 40.23163,-95.33985 l -0.46017,-7.98531 -11.20475,5.36805 c -6.16261,2.95242 -22.35234,10.63647 -35.97718,17.07567 -13.62484,6.4392 -29.94234,14.19564 -36.26111,17.23654 -27.15431,13.06798 -48.70722,22.50198 -54.03263,23.65081 -3.39771,0.73298 1.96505,9.21512 11.27672,17.83607 l 4.3422,4.02012 6.18274,3.37021 c 3.4005,1.85362 9.6202,4.92791 13.82154,6.83177 l 7.63881,3.46156 8.67259,2.16651 c 4.76991,1.19158 11.23229,2.64749 14.36083,3.23536 l 5.68825,1.06884 10.77062,-0.24518 10.77062,-0.24519 z m -252.99262,-4.0684 c 5.90631,-1.25405 15.03201,-4.23509 18.71233,-6.11265 8.1452,-4.15536 28.42558,-16.43079 43.4159,-26.27901 l 6.4681,-4.24936 -6.4681,-2.02295 c -13.94818,-4.36242 -64.3694,-28.3252 -111.9026,-53.18192 -14.15253,-7.40084 -25.89323,-13.29472 -26.09045,-13.0975 -0.19722,0.19722 -0.68638,4.01986 -1.08704,8.49477 l -0.72846,8.1362 0.40569,11.12964 0.40569,11.12965 1.10141,5.02196 c 5.13967,23.43476 17.16875,44.221 30.90928,53.41123 l 5.2663,3.52232 5.62061,1.83533 c 5.04497,1.64736 10.09221,2.76639 16.39123,3.63411 3.2669,0.45003 12.33062,-0.25724 17.58011,-1.37182 z m 322.93567,-18.8419 c -0.15491,-1.48096 -0.28166,-0.26926 -0.28166,2.69266 0,2.96192 0.12675,4.17362 0.28166,2.69265 0.15491,-1.48096 0.15491,-3.90435 0,-5.38531 z M 153.19995,326.10804 c -0.15059,-1.66651 -0.27201,-0.12194 -0.26982,3.43236 0.002,3.55431 0.1254,4.91781 0.2738,3.03002 0.1484,-1.88781 0.14661,-4.79587 -0.004,-6.46238 z M 450.19542,64.044513 c -0.94478,-5.232728 -1.91991,-10.913356 -2.16695,-12.623624 l -0.44917,-3.109572 -1.51006,-0.56395 c -2.21177,-0.826014 -39.67834,-5.602994 -54.28612,-6.921469 l -12.56573,-1.134161 -19.74614,-0.10701 -19.74615,-0.10701 -15.07887,2.327999 c -8.29338,1.280405 -17.50143,2.738302 -20.46232,3.239775 l -5.38345,0.911776 -2.05755,12.762192 c -2.4607,15.262858 -3.71603,13.759279 10.0418,12.02765 16.8359,-2.119049 25.92778,-2.837385 45.86514,-3.623748 l 17.95104,-0.708011 15.07888,0.668555 c 16.71575,0.741133 31.86861,2.137028 50.26291,4.630255 6.71369,0.909996 13.05357,1.697257 14.08862,1.749473 l 1.8819,0.09493 z m -76.90187,3.962003 c -1.67842,-0.151169 -4.42493,-0.151169 -6.10336,0 -1.67842,0.151177 -0.30516,0.274867 3.05168,0.274867 3.35685,0 4.7301,-0.12369 3.05168,-0.274867 z"
     id="path105" />
  <path
     style="fill:#000000;fill-opacity:1;stroke-width:1.11373"
     d="m 257.72123,467.63177 c -1.13835,-0.44766 -2.70893,-2.00829 -3.49017,-3.46806 -2.13432,-3.98801 -0.19397,-7.92001 5.86178,-11.87853 12.12851,-7.92815 69.11228,-34.9145 73.72468,-34.9145 4.81135,0 7.0922,3.38608 6.1423,9.11869 -0.43772,2.64161 -1.27541,5.7154 -1.86153,6.83063 -1.03555,1.97037 -20.68763,11.82052 -55.01097,27.57298 -16.014,7.34951 -20.66867,8.58608 -25.36609,6.73879 z"
     id="path107" />
  <path
     style="fill:#000000;fill-opacity:1;stroke-width:1.11373"
     d="m 266.09392,538.18303 c -3.1062,-3.9489 -3.0665,-8.43134 0.10097,-11.39846 2.81038,-2.63263 63.87296,-28.1116 67.37189,-28.1116 2.81663,0 4.26984,1.77878 5.26883,6.44921 1.60722,7.51405 -1.72523,9.6267 -41.64474,26.40117 -24.47557,10.28481 -27.70192,10.97576 -31.09695,6.65968 z"
     id="path111" />
  <path
     style="fill:#000000;fill-opacity:1;stroke-width:1.11373"
     d="m 278.90049,614.30996 c -2.65702,-1.48694 -5.75822,-12.81529 -4.06634,-14.85388 1.58549,-1.9104 13.65348,-6.66186 36.74524,-14.46748 23.54218,-7.95788 22.76564,-7.82689 25.53435,-4.30705 2.63674,3.35207 3.22979,12.78434 0.91674,14.58057 -1.33058,1.03329 -50.09241,18.32931 -54.97145,19.4986 -1.29124,0.30945 -3.16258,0.10661 -4.15854,-0.45076 z"
     id="path113" />
  <path
     style="fill:#000000;fill-opacity:1;stroke-width:1.11373"
     d="m 441.0351,615.02916 c -7.70449,-2.62465 -31.91887,-12.98099 -40.4763,-17.31145 -5.38818,-2.72668 -7.36301,-7.39691 -5.03305,-11.90255 2.47122,-4.77881 6.87599,-6.31572 12.42916,-4.33675 10.3822,3.69987 44.77218,20.20119 47.62927,22.85392 3.34846,3.10896 3.38019,5.96681 0.12215,11.00386 -2.05315,3.17427 -4.60914,3.12078 -14.67123,-0.30703 z"
     id="path115" />
  <path
     style="fill:#000000;fill-opacity:1;stroke-width:1.11373"
     d="m 453.02311,541.24686 c -38.86326,-18.73849 -51.37526,-25.16911 -52.28739,-26.87345 -1.78373,-3.33293 0.64772,-9.86356 4.39355,-11.8006 1.77871,-0.91981 3.93948,-1.67238 4.80171,-1.67238 2.92603,0 54.76473,27.02242 58.40592,30.44577 4.27114,4.01563 4.58866,7.23614 1.04195,10.5681 -3.44946,3.2406 -8.69446,3.02656 -16.35574,-0.66744 z"
     id="path117" />
  <path
     style="fill:#000000;fill-opacity:1;stroke-width:1.11373"
     d="m 449.12505,461.22534 c -47.16252,-24.76065 -48.72569,-25.79525 -48.72569,-32.24966 0,-3.39949 5.36841,-9.37754 8.42121,-9.37754 2.99322,0 65.21497,32.91366 68.98303,36.4902 6.06572,5.75741 2.58286,15.99327 -5.362,15.7585 -1.82223,-0.0539 -12.14311,-4.75537 -23.31655,-10.6215 z"
     id="path119" />
  <path
     style="fill:#000000;fill-opacity:1;stroke-width:1.11373"
     d="M 424.06613,103.76884 C 410.456,99.253036 399.0731,97.570005 377.84265,96.934417 c -21.02605,-0.629468 -32.93947,0.360677 -49.00044,4.072513 -16.13615,3.72922 -18.07993,3.86724 -18.8818,1.34077 -0.83446,-2.629169 1.5909,-8.968541 4.28657,-11.204163 2.62007,-2.172924 28.70866,-6.656585 43.55221,-7.48501 21.16673,-1.181325 59.83924,2.584021 71.68154,6.979268 4.00317,1.485769 5.24384,2.675779 7.05249,6.764542 2.08724,4.718553 2.09997,5.066333 0.25987,7.099633 -2.40324,2.65555 -2.53711,2.64783 -12.72696,-0.73313 z"
     id="path121" />
  <path
     style="fill:#ffccaa;fill-opacity:1;stroke-width:1.11373"
     d="m 448.61462,676.66378 c -2.04491,-10.83757 -4.63464,-12.80019 -18.53337,-14.04544 -49.9197,-4.47255 -131.28094,-4.16102 -142.72007,0.54647 -5.93697,2.44322 -9.16743,6.44245 -9.16743,11.34911 v 3.78214 l -13.64319,-0.31271 -13.64319,-0.31271 -0.31319,-17.26282 c -0.17225,-9.49455 -0.67343,-16.68291 -1.11373,-15.97413 -0.44029,0.70877 -0.64361,-14.67366 -0.45179,-34.18319 0.39447,-40.12168 -0.40851,-47.77633 -7.11427,-67.81823 -4.67764,-13.98034 -15.19012,-34.68247 -22.69142,-44.68593 -8.16502,-10.8886 -20.69487,-22.26484 -41.99529,-38.12881 -10.5088,-7.82667 -19.96124,-15.53418 -21.00542,-17.12779 -1.7408,-2.6568 -1.88935,-8.682 -1.78834,-72.53303 0.12184,-77.02088 -0.50773,-70.43533 7.59044,-79.39903 3.39508,-3.75796 4.58043,-4.35768 8.54561,-4.32369 2.53206,0.0217 5.77109,0.68704 7.19782,1.47854 2.58919,1.43636 2.59382,1.48099 2.46561,23.76667 -0.12717,22.10589 -0.0938,22.43683 3.3625,33.32553 10.34892,32.60345 25.92652,49.18191 51.26714,54.5611 20.92379,4.4416 38.57809,-1.45056 77.43734,-25.84489 l 20.63331,-12.95281 9.1047,1.46636 c 9.81333,1.5805 52.02719,2.11171 61.45,0.7733 l 5.56865,-0.79097 5.01178,6.75785 c 7.93744,10.70277 14.79559,16.12674 29.46882,23.30624 19.24842,9.41811 33.11765,12.69902 52.74329,12.477 14.03512,-0.15878 15.22195,-0.35054 22.10436,-3.5712 14.67982,-6.86952 26.1478,-23.14089 33.4154,-47.41152 2.76964,-9.24944 3.03417,-11.8729 3.42502,-33.96877 0.36812,-20.81092 0.66973,-24.14249 2.30423,-25.45255 1.67452,-1.34213 1.57548,-1.424 -0.90367,-0.74692 -1.53138,0.41824 -3.78668,1.02403 -5.01179,1.34622 -1.2251,0.32219 -26.03344,11.87978 -55.12964,25.68353 -73.16603,34.71127 -80.80776,37.83744 -98.51001,40.2996 -18.43351,2.56386 -47.81609,0.79818 -66.32203,-3.98548 -21.35897,-5.52115 -55.05523,-21.03889 -130.09608,-59.91166 -22.54228,-11.67738 -25.39667,-12.8721 -30.75361,-12.8721 -5.61825,0 -6.14845,0.26026 -10.91793,5.35922 -8.81409,9.42298 -8.13259,0.16714 -7.80578,106.01379 l 0.29402,95.22392 -2.52148,4.36834 c -1.3868,2.40258 -3.14311,4.57274 -3.90289,4.82258 -0.75978,0.24983 -3.88479,-1.96651 -6.94446,-4.9252 -5.95734,-5.76075 -21.81311,-31.87543 -60.751232,-100.05816 -25.673044,-44.95486 -24.633822,-42.77278 -22.987509,-48.26768 1.650427,-5.50864 4.74776,-7.84908 40.833042,-30.85473 15.313789,-9.76309 30.301599,-19.75789 33.306239,-22.21068 9.18689,-7.49954 9.69869,-8.64107 11.32111,-25.2506 2.98601,-30.56929 19.47243,-74.83029 38.51086,-103.38991 8.45282,-12.68013 30.36625,-35.11471 48.28194,-49.43022 21.61282,-17.26971 45.18529,-32.179222 55.27059,-34.958478 6.9044,-1.902682 7.16873,-0.95287 3.84557,13.81813 -1.63501,7.267408 -3.2104,14.341118 -3.50086,15.719358 -0.61807,2.93279 1.31298,3.42551 2.1824,0.55687 0.32489,-1.07197 1.8732,-7.462 3.44069,-14.200062 3.78907,-16.287945 4.84403,-19.313159 7.16877,-20.557318 7.92586,-4.241791 76.26167,-7.342294 105.89159,-4.804468 22.85099,1.957207 48.96724,5.385559 50.14662,6.582888 0.51966,0.527569 2.22673,9.18431 3.79348,19.237199 1.56675,10.052891 3.1018,18.531161 3.41124,18.840601 1.82165,1.82164 1.71129,-2.52734 -0.40016,-15.770248 -2.80761,-17.609121 -2.73306,-16.33655 -0.95693,-16.33655 3.12944,0 26.67699,12.590791 39.78653,21.273718 27.46242,18.18935 52.96761,47.22472 74.61201,84.93903 14.19825,24.73977 19.92495,42.98268 25.62237,81.62236 2.43647,16.524 3.96356,23.74428 5.46849,25.85579 1.1484,1.61128 12.0405,9.16695 24.20465,16.79039 39.94068,25.03135 53.82722,34.4142 55.1147,37.23993 1.06222,2.33132 0.70881,3.66794 -2.43911,9.22472 -9.74459,17.20134 -66.35107,108.98929 -76.91401,124.7168 -6.29502,9.37285 -10.32823,12.87998 -14.28235,12.41939 -2.76839,-0.32247 -2.87982,-0.66216 -4.12735,-12.58244 -1.44068,-13.76576 -2.0671,-123.94062 -0.83715,-147.23841 0.62798,-11.89522 0.41766,-15.91506 -1.17203,-22.40196 -2.58874,-10.56357 -7.11593,-17.54771 -13.15016,-20.28686 -8.00514,-3.6338 -9.41939,-2.667 -3.24179,2.2161 6.67007,5.2724 11.05641,10.79548 13.08247,16.47287 3.04366,8.52889 1.5411,121.69804 -1.77954,134.02993 -1.35715,5.04011 -9.27032,12.63449 -27.79335,26.67373 -36.69258,27.81055 -52.55086,51.58125 -61.69756,92.48133 -4.80464,21.48423 -7.41047,49.04766 -9.12577,96.52851 l -0.73427,20.32557 H 464.1846 449.9604 Z m 9.68862,-60.69143 c 3.12499,-4.65179 3.1904,-7.15506 0.30878,-11.81761 -1.85093,-2.99488 -5.80898,-5.28366 -23.1099,-13.36356 -28.1687,-13.15539 -31.74594,-14.39676 -35.65766,-12.37394 -4.85495,2.51059 -7.16611,5.81373 -7.65814,10.94509 -0.76923,8.02216 1.01609,9.15203 38.58845,24.42126 19.3441,7.86136 23.49594,8.19147 27.52847,2.18876 z m -161.67333,-2.74663 c 15.58823,-5.27217 42.01616,-15.27753 43.53779,-16.483 3.41603,-2.70626 2.50569,-15.36733 -1.38464,-19.25767 -0.9464,-0.94639 -2.98392,-1.72071 -4.52785,-1.72071 -3.06991,0 -34.93736,10.1975 -51.30348,16.41698 -9.58899,3.64402 -10.32239,4.14561 -10.94955,7.48861 -0.77015,4.10527 0.86369,11.12723 3.44279,14.79653 2.50921,3.56987 7.89379,3.2545 21.18494,-1.24074 z m 174.69701,-69.84501 c 3.57899,-4.25339 3.70845,-9.41238 0.33738,-13.44395 -3.30491,-3.95244 -57.48984,-31.0198 -62.09714,-31.0198 -7.87186,0 -13.16983,6.19821 -11.75307,13.75017 0.38834,2.07003 1.62261,4.59317 2.74284,5.60695 1.12022,1.01378 14.51694,7.82813 29.77049,15.14299 22.92252,10.99251 28.6343,13.30759 32.92496,13.34501 4.45742,0.0389 5.59877,-0.43909 8.07454,-3.38137 z M 306.24496,530.59464 c 35.0558,-14.83323 36.0312,-15.52091 35.08047,-24.73255 -0.33975,-3.29188 -1.25739,-6.75598 -2.03921,-7.69801 -2.5597,-3.08425 -10.78796,-1.06046 -34.39434,8.4595 -29.8765,12.04858 -40.70004,17.16511 -42.18644,19.94248 -2.72496,5.09164 -0.73519,14.0444 3.49952,15.74568 5.62703,2.26064 10.09842,0.95215 40.04,-11.7171 z M 480.12808,471.7255 c 5.66085,-5.24629 4.99567,-13.41467 -1.51224,-18.57056 -2.1168,-1.67703 -17.67999,-10.35966 -34.58487,-19.29471 -35.50506,-18.76617 -37.29481,-19.26478 -43.32155,-12.06907 -2.93865,3.50864 -3.41194,4.85815 -2.9598,8.43942 0.29602,2.3446 1.33411,5.14238 2.30687,6.21727 2.50691,2.77011 12.83762,8.69395 42.31354,24.26346 28.52925,15.06948 32.2205,16.14622 37.75805,11.01419 z M 283.7624,463.55187 c 30.01103,-13.53482 51.76655,-24.58024 54.91624,-27.88134 4.30794,-4.51503 5.42383,-13.96381 2.1294,-18.03055 -3.3344,-4.11605 -8.79799,-3.56365 -21.40627,2.16432 -28.31898,12.86538 -65.32146,31.43961 -66.71834,33.49077 -2.38904,3.50806 -2.18738,11.52059 0.36082,14.33688 2.53831,2.80538 7.90791,4.51461 11.78474,3.75129 1.53138,-0.30152 10.05142,-3.82563 18.93341,-7.83137 z M 437.65897,107.71928 c 2.42626,-1.9398 3.1323,-5.77929 1.89007,-10.278299 -2.67734,-9.696502 -15.45244,-13.275403 -57.77839,-16.186422 -17.90424,-1.231384 -26.92771,-0.700415 -49.00412,2.883555 -17.91042,2.907646 -21.54439,4.260032 -23.72294,8.828532 -2.15694,4.523138 -2.41543,8.632414 -0.73994,11.763094 1.30676,2.44169 5.9643,2.83549 12.2192,1.03314 30.25815,-8.718891 71.49663,-8.987332 99.44521,-0.64734 14.69178,4.38411 15.344,4.4801 17.69091,2.60374 z"
     id="path180" />
  <path
     style="fill:#ffccaa;fill-opacity:1;stroke-width:1.11373"
     d="m 171.5541,549.36255 c -2.30607,-0.44416 -2.50589,-1.08731 -2.50589,-8.0653 0,-4.17044 -0.71397,-9.27267 -1.5866,-11.33827 -2.27848,-5.3934 -9.07218,-11.50862 -16.78995,-15.11316 -5.80569,-2.71151 -8.29547,-3.16931 -18.97782,-3.48948 l -12.29545,-0.36852 -8.30856,4.32916 c -4.56971,2.38104 -9.36982,5.00656 -10.66692,5.8345 -1.2971,0.82795 -3.176519,1.1914 -4.176489,0.80767 -1.636218,-0.62787 -1.818126,-4.80857 -1.818126,-41.7852 0,-22.59814 -0.313139,-43.53807 -0.695866,-46.53318 -0.610565,-4.77812 -0.497491,-5.24088 0.922419,-3.77507 0.890057,0.91883 9.344032,14.85336 18.786612,30.96563 19.4069,33.11482 26.25654,41.82615 32.41038,41.21931 2.90646,-0.28661 4.00735,-1.23084 6.13027,-5.25788 2.462,-4.67024 2.58761,-6.00834 2.58761,-27.56482 0,-20.84014 0.56268,-25.13725 2.81449,-21.49375 0.39517,0.6394 9.57126,7.82556 20.3913,15.96926 22.62312,17.02724 29.90116,23.42544 37.0505,32.57143 l 5.11237,6.54014 -4.19907,11.1373 -4.19906,11.1373 -8.40245,0.55686 c -11.21725,0.74342 -11.92911,1.55162 -12.66019,14.37369 l -0.57749,10.12837 -7.92006,-0.15166 c -4.35604,-0.0834 -9.04772,-0.36887 -10.42596,-0.63433 z"
     id="path182" />
  <path
     style="fill:#ffccaa;fill-opacity:1;stroke-width:1.11373"
     d="m 543.26151,544.49422 c 0,-7.22647 -0.27067,-8.15245 -3.25552,-11.1373 -2.9773,-2.97729 -3.92092,-3.25552 -11.04145,-3.25552 h -7.78593 l -4.11673,-7.3614 c -3.78377,-6.76601 -3.9942,-7.59479 -2.60174,-10.24701 3.06604,-5.83994 26.47115,-27.99944 41.92264,-39.69155 8.74808,-6.61965 17.59783,-14.01273 19.66613,-16.42906 l 3.76053,-4.39334 0.65012,8.15517 c 2.30456,28.90856 3.05573,35.88603 4.06674,37.77513 1.45004,2.70941 8.3976,2.87331 12.09252,0.28528 2.58529,-1.8108 15.7843,-21.38429 30.8217,-45.70707 l 7.70372,-12.46065 0.29111,45.26322 c 0.23589,36.67646 0.008,45.54676 -1.20345,46.75779 -1.25026,1.25026 -3.65625,0.43962 -14.71927,-4.95932 l -13.22472,-6.45389 -11.98006,0.19027 c -11.11822,0.17659 -12.45372,0.44274 -18.56413,3.69955 -11.67194,6.22108 -20.23118,16.57192 -20.23118,24.46593 0,3.36122 -0.044,3.38555 -6.12552,3.38555 h -6.12551 z"
     id="path184" />
  <path
     style="fill:#ffccaa;fill-opacity:1;stroke-width:1.11373"
     d="m 482.00635,645.03822 c 0,-41.10887 8.71385,-86.8392 21.81837,-114.50288 6.22497,-13.14093 8.32821,-13.23288 14.0642,-0.61481 4.65044,10.23006 5.35176,22.05559 4.54558,76.64655 l -0.69338,46.95183 -3.30065,0.66013 c -1.81535,0.36308 -10.75568,0.66013 -19.86738,0.66013 h -16.56674 z"
     id="path186" />
  <path
     style="fill:#ffccaa;fill-opacity:1;stroke-width:1.11373"
     d="m 211.09949,650.66268 c -1.28196,-1.44475 -1.83475,-5.16953 -2.13651,-14.3962 -0.2239,-6.84595 -0.10599,-11.95997 0.26202,-11.36452 0.36802,0.59547 1.01414,-17.3587 1.43584,-39.89813 0.42169,-22.53944 1.22295,-44.79678 1.78057,-49.46077 1.01745,-8.50996 7.7487,-28.27312 9.62971,-28.27312 1.74633,0 14.24589,26.33338 17.97408,37.86682 6.21664,19.23162 6.96411,26.65872 6.96411,69.19715 v 38.2778 h -17.0902 c -14.87507,0 -17.31436,-0.25262 -18.81962,-1.94903 z"
     id="path188" />
  <path
     style="fill:#ffccaa;fill-opacity:1;stroke-width:1.11373"
     d="m 428.54731,71.212403 c -28.38326,-3.717297 -56.15695,-4.887519 -82.07689,-3.458244 -12.94473,0.713798 -29.45272,2.031805 -36.68441,2.928904 -8.04541,0.998043 -13.54797,1.231659 -14.1777,0.601928 -0.91567,-0.915673 2.27675,-25.656161 3.31058,-25.656161 0.20765,0 9.78773,-1.545977 21.28908,-3.435505 20.13901,-3.308589 21.8167,-3.413297 45.41359,-2.834348 22.12067,0.542729 31.89083,1.433834 69.19291,6.310869 5.59087,0.730974 10.7851,1.71215 11.54273,2.180391 1.12879,0.697633 5.34966,19.195076 5.52888,24.229682 0.0638,1.791007 -4.26959,1.629934 -23.33877,-0.867516 z"
     id="path190" />
  <path
     style="fill:#ffccaa;fill-opacity:1;stroke-width:1.11373"
     d="m 525.41976,597.90436 c -0.0186,-39.91407 -0.57486,-54.20197 -2.47595,-63.60284 -0.20622,-1.01975 1.54023,-1.4063 6.24326,-1.38185 5.73501,0.0298 6.8531,0.41006 9.18828,3.12486 l 2.6587,3.09093 v 51.66061 c 0,28.41334 -0.39331,51.90369 -0.87401,52.20079 -0.48071,0.29708 -3.98896,0.89257 -7.79612,1.32331 l -6.92209,0.78314 z"
     id="path192" />
  <path
     style="fill:#ffccaa;fill-opacity:1;stroke-width:1.11373"
     d="m 192.65929,642.36539 c -1.59299,-1.59299 -1.73579,-43.48237 -0.28895,-84.76319 0.83842,-23.9217 1.1322,-26.66879 3.00365,-28.08627 2.20758,-1.67207 11.19929,-2.17909 13.43556,-0.75759 1.02048,0.64867 1.10343,5.59621 0.34983,20.86538 -0.54331,11.00831 -1.33729,36.67929 -1.7644,57.04663 l -0.77657,37.03152 h -6.31132 c -3.47123,0 -6.91274,-0.60141 -7.6478,-1.33648 z"
     id="path194" />
  <path
     style="fill:#ff5555;fill-opacity:1;stroke-width:1.11373"
     d="m 227.87602,394.91664 c -18.59324,-5.50336 -31.94384,-21.34809 -41.15606,-48.84473 -2.65379,-7.92101 -3.62582,-13.27637 -4.31188,-23.75593 -0.82551,-12.6096 -9e-5,-28.69161 1.55229,-30.24399 0.3727,-0.3727 21.1012,9.63782 46.06334,22.2456 52.72685,26.63106 77.44076,38.06351 97.01945,44.88036 0.8843,0.3079 -1.89987,2.75508 -6.68238,5.87357 -13.8034,9.00065 -33.74006,21.00819 -40.78824,24.5661 -15.9733,8.06329 -35.53946,10.0613 -51.69652,5.27902 z"
     id="path196" />
  <path
     style="fill:#ff5555;fill-opacity:1;stroke-width:1.11373"
     d="m 484.79068,402.28607 c -15.40038,-2.89511 -28.30401,-6.84343 -38.98055,-11.92749 -13.77742,-6.56067 -19.57773,-10.80203 -26.78052,-19.58274 -5.28346,-6.44091 -6.16798,-9.59424 -3.01176,-10.73697 11.2367,-4.06832 31.89085,-13.53916 97.62853,-44.76701 20.77105,-9.86702 38.18701,-17.94004 38.70212,-17.94004 1.54273,0 1.04498,30.93983 -0.68086,42.32174 -4.78586,31.56298 -20.18736,55.30787 -39.59057,61.03783 -4.05087,1.19626 -23.39275,2.32665 -27.28639,1.59468 z"
     id="path198" />
  <path
     style="fill:#ffdd55;fill-opacity:1;stroke-width:1.11373"
     d="m 138.42063,618.05228 c -21.66063,-0.87426 -27.0298,-2.1113 -39.07423,-9.0026 -10.843846,-6.20437 -19.579305,-14.97174 -24.132563,-24.22073 -3.269921,-6.64215 -3.617008,-8.31129 -3.617008,-17.39417 0,-8.6078 0.434209,-10.97374 3.031207,-16.51661 4.961247,-10.58897 21.409531,-24.8189 38.984304,-33.72653 6.93646,-3.51569 8.26055,-3.79619 17.92022,-3.79619 9.40464,0 11.10051,0.33489 17.24513,3.40539 7.67835,3.83691 15.86012,12.14691 17.62503,17.90125 1.43054,4.66411 0.65787,12.08314 -1.33819,12.8491 -0.8209,0.31501 -7.04199,-0.97643 -13.82464,-2.86987 -13.28074,-3.70744 -15.60358,-4.05413 -15.60358,-2.32889 0,0.61256 0.24808,1.11373 0.55129,1.11373 0.3032,0 7.28913,1.77256 15.52428,3.93901 8.33215,2.19197 19.98459,4.37432 26.27257,4.9205 6.21476,0.53982 11.40089,1.14787 11.52472,1.35121 0.12382,0.20335 -0.0439,14.9039 -0.37277,32.66789 l -0.59791,32.29817 -15.59223,0.0868 c -8.57572,0.0477 -24.11225,-0.25712 -34.52563,-0.67742 z"
     id="path200" />
  <path
     style="fill:#ffdd55;fill-opacity:1;stroke-width:1.11373"
     d="m 78.835605,508.94002 c -3.72885,-4.03907 -4.285288,-5.49145 -5.954435,-15.54189 -2.63917,-15.89125 -2.561778,-16.75577 1.499984,-16.75577 h 3.341191 v -18.37654 -18.37655 h -3.898056 -3.898055 v -11.17323 c 0,-9.80907 0.418412,-12.25821 3.427031,-20.05982 1.884868,-4.88762 3.83401,-8.63506 4.331428,-8.32764 0.497418,0.30742 3.71645,5.52544 7.153404,11.59561 l 6.249008,11.03665 v 42.28278 c 0,41.08995 -0.06512,42.36558 -2.308294,45.21731 -3.147498,4.0014 -5.124173,3.69904 -9.943206,-1.52091 z"
     id="path202" />
  <path
     style="fill:#ffdd55;fill-opacity:1;stroke-width:1.11373"
     d="M 544.37524,590.79969 V 555.7172 l 3.06275,-0.0524 c 18.60251,-0.31792 31.60127,-2.13389 43.99234,-6.14588 7.50781,-2.43088 13.08633,-4.8332 13.08633,-5.63547 0,-0.99546 -2.3265,-0.59894 -8.07454,1.3762 -12.15337,4.17614 -25.19942,7.09977 -31.72009,7.1085 -5.27834,0.007 -5.89112,-0.25219 -6.52022,-2.75871 -1.45334,-5.79059 8.55994,-17.78155 19.1162,-22.89175 13.57236,-6.57027 24.48264,-5.31382 45.64609,5.25667 18.26739,9.124 26.80294,15.83874 31.36652,24.67539 3.20368,6.2034 3.64508,8.11109 3.64508,15.75334 0,37.16262 -27.74314,53.45646 -91.04743,53.47312 l -22.55303,0.006 z"
     id="path204" />
  <path
     style="fill:#ffdd55;fill-opacity:1;stroke-width:0.556865"
     d="m 639.61407,524.98405 c -1.17982,-2.16169 -1.35999,-13.42348 -0.84852,-53.0396 l 0.49604,-38.42188 8.14641,-13.22735 c 4.48052,-7.27504 8.30367,-13.22734 8.4959,-13.22734 0.65916,0 3.97649,8.63159 5.24341,13.64319 1.68508,6.66575 2.5613,13.79616 2.68034,21.81168 l 0.0978,6.58844 -2.6346,0.16929 c -3.14758,0.20227 -3.86256,1.01354 -5.47407,6.21137 -2.39766,7.73353 -3.6628,23.21443 -2.30008,28.14497 0.45323,1.63988 0.53648,1.67363 4.52778,1.83556 l 4.06605,0.16496 -0.35435,2.34093 c -1.82418,12.05108 -3.38165,18.73948 -5.21328,22.38807 -3.9247,7.81793 -8.5392,13.35502 -12.50749,15.00816 -2.78847,1.16165 -3.61405,1.08874 -4.42138,-0.39045 z"
     id="path206" />
</svg>
