<?xml version="1.0" encoding="UTF-8" standalone="no"?>
<svg
   xmlns:dc="http://purl.org/dc/elements/1.1/"
   xmlns:cc="http://creativecommons.org/ns#"
   xmlns:rdf="http://www.w3.org/1999/02/22-rdf-syntax-ns#"
   xmlns:svg="http://www.w3.org/2000/svg"
   xmlns="http://www.w3.org/2000/svg"
   xmlns:xlink="http://www.w3.org/1999/xlink"
   xmlns:sodipodi="http://sodipodi.sourceforge.net/DTD/sodipodi-0.dtd"
   xmlns:inkscape="http://www.inkscape.org/namespaces/inkscape"
   version="1.1"
   viewBox="0 0 64 64"
   id="svg34"
   sodipodi:docname="hellknight_item.svg"
   inkscape:version="1.0.2-2 (e86c870879, 2021-01-15)">
  <metadata
     id="metadata38">
    <rdf:RDF>
      <cc:Work
         rdf:about="">
        <dc:format>image/svg+xml</dc:format>
        <dc:type
           rdf:resource="http://purl.org/dc/dcmitype/StillImage" />
      </cc:Work>
    </rdf:RDF>
  </metadata>
  <sodipodi:namedview
     pagecolor="#ffffff"
     bordercolor="#666666"
     borderopacity="1"
     objecttolerance="10"
     gridtolerance="10"
     guidetolerance="10"
     inkscape:pageopacity="0"
     inkscape:pageshadow="2"
     inkscape:window-width="1920"
     inkscape:window-height="1017"
     id="namedview36"
     showgrid="false"
     inkscape:zoom="6.533572"
     inkscape:cx="59.983856"
     inkscape:cy="46.829774"
     inkscape:window-x="-8"
     inkscape:window-y="-8"
     inkscape:window-maximized="1"
     inkscape:current-layer="svg34"
     inkscape:document-rotation="0" />
  <defs
     id="defs14">
    <linearGradient
       id="linearGradient859">
      <stop
         stop-color="#c9c8b9"
         offset="0"
         id="stop2" />
      <stop
         stop-color="#e3e2db"
         offset="1"
         id="stop4" />
    </linearGradient>
    <linearGradient
       id="linearGradient853"
       x1="23.797"
       x2="39.593"
       y1="49.085"
       y2="44.678"
       gradientUnits="userSpaceOnUse">
      <stop
         stop-color="#7ef6de"
         offset="0"
         id="stop7" />
      <stop
         stop-color="#afe"
         offset="1"
         id="stop9" />
    </linearGradient>
    <linearGradient
       id="linearGradient861"
       x1="30.106"
       x2="35.794"
       y1="10.883"
       y2="10.492"
       gradientUnits="userSpaceOnUse"
       xlink:href="#linearGradient859" />
    <linearGradient
       id="linearGradient869"
       x1="29.387"
       x2="36.05"
       y1="5.418"
       y2="4.3633"
       gradientUnits="userSpaceOnUse"
       xlink:href="#linearGradient859" />
  </defs>
  <path
     style="fill:#000000;stroke-width:0.122065"
     d="m 32.023035,59.062982 c -0.0405,-0.06714 -0.112847,-0.451642 -0.160761,-0.854457 -0.04791,-0.402815 -0.192098,-1.246535 -0.320405,-1.874931 -0.288097,-1.410975 -0.289947,-1.344889 0.04136,-1.478059 0.266504,-0.10712 0.264951,-0.110624 -0.05238,-0.118131 -0.299007,-0.0071 -0.338991,-0.06787 -0.46668,-0.709612 -0.07681,-0.386032 -0.186545,-0.881878 -0.243854,-1.101881 -0.09717,-0.37302 -0.07804,-0.411147 0.283582,-0.565141 0.403033,-0.17163 0.361358,-0.222057 -0.303299,-0.366993 -0.269428,-0.05875 -0.339723,-0.158664 -0.411805,-0.58531 -0.04781,-0.282957 -0.131503,-0.598972 -0.185996,-0.702258 -0.05449,-0.103287 -0.157417,-0.374096 -0.228718,-0.601798 -0.109187,-0.348693 -0.09599,-0.439551 0.08365,-0.575929 0.198333,-0.150563 0.194939,-0.162193 -0.04837,-0.165803 -0.20736,-0.0031 -0.328826,-0.171641 -0.585259,-0.812201 -0.177976,-0.444575 -0.296157,-0.835755 -0.262624,-0.869287 0.03353,-0.03353 0.306679,0.08303 0.606994,0.259026 0.646629,0.378949 0.671346,0.382888 0.667542,0.106379 -0.0016,-0.117488 0.03553,-0.336658 0.08254,-0.487045 0.06773,-0.216671 0.02557,-0.296485 -0.203088,-0.384486 -0.253258,-0.09747 -0.262428,-0.121617 -0.07495,-0.197373 0.254429,-0.102811 0.303347,-0.974502 0.06103,-1.087582 -0.122065,-0.05696 -0.122065,-0.08545 0,-0.142408 0.08392,-0.03916 0.152582,-0.198494 0.152582,-0.35407 0,-0.224927 -0.09376,-0.306557 -0.457745,-0.398533 l -0.457744,-0.115667 0.457744,-0.09314 c 0.442982,-0.09014 0.457745,-0.109959 0.457745,-0.614613 0,-0.432516 -0.04685,-0.536955 -0.274647,-0.612237 l -0.274646,-0.09077 0.274646,-0.05403 c 0.377476,-0.07425 0.406087,-0.764167 0.03052,-0.735876 -0.134272,0.01012 -0.244131,0.06163 -0.244131,0.114479 0,0.05285 -0.05493,0.09609 -0.122065,0.09609 -0.06714,0 -0.122065,-0.08412 -0.122065,-0.186922 0,-0.136775 -0.111627,-0.179403 -0.416082,-0.1589 -0.228844,0.01541 -0.504817,-0.04562 -0.613275,-0.135635 -0.108457,-0.09001 -0.217756,-0.142099 -0.242886,-0.115747 -0.02513,0.02635 -0.275771,0.505446 -0.55698,1.064656 -0.281208,0.559211 -0.535182,0.992854 -0.564385,0.963651 -0.0292,-0.0292 0.0297,-0.404344 0.130897,-0.833649 0.235071,-0.997237 0.234735,-1.422215 -0.0013,-1.65826 -0.206447,-0.206445 -0.203485,-0.207528 -0.397772,0.145317 -0.120521,0.218877 -0.131852,0.206251 -0.109551,-0.122066 0.02242,-0.330007 -0.01123,-0.366635 -0.340504,-0.370637 -0.253629,-0.0031 -0.378418,-0.07215 -0.408012,-0.22581 -0.03191,-0.165707 -0.127464,-0.208918 -0.380013,-0.171852 -0.248623,0.03649 -0.333962,-3.66e-4 -0.32438,-0.140326 0.0075,-0.109178 -0.103698,-0.206443 -0.261646,-0.228909 -0.180115,-0.02562 -0.274646,0.02395 -0.274646,0.144033 0,0.100704 -0.123591,0.200651 -0.274647,0.222104 -0.174081,0.02472 -0.288606,0.1371 -0.312769,0.306904 -0.02303,0.161831 -0.10137,0.243626 -0.197875,0.206594 -0.247386,-0.09493 -0.545498,0.277147 -0.465907,0.581504 0.05644,0.215816 0.02932,0.251336 -0.141774,0.185683 -0.258532,-0.09921 -0.682137,0.10959 -0.682137,0.336231 0,0.09106 -0.130583,0.198344 -0.290184,0.238402 -0.327521,0.0822 -0.735596,0.625725 -0.645692,0.860009 0.03256,0.08484 0.311377,0.224869 0.6196,0.311165 0.308223,0.0863 0.560406,0.199868 0.560406,0.252376 0,0.115682 -0.929654,0.294119 -1.312201,0.251862 -0.151055,-0.01668 -0.274646,0.02257 -0.274646,0.08723 0,0.228815 -0.60395,0.275905 -0.916029,0.07142 -0.194323,-0.127324 -0.304626,-0.148927 -0.304626,-0.05966 0,0.07696 0.08239,0.171552 0.183098,0.210196 0.318706,0.122299 0.200955,0.221025 -0.538497,0.451486 -0.548917,0.171078 -0.778293,0.192784 -0.967453,0.09155 -0.361949,-0.193709 -0.420942,-0.166226 -0.339521,0.15818 0.06106,0.243278 0.0083,0.317201 -0.322446,0.451752 -0.2175,0.08848 -0.658784,0.314629 -0.980635,0.502547 -0.321849,0.18792 -0.692622,0.341672 -0.82394,0.341672 -0.131316,0 -0.238758,0.04861 -0.238758,0.108026 0,0.131483 -0.60899,0.544326 -0.687349,0.465965 -0.03071,-0.03071 0.243743,-0.473403 0.609903,-0.983754 0.366162,-0.510353 0.690991,-0.997709 0.721844,-1.083015 0.04504,-0.124536 0.107026,-0.125033 0.314519,-0.0025 0.379148,0.223863 0.435239,0.188234 0.220239,-0.139897 -0.157222,-0.239952 -0.165224,-0.349387 -0.04455,-0.609372 0.0809,-0.174294 0.187543,-0.317326 0.236994,-0.31785 0.04945,-4.88e-4 0.171943,-0.19728 0.272202,-0.437236 0.154863,-0.370638 0.233168,-0.430531 0.520416,-0.398047 0.248703,0.02812 0.327026,-0.0098 0.296159,-0.143526 -0.147728,-0.639868 -0.131083,-0.955692 0.0707,-1.341382 0.12293,-0.234975 0.294813,-0.412008 0.381959,-0.393404 0.108649,0.02319 0.149753,-0.0919 0.130782,-0.366195 -0.05305,-0.767067 -0.0047,-0.94932 0.251951,-0.94932 0.162753,0 0.24413,0.08138 0.24413,0.244131 0,0.27929 0.126341,0.312388 0.349462,0.09155 0.124072,-0.122803 0.128836,-0.08552 0.02441,0.191045 -0.07136,0.188993 -0.129744,0.394978 -0.129744,0.457744 0,0.208812 0.361864,0.117741 0.516588,-0.130011 0.08385,-0.134272 0.203585,-0.244131 0.266071,-0.244131 0.06248,0 0.210639,-0.08781 0.329233,-0.195139 0.165132,-0.149442 0.189529,-0.263781 0.104181,-0.488261 -0.110525,-0.290706 0.03308,-0.4212 0.18788,-0.170727 0.16799,0.271814 0.915286,-0.32997 0.915286,-0.737061 0,-0.177186 0.05676,-0.244129 0.170104,-0.200634 0.09356,0.0359 0.292758,-0.06529 0.44267,-0.22486 0.312309,-0.332437 0.254159,-0.711619 -0.08938,-0.582808 -0.194982,0.07311 -0.199562,0.05889 -0.04299,-0.133425 0.152288,-0.187054 0.152288,-0.23019 0,-0.329234 -0.09639,-0.06269 -0.312573,-0.08149 -0.480412,-0.04179 l -0.305163,0.07218 0.281268,-0.299498 c 0.226295,-0.240961 0.246489,-0.312843 0.103323,-0.367782 -0.09787,-0.03756 -0.306836,-0.03771 -0.464367,-3.66e-4 -0.280311,0.06649 -0.281218,0.06392 -0.04248,-0.120434 0.403301,-0.311434 0.154185,-0.339751 -0.739808,-0.08409 -1.179354,0.337265 -1.204988,0.310039 -0.254351,-0.270133 0.890134,-0.543249 1.081161,-0.783401 0.796126,-1.000863 -0.09727,-0.07421 -0.157098,-0.231056 -0.132947,-0.348544 0.02768,-0.134656 -0.0303,-0.213614 -0.156857,-0.213614 -0.182516,0 -0.18333,-0.01744 -0.0089,-0.191817 0.267068,-0.26705 0.239304,-0.418488 -0.07673,-0.418488 -0.208867,0 -0.235992,-0.03255 -0.122065,-0.146478 0.239257,-0.239258 0.16735,-0.463848 -0.148513,-0.463848 -0.162245,0 -0.319513,-0.06866 -0.349484,-0.152582 -0.089,-0.249202 -0.204391,-0.04443 -0.238841,0.423849 -0.03702,0.50326 -0.152267,0.501495 -0.253342,-0.0039 l -0.0696,-0.348018 -1.440273,0.0098 -1.440273,0.0098 -0.0783,0.366196 -0.07829,0.366195 -0.01444,-0.335679 c -0.01284,-0.298387 -0.124046,-0.394169 -0.407817,-0.351246 -0.04852,0.0073 -0.336011,0.02272 -0.638875,0.03417 -0.435024,0.01646 -0.567115,0.07267 -0.62901,0.267682 -0.07347,0.231487 -0.08903,0.226461 -0.249996,-0.08075 -0.18156,-0.346519 -0.505995,-0.424895 -0.749765,-0.181124 -0.113927,0.113927 -0.146479,0.113927 -0.146479,0 0,-0.17429 -0.806084,-0.201435 -0.911605,-0.0307 -0.03936,0.06368 0.06094,0.390425 0.222872,0.726101 0.161935,0.335677 0.268696,0.636054 0.237244,0.667505 -0.07901,0.079 -0.901119,-0.416799 -0.964859,-0.58189 -0.02853,-0.07373 -0.22725,-0.140485 -0.441656,-0.148338 -0.28353,-0.01039 -0.483927,-0.126882 -0.734909,-0.427228 -0.276797,-0.33124 -0.366674,-0.378093 -0.45422,-0.236793 -0.09106,0.146973 -0.165361,0.150543 -0.448468,0.02155 C 10.659349,33.90816 10.174783,33.726253 9.7691657,33.588956 9.3635482,33.451659 8.9359571,33.222244 8.8189634,33.079145 8.6518879,32.874788 8.5836358,32.853693 8.5008616,32.980825 8.4152905,33.112253 8.1339738,33.080219 7.0046644,32.810452 5.2569741,32.39297 5.1250031,32.324936 5.8515258,32.215986 c 0.3168585,-0.04752 0.7981499,-0.164733 1.0695365,-0.260484 0.2713866,-0.09575 0.642873,-0.174096 0.8255252,-0.174096 0.1826522,0 0.5036296,-0.08557 0.7132832,-0.190162 0.516417,-0.257622 1.2431673,-0.369868 1.2431673,-0.192005 0,0.222369 0.2103231,0.158434 0.2734955,-0.08314 0.040919,-0.156475 0.3396695,-0.301428 1.0212745,-0.49552 0.52989,-0.15089 1.082745,-0.32288 1.228566,-0.382199 0.22823,-0.09284 0.284858,-0.05361 0.40688,0.281905 l 0.141751,0.389759 0.264479,-0.549293 c 0.171136,-0.355432 0.350639,-0.557267 0.508608,-0.571884 0.42432,-0.03927 1.556151,-0.364091 2.432829,-0.698202 0.465288,-0.177327 0.895975,-0.305748 0.957083,-0.285379 0.06111,0.02037 -0.252286,0.429527 -0.696426,0.909239 -0.444142,0.479714 -0.76497,0.89499 -0.712953,0.922835 0.210467,0.112669 0.81661,-0.0035 0.860439,-0.164913 0.131575,-0.484549 0.191026,-0.523785 0.261724,-0.172729 l 0.07375,0.366196 h 1.078708 c 1.146174,0 1.298817,-0.07796 1.298817,-0.663334 0,-0.138686 0.05493,-0.252155 0.122065,-0.252155 0.06714,0 0.122065,0.158062 0.122065,0.35125 0,0.441379 0.211442,0.621621 0.634047,0.540486 0.213322,-0.04095 0.34506,-0.155103 0.374921,-0.324858 0.04337,-0.246566 0.05389,-0.243079 0.181652,0.06023 0.11999,0.284855 0.182186,0.312424 0.539831,0.239277 0.44462,-0.09094 0.615952,-0.444547 0.260078,-0.536773 -0.202462,-0.05247 -0.203035,-0.05833 -0.007,-0.07133 0.203772,-0.01351 0.234499,-0.06161 0.26244,-0.410872 0.0067,-0.08392 0.08561,-0.229913 0.175336,-0.324428 0.08972,-0.09452 0.138534,-0.300502 0.108475,-0.457745 -0.03006,-0.157244 -0.0073,-0.285897 0.05049,-0.285897 0.190871,0 0.109285,-0.250222 -0.108475,-0.332695 -0.334107,-0.126538 -1.692895,-1.007566 -1.555944,-1.008863 0.06735,-6.1e-4 0.50661,0.108699 0.976134,0.242971 0.469524,0.134271 0.943316,0.24413 1.052873,0.24413 0.222935,0 0.540627,-0.646188 0.416463,-0.847089 -0.047,-0.07605 0.02953,-0.129433 0.18557,-0.129433 0.215212,0 0.254842,-0.05609 0.209015,-0.29582 -0.04098,-0.214391 0.0055,-0.312046 0.168868,-0.354768 0.296924,-0.07765 0.316435,-0.692129 0.02198,-0.692129 -0.111892,0 -0.166702,-0.03674 -0.121798,-0.08164 0.0449,-0.0449 -0.0092,-0.182034 -0.12025,-0.304732 -0.15343,-0.169538 -0.241396,-0.190304 -0.366462,-0.08651 -0.130768,0.108529 -0.164568,0.07231 -0.164568,-0.176326 0,-0.343942 -0.193663,-0.522638 -0.510072,-0.47065 -0.14417,0.02369 -0.216533,-0.06767 -0.24413,-0.308209 -0.02337,-0.203735 -0.14172,-0.386915 -0.292884,-0.453337 -0.139514,-0.0613 -0.322638,-0.267287 -0.406943,-0.457744 -0.08431,-0.190457 -0.199905,-0.346286 -0.25689,-0.346286 -0.144776,0 -0.294249,0.492238 -0.254359,0.837654 0.02182,0.188978 -0.01424,0.258978 -0.104645,0.203106 -0.07587,-0.04689 -0.213043,-0.02293 -0.304829,0.05325 -0.186405,0.154703 -0.240741,0.09493 -0.357429,-0.393184 -0.04994,-0.208918 -0.01002,-0.47303 0.105189,-0.695813 0.25912,-0.501082 0.235239,-0.580325 -0.157512,-0.522682 -0.307126,0.04508 -0.35989,-2.45e-4 -0.501984,-0.430752 -0.118999,-0.360568 -0.12476,-0.544697 -0.023,-0.734846 0.194792,-0.363971 0.172674,-0.405746 -0.169374,-0.319897 -0.168228,0.04222 -0.305163,0.02352 -0.305163,-0.04167 0,-0.06504 -0.137155,-0.320373 -0.304787,-0.567394 -0.288167,-0.424635 -0.294057,-0.465506 -0.108026,-0.749425 0.200459,-0.305941 0.172178,-0.339938 -0.258545,-0.310806 -0.246825,0.01669 -0.671359,-0.561825 -0.671359,-0.914871 0,-0.09526 -0.04705,-0.173205 -0.104565,-0.173205 -0.115505,0 -1.025003,-1.352425 -0.955941,-1.421487 0.02376,-0.02376 0.407652,0.19023 0.853096,0.47553 0.503148,0.32226 0.811382,0.602751 0.813816,0.740569 0.0029,0.163523 0.06627,0.202049 0.241109,0.146558 0.309391,-0.0982 1.237502,0.375515 1.314792,0.671075 0.0482,0.1843 0.114292,0.205971 0.352261,0.115497 0.171061,-0.06504 0.292932,-0.06588 0.292932,-0.002 0,0.06014 0.164788,0.145539 0.366195,0.189775 0.409505,0.08994 0.417184,0.103876 0.239837,0.435253 -0.148822,0.278076 -0.03332,0.307955 0.238813,0.06178 0.156892,-0.141926 0.28913,-0.148582 0.711486,-0.03581 0.286321,0.07645 0.518778,0.212485 0.518778,0.303597 0,0.0908 0.05443,0.131444 0.120959,0.09033 0.194229,-0.12004 1.465888,0.22112 1.465888,0.393269 0,0.159561 -0.0607,0.174947 -0.793424,0.201116 -0.234975,0.0084 -0.427228,0.05473 -0.427228,0.102976 0,0.04824 -0.08923,0.05348 -0.198287,0.01163 -0.175104,-0.06719 -0.173084,-0.03762 0.01729,0.252918 0.118567,0.180956 0.317655,0.38364 0.442419,0.450412 0.124765,0.06677 0.226844,0.193351 0.226844,0.281288 0,0.253905 0.431413,0.57807 0.65509,0.492237 0.142432,-0.05466 0.182401,-0.02614 0.13532,0.09655 -0.107646,0.280519 0.506881,0.860455 0.809875,0.764288 0.210646,-0.06686 0.241934,-0.04035 0.180577,0.15297 -0.04962,0.156335 0.02369,0.325816 0.221191,0.511358 0.328863,0.308952 0.753341,0.296915 0.728003,-0.02064 -0.01321,-0.165543 0.02897,-0.181395 0.216137,-0.08123 0.27,0.1445 0.471633,0.05582 0.471633,-0.207425 0,-0.125847 0.07398,-0.160639 0.233754,-0.10993 0.152803,0.0485 0.290188,-0.0064 0.396712,-0.158464 0.08963,-0.127961 0.217887,-0.253771 0.285023,-0.279579 0.141553,-0.05441 0.142443,-0.03384 -0.04885,-1.129279 -0.08051,-0.461023 -0.124013,-0.860584 -0.09668,-0.887915 0.02733,-0.02733 0.262349,0.363605 0.522268,0.868741 0.48952,0.95136 0.657732,1.114171 0.665141,0.643784 l 0.0043,-0.274647 0.16091,0.290267 0.16091,0.290267 0.21362,-0.290267 c 0.141149,-0.191793 0.233481,-0.238502 0.272165,-0.137685 0.110774,0.288705 0.397604,0.151931 0.511962,-0.24413 0.112109,-0.38827 0.114781,-0.389569 0.125555,-0.06103 0.0068,0.205802 0.07906,0.335679 0.186903,0.335679 0.205435,0 0.250445,-0.0653 0.359555,-0.521589 0.06657,-0.278409 0.03245,-0.356427 -0.192216,-0.439539 l -0.273117,-0.101082 0.283229,-0.151579 c 0.198356,-0.106156 0.244706,-0.190103 0.154672,-0.280137 -0.07071,-0.07071 -0.09809,-0.280921 -0.06084,-0.46714 0.0635,-0.317524 0.03462,-0.34532 -0.464357,-0.446913 l -0.532072,-0.108329 0.518777,-0.08602 c 0.434117,-0.07198 0.518777,-0.131604 0.518777,-0.365331 0,-0.153619 -0.06592,-0.345223 -0.146478,-0.425786 -0.113927,-0.113927 -0.113927,-0.146478 0,-0.146478 0.242196,0 0.184082,-0.942489 -0.06714,-1.08881 -0.192195,-0.111943 -0.186928,-0.12479 0.05254,-0.12813 0.249062,-0.0035 0.263574,-0.0527 0.226037,-0.76662 -0.02206,-0.419599 -0.0457,-0.804104 -0.05254,-0.854456 -0.0068,-0.05035 -0.190943,-0.09878 -0.409135,-0.107618 l -0.396712,-0.01607 0.427229,-0.07548 0.427228,-0.07548 0.03529,-0.884973 c 0.01941,-0.486735 -0.01427,-0.884973 -0.07485,-0.884973 -0.06057,0 -0.370394,0.27824 -0.68849,0.618311 -0.318097,0.340071 -0.601641,0.595027 -0.630098,0.56657 -0.02846,-0.02846 0.0526,-0.295156 0.180125,-0.592662 0.127527,-0.297507 0.269587,-0.712663 0.31569,-0.922569 0.0461,-0.209905 0.158598,-0.41034 0.249987,-0.445409 0.09582,-0.03677 0.139694,-0.164987 0.103634,-0.302882 -0.03439,-0.131515 0.0085,-0.368325 0.09538,-0.526244 0.08685,-0.157919 0.162015,-0.342055 0.167028,-0.409191 0.04505,-0.603171 0.229643,-0.930467 0.562309,-0.997 0.377641,-0.07553 0.462122,-0.217593 0.191216,-0.32155 -0.240465,-0.09228 -0.152826,-0.9163368 0.171332,-1.6110147 0.06266,-0.1342717 0.276966,-0.8967501 0.476244,-1.6943964 0.199279,-0.7976464 0.380764,-1.4687042 0.4033,-1.4912397 0.02254,-0.022536 0.162507,0.5440197 0.311048,1.2590117 0.213714,1.0286962 0.237912,1.3212587 0.115953,1.4019242 -0.118363,0.078286 -0.105697,0.1305128 0.05458,0.2250889 0.188782,0.1113947 0.432574,0.8787892 0.36102,1.1364002 -0.01595,0.05742 0.02545,0.170003 0.092,0.250186 0.06655,0.08019 0.158367,0.3902458 0.204045,0.6890268 0.04568,0.298781 0.122753,0.598167 0.171276,0.665302 0.04852,0.06714 0.119571,0.286854 0.157885,0.488261 0.03831,0.201408 0.104248,0.455545 0.146521,0.56475 0.05635,0.145565 -0.01467,0.221722 -0.266098,0.285369 l -0.34296,0.08681 0.423598,0.219931 c 0.328777,0.170699 0.456467,0.339074 0.570432,0.752185 0.08076,0.292741 0.255876,0.875564 0.389151,1.295163 0.133276,0.419599 0.199416,0.762908 0.146978,0.762908 -0.05244,0 -0.25956,-0.192253 -0.460272,-0.427228 -0.20071,-0.234976 -0.395375,-0.427229 -0.432589,-0.427229 -0.03721,0 -0.06766,0.247182 -0.06766,0.549294 0,0.548339 7.32e-4,0.54932 0.447571,0.564719 l 0.447573,0.01543 -0.457745,0.128167 c -0.523051,0.146455 -0.562376,0.242113 -0.203005,0.493826 0.253353,0.177455 0.253401,0.178851 0.0089,0.256453 -0.374416,0.118834 -0.269927,0.693005 0.157942,0.867896 l 0.334126,0.136574 -0.377856,0.156512 c -0.413768,0.171389 -0.451743,0.248311 -0.231377,0.468678 0.113927,0.113927 0.113927,0.146478 0,0.146478 -0.234939,0 -0.168579,0.365794 0.06714,0.370077 0.19852,0.0036 0.197762,0.0159 -0.01073,0.173881 -0.349142,0.264573 -0.206865,0.60458 0.286758,0.68528 l 0.425843,0.06962 -0.457745,0.09655 c -0.374252,0.07894 -0.457745,0.149732 -0.457745,0.388126 0,0.160368 0.06866,0.29242 0.152582,0.293447 0.120675,0.0015 0.12102,0.02192 0.0016,0.09773 -0.09112,0.05787 -0.145357,0.343366 -0.136862,0.720396 0.01103,0.489777 0.06113,0.63684 0.232187,0.681571 0.119965,0.03137 0.277679,-0.0025 0.350476,-0.07532 0.09512,-0.09511 0.132373,-0.09114 0.132373,0.01411 0,0.228618 0.341663,0.171859 0.404118,-0.06714 0.04385,-0.167808 0.05886,-0.157281 0.06998,0.04909 0.0094,0.174413 0.134714,0.304731 0.372851,0.387746 0.421541,0.146951 0.418124,0.15012 1.030256,-0.955614 0.495879,-0.895739 0.517478,-0.862885 0.254525,0.387147 -0.174975,0.831806 -0.173364,0.901708 0.02411,1.046106 0.11639,0.08511 0.304834,0.125155 0.418763,0.08899 0.141603,-0.04494 0.201562,-0.0014 0.189501,0.13768 -0.0236,0.272054 0.43048,0.338138 0.617857,0.08992 0.125074,-0.165685 0.14345,-0.142102 0.122065,0.156656 -0.02099,0.2933 0.01838,0.34724 0.237095,0.324821 0.210557,-0.02158 0.249155,0.02326 0.195755,0.227466 -0.05716,0.218573 -0.03395,0.236812 0.164959,0.129666 0.333449,-0.179615 0.780767,-0.726504 0.780767,-0.954562 0,-0.12843 0.06651,-0.169706 0.194393,-0.120634 0.129681,0.04976 0.215691,-0.0068 0.258367,-0.170038 0.03518,-0.134548 0.139961,-0.244634 0.232835,-0.244634 0.271949,0 0.657122,-0.462821 0.657122,-0.789594 0,-0.219569 0.05038,-0.281997 0.185689,-0.230076 0.109069,0.04185 0.318571,-0.06163 0.507729,-0.250785 0.312178,-0.312177 0.314903,-0.327276 0.08896,-0.492997 -0.202473,-0.148505 -0.263268,-0.144126 -0.46292,0.03334 -0.219055,0.194712 -0.225599,0.190695 -0.139505,-0.08564 0.06207,-0.199229 0.04805,-0.263803 -0.04481,-0.20641 -0.07433,0.04594 -0.135142,0.02917 -0.135142,-0.03726 0,-0.06643 -0.123591,-0.140329 -0.274647,-0.16422 -0.198991,-0.03148 -0.09424,-0.09852 0.380286,-0.243383 0.360212,-0.109968 0.730985,-0.170757 0.82394,-0.135087 0.09738,0.03737 0.169008,-0.01225 0.169008,-0.117072 0,-0.253784 0.544784,-0.331381 0.92858,-0.132264 0.437475,0.226964 0.490661,0.208755 0.230362,-0.07887 -0.262081,-0.289597 -0.276549,-0.272258 0.456144,-0.546726 0.362113,-0.135647 0.719869,-0.187877 0.959131,-0.140025 0.348678,0.06974 0.37592,0.05266 0.315761,-0.197899 -0.05682,-0.236638 0.06267,-0.349503 0.871846,-0.823514 0.515728,-0.302112 1.008262,-0.567422 1.09452,-0.589579 0.08626,-0.02216 0.300264,-0.173213 0.475569,-0.335679 0.321934,-0.298358 0.607786,-0.402446 0.463331,-0.168712 -0.04306,0.06968 -0.266022,0.411731 -0.495465,0.760125 -0.229444,0.348392 -0.417171,0.67929 -0.417171,0.735328 0,0.05604 -0.0955,0.228492 -0.212216,0.38323 -0.195345,0.258972 -0.234166,0.266961 -0.488261,0.100472 -0.321921,-0.210931 -0.363569,-0.08563 -0.07685,0.231191 0.169512,0.187308 0.1764,0.275148 0.04622,0.589422 -0.08414,0.203121 -0.201239,0.36931 -0.260229,0.36931 -0.05899,0 -0.109003,0.09613 -0.111138,0.213614 -0.0072,0.395744 -0.308371,0.659033 -0.6545,0.57216 -0.372469,-0.09348 -0.379423,-0.06811 -0.126625,0.462012 0.17858,0.374487 0.174751,0.440723 -0.05669,0.980664 -0.136515,0.318478 -0.31228,0.57905 -0.390584,0.57905 -0.09397,0 -0.119292,0.142243 -0.07448,0.418371 0.03734,0.230104 0.03912,0.528395 0.004,0.662868 -0.08181,0.312835 -0.528166,0.298593 -0.528166,-0.01685 0,-0.174381 -0.05884,-0.207704 -0.25618,-0.145072 -0.26233,0.08326 -0.264036,0.0061 -0.01454,-0.656754 0.05201,-0.13818 0.01572,-0.13818 -0.225645,0 -0.50741,0.290498 -0.586915,0.405474 -0.449804,0.65048 0.105599,0.188692 0.09084,0.211333 -0.09201,0.141167 -0.236846,-0.09089 -0.711,0.246679 -0.599623,0.42689 0.03595,0.05816 -0.0252,0.105751 -0.135894,0.105751 -0.221522,0 -0.657134,0.460771 -0.663551,0.701875 -0.0022,0.08392 -0.08247,0.152582 -0.178299,0.152582 -0.183119,0 -0.680219,0.557661 -0.680219,0.763089 0,0.06591 0.105749,0.09219 0.234998,0.05839 0.171146,-0.04476 0.216063,-0.01211 0.16531,0.120148 -0.03833,0.09988 -0.0081,0.219639 0.06708,0.266129 0.07522,0.04649 0.156987,0.219467 0.181698,0.384393 0.02471,0.164925 0.150922,0.354794 0.280472,0.42193 0.129551,0.06714 0.217538,0.213069 0.195527,0.324298 -0.06721,0.339668 0.164831,0.362548 1.086535,0.10713 0.486225,-0.134739 0.906641,-0.222384 0.934258,-0.194767 0.04554,0.04554 -0.268989,0.262969 -1.223354,0.845691 -0.366446,0.223747 -0.442044,0.443463 -0.152582,0.443463 0.213047,0 0.237456,0.140946 0.05586,0.322543 -0.08828,0.08827 -0.07181,0.173243 0.05378,0.277467 0.09956,0.08263 0.151116,0.228145 0.114572,0.323374 -0.03654,0.09523 0.02327,0.207568 0.13291,0.249643 0.182861,0.07017 0.182269,0.08899 -0.0072,0.227508 -0.404834,0.296021 -0.117792,0.522623 0.641573,0.506481 0.643146,-0.01367 0.713496,-0.04214 0.791039,-0.320168 l 0.08511,-0.305163 0.01217,0.331224 c 0.01119,0.304707 0.0537,0.332033 0.530944,0.341328 0.712214,0.01387 0.930644,0.01356 1.495299,-0.0021 0.268544,-0.0075 0.594315,0.0034 0.723937,0.0242 0.163925,0.02627 0.261874,-0.05514 0.321729,-0.2674 0.08433,-0.299041 0.08787,-0.297204 0.176295,0.09155 0.08254,0.362856 0.303854,0.562898 0.303854,0.274647 0,-0.06714 0.106617,-0.122066 0.236926,-0.122066 0.471602,0 0.343292,-0.205522 -0.423259,-0.677961 -0.42983,-0.264912 -0.783461,-0.514448 -0.785849,-0.554525 -0.0045,-0.07504 1.669609,0.383391 1.887671,0.516927 0.06714,0.04111 0.424479,0.111348 0.794094,0.156078 0.575971,0.06971 0.701656,0.13295 0.879296,0.442471 0.239223,0.416823 0.462752,0.47222 0.462752,0.114685 0,-0.192986 0.05958,-0.232705 0.274646,-0.183076 1.38646,0.319955 2.81547,0.67268 2.83797,0.7005 0.01521,0.01881 0.08497,0.198983 0.155021,0.400391 l 0.127365,0.366195 0.08731,-0.394731 c 0.04802,-0.217101 0.123513,-0.372353 0.167765,-0.345003 0.07313,0.0452 2.008952,0.472742 3.856938,0.851844 l 0.732391,0.150245 -0.488261,0.138579 c -0.507069,0.143915 -5.356849,1.246945 -5.482553,1.246945 -0.03928,0 -0.07142,-0.08239 -0.07142,-0.183097 0,-0.262633 -0.204405,-0.226127 -0.27645,0.04937 -0.04412,0.168711 -0.257267,0.276575 -0.777144,0.393275 -0.393994,0.08844 -0.797944,0.152567 -0.897669,0.142499 -0.09972,-0.01007 -0.209582,0.02189 -0.24413,0.07102 -0.03455,0.04913 -0.319564,0.146465 -0.633369,0.216304 -0.528985,0.11773 -0.576276,0.108359 -0.649058,-0.128614 -0.0755,-0.245805 -0.08287,-0.243882 -0.192566,0.05021 -0.0938,0.251473 -0.324599,0.375227 -1.29911,0.696578 -0.651777,0.214925 -1.202733,0.373091 -1.224346,0.351477 -0.02161,-0.02161 0.304001,-0.37627 0.723588,-0.788126 l 0.762884,-0.748829 h -0.396715 c -0.297324,0 -0.424375,0.06881 -0.507112,0.274646 l -0.110394,0.274647 -0.0077,-0.282016 c -0.0068,-0.249771 -0.05963,-0.277683 -0.461583,-0.24413 -0.418923,0.03497 -0.46271,0.07546 -0.569064,0.526146 l -0.115219,0.488261 -0.132811,-0.544828 -0.132811,-0.544829 -1.087883,0.02552 c -0.598336,0.01403 -1.109378,0.04701 -1.13565,0.07329 -0.02627,0.02627 -0.05651,0.163835 -0.0672,0.305695 -0.02757,0.365963 -0.211607,0.321249 -0.211607,-0.05141 0,-0.303873 -0.103851,-0.330091 -0.732391,-0.184898 -0.03357,0.0078 0.06159,0.116417 0.211462,0.241475 l 0.272495,0.227376 -0.303011,0.07605 c -0.326928,0.08205 -0.390918,0.300863 -0.156533,0.535248 0.113927,0.113927 0.0826,0.146478 -0.140984,0.146478 -0.27973,0 -0.281519,0.0066 -0.06653,0.24413 0.21444,0.236955 0.213203,0.244131 -0.04211,0.244131 -0.3415,0 -0.335983,0.193717 0.0116,0.40715 1.07404,0.659514 1.549208,0.98338 1.506075,1.026512 -0.0275,0.0275 -0.471782,-0.06836 -0.987297,-0.21301 -0.895544,-0.251289 -1.296155,-0.246138 -0.911955,0.01173 0.144568,0.09703 0.131986,0.113579 -0.06457,0.08491 -0.173928,-0.02537 -0.255347,0.04337 -0.283137,0.23904 -0.02145,0.151056 -0.117579,0.274647 -0.213614,0.274647 -0.104872,0 -0.174608,0.121878 -0.174608,0.305163 0,0.223786 -0.0651,0.305163 -0.24413,0.305163 -0.350789,0 -0.303364,0.325742 0.107199,0.736303 0.19323,0.193231 0.321399,0.381259 0.284818,0.417839 -0.03658,0.03658 0.05838,0.06651 0.211024,0.06651 0.197556,0 0.257121,0.0532 0.206694,0.184608 -0.05517,0.143774 -0.0059,0.16832 0.222543,0.110972 0.250091,-0.06277 0.283765,-0.03685 0.228193,0.175659 -0.07795,0.298099 0.478348,0.871478 0.845521,0.871478 0.159161,0 0.216565,0.05942 0.171317,0.177333 -0.04028,0.104975 0.08273,0.3042 0.30147,0.488261 0.561859,0.472773 0.784233,0.391406 0.406023,-0.148566 -0.140004,-0.199883 -0.146786,-0.253525 -0.0262,-0.207253 0.102137,0.03919 0.170168,-0.03682 0.18278,-0.204238 0.01784,-0.236796 0.214467,-0.464616 0.405537,-0.469863 0.03743,-9.77e-4 0.163334,0.21408 0.279783,0.478018 0.190226,0.431156 0.193622,0.523218 0.03344,0.906592 -0.177705,0.425307 -0.177251,0.426632 0.139012,0.405085 0.263218,-0.01793 0.348395,0.05857 0.499724,0.44886 0.142942,0.368651 0.151371,0.5202 0.03895,0.700218 -0.209045,0.334735 -0.179426,0.390607 0.161687,0.304994 0.16784,-0.04213 0.305164,-0.02828 0.305164,0.03077 0,0.05905 0.137673,0.310231 0.305941,0.558188 0.241843,0.356375 0.279305,0.500605 0.178804,0.688392 -0.09961,0.186123 -0.08763,0.237562 0.05531,0.237562 0.214589,0 0.773916,0.572469 0.877405,0.898022 0.03963,0.124664 0.151883,0.319897 0.249452,0.43385 0.229206,0.267692 0.804487,1.231498 0.735062,1.231498 -0.02924,0 -0.372429,-0.192253 -0.762645,-0.427229 -0.390216,-0.234975 -0.753911,-0.427228 -0.808212,-0.427228 -0.0543,-3e-6 -0.09873,-0.08827 -0.09873,-0.196161 0,-0.129188 -0.06629,-0.170718 -0.194178,-0.121644 -0.106799,0.04098 -0.340249,-0.0266 -0.518778,-0.150174 -0.178529,-0.123579 -0.420724,-0.259368 -0.538212,-0.301754 -0.117488,-0.04239 -0.213614,-0.167138 -0.213614,-0.277226 0,-0.151212 -0.0728,-0.181891 -0.297682,-0.125449 -0.163726,0.04109 -0.331756,0.01958 -0.3734,-0.0478 -0.04165,-0.06738 -0.168602,-0.123354 -0.282128,-0.124382 -0.113525,-9.76e-4 -0.285271,-0.05177 -0.381659,-0.112762 -0.145238,-0.0919 -0.147904,-0.143841 -0.01557,-0.303293 0.09726,-0.117193 0.108937,-0.192402 0.02987,-0.192402 -0.07139,0 -0.163755,0.05493 -0.205247,0.122065 -0.108482,0.175528 -0.370827,0.151074 -0.888894,-0.08285 -0.249602,-0.112706 -0.72847,-0.263762 -1.06415,-0.335679 -0.496607,-0.106397 -0.612814,-0.179993 -0.623676,-0.394989 -0.0089,-0.175694 0.04225,-0.242894 0.152581,-0.200554 0.09126,0.03502 0.165932,0.0029 0.165932,-0.07145 0,-0.07432 0.137324,-0.135125 0.305163,-0.135125 0.36733,0 0.396001,-0.185333 0.06103,-0.394523 -0.134272,-0.08385 -0.244131,-0.198102 -0.244131,-0.253885 0,-0.203032 -0.353002,-0.447579 -0.541608,-0.375205 -0.141842,0.05443 -0.173227,0.02131 -0.117478,-0.12397 0.09636,-0.251105 -0.154797,-0.56133 -0.454446,-0.56133 -0.126052,0 -0.229185,-0.08239 -0.229185,-0.183098 0,-0.100703 -0.05493,-0.183097 -0.122065,-0.183097 -0.06714,0 -0.122065,-0.0888 -0.122065,-0.197335 0,-0.139738 -0.07407,-0.177965 -0.253773,-0.130971 -0.188947,0.04941 -0.236032,0.02014 -0.184328,-0.114607 0.03902,-0.101694 -0.06127,-0.311682 -0.228939,-0.479355 -0.324341,-0.324386 -0.40769,-0.348459 -0.657749,-0.190004 -0.134484,0.08522 -0.136854,0.158601 -0.01275,0.394843 l 0.15243,0.29017 -0.269344,-0.239277 c -0.229601,-0.20397 -0.28598,-0.212976 -0.382089,-0.06103 -0.06201,0.09803 -0.113585,0.250148 -0.114613,0.33803 -9.77e-4,0.08788 -0.05729,0.125533 -0.125027,0.08367 -0.06774,-0.04186 -0.237894,-0.0397 -0.378128,0.0048 -0.198163,0.06289 -0.241208,0.152928 -0.193195,0.404092 0.06177,0.323141 0.06176,0.323147 -0.147932,0.06419 -0.184578,-0.227942 -0.237417,-0.238721 -0.440885,-0.08994 -0.222782,0.162901 -0.224116,0.209995 -0.03674,1.297035 0.106939,0.620396 0.180208,1.143723 0.162819,1.162945 -0.01739,0.01922 -0.26127,-0.406479 -0.541963,-0.946005 -0.53637,-1.030973 -0.810577,-1.262359 -0.692359,-0.584244 l 0.06916,0.396711 -0.181877,-0.396711 c -0.206806,-0.45109 -0.417826,-0.512715 -0.512746,-0.149738 -0.05923,0.226498 -0.07699,0.230013 -0.214186,0.04238 -0.182364,-0.249398 -0.430765,-0.122749 -0.430765,0.219629 0,0.239418 -0.01029,0.237755 -0.233623,-0.03772 -0.128494,-0.158494 -0.273307,-0.248638 -0.321808,-0.200319 -0.146926,0.146367 -0.09867,1.091338 0.06076,1.189872 0.110093,0.06804 0.09852,0.111405 -0.04439,0.166242 -0.106333,0.0408 -0.193333,0.160031 -0.193333,0.264948 0,0.195096 0.03702,0.215979 0.671359,0.378724 l 0.366196,0.09395 -0.48708,0.06883 c -0.605983,0.08563 -0.728348,0.420244 -0.235753,0.644685 0.321714,0.146583 0.32367,0.153309 0.06252,0.214958 -0.148272,0.035 -0.266343,0.104837 -0.262381,0.155189 0.004,0.05035 0.0072,0.223499 0.0072,0.38477 0,0.219129 0.100245,0.330559 0.396712,0.440982 l 0.396712,0.147757 -0.396712,0.111803 c -0.329221,0.09278 -0.396712,0.171288 -0.396712,0.46145 0,0.220266 0.07904,0.3801 0.213614,0.431947 0.203443,0.07838 0.203443,0.08801 0,0.202223 -0.287173,0.161217 -0.271789,0.473986 0.02331,0.473986 0.378349,0 0.411751,0.223584 0.03979,0.266339 -0.495228,0.05693 -0.433559,0.388093 0.08948,0.4805 0.371959,0.06571 0.383802,0.07756 0.09155,0.09155 -0.266995,0.01278 -0.339426,0.07851 -0.353989,0.321232 -0.01007,0.16784 -0.0238,0.370876 -0.03052,0.451191 -0.0067,0.08032 0.26244,0.211114 0.59812,0.290663 0.427881,0.101398 0.511698,0.148968 0.28039,0.159135 -0.558568,0.02455 -0.965133,0.268294 -0.882385,0.529011 0.04008,0.126278 0.0072,0.308704 -0.07303,0.405391 -0.204247,0.246104 0.101784,0.350221 0.539853,0.183666 0.421644,-0.160307 0.684465,-0.162219 0.684465,-0.005 0,0.06714 -0.08239,0.122065 -0.183098,0.122065 -0.100704,0 -0.183098,0.0772 -0.183098,0.171563 0,0.09436 -0.118226,0.393056 -0.262726,0.663771 -0.217754,0.407954 -0.343121,0.505791 -0.732391,0.571558 -0.505202,0.08535 -0.612461,0.236206 -0.23764,0.334224 0.312462,0.08171 0.588576,0.578123 0.321562,0.578123 -0.103066,0 -0.187392,0.09823 -0.187392,0.218301 0,0.120064 -0.10528,0.518302 -0.233955,0.884972 -0.170237,0.485108 -0.303212,0.677296 -0.488261,0.705679 -0.28996,0.04447 -0.34927,0.266157 -0.07121,0.266157 0.229082,0 0.22998,0.182209 0.0046,0.931989 -0.09818,0.326603 -0.250436,0.950867 -0.338343,1.38725 -0.08791,0.436383 -0.192969,0.738495 -0.233473,0.671359 z M 32.32789,42.099449 c 0.05716,-0.148947 -0.197045,-0.552826 -0.34795,-0.552826 -0.02398,0 -0.127579,0.08398 -0.230225,0.186631 -0.246304,0.246304 -0.119981,0.545761 0.230225,0.545761 0.153474,0 0.310052,-0.08081 0.34795,-0.179566 z m -1.599118,-1.815444 c 0.117487,-0.357788 0.213614,-0.96344 0.213614,-1.345891 0,-0.499759 0.08584,-0.864771 0.305163,-1.297578 0.181346,-0.35787 0.306345,-0.814344 0.308075,-1.125045 0.0016,-0.287559 0.06071,-0.742552 0.131344,-1.011096 0.07064,-0.268543 0.167167,-0.680513 0.214509,-0.915489 0.108796,-0.539999 0.229483,-0.283721 0.335417,0.71226 0.04045,0.38032 0.211471,1.046188 0.380046,1.479708 0.229821,0.591024 0.290305,0.926939 0.241771,1.342717 -0.04023,0.3446 0.0042,0.739325 0.117462,1.042761 0.100205,0.268543 0.263384,0.745415 0.362619,1.059715 0.162565,0.514879 0.216015,0.570442 0.539891,0.561234 0.300786,-0.0086 0.360812,-0.06198 0.367725,-0.327324 0.0079,-0.302241 0.01407,-0.305116 0.132293,-0.06134 0.08966,0.184882 0.20577,0.240139 0.418967,0.199384 0.251559,-0.04809 0.294935,-0.126095 0.294935,-0.530412 0,-0.511959 0.15932,-0.616451 0.362126,-0.237503 0.163607,0.3057 0.614396,0.281253 0.614396,-0.03332 0,-0.200331 0.0276,-0.210198 0.196306,-0.07018 0.289119,0.239946 0.586303,-0.174945 0.391528,-0.546602 -0.134235,-0.256141 -0.133408,-0.256286 0.12968,-0.02264 0.379917,0.337397 0.588851,0.08984 0.26821,-0.317785 -0.133062,-0.16916 -0.708806,-1.016243 -1.279433,-1.882406 -0.570625,-0.866164 -1.081718,-1.629772 -1.135761,-1.696908 -0.22743,-0.282525 -0.539883,-0.817803 -0.50041,-0.857277 0.02347,-0.02347 0.444596,0.2001 0.935841,0.496817 0.491244,0.296717 1.286639,0.751466 1.767545,1.010553 0.480906,0.259089 1.221796,0.677017 1.646422,0.92873 0.806606,0.478148 1.078606,0.49891 0.681815,0.05204 -0.232925,-0.26232 -0.232855,-0.262454 0.05696,-0.110211 0.236207,0.124082 0.31028,0.12171 0.3983,-0.01275 0.05947,-0.09085 0.08507,-0.261387 0.05689,-0.378968 -0.02818,-0.11758 -0.0011,-0.18276 0.06031,-0.144845 0.06135,0.03792 0.145756,-0.02022 0.18757,-0.129184 0.04788,-0.124778 -0.05127,-0.330986 -0.267829,-0.55703 l -0.343857,-0.358908 h 0.506804 c 0.395169,0 0.53804,-0.05837 0.648618,-0.264983 0.115752,-0.216286 0.104803,-0.292048 -0.05958,-0.412248 -0.183086,-0.133875 -0.178942,-0.153137 0.04558,-0.21185 0.253436,-0.06627 0.348659,-0.331571 0.119012,-0.331571 -0.07038,0 -0.355343,-0.109859 -0.633254,-0.244131 -0.277909,-0.134271 -0.632297,-0.24413 -0.787527,-0.24413 -0.155229,0 -0.282235,-0.05493 -0.282235,-0.122065 0,-0.06714 -0.133748,-0.122065 -0.297217,-0.122065 -0.163469,0 -0.451849,-0.05917 -0.640842,-0.13149 -0.188995,-0.07232 -0.810525,-0.179086 -1.38118,-0.237257 -0.570655,-0.05817 -1.367131,-0.182112 -1.769946,-0.275423 l -0.732391,-0.169656 0.668307,-0.0892 c 0.367569,-0.04906 0.72461,-0.134414 0.793424,-0.189683 0.06881,-0.05527 0.344834,-0.13087 0.613378,-0.168002 0.958783,-0.132576 2.506487,-0.436364 2.638355,-0.517863 0.09281,-0.05736 0.08312,-0.115277 -0.03144,-0.187863 -0.118556,-0.07512 -0.07891,-0.106601 0.13955,-0.110791 0.380925,-0.0073 1.55666,-0.407132 1.741877,-0.592349 0.102526,-0.102526 0.06117,-0.138407 -0.161133,-0.139796 -0.240582,-0.0015 -0.263256,-0.02583 -0.115962,-0.124386 0.158481,-0.106043 0.151242,-0.14682 -0.05385,-0.303293 -0.130319,-0.09943 -0.171516,-0.180778 -0.09155,-0.180778 0.07997,0 0.145395,-0.109859 0.145395,-0.244131 0,-0.20526 -0.08138,-0.24413 -0.511098,-0.24413 h -0.511098 l 0.32392,-0.3381 c 0.367651,-0.383744 0.342488,-0.882552 -0.04452,-0.882552 -0.149214,0 -0.202548,-0.06128 -0.15689,-0.180262 0.04411,-0.114946 -0.04428,-0.23195 -0.243938,-0.322922 -0.287388,-0.130943 -0.446309,-0.05884 -1.934498,0.877694 -0.891763,0.561198 -1.920901,1.226361 -2.286975,1.478143 -0.366072,0.251781 -0.686103,0.437269 -0.711177,0.412193 -0.02508,-0.02508 0.285065,-0.586121 0.689202,-1.246768 0.404137,-0.660647 1.05992,-1.756326 1.457296,-2.434843 0.705984,-1.205461 0.717676,-1.240065 0.511408,-1.513521 -0.163105,-0.216232 -0.228663,-0.241024 -0.288374,-0.10905 -0.05927,0.131002 -0.09387,0.135249 -0.148483,0.01822 -0.03916,-0.08392 -0.143144,-0.152581 -0.23107,-0.152581 -0.08793,0 -0.191484,-0.08239 -0.230129,-0.183098 -0.102534,-0.267202 -0.272519,-0.225863 -0.622276,0.151334 l -0.310103,0.334432 v -0.53176 c 0,-0.501389 -0.01743,-0.528428 -0.305163,-0.473424 -0.16784,0.03209 -0.305163,0.0046 -0.305163,-0.06104 0,-0.06566 -0.09775,-0.09381 -0.217219,-0.06257 -0.11947,0.03124 -0.28917,-0.02022 -0.37711,-0.114362 -0.08794,-0.09414 -0.218418,-0.151658 -0.289947,-0.127815 -0.209032,0.06968 -0.470385,1.064067 -0.505356,1.922759 -0.02045,0.50221 -0.126354,0.985163 -0.288534,1.315822 -0.140922,0.287319 -0.295475,0.891542 -0.343451,1.342717 -0.04798,0.451177 -0.159939,1.027273 -0.248803,1.280214 -0.08887,0.252943 -0.128119,0.555054 -0.08723,0.671359 0.05421,0.154196 0.03645,0.176785 -0.06557,0.08341 -0.07695,-0.07043 -0.191956,-0.538493 -0.255558,-1.040138 -0.0636,-0.501645 -0.227236,-1.158102 -0.363629,-1.458793 -0.163558,-0.360576 -0.250514,-0.816839 -0.255412,-1.340133 -0.0077,-0.824397 -0.547826,-2.685634 -0.804136,-2.77107 -0.07147,-0.02382 -0.190241,0.08183 -0.263937,0.234774 -0.111515,0.23144 -0.135379,0.240753 -0.142255,0.05552 -0.0054,-0.145462 -0.08226,-0.207236 -0.221875,-0.178315 -0.15152,0.03139 -0.207696,0.149309 -0.193259,0.405663 0.0193,0.342612 0.01357,0.347126 -0.110201,0.08676 -0.193482,-0.407014 -0.42124,-0.333488 -0.514991,0.166253 l -0.08271,0.440901 -0.274418,-0.257803 c -0.329221,-0.309286 -0.441781,-0.324512 -0.441781,-0.05976 0,0.164192 -0.03202,0.171468 -0.187338,0.04257 -0.155568,-0.12911 -0.228828,-0.110943 -0.431983,0.107119 -0.134555,0.144428 -0.297435,0.262595 -0.361957,0.262595 -0.205581,0 -0.12757,0.254554 0.249014,0.812546 0.201478,0.298533 0.454506,0.713313 0.562283,0.921733 0.107778,0.20842 0.247402,0.43903 0.310275,0.512468 0.06287,0.07344 0.459017,0.71311 0.880319,1.421494 0.421302,0.708382 0.811937,1.362289 0.868078,1.453125 0.05849,0.09464 0.05493,0.136365 -0.0083,0.09772 -0.06072,-0.03709 -1.009796,-0.622335 -2.109047,-1.300544 -1.09925,-0.67821 -2.038267,-1.233109 -2.086705,-1.233109 -0.04844,0 -0.187489,-0.109859 -0.309003,-0.24413 -0.121515,-0.134272 -0.353447,-0.244131 -0.515406,-0.244131 -0.243538,0 -0.280407,0.04431 -0.213161,0.256181 0.06838,0.215451 0.04221,0.243771 -0.164599,0.178132 -0.303231,-0.09624 -0.461573,0.124007 -0.262017,0.364458 0.121277,0.146129 0.10143,0.177751 -0.111556,0.177751 -0.340144,0 -0.327153,0.13762 0.04609,0.488261 0.423504,0.397862 0.384153,0.475624 -0.200966,0.397144 -0.497728,-0.06676 -0.504781,-0.06251 -0.424903,0.255746 0.06118,0.243747 0.03546,0.323632 -0.104197,0.323632 -0.101983,0 -0.185424,0.08239 -0.185424,0.183097 0,0.100704 0.09613,0.183907 0.213615,0.184897 0.162445,0.0014 0.143797,0.03792 -0.07785,0.152582 -0.409791,0.211993 -0.384149,0.371551 0.0748,0.465415 0.216509,0.04428 0.530421,0.170125 0.697581,0.279652 0.167158,0.109526 0.470646,0.199139 0.674416,0.199139 0.20377,0 0.37049,0.04916 0.37049,0.109244 0,0.06009 0.205985,0.136862 0.457744,0.170618 0.25176,0.03375 0.677462,0.120607 0.946006,0.193005 0.268543,0.0724 0.735443,0.136112 1.037554,0.141584 0.302112,0.0055 0.926559,0.108285 1.387661,0.228473 l 0.838368,0.218525 -0.581923,0.07976 c -0.320057,0.04387 -0.642392,0.128725 -0.716301,0.188569 -0.07391,0.05984 -0.381563,0.138726 -0.683674,0.175291 -1.210503,0.146516 -3.039439,0.570039 -2.461649,0.570039 0.07832,0 0.14241,0.04554 0.14241,0.101199 0,0.05566 -0.521829,0.203802 -1.15962,0.329204 -0.637791,0.125404 -1.15962,0.279349 -1.15962,0.342102 0,0.06275 0.219718,0.08463 0.488261,0.04861 0.268544,-0.03602 0.488261,-0.04951 0.488261,-0.02998 0,0.01953 -0.192253,0.126738 -0.427228,0.238242 -0.460346,0.218448 -0.519914,0.384059 -0.26402,0.734015 0.11798,0.161347 0.270204,0.207499 0.549294,0.166537 0.267883,-0.03932 0.386085,-0.0071 0.386085,0.105291 0,0.08908 -0.04309,0.161958 -0.09575,0.161958 -0.05266,0 -0.19309,0.164788 -0.312065,0.366195 -0.232276,0.393214 -0.16847,0.43534 0.369349,0.243845 l 0.343572,-0.122338 -0.33568,0.279519 c -0.402457,0.335122 -0.422939,0.453444 -0.07849,0.453444 0.175971,0 0.235475,0.05659 0.188429,0.179188 -0.123412,0.321608 0.118796,0.307856 0.665629,-0.03779 0.295147,-0.186561 0.70142,-0.421883 0.902828,-0.52294 0.201408,-0.101056 1.042498,-0.556653 1.869088,-1.012436 0.826592,-0.455783 1.529571,-0.802018 1.562177,-0.769412 0.03261,0.0326 -0.606697,1.05891 -1.420674,2.280676 -0.856439,1.285502 -1.451479,2.295605 -1.412363,2.397539 0.09849,0.256673 0.438406,0.351974 0.691541,0.193889 0.192797,-0.120404 0.217113,-0.09647 0.197444,0.194349 -0.01414,0.20904 0.03398,0.320383 0.130151,0.301149 0.08392,-0.01678 0.152582,0.02441 0.152582,0.09155 0,0.233947 0.358506,0.119702 0.666418,-0.212367 l 0.310103,-0.334432 V 39.8775 c 0,0.188351 0.05876,0.45225 0.130578,0.586444 0.104275,0.194838 0.165747,0.214799 0.305163,0.09909 0.139204,-0.115527 0.174585,-0.104756 0.174585,0.05315 0,0.261395 0.199708,0.252713 0.35818,-0.01557 0.115156,-0.194953 0.132925,-0.18962 0.2034,0.06103 0.127538,0.453612 0.341262,0.311394 0.567524,-0.377645 z m -5.459114,-1.184032 c 0.04331,-0.07008 0.01007,-0.210158 -0.07386,-0.31129 -0.133513,-0.160875 -0.17481,-0.16167 -0.330114,-0.0064 -0.09763,0.09763 -0.140305,0.237711 -0.09483,0.31129 0.104811,0.169586 0.395635,0.173298 0.498804,0.0064 z m 13.91937,-0.0064 c 0.128994,-0.20872 -0.278005,-0.559772 -0.449805,-0.387972 -0.07653,0.07653 -0.106111,0.225231 -0.06574,0.330447 0.08448,0.220151 0.393706,0.254654 0.51554,0.05752 z M 22.458507,32.51489 c 0.0996,-0.313804 -0.01371,-0.489354 -0.315851,-0.489354 -0.267315,0 -0.419001,0.267897 -0.311019,0.549294 0.102105,0.266081 0.536579,0.224538 0.62687,-0.05994 z m 19.653521,0.11988 c 0.134327,-0.217346 -0.07016,-0.609234 -0.317894,-0.609234 -0.266424,0 -0.417831,0.268284 -0.309997,0.549294 0.07928,0.206601 0.511735,0.247884 0.627891,0.05994 z m 5.148416,-0.265925 c -0.03897,-0.09737 -0.06789,-0.06845 -0.07375,0.07375 -0.0053,0.128676 0.02355,0.200772 0.06411,0.160211 0.04056,-0.04056 0.0449,-0.145844 0.0096,-0.233959 z m 0.771072,0.08392 c 0,-0.100704 -0.05493,-0.183098 -0.122065,-0.183098 -0.06714,0 -0.122065,0.08239 -0.122065,0.183098 0,0.100703 0.05493,0.183098 0.122065,0.183098 0.06714,0 0.122065,-0.0824 0.122065,-0.183098 z m 1.202851,-0.11453 c -0.02378,-0.02103 -0.166477,-0.07612 -0.31711,-0.122418 -0.213268,-0.06555 -0.258241,-0.04343 -0.203221,0.09995 0.07913,0.206211 0.453486,0.324392 0.520331,0.164266 0.02378,-0.05696 0.02378,-0.120768 0,-0.141799 z M 39.153033,25.849309 c 0.136629,-0.136628 -0.05761,-0.415294 -0.289468,-0.415294 -0.149693,0 -0.231071,0.08598 -0.231071,0.24413 0,0.232744 0.345389,0.346315 0.520539,0.171164 z M 25.41897,25.464596 c 0.07212,-0.21661 -0.338247,-0.346055 -0.462045,-0.145745 -0.05593,0.0905 -0.07273,0.211401 -0.03733,0.268675 0.09034,0.14618 0.438295,0.06052 0.499377,-0.12293 z m 6.805101,-2.654983 c 0,-0.446062 -0.346857,-0.561355 -0.549528,-0.18266 -0.10535,0.196846 -0.102686,0.302778 0.01106,0.439828 0.243284,0.293141 0.538472,0.152163 0.538472,-0.257168 z m -9.82625,21.056249 c 0,-0.06714 0.05817,-0.122065 0.129269,-0.122065 0.0711,0 0.09532,0.05493 0.05383,0.122065 -0.04149,0.06714 -0.09966,0.122066 -0.12927,0.122066 -0.02961,0 -0.05383,-0.05493 -0.05383,-0.122066 z"
     id="path29" />
</svg>
