<?xml version="1.0" encoding="UTF-8" standalone="no"?>
<svg
   xmlns:dc="http://purl.org/dc/elements/1.1/"
   xmlns:cc="http://creativecommons.org/ns#"
   xmlns:rdf="http://www.w3.org/1999/02/22-rdf-syntax-ns#"
   xmlns:svg="http://www.w3.org/2000/svg"
   xmlns="http://www.w3.org/2000/svg"
   xmlns:sodipodi="http://sodipodi.sourceforge.net/DTD/sodipodi-0.dtd"
   xmlns:inkscape="http://www.inkscape.org/namespaces/inkscape"
   viewBox="0 0 256 256"
   version="1.1"
   id="svg8"
   sodipodi:docname="finalkamehameha.svg"
   inkscape:version="1.0.2-2 (e86c870879, 2021-01-15)">
  <metadata
     id="metadata14">
    <rdf:RDF>
      <cc:Work
         rdf:about="">
        <dc:format>image/svg+xml</dc:format>
        <dc:type
           rdf:resource="http://purl.org/dc/dcmitype/StillImage" />
      </cc:Work>
    </rdf:RDF>
  </metadata>
  <defs
     id="defs12" />
  <sodipodi:namedview
     pagecolor="#ffffff"
     bordercolor="#666666"
     borderopacity="1"
     objecttolerance="10"
     gridtolerance="10"
     guidetolerance="10"
     inkscape:pageopacity="0"
     inkscape:pageshadow="2"
     inkscape:window-width="1920"
     inkscape:window-height="1001"
     id="namedview10"
     showgrid="false"
     inkscape:zoom="2.8218573"
     inkscape:cx="128"
     inkscape:cy="125.3068"
     inkscape:window-x="-9"
     inkscape:window-y="-9"
     inkscape:window-maximized="1"
     inkscape:current-layer="svg8"
     inkscape:document-rotation="0" />
  <path
     fill="#ff8080"
     d="M244.57 56.917l-13.768 96.829-56.43-106.17-8.85 46.156L106.603 5.5H10.5a5 5 0 0 0-5 5v94.918l88.941 59.394-46.155 8.851 106.168 56.432-96.826 13.765 19.797 6.64H245.5a5 5 0 0 0 5-5V74.597l-5.93-17.68z"
     id="path2" />
  <path
     fill="#ffd5d5"
     d="M245.5 250.5a5 5 0 0 0 5-5V136.093l-14.459 49.714-55.49-102.887 2.703 53.609L64.393 5.5H10.5a5 5 0 0 0-5 5v52.537l131.742 119.505-53.611-2.702 102.887 55.49-52.154 15.17H245.5z"
     id="path4" />
  <path
     fill="none"
     stroke="#000"
     stroke-linejoin="round"
     stroke-miterlimit="10"
     d="M244.57 56.917l-13.768 96.829-56.43-106.17-8.85 46.156L106.603 5.5H10.5a5 5 0 0 0-5 5v94.918l88.941 59.394-46.155 8.851 106.168 56.432-96.826 13.765 19.797 6.64H245.5a5 5 0 0 0 5-5V74.597l-5.93-17.68z"
     id="path6" />
  <path
     style="fill:#ffe680;stroke-width:0.319328"
     d="m 235.55153,184.51462 c -0.27075,-0.43549 -12.67951,-23.42421 -27.57502,-51.08604 -29.6857,-55.128081 -27.23103,-50.616621 -27.43133,-50.416322 -0.0792,0.07921 0.42769,11.347509 1.12643,25.040672 0.69875,13.69317 1.23057,25.52419 1.18184,26.29117 l -0.0886,1.3945 -44.70598,-49.287005 C 113.47055,59.34374 86.992462,30.156273 79.218642,21.590556 L 65.084423,6.0165241 h 20.539283 20.539284 l 29.49629,44.2269929 c 16.22295,24.324847 29.67661,44.226994 29.89702,44.226994 0.22041,0 0.47652,-0.251472 0.56912,-0.558825 0.0926,-0.307354 1.97616,-10.042881 4.18568,-21.634504 2.20953,-11.591624 4.11929,-21.392632 4.24392,-21.780016 0.17993,-0.559265 5.9405,10.047683 27.96792,51.497324 15.25773,28.71092 27.87973,52.28721 28.0489,52.39177 0.16916,0.10454 0.43169,0.066 0.58339,-0.0857 0.15169,-0.15169 3.23848,-21.18372 6.85952,-46.73783 3.62104,-25.554104 6.66229,-46.677561 6.75833,-46.941007 0.096,-0.263446 1.30767,2.89559 2.69251,7.020085 l 2.51789,7.499078 v 31.094494 31.09451 l -6.87808,23.67547 c -3.78294,13.02151 -6.91937,23.81624 -6.96983,23.98828 -0.0505,0.17204 -0.31328,-0.0435 -0.58404,-0.47899 z"
     id="path16" />
  <path
     style="fill:#ffe680;stroke-width:0.319328"
     d="m 69.722554,247.24528 c -4.390766,-1.47871 -8.198758,-2.78309 -8.462204,-2.89864 -0.263446,-0.11555 20.715518,-3.24139 46.61992,-6.94631 38.48683,-5.5045 47.11572,-6.82576 47.19087,-7.22588 0.0667,-0.35495 -14.27343,-8.12521 -52.12741,-28.24552 -28.720663,-15.26573 -52.112026,-27.85005 -51.980807,-27.96516 0.131218,-0.11511 9.43524,-1.96436 20.675602,-4.10944 24.928358,-4.75726 23.470642,-4.4479 23.470642,-4.98094 0,-0.23933 -20.045844,-13.82807 -44.546321,-30.19721 L 6.0165241,104.91409 V 84.338994 63.763893 l 1.725978,1.542353 C 27.636741,83.083948 136.43998,182.15361 136.14586,182.2226 c -0.2261,0.053 -12.01319,-0.49166 -26.19353,-1.21041 -14.180342,-0.71876 -25.937905,-1.25501 -26.127915,-1.19167 -0.190013,0.0633 1.373215,1.04246 3.473834,2.17583 2.100623,1.13337 25.120031,13.54844 51.154251,27.58905 26.03422,14.04061 47.22964,25.62432 47.10095,25.74157 -0.12869,0.11725 -11.44242,3.46505 -25.14161,7.43954 l -24.90762,7.22635 -28.89923,-0.0295 -28.899224,-0.0295 -7.983212,-2.68855 z"
     id="path18" />
  <path
     style="fill:#ffe680;stroke-width:0.330608"
     d="M 230.43304,174.71042 C 180.60591,82.30935 180.59086,82.281654 180.54372,82.894559 c -0.0977,1.270077 0.16733,7.925868 1.03694,26.043951 0.54787,11.41482 0.95298,21.96711 0.90025,23.44953 l -0.0959,2.69531 -57.8564,-63.772282 C 92.707592,36.236314 66.401057,7.1989046 66.069649,6.7834897 l -0.602559,-0.7552998 20.273738,0.015513 20.273742,0.015513 23.63847,35.4164501 c 29.20551,43.757297 35.49012,52.990174 36.06916,52.990174 0.33839,0 1.51678,-5.508293 4.61389,-21.567172 2.28769,-11.861946 4.24587,-21.653607 4.35151,-21.759249 0.33132,-0.331319 3.83398,6.129255 34.2443,63.162901 22.69,42.55443 21.29391,40.00358 21.89406,40.00358 0.62335,0 0.29037,2.13957 7.80565,-50.15644 5.70811,-39.720646 6.24634,-43.127903 6.65869,-42.152529 0.24673,0.583628 1.40608,3.867023 2.57634,7.296426 l 2.12773,6.235278 v 30.617605 30.61761 l -6.96956,23.97823 c -3.83326,13.18802 -7.00236,24.01103 -7.04245,24.05112 -0.0401,0.0401 -2.53729,-4.49716 -5.54932,-10.08278 z"
     id="path11" />
  <path
     style="fill:#ffe680;stroke-width:0.330608"
     d="m 69.647681,247.05384 c -4.182191,-1.41918 -7.380824,-2.66376 -7.108073,-2.76574 0.606064,-0.2266 4.026939,-0.7349 42.648442,-6.33709 46.512,-6.74675 49.47023,-7.19946 49.88727,-7.63442 0.10991,-0.11463 -0.15977,-0.45252 -0.59929,-0.75085 -1.56033,-1.05911 -15.98721,-8.85829 -45.41911,-24.55361 -37.141757,-19.8068 -56.847361,-30.38611 -57.2127,-30.71568 -0.397209,-0.35831 -0.289093,-0.38316 12.183125,-2.79966 25.411614,-4.92353 30.942247,-6.03605 31.169372,-6.26993 0.131116,-0.13501 -0.26326,-0.63901 -0.876389,-1.12001 C 92.382846,162.58691 68.07083,146.19217 36.504225,125.11871 L 6.0056338,104.75825 V 84.467217 c 0,-16.146117 0.084418,-20.239829 0.41326,-20.040359 1.04867,0.636106 101.5159962,91.936132 123.0605462,111.831702 l 5.94265,5.4878 -1.59942,0.10229 c -1.39388,0.0892 -38.063797,-1.55611 -46.900719,-2.10428 -3.220625,-0.19978 -3.819696,-0.0172 -2.548373,0.77678 0.371283,0.23187 13.798102,7.50129 29.837372,16.15427 51.36038,27.70824 71.10288,38.46789 70.90557,38.64348 -0.0943,0.0839 -23.6377,6.99855 -39.27476,11.53487 l -9.76401,2.83254 -29.41304,-0.0261 -29.413044,-0.0261 -7.603985,-2.58032 z"
     id="path13" />
  <path
     style="fill:#ffdd55;stroke-width:0.342286"
     d="m 228.31257,170.81762 c -4.2056,-7.79211 -15.99982,-29.64736 -26.20937,-48.56722 -21.73694,-40.281883 -21.01294,-38.958006 -21.45434,-39.230801 -0.22763,-0.140687 -0.27012,1.161195 -0.12563,3.849523 0.12008,2.234159 0.59171,12.0716 1.04808,21.860978 0.45636,9.78938 0.92554,19.80125 1.04261,22.2486 l 0.21285,4.44971 -1.19328,-1.198 c -0.65631,-0.6589 -27.0263,-29.69331 -58.59999,-64.520915 L 65.626806,6.3865779 85.759689,6.2982412 c 15.823961,-0.069431 20.219961,0.00383 20.539731,0.342286 0.22377,0.2368425 9.14968,13.5230638 19.83535,29.5249358 20.03726,30.005955 37.64943,56.17758 38.80901,57.670084 0.36347,0.467829 0.75842,0.753046 0.87765,0.633811 0.35775,-0.357741 0.9764,-3.339079 4.95855,-23.895656 2.09604,-10.820124 3.84498,-19.706954 3.88654,-19.748508 0.23197,-0.231977 4.78482,8.192897 32.40194,59.958626 23.62347,44.27998 23.27512,43.64147 23.80945,43.64147 0.2512,0 0.6778,-1.75862 1.14168,-4.70643 0.86533,-5.49895 12.69353,-87.802352 12.71335,-88.462475 0.0228,-0.758208 0.98514,1.699536 3.09555,7.905449 l 2.02534,5.955773 v 31.102503 31.10249 l -6.68417,23.01293 c -3.6763,12.65711 -6.80261,23.38117 -6.94735,23.83124 -0.22305,0.69355 -1.429,-1.34172 -7.90974,-13.34915 z"
     id="path14" />
  <path
     style="fill:#ffdd55;stroke-width:0.342286"
     d="m 70.324803,247.30995 c -4.141661,-1.41416 -7.651781,-2.68912 -7.800268,-2.83326 -0.148483,-0.14413 0.929718,-0.43579 2.396002,-0.64813 1.466289,-0.21234 12.215758,-1.78062 23.887712,-3.48507 11.671951,-1.70446 29.139141,-4.25144 38.815961,-5.65996 28.1705,-4.10038 28.35657,-4.13526 26.92624,-5.04715 -2.54299,-1.62125 -15.1243,-8.40141 -67.624774,-36.44344 -36.156551,-19.31227 -35.541634,-18.97025 -34.721164,-19.31213 0.365038,-0.1521 9.135282,-1.90519 19.489435,-3.89574 22.474528,-4.32065 23.523046,-4.54813 23.350818,-5.06602 -0.07249,-0.21798 -1.274317,-1.20757 -2.670731,-2.19909 -3.01466,-2.14056 -33.5603,-22.68449 -64.150414,-43.14533 L 6.3173137,104.92214 6.2290279,84.663101 c -0.048557,-11.142472 0.00332,-20.25904 0.1152756,-20.25904 0.4640669,0 118.6382565,107.414049 126.7899865,115.245349 l 2.56715,2.46623 -2.90944,-0.16898 c -6.12195,-0.35558 -45.86767,-2.1922 -47.440597,-2.1922 -1.434415,0 -1.586718,0.0642 -1.151793,0.48546 0.275664,0.26701 10.975159,6.13753 23.77666,13.04561 25.40372,13.70861 65.98344,35.7048 72.65021,39.37996 2.30615,1.27129 4.193,2.41843 4.193,2.54919 0,0.27555 -3.76996,1.41081 -30.14874,9.07876 l -19.36674,5.62965 -28.72445,-0.021 -28.724454,-0.021 -7.530293,-2.5712 z"
     id="path17" />
  <path
     style="fill:#ff8080;stroke-width:0.342286"
     d="m 138.26858,249.56935 c 0.47064,-0.16483 11.25265,-3.31584 23.96002,-7.00225 12.70737,-3.6864 23.3761,-6.78508 23.70828,-6.88593 0.33219,-0.10086 0.52703,-0.30788 0.43298,-0.46005 -0.094,-0.15217 -22.96627,-12.56933 -50.82717,-27.59371 -27.8609,-15.02437 -50.599833,-27.37338 -50.530972,-27.44224 0.105017,-0.10501 44.899202,2.03894 50.442652,2.41431 0.99367,0.0673 1.76169,-0.0126 1.70672,-0.17748 -0.055,-0.1649 -29.5173,-26.98578 -65.471856,-59.60197 L 6.3173137,63.517883 6.2296547,36.743234 C 6.1329514,7.2060967 6.0615983,8.2520737 8.2648612,6.9087813 9.3769183,6.2307788 9.9110221,6.2181199 37.123057,6.2248059 l 27.725169,0.00681 47.064334,51.9046311 c 68.62013,75.677323 71.242,78.557753 71.38027,78.419483 0.0694,-0.0694 -0.472,-11.90164 -1.20313,-26.29384 -0.73113,-14.392215 -1.29694,-26.200053 -1.25734,-26.239645 0.0396,-0.0396 12.44982,22.879235 27.57828,50.930725 15.12846,28.05149 27.61188,50.87818 27.74092,50.72596 0.12904,-0.15221 3.13425,-10.28862 6.67824,-22.52535 3.54399,-12.23672 6.56171,-22.63366 6.70604,-23.1043 0.14433,-0.47065 0.23642,23.42992 0.20463,53.11236 l -0.0578,53.96807 -0.85572,0.92738 c -1.82372,1.97644 1.54217,1.8683 -57.23634,1.83898 -31.44644,-0.0157 -53.81873,-0.15277 -53.32205,-0.32672 z"
     id="path19" />
  <path
     style="fill:#ffe680;stroke-width:0.354377"
     d="m 70.464379,247.21499 c -3.87033,-1.34268 -7.122412,-2.52668 -7.226847,-2.63111 -0.104434,-0.10444 0.03228,-0.26483 0.303811,-0.35643 0.27153,-0.0916 14.367534,-2.17826 31.324451,-4.63702 38.991456,-5.65378 55.846356,-8.1688 58.206346,-8.68533 1.02326,-0.22396 1.86048,-0.60213 1.86048,-0.84038 0,-0.60749 -4.16557,-2.8838 -56.168684,-30.69387 C 53.29445,175.05482 51.939353,174.3167 52.231334,174.02472 c 0.06021,-0.0602 9.119452,-1.87446 20.131649,-4.03167 21.033059,-4.12022 22.679999,-4.48251 22.679999,-4.98901 0,-0.1727 -0.677745,-0.86408 -1.5061,-1.5364 -1.68528,-1.36782 -27.865669,-19.01828 -63.436085,-42.76774 L 6.4818634,104.93015 6.4653559,84.749761 6.4488485,64.569376 7.6005722,65.642382 c 0.6334481,0.590153 4.4208468,4.00833 8.4164428,7.595949 15.83635,14.219351 68.629981,62.168969 99.048245,89.960189 12.09349,11.04904 20.0805,18.51637 19.94319,18.64554 -0.054,0.0508 -2.64962,-0.041 -5.76813,-0.204 -3.11852,-0.16297 -11.09199,-0.54776 -17.71883,-0.85509 -6.62684,-0.30733 -15.461259,-0.71909 -19.632037,-0.915 -4.170782,-0.19592 -7.669616,-0.26984 -7.775191,-0.16426 -0.53328,0.53328 -0.560117,0.51822 41.050728,23.02628 26.20253,14.17342 57.49674,31.19588 58.4826,31.81156 0.38405,0.23985 0.69828,0.53529 0.69828,0.65654 0,0.23779 -6.56388,2.21202 -32.23115,9.69424 l -16.4614,4.79863 -29.07599,-0.0184 -29.075986,-0.0183 -7.036965,-2.44123 z"
     id="path20" />
  <path
     style="fill:#ffeeaa;stroke-width:0.354377"
     d="m 233.90454,180.67723 c -1.08677,-1.89985 -9.67866,-17.72679 -19.09309,-35.17097 -24.03742,-44.53942 -33.02903,-61.085521 -33.72498,-62.059734 -0.58534,-0.819386 -0.60207,-0.761761 -0.62016,2.136146 -0.0102,1.638035 0.46666,13.039175 1.05974,25.335868 0.59307,12.29669 1.03161,22.71912 0.97453,23.16098 -0.11435,0.88517 0.59373,1.65659 -74.8035,-81.494367 C 84.94985,27.498641 66.338483,6.8872164 66.338483,6.7819859 c 0,-0.1052305 8.970156,-0.1845554 19.93368,-0.1762775 l 19.933677,0.015051 7.16517,10.7048396 c 24.83241,37.099884 48.3011,72.054565 49.96675,74.421347 1.06975,1.520059 2.12787,2.703801 2.35136,2.630537 0.58079,-0.190382 0.86852,-1.494367 5.02195,-22.758731 2.05578,-10.524983 3.82838,-19.433882 3.93912,-19.797554 0.16375,-0.537773 0.36596,-0.372371 1.08309,0.885942 1.44079,2.528087 17.95663,33.284309 30.23174,56.29834 23.24914,43.58872 24.28608,45.47383 24.90097,45.26887 0.21787,-0.0726 0.5157,-0.57913 0.66183,-1.12555 0.2687,-1.00469 7.45013,-50.17362 11.23512,-76.923153 1.70007,-12.014878 2.12732,-14.396862 2.46869,-13.7634 0.22704,0.421322 1.29182,3.354344 2.36616,6.517828 l 1.95336,5.751786 v 31.628919 c 0,30.17877 -0.0312,31.73217 -0.68083,33.8811 -0.37446,1.2387 -3.34241,11.42167 -6.59544,22.62883 -3.25303,11.20716 -6.02255,20.57558 -6.1545,20.81872 -0.14579,0.26866 -1.01503,-0.91298 -2.21584,-3.0122 z"
     id="path22" />
  <path
     style="fill:#ffeeaa;stroke-width:0.354377"
     d="m 78.564473,249.37314 c -1.939056,-0.1931 -15.254938,-4.56564 -14.920978,-4.8996 0.173521,-0.17352 0.644151,-0.24414 39.727335,-5.961 50.13967,-7.33413 51.56179,-7.56709 51.56179,-8.44633 0,-0.7133 -5.5543,-3.77533 -49.25834,-27.15563 -48.726191,-26.067 -52.802105,-28.27793 -52.802105,-28.64179 0,-0.13492 7.136257,-1.66216 15.85835,-3.39384 21.528112,-4.2742 25.72113,-5.17001 26.135269,-5.58359 0.82035,-0.81925 -2.938632,-3.42861 -55.887875,-38.79559 C 21.574198,114.87112 7.1340991,105.17652 6.8888105,104.95223 6.5384775,104.6319 6.4624766,100.29511 6.5344339,84.730677 l 0.091603,-19.813763 5.8472131,5.286259 c 3.215967,2.907443 9.116336,8.240118 13.111931,11.850389 15.637971,14.129888 28.916389,26.191498 67.50873,61.322338 23.708219,21.58173 39.162879,35.82319 40.576109,37.39086 l 0.88595,0.98275 -4.07533,-0.20739 c -21.65087,-1.10179 -46.112751,-2.08986 -46.330438,-1.87138 -0.641832,0.64414 -0.582269,0.67773 45.621678,25.72157 48.83179,26.4682 54.29449,29.48404 53.97604,29.79908 -0.34604,0.34233 -6.14944,2.09792 -30.25764,9.15327 l -18.27522,5.3483 -27.26217,-0.054 C 92.958706,249.6092 79.733916,249.4896 78.564473,249.37314 Z"
     id="path24" />
</svg>
