<?xml version="1.0" encoding="UTF-8" standalone="no"?>
<svg
   xmlns:dc="http://purl.org/dc/elements/1.1/"
   xmlns:cc="http://creativecommons.org/ns#"
   xmlns:rdf="http://www.w3.org/1999/02/22-rdf-syntax-ns#"
   xmlns:svg="http://www.w3.org/2000/svg"
   xmlns="http://www.w3.org/2000/svg"
   xmlns:sodipodi="http://sodipodi.sourceforge.net/DTD/sodipodi-0.dtd"
   xmlns:inkscape="http://www.inkscape.org/namespaces/inkscape"
   cursor="default"
   viewBox="0 0 256 256"
   version="1.1"
   id="svg30"
   sodipodi:docname="orgaXIII.svg"
   inkscape:version="1.0.2-2 (e86c870879, 2021-01-15)">
  <metadata
     id="metadata36">
    <rdf:RDF>
      <cc:Work
         rdf:about="">
        <dc:format>image/svg+xml</dc:format>
        <dc:type
           rdf:resource="http://purl.org/dc/dcmitype/StillImage" />
        <dc:title />
      </cc:Work>
    </rdf:RDF>
  </metadata>
  <defs
     id="defs34" />
  <sodipodi:namedview
     pagecolor="#ffffff"
     bordercolor="#666666"
     borderopacity="1"
     objecttolerance="10"
     gridtolerance="10"
     guidetolerance="10"
     inkscape:pageopacity="0"
     inkscape:pageshadow="2"
     inkscape:window-width="1920"
     inkscape:window-height="1017"
     id="namedview32"
     showgrid="false"
     inkscape:zoom="3.2869393"
     inkscape:cx="134.3097"
     inkscape:cy="141.81857"
     inkscape:window-x="-8"
     inkscape:window-y="-8"
     inkscape:window-maximized="1"
     inkscape:current-layer="svg30"
     inkscape:document-rotation="0" />
  <path
     style="fill:#000000;stroke-width:0.209439"
     d="m 93.856971,244.49004 c -7.853904,-0.81702 -16.548844,-5.42019 -22.004513,-11.64937 -5.570997,-6.36087 -8.102349,-13.44821 -7.438933,-20.82769 0.50691,-5.63859 1.317185,-8.90298 3.08085,-12.41198 3.068957,-6.10602 8.388754,-12.73662 18.138058,-22.60731 l 4.577808,-4.6348 0.575672,1.88495 c 0.783334,2.5649 1.551417,3.89199 3.280497,5.66803 2.354643,2.4186 5.216467,4.04722 7.8677,4.47738 1.97998,0.32125 8.65616,0.27871 9.93461,-0.0633 4.13608,-1.1065 8.77732,-5.24673 10.01084,-8.9302 0.76283,-2.2779 0.61399,-8.10465 -0.27146,-10.62726 -1.62016,-4.61579 -6.46279,-7.95921 -12.81118,-8.84504 l -1.81517,-0.25328 2.66836,-3.17478 c 6.51104,-7.74675 9.58299,-12.6332 11.4101,-18.14967 0.92424,-2.7905 1.31606,-4.72625 1.61573,-7.98231 0.56444,-6.133 -0.35575,-9.47542 -3.47607,-12.62626 -2.78838,-2.81566 -4.89915,-3.861 -8.75838,-4.33747 -2.36377,-0.29185 -7.07827,-0.11548 -8.9184,0.33363 -3.867533,0.94391 -7.88204,4.54461 -9.372684,8.40656 -0.461065,1.19452 -0.577369,1.91057 -0.681336,4.19476 l -0.125366,2.75435 -1.69283,-1.00256 c -12.949232,-7.66903 -28.199829,-12.91684 -55.065128,-18.94817 -3.916508,-0.87927 -7.205894,-1.62281 -7.309746,-1.65231 -0.103852,-0.0295 2.205212,-0.59743 5.131254,-1.26207 28.457096,-6.463963 44.134251,-11.702786 55.76265,-18.634162 1.47977,-0.882052 2.7622,-1.60373 2.849846,-1.60373 0.08764,0 0.225055,0.966037 0.305356,2.146749 0.307858,4.5266 1.354728,7.238336 3.699617,9.583225 1.637581,1.63758 3.853736,3.161274 5.310957,3.651487 2.99659,1.008065 10.49223,1.00595 13.56185,-0.0038 2.41904,-0.795763 6.4832,-4.337837 7.58271,-6.608626 1.19013,-2.457959 1.58726,-5.382975 1.19663,-8.813812 -0.28073,-2.46563 -0.75232,-3.721803 -2.16372,-5.763469 -1.42683,-2.063968 -2.80299,-3.241572 -5.08397,-4.350424 -2.47407,-1.202722 -4.35784,-1.569879 -8.05457,-1.569879 -1.61753,0 -2.94097,-0.03984 -2.94097,-0.08853 0,-0.04869 0.94747,-1.339571 2.10549,-2.868626 8.54695,-11.285394 14.08129,-24.429756 21.72653,-51.601696 l 0.825,-2.932146 0.43476,1.466073 c 0.23912,0.80634 1.01261,3.492394 1.71887,5.96901 6.82516,23.93349 12.43809,36.753557 20.90698,47.752083 l 1.69331,2.199109 -3.60449,0.132141 c -4.02743,0.147648 -5.27097,0.403088 -7.67296,1.576124 -2.78714,1.361138 -5.70805,4.736925 -6.6268,7.65881 -0.22195,0.705893 -0.3858,2.167966 -0.45372,4.048834 -0.0913,2.528674 -0.0445,3.188376 0.33182,4.67658 0.56937,2.251571 1.46151,3.778553 3.22449,5.519049 3.56482,3.519354 5.89816,4.357359 12.09011,4.342095 5.94827,-0.01466 8.11036,-0.744086 11.50823,-3.882531 2.87486,-2.655366 3.85317,-5.080648 4.31404,-10.694772 l 0.13983,-1.703277 2.96488,1.776457 c 11.4493,6.860028 27.0379,12.092107 54.85992,18.412904 l 6.23735,1.41704 -6.34207,1.42168 c -20.21065,4.53054 -33.5735,8.48769 -44.25051,13.10392 -3.96233,1.71312 -6.07534,2.77173 -10.18885,5.10458 -1.80255,1.02226 -3.33407,1.85865 -3.40338,1.85865 -0.0693,0 -0.12766,-0.82466 -0.12966,-1.83259 -0.008,-4.17554 -0.99899,-6.51005 -4.07336,-9.59853 -2.277,-2.28745 -3.61556,-3.1089 -6.18551,-3.79596 -1.93505,-0.51733 -8.89058,-0.51447 -10.97182,0.005 -2.36454,0.58962 -4.18405,1.68521 -6.3228,3.80717 -3.27875,3.25302 -3.99698,5.36765 -3.80326,11.19762 0.3171,9.54328 3.6626,16.6519 13.11336,27.86373 2.78374,3.30246 2.77502,3.27164 0.94281,3.33014 -1.29351,0.0413 -4.80422,1.08208 -6.52434,1.93418 -3.05237,1.51208 -5.67148,4.44777 -6.59941,7.39713 -0.4095,1.30159 -0.46428,1.9328 -0.46428,5.35031 0,4.42044 0.12412,4.9543 1.71419,7.37295 2.15138,3.27247 6.02786,5.82708 9.80676,6.46267 2.11728,0.35612 7.42367,0.31122 9.23992,-0.0782 4.87548,-1.04531 9.57563,-5.59145 10.83411,-10.47911 0.17343,-0.67354 0.3541,-1.26339 0.4015,-1.3108 0.16134,-0.16133 10.71906,10.69525 13.16012,13.53263 7.07814,8.22735 10.41745,13.70834 11.67449,19.16198 1.05431,4.57413 1.35216,9.79189 0.75458,13.21867 -1.41834,8.13338 -7.11704,16.03233 -15.18247,21.04438 -3.54569,2.20338 -8.19519,4.04374 -11.89615,4.70875 -2.56936,0.46166 -8.0043,0.61705 -11.02941,0.31533 -7.87263,-0.78521 -15.18786,-4.47223 -21.82738,-11.00145 -1.75312,-1.724 -3.43204,-3.26266 -3.73092,-3.41926 -1.07167,-0.56151 -1.69721,-0.18981 -4.49601,2.67158 -3.91561,4.00318 -6.60074,6.02546 -10.80734,8.13949 -5.72655,2.87788 -9.87295,3.83879 -16.284831,3.7739 -1.514082,-0.0153 -3.506856,-0.10629 -4.428388,-0.20215 z m 8.357979,-2.49693 c 3.66705,-0.26439 6.22237,-0.78328 8.73221,-1.77317 6.77071,-2.67037 12.68454,-7.73029 17.11264,-14.64169 l 1.0161,-1.58594 1.38458,2.03868 c 5.01135,7.37875 10.65236,12.0222 17.57117,14.46386 2.60012,0.91759 4.5353,1.26765 8.23181,1.48905 3.6709,0.21989 8.65178,-0.005 11.36292,-0.51303 9.83404,-1.84272 20.25589,-10.98532 22.4387,-19.68439 1.55905,-6.21325 0.99408,-14.51861 -1.41101,-20.74253 -1.33238,-3.44797 -4.21362,-7.71212 -8.86336,-13.11754 -2.93041,-3.40664 -8.02077,-8.56982 -9.33415,-9.46766 -0.83094,-0.56803 -0.90939,-0.5835 -1.38368,-0.27274 -0.27653,0.1812 -1.23063,1.12471 -2.12021,2.09671 -4.16213,4.54773 -9.57512,7.06513 -15.29055,7.11113 -4.46375,0.0359 -9.32235,-1.80185 -13.14386,-4.97167 -5.68268,-4.71362 -7.47766,-12.48788 -4.33723,-18.78507 1.53324,-3.07445 4.57174,-6.14281 7.72471,-7.80062 2.01373,-1.0588 3.15906,-1.94397 3.15906,-2.44148 0,-0.67291 -0.6452,-1.77196 -2.82222,-4.80744 -7.29969,-10.17818 -10.34678,-18.18904 -9.87839,-25.97043 0.28519,-4.73787 1.45657,-7.22999 4.97918,-10.59325 4.25239,-4.06004 7.58439,-5.38709 13.58572,-5.41085 4.4112,-0.0175 6.59368,0.51755 9.88808,2.42402 3.57206,2.06715 6.24016,4.82075 7.8475,8.099 1.16871,2.38363 1.45767,2.56993 3.16196,2.03869 0.65905,-0.20543 2.8476,-1.15432 4.86345,-2.10865 8.23373,-3.89795 13.79954,-5.76291 34.3021,-11.49373 4.15009,-1.16002 5.34091,-1.65187 5.24574,-2.16667 -0.12953,-0.70074 -0.74722,-0.90714 -12.05683,-4.028667 -12.90817,-3.562745 -22.21483,-6.873866 -29.17977,-10.381569 -0.85665,-0.43143 -2.15788,-1.010405 -2.89163,-1.286611 -1.23406,-0.46454 -1.3715,-0.477678 -1.83307,-0.175246 -0.27445,0.179823 -0.93374,1.196425 -1.46511,2.259116 -2.28941,4.578639 -5.2552,7.446899 -10.04739,9.716981 -2.79891,1.325856 -4.29261,1.591176 -8.35863,1.484716 -2.96978,-0.0778 -3.54165,-0.15304 -5.02653,-0.6617 -3.62761,-1.24269 -7.21702,-3.680063 -9.59205,-6.513441 -0.69934,-0.834302 -1.69491,-2.403245 -2.31029,-3.640856 l -1.08137,-2.174784 -0.075,-3.075352 c -0.11022,-4.519087 0.49591,-6.383892 3.25246,-10.0064 2.03041,-2.668251 4.10603,-4.223542 8.28121,-6.205241 1.52992,-0.726161 2.91695,-1.484799 3.08229,-1.685862 0.26737,-0.325152 0.20147,-0.566445 -0.59599,-2.182302 -0.49313,-0.999202 -1.77116,-3.418938 -2.84006,-5.377192 -4.75378,-8.709025 -6.83131,-13.600826 -11.19722,-26.365226 -2.28744,-6.687687 -2.85447,-7.75947 -3.63416,-6.869084 -0.58189,0.664509 -1.02865,1.775651 -2.86815,7.133364 -4.39088,12.788874 -6.61539,18.013624 -11.1657,26.225076 -2.1776,3.929674 -3.49923,6.601183 -3.49923,7.073242 0,0.517766 0.60599,0.900055 3.3486,2.112441 4.86649,2.151258 8.5219,5.618931 10.48344,9.945018 1.44742,3.19221 1.40743,7.98126 -0.093,11.140798 -1.04795,2.206684 -2.16622,3.74347 -4.02939,5.537411 -1.9208,1.849419 -2.9051,2.548713 -5.23154,3.716729 -3.07365,1.543151 -3.97891,1.762551 -7.72439,1.872051 -3.86297,0.11293 -5.05557,-0.0578 -7.57317,-1.084222 -2.839652,-1.157715 -4.762496,-2.470613 -7.204785,-4.919348 -2.026607,-2.031956 -2.320571,-2.431731 -3.514046,-4.778896 -0.716338,-1.408792 -1.483182,-2.658175 -1.704098,-2.776407 -0.561967,-0.300754 -1.659934,0.100893 -6.288489,2.300392 -7.879433,3.744322 -15.105294,6.219495 -30.598108,10.481191 -6.687841,1.83966 -9.195294,2.68198 -9.195294,3.08895 0,0.70186 1.528488,1.24496 10.15779,3.60922 14.401416,3.94571 21.977912,6.56437 30.185029,10.43286 1.972457,0.92974 4.021955,1.80013 4.554443,1.93421 1.317503,0.33175 1.871398,-0.0526 2.689969,-1.86665 1.602204,-3.55066 5.068302,-6.98432 9.066007,-8.98116 3.603342,-1.79986 7.641242,-2.33953 12.252182,-1.63752 3.57674,0.54456 5.76106,1.5423 8.75527,3.99918 3.36689,2.76269 5.35503,5.66929 6.00925,8.78536 0.41524,1.97779 0.40679,6.8149 -0.0163,9.33549 -0.91336,5.44125 -4.34714,12.51012 -9.65753,19.88125 -0.95436,1.3247 -1.99326,2.89801 -2.30866,3.49626 l -0.57346,1.08771 0.51886,0.55537 c 0.28538,0.30545 0.94299,0.79601 1.46135,1.09013 2.63186,1.49333 4.15484,2.53603 5.3851,3.68688 5.04724,4.72144 6.6309,11.58551 4.05714,17.5849 -1.45633,3.39469 -4.59231,6.61416 -8.38284,8.60603 -6.12129,3.21665 -12.04196,3.33242 -18.123757,0.3544 -2.64263,-1.294 -4.423502,-2.64277 -6.497148,-4.92073 -2.167629,-2.3812 -2.419064,-2.54078 -3.29951,-2.09417 -0.83327,0.42267 -6.908602,6.50219 -9.502323,9.50886 -4.178301,4.84354 -6.568584,8.24349 -8.159677,11.60637 -4.179403,8.83344 -4.287879,19.4104 -0.278342,27.13984 2.822609,5.44133 9.198534,11.01295 15.425962,13.48001 4.770188,1.88977 9.870708,2.50552 16.684755,2.01424 z"
     id="path25" />
  <path
     style="fill:#f2f2f2;stroke-width:0.304234"
     d="m 92.148715,241.62325 c -6.512064,-1.19086 -11.686005,-3.85775 -16.512763,-8.51144 -5.800115,-5.59215 -8.173544,-11.14264 -8.205649,-19.18969 -0.03422,-8.57713 2.546104,-15.29498 8.939508,-23.27393 2.731699,-3.40915 11.534137,-12.32149 12.169549,-12.32149 0.289503,0 1.746032,1.21271 3.236729,2.69492 2.256181,2.24332 3.192039,2.93127 5.584858,4.10537 3.602333,1.76759 5.798013,2.32796 9.099173,2.32225 5.50943,-0.01 10.19433,-1.96269 14.19708,-5.91882 3.5514,-3.51003 4.98509,-6.70475 4.97821,-11.09297 -0.009,-5.90671 -3.04259,-10.91785 -8.70225,-14.37637 -1.38099,-0.8439 -2.79499,-1.79904 -3.14223,-2.12254 -0.77351,-0.72064 -0.9227,-0.41519 3.21654,-6.5857 3.62184,-5.39922 6.73249,-11.46004 7.9151,-15.42189 0.73213,-2.45269 0.81974,-3.2455 0.84051,-7.60586 0.021,-4.41072 -0.0428,-5.03179 -0.67997,-6.61497 -1.95995,-4.87018 -7.46493,-9.52503 -12.70963,-10.7469 -2.54946,-0.59395 -7.58778,-0.66947 -9.86153,-0.1478 -0.91742,0.21048 -2.782669,0.91304 -4.145004,1.56124 -3.099065,1.47454 -6.770143,4.80794 -8.32632,7.56043 -1.728003,3.05642 -2.089181,3.44319 -3.00342,3.21623 -0.438095,-0.10876 -3.055478,-1.1993 -5.816405,-2.42342 -8.864174,-3.93013 -15.533708,-6.18927 -31.031909,-10.51128 -3.095585,-0.86327 -6.244411,-1.84136 -6.997391,-2.17353 l -1.369055,-0.60394 0.844734,-0.44836 c 0.464603,-0.2466 5.393201,-1.74826 10.952438,-3.337011 14.723644,-4.207817 19.663315,-5.922872 27.7533,-9.635952 2.175276,-0.998391 4.456526,-1.994868 5.069443,-2.214394 1.349842,-0.483468 1.423823,-0.416488 3.255773,2.947699 2.366308,4.345481 7.768288,8.697669 12.362726,9.960218 0.66931,0.18393 2.9668,0.33518 5.10552,0.33611 3.12889,0.001 4.25819,-0.12169 5.78046,-0.62988 2.8089,-0.937735 5.47772,-2.532763 7.67141,-4.584848 5.61384,-5.251472 7.05749,-11.814544 3.97204,-18.057501 -1.9544,-3.954451 -5.13241,-6.818301 -10.30796,-9.288988 -1.47731,-0.705231 -2.75302,-1.456833 -2.8349,-1.670223 -0.16989,-0.442712 0.41104,-1.647989 4.17592,-8.663908 3.4129,-6.359991 5.90224,-12.190753 9.22203,-21.600642 2.76375,-7.833781 3.77938,-10.34397 4.18521,-10.34397 0.49156,0 1.15836,1.46744 2.83395,6.236806 4.80859,13.687014 6.49708,17.679236 11.3877,26.924744 1.8145,3.430243 3.39201,6.536248 3.50558,6.902233 0.18672,0.601702 -0.15181,0.846851 -3.53482,2.559816 -3.24091,1.641013 -4.07021,2.224945 -6.20037,4.365879 -3.96296,3.982997 -5.22297,7.392424 -4.78393,12.944699 0.38349,4.84974 4.34372,9.99654 9.98677,12.979032 3.16754,1.674121 4.83099,1.997401 9.67601,1.880451 l 4.3131,-0.10411 2.89023,-1.425793 c 4.39553,-2.168379 7.63913,-5.212606 9.4953,-8.911643 0.33766,-0.672912 0.94474,-1.664771 1.34907,-2.204133 l 0.73513,-0.980657 1.43582,0.575508 c 0.7897,0.316526 2.77138,1.204157 4.40374,1.972507 6.95694,3.27463 14.20874,5.781165 28.62818,9.895133 9.6111,2.742118 10.84459,3.154648 10.84459,3.626938 0,0.4411 -1.41617,0.90983 -11.18667,3.70259 -15.32822,4.38136 -19.11027,5.70936 -30.26074,10.62552 -2.07063,0.91293 -3.79575,1.49922 -4.10716,1.39584 -0.29532,-0.098 -1.21596,-1.35055 -2.04587,-2.78339 -2.3774,-4.10458 -6.21013,-7.34303 -10.68109,-9.02494 -1.59162,-0.59875 -2.37965,-0.67903 -6.67251,-0.6798 -6.60035,-0.001 -8.56102,0.6689 -12.91021,4.41213 -3.81843,3.28642 -5.31213,6.00737 -5.76827,10.5076 -0.82013,8.09129 2.30874,16.81266 9.71265,27.07296 0.97056,1.34499 2.00386,2.94706 2.29622,3.56014 0.67196,1.4091 0.5366,1.58555 -2.72993,3.55863 -3.38631,2.04543 -6.25227,5.06526 -7.71551,8.12979 -1.12952,2.36557 -1.13897,2.41717 -1.13294,6.18839 0.005,3.26616 0.10637,4.05372 0.71665,5.57971 3.4118,8.53116 13.68416,13.53771 22.92649,11.17391 3.90278,-0.99816 8.09226,-3.52372 10.75445,-6.48314 0.64099,-0.71256 1.48062,-1.54605 1.86584,-1.85219 l 0.70041,-0.55663 3.83705,3.75109 c 6.52788,6.38163 12.38071,13.8266 14.43981,18.36785 3.05492,6.73749 3.59357,17.31296 1.20345,23.62771 -0.97972,2.58843 -3.37217,6.05035 -6.02403,8.71689 -5.38528,5.41509 -11.45668,8.44645 -18.46149,9.21753 -4.19233,0.46149 -11.21619,0.14712 -14.26696,-0.63855 -7.70404,-1.98403 -14.50161,-7.16272 -19.9682,-15.21264 -0.68801,-1.01313 -1.34849,-1.84028 -1.46776,-1.83812 -0.11926,0.002 -0.89716,1.06318 -1.72866,2.35782 -2.15077,3.3487 -7.84928,8.98272 -11.09103,10.96552 -3.07341,1.87983 -6.23895,3.23687 -9.05388,3.88133 -2.38387,0.54576 -12.802959,0.85969 -15.028035,0.45279 z"
     id="path8" />
</svg>
