<?xml version="1.0" encoding="UTF-8"?>
<svg cursor="default" version="1.1" viewBox="0 0 256 256" xml:space="preserve" xmlns="http://www.w3.org/2000/svg" xmlns:xlink="http://www.w3.org/1999/xlink"><defs><linearGradient id="linearGradient2" x1="119.75" x2="132.67" y1="247.75" y2="247.75" gradientTransform="matrix(2.0785 2.0785 -2.0785 2.0785 502.74 -511.63)" gradientUnits="userSpaceOnUse"><stop stop-color="#ffb380" offset="0"/><stop stop-color="#fca" offset="1"/></linearGradient></defs><g transform="matrix(2.4101 .617 -.60886 2.421 162.45 -597.15)" stroke="#000" stroke-linecap="round" stroke-linejoin="round" stroke-width=".20064"><g fill="#ffd5d5"><path d="m69.604 260.55 0.24774-4.7072 1.0185-1.8168 2.0095-0.27527-0.3028 6.9919z" style="paint-order:markers fill stroke"/><path d="m69.714 255.67-0.3028-6.1111 0.27527-1.8994 1.2387 0.66065-0.02753 5.6156z" style="paint-order:markers fill stroke"/><path d="m69.687 247.66 1.8443-1.0185 1.8719 0.57807-0.68818 0.77077-1.8168 0.38538z" style="paint-order:markers fill stroke"/><path d="m72.852 253.69 5.3953-11.837 2.8078 0.79829-0.79829 2.8904z" style="paint-order:markers fill stroke"/><path d="m79.624 254.93 1.2387-3.3858 5.1751-1.6241 2.0921 0.68818z" style="paint-order:markers fill stroke"/><path d="m78.275 241.85 2.7527 0.82581 4.2392-1.514 1.1561-1.4314-4.3218-0.0551z" style="paint-order:markers fill stroke"/></g><g fill="#faa"><path d="m85.35 241.19 1.1561-1.4314 2.0095 2.4499z" style="paint-order:markers fill stroke"/><path d="m80.285 245.6 0.85334-2.9729 4.1841-1.4865 3.1656 1.046-0.82582 4.6521-5.2027 0.9084z" style="paint-order:markers fill stroke"/><path d="m80.202 245.54 2.2022 2.0646-2.7803 7.57-4.2667 5.9184-2.7527-0.41291 0.35786-7.0745z" style="paint-order:markers fill stroke"/><path d="m70.898 253.91 1.8443-0.24774 1.2112-2.5876-1.3213-3.028-1.6792 0.3028z" style="paint-order:markers fill stroke"/></g><g fill="#ff8080"><path d="m81.111 251.49 1.4039-3.7437 5.065-0.88087-2.037 3.1656z" style="paint-order:markers fill stroke"/><path d="m86.203 249.92 1.8994 0.66065 1.514-0.41291-1.8168-0.41291z" style="paint-order:markers fill stroke"/><path d="m82.046 253.86 6.0285-3.3033 1.4865-0.38538-0.44044 1.4314-3.1106 1.8994z" style="paint-order:markers fill stroke"/><path d="m85.928 253.66-5.6431 4.2942 1.5966-4.1016z" style="paint-order:markers fill stroke"/><path d="m77.532 260.68 2.037-5.6706 2.2297-1.0736-1.4865 4.2667z" style="paint-order:markers fill stroke"/><path d="m77.532 260.77-2.6701 3.4409 0.55055-3.2207 4.1566-5.9184z" style="paint-order:markers fill stroke"/><path d="m74.752 264.32 0.6056-3.4134-2.7908-0.43821-3.0174 0.0528 0.55054 2.2022 2.3673 1.3764z" style="paint-order:markers fill stroke"/><path d="m72.589 248.1 0.88087-0.93593 0.49549 3.6886z" style="paint-order:markers fill stroke"/></g></g><g transform="matrix(1.0172 0 0 1.0172 -138.34 -127.72)" stroke="#000" stroke-linecap="round" stroke-linejoin="round"><g stroke-width=".49154"><path d="m185.1 328.54-19.159 19.159 4.55 0.28837 0.95107 2.2737s3.0171-1.7325 7.1913 0.13757c6.041 2.7064 8.9085 7.3994 18.767 7.4834 10.585 0.0903 16.877-9.9324 19.686-15.748 2.5009-5.1764-13.529-10.724-13.529-10.724s4.1451 9.7491-3.1332 15.467c-6.8201 5.3579-14.89-1.4857-17.951-2.2601-3.0605-0.77435-6.6931-0.45839-6.6931-0.45839s5.8194-6.1304 9.0927-9.4036c3.2732-3.2732 6.9053-3.1741 6.9053-3.1741z" fill="#f95" style="paint-order:markers fill stroke"/><path d="m185.1 328.54-19.159 19.159-0.28836-4.55-2.2736-0.95104s1.7324-3.017-0.13757-7.1912c-2.7063-6.041-7.3994-8.9085-7.4834-18.767-0.0902-10.585 9.9325-16.877 15.748-19.686 5.1764-2.5009 10.724 13.529 10.724 13.529s-9.7492-4.145-15.467 3.1332c-5.3579 6.8201 1.4857 14.89 2.26 17.951 0.77441 3.0604 0.45845 6.693 0.45845 6.693s6.1304-5.8194 9.4036-9.0926c3.2732-3.2732 3.1741-6.9053 3.1741-6.9053z" fill="#ffb380" style="paint-order:markers fill stroke"/><path d="m180.79 306.46-2.9604-3.0576s-8.6109-2.3756-15.212 6.5058c-6.2799 8.4491 1.6376 17.536 3.4995 22.307 1.8097 4.6375-0.33495 10.656-0.45773 10.992l2e-3 0.0264 3.8893-5.5513c0.0338-0.43868 0.27866-3.2285-0.52531-6.5085-1.1024-4.4983-7.6175-11.132-2.2596-17.953 5.7178-7.2781 15.465-3.1326 15.465-3.1326s-0.54048-1.5596-1.4404-3.6301z" fill="#f95" style="paint-order:markers fill stroke"/><path d="m207.19 332.86 3.0576 2.9604s2.3756 8.6109-6.5059 15.212c-8.449 6.2799-17.536-1.6375-22.307-3.4995-4.6376-1.8096-10.656 0.33505-10.992 0.4578l-0.0265-2e-3 5.4596-3.9074c0.43872-0.0338 3.3203-0.26044 6.6003 0.54348 4.4983 1.1025 11.132 7.6175 17.953 2.2596 7.2782-5.7178 3.1327-15.465 3.1327-15.465s1.5596 0.54046 3.6301 1.4404z" fill="#ffb380" style="paint-order:markers fill stroke"/><path d="m288.39 158.97c-1.0878-0.0235-2.2056 0.0479-3.3586 0.24104-12.459 2.0869-18.842 12.912-18.119 21.57 0.7227 8.6581-1.8487 14.657-1.8487 14.657s3.3379 5.7827 3.4333 12.321l0.0514 12.315c-9.5466 22.177-23.429 26.954-37.1 40.625-13.671 13.671-18.448 27.553-40.625 37.1-5.3763 0.34715-11.959-2.2653-17.471-5.1383 0 0-4.2678 4.6994-1.487 10.713 1.7514 3.7876 11.295 8.479 13.785 9.4098 2.4894 0.93079 2.9004 4.2537 1.6018 5.345-1.2987 1.0912-5.3508 3.6858-5.3508 3.6858l3.1978 6.7344 6.7344 3.1978s2.5945-4.0521 3.6858-5.3508c1.0912-1.2987 4.4142-0.88767 5.345 1.6018s5.6222 12.033 9.4098 13.785c6.0138 2.7808 10.713-1.4813 10.713-1.4813-2.8913-5.3597-5.3565-11.205-5.1385-17.476 9.5467-22.177 23.429-26.954 37.1-40.625 13.671-13.671 18.448-27.553 40.625-37.1l12.315 0.0514c6.5379 0.0952 12.321 3.4332 12.321 3.4332s6.0048-2.5656 14.663-1.8429c8.6582 0.7227 19.477-5.6664 21.564-18.125 2.0601-12.298-9.427-21.133-9.427-21.133-1.8088 0.25986-3.7488 1.9321-4.4092 3.5825 0 0 4.5039 5.3419 4.3403 11.517-0.16373 6.175-6.6048 11.264-14.026 11.844-7.4209 0.58029-10.937-6.987-10.937-6.987s-6.9084 4.1062-14.066 1.6248c-7.1575-2.4815-9.1055-12.217-9.1055-12.217s-9.7415-1.9538-12.223-9.1113c-2.4814-7.1575 1.6248-14.06 1.6248-14.06 0 0-7.5673-3.5219-6.987-10.943 0.58034-7.4208 5.6691-13.862 11.844-14.026 6.1751-0.16343 11.517 4.3461 11.517 4.3461 1.6505-0.66047 3.3284-2.6062 3.5882-4.415 0 0-0.55239-0.71782-1.573-1.7626-2.6796-2.7423-8.5926-7.735-16.207-7.9056z" fill="url(#linearGradient2)" style="paint-order:normal"/><path d="m304.96 171.18c-1.493-1.32-3.3335-2.8186-5.5979-4.3924-6.7452-4.6878-16.345-5.3088-24.002 6.3859-8.2098 12.539 0.75797 23.514 0.75797 23.514s-4.8323 4.7716-0.8837 15.774c3.2206 8.9741 10.273 12.237 12.793 13.151l8.7755-8.7754s-9.7391-1.9517-12.221-9.1092c-2.4815-7.1575 1.6269-14.062 1.6269-14.062s-7.5725-3.5194-6.9922-10.94c0.58034-7.4209 5.674-13.862 11.849-14.026 6.175-0.16343 11.514 4.3443 11.514 4.3443 0.85422-0.34186 1.711-1.0309 2.379-1.8642z" fill="#fca" style="paint-order:markers fill stroke"/><path d="m342.46 208.68c1.32 1.493 2.8186 3.3335 4.3924 5.5979 4.6878 6.7451 4.9042 16.102-6.7904 23.759-12.539 8.2097-23.11-0.5153-23.11-0.5153s-4.7716 4.8323-15.774 0.88373c-8.9741-3.2206-12.237-10.273-13.151-12.793l8.7755-8.7754s1.9518 9.7391 9.1093 12.221c7.1575 2.4814 14.062-1.6269 14.062-1.6269s3.5194 7.5725 10.94 6.9921c7.4209-0.58029 13.862-5.674 14.026-11.849 0.16373-6.175-4.3443-11.514-4.3443-11.514 0.34184-0.85419 1.0309-1.711 1.8642-2.3789z" fill="#ffb380" style="paint-order:markers fill stroke"/></g><path d="m196.78 316.67 86.068-86.068" fill="#ff8080" stroke-width=".49153" style="paint-order:normal"/><path d="m272.99 226.61c-11.704 20.019-24.032 26.351-37.702 40.021-13.671 13.671-20.002 25.998-40.021 37.702" fill="none" stroke-width=".49154" style="paint-order:markers fill stroke"/><path d="m286.99 240.6c-20.019 11.704-26.351 24.032-40.021 37.702-13.671 13.671-25.998 20.002-37.702 40.021" fill="none" stroke-width=".49154" style="paint-order:markers fill stroke"/></g></svg>
