<?xml version="1.0" encoding="UTF-8"?>
<svg cursor="default" version="1.1" viewBox="0 0 256 256" xml:space="preserve" xmlns="http://www.w3.org/2000/svg" xmlns:xlink="http://www.w3.org/1999/xlink"><defs><linearGradient id="linearGradient2" x1="119.75" x2="132.67" y1="247.75" y2="247.75" gradientTransform="rotate(45 125.7 127.19)" gradientUnits="userSpaceOnUse"><stop stop-color="#ffb380" offset="0"/><stop stop-color="#fca" offset="1"/></linearGradient></defs><g stroke="#000" stroke-linecap="round" stroke-linejoin="round" stroke-width=".5"><path d="m18.695 234.19-6.5178 6.5177 1.5479 0.0981 0.32355 0.77349s1.0264-0.58938 2.4464 0.0468c2.0551 0.92069 3.0306 2.5172 6.3844 2.5458 3.6011 0.0307 5.7414-3.379 6.6972-5.3573 0.85078-1.761-4.6026-3.6481-4.6026-3.6481s1.4101 3.3166-1.0659 5.2618c-2.3202 1.8227-5.0656-0.50544-6.1067-0.76888-1.0412-0.26343-2.277-0.15594-2.277-0.15594s1.9797-2.0855 3.0933-3.1991c1.1135-1.1135 2.3491-1.0798 2.3491-1.0798z" fill="#f95" style="paint-order:markers fill stroke"/><path d="m18.695 234.19-6.5178 6.5177-0.0981-1.5479-0.77348-0.32354s0.58937-1.0264-0.0468-2.4464c-0.92067-2.0551-2.5172-3.0306-2.5458-6.3844-0.030674-3.601 3.379-5.7414 5.3573-6.6971 1.761-0.85078 3.6481 4.6026 3.6481 4.6026s-3.3166-1.4101-5.2618 1.0659c-1.8227 2.3202 0.50542 5.0656 0.76886 6.1068 0.26345 1.0411 0.15595 2.2769 0.15595 2.2769s2.0855-1.9797 3.199-3.0933c1.1135-1.1135 1.0798-2.3492 1.0798-2.3492z" fill="#ffb380" style="paint-order:markers fill stroke"/><path d="m17.228 226.68-1.0071-1.0402s-2.9294-0.80816-5.1751 2.2133c-2.1364 2.8744 0.55709 5.9656 1.1905 7.5888 0.61564 1.5777-0.11395 3.625-0.15573 3.7395l7.07e-4 9e-3 1.3231-1.8885c0.0115-0.14924 0.09476-1.0983-0.17871-2.2142-0.37504-1.5303-2.5914-3.7872-0.7687-6.1074 1.9452-2.476 5.2612-1.0657 5.2612-1.0657s-0.18387-0.53057-0.49001-1.2349z" fill="#f95" style="paint-order:markers fill stroke"/><path d="m26.209 235.66 1.0402 1.0071s0.80818 2.9294-2.2133 5.1751c-2.8743 2.1364-5.9656-0.55708-7.5888-1.1905-1.5777-0.6156-3.625 0.11398-3.7395 0.15574l-0.0092-7e-4 1.8573-1.3293c0.14925-0.0115 1.1295-0.0886 2.2454 0.18489 1.5303 0.37505 3.7872 2.5914 6.1074 0.76871 2.476-1.9452 1.0657-5.2611 1.0657-5.2611s0.53056 0.18386 1.2349 0.49z" fill="#ffb380" style="paint-order:markers fill stroke"/><path d="m53.833 176.5c-0.37007-8e-3 -0.75034 0.0163-1.1426 0.082-4.2383 0.70995-6.4099 4.3924-6.1641 7.3379 0.24586 2.9454-0.62891 4.9863-0.62891 4.9863s1.1355 1.9672 1.168 4.1914l0.01754 4.1895c-3.2477 7.5444-7.9704 9.1697-12.621 13.82-4.6507 4.6507-6.2759 9.3734-13.82 12.621-1.829 0.1181-4.0683-0.77065-5.9434-1.748 0 0-1.4519 1.5987-0.50586 3.6445 0.59583 1.2885 3.8425 2.8845 4.6895 3.2012 0.8469 0.31665 0.9867 1.4471 0.54492 1.8184-0.44181 0.37124-1.8203 1.2539-1.8203 1.2539l1.0879 2.291 2.291 1.0879s0.88265-1.3785 1.2539-1.8203c0.37125-0.44181 1.5017-0.30198 1.8184 0.54492 0.31666 0.8469 1.9127 4.0936 3.2012 4.6894 2.0459 0.94601 3.6445-0.50392 3.6445-0.50392-0.98361-1.8234-1.8223-3.8119-1.7481-5.9453 3.2477-7.5444 7.9704-9.1696 12.621-13.82 4.6507-4.6507 6.2759-9.3734 13.82-12.621l4.1895 0.0175c2.2242 0.0324 4.1914 1.168 4.1914 1.168s2.0428-0.87282 4.9883-0.62695c2.9455 0.24586 6.626-1.9277 7.3359-6.166 0.70083-4.1838-3.207-7.1894-3.207-7.1894-0.61533 0.0884-1.2753 0.65728-1.5 1.2188 0 0 1.5322 1.8173 1.4766 3.918-0.05566 2.1007-2.2469 3.8319-4.7715 4.0293-2.5246 0.19741-3.7207-2.377-3.7207-2.377s-2.3502 1.3969-4.7852 0.55275c-2.4349-0.8442-3.0977-4.1563-3.0977-4.1563s-3.314-0.66467-4.1582-3.0996c-0.84418-2.4349 0.55274-4.7832 0.55274-4.7832 0 0-2.5744-1.1981-2.377-3.7227 0.19742-2.5245 1.9286-4.7158 4.0293-4.7715 2.1007-0.0556 3.918 1.4785 3.918 1.4785 0.56148-0.22469 1.1323-0.88663 1.2207-1.502 0 0-0.18791-0.2442-0.53514-0.59963-0.91157-0.93292-2.9232-2.6314-5.5137-2.6895z" fill="url(#linearGradient2)" style="paint-order:normal"/><path d="m59.47 180.66c-0.50789-0.44906-1.134-0.95887-1.9044-1.4943-2.2947-1.5948-5.5604-1.806-8.1653 2.1724-2.7929 4.2657 0.25787 7.9995 0.25787 7.9995s-1.6439 1.6233-0.30063 5.3662c1.0956 3.053 3.4948 4.163 4.3523 4.4739l2.9854-2.9854s-3.3132-0.66397-4.1574-3.0989c-0.84419-2.435 0.55348-4.7839 0.55348-4.7839s-2.5761-1.1973-2.3787-3.7218c0.19742-2.5246 1.9303-4.7158 4.031-4.7715 2.1007-0.0556 3.9171 1.4779 3.9171 1.4779 0.2906-0.1163 0.58208-0.35072 0.80931-0.63418z" fill="#fca" style="paint-order:markers fill stroke"/><path d="m72.228 193.42c0.44906 0.5079 0.95889 1.134 1.4943 1.9044 1.5948 2.2946 1.6684 5.4778-2.3101 8.0827-4.2657 2.7929-7.8619-0.1753-7.8619-0.1753s-1.6233 1.6439-5.3662 0.30064c-3.0529-1.0956-4.163-3.4948-4.4739-4.3523l2.9854-2.9854s0.66399 3.3132 3.0989 4.1574c2.4349 0.84418 4.784-0.55347 4.784-0.55347s1.1973 2.5761 3.7218 2.3787c2.5246-0.19741 4.7158-1.9303 4.7715-4.031 0.05565-2.1007-1.4779-3.9171-1.4779-3.9171 0.11629-0.29059 0.35071-0.58206 0.63418-0.80929z" fill="#ffb380" style="paint-order:markers fill stroke"/></g><g transform="matrix(.59808 .59808 -.59658 .59658 24.386 52.126)" stroke-width="1.1838"><path d="m145.67 90.179-3.7437-11.121-2.4224-24.004-0.55054-21.031 2.3123-3.4134-6.7167-2.2022 1.3213-3.8538 4.2943-5.6156-3.8538-6.6065-5.8358-4.8448 6.8268 0.11011-7.047-10.57 6.8268 3.0831 0.33033-6.7167h2.4224l1.1011-5.8358-4.1842-12.883 3.8538-6.056-2.7527-7.5975 1.8719-13.764-1.6516-8.5885 2.5325-15.746-2.2022-3.9639 2.4224-12.552-1.3213-6.9369 3.6336-18.058-1.4314-4.1842 2.7527-3.7437-2.3123-7.3773 2.3123-14.424-2.4224-5.7257 2.7527-16.076-1.6516-4.6246 1.982-16.737-1.2112-5.5054 4.7347-15.305 3.3033 7.5975-1.1011 14.094 2.4224 8.4784-1.6516 16.186 2.6426 5.065-1.4314 11.231 2.7527 8.6986-1.982 10.901 2.4224 8.1481-1.982 10.681 2.2022 5.9459-2.4224 19.489 2.973 11.892-2.7527 20.59 2.0921 6.4964-1.8718 8.6986 2.5325 5.065-2.8628 11.451 2.0921 5.5055-1.2112 1.4314 3.6336 10.681 4.1842-1.8719 1.4314 3.4134-4.8448 7.047 3.083-0.33033-0.88087 4.5145-4.5145 7.5975-2.9784 3.292 4.7494 3.2701 0.77859 3.6594-4.2822-2.0243-1.7908 3.8151 1.1679 5.7616-1.8686 13.002 1.09 18.297-3.1922 4.983 1.8686 4.8273-1.635 8.9538z" fill="#ff8080" stroke="#000" stroke-linecap="round" stroke-linejoin="round" stroke-width=".59189" style="paint-order:markers fill stroke"/><path d="m146 84.894v-7.047l-2.8628-4.2943 0.66066-5.6156-1.3213-14.204 2.2022-6.8268-0.55055-35.455-2.9729-9.2492 1.6516-13.654-0.66065-6.056 3.3033-7.7076s-3.8538-10.46-3.8538-10.901-0.77076-21.471-0.77076-21.471l1.8718-12.222-1.1011-12.112 3.9639-10.681 0.88087-23.123-3.8538-9.0289 1.6516-3.8538 0.11011-4.074 3.0831-7.8177-0.99099-18.278 0.77077-12.222 0.66065-16.847 0.33033 18.168 2.7527 9.4694-2.4224 10.35 0.88087 18.388 4.074 9.3593-2.8628 8.6986-0.44044 24.664 2.7527 10.24-2.3123 7.4874-0.44044 18.168 3.0831 8.8087-0.99099 6.2762 1.3213 3.7437-3.083 5.6156 2.3123 16.847 1.8718-0.55054 1.5415 9.0289-3.7437 14.424 1.982 4.7347-2.2022 3.3033 0.11011 7.1571-2.4224 3.3033 2.5325 10.46-3.6336 11.561 0.66066 8.9188 1.4314 4.6246-3.6336 8.4784z" fill="#faa" style="paint-order:markers fill stroke"/><path d="m144.68 71.13 0.22022-19.159-1.982-6.3863-0.44043-33.253 3.3033-14.094 0.44044-21.802-3.0831 2.6426v-3.7437l3.5235-13.874-3.5235 1.5415-0.22022-2.8628-0.66065-12.773 2.4224-17.397-2.4224-24.664 3.9639-28.849 0.22021-27.087 2.8628-11.451 1.7617 38.979 1.982 18.939-2.4224 25.105 1.7617 4.1841-1.189 37.969 1.8686 8.4088-3.1144 11.679 1.2236 5.0358-1.8718 9.4694 3.4134-6.056 1.2112 4.7347-4.1841 17.948 0.99098 8.9188-2.4224 2.0921-1.2112 11.121 1.6516-1.982 1.982 5.5055-1.4314 6.6065 1.3213 2.3123-1.1011 6.9369-1.4314 2.6426-0.88087 9.2492z" fill="#ffd5d5" style="paint-order:markers fill stroke"/></g><g stroke="#000" stroke-linecap="round" stroke-linejoin="round"><path d="m22.668 230.16 29.28-29.28" fill="#ff8080" stroke-width=".5" style="paint-order:normal"/><path d="m48.596 199.52c-3.9818 6.8104-8.1755 8.9644-12.826 13.615-4.6507 4.6507-6.8047 8.8444-13.615 12.826" fill="none" stroke-width=".5" style="paint-order:markers fill stroke"/><path d="m53.356 204.28c-6.8104 3.9818-8.9644 8.1755-13.615 12.826-4.6507 4.6507-8.8444 6.8047-12.826 13.615" fill="none" stroke-width=".5" style="paint-order:markers fill stroke"/></g></svg>
