<?xml version="1.0" encoding="UTF-8" standalone="no"?>
<svg
   xmlns:dc="http://purl.org/dc/elements/1.1/"
   xmlns:cc="http://creativecommons.org/ns#"
   xmlns:rdf="http://www.w3.org/1999/02/22-rdf-syntax-ns#"
   xmlns:svg="http://www.w3.org/2000/svg"
   xmlns="http://www.w3.org/2000/svg"
   xmlns:xlink="http://www.w3.org/1999/xlink"
   xmlns:sodipodi="http://sodipodi.sourceforge.net/DTD/sodipodi-0.dtd"
   xmlns:inkscape="http://www.inkscape.org/namespaces/inkscape"
   cursor="default"
   viewBox="0 0 256 256"
   version="1.1"
   id="svg53"
   sodipodi:docname="quincycross.svg"
   inkscape:version="1.0.2-2 (e86c870879, 2021-01-15)">
  <metadata
     id="metadata57">
    <rdf:RDF>
      <cc:Work
         rdf:about="">
        <dc:format>image/svg+xml</dc:format>
        <dc:type
           rdf:resource="http://purl.org/dc/dcmitype/StillImage" />
      </cc:Work>
    </rdf:RDF>
  </metadata>
  <sodipodi:namedview
     pagecolor="#ffffff"
     bordercolor="#666666"
     borderopacity="1"
     objecttolerance="10"
     gridtolerance="10"
     guidetolerance="10"
     inkscape:pageopacity="0"
     inkscape:pageshadow="2"
     inkscape:window-width="1920"
     inkscape:window-height="1017"
     id="namedview55"
     showgrid="false"
     inkscape:zoom="4.7532866"
     inkscape:cx="129.2792"
     inkscape:cy="188.06721"
     inkscape:window-x="-8"
     inkscape:window-y="-8"
     inkscape:window-maximized="1"
     inkscape:current-layer="svg53"
     inkscape:document-rotation="0" />
  <defs
     id="defs25">
    <linearGradient
       id="innoGrad2">
      <stop
         offset="0"
         stop-color="#f55"
         id="stop2" />
      <stop
         offset="1"
         stop-color="#ff8080"
         id="stop4" />
    </linearGradient>
    <linearGradient
       id="innoGrad3">
      <stop
         offset="0"
         stop-color="#f55"
         id="stop7" />
      <stop
         offset="1"
         stop-color="#ff2a2a"
         id="stop9" />
    </linearGradient>
    <linearGradient
       id="innoGrad1">
      <stop
         offset="0"
         stop-color="#ff7f2a"
         id="stop12" />
      <stop
         offset="1"
         stop-color="#f95"
         id="stop14" />
    </linearGradient>
    <linearGradient
       id="linearGradient1068"
       x1="87.051"
       x2="54.78"
       y1="102.78"
       y2="123.932"
       gradientTransform="translate(6.903 5.37)"
       gradientUnits="userSpaceOnUse"
       xlink:href="#innoGrad1" />
    <linearGradient
       id="linearGradient1076"
       x1="125.831"
       x2="107.39"
       y1="56.949"
       y2="73.763"
       gradientTransform="translate(6.903 5.37)"
       gradientUnits="userSpaceOnUse"
       xlink:href="#innoGrad1" />
    <linearGradient
       id="linearGradient1084"
       x1="184.678"
       x2="165.966"
       y1="32"
       y2="46.373"
       gradientTransform="translate(6.903 5.37)"
       gradientUnits="userSpaceOnUse"
       xlink:href="#innoGrad1" />
    <linearGradient
       id="linearGradient1092"
       x1="53.966"
       x2="38.78"
       y1="163.525"
       y2="179.525"
       gradientTransform="translate(6.903 5.37)"
       gradientUnits="userSpaceOnUse"
       xlink:href="#innoGrad1" />
    <linearGradient
       id="linearGradient1100"
       x1="156.475"
       x2="120.949"
       y1="104.678"
       y2="137.492"
       gradientTransform="translate(6.903 5.37)"
       gradientUnits="userSpaceOnUse"
       xlink:href="#innoGrad1" />
    <linearGradient
       id="linearGradient1108"
       x1="120.136"
       x2="184.678"
       y1="232.136"
       y2="130.712"
       gradientTransform="translate(6.903 5.37)"
       gradientUnits="userSpaceOnUse"
       xlink:href="#innoGrad1" />
    <linearGradient
       id="linearGradient1116"
       x1="82.072"
       x2="27.613"
       y1="213.813"
       y2="231.839"
       gradientTransform="translate(6.903 5.37)"
       gradientUnits="userSpaceOnUse"
       xlink:href="#innoGrad3" />
    <linearGradient
       id="linearGradient1124"
       x1="204.03"
       x2="223.206"
       y1="87.637"
       y2="49.285"
       gradientTransform="translate(6.903 5.37)"
       gradientUnits="userSpaceOnUse"
       xlink:href="#innoGrad2" />
  </defs>
  <path
     style="fill:#000000;stroke-width:0.232523"
     d="m 185.20215,219.69214 c -0.16182,-0.0637 -0.29421,-0.21751 -0.29421,-0.34176 0,-0.12424 -0.2648,-0.56469 -0.58843,-0.97879 -0.32364,-0.4141 -0.58843,-0.82512 -0.58843,-0.91338 0,-0.569 -3.14575,-4.6985 -3.59886,-4.72431 -0.31575,-0.018 -2.05008,-1.90469 -2.05008,-2.2302 0,-0.16895 -0.21183,-0.51391 -0.47074,-0.76659 -0.25891,-0.25268 -0.47075,-0.54928 -0.47075,-0.65912 0,-0.10983 -0.42367,-0.719 -0.94149,-1.3537 -0.51782,-0.63471 -0.94149,-1.27354 -0.94149,-1.41965 0,-0.1461 -0.38503,-0.64814 -0.85563,-1.11565 -0.4706,-0.46751 -1.02666,-1.21291 -1.2357,-1.65645 -0.47855,-1.01537 -2.49368,-3.97688 -2.96675,-4.36005 -0.19551,-0.15835 -0.35548,-0.46398 -0.35548,-0.67916 0,-0.21519 -0.26479,-0.63403 -0.58843,-0.93075 -0.32364,-0.29673 -0.58843,-0.77294 -0.58843,-1.05825 0,-0.31701 -0.18307,-0.57546 -0.47074,-0.66456 -0.25891,-0.0802 -0.47075,-0.28462 -0.47075,-0.45427 0,-0.16965 -0.42367,-0.83154 -0.94149,-1.47087 -0.51782,-0.63932 -0.94149,-1.31812 -0.94149,-1.50843 0,-0.19032 -0.26479,-0.51535 -0.58843,-0.7223 -0.32363,-0.20696 -0.58843,-0.58541 -0.58843,-0.84102 0,-0.40652 -0.84593,-1.49693 -2.36692,-3.05098 -0.25165,-0.25712 -0.45772,-0.6706 -0.45793,-0.91883 -2.2e-4,-0.24824 -0.42536,-1.01987 -0.94475,-1.71473 -0.5194,-0.69487 -1.12825,-1.54793 -1.35301,-1.89569 -0.22475,-0.34776 -0.57792,-0.68569 -0.78482,-0.75097 -0.2069,-0.0653 -0.4959,-0.37511 -0.64223,-0.68853 -0.14632,-0.31342 -0.36275,-0.56985 -0.48094,-0.56985 -0.1182,0 -0.27775,-0.24435 -0.35455,-0.54299 -0.0768,-0.29865 -0.56491,-0.97067 -1.08469,-1.49337 -0.51978,-0.52271 -0.94505,-1.12027 -0.94505,-1.32793 0,-0.20765 -0.22011,-0.59517 -0.48913,-0.86114 -0.82696,-0.8176 -1.89081,-2.28318 -2.22691,-3.06781 -0.17588,-0.4106 -0.48406,-0.74655 -0.68485,-0.74655 -0.23438,0 -0.36507,-0.20965 -0.36507,-0.58566 0,-0.3585 -0.31952,-0.90674 -0.8238,-1.41348 -0.45309,-0.45531 -0.8238,-0.9256 -0.8238,-1.04511 0,-0.27457 -1.68458,-2.98984 -1.98428,-3.19832 -0.12278,-0.0854 -0.68258,0.173 -1.24398,0.57427 -4.01596,2.87042 -7.22846,4.34084 -10.65871,4.87867 -3.17742,0.49818 -6.99041,0.79686 -9.44525,0.73986 -1.37598,-0.0319 -2.39317,0.0466 -2.58909,0.19983 -0.2145,0.16781 -0.75676,0.1906 -1.61725,0.068 -0.712,-0.10147 -2.46595,-0.19204 -3.89767,-0.20126 -3.26749,-0.021 -6.4596,-0.69824 -9.51855,-2.01933 -2.76034,-1.19212 -3.417,-1.50223 -3.53058,-1.66732 -0.0647,-0.0941 -0.46049,-0.34246 -0.87947,-0.55197 -0.41898,-0.2095 -1.14603,-0.71016 -1.61567,-1.11258 -0.83079,-0.7119 -0.86293,-0.71954 -1.1889,-0.28284 -0.68939,0.92359 -3.115274,3.49289 -5.907384,6.25662 -1.58582,1.5697 -2.883314,3.04396 -2.883314,3.27613 0,0.24504 -0.593489,0.86781 -1.414698,1.48451 -1.437167,1.07927 -3.605077,3.52739 -4.322325,4.88102 -0.21711,0.40974 -0.518676,0.74498 -0.670145,0.74498 -0.151469,0 -1.400611,1.11122 -2.77587,2.46937 -1.375259,1.35815 -3.287522,3.2109 -4.249472,4.11723 -2.113493,1.99129 -2.337433,2.25101 -2.337433,2.71095 0,0.19708 -0.84734,1.19422 -1.882978,2.21586 -1.035638,1.02164 -1.882978,1.99388 -1.882978,2.16053 0,0.16666 -0.264794,0.61013 -0.588431,0.98549 -0.323637,0.37537 -0.588431,0.95183 -0.588431,1.28103 0,0.32919 -0.11271,0.59853 -0.250469,0.59853 -0.328669,0 -2.553422,2.33112 -2.565026,2.68766 -0.0049,0.15165 -0.143911,0.35838 -0.308839,0.45942 -0.164925,0.10103 -0.479208,0.44211 -0.698406,0.75796 -1.0179,1.46673 -1.836323,2.49239 -2.734082,3.42642 -0.5363,0.55796 -0.975093,1.12649 -0.975098,1.26339 -5e-6,0.13691 -0.356782,0.52674 -0.79284,0.86629 -0.837257,0.65198 -2.112576,2.56769 -2.10645,3.16419 0.0019,0.19425 -0.05979,0.40487 -0.137299,0.46804 -0.07751,0.0632 -0.301995,0.4217 -0.498851,0.79674 -0.224413,0.42754 -0.640191,0.7609 -1.11465,0.89369 -0.690738,0.19334 -0.854514,0.12829 -1.878115,-0.7459 -0.616763,-0.52674 -1.401814,-1.18732 -1.744559,-1.46796 -0.342744,-0.28064 -1.931507,-1.74656 -3.530584,-3.2576 -1.599077,-1.51103 -3.039809,-2.72108 -3.201628,-2.689 -0.542954,0.10766 -0.283367,-0.98736 0.344901,-1.4549 0.339541,-0.25268 0.89071,-0.71951 1.224821,-1.03739 0.334108,-0.31789 0.898745,-0.7033 1.254746,-0.85648 0.356,-0.15318 0.647273,-0.3841 0.647273,-0.51314 0,-0.12905 0.132397,-0.2352 0.294216,-0.23588 0.161818,-6.9e-4 0.812872,-0.52581 1.446784,-1.16694 0.633914,-0.64114 1.534213,-1.40314 2.000664,-1.69334 0.466454,-0.2902 1.336437,-1.03134 1.933301,-1.64698 0.596862,-0.61564 1.550119,-1.5456 2.11835,-2.06658 0.568229,-0.52097 1.350899,-1.29741 1.739263,-1.72541 1.795558,-1.97883 6.964844,-7.28992 10.674022,-10.96682 2.245979,-2.22644 4.2238,-4.31185 4.395158,-4.63425 0.295287,-0.55557 1.793337,-2.0162 2.821481,-2.75102 0.260213,-0.18597 0.777173,-0.69992 1.148805,-1.14211 1.999939,-2.37965 10.619253,-11.02599 10.991532,-11.02599 0.363574,0 1.391204,-1.16915 1.391204,-1.5828 0,-0.22735 0.20913,-0.59808 0.46473,-0.82383 0.25561,-0.22575 0.52754,-0.60356 0.6043,-0.83958 0.0768,-0.23602 0.29129,-0.42912 0.47675,-0.42912 0.18546,0 0.3372,-0.0892 0.3372,-0.19828 0,-0.27363 -2.27595,-2.32851 -2.57902,-2.32851 -0.135,0 -0.24545,-0.12091 -0.24545,-0.26869 0,-0.14778 -0.567007,-0.79384 -1.260016,-1.43568 -0.693006,-0.64184 -1.325188,-1.34788 -1.404845,-1.56897 -0.07966,-0.2211 -0.307034,-0.40199 -0.505281,-0.40199 -0.198244,0 -0.360444,-0.1493 -0.360444,-0.33178 0,-0.18248 -0.380854,-0.72516 -0.84634,-1.20597 -0.465489,-0.4808 -1.057857,-1.32424 -1.316378,-1.87431 -0.258521,-0.55007 -0.830653,-1.58375 -1.271406,-2.29708 -0.440751,-0.71333 -0.80164,-1.50654 -0.801972,-1.76269 -2.36e-4,-0.25616 -0.148431,-0.67171 -0.329105,-0.92345 -0.180676,-0.25174 -0.510376,-1.17922 -0.732664,-2.06106 -0.222291,-0.88184 -0.498137,-1.70154 -0.61299,-1.82156 -0.114854,-0.12003 -0.208824,-0.46009 -0.208824,-0.75571 0,-0.29561 -0.198473,-0.92099 -0.441053,-1.38973 -0.242577,-0.46874 -0.676264,-1.83426 -0.96375,-3.03448 -0.462347,-1.93026 -0.526926,-2.87184 -0.559283,-8.15464 l -0.03658,-5.97242 0.779367,-2.87135 c 0.428653,-1.57924 1.048492,-3.67092 1.377422,-4.64817 l 0.598053,-1.77682 -1.024361,-0.9301 c -1.18373,-1.0748 -2.700349,-1.90014 -4.205832,-2.2888 -0.580379,-0.14984 -1.372986,-0.56517 -1.76135,-0.92297 -0.388364,-0.35779 -1.553457,-1.02368 -2.589095,-1.47975 -2.377653,-1.04705 -4.597611,-2.17217 -5.079037,-2.57415 -0.204376,-0.17065 -0.48268,-0.31027 -0.618455,-0.31027 -0.135772,0 -0.36952,-0.14424 -0.519438,-0.32053 -0.149918,-0.1763 -0.665996,-0.392 -1.14684,-0.47934 -0.480842,-0.0873 -1.456806,-0.49568 -2.168807,-0.90743 -0.712001,-0.41174 -2.03597,-1.04168 -2.942154,-1.39986 -0.906183,-0.35819 -1.859441,-0.82128 -2.11835,-1.0291 -0.25891,-0.20782 -1.274261,-0.75251 -2.256335,-1.210423 -0.982075,-0.45791 -1.921822,-0.99277 -2.088327,-1.18857 -0.166507,-0.1958 -0.38932,-0.356 -0.495141,-0.356 -0.105821,0 -1.231465,-0.47728 -2.50143,-1.060632 -1.269968,-0.58335 -2.552281,-1.15115 -2.849589,-1.26178 -0.297308,-0.11063 -1.554858,-0.823301 -2.794556,-1.583718 -1.239699,-0.760415 -2.532251,-1.450228 -2.87234,-1.532919 -1.401254,-0.340703 -2.571289,-0.996752 -3.511682,-1.969035 -0.213842,-0.221094 -0.670048,-0.40199 -1.013793,-0.40199 -1.468099,0 -1.418393,-1.301241 0.103628,-2.712851 1.922742,-1.783259 3.450447,-3.555306 3.450447,-4.002313 0,-0.249877 0.264793,-0.761439 0.58843,-1.136806 0.323637,-0.375363 0.588431,-0.884608 0.588431,-1.13165 0,-0.247044 0.170791,-0.833482 0.379535,-1.303199 0.208747,-0.469714 0.394103,-1.319186 0.411902,-1.887714 l 0.03237,-1.033687 0.995585,-0.07041 c 0.879626,-0.06221 1.104421,0.03166 1.930064,0.805918 0.513966,0.48198 1.548799,1.229961 2.29963,1.66218 0.75083,0.432218 1.682897,1.06426 2.071262,1.404539 0.66435,0.582089 2.459741,1.845181 4.379,3.080706 2.256832,1.452835 5.055862,3.676112 5.225928,4.150962 0.104522,0.29184 0.501713,0.63665 0.882646,0.766249 0.380936,0.129599 0.692609,0.32602 0.692609,0.436489 0,0.314811 1.871793,1.431002 2.399712,1.431002 0.260967,0 0.80753,0.262802 1.21458,0.584005 3.031444,2.392103 5.006771,3.550172 13.64523,7.999764 3.012829,1.551873 3.299263,1.722453 3.510234,2.090363 0.110973,0.19353 0.466379,0.35187 0.789794,0.35187 0.323413,0 0.821259,0.24817 1.106323,0.55148 0.285062,0.30332 0.792844,0.6113 1.128403,0.6844 0.53418,0.11637 0.76733,-0.0595 1.873469,-1.41289 2.119231,-2.593013 10.267079,-10.304019 13.131983,-12.427926 3.32463,-2.464718 7.51846,-4.815556 8.86316,-4.968213 0.12945,-0.0147 1.6123,-0.450373 3.29521,-0.96817 3.83513,-1.179988 3.89081,-1.190028 7.25811,-1.308528 1.53232,-0.05393 2.85629,-0.1666 2.94215,-0.250391 0.0859,-0.08379 0.15415,-10.506445 0.15174,-23.161462 -0.003,-17.707969 -0.0736,-23.353121 -0.30468,-24.502222 -0.16517,-0.821207 -0.36449,-3.124677 -0.44295,-5.11882 -0.0785,-1.994145 -0.23263,-3.679987 -0.34259,-3.746315 -0.10997,-0.06633 -0.19995,-1.656814 -0.19995,-3.534412 v -3.413815 l 0.75856,-0.162596 c 0.79867,-0.171197 14.75822,0.09239 15.08152,0.284774 0.21448,0.127628 -0.0366,2.135383 -0.31054,2.482963 -0.0996,0.12634 -0.25776,1.752012 -0.35155,3.612605 -0.12255,2.43107 -0.26194,3.456933 -0.4954,3.646031 -0.21057,0.170552 -0.32636,0.758364 -0.3291,1.670682 -0.006,1.922866 -0.60328,5.608966 -0.98126,6.053454 -0.22189,0.260943 -0.31733,1.341504 -0.33836,3.831187 -0.0413,4.89408 -0.55165,19.225854 -0.70419,19.777015 -0.23466,0.847833 -0.58927,8.894823 -0.71112,16.137 l -0.12078,7.178381 1.01807,0.01615 c 0.78476,0.01245 0.91018,0.06139 0.54732,0.213562 -0.32554,0.13652 -0.36184,0.20648 -0.11769,0.226798 2.32704,0.193646 4.23508,0.710836 4.71815,1.278893 0.15527,0.182586 0.42462,0.331974 0.59856,0.331974 0.52664,0 2.07728,0.777533 2.40508,1.205968 0.16916,0.221094 0.4172,0.40199 0.5512,0.40199 0.25579,0 0.30619,0.03528 3.49562,2.446927 1.10037,0.832028 2.32482,1.648728 2.721,1.814892 0.39618,0.166162 1.14986,0.748233 1.67483,1.293489 3.88706,4.037243 5.32222,5.621422 5.64568,6.231872 0.31362,0.59187 2.49816,3.787423 3.56743,5.218423 0.47593,0.63694 2.3007,4.83733 2.7353,6.2963 0.21276,0.71426 0.53918,1.3557 0.72538,1.42543 0.3377,0.12647 2.21184,-0.345 3.9962,-1.00531 0.51782,-0.19162 1.97798,-0.63337 3.24481,-0.98165 1.30895,-0.35987 2.89589,-0.99021 3.67597,-1.46011 0.75496,-0.45478 2.50619,-1.1931 3.89161,-1.64072 1.38542,-0.44762 2.74988,-0.95505 3.03214,-1.12762 0.28225,-0.17258 0.93685,-0.44142 1.45467,-0.59744 0.51782,-0.15601 2.15954,-0.84995 3.64827,-1.54207 1.48873,-0.69213 3.59973,-1.61488 4.69112,-2.05056 1.09139,-0.43567 2.62719,-1.167663 3.4129,-1.626643 1.23093,-0.71906 4.49917,-2.650664 6.19535,-3.661596 0.29155,-0.173765 1.13214,-0.876029 1.86798,-1.560587 0.73584,-0.684558 1.68075,-1.42485 2.0998,-1.64509 0.95497,-0.50191 0.9978,-0.470061 3.18192,2.365903 0.90775,1.178665 1.74115,2.143028 1.85199,2.143028 0.37502,0 1.4054,2.403422 1.6249,3.790185 0.11999,0.75804 0.34343,2.08794 0.49654,2.95534 0.1531,0.86739 0.20873,2.03029 0.12362,2.58422 -0.1545,1.00543 -0.15642,1.00713 -1.14067,1.00683 -3.93441,-0.001 -12.04054,1.66498 -15.62143,3.21087 -0.59212,0.25562 -1.41358,0.46476 -1.82547,0.46476 -0.41189,0 -0.9545,0.15176 -1.20578,0.33725 -0.25129,0.18549 -0.65942,0.34055 -0.90695,0.34457 -0.55532,0.009 -2.23157,0.48209 -5.90499,1.66652 -8.85711,2.85584 -10.1741,3.35823 -12.20098,4.65434 -0.29387,0.18791 -1.11119,0.53666 -1.81626,0.775 -1.61089,0.54452 -3.95899,1.65414 -4.57717,2.16298 -0.25891,0.21312 -0.6784,0.53318 -0.93219,0.71125 -0.42413,0.29759 -0.45792,0.58123 -0.41781,3.50741 0.0642,4.68336 -0.831,12.87556 -1.81798,16.63681 -0.14699,0.56015 -0.62571,1.8454 -1.06383,2.85611 -0.43813,1.01072 -1.04213,2.48697 -1.34223,3.28056 -0.3001,0.79359 -0.78396,1.71415 -1.07523,2.04568 -0.29127,0.33153 -0.52959,0.71702 -0.52959,0.85664 0,0.61847 -4.23795,6.18125 -6.56256,8.6141 -1.00639,1.05324 -1.11943,1.27982 -0.74978,1.50278 0.12077,0.0728 0.51796,0.70897 0.88265,1.41362 0.36469,0.70465 0.84843,1.37837 1.07497,1.49716 0.22655,0.11878 0.4119,0.40641 0.4119,0.63918 0,0.23276 0.165,0.55684 0.36666,0.72018 0.20166,0.16334 0.52225,0.61531 0.71242,1.00439 0.64006,1.30956 0.95991,1.73627 2.39389,3.19368 0.78569,0.79852 1.58074,1.8062 1.76678,2.23929 0.18603,0.43309 0.83778,1.35596 1.44832,2.05083 1.0142,1.15427 3.59339,4.71173 4.71515,6.50357 0.25212,0.40273 0.59636,0.8149 0.76496,0.91593 0.16861,0.10103 0.30655,0.38185 0.30655,0.62403 0,0.24219 0.46727,0.95379 1.03838,1.58135 0.57111,0.62756 1.11594,1.37955 1.21075,1.67107 0.0948,0.29153 0.56284,0.9961 1.04007,1.56572 0.47723,0.56962 1.22186,1.6042 1.65473,2.29907 0.43287,0.69487 0.97749,1.47013 1.21027,1.72281 1.66139,1.80346 2.55458,2.93752 2.55458,3.24346 0,0.19623 0.61743,0.99389 1.37208,1.77257 0.75464,0.77869 1.5012,1.73356 1.65901,2.12194 0.15781,0.38838 1.10266,1.54727 2.09966,2.57531 0.997,1.02804 2.28936,2.48715 2.87191,3.24247 0.58254,0.75531 1.179,1.37953 1.32546,1.38715 0.14645,0.008 0.729,0.4683 1.29455,1.02373 1.95931,1.92427 4.04375,3.59446 5.00515,4.01049 2.05259,0.8882 2.02805,1.90695 -0.0831,3.44863 -1.42389,1.03982 -2.50463,2.04853 -3.79498,3.54204 -0.4135,0.47861 -1.19836,1.12558 -1.74413,1.43773 -0.54578,0.31215 -1.18317,0.77336 -1.41643,1.02491 -0.42464,0.45793 -0.68346,0.52196 -1.23381,0.30523 z m 1.43145,-1.89552 c 0.48603,-0.24184 1.27633,-0.72997 1.75621,-1.08474 1.47383,-1.08959 5.46227,-5.02739 5.46227,-5.39291 0,-0.30215 -1.46423,-1.12244 -2.00355,-1.12244 -0.10878,0 -0.89405,-0.68979 -1.74505,-1.53286 -0.851,-0.84307 -2.0735,-1.93893 -2.71666,-2.43525 -0.64316,-0.49633 -1.38458,-1.18226 -1.6476,-1.5243 -0.26303,-0.34203 -0.71654,-0.86787 -1.00781,-1.16853 -0.29127,-0.30065 -0.52959,-0.60474 -0.52959,-0.67574 0,-0.071 -0.80911,-0.95599 -1.79802,-1.96663 -0.98891,-1.01065 -1.99472,-2.25101 -2.23514,-2.75637 -0.24041,-0.50536 -0.96119,-1.42933 -1.60172,-2.05327 -0.64053,-0.62394 -1.35588,-1.50258 -1.58966,-1.95252 -0.23378,-0.44995 -1.0076,-1.48998 -1.71961,-2.31119 -1.52859,-1.76304 -2.35372,-2.88174 -2.35372,-3.19113 0,-0.12294 -0.22159,-0.29217 -0.49244,-0.37606 -0.27083,-0.0839 -0.67065,-0.54103 -0.88848,-1.01585 -0.4183,-0.91182 -1.02103,-1.69113 -3.03231,-3.92063 -0.67964,-0.75339 -1.2357,-1.47405 -1.2357,-1.60149 0,-0.12744 -0.23832,-0.46158 -0.52959,-0.74254 -0.29127,-0.28096 -1.18787,-1.49554 -1.99243,-2.69907 -1.74598,-2.61178 -2.31819,-3.4223 -3.21375,-4.5522 -0.37139,-0.46857 -0.77972,-1.1384 -0.9074,-1.4885 -0.12768,-0.3501 -0.43284,-0.74137 -0.67813,-0.86949 -0.24529,-0.12811 -0.44599,-0.33215 -0.44599,-0.45341 0,-0.12126 -0.53765,-0.86704 -1.19478,-1.6573 -0.65713,-0.79026 -1.36136,-1.74694 -1.56497,-2.12596 -0.2036,-0.37901 -0.55415,-0.81592 -0.77899,-0.9709 -0.22484,-0.15497 -0.47643,-0.54475 -0.55909,-0.86616 -0.0827,-0.32142 -0.62967,-1.19957 -1.21558,-1.95146 -0.58592,-0.75188 -1.04327,-1.49916 -1.01635,-1.66062 0.0269,-0.16146 -0.0286,-0.5003 -0.1234,-0.75298 -0.38802,-1.03428 -1.93564,-3.92301 -2.39403,-4.4686 -0.27032,-0.32174 -0.77653,-1.17935 -1.12492,-1.9058 -0.34839,-0.72645 -0.73887,-1.32082 -0.86774,-1.32082 -0.12886,0 -0.33287,-0.25302 -0.45334,-0.56226 -0.12047,-0.30924 -0.48336,-0.73128 -0.80642,-0.93786 -0.32306,-0.20658 -0.82073,-0.85804 -1.10594,-1.44769 -0.28521,-0.58965 -0.64857,-1.22714 -0.80748,-1.41665 -0.1589,-0.18951 -0.63024,-0.99116 -1.04742,-1.78146 -0.41718,-0.79029 -0.85491,-1.49505 -0.97273,-1.56611 -0.33041,-0.19929 -1.15402,-1.87479 -1.65786,-3.37262 -0.37471,-1.11395 -0.42672,-1.70154 -0.29613,-3.34539 0.09,-1.13334 0.34876,-2.41006 0.59939,-2.95775 0.24254,-0.53001 0.44098,-1.06292 0.44098,-1.18424 0,-0.12131 0.37048,-0.65334 0.82328,-1.18227 0.45281,-0.52893 1.00887,-1.27066 1.2357,-1.64828 0.22684,-0.37762 1.1135,-1.14232 1.97036,-1.69932 0.85687,-0.55701 1.68207,-1.15871 1.83379,-1.33712 0.15172,-0.17842 0.56278,-0.39418 0.91348,-0.47947 0.35069,-0.0853 2.74423,-1.18081 5.31898,-2.43448 2.57475,-1.25366 4.96591,-2.27939 5.31369,-2.27939 0.36711,0 0.86008,-0.2366 1.17534,-0.5641 0.29866,-0.31026 0.6084,-0.55176 0.6883,-0.53668 0.0799,0.0151 0.87011,-0.29959 1.75599,-0.69928 0.88589,-0.3997 1.6686,-0.72673 1.73935,-0.72673 0.0708,0 0.24623,-0.13439 0.38996,-0.29865 0.14372,-0.16425 1.10866,-0.64321 2.1443,-1.06435 1.03564,-0.42114 2.52685,-1.06202 3.31381,-1.42416 0.78696,-0.36216 1.59765,-0.65846 1.80154,-0.65846 0.20389,0 1.25469,-0.44996 2.33512,-0.99991 1.08043,-0.54995 2.86472,-1.28566 3.96508,-1.63491 1.10037,-0.34926 2.26546,-0.76571 2.5891,-0.92545 0.32363,-0.15974 1.06506,-0.36606 1.6476,-0.45848 0.58255,-0.0924 1.32397,-0.31389 1.64761,-0.49216 0.74427,-0.40997 3.68588,-1.3956 5.53125,-1.85332 0.77673,-0.19266 1.94182,-0.53981 2.58909,-0.77144 0.64728,-0.23164 1.8236,-0.53168 2.61406,-0.66675 0.79047,-0.13508 2.08479,-0.49327 2.87628,-0.79599 0.7915,-0.30272 1.78648,-0.62268 2.21107,-0.71102 0.4246,-0.0883 1.20922,-0.35249 1.7436,-0.587 0.53907,-0.23656 1.79644,-0.48271 2.82446,-0.55293 1.01908,-0.0696 2.85909,-0.23761 4.08891,-0.37333 1.22982,-0.13573 2.38356,-0.26283 2.56386,-0.28247 0.73026,-0.0795 0.83614,-0.7482 0.53582,-3.38405 -0.16117,-1.41454 -0.41767,-2.79036 -0.57,-3.05739 -0.15233,-0.267023 -0.28182,-0.537173 -0.28776,-0.600343 -0.0545,-0.57979 -2.12497,-3.574409 -3.31199,-4.790293 l -1.49045,-1.526687 -1.24999,1.188492 c -2.40905,2.290517 -2.97222,2.726604 -5.16228,3.997398 -1.21407,0.70447 -2.85025,1.655443 -3.63596,2.113273 -0.78571,0.45782 -2.32151,1.18887 -3.4129,1.62455 -1.09138,0.43568 -3.24583,1.38277 -4.78765,2.10464 -1.54182,0.72187 -2.94217,1.33238 -3.11187,1.35668 -0.1697,0.0243 -0.38223,0.1161 -0.47228,0.20399 -0.09,0.0879 -0.39659,0.15978 -0.68119,0.15978 -0.2846,0 -0.77006,0.18829 -1.07879,0.41841 -0.30873,0.23012 -1.14387,0.59347 -1.85587,0.80745 -0.71201,0.21398 -1.6123,0.59354 -2.00067,0.84348 -0.38836,0.24993 -0.94075,0.45511 -1.22753,0.45594 -0.28678,9.2e-4 -1.0282,0.31578 -1.6476,0.69988 -0.61941,0.3841 -1.70874,0.861 -2.42075,1.05978 -1.10834,0.30944 -7.90081,2.52189 -8.94414,2.91331 -0.52566,0.1972 -3.02754,1.05613 -4.2367,1.45451 -1.79107,0.5901 -5.46112,1.9358 -6.85523,2.51362 -0.72819,0.30181 -1.52666,0.54874 -1.77437,0.54874 -0.24771,0 -0.86997,0.20976 -1.3828,0.46614 -1.32498,0.66239 -3.37532,1.14182 -4.88317,1.14182 -0.7862,0 -1.69622,0.17825 -2.31975,0.45437 -0.56432,0.2499 -1.2692,0.45664 -1.5664,0.45942 -0.29721,0.003 -1.03779,0.26346 -1.64574,0.57931 -0.82982,0.43112 -1.45786,0.57339 -2.51947,0.57076 -0.77776,-0.002 -1.5529,-0.0894 -1.72254,-0.19442 -0.16963,-0.10499 -0.66399,-0.86827 -1.09857,-1.69618 l -0.79013,-1.50529 -0.17621,-7.89061 c -0.0969,-4.33984 -0.17314,-11.560213 -0.16941,-16.045264 0.004,-4.485052 0.001,-9.808539 -0.005,-11.829971 -0.0465,-14.217822 0.17805,-21.611226 0.67311,-22.166839 0.40632,-0.456022 0.57962,-3.660499 0.68945,-12.748804 0.08,-6.617838 0.34887,-11.022653 0.70747,-11.588916 0.26697,-0.421562 0.65008,-2.725825 0.82301,-4.950073 0.0982,-1.263395 0.35134,-3.103709 0.56247,-4.089584 0.21114,-0.985878 0.40066,-2.669212 0.42116,-3.740743 0.0205,-1.071531 0.12711,-2.00243 0.23693,-2.068664 0.10982,-0.06624 0.19967,-0.424435 0.19967,-0.795997 v -0.675567 l -2.29488,-0.03664 c -1.26219,-0.02014 -2.93039,-0.08018 -3.70711,-0.133384 -1.86187,-0.127543 -7.21516,-0.0649 -7.46763,0.08738 -0.109,0.06574 -0.12713,0.884758 -0.0403,1.820035 0.11377,1.225321 0.075,1.797963 -0.1387,2.049277 -0.3284,0.386172 -0.27843,1.167393 0.34547,5.401659 0.21408,1.452904 0.43923,3.7787 0.50034,5.168434 0.0871,1.980007 0.34689,26.943244 0.39331,37.786996 0.0159,3.724047 -0.29873,9.773037 -0.6154,11.829971 -0.19783,1.284912 -0.3413,4.632107 -0.3791,8.843765 -0.20253,22.570149 -0.13173,20.606349 -0.81094,22.494389 -0.82536,2.29427 -1.14858,2.71684 -2.57333,3.36424 -1.4375,0.65319 -2.08201,0.69303 -2.88672,0.17845 -0.37312,-0.23859 -1.19323,-0.40136 -2.21017,-0.43865 -0.8893,-0.0326 -1.88504,-0.19785 -2.21275,-0.36719 -2.42238,-1.25175 -4.35373,-2.08915 -5.47667,-2.3746 -0.72335,-0.18388 -1.43499,-0.42647 -1.58142,-0.53909 -0.14642,-0.11263 -0.80885,-0.37745 -1.47206,-0.58851 -0.66322,-0.21106 -1.61647,-0.68702 -2.11835,-1.05769 -0.50188,-0.37067 -1.09825,-0.67683 -1.32527,-0.68034 -0.22701,-0.004 -0.80799,-0.21313 -1.29106,-0.46581 -0.48307,-0.25268 -1.07575,-0.45942 -1.317064,-0.45942 -0.24131,0 -1.03726,-0.35646 -1.76878,-0.79214 -0.73151,-0.43568 -1.64777,-0.86551 -2.03614,-0.95517 -0.38836,-0.0897 -0.91795,-0.29096 -1.17686,-0.44733 -0.25891,-0.15637 -0.73554,-0.36163 -1.05918,-0.45613 -0.32363,-0.0945 -0.916177,-0.41538 -1.316759,-0.71305 -0.400585,-0.29767 -0.83645,-0.54122 -0.96859,-0.54122 -0.132141,0 -0.538581,-0.23258 -0.903199,-0.51684 -0.653059,-0.50914 -1.797712,-1.15127 -3.388998,-1.90116 -0.446012,-0.21018 -1.717022,-0.9578 -2.824468,-1.66138 -1.107445,-0.70357 -2.384248,-1.50279 -2.83734,-1.77604 -0.453091,-0.27325 -1.247473,-0.7584 -1.765292,-1.07811 -1.6526,-1.020353 -3.630045,-2.025093 -3.985636,-2.025093 -0.189473,0 -0.630214,-0.25842 -0.979424,-0.57427 -0.34921,-0.31584 -0.736711,-0.574266 -0.861112,-0.574266 -0.124401,0 -0.168583,-0.146499 -0.09818,-0.325552 0.145555,-0.370182 -0.554581,-0.725467 -0.767393,-0.389415 -0.07643,0.120686 -0.900163,-0.263446 -1.830526,-0.853626 -0.930361,-0.590177 -1.988432,-1.254064 -2.351268,-1.475303 -0.362838,-0.221236 -1.030415,-0.628467 -1.483506,-0.904956 -0.453092,-0.276488 -1.872441,-1.180847 -3.154109,-2.009687 -1.281666,-0.828837 -2.678395,-1.713715 -3.103838,-1.966394 -0.425445,-0.252679 -1.38924,-0.92757 -2.14177,-1.499757 -0.752527,-0.57219 -1.8768,-1.347455 -2.49838,-1.722812 -1.19913,-0.724127 -4.069239,-2.994071 -5.498299,-4.348557 -0.471896,-0.447272 -0.952201,-0.813222 -1.067343,-0.813222 -0.115141,0 -0.707919,-0.449534 -1.317284,-0.998966 -0.609365,-0.54943 -1.333954,-1.053458 -1.610198,-1.120062 -0.813332,-0.196095 -1.564115,0.864945 -1.992982,2.816564 -0.144098,0.655728 -0.568394,1.794924 -0.942883,2.531545 -0.374487,0.736624 -0.680887,1.450791 -0.680887,1.58704 0,0.315367 -1.868887,2.304832 -2.16514,2.304832 -0.460779,0 -0.925228,0.692798 -0.774716,1.155607 0.23069,0.709353 1.073497,1.371002 1.748533,1.372697 0.33159,9.19e-4 0.920645,0.208559 1.309009,0.461617 0.388364,0.253058 1.128815,0.57317 1.645448,0.711363 0.516632,0.13819 1.221448,0.447306 1.566254,0.686921 0.344809,0.239618 0.775191,0.435667 0.956409,0.435667 0.181218,0 0.83053,0.310106 1.442917,0.689125 0.612387,0.379018 1.228293,0.689124 1.368683,0.689124 0.210484,0 1.766855,0.823924 3.494356,1.84987 0.194182,0.115323 1.359274,0.804512 2.589095,1.531533 1.22982,0.72701 2.598498,1.55801 3.041506,1.84665 0.443008,0.28864 1.367715,0.684323 2.054904,0.879283 1.292951,0.36683 7.226061,3.12996 7.849065,3.65543 0.774238,0.65301 8.165648,4.47908 9.76795,5.05624 0.647273,0.23316 1.458006,0.61217 1.801626,0.84225 0.34362,0.23007 0.831949,0.41832 1.085172,0.41832 0.253226,0 0.819421,0.23578 1.258213,0.52396 1.057147,0.69429 4.866113,2.92166 4.996248,2.92166 0.05627,0 0.757823,0.43932 1.559014,0.97626 2.249827,1.5078 3.326058,2.17449 4.523428,2.80214 0.60575,0.31753 1.16708,0.6811 1.2474,0.80793 0.0803,0.12684 0.64388,0.47049 1.25236,0.76367 2.48711,1.19834 9.779964,5.56676 11.937854,7.15078 2.43269,1.78573 5.18957,4.21409 5.85906,5.16087 0.47519,0.67199 0.61724,1.22731 0.74675,2.9191 0.17879,2.33545 -0.21718,4.04514 -1.11919,4.83242 -0.27034,0.23595 -0.68939,0.87634 -0.93123,1.42308 -0.44037,0.9956 -1.25874,2.05355 -3.29434,4.25879 -0.59855,0.64843 -1.16175,1.41154 -1.25157,1.6958 -0.0898,0.28427 -0.29066,0.51685 -0.44634,0.51685 -0.15567,0 -0.7384,0.69774 -1.29495,1.55053 -1.51655,2.32378 -2.06401,3.04012 -3.34372,4.37514 -0.64143,0.66916 -1.16624,1.2768 -1.16624,1.35032 0,0.0735 -0.32433,0.50803 -0.72073,0.96558 -0.3964,0.45754 -1.33731,1.57627 -2.090904,2.48605 -0.75359,0.90978 -1.8457,2.1502 -2.4269,2.75649 -2.55693,2.66733 -2.9995,3.15758 -2.9995,3.32265 0,0.0964 -0.78336,0.98002 -1.740801,1.96367 -0.95744,0.98365 -2.096054,2.24841 -2.530252,2.81058 -1.054818,1.3657 -7.735604,7.91396 -8.456978,8.28921 -0.541996,0.28194 -0.552861,0.27501 -0.217444,-0.13868 0.194182,-0.23949 -0.707114,0.59638 -2.002881,1.85749 -1.357084,1.32078 -2.323784,2.44332 -2.280089,2.64766 0.08106,0.37911 -2.007116,2.54721 -3.010376,3.12559 -0.332002,0.19139 -0.853015,0.77087 -1.157806,1.28771 -0.62368,1.05759 -1.537988,1.90047 -2.810959,2.59136 -0.551779,0.29947 -0.835282,0.60639 -0.786845,0.85185 0.08229,0.41701 -4.475119,5.27395 -5.619831,5.9892 -0.367901,0.22988 -0.732434,0.61327 -0.810069,0.852 -0.07764,0.23872 -0.583246,0.77423 -1.123576,1.19 -0.54033,0.41578 -1.453814,1.19528 -2.02997,1.73222 -0.576154,0.53694 -1.161002,0.97756 -1.29966,0.97916 -0.13866,0.002 -0.767325,0.57619 -1.397038,1.27689 -0.629713,0.70069 -2.227495,2.08958 -3.550626,3.08642 -1.323131,0.99684 -2.536421,1.96616 -2.696201,2.15405 -0.433952,0.5103 -0.03111,1.06143 1.796114,2.45733 0.876872,0.66987 2.176861,1.74944 2.888863,2.39904 0.712001,0.6496 1.986796,1.65666 2.832877,2.23793 l 1.538329,1.05684 0.556169,-1.191 c 0.653617,-1.39969 3.149156,-5.11646 4.722888,-7.0341 1.852566,-2.2574 2.807514,-3.49461 3.646543,-4.72435 0.51687,-0.75756 1.205334,-1.64819 1.52992,-1.97917 0.324587,-0.33098 1.755251,-1.97819 3.179253,-3.66047 1.424002,-1.68228 3.25108,-3.71981 4.060172,-4.52785 0.809092,-0.80804 1.471533,-1.53831 1.472093,-1.62282 4.71e-4,-0.0845 0.450708,-0.65468 1.000333,-1.26705 0.549622,-0.61237 1.475944,-1.65898 2.05849,-2.32581 0.582547,-0.66683 1.429887,-1.42664 1.882978,-1.68847 0.453092,-0.26183 1.194515,-0.9636 1.647606,-1.55948 0.453092,-0.59589 1.499162,-1.71253 2.324598,-2.48143 0.825439,-0.76889 2.295593,-2.32831 3.26701,-3.46536 0.971417,-1.13706 2.073886,-2.37748 2.449926,-2.7565 1.68366,-1.697 4.00869,-4.24191 4.63065,-5.06859 0.374,-0.4971 1.515274,-1.65866 2.536154,-2.58125 2.51093,-2.26914 2.32476,-2.08828 4.44525,-4.31835 3.00278,-3.15794 4.73447,-4.82607 8.38936,-8.08139 1.88412,-1.67815 3.55328,-3.28037 3.70924,-3.56048 0.15596,-0.28012 1.25765,-1.12505 2.4482,-1.87763 4.04595,-2.55756 3.85771,-2.49097 7.36993,-2.60722 2.89171,-0.0957 3.19157,-0.066 3.99259,0.39521 1.8787,1.08178 5.626,4.40955 7.00597,6.2216 0.52901,0.69466 1.2833,1.59965 1.6762,2.0111 0.3929,0.41145 0.94882,1.03183 1.23538,1.37863 0.28656,0.3468 1.24079,1.4575 2.12051,2.46821 0.87971,1.01072 1.85655,2.19946 2.17075,2.64165 0.55827,0.78568 1.11572,1.47003 2.42541,2.97753 0.356,0.40977 0.64728,0.82652 0.64728,0.92611 0,0.0996 0.42337,0.68108 0.94081,1.2922 0.51745,0.61112 1.15872,1.52685 1.42505,2.03496 0.4476,0.85397 1.17812,2.04216 2.68641,4.36946 0.32751,0.50536 1.06901,1.53904 1.64778,2.29708 0.57877,0.75804 1.34693,1.88466 1.70704,2.50362 0.36011,0.61895 1.30345,1.92349 2.09631,2.89898 0.79286,0.97548 1.87561,2.38139 2.40611,3.12423 0.5305,0.74284 1.30648,1.81578 1.7244,2.38431 0.69118,0.94026 1.01328,1.46571 2.40485,3.92314 0.24476,0.43223 0.69491,1.07807 1.00033,1.4352 0.30542,0.35712 0.55532,0.78223 0.55532,0.94467 0,0.16244 0.31775,0.68557 0.70611,1.1625 0.38837,0.47694 0.70612,1.04166 0.70612,1.25494 0,0.21329 0.26479,0.63057 0.58843,0.92729 0.32364,0.29673 0.58843,0.66121 0.58843,0.80995 0,0.14875 0.31775,0.59495 0.70612,0.99156 0.38836,0.3966 0.70612,0.9264 0.70612,1.17731 0,0.25092 0.25815,0.62129 0.57367,0.82305 0.31552,0.20177 1.14051,1.31536 1.83332,2.47466 0.6928,1.1593 2.20877,3.32399 3.36881,4.81042 1.16004,1.48643 2.63875,3.40847 3.28603,4.27118 0.64727,0.86272 1.78511,2.35345 2.52852,3.31274 0.74342,0.95929 1.47885,2.03494 1.63428,2.39036 0.30848,0.70535 0.88361,1.45017 1.11979,1.45017 0.082,0 0.54679,-0.19786 1.03283,-0.43969 z m -17.47451,-27.64213 c -0.12806,-0.15793 -0.60887,-0.71314 -1.06846,-1.23381 -0.45959,-0.52067 -0.83561,-1.15121 -0.83561,-1.40121 0,-0.57981 -1.15491,-2.14375 -1.96615,-2.6625 -0.34262,-0.21909 -0.62512,-0.57686 -0.62777,-0.79504 -0.003,-0.21818 -0.90079,-1.48207 -1.99584,-2.80863 -1.09506,-1.32657 -1.99319,-2.50166 -1.99584,-2.61132 -0.003,-0.10966 -0.32258,-0.55258 -0.71094,-0.98425 -0.38837,-0.43168 -0.70612,-0.92031 -0.70612,-1.08584 0,-0.16553 -0.20833,-0.48496 -0.46295,-0.70985 -0.25462,-0.22488 -0.83913,-1.13154 -1.2989,-2.01479 -0.45978,-0.88325 -1.12527,-1.89578 -1.47888,-2.25007 -1.07669,-1.07877 -1.69446,-1.88159 -2.55659,-3.3224 -0.45359,-0.75803 -1.06868,-1.63667 -1.36688,-1.95251 -0.29819,-0.31585 -0.93598,-1.1428 -1.4173,-1.83767 -0.48133,-0.69487 -1.0511,-1.43245 -1.26617,-1.63907 -0.21506,-0.20661 -0.76174,-0.86191 -1.21483,-1.45621 -0.45309,-0.5943 -1.37256,-1.68286 -2.04327,-2.41903 -0.67071,-0.73616 -1.37867,-1.63892 -1.57325,-2.00614 -0.19457,-0.36721 -0.53077,-0.81101 -0.7471,-0.98623 -0.21633,-0.17522 -0.82636,-0.94295 -1.35562,-1.70608 -0.52926,-0.76313 -1.60552,-2.16277 -2.39168,-3.11031 -0.78617,-0.94755 -1.93935,-2.4464 -2.56263,-3.33077 -0.62328,-0.88438 -1.83959,-2.55741 -2.70291,-3.71784 -0.86332,-1.16044 -1.98121,-2.67951 -2.4842,-3.37571 -1.17523,-1.62666 -2.03933,-1.97993 -4.84297,-1.97993 -1.15483,0 -2.16338,0.10056 -2.24121,0.22347 -0.0778,0.12291 -0.56531,0.33484 -1.08328,0.47095 -0.99189,0.26066 -3.81456,2.76874 -4.56538,4.05657 -0.78529,1.34695 -1.58171,2.23061 -4.87797,5.41234 -1.86585,1.80103 -4.8608,4.82513 -6.65543,6.72023 -1.79462,1.89509 -3.80072,3.81352 -4.45798,4.26317 -0.65726,0.44965 -1.34387,1.12155 -1.52579,1.4931 -0.18192,0.37156 -0.42533,0.71167 -0.5409,0.7558 -0.11557,0.0441 -1.13182,0.99703 -2.258334,2.11754 -4.73781,4.71258 -5.81285,5.89122 -5.73872,6.29173 0.0481,0.25974 -0.712313,1.2101 -2.096719,2.62055 -4.362298,4.44436 -4.686824,4.79092 -4.686824,5.00501 0,0.36493 -3.433381,3.98439 -3.779545,3.98439 -0.112873,0 -0.312501,-0.19563 -0.443623,-0.43474 -0.19694,-0.35913 4.71e-4,-0.72864 1.135029,-2.1248 0.755387,-0.92953 1.78572,-2.06665 2.289629,-2.52693 0.503906,-0.46027 1.180989,-1.17514 1.504626,-1.5886 0.323637,-0.41346 1.592567,-1.7767 2.819843,-3.02943 1.227275,-1.25274 2.888244,-3.13464 3.691044,-4.18202 0.8028,-1.04737 2.28773,-2.60704 3.29984,-3.46593 1.01211,-0.85889 2.25569,-2.03507 2.763524,-2.61373 0.50782,-0.57867 1.57137,-1.72402 2.36344,-2.54522 0.79207,-0.82121 1.80285,-2.00995 2.24617,-2.64165 0.98337,-1.40121 3.13426,-3.92782 4.00875,-4.70901 0.90767,-0.81083 4.46297,-5.01392 4.46297,-5.27615 0,-0.11972 0.88406,-1.22984 1.96456,-2.46692 1.08051,-1.23708 2.15488,-2.60872 2.38748,-3.04808 0.2326,-0.43936 0.87934,-1.47304 1.43721,-2.29708 0.65534,-0.96801 1.2265,-2.21867 1.61386,-3.53389 1.03121,-3.50124 0.79694,-4.69145 -1.33561,-6.78563 -0.86826,-0.85263 -2.45277,-2.0171 -3.88603,-2.85586 -1.331,-0.77893 -2.97536,-1.74829 -3.65413,-2.15415 -0.67877,-0.40585 -1.76371,-1.00013 -2.41098,-1.32062 -0.64727,-0.3205 -1.65349,-0.89068 -2.23604,-1.26708 -0.58254,-0.37639 -1.61524,-0.93932 -2.29488,-1.25094 -0.71202,-0.32648 -1.2357,-0.71797 -1.2357,-0.92379 0,-0.19647 -0.17011,-0.35721 -0.37803,-0.35721 -0.20791,0 -0.58631,-0.25842 -0.84088,-0.57427 -0.25458,-0.31585 -0.61083,-0.57427 -0.79168,-0.57427 -0.61596,0 -4.167154,-2.13527 -4.910534,-2.95262 -0.24661,-0.27115 -0.65932,-0.493 -0.91713,-0.493 -0.25781,0 -1.00929,-0.34259 -1.66997,-0.76132 -0.66067,-0.41873 -2.736688,-1.47793 -4.613372,-2.35378 -1.876685,-0.87586 -3.571365,-1.72724 -3.765957,-1.89196 -0.547259,-0.46326 -3.156624,-2.25286 -3.354801,-2.30085 -0.09709,-0.0235 -0.282447,-0.0428 -0.411901,-0.0428 -0.129455,0 -0.235373,-0.13155 -0.235373,-0.29233 0,-0.24967 -1.461906,-1.19388 -1.864576,-1.20429 -0.07485,-0.002 -0.294964,-0.10349 -0.489146,-0.22568 -0.194183,-0.12219 -0.637695,-0.37903 -0.985584,-0.57075 -1.744441,-0.96139 -3.898928,-2.17189 -4.383534,-2.46288 -0.58678,-0.35236 -0.61208,-1.0559 -0.04174,-1.16078 0.497304,-0.0914 7.795083,3.88097 9.765248,5.31554 2.505114,1.8241 3.095465,2.15129 9.179519,5.08756 3.106907,1.49945 5.901527,2.91237 6.210257,3.13983 0.30874,0.22746 0.71674,0.41356 0.90668,0.41356 0.189944,0 1.367224,0.60431 2.616194,1.34291 2.1382,1.26446 6.14111,3.32085 8.50822,4.37088 2.11437,0.93791 5.32078,1.61432 7.61004,1.60537 1.76698,-0.007 2.54167,-0.13488 4.27626,-0.7064 3.3147,-1.09214 3.4845,-1.23012 4.32145,-3.5117 0.47063,-1.28297 1.20247,-4.30505 1.08677,-4.48775 -0.0633,-0.0999 0.035,-0.83657 0.21828,-1.6371 0.42173,-1.8418 0.59349,-3.89886 0.7353,-8.80618 0.0674,-2.33183 0.29586,-4.922993 0.56712,-6.43183 0.39396,-2.191262 0.47,-4.036669 0.57259,-13.897345 0.0823,-7.906849 0.23227,-12.490136 0.49242,-15.045885 0.46644,-4.582414 0.57172,-6.410021 0.69983,-12.148055 0.0949,-4.251929 0.27784,-5.435507 0.72972,-4.721944 0.26413,0.417095 0.15419,15.001536 -0.11836,15.701154 -0.12678,0.325416 -0.28907,4.029327 -0.36065,8.230917 -0.0716,4.201588 -0.24182,10.120099 -0.3783,13.152247 -0.13649,3.032148 -0.28806,6.598368 -0.33683,7.924933 -0.0488,1.326564 -0.21242,2.849505 -0.36368,3.384315 -0.15126,0.53481 -0.22436,1.568493 -0.16245,2.297073 0.0634,0.7458 -0.0322,1.927 -0.21878,2.70295 -0.36665,1.52509 -0.29099,3.73878 0.31287,9.15401 0.55829,5.00654 0.89304,6.39396 1.87776,7.78266 1.03951,1.46595 1.93306,2.42841 2.56416,2.7619 0.75808,0.4006 3.49141,0.83257 3.90644,0.61737 0.20664,-0.10715 1.16718,-0.29072 2.13454,-0.40793 0.96736,-0.1172 2.07143,-0.37086 2.4535,-0.56369 0.38207,-0.19282 1.27509,-0.4593 1.98447,-0.59218 1.267,-0.23733 4.98942,-1.1826 9.88853,-2.5111 1.36348,-0.36974 2.79337,-0.82816 3.17753,-1.01872 0.38416,-0.19056 1.17673,-0.41428 1.76126,-0.49715 0.58454,-0.0829 1.37892,-0.35403 1.7653,-0.60258 0.38637,-0.24855 0.92504,-0.4526 1.19703,-0.45343 0.27199,-9.2e-4 0.96095,-0.24354 1.53101,-0.53935 0.57006,-0.29581 1.59082,-0.66762 2.26836,-0.82625 0.67754,-0.15863 1.48814,-0.48513 1.80133,-0.72556 0.31319,-0.24043 0.83523,-0.43714 1.16008,-0.43714 0.32485,0 1.10252,-0.21566 1.72816,-0.47925 1.09328,-0.4606 2.09743,-0.81509 7.25722,-2.56196 1.29454,-0.43827 2.9962,-1.11391 3.78146,-1.50143 0.78526,-0.38751 2.47994,-1.06214 3.76596,-1.49917 3.42398,-1.16359 5.08292,-1.88345 6.71956,-2.91581 1.50807,-0.95125 2.56213,-1.18792 2.56213,-0.57527 0,0.18951 -0.12095,0.34456 -0.26878,0.34456 -0.14782,0 -0.92805,0.40635 -1.73382,0.903 -1.65795,1.02189 -3.42251,1.78202 -6.80592,2.93182 -1.28469,0.43658 -3.03233,1.13355 -3.88365,1.54882 -0.85132,0.41526 -1.97152,0.88584 -2.48934,1.04573 -2.08355,0.64333 -11.00512,3.93816 -11.82551,4.36728 -0.48269,0.25248 -1.06876,0.45905 -1.30238,0.45905 -0.23362,0 -0.81774,0.19257 -1.29804,0.42793 -0.4803,0.23536 -1.45041,0.61229 -2.15582,0.83763 -0.7054,0.22533 -1.48073,0.58989 -1.72296,0.81012 -0.41757,0.37966 -0.78086,0.49384 -3.58491,1.12665 -0.64727,0.14607 -1.60053,0.46308 -2.11835,0.70447 -0.51782,0.24138 -1.68291,0.70951 -2.5891,1.0403 -0.90618,0.33078 -2.38902,0.994 -3.29521,1.47382 -0.90618,0.47982 -1.9417,0.93965 -2.30114,1.02184 -0.74509,0.17037 -3.05869,1.12972 -3.93622,1.63218 -0.32364,0.18531 -1.05436,0.5567 -1.62382,0.82531 -1.00328,0.47324 -4.24044,2.4887 -5.43735,3.38531 -1.18079,0.88453 -2.35372,3.80102 -2.35372,5.85251 0,0.40634 0.2699,1.20236 0.59979,1.76893 0.32989,0.56657 0.72684,1.34024 0.88211,1.71926 0.57215,1.39659 2.72209,5.38695 3.3026,6.12972 0.3293,0.42134 0.97619,1.51147 1.43754,2.42251 0.80768,1.59494 2.42556,4.14068 4.78194,7.52434 0.61473,0.88273 1.48361,2.17484 1.93085,2.87136 0.44724,0.69651 1.30735,1.89224 1.91136,2.65718 0.60401,0.76493 1.16905,1.60865 1.25565,1.87493 0.14721,0.45265 1.07328,1.755 1.87147,2.63188 0.19255,0.21153 0.47982,0.625 0.63838,0.91883 0.15855,0.29383 0.49304,0.74097 0.74331,0.99365 1.41427,1.4279 6.08648,8.01139 6.76536,9.53289 0.42278,0.94754 1.15315,2.17691 1.62303,2.73192 3.20527,3.78597 6.70205,8.58173 6.9444,9.52406 0.11624,0.45201 0.0671,0.60767 -0.19199,0.60767 -0.19155,0 -0.45304,-0.12921 -0.5811,-0.28713 z m -36.62875,-18.55461 c 2.47889,-0.17442 3.33606,-0.31523 3.48344,-0.57225 0.21751,-0.37932 0.87821,-0.46732 0.87821,-0.11698 0,0.28922 3.28786,-0.89526 6.002,-2.16226 1.16509,-0.54388 2.59497,-1.40756 3.17752,-1.91929 l 1.05918,-0.93041 -0.58843,-1.07793 c -0.32364,-0.59286 -0.87058,-1.23967 -1.21541,-1.43736 -0.60232,-0.34528 -0.66045,-0.33075 -1.47762,0.36948 -1.57576,1.35024 -3.59603,2.08965 -8.60484,3.14933 -2.52954,0.53516 -3.27458,0.60323 -5.31247,0.48538 -1.72254,-0.0996 -2.44959,-0.0599 -2.66038,0.14535 -0.49462,0.48162 -5.65589,0.30814 -8.15015,-0.27393 -1.1651,-0.27189 -2.71202,-0.58085 -3.43761,-0.68658 -2.02604,-0.29522 -5.29039,-1.58544 -7.86026,-3.10675 l -1.41224,-0.83602 -1.61013,1.67402 c -0.88557,0.92071 -1.70239,1.84076 -1.81516,2.04454 -0.17059,0.3083 0.51482,0.72085 4.08154,2.4567 2.35761,1.1474 4.81616,2.20801 5.46343,2.3569 2.59173,0.59619 14.15298,0.84943 19.99938,0.43806 z m 2.12562,-5.83492 c 3.76314,-0.75058 6.30604,-1.54797 7.71251,-2.41846 1.46995,-0.90979 1.58239,-1.40767 0.61704,-2.73217 -0.42831,-0.58765 -0.85692,-1.10112 -0.95245,-1.14103 -0.29848,-0.12471 -3.39784,-3.81124 -3.56002,-4.23445 -0.0847,-0.2211 -0.31624,-0.40199 -0.51449,-0.40199 -0.19824,0 -0.36044,-0.0963 -0.36044,-0.21402 0,-0.1177 -0.54223,-0.71207 -1.20496,-1.32082 -0.66272,-0.60874 -1.64246,-1.53273 -2.17719,-2.05331 -0.53473,-0.52058 -1.28999,-1.10955 -1.67835,-1.30883 -0.38837,-0.19927 -1.28867,-0.88623 -2.00067,-1.52656 -0.712,-0.64034 -1.43827,-1.28035 -1.61393,-1.42225 -0.44793,-0.36185 -4.10142,-0.0608 -5.05218,0.41632 -1.23234,0.6184 -3.73682,2.37488 -4.86713,3.4135 -1.79352,1.64802 -5.82624,5.19519 -7.86253,6.91587 -1.06517,0.90008 -2.2681,2.04489 -2.67318,2.54403 l -0.7365,0.90753 0.45926,0.73702 c 0.2526,0.40536 0.64401,0.80283 0.86982,0.88326 0.2258,0.0804 0.66315,0.33539 0.97188,0.56656 0.31961,0.23932 0.95081,0.42032 1.46577,0.42032 0.5494,0 1.3958,0.25943 2.15613,0.66089 0.7729,0.40809 1.92285,0.75753 3.0063,0.91353 0.96504,0.13896 2.28421,0.36953 2.93148,0.51238 2.35257,0.51921 2.8478,0.55433 7.38802,0.52391 3.99103,-0.0267 5.03022,-0.11355 7.67581,-0.64123 z m -37.307784,-7.14999 c 0.19488,-0.38566 0.59264,-0.92834 0.88392,-1.20597 0.65132,-0.6208 0.68426,-1.52153 0.071,-1.94075 -0.25224,-0.17242 -0.96718,-0.93221 -1.58877,-1.68841 -0.62158,-0.75621 -1.59578,-1.90048 -2.16489,-2.54282 -1.02787,-1.16016 -1.34438,-1.64873 -3.445781,-5.31905 -1.076523,-1.88026 -1.926565,-4.32878 -2.605557,-7.50525 -0.189042,-0.88437 -0.463783,-1.99766 -0.610533,-2.47396 -0.146752,-0.4763 -0.258641,-1.19988 -0.248645,-1.60796 0.01,-0.40807 -0.130888,-1.62058 -0.313078,-2.69447 -0.479587,-2.82684 -0.42728,-7.98962 0.100695,-9.93903 0.231587,-0.85508 0.476391,-1.50069 0.544004,-1.43471 0.06762,0.066 0.243789,-0.13888 0.391497,-0.45526 0.16325,-0.34967 0.178243,-0.57524 0.03823,-0.57524 -0.369221,0 -0.265858,-0.62163 0.174886,-1.05177 0.222867,-0.2175 0.540046,-0.6491 0.704842,-0.9591 0.273128,-0.51378 0.233301,-0.6241 -0.450341,-1.24735 -0.87211,-0.79507 -2.795029,-1.79536 -3.451327,-1.79536 -0.62794,0 -1.7512,2.70351 -1.741767,4.19217 0.0038,0.60012 -0.08179,1.09112 -0.190199,1.09112 -0.316225,0 -0.687245,1.61501 -0.688669,2.99769 -7.06e-4,0.71117 -0.131406,1.40248 -0.295529,1.56347 -0.221567,0.21733 -0.27884,1.54741 -0.231947,5.38666 0.07259,5.94305 0.363156,7.97587 1.491738,10.43627 0.245662,0.53557 0.446658,1.17552 0.446658,1.42212 0,0.2466 0.105918,0.51225 0.235373,0.59033 0.129454,0.0781 0.235895,0.36845 0.236535,0.64526 0.0019,0.76385 1.29169,4.15629 2.462293,6.4757 0.805623,1.59624 1.488626,2.52266 2.997087,4.06523 1.074526,1.09883 2.844038,2.99038 3.932255,4.20346 2.17057,2.41962 2.67834,2.62895 3.31604,1.36698 z M 83.951808,117.26043 c 0.0113,-0.2676 0.06707,-0.32203 0.142202,-0.13879 0.06799,0.16582 0.05963,0.36395 -0.01857,0.44028 -0.07821,0.0763 -0.133842,-0.0593 -0.123622,-0.30149 z m 71.054112,40.62277 c 1.53664,-1.60777 3.77569,-4.48214 3.77569,-4.84703 0,-0.14668 0.0995,-0.26669 0.22112,-0.26669 0.29036,0 2.67671,-3.7751 3.08562,-4.8813 0.17513,-0.47377 0.40931,-0.8614 0.5204,-0.8614 0.11109,0 0.13651,-0.10337 0.0565,-0.22971 -0.08,-0.12634 -0.0333,-0.22971 0.10379,-0.22971 0.1371,0 0.22279,-0.0796 0.19042,-0.17695 -0.0633,-0.19051 0.56378,-1.73584 1.23327,-3.03896 0.68685,-1.33691 1.33592,-4.40693 1.89404,-8.95862 0.27308,-2.22703 0.15491,-11.57361 -0.15591,-12.33216 l -0.20577,-0.50219 -1.66709,0.7319 c -2.64807,1.16258 -2.53871,1.04237 -2.25358,2.47703 0.48735,2.45208 0.5559,6.60726 0.14554,8.82144 -0.21074,1.13706 -0.46885,2.59385 -0.57358,3.23733 -0.22627,1.39012 -2.16572,7.06178 -2.99032,8.74481 -0.31956,0.65222 -0.78497,1.36598 -1.03423,1.58613 -0.24926,0.22015 -0.45751,0.51347 -0.46277,0.65181 -0.005,0.13834 -0.32301,0.60942 -0.70612,1.04684 -0.3831,0.43741 -0.69655,0.87615 -0.69655,0.97497 0,0.0988 -0.55085,0.75205 -1.22412,1.45163 -0.67327,0.69958 -1.40101,1.53512 -1.61721,1.85676 -0.2162,0.32165 -0.77747,0.85172 -1.24728,1.17795 -0.90319,0.62716 -1.00033,0.82838 -0.61602,1.27602 0.89243,1.03953 1.64479,2.10317 1.64479,2.32529 0,0.40796 0.69987,1.28292 1.02619,1.28292 0.16135,0 0.86028,-0.59315 1.55317,-1.31811 z m -52.73321,-4.71661 c 2.33023,-2.31554 3.55014,-3.79495 3.55014,-4.30535 0,-0.23899 0.56387,-0.91543 3.64827,-4.37667 2.35148,-2.63876 2.96488,-3.42717 3.33006,-4.28014 0.20462,-0.47794 0.62472,-1.16205 0.93355,-1.52025 0.53367,-0.61896 0.55506,-0.76718 0.43138,-2.98815 -0.17476,-3.13834 -0.299,-3.82999 -0.68795,-3.82999 -0.17932,0 -0.35987,-0.22834 -0.40124,-0.50743 -0.0466,-0.31427 -0.29072,-0.55672 -0.64137,-0.63692 -0.31139,-0.0712 -0.65562,-0.30804 -0.76496,-0.52626 -0.10934,-0.21822 -0.28906,-0.57766 -0.39937,-0.79875 -0.11031,-0.2211 -0.42807,-0.43503 -0.70612,-0.4754 -0.31879,-0.0463 -0.50555,-0.23903 -0.50555,-0.52177 0,-0.26781 -0.26064,-0.56159 -0.64727,-0.72955 -0.356,-0.15465 -0.84032,-0.51422 -1.07626,-0.79905 -0.23594,-0.28483 -0.57491,-0.51787 -0.75326,-0.51787 -0.17836,0 -0.40898,-0.14665 -0.51251,-0.3259 -0.10352,-0.17924 -0.7329,-0.59257 -1.39862,-0.91851 -0.66572,-0.32594 -1.27136,-0.74766 -1.34587,-0.93715 -0.0745,-0.18949 -0.74244,-0.6065 -1.48429,-0.92669 -0.74185,-0.32018 -1.69143,-0.83718 -2.11017,-1.14889 -0.41874,-0.3117 -0.921044,-0.56673 -1.116224,-0.56673 -0.19518,0 -0.42033,-0.10337 -0.50034,-0.22971 -0.08,-0.12634 -0.35105,-0.22971 -0.60232,-0.22971 -0.25127,0 -0.45685,-0.14251 -0.45685,-0.31669 0,-0.36354 -1.26958,-0.94501 -1.61216,-0.73837 -0.30667,0.18497 -1.00632,-0.0909 -0.85131,-0.33573 0.15302,-0.24163 -0.64798,-0.67658 -1.24599,-0.67658 -0.24485,0 -0.68595,-0.25011 -0.98021,-0.5558 -0.29426,-0.30569 -0.868792,-0.6845 -1.276734,-0.84181 -0.40794,-0.1573 -0.927715,-0.44063 -1.155054,-0.62962 -0.227339,-0.18898 -0.474925,-0.28351 -0.550188,-0.21005 -0.226242,0.22079 -1.477175,3.83254 -2.008062,5.79776 -0.444039,1.64372 -0.481306,2.23044 -0.353117,5.55924 0.144168,3.74366 0.978694,8.98856 1.673916,10.52033 0.172024,0.37902 0.366536,1.13646 0.432249,1.68321 0.06571,0.54675 0.287329,1.1751 0.492481,1.39634 0.205153,0.22124 0.373007,0.56235 0.373007,0.75802 0,0.19568 0.147797,0.47549 0.328436,0.6218 0.180641,0.14631 0.400311,0.64996 0.488157,1.11924 0.08785,0.46927 0.2947,1.05996 0.459677,1.31264 0.164978,0.25267 0.430649,0.84852 0.590382,1.3241 0.15973,0.47557 0.68509,1.35421 1.16746,1.95251 0.48237,0.59831 1.32042,1.7274 1.86234,2.50908 1.04036,1.50066 3.49606,4.20661 3.81758,4.20661 0.10446,0 1.258384,-1.06172 2.564284,-2.35939 z m 49.36652,0.005 c 3.77412,-4.00392 6.85715,-9.14004 8.10592,-13.50391 1.78772,-6.24728 1.89818,-7.04295 1.60564,-11.56549 -0.22631,-3.49857 -0.47357,-4.62445 -0.82135,-3.73996 -0.0904,0.23 -0.41111,0.38298 -0.80277,0.38298 -0.81074,0 -2.41258,0.63261 -2.65828,1.04983 -0.23437,0.39795 -3.03044,1.70665 -3.64632,1.70665 -0.25692,0 -0.59898,0.15506 -0.76013,0.34457 -0.16116,0.1895 -0.4744,0.34456 -0.69608,0.34456 -0.22169,0 -1.25816,0.50686 -2.30328,1.12636 -1.04512,0.6195 -2.10313,1.18922 -2.35114,1.26604 -0.54536,0.16892 -1.51003,1.13873 -2.10088,2.11206 -0.23848,0.39286 -0.88144,1.25208 -1.4288,1.90939 -1.17967,1.41662 -1.55849,2.5508 -1.57885,4.72699 -0.0132,1.40535 0.10626,1.87139 0.94766,3.69863 0.52949,1.14987 1.55053,2.97077 2.26898,4.04644 0.71845,1.07568 1.37802,2.17641 1.46572,2.44607 0.0877,0.26966 0.25823,0.49029 0.37896,0.49029 0.12073,0 0.21951,0.12256 0.21951,0.27236 0,0.14979 0.40231,0.74416 0.89402,1.32082 0.49171,0.57666 1.13443,1.38442 1.42826,1.79502 0.29384,0.4106 0.61946,0.74655 0.72361,0.74655 0.10416,0 0.60348,-0.43932 1.1096,-0.97626 z m -9.45136,-34.29268 c 1.03564,-0.21455 2.06997,-0.55041 2.29853,-0.74635 0.22855,-0.19594 1.02293,-0.40431 1.76529,-0.46304 0.74236,-0.0587 1.41368,-0.20379 1.49184,-0.32235 0.17965,-0.27254 1.7211,-0.62684 2.80005,-0.64359 0.4531,-0.007 1.02941,-0.16455 1.2807,-0.35004 0.25128,-0.18549 0.91083,-0.33726 1.46565,-0.33726 0.81853,0 1.08208,-0.1092 1.39757,-0.57912 0.33107,-0.49311 0.50706,-0.55748 1.18487,-0.43338 1.236,0.22629 1.5535,-0.17457 1.36587,-1.72448 -0.15186,-1.25448 -0.8672,-3.21262 -1.26294,-3.4571 -0.23669,-0.14622 -1.43039,-2.52202 -1.43039,-2.84686 0,-0.12434 -0.14438,-0.38925 -0.32084,-0.58871 -0.17647,-0.19946 -0.50542,-0.84549 -0.731,-1.43563 -0.40975,-1.07193 -2.71453,-3.5193 -6.23639,-6.622253 -0.78867,-0.69486 -1.98701,-1.753898 -2.66295,-2.353406 -0.67595,-0.599511 -2.07634,-1.501782 -3.11198,-2.005052 -1.03564,-0.503267 -2.51848,-1.243236 -3.29521,-1.644373 -1.81937,-0.939603 -2.15129,-1.098044 -2.82043,-1.346326 l -0.55302,-0.205201 0.11754,6.820818 c 0.28549,16.565703 0.39412,18.992113 0.87114,19.457453 0.24183,0.23592 0.54733,0.73028 0.67889,1.09859 0.48081,1.34607 1.86827,1.52297 5.70721,0.72766 z m -20.87282,-1.54922 c 1.08551,-0.44543 1.87166,-1.62942 2.24482,-3.38078 0.0673,-0.31585 0.19474,-5.97305 0.28321,-12.57156 l 0.16085,-11.997285 -0.63246,-0.234674 c -1.14181,-0.42367 -3.87988,-0.26408 -6.13306,0.357467 -1.1651,0.321394 -2.50271,0.665262 -2.97249,0.764152 -0.46977,0.09889 -1.21119,0.389426 -1.6476,0.645641 -0.43641,0.256211 -1.10585,0.537939 -1.48764,0.626062 -0.67528,0.155866 -4.46573,2.484437 -4.73417,2.908322 -0.0737,0.116448 -0.69,0.558788 -1.36947,0.982978 -0.67947,0.424191 -2.76863,2.282374 -4.64258,4.129304 -2.970144,2.927313 -3.537274,3.609553 -4.421374,5.318783 -1.37766,2.6634 -1.37567,2.66616 3.6224,5.01096 1.165094,0.54659 2.489064,1.13318 2.942154,1.30354 0.45309,0.17035 1.10495,0.49842 1.44857,0.72904 0.34362,0.23062 0.70599,0.41931 0.80527,0.41931 0.0993,0 0.34772,0.1378 0.55209,0.30622 0.20438,0.16842 1.37781,0.64732 2.60763,1.06424 1.22982,0.41691 3.29521,1.16473 4.58976,1.66181 1.29455,0.49708 2.77739,0.99075 3.29521,1.09703 0.51782,0.10628 1.68291,0.39914 2.5891,0.65078 2.04472,0.56782 2.02754,0.56659 2.89978,0.20866 z m 38.28196,-3.82692 c 0.0754,-0.11904 0.63771,-0.28752 1.2496,-0.3744 2.18941,-0.31084 3.04473,-1.11051 2.76184,-2.58215 -0.22878,-1.19016 -1.96744,-5.17403 -2.34903,-5.38244 -0.17747,-0.0969 -0.3894,-0.47273 -0.47096,-0.83513 -0.0816,-0.3624 -0.40759,-0.89665 -0.72451,-1.18722 -0.31692,-0.29056 -0.57622,-0.63501 -0.57622,-0.76542 0,-0.2849 -1.60137,-2.569283 -2.91768,-4.162113 -1.82432,-2.207543 -6.89316,-6.968181 -8.5125,-7.994905 -0.89814,-0.569454 -1.94407,-1.355196 -2.32429,-1.746095 -0.38022,-0.390897 -0.79389,-0.710722 -0.91927,-0.710722 -0.12538,0 -0.57513,-0.258421 -0.99944,-0.57427 -0.42431,-0.315849 -0.84162,-0.574271 -0.92737,-0.574271 -0.0857,0 -0.43704,-0.193791 -0.78066,-0.43065 -0.95344,-0.657199 -3.98052,-1.647765 -5.62643,-1.841161 l -1.47108,-0.172853 v 2.914365 2.914365 l 1.35339,0.468862 c 0.74437,0.257873 1.61819,0.545019 1.94183,0.638099 0.32363,0.09308 0.90618,0.395794 1.29454,0.672696 0.38837,0.2769 1.19409,0.678411 1.7905,0.892244 1.3338,0.478209 3.1367,1.765758 5.15299,3.680019 0.84145,0.798877 2.19529,1.973527 3.00853,2.610337 0.81324,0.63682 1.77862,1.556423 2.14529,2.043563 0.36668,0.48714 0.95508,1.14413 1.30756,1.45998 0.35249,0.31585 0.7944,0.93191 0.98202,1.36902 0.18762,0.43711 0.53675,0.97261 0.77585,1.19 0.23909,0.21739 0.56834,0.94513 0.73166,1.61719 0.16333,0.67206 0.37959,1.27496 0.4806,1.33976 0.33908,0.21755 1.862,3.52992 2.00095,4.35208 0.0756,0.44736 0.17884,0.94259 0.22942,1.10052 0.10704,0.33423 1.19114,0.38926 1.39287,0.0707 z m -64.728304,-9.13878 c 0.65241,-1.03933 1.95124,-2.67575 2.8863,-3.63648 0.93505,-0.960743 1.67647,-1.821323 1.6476,-1.912413 -0.0289,-0.0911 0.36734,-0.52204 0.880474,-0.95767 0.51313,-0.435641 1.23938,-1.128391 1.61389,-1.539451 0.76327,-0.837758 5.34821,-4.09785 7.69844,-5.473928 0.84509,-0.494805 2.27498,-1.123624 3.17753,-1.397377 0.90255,-0.273752 2.22355,-0.676281 2.93555,-0.894509 1.1862,-0.363566 2.39136,-0.527541 6.88464,-0.936738 l 1.58876,-0.144686 v -0.734805 c 0,-0.404139 0.12105,-1.323031 0.26899,-2.041981 0.14795,-0.718948 0.21244,-1.362374 0.14331,-1.429835 -0.21614,-0.210941 -6.10811,0.372091 -7.59116,0.751171 -3.38659,0.865648 -7.68435,2.275338 -8.7932,2.884218 -3.35607,1.842862 -6.77139,4.34862 -6.50356,4.771542 0.0671,0.10604 -0.11776,0.261867 -0.41092,0.346288 -0.59932,0.172588 -1.13204,0.660105 -7.193034,6.582731 -5.230816,5.111413 -4.990901,4.857403 -4.990901,5.284043 0,0.32233 1.682641,1.51851 3.05984,2.17522 1.087301,0.51847 1.451501,0.28957 2.697451,-1.69534 z"
     id="path38" />
  <path
     style="fill:#ffccaa;stroke-width:0.0512047"
     d="m 120.84137,171.72771 c -3.50674,-0.0952 -6.67758,-0.30163 -7.91114,-0.51493 -0.87818,-0.15186 -3.16204,-1.12054 -6.51788,-2.76452 -2.67312,-1.30952 -3.53109,-1.83439 -3.3994,-2.0796 0.10057,-0.18725 0.91501,-1.09284 2.14669,-2.38693 1.18726,-1.24742 1.26206,-1.31598 1.36427,-1.25035 0.0595,0.0382 0.44225,0.26617 0.85061,0.50662 3.11898,1.83655 5.92573,2.95892 8.48233,3.39194 0.83602,0.1416 1.8734,0.34823 2.93633,0.58488 0.96325,0.21446 1.4764,0.2982 2.53703,0.414 2.66201,0.29065 5.59793,0.25603 5.95847,-0.0702 0.21145,-0.19136 1.07215,-0.22762 3.06589,-0.12916 1.71617,0.0848 2.70107,-0.0255 5.33617,-0.5973 3.21638,-0.69794 5.02923,-1.23577 6.37764,-1.89211 0.67288,-0.32753 1.19494,-0.66952 1.92418,-1.2605 0.29592,-0.23982 0.60348,-0.45245 0.68348,-0.47253 0.35381,-0.0888 1.0511,0.44483 1.55948,1.19345 0.2317,0.34119 0.82267,1.40112 0.82267,1.47548 0,0.0276 -0.27074,0.28638 -0.60165,0.57511 -1.38239,1.20618 -3.11301,2.157 -6.13177,3.36884 -1.24106,0.4982 -2.76125,1.02159 -3.10252,1.06817 -0.20778,0.0284 -0.25058,0.0166 -0.36891,-0.10177 -0.21588,-0.21588 -0.4884,-0.15865 -0.82977,0.17424 -0.15166,0.1479 -0.28455,0.2199 -0.51205,0.27741 -0.61393,0.15521 -2.45497,0.32362 -4.81324,0.44029 -1.42591,0.0705 -7.88756,0.103 -9.85691,0.0495 z"
     id="path35" />
  <path
     style="fill:#ffccaa;stroke-width:0.0512047"
     d="m 153.11837,158.97518 c -0.2749,-0.23529 -0.60216,-0.73249 -0.64556,-0.98075 -0.0179,-0.10224 -0.0918,-0.28958 -0.16426,-0.41631 -0.24471,-0.42794 -0.58788,-0.88845 -1.48005,-1.98617 -0.34936,-0.42985 -0.29229,-0.59789 0.36874,-1.0858 0.65792,-0.4856 1.15332,-0.94015 1.46561,-1.34475 0.39506,-0.51185 0.94369,-1.13869 1.71394,-1.95827 0.68404,-0.72783 1.07375,-1.20444 1.16663,-1.42672 0.0371,-0.0889 0.30794,-0.46162 0.60177,-0.82829 0.58164,-0.72581 0.7307,-0.94766 0.7814,-1.16298 0.0182,-0.0775 0.17475,-0.29639 0.34777,-0.48645 0.37736,-0.41448 0.79551,-1.04207 1.09571,-1.64451 0.80596,-1.6174 2.62019,-6.86552 2.98497,-8.63476 0.19882,-0.96434 0.67281,-3.71111 0.75319,-4.36479 0.17791,-1.44676 0.14874,-4.61065 -0.0591,-6.41381 -0.0692,-0.60003 -0.10958,-0.85814 -0.30417,-1.94311 -0.1558,-0.86869 -0.0965,-0.91664 2.60064,-2.10242 0.86088,-0.37848 1.33747,-0.56291 1.37015,-0.53023 0.11539,0.11539 0.249,0.64587 0.30129,1.19625 0.24156,2.54232 0.26004,9.61383 0.0303,11.59787 -0.27394,2.36582 -0.73265,5.06477 -1.13135,6.65662 -0.25441,1.01576 -0.47287,1.62508 -0.90877,2.53463 -0.6661,1.38988 -1.05848,2.38 -1.05848,2.67093 0,0.11701 -0.0347,0.15845 -0.18522,0.22135 -0.18664,0.078 -0.19522,0.10776 -0.0985,0.3418 0.0245,0.0593 0.003,0.0951 -0.0708,0.11861 -0.12976,0.0412 -0.30244,0.32923 -0.5634,0.9398 -0.32981,0.77164 -1.27981,2.39891 -2.15945,3.69893 -0.46286,0.68407 -0.78101,1.06176 -0.9478,1.12517 -0.077,0.0293 -0.13555,0.11265 -0.17072,0.24326 -0.0926,0.34385 -0.69995,1.21214 -1.80315,2.57778 -1.55418,1.92392 -3.18154,3.57741 -3.52086,3.57741 -0.0485,0 -0.18816,-0.0856 -0.31042,-0.19029 z"
     id="path37" />
  <path
     style="fill:#ffccaa;stroke-width:0.0512047"
     d="m 158.64753,113.65719 c -0.3437,-0.0661 -0.42506,-0.19338 -0.55735,-0.8718 -0.0626,-0.32076 -0.17369,-0.76754 -0.24698,-0.99284 -0.32088,-0.98631 -1.36279,-3.19614 -1.74921,-3.70997 -0.21127,-0.28092 -0.38807,-0.74064 -0.62087,-1.61439 -0.14756,-0.55386 -0.44774,-1.17606 -0.71684,-1.48587 -0.27563,-0.31733 -0.49284,-0.65441 -0.74238,-1.15211 -0.3065,-0.61129 -0.52232,-0.9018 -1.17806,-1.58577 -0.33833,-0.3529 -0.80182,-0.87205 -1.02999,-1.15368 -0.51762,-0.63891 -1.26749,-1.363069 -2.19621,-2.120901 -1.06621,-0.870036 -1.93169,-1.621045 -3.05589,-2.651711 -2.36983,-2.172669 -3.65009,-3.082818 -5.20217,-3.69827 -0.68228,-0.270548 -1.2562,-0.560765 -1.82902,-0.92489 -0.67831,-0.431183 -0.71422,-0.445991 -2.67545,-1.103318 l -1.80496,-0.604953 v -2.883959 -2.883959 l 0.11521,6e-6 c 0.27651,1.5e-5 1.78326,0.216351 2.32968,0.334491 1.74108,0.376431 3.66886,1.076802 4.65401,1.690817 0.20236,0.126129 0.49801,0.28685 0.65699,0.357158 0.15898,0.07031 0.60582,0.343169 0.99297,0.606356 0.38716,0.263187 0.79485,0.508041 0.90599,0.54412 0.26562,0.08623 0.4223,0.199818 0.94453,0.684743 0.48595,0.451242 1.53933,1.256191 2.2018,1.682529 1.28518,0.827089 3.59157,2.861452 6.2254,5.491148 0.81893,0.817643 1.74316,1.779226 2.05385,2.136851 1.33471,1.536344 3.20731,4.140992 3.34514,4.652832 0.0356,0.13222 0.19131,0.346 0.48075,0.66007 0.37711,0.40919 0.79846,1.05505 0.79846,1.2239 0,0.19321 0.24076,0.64938 0.46615,0.88323 0.42969,0.44581 1.48108,2.70026 2.11081,4.52611 0.25646,0.7436 0.2649,0.78601 0.2649,1.33132 0,0.66252 -0.0656,0.83035 -0.47433,1.21262 -0.443,0.41439 -1.00532,0.63533 -2.13711,0.8397 -0.91195,0.16467 -1.21912,0.25432 -1.40378,0.4097 -0.0818,0.0689 -0.26794,0.14733 -0.41603,0.17541 -0.14738,0.0279 -0.27058,0.0483 -0.27377,0.0452 -0.003,-0.003 -0.10951,-0.0256 -0.23624,-0.0499 z"
     id="path39" />
  <path
     style="fill:#ffccaa;stroke-width:0.0512047"
     d="m 92.783275,106.25202 c -0.611898,-0.12201 -2.592029,-1.30181 -3.306257,-1.96994 -0.429864,-0.40212 -0.440209,-0.52171 -0.08204,-0.94845 0.309398,-0.36864 2.881776,-2.9152 6.381668,-6.31762 4.506794,-4.381284 4.942064,-4.77198 5.558794,-4.989574 0.2941,-0.103766 0.40656,-0.213111 0.40656,-0.395318 0,-0.298259 0.96852,-1.161582 2.50862,-2.236141 1.50841,-1.052445 3.62637,-2.3294 4.51131,-2.719942 1.8467,-0.814992 7.40569,-2.517005 9.18637,-2.81262 1.60324,-0.266158 4.63761,-0.570347 5.81174,-0.582612 l 0.79367,-0.0083 0.0145,0.256024 c 0.008,0.140813 -0.0331,0.521008 -0.0912,0.844878 -0.21761,1.212342 -0.30687,1.936795 -0.3071,2.492547 l -2.4e-4,0.572369 -0.26882,0.03065 c -0.14785,0.01686 -1.02922,0.09972 -1.95858,0.184143 -3.24241,0.294542 -4.98175,0.522247 -5.86294,0.76755 -1.08619,0.302367 -3.79719,1.152178 -4.25927,1.335142 -1.40402,0.555933 -2.42939,1.12518 -4.44554,2.46801 -2.82626,1.882389 -4.65323,3.260648 -5.81413,4.386149 -0.48008,0.465441 -1.14371,1.096707 -1.47474,1.402815 -0.388141,0.358916 -0.637739,0.632852 -0.702863,0.771395 -0.112419,0.239162 -0.667371,0.892985 -1.480669,1.744465 -1.182381,1.2379 -2.116361,2.4103 -3.116114,3.91159 -0.713814,1.07191 -1.066289,1.51116 -1.35501,1.6886 -0.179998,0.11062 -0.453119,0.16299 -0.647719,0.12419 z"
     id="path41" />
  <path
     style="fill:#ffccaa;stroke-width:0.0512047"
     d="m 96.176733,159.22996 c -0.384915,-0.19053 -1.006828,-0.78704 -2.326474,-2.23143 -1.329249,-1.45491 -2.49009,-2.69406 -3.757481,-4.01097 -1.190744,-1.23726 -1.777168,-1.96715 -2.366222,-2.94507 -1.190477,-1.97638 -2.905575,-6.21841 -3.063988,-7.5783 -0.03989,-0.34241 -0.08393,-0.45301 -0.25486,-0.64006 -0.12229,-0.13382 -0.228162,-0.44405 -0.228649,-0.67 -4.09e-4,-0.18918 -0.167887,-0.67849 -0.524289,-1.5318 -1.132921,-2.71248 -1.377411,-4.73408 -1.390246,-11.49547 -0.0064,-3.36205 0.01599,-3.73988 0.245008,-4.13846 0.174191,-0.30315 0.22968,-0.63174 0.285545,-1.69094 0.06777,-1.28499 0.228041,-2.16255 0.476034,-2.60658 0.05898,-0.10561 0.13531,-0.19202 0.169613,-0.19202 0.112559,0 0.178387,-0.32107 0.225714,-1.1009 0.08075,-1.3305 0.538714,-2.76905 1.184963,-3.72215 0.330593,-0.48757 0.497391,-0.54059 1.08275,-0.3442 1.387902,0.46564 3.467505,1.93084 3.467505,2.44306 0,0.20104 -0.333404,0.77309 -0.722273,1.23926 -0.45632,0.54703 -0.515923,0.66235 -0.496536,0.9607 0.01339,0.20601 0.03293,0.24274 0.14351,0.26974 0.108903,0.0266 0.125897,0.0568 0.113846,0.2027 -0.01926,0.23307 -0.265036,0.67579 -0.416934,0.751 -0.149652,0.0741 -0.171514,0.11112 -0.331312,0.56085 -0.50883,1.43207 -0.640163,2.47437 -0.680856,5.40354 -0.0381,2.74271 0.02216,3.69624 0.390778,6.18304 0.08511,0.57417 0.177141,1.41521 0.204516,1.86897 0.05183,0.85911 0.121928,1.27945 0.337219,2.02206 0.07034,0.24262 0.256008,1.00575 0.412598,1.69584 0.878967,3.87361 1.55157,5.88041 2.617259,7.80892 1.651599,2.98881 2.516105,4.30814 3.810578,5.81538 0.545928,0.63566 1.349322,1.58039 1.78532,2.09939 0.435998,0.51901 1.071962,1.22087 1.413253,1.55968 0.676861,0.67195 0.773946,0.83839 0.719735,1.23391 -0.04206,0.30686 -0.204011,0.6067 -0.5074,0.93944 -0.313214,0.34351 -0.708167,0.90011 -0.919009,1.29514 -0.0867,0.16245 -0.246444,0.37559 -0.354977,0.47364 -0.233979,0.21139 -0.425368,0.22993 -0.744238,0.0721 z M 84.149889,117.47112 c 0.0407,-0.16216 -0.06045,-0.49406 -0.142378,-0.46719 -0.06918,0.0227 -0.105687,0.3052 -0.06196,0.47943 0.04048,0.1613 0.162617,0.15398 0.204335,-0.0122 z"
     id="path43" />
  <path
     style="fill:#ffccaa;stroke-width:0.210381"
     d="m 185.00212,217.43286 c -0.19429,-0.31821 -0.5898,-0.95724 -0.87891,-1.42007 -0.28911,-0.46284 -2.30881,-3.17545 -4.48823,-6.02803 -2.17942,-2.85257 -4.63919,-6.21341 -5.46616,-7.46851 -0.82696,-1.25511 -1.76882,-2.56603 -2.09302,-2.91316 -0.3242,-0.34713 -0.68871,-0.86782 -0.81003,-1.1571 -0.12131,-0.28927 -0.64908,-1.09398 -1.17282,-1.78823 -0.52373,-0.69426 -1.09225,-1.5463 -1.26338,-1.89343 -0.17112,-0.34713 -0.82657,-1.43585 -1.45654,-2.41938 -0.62998,-0.98353 -1.64842,-2.64028 -2.26321,-3.68166 -0.61479,-1.04139 -2.67987,-3.99753 -4.58908,-6.56922 -4.28874,-5.77691 -6.2107,-8.52026 -8.06707,-11.51475 -2.89977,-4.67755 -4.99297,-7.42747 -11.05629,-14.52505 -3.81343,-4.46392 -6.9227,-7.54989 -9.02071,-8.95313 l -1.61867,-1.08263 -3.15878,0.0792 c -2.85179,0.0715 -3.27122,0.1315 -4.31587,0.61701 -2.40102,1.11592 -4.85989,2.93593 -8.1311,6.0185 -4.93407,4.64954 -16.268697,15.76113 -17.142857,16.80553 -2.60144,3.10806 -13.187416,14.30728 -14.417456,15.25265 -0.466813,0.35878 -1.738708,1.70153 -2.826433,2.98389 -1.087724,1.28235 -2.648528,3.04813 -3.468453,3.92395 -2.480982,2.65009 -6.955705,7.89194 -8.683943,10.17267 -0.895683,1.18202 -2.373131,3.09585 -3.283213,4.25294 -1.875887,2.38503 -4.043461,5.61766 -4.761001,7.10035 -0.265985,0.54962 -0.547131,0.99931 -0.624769,0.99931 -0.376246,0 -6.534858,-4.89817 -8.266869,-6.57495 -0.983339,-0.95198 -1.041105,-0.85148 1.759687,-3.06145 1.09924,-0.86735 2.718881,-2.24915 3.599204,-3.07065 0.880322,-0.82151 2.106611,-1.87234 2.725086,-2.33517 1.585604,-1.18659 9.326702,-8.90875 9.738804,-9.71498 0.187965,-0.36773 0.906847,-1.06498 1.597514,-1.54946 0.700557,-0.49141 1.59818,-1.37804 2.030244,-2.00538 0.425964,-0.61848 1.147463,-1.38299 1.603328,-1.69891 0.988133,-0.68477 2.689226,-2.53064 2.689226,-2.9181 0,-0.41046 3.120647,-3.51909 4.207615,-4.19142 1.093414,-0.67631 8.465774,-8.03165 11.25537,-11.22938 1.041384,-1.19375 2.78065,-3.13433 3.865033,-4.31239 1.084384,-1.17807 2.911074,-3.278 4.059313,-4.66651 1.14824,-1.38852 2.5963,-3.09961 3.21792,-3.80242 0.62162,-0.70282 1.65903,-2.02822 2.30535,-2.94533 1.29483,-1.83735 2.19981,-2.99174 4.17312,-5.32329 2.0575,-2.43101 2.66061,-3.22386 3.13717,-4.12404 0.24378,-0.4605 0.70854,-1.17054 1.03279,-1.57785 0.82677,-1.03859 1.11079,-2.39807 0.98869,-4.73248 -0.0846,-1.6167 -0.19913,-2.13212 -0.64026,-2.8806 -0.55332,-0.93883 -3.06118,-3.20696 -5.83462,-5.27687 -1.72433,-1.28693 -8.7563,-5.57925 -10.939797,-6.67767 -0.752111,-0.37836 -1.74616,-0.94748 -2.208998,-1.26473 -0.462838,-0.31725 -1.551558,-1.00084 -2.419379,-1.51909 -0.86782,-0.51825 -2.524569,-1.5282 -3.681663,-2.24434 -4.192678,-2.5949 -7.031276,-4.21825 -7.611992,-4.35319 -0.82384,-0.19144 -10.366945,-4.89592 -12.163798,-5.99641 -1.808917,-1.10788 -5.563628,-2.90633 -8.043191,-3.85257 -1.018057,-0.388503 -3.552989,-1.725363 -5.633182,-2.9708 -3.417427,-2.046054 -10.68869,-5.781547 -11.253974,-5.781547 -0.124803,0 -0.616738,-0.198873 -1.09319,-0.441941 -0.476451,-0.243067 -1.324996,-0.578166 -1.885654,-0.744663 -1.133365,-0.336574 -1.767921,-1.053575 -1.547383,-1.748426 0.07525,-0.237085 0.227221,-0.431062 0.337718,-0.431062 0.110497,0 0.63909,-0.402353 1.17465,-0.894118 1.089406,-1.000321 2.284568,-3.339098 3.046662,-5.961924 0.47689,-1.641266 0.996164,-2.400711 1.641499,-2.400711 0.425603,0 1.625318,0.887794 5.329801,3.944077 1.296938,1.070005 2.878761,2.297373 3.515163,2.727488 0.636401,0.430113 2.056472,1.414724 3.155711,2.188023 4.946725,3.479946 13.377659,8.64689 14.174586,8.68697 0.361806,0.0182 0.670353,0.174502 0.743153,0.376474 0.188472,0.522885 1.01048,1.087633 2.754244,1.892266 0.86782,0.400443 3.440781,1.875714 5.717692,3.278374 2.276911,1.40267 4.643694,2.80273 5.259519,3.11124 0.615824,0.30851 1.68771,0.90456 2.381966,1.32455 0.694257,0.41999 1.546299,0.93078 1.893427,1.13509 0.846328,0.49812 3.528748,1.76458 4.139058,1.95419 0.269126,0.0836 1.144823,0.48044 1.945995,0.88184 0.801174,0.40141 1.842558,0.85376 2.314187,1.00523 1.69128,0.54317 3.05461,1.11799 3.63965,1.53457 0.57238,0.40757 2.87115,1.35219 5.73001,2.3546 0.74757,0.26211 2.25747,0.89349 3.35534,1.40304 1.53113,0.71065 2.39071,0.97069 3.68993,1.11628 0.93159,0.1044 2.06807,0.32751 2.52551,0.4958 0.69717,0.25649 0.97722,0.26219 1.73131,0.0352 2.06296,-0.62086 2.75657,-1.39809 3.64349,-4.0828 0.44254,-1.33957 0.46459,-1.85526 0.65739,-15.376371 0.10972,-7.694676 0.28219,-14.558348 0.38326,-15.252604 0.10108,-0.694257 0.30313,-3.581732 0.449,-6.416613 0.20967,-4.074867 0.21627,-9.317965 0.0315,-25.035309 -0.23043,-19.6006 -0.24158,-19.941528 -0.79111,-24.1742 -0.42623,-3.28298 -0.50348,-4.411542 -0.32828,-4.796061 0.12601,-0.276563 0.22911,-1.303094 0.22911,-2.281179 v -1.778337 l 3.3135,7e-4 c 1.82242,3.85e-4 4.81315,0.0629 6.64607,0.138915 l 3.33257,0.138214 -0.13235,0.755203 c -0.0728,0.415362 -0.21748,1.710307 -0.32151,2.877655 -0.10403,1.167348 -0.33219,2.918768 -0.50702,3.892044 -0.17483,0.973276 -0.42069,2.810977 -0.54635,4.083781 -0.12567,1.272803 -0.41598,3.05087 -0.64515,3.95126 -0.49524,1.945801 -0.81949,6.88728 -0.8382,12.774009 -0.0193,6.061042 -0.31033,10.82078 -0.7526,12.307274 -0.34735,1.167447 -0.38174,2.882425 -0.45776,22.826311 -0.0452,11.860215 -0.0156,24.613518 0.0658,28.340678 l 0.14798,6.77665 0.87001,1.53309 c 0.81134,1.4297 0.93121,1.54595 1.7776,1.7239 1.02282,0.21505 2.42766,-0.009 4.24674,-0.67787 2.16111,-0.79441 4.09821,-1.27262 5.65458,-1.39592 0.85368,-0.0676 2.22642,-0.36295 3.05052,-0.65626 0.8241,-0.29331 2.06639,-0.70773 2.76065,-0.92095 0.69425,-0.21321 2.82436,-0.97047 4.73356,-1.6828 1.90921,-0.71233 6.83212,-2.41631 10.9398,-3.78663 4.10769,-1.37032 7.89454,-2.73693 8.41523,-3.03693 0.52069,-0.29999 1.06593,-0.54658 1.21163,-0.54797 0.25309,-0.002 3.42931,-1.27221 5.20499,-2.08084 0.46283,-0.21077 1.36221,-0.55608 1.99861,-0.76735 0.6364,-0.21128 1.9618,-0.75389 2.94533,-1.20581 0.98353,-0.45193 3.16097,-1.41773 4.83876,-2.14624 2.93757,-1.27551 7.04973,-3.522287 9.46713,-5.172602 0.63641,-0.434459 1.90364,-1.481781 2.81609,-2.327383 l 1.659,-1.537456 1.28633,1.358767 c 1.36871,1.445781 2.96606,3.758965 3.55323,5.145576 0.4415,1.042628 0.77994,3.156208 0.78204,4.883948 0.001,1.03125 -0.0762,1.34895 -0.36658,1.50379 -0.20249,0.10797 -2.11958,0.35943 -4.26021,0.55882 -3.59934,0.33524 -4.16423,0.4476 -7.51139,1.49396 -1.99065,0.62229 -4.35743,1.3092 -5.25952,1.52647 -2.72526,0.65635 -8.05973,2.26994 -9.77487,2.95672 -0.8871,0.35522 -1.73914,0.64731 -1.89343,0.6491 -0.54121,0.006 -6.19263,2.05376 -8.27499,2.998 -1.1571,0.52468 -2.34049,1.02455 -2.62976,1.11084 -0.94768,0.28267 -6.82798,2.85243 -7.15209,3.12554 -0.17403,0.14666 -1.16847,0.62398 -2.20986,1.06073 -1.04138,0.43675 -2.08277,0.9592 -2.31418,1.16101 -0.23142,0.20181 -0.93772,0.53124 -1.56956,0.73206 -0.63184,0.20082 -2.76194,1.12556 -4.73357,2.05497 -1.97162,0.9294 -4.12751,1.91512 -4.79085,2.19046 -1.9932,0.82736 -4.82408,3.04914 -6.22451,4.88521 -1.74747,2.29107 -2.21,3.69384 -2.23065,6.76514 l -0.0163,2.41938 0.89581,1.78824 c 1.27084,2.53688 4.27044,7.48222 4.89165,8.0647 1.49022,1.3973 5.38711,7.98308 5.77116,9.75333 0.0802,0.3696 0.46067,1.08439 0.84553,1.58842 0.38486,0.50403 0.97019,1.40118 1.30074,1.99366 0.5392,0.96646 3.81321,5.41451 4.76707,6.47651 0.20727,0.23077 0.68576,0.89295 1.06331,1.47149 0.84832,1.29995 5.01588,7.286 5.65952,8.12901 0.25942,0.33978 1.16896,1.44256 2.02122,2.45062 0.85225,1.00806 1.88329,2.35353 2.29118,2.98993 0.4079,0.6364 1.01872,1.44111 1.35738,1.78824 0.75196,0.77076 3.93984,4.80904 4.4841,5.68028 0.21685,0.34713 0.83039,1.1045 1.36341,1.68304 0.53303,0.57855 1.36928,1.64278 1.85833,2.36496 0.48905,0.72219 1.5726,2.04758 2.40787,2.94533 0.83528,0.89775 1.83481,2.03526 2.22118,2.52778 1.12126,1.42935 6.78412,6.442 7.76649,6.87475 0.49243,0.21692 0.98859,0.50677 1.10257,0.64411 0.14818,0.17855 -0.52669,0.96692 -2.36799,2.7663 -2.41496,2.35996 -4.72342,4.07194 -5.49065,4.07194 -0.18469,0 -0.49476,-0.26034 -0.68905,-0.57854 z m -15.01424,-27.47167 c 0,-0.65325 -1.92972,-3.50997 -5.09213,-7.5383 -1.42272,-1.81228 -3.01279,-4.08288 -3.53348,-5.04578 -0.98449,-1.82057 -4.38359,-6.70973 -6.20656,-8.9273 -1.24138,-1.51009 -3.03228,-3.95224 -4.61594,-6.2945 -0.62588,-0.92567 -2.55255,-3.76581 -4.2815,-6.31142 -1.72895,-2.54561 -3.70831,-5.62242 -4.39858,-6.83737 -0.69027,-1.21495 -1.60912,-2.7597 -2.04189,-3.43278 -0.43277,-0.67308 -1.60368,-2.85052 -2.60202,-4.83876 -1.64064,-3.26739 -1.81141,-3.71956 -1.77608,-4.7027 0.0441,-1.2265 0.69969,-3.1548 1.46927,-4.32145 0.94868,-1.43817 7.28207,-5.16216 11.13357,-6.54647 0.83166,-0.29891 2.15706,-0.8669 2.94533,-1.26219 2.31904,-1.16293 7.19828,-3.03197 8.90173,-3.4099 0.86782,-0.19254 1.96719,-0.56332 2.44304,-0.82396 0.47585,-0.26064 1.94325,-0.87862 3.2609,-1.37328 1.31765,-0.49467 3.61261,-1.36842 5.09993,-1.94166 1.48731,-0.57325 4.56413,-1.70504 6.83737,-2.51509 2.27324,-0.81004 4.98521,-1.84085 6.0266,-2.29068 1.04138,-0.44983 3.21882,-1.30328 4.83875,-1.89656 3.2973,-1.20761 7.6789,-3.42832 7.6789,-3.89189 0,-0.46212 -1.2494,-0.37223 -2.10381,0.15135 -1.54607,0.94743 -3.99278,2.05846 -6.62699,3.00927 -1.50422,0.54294 -3.49232,1.32353 -4.418,1.73464 -1.68734,0.74937 -10.04443,3.76223 -12.41246,4.47489 -0.69426,0.20893 -1.73564,0.56991 -2.31419,0.80216 -0.98894,0.39701 -2.41626,0.93221 -5.89066,2.2088 -2.6021,0.95609 -7.65005,2.4239 -12.83323,3.73158 -2.77702,0.70061 -5.61716,1.4467 -6.31142,1.65797 -0.69425,0.21127 -2.16166,0.50431 -3.2609,0.6512 -2.21929,0.29656 -3.79238,0.10296 -4.96685,-0.61128 -0.86671,-0.52708 -2.73874,-3.05574 -3.12928,-4.2269 -0.43757,-1.31221 -0.88732,-4.44746 -1.30695,-9.11082 -0.29258,-3.25154 -0.31126,-4.21748 -0.10484,-5.42121 0.13814,-0.80559 0.25343,-2.19666 0.25619,-3.09126 0.003,-0.8946 0.0968,-2.005232 0.209,-2.46807 0.26643,-1.099107 0.76767,-12.074851 1.04723,-22.931501 0.12216,-4.744086 0.3127,-9.477653 0.42341,-10.519038 0.28785,-2.707674 0.27171,-14.978491 -0.02,-15.158743 -0.53643,-0.331532 -0.66011,0.521951 -0.84438,5.826796 -0.10595,3.049801 -0.33099,7.154506 -0.50009,9.121566 -0.44142,5.134521 -0.53159,7.412928 -0.74522,18.829077 -0.13675,7.307717 -0.28192,10.770676 -0.51152,12.202084 -0.17632,1.099239 -0.42147,4.128719 -0.54479,6.732179 -0.12333,2.60347 -0.30779,5.34894 -0.40993,6.10105 -0.56294,4.1454 -0.91595,5.989 -1.49991,7.83345 -0.81315,2.56837 -1.26339,3.00393 -4.10994,3.97595 -1.90851,0.6517 -2.26962,0.70662 -4.59583,0.69893 -3.95841,-0.0131 -5.51196,-0.48502 -11.24809,-3.41687 -2.60746,-1.33273 -8.435761,-4.27853 -12.951775,-6.54623 -4.612983,-2.31639 -8.945762,-4.63944 -9.887895,-5.30146 -3.004669,-2.11132 -9.78786,-5.86938 -10.594062,-5.86938 -0.573134,0 -0.747287,0.6344 -0.295252,1.07554 0.390746,0.38133 3.919059,2.42148 6.411728,3.7074 0.788233,0.40664 1.433149,0.82457 1.433149,0.92873 0,0.10417 0.249551,0.28428 0.554557,0.40024 0.305008,0.11597 1.275389,0.71614 2.156403,1.33372 1.496478,1.04902 11.0382,6.01873 11.555802,6.01873 0.129178,0 0.566894,0.29153 0.972702,0.64783 0.919284,0.80714 4.075733,2.71827 4.489533,2.71827 0.16875,0 0.65067,0.28992 1.07092,0.64427 1.84946,1.55943 1.83743,1.5519 7.28591,4.55516 8.67494,4.78169 11.21062,6.87431 11.42227,9.42644 0.24242,2.92332 -1.90883,7.3096 -6.10092,12.43943 -0.95968,1.17435 -2.28372,2.8311 -2.94231,3.68166 -0.65859,0.85057 -2.20133,2.62282 -3.42832,3.93835 -1.22699,1.31552 -2.78128,3.11487 -3.45397,3.99855 -1.65659,2.1762 -5.235184,6.0402 -7.690014,8.30333 -1.109966,1.0233 -2.844091,2.8368 -3.853609,4.03001 -1.009518,1.19322 -3.397565,3.84006 -5.30677,5.88188 -4.762538,5.09334 -5.668711,6.19599 -5.675052,6.90548 -0.0098,1.09844 0.566961,0.93398 2.13381,-0.60842 0.809803,-0.79717 1.765801,-1.87542 2.124441,-2.39611 0.358643,-0.52069 1.96313,-2.29124 3.565531,-3.93456 1.738216,-1.7826 3.047014,-3.31016 3.244549,-3.78686 0.313198,-0.75582 6.570694,-7.33604 9.961664,-10.47542 3.03191,-2.80696 15.30293,-15.37182 15.96387,-16.34615 1.14149,-1.68272 3.14052,-3.48027 4.78907,-4.30637 1.48177,-0.74254 1.52711,-0.75077 3.68166,-0.66837 1.67272,0.064 2.34057,0.17827 2.8639,0.49017 0.37537,0.22371 1.51143,1.53534 2.52457,2.91473 2.65565,3.61565 6.49603,8.71768 8.57576,11.39309 0.98941,1.27281 2.19494,2.83488 2.67895,3.47129 0.48402,0.6364 1.8332,2.29315 2.99819,3.68166 2.54968,3.03889 5.02773,6.27685 6.11658,7.99225 0.4399,0.69303 1.19914,1.68708 1.6872,2.20899 0.48806,0.52192 1.33468,1.70631 1.88138,2.63198 0.54671,0.92568 1.2187,1.95066 1.49332,2.27774 0.27461,0.32708 0.4993,0.67732 0.4993,0.77832 0,0.22963 1.05014,1.66883 3.41869,4.68528 1.01245,1.28941 1.84083,2.42981 1.84083,2.53423 0,0.10442 0.55919,0.78763 1.24265,1.51825 0.69604,0.74407 1.3044,1.60955 1.38303,1.96756 0.0772,0.35154 0.571,1.16223 1.09731,1.80153 1.02555,1.24573 1.74691,1.52323 1.74691,0.67203 z"
     id="path32" />
</svg>
