<?xml version="1.0" encoding="UTF-8" standalone="no"?>
<svg
   xmlns:dc="http://purl.org/dc/elements/1.1/"
   xmlns:cc="http://creativecommons.org/ns#"
   xmlns:rdf="http://www.w3.org/1999/02/22-rdf-syntax-ns#"
   xmlns:svg="http://www.w3.org/2000/svg"
   xmlns="http://www.w3.org/2000/svg"
   xmlns:sodipodi="http://sodipodi.sourceforge.net/DTD/sodipodi-0.dtd"
   xmlns:inkscape="http://www.inkscape.org/namespaces/inkscape"
   cursor="default"
   viewBox="0 0 256 256"
   version="1.1"
   id="svg50"
   sodipodi:docname="kingwine.svg"
   inkscape:version="1.0.2-2 (e86c870879, 2021-01-15)">
  <metadata
     id="metadata56">
    <rdf:RDF>
      <cc:Work
         rdf:about="">
        <dc:format>image/svg+xml</dc:format>
        <dc:type
           rdf:resource="http://purl.org/dc/dcmitype/StillImage" />
      </cc:Work>
    </rdf:RDF>
  </metadata>
  <defs
     id="defs54" />
  <sodipodi:namedview
     pagecolor="#ffffff"
     bordercolor="#666666"
     borderopacity="1"
     objecttolerance="10"
     gridtolerance="10"
     guidetolerance="10"
     inkscape:pageopacity="0"
     inkscape:pageshadow="2"
     inkscape:window-width="1920"
     inkscape:window-height="1017"
     id="namedview52"
     showgrid="false"
     inkscape:zoom="4.0973679"
     inkscape:cx="133.69042"
     inkscape:cy="108.46796"
     inkscape:window-x="-8"
     inkscape:window-y="-8"
     inkscape:window-maximized="1"
     inkscape:current-layer="svg50"
     inkscape:snap-global="false"
     inkscape:document-rotation="0" />
  <path
     style="fill:#141414;stroke:none;stroke-width:0.306817"
     d="m 94.4458,9.3936573 c -0.458691,2.7852887 3.107448,7.0791977 4.083126,9.8181587 1.973144,5.539588 1.467816,10.422587 -0.323078,15.954505 -3.605106,11.135324 -9.025035,21.701504 -14.112681,32.21583 -8.69858,17.977661 -17.835604,35.936299 -25.674176,54.306679 -5.701893,13.36283 -8.565115,26.26849 -7.568878,40.80671 0.415737,6.06088 0.92843,12.18495 3.497412,17.79544 3.638854,7.94718 10.020349,15.34055 16.166515,21.4772 5.66109,5.65221 12.776493,11.99012 19.943135,15.64771 -0.551352,5.01893 1.457075,10.16485 -0.914624,15.03404 -1.211315,2.4883 -3.239684,4.74648 -5.249339,6.62113 -1.395099,1.3009 -3.408741,2.54045 -3.961013,4.4243 l 54.613501,0.30683 h 15.95451 l 8.28407,-0.30683 c -1.1653,-2.3901 -3.99999,-4.1451 -5.77615,-6.13633 -3.46919,-3.8874 -3.98649,-7.59067 -3.1458,-12.57952 0.24392,-1.44942 0.44611,-3.34063 1.4089,-4.51022 3.23846,-3.93372 9.04436,-6.93531 13.03575,-10.15658 7.66553,-6.18699 14.63918,-13.57361 19.08129,-22.45812 5.78136,-11.56242 9.15083,-26.65478 9.14592,-39.57945 -0.002,-4.86583 -0.50963,-9.88197 -0.97261,-14.72724 -0.16384,-1.71663 -1.11866,-4.43289 -0.63144,-6.08418 0.75938,-2.57237 4.40437,-5.33372 5.87955,-7.72259 3.38818,-5.48652 5.0766,-11.69559 5.51535,-18.10225 0.96893,-14.151641 -4.82409,-27.920381 -14.70453,-38.045356 -5.64821,-5.788417 -15.00614,-10.158112 -23.31353,-8.385627 -3.79502,0.809692 -6.42598,3.514901 -9.51134,5.624269 -3.54036,-9.34075 -14.76834,-16.645765 -15.02945,-27.306749 -0.14205,-5.798544 3.28909,-11.215097 6.26184,-15.954506 0.65997,-1.051771 3.92849,-4.391478 3.19551,-5.644522 -0.49153,-0.839758 -2.52389,-0.491827 -3.3256,-0.491827 -3.49465,0 -6.94297,-0.306818 -10.43179,-0.306818 -8.58137,0 -17.20479,-0.53325 -25.77266,-0.908485 C 104.9365,9.7934493 99.534367,10.338347 94.4458,9.3936573 m 1.840904,1.2272687 c 5.376976,1.589315 12.486546,0.379841 18.102226,0.625601 11.31236,0.49551 22.73149,1.215304 34.05673,1.215304 -3.79287,6.145248 -9.34719,12.604368 -9.49477,20.249951 -0.13192,6.835586 5.46657,13.402399 9.08241,18.715862 7.00556,10.294953 13.05631,21.142788 19.30496,31.909014 3.78918,6.529073 7.41607,13.162467 11.29824,19.636312 3.38542,5.64575 7.2237,11.26635 9.48218,17.48861 2.07839,5.72613 2.45731,11.50441 3.02676,17.48859 1.55955,16.38865 -1.08122,34.13681 -8.26996,49.09078 -4.9106,10.21548 -13.434,17.93439 -22.15712,24.85129 -3.01387,2.3898 -6.51957,5.99399 -10.12497,7.40935 -1.91761,0.75261 -4.71456,0.262 -6.74999,0.262 -5.43742,0 -10.82543,-0.3068 -16.26132,-0.3068 -10.94326,0 -23.79246,1.3457 -34.363548,-1.9038 -4.296058,-1.32085 -8.112562,-4.90756 -11.659064,-7.56858 -7.241505,-5.43374 -13.20358,-11.70816 -18.838589,-18.75485 -3.641309,-4.55377 -7.275255,-9.29409 -8.810264,-15.03404 -6.824723,-25.52016 2.481234,-48.19304 13.456093,-70.87483 6.017303,-12.436227 11.906665,-24.939958 17.807376,-37.431722 3.922047,-8.303094 8.350343,-16.560162 11.595858,-25.159029 2.280881,-6.043075 5.129988,-12.766058 4.031578,-19.329497 -0.48139,-2.876108 -1.6249,-5.678885 -2.905864,-8.284071 -0.614248,-1.249053 -1.936938,-2.892675 -1.608952,-4.295445 M 190.78647,125.67745 c -0.85387,-2.66991 -3.78429,-7.76001 -3.42072,-10.43177 0.25344,-1.86178 1.92621,-3.79687 2.67699,-5.52272 1.94032,-4.46021 3.40352,-8.88758 3.1863,-13.80679 -0.16906,-3.823556 -2.11889,-7.485423 -3.97697,-10.738608 -4.19849,-7.350732 -10.00961,-18.220353 -19.636,-18.994148 -3.92021,-0.3151 -5.67184,2.48246 -8.89771,3.960094 -1.0395,-1.973757 -4.57127,-6.047371 -4.28869,-8.282843 0.20618,-1.633497 3.03165,-3.156537 4.28869,-3.962241 5.77768,-3.702672 13.84053,-1.929269 19.63632,0.975679 5.18859,2.600585 8.83021,7.228926 12.09197,11.883039 10.64626,15.191759 14.91685,41.553828 -1.66018,54.920308 m -3.98864,-11.65904 h -0.61362 c -5.6393,-10.71776 -12.1107,-21.179003 -18.28725,-31.602204 -1.57029,-2.649677 -3.08719,-5.330646 -4.66239,-7.977255 -0.54399,-0.914009 -1.61877,-2.236391 -1.215,-3.370388 0.42218,-1.186463 1.9848,-2.098631 2.99423,-2.737425 6.37567,-4.033116 14.08845,3.085662 17.57758,7.948718 4.2396,5.908998 9.95929,13.849125 9.71599,21.47722 -0.189,5.918814 -3.07984,11.057394 -5.50954,16.261334 m -36.81807,106.77247 c -0.85725,4.15492 -2.30666,9.13701 -0.30837,13.19315 1.75531,3.56215 5.13583,5.73441 7.36516,8.8977 L 82.78674,242.2681 c 2.311867,-3.14181 5.586531,-5.36624 7.511503,-8.89772 2.510992,-4.60532 1.704985,-10.38975 1.079384,-15.34086 12.310433,1.81113 24.329393,2.45452 36.818093,2.45452 6.83343,0 15.13775,-1.27542 21.78404,0.30684 z"
     id="path21" />
  <path
     style="fill:#ff8080;stroke-width:0.244059"
     d="m 118.68078,242.64657 c -9.19492,-0.0886 -21.02874,-0.17684 -26.297366,-0.196 -5.545108,-0.0202 -9.57932,-0.12808 -9.57932,-0.25626 0,-0.12178 1.314829,-1.61588 2.921846,-3.32021 5.0154,-5.31912 5.886103,-7.13604 6.058846,-12.64318 0.05884,-1.87586 -0.02397,-4.40237 -0.186652,-5.69483 -0.160825,-1.27772 -0.233459,-2.38207 -0.161406,-2.45413 0.07205,-0.0721 1.371615,0.0477 2.887915,0.26623 2.562365,0.3692 4.728182,0.50913 3.489087,0.22543 -6.645589,-1.52157 -7.75061,-2.09064 -15.009636,-7.72969 -5.296891,-4.11479 -8.135288,-6.6241 -12.080927,-10.68022 -7.780733,-7.99859 -14.021366,-16.3914 -15.996523,-21.51315 -0.907807,-2.35402 -1.991344,-6.96047 -2.596601,-11.03894 -0.613301,-4.13268 -0.609288,-14.86938 0.0071,-19.03661 1.391838,-9.40962 4.031762,-18.28969 8.779207,-29.53116 1.832091,-4.3382 3.510206,-7.95907 8.709515,-18.79255 2.448044,-5.100835 6.844462,-14.332013 9.769818,-20.513725 2.925356,-6.181715 7.044135,-14.803103 9.152842,-19.158641 4.865311,-10.049312 6.508412,-13.7525 8.748663,-19.717539 3.088342,-8.223215 3.686102,-10.857964 3.515782,-15.496484 -0.0959,-2.611709 -0.21693,-3.286964 -1.007067,-5.618541 -0.493936,-1.45754 -1.501181,-3.815415 -2.23832,-5.239724 -1.289894,-2.49235 -1.725075,-4.146965 -1.019478,-3.876202 1.357034,0.520742 4.553845,0.711741 10.093175,0.603033 4.04855,-0.07945 9.25993,0.03314 15.70038,0.339217 5.30219,0.251979 13.29625,0.528776 17.76461,0.615103 4.46836,0.08633 8.16672,0.225619 8.21859,0.309538 0.0519,0.08392 -1.16473,2.070981 -2.70355,4.415695 -4.93118,7.513705 -6.47059,11.306881 -6.48447,15.977953 -0.008,2.73706 0.44152,4.518745 1.93751,7.677012 0.80713,1.703981 1.76088,3.177928 7.66648,11.847718 4.65735,6.837304 10.36493,16.383049 22.83762,38.195252 2.95514,5.167952 7.09907,12.251765 9.20873,15.741815 7.24708,11.98899 8.70481,15.85226 9.88656,26.20122 1.96803,17.23485 0.75933,31.04394 -3.94443,45.06404 -4.34892,12.96246 -9.96425,20.93618 -21.67971,30.78498 -9.80941,8.24645 -11.49739,9.54746 -13.76231,10.60734 l -1.6216,0.75885 -10.42823,-0.20853 c -5.73553,-0.11469 -11.08719,-0.20074 -11.89259,-0.19121 -0.80539,0.01 -5.91233,0.0643 -11.34875,0.12182 -10.80093,0.11418 -10.38439,0.25086 2.19654,0.72076 6.61624,0.24712 9.59717,0.2452 15.62571,-0.0101 10.04319,-0.42526 16.10197,-0.1047 16.10197,0.85195 0,0.17545 -0.23421,1.4019 -0.52047,2.72544 -0.3521,1.62794 -0.52541,3.31443 -0.53575,5.21312 -0.0231,4.24129 0.59396,5.4844 5.11696,10.30897 1.41702,1.51151 2.6794,2.94039 2.80528,3.1753 0.21655,0.40411 -0.35298,0.42452 -10.57933,0.37904 -5.94452,-0.0264 -18.33133,-0.12059 -27.52626,-0.20922 z m -14.58253,-23.33403 c -0.16779,-0.0677 -0.44236,-0.0677 -0.61015,0 -0.16779,0.0677 -0.0305,0.12311 0.30508,0.12311 0.33558,0 0.47286,-0.0554 0.30507,-0.12311 z m -2.68465,-0.24406 c -0.16779,-0.0677 -0.44236,-0.0677 -0.61015,0 -0.16779,0.0677 -0.0305,0.12311 0.30508,0.12311 0.33558,0 0.47286,-0.0554 0.30507,-0.12311 z m -1.830442,-0.25066 c -0.234907,-0.0614 -0.6193,-0.0614 -0.854207,0 -0.234907,0.0614 -0.04271,0.11162 0.427104,0.11162 0.469814,0 0.66201,-0.0502 0.427103,-0.11162 z"
     id="path9" />
  <path
     style="fill:#ff8080;stroke-width:0.244059"
     d="m 189.3857,122.43294 c -2.60145,-6.20679 -2.6416,-6.97389 -0.55785,-10.65791 1.42275,-2.51538 2.79701,-5.98265 3.62192,-9.13812 0.4027,-1.54043 0.5206,-2.735853 0.53216,-5.395672 0.0175,-4.02011 -0.35273,-5.4549 -2.46822,-9.565851 -1.67975,-3.264208 -5.57889,-9.786322 -7.04805,-11.789322 -4.71474,-6.427901 -9.46587,-9.567118 -14.47961,-9.567118 -1.74656,0 -2.79353,0.438854 -5.86063,2.456568 -1.26098,0.829544 -2.32238,1.478314 -2.35867,1.441711 -0.61627,-0.621619 -3.85274,-5.929052 -4.13651,-6.783395 -0.51452,-1.549072 -0.29969,-2.230595 1.09509,-3.474136 4.62477,-4.123302 10.39478,-5.199994 17.24078,-3.217157 6.68041,1.934876 10.83025,5.003178 15.88892,11.747919 5.57857,7.43793 8.96339,15.331783 10.48751,24.458264 0.66449,3.979003 0.60525,11.237669 -0.12122,14.851209 -0.93715,4.66154 -2.17788,7.7529 -4.62706,11.52866 -1.251,1.92858 -4.55125,5.62615 -5.45906,6.11627 -0.33382,0.18023 -0.61306,-0.30049 -1.7495,-3.01192 z"
     id="path11" />
</svg>
