<?xml version="1.0" encoding="UTF-8" standalone="no"?>
<svg
   xmlns:dc="http://purl.org/dc/elements/1.1/"
   xmlns:cc="http://creativecommons.org/ns#"
   xmlns:rdf="http://www.w3.org/1999/02/22-rdf-syntax-ns#"
   xmlns:svg="http://www.w3.org/2000/svg"
   xmlns="http://www.w3.org/2000/svg"
   xmlns:xlink="http://www.w3.org/1999/xlink"
   xmlns:sodipodi="http://sodipodi.sourceforge.net/DTD/sodipodi-0.dtd"
   xmlns:inkscape="http://www.inkscape.org/namespaces/inkscape"
   cursor="default"
   version="1.1"
   viewBox="0 0 256 256"
   id="svg25"
   sodipodi:docname="saiyanicon.svg"
   inkscape:version="1.0.2-2 (e86c870879, 2021-01-15)">
  <metadata
     id="metadata29">
    <rdf:RDF>
      <cc:Work
         rdf:about="">
        <dc:format>image/svg+xml</dc:format>
        <dc:type
           rdf:resource="http://purl.org/dc/dcmitype/StillImage" />
        <dc:title />
      </cc:Work>
    </rdf:RDF>
  </metadata>
  <sodipodi:namedview
     pagecolor="#ffffff"
     bordercolor="#666666"
     borderopacity="1"
     objecttolerance="10"
     gridtolerance="10"
     guidetolerance="10"
     inkscape:pageopacity="0"
     inkscape:pageshadow="2"
     inkscape:window-width="1920"
     inkscape:window-height="1001"
     id="namedview27"
     showgrid="false"
     inkscape:zoom="1.3865694"
     inkscape:cx="251.1851"
     inkscape:cy="236.82109"
     inkscape:window-x="-9"
     inkscape:window-y="-9"
     inkscape:window-maximized="1"
     inkscape:current-layer="svg25"
     inkscape:document-rotation="0" />
  <defs
     id="defs9">
    <linearGradient
       id="innoGrad1">
      <stop
         stop-color="#f55"
         offset="0"
         id="stop2" />
      <stop
         stop-color="#ff8080"
         offset="1"
         id="stop4" />
    </linearGradient>
    <linearGradient
       id="linearGradient828"
       x1="173.54"
       x2="139.41"
       y1="204.61"
       y2="178.91"
       gradientTransform="translate(-4.8814,-1.0847)"
       gradientUnits="userSpaceOnUse"
       xlink:href="#innoGrad1" />
    <linearGradient
       id="linearGradient830"
       x1="144.01"
       x2="119.27"
       y1="149.77"
       y2="137.3"
       gradientTransform="translate(-4.8814,-1.0847)"
       gradientUnits="userSpaceOnUse"
       xlink:href="#innoGrad1" />
  </defs>
  <path
     style="fill:#000000;stroke-width:0.925504"
     d="m 125.73098,242.49333 -1.60333,-6.81111 -8.08354,-0.57465 C 92.933762,233.4647 68.192777,222.90391 53.78996,208.53414 41.420318,196.19287 31.740302,174.63658 31.740302,159.43204 v -3.61515 l -5.473288,3.2126 c -5.286142,3.10276 -8.398916,4.01746 -8.398916,2.46806 0,-1.39119 31.451562,-41.39572 32.771928,-41.68395 1.103358,-0.24087 1.360465,3.75085 1.610757,25.00727 l 0.297827,25.29388 3.004609,6.35359 c 1.65254,3.49448 4.722274,8.40822 6.821647,10.91944 18.110571,21.6634 61.772474,30.84495 97.914544,20.59019 19.75083,-5.604 35.51242,-17.10583 41.83486,-30.52847 l 3.0186,-6.40855 0.28479,-25.70192 c 0.23516,-21.22365 0.5094,-25.70192 1.57396,-25.70192 0.70906,0 5.34222,5.31405 10.29591,11.80899 4.95369,6.49495 11.85696,15.46493 15.34061,19.9333 3.48363,4.46837 6.56996,8.74045 6.85851,9.4935 0.87563,2.28527 -2.20767,1.59882 -7.94523,-1.76889 l -5.34633,-3.13808 -0.57335,6.79297 c -1.60394,19.00295 -12.44263,38.99905 -27.73661,51.17077 -15.43517,12.28409 -37.40155,20.19476 -60.26038,21.70135 l -3.69597,0.2436 -1.83166,6.71491 c -2.48077,9.09464 -4.2188,9.06841 -6.37614,-0.0962 z m 5.07378,-4.05465 1.35893,-4.38241 9.20759,-1.11054 c 28.09084,-3.38808 45.49673,-11.00732 61.0775,-26.73601 7.28089,-7.35001 9.0298,-9.77114 13.09004,-18.12133 4.94095,-10.16145 7.1265,-17.62445 8.17942,-27.93024 0.45603,-4.46351 1.01215,-6.25181 1.94416,-6.25181 1.61645,0 6.60704,2.48934 9.0438,4.51111 1.00041,0.83004 0.13833,-0.57478 -1.91573,-3.12182 -2.05406,-2.54704 -8.28273,-10.62576 -13.8415,-17.95271 l -10.10685,-13.32175 -0.48225,22.5837 c -0.52315,24.49845 -0.83967,26.17579 -6.89132,36.51756 -8.03669,13.73405 -26.76239,24.72863 -49.76646,29.21979 -11.57193,2.25923 -31.8951,2.38263 -44.1953,0.26837 -27.916998,-4.79862 -48.389441,-19.12185 -55.551615,-38.86583 -1.838955,-5.06943 -1.984086,-7.18369 -1.926747,-28.06793 0.05003,-18.21002 -0.163479,-22.33697 -1.10198,-21.30249 -0.640203,0.70567 -6.087235,7.74325 -12.104517,15.63907 -6.017281,7.89581 -12.015216,15.59988 -13.328747,17.12013 -1.458107,1.68759 -1.667873,2.18199 -0.538611,1.26944 2.521994,-2.03802 7.483665,-4.49664 9.074502,-4.49664 0.929087,0 1.485824,1.76335 1.931159,6.11655 1.090753,10.66231 3.264935,18.14878 8.165041,28.11514 4.130098,8.40023 5.876433,10.80017 13.142056,18.06081 15.559999,15.54932 33.95175,23.60691 61.093429,26.76559 l 9.24813,1.07627 1.31907,4.39019 c 0.72548,2.41461 1.5888,4.39019 1.91847,4.39019 0.32966,0 1.21091,-1.97208 1.95833,-4.3824 z m -23.38945,-39.84342 c -0.18199,-2.9291 -0.17327,-6.47179 0.0193,-7.87266 l 0.35032,-2.54704 h 21.06078 21.06078 l 0.35028,2.54704 c 0.19264,1.40087 0.20137,4.94356 0.0193,7.87266 l -0.33085,5.32562 h -21.09951 -21.09953 z m 40.85152,-2.54704 v -6.02027 h -19.42109 -19.42109 v 6.02027 6.02027 h 19.42109 19.42109 z m -40.4966,-22.46024 0.2672,-8.1042 h 20.80831 20.80831 l 0.26721,8.1042 0.26721,8.10421 h -21.34273 -21.34273 z m 40.4966,-0.23154 v -5.55718 h -19.42109 -19.42109 v 5.55718 5.55717 h 19.42109 19.42109 z M 65.406368,111.27006 C 42.057884,85.782477 22.818329,64.084565 22.651798,63.052488 c -0.26568,-1.64659 0.07426,-1.81564 2.774441,-1.379679 1.692473,0.273264 10.360123,1.343714 19.261455,2.378793 34.625209,4.02631 44.424914,5.296133 44.95288,5.824888 1.166228,1.167979 -0.870545,2.420714 -10.941183,6.729457 -5.735917,2.454121 -10.594037,4.587621 -10.795804,4.741092 -0.201776,0.15347 10.528532,11.019658 23.845119,24.147091 l 24.211984,23.86803 -0.0312,-35.890064 -0.0312,-35.89007 h -12.89275 c -8.206299,0 -13.116413,-0.362327 -13.507942,-0.99678 -0.338324,-0.548234 0.602868,-2.527976 2.09154,-4.399428 1.488664,-1.87146 10.325332,-13.318391 19.637032,-25.437638 9.31171,-12.119244 17.35094,-21.8945929 17.86497,-21.7229958 1.76924,0.5906301 39.28945,50.2326018 38.84443,51.3940318 -0.32678,0.852859 -3.74708,1.16281 -12.83158,1.16281 h -12.38604 v 35.19542 c 0,19.357484 0.27837,35.195424 0.61861,35.195424 0.76329,0 46.54688,-45.555863 46.54688,-46.315352 0,-0.300578 -4.80046,-2.569618 -10.6677,-5.042309 -10.33963,-4.357526 -12.33482,-5.566989 -11.1466,-6.756983 0.31154,-0.312008 13.77458,-2.132602 29.91785,-4.04576 16.14327,-1.913158 31.06876,-3.731909 33.16774,-4.041675 2.71854,-0.4012 3.95049,-0.21309 4.2827,0.653912 0.27025,0.705335 -17.63133,20.973636 -42.57327,48.201767 l -43.03961,46.98465 h -20.98319 -20.98319 z m 89.103982,37.77375 c 12.699,-13.35574 77.10944,-84.241045 76.81457,-84.536362 -0.17671,-0.176959 -5.09954,0.241579 -10.93963,0.930094 -5.8401,0.688524 -18.62955,2.200733 -28.42102,3.360477 -9.79146,1.159745 -17.80266,2.378377 -17.80266,2.708066 0,0.329697 4.16166,2.379117 9.24814,4.554268 5.08647,2.175161 9.24813,4.441384 9.24813,5.036057 0,1.455192 -49.64762,51.04434 -51.10452,51.04434 -0.89496,0 -1.14745,-8.45809 -1.14745,-38.437105 V 55.266538 L 152.64265,54.803441 164.87938,54.340343 147.38289,31.64856 C 137.75982,19.168079 129.4181,8.9567756 128.84574,8.9567756 c -0.57236,0 -8.91407,10.2113034 -18.53715,22.6917844 l -17.496487,22.691783 12.236727,0.463098 12.23674,0.463097 0.24172,37.912834 c 0.18948,29.718978 -0.0104,38.071318 -0.92481,38.646148 -0.79118,0.49735 -9.27555,-7.37854 -26.367713,-24.47669 C 76.374122,93.483331 65.033595,81.66101 65.033595,81.077007 c 0,-0.584004 4.161661,-2.841493 9.248136,-5.016654 5.086476,-2.175151 9.248137,-4.21768 9.248137,-4.538949 0,-0.321279 -11.756694,-1.952586 -26.125986,-3.625128 -14.369293,-1.672552 -27.355573,-3.270572 -28.858404,-3.551144 -2.60582,-0.486512 -2.670085,-0.421789 -1.387221,1.396832 0.739861,1.048833 19.240342,21.497844 41.112185,45.442246 l 39.766988,43.53527 20.48442,0.0565 20.48443,0.0565 5.50407,-5.78872 z"
     id="path845" />
  <path
     style="fill:#ff0000;stroke-width:0.721204"
     d="M 83.375038,127.01771 C 43.707563,83.515009 30.826144,69.321217 28.674342,66.744057 l -2.001377,-2.397003 2.452694,0.417313 c 1.348983,0.229522 13.3196,1.740191 26.601373,3.357042 13.281774,1.61685 24.58204,3.182249 25.111704,3.478664 0.621388,0.347746 -1.738003,1.774566 -6.650777,4.021997 -4.187592,1.915684 -8.141736,4.06642 -8.786986,4.779415 -1.106208,1.222345 0.15936,2.630042 22.168342,24.657915 25.045105,25.06659 28.445885,28.10985 29.518375,26.41512 0.36729,-0.58039 0.65733,-17.45774 0.66355,-38.611274 l 0.011,-37.580194 -4.43302,-0.463342 c -2.43816,-0.254839 -7.7931,-0.463343 -11.89987,-0.463343 -4.106769,0 -7.466853,-0.175108 -7.466853,-0.38913 0,-1.050068 32.973683,-42.948814 34.582643,-43.943205 0.74512,-0.4605112 6.6446,6.682936 23.80655,28.82644 l 11.73811,15.145293 -10.3624,0.450277 c -5.69932,0.247651 -11.09262,0.491058 -11.98511,0.540903 l -1.62271,0.09063 0.008,35.87992 c 0.004,19.733955 0.2091,37.096945 0.45497,38.584435 0.2634,1.59354 0.85341,2.70452 1.43631,2.70452 1.36925,0 50.74871,-49.389812 50.74871,-50.759343 0,-1.27154 -3.74137,-3.51189 -11.68874,-6.999273 -3.18895,-1.399342 -5.18735,-2.645738 -4.68783,-2.9238 1.79839,-1.001103 52.16657,-6.900218 52.87417,-6.192616 0.2581,0.258102 -2.08765,3.30783 -5.21279,6.777173 -17.84717,19.8129 -51.35533,56.580069 -62.49385,68.572009 l -12.89517,13.88318 H 128.59621 108.5291 Z"
     id="path896" />
  <path
     style="fill:#ff0000;stroke-width:0.721204"
     d="m 109.82903,173.3551 v -5.04843 h 19.11192 19.11192 v 5.04843 5.04843 h -19.11192 -19.11192 z"
     id="path898" />
  <path
     style="fill:#ff0000;stroke-width:0.721204"
     d="M 109.82903,196.07304 V 190.664 h 19.11192 19.11192 v 5.40904 5.40903 h -19.11192 -19.11192 z"
     id="path900" />
  <path
     style="fill:#ff0000;stroke-width:0.721204"
     d="m 127.78882,239.88621 c -0.41571,-1.09083 -0.93314,-2.8662 -1.14984,-3.94529 -0.45153,-2.24838 -0.92067,-2.43463 -7.79489,-3.09453 -19.601702,-1.88171 -37.637687,-7.74925 -50.364226,-16.38467 -11.928606,-8.09401 -20.472823,-17.49518 -25.740271,-28.32193 -4.418671,-9.08217 -6.168663,-14.37267 -7.558962,-22.85193 -0.605784,-3.6946 -1.273145,-7.77221 -1.483025,-9.06137 -0.312402,-1.91887 -0.709123,-2.34391 -2.187747,-2.34391 -0.99338,0 -2.763655,0.49515 -3.933944,1.10033 -1.170289,0.60518 -2.127798,0.94683 -2.127798,0.75923 0,-0.18761 3.488826,-4.8332 7.752947,-10.32355 4.264122,-5.49035 9.524333,-12.30939 11.68936,-15.15343 2.165027,-2.84404 4.082291,-5.0251 4.260588,-4.84681 0.178297,0.1783 0.516603,10.63133 0.75179,23.22896 l 0.427612,22.90478 3.558525,7.16281 c 11.182676,22.50916 38.827035,35.74885 74.643281,35.74885 19.75029,0 35.005,-3.33597 49.81123,-10.89293 11.50107,-5.87005 19.53798,-13.22151 24.94662,-22.81898 4.07945,-7.23888 4.62211,-10.66237 5.32787,-33.61187 0.35192,-11.44335 0.7429,-20.90418 0.86887,-21.02407 0.30502,-0.29027 22.9715,29.42497 22.67286,29.7236 -0.12787,0.12787 -1.17326,-0.25813 -2.3231,-0.85777 -1.14984,-0.59965 -2.81465,-1.09227 -3.69958,-1.09471 -1.83007,-0.005 -1.84216,0.0313 -3.4498,10.38194 -3.96282,25.51426 -19.32623,46.07688 -43.35702,58.0297 -9.73835,4.84382 -22.87898,8.37639 -37.76814,10.15313 -10.23593,1.22146 -9.66182,0.94003 -11.0772,5.43013 -0.69134,2.19318 -1.4107,3.9876 -1.59858,3.9876 -0.18788,0 -0.68173,-0.89249 -1.09743,-1.98331 z"
     id="path902" />
</svg>
