<?xml version="1.0" encoding="UTF-8" standalone="no"?>
<!-- Created with Inkscape (http://www.inkscape.org/) -->

<svg
   viewBox="0 0 60.000002 59.999999"
   version="1.1"
   id="svg1"
   inkscape:version="1.3 (0e150ed6c4, 2023-07-21)"
   xml:space="preserve"
   sodipodi:docname="towads_enemy.svg"
   xmlns:inkscape="http://www.inkscape.org/namespaces/inkscape"
   xmlns:sodipodi="http://sodipodi.sourceforge.net/DTD/sodipodi-0.dtd"
   xmlns="http://www.w3.org/2000/svg"
   xmlns:svg="http://www.w3.org/2000/svg"
   xmlns:rdf="http://www.w3.org/1999/02/22-rdf-syntax-ns#"
   xmlns:cc="http://creativecommons.org/ns#"
   xmlns:dc="http://purl.org/dc/elements/1.1/"><metadata
     id="metadata7"><rdf:RDF><cc:Work
         rdf:about=""><dc:format>image/svg+xml</dc:format><dc:type
           rdf:resource="http://purl.org/dc/dcmitype/StillImage" /></cc:Work></rdf:RDF></metadata><sodipodi:namedview
     id="namedview1"
     pagecolor="#ffffff"
     bordercolor="#666666"
     borderopacity="1.0"
     inkscape:showpageshadow="2"
     inkscape:pageopacity="0.0"
     inkscape:pagecheckerboard="0"
     inkscape:deskcolor="#d1d1d1"
     inkscape:document-units="mm"
     inkscape:zoom="5.7941076"
     inkscape:cx="18.294448"
     inkscape:cy="40.299562"
     inkscape:window-width="1920"
     inkscape:window-height="1009"
     inkscape:window-x="-8"
     inkscape:window-y="-8"
     inkscape:window-maximized="1"
     inkscape:current-layer="layer1"
     showgrid="false" /><defs
     id="defs1" /><g
     inkscape:label="Layer 1"
     inkscape:groupmode="layer"
     id="layer1"><path
       d="m 36.938459,26.058875 h -0.871017 l -1.40248,-4.997266 0.693857,-0.221448 1.16628,4.473184 1.09984,-3.882666 h 0.878399 l 1.092459,3.882666 1.158897,-4.451036 0.649567,0.1993 -1.395098,4.997266 h -0.871015 l -1.092466,-3.882659 z m -21.768012,0 h -0.664333 v -5.167041 h 0.930065 l 2.280879,4.296025 v -4.296025 h 0.664333 v 5.167041 h -0.9153 l -2.295644,-4.266501 z m 40.753204,-0.435507 0.354311,-0.590519 c 0.177159,0.147627 0.37646,0.268192 0.597902,0.361693 0.127207,0.05286 0.260286,0.09023 0.39639,0.111386 0.125249,0.01976 0.251873,0.02941 0.378671,0.02889 0.112389,6.08e-4 0.224638,-0.0079 0.335634,-0.02563 0.119235,-0.01969 0.227105,-0.05069 0.323604,-0.093 0.06415,-0.02787 0.125219,-0.06233 0.182247,-0.102827 0.199205,-0.142317 0.302421,-0.332637 0.309657,-0.57096 2.95e-4,-0.009 3.65e-4,-0.01795 3.65e-4,-0.02691 4.47e-4,-0.07193 -0.0079,-0.143646 -0.02486,-0.213548 -0.01432,-0.05797 -0.03567,-0.113898 -0.06373,-0.1666 -0.02423,-0.04435 -0.05401,-0.08545 -0.08859,-0.122309 -0.06251,-0.06791 -0.146548,-0.134883 -0.252149,-0.200924 l -0.0026,-0.0013 c -0.153336,-0.09561 -0.371954,-0.198219 -0.655846,-0.307809 -0.03107,-0.01202 -0.06219,-0.02377 -0.09339,-0.03541 -0.354312,-0.137791 -0.637262,-0.27681 -0.848867,-0.417055 -0.08127,-0.05325 -0.157588,-0.113745 -0.228014,-0.1807 -0.08449,-0.0812 -0.152723,-0.167686 -0.204689,-0.259462 -0.0074,-0.01303 -0.01445,-0.02627 -0.02129,-0.03963 -0.09104,-0.179613 -0.136558,-0.392451 -0.136558,-0.638496 0,-0.246051 0.06767,-0.468728 0.202989,-0.668028 0.13533,-0.1993 0.33463,-0.359233 0.597901,-0.479798 0.139153,-0.06264 0.285394,-0.108126 0.435509,-0.135522 0.159587,-0.03024 0.333052,-0.04532 0.520393,-0.04532 0.305106,0 0.579448,0.03075 0.823038,0.09227 0.24359,0.0615 0.481025,0.148862 0.712311,0.262044 l -0.258349,0.597902 c -0.09776,-0.05702 -0.19955,-0.106835 -0.304564,-0.149029 -0.09244,-0.03732 -0.186638,-0.07009 -0.282268,-0.09825 -0.223903,-0.06643 -0.458883,-0.09965 -0.704927,-0.09965 -0.09954,-5.24e-4 -0.198969,0.0063 -0.297475,0.02059 -0.104917,0.01579 -0.200137,0.04058 -0.285661,0.07433 -0.06495,0.02531 -0.126855,0.05785 -0.184542,0.09699 -0.06009,0.04015 -0.113905,0.08902 -0.159658,0.144977 -0.07993,0.09881 -0.122693,0.222509 -0.120839,0.349588 -3.65e-4,0.0627 0.0068,0.12516 0.02154,0.186081 0.0131,0.05357 0.03318,0.105128 0.05963,0.153464 0.05196,0.09443 0.152627,0.186606 0.301981,0.27651 0.0063,0.0039 0.01272,0.0076 0.01911,0.01138 0.05344,0.03087 0.107973,0.05977 0.16357,0.08652 0.111661,0.0542 0.246492,0.112051 0.404508,0.173463 0.05036,0.01956 0.100916,0.03873 0.151616,0.05747 0.124099,0.04584 0.246652,0.0958 0.367447,0.14977 0.215837,0.09699 0.397227,0.197159 0.544165,0.300498 0.07929,0.05523 0.154301,0.11634 0.224402,0.182841 0.109392,0.104769 0.193291,0.214827 0.251708,0.330176 0.06779,0.135617 0.111283,0.282069 0.128509,0.432701 0.0079,0.06583 0.01183,0.132097 0.01176,0.198413 0.0013,0.136877 -0.01553,0.273312 -0.04921,0.405984 -0.03797,0.148203 -0.10259,0.288263 -0.190664,0.413366 -0.159933,0.226364 -0.381382,0.398594 -0.664334,0.516698 -0.175376,0.07212 -0.35915,0.121786 -0.54697,0.147853 -0.140349,0.01994 -0.281949,0.02972 -0.423697,0.02934 -0.359233,0 -0.68648,-0.048 -0.981736,-0.143939 -0.135944,-0.0436 -0.268385,-0.09748 -0.396167,-0.161136 -0.123363,-0.06136 -0.240382,-0.134715 -0.34937,-0.219012 z M 8.0030158,25.837433 7.3460653,26.147455 6.7038741,24.744969 C 6.6499264,24.627146 6.5859434,24.514188 6.5126212,24.40734 6.3893013,24.229938 6.2488324,24.093975 6.0912133,23.999438 5.8769046,23.870807 5.610284,23.798195 5.2913524,23.781614 c -0.048259,-0.0026 -0.09662,-0.0039 -0.1449692,-0.0039 H 5.0356617 v 2.280878 H 4.3344152 v -5.152276 c 0.260817,-0.02462 0.5105561,-0.04308 0.7492249,-0.05535 0.1553049,-0.0079 0.3107314,-0.01316 0.466215,-0.01586 0.099247,-0.0019 0.1985079,-0.0026 0.2977681,-0.0026 0.6298866,0 1.1035365,0.12794 1.4209343,0.383835 0.1411915,0.11081 0.2576137,0.249964 0.3417638,0.40849 0.089564,0.172678 0.1343453,0.366219 0.1343453,0.580631 0.00131,0.129973 -0.01502,0.259518 -0.048071,0.385235 -0.047687,0.181653 -0.141766,0.347786 -0.2730373,0.482086 -0.2140662,0.218988 -0.5228606,0.382608 -0.9263773,0.490869 0.08801,0.0388 0.1726654,0.08473 0.2531079,0.137445 0.034708,0.02288 0.06849,0.04724 0.1012037,0.07294 0.096889,0.07607 0.1905117,0.175971 0.2808613,0.299687 0.00636,0.0083 0.012147,0.01669 0.018089,0.02512 0.095963,0.13533 0.1931516,0.311256 0.2915742,0.527776 z m 42.4435712,0 -0.656951,0.310022 -0.642191,-1.402486 c -0.05394,-0.117823 -0.117931,-0.230781 -0.191253,-0.337629 -0.12332,-0.177402 -0.263789,-0.313365 -0.421407,-0.407902 -0.21431,-0.128631 -0.48093,-0.201243 -0.799862,-0.217824 -0.04826,-0.0026 -0.09663,-0.0039 -0.144969,-0.0039 h -0.110727 v 2.280878 h -0.70124 v -5.152276 c 0.260816,-0.02462 0.510555,-0.04308 0.749224,-0.05535 0.155305,-0.0079 0.310731,-0.01316 0.466215,-0.01586 0.09925,-0.0019 0.198508,-0.0026 0.297768,-0.0026 0.629887,0 1.103529,0.12794 1.420934,0.383835 0.141191,0.11081 0.257614,0.249964 0.341764,0.40849 0.08957,0.172678 0.134345,0.366219 0.134345,0.580631 0.0013,0.129973 -0.01501,0.259518 -0.04807,0.385235 -0.04769,0.181653 -0.141768,0.347786 -0.273045,0.482086 -0.214059,0.218988 -0.522853,0.382608 -0.926377,0.490869 0.08801,0.0388 0.172672,0.08473 0.253114,0.137445 0.03471,0.02288 0.06849,0.04724 0.101198,0.07294 0.0969,0.07607 0.190518,0.175971 0.280868,0.299687 0.0063,0.0083 0.01214,0.01669 0.01809,0.02512 0.09596,0.13533 0.19315,0.311256 0.291567,0.527776 z M 1.0865584,26.058875 H 0.38531801 V 20.891834 H 3.4486405 v 0.605283 H 1.0865584 v 1.579639 H 3.0574217 V 23.65251 H 1.0865584 Z M 46.039839,25.87434 45.397648,26.132689 44.821894,24.656396 h -2.391605 l -0.575755,1.461535 -0.597901,-0.243591 2.02253,-4.982506 h 0.767672 z M 21.407806,26.058875 H 20.70656 v -4.546998 h -1.587015 v -0.620043 h 3.875277 v 0.620043 h -1.587016 z m 6.23736,0 h -0.701247 v -4.546998 h -1.587016 v -0.620043 h 3.875278 v 0.620043 h -1.587015 z m 23.687202,-0.01477 v -5.137519 c 0.231286,-0.02462 0.45765,-0.04308 0.679098,-0.05535 0.10293,-0.0057 0.205937,-0.0098 0.308986,-0.0126 0.140349,-0.0039 0.290784,-0.0057 0.451304,-0.0057 0.181421,-6.4e-4 0.36264,0.01221 0.542099,0.0388 0.193594,0.02965 0.37237,0.07615 0.536335,0.139581 0.02326,0.009 0.04641,0.01847 0.06938,0.02825 0.193101,0.08115 0.374139,0.188447 0.538035,0.318881 0.09367,0.07525 0.180406,0.158751 0.259161,0.249497 0.209144,0.241129 0.364155,0.520393 0.465038,0.837797 0.0826,0.263297 0.131516,0.536002 0.145565,0.811597 0.0039,0.07017 0.0057,0.140456 0.0057,0.210742 0.0013,0.291339 -0.03541,0.581596 -0.109314,0.86341 -0.01387,0.05216 -0.02908,0.103901 -0.04571,0.155235 -0.103339,0.319865 -0.262044,0.601589 -0.476104,0.84518 -0.214065,0.24359 -0.48718,0.435508 -0.819343,0.57576 -0.308795,0.130357 -0.67396,0.200113 -1.095489,0.209259 -0.03222,6.39e-4 -0.06441,0.0013 -0.09663,0.0013 -0.100175,3.2e-5 -0.200349,-0.0013 -0.300497,-0.0032 -0.09911,-0.0019 -0.192782,-0.0057 -0.281016,-0.0098 -0.05101,-0.0026 -0.101996,-0.0057 -0.152946,-0.0092 -0.209138,-0.01477 -0.417055,-0.03196 -0.623731,-0.05165 z m -40.863343,0.04736 c 0.184337,0.03816 0.372165,0.05695 0.560407,0.05593 0.127423,2.93e-4 0.254725,-0.0079 0.38103,-0.02486 0.223154,-0.02876 0.44064,-0.09134 0.644996,-0.185494 0.300179,-0.140252 0.556067,-0.332169 0.767672,-0.575759 0.211605,-0.243585 0.372764,-0.527776 0.483487,-0.852563 0.110726,-0.324781 0.166087,-0.671716 0.166087,-1.040787 2.7e-5,-0.06839 -0.0019,-0.136774 -0.0057,-0.205059 -0.0149,-0.282191 -0.06883,-0.560963 -0.160252,-0.82835 -0.110722,-0.319866 -0.271882,-0.602824 -0.483486,-0.848875 -0.211605,-0.246045 -0.468721,-0.437962 -0.771367,-0.575753 -0.139554,-0.06328 -0.285309,-0.111815 -0.434914,-0.144899 -0.192946,-0.04212 -0.389939,-0.06284 -0.587418,-0.06181 -0.153931,-5.12e-4 -0.307657,0.01118 -0.45972,0.03509 -0.301144,0.04512 -0.5895547,0.152627 -0.8468044,0.315557 -0.3641555,0.233748 -0.6434251,0.551152 -0.8378043,0.952213 -0.092175,0.191062 -0.1623869,0.391967 -0.2092648,0.598861 -0.056053,0.25043 -0.083678,0.506395 -0.082302,0.763024 -6.6e-6,0.04577 6.391e-4,0.09154 0.00252,0.137293 0.010163,0.307523 0.065271,0.611906 0.163506,0.903494 0.010294,0.03024 0.021092,0.06034 0.032406,0.0902 0.1033513,0.278357 0.254782,0.536392 0.4473908,0.762361 0.2091441,0.24359 0.4638058,0.435507 0.7639897,0.575759 0.14881,0.06906 0.305036,0.120872 0.465621,0.154417 z m 20.860095,0 c 0.184329,0.03816 0.372157,0.05695 0.5604,0.05593 0.127428,2.93e-4 0.254725,-0.0079 0.381036,-0.02486 0.223155,-0.02876 0.440634,-0.09134 0.644991,-0.185494 0.300184,-0.140252 0.556072,-0.332169 0.767678,-0.575759 0.211598,-0.243585 0.372764,-0.527776 0.483486,-0.852563 0.11072,-0.324781 0.166081,-0.671716 0.166081,-1.040787 3.2e-5,-0.06839 -0.0019,-0.136774 -0.0057,-0.205059 -0.01489,-0.282191 -0.06883,-0.560963 -0.160251,-0.82835 -0.110722,-0.319866 -0.271888,-0.602824 -0.483487,-0.848875 -0.211605,-0.246045 -0.468726,-0.437962 -0.771365,-0.575753 -0.139556,-0.06328 -0.285311,-0.111815 -0.434921,-0.144899 -0.19294,-0.04212 -0.389933,-0.06284 -0.587418,-0.06181 -0.153925,-5.12e-4 -0.307651,0.01118 -0.459721,0.03509 -0.301138,0.04512 -0.589548,0.152627 -0.846804,0.315557 -0.364149,0.233748 -0.643418,0.551152 -0.837797,0.952213 -0.09219,0.191062 -0.162388,0.391967 -0.209267,0.598861 -0.05605,0.25043 -0.08367,0.506395 -0.0823,0.763024 -1.3e-5,0.04577 6.39e-4,0.09154 0.0026,0.137293 0.01017,0.307523 0.06526,0.611906 0.163499,0.903494 0.01029,0.03024 0.02109,0.06034 0.03241,0.0902 0.103346,0.278357 0.254777,0.536392 0.447392,0.762361 0.209143,0.24359 0.463804,0.435507 0.763983,0.575759 0.148811,0.06906 0.305036,0.120872 0.465626,0.154417 z m -20.299688,-0.54932 c 0.147647,0.0013 0.294936,-0.01477 0.439049,-0.04686 0.184343,-0.04072 0.358773,-0.117599 0.513158,-0.226243 0.234002,-0.167654 0.42034,-0.393322 0.5407,-0.65481 0.01362,-0.0287 0.02653,-0.05772 0.03873,-0.08704 0.08671,-0.210921 0.144382,-0.432645 0.1714,-0.659091 0.01636,-0.132748 0.02448,-0.266391 0.02423,-0.400148 0,-0.265733 -0.03937,-0.521627 -0.118104,-0.767679 -0.06901,-0.219645 -0.172122,-0.427063 -0.305591,-0.614654 -0.01112,-0.01547 -0.02244,-0.0308 -0.03394,-0.04602 -0.147628,-0.194381 -0.328475,-0.348158 -0.542535,-0.46134 -0.17023,-0.08893 -0.356222,-0.143646 -0.547488,-0.161063 -0.0597,-0.0057 -0.119619,-0.0088 -0.179588,-0.0087 -0.161818,-0.0013 -0.323042,0.01963 -0.47921,0.06201 -0.160092,0.0441 -0.31137,0.115534 -0.447166,0.211112 -0.2424278,0.17193 -0.4358161,0.404117 -0.5610721,0.673633 -0.010163,0.02135 -0.020007,0.04282 -0.029468,0.06451 -0.093007,0.216047 -0.1540331,0.444495 -0.1811473,0.678139 -0.014766,0.12279 -0.022056,0.246358 -0.02186,0.370036 0,0.265731 0.038161,0.522853 0.1144159,0.771366 0.067919,0.225616 0.1721605,0.438659 0.308616,0.63075 0.00899,0.01253 0.018023,0.02493 0.027232,0.03726 0.1476277,0.196839 0.3284745,0.35185 0.5425405,0.465039 0.170231,0.0889 0.356222,0.143587 0.547482,0.160987 0.0597,0.0057 0.119619,0.0088 0.179594,0.0088 z m 20.860088,0 c 0.147652,0.0013 0.294936,-0.01477 0.439049,-0.04686 0.18435,-0.04072 0.358773,-0.117599 0.513163,-0.226243 0.234003,-0.167654 0.42034,-0.393322 0.540694,-0.65481 0.01362,-0.0287 0.02653,-0.05772 0.03873,-0.08704 0.08671,-0.210921 0.14438,-0.432645 0.171399,-0.659091 0.01642,-0.132748 0.02448,-0.266391 0.02423,-0.400148 0,-0.265733 -0.03938,-0.521627 -0.118104,-0.767679 -0.069,-0.219645 -0.172122,-0.427063 -0.305592,-0.614654 -0.01112,-0.01547 -0.02244,-0.0308 -0.03394,-0.04602 -0.147629,-0.194379 -0.328476,-0.348156 -0.542541,-0.461338 -0.170224,-0.08893 -0.356222,-0.143646 -0.547482,-0.161063 -0.0597,-0.0057 -0.119625,-0.0088 -0.179594,-0.0087 -0.161812,-0.0013 -0.323035,0.01963 -0.479204,0.06201 -0.160098,0.0441 -0.311377,0.115534 -0.447173,0.211112 -0.242428,0.17193 -0.435816,0.404117 -0.561065,0.673633 -0.01017,0.02135 -0.02,0.04282 -0.02947,0.06451 -0.09301,0.216047 -0.154027,0.444495 -0.181141,0.678139 -0.01477,0.12279 -0.02205,0.246358 -0.02186,0.370036 0,0.265731 0.03817,0.522853 0.114411,0.771366 0.06793,0.225616 0.172166,0.438659 0.30862,0.63075 0.009,0.01253 0.01802,0.02493 0.02723,0.03726 0.147635,0.196839 0.328475,0.35185 0.542542,0.465039 0.170229,0.0889 0.356229,0.143587 0.547488,0.160987 0.0597,0.0057 0.119618,0.0088 0.179587,0.0088 z m 20.144088,-4.067201 v 3.993387 c 0.103339,0.01477 0.211606,0.02462 0.324787,0.02953 0.08761,0.0039 0.1753,0.0057 0.263004,0.0068 0.03043,3.25e-4 0.06085,5.04e-4 0.09131,5.17e-4 0.152358,6.4e-4 0.304532,-0.01087 0.454991,-0.03484 0.242561,-0.04008 0.452587,-0.114557 0.630085,-0.223506 0.280497,-0.172238 0.48718,-0.412134 0.62005,-0.719701 0.08112,-0.190608 0.137056,-0.390982 0.166376,-0.596054 0.02244,-0.153368 0.03342,-0.308187 0.03292,-0.463184 0,-0.354312 -0.06644,-0.686482 -0.199301,-0.996504 -0.132868,-0.310022 -0.337091,-0.559761 -0.612667,-0.749218 -0.158054,-0.10684 -0.334554,-0.183423 -0.520541,-0.225878 -0.139803,-0.03342 -0.291178,-0.05248 -0.454108,-0.0572 -0.02697,-6.39e-4 -0.05394,-0.0013 -0.08089,-0.0013 -0.142714,0 -0.273116,0.0039 -0.391219,0.01107 -0.118104,0.0074 -0.226371,0.01599 -0.324787,0.02582 z m -8.407517,0.11072 -0.974354,2.480187 h 1.941326 z M 5.0356617,21.452802 v 1.73465 h 0.8119615 c 0.1218619,6.38e-4 0.2435199,-0.01 0.3633877,-0.03189 0.1933499,-0.03656 0.3600966,-0.104667 0.5002465,-0.204318 0.221442,-0.157472 0.3321692,-0.383836 0.3321692,-0.679099 0.00318,-0.210019 -0.084969,-0.411078 -0.241596,-0.55103 -0.021926,-0.02032 -0.04474,-0.0397 -0.068424,-0.05791 -0.096845,-0.07328 -0.20591,-0.128803 -0.3221349,-0.164016 -0.094919,-0.03004 -0.199716,-0.0512 -0.3143743,-0.06341 -0.082816,-0.0086 -0.1660177,-0.01272 -0.2492731,-0.01246 -0.1561929,0 -0.2973788,0.0019 -0.423549,0.0063 -0.00889,3.06e-4 -0.017836,6.27e-4 -0.026717,6.39e-4 -0.1328622,0.0051 -0.2534271,0.01226 -0.3616875,0.02211 z m 42.4435653,0 v 1.73465 h 0.811967 c 0.121856,6.38e-4 0.24352,-0.01 0.363388,-0.03189 0.19335,-0.03656 0.360096,-0.104667 0.500246,-0.204318 0.221442,-0.157472 0.332163,-0.383836 0.332163,-0.679099 0.0032,-0.210019 -0.08496,-0.411078 -0.241596,-0.55103 -0.02192,-0.02032 -0.04474,-0.0397 -0.06842,-0.05791 -0.09684,-0.07328 -0.205903,-0.128803 -0.322129,-0.164016 -0.09493,-0.03004 -0.199716,-0.0512 -0.314374,-0.06341 -0.08281,-0.0086 -0.166024,-0.01272 -0.249273,-0.01246 -0.156193,0 -0.297379,0.0019 -0.423549,0.0063 -0.0089,3.06e-4 -0.01784,6.27e-4 -0.02671,6.39e-4 -0.132861,0.0051 -0.253427,0.01226 -0.361693,0.02211 z M 33.382535,37.440829 h -0.66434 v -5.167043 h 0.981744 l 1.432005,3.27 1.409869,-3.27 h 1.003879 v 5.167043 h -0.70124 V 33.16695 l -1.380338,3.107606 H 34.770249 L 33.382535,33.16695 Z m -9.300681,0 H 23.41752 v -5.167043 h 0.930065 l 2.280886,4.296027 v -4.296027 h 0.664332 v 5.167043 h -0.915305 l -2.295644,-4.266502 z m -1.660836,0 h -3.100223 v -5.167043 h 3.100223 v 0.605285 h -2.398983 v 1.572256 h 2.066819 v 0.590519 h -2.066819 v 1.793705 h 2.398983 z m 9.300681,0 H 28.62147 v -5.167043 h 3.100229 v 0.605285 h -2.398983 v 1.572256 h 2.066814 v 0.590519 h -2.066814 v 1.793705 h 2.398983 z m 9.057085,0 h -0.701239 v -1.963475 l -1.793706,-2.915688 0.59052,-0.354312 1.579639,2.620426 1.550113,-2.590901 0.553613,0.324787 -1.77894,2.915688 z"
       vector-effect="non-scaling-stroke"
       id="path1"
       style="font-size:12px;fill:#ff2a2a;fill-rule:evenodd;stroke:#000000;stroke-width:0.0184537mm;stroke-linecap:round"
       sodipodi:nodetypes="ccccccccccccccccccccccccccccccccccccccccscccscssccssccccccccccccccccccccccccccccccccccccccccccccccccccccccccccccccccccccccccccccccccccccccccccccccccccccccccccccccccccccccccccccccccccccccccscccccccccccsscccsccccccccccccccccccsscccsccccccccccccccccccccccccccccccccccccccccccccccccccccccccccccccccccccccccccsccccsccccccccccccccccscccccccccccccccc" /></g></svg>
