<?xml version="1.0" encoding="UTF-8" standalone="no"?>
<svg
   xmlns:dc="http://purl.org/dc/elements/1.1/"
   xmlns:cc="http://creativecommons.org/ns#"
   xmlns:rdf="http://www.w3.org/1999/02/22-rdf-syntax-ns#"
   xmlns:svg="http://www.w3.org/2000/svg"
   xmlns="http://www.w3.org/2000/svg"
   xmlns:xlink="http://www.w3.org/1999/xlink"
   xmlns:sodipodi="http://sodipodi.sourceforge.net/DTD/sodipodi-0.dtd"
   xmlns:inkscape="http://www.inkscape.org/namespaces/inkscape"
   version="1.1"
   viewBox="0 0 64 64"
   id="svg34"
   sodipodi:docname="icon_item.svg"
   inkscape:version="1.0.2-2 (e86c870879, 2021-01-15)">
  <metadata
     id="metadata38">
    <rdf:RDF>
      <cc:Work
         rdf:about="">
        <dc:format>image/svg+xml</dc:format>
        <dc:type
           rdf:resource="http://purl.org/dc/dcmitype/StillImage" />
      </cc:Work>
    </rdf:RDF>
  </metadata>
  <sodipodi:namedview
     pagecolor="#ffffff"
     bordercolor="#666666"
     borderopacity="1"
     objecttolerance="10"
     gridtolerance="10"
     guidetolerance="10"
     inkscape:pageopacity="0"
     inkscape:pageshadow="2"
     inkscape:window-width="1528"
     inkscape:window-height="1040"
     id="namedview36"
     showgrid="false"
     inkscape:zoom="9.1429868"
     inkscape:cx="20.952732"
     inkscape:cy="25.7161"
     inkscape:window-x="8"
     inkscape:window-y="1"
     inkscape:window-maximized="0"
     inkscape:current-layer="svg34"
     inkscape:document-rotation="0" />
  <defs
     id="defs14">
    <linearGradient
       id="linearGradient859">
      <stop
         stop-color="#c9c8b9"
         offset="0"
         id="stop2" />
      <stop
         stop-color="#e3e2db"
         offset="1"
         id="stop4" />
    </linearGradient>
    <linearGradient
       id="linearGradient853"
       x1="23.797"
       x2="39.593"
       y1="49.085"
       y2="44.678"
       gradientUnits="userSpaceOnUse">
      <stop
         stop-color="#7ef6de"
         offset="0"
         id="stop7" />
      <stop
         stop-color="#afe"
         offset="1"
         id="stop9" />
    </linearGradient>
    <linearGradient
       id="linearGradient861"
       x1="30.106"
       x2="35.794"
       y1="10.883"
       y2="10.492"
       gradientUnits="userSpaceOnUse"
       xlink:href="#linearGradient859" />
    <linearGradient
       id="linearGradient869"
       x1="29.387"
       x2="36.05"
       y1="5.418"
       y2="4.3633"
       gradientUnits="userSpaceOnUse"
       xlink:href="#linearGradient859" />
  </defs>
  <path
     style="fill:#000000;stroke-width:0.156402"
     d="M 28.61789,62.581739 C 20.864696,61.801143 13.334433,57.83534 8.3342809,51.899403 1.3355459,43.590846 -0.84300112,32.36003 2.55249,22.093196 6.3699399,10.550501 16.588396,2.3040986 28.595385,1.0763039 37.690121,0.14630673 46.767635,3.3586676 53.268676,9.8077148 60.713392,17.192891 63.935524,27.843718 61.819194,38.071637 58.612021,53.571442 44.271798,64.157783 28.61789,62.581739 Z m 2.967412,-2.995285 c -6.25e-4,-0.107643 -1.429625,-4.493634 -3.175721,-9.746646 l -3.174723,-9.550931 -10.104012,-0.04029 c -5.5572076,-0.02216 -10.104012,-0.0019 -10.104012,0.04504 0,0.04693 0.245075,0.721296 0.544612,1.498585 3.6914294,9.579158 12.260046,16.351971 22.44002,17.737061 2.14345,0.291637 3.57515,0.314542 3.573836,0.05717 z M 36.4295,59.372077 c 8.697132,-1.478295 16.315273,-7.101049 20.233245,-14.933639 0.640799,-1.281046 1.79549,-4.046555 1.79549,-4.300231 0,-0.0463 -4.423324,-0.08419 -9.82961,-0.08419 h -9.829611 l -3.215775,9.668369 c -1.768678,5.317605 -3.215777,9.764772 -3.215777,9.882596 0,0.251573 1.828562,0.146729 4.062038,-0.232905 z M 33.764328,46.175798 c 1.036206,-3.177758 1.884011,-5.865956 1.884011,-5.973774 0,-0.154661 -0.7987,-0.17256 -3.784516,-0.08481 -2.081483,0.06117 -3.808372,0.135132 -3.837531,0.164353 -0.06122,0.06135 3.718949,11.67197 3.800145,11.67197 0.02963,0 0.901684,-2.599982 1.937891,-5.777739 z M 12.057282,34.833055 c 9.327801,-6.44254 9.244179,-6.382543 9.171833,-6.580651 -0.03539,-0.09691 -1.451494,-4.350811 -3.146899,-9.453122 -1.695406,-5.102311 -3.119458,-9.2769274 -3.164561,-9.2769274 -0.242198,0 -2.241167,1.7699684 -3.511622,3.1093334 -1.9848646,2.092523 -3.36434,4.070997 -4.655105,6.676455 -1.306041,2.63629 -1.905388,4.326979 -2.464331,6.951583 -0.383814,1.802256 -0.420678,2.278022 -0.425846,5.495942 -0.0045,2.774907 0.05376,3.822076 0.274201,4.932038 0.434044,2.185508 0.718457,3.081561 0.936911,2.951768 0.104126,-0.06186 3.247564,-2.224753 6.985419,-4.806419 z m 46.702103,4.164097 c 1.21468,-4.543749 1.223103,-9.575796 0.02385,-14.247801 -1.223276,-4.765584 -3.741715,-9.121789 -7.358868,-12.728805 -1.772462,-1.767496 -2.461793,-2.3030402 -2.574891,-2.000452 -0.721692,1.930849 -6.151507,18.362389 -6.088675,18.425359 0.214271,0.214738 15.631231,11.123786 15.730473,11.13089 0.06113,0.0044 0.181784,-0.25626 0.268113,-0.579191 z M 24.087158,37.040123 c 0,-0.274569 -1.73172,-5.490857 -1.875425,-5.649155 -0.09182,-0.101149 -7.550358,5.090458 -8.193738,5.703354 -0.08848,0.08429 1.914869,0.141388 4.960371,0.141388 3.9811,0 5.108792,-0.04317 5.108792,-0.195587 z m 13.909225,-3.654158 c 0.712571,-2.14244 1.220663,-3.908327 1.145682,-3.98184 -0.0741,-0.07265 -1.711009,-1.234102 -3.637566,-2.581004 -2.18503,-1.527606 -3.603838,-2.422442 -3.771313,-2.378551 -0.147664,0.0387 -1.852241,1.208239 -3.787949,2.598977 l -3.519468,2.528614 1.083526,3.244626 c 0.59594,1.784546 1.155203,3.508845 1.242805,3.831776 l 0.15928,0.587147 h 4.902294 4.902295 z m 12.324761,3.78987 c -0.609646,-0.560751 -8.494687,-5.877841 -8.57896,-5.785019 -0.143805,0.158391 -1.875577,5.374552 -1.875577,5.649307 0,0.152528 1.15795,0.195587 5.259817,0.195587 2.892898,0 5.230522,-0.02694 5.19472,-0.05987 z M 26.382094,24.931941 c 1.444507,-0.997372 2.716581,-1.900552 2.826832,-2.007069 0.160974,-0.155523 -0.683708,-0.819346 -4.288828,-3.370521 -2.469104,-1.747273 -4.577429,-3.210757 -4.685166,-3.252189 -0.111608,-0.04292 0.27315,1.328548 0.894266,3.187623 0.599585,1.794626 1.372825,4.161292 1.71831,5.259257 0.345488,1.097966 0.69117,1.996301 0.768185,1.996301 0.07701,0 1.321894,-0.816031 2.766401,-1.813402 z m 15.575395,-3.581594 c 0.905376,-2.751962 1.619461,-5.030303 1.586853,-5.062983 -0.03261,-0.03268 -1.031623,0.635719 -2.220034,1.485329 -1.188409,0.84961 -3.197736,2.279962 -4.46517,3.178561 -2.097856,1.487362 -2.551446,1.879774 -2.172835,1.879774 0.07238,0 1.319169,0.843082 2.770653,1.873516 1.451484,1.030435 2.687512,1.823084 2.746727,1.761443 0.05922,-0.06164 0.848428,-2.36368 1.753806,-5.11564 z m -8.122624,-1.631739 c 0.868519,-0.592336 2.422779,-1.65473 3.453912,-2.360873 1.031132,-0.706144 3.998575,-2.734218 6.594317,-4.506832 2.595742,-1.772614 4.684939,-3.2790261 4.642659,-3.3475842 C 48.340954,9.2036557 45.736523,7.5959915 44.162992,6.8102716 37.542677,3.5045143 29.618389,2.9770028 22.67021,5.3795205 20.672374,6.0703256 18.013976,7.3651337 16.379912,8.4432927 15.378614,9.1039522 15.194111,9.2864032 15.364403,9.4475089 15.753728,9.8158308 31.948627,20.795583 32.102571,20.795583 c 0.08424,0 0.863776,-0.484639 1.732294,-1.076975 z"
     id="path25" />
</svg>
