<?xml version="1.0" encoding="UTF-8" standalone="no"?>
<svg
   xmlns:dc="http://purl.org/dc/elements/1.1/"
   xmlns:cc="http://creativecommons.org/ns#"
   xmlns:rdf="http://www.w3.org/1999/02/22-rdf-syntax-ns#"
   xmlns:svg="http://www.w3.org/2000/svg"
   xmlns="http://www.w3.org/2000/svg"
   xmlns:xlink="http://www.w3.org/1999/xlink"
   xmlns:sodipodi="http://sodipodi.sourceforge.net/DTD/sodipodi-0.dtd"
   xmlns:inkscape="http://www.inkscape.org/namespaces/inkscape"
   cursor="default"
   version="1.1"
   viewBox="0 0 256 256"
   id="svg25"
   sodipodi:docname="saitamaicon.svg"
   inkscape:version="1.0.2-2 (e86c870879, 2021-01-15)">
  <metadata
     id="metadata29">
    <rdf:RDF>
      <cc:Work
         rdf:about="">
        <dc:format>image/svg+xml</dc:format>
        <dc:type
           rdf:resource="http://purl.org/dc/dcmitype/StillImage" />
        <dc:title />
      </cc:Work>
    </rdf:RDF>
  </metadata>
  <sodipodi:namedview
     pagecolor="#ffffff"
     bordercolor="#666666"
     borderopacity="1"
     objecttolerance="10"
     gridtolerance="10"
     guidetolerance="10"
     inkscape:pageopacity="0"
     inkscape:pageshadow="2"
     inkscape:window-width="1920"
     inkscape:window-height="1017"
     id="namedview27"
     showgrid="false"
     inkscape:zoom="2.7731388"
     inkscape:cx="36.014574"
     inkscape:cy="135.55065"
     inkscape:window-x="-8"
     inkscape:window-y="-8"
     inkscape:window-maximized="1"
     inkscape:current-layer="svg25"
     inkscape:document-rotation="0" />
  <defs
     id="defs9">
    <linearGradient
       id="innoGrad1">
      <stop
         stop-color="#f55"
         offset="0"
         id="stop2" />
      <stop
         stop-color="#ff8080"
         offset="1"
         id="stop4" />
    </linearGradient>
    <linearGradient
       id="linearGradient828"
       x1="173.54"
       x2="139.41"
       y1="204.61"
       y2="178.91"
       gradientTransform="translate(-4.8814,-1.0847)"
       gradientUnits="userSpaceOnUse"
       xlink:href="#innoGrad1" />
    <linearGradient
       id="linearGradient830"
       x1="144.01"
       x2="119.27"
       y1="149.77"
       y2="137.3"
       gradientTransform="translate(-4.8814,-1.0847)"
       gradientUnits="userSpaceOnUse"
       xlink:href="#innoGrad1" />
  </defs>
  <path
     style="fill:#000000;stroke-width:0.30514"
     d="m 124.17616,249.45505 c -2.91797,-0.35097 -4.24699,-0.83559 -6.16646,-2.24861 -2.5914,-1.9077 -14.74822,-13.6993 -21.233412,-20.59554 -8.349582,-8.87878 -9.825909,-10.58556 -12.178269,-14.07929 -4.125371,-6.12696 -10.322994,-19.99982 -14.155965,-31.68696 l -1.99327,-6.07766 -2.687944,-0.12862 c -4.043448,-0.19338 -3.18424,0.73268 -10.848569,-11.69217 -6.291539,-10.19939 -9.135709,-15.20187 -10.500963,-18.46965 -3.021703,-7.23254 -3.303336,-16.14368 -0.736036,-23.28868 1.1003,-3.06225 3.266727,-7.28852 4.39467,-8.57317 0.82679,-0.94167 1.133753,-1.08466 2.328506,-1.08466 h 1.376166 l -0.175326,-1.29686 c -0.09644,-0.71325 -0.337451,-4.93563 -0.53561,-9.38306 -0.437466,-9.818533 -0.202537,-22.938647 0.490762,-27.408351 0.928397,-5.985343 2.927576,-11.495401 7.603478,-20.956393 1.829657,-3.702054 2.475066,-5.294498 2.254017,-5.561435 -0.561888,-0.678533 -3.41337,-1.840637 -5.739792,-2.339198 -3.809927,-0.816487 -8.357586,-1.078984 -15.333304,-0.885098 -4.377642,0.121751 -6.636803,0.07987 -6.636803,-0.123124 0,-0.364658 3.833379,-0.698741 8.04706,-0.701304 5.702083,-0.0023 12.793525,-1.47987 16.437849,-3.422256 3.212643,-1.712319 4.853471,-4.19684 6.003906,-9.091048 1.054632,-4.486639 1.324647,-7.545244 1.399551,-15.853492 0.04875,-5.4082168 0.180704,-8.1090749 0.399714,-8.1820798 0.43336,-0.1444077 0.600365,1.097567 0.80693,6.0011808 0.329286,7.816781 1.538001,16.415057 2.950414,20.987906 l 0.623502,2.018687 2.949078,-2.888543 C 82.241027,23.707694 90.515333,17.512078 98.366458,13.691385 110.36289,7.8534012 128.59032,5.117642 142.02687,7.1383882 c 10.94171,1.645538 17.03117,3.9801598 26.37327,10.1111468 13.22793,8.681191 18.85184,14.515009 24.14494,25.046197 4.05621,8.070216 8.73046,22.807832 10.05478,31.701973 0.65455,4.396012 1.16295,18.426466 0.92739,25.593367 -0.17713,5.389908 -0.15036,5.894948 0.30365,5.720718 0.27387,-0.10505 1.02422,-0.27525 1.66741,-0.37809 1.07796,-0.17233 1.28658,-0.0774 2.66708,1.21389 2.60918,2.44056 3.6488,5.08322 4.95243,12.58873 1.5829,9.11341 1.60059,14.95508 0.0593,19.54484 -1.35301,4.02877 -11.26057,22.92155 -15.33749,29.24711 -0.97529,1.51322 -2.20115,3.16097 -2.72418,3.66169 -0.93633,0.89642 -1.00186,0.91038 -4.27227,0.91038 h -3.32133 l -1.27941,3.66169 c -2.92541,8.37258 -6.13433,15.62836 -9.44653,21.35982 -6.66472,11.53265 -19.95911,29.02516 -32.84696,43.21936 -5.46684,6.021 -6.97571,7.07145 -12.40717,8.63762 -2.73702,0.78923 -4.05389,0.87434 -7.36552,0.47604 z m 7.90001,-1.25671 c 3.87055,-1.15144 5.57453,-2.22399 8.85557,-5.57398 8.52642,-8.7056 21.87882,-25.35339 29.74448,-37.08542 7.30932,-10.90221 10.42498,-17.10288 14.65534,-29.16646 l 1.71207,-4.88224 2.78801,0.10985 c 3.64797,0.14395 4.54035,-0.17897 6.00738,-2.17356 3.73878,-5.08308 16.13839,-28.5445 17.21353,-32.56981 1.49038,-5.58009 -0.36811,-22.17338 -3.0503,-27.23442 -1.01907,-1.92286 -3.26425,-4.20279 -4.11793,-4.18164 -0.29746,0.007 -1.05731,0.19773 -1.68858,0.42294 -0.63125,0.2252 -1.19957,0.32221 -1.26294,0.21536 -0.0634,-0.10665 -0.12129,-5.7553 -0.12862,-12.552279 C 202.78588,76.920782 202.22179,72.10823 199.0481,61.486919 194.00905,44.622847 188.7408,34.606607 181.30749,27.7577 176.65779,23.473552 167.13215,16.80194 160.94569,13.496583 152.48261,8.9748602 138.96299,6.3363193 128.55385,7.1748682 112.85346,8.4396372 102.6544,11.356901 92.998754,17.344762 c -6.140663,3.80806 -14.883755,10.969629 -20.651407,16.915815 -1.683992,1.736119 -1.696442,2.166299 -0.108065,3.734621 2.592878,2.560113 8.7957,4.299207 16.984724,4.762021 2.021462,0.114199 3.675384,0.304515 3.675384,0.422833 0,0.118318 -2.368653,0.293438 -5.263672,0.389145 -7.489337,0.247599 -12.164093,1.206022 -14.9107,3.056958 -3.388051,2.283197 -5.03459,7.938807 -5.370304,18.446171 -0.09786,3.062839 -0.294809,5.568804 -0.437661,5.568804 -0.142851,0 -0.260911,-1.132834 -0.262344,-2.517408 -0.0082,-7.932193 -1.407922,-15.441553 -3.563951,-19.120539 l -0.817456,-1.394873 -2.844527,5.795028 c -5.411196,11.023982 -7.15676,16.656088 -7.720291,24.909639 -0.388024,5.683095 -0.385895,14.612273 0.0055,22.842203 0.171573,3.60827 0.342843,7.58314 0.380588,8.83301 l 0.06863,2.27249 -1.378663,-0.0789 c -1.605905,-0.092 -2.074486,0.29444 -3.761358,3.10151 -2.739075,4.558 -4.471912,10.94011 -4.471912,16.47017 0,5.54019 1.09667,10.04867 3.714635,15.27101 2.292656,4.57344 14.938508,25.22763 16.076623,26.25762 0.476088,0.43084 1.32572,0.61022 3.596246,0.75918 l 2.972885,0.19498 2.47161,7.32337 c 4.893841,14.50043 10.321105,26.16212 15.233045,32.73164 2.810539,3.75897 10.756705,12.26355 19.829247,21.22271 11.98857,11.83873 13.21679,12.76688 17.61506,13.31137 2.9196,0.36143 5.32498,0.17324 8.0157,-0.62725 z M 67.899529,54.300611 c 1.128538,-5.156773 2.835837,-7.648779 6.285444,-9.174351 1.729519,-0.76488 6.925458,-1.927465 8.845167,-1.979095 l 1.17263,-0.03158 -1.220561,-0.288723 C 82.310901,42.668034 80.608158,42.263898 79.198341,41.928694 76.198158,41.215375 73.33354,39.875588 71.880705,38.506186 70.59038,37.289958 69.361102,34.643109 68.523798,31.278181 67.816031,28.43383 66.669535,20.839451 66.661971,18.945421 c -0.0089,-2.25633 -0.275141,-0.921073 -0.604681,3.033866 -0.567472,6.810436 -1.757886,11.695741 -3.536467,14.513179 -1.510447,2.392705 -4.886829,4.366513 -9.358064,5.470625 -4.724223,1.16659 -4.587079,1.079808 -2.055716,1.301019 5.507119,0.48126 9.600578,1.895769 11.468017,3.96279 1.819385,2.013858 3.436356,6.480129 3.974909,10.979264 l 0.228375,1.907783 0.258371,-1.525687 c 0.142119,-0.839143 0.530374,-2.768599 0.862821,-4.287695 z"
     id="path853" />
  <path
     style="font-variation-settings:normal;opacity:1;vector-effect:none;fill:#ff5555;fill-opacity:1;stroke-width:0.183896;stroke-linecap:butt;stroke-linejoin:miter;stroke-miterlimit:4;stroke-dasharray:none;stroke-dashoffset:0;stroke-opacity:1;stop-color:#000000;stop-opacity:1"
     d="m 122.72027,248.63871 c -2.05101,-0.44617 -3.20828,-1.06151 -5.62129,-2.98897 -2.3666,-1.89038 -15.76323,-15.0693 -21.588343,-21.2375 -8.858957,-9.38073 -10.94022,-12.25175 -15.342004,-21.16369 -3.283287,-6.64742 -5.741746,-12.69266 -8.917863,-21.92865 -1.205673,-3.50604 -2.238313,-6.50753 -2.294757,-6.67 -0.05893,-0.16961 -0.951275,-0.36488 -2.095716,-0.45859 -3.577264,-0.29294 -3.978827,-0.40051 -4.797916,-1.2853 -1.110276,-1.19933 -6.658865,-10.05991 -12.454936,-19.88937 -5.781667,-9.80503 -7.246746,-14.43553 -6.978504,-22.05614 0.137322,-3.90124 0.530428,-6.21529 1.624356,-9.56191 1.283321,-3.92601 3.824181,-8.44253 5.068466,-9.00946 0.359074,-0.1636 1.121142,-0.29746 1.693486,-0.29746 h 1.040624 l -0.158197,-3.63353 c -0.372373,-8.552796 -0.483721,-27.376502 -0.182127,-30.789349 0.739701,-8.370492 2.305036,-13.221945 8.175969,-25.339828 2.637696,-5.444329 2.359021,-5.290663 3.843142,-2.119169 1.566712,3.347987 2.611235,9.055713 2.995221,16.367181 l 0.20087,3.824764 0.185708,-2.804827 c 0.570686,-8.619285 0.738267,-10.405286 1.172342,-12.49423 1.191585,-5.734402 3.022742,-8.294653 6.995716,-9.781133 2.768096,-1.035679 4.884369,-1.321494 14.826134,-2.00235 l 2.549843,-0.174626 -2.549843,-0.208858 c -7.503527,-0.614617 -11.574152,-1.462926 -15.070422,-3.140649 -2.530826,-1.214442 -3.925906,-2.495289 -3.925906,-3.60444 0,-0.8193 3.218863,-4.175752 7.954178,-8.294177 14.984283,-13.032218 24.947869,-17.705558 42.876179,-20.110721 14.88779,-1.997264 29.3078,0.2877812 40.26356,6.380304 6.67906,3.714245 16.16776,10.62022 20.33421,14.799454 6.53073,6.550771 11.36472,15.793711 15.93661,30.471929 1.50069,4.818015 2.80153,10.001651 3.29542,13.13169 0.72665,4.605113 0.93343,8.592149 1.08897,20.996486 l 0.15617,12.454509 0.78949,-0.17125 c 2.56357,-0.5561 2.56647,-0.55543 4.06497,0.94308 0.76615,0.76614 1.7521,2.10438 2.19101,2.97385 2.86557,5.67667 4.55928,22.11936 2.84224,27.59273 -0.64725,2.06319 -5.831,12.551 -9.69273,19.61039 -4.36464,7.97875 -6.64986,11.71663 -8.05043,13.16791 -1.14727,1.18882 -1.4155,1.33828 -2.67899,1.49276 -0.77224,0.0944 -2.30184,0.13325 -3.39912,0.0863 l -1.99505,-0.0854 -1.61319,4.50587 c -4.43246,12.38044 -7.3356,18.20331 -14.28028,28.64208 -8.90186,13.38069 -25.67395,34.04839 -32.35092,39.86499 -4.05974,3.53663 -10.68697,5.17851 -16.12635,3.99527 z"
     id="path857" />
  <path
     style="font-variation-settings:normal;opacity:1;vector-effect:none;fill:#ffff00;fill-opacity:1;stroke-width:0.0919478;stroke-linecap:butt;stroke-linejoin:miter;stroke-miterlimit:4;stroke-dasharray:none;stroke-dashoffset:0;stroke-opacity:1;stop-color:#000000;stop-opacity:1"
     d="m 66.567144,58.642204 c -0.591111,-5.178642 -2.357769,-9.845455 -4.46594,-11.797249 -2.032951,-1.882155 -6.079537,-3.137059 -11.649415,-3.61265 -1.680948,-0.143531 -1.527273,-0.243867 1.54846,-1.011015 5.524438,-1.377905 8.651383,-3.062987 10.370154,-5.588385 1.295289,-1.903174 2.33704,-5.139246 3.027071,-9.403225 0.187371,-1.15784 1.024545,-8.703522 1.024545,-9.23451 0,-0.03329 0.05737,-0.06053 0.127492,-0.06053 0.07023,0 0.127492,0.329616 0.127492,0.733861 0,1.395431 0.68051,6.454496 1.350405,10.039225 1.042922,5.580856 2.53003,8.885784 4.681762,10.404683 1.938013,1.368035 3.904167,2.137334 7.974792,3.120304 3.412796,0.824118 3.694671,0.924541 2.630765,0.937254 -2.13235,0.02548 -7.372776,1.215081 -9.350309,2.122558 -2.675364,1.227707 -4.278445,3.175527 -5.365325,6.519123 -0.367347,1.130078 -1.217231,4.930305 -1.547699,6.920476 -0.08733,0.525905 -0.196662,1.030471 -0.242968,1.121257 -0.04631,0.09078 -0.154883,-0.454243 -0.241282,-1.211177 z"
     id="path859" />
</svg>
