<?xml version="1.0" encoding="UTF-8" standalone="no"?>
<svg
   xmlns:dc="http://purl.org/dc/elements/1.1/"
   xmlns:cc="http://creativecommons.org/ns#"
   xmlns:rdf="http://www.w3.org/1999/02/22-rdf-syntax-ns#"
   xmlns:svg="http://www.w3.org/2000/svg"
   xmlns="http://www.w3.org/2000/svg"
   xmlns:xlink="http://www.w3.org/1999/xlink"
   xmlns:sodipodi="http://sodipodi.sourceforge.net/DTD/sodipodi-0.dtd"
   xmlns:inkscape="http://www.inkscape.org/namespaces/inkscape"
   cursor="default"
   version="1.1"
   viewBox="0 0 256 256"
   id="svg25"
   sodipodi:docname="cyborgicon.svg"
   inkscape:version="1.0.2-2 (e86c870879, 2021-01-15)">
  <metadata
     id="metadata29">
    <rdf:RDF>
      <cc:Work
         rdf:about="">
        <dc:format>image/svg+xml</dc:format>
        <dc:type
           rdf:resource="http://purl.org/dc/dcmitype/StillImage" />
        <dc:title />
      </cc:Work>
    </rdf:RDF>
  </metadata>
  <sodipodi:namedview
     pagecolor="#ffffff"
     bordercolor="#666666"
     borderopacity="1"
     objecttolerance="10"
     gridtolerance="10"
     guidetolerance="10"
     inkscape:pageopacity="0"
     inkscape:pageshadow="2"
     inkscape:window-width="1920"
     inkscape:window-height="1017"
     id="namedview27"
     showgrid="false"
     inkscape:zoom="1.2935704"
     inkscape:cx="63.19352"
     inkscape:cy="14.464879"
     inkscape:window-x="-8"
     inkscape:window-y="-8"
     inkscape:window-maximized="1"
     inkscape:current-layer="svg25"
     inkscape:document-rotation="0" />
  <defs
     id="defs9">
    <linearGradient
       id="innoGrad1">
      <stop
         stop-color="#f55"
         offset="0"
         id="stop2" />
      <stop
         stop-color="#ff8080"
         offset="1"
         id="stop4" />
    </linearGradient>
    <linearGradient
       id="linearGradient828"
       x1="173.54"
       x2="139.41"
       y1="204.61"
       y2="178.91"
       gradientTransform="translate(-4.8814,-1.0847)"
       gradientUnits="userSpaceOnUse"
       xlink:href="#innoGrad1" />
    <linearGradient
       id="linearGradient830"
       x1="144.01"
       x2="119.27"
       y1="149.77"
       y2="137.3"
       gradientTransform="translate(-4.8814,-1.0847)"
       gradientUnits="userSpaceOnUse"
       xlink:href="#innoGrad1" />
  </defs>
  <path
     style="fill:#000000;stroke-width:0.382924"
     d="M 117.10999,248.71816 C 98.977097,247.62531 85.469313,243.60979 73.328887,235.70318 57.038972,225.09415 36.935726,205.08611 27.368039,189.95999 24.838753,185.96128 19.484341,175.34197 17.618128,170.62309 13.731794,160.79621 10.70259,150.96675 9.5448541,144.42626 8.608861,139.13842 7.6479395,130.90213 7.5912475,127.68128 7.5303624,124.2185 8.3297087,115.39999 8.9981808,112.16125 9.6743785,108.88497 13.241813,98.243208 16.164698,90.783235 23.984667,70.824707 29.928256,60.578697 40.672346,48.535256 44.033949,44.767131 60.779038,28.87383 65.644875,24.833043 74.021283,17.876952 82.756711,14.054087 95.130108,11.929486 105.64261,10.124387 120.66516,9.2412086 135.91162,9.5319061 c 14.56529,0.2777163 19.8863,0.9594569 33.5535,4.2990319 12.81941,3.132422 18.96467,6.128398 28.28888,13.791531 4.48715,3.687769 14.50262,13.784524 18.66048,18.811937 17.147,20.732975 29.22896,44.141217 33.68407,65.261354 1.18886,5.63595 1.24317,6.26692 1.24871,14.50803 0.005,7.89848 -0.0854,9.09401 -1.08913,14.35968 -3.51701,18.44996 -12.65083,39.61907 -24.11238,55.88429 -4.57961,6.49896 -8.6269,11.28975 -14.59865,17.28044 -13.34923,13.39156 -26.83569,22.47498 -40.82786,27.4984 -11.44194,4.10785 -21.78442,6.69041 -29.99184,7.48907 -4.62954,0.45049 -16.16407,0.45172 -23.61741,0.003 z m 28.94913,-1.46951 c 14.11376,-2.41314 32.24818,-8.94784 41.19539,-14.84464 l 1.64975,-1.08732 -1.4652,-0.12177 -1.46518,-0.12177 0.26422,-2.91608 c 0.35069,-3.86996 1.66707,-7.18978 7.09822,-17.90107 10.32384,-20.36074 21.77427,-37.69426 36.7649,-55.65427 5.46085,-6.54256 8.42024,-9.42598 12.59295,-12.26969 2.80378,-1.91079 3.65606,-2.32759 3.91381,-1.91409 0.74712,1.19863 0.84019,4.13261 0.25971,8.18712 -0.33169,2.31671 -0.5563,4.26049 -0.49914,4.31951 0.22992,0.23751 2.54039,-9.20611 3.30525,-13.50971 1.01769,-5.7261 1.39068,-15.86694 0.76107,-20.69182 -1.63548,-12.53322 -5.52218,-24.320771 -12.6847,-38.470089 C 228.66574,62.307 215.63611,44.890768 201.77469,32.165845 c -9.45558,-8.680315 -17.1323,-13.2946 -26.75952,-16.084457 -3.65799,-1.060032 -12.87682,-3.234893 -13.57091,-3.20155 -0.24813,0.01149 2.13365,0.921863 5.29278,2.022131 6.13256,2.13586 12.17842,5.087264 12.36076,6.034142 0.0612,0.317033 -0.28912,1.17086 -0.77818,1.897403 -1.09785,1.630915 -3.24606,2.458579 -12.37141,4.766612 -7.79332,1.971096 -13.02671,2.696117 -23.74699,3.289832 -22.99744,1.273676 -51.038061,-1.684649 -60.293741,-6.361082 -1.772962,-0.895786 -2.929491,-2.39758 -2.569264,-3.336272 0.234925,-0.611953 8.06621,-4.696853 11.962624,-6.239801 1.474252,-0.583808 4.058996,-1.465177 5.743875,-1.958604 3.023686,-0.885505 3.036096,-0.894235 0.957303,-0.672579 -3.64334,0.388487 -11.019968,2.059839 -14.479418,3.2807 C 77.302529,17.797399 71.3652,21.13459 66.410706,25.220438 62.261274,28.642352 45.291972,44.612046 42.191601,48.01288 31.160203,60.113386 25.13258,70.283978 17.366919,89.900344 12.865158,101.27195 10.080212,109.9977 9.3243468,115.09915 c -1.564172,10.55704 -0.55213,24.70461 2.6093562,36.47654 0.438803,1.63384 0.845613,2.9228 0.904086,2.86432 0.05859,-0.0586 -0.221427,-3.20201 -0.621775,-6.98567 -0.400405,-3.78369 -0.582285,-7.02516 -0.404167,-7.20328 0.742568,-0.74254 3.974358,1.66093 9.363663,6.96373 10.066658,9.90509 14.351445,15.27076 24.961731,31.25843 7.875455,11.86684 13.608905,21.75366 19.54138,33.69742 3.674902,7.39857 4.557965,9.53345 5.521012,13.34747 0.630534,2.49712 1.14642,4.71334 1.14642,4.92491 0,0.64432 -2.675842,-0.0324 -5.663633,-1.43266 -1.535424,-0.71954 -2.692527,-1.14777 -2.571331,-0.95168 0.362553,0.58662 7.803168,5.90393 11.298345,8.0742 9.247896,5.74226 20.995843,9.63181 33.505946,11.0932 11.30541,1.32066 29.48739,1.3318 37.14371,0.023 z M 123.27509,238.57 c -7.04242,-0.88717 -12.76504,-2.00593 -16.76536,-3.27763 -6.764189,-2.15033 -16.298532,-7.41476 -19.487618,-10.76017 -2.759242,-2.89448 -8.268279,-10.23524 -9.335835,-12.43991 -2.826101,-5.83632 -3.748166,-14.11655 -2.332875,-20.94932 0.908595,-4.38654 2.919583,-8.8576 5.544562,-12.32733 1.851223,-2.44692 6.622429,-6.94581 10.213586,-9.63055 5.259465,-3.93194 18.69094,-9.10505 27.71603,-10.67474 5.54951,-0.9652 17.27795,-0.57102 23.77939,0.79915 19.68865,4.1494 32.85441,13.46516 39.43534,27.90343 2.9243,6.41573 3.53056,13.76818 1.61639,19.60286 -1.88865,5.75695 -7.02462,13.31433 -11.77891,17.33232 -6.92691,5.8541 -12.84623,9.15315 -20.41272,11.37669 -11.34106,3.3328 -19.184,4.17996 -28.19198,3.0452 z m 17.99749,-1.29493 c 5.60553,-1.18464 13.10629,-3.32395 16.26504,-4.63892 3.34268,-1.39157 9.53047,-5.42403 13.60311,-8.8649 5.74534,-4.85409 11.21936,-13.6994 12.48244,-20.17002 1.01862,-5.21822 0.0144,-11.44897 -2.73259,-16.94724 -7.05213,-14.11753 -19.22469,-22.51562 -38.52216,-26.57722 -3.7923,-0.79817 -6.22231,-1.03899 -12.21943,-1.21093 -9.39732,-0.26939 -12.57225,0.21425 -21.85599,3.32858 -11.916097,3.99756 -16.300828,6.50284 -23.120013,13.20985 -7.321028,7.20063 -10.234293,14.5855 -9.641582,24.44053 0.53395,8.87787 2.57317,13.08604 11.212043,23.13722 2.10424,2.44821 5.301338,4.76006 10.109823,7.31051 7.246269,3.84346 13.076129,5.61567 22.784029,6.92605 3.15913,0.42643 6.26082,0.85308 6.89265,0.94811 2.51122,0.37775 11.23189,-0.14962 14.74263,-0.89162 z M 56.746206,141.90102 C 45.958836,139.0742 37.341387,132.12891 32.92676,122.70356 30.132221,116.73716 29.76177,114.81543 29.557058,105.22322 29.300882,93.217059 29.80146,90.394921 34.123065,79.486958 39.335201,66.33113 43.771569,60.239406 53.774211,52.503297 c 3.539289,-2.737329 6.224751,-4.382777 11.24105,-6.887738 8.895682,-4.442169 15.965099,-5.68793 25.902663,-4.564456 2.948532,0.333345 6.57981,0.990933 8.069512,1.461327 3.415454,1.07847 9.368894,4.562217 12.167504,7.119964 5.32369,4.86555 9.56246,14.292024 11.00639,24.476747 0.54503,3.84426 0.25158,11.611845 -0.63002,16.674094 -1.43714,8.252742 -6.31206,19.230145 -11.73307,26.420705 -5.93589,7.87356 -14.77985,15.7182 -22.200074,19.69167 -3.586418,1.92046 -9.692416,4.03119 -14.489815,5.00883 -5.025545,1.02416 -12.446833,1.02261 -16.362145,-0.003 z m 18.652372,-1.30963 c 7.707361,-1.94999 12.411479,-4.21638 19.130578,-9.21688 8.615264,-6.41172 16.257804,-15.33876 20.326254,-23.74257 7.35259,-15.18749 8.78161,-29.318484 4.33714,-42.887613 -1.86449,-5.692294 -5.03525,-11.173071 -8.23043,-14.226515 -3.21358,-3.071049 -9.76973,-6.756319 -13.725934,-7.715459 -5.630174,-1.365004 -15.501885,-1.664977 -20.571802,-0.625135 -1.637952,0.33593 -4.701246,1.284933 -6.807324,2.108892 -13.501093,5.281866 -25.673627,15.769492 -31.300527,26.967951 -2.171817,4.322295 -6.318923,15.031376 -7.266059,18.763315 -0.80285,3.163238 -0.873385,4.264195 -0.858939,13.402384 0.01436,9.68808 0.04337,10.04509 1.039009,13.26398 1.367703,4.42147 2.568259,7.05989 4.536627,9.96999 3.622691,5.35597 8.011729,9.05516 14.249692,12.01013 5.905363,2.79741 8.221294,3.26864 15.196569,3.09219 4.807537,-0.12149 6.697243,-0.34294 9.945146,-1.16466 z m 110.027482,1.50935 c -9.77763,-1.77363 -21.79712,-8.52894 -30.47614,-17.12847 -8.47244,-8.3949 -15.11119,-20.86988 -17.93565,-33.703246 -4.57006,-20.764682 3.15525,-39.548301 19.59664,-47.648026 4.88711,-2.407631 7.84231,-3.001461 14.91273,-2.996608 6.85012,0.0057 11.3702,0.735762 17.00905,2.751 4.15348,1.484418 10.66968,4.941341 14.13914,7.500984 6.50569,4.799696 13.8874,13.076878 18.17313,20.377687 3.67831,6.266051 7.81687,17.737488 8.58405,23.793628 0.38652,3.051175 0.33256,4.49217 -0.42192,11.267151 -0.87817,7.88574 -1.6721,11.28563 -3.71295,15.90037 -3.70056,8.36762 -11.18802,15.23908 -19.8241,18.19315 -5.96327,2.03979 -14.26472,2.74072 -20.04398,1.69238 z m 13.34293,-0.94507 c 2.39027,-0.41141 5.29757,-1.0779 6.46065,-1.48109 9.3904,-3.2552 16.56354,-10.35178 20.26733,-20.05103 1.45217,-3.80285 2.07326,-7.01307 2.92187,-15.10243 0.65097,-6.205281 0.65317,-6.768612 0.0411,-10.497621 -1.05209,-6.40936 -4.92992,-16.68027 -8.68265,-22.997039 -3.7983,-6.393449 -10.66729,-14.232086 -16.23962,-18.532008 -10.03343,-7.74237 -22.34984,-11.759636 -34.31155,-11.191509 -12.23353,0.58105 -22.52638,7.552592 -28.31834,19.180549 -3.17084,6.365793 -3.9274,9.563695 -4.13337,17.471747 -0.1996,7.66319 0.19816,10.731884 2.38517,18.399411 2.36828,8.30314 8.12913,18.91604 13.78682,25.39881 8.15547,9.34477 22.69566,17.9974 33.1284,19.71416 3.5521,0.58452 8.14115,0.47174 12.69421,-0.31195 z m -7.54423,88.20564 c 6.33067,-3.09983 20.76706,-16.1311 28.606,-25.82171 8.79955,-10.87812 16.96561,-25.04984 22.47978,-39.01231 1.76687,-4.4739 2.17839,-6.05869 3.18184,-12.25358 1.03827,-6.40982 1.23248,-10.34971 0.5441,-11.03809 -0.2002,-0.20017 -1.34545,0.56029 -5.4813,3.63975 -5.51039,4.10291 -19.64625,21.5592 -29.37757,36.27817 -7.83671,11.85329 -15.11325,24.6727 -20.21403,35.61202 -2.99413,6.42128 -3.56881,8.06084 -3.92593,11.20056 l -0.27226,2.39327 h 1.21046 c 0.66577,0 2.12773,-0.44914 3.24885,-0.99808 z m -120.956209,-4.4814 c -0.665686,-2.37119 -2.540717,-6.64228 -5.74758,-13.09239 C 58.874542,200.43067 54.609399,192.8989 48.294209,183.13297 37.400463,166.28661 31.273701,158.37072 21.760869,148.8514 c -6.873724,-6.87841 -9.836758,-9.04692 -9.362429,-6.85196 0.102528,0.47387 0.542796,4.48022 0.978641,8.90301 0.853195,8.65791 0.984644,9.1802 4.674336,18.57187 5.336174,13.58251 11.74855,24.04877 21.583901,35.22911 3.971746,4.51485 16.536041,17.0122 18.969032,18.86794 1.926294,1.46925 8.218278,4.84918 10.48685,5.6333 1.858977,0.64257 1.918282,0.64047 2.039995,-0.0718 0.06893,-0.4035 -0.319245,-2.31731 -0.862644,-4.25291 z M 142.6128,30.082456 c 11.51715,-0.62726 18.67083,-1.764921 27.50885,-4.374736 5.89336,-1.740279 6.99512,-2.257257 7.69492,-3.610542 l 0.59995,-1.160148 -2.41587,-1.351017 c -4.29665,-2.402835 -14.87506,-5.974204 -22.28302,-7.522982 -1.26365,-0.264219 -2.473,-0.612125 -2.68742,-0.773183 -0.21453,-0.161116 -2.97147,-0.502331 -6.12679,-0.758364 -6.06782,-0.492365 -28.13797,-0.243253 -34.07338,0.384638 -3.53455,0.373869 -11.627065,2.196831 -16.082847,3.622892 -3.017717,0.965775 -14.742631,6.487505 -14.742631,6.942851 0,2.057312 5.606453,4.331226 14.551159,5.901774 5.276553,0.926487 15.503439,2.219088 21.060869,2.661941 5.74071,0.457471 18.94266,0.475507 26.99621,0.03676 z m 18.08522,-17.455808 c -0.12723,-0.127227 -0.4575,-0.140725 -0.73393,-0.03015 -0.30548,0.122344 -0.21482,0.213098 0.23148,0.231478 0.40368,0.01723 0.62985,-0.07381 0.50259,-0.201035 z"
     id="path849" />
  <path
     style="font-variation-settings:normal;opacity:1;vector-effect:none;fill:#cccccc;fill-opacity:1;stroke-width:0.278765;stroke-linecap:butt;stroke-linejoin:miter;stroke-miterlimit:4;stroke-dasharray:none;stroke-dashoffset:0;stroke-opacity:1;stop-color:#000000;stop-opacity:1"
     d="m 117.00123,248.00832 c -6.66561,-0.41863 -11.34772,-1.02756 -16.73694,-2.1767 -13.566498,-2.8928 -23.315778,-7.61791 -35.946826,-17.42209 -0.08858,-0.0687 -0.08796,-0.1981 0.0015,-0.28744 0.08934,-0.0893 1.333638,0.33719 2.765106,0.94786 1.431465,0.61067 3.202288,1.22279 3.935163,1.36028 l 1.332498,0.24998 -0.565338,-2.45406 C 70.6363,223.23447 69.440989,220.17531 65.616856,212.43691 59.21824,199.48886 53.521175,189.68471 44.893714,176.77418 35.491096,162.70367 30.740965,156.84824 21.145744,147.50036 c -5.655599,-5.50981 -8.650162,-7.86439 -9.2452,-7.26935 -0.128714,0.12872 0.03836,3.09952 0.371268,6.60179 0.332911,3.50227 0.600004,6.60716 0.59354,6.89977 -0.04934,2.23333 -2.280142,-6.71552 -3.2879756,-13.1897 C 8.637768,134.50667 8.3989529,120.87191 9.1475219,115.9984 10.562651,106.78531 17.562169,87.434392 24.450639,73.691306 31.926325,58.776675 39.013643,50.170389 58.873875,31.890428 c 6.904638,-6.355237 8.877549,-7.986556 12.56213,-10.387099 6.364749,-4.146698 12.521967,-6.55958 21.246784,-8.326155 6.58702,-1.333722 7.322961,-1.156828 2.331369,0.560375 -6.881709,2.36744 -15.654347,6.847386 -15.654347,7.994249 0,1.991713 5.788641,4.469944 14.301502,6.122753 11.143577,2.163576 21.913867,3.060475 36.913337,3.073971 12.15849,0.01094 19.8044,-0.477408 27.25016,-1.740478 5.81897,-0.987107 15.87193,-3.613351 18.11679,-4.732844 1.78479,-0.890065 3.42423,-2.966676 2.94908,-3.735483 -0.44864,-0.725927 -6.43512,-3.548195 -11.98248,-5.64903 -2.97626,-1.127136 -5.06129,-2.056631 -4.6334,-2.065545 1.59151,-0.03315 14.42528,3.392376 17.96858,4.79609 7.91961,3.137433 15.29097,8.301595 24.26081,16.996411 24.81009,24.049395 43.5738,58.857972 46.11602,85.549867 0.41431,4.35006 -0.0201,14.33857 -0.82063,18.86702 -0.5967,3.37563 -3.13158,13.76801 -3.31381,13.58578 -0.0861,-0.0861 0.0488,-2.22702 0.29988,-4.75754 0.49758,-5.01535 0.26888,-7.4999 -0.69038,-7.4999 -1.11864,0 -6.51459,4.04208 -9.80546,7.34522 -1.80702,1.81376 -5.4597,5.96613 -8.11707,9.2275 -13.93001,17.09617 -24.28183,32.88414 -33.88738,51.68298 -6.43518,12.59417 -7.33934,14.87981 -8.05237,20.35564 -0.23903,1.83571 -0.23889,1.836 0.92138,1.836 0.63825,0 1.25021,0.14522 1.3599,0.32271 0.20222,0.32719 -4.09078,3.00612 -7.77419,4.85128 -9.00582,4.51134 -25.39716,9.72836 -35.28414,11.23021 -4.84007,0.73521 -20.97904,1.08341 -28.45471,0.61391 z m 22.85007,-9.91081 c 7.41056,-1.19893 14.90866,-3.45506 20.09941,-6.04778 9.99518,-4.99248 18.02413,-12.97174 22.23065,-22.09309 1.90472,-4.13015 2.31382,-6.00038 2.31382,-10.57772 0,-8.45618 -3.74098,-16.8189 -10.8243,-24.19705 -5.70613,-5.94365 -12.87271,-10.24771 -22.22377,-13.34703 -6.29466,-2.08631 -11.20721,-3.01801 -18.59027,-3.52578 -10.48294,-0.72096 -17.25874,0.32985 -27.98624,4.34019 -10.089031,3.77167 -14.190165,6.3154 -20.704286,12.84187 -3.474516,3.4811 -4.101474,4.33154 -5.865495,7.95626 -2.764546,5.68061 -3.355457,8.29964 -3.313932,14.68803 0.05571,8.57132 1.552061,12.85022 7.04303,20.13988 4.03043,5.35069 5.925259,7.25966 9.583432,9.65494 3.75515,2.45878 10.585411,5.81163 14.434291,7.08553 4.79674,1.58762 14.99592,3.3767 21.82132,3.82777 2.76084,0.18245 8.42208,-0.17001 11.98234,-0.74602 z M 72.161841,141.89314 c 9.737201,-1.69802 17.306063,-5.33353 25.65189,-12.32122 10.325909,-8.64555 17.501719,-19.05486 21.563749,-31.280627 1.99224,-5.996203 2.48102,-8.897205 2.74757,-16.307273 0.27255,-7.577025 -0.17726,-10.849908 -2.41708,-17.586982 -2.52192,-7.585598 -5.90339,-12.73298 -10.70699,-16.29851 -6.55308,-4.864111 -12.199409,-6.701748 -21.97609,-7.152281 -8.254842,-0.380402 -13.594289,0.774191 -21.773318,4.708224 -11.3903,5.478623 -20.422948,13.461977 -25.876936,22.870889 -3.378952,5.82918 -7.982848,17.545253 -9.161796,23.315101 -0.736911,3.606487 -0.607514,19.713079 0.188442,23.456259 0.734267,3.45307 2.888533,8.4114 5.090452,11.71636 1.696586,2.54649 5.834102,6.88779 8.307585,8.71676 3.573609,2.64244 9.221867,5.18381 13.721711,6.17392 3.177264,0.6991 10.601858,0.69372 14.640811,-0.0106 z m 128.760739,-0.37662 c 10.66851,-2.23922 19.51502,-9.2794 24.12735,-19.2009 1.80864,-3.89055 2.87054,-8.11444 3.72597,-14.82081 1.28739,-10.092762 0.77204,-14.70231 -2.72431,-24.367605 -4.01308,-11.093714 -8.96419,-18.658621 -17.83791,-27.254918 -4.39852,-4.260997 -7.97247,-6.782358 -13.67696,-9.648845 -8.06425,-4.052267 -13.87523,-5.404856 -23.18346,-5.396291 -6.54461,0.006 -9.56096,0.544917 -13.6659,2.44152 -8.92039,4.121471 -15.73657,11.503587 -19.15171,20.74184 -1.95451,5.287141 -2.50801,8.74969 -2.50236,15.654347 0.006,7.417138 0.68092,11.516748 3.08593,18.746563 5.85048,17.587369 17.35877,30.962829 33.73715,39.210849 3.25325,1.63831 9.77935,3.89753 12.82804,4.44084 2.97139,0.52954 11.58276,0.22065 15.23817,-0.54659 z"
     id="path851" />
  <path
     style="font-variation-settings:normal;opacity:1;vector-effect:none;fill:#00ffff;fill-opacity:1;stroke-width:0.139382;stroke-linecap:butt;stroke-linejoin:miter;stroke-miterlimit:4;stroke-dasharray:none;stroke-dashoffset:0;stroke-opacity:1;stop-color:#000000;stop-opacity:1"
     d="m 68.572233,229.03269 c -2.890671,-1.19167 -7.483363,-3.67697 -9.634779,-5.21378 -0.653389,-0.46673 -3.405678,-2.98086 -6.116199,-5.58694 -19.484203,-18.73347 -27.821106,-30.6625 -35.750718,-51.15464 -1.697366,-4.38643 -2.571171,-7.25348 -2.976937,-9.76766 -0.246377,-1.52659 -1.491891,-12.75657 -1.713944,-15.45351 -0.160566,-1.95015 3.006315,0.51089 10.587887,8.22804 8.489563,8.64136 13.503148,15.04723 22.747291,29.06425 7.878087,11.94565 12.271947,19.51819 18.197929,31.363 3.119083,6.2344 5.203082,10.83149 6.020626,13.28088 0.767468,2.29936 1.369129,5.1066 1.192896,5.56586 -0.182275,0.475 -0.804676,0.39568 -2.554052,-0.3255 z"
     id="path855" />
  <path
     style="font-variation-settings:normal;opacity:1;vector-effect:none;fill:#00ffff;fill-opacity:1;stroke-width:0.0269375;stroke-linecap:butt;stroke-linejoin:miter;stroke-miterlimit:4;stroke-dasharray:none;stroke-dashoffset:0;stroke-opacity:1;stop-color:#000000;stop-opacity:1"
     d="m 121.20679,237.51128 c -11.18038,-1.64453 -15.43755,-2.82403 -22.321937,-6.18457 -6.958015,-3.39648 -10.126624,-5.78146 -14.126572,-10.63292 -5.793052,-7.02629 -7.960733,-11.18596 -8.913099,-17.10383 -0.449782,-2.79487 -0.442895,-9.24398 0.01249,-11.69244 1.115693,-5.99879 4.014267,-11.17152 9.139221,-16.30966 6.760293,-6.77768 11.348056,-9.41458 23.363407,-13.42857 7.60539,-2.54075 10.2033,-3.10005 15.26229,-3.28582 3.87983,-0.14248 10.95369,0.0415 13.81834,0.35947 5.04664,0.56008 12.62702,2.52148 18.02078,4.66282 4.53751,1.80141 8.60296,4.03306 12.14749,6.66814 2.34459,1.74301 6.06123,5.30632 7.83867,7.51527 4.00267,4.97442 7.08584,11.12249 8.09273,16.13751 0.42518,2.11772 0.57763,6.37225 0.29826,8.32396 -0.83706,5.84783 -5.34668,13.99989 -10.74081,19.41624 -3.743,3.75841 -11.0513,8.75354 -15.75702,10.76972 -2.66076,1.14001 -10.76945,3.46763 -15.64763,4.4917 -2.76785,0.58105 -6.30727,0.89906 -10.82343,0.97247 -4.46269,0.0725 -4.63078,0.0607 -9.66318,-0.67949 z"
     id="path859" />
  <path
     style="font-variation-settings:normal;opacity:1;vector-effect:none;fill:#00ffff;fill-opacity:1;stroke-width:0.0269375;stroke-linecap:butt;stroke-linejoin:miter;stroke-miterlimit:4;stroke-dasharray:none;stroke-dashoffset:0;stroke-opacity:1;stop-color:#000000;stop-opacity:1"
     d="m 186.72313,230.19631 c 0,-0.94111 0.69485,-4.82193 1.0838,-6.05318 1.74569,-5.52609 9.9466,-21.47002 16.85514,-32.76919 10.2005,-16.6833 22.9114,-33.69392 32.11632,-42.98031 2.79801,-2.82276 4.06369,-3.88031 7.42674,-6.20545 1.64333,-1.13615 1.97987,-1.16979 2.15884,-0.21581 0.48121,2.56506 -1.13204,13.99134 -2.64875,18.7605 -0.82693,2.60021 -2.6059,6.9743 -4.6575,11.45177 -5.39232,11.76834 -12.96439,23.9644 -20.27829,32.66154 -5.17156,6.14963 -13.25937,13.9848 -19.97732,19.35328 -5.13976,4.10731 -8.36301,5.94356 -10.73032,6.11294 -0.91047,0.0652 -1.34866,0.0274 -1.34866,-0.11609 z"
     id="path861" />
  <path
     style="font-variation-settings:normal;opacity:1;vector-effect:none;fill:#00ffff;fill-opacity:1;stroke-width:0.0269375;stroke-linecap:butt;stroke-linejoin:miter;stroke-miterlimit:4;stroke-dasharray:none;stroke-dashoffset:0;stroke-opacity:1;stop-color:#000000;stop-opacity:1"
     d="M 118.5011,30.27049 C 113.94793,30.033223 106.80945,29.244192 99.078117,28.123623 90.098498,26.822131 84.309345,25.263835 81.47787,23.386075 c -1.132918,-0.751321 -1.618643,-1.480677 -1.315738,-1.97569 0.388068,-0.634188 10.249744,-5.329967 14.134362,-6.73028 2.167894,-0.781474 9.409706,-2.588306 12.995326,-3.242334 3.73673,-0.681592 6.16837,-0.849698 15.84761,-1.095593 13.1195,-0.333293 24.54457,0.03516 27.66731,0.892255 0.56778,0.155838 2.45249,0.631358 4.18824,1.05671 8.63682,2.116482 17.01947,5.047299 21.43687,7.49495 1.08952,0.603698 1.98014,1.142864 1.97914,1.198147 -9.7e-4,0.05528 -0.26176,0.553761 -0.57946,1.107728 -0.50462,0.87987 -0.75484,1.091911 -1.97914,1.677135 -1.56222,0.746754 -5.06273,1.856456 -9.48396,3.006529 -6.75779,1.757869 -12.68511,2.618545 -22.74307,3.302406 -3.85968,0.262427 -21.22828,0.395472 -25.12426,0.192452 z"
     id="path863" />
  <path
     style="font-variation-settings:normal;opacity:1;vector-effect:none;fill:#00ffff;fill-opacity:1;stroke-width:0.0269375;stroke-linecap:butt;stroke-linejoin:miter;stroke-miterlimit:4;stroke-dasharray:none;stroke-dashoffset:0;stroke-opacity:1;stop-color:#000000;stop-opacity:1"
     d="m 58.396141,141.55094 c -3.215858,-0.45874 -10.465884,-3.68587 -14.011607,-6.23686 -6.054848,-4.35618 -10.071062,-9.92281 -12.541053,-17.38237 -1.381103,-4.17104 -1.373923,-4.09366 -1.373923,-14.80658 0,-8.481516 0.03986,-9.763823 0.351428,-11.305918 1.001195,-4.955358 6.273602,-18.349165 9.07713,-23.059174 2.87088,-4.823162 8.095424,-10.698421 12.990013,-14.607916 7.028489,-5.613923 15.003274,-9.737838 22.673687,-11.725003 5.228933,-1.354653 16.104986,-1.148181 21.87356,0.415251 3.739224,1.013424 9.084024,3.91003 12.608114,6.832942 3.50631,2.908163 6.93003,8.480627 9.05029,14.730307 4.27614,12.604376 3.38517,25.696427 -2.72127,39.986671 -4.92938,11.53569 -14.13753,22.14346 -25.898898,29.83547 -6.004335,3.92688 -13.78162,6.70405 -20.578291,7.34826 -2.548902,0.24159 -9.739676,0.2259 -11.49918,-0.0251 z"
     id="path865" />
  <path
     style="font-variation-settings:normal;opacity:1;vector-effect:none;fill:#00ffff;fill-opacity:1;stroke-width:0.0269375;stroke-linecap:butt;stroke-linejoin:miter;stroke-miterlimit:4;stroke-dasharray:none;stroke-dashoffset:0;stroke-opacity:1;stop-color:#000000;stop-opacity:1"
     d="m 188.36587,141.76787 c -10.48586,-0.84332 -26.50016,-9.7992 -35.09895,-19.62883 -7.98211,-9.12469 -14.28861,-22.511515 -16.15003,-34.28173 -0.28141,-1.779453 -0.3491,-3.30133 -0.33955,-7.63391 0.0212,-9.605287 0.711,-12.945343 4.05127,-19.61625 5.05563,-10.096658 13.12884,-16.571653 23.37932,-18.751021 2.48759,-0.528889 8.89875,-0.737666 12.12124,-0.394723 12.12689,1.290564 23.5051,6.771378 32.31509,15.565992 8.38841,8.373755 13.42501,16.420777 17.30045,27.641063 2.00227,5.79702 2.95161,10.263653 2.93697,13.818344 -0.0141,3.423835 -0.9225,11.425825 -1.78809,15.750975 -1.42428,7.11687 -5.68223,14.56025 -10.93394,19.11381 -3.16567,2.74483 -7.16439,5.06923 -10.8036,6.27997 -4.7739,1.58825 -12.19786,2.52172 -16.99018,2.13631 z"
     id="path867" />
</svg>
