<?xml version="1.0" encoding="UTF-8" standalone="no"?>
<svg
   xmlns:dc="http://purl.org/dc/elements/1.1/"
   xmlns:cc="http://creativecommons.org/ns#"
   xmlns:rdf="http://www.w3.org/1999/02/22-rdf-syntax-ns#"
   xmlns:svg="http://www.w3.org/2000/svg"
   xmlns="http://www.w3.org/2000/svg"
   xmlns:xlink="http://www.w3.org/1999/xlink"
   xmlns:sodipodi="http://sodipodi.sourceforge.net/DTD/sodipodi-0.dtd"
   xmlns:inkscape="http://www.inkscape.org/namespaces/inkscape"
   cursor="default"
   version="1.1"
   viewBox="0 0 256 256"
   id="svg25"
   sodipodi:docname="beerusicon.svg"
   inkscape:version="1.0.2-2 (e86c870879, 2021-01-15)">
  <metadata
     id="metadata29">
    <rdf:RDF>
      <cc:Work
         rdf:about="">
        <dc:format>image/svg+xml</dc:format>
        <dc:type
           rdf:resource="http://purl.org/dc/dcmitype/StillImage" />
        <dc:title />
      </cc:Work>
    </rdf:RDF>
  </metadata>
  <sodipodi:namedview
     pagecolor="#ffffff"
     bordercolor="#666666"
     borderopacity="1"
     objecttolerance="10"
     gridtolerance="10"
     guidetolerance="10"
     inkscape:pageopacity="0"
     inkscape:pageshadow="2"
     inkscape:window-width="1920"
     inkscape:window-height="1001"
     id="namedview27"
     showgrid="false"
     inkscape:zoom="2.6785258"
     inkscape:cx="86.471826"
     inkscape:cy="118.74608"
     inkscape:window-x="-9"
     inkscape:window-y="-9"
     inkscape:window-maximized="1"
     inkscape:current-layer="svg25"
     inkscape:document-rotation="0" />
  <defs
     id="defs9">
    <linearGradient
       id="innoGrad1">
      <stop
         stop-color="#f55"
         offset="0"
         id="stop2" />
      <stop
         stop-color="#ff8080"
         offset="1"
         id="stop4" />
    </linearGradient>
    <linearGradient
       id="linearGradient828"
       x1="173.54"
       x2="139.41"
       y1="204.61"
       y2="178.91"
       gradientTransform="translate(-4.8814,-1.0847)"
       gradientUnits="userSpaceOnUse"
       xlink:href="#innoGrad1" />
    <linearGradient
       id="linearGradient830"
       x1="144.01"
       x2="119.27"
       y1="149.77"
       y2="137.3"
       gradientTransform="translate(-4.8814,-1.0847)"
       gradientUnits="userSpaceOnUse"
       xlink:href="#innoGrad1" />
  </defs>
  <path
     style="fill:#000000;stroke-width:1.08928"
     d="m 108.96691,235.95256 c -1.32659,-1.47316 -2.41199,-3.0787 -2.41199,-3.56787 0,-0.48916 -1.44022,-2.58302 -3.20049,-4.65303 -1.76027,-2.07001 -3.520639,-5.12424 -3.911928,-6.78717 -0.391279,-1.66292 -1.363043,-4.00597 -2.159482,-5.20676 -0.796428,-1.20078 -1.466629,-2.94405 -1.489344,-3.87394 -0.02273,-0.92988 -1.590509,-2.68685 -3.483986,-3.90437 -4.677984,-3.00799 -8.547127,-10.95823 -7.909214,-16.25172 0.356031,-2.95443 0.04642,-4.25273 -1.124963,-4.71683 -1.268021,-0.5024 -1.459972,-1.71614 -0.890968,-5.63386 0.683397,-4.70538 0.4784,-5.28305 -3.5527,-10.01149 -4.812048,-5.64447 -9.86536,-18.6824 -11.76321,-30.34996 C 66.424998,137.0386 65.121452,121.34914 64.171878,106.13008 62.541619,80.001849 60.802854,63.362432 56.581989,33.497565 55.582107,26.42285 55.06548,19.823313 55.433936,18.831926 c 3.502573,-9.4242716 21.044161,17.375896 32.450407,49.577988 2.13922,6.039453 8.117536,19.50387 13.285137,29.920934 10.01087,20.180342 13.25642,30.607972 12.75264,40.973072 l -0.27051,5.56558 6.36762,-0.38711 c 3.50219,-0.21291 6.50171,-0.51739 6.6656,-0.67662 0.1639,-0.15924 -0.25157,-1.72831 -0.92327,-3.48683 -1.94628,-5.09543 -1.48182,-15.42413 2.23418,-49.68463 2.91187,-26.846456 4.00322,-33.637735 6.6701,-41.506524 1.75372,-5.17448 5.20572,-15.499735 7.6711,-22.945009 2.46539,-7.445275 5.03854,-14.110948 5.71811,-14.812608 3.9384,-4.0664106 8.607,5.668128 10.04014,20.934777 0.55428,5.90437 1.75991,14.470804 2.67917,19.036521 2.3409,11.626415 9.80518,35.998022 13.04998,42.60948 1.49552,3.047198 3.08981,8.771553 3.5459,12.731743 0.45577,3.9574 1.4155,12.26332 2.13275,18.4576 1.48644,12.83712 0.23549,25.78272 -3.13646,32.45788 -1.07631,2.13067 -2.80962,5.53824 -3.85181,7.57237 -1.54017,3.00609 -1.66414,4.22132 -0.66229,6.49164 1.06532,2.41412 0.84463,3.33923 -1.62612,6.81655 -1.5723,2.21285 -4.34622,5.34488 -6.16429,6.96007 -2.76798,2.45913 -3.26106,3.62915 -3.03192,7.19446 0.21592,3.35953 -0.50876,5.38293 -3.43508,9.59131 -2.0398,2.93346 -4.02922,7.29216 -4.42093,9.686 -0.63318,3.86959 -1.58943,4.97859 -8.61964,9.99654 -4.3491,3.10426 -8.17134,6.50259 -8.49388,7.55187 -0.32254,1.04926 -1.90748,3.20799 -3.52209,4.79717 -2.5179,2.47825 -4.23232,2.99512 -12.04762,3.63215 -8.71046,0.71 -9.21823,0.62471 -11.52395,-1.93574 z m 21.47334,-1.62131 c 0.47159,-0.30093 1.9956,-2.40872 3.38669,-4.68398 1.39108,-2.27524 5.67408,-6.34251 9.51779,-9.03839 5.80285,-4.06996 7.10448,-5.55884 7.67198,-8.77552 0.37589,-2.13067 2.40726,-6.49484 4.51414,-9.69816 3.24901,-4.93983 3.7449,-6.48468 3.26567,-10.1737 -0.5111,-3.9344 -0.24104,-4.57872 2.82983,-6.7513 1.86718,-1.32099 4.7177,-4.30192 6.33449,-6.62429 2.52584,-3.62812 2.76897,-4.60918 1.72731,-6.9697 -0.97704,-2.2141 -0.84458,-3.46497 0.68258,-6.44567 1.04219,-2.03413 2.7755,-5.4417 3.85181,-7.57237 3.37195,-6.67516 4.6229,-19.62076 3.13646,-32.45788 -0.71725,-6.19428 -1.6883,-14.6067 -2.15791,-18.69427 -0.46961,-4.08757 -1.82484,-9.131152 -3.01161,-11.207962 -2.6735,-4.678537 -10.24369,-28.349421 -13.03186,-40.748696 -1.1422,-5.079535 -2.38935,-13.220144 -2.77142,-18.090243 -0.80591,-10.272615 -3.3739,-21.002504 -5.45288,-22.78399 -1.66539,-1.427084 -1.44156,-1.916876 -7.37725,16.142946 -2.20088,6.696386 -5.3606,16.21933 -7.02158,21.1621 -2.42897,7.228151 -3.68264,15.025953 -6.40616,39.846258 -3.64653,33.232017 -4.15751,44.542367 -2.23786,49.533627 1.70167,4.42448 0.22457,5.79295 -7.09471,6.57292 -7.78305,0.8294 -8.88086,-0.12632 -8.88086,-7.73142 0,-11.22245 -3.01837,-20.89831 -12.467317,-39.965838 C 90.978754,82.086024 88.105796,75.497811 81.387729,57.761266 78.023121,48.878254 71.353873,36.14198 66.59477,29.511092 c -1.900616,-2.648131 -4.338484,-6.046505 -5.41749,-7.55194 -2.488809,-3.472387 -3.928981,-2.601765 -3.322092,2.00829 0.258983,1.967323 1.684844,12.293322 3.168572,22.946663 1.483738,10.653341 3.649008,34.06302 4.811726,52.02151 2.460562,38.004085 3.39054,44.877165 7.769781,57.423315 2.391396,6.85116 4.456799,10.58943 7.901657,14.30155 4.568673,4.92311 4.640422,5.11611 3.511385,9.44531 -0.984638,3.77553 -0.890946,4.57071 0.642973,5.45704 1.371886,0.7927 1.634182,1.92577 1.111605,4.80189 -0.986847,5.43129 2.542109,13.08875 7.394164,16.04459 2.096545,1.2772 3.811909,3.15831 3.811909,4.18026 0,1.02193 0.651623,2.84054 1.448051,4.04132 0.796439,1.20079 1.768199,3.54384 2.159479,5.20676 0.39129,1.66293 2.15166,4.71716 3.91193,6.78717 1.76027,2.07001 3.20049,4.15675 3.20049,4.63721 0,0.48047 0.8442,1.83752 1.876,3.01568 1.67822,1.91628 2.77902,2.06086 10.44194,1.3714 4.71127,-0.42388 8.95179,-1.01693 9.4234,-1.31786 z M 96.682446,203.17754 c -2.184931,-0.89701 -7.27945,-7.771 -7.27945,-9.82209 0,-2.11409 2.446036,-1.78613 9.851842,1.32094 11.862592,4.97689 14.211112,9.46017 4.888092,9.33128 -3.09538,-0.0427 -6.452605,-0.41633 -7.460484,-0.83013 z m 25.952414,-1.68762 c 0,-2.72079 3.92931,-5.21995 15.149,-9.6352 6.11015,-2.40452 11.47241,-4.37185 11.91613,-4.37185 3.43575,0 -2.58154,9.85917 -8.16138,13.37218 -4.17462,2.6283 -18.90375,3.12296 -18.90375,0.63487 z m 15.54393,-4.04549 c 0.83849,-1.40082 -0.58062,-1.40082 -2.67999,0 -1.38576,0.92466 -1.35746,1.07529 0.20473,1.0899 0.997,0.009 2.11087,-0.48114 2.47526,-1.0899 z"
     id="path853" />
  <path
     style="fill:#7137c8;stroke-width:0.37334"
     d="m 113.15803,235.59964 c -1.54209,-0.47416 -3.15005,-2.1239 -4.19065,-4.29954 -0.49411,-1.03305 -1.7299,-2.90594 -2.7462,-4.16197 -1.97035,-2.43512 -4.48896,-6.72434 -4.48896,-7.64475 0,-0.30586 -0.72968,-2.05594 -1.62152,-3.88906 -0.891839,-1.83313 -1.738558,-3.95812 -1.881592,-4.72219 -0.290078,-1.54954 -1.598645,-3.02948 -4.741498,-5.36245 -2.316034,-1.71922 -4.514186,-4.78239 -5.689527,-7.92848 -0.645183,-1.727 -0.793975,-2.96581 -0.802416,-6.68077 l -0.01036,-4.56065 -1.300153,-1.08641 -1.300152,-1.0864 0.50166,-2.19309 c 0.275913,-1.20619 0.584641,-3.21315 0.686062,-4.4599 l 0.184403,-2.26682 -1.999288,-2.34428 c -4.576238,-5.36592 -5.282459,-6.35165 -7.023356,-9.80314 -2.139906,-4.24255 -5.25186,-13.48644 -6.324376,-18.78621 -1.540383,-7.61169 -2.385921,-16.10335 -4.144954,-41.62737 -2.042049,-29.630675 -3.588973,-45.369933 -6.566219,-66.808322 -2.534767,-18.252221 -2.32365,-18.76819 4.056058,-9.912987 2.219016,3.080053 5.146403,7.448127 6.505304,9.706832 3.929896,6.532096 9.00566,17.214607 12.594779,26.507118 4.351058,11.265227 6.982496,17.434336 11.306633,26.507118 1.957294,4.106737 5.217031,10.948601 7.243862,15.204141 7.61169,15.9815 9.83408,23.34189 10.26072,33.9828 0.34398,8.57923 0.79531,9.24466 6.26322,9.23424 3.96839,-0.008 8.23358,-0.81453 9.56315,-1.80935 0.78063,-0.58408 0.92943,-0.99663 0.90937,-2.52131 -0.0132,-1.00263 -0.32902,-2.91498 -0.70185,-4.24967 -0.59638,-2.135 -0.65284,-3.43648 -0.46972,-10.82685 0.22257,-8.98205 0.90017,-16.92783 3.26337,-38.267322 2.43003,-21.942958 3.54277,-29.140275 5.59886,-36.213949 1.85292,-6.374712 12.64789,-38.348866 13.2653,-39.291158 0.48442,-0.739309 0.6817,-0.812583 1.14732,-0.426144 2.18201,1.8109 4.32769,10.46266 5.72984,23.103685 0.9305,8.388851 1.59713,12.65774 2.85675,18.293645 2.56242,11.464919 9.90366,34.521217 12.85425,40.370733 2.04243,4.0491 2.59624,7.07299 4.87963,26.64374 1.47184,12.61496 1.01868,24.17908 -1.23319,31.46979 -0.40649,1.31606 -2.07111,5.0815 -3.69915,8.36766 -3.16416,6.38678 -3.40101,7.39293 -2.35544,10.00606 0.36346,0.90837 0.51427,1.96295 0.37809,2.64384 -0.4854,2.427 -4.46227,7.24732 -9.73615,11.8011 l -1.81524,1.56738 0.23038,3.50726 c 0.12701,1.93346 0.0674,4.09763 -0.13289,4.82293 -0.1998,0.72362 -1.31497,2.89211 -2.47815,4.81886 -2.45725,4.07032 -4.77606,8.91209 -5.16432,10.78332 -0.65918,3.17693 -1.60041,4.26947 -7.465,8.66499 -5.47535,4.10378 -7.66921,6.24609 -10.23965,9.99904 -1.26429,1.84591 -2.60781,3.52162 -2.98562,3.72381 -1.54315,0.82588 -15.22993,2.03593 -16.97142,1.50045 z m -4.23902,-32.10442 c 2.37326,-1.13392 0.67371,-3.72083 -4.24315,-6.45856 -3.70252,-2.06159 -10.691397,-4.78339 -12.856187,-5.00682 -1.658631,-0.17119 -2.013794,-0.0948 -2.33319,0.50203 -0.538449,1.0061 0.220682,2.9583 2.263652,5.82127 2.471422,3.46338 4.357156,5.0463 6.312952,5.29918 0.888672,0.1149 2.035773,0.2816 2.549113,0.37043 1.78625,0.3091 7.28688,-0.0402 8.30681,-0.52753 z m 30.33385,-1.48663 c 2.3757,-0.75523 2.90499,-1.12539 5.8198,-4.07008 2.40348,-2.42813 3.55766,-3.94999 4.60903,-6.07729 2.58028,-5.22084 1.69004,-5.42318 -7.87716,-1.79042 -13.67055,5.19086 -19.16529,8.39301 -19.16529,11.16891 0,1.64672 1.14739,1.895 8.02681,1.73693 4.87904,-0.11211 6.45223,-0.28947 8.58681,-0.96805 z"
     id="path857" />
  <path
     style="fill:#000000;stroke-width:0.131996"
     d="m 134.6923,198.37208 c -0.14155,-0.0965 -0.0373,-0.23106 0.46198,-0.59611 1.42296,-1.04042 2.98083,-1.57038 3.16968,-1.07827 0.13045,0.33995 -0.4556,1.09046 -1.0921,1.39858 -0.65494,0.31705 -2.22849,0.48794 -2.53956,0.2758 z"
     id="path859" />
</svg>
