<?xml version="1.0" encoding="UTF-8" standalone="no"?>
<svg
   xmlns:dc="http://purl.org/dc/elements/1.1/"
   xmlns:cc="http://creativecommons.org/ns#"
   xmlns:rdf="http://www.w3.org/1999/02/22-rdf-syntax-ns#"
   xmlns:svg="http://www.w3.org/2000/svg"
   xmlns="http://www.w3.org/2000/svg"
   xmlns:sodipodi="http://sodipodi.sourceforge.net/DTD/sodipodi-0.dtd"
   xmlns:inkscape="http://www.inkscape.org/namespaces/inkscape"
   version="1.1"
   width=""
   height=""
   id="svg2"
   viewBox="0 0 725.66931 725.66931"
   sodipodi:docname="armoroffate.svg"
   inkscape:version="1.0.2-2 (e86c870879, 2021-01-15)">
  <metadata
     id="metadata8">
    <rdf:RDF>
      <cc:Work
         rdf:about="">
        <dc:format>image/svg+xml</dc:format>
        <dc:type
           rdf:resource="http://purl.org/dc/dcmitype/StillImage" />
        <dc:title />
      </cc:Work>
    </rdf:RDF>
  </metadata>
  <defs
     id="defs6" />
  <sodipodi:namedview
     pagecolor="#ffffff"
     bordercolor="#666666"
     borderopacity="1"
     objecttolerance="10"
     gridtolerance="10"
     guidetolerance="10"
     inkscape:pageopacity="0"
     inkscape:pageshadow="2"
     inkscape:window-width="1920"
     inkscape:window-height="1017"
     id="namedview4"
     showgrid="false"
     inkscape:zoom="1.1168879"
     inkscape:cx="436.38805"
     inkscape:cy="379.44437"
     inkscape:window-x="-8"
     inkscape:window-y="-8"
     inkscape:window-maximized="1"
     inkscape:current-layer="svg2"
     inkscape:measure-start="878.402,489.209"
     inkscape:measure-end="158.721,719.681"
     showguides="false"
     inkscape:document-rotation="0" />
  <path
     style="fill:#000000;stroke-width:0.752125"
     d="m 341.46816,632.43959 c -4.63989,-1.14569 -4.95112,-1.68357 -4.91807,-8.49954 0.0408,-8.42605 2.25027,-18.51902 4.88673,-22.32342 1.15665,-1.66903 2.38324,-3.20782 2.72578,-3.41952 0.34253,-0.21169 2.67408,2.76463 5.18122,6.61403 l 4.55844,6.99895 -0.2713,8.85839 c -0.23613,7.71038 -0.47088,9.05798 -1.8114,10.3985 -1.817,1.817 -6.19863,2.39802 -10.3514,1.37261 z m 20.01447,0.26926 c -0.95604,-0.18259 -1.91276,-0.7867 -2.12603,-1.34246 -0.52745,-1.37455 3.93958,-17.89049 5.87698,-21.72892 2.32681,-4.6099 6.62091,-10.23745 7.8117,-10.23745 0.57572,0 1.61587,0.86853 2.31142,1.93008 1.04256,1.59115 1.28623,4.13359 1.38764,14.47842 0.0846,8.63252 -0.17527,13.31114 -0.83285,14.99275 l -0.95588,2.44441 -5.86734,-0.10243 c -3.22705,-0.0564 -6.64958,-0.25182 -7.60564,-0.4344 z m -56.33664,-2.63466 c -0.41969,-0.53086 -1.90891,-4.01131 -3.30941,-7.73434 -2.80894,-7.46716 -3.33067,-13.83665 -1.49497,-18.25122 0.81318,-1.95559 1.23196,-2.28193 2.0534,-1.6002 0.56755,0.47102 1.0319,2.01935 1.0319,3.44074 0,1.4214 1.03302,6.67613 2.29559,11.6772 1.26257,5.00106 2.19333,9.9474 2.06835,10.99186 -0.26077,2.17912 -1.52931,2.88704 -2.64486,1.47596 z m 91.05471,-2.49467 c -0.24344,-0.63437 0.58554,-5.66805 1.84216,-11.18594 1.81281,-7.96019 2.68592,-10.43369 4.22684,-11.97461 1.06814,-1.06814 1.94334,-2.38053 1.94488,-2.91642 10e-4,-0.5359 0.69312,0.15792 1.53682,1.54179 1.04455,1.71331 1.29792,2.80061 0.79409,3.40768 -0.85361,1.02853 -4.5901,14.67231 -4.5901,16.76073 0,1.49688 -3.32845,5.52017 -4.56679,5.52017 -0.40992,0 -0.94447,-0.51903 -1.1879,-1.1534 z m 12.47218,-2.04415 c -1.07482,-2.35898 2.3076,-14.85303 4.96386,-18.33555 l 1.97433,-2.5885 1.44554,1.8377 c 1.76451,2.24321 1.80362,4.2419 0.21935,11.20743 -0.92664,4.07412 -1.77291,5.9019 -3.4641,7.4817 -2.71148,2.53289 -4.11642,2.64149 -5.13898,0.39722 z m -94.17811,-0.7044 c -0.58412,-0.95645 -1.99611,-5.85589 -3.13775,-10.88766 l -2.07572,-9.14868 1.9545,-3.2614 c 1.07499,-1.79377 1.95772,-2.88397 1.96163,-2.42268 0.003,0.46131 0.76864,1.8075 1.6994,2.99155 1.52015,1.93385 1.70609,3.07259 1.82808,11.19529 0.0747,4.97335 0.24391,9.85435 0.37607,10.84665 0.32269,2.42321 -1.28676,2.84742 -2.60621,0.68693 z m 68.93042,-0.28655 c -1.10443,-1.68559 -1.15464,-2.53646 -0.3934,-6.66783 0.47992,-2.60462 0.87258,-5.61613 0.87258,-6.69223 0,-1.22101 0.95821,-2.91477 2.54881,-4.50537 1.40184,-1.40184 2.78171,-3.60921 3.06636,-4.90527 0.63484,-2.89033 1.90609,-3.86224 1.90609,-1.45725 0,0.96654 0.54861,2.54059 1.21913,3.49791 1.1391,1.62627 1.07974,2.3903 -0.90418,11.63727 -1.16784,5.44319 -2.47798,10.14537 -2.91142,10.44929 -1.65563,1.16086 -4.16769,0.53027 -5.40397,-1.35652 z m -59.30404,0.23985 c -1.27704,-3.7747 -1.7187,-9.97261 -1.06398,-14.93091 0.75136,-5.69001 2.70182,-10.65593 4.01357,-10.21867 0.40306,0.13434 1.47964,3.07741 2.39241,6.54014 1.50369,5.70445 1.5801,6.87877 0.81345,12.5009 -0.71142,5.21726 -1.08997,6.27053 -2.37798,6.61659 -2.40518,0.64619 -3.43378,0.50786 -3.77747,-0.50805 z m -32.07844,-3.76063 c -1.34814,-2.63227 -1.61184,-4.31854 -1.49388,-9.55258 0.0788,-3.49584 0.27842,-6.49122 0.44362,-6.65643 1.08073,-1.08071 1.9047,1.42575 1.9047,5.79392 0,3.09685 0.5754,6.77516 1.46375,9.35718 1.20429,3.50036 1.27365,4.25444 0.39134,4.25444 -0.58981,0 -1.80911,-1.43844 -2.70953,-3.19653 z m 132.00107,-1.88032 c 0.21794,-1.13759 0.61437,-4.16514 0.88094,-6.72788 0.37681,-3.62235 0.84601,-4.89384 2.10791,-5.71215 2.56484,-1.66321 3.50355,-0.79865 3.50355,3.22681 0,4.16423 -2.2607,10.08154 -4.12493,10.79691 -2.2563,0.86583 -2.77081,0.52164 -2.36747,-1.58369 z m -70.56297,-19.42833 c -2.46138,-3.93235 -4.91147,-7.51178 -5.44467,-7.95429 -1.25487,-1.04144 -5.43746,-0.20997 -7.37901,1.46692 -0.82733,0.71455 -2.59692,2.56833 -3.9324,4.11952 l -2.42815,2.82033 -0.49787,-2.07601 c -1.28552,-5.36035 -5.4553,-10.72546 -8.33585,-10.72546 -2.14024,0 -4.42668,3.45827 -5.16132,7.80655 l -0.51424,3.04377 -1.76492,-3.47279 c -0.97071,-1.91003 -2.65724,-4.17467 -3.74782,-5.03254 -2.67327,-2.10279 -4.55914,-1.03755 -6.56392,3.70763 l -1.53715,3.63834 -2.18313,-1.83697 c -1.20071,-1.01034 -2.8095,-1.83698 -3.57507,-1.83698 -1.53418,0 -4.50964,3.33427 -4.50964,5.05345 0,0.73585 -0.98038,0.31348 -3.0176,-1.30003 -2.67931,-2.12204 -3.26953,-2.30216 -5.26488,-1.60657 -2.21452,0.77199 -2.24728,0.74525 -2.24728,-1.83407 0,-2.63393 1.29892,-6.1753 3.2872,-8.96223 0.98609,-1.38218 0.53972,-2.34485 -5.50043,-11.86272 l -6.5736,-10.35848 1.27084,-6.76367 c 0.69895,-3.72001 1.43178,-6.92461 1.62849,-7.12131 0.1967,-0.19671 2.92161,0.50441 6.05534,1.55803 5.48066,1.84271 5.71871,2.02151 6.2489,4.69366 0.30316,1.52788 0.7603,7.51636 1.01589,13.30772 l 0.46469,10.52977 2.40763,-3.25862 c 2.87009,-3.88452 3.47548,-7.19874 3.12026,-17.08177 l -0.26301,-7.31725 -5.64094,-5.2474 c -8.24807,-7.67263 -10.40946,-8.94266 -15.95974,-9.37791 -4.26101,-0.33414 -4.87792,-0.19691 -6.29792,1.40099 -2.73932,3.08252 -4.83192,10.21441 -5.03559,17.16194 l -0.18658,6.36503 -2.59498,0.53073 c -3.30804,0.67656 -4.77839,-0.13817 -6.82676,-3.78275 -1.92897,-3.43214 -3.47139,-4.2628 -9.25786,-4.98578 -6.92242,-0.8649 -7.84951,-2.44164 -13.91843,-23.67146 -3.5178,-12.30568 -3.51099,-11.607 -0.21173,-21.72319 2.48289,-7.61303 2.8631,-9.5725 2.31521,-11.93191 -1.31904,-5.68023 -0.80553,-13.51932 1.28522,-19.61949 2.90564,-8.47777 4.27343,-10.8093 10.07497,-17.17363 2.88599,-3.16596 5.2365,-6.12541 5.22335,-6.57654 -0.0131,-0.45114 -0.52085,-1.47724 -1.12819,-2.28023 -1.75543,-2.32088 -1.3275,-3.92816 2.19847,-8.2571 4.57458,-5.61634 5.34671,-8.28616 5.34671,-18.48764 0,-8.50863 -0.0535,-8.77801 -3.28908,-16.54676 -2.97084,-7.13325 -3.34589,-8.73417 -3.87638,-16.54678 -0.32302,-4.75719 -0.65798,-8.81867 -0.74436,-9.0255 -0.0863,-0.20683 -0.78074,3.68542 -1.54305,8.64944 l -1.38601,9.02552 2.93618,7.55323 c 5.53807,14.24654 5.81665,18.39335 1.67005,24.85959 -4.81316,7.50565 -9.93806,16.55777 -9.93806,17.5536 0,0.52032 0.55757,1.88992 1.23904,3.04354 l 1.23903,2.09753 -5.45671,6.47995 c -3.00119,3.56396 -5.70278,6.47994 -6.00353,6.47994 -0.64584,0 -3.47078,-12.4196 -4.53355,-19.93133 -1.34189,-9.4847 -0.9031,-19.79304 1.49919,-35.2195 3.78183,-24.28528 7.70251,-37.97088 15.05561,-52.55354 4.45564,-8.83642 7.63427,-13.5599 15.08292,-22.41339 11.40567,-13.55682 22.37968,-22.22083 37.15925,-29.33733 10.0194,-4.82442 16.2748,-6.98053 38.35841,-13.22136 l 15.04252,-4.25102 16.54677,0.38494 16.54677,0.38495 14.29039,4.88689 c 26.28423,8.98846 33.24228,11.9923 44.37542,19.15714 20.83083,13.4059 38.98736,37.06987 46.88471,61.10633 4.60238,14.00784 6.57818,24.87914 8.80543,48.44953 1.05296,11.14304 1.12453,14.79842 0.41353,21.11707 -1.0661,9.47429 -6.14483,30.07238 -7.12031,28.87816 -0.13133,-0.16079 -2.52143,-3.42758 -5.31135,-7.25952 l -5.07257,-6.96718 1.50951,-2.38411 1.5095,-2.3841 -3.68777,-7.19548 c -2.02827,-3.95753 -4.70782,-9.05701 -5.95456,-11.33219 -1.40432,-2.56273 -2.26687,-5.23092 -2.26697,-7.01257 -2.1e-4,-3.43855 2.67827,-11.68201 6.15264,-18.93576 l 2.52174,-5.26488 -0.69392,-8.83748 c -0.38166,-4.86062 -0.92362,-8.83748 -1.20435,-8.83748 -0.28073,0 -0.87291,3.73481 -1.31592,8.29958 -0.68623,7.07075 -1.21758,9.15871 -3.58891,14.10236 -4.60759,9.60569 -5.63208,13.28998 -5.63208,20.25392 0,8.45871 0.9828,11.87413 4.93876,17.16305 3.44034,4.5996 3.6599,6.06438 1.31067,8.74418 -0.95785,1.09263 -0.95345,1.51946 0.0355,3.43169 0.62114,1.20112 2.62862,3.85493 4.4611,5.89737 6.49246,7.23632 9.9737,16.91192 9.86034,27.40546 -0.0424,3.92986 -0.47313,8.11799 -0.95706,9.30698 -0.74393,1.82777 -0.52865,3.47791 1.3934,10.68001 1.2503,4.68502 2.27329,9.57646 2.27329,10.86985 0,2.72886 -6.86837,23.49701 -9.50334,28.73559 -2.25722,4.48762 -4.06492,5.66179 -9.69081,6.29463 -5.698,0.64093 -6.72475,1.19178 -9.03099,4.8451 -1.64533,2.60638 -2.22804,2.97474 -4.6898,2.96465 -1.54608,-0.006 -3.1763,-0.26018 -3.62271,-0.56409 -0.46499,-0.31656 -0.87823,-3.60453 -0.96749,-7.69778 -0.1606,-7.36454 -1.7862,-13.88727 -4.14864,-16.64638 -1.58402,-1.85003 -9.25846,-1.95234 -12.70628,-0.1694 -4.04499,2.09174 -14.40813,10.81276 -15.36569,12.93089 -0.53843,1.191 -0.92001,5.6829 -0.94016,11.06757 -0.0323,8.61906 0.0664,9.21773 2.01445,12.22205 1.1266,1.73747 2.25941,3.15905 2.51737,3.15905 0.25794,0 0.81451,-4.82301 1.23683,-10.7178 0.42231,-5.89478 1.2107,-11.66029 1.75195,-12.81224 0.89777,-1.91071 9.39704,-7.90516 10.14619,-7.15601 0.17249,0.17248 0.8869,4.0943 1.58761,8.71515 l 1.274,8.40154 -6.40435,9.61398 -6.40433,9.61398 1.68006,2.62361 c 1.5917,2.48561 3.12943,10.55119 2.00079,10.49428 -0.29077,-0.0147 -1.3664,-0.49043 -2.39031,-1.05726 -1.70666,-0.94481 -2.10087,-0.84113 -4.73546,1.24551 -1.58061,1.25187 -2.96905,2.1507 -3.08541,1.99741 -0.11636,-0.15327 -0.65128,-1.38298 -1.18872,-2.73266 -1.25235,-3.14515 -3.70598,-3.81682 -6.97294,-1.90882 l -2.45504,1.43382 -1.515,-3.80039 c -1.41548,-3.55077 -1.68747,-3.8004 -4.14077,-3.8004 -2.34119,0 -2.91113,0.43401 -5.25824,4.00414 l -2.63244,4.00414 -0.51506,-3.00652 c -0.28329,-1.65358 -1.0535,-4.04775 -1.7116,-5.32036 -2.77303,-5.36244 -8.71048,-1.16295 -11.97465,8.46952 -0.39115,1.15427 -0.96239,0.75665 -3.46926,-2.41477 -3.49373,-4.4199 -5.00022,-5.37306 -8.41636,-5.32503 -2.29767,0.0324 -2.901,0.62396 -7.66973,7.52127 -2.84672,4.1174 -5.38515,7.47346 -5.64093,7.45791 -0.2558,-0.0155 -2.47893,-3.24566 -4.9403,-7.17801 z m -5.64775,-45.63056 c 1.06914,-2.45413 1.98579,-6.65302 2.42188,-11.09385 0.38591,-3.92985 1.2039,-8.66825 1.81773,-10.52976 2.83406,-8.59447 2.98516,-9.95098 2.38759,-21.43558 -0.32286,-6.20504 -0.86849,-13.1434 -1.21252,-15.41858 l -0.62551,-4.13669 -3.87027,9.86168 c -2.12865,5.42392 -6.68231,15.35626 -10.11924,22.07186 -5.6889,11.11586 -6.24662,12.59132 -6.22277,16.46272 0.0381,6.19498 2.39838,10.54858 8.00261,14.76136 2.49167,1.87303 4.79356,3.40551 5.1153,3.40551 0.32174,0 1.35909,-1.77689 2.3052,-3.94867 z m 25.97616,0.23972 c 5.0946,-2.92214 8.21968,-6.63914 9.8019,-11.65849 1.23039,-3.90327 1.23237,-4.40232 0.0346,-8.71048 -0.69883,-2.51349 -2.98173,-8.36252 -5.07314,-12.99784 -3.22248,-7.14218 -6.26868,-15.88645 -9.86504,-28.31807 -1.08366,-3.7459 -1.6542,-2.08687 -3.47781,10.11258 -2.63795,17.64732 -2.69408,19.08919 -0.93778,24.08616 1.16169,3.30524 1.5608,6.27827 1.55902,11.61375 -0.001,5.14937 0.4533,8.70868 1.61382,12.62418 0.88891,2.9991 1.82073,5.44973 2.07072,5.44585 0.24999,-0.003 2.17316,-0.99282 4.27371,-2.19764 z m 76.44954,-32.29347 c 5.19624,-2.47992 13.13153,-8.24076 16.85609,-12.23712 l 2.35697,-2.52895 0.3744,-13.37617 0.37441,-13.37617 -2.93705,-3.54667 c -1.61537,-1.95066 -3.29512,-4.90048 -3.73275,-6.55516 -1.29068,-4.88005 -2.44003,-6.00816 -11.74484,-11.52785 -13.96258,-8.2827 -27.82462,-13.50357 -33.46067,-12.60233 -1.63657,0.2617 -6.58611,2.10981 -10.99897,4.10693 -4.41287,1.99712 -11.86468,5.09475 -16.55958,6.88366 -4.6949,1.7889 -8.68554,3.64174 -8.86807,4.11743 -0.18254,0.4757 1.57917,5.40402 3.91491,10.95186 4.10981,9.76161 4.23118,10.24533 3.76303,14.99645 l -0.48377,4.90945 3.60079,2.75511 c 1.98044,1.51529 6.76991,6.00195 10.64327,9.97034 7.04681,7.21966 12.64133,11.1372 21.78425,15.25432 11.87249,5.34624 16.93506,5.71002 25.11758,1.80487 z m -159.70071,-3.79875 c 10.30367,-3.54316 18.32948,-7.93676 24.15075,-13.22097 3.10252,-2.81629 7.67168,-6.59157 10.15369,-8.38955 6.89825,-4.99708 6.5398,-4.46741 5.9918,-8.85346 -0.47284,-3.78448 -0.28825,-4.34031 4.84367,-14.58461 2.93439,-5.85759 5.33524,-10.82666 5.33524,-11.04237 0,-0.21572 -5.33069,-3.05399 -11.84598,-6.30725 -6.51529,-3.25328 -14.36871,-7.2274 -17.45204,-8.83137 -7.40941,-3.85443 -11.92329,-3.84542 -23.7101,0.0473 -8.64262,2.85433 -25.76303,10.77503 -27.30444,12.63232 -0.49329,0.59438 -1.41305,2.54364 -2.04391,4.33169 -0.63087,1.78806 -2.66613,4.87506 -4.52282,6.86001 l -3.3758,3.60901 -0.003,6.23725 c -0.002,3.4305 -0.22066,9.51065 -0.48562,13.51147 l -0.48174,7.27419 4.43429,4.65998 c 4.90985,5.15976 11.85976,10.40622 16.92238,12.77466 4.22963,1.97873 12.45391,1.67837 19.39453,-0.70832 z m 206.66285,-4.06052 c -1.52075,-6.06901 -1.80041,-8.37142 -1.24996,-10.29075 0.39,-1.35987 0.9407,-5.02831 1.22377,-8.15208 0.47653,-5.25856 0.85068,-6.21235 5.04723,-12.86643 21.39993,-33.93179 27.07223,-74.2255 15.91061,-113.02262 -13.92483,-48.40187 -57.09241,-88.87346 -109.74276,-102.88888 -19.65056,-5.23094 -43.40475,-7.26606 -62.17604,-5.32687 -71.01587,7.33638 -128.20893,55.99953 -141.29695,120.22363 -6.82777,33.50443 -0.66261,68.63201 17.27686,98.43931 2.90519,4.82712 3.75164,6.94585 3.77705,9.45441 0.018,1.77819 0.3116,4.67469 0.65241,6.43664 0.51597,2.66741 0.17225,4.64993 -2.05379,11.84598 -1.47039,4.75334 -2.86396,8.62878 -3.09682,8.6121 -0.73903,-0.0529 -9.72461,-11.62356 -14.08666,-18.1392 -2.75821,-4.12 -4.62016,-6.20499 -5.42237,-6.07198 -0.67197,0.11144 -27.95982,-3.85176 -60.63968,-8.80706 -32.67987,-4.95529 -75.747098,-11.47713 -95.70496,-14.49296 -19.957862,-3.01584 -36.2883981,-5.67558 -36.2900749,-5.91053 -0.00114,-0.23496 2.7892209,-0.81356 6.2019819,-1.28579 3.412773,-0.47224 25.327841,-3.76236 48.700153,-7.31138 47.30231,-7.18273 66.58701,-10.1035 97.02423,-14.69485 11.3759,-1.71601 20.73838,-3.17341 20.80551,-3.23866 0.0671,-0.0652 -0.38454,-3.84168 -1.00367,-8.39204 -0.83142,-6.11044 -1.0301,-12.51795 -0.75996,-24.50908 l 0.36576,-16.2357 -35.46412,-16.69032 C 98.602304,348.91747 94.023664,346.6445 97.344433,347.09024 c 1.447844,0.19434 22.076007,3.07025 45.840357,6.3909 23.76435,3.32066 43.64867,5.86842 44.18738,5.6617 0.53873,-0.20673 0.97949,-0.7501 0.97949,-1.20751 0,-3.44694 12.16127,-28.51229 18.24941,-37.61349 1.28394,-1.91939 1.28246,-1.92222 -6.7903,-12.91412 -11.21807,-15.27456 -38.53873,-52.31233 -69.97237,-94.85942 -14.62209,-19.79176 -26.47656,-36.07519 -26.34327,-36.18538 0.13331,-0.11019 11.7648,8.29857 25.84777,18.68614 85.59585,63.13533 114.04258,83.94537 114.75097,83.94537 0.36234,0 3.4488,-2.06867 6.8588,-4.59703 3.41,-2.52835 9.58872,-6.58078 13.73051,-9.0054 4.14178,-2.42462 7.99356,-4.68001 8.55952,-5.01199 0.83749,-0.49127 -0.67106,-9.05357 -8.1054,-46.00509 -5.02392,-24.97082 -9.02544,-45.51043 -8.8923,-45.64359 0.13316,-0.13315 8.33912,14.55249 18.23546,32.63476 9.89634,18.08227 19.7838,36.14246 21.97212,40.13375 l 3.97878,7.25691 6.95069,-2.08568 c 5.68965,-1.7073 15.23909,-3.88196 25.04309,-5.70301 1.40969,-0.26185 1.75445,-1.69478 3.91982,-16.29225 1.3058,-8.80283 5.43957,-36.14331 9.18616,-60.75663 3.74659,-24.61331 9.00102,-59.30512 11.67652,-77.092905 2.6755,-17.78776 5.123,-33.31226 5.43891,-34.49885 0.42156,-1.5835 1.43445,3.51875 3.8074,19.17921 18.5402,122.357375 25.63485,168.539005 25.93847,168.842615 0.19808,0.19809 4.37692,1.17569 9.28628,2.17244 7.63638,1.5504 18.9945,4.51018 22.84047,5.95191 0.84358,0.31623 3.42493,-3.79706 10.2327,-16.30544 24.18219,-44.43166 35.18542,-64.44794 35.33989,-64.28777 0.0931,0.0965 -4.00675,20.81683 -9.11075,46.04514 -5.104,25.22831 -9.21907,45.90587 -9.14461,45.95013 0.0745,0.0443 3.51992,2.04049 7.65662,4.4361 4.13669,2.3956 10.87057,6.72979 14.96419,9.63156 6.35495,4.5047 7.64692,5.14853 8.83831,4.4045 1.291,-0.80624 110.96344,-81.35845 129.63117,-95.2115 10.45669,-7.75975 10.9494,-8.04063 8.576,-4.88882 -1.07456,1.42698 -15.92772,21.54808 -33.00701,44.71356 -17.07928,23.16547 -34.55875,46.85743 -38.84325,52.64881 -21.51231,29.07824 -30.55304,41.44748 -30.87412,42.24103 -0.19452,0.48077 1.76034,4.37302 4.34413,8.64946 5.19582,8.59959 9.84383,18.26013 13.05919,27.14255 1.1605,3.20594 2.44517,5.82898 2.85479,5.82898 0.40963,0 21.23217,-2.88049 46.27232,-6.4011 25.04017,-3.5206 45.62319,-6.30546 45.74007,-6.18858 0.11688,0.11688 -19.23016,9.34343 -42.99342,20.50345 l -43.20596,20.29094 0.55528,5.26488 c 0.85422,8.09921 0.59043,26.95732 -0.49762,35.57425 -0.53793,4.26007 -0.84599,7.87763 -0.68461,8.03901 0.1614,0.16139 10.43977,1.82628 22.84086,3.69977 12.40109,1.87349 32.53191,4.92084 44.73515,6.77189 44.275,6.71586 87.06397,13.17934 95.70802,14.45715 4.86061,0.71852 8.83748,1.52029 8.83748,1.7817 0,0.26141 -3.97687,1.06461 -8.83748,1.7849 -11.55884,1.71288 -125.88518,18.98768 -157.71752,23.83125 -13.62861,2.07371 -25.28849,3.67231 -25.91087,3.55245 -0.71322,-0.13736 -2.99521,2.56398 -6.17219,7.30641 -4.73349,7.06592 -16.49927,21.55293 -17.89355,22.03206 -0.34784,0.11952 -1.514,-3.30089 -2.59148,-7.60091 z"
     id="path21" />
  <path
     style="fill:#999999;stroke-width:1.26621"
     d="m 353.28147,599.74849 c -5.77583,-8.96469 -8.963,-9.75792 -14.99018,-3.73074 -2.12049,2.1205 -3.92849,3.68743 -4.01778,3.48208 -3.40976,-7.84246 -5.53638,-10.50304 -8.39515,-10.50304 -2.47593,0 -3.42624,0.89397 -4.37457,4.11518 -0.66632,2.26335 -1.52102,4.11157 -1.89931,4.10717 -0.37829,-0.004 -1.65845,-1.71378 -2.84478,-3.79862 -2.82345,-4.96186 -6.555,-4.94308 -8.62046,0.0434 -1.55989,3.76591 -1.64532,3.7965 -4.81047,1.72261 -3.09128,-2.02549 -3.31984,-1.99102 -5.61803,0.84713 -2.0222,2.49731 -2.77399,2.72225 -4.82254,1.44291 -1.33478,-0.83364 -3.57419,-1.51566 -4.97647,-1.51566 -3.14056,0 -3.37071,-3.60273 -0.57548,-9.00813 1.94405,-3.75939 1.87568,-3.97258 -4.48941,-13.99818 -5.91545,-9.31739 -6.39542,-10.63478 -5.66039,-15.53635 1.2193,-8.13086 2.1065,-9.00261 7.7375,-7.60277 6.36737,1.5829 7.98369,5.12398 8.05889,17.65572 l 0.0608,10.12968 2.4903,-2.98924 c 2.03635,-2.44436 2.49029,-4.90596 2.49029,-13.50415 V 550.5926 l -6.01449,-5.33939 c -6.5759,-5.83778 -12.41727,-8.80413 -17.33719,-8.80413 -4.31137,0 -7.27742,5.94822 -8.20805,16.46072 -0.70385,7.9508 -0.85378,8.24463 -4.41393,8.65063 -2.86499,0.32672 -4.3459,-0.42379 -6.65298,-3.37169 -2.04881,-2.6179 -4.53259,-4.05635 -8.02208,-4.6459 -6.93064,-1.17093 -9.04106,-4.36317 -13.91854,-21.05327 l -4.15257,-14.2096 2.64342,-9.59203 c 1.66423,-6.03888 2.57898,-12.87529 2.46944,-18.45549 -0.22369,-11.39557 2.81724,-20.48582 9.67921,-28.93402 7.17019,-8.82767 7.52037,-9.52599 5.8102,-11.58662 -1.17818,-1.41962 -0.5453,-3.31411 3.05652,-9.14951 4.09657,-6.63699 4.54235,-8.24286 4.54235,-16.36349 0,-6.36388 -0.88066,-11.36914 -3.0032,-17.06885 -1.65176,-4.43551 -3.45381,-10.91353 -4.00454,-14.39561 l -1.00133,-6.33105 -1.12073,6.19991 c -0.97255,5.38017 -0.66862,7.30542 2.29868,14.5614 5.34485,13.06983 4.88865,18.9539 -2.3787,30.68052 -6.18926,9.98702 -6.92928,12.31687 -4.63948,14.60667 0.94948,0.94948 -0.49793,3.34971 -4.92012,8.15904 l -6.26534,6.81384 -1.46739,-5.05683 c -3.79339,-13.07257 -4.50405,-26.79204 -2.28399,-44.09314 5.88224,-45.84064 19.70237,-74.66821 46.47969,-96.95253 14.29567,-11.89697 26.77882,-17.61633 58.3942,-26.75423 l 18.24483,-5.27336 16.46071,0.89291 c 14.78224,0.80186 18.07466,1.44398 32.28834,6.29715 22.97511,7.84471 31.034,11.46467 42.64285,19.15472 24.91438,16.50402 43.838,45.20437 50.42422,76.47546 3.02874,14.3803 5.97833,44.36851 5.09652,51.81562 -1.14467,9.66685 -5.69597,29.03749 -7.01401,29.85208 -0.59287,0.36641 -3.36718,-2.53069 -6.16514,-6.438 -4.33949,-6.06003 -4.86533,-7.45949 -3.57763,-9.52142 1.27698,-2.04478 0.55993,-4.2554 -4.6537,-14.34724 -7.06493,-13.67529 -7.10176,-15.48021 -0.60819,-29.79579 3.43067,-7.56314 3.67478,-8.99951 2.80656,-16.514 l -0.95094,-8.23036 -0.91789,7.59726 c -0.50482,4.17849 -2.67051,11.69703 -4.81262,16.70786 -3.17067,7.41686 -3.89474,10.84292 -3.89474,18.42869 0,8.1844 0.46354,10.049 3.81002,15.32586 3.15713,4.97827 3.56899,6.45817 2.40343,8.63605 -1.17861,2.20224 -0.76932,3.47494 2.52512,7.85185 2.16245,2.87299 5.4887,8.35747 7.39168,12.18776 3.11914,6.27818 3.46643,8.3361 3.52582,20.89244 0.0362,7.66057 0.82976,17.12642 1.76339,21.03522 1.65807,6.94181 1.58848,7.43407 -2.9953,21.19033 -2.58104,7.74586 -5.64562,15.26001 -6.81019,16.69806 -1.16457,1.43806 -4.68148,3.18895 -7.81535,3.89087 -3.13386,0.70192 -7.20337,2.71529 -9.04336,4.47414 -2.11445,2.02123 -4.444,3.04246 -6.33105,2.77541 -2.70477,-0.38278 -3.06652,-1.24102 -3.84559,-9.12376 -0.47298,-4.78569 -1.53924,-10.34118 -2.36948,-12.34554 -1.36906,-3.30521 -2.07989,-3.6443 -7.63951,-3.6443 -5.34541,0 -6.98689,0.69849 -12.82503,5.45733 -3.68226,3.00153 -7.39887,6.84764 -8.25912,8.54691 -2.31971,4.58215 -1.99552,17.04061 0.56801,21.82904 l 2.16944,4.0523 1.31263,-11.9035 c 1.28537,-11.65619 1.41275,-11.98423 6.1309,-15.78912 5.76907,-4.6524 6.60187,-3.90067 7.88013,7.11293 0.85132,7.33497 0.77755,7.57145 -5.13599,16.46459 -5.58001,8.39155 -5.89937,9.30028 -4.56519,12.98987 2.13474,5.90354 1.8806,9.92737 -0.56767,8.98789 -1.10121,-0.42258 -3.22227,0.0862 -4.71348,1.13075 -3.58129,2.50843 -4.25271,2.40431 -5.08776,-0.7889 -0.60837,-2.32637 -1.31073,-2.57392 -5.22141,-1.84027 -4.04017,0.75794 -4.64827,0.50632 -5.74447,-2.37689 -1.58595,-4.17136 -5.65594,-4.20008 -8.36925,-0.059 -2.72097,4.15272 -3.54713,3.9959 -5.0031,-0.94966 -1.85811,-6.31152 -5.99639,-6.21336 -9.67612,0.22952 -1.61221,2.82281 -3.25201,5.13675 -3.64403,5.14212 -0.39202,0.005 -2.35045,-1.69963 -4.35207,-3.78887 -2.00163,-2.08925 -4.6729,-3.79863 -5.93616,-3.79863 -1.30758,0 -4.83793,3.27217 -8.19665,7.59725 -3.24489,4.17849 -5.95081,7.59227 -6.01316,7.58618 -0.0624,-0.006 -2.31283,-3.42486 -5.00106,-7.59726 z m -3.95695,-53.80281 c 0.45466,-3.48208 1.68427,-9.74288 2.73248,-13.91292 2.00452,-7.97448 2.44668,-32.42556 0.64459,-35.64572 -0.70156,-1.25361 -1.89649,0.40385 -3.98231,5.52377 -1.63899,4.02314 -5.23875,11.85684 -7.99945,17.40823 -10.16799,20.44635 -10.2757,25.61256 -0.7141,34.25088 l 5.23731,4.73159 1.62742,-3.01239 c 0.89508,-1.65682 1.99941,-5.86137 2.45406,-9.34344 z m 28.30295,4.73681 c 6.92487,-6.58746 7.60096,-11.21632 3.28435,-22.48638 -1.8624,-4.86244 -5.52745,-15.00842 -8.14458,-22.5466 -3.16379,-9.11273 -5.03616,-12.982 -5.5872,-11.546 -0.45583,1.18788 -1.50252,7.49408 -2.32598,14.01377 -1.15936,9.1793 -1.15392,13.51589 0.0242,19.21947 0.83672,4.05102 1.52449,9.89526 1.52838,12.98721 0.009,7.54176 2.22999,15.11829 4.43087,15.11829 0.98256,0 4.03807,-2.1419 6.79002,-4.75976 z m 72.97495,-29.28734 c 2.78566,-1.28494 7.97109,-4.67184 11.52316,-7.52646 l 6.45833,-5.1902 0.8694,-13.44735 0.86939,-13.44734 -3.84566,-5.80586 c -2.1151,-3.19323 -3.84564,-6.51223 -3.84564,-7.37554 0,-2.47627 -6.3777,-7.21399 -17.22558,-12.79611 -12.551,-6.45851 -22.50702,-9.73179 -26.91737,-8.84972 -7.00052,1.4001 -35.62822,13.90081 -35.62822,15.55758 0,0.93232 1.75056,6.10191 3.89014,11.48799 2.66095,6.69855 3.66762,11.00995 3.1859,13.6447 -0.64765,3.54235 0.18434,4.67009 10.35471,14.03528 13.42118,12.35866 16.50016,14.55662 26.25346,18.74129 9.04398,3.88032 17.05119,4.20375 24.05798,0.97174 z m -152.48173,-6.77636 c 5.17005,-2.41088 14.67069,-8.55937 21.11253,-13.66329 11.28176,-8.93864 11.71474,-9.46936 11.7751,-14.43318 0.0412,-3.38728 1.72481,-8.40042 4.91286,-14.62851 l 4.85019,-9.47521 -14.72598,-7.79785 c -20.92615,-11.08102 -23.06267,-11.58349 -34.54099,-8.12337 -5.11929,1.5432 -13.96406,4.9771 -19.65504,7.63088 -8.18718,3.81779 -10.79459,5.71096 -12.49009,9.06876 -1.17857,2.33404 -3.43104,5.66818 -5.0055,7.40922 -2.50145,2.76611 -2.95125,4.96011 -3.5649,17.38857 l -0.70226,14.22305 7.10941,6.33651 c 14.57048,12.98646 23.30505,14.28079 40.92467,6.06442 z"
     id="path7" />
  <path
     style="fill:#999999;stroke-width:0.316552"
     d="m 293.81578,623.66699 c -2.37291,-2.37291 -3.37541,-5.77477 -3.32766,-11.29197 0.0473,-5.46641 0.31726,-7.76816 0.91104,-7.76816 0.88052,0 1.33991,1.76122 1.5999,6.13376 0.27359,4.60131 0.49582,5.89484 1.75969,10.24261 0.99295,3.41582 0.67994,4.30668 -0.94297,2.68376 z"
     id="path9" />
  <path
     style="fill:#999999;stroke-width:0.316552"
     d="m 305.24093,630.16389 c -0.73195,-0.8088 -3.19554,-6.77366 -4.32453,-10.47058 -1.37733,-4.51011 -1.68501,-6.57833 -1.54577,-10.3906 0.10571,-2.89442 0.25842,-3.71727 0.97857,-5.27275 0.71032,-1.53424 0.97188,-1.82601 1.5608,-1.74104 0.89359,0.12893 1.3322,1.37028 1.82564,5.16691 0.20365,1.56694 1.08336,5.9074 1.95491,9.64548 2.09943,9.00452 2.46177,11.49532 1.83514,12.61541 -0.58064,1.03789 -1.57419,1.23234 -2.28476,0.44717 z"
     id="path11" />
  <path
     style="fill:#999999;stroke-width:0.316552"
     d="m 314.99313,625.53466 c -1.05925,-1.05926 -2.65175,-6.59099 -5.17443,-17.97401 l -0.60816,-2.74415 1.30525,-2.17502 c 1.56849,-2.61367 2.3629,-3.74275 2.50138,-3.55518 0.75442,1.02182 2.81134,4.47808 3.09706,5.20401 0.52274,1.32814 1.23742,20.93019 0.78952,21.65491 -0.34648,0.56063 -1.10171,0.39834 -1.91062,-0.41056 z"
     id="path13" />
  <path
     style="fill:#999999;stroke-width:0.316552"
     d="m 324.37233,625.23996 c -0.19063,-0.2297 -0.59639,-1.4049 -0.90168,-2.61156 -0.43361,-1.71385 -0.55182,-3.47538 -0.5402,-8.05014 0.0135,-5.31121 0.0929,-6.14677 0.85372,-8.97824 0.95055,-3.53774 2.17077,-5.89972 3.04785,-5.89972 0.62645,0 1.35434,1.6966 2.51251,5.85622 1.57111,5.64273 1.73178,8.23394 0.8676,13.9922 -0.59097,3.93785 -1.14963,5.37513 -2.25222,5.79433 -1.17558,0.44696 -3.17886,0.38939 -3.58758,-0.10309 z"
     id="path15" />
  <path
     style="fill:#999999;stroke-width:0.316552"
     d="m 340.94385,632.34316 c -4.18881,-1.21305 -4.43187,-1.6727 -4.37226,-8.26833 0.0639,-7.06769 1.2212,-13.95329 3.25777,-19.38247 0.69306,-1.84759 3.6532,-6.27377 4.34398,-6.49539 0.45052,-0.14453 3.70682,4.20699 7.28383,9.73369 l 2.561,3.9569 -0.28132,7.43898 c -0.33105,8.75399 -0.59821,10.39001 -1.91108,11.70287 -1.85514,1.85514 -6.90656,2.46499 -10.88192,1.31375 z"
     id="path17" />
  <path
     style="fill:#999999;stroke-width:0.316552"
     d="m 363.26079,632.95604 c -2.4363,-0.21661 -3.68099,-0.73119 -3.96981,-1.64116 -0.21401,-0.6743 0.84843,-5.59792 2.45029,-11.35523 1.59469,-5.73155 2.93247,-9.55286 3.98954,-11.39588 2.64218,-4.60669 6.29103,-9.18002 7.32432,-9.18002 0.68861,0 2.41605,1.80222 2.86278,2.9867 0.6455,1.71155 1.03022,9.72291 0.86747,18.06403 -0.14766,7.56758 -0.22071,8.40879 -0.90724,10.44622 l -0.74664,2.21587 -4.74829,0.0353 c -2.61155,0.0194 -5.81664,-0.0597 -7.12242,-0.17581 z"
     id="path19" />
  <path
     style="fill:#999999;stroke-width:0.316552"
     d="m 385.1092,626.06843 c -2.47854,-1.28046 -2.99182,-3.37107 -2.08821,-8.50545 0.24731,-1.40522 0.55075,-3.61317 0.67432,-4.90656 0.26956,-2.82144 0.62489,-3.57532 3.03447,-6.4379 1.12723,-1.33915 2.09948,-2.8909 2.48351,-3.96376 0.82748,-2.31176 1.38601,-3.36101 1.74606,-3.28013 0.16088,0.0361 0.44839,0.81961 0.63891,1.74104 0.19052,0.92143 0.67711,2.31089 1.08132,3.08769 0.6334,1.21726 0.71108,1.72013 0.56233,3.64035 -0.3265,4.21481 -3.53591,17.54506 -4.44242,18.45158 -0.71233,0.71233 -2.48554,0.79552 -3.69029,0.17314 z"
     id="path22" />
  <path
     style="fill:#999999;stroke-width:0.316552"
     d="m 409.18384,626.40628 c -0.95716,-1.21684 -0.86393,-3.96218 0.29019,-8.54521 1.51476,-6.01516 2.90973,-9.18831 5.5343,-12.58894 0.40364,-0.52299 0.53367,-0.54352 1.00258,-0.15827 0.29633,0.24346 0.9418,1.07595 1.43438,1.84998 0.77656,1.22028 0.89559,1.72008 0.89559,3.76051 0,2.60328 -1.26963,8.86892 -2.25271,11.11718 -0.88305,2.01949 -2.05185,3.4328 -3.70698,4.48245 -1.78462,1.13178 -2.36018,1.14659 -3.19735,0.0823 z"
     id="path24" />
  <path
     style="fill:#999999;stroke-width:0.316552"
     d="m 423.96026,620.84461 c -0.27417,-0.71447 1.30114,-11.61839 1.84372,-12.76178 0.30419,-0.64105 1.02408,-1.31802 1.89011,-1.77745 l 1.39879,-0.74206 0.6357,0.63571 c 1.88536,1.88535 0.37765,10.73342 -2.3282,13.66311 -1.10847,1.20018 -3.13454,1.7788 -3.44012,0.98247 z"
     id="path26" />
  <path
     style="fill:#999999;stroke-width:0.316552"
     d="m 396.67966,628.32567 c -0.28453,-0.28453 -0.49744,-1.03333 -0.49744,-1.74952 0,-1.59861 1.61462,-9.80888 2.85407,-14.51281 1.15706,-4.39129 2.02023,-6.3265 3.74683,-8.40033 0.7221,-0.86733 1.31291,-1.75763 1.31291,-1.97845 0,-0.79781 0.58577,-0.37192 1.51587,1.10213 1.34662,2.13414 1.43273,2.64319 0.72604,4.29182 -0.8817,2.05693 -3.07195,9.81831 -3.84403,13.6217 -0.72864,3.58944 -1.55038,5.24963 -3.44611,6.96231 -1.44453,1.30504 -1.66462,1.36667 -2.36814,0.66315 z"
     id="path28" />
  <path
     style="fill:#ffd42a;stroke-width:0.895345"
     d="m 497.1842,514.64163 c -2.23501,-9.48041 -0.88014,-21.43001 3.27486,-28.88352 8.85967,-15.89306 12.86235,-24.38691 15.98016,-33.91043 7.84103,-23.95095 9.06244,-48.1274 3.68425,-72.92531 -7.7075,-35.53792 -30.88138,-68.2946 -63.59016,-89.88575 -41.474,-27.37712 -95.02535,-35.0682 -142.99581,-20.53717 -78.67538,23.83206 -125.11008,98.3522 -107.24886,172.11699 2.87077,11.85596 7.00512,22.43037 14.3029,36.58252 5.64124,10.93971 5.92534,11.79214 6.06335,18.19259 0.11334,5.25596 -0.39775,8.32013 -2.35211,14.10168 -1.37331,4.06263 -2.64812,7.3866 -2.83293,7.3866 -0.50805,0 -9.31729,-11.29227 -14.144,-18.13074 -2.34611,-3.32397 -4.63519,-6.04358 -5.08685,-6.04358 -1.43616,0 -42.2141,-6.04532 -105.544065,-15.64689 C 15.958813,464.81808 9.7561452,463.82565 9.7561452,463.14829 c 0,-0.31607 3.1225158,-1.04232 6.9389238,-1.61387 74.308068,-11.12853 162.219451,-24.52463 163.505781,-24.91531 1.43374,-0.43544 1.57645,-1.03706 1.00085,-4.21931 -0.36922,-2.0413 -0.76929,-12.97828 -0.88905,-24.30439 l -0.21774,-20.59294 -37.04459,-17.51504 c -40.91247,-19.34382 -46.811989,-22.25998 -46.223459,-22.84851 0.220167,-0.22016 5.800169,0.38982 12.400019,1.35552 9.80739,1.43504 65.84552,9.01637 75.47107,10.2104 2.30972,0.28651 2.7395,-0.0733 3.99831,-3.34757 1.68988,-4.39556 13.51989,-28.22038 16.41301,-33.05467 l 2.04735,-3.42106 -1.77914,-3.04278 c -0.97853,-1.67353 -14.65952,-20.48077 -30.40221,-41.79386 -55.91641,-75.70191 -70.48538,-95.73112 -69.99222,-96.22428 0.27463,-0.27463 17.1362,11.7251 37.47016,26.66608 84.37835,61.99948 97.06824,71.29645 99.32471,72.76805 2.36392,1.54168 2.37368,1.53758 12.42703,-5.22556 5.53368,-3.72266 12.05823,-7.87035 14.499,-9.21709 l 4.43776,-2.44862 -0.55315,-4.87583 c -0.44779,-3.94704 -14.42168,-76.47763 -16.1956,-84.06219 -0.2916,-1.2468 -0.13475,-1.87079 0.38892,-1.54714 0.93532,0.57806 3.16232,4.5512 27.63289,49.29929 8.61733,15.75807 15.75378,28.75617 15.85877,28.88467 0.10498,0.1285 5.59212,-1.14582 12.19363,-2.83182 6.60151,-1.68599 13.9132,-3.34727 16.2482,-3.69172 3.94859,-0.58248 4.30506,-0.85402 5.09782,-3.88327 0.46879,-1.79135 6.93924,-43.54752 14.37876,-92.7915 7.43953,-49.243978 13.76427,-90.333698 14.05499,-91.31049 0.50738,-1.704808 0.558,-1.69641 1.26306,0.209529 0.40396,1.092032 2.74819,15.1871 5.20938,31.322371 2.46119,16.13527 8.74502,57.33877 13.96407,91.56334 5.21904,34.22456 9.80833,62.54893 10.19843,62.94304 0.39009,0.39411 7.11532,2.27724 14.94495,4.18473 7.82963,1.90751 14.91481,3.73344 15.74483,4.05765 1.97284,0.77058 1.95471,0.80059 24.88654,-41.19136 19.22924,-35.21192 21.50529,-39.18655 21.50529,-37.5545 0,0.49286 -4.02905,21.01853 -8.95345,45.6126 -4.9244,24.59407 -8.95345,44.78271 -8.95345,44.86366 0,0.0809 2.92106,1.87267 6.49125,3.9816 3.57019,2.10892 9.91595,6.11186 14.10168,8.89541 4.18574,2.78354 8.07698,5.33533 8.6472,5.67065 1.11313,0.65457 9.57411,-5.41496 89.29097,-64.05336 28.0129,-20.60582 51.12197,-37.2757 51.3535,-37.04419 0.23152,0.23153 -22.20999,31.07792 -49.87002,68.54756 -27.66004,37.46962 -50.93044,69.24081 -51.71201,70.60263 -1.39126,2.42412 -1.30477,2.68368 4.12603,12.38154 3.0509,5.44803 7.39041,14.29395 9.64335,19.65761 2.25295,5.36365 4.35125,10.03532 4.66287,10.38148 0.31163,0.34617 20.87112,-2.17943 45.68774,-5.61244 24.81663,-3.43301 45.29749,-6.06547 45.51305,-5.84991 0.4169,0.4169 -4.97883,3.03164 -53.39819,25.87647 l -30.7387,14.50288 -0.21638,21.04061 c -0.11901,11.57233 -0.52062,22.51328 -0.89246,24.31322 l -0.67608,3.2726 4.80393,0.96036 c 2.64216,0.52819 41.0654,6.4343 85.38498,13.12468 44.31958,6.69038 80.90721,12.48486 81.30584,12.87663 0.39863,0.39178 -0.81008,0.96873 -2.68604,1.28212 -6.43983,1.07584 -180.68849,27.30085 -185.32154,27.89152 l -4.63241,0.59059 -6.69441,9.12366 c -8.7503,11.92556 -15.05358,19.37809 -16.38982,19.37809 -0.59851,0 -1.77426,-2.97175 -2.65672,-6.71492 z"
     id="path30" />
</svg>
