<?xml version="1.0" encoding="UTF-8" standalone="no"?>
<svg
   xmlns:dc="http://purl.org/dc/elements/1.1/"
   xmlns:cc="http://creativecommons.org/ns#"
   xmlns:rdf="http://www.w3.org/1999/02/22-rdf-syntax-ns#"
   xmlns:svg="http://www.w3.org/2000/svg"
   xmlns="http://www.w3.org/2000/svg"
   xmlns:xlink="http://www.w3.org/1999/xlink"
   xmlns:sodipodi="http://sodipodi.sourceforge.net/DTD/sodipodi-0.dtd"
   xmlns:inkscape="http://www.inkscape.org/namespaces/inkscape"
   cursor="default"
   version="1.1"
   viewBox="0 0 256 256"
   id="svg82"
   sodipodi:docname="ExcaliburM.svg"
   inkscape:version="1.0.2-2 (e86c870879, 2021-01-15)">
  <metadata
     id="metadata86">
    <rdf:RDF>
      <cc:Work
         rdf:about="">
        <dc:format>image/svg+xml</dc:format>
        <dc:type
           rdf:resource="http://purl.org/dc/dcmitype/StillImage" />
      </cc:Work>
    </rdf:RDF>
  </metadata>
  <sodipodi:namedview
     pagecolor="#ffffff"
     bordercolor="#666666"
     borderopacity="1"
     objecttolerance="10"
     gridtolerance="10"
     guidetolerance="10"
     inkscape:pageopacity="0"
     inkscape:pageshadow="2"
     inkscape:window-width="1920"
     inkscape:window-height="1017"
     id="namedview84"
     showgrid="false"
     inkscape:lockguides="true"
     inkscape:zoom="2.021192"
     inkscape:cx="18.157233"
     inkscape:cy="91.452791"
     inkscape:window-x="-8"
     inkscape:window-y="-8"
     inkscape:window-maximized="1"
     inkscape:current-layer="layer3"
     inkscape:document-rotation="0" />
  <defs
     id="defs44">
    <inkscape:path-effect
       effect="spiro"
       id="path-effect351"
       is_visible="true" />
    <inkscape:path-effect
       effect="spiro"
       id="path-effect347"
       is_visible="true" />
    <inkscape:path-effect
       effect="spiro"
       id="path-effect343"
       is_visible="true" />
    <inkscape:path-effect
       effect="spiro"
       id="path-effect339"
       is_visible="true" />
    <inkscape:path-effect
       effect="spiro"
       id="path-effect335"
       is_visible="true" />
    <inkscape:path-effect
       effect="spiro"
       id="path-effect331"
       is_visible="true" />
    <inkscape:path-effect
       effect="spiro"
       id="path-effect327"
       is_visible="true" />
    <inkscape:path-effect
       effect="spiro"
       id="path-effect319"
       is_visible="true" />
    <inkscape:path-effect
       effect="spiro"
       id="path-effect315"
       is_visible="true" />
    <inkscape:path-effect
       effect="spiro"
       id="path-effect311"
       is_visible="true" />
    <inkscape:path-effect
       effect="spiro"
       id="path-effect307"
       is_visible="true" />
    <inkscape:path-effect
       effect="spiro"
       id="path-effect303"
       is_visible="true" />
    <inkscape:path-effect
       effect="spiro"
       id="path-effect299"
       is_visible="true" />
    <inkscape:path-effect
       effect="spiro"
       id="path-effect295"
       is_visible="true" />
    <inkscape:path-effect
       effect="spiro"
       id="path-effect291"
       is_visible="true" />
    <inkscape:path-effect
       effect="spiro"
       id="path-effect287"
       is_visible="true" />
    <inkscape:path-effect
       effect="spiro"
       id="path-effect283"
       is_visible="true" />
    <inkscape:path-effect
       effect="spiro"
       id="path-effect279"
       is_visible="true" />
    <inkscape:path-effect
       effect="spiro"
       id="path-effect275"
       is_visible="true" />
    <inkscape:path-effect
       effect="spiro"
       id="path-effect271"
       is_visible="true" />
    <inkscape:path-effect
       effect="spiro"
       id="path-effect267"
       is_visible="true" />
    <inkscape:path-effect
       effect="spiro"
       id="path-effect263"
       is_visible="true" />
    <inkscape:path-effect
       effect="spiro"
       id="path-effect259"
       is_visible="true" />
    <inkscape:path-effect
       effect="spiro"
       id="path-effect255"
       is_visible="true" />
    <inkscape:path-effect
       effect="spiro"
       id="path-effect251"
       is_visible="true" />
    <inkscape:path-effect
       effect="spiro"
       id="path-effect247"
       is_visible="true" />
    <inkscape:path-effect
       effect="spiro"
       id="path-effect243"
       is_visible="true" />
    <inkscape:path-effect
       effect="spiro"
       id="path-effect239"
       is_visible="true" />
    <inkscape:path-effect
       effect="spiro"
       id="path-effect235"
       is_visible="true" />
    <inkscape:path-effect
       effect="spiro"
       id="path-effect231"
       is_visible="true" />
    <inkscape:path-effect
       effect="spiro"
       id="path-effect227"
       is_visible="true" />
    <inkscape:path-effect
       effect="spiro"
       id="path-effect223"
       is_visible="true" />
    <inkscape:path-effect
       effect="spiro"
       id="path-effect219"
       is_visible="true" />
    <inkscape:path-effect
       effect="spiro"
       id="path-effect215"
       is_visible="true" />
    <inkscape:path-effect
       effect="spiro"
       id="path-effect211"
       is_visible="true" />
    <inkscape:path-effect
       effect="spiro"
       id="path-effect207"
       is_visible="true" />
    <inkscape:path-effect
       effect="spiro"
       id="path-effect203"
       is_visible="true" />
    <inkscape:path-effect
       effect="spiro"
       id="path-effect199"
       is_visible="true" />
    <inkscape:path-effect
       effect="spiro"
       id="path-effect195"
       is_visible="true" />
    <inkscape:path-effect
       effect="spiro"
       id="path-effect191"
       is_visible="true" />
    <inkscape:path-effect
       effect="spiro"
       id="path-effect187"
       is_visible="true" />
    <inkscape:path-effect
       effect="spiro"
       id="path-effect183"
       is_visible="true" />
    <inkscape:path-effect
       effect="spiro"
       id="path-effect179"
       is_visible="true" />
    <inkscape:path-effect
       effect="spiro"
       id="path-effect175"
       is_visible="true" />
    <inkscape:path-effect
       effect="spiro"
       id="path-effect171"
       is_visible="true" />
    <inkscape:path-effect
       effect="spiro"
       id="path-effect167"
       is_visible="true" />
    <inkscape:path-effect
       effect="spiro"
       id="path-effect163"
       is_visible="true" />
    <inkscape:path-effect
       effect="spiro"
       id="path-effect159"
       is_visible="true" />
    <inkscape:path-effect
       effect="spiro"
       id="path-effect155"
       is_visible="true" />
    <inkscape:path-effect
       effect="spiro"
       id="path-effect151"
       is_visible="true" />
    <inkscape:path-effect
       effect="spiro"
       id="path-effect147"
       is_visible="true" />
    <inkscape:path-effect
       effect="spiro"
       id="path-effect143"
       is_visible="true" />
    <inkscape:path-effect
       effect="spiro"
       id="path-effect139"
       is_visible="true" />
    <inkscape:path-effect
       effect="spiro"
       id="path-effect135"
       is_visible="true" />
    <inkscape:path-effect
       effect="spiro"
       id="path-effect131"
       is_visible="true" />
    <inkscape:path-effect
       effect="spiro"
       id="path-effect127"
       is_visible="true" />
    <inkscape:path-effect
       effect="spiro"
       id="path-effect123"
       is_visible="true" />
    <inkscape:path-effect
       effect="spiro"
       id="path-effect119"
       is_visible="true" />
    <inkscape:path-effect
       effect="spiro"
       id="path-effect115"
       is_visible="true" />
    <inkscape:path-effect
       effect="spiro"
       id="path-effect111"
       is_visible="true" />
    <inkscape:path-effect
       effect="spiro"
       id="path-effect107"
       is_visible="true" />
    <inkscape:path-effect
       effect="spiro"
       id="path-effect103"
       is_visible="true" />
    <linearGradient
       id="innoGrad4">
      <stop
         stop-color="#ffb380"
         offset="0"
         id="stop2" />
      <stop
         stop-color="#fca"
         offset="1"
         id="stop4" />
    </linearGradient>
    <linearGradient
       id="linearGradient1232"
       x1="149.74"
       x2="147.34"
       y1="110.12"
       y2="107.69"
       gradientTransform="matrix(-.0051354 .99999 .99999 .0051354 1.54 -1.5321)"
       gradientUnits="userSpaceOnUse">
      <stop
         stop-color="#f55"
         offset="0"
         id="stop7" />
      <stop
         stop-color="#ff8080"
         offset="1"
         id="stop9" />
    </linearGradient>
    <linearGradient
       id="linearGradient1242"
       x1="86.619"
       x2="85.723"
       y1="171.39"
       y2="170.49"
       gradientTransform="matrix(-.0051354 .99999 .99999 .0051354 1.54 -1.5321)"
       gradientUnits="userSpaceOnUse">
      <stop
         stop-color="#ff2a2a"
         offset="0"
         id="stop12" />
      <stop
         stop-color="#f55"
         offset="1"
         id="stop14" />
    </linearGradient>
    <linearGradient
       id="linearGradient1250"
       x1="18.12"
       x2="21.466"
       y1="241.29"
       y2="228.73"
       gradientTransform="matrix(-.0051354 .99999 .99999 .0051354 1.54 -1.5321)"
       gradientUnits="userSpaceOnUse">
      <stop
         stop-color="#fd5"
         offset="0"
         id="stop17" />
      <stop
         stop-color="#fea"
         offset="1"
         id="stop19" />
    </linearGradient>
    <linearGradient
       id="linearGradient1284"
       x1="30"
       x2="30.714"
       y1="226.18"
       y2="225.42"
       gradientTransform="matrix(-.0051354 .99999 .99999 .0051354 1.54 -1.5321)"
       gradientUnits="userSpaceOnUse"
       xlink:href="#innoGrad4" />
    <linearGradient
       id="linearGradient1292"
       x1="37.634"
       x2="38.214"
       y1="219.17"
       y2="218.59"
       gradientTransform="matrix(-.0051354 .99999 .99999 .0051354 1.54 -1.5321)"
       gradientUnits="userSpaceOnUse"
       xlink:href="#innoGrad4" />
    <linearGradient
       id="linearGradient1306"
       x1="40.045"
       x2="40.938"
       y1="216.76"
       y2="215.78"
       gradientTransform="matrix(-.0051354 .99999 .99999 .0051354 1.54 -1.5321)"
       gradientUnits="userSpaceOnUse"
       xlink:href="#innoGrad4" />
    <linearGradient
       id="linearGradient1314"
       x1="42.455"
       x2="43.348"
       y1="214.21"
       y2="213.32"
       gradientTransform="matrix(-.0051354 .99999 .99999 .0051354 1.54 -1.5321)"
       gradientUnits="userSpaceOnUse"
       xlink:href="#innoGrad4" />
    <linearGradient
       id="linearGradient1322"
       x1="50.58"
       x2="51.071"
       y1="206.49"
       y2="206.04"
       gradientTransform="matrix(-.0051354 .99999 .99999 .0051354 1.54 -1.5321)"
       gradientUnits="userSpaceOnUse"
       xlink:href="#innoGrad4" />
    <linearGradient
       id="linearGradient1330"
       x1="27.009"
       x2="54.821"
       y1="229.57"
       y2="202.83"
       gradientTransform="matrix(-.0051354 .99999 .99999 .0051354 1.54 -1.5321)"
       gradientUnits="userSpaceOnUse">
      <stop
         stop-color="#f95"
         offset="0"
         id="stop27" />
      <stop
         stop-color="#ff7f2a"
         offset=".088"
         id="stop29" />
      <stop
         stop-color="#f95"
         offset=".265"
         id="stop31" />
      <stop
         stop-color="#ff7f2a"
         offset=".446"
         id="stop33" />
      <stop
         stop-color="#ff7f2a"
         offset=".601"
         id="stop35" />
      <stop
         stop-color="#f95"
         offset=".733"
         id="stop37" />
      <stop
         stop-color="#ff7f2a"
         offset=".863"
         id="stop39" />
      <stop
         stop-color="#f95"
         offset="1"
         id="stop41" />
    </linearGradient>
  </defs>
  <g
     inkscape:groupmode="layer"
     id="layer3"
     inkscape:label="color"
     style="display:inline">
    <path
       style="fill:#000000;stroke-width:0.221625"
       d="m 249.43809,12.679884 0.41096,1.2847 -1.34363,1.320382 c -0.7388,0.726409 -2.22777,2.016292 -3.30875,2.866463 -1.08092,0.850262 -4.99334,4.394981 -8.69416,7.877231 -7.57702,7.129429 -13.42361,13.178983 -19.31903,19.989952 -6.59541,7.619551 -7.97984,9.362038 -8.75448,11.018669 l -0.70792,1.513976 -1.75205,0.751819 c -0.96362,0.413485 -1.8185,0.817358 -1.89975,0.897472 -0.0813,0.08013 0.16389,0.461566 0.54462,0.847676 2.89524,2.935839 9.34545,12.806848 11.94235,18.275872 0.86517,1.822075 3.95703,10.110878 4.22556,11.328196 0.0542,0.245254 -1.74083,0.959414 -7.14241,2.841591 -3.96809,1.382699 -7.27899,2.452766 -7.35754,2.377963 -0.0787,-0.07488 -0.22876,-0.977176 -0.33383,-2.005293 -0.28605,-2.799609 -0.54157,-3.986397 -1.47102,-6.832289 -1.23658,-3.786512 -2.99827,-7.896929 -4.47486,-10.440915 l -1.29594,-2.232763 -0.61522,0.535044 c -0.33826,0.294376 -8.88908,8.479035 -19.00167,18.188238 -10.1126,9.709242 -42.0607,40.376082 -70.99581,68.148562 -28.935088,27.77246 -58.291547,55.95409 -65.236593,62.62578 -6.945088,6.67167 -13.377206,12.71933 -14.293712,13.43916 -3.178852,2.4966 -11.548316,7.71324 -14.563763,9.07747 -1.852479,0.83812 -9.2968029,3.34052 -9.4563266,3.17877 -0.290411,-0.29449 -0.026186,-1.34747 1.1720344,-4.66845 1.6487017,-4.5701 2.1359276,-5.59116 4.6027122,-9.64584 2.671698,-4.39152 4.877991,-7.6312 6.750977,-9.91308 0.891729,-1.08647 15.540171,-16.04041 36.683461,-37.4487 19.359368,-19.60202 47.84383,-48.45482 63.29876,-64.11736 15.45495,-15.66254 36.22902,-36.710131 46.16462,-46.772434 9.9356,-10.062303 18.27407,-18.533377 18.52993,-18.824629 l 0.46524,-0.529554 -2.16098,-1.292805 c -2.48875,-1.488873 -6.97848,-3.489833 -10.54329,-4.698873 -2.729,-0.925558 -3.93502,-1.199325 -6.69923,-1.520717 -1.02655,-0.119361 -1.92723,-0.281656 -2.0015,-0.360665 -0.0996,-0.105764 4.54876,-13.296859 5.07239,-14.394657 0.11881,-0.24908 9.13877,3.133337 11.65246,4.369587 5.34335,2.627956 15.21662,9.279897 18.07324,12.17654 0.38076,0.386103 0.75882,0.636426 0.84,0.556354 0.0813,-0.08003 0.49696,-0.929306 0.92382,-1.887074 l 0.77615,-1.741412 1.52368,-0.686791 c 1.66724,-0.751497 3.42883,-2.111544 11.13945,-8.600252 6.91912,-5.822659 13.08347,-11.617081 20.32166,-19.10214 3.53384,-3.65424 7.11811,-7.50376 7.96522,-8.554346 0.84707,-1.050615 2.14289,-2.5062853 2.87953,-3.2348747 l 1.33896,-1.3251156 1.27885,0.4287903 c 1.14507,0.3839368 1.44396,0.596195 2.85704,2.0290903 1.41309,1.4328927 1.62111,1.7347417 1.98913,2.8849957 z m -5.13097,-4.480511 -1.08627,-0.3861 -1.09206,1.2905755 c -0.60067,0.7097881 -1.59675,1.9150765 -2.21361,2.6783385 -4.1396,5.121967 -19.26473,20.123134 -26.3573,26.141189 -8.73361,7.410603 -12.16974,10.109972 -13.63476,10.711273 l -1.38271,0.567544 -0.77975,1.799372 c -0.47003,1.0847 -0.7104,1.961654 -0.60515,2.207907 0.0959,0.224704 1.43508,1.686718 2.97572,3.248933 1.54061,1.562215 2.98383,2.921504 3.2072,3.020643 0.24469,0.108676 1.12497,-0.119467 2.2161,-0.574376 l 1.81005,-0.754606 0.58675,-1.374707 c 0.62161,-1.456493 3.36854,-4.854716 10.89998,-13.484346 6.11624,-7.008071 21.32649,-21.922928 26.50552,-25.990885 0.77182,-0.606141 1.98236,-1.580151 2.69019,-2.164368 l 1.28701,-1.062161 -0.19217,-0.745125 c -0.48191,-1.868753 -2.91055,-4.4451822 -4.83485,-5.1291725 z m -52.75864,41.004325 c -5.41933,-3.980765 -11.22557,-7.619001 -14.82158,-9.287328 -1.53378,-0.711573 -10.04448,-3.984426 -10.4364,-4.0134 -0.0412,-0.0029 -0.70754,1.754997 -1.48073,3.906731 -0.77319,2.151733 -1.87009,5.18848 -2.43754,6.748318 l -1.03168,2.836033 2.13163,0.258926 c 2.85009,0.346213 5.06363,0.964619 8.97289,2.506765 5.95913,2.350778 10.12795,4.782228 15.27713,8.910292 5.47156,4.386537 11.25124,11.744153 14.26,18.153187 1.2751,2.716077 3.28239,8.080925 3.7866,10.120249 0.23535,0.951915 0.53097,2.690869 0.65698,3.864344 l 0.2291,2.133561 2.84774,-0.993476 c 1.56627,-0.546402 4.61806,-1.600368 6.78171,-2.342133 2.16368,-0.741755 3.93192,-1.382405 3.92948,-1.423672 -0.0235,-0.392273 -3.17759,-8.947699 -3.86776,-10.491247 -2.02917,-4.538226 -7.22415,-12.733979 -11.20544,-17.678107 -0.30734,-0.381704 -3.06398,-3.19592 -6.12585,-6.253844 -4.29351,-4.288118 -6.00143,-5.87913 -7.46634,-6.955142 z m 7.99869,9.212697 c -0.006,0.842008 -0.17216,0.979247 -1.13395,0.93594 -0.98706,-0.04438 -1.03501,-0.09286 -1.09801,-1.111039 -0.0492,-0.788973 -0.0234,-0.830713 0.63015,-1.018063 0.87145,-0.249807 1.60847,0.298782 1.60225,1.192625 z m -1.34182,-0.850842 c -0.37182,0.03197 -0.44678,0.142403 -0.45045,0.663681 -0.003,0.61907 0.003,0.626127 0.67294,0.701319 0.58117,0.0652 0.68388,0.0095 0.72357,-0.386752 0.0585,-0.585901 -0.36885,-1.027896 -0.94609,-0.97828 z m 1.88621,3.694514 c -0.003,0.609521 -0.41255,0.843144 -1.4899,0.852472 -0.55722,0.0042 -1.01157,0.06773 -1.00966,0.139732 10e-4,0.07204 0.25142,1.167196 0.55449,2.433752 l 0.55101,2.302782 1.45908,0.694336 c 2.55768,1.21715 4.1041,2.374556 5.98607,4.480112 3.11,3.479527 4.73362,7.112657 4.87402,10.906277 0.0989,2.67296 -0.21418,6.286918 -0.57548,6.643257 -0.28353,0.27961 -1.33275,0.209697 -1.61792,-0.107909 -0.0844,-0.09275 -0.0374,-0.837991 0.10306,-1.654896 0.88201,-5.127861 -0.56888,-10.828562 -3.68246,-14.468832 -1.6504,-1.929585 -3.28873,-3.108045 -5.90276,-4.245901 l -2.05694,-0.895379 -0.36307,-2.050586 c -0.43912,-2.480246 -1.07759,-4.343641 -1.70691,-4.981788 -0.63189,-0.640745 -2.48593,-1.302932 -4.99065,-1.782439 l -2.07845,-0.397899 -0.69755,-1.796563 c -1.94167,-5.000664 -5.63721,-8.265852 -10.98404,-9.704963 -2.10022,-0.565302 -5.50952,-0.740338 -7.69146,-0.394882 -0.82719,0.130948 -1.57745,0.166668 -1.66725,0.07932 -0.30996,-0.302465 -0.3627,-1.345729 -0.0812,-1.623367 0.36134,-0.356338 3.9793,-0.619066 6.65064,-0.482961 6.11427,0.311545 12.38551,4.866827 15.22839,11.061597 l 0.66867,1.456977 2.34613,0.627168 c 1.29038,0.344917 2.39282,0.581137 2.44986,0.524885 0.0572,-0.05626 0.0977,-0.516588 0.0904,-1.022964 -0.0132,-0.9789 0.25929,-1.424324 0.8718,-1.420043 0.66335,0.0042 0.87206,0.472387 0.84872,1.902168 -0.0117,0.770149 0.12267,1.544758 0.3014,1.725977 0.17874,0.181229 0.95139,0.327271 1.72164,0.325409 1.42994,-0.0032 1.89479,0.211759 1.89017,0.875103 z m -2.0827,-0.439029 c -1.85547,0.105164 -2.3997,-0.455382 -2.26684,-2.335077 0.0625,-0.885294 -0.0188,-1.41143 -0.23298,-1.508665 -0.50924,-0.231067 -0.66948,0.09013 -0.60445,1.211723 0.0327,0.566783 -0.0238,1.108189 -0.12699,1.203068 -0.10306,0.09465 -1.37975,-0.155695 -2.83792,-0.556876 l -2.65126,-0.729419 -0.85824,-1.789937 c -1.17093,-2.442124 -2.497,-4.226877 -4.43732,-5.972113 -2.10955,-1.897489 -3.74054,-2.882717 -6.40029,-3.866258 -1.96111,-0.725184 -2.50311,-0.804839 -5.51375,-0.810404 -1.83636,-0.0033 -3.66666,0.06053 -4.06731,0.142083 -0.67343,0.137048 -0.72872,0.186844 -0.73198,0.659297 -0.002,0.281054 0.0495,0.502312 0.11447,0.491692 6.57153,-1.076135 12.22858,0.325652 16.32945,4.046325 1.8795,1.705326 2.68841,2.865266 3.91844,5.619076 l 0.93161,2.085733 2.43377,0.537925 c 4.80963,1.063053 5.26665,1.529835 6.22759,6.360827 l 0.47747,2.400353 1.94894,0.850894 c 2.51471,1.097883 4.10281,2.240997 5.76238,4.147751 2.09393,2.40579 3.42319,5.357382 3.99658,8.874316 0.27622,1.694069 0.2102,5.460432 -0.11736,6.697836 -0.21317,0.8052 -0.15009,0.928285 0.44841,0.876838 0.61036,-0.05237 0.733,-0.811815 0.77317,-4.785025 0.0276,-2.734701 -0.0773,-3.664237 -0.59194,-5.2429 -1.62859,-4.995921 -5.42468,-9.266157 -10.1937,-11.466981 l -1.40431,-0.648054 -0.6443,-2.587608 c -0.35438,-1.423167 -0.61528,-2.706812 -0.57979,-2.85258 0.0355,-0.145736 0.56894,-0.23948 1.18547,-0.208299 0.6559,0.03302 1.17868,-0.07046 1.26001,-0.249712 0.23563,-0.519301 -0.16635,-0.674113 -1.54705,-0.595808 z m -3.18484,2.753105 c -0.003,0.423107 -0.15392,0.915886 -0.33567,1.095044 -0.49239,0.485595 -1.83714,0.34578 -2.42696,-0.252332 -0.58987,-0.598111 -0.71094,-1.944665 -0.21855,-2.430261 0.53582,-0.528398 1.78632,-0.398783 2.42772,0.251616 0.3858,0.391211 0.55715,0.804801 0.55346,1.335933 z m -1.57194,-1.358701 c -0.66854,-0.0042 -1.28771,0.817757 -1.06784,1.418361 0.29086,0.794631 1.08989,0.987765 1.67972,0.406081 0.66338,-0.654206 0.27298,-1.818279 -0.61188,-1.824442 z m -4.54461,0.37306 c -2.05276,-1.76432 -5.44526,-4.30921 -5.88817,-4.417035 -0.18269,-0.04438 -5.14186,4.883312 -16.13264,16.031036 -8.72789,8.852368 -39.30385,39.841847 -67.946618,68.865527 -82.52132,83.61886 -81.199058,82.26829 -82.961011,84.73788 -1.874837,2.62782 -4.908047,7.399 -6.4512584,10.14776 -1.377315,2.45324 -2.0193637,3.97193 -3.4040296,8.05193 l -1.0219229,3.01121 4.1513161,-1.4161 c 2.2832098,-0.77887 4.7557158,-1.72643 5.4944638,-2.10572 3.194184,-1.63998 7.408263,-4.19103 11.304639,-6.84342 l 2.514235,-1.71152 38.877535,-37.27547 C 171.49592,99.708605 198.23426,73.992869 198.17631,73.739633 c -0.0921,-0.402085 -2.67278,-3.984389 -4.10419,-5.69682 -1.89658,-2.26896 -3.19809,-3.592221 -5.36477,-5.454154 z m 4.59846,7.915754 c -1.02059,1.006495 -4.33387,1.195748 -5.21909,0.29813 -0.3405,-0.345276 -0.44132,-0.317786 -1.04267,0.284143 -0.61951,0.62029 -0.64704,0.745257 -0.39553,1.805449 0.33576,1.415584 -0.0593,2.514025 -1.20448,3.348219 -0.90664,0.660473 -2.40054,0.839421 -3.41841,0.409488 -0.59147,-0.249849 -0.73755,-0.207857 -1.33834,0.384617 -0.70857,0.698785 -0.6407,0.688342 -3.21914,0.491128 -1.30751,-0.100011 -2.17604,-0.708481 -2.09983,-1.471016 0.111,-1.110356 -1.32894,-1.162454 -3.66424,-0.132697 -2.86871,1.265021 -4.27813,3.2124 -4.35343,6.015184 -0.0452,1.681839 -0.0364,1.708877 0.56291,1.74295 0.87154,0.04953 1.1513,0.679319 1.17699,2.649508 0.0189,1.452602 -0.0782,1.842519 -0.69641,2.794844 -0.74441,1.146732 -0.7519,1.696846 -0.0241,1.769631 0.8737,0.0875 1.27362,1.19416 1.21824,3.371859 -0.0709,2.787263 -0.68077,4.146542 -2.65067,5.907487 -1.77738,1.58868 -2.77863,1.92247 -5.79811,1.93246 -2.3921,0.008 -2.94365,-0.2356 -3.13799,-1.38538 -0.14361,-0.850154 -0.49248,-0.827923 -1.4254,0.0908 -0.88248,0.86904 -2.18672,1.33612 -2.85076,1.02096 -0.20445,-0.0971 -0.80274,-0.21139 -1.3296,-0.25416 -1.14648,-0.0931 -1.57122,-0.46555 -1.56497,-1.37242 0.005,-0.659313 -0.006,-0.673037 -0.52226,-0.608434 -1.44572,0.181282 -2.85526,0.880014 -3.9531,1.959674 -1.36759,1.34401 -1.7951,2.08473 -1.94871,3.37077 -0.11719,0.98047 0.15641,1.59128 0.66074,1.47591 0.13963,-0.032 0.46389,0.15474 0.72043,0.41488 0.35845,0.36347 0.45617,0.8397 0.4221,2.05703 -0.0427,1.52472 -0.34828,2.3432 -1.3112,3.51181 -0.39758,0.48244 -0.38021,0.57245 0.26713,1.38959 0.8415,1.06208 1.15979,2.06462 1.21972,3.84084 0.10722,3.17979 -2.13077,6.38275 -5.11885,7.32572 -0.90339,0.28511 -4.37118,0.2705 -5.30938,-0.0223 -0.31276,-0.0976 -0.72433,-0.41446 -0.91454,-0.70411 -0.4253,-0.64761 -0.82932,-0.52096 -1.24951,0.39177 -0.26284,0.57094 -0.40944,0.67061 -1.13992,0.77491 l -0.8383,0.11966 -36.545952,36.13812 c -28.97367,28.65043 -36.546525,36.21924 -36.548618,36.52983 -0.0011,0.2155 -0.261543,0.64701 -0.577877,0.95899 -0.778279,0.76753 -1.624031,0.70623 -2.499144,-0.18117 -0.875114,-0.8874 -0.924667,-1.73392 -0.146452,-2.50145 0.316344,-0.31197 0.751483,-0.56599 0.966932,-0.56446 0.586417,0.005 73.843601,-71.94353 74.307791,-72.9795 0.42376,-0.94578 1.32584,-1.27859 2.21505,-0.81725 0.98029,0.50862 1.5292,0.481 2.12531,-0.10692 0.3631,-0.35809 0.7923,-0.53094 1.30943,-0.52735 0.89688,0.006 1.44864,0.48018 1.5997,1.37405 0.10369,0.61408 0.13581,0.63319 0.94631,0.56502 1.43054,-0.12018 2.76945,-0.72369 3.74858,-1.68928 0.95878,-0.94553 1.29474,-1.69182 1.63229,-3.626 0.18435,-1.05642 0.16139,-1.13518 -0.35733,-1.23031 -0.30486,-0.0558 -0.7332,-0.28304 -0.95188,-0.5048 -0.44661,-0.45286 -0.69278,-1.49565 -0.41724,-1.76738 0.0994,-0.098 0.19073,-0.6194 0.20292,-1.1585 0.0166,-0.69804 0.19903,-1.19792 0.63668,-1.73664 1.32576,-1.63184 1.31814,-1.51818 0.16356,-2.45126 l -1.02989,-0.83227 -0.0229,-2.16065 c -0.0323,-3.02565 0.31549,-3.90899 2.30661,-5.86088 2.07695,-2.036572 3.13823,-2.451907 6.07541,-2.379786 l 2.1413,0.05248 0.76083,0.949276 c 0.8684,1.08366 1.01667,1.09033 2.37502,0.106594 0.93192,-0.674923 1.88124,-0.93307 2.20905,-0.600667 0.123,0.124662 0.58439,0.215598 1.02544,0.20201 0.84234,-0.02598 1.72325,0.644058 1.78454,1.357293 0.0227,0.26483 0.29509,0.35794 1.02641,0.35112 1.40647,-0.0132 2.60879,-0.555855 3.82033,-1.724229 1.11712,-1.077387 1.68508,-2.298102 1.84489,-3.965628 0.0749,-0.781423 0.0415,-0.85243 -0.35162,-0.751093 -0.75288,0.194049 -1.38541,-0.712877 -1.45296,-2.083157 -0.0806,-1.634862 0.0868,-2.353996 0.81778,-3.514073 0.84055,-1.333892 0.84753,-1.5774 0.0525,-1.833402 -0.94067,-0.302862 -1.1974,-0.657833 -1.31608,-1.819761 -0.0585,-0.572788 -0.18187,-1.730499 -0.27412,-2.572738 -0.10317,-0.941977 -0.0194,-1.983019 0.21786,-2.704993 0.35033,-1.066239 0.55927,-1.344903 2.28272,-3.044536 2.16605,-2.136106 2.97283,-2.544143 5.68973,-2.877661 2.5816,-0.316892 4.36294,0.359115 5.04919,1.916176 0.23307,0.52885 0.27162,0.530564 0.77453,0.0346 0.43947,-0.433392 0.48321,-0.635276 0.25806,-1.189733 -0.41571,-1.023742 -0.216,-2.515013 0.45702,-3.41238 0.85004,-1.133365 1.9539,-1.513176 3.36465,-1.157742 1.05657,0.266202 1.18205,0.240542 1.81081,-0.370357 0.60482,-0.586995 0.63715,-0.695209 0.30988,-1.027076 -0.3726,-0.377813 -0.7185,-2.046275 -0.63,-3.038731 0.0553,-0.620206 0.61951,-1.822275 1.05848,-2.255184 0.23846,-0.235168 0.41337,-0.164876 0.95301,0.383061 0.60106,0.60949 0.63662,0.751829 0.39364,1.557198 -0.4104,1.360583 -0.18912,2.279067 0.78775,3.26963 0.97686,0.990542 1.89218,1.224595 3.25834,0.833153 0.80861,-0.231688 0.95013,-0.193797 1.55158,0.415293 0.5855,0.593716 0.62042,0.711037 0.30073,1.026288 z m -1.37235,-1.136742 c -0.58813,0.580002 -3.53544,0.172417 -4.29059,-0.593336 -0.75517,-0.765754 -1.1217,-3.71845 -0.53358,-4.298441 0.0949,-0.0937 -0.0386,-0.38487 -0.29694,-0.646907 -0.43366,-0.439734 -0.49529,-0.435475 -0.80115,0.05563 -0.62552,1.004371 -0.76163,1.808309 -0.4885,2.885401 0.15043,0.593295 0.45996,1.267755 0.68781,1.498811 0.40245,0.40808 0.38729,0.446696 -0.5293,1.350635 -0.93147,0.918599 -0.95446,0.927265 -1.82916,0.636643 -1.4209,-0.471567 -2.09587,-0.348745 -2.97117,0.540681 -0.92182,0.936614 -1.11581,1.831993 -0.71334,3.29183 0.277,1.004686 0.26444,1.047919 -0.49589,1.706542 -0.7234,0.626569 -0.80478,0.643553 -1.11962,0.232402 -1.17638,-1.536207 -1.71128,-1.946894 -2.72292,-2.09017 -2.71339,-0.38446 -5.59138,0.638946 -7.72641,2.747531 -1.39825,1.380796 -1.96541,2.28199 -2.21547,3.519542 -0.1933,0.956689 0.22273,5.182651 0.54613,5.54735 0.1093,0.122664 0.51884,0.308342 0.91076,0.412107 0.67513,0.178758 0.71397,0.220687 0.7387,0.798071 0.0143,0.335158 -0.0565,0.690855 -0.15747,0.790435 -0.10096,0.09959 -0.45114,0.666668 -0.77826,1.260067 -1.00046,1.815398 -0.63203,4.987929 0.52073,4.48413 0.57626,-0.251858 0.83267,0.35474 0.64928,1.536091 -0.31622,2.036958 -0.6383,2.727561 -1.82078,3.904191 -1.31463,1.30813 -2.86681,1.97891 -4.49411,1.94215 -0.92641,-0.021 -1.08287,-0.0902 -1.17984,-0.5235 -0.15458,-0.690566 -0.76785,-1.261629 -1.30531,-1.215441 -0.24716,0.02135 -0.73911,-0.05584 -1.09328,-0.171281 -0.68319,-0.222717 -1.69906,0.140626 -2.44221,0.873526 -0.75774,0.747256 -1.53766,0.589786 -2.40618,-0.485912 l -0.74376,-0.92106 -2.04661,-0.03839 c -2.30266,-0.04322 -3.38853,0.345728 -5.24143,1.877698 -1.85396,1.53285 -2.43917,2.83381 -2.50012,5.55794 -0.0516,2.31472 0.0965,2.71478 1.19283,3.21627 0.90999,0.41629 0.86625,1.41265 -0.11203,2.55168 -0.59183,0.68916 -0.81556,1.1515 -0.84792,1.75253 -0.0241,0.44904 -0.11985,1.13011 -0.21252,1.51347 -0.1912,0.79054 0.42258,1.62345 1.15026,1.56093 0.70347,-0.0606 0.78925,0.24268 0.53426,1.8878 -0.53662,3.46208 -2.75728,5.5117 -5.89485,5.44085 -1.03704,-0.0234 -1.07173,-0.0425 -1.19925,-0.67738 -0.0721,-0.35927 -0.27224,-0.79611 -0.44444,-0.97073 -0.38262,-0.38801 -1.47853,-0.20384 -1.7007,0.28579 -0.23727,0.52299 -2.00329,0.69273 -2.45384,0.23586 -0.54253,-0.55013 -1.13351,-0.41056 -1.70069,0.40163 -0.26712,0.38251 -17.08039,17.03293 -37.362833,37.0009 -31.169057,30.68595 -36.94902,36.30967 -37.341872,36.33246 -0.625306,0.0364 -1.27824,0.71463 -1.229896,1.27755 0.02166,0.25151 0.271314,0.69251 0.554879,0.98006 0.283575,0.28756 0.721069,0.54334 0.972232,0.56845 0.562019,0.0562 1.249383,-0.58707 1.294761,-1.21174 0.0285,-0.39146 5.761465,-6.13493 36.629163,-36.69597 l 36.595406,-36.23195 0.80342,-0.0635 c 0.92861,-0.0735 1.21674,-0.29622 1.33384,-1.03127 0.0747,-0.46889 0.16024,-0.52951 0.76959,-0.54582 0.54844,-0.0149 0.76946,0.10604 1.10517,0.60429 0.39559,0.58697 0.56947,0.62314 3.02984,0.62954 2.91985,0.008 3.61647,-0.24239 5.29947,-1.90211 1.40249,-1.3831 1.99075,-2.67623 2.09044,-4.59519 0.0968,-1.86171 -0.32717,-3.34202 -1.21459,-4.24187 -0.71814,-0.7282 -0.77713,-1.22015 -0.21327,-1.77862 0.81454,-0.80796 1.23735,-1.88727 1.27638,-3.26438 0.0421,-1.48455 -0.18806,-1.92673 -1.06968,-2.0553 -0.74484,-0.10857 -0.80884,-0.22094 -0.75941,-1.33243 0.0616,-1.38597 0.3545,-2.17607 1.26865,-3.42282 0.99231,-1.35334 2.64559,-2.377662 4.45277,-2.758977 1.34393,-0.283544 1.78095,-0.05921 1.70216,0.873827 -0.0565,0.66901 0.19489,0.84921 1.42345,1.0203 2.37866,0.33124 2.23425,0.35939 3.4152,-0.66564 1.38025,-1.197989 1.81453,-1.211976 2.20978,-0.071 0.15408,0.44481 0.36839,0.89821 0.47623,1.00757 0.10788,0.10933 1.29513,0.18744 2.63839,0.17356 2.9267,-0.0302 4.09904,-0.52603 5.81975,-2.461021 1.26065,-1.417614 1.78536,-2.847332 1.87875,-5.11889 0.0717,-1.746221 -0.27085,-2.573453 -1.18314,-2.856608 -0.88983,-0.276203 -0.9052,-0.85611 -0.0596,-2.247749 0.6253,-1.029105 0.72674,-1.441885 0.69286,-2.819716 -0.0423,-1.719445 -0.18003,-2.034749 -0.86346,-1.976025 -0.72264,0.06215 -0.95011,-0.423181 -0.91637,-1.955035 0.0521,-2.361578 0.47815,-3.372312 2.07418,-4.919467 1.00068,-0.970508 1.6553,-1.435144 2.51653,-1.787655 2.63611,-1.078953 4.446,-0.963315 4.37536,0.279558 -0.0461,0.809723 0.41719,1.177282 1.62572,1.289976 0.57605,0.05374 1.33765,0.126523 1.69242,0.161848 0.49402,0.04922 0.81132,-0.0998 1.35526,-0.636181 0.66919,-0.659947 0.76875,-0.68342 1.72468,-0.405534 1.44199,0.419143 2.34193,0.235536 3.28917,-0.671074 0.90149,-0.862883 1.03373,-1.536039 0.58196,-2.96336 -0.27792,-0.878174 -0.26942,-0.901541 0.66205,-1.82013 0.93052,-0.917663 0.94943,-0.924625 1.38377,-0.484197 0.58506,0.593263 2.66112,1.01107 3.4054,0.685334 1.47422,-0.645193 1.53801,-0.722709 1.02398,-1.243956 -0.26254,-0.266213 -0.5551,-0.407353 -0.65023,-0.313536 z m -9.5827,10.381224 c 0.58887,1.692882 0.53411,3.503841 -0.16829,5.564661 -0.53047,1.556388 -0.70638,1.837166 -1.86716,2.980333 -0.70482,0.694147 -1.61413,1.44706 -2.02072,1.673142 -1.22454,0.68097 -3.13572,0.904297 -5.45851,0.637853 -1.83293,-0.210266 -2.29736,-0.352017 -2.79006,-0.85162 -0.62341,-0.632153 -0.77333,-1.773259 -0.29497,-2.245015 0.58455,-0.576468 1.56975,-0.840346 2.17806,-0.583409 0.5521,0.233212 0.66754,0.390412 0.83984,1.14364 l 0.19974,0.873305 0.89972,0.08371 c 0.49485,0.04606 1.42076,-0.04764 2.05755,-0.208163 1.05726,-0.26658 1.29427,-0.42765 2.7292,-1.854802 1.82768,-1.818742 2.41791,-3.071511 2.26278,-4.808708 -0.0811,-0.908251 -0.14524,-1.025593 -0.57398,-1.049971 -0.8736,-0.04964 -1.57854,-0.698921 -1.67313,-1.541055 -0.15383,-1.368723 1.17257,-2.016724 2.69638,-1.317319 0.43364,0.199023 0.63915,0.51317 0.98358,1.503312 z m -1.68434,-1.272539 c -0.64837,-0.247631 -1.23641,-0.02787 -1.55781,0.581863 -0.32196,0.610909 0.52717,1.5273 1.46463,1.580566 0.51024,0.02892 0.55637,0.101904 0.73302,1.157364 0.29369,1.754886 -0.38161,3.496994 -2.0627,5.321257 -1.27148,1.379734 -1.4301,1.48901 -2.84919,1.960724 -2.39013,0.794642 -3.80648,0.453374 -4.04794,-0.975409 -0.12893,-0.762945 -1.03187,-1.202584 -1.50706,-0.733941 -0.16834,0.166055 -0.44834,0.363942 -0.62206,0.439997 -0.46333,0.202483 -0.39164,1.089701 0.13088,1.61955 0.53643,0.543952 3.05302,0.967848 5.06764,0.853597 1.69849,-0.09633 2.98399,-0.719765 4.43532,-2.151029 2.03554,-2.007385 2.90415,-4.892124 2.26503,-7.522261 -0.35979,-1.480544 -0.576,-1.798592 -1.4497,-2.132278 z m -14.99829,9.969664 c -0.009,1.4155 -0.96536,2.085354 -2.21918,1.555768 -0.56639,-0.239238 -0.69007,-0.382356 -0.79908,-0.924878 -0.071,-0.352994 -0.19493,-0.708617 -0.27547,-0.790288 -0.28327,-0.287256 -2.5558,0.328449 -3.58515,0.971329 -1.55565,0.97158 -2.88926,3.161342 -2.9004,4.762393 -0.003,0.542543 0.0556,0.614622 0.68477,0.829778 0.97042,0.331993 1.29338,1.16096 0.85776,2.201287 -0.31644,0.755616 -0.38859,0.818262 -1.04922,0.910764 -1.16398,0.162889 -1.98632,-0.730576 -2.21844,-2.410501 -0.47375,-3.428238 -0.11386,-4.515636 2.26805,-6.853437 1.54622,-1.517846 2.35788,-1.910245 4.43545,-2.145403 1.2475,-0.141288 4.13263,0.292704 4.51341,0.678835 0.1617,0.164056 0.29113,0.710385 0.28761,1.214258 z m -1.18713,-1.130379 c -1.07381,-0.338966 -2.93162,-0.414347 -4.26119,-0.172901 -2.27588,0.413306 -4.78457,2.614415 -5.58334,4.89875 -0.32354,0.925319 -0.124,3.963535 0.30866,4.698675 0.46894,0.796819 1.19321,1.079974 1.63878,0.640555 0.90843,-0.895883 0.63867,-1.935516 -0.57753,-2.225548 -0.42556,-0.101484 -0.49816,-0.247862 -0.50944,-1.027139 -0.0334,-2.313382 2.10203,-5.217671 4.33037,-5.889387 1.52194,-0.458779 2.55456,-0.575574 2.80885,-0.317753 0.12051,0.122169 0.29621,0.531184 0.39064,0.908808 0.15941,0.637758 0.2206,0.697249 0.85912,0.83493 0.85782,0.184921 1.29524,-0.225546 1.30221,-1.221882 0.006,-0.884294 -0.007,-0.906221 -0.70713,-1.127024 z m -6.60289,16.103526 c 0.14312,0.37252 0.22352,1.574 0.17886,2.66991 -0.1057,2.5935 -0.64004,3.70051 -2.59334,5.37261 -1.60491,1.37379 -3.08831,1.9782 -5.23028,2.13093 -2.37085,0.16904 -3.7465,-0.66866 -3.73532,-2.27468 0.005,-0.76741 0.10871,-1.00851 0.5424,-1.26487 0.29473,-0.17418 0.77051,-0.32728 1.05736,-0.34021 0.66226,-0.0298 1.60824,0.90644 1.63892,1.62212 0.0215,0.49814 0.0728,0.53328 0.73144,0.4998 1.12449,-0.0571 3.10231,-0.92542 3.92516,-1.72317 1.5099,-1.46381 2.40763,-4.50124 1.42096,-4.8075 -0.75435,-0.23415 -1.40713,-1.05823 -1.40219,-1.77016 0.003,-0.51591 0.1466,-0.76292 0.64738,-1.11863 1.22805,-0.87221 2.23616,-0.51313 2.81859,1.0039 z m -1.83889,-0.97026 c -0.32613,0.0551 -0.7522,0.25724 -0.94679,0.44914 -0.59997,0.59167 0.0296,1.80926 1.06274,2.05566 0.4183,0.0998 0.4983,0.24141 0.52137,0.92322 0.0466,1.37254 -0.83531,3.44169 -1.92197,4.51015 -1.06678,1.04971 -2.88499,1.82849 -4.32098,1.85215 -0.95404,0.0166 -1.23174,-0.17219 -1.16982,-0.79169 0.0236,-0.23645 -0.18229,-0.65831 -0.45766,-0.93752 -1.02392,-1.03827 -2.43641,0.35313 -1.6732,1.6482 0.66062,1.12096 3.17742,1.33065 5.62869,0.46895 1.08647,-0.38191 1.48959,-0.66137 2.77317,-1.92239 1.79011,-1.75837 2.10003,-2.51484 2.06789,-5.04383 -0.0324,-2.54368 -0.4493,-3.40033 -1.56343,-3.21202 z m -13.5137,8.69592 c 0.44872,1.31814 -0.90324,2.42821 -2.32874,1.91208 -0.78642,-0.28476 -0.84215,-0.3414 -1.0274,-1.04418 -0.19042,-0.72332 -0.21313,-0.74187 -0.84538,-0.69081 -1.09246,0.0882 -2.99318,1.02622 -3.92636,1.93772 -0.93614,0.91386 -1.82543,2.7595 -1.78496,3.70293 0.0186,0.43322 0.12916,0.57156 0.601,0.75168 0.39081,0.14927 0.72424,0.46111 1.02883,0.96231 0.36567,0.60135 0.38334,0.86089 0.0941,1.37448 -0.51483,0.91381 -1.24902,1.26094 -2.08837,0.98733 -0.91291,-0.2976 -1.22489,-0.89721 -1.51263,-2.90736 -0.48346,-3.37733 0.55048,-5.751 3.17006,-7.27757 1.5312,-0.89231 3.02059,-1.2947 4.9845,-1.34655 2.21311,-0.0586 3.21066,0.39106 3.63521,1.63814 z m -3.12392,-1.16331 c -4.32524,-0.1323 -7.76934,2.1664 -8.23986,5.49953 -0.18803,1.33195 0.0635,3.78343 0.46995,4.58153 0.34949,0.6861 1.39807,0.85922 1.93864,0.3201 0.58959,-0.58847 0.6191,-0.90603 0.1516,-1.64406 -0.30255,-0.47745 -0.54602,-0.6436 -0.97942,-0.66826 -0.55011,-0.0312 -0.57809,-0.0619 -0.60442,-0.66214 -0.0149,-0.34611 0.18359,-1.26729 0.44178,-2.04707 0.64033,-1.93395 1.91909,-3.23135 3.88977,-3.94643 0.75646,-0.2745 1.74613,-0.50475 2.19924,-0.51167 l 0.82385,-0.0132 0.10453,0.73224 c 0.0838,0.58715 0.21686,0.7836 0.67145,0.99157 1.10087,0.50359 2.23405,-0.33906 1.81314,-1.34828 -0.42035,-1.0079 -0.88277,-1.22952 -2.6801,-1.2845 z m -80.954216,92.89463 c -0.862252,0.85035 -1.813042,1.6542 -2.112917,1.78635 -0.735782,0.32427 -2.84626,0.39861 -3.672335,0.12931 l -0.670202,-0.21846 -8.953388,8.82497 c -6.87569,6.77596 -9.090365,8.86922 -9.543633,9.01555 -0.705137,0.22757 -1.569608,-0.38667 -1.690042,-1.20085 -0.07866,-0.53095 0.126492,-0.74917 9.040075,-9.62279 l 9.120411,-9.07957 -0.207374,-0.66754 c -0.256264,-0.82499 -0.151415,-2.93548 0.182187,-3.66457 0.136303,-0.298 0.953314,-1.23751 1.815555,-2.08784 l 1.567725,-1.54606 0.742207,0.75262 0.742218,0.7526 -1.246743,1.11116 c -1.432463,1.27679 -1.836883,2.04098 -1.738417,3.28552 0.13746,1.73736 2.062123,2.81055 3.78546,2.11074 0.405208,-0.16457 1.106906,-0.75182 1.793976,-1.50139 l 1.128401,-1.23115 0.742218,0.7526 0.742196,0.75261 z m -1.062979,-1.13058 c -1.051169,1.03664 -1.365421,1.23452 -2.206482,1.38889 -2.395073,0.43978 -4.198976,-1.38941 -3.725916,-3.77812 0.166054,-0.8388 0.368285,-1.15032 1.419475,-2.18696 1.20228,-1.18565 1.218748,-1.21592 0.836718,-1.60331 -0.386321,-0.39173 -0.399098,-0.38457 -1.817069,1.0138 -0.932092,0.91922 -1.502524,1.63697 -1.642645,2.06669 -0.220066,0.67505 -0.207552,2.4308 0.02534,3.57242 l 0.130814,0.64134 -9.114953,9.10754 -9.114952,9.10754 0.514706,0.52191 0.514673,0.52188 9.22365,-8.99413 9.22365,-8.99413 0.643532,0.14078 c 1.141715,0.24973 2.896717,0.2871 3.575794,0.0761 0.431657,-0.13397 1.157248,-0.69451 2.08935,-1.61371 1.418035,-1.39843 1.425701,-1.41067 1.038981,-1.80279 -0.381578,-0.38694 -0.412528,-0.37135 -1.614807,0.81432 z"
       id="path226" />
    <path
       style="fill:#ffe680;fill-opacity:1;stroke-width:0.0874616"
       d="m 206.66919,94.937693 c -0.0252,-0.156338 -0.10743,-0.835259 -0.18277,-1.508713 -0.30162,-2.696143 -0.62687,-4.160536 -1.47996,-6.663211 -2.2992,-6.745068 -4.51559,-11.122321 -8.05832,-15.914772 -4.14482,-5.60693 -8.39454,-9.646182 -14.1585,-13.457307 -3.87072,-2.559312 -8.69269,-4.853892 -13.57039,-6.4576 -2.40827,-0.791801 -4.5466,-1.237048 -7.23217,-1.505901 -0.50222,-0.05028 -0.58671,-0.08194 -0.53891,-0.201933 0.0312,-0.07827 0.69855,-1.913406 1.48304,-4.078081 2.02227,-5.580076 2.78894,-7.67926 3.10437,-8.499888 l 0.27514,-0.715805 0.80356,0.291087 c 3.16158,1.14527 8.56849,3.264053 9.80983,3.84413 2.89945,1.354923 8.6854,4.934972 13.16524,8.145979 2.7632,1.980566 3.30474,2.468631 8.82159,7.95041 5.28849,5.254879 6.13339,6.157155 7.58179,8.09669 4.38387,5.870412 8.71833,13.035921 10.26241,16.965308 1.1443,2.912028 3.45529,9.265801 3.39286,9.328234 -0.0822,0.08224 -13.22083,4.665623 -13.37433,4.665623 -0.0323,0 -0.0793,-0.127913 -0.10448,-0.28425 z m 3.78785,-5.21496 c 0.42841,-0.42841 0.77174,-5.092081 0.54451,-7.396429 -0.38363,-3.890501 -2.16693,-7.450913 -5.424,-10.829197 -1.71069,-1.77435 -2.84918,-2.587574 -5.37302,-3.837944 -0.77485,-0.38388 -1.426,-0.715148 -1.44701,-0.736154 -0.021,-0.02101 -0.28301,-1.07143 -0.58224,-2.334276 -0.61842,-2.609949 -0.64411,-2.409391 0.31039,-2.423215 1.12078,-0.01623 1.66177,-0.305748 1.66177,-0.889305 0,-0.676263 -0.33953,-0.845308 -1.90265,-0.947272 -0.66123,-0.04313 -1.32814,-0.123903 -1.48201,-0.179489 -0.37907,-0.136933 -0.46569,-0.439953 -0.54494,-1.906406 -0.0849,-1.570376 -0.22161,-1.854055 -0.89369,-1.854055 -0.62906,0 -0.83843,0.357795 -0.91776,1.568363 -0.0317,0.484309 -0.0932,0.880562 -0.13663,0.880562 -0.16819,0 -1.40876,-0.295898 -3.00163,-0.715946 l -1.66373,-0.438733 -0.50223,-1.106296 c -1.97028,-4.340082 -5.26621,-7.773518 -9.37702,-9.768227 -2.75124,-1.335005 -5.11978,-1.792415 -8.61496,-1.663714 -2.7678,0.101915 -3.94032,0.27836 -4.169,0.627364 -0.16546,0.252531 -0.13105,1.248739 0.0507,1.467739 0.14818,0.178548 0.69608,0.181357 1.97548,0.01013 1.12029,-0.149933 3.39334,-0.170803 4.69179,-0.04308 4.03996,0.397399 7.65835,2.049124 10.27836,4.691877 1.53806,1.551411 2.67623,3.419766 3.7025,6.077819 l 0.46111,1.194285 1.27836,0.236865 c 3.27765,0.607311 5.3436,1.334668 5.90107,2.077578 0.68617,0.914419 1.35201,3.133544 1.81002,6.032507 0.0589,0.372589 0.15085,0.734322 0.20442,0.80385 0.0536,0.06953 0.56968,0.329882 1.14693,0.578564 2.69531,1.161162 4.20281,2.078909 5.56937,3.39056 1.84265,1.768626 3.04639,3.617347 3.96049,6.082605 1.07005,2.88584 1.40451,6.285261 0.933,9.482759 -0.23062,1.563931 -0.22253,1.767315 0.0763,1.917717 0.35233,0.177353 1.27951,0.14506 1.47598,-0.05141 z M 194.35601,64.823727 c 0.43854,-0.307166 0.62594,-1.130606 0.41713,-1.83291 -0.24259,-0.815905 -1.0404,-1.354507 -2.00534,-1.353803 -0.89017,6.13e-4 -1.34103,0.546264 -1.25306,1.516406 0.10745,1.185019 0.80257,1.806808 2.01988,1.806808 0.42617,0 0.68883,-0.04365 0.82139,-0.136501 z m 5.02337,-5.614099 c 0.35069,-0.401551 0.24232,-1.363496 -0.20017,-1.77684 -0.31539,-0.294618 -0.7385,-0.379349 -1.2505,-0.250425 -0.62141,0.156472 -0.70151,0.299621 -0.64326,1.149533 0.0656,0.956605 0.15167,1.03079 1.19635,1.03079 0.61831,0 0.78939,-0.02917 0.89758,-0.153058 z"
       id="path228" />
    <path
       style="fill:#ffe680;fill-opacity:1;stroke-width:0.0874616"
       d="m 201.9319,58.14365 c -1.2653,-1.188529 -4.11758,-4.144829 -4.59442,-4.761968 -0.17911,-0.231808 -0.18708,-0.289614 -0.0984,-0.712661 0.10137,-0.483267 0.40864,-1.293441 0.99969,-2.635853 l 0.35365,-0.80322 0.86459,-0.349479 c 1.31114,-0.529986 2.56774,-1.391917 5.80688,-3.983089 2.43231,-1.945734 8.07949,-6.685144 10.05809,-8.441274 5.50966,-4.890164 14.38029,-13.550315 20.38972,-19.905943 2.04221,-2.159853 3.0358,-3.287064 5.33866,-6.056648 1.16993,-1.4070387 2.18025,-2.5582521 2.24514,-2.5582521 0.0649,0 0.33096,0.073271 0.59126,0.1628246 2.30303,0.7923614 4.70352,3.2786545 5.2669,5.4551835 l 0.12981,0.501505 -1.54377,1.252294 c -0.84908,0.688763 -1.99639,1.617495 -2.54959,2.063851 -3.18129,2.566886 -7.95782,7.02432 -14.72464,13.740959 -3.99984,3.970178 -7.73054,7.811389 -9.98174,10.277446 -1.48607,1.627891 -6.15933,7.023308 -8.13238,9.389076 -3.06464,3.674623 -4.06164,5.061252 -4.66292,6.485205 l -0.35085,0.830885 -1.08058,0.458717 c -1.26378,0.536492 -2.34469,0.896938 -2.68976,0.896938 -0.19471,0 -0.52775,-0.266059 -1.63539,-1.306497 z"
       id="path230" />
    <path
       style="fill:#ffb380;fill-opacity:1;stroke-width:0.0154612"
       d="m 198.39075,58.918248 c -0.4043,-0.04643 -0.52536,-0.08808 -0.58308,-0.200621 -0.0294,-0.0574 -0.0317,-0.08908 -0.0317,-0.440644 0,-0.401451 0.006,-0.447116 0.0776,-0.558146 0.0457,-0.07114 0.13652,-0.113817 0.29276,-0.137501 0.45613,-0.06914 0.86032,0.193563 0.97514,0.633802 0.0203,0.07779 0.0244,0.140666 0.0182,0.278302 -0.0122,0.27202 -0.0684,0.388107 -0.20799,0.429927 -0.0773,0.02315 -0.31434,0.0209 -0.54093,-0.0051 z"
       id="path234" />
    <path
       style="fill:#ffb380;fill-opacity:1;stroke-width:0.0154612"
       d="m 192.97526,64.358011 c -0.47119,-0.07879 -0.88349,-0.630228 -0.81856,-1.0948 0.0849,-0.607439 0.67712,-1.109816 1.21414,-1.029944 0.47417,0.07052 0.80974,0.486472 0.8122,1.006753 0.002,0.35159 -0.15324,0.666651 -0.43686,0.888572 -0.23889,0.186916 -0.52173,0.271086 -0.77092,0.229419 z"
       id="path236" />
    <path
       style="fill:#ffb380;fill-opacity:1;stroke-width:0.0437308"
       d="m 209.29537,89.380731 c -0.0946,-0.122302 -0.0929,-0.231921 0.0116,-0.714905 0.24294,-1.123678 0.35642,-3.111539 0.28165,-4.933834 -0.0467,-1.137157 -0.0852,-1.533405 -0.22165,-2.277469 -0.67221,-3.666196 -2.18189,-6.689439 -4.57639,-9.164511 -1.61521,-1.669569 -2.91088,-2.49788 -6.01248,-3.843743 -0.6416,-0.27841 -1.04522,-0.477232 -1.05785,-0.521098 -0.0112,-0.03901 -0.16991,-0.823112 -0.35262,-1.74245 -0.18271,-0.919337 -0.40893,-1.981996 -0.50271,-2.361463 -0.68392,-2.767415 -1.45393,-3.507937 -4.42563,-4.256184 -0.39267,-0.09887 -1.40979,-0.333844 -2.26027,-0.522164 -0.85048,-0.18832 -1.562,-0.35893 -1.58116,-0.379133 -0.0192,-0.0202 -0.29034,-0.607419 -0.60262,-1.304926 -0.99473,-2.221839 -1.27139,-2.765244 -1.8772,-3.687162 -1.09363,-1.664291 -3.00397,-3.428708 -4.99742,-4.615683 -3.00205,-1.78754 -6.67228,-2.634704 -10.57237,-2.44032 -1.0718,0.05342 -1.88608,0.129806 -2.67236,0.250687 -0.33291,0.05118 -0.4664,0.05678 -0.50212,0.02106 -0.0268,-0.02676 -0.056,-0.195007 -0.0651,-0.373881 -0.0157,-0.310654 -0.0107,-0.330917 0.11059,-0.452235 0.28462,-0.284623 0.87648,-0.330445 4.29922,-0.332849 3.11015,-0.0022 3.31698,0.01028 4.28562,0.258178 1.29217,0.3307 3.55472,1.269992 4.75411,1.973654 1.99132,1.16828 4.23135,3.158399 5.60887,4.983117 0.83089,1.100623 1.32278,1.938368 2.2405,3.815812 0.36108,0.738675 0.66267,1.349721 0.67021,1.35788 0.0291,0.03151 3.05322,0.851958 3.73759,1.01402 0.79736,0.188816 1.42238,0.304934 1.64136,0.304934 0.2226,0 0.25113,-0.131088 0.26406,-1.213064 0.01,-0.797806 0.0224,-0.952011 0.0914,-1.09327 0.0676,-0.138419 0.10496,-0.166523 0.23574,-0.177516 0.10592,-0.0089 0.19201,0.01574 0.27038,0.07739 0.17972,0.141367 0.22426,0.43735 0.19871,1.320518 -0.0422,1.460641 0.12122,1.991723 0.70329,2.284852 0.33225,0.167326 0.60615,0.200464 1.65901,0.200723 1.2736,3.06e-4 1.49563,0.05647 1.49563,0.378246 0,0.328077 -0.2596,0.414862 -1.29074,0.431499 -0.7561,0.0122 -1.06186,0.0579 -1.15737,0.172975 -0.10137,0.12214 0.0843,1.052789 0.74689,3.742952 l 0.43694,1.774087 0.79613,0.362755 c 1.88536,0.859058 3.1426,1.616232 4.51325,2.718108 2.61967,2.105969 4.68235,4.889932 5.8952,7.956646 0.88233,2.230989 1.02666,3.226544 0.97615,6.733083 -0.0459,3.185699 -0.15797,4.059865 -0.54624,4.260648 -0.15966,0.08256 -0.58962,0.09185 -0.64983,0.01404 z"
       id="path238" />
    <path
       style="fill:#ffb380;fill-opacity:1;stroke-width:0.0437308"
       d="m 173.57703,90.235585 c -1.13207,-0.100199 -2.2557,-0.335175 -2.79922,-0.58538 -0.40868,-0.18813 -0.64594,-0.454859 -0.77107,-0.866835 -0.10015,-0.329701 -0.0924,-0.576825 0.0235,-0.75377 0.0379,-0.05781 0.202,-0.194452 0.36472,-0.30364 0.16271,-0.109189 0.39146,-0.267765 0.50833,-0.352392 0.41864,-0.303129 0.88288,-0.16873 1.2847,0.371923 0.0272,0.03664 0.0915,0.223465 0.14291,0.415168 0.17385,0.648725 0.39014,0.926267 0.91608,1.175497 l 0.28632,0.135681 0.76529,-0.0021 c 0.85868,-0.0024 1.17578,-0.0612 2.23441,-0.414261 1.13493,-0.37851 1.4872,-0.606241 2.35526,-1.522586 1.48692,-1.569638 2.19822,-2.778435 2.43589,-4.139591 0.0955,-0.546908 0.0583,-1.458302 -0.0844,-2.069329 -0.13785,-0.590237 -0.19942,-0.655659 -0.67023,-0.712147 -0.60692,-0.07282 -1.16533,-0.425662 -1.3913,-0.879119 -0.18943,-0.380133 -0.12433,-0.673922 0.22221,-1.002849 0.41784,-0.396601 0.90166,-0.429329 1.54294,-0.104371 0.48622,0.246387 0.71553,0.551382 0.94256,1.253647 0.66215,2.048261 0.51056,4.094396 -0.44447,5.999254 -0.46547,0.928398 -0.9367,1.561153 -1.74801,2.347168 -1.18879,1.151728 -2.19084,1.703833 -3.53632,1.948415 -0.46617,0.08474 -1.92538,0.119613 -2.58012,0.06166 z"
       id="path240" />
    <path
       style="fill:#ffb380;fill-opacity:1;stroke-width:0.0437308"
       d="m 155.825,97.511999 c -0.26705,-0.08254 -0.7453,-0.543612 -0.89197,-0.859941 -0.21362,-0.460706 -0.37406,-1.462369 -0.42572,-2.657789 -0.0357,-0.826432 0.0298,-1.543314 0.18341,-2.008229 0.25854,-0.782274 0.86344,-1.707708 1.6462,-2.518513 0.7936,-0.822039 1.47372,-1.328839 2.37164,-1.767251 0.89577,-0.437363 1.51026,-0.58957 2.63143,-0.651785 1.70713,-0.09473 3.53709,0.222711 3.76536,0.653174 0.0413,0.07796 0.0536,0.268499 0.0436,0.678582 -0.0129,0.530732 -0.0229,0.588219 -0.14411,0.830886 -0.19001,0.380431 -0.36045,0.468822 -0.85177,0.441719 -0.42458,-0.02342 -0.73276,-0.117481 -0.87259,-0.266326 -0.0532,-0.0566 -0.15038,-0.286309 -0.2165,-0.511611 -0.176,-0.599779 -0.34355,-0.94786 -0.49359,-1.025447 -0.36848,-0.190548 -1.84756,0.03702 -3.01876,0.464451 -1.79602,0.655464 -3.57404,2.851185 -3.99275,4.930734 -0.0533,0.264587 -0.0688,0.525213 -0.0577,0.969887 0.0188,0.756832 0.0434,0.801883 0.52932,0.969019 0.64194,0.2208 0.93306,0.475129 1.03626,0.905301 0.0848,0.353387 -0.0182,0.679126 -0.34548,1.093205 -0.27626,0.349502 -0.5303,0.443025 -0.89621,0.329934 z"
       id="path242" />
    <path
       style="fill:#ffb380;fill-opacity:1;stroke-width:0.0437308"
       d="m 148.95216,113.0738 c -1.30436,-0.20262 -2.0095,-0.80412 -2.00159,-1.70741 0.004,-0.50177 0.31758,-0.96213 0.77283,-1.13599 0.35238,-0.13457 0.7306,-0.0242 1.06652,0.3113 0.28266,0.28229 0.41621,0.58335 0.45163,1.01809 0.0276,0.33815 0.041,0.37814 0.16409,0.48812 0.18984,0.16963 0.53563,0.23175 1.12526,0.20217 1.77275,-0.0889 3.73632,-1.08931 4.72843,-2.40896 0.94987,-1.26346 1.54588,-3.0627 1.41149,-4.26104 -0.0449,-0.40077 -0.10936,-0.50336 -0.37657,-0.59977 -0.68755,-0.24807 -1.0477,-0.52473 -1.26723,-0.97344 -0.22468,-0.45924 -0.1591,-0.90996 0.16879,-1.16005 0.45602,-0.34783 1.18451,-0.48718 1.55603,-0.29764 0.49743,0.25377 0.71573,0.93833 0.80552,2.52606 0.0403,0.71284 0.0405,1.09415 7.2e-4,1.66598 -0.1169,1.68146 -0.46065,2.35019 -1.99581,3.8827 -1.17202,1.16999 -1.64793,1.5239 -2.49507,1.85544 -1.39584,0.54629 -2.96542,0.77303 -4.11504,0.59444 z"
       id="path244" />
    <path
       style="fill:#ffb380;fill-opacity:1;stroke-width:0.0437308"
       d="m 132.16784,120.52667 c -0.40974,-0.20475 -0.5748,-0.47581 -0.75575,-1.24108 -0.28782,-1.21724 -0.37156,-2.94341 -0.19327,-3.98385 0.37419,-2.18368 2.14773,-4.00423 4.6987,-4.82328 1.07605,-0.34549 1.90369,-0.46424 3.21422,-0.4612 1.8938,0.004 2.41882,0.20625 2.84731,1.09469 0.34548,0.71631 0.0725,1.35507 -0.67147,1.57136 -0.59982,0.17437 -1.40558,-0.14405 -1.58966,-0.62821 -0.0231,-0.0608 -0.0719,-0.30955 -0.1083,-0.55271 -0.0364,-0.24316 -0.0764,-0.48937 -0.0887,-0.54712 l -0.0224,-0.10501 -0.60351,0.0258 c -1.39269,0.0596 -3.18028,0.67517 -4.20515,1.44815 -0.47009,0.35456 -1.05838,0.96939 -1.3523,1.41332 -0.65273,0.98587 -1.19035,2.62341 -1.19883,3.65152 -0.005,0.5949 0.0244,0.63383 0.524,0.69586 0.18898,0.0235 0.4086,0.0735 0.48804,0.1112 0.30435,0.14442 0.73029,0.75167 0.84382,1.20301 0.0471,0.18708 0.042,0.22515 -0.0574,0.43731 -0.13313,0.28389 -0.46224,0.62932 -0.70434,0.73926 -0.12018,0.0546 -0.28217,0.0819 -0.48966,0.0825 -0.25888,8e-4 -0.35384,-0.0209 -0.57525,-0.13156 z"
       id="path246" />
    <path
       style="fill:#ffb380;fill-opacity:1;stroke-width:0.0437308"
       d="m 32.691748,221.56443 -0.494469,-0.49203 9.119193,-9.09601 9.119193,-9.09601 -0.105027,-0.52477 c -0.153057,-0.76475 -0.198561,-1.27233 -0.196846,-2.19575 0.0024,-1.31371 0.09363,-1.62887 0.68864,-2.38009 0.331095,-0.41801 1.839111,-1.94579 2.189062,-2.21775 0.316409,-0.24589 0.420902,-0.24046 0.678849,0.0353 0.228911,0.24473 0.251734,0.36304 0.106773,0.55354 -0.0528,0.0694 -0.464193,0.50282 -0.914208,0.96318 -0.909912,0.93084 -1.172295,1.28013 -1.326568,1.766 -0.609947,1.92096 0.226647,3.68102 2.008794,4.22618 0.372955,0.11409 1.446282,0.11286 1.880425,-0.002 0.669776,-0.17744 0.997987,-0.40791 2.103915,-1.47737 1.048138,-1.01358 1.049889,-1.01445 1.394176,-0.68883 0.143935,0.13612 0.240827,0.26487 0.240729,0.31987 -3.06e-4,0.17349 -0.186293,0.39921 -0.978091,1.18705 -1.166682,1.16084 -1.897307,1.7416 -2.366292,1.8809 -0.718685,0.21346 -2.233174,0.17261 -3.613103,-0.0975 l -0.594816,-0.11641 -9.189972,8.96133 c -5.054485,4.92873 -9.204804,8.96627 -9.222931,8.97232 -0.01813,0.006 -0.255469,-0.21042 -0.527426,-0.48104 z"
       id="path248" />
    <path
       style="fill:#ffe680;fill-opacity:1;stroke-width:0.174923"
       d="m 5.0069044,248.5823 c 0.773874,-2.52915 2.5872816,-7.28484 3.3869245,-8.88223 2.1814421,-4.3578 7.1173681,-11.88846 9.4258511,-14.38089 4.037242,-4.35895 15.878294,-16.38766 121.78581,-123.71586 17.75284,-17.990985 33.45312,-33.917006 34.8895,-35.391154 1.43639,-1.474149 3.89744,-3.906323 5.46901,-5.404832 l 2.85738,-2.724562 1.17353,0.802823 c 5.10797,3.494473 10.37455,8.88077 13.77751,14.090673 l 0.49659,0.760291 -3.31422,3.272244 c -6.72635,6.641165 -35.10547,33.905907 -133.017348,127.794087 -10.43721,10.00829 -22.244526,21.33455 -26.238481,25.16946 -6.74281,6.4743 -7.44299,7.09423 -9.798124,8.6751 -5.305415,3.56119 -10.275603,6.48729 -12.625931,7.43324 -1.754599,0.7062 -7.9633964,2.89519 -8.2118038,2.89519 -0.1022338,0 -0.1259033,-0.16578 -0.056198,-0.39358 z M 34.523299,221.56335 c 1.525228,-1.38013 5.515813,-5.26381 11.61267,-11.30159 5.228661,-5.17798 5.844193,-5.73316 6.209774,-5.60086 0.223193,0.0808 1.15986,0.14687 2.081483,0.14687 1.92471,0 1.971033,-0.0242 4.322595,-2.25773 l 1.275345,-1.21134 -0.654883,-0.67066 c -0.360186,-0.36886 -0.711082,-0.67066 -0.779768,-0.67066 -0.06869,0 -0.610819,0.50605 -1.204739,1.12456 -1.321482,1.37618 -2.027058,1.74233 -3.14965,1.63446 -1.478201,-0.14203 -2.446655,-1.20005 -2.446655,-2.67291 0,-0.93824 0.559211,-1.85563 1.830574,-3.00308 l 1.144031,-1.03253 -0.762025,-0.74787 -0.762025,-0.74787 -1.600604,1.70543 c -1.044324,1.11272 -1.66081,1.92216 -1.77384,2.32904 -0.231868,0.83467 -0.221852,2.84289 0.01723,3.45473 0.189821,0.48578 0.09461,0.58919 -7.057244,7.66428 -8.706739,8.61329 -10.977342,10.98498 -10.977342,11.46606 0,0.50113 0.770935,1.21587 1.311467,1.21587 0.29412,0 0.771893,-0.28878 1.363606,-0.8242 z M 57.750776,199.3491 c 0.27786,-0.16413 0.6357,-0.57739 0.795197,-0.91834 0.380241,-0.81284 13.005822,-13.42529 51.930237,-51.87625 23.57377,-23.28703 21.22069,-21.02939 22.12778,-21.23025 0.43294,-0.0959 0.86587,-0.30814 0.96208,-0.47172 0.0962,-0.16358 0.34311,-0.50011 0.54866,-0.74783 l 0.37374,-0.4504 0.70262,0.63477 c 0.6095,0.55065 0.85973,0.6516 1.88807,0.76173 1.95263,0.20911 4.00838,-0.0115 5.10458,-0.54785 3.87112,-1.89396 5.40505,-7.48277 2.94582,-10.73298 -0.57367,-0.75818 -0.56986,-0.91683 0.0436,-1.81492 0.69594,-1.01882 0.95467,-1.92476 0.96786,-3.38904 0.01,-1.09648 -0.0427,-1.31599 -0.40865,-1.7055 -0.23099,-0.24588 -0.56093,-0.44706 -0.73319,-0.44706 -0.6789,0 -0.8384,-0.96178 -0.40277,-2.4287 0.53937,-1.81626 3.40269,-4.123551 5.39611,-4.348238 l 0.76575,-0.08631 0.12284,0.727108 c 0.15577,0.922 0.4898,1.12678 2.28824,1.40282 1.65475,0.25398 2.28242,0.078 3.43475,-0.96308 0.81094,-0.732631 1.17538,-0.720067 1.43571,0.0495 0.35017,1.03512 0.62366,1.16681 2.58698,1.24566 3.43133,0.13782 5.17099,-0.52823 7.13491,-2.731696 1.20469,-1.351634 1.604,-2.468246 1.7029,-4.761839 0.10143,-2.352468 -0.12132,-3.10722 -1.04547,-3.542368 -0.36058,-0.169782 -0.65559,-0.401354 -0.65559,-0.514605 0,-0.113248 0.2755,-0.738282 0.61223,-1.388961 0.56472,-1.09125 0.61203,-1.302528 0.60965,-2.722678 -0.003,-1.803683 -0.21631,-2.348196 -1.01193,-2.583347 -0.38855,-0.114837 -0.60686,-0.307338 -0.68028,-0.599852 -0.17519,-0.69802 0.21595,-3.066935 0.65748,-3.98198 0.84703,-1.755419 3.29442,-3.460126 5.64541,-3.932274 1.22033,-0.245077 1.80979,0.04428 1.89645,0.930958 0.0848,0.867918 0.85114,1.223551 2.86326,1.328797 l 1.64007,0.08579 0.64361,-0.5651 c 0.53777,-0.472163 0.73297,-0.545724 1.18688,-0.447282 1.79917,0.390189 2.84369,0.238966 3.77765,-0.546929 0.91756,-0.772072 1.11115,-1.34465 0.99411,-2.940409 -0.0865,-1.178806 -0.0543,-1.464023 0.198,-1.75708 0.67807,-0.787571 0.82831,-0.830891 1.5466,-0.445919 1.15477,0.618923 3.86097,0.441906 4.79396,-0.313583 0.32908,-0.266478 0.35649,-0.370732 0.18276,-0.695335 -0.11239,-0.210022 -0.39778,-0.508592 -0.63418,-0.663491 -0.37745,-0.247313 -0.56711,-0.254348 -1.5563,-0.05773 -1.07773,0.214219 -1.16292,0.205275 -1.96921,-0.206733 -0.56296,-0.287665 -1.03765,-0.718583 -1.42981,-1.297927 -0.53839,-0.795419 -0.57894,-0.947012 -0.4892,-1.829365 0.0538,-0.529143 0.14667,-1.126257 0.20635,-1.326919 0.0745,-0.250488 -0.0375,-0.538329 -0.35721,-0.918347 -0.68264,-0.811269 -1.02652,-0.721299 -1.5819,0.41388 -0.4139,0.845978 -0.46258,1.117293 -0.38784,2.161865 0.047,0.656964 0.21484,1.453823 0.37297,1.770799 0.38716,0.776087 0.36834,0.904445 -0.21456,1.462889 -0.4916,0.470986 -0.5328,0.478507 -1.9789,0.361171 -1.19111,-0.09665 -1.58299,-0.06496 -2.0253,0.163771 -1.29868,0.671574 -1.99587,2.415892 -1.62609,4.0683 0.18469,0.825245 0.17554,1.014395 -0.067,1.384521 -0.36766,0.561104 -0.72921,0.542886 -1.03887,-0.05235 -0.8484,-1.630774 -3.16667,-2.195204 -6.29449,-1.532521 -1.64141,0.347764 -2.53782,0.920188 -4.50489,2.876707 -2.18534,2.173631 -2.35261,2.61664 -2.1913,5.803777 0.14422,2.849508 0.33602,3.452009 1.24988,3.926238 0.38457,0.199562 0.72123,0.477127 0.74813,0.616807 0.0269,0.139679 -0.26822,0.86679 -0.65581,1.615799 -0.63172,1.220759 -0.70469,1.492238 -0.70445,2.620617 3.5e-4,1.600365 0.36693,2.411218 1.20095,2.656375 l 0.58899,0.173132 -0.0923,1.017485 c -0.12554,1.384466 -0.81951,2.727848 -1.92541,3.727179 -1.18858,1.074034 -2.21277,1.521773 -3.52489,1.540943 -0.91097,0.0133 -1.0659,-0.0338 -1.24,-0.377161 -0.36208,-0.714108 -0.82032,-1.086411 -1.46009,-1.186277 -0.34758,-0.05426 -0.9117,-0.181373 -1.25361,-0.282485 -0.70207,-0.207616 -1.48161,0.03624 -2.48316,0.776773 -1.04271,0.77097 -1.15562,0.75368 -2.16574,-0.331697 l -0.92283,-0.991597 -2.34844,0.07965 c -2.91242,0.09877 -3.6085,0.387568 -5.56939,2.310664 -1.95052,1.91294 -2.26546,2.65189 -2.3771,5.5774 l -0.0884,2.31675 0.98531,0.84178 c 0.54193,0.46298 0.98532,0.93955 0.98532,1.05905 0,0.11949 -0.31798,0.64345 -0.70662,1.16435 -0.38864,0.52089 -0.73536,1.1058 -0.77048,1.29978 -0.47328,2.61376 -0.47895,2.68746 -0.24462,3.18128 0.14162,0.29845 0.5363,0.63386 0.99409,0.84481 l 0.75921,0.34985 -0.10653,0.81017 c -0.15806,1.20208 -0.56996,2.4678 -1.02082,3.13683 -0.92691,1.37544 -3.14016,2.52921 -4.61313,2.40484 -0.5523,-0.0466 -0.67437,-0.13678 -0.83617,-0.61747 -0.25628,-0.76133 -0.62356,-1.09232 -1.33859,-1.20633 -0.47788,-0.0762 -0.76045,0.0134 -1.38727,0.43999 -0.89986,0.61238 -1.11558,0.64278 -1.98464,0.27966 -0.34538,-0.14431 -0.80849,-0.26238 -1.02913,-0.26238 -0.29781,0 -3.80312,3.39358 -13.6059,13.1722 -24.433664,24.37346 -60.454758,59.53148 -62.302381,60.80961 -0.511717,0.35398 -1.040639,0.87119 -1.175384,1.14935 -0.218381,0.45081 -0.208881,0.5726 0.08746,1.12125 0.340998,0.63133 1.322904,1.41349 1.774449,1.41349 0.139291,0 0.480599,-0.13429 0.75846,-0.29843 z m 76.093944,-78.69412 c 0.16589,-0.15012 0.39612,-0.5011 0.51162,-0.77995 0.17811,-0.42999 0.15944,-0.59411 -0.12294,-1.08062 -0.18311,-0.3155 -0.62464,-0.76393 -0.98117,-0.99651 -0.77327,-0.50446 -0.82458,-0.92937 -0.28604,-2.36875 0.72108,-1.92727 3.14228,-3.84855 5.13265,-4.07289 l 0.79564,-0.0897 0.33637,0.78472 c 0.36014,0.84017 0.65406,1.00267 1.82114,1.00687 1.74206,0.006 2.05138,-2.23363 0.42639,-3.0877 -0.81778,-0.42982 -3.23548,-0.51292 -4.73111,-0.16263 -2.47639,0.58001 -4.58734,2.07545 -5.46665,3.87269 -0.6082,1.24312 -0.75145,3.28995 -0.3593,5.13417 0.277,1.30271 0.60089,1.85761 1.24536,2.13358 0.4589,0.1965 1.2991,0.0496 1.67804,-0.29329 z m 17.57512,-7.25864 c 2.30906,-0.4204 5.01494,-2.37376 5.95779,-4.30089 0.40717,-0.83221 0.49007,-1.25938 0.55628,-2.86639 0.0941,-2.28431 -0.0178,-2.96592 -0.60079,-3.65876 -0.53531,-0.63618 -1.27009,-0.70038 -2.11561,-0.18484 -1.059,0.6457 -0.90122,1.95688 0.32893,2.73344 0.59456,0.37533 0.67219,0.50412 0.67219,1.11527 0,2.55738 -2.65513,5.2569 -5.45463,5.54584 l -0.9651,0.0996 -0.11157,-0.55789 c -0.13949,-0.69742 -1.00537,-1.58494 -1.54545,-1.58407 -0.22386,3.5e-4 -0.66286,0.15663 -0.97553,0.34727 -0.51836,0.31605 -0.5685,0.42313 -0.5685,1.21406 0,1.87044 1.7906,2.64927 4.82199,2.09735 z m 5.91327,-16.311792 c 0.46296,-0.947902 0.23615,-1.659932 -0.68305,-2.144369 -0.67475,-0.355611 -0.6932,-0.389902 -0.67128,-1.247672 0.0643,-2.516088 2.79554,-5.121853 5.6878,-5.426462 0.80421,-0.0847 0.81376,-0.07957 0.93781,0.503418 0.16794,0.78924 0.53665,1.171388 1.26137,1.307347 1.1758,0.22058 1.97461,-0.775479 1.71817,-2.142425 -0.18006,-0.959809 -0.88316,-1.182223 -3.76776,-1.191877 -2.23356,-0.0075 -2.41483,0.0183 -3.34677,0.475969 -1.20135,0.589967 -3.52394,2.94715 -4.02906,4.089071 -0.42431,0.95923 -0.46327,3.556737 -0.0728,4.854165 0.38293,1.272383 0.87207,1.708358 1.84539,1.644813 0.72605,-0.0474 0.82043,-0.108232 1.12018,-0.721978 z m 20.27453,-6.855308 c 0.97998,-0.345547 3.46383,-2.579357 3.96614,-3.566879 1.23151,-2.42117 1.40325,-5.540129 0.42092,-7.643873 -0.298,-0.638191 -0.87311,-0.942584 -1.7809,-0.942584 -1.00008,0 -1.43008,0.392783 -1.43008,1.306293 0,0.635799 0.089,0.836532 0.53819,1.214545 0.296,0.249071 0.7243,0.452857 0.95175,0.452857 0.56444,0 0.64153,0.185012 0.65014,1.560301 0.01,1.578082 -0.54765,2.618005 -2.40233,4.480859 -1.49302,1.499608 -2.01915,1.766157 -3.86149,1.956302 -1.05727,0.109121 -1.82322,-0.03692 -1.82463,-0.347904 -0.003,-0.6824 -0.39023,-1.489939 -0.80486,-1.678857 -0.97673,-0.445028 -2.5177,0.343879 -2.5177,1.288946 0,0.614643 0.44239,1.428559 0.92016,1.692906 1.22539,0.67801 5.51114,0.813659 7.17469,0.227088 z"
       id="path264" />
    <path
       style="fill:#ffb380;fill-opacity:1;stroke-width:0.123689"
       d="m 56.159561,198.76568 c -1.061942,-0.90899 -0.972964,-1.78269 0.240041,-2.35701 0.435692,-0.20629 1.250752,-0.87247 2.444464,-1.99793 4.900425,-4.62026 39.287453,-38.42051 61.570924,-60.52029 6.34768,-6.29535 11.67689,-11.49849 11.84269,-11.56254 0.2368,-0.0915 0.37852,-0.0595 0.66069,0.14914 0.77793,0.57515 1.81213,0.51059 2.61894,-0.16348 0.3878,-0.32399 0.62403,-0.42581 0.98791,-0.42581 0.58676,0 0.89466,0.29538 1.11015,1.06503 0.18313,0.65409 0.39135,0.79031 1.20805,0.79031 2.3008,0 4.2085,-1.15926 5.14348,-3.12555 0.51301,-1.07887 0.84692,-2.52286 0.79497,-3.43777 l -0.0382,-0.67251 -0.51498,-0.0687 c -0.97884,-0.13066 -1.31505,-0.71397 -1.1367,-1.97214 0.24269,-1.712 0.3404,-1.9937 1.00025,-2.88379 0.57312,-0.7731 0.64351,-0.93559 0.64724,-1.49426 0.004,-0.62338 4.9e-4,-0.62934 -0.67581,-1.08351 -0.93452,-0.62761 -1.03459,-0.91091 -1.02357,-2.89792 0.01,-1.71644 0.19557,-2.74659 0.67946,-3.76208 0.34828,-0.7309 1.79265,-2.17285 2.87945,-2.874628 1.36524,-0.881577 1.80833,-0.995343 4.11285,-1.055975 l 2.01012,-0.05289 0.89658,0.94067 c 1.12759,1.183053 1.41071,1.227633 2.48731,0.39164 1.01977,-0.791869 1.36048,-0.876666 2.71565,-0.675876 1.27252,0.188545 1.66981,0.430752 1.98059,1.207469 0.21088,0.52705 0.42808,0.63092 1.32485,0.63362 0.77823,0.002 1.87632,-0.30389 2.768,-0.77192 0.93225,-0.48933 2.28419,-1.806266 2.69846,-2.628601 0.58791,-1.16701 0.94192,-3.611173 0.55846,-3.855809 -0.085,-0.05425 -0.34265,-0.09928 -0.57247,-0.100066 -0.65542,-0.0022 -0.93123,-0.469138 -0.9857,-1.668627 -0.0609,-1.34078 0.13522,-2.114654 0.85103,-3.358159 0.6265,-1.088359 0.78661,-1.802266 0.45977,-2.04998 -0.085,-0.06445 -0.37833,-0.18097 -0.65175,-0.258936 -0.27342,-0.07797 -0.59587,-0.213954 -0.71654,-0.302194 -0.29678,-0.217012 -0.55385,-1.705646 -0.65703,-3.8048 -0.11887,-2.418084 0.17025,-3.223043 1.78346,-4.965499 2.10766,-2.276529 5.18153,-3.534331 7.8311,-3.204429 1.15526,0.143844 1.6338,0.415928 2.49242,1.417113 0.41393,0.482663 0.82529,0.89532 0.91412,0.917015 0.22042,0.05383 1.27617,-0.845394 1.35329,-1.15265 0.0342,-0.136354 -0.023,-0.609587 -0.1272,-1.051628 -0.36019,-1.528239 -0.20554,-2.212496 0.71281,-3.15407 0.89109,-0.913617 1.39325,-1.052082 2.65964,-0.733368 0.52202,0.131378 1.06045,0.223218 1.19651,0.204088 0.28889,-0.04062 1.66981,-1.366025 1.66981,-1.602689 0,-0.08852 -0.13568,-0.375861 -0.3015,-0.638539 -0.74202,-1.17545 -0.86596,-2.706977 -0.30696,-3.793236 0.43089,-0.837269 0.668,-0.948422 1.06029,-0.497034 0.26043,0.299663 0.29587,0.424605 0.21045,0.742136 -0.18643,0.693081 -0.11451,2.436521 0.13195,3.19858 0.30773,0.951511 0.77762,1.354397 1.90069,1.629617 0.86027,0.210818 2.2363,0.217753 2.82617,0.01424 0.19835,-0.06843 0.36707,6.31e-4 0.67608,0.276727 0.37214,0.332519 0.39432,0.388995 0.23044,0.587051 -0.32081,0.387761 -1.37244,0.795715 -2.05454,0.79701 -0.81084,0.0015 -2.15252,-0.410367 -2.62119,-0.80473 l -0.36216,-0.304738 -0.60209,0.480762 c -0.67827,0.541579 -1.1587,1.138975 -1.1587,1.440772 0,0.111336 0.0898,0.511308 0.19955,0.888829 0.39945,1.374078 0.0532,2.313218 -1.17247,3.180344 -0.65323,0.462135 -1.69044,0.557848 -2.83174,0.261313 -0.88678,-0.2304 -0.99946,-0.196232 -1.87155,0.567506 -0.61525,0.538822 -0.83213,0.567653 -2.60126,0.345823 -1.51925,-0.190499 -1.86506,-0.419303 -1.86506,-1.234005 0,-0.196329 -0.13325,-0.508658 -0.2991,-0.701099 -0.27929,-0.324042 -0.35921,-0.34629 -1.20598,-0.335681 -1.09226,0.01368 -2.85372,0.566631 -3.86421,1.213031 -0.85597,0.547555 -2.41008,2.085084 -2.82736,2.797186 -0.45763,0.780949 -0.70502,1.957476 -0.70716,3.363042 -0.003,1.66185 0.1139,1.869421 1.11128,1.981146 0.47081,0.05274 0.64764,0.742091 0.59583,2.32288 -0.0415,1.266123 -0.0561,1.323333 -0.58111,2.278079 -0.92212,1.676855 -0.91359,2.010266 0.0621,2.428498 0.81858,0.350888 1.08474,1.011184 1.06934,2.652942 -0.0229,2.440562 -0.6151,3.943966 -2.21647,5.626735 -1.69392,1.780012 -2.58684,2.100232 -5.85621,2.100122 -1.12248,-3e-5 -2.1086,-0.0431 -2.19138,-0.0957 -0.0828,-0.0526 -0.31804,-0.46511 -0.52279,-0.91669 -0.20476,-0.45158 -0.43241,-0.85821 -0.50589,-0.903627 -0.25972,-0.16051 -0.73587,0.0745 -1.66442,0.821477 -0.51658,0.41557 -1.11781,0.79456 -1.33607,0.84221 -0.51956,0.11342 -2.90835,-0.19445 -3.25106,-0.419 -0.19857,-0.13011 -0.28257,-0.3385 -0.3283,-0.81444 -0.0701,-0.72923 -0.2036,-0.85605 -0.90416,-0.858705 -1.428,-0.0054 -3.29427,0.874675 -4.57533,2.157625 -1.34985,1.35185 -1.99445,2.86966 -1.89151,4.45386 0.0425,0.6546 0.15181,0.76219 1.02945,1.01357 0.61219,0.17535 0.83354,0.76321 0.7609,2.02082 -0.0743,1.28607 -0.4003,2.20599 -1.06777,3.01293 -0.66606,0.80524 -0.65554,1.13544 0.0654,2.0531 0.81293,1.03472 1.06917,1.7885 1.13707,3.34485 0.10345,2.37112 -0.44269,3.78438 -2.10472,5.4464 -1.37092,1.37092 -2.11161,1.72247 -3.9095,1.85551 -0.74775,0.0553 -1.95201,0.0583 -2.67613,0.007 l -1.31657,-0.094 -0.45377,-0.52422 c -0.43383,-0.50119 -0.48061,-0.52246 -1.06496,-0.48413 -0.5846,0.0383 -0.61579,0.0589 -0.71684,0.473 -0.13226,0.54195 -0.61864,0.98951 -1.07534,0.98951 -1.04813,0 -0.8797,-0.14448 -7.55297,6.47952 -9.99096,9.9172 -17.84989,17.70294 -31.665131,31.37026 -7.041019,6.96563 -17.765774,17.62136 -23.832789,23.67941 -8.923419,8.91023 -11.077417,11.1233 -11.274219,11.5834 -0.283637,0.66311 -0.781647,1.10104 -1.252088,1.10104 -0.200041,0 -0.530954,-0.1702 -0.832082,-0.42794 z"
       id="path268" />
  </g>
  <g
     inkscape:groupmode="layer"
     id="layer2"
     inkscape:label="Line"
     style="display:inline" />
  <g
     inkscape:groupmode="layer"
     id="layer1"
     inkscape:label="Real"
     style="display:inline;opacity:0.61000001" />
</svg>
