<?xml version="1.0" encoding="UTF-8" standalone="no"?>
<svg
   xmlns:dc="http://purl.org/dc/elements/1.1/"
   xmlns:cc="http://creativecommons.org/ns#"
   xmlns:rdf="http://www.w3.org/1999/02/22-rdf-syntax-ns#"
   xmlns:svg="http://www.w3.org/2000/svg"
   xmlns="http://www.w3.org/2000/svg"
   xmlns:sodipodi="http://sodipodi.sourceforge.net/DTD/sodipodi-0.dtd"
   xmlns:inkscape="http://www.inkscape.org/namespaces/inkscape"
   viewBox="0 0 16.933333 16.933334"
   version="1.1"
   id="svg8"
   inkscape:version="1.0.2-2 (e86c870879, 2021-01-15)"
   sodipodi:docname="bo-staff.svg">
  <defs
     id="defs2" />
  <sodipodi:namedview
     id="base"
     pagecolor="#ffffff"
     bordercolor="#666666"
     borderopacity="1.0"
     inkscape:pageopacity="0.0"
     inkscape:pageshadow="2"
     inkscape:zoom="12.427907"
     inkscape:cx="34.276619"
     inkscape:cy="31.971486"
     inkscape:document-units="mm"
     inkscape:current-layer="layer2"
     inkscape:document-rotation="0"
     showgrid="false"
     units="px"
     inkscape:window-width="1920"
     inkscape:window-height="1017"
     inkscape:window-x="-8"
     inkscape:window-y="-8"
     inkscape:window-maximized="1" />
  <metadata
     id="metadata5">
    <rdf:RDF>
      <cc:Work
         rdf:about="">
        <dc:format>image/svg+xml</dc:format>
        <dc:type
           rdf:resource="http://purl.org/dc/dcmitype/StillImage" />
        <dc:title></dc:title>
      </cc:Work>
    </rdf:RDF>
  </metadata>
  <g
     inkscape:groupmode="layer"
     id="layer2"
     inkscape:label="Layer 2"
     style="display:inline">
    <path
       style="fill:#cdde87;fill-opacity:1;stroke:none;stroke-width:0.0225973px;stroke-linecap:butt;stroke-linejoin:miter;stroke-opacity:1"
       d="m 1.2595719,15.325365 0.1080614,0.165463 0.089446,0.07053 0.1135739,0.06652 0.1097685,-0.113486 -0.08157,-0.03495 -0.1137328,-0.08666 -0.1231563,-0.167667 -0.102392,0.100241"
       id="path1119" />
    <path
       style="fill:#cdde87;fill-opacity:1;stroke:none;stroke-width:0.0225973px;stroke-linecap:butt;stroke-linejoin:miter;stroke-opacity:1"
       d="m 2.0624712,14.523526 0.043503,0.06666 0.094219,0.113186 0.168569,0.120215 1.3240175,-1.320348 -0.1404941,-0.0837 -0.063341,-0.05679 -0.1072461,-0.16203 z"
       id="path1121" />
    <path
       style="fill:#ffb380;fill-opacity:1;stroke:none;stroke-width:0.0225973px;stroke-linecap:butt;stroke-linejoin:miter;stroke-opacity:1"
       d="m 1.361964,15.225125 0.1231564,0.167668 0.1137328,0.08666 0.08157,0.03495 0.6883391,-0.69081 -0.168569,-0.120215 -0.094219,-0.113186 -0.043504,-0.06666 -0.7005072,0.7016"
       id="path1103" />
    <path
       style="fill:#ffb380;fill-opacity:1;stroke:none;stroke-width:0.0225973px;stroke-linecap:butt;stroke-linejoin:miter;stroke-opacity:1"
       d="m 1.2595719,15.325365 -0.67559471,0.675392 0.001735,0.09891 0.0352261,0.09172 0.0711507,0.07677 0.0861838,0.04346 0.11616497,-0.0097 0.67621654,-0.674028 -0.2030204,-0.137051 z"
       id="path1101" />
    <path
       style="fill:none;stroke:#ff8080;stroke-width:0.045529;stroke-linecap:butt;stroke-linejoin:miter;stroke-miterlimit:4;stroke-dasharray:none;stroke-opacity:1"
       d="m 0.75869573,15.825688 c 0,0 0.033097,0.08404 0.13013207,0.176215 0.0989403,0.09399 0.1809499,0.126299 0.1809499,0.126299"
       id="path858"
       sodipodi:nodetypes="csc" />
    <path
       style="display:inline;fill:none;stroke:#ff8080;stroke-width:0.045529;stroke-linecap:butt;stroke-linejoin:miter;stroke-miterlimit:4;stroke-dasharray:none;stroke-opacity:1"
       d="m 1.2595719,15.325365 c 0,0 0.033097,0.08404 0.1301323,0.176216 0.09894,0.09399 0.1809498,0.126299 0.1809498,0.126299"
       id="path858-0"
       sodipodi:nodetypes="csc" />
    <path
       style="fill:#cdde87;fill-opacity:1;stroke:none;stroke-width:0.0225973px;stroke-linecap:butt;stroke-linejoin:miter;stroke-opacity:1"
       d="m 3.6789352,12.9108 -0.042118,0.04516 0.1295814,0.15107 0.1822638,0.141606 0.042118,-0.04516 -0.2055898,-0.164643 z"
       id="path1125" />
    <path
       style="fill:#cdde87;fill-opacity:1;stroke:none;stroke-width:0.0225973px;stroke-linecap:butt;stroke-linejoin:miter;stroke-opacity:1"
       d="m 6.2604623,10.331965 0.1634043,0.159581 0.1267017,0.14489 0.1115307,-0.110224 -0.1577171,-0.161395 -0.1448522,-0.138218 -0.099067,0.105366"
       id="path1129" />
    <path
       style="fill:#cdde87;fill-opacity:1;stroke:none;stroke-width:0.0225973px;stroke-linecap:butt;stroke-linejoin:miter;stroke-opacity:1"
       d="m 4.0761,12.514259 0.057061,0.07743 0.090947,0.09704 0.1418982,0.132511 2.0681468,-2.068082 -0.044245,-0.05552 -0.1355822,-0.143365 -0.1150976,-0.105171 -2.063129,2.065151"
       id="path1127" />
    <path
       style="fill:#ffe680;fill-opacity:1;stroke:none;stroke-width:0.0225973px;stroke-linecap:butt;stroke-linejoin:miter;stroke-opacity:1"
       d="m 4.0761,12.514259 -0.3971648,0.396541 0.1062549,0.128033 0.1090905,0.08748 0.096499,0.07717 0.3752268,-0.38222 L 4.224108,12.688751 4.133161,12.591701 4.0761,12.514271"
       id="path1117" />
    <path
       style="fill:#ffb380;fill-opacity:1;stroke:none;stroke-width:0.0225973px;stroke-linecap:butt;stroke-linejoin:miter;stroke-opacity:1"
       d="m 3.6368185,12.955973 -0.255121,0.244752 0.1072459,0.162028 0.063342,0.05679 0.1404939,0.0837 0.255883,-0.254592 -0.1822641,-0.141608 -0.1295808,-0.151068"
       id="path1105" />
    <path
       style="fill:#ff8080;fill-opacity:1;stroke:#ff5555;stroke-width:0.0236841px;stroke-linecap:butt;stroke-linejoin:miter;stroke-opacity:1"
       d="m 3.4020602,13.450095 0.086882,-0.08735 0.063341,0.05679 -0.085498,0.08503 z"
       id="path903"
       sodipodi:nodetypes="ccccc" />
    <path
       style="display:inline;fill:none;stroke:#ff8080;stroke-width:0.045529;stroke-linecap:butt;stroke-linejoin:miter;stroke-miterlimit:4;stroke-dasharray:none;stroke-opacity:1"
       d="m 3.3816976,13.200725 c 0,0 0.033097,0.08404 0.1301321,0.176215 0.09894,0.09399 0.1809498,0.126298 0.1809498,0.126298"
       id="path858-7"
       sodipodi:nodetypes="csc" />
    <path
       style="fill:#cdde87;fill-opacity:1;stroke:none;stroke-width:0.0225973px;stroke-linecap:butt;stroke-linejoin:miter;stroke-opacity:1"
       d="m 10.70627,5.8881008 0.122327,0.1234818 0.110208,0.1182184 0.04814,0.057298 2.02887,-2.0274262 -0.08603,-0.1273582 -0.09868,-0.1000115 -0.101532,-0.065969 z"
       id="path1133" />
    <path
       style="fill:#cdde87;fill-opacity:1;stroke:none;stroke-width:0.0225973px;stroke-linecap:butt;stroke-linejoin:miter;stroke-opacity:1"
       d="m 13.143143,3.4577637 0.04753,0.02812 0.108099,0.085506 0.08302,0.096221 0.0476,0.083485 0.03958,-0.048649 -0.04368,-0.081102 -0.103002,-0.1161562 -0.139576,-0.096077 z"
       id="path1135" />
    <path
       style="fill:#ffe680;fill-opacity:1;stroke:none;stroke-width:0.0225973px;stroke-linecap:butt;stroke-linejoin:miter;stroke-opacity:1"
       d="m 12.729567,3.8663355 0.101533,0.065969 0.09868,0.1000115 0.08603,0.1273581 0.413576,-0.408572 -0.0476,-0.083485 -0.08302,-0.096221 -0.108098,-0.085506 -0.04753,-0.02812 -0.413577,0.4085718"
       id="path1115" />
    <path
       style="fill:#cdde87;fill-opacity:1;stroke:none;stroke-width:0.0225973px;stroke-linecap:butt;stroke-linejoin:miter;stroke-opacity:1"
       d="m 13.428491,3.1671445 0.142955,0.1025858 0.06335,0.056792 0.08615,0.1312107 1.284664,-1.2929624 -0.0676,-0.1117731 -0.104949,-0.1036484 -0.126808,-0.06579 z"
       id="path1137" />
    <path
       style="fill:#ffb380;fill-opacity:1;stroke:none;stroke-width:0.0225973px;stroke-linecap:butt;stroke-linejoin:miter;stroke-opacity:1"
       d="m 13.182723,3.4091141 0.139571,0.096078 0.103002,0.1161562 0.04368,0.081102 0.251983,-0.2447174 -0.08615,-0.1312108 -0.06335,-0.056792 -0.142955,-0.1025858 -0.245769,0.2419696"
       id="path1109" />
    <path
       style="display:inline;fill:#ff8080;fill-opacity:1;stroke:#ff5555;stroke-width:0.0236841px;stroke-linecap:butt;stroke-linejoin:miter;stroke-opacity:1"
       d="m 13.721671,3.2391821 -0.08689,0.08734 -0.06335,-0.056792 0.0855,-0.085029 z"
       id="path903-2"
       sodipodi:nodetypes="ccccc" />
    <path
       style="fill:none;stroke:#ff8080;stroke-width:0.0451947;stroke-linecap:butt;stroke-linejoin:miter;stroke-miterlimit:4;stroke-dasharray:none;stroke-opacity:1"
       d="m 13.428491,3.1671445 c 0,0 0.09628,0.054325 0.160545,0.1179286 0.07553,0.07475 0.131916,0.1726602 0.131916,0.1726602"
       id="path889"
       sodipodi:nodetypes="csc" />
    <path
       style="fill:#cdde87;fill-opacity:1;stroke:none;stroke-width:0.0225973px;stroke-linecap:butt;stroke-linejoin:miter;stroke-opacity:1"
       d="m 15.422704,1.1703328 0.138155,0.073871 0.07176,0.071126 0.08944,0.1362131 0.05414,-0.057037 -0.05692,-0.092988 -0.106147,-0.122151 -0.124535,-0.07487 -0.0659,0.065834"
       id="path1139" />
    <path
       style="fill:#ffb380;fill-opacity:1;stroke:none;stroke-width:0.0225973px;stroke-linecap:butt;stroke-linejoin:miter;stroke-opacity:1"
       d="m 15.488601,1.1045012 0.417247,-0.42128473 0.201721,-0.19667608 0.09806,-0.0325118 0.08514,0.001658 0.07431,0.0384416 0.05737,0.0806305 0.01943,0.0795021 0.0015,0.0723324 L 16.205155,0.96444547 15.776147,1.394529 15.719227,1.30154 15.613064,1.1793696 15.488528,1.1044995"
       id="path1113" />
    <path
       style="fill:#ffb380;fill-opacity:1;stroke:none;stroke-width:0.0225973px;stroke-linecap:butt;stroke-linejoin:miter;stroke-opacity:1"
       d="m 14.706257,1.8835603 0.126808,0.06579 0.104949,0.1036484 0.0676,0.1117731 0.716447,-0.713227 -0.08944,-0.1362131 -0.07176,-0.071126 -0.138155,-0.073871 z"
       id="path1111" />
    <path
       style="fill:none;stroke:#ff8080;stroke-width:0.0451947;stroke-linecap:butt;stroke-linejoin:miter;stroke-miterlimit:4;stroke-dasharray:none;stroke-opacity:1"
       d="m 15.488601,1.1045012 c 0,0 0.09127,0.043614 0.159603,0.1144161 0.07965,0.082545 0.127995,0.1755927 0.127995,0.1755927"
       id="path891"
       sodipodi:nodetypes="csc" />
    <path
       style="fill:none;stroke:#ff8080;stroke-width:0.0451947;stroke-linecap:butt;stroke-linejoin:miter;stroke-miterlimit:4;stroke-dasharray:none;stroke-opacity:1"
       d="m 15.974506,0.62417342 c 0,0 0.09308,0.0371512 0.168855,0.11382004 0.07902,0.0799415 0.112837,0.17871347 0.112837,0.17871347"
       id="path893"
       sodipodi:nodetypes="csc" />
    <path
       style="fill:none;stroke:#000000;stroke-width:0.0225973;stroke-linecap:butt;stroke-linejoin:miter;stroke-miterlimit:4;stroke-dasharray:none;stroke-opacity:1"
       d="m 3.6789353,12.9108 c 0,0 0.071836,0.09846 0.1405936,0.159494 0.073235,0.06502 0.1712507,0.133183 0.1712507,0.133183"
       id="path905"
       sodipodi:nodetypes="csc" />
    <path
       style="fill:#cdde87;fill-opacity:1;stroke:none;stroke-width:0.0225973px;stroke-linecap:butt;stroke-linejoin:miter;stroke-opacity:1"
       d="m 10.491567,6.0982574 0.30257,0.299613 0.08121,-0.097118 -0.107258,-0.1225462 -0.131013,-0.1312783 -0.04704,-0.044798 -0.09847,0.096126"
       id="path1131" />
    <path
       style="fill:#ffb380;fill-opacity:1;stroke:none;stroke-width:0.0225973px;stroke-linecap:butt;stroke-linejoin:miter;stroke-opacity:1"
       d="M 6.3595297,10.226599 6.5250309,10.387238 6.662099,10.526212 10.794137,6.3978704 10.615334,6.2191368 10.491567,6.0982574 6.3595297,10.226599"
       id="path1107" />
    <path
       style="fill:none;stroke:#000000;stroke-width:0.0225973;stroke-linecap:butt;stroke-linejoin:miter;stroke-miterlimit:4;stroke-dasharray:none;stroke-opacity:1"
       d="M 0.58397719,16.000757 16.107569,0.48654039 c 0,0 0.121282,-0.0485676 0.179576,-0.0314092 0.05799,0.0170727 0.104801,0.0696983 0.133233,0.12304903 0.02355,0.0441731 0.02305,0.14839211 0.02305,0.14839211 L 0.89443736,16.301907 c 0,0 -0.0816817,0.01991 -0.11930236,0.0069 -0.0715433,-0.02483 -0.13430273,-0.08398 -0.16991648,-0.150817 -0.0248713,-0.04667 -0.0212422,-0.157234 -0.0212422,-0.157234 z"
       id="path848"
       sodipodi:nodetypes="ccaaccaac" />
    <path
       style="fill:none;stroke:#000000;stroke-width:0.0225973px;stroke-linecap:butt;stroke-linejoin:miter;stroke-opacity:1"
       d="m 0.58397719,16.000757 c 0,0 0.0630518,0.117325 0.15312088,0.201239 0.0805438,0.07504 0.15733929,0.09991 0.15733929,0.09991"
       id="path895"
       sodipodi:nodetypes="csc" />
    <path
       style="fill:none;stroke:#000000;stroke-width:0.0225973px;stroke-linecap:butt;stroke-linejoin:miter;stroke-opacity:1"
       d="m 0.83237386,15.756689 c 0,0 0.0569314,0.109594 0.1304562,0.177756 0.0745054,0.06908 0.18928864,0.109288 0.18928864,0.109288"
       id="path897"
       sodipodi:nodetypes="csc" />
    <path
       style="fill:none;stroke:#000000;stroke-width:0.0225973px;stroke-linecap:butt;stroke-linejoin:miter;stroke-opacity:1"
       d="m 1.361964,15.225125 c 0,0 0.059571,0.101836 0.1361958,0.178103 0.0745,0.07416 0.1822628,0.111167 0.1822628,0.111167"
       id="path899"
       sodipodi:nodetypes="csc" />
    <path
       style="fill:none;stroke:#000000;stroke-width:0.0225973px;stroke-linecap:butt;stroke-linejoin:miter;stroke-opacity:1"
       d="m 2.0624712,14.523526 c 0,0 0.054819,0.10027 0.1397087,0.177161 0.091849,0.08319 0.1665822,0.122899 0.1665822,0.122899"
       id="path901"
       sodipodi:nodetypes="csc" />
    <path
       style="display:inline;fill:none;stroke:#000000;stroke-width:0.0225973;stroke-linecap:butt;stroke-linejoin:miter;stroke-miterlimit:4;stroke-dasharray:none;stroke-opacity:1"
       d="m 3.6368185,12.955973 c 0,0 0.071836,0.09846 0.1405945,0.159494 0.073235,0.06502 0.1712507,0.133182 0.1712507,0.133182"
       id="path905-7"
       sodipodi:nodetypes="csc" />
    <path
       style="fill:none;stroke:#000000;stroke-width:0.0225973px;stroke-linecap:butt;stroke-linejoin:miter;stroke-opacity:1"
       d="m 4.0761,12.514259 c 0,0 0.07136,0.09956 0.1472946,0.172171 0.074817,0.07154 0.1426122,0.134827 0.1426122,0.134827"
       id="path960"
       sodipodi:nodetypes="csc" />
    <path
       style="color:#000000;font-style:normal;font-variant:normal;font-weight:normal;font-stretch:normal;font-size:medium;line-height:normal;font-family:sans-serif;font-variant-ligatures:normal;font-variant-position:normal;font-variant-caps:normal;font-variant-numeric:normal;font-variant-alternates:normal;font-variant-east-asian:normal;font-feature-settings:normal;font-variation-settings:normal;text-indent:0;text-align:start;text-decoration:none;text-decoration-line:none;text-decoration-style:solid;text-decoration-color:#000000;letter-spacing:normal;word-spacing:normal;text-transform:none;writing-mode:lr-tb;direction:ltr;text-orientation:mixed;dominant-baseline:auto;baseline-shift:baseline;text-anchor:start;white-space:normal;shape-padding:0;shape-margin:0;inline-size:0;clip-rule:nonzero;display:inline;overflow:visible;visibility:visible;opacity:1;isolation:auto;mix-blend-mode:normal;color-interpolation:sRGB;color-interpolation-filters:linearRGB;solid-color:#000000;solid-opacity:1;vector-effect:none;fill:#ffe680;fill-opacity:1;fill-rule:nonzero;stroke:#000000;stroke-width:0.0225973;stroke-linecap:butt;stroke-linejoin:miter;stroke-miterlimit:4;stroke-dasharray:none;stroke-dashoffset:0;stroke-opacity:1;paint-order:fill markers stroke;color-rendering:auto;image-rendering:auto;shape-rendering:auto;text-rendering:auto;enable-background:accumulate;stop-color:#000000;stop-opacity:1"
       d="m 6.2604624,10.331965 -0.1212336,0.117142 c 0,0 0.088292,0.07777 0.1603971,0.153254 0.069838,0.07312 0.1345284,0.15081 0.1345284,0.15081 l 0.1164141,-0.116735 c 0,0 -0.065173,-0.07819 -0.1357223,-0.152043 -0.073051,-0.07648 -0.1543834,-0.152428 -0.1543837,-0.152428 z"
       id="path962"
       sodipodi:nodetypes="ccsccsc" />
    <path
       style="fill:none;stroke:#000000;stroke-width:0.0225973px;stroke-linecap:butt;stroke-linejoin:miter;stroke-opacity:1"
       d="m 6.3595297,10.226599 c 0,0 0.071333,0.06918 0.1578714,0.152034 0.088144,0.08439 0.144698,0.147579 0.144698,0.147579"
       id="path968"
       sodipodi:nodetypes="csc" />
    <path
       style="display:inline;fill:none;stroke:#000000;stroke-width:0.0225973px;stroke-linecap:butt;stroke-linejoin:miter;stroke-opacity:1"
       d="m 10.491567,6.0982574 c 0,0 0.07133,0.069183 0.157871,0.1520352 0.08815,0.084388 0.144699,0.1475778 0.144699,0.1475778"
       id="path968-2"
       sodipodi:nodetypes="csc" />
    <path
       style="color:#000000;font-style:normal;font-variant:normal;font-weight:normal;font-stretch:normal;font-size:medium;line-height:normal;font-family:sans-serif;font-variant-ligatures:normal;font-variant-position:normal;font-variant-caps:normal;font-variant-numeric:normal;font-variant-alternates:normal;font-variant-east-asian:normal;font-feature-settings:normal;font-variation-settings:normal;text-indent:0;text-align:start;text-decoration:none;text-decoration-line:none;text-decoration-style:solid;text-decoration-color:#000000;letter-spacing:normal;word-spacing:normal;text-transform:none;writing-mode:lr-tb;direction:ltr;text-orientation:mixed;dominant-baseline:auto;baseline-shift:baseline;text-anchor:start;white-space:normal;shape-padding:0;shape-margin:0;inline-size:0;clip-rule:nonzero;display:inline;overflow:visible;visibility:visible;isolation:auto;mix-blend-mode:normal;color-interpolation:sRGB;color-interpolation-filters:linearRGB;solid-color:#000000;solid-opacity:1;vector-effect:none;fill:#ffe680;fill-opacity:1;fill-rule:nonzero;stroke:#000000;stroke-width:0.0219284;stroke-linecap:butt;stroke-linejoin:miter;stroke-miterlimit:4;stroke-dasharray:none;stroke-dashoffset:0;stroke-opacity:1;paint-order:fill markers stroke;color-rendering:auto;image-rendering:auto;shape-rendering:auto;text-rendering:auto;enable-background:accumulate;stop-color:#000000"
       d="m 10.70627,5.8881008 -0.116236,0.1140301 c 0,0 0.08535,0.076431 0.155117,0.1505615 0.06757,0.071802 0.130195,0.1480598 0.130195,0.1480598 l 0.111598,-0.1136538 c 0,0 -0.06309,-0.07674 -0.131352,-0.1492718 C 10.784912,5.9627246 10.70627,5.8881008 10.70627,5.8881008 Z"
       id="path962-4"
       sodipodi:nodetypes="ccsccsc" />
    <path
       style="fill:none;stroke:#000000;stroke-width:0.0225973px;stroke-linecap:butt;stroke-linejoin:miter;stroke-opacity:1"
       d="m 12.729567,3.8663355 c 0,0 0.07988,0.037508 0.171265,0.1324723 0.08268,0.085925 0.114982,0.1608648 0.114982,0.1608648"
       id="path1010"
       sodipodi:nodetypes="csc" />
    <path
       style="display:inline;fill:none;stroke:#000000;stroke-width:0.0225973px;stroke-linecap:butt;stroke-linejoin:miter;stroke-opacity:1"
       d="m 13.143143,3.4577637 c 0,0 0.07989,0.037506 0.171266,0.1324729 0.08268,0.085925 0.114981,0.1608649 0.114981,0.1608649"
       id="path1010-8"
       sodipodi:nodetypes="csc" />
    <path
       style="display:inline;fill:none;stroke:#000000;stroke-width:0.0225973px;stroke-linecap:butt;stroke-linejoin:miter;stroke-opacity:1"
       d="m 13.182723,3.4091141 c 0,0 0.07989,0.037506 0.171266,0.132473 0.08268,0.085925 0.114981,0.1608647 0.114981,0.1608647"
       id="path1010-7"
       sodipodi:nodetypes="csc" />
    <path
       style="fill:none;stroke:#000000;stroke-width:0.0225973px;stroke-linecap:butt;stroke-linejoin:miter;stroke-opacity:1"
       d="m 14.706257,1.8835603 c 0,0 0.101137,0.03261 0.181919,0.1169075 0.08088,0.084409 0.117441,0.1643028 0.117441,0.1643028"
       id="path1061"
       sodipodi:nodetypes="csc" />
    <path
       style="display:inline;fill:none;stroke:#000000;stroke-width:0.0225973px;stroke-linecap:butt;stroke-linejoin:miter;stroke-opacity:1"
       d="m 15.422704,1.1703328 c 0,0 0.10114,0.032616 0.181918,0.1169078 0.08089,0.08441 0.117443,0.1643029 0.117443,0.1643029"
       id="path1061-6"
       sodipodi:nodetypes="csc" />
    <path
       style="display:inline;fill:none;stroke:#000000;stroke-width:0.0225973px;stroke-linecap:butt;stroke-linejoin:miter;stroke-opacity:1"
       d="m 15.905848,0.68321647 c 0,0 0.101138,0.03261 0.181919,0.11690752 0.08089,0.0844096 0.117442,0.16430282 0.117442,0.16430282"
       id="path1061-2"
       sodipodi:nodetypes="csc" />
    <path
       style="display:inline;fill:none;stroke:#000000;stroke-width:0.0225973px;stroke-linecap:butt;stroke-linejoin:miter;stroke-opacity:1"
       d="m 16.107569,0.48654039 c 0,0 0.123376,0.0748551 0.18192,0.11690748 0.05337,0.0383368 0.153942,0.12312813 0.153942,0.12312813"
       id="path1061-3"
       sodipodi:nodetypes="cac" />
  </g>
</svg>
