<?xml version="1.0" encoding="UTF-8" standalone="no"?>
<svg
   cursor="default"
   viewBox="0 0 256 256"
   version="1.1"
   id="svg1393"
   sodipodi:docname="bunny_plug.svg"
   inkscape:version="1.2 (dc2aedaf03, 2022-05-15)"
   xml:space="preserve"
   xmlns:inkscape="http://www.inkscape.org/namespaces/inkscape"
   xmlns:sodipodi="http://sodipodi.sourceforge.net/DTD/sodipodi-0.dtd"
   xmlns:xlink="http://www.w3.org/1999/xlink"
   xmlns="http://www.w3.org/2000/svg"
   xmlns:svg="http://www.w3.org/2000/svg"><sodipodi:namedview
     id="namedview1395"
     pagecolor="#ffffff"
     bordercolor="#000000"
     borderopacity="0.25"
     inkscape:showpageshadow="2"
     inkscape:pageopacity="0.0"
     inkscape:pagecheckerboard="0"
     inkscape:deskcolor="#d1d1d1"
     showgrid="false"
     inkscape:zoom="1.1808131"
     inkscape:cx="185.88886"
     inkscape:cy="221.45757"
     inkscape:window-width="1920"
     inkscape:window-height="1051"
     inkscape:window-x="-9"
     inkscape:window-y="-9"
     inkscape:window-maximized="1"
     inkscape:current-layer="svg1393" /><defs
     id="defs1319"><linearGradient
       id="innoGrad1"><stop
         offset="0"
         stop-color="#fd5"
         id="stop1292" /><stop
         offset="1"
         stop-color="#fea"
         id="stop1294" /></linearGradient><linearGradient
       id="innoGrad2"><stop
         offset="0"
         stop-color="#ffb380"
         id="stop1297" /><stop
         offset="1"
         stop-color="#fca"
         id="stop1299" /></linearGradient><linearGradient
       id="innoGrad3"><stop
         offset="0"
         stop-color="#f55"
         id="stop1302" /><stop
         offset="1"
         stop-color="#faa"
         stop-opacity="0"
         id="stop1304" /></linearGradient><linearGradient
       id="innoGrad4"><stop
         offset="0"
         stop-color="#ff8080"
         id="stop1307" /><stop
         offset="1"
         stop-color="#faa"
         id="stop1309" /></linearGradient><linearGradient
       id="linearGradient1196"
       x1="398.455"
       x2="411.183"
       y1="153.47"
       y2="43.161"
       gradientTransform="matrix(.729 0 0 .729 -214.257 45.489)"
       gradientUnits="userSpaceOnUse"
       xlink:href="#innoGrad4" /><linearGradient
       id="linearGradient1206"
       x1="413.5"
       x2="442.375"
       y1="106"
       y2="96.5"
       gradientTransform="matrix(.729 0 0 .729 -214.257 45.489)"
       gradientUnits="userSpaceOnUse"
       xlink:href="#innoGrad3" /><linearGradient
       id="linearGradient1242"
       x1="570.812"
       x2="608.996"
       y1="141.449"
       y2="112.104"
       gradientTransform="matrix(.729 0 0 .729 -214.257 45.489)"
       gradientUnits="userSpaceOnUse"
       xlink:href="#innoGrad2" /><linearGradient
       id="linearGradient1250"
       x1="82.29"
       x2="89.624"
       y1="176.582"
       y2="168.645"
       gradientUnits="userSpaceOnUse"
       xlink:href="#innoGrad1"
       gradientTransform="rotate(10.60334,16.901166,150.46892)" /><linearGradient
       id="linearGradient1258"
       x1="95.059"
       x2="97.238"
       y1="180.828"
       y2="171.865"
       gradientUnits="userSpaceOnUse"
       xlink:href="#innoGrad1"
       gradientTransform="rotate(10.60334,15.342916,149.17532)" /><linearGradient
       id="linearGradient1268"
       x1="74.777"
       x2="84.057"
       y1="178.395"
       y2="161.866"
       gradientUnits="userSpaceOnUse"
       xlink:href="#innoGrad1"
       gradientTransform="rotate(10.60334,16.901166,150.46892)" /><linearGradient
       id="linearGradient1276"
       x1="111.104"
       x2="128.163"
       y1="195.896"
       y2="184.582"
       gradientTransform="rotate(-2.382,803.83923,890.65137)"
       gradientUnits="userSpaceOnUse"
       xlink:href="#innoGrad1" /><linearGradient
       id="linearGradient1097"
       x1="445.73416"
       x2="498.57761"
       y1="105.57626"
       y2="138.73944"
       gradientTransform="matrix(0.28316604,0.07562059,0.07562059,-0.28316604,-38.182428,200.88649)"
       gradientUnits="userSpaceOnUse"
       xlink:href="#innoGrad1" /><linearGradient
       inkscape:collect="always"
       xlink:href="#innoGrad2"
       id="linearGradient5508"
       x1="-178.517"
       y1="117.104"
       x2="-151.19241"
       y2="90.215752"
       gradientUnits="userSpaceOnUse"
       gradientTransform="matrix(1.4099553,0.11086577,-0.11086577,1.4099553,303.83664,-75.194812)" /><linearGradient
       inkscape:collect="always"
       xlink:href="#innoGrad4"
       id="linearGradient5581"
       x1="-154.88496"
       y1="177.46245"
       x2="-87.487572"
       y2="105.90221"
       gradientUnits="userSpaceOnUse"
       gradientTransform="matrix(1.4099553,0.11086577,-0.11086577,1.4099553,303.83664,-75.194812)" /></defs><path
     style="fill:url(#linearGradient5581);fill-opacity:1;stroke:#000000;stroke-width:0.5;stroke-linecap:round;stroke-linejoin:round;stroke-dasharray:none;stop-color:#000000"
     d="m 175.9436,153.23415 15.65264,-1.61214 -5.38384,-4.45866 14.95591,0.22026 -9.6778,-5.22108 11.01874,-5.91231 6.37413,-14.21642 -13.51858,1.94062 c 0,0 5.78633,-4.73333 7.71905,-14.4573 1.93274,-9.723984 -0.33252,-24.131967 -0.33252,-24.131967 l -4.17759,7.21121 c 0,0 -6.68969,-14.862059 -6.8914,-20.399964 -0.20171,-5.537904 2.01806,-12.159718 2.01806,-12.159718 l -6.59546,10.950245 c 0,0 -6.78202,-8.285366 -7.35843,-13.109383 -0.57643,-4.824005 -0.024,-14.550343 -0.024,-14.550343 l -5.38941,13.168946 c 0,0 -13.13467,-11.227329 -17.20691,-13.459006 -4.07224,-2.231673 -6.16253,-2.384422 -8.63366,-5.669941 -3.98991,-5.304802 -5.30277,-11.567229 -5.30277,-11.567229 0,0 -2.44966,3.141479 -2.71428,6.158156 -0.36545,4.166056 1.12433,7.309537 1.12433,7.309537 0,0 -11.84669,-4.648271 -16.80186,-10.506843 -1.98265,-2.344096 -7.22729,-6.674386 -7.22729,-6.674386 l 2.6968,8.919881 c 0,0 -4.90593,-3.783934 -11.2941,-4.923399 -6.38818,-1.139465 -24.332404,-1.169923 -24.332404,-1.169923 l -0.390652,8.612695 c 0,0 -11.104579,-2.869583 -21.262888,-2.258641 -10.571707,0.635805 -12.433395,6.461346 -26.487075,4.525209 0,0 2.053773,11.124612 1.780515,16.509592 -0.273245,5.384975 -2.163939,13.195826 -2.163939,13.195826 -3.170227,-4.544423 -6.111754,-6.457147 -9.079674,-8.673465 0,0 1.509555,10.406006 2.02125,20.132833 0.296491,5.635985 4.90228,14.05182 4.90228,14.05182 -5.583535,-2.402752 -9.780188,-2.422524 -13.798728,-2.136268 0,0 8.27126,4.63015 10.47505,11.936966 1.122374,3.72131 1.377004,7.31689 1.377004,7.31689 -4.386069,-2.6329 -8.048712,-2.59539 -11.673926,-2.41972 0,0 8.435145,7.61036 12.041474,15.88969 3.31773,7.61678 3.23366,16.1733 6.517462,23.1145 3.943194,8.33504 14.055683,19.87767 14.055683,19.87767 -3.106303,0.31854 -7.684484,1.85838 -10.870482,4.55172 8.130283,2.57592 16.035682,6.73735 24.57381,6.43764 -0.907873,2.85166 -3.731701,5.44202 -11.541242,7.35238 0,0 19.466393,8.58912 41.538831,10.32468 21.650271,1.70238 43.223991,-1.55719 43.223991,-1.55719 -2.50741,4.87607 -2.77958,7.87547 -3.1697,11.3146 l 8.49448,-2.63603 c 2.71857,-4.01924 5.49272,-6.60068 8.30453,-8.2076 0,0 9.35113,-2.4185 11.64024,-4.79157 4.3446,-4.50389 4.24603,-11.98086 4.24603,-11.98086 0,0 2.55241,-1.90179 4.37358,-5.96362 1.8212,-4.06184 2.17478,-16.19859 2.17478,-16.19859 z"
     id="path5295"
     sodipodi:nodetypes="ccccccccsccsccsccsscscsccsccscsccsccsccssccccsccccscsc" /><path
     style="fill:url(#linearGradient5508);fill-opacity:1;stroke:#000000;stroke-width:0.5;stroke-linecap:round;stroke-linejoin:round;stroke-dasharray:none;stop-color:#000000"
     d="m 45.6589,96.607726 c 0.0306,0.0022 -6.873047,-5.361924 -8.583055,-7.794066 -3.437547,-4.889204 -2.479119,-15.670523 -2.111396,-15.559783 3.751409,3.215668 7.550798,6.379049 14.027513,6.62504 -3.136292,-5.567945 -2.537899,-9.234989 -1.808268,-12.835236 4.837,3.118323 10.576038,4.411296 17.096665,4.122651 C 60.946041,62.410411 53.616603,54.88781 47.521201,47.471771 c 0,0 10.201526,2.403861 13.779273,4.171873 3.577731,1.768039 8.036597,5.835389 8.036597,5.835389 -0.687626,-5.033844 -2.440997,-8.910877 -4.314373,-12.657646 0,0 8.134168,2.998304 9.578216,6.487575 0.898881,2.171966 3.361964,4.512092 3.361964,4.512092 l -1.680562,-9.279671 c 1.563875,-3.435239 3.364228,-6.06055 5.791571,-6.538435 l 4.290543,7.55849 c 0.638372,-3.191582 0.934487,-6.369939 3.199216,-9.624395 1.052251,2.113439 2.354533,3.571564 4.036699,4.034176 1.613785,-4.364638 0.377709,-7.804203 -0.922812,-11.222843 7.235337,0.436487 12.527507,4.099108 16.775187,9.495908 -1.10452,-3.553048 -0.45412,-6.621069 1.47735,-9.335015 2.68448,2.071623 4.24011,5.107478 9.14181,5.285129 l -1.12306,-3.2741 c 7.28809,0.975082 8.54297,2.763997 11.57753,5.37046 -0.51318,-2.806131 -1.69096,-5.649347 -4.84289,-8.63731 -2.86819,-3.236724 -8.11282,-7.567014 -8.11282,-7.567014 l 2.6968,8.919881 c 0,0 -4.90593,-3.783934 -11.2941,-4.923399 -6.38818,-1.139465 -24.332406,-1.169923 -24.332406,-1.169923 l -0.390675,8.612695 c 0,0 -11.104584,-2.869583 -21.262893,-2.258641 -10.571708,0.635805 -12.433395,6.461346 -26.487076,4.525209 0,0 2.053773,11.124612 1.780515,16.509592 -0.273244,5.384975 -2.163938,13.195826 -2.163938,13.195826 -3.170227,-4.544423 -6.111754,-6.457147 -9.079675,-8.673465 0,0 1.509556,10.406006 2.02125,20.132833 0.296491,5.635985 4.81674,13.995277 4.81674,13.995277 3.150126,2.522789 6.084102,4.220142 11.783718,5.655407 z"
     id="path5414"
     sodipodi:nodetypes="cscccccsccscccccccccccccccsccscsccscc" /><path
     fill="#ffaaaa"
     d="m 128.83552,181.84664 c -1.01548,0.20367 -4.34759,0.11598 -5.4564,0.30973 -3.51597,0.61381 -11.52519,2.08187 -19.66311,2.24169 -4.528617,0.0905 -8.81962,-0.2178 -12.741493,-1.03951 -5.223033,-1.0961 -8.727685,-2.89086 -11.004725,-4.48337 2.282693,1.59818 5.696834,3.50324 10.931184,4.80583 3.923287,0.97587 8.235509,1.45673 12.815034,1.53876 8.24541,0.14709 16.34514,-1.05224 19.90636,-1.67454 1.11731,-0.19376 4.19767,-1.49492 5.21315,-1.69859 z"
     id="path1325"
     style="stroke-width:0.5;stroke-dasharray:none" /><path
     fill="#ff5555"
     d="m 136.81901,159.86859 c -1.49634,0.0693 -5.86937,-0.9688 -7.31197,-1.15265 -2.94741,-0.3748 -6.86646,-1.13145 -11.5761,-2.87105 -5.61622,-2.07195 -11.51812,-5.23152 -17.63499,-9.65548 -6.695336,-4.844 -12.658052,-10.48992 -17.622273,-15.89681 A 139.86933,139.86933 0 0 1 72.122942,117.33896 c 2.064889,2.89085 5.606314,7.75323 10.321611,13.15871 4.829869,5.54127 10.656808,11.38517 17.275767,16.46395 6.04475,4.63752 11.96362,8.03327 17.67035,10.29475 4.79026,1.898 8.83942,2.76073 11.89999,3.14966 1.49916,0.18951 6.03201,-0.46814 7.52976,-0.53744 z"
     id="path1327"
     style="stroke-width:0.5;stroke-dasharray:none" /><path
     fill="#ffaaaa"
     d="m 106.20062,159.49778 c -2.13985,-0.56007 -8.108221,-3.86248 -10.166033,-4.8737 A 76.013359,76.013359 0 0 1 85.059558,148.0136 C 78.946922,143.61369 72.415652,137.63965 66.356759,129.99816 60.69953,122.86438 56.199205,115.20308 53.076414,107.63795 48.928251,97.590721 47.948136,89.551801 47.948136,84.231177 c 0,5.326282 0.779283,13.359544 4.698329,23.577913 2.946002,7.68534 7.270954,15.52626 12.803724,22.88915 5.92029,7.87911 12.404889,14.12892 18.552878,18.74947 4.38011,3.29109 8.234107,5.49458 11.167378,6.93435 1.127205,0.5544 3.233098,1.27146 5.527095,1.86829 1.69011,0.43986 3.8144,0.80616 5.50449,1.24743 z"
     id="path1329"
     style="stroke-width:0.5;stroke-dasharray:none" /><path
     fill="#ff5555"
     d="m 137.52102,134.08015 c -1.77072,-1.80608 -6.47894,-8.32462 -8.37978,-10.29616 -4.33343,-4.48902 -14.93508,-15.15289 -22.98673,-26.332983 -4.93168,-6.848079 -8.932759,-13.817785 -11.595901,-20.945889 -3.535775,-9.467373 -3.94592,-17.216363 -3.433937,-22.845306 -0.511983,5.6346 -0.363476,13.355304 2.873873,23.043309 2.436844,7.29075 6.208805,14.476845 10.953805,21.58233 7.80273,11.684999 18.02818,22.600619 22.44789,27.180139 1.9093,1.97862 8.35006,6.80848 10.12078,8.61314 z"
     id="path1331"
     style="stroke-width:0.5;stroke-dasharray:none" /><path
     fill="#ffaaaa"
     d="m 68.887488,167.52762 c -1.363392,-1.49917 -4.348995,-6.84525 -5.452154,-8.54807 -3.541425,-5.46489 -7.393998,-12.65098 -11.653892,-24.54106 -2.534439,-7.08002 -4.786016,-14.61687 -6.744832,-21.09581 -2.262892,-7.48875 -3.329279,-10.85481 -4.760558,-15.151474 1.260147,3.783284 2.534439,8.217124 4.435268,15.246234 1.765055,6.52703 3.769128,14.14732 6.087178,21.33482 3.852573,11.95232 7.624531,19.65605 11.184342,25.14921 1.131446,1.74243 5.541256,6.10698 6.903234,7.60615 z"
     id="path1333"
     style="stroke-width:0.5;stroke-dasharray:none" /><path
     fill="#ff5555"
     d="m 176.5741,135.51542 c -0.6025,-1.9277 -1.38037,-8.02195 -1.8782,-9.99632 -1.32945,-5.2782 -3.58244,-15.30704 -6.19042,-26.006277 -1.77778,-7.297825 -3.60932,-14.005884 -5.87221,-20.484827 -2.26289,-6.474699 -4.41264,-11.151814 -6.16497,-14.653638 1.7297,3.457981 3.796,8.286426 5.83544,14.76254 2.05358,6.518543 3.64467,13.286004 5.16647,20.609289 2.83709,13.645233 3.45657,18.046553 5.51296,26.204283 0.50208,1.98851 2.98843,7.63725 3.59093,9.56495 z"
     id="path1335"
     style="stroke-width:0.5;stroke-dasharray:none" /><path
     fill="#ffaaaa"
     d="m 165.51772,144.0082 c -0.0849,-2.05499 0.0764,-8.2737 -0.21356,-10.31878 -0.55016,-3.85824 -1.74525,-9.4688 -3.80449,-16.44699 -1.94891,-6.59915 -4.1623,-12.72169 -5.26122,-16.02126 1.07771,3.23169 2.97995,9.61021 4.53711,16.21361 1.73393,7.3544 2.45947,12.3568 3.045,16.46537 0.2871,2.01821 1.6123,8.05306 1.69716,10.10805 z"
     id="path1337"
     style="stroke-width:0.5;stroke-dasharray:none" /><path
     fill="#ff5555"
     d="m 119.01862,172.88256 c -2.29258,0.49217 -6.20881,0.17537 -11.18009,-0.98861 -1.83011,-0.42854 -3.47495,-0.88676 -4.52579,-1.1272 -2.01538,-0.46107 -4.876526,-1.1074 -8.546664,-2.23037 -4.28535,-1.31247 -8.68668,-2.98135 -12.718871,-4.92603 -4.9925,-2.40856 -8.021946,-4.56821 -9.55364,-5.99665 1.588267,1.48219 4.251407,3.83276 9.150573,6.74765 3.880857,2.31098 8.214288,4.39425 12.47419,6.04475 3.60225,1.39734 6.618962,2.27845 8.649902,2.74234 1.09892,0.25034 2.83145,0.50915 4.7846,0.64775 5.70108,0.40449 8.84933,-0.35216 11.46579,-0.91363 z"
     id="path1339"
     sodipodi:nodetypes="csccccccccc"
     style="stroke-width:0.5;stroke-dasharray:none" /><path
     fill="#ffaaaa"
     d="m 71.714905,77.331189 c 0.761778,2.393197 2.092336,7.24894 3.660611,12.034602 1.658473,5.050803 3.303945,9.220172 4.532363,11.729679 1.294071,2.64085 3.850687,7.05662 7.208638,11.62395 3.585314,4.8772 6.605338,8.00123 8.902514,10.43788 -2.141043,-2.26966 -5.106705,-6.06642 -8.072804,-10.99038 -2.988193,-4.96116 -4.893114,-9.18624 -6.246415,-11.94868 -1.511991,-3.085947 -2.974482,-5.741048 -5.393011,-11.209788 -2.061893,-4.663126 -3.80277,-9.197737 -4.591896,-11.677263 z"
     id="path1341"
     style="stroke-width:0.5;stroke-dasharray:none" /><path
     fill="#ff5555"
     d="m 91.043269,45.211303 c 2.103672,1.178269 5.155437,3.433193 8.281975,7.139879 3.132596,3.714659 5.093796,7.367784 6.356456,9.841078 l 0.0939,0.180576 c 1.21016,2.369532 3.03544,6.037293 4.35322,10.898515 1.30866,4.830263 1.54744,8.847459 1.41724,11.378263 0.13295,-2.599822 0.2238,-6.471543 -0.7709,-11.530294 -0.97112,-4.935846 -2.60613,-8.980524 -3.8173,-11.351051 l -0.0959,-0.184567 c -1.29168,-2.48216 -3.6511,-6.173427 -7.05467,-9.668805 -3.483981,-3.577008 -6.616195,-5.499529 -8.76399,-6.703594 z"
     id="path1343"
     style="stroke-width:0.5;stroke-dasharray:none" /><path
     fill="#ffd5d5"
     d="m 133.79021,52.256522 c 3.38473,1.662793 7.47272,4.929673 10.42573,9.150904 2.05628,2.937889 3.03526,5.482731 3.77273,7.00517 0.39016,0.805313 0.89692,1.807311 1.45691,3.089394 1.46238,3.356082 2.61895,7.162918 3.34971,11.983579 0.67081,4.426131 0.83159,8.857265 0.72428,11.145333 0.29732,-6.405057 1.94288,-15.440565 -0.59615,-24.363026 a 22.562444,22.562444 0 0 0 -1.33354,-3.601315 c -0.82475,-1.70163 -2.67725,-4.331549 -5.54411,-6.898663 -4.34288,-3.884691 -8.69014,-5.760794 -12.25556,-7.511376 z"
     id="path1345"
     style="stroke-width:0.5;stroke-dasharray:none" /><path
     fill="#ffd5d5"
     d="m 74.028665,116.73263 c -1.953886,-1.63172 -4.798637,-4.48823 -7.42283,-8.15267 -2.687679,-3.75296 -4.145465,-6.90039 -5.161161,-9.052153 -0.174616,-0.367334 -0.381111,-0.803892 -0.605665,-1.292445 -1.286521,-2.806579 -2.714212,-6.433952 -3.601037,-11.050022 -0.869767,-4.534976 -0.92259,-8.599082 -0.729565,-11.198891 -0.198482,2.668954 -0.475327,6.569863 0.03225,11.302065 0.506296,4.711368 1.638925,8.640217 2.840945,11.57913 0.212099,0.515504 0.414143,0.971823 0.595567,1.354766 1.010959,2.14179 2.982756,5.39735 5.99305,8.86002 3.080594,3.54656 6.020133,5.94831 8.059047,7.64892 z"
     id="path1349"
     style="stroke-width:0.5;stroke-dasharray:none" /><path
     fill="#ff5555"
     d="m 123.31936,47.682056 c 1.1945,4.130887 2.3747,8.338904 5.19032,15.373089 2.30509,5.759921 5.29861,12.255099 6.61689,14.862361 1.3173,2.608993 2.82183,5.444212 4.14085,8.054189 2.79463,5.527767 5.80778,11.938503 7.84885,18.855625 2.53276,8.58183 2.86345,15.6704 2.41681,20.94301 0.45174,-5.3458 0.56902,-12.26259 -1.47808,-21.18834 -1.63345,-7.127113 -4.26351,-13.827646 -6.80323,-19.550414 -1.46375,-3.2961 -2.94998,-6.372177 -3.89576,-8.242164 -1.46461,-2.898778 -4.74049,-8.510184 -7.70912,-14.253121 -3.21496,-6.21984 -5.27353,-11.209856 -6.32753,-14.854235 z"
     id="path1351"
     style="stroke-width:0.5;stroke-dasharray:none" /><path
     fill="#ffaaaa"
     d="m 115.02143,76.521757 c 0.32273,2.042438 0.76223,4.83716 2.17666,8.956528 1.37025,3.985829 3.24789,7.969693 5.08952,11.358498 a 63.655143,63.655143 0 0 0 2.01154,3.469557 c 3.19887,5.06549 6.14671,9.03503 12.1232,17.44901 4.81005,6.77315 9.52626,13.67671 12.71721,20.26859 1.70144,3.51352 2.8367,6.66428 3.47114,9.55043 0.84729,3.85975 0.69585,6.81185 0.24913,8.97232 0.44609,-2.15855 0.71383,-5.09425 0.0353,-9.02826 -0.50755,-2.94278 -1.49584,-6.17858 -3.04762,-9.81709 -2.90744,-6.82051 -7.35094,-13.99987 -11.90352,-20.98132 -4.83789,-7.41587 -9.16307,-13.90625 -11.57395,-17.723576 -0.55052,-0.873194 -1.28648,-1.979179 -2.15518,-3.309309 -2.08883,-3.197242 -4.35968,-6.800752 -6.18279,-10.550731 -1.82253,-3.751902 -2.70478,-6.67551 -3.01068,-8.614647 z"
     id="path1353"
     style="stroke-width:0.5;stroke-dasharray:none" /><path
     fill="#ffd5d5"
     d="m 180.74996,73.346214 c 0.67846,2.811574 1.21838,7.367723 1.38716,12.770234 0.15829,5.115324 -0.0494,10.222562 0.0113,12.780457 0.037,1.563355 0.18374,5.362445 0.28855,8.388485 0.18263,5.3161 0.39272,12.84145 0.71858,18.89859 0.39562,7.33732 0.82236,11.04905 1.23614,15.26186 -0.34829,-3.55764 -0.45612,-8.61542 -0.22965,-15.27199 0.21476,-6.32321 0.69132,-13.24911 0.92304,-18.8776 0.14558,-3.54441 0.19345,-6.38063 0.14341,-8.473682 -0.0647,-2.671812 -0.61363,-7.69315 -1.55883,-12.870943 -1.12101,-6.123411 -2.0673,-9.07772 -2.92067,-12.605077 z"
     id="path1357"
     style="stroke-width:0.5;stroke-dasharray:none" /><path
     fill="#ff5555"
     d="m 120.07788,72.776236 c 1.11982,1.43746 4.33291,5.927531 5.51318,7.325631 0.75241,0.891027 1.62438,1.87861 2.37679,2.769638 3.39404,4.018131 5.62681,7.412469 6.85291,10.684827 -0.87104,-2.322566 -3.66417,-7.688985 -6.25272,-11.161505 a 65.348068,65.348068 0 0 0 -2.27527,-2.88646 c -1.1851,-1.403998 -5.09507,-5.294671 -6.21489,-6.732131 z m 19.74638,-29.458591 c 1.12051,1.436217 4.33236,5.92561 5.51263,7.323708 0.75172,0.892256 1.62369,1.879853 2.3761,2.770866 3.39405,4.018132 5.62681,7.412469 6.85292,10.684837 -0.87037,-2.323806 -3.66349,-7.690239 -6.25272,-11.161515 a 65.340997,65.340997 0 0 0 -2.27459,-2.887698 c -1.18509,-1.403988 -5.09383,-5.293981 -6.21557,-6.73088 z"
     id="path1363"
     style="stroke-width:0.5;stroke-dasharray:none" /><path
     fill="#ffaaaa"
     d="m 136.9129,151.78278 c -1.03129,-0.94965 -5.64084,-5.47835 -8.36721,-8.12629 -2.98893,-2.90241 -7.13268,-6.92358 -8.47118,-8.12771 -1.46325,-1.31249 -4.21765,-3.7187 -6.83112,-6.17818 -4.14007,-3.89077 -8.3215,-8.2547 -11.91612,-13.26261 -3.609451,-5.03238 -5.738213,-9.50915 -6.923437,-12.78297 1.206253,3.33026 3.008562,7.80262 6.355937,13.16242 3.30093,5.28385 7.22261,10.00213 11.18958,14.18146 a 123.10555,123.10555 0 0 0 6.65829,6.51281 c 3.50865,3.15315 14.90683,11.49407 18.30499,14.61968 z"
     id="path1365"
     style="stroke-width:0.5;stroke-dasharray:none" /><g
     id="g3698"
     transform="matrix(1.4143073,0,0,1.4143073,52.99101,-92.056156)"
     style="stroke-width:0.35352996;stroke-dasharray:none"><path
       fill="url(#linearGradient1268)"
       fill-rule="evenodd"
       stroke="#000000"
       stroke-width="0.547"
       d="m 70.032571,194.20372 c -0.91275,-0.61145 -1.88503,-1.63363 -2.65407,-2.54603 -1.74849,-8.97559 16.16204,-25.13508 24.34111,-23.15268 0.65172,0.59516 1.53588,1.42134 2.3816,2.41499 z"
       id="path1371"
       style="fill:url(#linearGradient1268);stroke-width:0.35352996;stroke-dasharray:none"
       sodipodi:nodetypes="ccccc" /><path
       fill="url(#linearGradient1250)"
       fill-rule="evenodd"
       stroke="#000000"
       stroke-width="0.547"
       d="m 71.328881,194.6923 c 6.69589,1.45026 18.14051,-8.59066 21.71572,-16.30859 2.98052,-6.43239 2.23221,-9.55439 -4.43461,-7.83173 -7.17878,1.67109 -15.41177,10.48106 -17.70816,14.89487 -1.99923,3.84275 -3.0352,8.57151 0.42687,9.24644 z"
       id="path1373"
       style="fill:url(#linearGradient1250);stroke-width:0.35352996;stroke-dasharray:none"
       sodipodi:nodetypes="cccscc" /><path
       fill="url(#linearGradient1258)"
       fill-rule="evenodd"
       stroke="#000000"
       stroke-width="0.547"
       d="m 82.300341,189.11805 13.36205,14.04429 7.725969,-6.10866 -14.644529,-14.37721"
       id="path1375"
       style="fill:url(#linearGradient1258);stroke-width:0.35352996;stroke-dasharray:none"
       sodipodi:nodetypes="cccc" /><path
       d="m 88.913241,182.84756 0.19359,-0.19784 c -0.46776,-0.45785 -0.97027,-1.03419 -1.22518,-1.85715 -0.0886,-0.28111 -0.13662,-0.57341 -0.14271,-0.86808 -0.005,-0.33669 0.0546,-0.57985 0.11087,-0.71176 -0.0545,0.12818 -0.15894,0.3599 -0.22002,0.70251 -0.0458,0.26103 -0.0645,0.57801 -0.0193,0.93441 0.11482,0.91373 0.59635,1.69467 1.10893,2.19555 z"
       id="path1389"
       sodipodi:nodetypes="ccccccccc"
       style="stroke-width:0.35352996;stroke-dasharray:none" /><path
       d="m 82.461541,189.29926 -0.19783,0.19359 c -0.45786,-0.46776 -1.0342,-0.97027 -1.85715,-1.22518 -0.28111,-0.0886 -0.57342,-0.13662 -0.86809,-0.14271 -0.33669,-0.005 -0.57985,0.0546 -0.71175,0.11087 0.12817,-0.0545 0.35989,-0.15894 0.70251,-0.22003 0.26103,-0.0458 0.578,-0.0645 0.9344,-0.0193 0.91373,0.11483 1.69468,0.59636 2.19555,1.10894 z"
       id="path1389-1"
       sodipodi:nodetypes="ccccccccc"
       style="stroke-width:0.35352996;stroke-dasharray:none" /><path
       fill="url(#linearGradient1097)"
       fill-rule="evenodd"
       stroke="#000000"
       d="m 90.389241,190.66546 c 6.54974,-6.54974 15.366329,-5.03325 19.535619,-2.25259 9.77775,6.52118 17.55461,29.38442 12.27621,34.66281 -5.2784,5.27841 -27.922999,-2.8536 -34.393069,-12.13238 -4.05615,-5.81701 -3.9685,-13.7281 2.58124,-20.27784 z"
       id="path2512"
       style="fill:url(#linearGradient1097);fill-opacity:1;stroke-width:0.35352996;stroke-dasharray:none"
       sodipodi:nodetypes="zszsz" /><path
       fill="#fff6d5"
       d="m 98.763171,191.02545 c 0.58992,-0.58991 2.072079,0.42555 3.232779,1.23597 0.67721,0.47472 1.24583,0.98607 1.61729,1.20823 0.36791,0.21944 0.80733,0.49704 1.30992,0.85564 1.73279,1.23799 3.78717,3.15475 6.10441,6.22151 1.95395,2.58367 3.70717,5.47871 5.15917,8.23292 1.84604,3.50249 2.98753,6.35016 3.44866,7.76721 -0.46396,-1.42368 -1.34409,-4.34146 -2.88414,-8.03287 -1.20656,-2.89139 -2.7089,-5.99076 -4.47218,-8.82664 -2.07567,-3.34099 -4.10762,-5.66557 -5.98079,-7.16994 -0.47262,-0.38296 -0.97103,-0.73293 -1.49174,-1.04738 -0.45485,-0.27133 -1.31279,-0.54691 -2.28003,-0.66796 -1.87889,-0.23474 -4.476429,0.9364 -3.763359,0.22333 z m -10.86943,-7.36765 c 0.42501,0.4151 1.72303,2.11618 2.34094,2.71206 l 0.0651,0.0608 c 0.55339,0.50036 2.3824,1.65362 2.79011,2.0789 -0.40773,-0.42526 -1.68521,-2.18235 -2.24018,-2.68506 -0.0224,-0.0196 -0.0448,-0.0392 -0.0672,-0.0587 -0.65647,-0.55832 -2.46368,-1.69224 -2.88834,-2.10848 z"
       id="path1391"
       sodipodi:nodetypes="scccccccccccsscccccccc"
       style="stroke-width:0.35352996;stroke-dasharray:none" /></g></svg>
