<?xml version="1.0" encoding="UTF-8" standalone="no"?>
<svg
   cursor="default"
   viewBox="0 0 256 256"
   version="1.1"
   id="svg1393"
   sodipodi:docname="kitty_plug.svg"
   inkscape:version="1.2 (dc2aedaf03, 2022-05-15)"
   xml:space="preserve"
   xmlns:inkscape="http://www.inkscape.org/namespaces/inkscape"
   xmlns:sodipodi="http://sodipodi.sourceforge.net/DTD/sodipodi-0.dtd"
   xmlns:xlink="http://www.w3.org/1999/xlink"
   xmlns="http://www.w3.org/2000/svg"
   xmlns:svg="http://www.w3.org/2000/svg"><sodipodi:namedview
     id="namedview1395"
     pagecolor="#ffffff"
     bordercolor="#000000"
     borderopacity="0.25"
     inkscape:showpageshadow="2"
     inkscape:pageopacity="0.0"
     inkscape:pagecheckerboard="0"
     inkscape:deskcolor="#d1d1d1"
     showgrid="false"
     inkscape:zoom="3.3398438"
     inkscape:cx="62.727484"
     inkscape:cy="142.97076"
     inkscape:window-width="1920"
     inkscape:window-height="1051"
     inkscape:window-x="-9"
     inkscape:window-y="-9"
     inkscape:window-maximized="1"
     inkscape:current-layer="svg1393" /><defs
     id="defs1319"><linearGradient
       id="innoGrad1"><stop
         offset="0"
         stop-color="#fd5"
         id="stop1292" /><stop
         offset="1"
         stop-color="#fea"
         id="stop1294" /></linearGradient><linearGradient
       id="innoGrad2"><stop
         offset="0"
         stop-color="#ffb380"
         id="stop1297" /><stop
         offset="1"
         stop-color="#fca"
         id="stop1299" /></linearGradient><linearGradient
       id="innoGrad3"><stop
         offset="0"
         stop-color="#f55"
         id="stop1302" /><stop
         offset="1"
         stop-color="#faa"
         stop-opacity="0"
         id="stop1304" /></linearGradient><linearGradient
       id="innoGrad4"><stop
         offset="0"
         stop-color="#ff8080"
         id="stop1307" /><stop
         offset="1"
         stop-color="#faa"
         id="stop1309" /></linearGradient><linearGradient
       id="linearGradient1196"
       x1="398.455"
       x2="411.183"
       y1="153.47"
       y2="43.161"
       gradientTransform="matrix(.729 0 0 .729 -214.257 45.489)"
       gradientUnits="userSpaceOnUse"
       xlink:href="#innoGrad4" /><linearGradient
       id="linearGradient1206"
       x1="413.5"
       x2="442.375"
       y1="106"
       y2="96.5"
       gradientTransform="matrix(.729 0 0 .729 -214.257 45.489)"
       gradientUnits="userSpaceOnUse"
       xlink:href="#innoGrad3" /><linearGradient
       id="linearGradient1242"
       x1="570.812"
       x2="608.996"
       y1="141.449"
       y2="112.104"
       gradientTransform="matrix(.729 0 0 .729 -214.257 45.489)"
       gradientUnits="userSpaceOnUse"
       xlink:href="#innoGrad2" /><linearGradient
       id="linearGradient1250"
       x1="82.29"
       x2="89.624"
       y1="176.582"
       y2="168.645"
       gradientUnits="userSpaceOnUse"
       xlink:href="#innoGrad1"
       gradientTransform="rotate(10.60334,16.901166,150.46892)" /><linearGradient
       id="linearGradient1258"
       x1="95.059"
       x2="97.238"
       y1="180.828"
       y2="171.865"
       gradientUnits="userSpaceOnUse"
       xlink:href="#innoGrad1"
       gradientTransform="rotate(10.60334,15.342916,149.17532)" /><linearGradient
       id="linearGradient1268"
       x1="74.777"
       x2="84.057"
       y1="178.395"
       y2="161.866"
       gradientUnits="userSpaceOnUse"
       xlink:href="#innoGrad1"
       gradientTransform="rotate(10.60334,16.901166,150.46892)" /><linearGradient
       id="linearGradient1276"
       x1="111.104"
       x2="128.163"
       y1="195.896"
       y2="184.582"
       gradientTransform="rotate(-2.382,803.83923,890.65137)"
       gradientUnits="userSpaceOnUse"
       xlink:href="#innoGrad1" /><linearGradient
       id="linearGradient1097"
       x1="445.73416"
       x2="498.57761"
       y1="105.57626"
       y2="138.73944"
       gradientTransform="matrix(0.28316604,0.07562059,0.07562059,-0.28316604,-38.182428,200.88649)"
       gradientUnits="userSpaceOnUse"
       xlink:href="#innoGrad1" /><linearGradient
       inkscape:collect="always"
       xlink:href="#innoGrad2"
       id="linearGradient13566"
       x1="94.499123"
       y1="162.50037"
       x2="108.15351"
       y2="83.562668"
       gradientUnits="userSpaceOnUse" /><linearGradient
       inkscape:collect="always"
       xlink:href="#innoGrad4"
       id="linearGradient16583"
       gradientUnits="userSpaceOnUse"
       x1="94.499123"
       y1="162.50037"
       x2="108.15351"
       y2="83.562668" /></defs><path
     style="fill:url(#linearGradient16583);fill-opacity:1;stroke:#000000;stroke-width:0.5;stroke-linecap:round;stroke-linejoin:round;stroke-dasharray:none;stop-color:#000000"
     d="m 194.01988,161.21413 c -0.92554,-3.56946 -1.36966,-7.07324 -3.51368,-11.44523 l -0.48732,2.39634 c -3.06928,-12.38763 -6.20687,-13.30377 -9.18326,-19.75857 l -0.1097,2.25604 c -8.31786,-12.63886 -16.42776,-15.32818 -24.13806,-22.1225 l 1.19697,2.78581 c -8.69744,-8.60124 -16.28144,-7.55193 -24.4517,-11.3932 l 1.76811,2.38124 c -8.93965,-4.41934 -16.42441,-1.01861 -24.63662,-1.52791 l 1.35078,1.5859 c -12.801962,-1.39933 -16.64886,4.10293 -24.973284,6.15439 l 1.191469,1.00531 c -10.986358,-0.61321 -15.33474,4.77113 -22.867545,6.4338 l 2.655728,1.63161 c -11.927611,-1.9434 -17.767384,5.93795 -22.700979,-6.80626 l -1.878937,3.32275 c 2.248836,-12.17315 -1.215496,-12.44726 8.022504,-27.234611 l -4.095823,-0.63167 C 56.298247,86.653108 59.826965,80.07112 65.369691,74.563459 l -4.13628,0.470508 C 73.888163,70.246453 75.211498,63.323382 82.002056,57.841263 l -1.613466,0.03568 c 5.339983,-5.464708 4.787816,-9.497282 6.979586,-14.196792 l -1.533989,-0.0053 C 86.198045,41.241632 85.808217,39.14685 84.664979,37.39038 69.391307,41.656232 62.047693,50.690455 50.73905,57.340493 l 0.145261,-2.841914 C 45.078783,59.62201 37.582045,62.872074 34.521088,71.035806 L 33.93114,69.427557 C 29.852721,76.706042 22.696704,81.507764 21.719022,91.281629 l -0.86793,-3.12691 c -2.431692,6.13734 -6.462521,10.30704 -5.891032,20.139601 l -2.129006,-1.84122 c 0.683323,6.03623 -1.775552,10.20508 2.319719,20.34568 l -2.194202,-1.14013 c 2.394491,4.65958 1.037647,9.78861 8.871642,14.83069 l -3.177196,-0.10039 c 3.681208,2.89471 3.446113,6.00274 11.812296,8.64225 l -2.030877,0.91229 c 7.519078,0.75666 9.325284,4.99569 22.616496,2.24769 l -1.989529,1.93106 c 7.661483,-1.96112 14.132608,-0.16781 22.998192,-6.64327 l -1.50101,2.27903 c 8.858156,-3.70815 16.267543,-2.92248 26.685444,-11.46866 l -2.46177,3.65377 c 8.807411,-2.15151 17.139401,-1.42238 26.554791,-7.25776 l -4.28451,3.71926 c 4.61623,-0.64981 7.36006,1.59535 13.74006,0.091 l -4.67821,2.17861 c 7.5367,0.96749 10.99985,6.50473 21.0074,6.63252 l -5.98682,0.81505 c 6.4548,4.7424 10.26694,10.42857 20.73856,13.36725 l -4.53326,0.43139 c 4.6621,3.16341 6.32223,7.31586 14.07155,9.46215 l -3.38468,1.0324 c 5.20017,3.65467 9.07317,3.26393 13.79721,3.81291 z"
     id="path13450"
     sodipodi:nodetypes="cccccccccccccccccccccccccccccccccccccccccccccccccccccccccc" /><path
     d="M 47.168533,90.247369 C 56.298247,86.653108 59.826965,80.07112 65.369691,74.563459 l -4.13628,0.470508 C 73.888163,70.246453 75.211498,63.323382 82.002056,57.841263 l -1.613466,0.03568 c 5.339983,-5.464708 4.787816,-9.497282 6.979586,-14.196792 l -1.533989,-0.0053 C 86.198045,41.241632 85.808217,39.14685 84.664979,37.39038 69.391307,41.656232 62.047693,50.690455 50.73905,57.340493 l 0.145261,-2.841914 c -5.805528,5.123431 -13.302266,8.373495 -16.363223,16.537227 0.601445,2.129665 0.364197,4.793045 -0.124665,7.616542 1.30043,-1.765119 2.662843,-3.437262 3.580596,-5.776396 0.40612,1.865341 0.47276,3.682185 0.180257,5.447723 0.946784,-0.457792 1.959987,-0.799352 2.524664,-1.925833 0.241574,1.724645 0.64739,2.710201 1.086481,3.546018 0.798441,-0.963619 1.596881,-0.903021 2.395322,-0.898246 -0.04575,0.791522 0.0458,1.354209 0.299415,1.646784 1.377204,0.475136 2.754602,0.948324 4.22924,0.449123 -0.806349,1.170601 -1.288855,2.427559 -3.518129,3.218713 1.230768,0.193835 2.493065,0.702965 3.630409,-0.03743 -0.171981,1.96218 -1.852859,3.823767 -3.480701,5.688889 z"
     style="fill:url(#linearGradient13566);fill-opacity:1.0;stroke:#000000;stroke-width:0.5;stroke-linecap:round;stroke-linejoin:round;stroke-dasharray:none;stop-color:#000000"
     id="path14357"
     sodipodi:nodetypes="ccccccccccccccccccccccc" /><path
     fill="#ffaaaa"
     d="m 84.221856,126.62328 c 0.652171,-0.30576 2.960346,-0.87503 3.678836,-1.19244 2.278388,-1.00618 7.452928,-3.3383 13.006908,-4.94331 3.09037,-0.89406 6.10623,-1.51498 8.98279,-1.77253 3.83131,-0.34195 6.63777,0.0367 8.55606,0.52752 -1.92343,-0.49302 -4.69227,-0.95183 -8.57729,-0.72626 -2.91183,0.1693 -5.98066,0.69511 -9.14437,1.49959 -5.696099,1.4488 -10.992587,3.64348 -13.300168,4.66295 -0.724319,0.31899 -2.5506,1.63877 -3.202771,1.94453 z"
     id="path1325"
     style="stroke-width:0.330032;stroke-dasharray:none" /><path
     fill="#ffaaaa"
     d="m 53.077219,66.097231 c 0.223259,-0.358005 1.434285,-1.401147 1.696202,-1.78707 0.830847,-1.223639 2.679289,-4.023199 5.400271,-6.635922 1.513199,-1.454218 3.196367,-2.763535 5.076436,-3.866244 2.504957,-1.46824 4.856141,-2.269042 6.653584,-2.715137 -1.803007,0.44689 -4.192596,1.199756 -6.832111,2.635674 -1.978117,1.076325 -3.777854,2.362349 -5.417882,3.802704 -2.952494,2.593446 -5.002384,5.374978 -5.843544,6.614473 -0.264854,0.388622 -0.509657,1.593541 -0.732917,1.951547 z"
     id="path1325-1"
     style="fill:#ffb380;stroke-width:0.255625;stroke-dasharray:none" /><path
     fill="#ff5555"
     d="m 72.977585,122.64916 c -0.349196,0.3544 -1.611911,1.0451 -1.997499,1.31707 -0.787642,0.55588 -1.885364,1.22318 -3.366624,1.7942 -1.765906,0.68162 -3.813392,1.12477 -6.159822,1.26444 -2.568661,0.15243 -5.116281,-0.0822 -7.37519,-0.47406 a 43.533595,49.942393 0 0 1 -5.086425,-1.23935 c 1.064903,0.34147 2.872619,0.90052 5.070918,1.3477 2.252576,0.45927 4.805932,0.77941 7.401911,0.70938 2.370639,-0.0641 4.468346,-0.4454 6.293194,-1.0946 1.531729,-0.54501 2.6817,-1.21195 3.499529,-1.78925 0.400407,-0.28305 1.370812,-1.48113 1.720349,-1.83585 z"
     id="path1327"
     style="stroke-width:0.166684;stroke-dasharray:none" /><path
     fill="#ffaaaa"
     d="m 115.17077,110.41868 c 0.6237,-0.32358 2.7126,-0.78752 3.40725,-0.9796 a 23.704646,25.300223 5.5804719 0 1 3.94916,-0.71763 c 2.34365,-0.21873 5.1033,-0.13172 8.08477,0.47804 2.78358,0.56904 5.39663,1.52225 7.66123,2.75037 3.00781,1.6309 4.85555,3.44372 5.92351,4.78442 -1.06909,-1.34213 -2.86771,-3.19713 -5.85512,-4.92091 -2.24649,-1.2968 -4.8537,-2.33336 -7.65353,-2.98717 -2.99605,-0.69973 -5.79989,-0.86636 -8.19629,-0.69555 -1.70714,0.12189 -3.07027,0.4036 -4.06011,0.67779 -0.38061,0.10509 -1.02771,0.38173 -1.69562,0.7295 -0.49211,0.25619 -1.07319,0.62522 -1.56558,0.88104 z"
     id="path1329"
     style="stroke-width:0.161087;stroke-dasharray:none" /><path
     fill="#ff5555"
     d="m 182.57252,144.92526 c -0.69914,-0.80957 -3.21387,-2.95149 -3.9769,-3.82037 -1.73738,-1.98082 -5.86617,-6.82886 -10.17912,-10.49162 -2.64179,-2.24346 -5.32527,-4.05479 -8.0624,-5.24491 -3.63539,-1.58009 -6.59819,-1.72196 -8.74625,-1.4496 2.15022,-0.2724 5.10087,-0.25163 8.81902,1.18874 2.79813,1.08422 5.56311,2.78799 8.30228,4.94332 4.50458,3.54422 8.72764,8.2163 10.50003,10.23656 0.76578,0.87274 2.6442,3.82831 3.34279,4.63789 z"
     id="path1331"
     style="stroke-width:0.210442;stroke-dasharray:none" /><path
     fill="#ffaaaa"
     d="m 148.65311,141.44965 c 1.08368,1.15636 4.12648,4.87327 5.3212,5.91711 2.25572,1.96771 5.75945,4.62352 10.44136,7.62862 4.42847,2.84108 8.76637,5.26609 11.05101,6.62186 -2.23844,-1.32715 -6.5293,-4.06363 -10.73825,-7.11104 -4.68746,-3.39416 -7.61902,-5.93902 -10.02091,-8.03456 -1.17957,-1.02964 -4.97074,-3.86562 -6.05441,-5.02199 z"
     id="path1337"
     style="stroke-width:0.384964;stroke-dasharray:none" /><path
     fill="#ff5555"
     d="m 51.732393,146.77324 c -0.919726,0.18393 -2.548045,0.15586 -4.652711,-0.10505 -0.774803,-0.0961 -1.47479,-0.20396 -1.919396,-0.2575 -0.852708,-0.10257 -2.062853,-0.24574 -3.629691,-0.51636 -1.829547,-0.31631 -3.724474,-0.73606 -5.481028,-1.24356 -2.174933,-0.62858 -3.529194,-1.21644 -4.230553,-1.61317 0.727311,0.41168 1.940173,1.06213 4.101703,1.84199 1.712348,0.61834 3.599801,1.16178 5.43558,1.57848 1.55245,0.35284 2.838263,0.56285 3.697516,0.666 0.464902,0.0556 1.191125,0.10318 2.002267,0.1114 2.367637,0.0241 3.626642,-0.25238 4.676312,-0.46222 z"
     id="path1339"
     sodipodi:nodetypes="csccccccccc"
     style="stroke-width:0.175067;stroke-dasharray:none" /><path
     fill="#ffaaaa"
     d="m 67.434351,141.31146 c 1.181392,-0.0729 3.552023,-0.0852 5.919967,-0.25909 2.499543,-0.18566 4.596806,-0.51296 5.888345,-0.85981 1.359301,-0.36588 3.680396,-1.22496 6.168736,-2.56283 2.657104,-1.42837 4.447872,-2.7988 5.837457,-3.83097 -1.294513,0.96225 -3.38442,2.18411 -5.986785,3.21464 -2.621987,1.03811 -4.776418,1.51929 -6.19826,1.90178 -1.58838,0.42743 -2.974828,0.89692 -5.757638,1.49007 -2.372826,0.50556 -4.64783,0.83083 -5.871822,0.90621 z"
     id="path1341"
     style="stroke-width:0.277074;stroke-dasharray:none" /><path
     fill="#ff5555"
     d="m 25.81358,109.65732 c -0.259281,-1.57405 -0.377328,-4.09026 0.162309,-7.26393 0.54105,-3.180125 1.507716,-5.737429 2.187473,-7.435639 l 0.04896,-0.124859 c 0.651057,-1.627205 1.677411,-4.121527 3.465293,-6.866527 1.77678,-2.72715 3.584283,-4.56255 4.831931,-5.575916 -1.281363,1.041408 -3.148011,2.64687 -5.154745,5.311599 -1.957752,2.600286 -3.236259,5.158507 -3.887388,6.786645 l -0.05008,0.127583 c -0.672679,1.716763 -1.502809,4.493152 -1.834949,7.717734 -0.339538,3.30038 -0.03303,5.71576 0.231174,7.3233 z"
     id="path1343"
     style="stroke-width:0.31879;stroke-dasharray:none" /><path
     fill="#ffd5d5"
     d="m 25.316047,130.68878 c -0.762624,-0.58716 -1.706974,-1.8344 -2.423555,-3.53117 -0.498948,-1.18089 -0.75769,-2.2331 -0.945306,-2.85704 -0.09927,-0.33001 -0.227359,-0.73989 -0.37215,-1.26757 -0.378266,-1.38138 -0.698743,-2.96665 -0.945892,-5.00094 -0.226889,-1.86782 -0.343591,-3.7564 -0.362695,-4.73857 0.05415,2.74927 -0.1346,6.67245 0.579398,10.3943 a 4.8964607,9.6814807 0 0 0 0.354939,1.49094 c 0.209803,0.69735 0.658996,1.75401 1.326362,2.74673 1.010886,1.50208 1.985581,2.14523 2.788899,2.76332 z"
     id="path1345"
     style="stroke-width:0.152579;stroke-dasharray:none" /><path
     fill="#ff5555"
     d="m 82.327048,45.758294 c -0.05232,0.8277 -0.683893,2.137402 -1.842446,3.731376 -0.42656,0.586782 -0.844092,1.10761 -1.086363,1.445052 -0.464653,0.647165 -1.12036,1.566687 -2.099174,2.719734 -1.143474,1.346217 -2.4682,2.699983 -3.876562,3.902787 -1.744125,1.489198 -3.129458,2.33 -3.987513,2.724829 0.890211,-0.409321 2.319778,-1.107769 4.289549,-2.519497 1.56126,-1.118124 3.071707,-2.411388 4.370375,-3.718481 1.098951,-1.105153 1.883851,-2.056693 2.351714,-2.708931 0.252816,-0.352989 0.587777,-0.921726 0.893722,-1.576647 0.892851,-1.911713 0.926867,-3.055612 0.986698,-4.000222 z"
     id="path1339-2"
     sodipodi:nodetypes="csccccccccc"
     style="fill:#ff9955;stroke-width:0.206858;stroke-dasharray:none" /><path
     fill="#ffd5d5"
     d="m 40.629555,74.722391 c -0.09815,-1.487021 0.227452,-3.530391 1.119501,-5.372307 0.620646,-1.282291 1.320571,-2.118062 1.708585,-2.670094 0.205205,-0.292035 0.456272,-0.662675 0.795393,-1.106628 0.888386,-1.160919 1.997714,-2.305613 3.550976,-3.503626 1.426184,-1.09992 2.957316,-2.025996 3.786466,-2.438949 -2.320413,1.157044 -5.841901,2.368977 -8.476706,4.99305 a 9.1780987,8.9150588 0 0 0 -1.001,1.164955 c -0.433581,0.617171 -0.986776,1.769081 -1.312547,3.256339 -0.492048,2.252173 -0.274396,4.111046 -0.170668,5.67726 z"
     id="path1345-6"
     style="fill:#ffe6d5;stroke-width:0.200457;stroke-dasharray:none" /><path
     fill="#ffd5d5"
     d="m 54.666357,135.07609 c -1.124234,0.11354 -2.916969,0.15708 -4.904495,-0.0635 -2.035567,-0.22588 -3.500168,-0.63002 -4.507263,-0.90117 -0.172299,-0.046 -0.376749,-0.10085 -0.603563,-0.16405 -1.301917,-0.36398 -2.912975,-0.89779 -4.679878,-1.82787 -1.735416,-0.91414 -3.069308,-1.92929 -3.853516,-2.63983 0.804963,0.72953 1.985528,1.79223 3.674585,2.85398 1.681899,1.05681 3.300841,1.74655 4.619925,2.16683 0.231761,0.0734 0.441265,0.13449 0.620698,0.18256 1.002414,0.2699 2.658645,0.56283 4.698352,0.62819 2.088319,0.0677 3.762466,-0.11661 4.934938,-0.23563 z"
     id="path1349"
     style="stroke-width:0.202843;stroke-dasharray:none" /><path
     fill="#ff5555"
     d="m 101.51311,131.6222 c 1.57359,0.1487 3.17278,0.31408 5.93275,0.27029 2.25995,-0.0357 4.84895,-0.22571 5.90021,-0.3463 1.05179,-0.11997 2.20227,-0.27808 3.25457,-0.39857 2.22881,-0.25555 4.79017,-0.46535 7.42933,-0.23191 3.27433,0.28945 5.79766,1.19781 7.60327,2.13665 -1.83078,-0.95145 -4.24768,-2.00498 -7.59281,-2.52913 -2.67094,-0.41897 -5.29465,-0.397 -7.5657,-0.26676 -1.30814,0.0754 -2.54132,0.19141 -3.29533,0.27803 -1.16872,0.13366 -3.47643,0.55988 -5.7987,0.85018 -2.5151,0.31432 -4.47931,0.36864 -5.86759,0.23752 z"
     id="path1351"
     style="stroke-width:0.192646;stroke-dasharray:none" /><path
     fill="#ffaaaa"
     d="m 42.003703,88.992212 c 0.131137,0.458943 0.311149,1.086754 0.368258,2.076081 0.0548,0.957401 -0.02841,1.956714 -0.165592,2.827155 a 18.585547,14.473803 0 0 1 -0.174682,0.901699 c -0.326212,1.338324 -0.701637,2.423892 -1.423574,4.702219 -0.580891,1.833944 -1.122324,3.687634 -1.282869,5.348164 -0.08575,0.88512 -0.05657,1.64629 0.08028,2.3097 0.183344,0.88709 0.54072,1.49889 0.893489,1.91861 -0.352392,-0.41936 -0.739599,-1.01798 -0.976729,-1.90672 -0.177387,-0.6648 -0.25559,-1.43169 -0.223881,-2.33077 0.05904,-1.68524 0.496861,-3.57451 0.985504,-5.431039 0.519605,-1.972217 0.99909,-3.705899 1.244981,-4.714475 0.05598,-0.230623 0.137403,-0.525959 0.23086,-0.879784 0.224846,-0.850542 0.455612,-1.802208 0.549074,-2.747502 0.0931,-0.945647 0.01953,-1.637654 -0.105108,-2.073343 z"
     id="path1353"
     style="stroke-width:0.128829;stroke-dasharray:none" /><path
     fill="#ffd5d5"
     d="m 176.10277,150.29515 c 0.90191,0.72161 2.22,2.08278 3.66209,3.8584 1.36505,1.68175 2.63419,3.48622 3.31205,4.33349 0.41427,0.51789 1.43555,1.7569 2.24593,2.74793 1.42327,1.74155 3.42562,4.22345 5.07748,6.16739 2.00121,2.35449 3.07165,3.46788 4.26851,4.75576 -1.01044,-1.08799 -2.34765,-2.7675 -4.01313,-5.10421 -1.58217,-2.21956 -3.25328,-4.7334 -4.65122,-6.72299 -0.88041,-1.2528 -1.6025,-2.23175 -2.15726,-2.92492 -0.70838,-0.88457 -2.14923,-2.40052 -3.73218,-3.83373 -1.87285,-1.69386 -2.88036,-2.3721 -4.01243,-3.27667 z"
     id="path1357"
     style="stroke-width:0.209614;stroke-dasharray:none" /><path
     fill="#ffaaaa"
     d="m 140.94202,126.57048 c 0.41292,0.11866 2.30462,0.7678 3.41851,1.13894 1.22109,0.40666 2.91353,0.96935 3.44485,1.11145 0.58022,0.15373 1.66196,0.41616 2.71695,0.73896 1.67037,0.50912 3.42785,1.20501 5.14243,2.32889 1.72227,1.13012 2.98268,2.42786 3.81113,3.47728 -0.84288,-1.06735 -2.02062,-2.45146 -3.73017,-3.78937 -1.68559,-1.31868 -3.43532,-2.23302 -5.10902,-2.90963 a 36.794456,61.311752 0 0 0 -2.72782,-0.92566 c -1.39223,-0.37114 -5.60654,-0.78088 -6.96656,-1.17034 z"
     id="path1365"
     style="stroke-width:0.192911;stroke-dasharray:none" /><g
     id="g3698"
     transform="matrix(1.235253,0.05703307,-0.05703307,1.235253,98.890422,-56.246517)"
     style="stroke-width:0.404345;stroke-dasharray:none"><path
       fill="url(#linearGradient1268)"
       fill-rule="evenodd"
       stroke="#000000"
       stroke-width="0.547"
       d="m 70.032571,194.20372 c -0.91275,-0.61145 -1.88503,-1.63363 -2.65407,-2.54603 -1.74849,-8.97559 16.16204,-25.13508 24.34111,-23.15268 0.65172,0.59516 1.53588,1.42134 2.3816,2.41499 z"
       id="path1371"
       style="fill:url(#linearGradient1268);stroke-width:0.404345;stroke-dasharray:none"
       sodipodi:nodetypes="ccccc" /><path
       fill="url(#linearGradient1250)"
       fill-rule="evenodd"
       stroke="#000000"
       stroke-width="0.547"
       d="m 71.328881,194.6923 c 6.69589,1.45026 18.14051,-8.59066 21.71572,-16.30859 2.98052,-6.43239 2.23221,-9.55439 -4.43461,-7.83173 -7.17878,1.67109 -15.41177,10.48106 -17.70816,14.89487 -1.99923,3.84275 -3.0352,8.57151 0.42687,9.24644 z"
       id="path1373"
       style="fill:url(#linearGradient1250);stroke-width:0.404345;stroke-dasharray:none"
       sodipodi:nodetypes="cccscc" /><path
       fill="url(#linearGradient1258)"
       fill-rule="evenodd"
       stroke="#000000"
       stroke-width="0.547"
       d="m 82.300341,189.11805 13.36205,14.04429 7.725969,-6.10866 -14.644529,-14.37721"
       id="path1375"
       style="fill:url(#linearGradient1258);stroke-width:0.404345;stroke-dasharray:none"
       sodipodi:nodetypes="cccc" /><path
       d="m 88.913241,182.84756 0.19359,-0.19784 c -0.46776,-0.45785 -0.97027,-1.03419 -1.22518,-1.85715 -0.0886,-0.28111 -0.13662,-0.57341 -0.14271,-0.86808 -0.005,-0.33669 0.0546,-0.57985 0.11087,-0.71176 -0.0545,0.12818 -0.15894,0.3599 -0.22002,0.70251 -0.0458,0.26103 -0.0645,0.57801 -0.0193,0.93441 0.11482,0.91373 0.59635,1.69467 1.10893,2.19555 z"
       id="path1389"
       sodipodi:nodetypes="ccccccccc"
       style="stroke-width:0.404345;stroke-dasharray:none" /><path
       d="m 82.461541,189.29926 -0.19783,0.19359 c -0.45786,-0.46776 -1.0342,-0.97027 -1.85715,-1.22518 -0.28111,-0.0886 -0.57342,-0.13662 -0.86809,-0.14271 -0.33669,-0.005 -0.57985,0.0546 -0.71175,0.11087 0.12817,-0.0545 0.35989,-0.15894 0.70251,-0.22003 0.26103,-0.0458 0.578,-0.0645 0.9344,-0.0193 0.91373,0.11483 1.69468,0.59636 2.19555,1.10894 z"
       id="path1389-1"
       sodipodi:nodetypes="ccccccccc"
       style="stroke-width:0.404345;stroke-dasharray:none" /><path
       fill="url(#linearGradient1097)"
       fill-rule="evenodd"
       stroke="#000000"
       d="m 90.389241,190.66546 c 6.54974,-6.54974 15.366329,-5.03325 19.535619,-2.25259 9.77775,6.52118 17.55461,29.38442 12.27621,34.66281 -5.2784,5.27841 -27.922999,-2.8536 -34.393069,-12.13238 -4.05615,-5.81701 -3.9685,-13.7281 2.58124,-20.27784 z"
       id="path2512"
       style="fill:url(#linearGradient1097);fill-opacity:1;stroke-width:0.404345;stroke-dasharray:none"
       sodipodi:nodetypes="zszsz" /><path
       fill="#fff6d5"
       d="m 98.763171,191.02545 c 0.58992,-0.58991 2.072079,0.42555 3.232779,1.23597 0.67721,0.47472 1.24583,0.98607 1.61729,1.20823 0.36791,0.21944 0.80733,0.49704 1.30992,0.85564 1.73279,1.23799 3.78717,3.15475 6.10441,6.22151 1.95395,2.58367 3.70717,5.47871 5.15917,8.23292 1.84604,3.50249 2.98753,6.35016 3.44866,7.76721 -0.46396,-1.42368 -1.34409,-4.34146 -2.88414,-8.03287 -1.20656,-2.89139 -2.7089,-5.99076 -4.47218,-8.82664 -2.07567,-3.34099 -4.10762,-5.66557 -5.98079,-7.16994 -0.47262,-0.38296 -0.97103,-0.73293 -1.49174,-1.04738 -0.45485,-0.27133 -1.31279,-0.54691 -2.28003,-0.66796 -1.87889,-0.23474 -4.476429,0.9364 -3.763359,0.22333 z m -10.86943,-7.36765 c 0.42501,0.4151 1.72303,2.11618 2.34094,2.71206 l 0.0651,0.0608 c 0.55339,0.50036 2.3824,1.65362 2.79011,2.0789 -0.40773,-0.42526 -1.68521,-2.18235 -2.24018,-2.68506 -0.0224,-0.0196 -0.0448,-0.0392 -0.0672,-0.0587 -0.65647,-0.55832 -2.46368,-1.69224 -2.88834,-2.10848 z"
       id="path1391"
       sodipodi:nodetypes="scccccccccccsscccccccc"
       style="stroke-width:0.404345;stroke-dasharray:none" /></g></svg>
