<?xml version="1.0" encoding="UTF-8" standalone="no"?>
<svg
   cursor="default"
   viewBox="0 0 256 256"
   version="1.1"
   id="svg9304"
   sodipodi:docname="plug_thong.svg"
   inkscape:version="1.2 (dc2aedaf03, 2022-05-15)"
   xml:space="preserve"
   xmlns:inkscape="http://www.inkscape.org/namespaces/inkscape"
   xmlns:sodipodi="http://sodipodi.sourceforge.net/DTD/sodipodi-0.dtd"
   xmlns:xlink="http://www.w3.org/1999/xlink"
   xmlns="http://www.w3.org/2000/svg"
   xmlns:svg="http://www.w3.org/2000/svg"><defs
     id="defs9308"><linearGradient
       inkscape:collect="always"
       id="linearGradient17320"><stop
         style="stop-color:#ff8080;stop-opacity:1"
         offset="0"
         id="stop17316" /><stop
         style="stop-color:#ffaaaa;stop-opacity:1"
         offset="1"
         id="stop17318" /></linearGradient><linearGradient
       inkscape:collect="always"
       id="linearGradient17248"><stop
         style="stop-color:#ffb380;stop-opacity:1"
         offset="0"
         id="stop17244" /><stop
         style="stop-color:#ffccaa;stop-opacity:1"
         offset="1"
         id="stop17246" /></linearGradient><linearGradient
       id="linearGradient1268"
       x1="74.777"
       x2="84.056999"
       y1="178.395"
       y2="161.866"
       gradientUnits="userSpaceOnUse"
       xlink:href="#innoGrad1"
       gradientTransform="rotate(10.60334,16.901166,150.46892)" /><linearGradient
       id="innoGrad1"><stop
         offset="0"
         stop-color="#fd5"
         id="stop1292" /><stop
         offset="1"
         stop-color="#fea"
         id="stop1294" /></linearGradient><linearGradient
       id="linearGradient1250"
       x1="82.290001"
       x2="89.624001"
       y1="176.582"
       y2="168.645"
       gradientUnits="userSpaceOnUse"
       xlink:href="#innoGrad1"
       gradientTransform="rotate(10.60334,16.901166,150.46892)" /><linearGradient
       id="linearGradient1258"
       x1="95.058998"
       x2="97.237999"
       y1="180.828"
       y2="171.86501"
       gradientUnits="userSpaceOnUse"
       xlink:href="#innoGrad1"
       gradientTransform="rotate(10.60334,15.342916,149.17532)" /><linearGradient
       id="linearGradient1097"
       x1="445.73416"
       x2="498.57761"
       y1="105.57626"
       y2="138.73944"
       gradientTransform="matrix(0.28316604,0.07562059,0.07562059,-0.28316604,-38.182428,200.88649)"
       gradientUnits="userSpaceOnUse"
       xlink:href="#innoGrad1" /><linearGradient
       inkscape:collect="always"
       xlink:href="#linearGradient17248"
       id="linearGradient17250"
       x1="138.23938"
       y1="224.85995"
       x2="177.13025"
       y2="143.18912"
       gradientUnits="userSpaceOnUse"
       gradientTransform="translate(2)" /><linearGradient
       inkscape:collect="always"
       xlink:href="#linearGradient17320"
       id="linearGradient17322"
       x1="111.72287"
       y1="220.61731"
       x2="175.00893"
       y2="49.143921"
       gradientUnits="userSpaceOnUse"
       gradientTransform="translate(2)" /></defs><sodipodi:namedview
     id="namedview9306"
     pagecolor="#ffffff"
     bordercolor="#000000"
     borderopacity="0.25"
     inkscape:showpageshadow="2"
     inkscape:pageopacity="0.0"
     inkscape:pagecheckerboard="0"
     inkscape:deskcolor="#d1d1d1"
     showgrid="false"
     inkscape:zoom="2"
     inkscape:cx="65.25"
     inkscape:cy="142.25"
     inkscape:window-width="1920"
     inkscape:window-height="1051"
     inkscape:window-x="-9"
     inkscape:window-y="-9"
     inkscape:window-maximized="1"
     inkscape:current-layer="svg9304" /><path
     style="fill:#ff5555;stroke:#000000;stroke-width:0.5;stroke-linecap:square;stroke-linejoin:round;stroke-dasharray:none;stroke-opacity:1;stop-color:#000000"
     d="m 28.148015,47.290093 c 0,0 1.516358,-2.213797 8.171487,-3.897675 6.655128,-1.683879 39.729855,-8.050328 98.977918,-2.733133 59.24806,5.317197 79.65165,13.202218 91.35697,24.314657 11.70534,11.112442 8.44388,19.940585 8.44388,19.940585 0,0 -2.59497,-11.339462 -11.41048,-18.322238 -9.31513,-7.378553 -29.88648,-16.824822 -86.60066,-21.001795 -62.842507,-4.628322 -87.558937,0.362715 -96.226847,1.908734 -8.335183,1.486674 -14.87441,7.42141 -14.87441,7.42141 z"
     id="path11267"
     sodipodi:nodetypes="cssscssscc" /><g
     id="g3698"
     transform="matrix(-0.0877544,-1.2825852,1.2825852,-0.0877544,-150.09465,317.505)"
     style="stroke-width:0.388928;stroke-dasharray:none"><path
       fill="url(#linearGradient1268)"
       fill-rule="evenodd"
       stroke="#000000"
       stroke-width="0.547"
       d="m 70.032571,194.20372 c -0.91275,-0.61145 -1.88503,-1.63363 -2.65407,-2.54603 -1.74849,-8.97559 16.16204,-25.13508 24.34111,-23.15268 0.65172,0.59516 1.53588,1.42134 2.3816,2.41499 z"
       id="path1371"
       style="fill:url(#linearGradient1268);stroke-width:0.388928;stroke-dasharray:none"
       sodipodi:nodetypes="ccccc" /><path
       fill="url(#linearGradient1250)"
       fill-rule="evenodd"
       stroke="#000000"
       stroke-width="0.547"
       d="m 71.328881,194.6923 c 6.69589,1.45026 18.14051,-8.59066 21.71572,-16.30859 2.98052,-6.43239 2.23221,-9.55439 -4.43461,-7.83173 -7.17878,1.67109 -15.41177,10.48106 -17.70816,14.89487 -1.99923,3.84275 -3.0352,8.57151 0.42687,9.24644 z"
       id="path1373"
       style="fill:url(#linearGradient1250);stroke-width:0.388928;stroke-dasharray:none"
       sodipodi:nodetypes="cccscc" /><path
       fill="url(#linearGradient1258)"
       fill-rule="evenodd"
       stroke="#000000"
       stroke-width="0.547"
       d="m 82.300341,189.11805 13.36205,14.04429 7.725969,-6.10866 -14.644529,-14.37721"
       id="path1375"
       style="fill:url(#linearGradient1258);stroke-width:0.388928;stroke-dasharray:none"
       sodipodi:nodetypes="cccc" /><path
       d="m 88.913241,182.84756 0.132136,-0.14256 c -0.46776,-0.45785 -0.908816,-1.08947 -1.163726,-1.91243 -0.0886,-0.28111 -0.13662,-0.57341 -0.14271,-0.86808 -0.005,-0.33669 0.0546,-0.57985 0.11087,-0.71176 -0.0545,0.12818 -0.15894,0.3599 -0.22002,0.70251 -0.0458,0.26103 -0.0645,0.57801 -0.0193,0.93441 0.11482,0.91373 0.641867,1.62669 1.154447,2.12757 z"
       id="path1389"
       sodipodi:nodetypes="ccccccccc"
       style="stroke-width:0.388928;stroke-dasharray:none" /><path
       d="m 82.461541,189.29926 -0.134907,0.12512 c -0.45786,-0.46776 -1.097123,-0.9018 -1.920073,-1.15671 -0.28111,-0.0886 -0.57342,-0.13662 -0.86809,-0.14271 -0.33669,-0.005 -0.57985,0.0546 -0.71175,0.11087 0.12817,-0.0545 0.35989,-0.15894 0.70251,-0.22003 0.26103,-0.0458 0.578,-0.0645 0.9344,-0.0193 0.91373,0.11483 1.594789,0.59373 2.095659,1.10631 z"
       id="path1389-1"
       sodipodi:nodetypes="ccccccccc"
       style="stroke-width:0.388928;stroke-dasharray:none" /><path
       fill="url(#linearGradient1097)"
       fill-rule="evenodd"
       stroke="#000000"
       d="m 90.389241,190.66546 c 6.54974,-6.54974 15.366329,-5.03325 19.535619,-2.25259 9.77775,6.52118 17.55461,29.38442 12.27621,34.66281 -5.2784,5.27841 -27.922999,-2.8536 -34.393069,-12.13238 -4.05615,-5.81701 -3.9685,-13.7281 2.58124,-20.27784 z"
       id="path2512"
       style="fill:url(#linearGradient1097);fill-opacity:1;stroke-width:0.388928;stroke-dasharray:none"
       sodipodi:nodetypes="zszsz" /><path
       fill="#fff6d5"
       d="m 98.763171,191.02545 c 0.58992,-0.58991 2.072079,0.42555 3.232779,1.23597 0.67721,0.47472 1.24583,0.98607 1.61729,1.20823 0.36791,0.21944 0.80733,0.49704 1.30992,0.85564 1.73279,1.23799 3.78717,3.15475 6.10441,6.22151 1.95395,2.58367 3.70717,5.47871 5.15917,8.23292 1.84604,3.50249 2.98753,6.35016 3.44866,7.76721 -0.46396,-1.42368 -1.34409,-4.34146 -2.88414,-8.03287 -1.20656,-2.89139 -2.7089,-5.99076 -4.47218,-8.82664 -2.07567,-3.34099 -4.10762,-5.66557 -5.98079,-7.16994 -0.47262,-0.38296 -0.97103,-0.73293 -1.49174,-1.04738 -0.45485,-0.27133 -1.31279,-0.54691 -2.28003,-0.66796 -1.87889,-0.23474 -4.476429,0.9364 -3.763359,0.22333 z m -10.86943,-7.36765 c 0.42501,0.4151 1.72303,2.11618 2.34094,2.71206 l 0.0651,0.0608 c 0.55339,0.50036 2.3824,1.65362 2.79011,2.0789 -0.40773,-0.42526 -1.68521,-2.18235 -2.24018,-2.68506 -0.0224,-0.0196 -0.0448,-0.0392 -0.0672,-0.0587 -0.65647,-0.55832 -2.46368,-1.69224 -2.88834,-2.10848 z"
       id="path1391"
       sodipodi:nodetypes="scccccccccccsscccccccc"
       style="stroke-width:0.388928;stroke-dasharray:none" /></g><path
     style="fill:#ff5555;stroke:#000000;stroke-width:0.5;stroke-linecap:square;stroke-linejoin:round;stroke-dasharray:none;stroke-opacity:1;stop-color:#000000"
     d="m 135.67816,225.00789 c 0,0 -5.92098,1.36879 -20.84587,-0.0738 -18.427878,-1.78122 -32.395605,-23.79036 -32.395605,-23.79036 0,0 1.37386,-1.54833 4.307956,-2.35132 7.248581,8.56531 16.490309,15.93615 26.423629,19.55777 10.10176,3.68305 14.91896,4.74649 22.50989,6.65774 z"
     id="path11335"
     sodipodi:nodetypes="csccsc" /><path
     style="fill:url(#linearGradient17322);fill-opacity:1;stroke:#000000;stroke-width:0.5;stroke-linecap:square;stroke-linejoin:round;stroke-dasharray:none;stroke-opacity:1;stop-color:#000000"
     d="m 28.354441,47.114083 c 0,0 -3.829934,12.788955 7.22969,23.083679 13.994868,13.02696 41.814708,25.001136 67.124049,37.365958 24.53042,11.98428 46.38428,30.54141 81.84335,29.74912 35.45907,-0.79232 27.18575,-21.10444 35.08021,-31.84165 7.89447,-10.737217 15.7708,-22.152879 15.7708,-22.152879 0,0 1.12911,4.180829 -1.57049,9.415893 -2.69961,5.235068 -19.41839,29.811996 -19.53286,30.707476 -0.0572,0.44775 -5.4157,11.74132 -7.75252,16.55253 -12.96549,15.0301 -28.59711,27.8472 -33.33052,34.71313 -9.46682,13.73186 -21.24376,38.84901 -29.59199,49.32711 -2.73676,1.07719 -10.68264,1.27453 -10.68264,1.27453 11.67969,-11.38596 20.91925,-67.81959 -8.46747,-95.16769 C 111.85987,120.36266 83.958804,107.27413 63.445358,96.397859 42.931911,85.521589 31.616811,80.020091 24.824867,69.618289 18.032923,59.216486 22.406533,52.919011 22.406533,52.919011 Z"
     id="path10468"
     sodipodi:nodetypes="csssscsccccccsscc" /><path
     id="path10468-8"
     style="fill:url(#linearGradient17250);fill-opacity:1;stroke:#000000;stroke-width:0.5;stroke-linecap:square;stroke-linejoin:round;stop-color:#000000"
     d="m 141.40893,137.82204 c 8.51114,14.22315 11.58766,30.71612 11.51016,45.93374 -0.0523,10.27237 -1.47035,19.93616 -3.75709,28.10243 -0.97602,3.48548 -6.01041,10.52073 -7.38112,12.71694 19.18668,-2.8036 28.76885,-19.18509 33.46413,-25.74327 3.90099,-5.44875 13.1471,-21.40893 19.65001,-34.4922 3.17194,-6.38165 8.96615,-18.66093 11.83059,-24.65285 -2.37217,1.50281 -5.95526,6.07654 -21.97865,6.43473 -16.76347,0.37455 -30.89673,-3.14055 -43.33803,-8.29952 z"
     sodipodi:nodetypes="csscssccc" /><path
     style="fill:none;stroke:#000000;stroke-width:0.5;stroke-linecap:round;stroke-linejoin:round;stroke-dasharray:none;stroke-opacity:1;stop-color:#000000"
     d="m 141.62595,137.94549 c -5.5104,-2.22453 -15.03399,-7.11649 -23.90903,-12.55724"
     id="path13953"
     sodipodi:nodetypes="cc" /><path
     style="fill:#ff5555;stroke:#000000;stroke-width:0.5;stroke-linecap:round;stroke-linejoin:round;stroke-dasharray:none;stroke-opacity:1;stop-color:#000000"
     d="m 82.5,201.1875 c 0,0 -4.25,-2.1875 -7.9375,-6 -2.759773,-2.85332 -3.8125,-6 -2.375,-7.25 1.4375,-1.25 3.544519,0.19129 3.544519,0.19129 -0.553272,0.67772 -1.258965,0.82463 -1.903894,0.88683 0,0 0.231008,1.96292 3.135914,4.70313 2.709632,2.556 7.914522,5.67211 7.914522,5.67211 -0.91086,0.46962 -1.728685,1.20656 -2.378561,1.79664 z"
     id="path16325"
     sodipodi:nodetypes="cssccscc" /><path
     style="fill:#ff5555;stroke:#000000;stroke-width:0.5;stroke-linecap:round;stroke-linejoin:round;stroke-dasharray:none;stroke-opacity:1;stop-color:#000000"
     d="m 86.734375,198.78124 -1.625,-2.89062 c -0.558561,0.44858 -0.958351,1.06973 -0.84375,2.25 l 0.65625,1.23438 z"
     id="path16381"
     sodipodi:nodetypes="ccccc" /></svg>
