<?xml version="1.0" encoding="UTF-8" standalone="no"?>
<svg
   cursor="default"
   viewBox="0 0 256 256"
   version="1.1"
   id="svg1393"
   sodipodi:docname="puppy_plug.svg"
   inkscape:version="1.2 (dc2aedaf03, 2022-05-15)"
   xml:space="preserve"
   xmlns:inkscape="http://www.inkscape.org/namespaces/inkscape"
   xmlns:sodipodi="http://sodipodi.sourceforge.net/DTD/sodipodi-0.dtd"
   xmlns:xlink="http://www.w3.org/1999/xlink"
   xmlns="http://www.w3.org/2000/svg"
   xmlns:svg="http://www.w3.org/2000/svg"><sodipodi:namedview
     id="namedview1395"
     pagecolor="#ffffff"
     bordercolor="#000000"
     borderopacity="0.25"
     inkscape:showpageshadow="2"
     inkscape:pageopacity="0.0"
     inkscape:pagecheckerboard="0"
     inkscape:deskcolor="#d1d1d1"
     showgrid="false"
     inkscape:zoom="2.3616262"
     inkscape:cx="72.196015"
     inkscape:cy="132.74751"
     inkscape:window-width="1920"
     inkscape:window-height="1051"
     inkscape:window-x="-9"
     inkscape:window-y="-9"
     inkscape:window-maximized="1"
     inkscape:current-layer="svg1393" /><defs
     id="defs1319"><linearGradient
       id="linearGradient7671"><stop
         offset="0"
         stop-color="#ff8080"
         id="stop7667"
         style="stop-color:#ffb380;stop-opacity:1" /><stop
         offset="1"
         stop-color="#faa"
         id="stop7669"
         style="stop-color:#ffccaa;stop-opacity:1" /></linearGradient><linearGradient
       id="innoGrad1"><stop
         offset="0"
         stop-color="#fd5"
         id="stop1292" /><stop
         offset="1"
         stop-color="#fea"
         id="stop1294" /></linearGradient><linearGradient
       id="innoGrad2"><stop
         offset="0"
         stop-color="#ffb380"
         id="stop1297" /><stop
         offset="1"
         stop-color="#fca"
         id="stop1299" /></linearGradient><linearGradient
       id="innoGrad3"><stop
         offset="0"
         stop-color="#f55"
         id="stop1302" /><stop
         offset="1"
         stop-color="#faa"
         stop-opacity="0"
         id="stop1304" /></linearGradient><linearGradient
       id="innoGrad4"><stop
         offset="0"
         stop-color="#ff8080"
         id="stop1307" /><stop
         offset="1"
         stop-color="#faa"
         id="stop1309" /></linearGradient><linearGradient
       id="linearGradient1196"
       x1="398.455"
       x2="411.183"
       y1="153.47"
       y2="43.161"
       gradientTransform="matrix(.729 0 0 .729 -214.257 45.489)"
       gradientUnits="userSpaceOnUse"
       xlink:href="#innoGrad4" /><linearGradient
       id="linearGradient1206"
       x1="413.5"
       x2="442.375"
       y1="106"
       y2="96.5"
       gradientTransform="matrix(.729 0 0 .729 -214.257 45.489)"
       gradientUnits="userSpaceOnUse"
       xlink:href="#innoGrad3" /><linearGradient
       id="linearGradient1242"
       x1="570.812"
       x2="608.996"
       y1="141.449"
       y2="112.104"
       gradientTransform="matrix(.729 0 0 .729 -214.257 45.489)"
       gradientUnits="userSpaceOnUse"
       xlink:href="#innoGrad2" /><linearGradient
       id="linearGradient1250"
       x1="82.29"
       x2="89.624"
       y1="176.582"
       y2="168.645"
       gradientUnits="userSpaceOnUse"
       xlink:href="#innoGrad1"
       gradientTransform="rotate(10.60334,16.901166,150.46892)" /><linearGradient
       id="linearGradient1258"
       x1="95.059"
       x2="97.238"
       y1="180.828"
       y2="171.865"
       gradientUnits="userSpaceOnUse"
       xlink:href="#innoGrad1"
       gradientTransform="rotate(10.60334,15.342916,149.17532)" /><linearGradient
       id="linearGradient1268"
       x1="74.777"
       x2="84.057"
       y1="178.395"
       y2="161.866"
       gradientUnits="userSpaceOnUse"
       xlink:href="#innoGrad1"
       gradientTransform="rotate(10.60334,16.901166,150.46892)" /><linearGradient
       id="linearGradient1276"
       x1="111.104"
       x2="128.163"
       y1="195.896"
       y2="184.582"
       gradientTransform="rotate(-2.382,803.83923,890.65137)"
       gradientUnits="userSpaceOnUse"
       xlink:href="#innoGrad1" /><linearGradient
       id="linearGradient1097"
       x1="445.73416"
       x2="498.57761"
       y1="105.57626"
       y2="138.73944"
       gradientTransform="matrix(0.28316604,0.07562059,0.07562059,-0.28316604,-38.182428,200.88649)"
       gradientUnits="userSpaceOnUse"
       xlink:href="#innoGrad1" /><linearGradient
       inkscape:collect="always"
       xlink:href="#innoGrad4"
       id="linearGradient5934"
       x1="48.465027"
       y1="184.77197"
       x2="136.69789"
       y2="43.767437"
       gradientUnits="userSpaceOnUse" /><linearGradient
       inkscape:collect="always"
       xlink:href="#linearGradient7671"
       id="linearGradient7664"
       gradientUnits="userSpaceOnUse"
       x1="48.465027"
       y1="184.77197"
       x2="136.69789"
       y2="43.767437" /></defs><path
     style="fill:url(#linearGradient5934);stroke:#000000;stroke-width:0.5;stroke-linecap:square;stroke-linejoin:round;stroke-dasharray:none;stop-color:#000000;fill-opacity:1"
     d="m 132.00798,190.52473 c 0,0 2.6403,-12.90073 -1.46295,-20.00777 C 91.704185,128.00708 89.0959,89.161403 129.99517,52.400333 143.92205,39.882578 155.17151,34.40426 155.17151,34.40426 151.6006,32.684342 148.10227,33.590113 143.65102,33.769103 l 10.21542,-2.964059 c 2.26407,-2.302119 4.45001,-3.677369 3.54628,-8.5746 -8.02679,-3.17382 -16.99093,-4.612005 -26.78239,-4.657807 -7.07874,-0.03311 -41.373011,6.963202 -55.77653,20.303386 -14.094848,13.054302 -33.514136,39.41244 -34.627281,44.694199 -1.213356,5.757252 -0.872834,15.109891 -0.846875,15.032015 -1.188135,-3.623899 -2.524899,-5.910144 -3.911473,-7.748092 0,0 -4.210887,27.816215 -0.399954,51.986615 2.961809,18.78493 10.027827,27.74577 10.027827,27.74577 l -9.315614,-2.11718 c 0,0 20.93004,38.19263 42.131985,46.15464 28.165495,10.57705 46.366355,-0.63516 46.366355,-0.63516 z"
     id="path4324"
     sodipodi:nodetypes="ccsccccsssccsccscc" /><path
     id="path4324-0"
     style="fill:url(#linearGradient7664);stroke-width:0.5;stroke-linecap:square;stroke-linejoin:round;stop-color:#000000;stroke-dasharray:none"
     d="m 130.62891,17.923828 c -1.71036,-0.008 -5.18385,0.419878 -9.60743,1.277344 -4.42357,0.857466 -9.81289,2.143169 -15.42968,3.845703 -11.233586,3.405067 -23.377923,8.491596 -30.500003,15.087891 -7.019899,6.501657 -15.393841,16.347237 -22.140625,25.216796 -3.373392,4.43478 -6.341138,8.626659 -8.53125,12.033204 -2.190113,3.406544 -3.601733,6.081662 -3.84961,7.257812 -0.597378,2.834502 -0.817593,6.601533 -0.880859,9.638672 -0.03163,1.51857 -0.02429,2.856835 -0.0078,3.808594 0.0082,0.475879 0.01804,0.854674 0.02734,1.111328 0.0047,0.128327 0.01027,0.227304 0.01367,0.289062 0.0017,0.03088 0.0032,0.05275 0.0039,0.06055 3.42e-4,0.0039 8.75e-4,0.0073 -0.002,-0.0098 -7.07e-4,-0.0043 -0.0014,-0.01079 -0.0039,-0.02148 -0.0025,-0.01069 -0.0216,-0.06277 -0.02148,-0.0625 1.2e-4,2.68e-4 -0.375111,-0.203108 -0.375,-0.203125 1.11e-4,-1.7e-5 -0.279399,0.236633 -0.279297,0.236328 v 0.220704 c -1.027994,-3.135457 -2.169172,-5.153141 -3.34961,-6.84375 -0.375766,2.607918 -3.884178,28.054419 -0.279296,50.917969 2.951077,18.71686 9.957031,27.58203 9.957031,27.58203 0.20862,0.26118 -0.03003,0.63882 -0.355469,0.5625 L 36.5,167.99414 c 0.5548,1.00056 5.261112,9.43525 12.677734,19.35547 7.866175,10.52152 18.394189,22.01408 28.857422,25.94336 14.021056,5.26536 25.541934,5.10364 33.558594,3.63281 6.00921,-1.10252 10.03332,-2.93168 11.67187,-3.7793 0,0 9.15842,-4.37026 3.25183,-5.07425 -5.34635,-0.63722 -25.48411,-3.40274 -33.837304,-8.105 -7.359957,-4.14314 -19.975919,-14.64534 -26.45504,-32.64116 0,0 -0.853614,4.99454 0.0392,13.18666 -5.783769,-6.14579 -10.996975,-20.99489 -14.854914,-35.05682 -7.953091,-28.98848 -4.04099,-50.960605 6.830637,-65.015169 -2.489228,0.344909 -4.827515,0.732396 -7.53149,3.753694 C 56.127634,70.385639 66.838601,58.891781 76.885549,49.449411 89.562336,37.535454 99.150752,37.085759 99.150752,37.085759 97.81715,35.866055 96.00216,36.091588 93.770192,36.281542 101.71463,32.57553 114.111,29.438487 120.95359,27.847456 c -2.21191,-1.03405 -4.57818,-0.787296 -8.8641,-0.651985 4.01027,-1.857388 28.36092,-2.603853 30.90778,-1.670269 -0.90909,-1.665759 -2.35466,-2.653261 -4.2225,-3.020012 2.65562,-2.781993 14.13937,-1.164487 18.31507,-0.01691 -7.92861,-3.101961 -16.78066,-4.519171 -26.46093,-4.564453 z"
     sodipodi:nodetypes="ssssssssccsssssscccscccssscssccsccscccccccss" /><path
     fill="#ffaaaa"
     d="m 69.704751,141.7754 c -0.333405,-1.1289 -0.684793,-4.99811 -1.020689,-6.23703 -1.064585,-3.92865 -3.558248,-12.86271 -4.783786,-22.23076 -0.683523,-5.21286 -0.944116,-10.23808 -0.651954,-14.948784 0.390881,-6.273964 1.693613,-10.71478 2.958882,-13.693073 -1.270091,2.986056 -2.693063,7.346353 -3.28519,13.678438 -0.443415,4.745969 -0.349527,9.833339 0.171217,15.142639 0.938177,9.55919 3.17977,18.65642 4.258638,22.6355 0.337015,1.24873 2.019559,4.52418 2.352963,5.65308 z"
     id="path1325"
     style="stroke-width:0.5;stroke-dasharray:none" /><path
     fill="#ff5555"
     d="m 106.17811,203.88143 c -0.97693,0.0365 -3.71364,-0.67655 -4.63158,-0.80695 -1.875529,-0.26593 -4.344687,-0.79019 -7.23279,-1.96888 -3.444253,-1.40393 -6.97002,-3.5283 -10.514586,-6.48951 -3.879644,-3.24234 -7.207755,-7.00999 -9.911079,-10.61362 a 85.540484,98.133326 43.282624 0 1 -5.60619,-8.62499 c 1.06325,1.92303 2.895948,5.15799 5.438044,8.75909 2.603461,3.69153 5.824575,7.58921 9.632286,10.98622 3.477382,3.10191 6.991684,5.38242 10.476565,6.91213 2.925256,1.28388 5.46867,1.87904 7.41624,2.155 0.95405,0.13452 3.95616,-0.27196 4.93401,-0.30848 z"
     id="path1327"
     style="stroke-width:0.5;stroke-dasharray:none" /><path
     fill="#ffaaaa"
     d="m 76.008695,89.603888 c -0.152555,-1.16918 0.313913,-4.729474 0.409423,-5.935108 a 42.455446,39.777963 25.566851 0 1 1.133366,-6.639437 c 0.999277,-3.821399 2.719313,-8.123469 5.390949,-12.475515 2.493921,-4.063335 5.49587,-7.637402 8.731497,-10.504284 4.297086,-3.807911 8.215693,-5.682046 10.94252,-6.597253 -2.72973,0.91617 -6.686682,2.688649 -11.11854,6.411116 -3.333548,2.798931 -6.463591,6.315982 -9.100514,10.356324 -2.82188,4.323436 -4.69282,8.649529 -5.797926,12.526626 -0.786928,2.762075 -1.124498,5.073314 -1.259831,6.791557 -0.05257,0.6605 0.01254,1.839652 0.177887,3.092412 0.121761,0.922992 0.370438,2.051024 0.491453,2.974252 z"
     id="path1329"
     style="stroke-width:0.5;stroke-dasharray:none" /><path
     fill="#ff5555"
     d="m 59.894676,159.88358 c -0.669862,-1.67474 -1.926351,-7.10138 -2.635458,-8.91781 -1.618233,-4.13777 -5.674583,-14.08011 -7.813397,-23.37882 -1.30997,-5.69564 -1.940582,-11.11853 -1.599459,-16.13988 0.453968,-6.66879 2.539661,-11.21498 4.613611,-14.219956 -2.075685,3.008176 -4.333271,7.442236 -5.060633,14.126566 -0.546994,5.03055 -0.14065,10.49203 0.961829,16.26512 1.812687,9.4937 5.532457,19.4407 7.182585,23.66148 0.712754,1.82354 3.68106,6.92856 4.351363,8.6025 z"
     id="path1331"
     style="stroke-width:0.5;stroke-dasharray:none" /><path
     fill="#ffaaaa"
     d="m 98.377414,182.37216 c 1.614986,1.48823 6.197246,6.31656 7.954276,7.63802 3.31708,2.49069 8.42874,5.80577 15.20414,9.48408 6.4085,3.47736 12.64963,6.38888 15.9446,8.03089 -3.22822,-1.60715 -9.43593,-4.95391 -15.56197,-8.73867 -6.82252,-4.21545 -11.13217,-7.43525 -14.66423,-10.08776 -1.73465,-1.30337 -7.261848,-4.83831 -8.876816,-6.32656 z"
     id="path1337"
     style="stroke-width:0.5;stroke-dasharray:none" /><path
     fill="#ff5555"
     d="m 63.343537,80.295395 c 0.146559,-1.754212 1.043852,-4.676008 2.608726,-8.335731 0.576174,-1.347248 1.134657,-2.553473 1.462393,-3.327411 0.628354,-1.484381 1.515776,-3.592213 2.818508,-6.277023 1.521728,-3.134802 3.263983,-6.333703 5.092536,-9.237467 2.264441,-3.595265 4.028724,-5.731765 5.108846,-6.790257 -1.120576,1.097514 -2.924204,2.94648 -5.454486,6.438917 -2.005445,2.766405 -3.966868,5.88752 -5.672871,8.981358 -1.44352,2.616106 -2.490827,4.82566 -3.123628,6.321533 -0.342001,0.809456 -0.805419,2.094327 -1.242018,3.552821 -1.274565,4.257077 -1.430634,6.671246 -1.598025,8.673254 z"
     id="path1339"
     sodipodi:nodetypes="csccccccccc"
     style="stroke-width:0.5;stroke-dasharray:none" /><path
     fill="#ffaaaa"
     d="m 69.314722,156.2882 c 0.546788,1.69909 1.44822,5.15849 2.584767,8.55372 1.202791,3.58317 2.462626,6.52573 3.450762,8.28367 1.041194,1.84987 3.161489,4.92133 6.043719,8.05873 3.07736,3.35026 5.747206,5.45623 7.773272,7.10203 -1.888469,-1.53294 -4.452703,-4.13139 -6.928337,-7.54992 -2.494027,-3.44441 -4.000019,-6.41316 -5.08879,-8.34821 -1.216503,-2.16166 -2.419211,-4.01259 -4.32299,-7.8578 -1.623007,-3.27879 -2.946115,-6.48182 -3.512403,-8.24222 z"
     id="path1341"
     style="stroke-width:0.5;stroke-dasharray:none" /><path
     fill="#ff5555"
     d="m 88.416296,123.7077 c -1.306603,-2.13861 -2.963727,-5.73228 -4.051399,-10.67136 -1.089433,-4.94931 -1.191581,-9.24308 -1.204325,-12.11674 l -0.0024,-0.21071 c -0.01262,-2.75335 0.0093,-6.990659 0.991984,-12.042439 0.977047,-5.019242 2.525196,-8.758318 3.743486,-10.970131 -1.250815,2.272537 -3.020807,5.711762 -4.369484,10.775858 -1.315407,4.941362 -1.666738,9.420544 -1.653671,12.175292 l 0.0024,0.21532 c 0.03401,2.8965 0.464253,7.42866 1.884072,12.31936 1.453794,5.00545 3.325823,8.34106 4.65931,10.52554 z"
     id="path1343"
     style="stroke-width:0.5;stroke-dasharray:none" /><path
     fill="#ffd5d5"
     d="m 98.791792,39.830104 c 0.87369,-1.511346 2.890838,-3.506989 5.770628,-5.200404 2.00416,-1.178974 3.83428,-1.895333 4.91136,-2.381599 0.56966,-0.257308 1.27606,-0.585393 2.19028,-0.971672 2.39346,-1.009824 5.1673,-1.964424 8.76598,-2.894347 3.30421,-0.853765 6.67203,-1.514366 8.43343,-1.783131 -4.93028,0.753649 -12.02925,1.350576 -18.55077,3.522671 a 8.8811247,17.56012 82.438368 0 0 -2.59602,0.994043 c -1.20376,0.543687 -2.99643,1.603539 -4.62207,3.040404 -2.45947,2.176119 -3.383228,4.082147 -4.302818,5.674035 z"
     id="path1345"
     style="stroke-width:0.5;stroke-dasharray:none" /><path
     fill="#ffd5d5"
     d="m 98.674953,74.806992 c 0.50222,-1.815405 1.516777,-4.627307 3.059287,-7.582426 1.57976,-3.026586 3.09184,-5.058368 4.12111,-6.459537 0.17549,-0.239958 0.38412,-0.524527 0.61925,-0.838817 1.35147,-1.803233 3.15345,-3.984312 5.66524,-6.168347 2.46801,-2.144712 4.85059,-3.604553 6.42804,-4.394162 -1.61947,0.810388 -3.98339,2.003292 -6.65279,3.986861 -2.65739,1.975442 -4.70641,4.074639 -6.15573,5.87058 -0.25396,0.315808 -0.47534,0.604459 -0.65836,0.854262 -1.02448,1.394651 -2.47945,3.791325 -3.81229,6.921243 -1.365817,3.204032 -2.090037,5.916627 -2.612867,7.810311 z"
     id="path1349"
     style="stroke-width:0.5;stroke-dasharray:none" /><path
     fill="#ff5555"
     d="m 100.12673,139.70757 c 0.78563,2.3447 1.56365,4.73659 3.37719,8.6558 1.48476,3.20927 3.39895,6.79121 4.23832,8.21811 0.83882,1.42803 1.79479,2.97301 2.63468,4.40145 1.77941,3.02526 3.70436,6.55512 5.0448,10.47743 1.66329,4.86619 1.96505,9.05102 1.7679,12.2288 0.19922,-3.22177 0.17258,-7.34649 -1.19999,-12.46283 -1.09527,-4.08545 -2.79117,-7.82364 -4.41817,-10.9888 -0.93771,-1.82292 -1.88594,-3.51289 -2.48816,-4.53623 -0.93258,-1.58657 -3.00611,-4.61639 -4.89451,-7.75327 -2.04507,-3.39739 -3.36885,-6.17192 -4.06206,-8.24046 z"
     id="path1351"
     style="stroke-width:0.5;stroke-dasharray:none" /><path
     fill="#ffd5d5"
     d="m 80.752786,129.11958 c 0.985649,1.33726 2.312408,3.71761 3.657756,6.71988 1.273113,2.84324 2.367432,5.82145 2.995134,7.25023 0.383584,0.87331 1.343207,2.97382 2.101736,4.65152 1.331835,2.94794 3.193765,7.13944 4.768181,10.4534 1.907599,4.01404 2.982127,5.95822 4.167607,8.19177 -1.00057,-1.88664 -2.235828,-4.71645 -3.683492,-8.58126 -1.37535,-3.67111 -2.765143,-7.78414 -3.96978,-11.06736 -0.758755,-2.06743 -1.399078,-3.6956 -1.912877,-4.86457 -0.656278,-1.49194 -2.096217,-4.1329 -3.764303,-6.7116 -1.974258,-3.04842 -3.122734,-4.36457 -4.360351,-6.04144 z"
     id="path1357"
     style="stroke-width:0.5;stroke-dasharray:none" /><path
     fill="#ffaaaa"
     d="m 96.312611,122.31714 c -0.110163,-0.70132 -0.456749,-3.98785 -0.677464,-5.9153 -0.242239,-2.11283 -0.579402,-5.04056 -0.737007,-5.9356 -0.174276,-0.9764 -0.535423,-2.77989 -0.787481,-4.58541 -0.402015,-2.85734 -0.584991,-5.975363 -0.09689,-9.327563 0.492071,-3.36809 1.557304,-6.16115 2.551746,-8.13397 -1.011182,2.00696 -2.263492,4.73637 -3.075736,8.23029 -0.800124,3.444603 -0.949815,6.703353 -0.796379,9.682453 a 60.798762,101.31088 65.040087 0 0 0.515367,4.73189 c 0.414785,2.34444 2.739536,8.94343 3.104414,11.2524 z"
     id="path1365"
     style="stroke-width:0.5;stroke-dasharray:none" /><g
     id="g3698"
     transform="matrix(1.2725159,-0.65838339,0.65838339,1.2725159,-89.799804,20.764593)"
     style="stroke-width:0.34897984;stroke-dasharray:none"><path
       fill="url(#linearGradient1268)"
       fill-rule="evenodd"
       stroke="#000000"
       stroke-width="0.547"
       d="m 70.032571,194.20372 c -0.91275,-0.61145 -1.88503,-1.63363 -2.65407,-2.54603 -1.74849,-8.97559 16.16204,-25.13508 24.34111,-23.15268 0.65172,0.59516 1.53588,1.42134 2.3816,2.41499 z"
       id="path1371"
       style="fill:url(#linearGradient1268);stroke-width:0.34897984;stroke-dasharray:none"
       sodipodi:nodetypes="ccccc" /><path
       fill="url(#linearGradient1250)"
       fill-rule="evenodd"
       stroke="#000000"
       stroke-width="0.547"
       d="m 71.328881,194.6923 c 6.69589,1.45026 18.14051,-8.59066 21.71572,-16.30859 2.98052,-6.43239 2.23221,-9.55439 -4.43461,-7.83173 -7.17878,1.67109 -15.41177,10.48106 -17.70816,14.89487 -1.99923,3.84275 -3.0352,8.57151 0.42687,9.24644 z"
       id="path1373"
       style="fill:url(#linearGradient1250);stroke-width:0.34897984;stroke-dasharray:none"
       sodipodi:nodetypes="cccscc" /><path
       fill="url(#linearGradient1258)"
       fill-rule="evenodd"
       stroke="#000000"
       stroke-width="0.547"
       d="m 82.300341,189.11805 13.36205,14.04429 7.725969,-6.10866 -14.644529,-14.37721"
       id="path1375"
       style="fill:url(#linearGradient1258);stroke-width:0.34897984;stroke-dasharray:none"
       sodipodi:nodetypes="cccc" /><path
       d="m 88.913241,182.84756 0.19359,-0.19784 c -0.46776,-0.45785 -0.97027,-1.03419 -1.22518,-1.85715 -0.0886,-0.28111 -0.13662,-0.57341 -0.14271,-0.86808 -0.005,-0.33669 0.0546,-0.57985 0.11087,-0.71176 -0.0545,0.12818 -0.15894,0.3599 -0.22002,0.70251 -0.0458,0.26103 -0.0645,0.57801 -0.0193,0.93441 0.11482,0.91373 0.59635,1.69467 1.10893,2.19555 z"
       id="path1389"
       sodipodi:nodetypes="ccccccccc"
       style="stroke-width:0.34897984;stroke-dasharray:none" /><path
       d="m 82.461541,189.29926 -0.19783,0.19359 c -0.45786,-0.46776 -1.0342,-0.97027 -1.85715,-1.22518 -0.28111,-0.0886 -0.57342,-0.13662 -0.86809,-0.14271 -0.33669,-0.005 -0.57985,0.0546 -0.71175,0.11087 0.12817,-0.0545 0.35989,-0.15894 0.70251,-0.22003 0.26103,-0.0458 0.578,-0.0645 0.9344,-0.0193 0.91373,0.11483 1.69468,0.59636 2.19555,1.10894 z"
       id="path1389-1"
       sodipodi:nodetypes="ccccccccc"
       style="stroke-width:0.34897984;stroke-dasharray:none" /><path
       fill="url(#linearGradient1097)"
       fill-rule="evenodd"
       stroke="#000000"
       d="m 90.389241,190.66546 c 6.54974,-6.54974 15.366329,-5.03325 19.535619,-2.25259 9.77775,6.52118 17.55461,29.38442 12.27621,34.66281 -5.2784,5.27841 -27.922999,-2.8536 -34.393069,-12.13238 -4.05615,-5.81701 -3.9685,-13.7281 2.58124,-20.27784 z"
       id="path2512"
       style="fill:url(#linearGradient1097);fill-opacity:1;stroke-width:0.34897984;stroke-dasharray:none"
       sodipodi:nodetypes="zszsz" /><path
       fill="#fff6d5"
       d="m 98.763171,191.02545 c 0.58992,-0.58991 2.072079,0.42555 3.232779,1.23597 0.67721,0.47472 1.24583,0.98607 1.61729,1.20823 0.36791,0.21944 0.80733,0.49704 1.30992,0.85564 1.73279,1.23799 3.78717,3.15475 6.10441,6.22151 1.95395,2.58367 3.70717,5.47871 5.15917,8.23292 1.84604,3.50249 2.98753,6.35016 3.44866,7.76721 -0.46396,-1.42368 -1.34409,-4.34146 -2.88414,-8.03287 -1.20656,-2.89139 -2.7089,-5.99076 -4.47218,-8.82664 -2.07567,-3.34099 -4.10762,-5.66557 -5.98079,-7.16994 -0.47262,-0.38296 -0.97103,-0.73293 -1.49174,-1.04738 -0.45485,-0.27133 -1.31279,-0.54691 -2.28003,-0.66796 -1.87889,-0.23474 -4.476429,0.9364 -3.763359,0.22333 z m -10.86943,-7.36765 c 0.42501,0.4151 1.72303,2.11618 2.34094,2.71206 l 0.0651,0.0608 c 0.55339,0.50036 2.3824,1.65362 2.79011,2.0789 -0.40773,-0.42526 -1.68521,-2.18235 -2.24018,-2.68506 -0.0224,-0.0196 -0.0448,-0.0392 -0.0672,-0.0587 -0.65647,-0.55832 -2.46368,-1.69224 -2.88834,-2.10848 z"
       id="path1391"
       sodipodi:nodetypes="scccccccccccsscccccccc"
       style="stroke-width:0.34897984;stroke-dasharray:none" /></g></svg>
