<?xml version="1.0" encoding="UTF-8" standalone="no"?>
<svg
   xmlns:dc="http://purl.org/dc/elements/1.1/"
   xmlns:cc="http://creativecommons.org/ns#"
   xmlns:rdf="http://www.w3.org/1999/02/22-rdf-syntax-ns#"
   xmlns:svg="http://www.w3.org/2000/svg"
   xmlns="http://www.w3.org/2000/svg"
   xmlns:sodipodi="http://sodipodi.sourceforge.net/DTD/sodipodi-0.dtd"
   xmlns:inkscape="http://www.inkscape.org/namespaces/inkscape"
   cursor="default"
   viewBox="0 0 256 256"
   version="1.1"
   id="svg50"
   sodipodi:docname="Acannon.svg"
   inkscape:version="1.0.2-2 (e86c870879, 2021-01-15)">
  <metadata
     id="metadata56">
    <rdf:RDF>
      <cc:Work
         rdf:about="">
        <dc:format>image/svg+xml</dc:format>
        <dc:type
           rdf:resource="http://purl.org/dc/dcmitype/StillImage" />
      </cc:Work>
    </rdf:RDF>
  </metadata>
  <defs
     id="defs54" />
  <sodipodi:namedview
     pagecolor="#ffffff"
     bordercolor="#666666"
     borderopacity="1"
     objecttolerance="10"
     gridtolerance="10"
     guidetolerance="10"
     inkscape:pageopacity="0"
     inkscape:pageshadow="2"
     inkscape:window-width="1920"
     inkscape:window-height="1017"
     id="namedview52"
     showgrid="false"
     inkscape:zoom="4.1033633"
     inkscape:cx="35.623606"
     inkscape:cy="208.65859"
     inkscape:window-x="-8"
     inkscape:window-y="-8"
     inkscape:window-maximized="1"
     inkscape:current-layer="svg50"
     inkscape:document-rotation="0" />
  <path
     style="fill:#000000;stroke-width:0.215428"
     d="m 5.9363557,228.55863 c -1.4467006,-1.6917 -1.5159115,-1.8155 -1.4390455,-2.56998 0.063654,-0.62427 0.2586373,-0.96164 0.9183438,-1.58829 0.7834429,-0.74417 0.8262938,-0.84993 0.6620824,-1.63507 -0.1732671,-0.82869 0.012735,-1.37089 0.6951961,-2.02714 0.3229445,-0.31123 0.2828942,-0.40599 -0.5407943,-1.27313 l -0.8901927,-0.93717 16.0880405,-15.28181 16.088042,-15.2818 -3.486627,-3.67057 -3.486611,-3.67058 8.327717,-7.91037 c 5.340317,-5.07269 8.599984,-8.2851 9.086606,-8.95496 0.923863,-1.27166 1.451432,-2.69283 1.988193,-5.35595 0.516948,-2.56493 0.523977,-4.04687 0.02672,-5.62992 -0.579526,-1.84486 -2.87929,-5.57394 -6.072967,-9.84732 -2.657499,-3.55599 -3.572416,-5.04461 -3.630262,-5.90681 -0.02037,-0.30325 1.595905,-1.91296 8.615434,-8.58071 4.752246,-4.51409 8.723069,-8.18564 8.824006,-8.15895 0.100948,0.0268 0.933275,0.67342 1.849612,1.43718 3.664009,3.054 5.290903,3.87285 7.815097,3.93341 l 1.762761,0.0417 -3.54142,-3.81202 -3.54142,-3.812 0.335679,-7.45462 0.335679,-7.45461 1.073502,-1.14426 c 1.857361,-1.98002 20.461943,-19.676823 20.568352,-19.564793 0.05581,0.05871 0.96855,2.708774 2.02841,5.889057 l 1.927019,5.782303 3.814482,4.015739 3.814467,4.015714 8.044023,-7.640904 c 4.42421,-4.202513 8.08321,-7.599679 8.13094,-7.54942 0.0478,0.05041 0.28607,1.990302 0.52943,4.310997 0.48947,4.66762 0.71308,5.234957 1.73839,4.410714 l 0.63179,-0.50788 2.09084,2.114021 2.09083,2.114001 0.82621,-0.873728 0.82622,-0.873717 -0.99994,-1.801759 c -0.54995,-0.990965 -1.126,-2.181988 -1.28008,-2.646714 l -0.28014,-0.844955 2.65832,-2.673735 c 2.57159,-2.586455 2.6955,-2.685644 3.79496,-3.041148 l 1.13658,-0.367526 37.16334,-35.518416 37.16332,-35.5184 2.42636,2.325895 2.42636,2.325894 1.07685,-1.022889 1.07691,-1.022936 1.55355,1.635503 1.55354,1.635505 2.11097,-1.922284 2.11097,-1.922285 2.37388,2.499121 2.37388,2.499121 -2.10863,2.002951 -2.10862,2.00295 0.73172,0.864864 0.73172,0.864879 -0.90735,0.861861 c -0.88362,0.839332 -0.89537,0.870569 -0.46178,1.181464 0.40154,0.287996 0.51962,0.24923 1.1952,-0.392504 0.68798,-0.653496 0.74149,-0.80216 0.65099,-1.806877 l -0.0987,-1.094818 11.4366,-10.863456 11.4366,-10.8634655 1.17529,-0.2315582 1.17527,-0.2315604 5.18523,5.4587921 5.18523,5.458794 -0.40154,1.338667 -0.40153,1.338686 -2.53941,2.222756 -2.53938,2.222758 0.0314,13.924284 0.0314,13.924288 -5.27768,5.097207 c -2.90272,2.803466 -23.3857,22.332757 -45.51777,43.398444 -22.13204,21.065678 -40.26543,38.397498 -40.29642,38.515168 -0.0309,0.11764 0.26355,0.55069 0.65451,0.96229 l 0.71087,0.74837 -1.33335,1.45957 c -0.73334,0.80278 -2.30658,2.38404 -3.49608,3.51393 l -2.16273,2.05435 -0.74184,-0.78097 -0.74183,-0.78098 -4.51975,4.29324 -4.51975,4.29325 0.43325,0.55412 0.43326,0.55412 -3.20094,3.12083 -3.20095,3.12086 -5.61207,-5.89173 c -3.0868,-3.24028 -7.08487,-7.45647 -8.88554,-9.3684 l -3.27301,-3.47714 -1.19784,1.022 c -0.65881,0.56208 -2.32069,2.05684 -3.69312,3.32169 l -2.49524,2.29973 4.5862,4.86734 c 2.52264,2.67684 4.63541,4.95431 4.69556,5.06059 0.0602,0.10634 1.046,1.1969 2.19072,2.4236 l 2.08136,2.23033 -8.10042,7.48807 c -4.4552,4.11842 -8.16233,7.48644 -8.23801,7.48449 -0.0756,-0.002 -1.00702,-0.85087 -2.06953,-1.88658 l -1.93196,-1.88303 -9.9701,9.47045 -9.97007,9.47043 1.550669,1.72115 1.550667,1.72116 -1.070258,1.1032 -1.070243,1.10319 0.475059,0.69274 c 0.330677,0.48207 0.447722,0.99412 0.385051,1.68407 l -0.09008,0.99134 1.633729,1.8086 c 1.176729,1.30262 1.584313,1.8659 1.457043,2.01353 -0.09724,0.11282 -0.273768,0.31391 -0.39244,0.44704 -0.157444,0.17675 -0.03353,0.43384 0.459281,0.95272 0.866169,0.91186 1.127447,1.80542 1.103501,3.77401 l -0.0193,1.5869 -12.809681,12.00956 c -7.045343,6.60525 -16.675444,15.61133 -21.400255,20.01347 l -8.59056,8.00395 -1.345525,0.23668 c -1.502897,0.26438 -2.426173,0.0885 -3.95728,-0.75373 -0.979033,-0.53857 -1.070325,-0.54322 -1.558123,-0.0799 l -0.518161,0.49219 -3.189885,-3.35817 -3.189902,-3.3582 -0.613658,0.58292 c -0.482194,0.45802 -0.840186,0.58371 -1.671166,0.58667 l -1.057507,0.004 -4.378565,-4.60958 -4.378581,-4.60956 -0.995296,0.81727 c -1.752844,1.43932 -1.465203,1.60663 -6.541257,-3.8039 -2.399312,-2.55732 -5.0462625,-5.44949 -5.8821397,-6.42706 z m 11.1898073,10.55112 c 0.342634,-0.13165 0.910396,-0.55452 1.261684,-0.93957 l 0.638726,-0.70008 -3.151116,-3.39502 c -1.73312,-1.86725 -4.552245,-4.9055 -6.2647037,-6.75169 l -3.1137197,-3.3566 -0.7956561,0.7561 c -1.232903,1.1717 -1.1442109,1.54241 0.947504,3.95833 0.9433056,1.0895 3.5464065,3.93552 5.7846765,6.32448 l 4.069665,4.34349 0.622956,-0.23947 z m 11.896164,7.72534 c 0.733838,-0.007 1.388074,-0.31111 1.745721,-0.81117 0.223478,-0.31246 -0.264149,-0.85363 -11.437218,-12.69286 -6.844154,-7.25216 -11.7849428,-12.36939 -11.946944,-12.3736 -0.5493566,-0.0142 -1.0534889,1.10589 -0.847479,1.88309 0.2084287,0.78652 0.4477407,1.05107 17.903081,19.79381 3.901727,4.18946 3.920929,4.20709 4.582855,4.20071 z M 62.100445,229.0405 c 13.324245,-12.71092 24.228098,-23.19547 24.230725,-23.29902 0.0026,-0.10357 -7.070304,-7.72513 -15.717661,-16.93682 l -15.722448,-16.74855 -2.758965,2.62071 -2.758948,2.62068 9.940592,10.46502 9.940591,10.46504 -8.339557,7.92165 -8.339573,7.92163 -1.539134,-1.43498 c -0.846448,-0.78931 -5.406484,-5.41616 -10.133326,-10.28197 l -8.59416,-8.847 -3.26056,3.09717 -3.260592,3.09717 9.9106,10.35489 9.910616,10.35487 -7.651041,7.25226 c -4.208085,3.98872 -7.691229,7.25123 -7.740315,7.24997 -0.04911,-0.001 -4.556539,-4.60879 -10.016514,-10.23894 l -9.927276,-10.23661 -2.161243,2.05293 -2.1612092,2.05291 15.9617372,16.80385 15.961738,16.80386 z M 40.98664,252.32166 c 1.011159,0.39127 1.707106,0.48818 2.627893,0.366 l 1.252474,-0.1662 8.690855,-8.0782 c 4.779996,-4.44301 14.391163,-13.43121 21.358195,-19.97381 l 12.66729,-11.89558 -0.0034,-1.59628 c -0.0039,-1.79206 -0.207499,-2.43461 -1.053796,-3.32556 L 85.942337,207.03744 62.59124,229.2183 c -18.576815,17.64585 -23.313143,22.22077 -23.165523,22.37601 0.10204,0.10728 0.804526,0.43463 1.560994,0.72735 z M 17.924308,212.45851 c 2.534807,-2.44968 5.835294,-5.66122 7.334455,-7.13672 l 2.725609,-2.68282 -1.254508,-1.3207 -1.254509,-1.32069 -7.419245,7.04745 -7.419245,7.04742 1.339315,1.40997 1.339315,1.40999 z m 5.011321,1.20926 c 3.660186,-3.50148 6.95734,-6.71651 7.327111,-7.14441 l 0.672272,-0.77807 -1.343874,-1.41478 -1.343873,-1.41477 -2.973212,3.01986 c -1.635259,1.66095 -4.929961,4.87858 -7.321548,7.1503 l -4.348335,4.13041 1.338278,1.40889 1.338277,1.40888 z m 2.107888,3.62671 c 3.2687,-3.13943 6.567851,-6.35235 7.331217,-7.14008 l 1.388049,-1.43215 -1.176385,-1.23847 -1.176416,-1.23847 -7.419262,7.04743 -7.419228,7.04744 1.264384,1.33109 1.264382,1.33108 z m 2.104066,3.93548 c 2.793423,-2.69353 6.128829,-5.93867 7.412005,-7.21144 l 2.333024,-2.31412 -1.253675,-1.31982 -1.253691,-1.31983 -7.497331,7.12162 -7.497346,7.12161 1.339017,1.40965 1.339015,1.40968 z m 5.456367,0.81761 7.419245,-7.04744 -1.432847,-1.50843 -1.432831,-1.50843 -2.597291,2.66154 c -1.428493,1.46384 -4.723258,4.68139 -7.321703,7.15011 l -4.724429,4.48858 1.335289,1.40576 1.335306,1.40573 z m 2.677642,2.80482 7.425794,-7.05365 -1.195412,-1.16723 -1.195415,-1.16722 -7.418745,6.96977 -7.418729,6.96976 1.188382,1.25108 1.188398,1.25109 z m 2.366839,2.5058 7.419245,-7.04744 -1.03858,-1.09337 -1.038565,-1.09334 -7.419245,7.04743 -7.419245,7.04743 1.038565,1.09337 1.03858,1.09336 z m 3.755457,-36.94531 c 3.231973,-3.17808 6.877898,-6.72975 8.101953,-7.8927 l 2.225575,-2.11445 -1.335305,-1.40575 -1.335307,-1.40575 -8.200216,7.78927 -8.200217,7.78928 1.433585,1.50921 1.433569,1.50921 z m 0.702821,5.27555 c 1.987213,-1.99392 5.633358,-5.54535 8.102519,-7.89213 l 4.489478,-4.26672 -1.359329,-1.43106 -1.359329,-1.43104 -5.315993,5.24636 c -2.923858,2.88541 -6.569673,6.4372 -8.101951,7.8927 l -2.785977,2.64637 1.358794,1.43049 1.358811,1.43049 z m -1.370422,5.78364 0.877458,0.72643 8.100358,-7.69441 8.10036,-7.69442 -1.409483,-1.48385 -1.4095,-1.48385 -3.396931,3.2273 c -1.868326,1.77499 -5.514282,5.32663 -8.102078,7.89259 l -4.705164,4.66525 0.533595,0.55943 c 0.292842,0.30827 0.928645,0.88613 1.411185,1.28574 z m 9.425957,-1.36936 c 3.052892,-2.93663 6.650694,-6.46864 7.99513,-7.84894 l 2.444452,-2.50964 -1.245327,-1.31103 -1.245328,-1.31103 -8.122113,7.71508 -8.122132,7.7151 1.372296,1.4449 1.372293,1.4449 z m 0.0019,5.31979 c 1.585171,-1.55711 5.155855,-5.08257 7.934859,-7.83434 l 5.052707,-5.00319 -1.123703,-1.27517 -1.123687,-1.27516 -0.989687,1.122 c -0.544307,0.6171 -3.7458,3.76317 -7.114402,6.99124 -3.368636,3.22808 -6.499461,6.28417 -6.957424,6.79129 l -0.832658,0.92202 1.135954,1.1962 1.135957,1.19618 z m 6.218646,-0.96083 c 3.652969,-3.50905 7.267404,-7.0235 8.032074,-7.80989 l 1.390297,-1.42976 -1.120162,-1.17926 -1.120161,-1.17927 -6.971991,6.81448 c -3.834616,3.74796 -7.407952,7.30568 -7.940759,7.90602 l -0.968769,1.09155 1.028848,1.08311 1.028831,1.08314 z m -4.680879,8.13596 0.855458,0.89588 8.044013,-7.64089 8.044029,-7.64092 -1.186951,-1.24955 -1.186934,-1.24956 -8.140323,7.7324 -8.140354,7.73238 0.428016,0.26199 c 0.235373,0.14413 0.812852,0.66522 1.283229,1.15807 z m -5.20613,-33.0895 c 8.393552,-7.89716 8.515887,-8.00401 8.808662,-7.69615 0.286081,0.30116 0.397497,0.216 3.098971,-2.36836 11.082774,-10.60224 29.850375,-28.63238 32.818839,-31.52915 l 3.585013,-3.49849 -7.746945,-8.15566 -7.74693,-8.15564 -3.712939,3.52019 c -3.112873,2.95241 -3.860484,3.58011 -4.628735,3.88897 -1.382741,0.55583 -3.098777,0.76004 -4.591163,0.54639 -2.153109,-0.30825 -3.197697,-0.91363 -7.757677,-4.4959 l -0.941658,-0.73974 -8.507243,8.00403 -8.507241,8.00402 0.188123,0.64098 c 0.256822,0.87511 1.139434,2.22756 3.38256,5.18331 5.156251,6.79431 6.712372,9.95107 6.500051,13.18605 -0.142541,2.17276 -0.798793,5.07767 -1.520011,6.72896 l -0.566396,1.29685 -8.663795,8.31786 -8.663795,8.31785 3.330033,3.50572 3.330035,3.5057 8.511752,-8.0083 z m 36.815712,22.00578 c 0.181194,-0.17209 0.134568,-1.0113 -0.0862,-1.55234 -0.09605,-0.23558 -5.127588,-5.61794 -11.18088,-11.96105 l -11.006234,-11.5327 -0.620961,0.0363 -0.62096,0.0363 9.471224,10.12739 c 5.209143,5.57006 10.469,11.21861 11.688427,12.55245 1.222439,1.33715 2.279235,2.36617 2.355496,2.29372 z M 60.234315,176.06314 c 0.824558,-0.0896 1.02423,-0.0165 1.592777,0.58201 l 0.650052,0.68435 1.17145,-1.11275 1.171467,-1.11276 1.762179,1.85515 1.762181,1.85516 8.6788,-8.21489 c 9.599476,-9.08632 9.279254,-8.83853 11.189854,-8.66495 2.374921,0.21563 3.305809,0.95747 11.069515,8.82112 3.62366,3.67032 6.6388,6.67194 6.70031,6.67023 0.0614,-0.001 3.61905,-3.23846 7.9057,-7.19274 l 7.79391,-7.18965 -3.64049,-3.92454 c -2.00223,-2.15851 -7.98877,-8.53972 -13.3034,-14.18048 l -9.663001,-10.25584 -3.61641,3.62992 c -1.989088,1.99639 -9.083585,8.85366 -15.765629,15.2383 -6.68206,6.38464 -13.868169,13.28259 -15.969217,15.32872 l -3.82009,3.72023 1.693631,1.78299 1.693616,1.78296 0.942755,-0.10222 z m 20.277161,20.01381 2.315433,2.33178 0.840884,-0.79873 0.840867,-0.79875 -1.466873,-1.65218 c -0.806791,-0.90869 -5.237054,-5.6588 -9.845012,-10.55584 l -8.378121,-8.90365 -1.025079,0.97372 -1.025112,0.97373 7.713722,8.04913 c 4.242583,4.427 8.755674,9.09842 10.029156,10.38092 z m 2.550084,-4.42789 1.327655,-1.26112 -6.528158,-6.87257 -6.528141,-6.87256 -1.327655,1.26112 -1.327655,1.26112 6.528141,6.87257 6.528158,6.87257 z m 2.16159,-2.05325 0.521527,-0.49542 -4.149391,-4.57498 c -2.282124,-2.51628 -5.173396,-5.65301 -6.424951,-6.9706 l -2.275542,-2.3956 -0.624784,0.59346 -0.624767,0.59347 6.52814,6.87256 6.528158,6.87256 z m 1.671454,-1.58769 0.787239,-0.74781 -5.488571,-5.70588 c -3.018659,-3.13827 -6.000138,-6.18931 -6.625379,-6.7802 l -1.136807,-1.07434 -0.609645,0.5791 -0.609629,0.57908 4.370098,4.68842 c 2.403528,2.57865 5.304999,5.70569 6.447668,6.94901 l 2.07757,2.26059 z m 1.633762,-1.5519 0.546683,-0.51929 -6.528143,-6.87256 -6.528157,-6.87257 -0.546681,0.51929 -0.546668,0.51928 6.528142,6.87256 6.528158,6.87255 z m 1.48386,-1.40951 0.624767,-0.59345 -6.528141,-6.87257 -6.528158,-6.87256 -0.624768,0.59347 -0.624785,0.59346 6.528158,6.87256 6.528142,6.87257 z m 1.561943,-1.48366 0.624784,-0.59348 -6.528157,-6.87256 -6.528142,-6.87256 -0.624784,0.59349 -0.624784,0.59345 6.528158,6.87258 6.52814,6.87256 z m 1.405741,-1.3353 0.468596,-0.44509 -6.528158,-6.87257 -6.528142,-6.87256 -0.468596,0.44509 -0.46858,0.4451 6.528158,6.87256 6.528142,6.87257 z m 1.405756,-1.33531 0.624784,-0.59346 -6.528141,-6.87257 -6.528158,-6.87257 -0.624783,0.59349 -0.62477,0.59346 6.528143,6.87256 6.528157,6.87256 z m 1.483859,-1.40947 0.546683,-0.5193 -6.528158,-6.87255 -6.528142,-6.87257 -0.546683,0.51929 -0.546682,0.51928 6.528142,6.87255 6.528156,6.87259 z m 1.327654,-1.26114 0.468581,-0.4451 -6.528158,-6.87256 -6.528141,-6.87255 -0.468581,0.44509 -0.468596,0.44511 6.528157,6.87257 6.528142,6.87255 z m 1.17145,-1.11275 0.390495,-0.37092 -6.528141,-6.87257 -6.528158,-6.87256 -0.390495,0.37092 -0.390477,0.37092 6.528141,6.87257 6.528158,6.87256 z m 1.171467,-1.11274 0.468584,-0.44511 -6.300377,-6.63277 c -6.077165,-6.39778 -6.316376,-6.6285 -6.756093,-6.50749 -0.250632,0.069 -0.530603,0.19643 -0.622169,0.2834 -0.115247,0.10942 1.818354,2.24767 6.287495,6.9526 l 6.453979,6.79446 z m 1.494324,-1.47666 0.70946,-0.58253 -2.501878,-2.61745 c -3.789556,-3.96486 -7.672087,-7.58706 -8.830394,-8.23877 -0.556492,-0.31311 -1.306742,-0.60326 -1.667249,-0.64476 -0.653351,-0.0753 -0.636087,-0.0554 5.462584,6.29528 l 6.117967,6.37084 0.70945,-0.58254 z m -30.399633,-49.364 c 1.000957,-0.39848 5.402691,-4.1311 6.242608,-5.29365 l 0.453697,-0.62796 -1.557989,-1.85718 c -1.931208,-2.30211 -2.327441,-3.3306 -1.915489,-4.97195 0.156207,-0.62205 0.466788,-1.43604 0.690305,-1.80883 0.611437,-1.01976 2.948409,-3.15435 4.089836,-3.73556 1.309345,-0.6668 3.414924,-0.75819 4.363461,-0.18938 0.400572,0.24013 2.399852,2.20493 4.60349,4.52387 l 3.895514,4.09927 2.751994,-2.57686 c 1.513391,-1.41749 2.838968,-2.62605 2.945241,-2.68621 0.106337,-0.0602 0.302978,-0.19689 0.437148,-0.30382 0.161669,-0.12904 0.472482,0.0136 0.922433,0.4237 l 0.678595,0.61821 2.173709,-2.09084 c 1.19603,-1.14946 3.19954,-3.08712 4.45354,-4.30455 l 2.27984,-2.21372 -0.96438,-1.01526 -0.96439,-1.01527 2.95469,-2.806622 c 2.11038,-2.004622 3.02142,-2.771053 3.18824,-2.682232 0.20496,0.109223 -0.34636,-6.551306 -0.56099,-6.777254 -0.0459,-0.04826 -3.63298,3.283781 -7.9713,7.404672 l -7.88782,7.492536 -3.997161,-4.208035 -3.99716,-4.208036 -1.85307,-5.548076 c -1.019182,-3.051418 -1.893397,-5.590523 -1.942703,-5.642427 -0.04937,-0.0519 -4.797445,4.443372 -10.551445,9.989463 l -10.461734,10.083851 -0.304227,7.35992 -0.304225,7.35988 3.59687,3.78664 3.596872,3.78663 z m -2.74443,-19.72226 c -0.496134,-1.60351 -0.17825,-2.14233 3.253463,-5.514755 l 2.941822,-2.891111 2.097573,1.98397 c 1.153703,1.091166 2.200785,2.145646 2.327062,2.343076 0.217556,0.34047 0.07577,0.50514 -2.735839,3.17578 -2.702768,2.56732 -3.047971,2.84042 -3.899714,3.08417 -1.878055,0.53763 -3.401095,-0.29614 -3.984347,-2.18126 z m 2.305355,1.81367 c 1.452419,0.39193 2.327648,-0.0881 5.307037,-2.91074 1.436097,-1.35966 2.589779,-2.57118 2.564658,-2.69127 -0.02509,-0.12011 -0.938517,-1.06779 -2.029883,-2.105992 l -1.984266,-1.887666 -2.772981,2.739858 c -3.107051,3.07011 -3.378963,3.50978 -3.00183,4.855 0.30532,1.08908 0.92137,1.73198 1.917797,2.00021 z m 8.278418,10.91242 0.780972,-0.74184 4.435417,4.66942 4.435433,4.66943 0.734162,-0.55652 c 0.403813,-0.30603 2.026563,-1.8 3.606055,-3.31993 l 2.871912,-2.76342 -5.66984,-6.05367 c -3.118351,-3.32956 -5.997767,-6.31607 -6.398505,-6.63683 -0.87127,-0.6972 -2.305678,-0.88842 -3.694169,-0.49248 -0.755726,0.21547 -1.322641,0.5944 -2.691984,1.79921 -1.655105,1.4563 -1.760064,1.59098 -2.287727,2.93791 -0.740243,1.8894 -0.606578,2.7194 0.708388,4.3986 0.562669,0.71858 1.33038,1.64966 1.705975,2.06914 l 0.682976,0.76263 z m 33.18987,27.04264 c 1.7493,-1.64225 3.36506,-3.14356 3.59051,-3.33632 l 0.40994,-0.35045 -9.93751,-10.54226 -9.937504,-10.54223 -3.59358,3.41348 -3.593562,3.41347 9.940574,10.46504 9.940592,10.46504 z m 14.10934,0.23014 2.9677,-2.81897 -15.40952,-16.22248 -15.409497,-16.22249 -0.913602,0.68041 c -0.502541,0.37417 -1.880613,1.59784 -3.062506,2.71917 l -2.148794,2.03887 15.504359,16.32234 15.50435,16.32234 z m 11.05466,11.7161 2.88827,-2.8244 -5.33729,-5.70098 -5.33731,-5.70101 -2.96963,2.82081 -2.96967,2.82083 5.41867,5.70454 5.41867,5.70456 z m -32.87181,-45.96062 c 3.38384,-3.21425 3.96808,-3.31431 6.1205,-1.04834 l 1.27495,1.34225 0.93107,-0.23544 c 1.2099,-0.30592 1.34917,-0.45961 1.5905,-1.75508 l 0.20218,-1.08529 -2.83992,-2.98975 -2.83993,-2.98975 -1.7416,1.84194 c -0.95788,1.01306 -2.95305,2.99471 -4.43362,4.40373 l -2.692124,2.5617 1.038584,1.09336 1.03856,1.09337 z m 21.13422,21.41834 c 1.51055,-1.54606 2.67113,-2.86803 2.67586,-3.048 0.0131,-0.49836 -1.99365,-2.67058 -10.93267,-11.83424 l -8.32461,-8.53383 -0.75329,-0.0765 c -0.74986,-0.0762 -0.76483,-0.066 -3.31357,2.26075 l -2.5603,2.33727 10.27054,10.8124 10.27053,10.81238 z m 8.49265,5.40788 4.52964,-4.30264 -5.24449,-5.52117 -5.24449,-5.5212 -0.87858,0.30692 c -0.98297,0.34335 -1.39791,0.85303 -1.55109,1.90519 -0.0964,0.66201 -0.0202,0.78936 1.47004,2.45862 0.98939,1.10822 1.568,1.89868 1.5617,2.13352 -0.0146,0.54692 -1.1654,1.91391 -3.49339,4.14978 l -2.0588,1.97723 3.18989,3.35818 3.1899,3.35818 z m 10.08897,10.62124 4.52963,-4.30263 -4.89611,-5.15443 -4.89611,-5.15443 -4.52965,4.30264 -4.52964,4.30266 4.89612,5.15442 4.89611,5.15443 z m -22.06636,-26.67137 3.02197,3.18142 0.27779,-0.93473 c 0.25587,-0.86105 0.35048,-0.97427 1.20062,-1.4369 0.50756,-0.27623 0.92419,-0.5538 0.92582,-0.61685 0.002,-0.063 -2.8327,-3.06317 -6.29846,-6.66689 l -6.30144,-6.55225 -0.16091,0.90798 c -0.19544,1.10286 -0.52935,1.44601 -1.72643,1.77427 l -0.91865,0.25197 3.47883,3.45527 c 1.91337,1.90042 4.83874,4.88689 6.50083,6.63666 z m 20.10027,8.33435 3.28083,-3.11641 -14.98779,-15.69882 -14.98776,-15.698811 -0.63179,0.50788 -0.6318,0.507869 -0.80707,-0.849641 -0.80706,-0.849641 -2.6553,2.522245 -2.65532,2.522239 15.80109,16.63473 15.80108,16.63473 z m 9.90754,13.76482 c 0.88865,-0.84413 2.32117,-2.29201 3.18335,-3.21755 l 1.56761,-1.68277 -5.54122,-5.83355 -5.54121,-5.83356 -3.2801,3.11571 -3.28008,3.11571 5.63794,5.93538 5.63796,5.9354 z M 139.29186,119.078 c 0.35035,-0.44834 0.63686,-0.83595 0.63668,-0.86136 -1.8e-4,-0.0254 -4.23123,-4.55109 -9.40236,-10.05712 l -9.40204,-10.01095 -0.82116,0.780025 -0.82116,0.780015 9.5865,10.09228 9.58652,10.0923 z m 49.11774,-33.216696 43.11142,-41.025722 -2.1452,-2.344932 c -1.77436,-1.939586 -2.10542,-2.382712 -1.91507,-2.563518 0.12653,-0.120278 0.17371,-0.277968 0.10471,-0.350565 -0.29453,-0.310088 -1.32248,-0.05994 -2.06668,0.502746 -0.87728,0.663405 -0.94111,1.009515 -0.31022,1.682185 l 0.35518,0.378614 -37.79615,35.68922 -37.79615,35.689238 0.16734,0.60864 c 0.092,0.33476 0.0561,0.78242 -0.0799,0.99482 -0.13596,0.21237 -1.34997,1.39538 -2.69778,2.62886 l -2.45059,2.24271 -1.47247,-0.39546 c -0.80984,-0.21752 -1.82,-0.56945 -2.24479,-0.7821 -0.62365,-0.31219 -0.81772,-0.31231 -1.00822,-6e-4 -0.12975,0.2123 -0.46343,0.60393 -0.74152,0.87031 l -0.50563,0.48432 3.19016,3.35845 3.19015,3.35847 z m 3.23488,16.543236 C 211.7461,83.266024 232.25744,63.679529 237.22525,58.878967 l 9.03238,-8.728289 -0.0283,-13.465758 c -0.0156,-7.406181 -0.0607,-13.463759 -0.10024,-13.461304 -0.0396,0.0022 -4.17705,3.807795 -9.1945,8.4563 l -9.12266,8.451862 2.15909,2.35972 2.15909,2.359736 -43.26761,41.174091 -43.26761,41.174095 4.75058,5.0012 4.75057,5.0012 z m -50.33194,15.96245 c 0.56617,0.2935 1.60698,0.67536 2.31292,0.84853 l 1.28351,0.31488 2.34334,-2.22591 c 2.16986,-2.06111 2.31593,-2.23834 1.97287,-2.39396 -2.69864,-1.22405 -1.76232,-0.34687 -13.26792,-12.42989 l -10.6219,-11.154955 -0.71643,-1.463954 c -0.39406,-0.805186 -0.77848,-1.61343 -0.85427,-1.796133 -0.12181,-0.293658 -0.42027,-0.05435 -2.57521,2.065072 l -2.43739,2.397252 0.95342,2.065636 c 1.21523,2.632945 2.28115,3.88295 12.80854,15.020412 7.0601,7.46925 7.86305,8.26805 8.79852,8.75302 z m 6.27049,-4.79285 c 0.7465,0.42117 0.70302,0.34734 -0.89801,-1.52475 -0.92538,-1.08203 -6.3201,-6.85476 -11.98828,-12.82831 -9.53123,-10.044634 -10.27397,-10.790687 -9.88251,-9.92596 0.63763,1.408535 4.42257,5.618382 13.76058,15.30535 5.91163,6.13259 8.4443,8.65552 9.00822,8.97367 z m 2.04307,1.01058 c 0.12205,-0.0255 0.16247,-0.18968 0.0898,-0.36486 -0.0802,-0.19345 -0.22217,-0.23295 -0.36153,-0.10065 -0.25262,0.23996 -0.0783,0.53863 0.27175,0.46543 z M 124.62624,87.372939 c 0.37172,-0.370933 0.36903,-0.40047 -0.0209,-0.256494 -0.60076,0.221908 -0.7208,0.335941 -0.54666,0.519274 0.0816,0.08591 0.33697,-0.03241 0.56746,-0.262781 z m 59.37442,-12.686262 c 20.80302,-19.782562 37.82436,-35.999814 37.82535,-36.038207 0.002,-0.08819 -4.6969,-5.664964 -4.766,-5.656153 -0.0279,0.0042 -17.18464,16.205777 -38.12575,36.004963 l -38.0748,35.99844 2.58081,2.80231 c 1.41946,1.54127 2.61593,2.81464 2.65887,2.82971 0.0429,0.0157 17.09865,-16.158373 37.9016,-35.94098 z M 155.89625,107.3114 c 3.8015,-3.61075 20.89068,-19.754525 37.97599,-35.875022 l 31.06413,-29.309994 -0.52211,-0.549667 c -0.28715,-0.30231 -0.88887,-1.026569 -1.33712,-1.609457 l -0.81498,-1.05979 -30.79117,29.329982 c -16.93514,16.131493 -33.9888,32.403458 -37.89703,36.159938 l -7.10587,6.82993 1.25818,1.32455 1.25816,1.32456 6.91177,-6.56509 z M 131.11388,88.728808 c 1.67953,-1.543662 18.77944,-17.711321 37.99981,-35.928132 l 34.94598,-33.121608 -1.93059,-1.935616 -1.93059,-1.935617 -20.78337,19.938814 c -11.43086,10.966323 -28.42701,27.199633 -37.76918,36.07408 l -16.98585,16.135233 1.70002,1.789718 1.70001,1.789702 z m 20.44477,-8.349215 c 9.81699,-9.406804 21.26026,-20.40942 25.42946,-24.450284 4.16916,-4.040897 13.15715,-12.644848 19.97329,-19.119861 l 12.39292,-11.772874 -2.46503,-2.486839 -2.46501,-2.486822 -37.95363,35.976735 -37.95363,35.976734 2.5963,2.733281 2.59628,2.733268 z m -2.15832,15.870351 c 4.87582,-4.630281 22.03509,-20.841016 38.13198,-36.023598 l 29.26693,-27.604797 -0.77477,-0.872733 c -0.94421,-1.063585 -1.85207,-1.971138 -4.45828,-4.45624 l -2.00374,-1.9107 -30.45111,29.140327 c -16.74813,16.027146 -30.53749,29.260511 -30.64306,29.40745 -0.10564,0.146856 -3.40244,3.327078 -7.32645,7.066922 l -7.13456,6.799742 3.26409,3.436273 3.26407,3.4363 8.86494,-8.418894 z m 75.72031,-56.420265 c 0.6362,-0.522401 1.20058,-0.82223 1.56425,-0.831022 0.55995,-0.01354 0.55039,-0.03513 -0.60691,-1.372982 -0.64671,-0.747602 -2.82811,-3.130059 -4.84755,-5.294385 -2.90892,-3.117631 -3.6737,-3.857206 -3.68136,-3.559868 -0.005,0.206439 -0.38438,0.731191 -0.84238,1.16624 -0.52799,0.501541 -0.78821,0.884671 -0.71112,1.046915 0.0668,0.14078 1.85832,2.28315 3.98098,4.760875 2.12269,2.477741 3.92452,4.594202 4.0041,4.703238 0.0883,0.120987 0.53276,-0.120452 1.13999,-0.619011 z m -13.03117,-12.684445 2.35157,2.27042 0.73303,-0.696307 0.73303,-0.696291 -1.34573,-1.618688 c -0.74016,-0.890287 -2.69735,-3.042369 -4.34937,-4.7824 l -3.0036,-3.16371 -0.93718,0.890208 -0.93716,0.890193 2.20191,2.318094 c 1.21106,1.274939 3.26013,3.339763 4.5535,4.588481 z m 4.65372,-3.184764 1.95244,-1.854579 -2.07714,-2.186729 -2.07715,-2.186729 -1.95243,1.854596 -1.95243,1.85458 2.07715,2.186728 2.07713,2.186729 z m 17.13996,9.911375 c 3.14588,-2.881622 8.33151,-7.662792 11.52362,-10.624789 l 5.80382,-5.385447 -5.76132,-6.065274 -5.76131,-6.0652737 -11.1587,10.5994767 c -8.75544,8.316673 -11.14597,10.667411 -11.09959,10.914774 0.0479,0.255209 6.37521,7.277427 9.91767,11.006783 l 0.81601,0.859074 z m 17.56425,-16.72929 c 0.0942,-0.08946 0.26073,-0.477057 0.37024,-0.861436 l 0.19907,-0.698868 -5.05918,-5.326108 -5.05919,-5.3261071 -0.80202,0.2610899 c -0.44111,0.1435984 -0.83477,0.2922213 -0.8748,0.330254 -0.04,0.038035 2.43089,2.704931 5.49096,5.9264442 3.93426,4.141819 5.6139,5.809675 5.73492,5.694731 z"
     id="path896" />
  <path
     style="font-variation-settings:normal;opacity:1;vector-effect:none;fill:#ff5555;fill-opacity:1;stroke-width:0.0113997;stroke-linecap:butt;stroke-linejoin:miter;stroke-miterlimit:4;stroke-dasharray:none;stroke-dashoffset:0;stroke-opacity:1;stop-color:#000000;stop-opacity:1"
     d="m 11.977992,215.53983 c -0.710836,-0.75603 -1.292428,-1.40744 -1.292428,-1.44758 0,-0.089 14.690028,-14.04885 14.783694,-14.04885 0.07259,0 2.4333,2.45687 2.473217,2.57395 0.03265,0.0958 -14.443912,14.24313 -14.616256,14.28389 -0.03069,0.007 -0.637392,-0.60537 -1.348227,-1.36141 z"
     id="path898" />
  <path
     style="font-variation-settings:normal;opacity:1;vector-effect:none;fill:#ff5555;fill-opacity:1;stroke-width:0.0113997;stroke-linecap:butt;stroke-linejoin:miter;stroke-miterlimit:4;stroke-dasharray:none;stroke-dashoffset:0;stroke-opacity:1;stop-color:#000000;stop-opacity:1"
     d="m 17.811846,221.67688 c -0.673307,-0.70707 -1.224195,-1.30515 -1.224195,-1.32907 0,-0.0239 3.053361,-2.94282 6.785246,-6.48644 3.731886,-3.54362 7.066666,-6.71336 7.410622,-7.04387 l 0.625376,-0.60093 1.097861,1.14725 c 0.603824,0.63098 1.131504,1.20476 1.172621,1.27505 0.09141,0.15627 -1.263354,1.53274 -6.451474,6.55485 -6.554434,6.34471 -8.042401,7.76873 -8.117572,7.76873 -0.04086,0 -0.625178,-0.57851 -1.298485,-1.28557 z"
     id="path900" />
  <path
     style="font-variation-settings:normal;opacity:1;vector-effect:none;fill:#ff5555;fill-opacity:1;stroke-width:0.0113997;stroke-linecap:butt;stroke-linejoin:miter;stroke-miterlimit:4;stroke-dasharray:none;stroke-dashoffset:0;stroke-opacity:1;stop-color:#000000;stop-opacity:1"
     d="m 23.84192,227.71043 c -0.720006,-0.75501 -1.309101,-1.39213 -1.309101,-1.41581 0,-0.0237 1.579993,-1.54686 3.511096,-3.38484 1.931102,-1.83797 5.227938,-5.04879 7.3263,-7.13515 l 3.815204,-3.79339 1.101179,1.16098 c 0.605648,0.63853 1.245358,1.32198 1.421577,1.51877 l 0.320399,0.3578 -7.377062,7.00904 c -4.057384,3.85497 -7.404833,7.01946 -7.438777,7.0322 -0.03394,0.0127 -0.65081,-0.59458 -1.370815,-1.3496 z"
     id="path902" />
  <path
     style="font-variation-settings:normal;opacity:1;vector-effect:none;fill:#ff5555;fill-opacity:1;stroke-width:0.0113997;stroke-linecap:butt;stroke-linejoin:miter;stroke-miterlimit:4;stroke-dasharray:none;stroke-dashoffset:0;stroke-opacity:1;stop-color:#000000;stop-opacity:1"
     d="m 29.633682,233.79249 c -0.328203,-0.34092 -0.801007,-0.8353 -1.050677,-1.09862 l -0.453944,-0.47877 7.42839,-7.0565 7.428389,-7.0565 1.01879,1.06959 c 0.560335,0.58828 1.006143,1.10996 0.990686,1.15929 -0.02395,0.0764 -10.968682,10.52783 -13.810176,13.18767 l -0.954726,0.89369 z"
     id="path904" />
  <path
     style="font-variation-settings:normal;opacity:1;vector-effect:none;fill:#ff5555;fill-opacity:1;stroke-width:0.0113997;stroke-linecap:butt;stroke-linejoin:miter;stroke-miterlimit:4;stroke-dasharray:none;stroke-dashoffset:0;stroke-opacity:1;stop-color:#000000;stop-opacity:1"
     d="m 37.105861,197.88481 c -0.723496,-0.76073 -1.303204,-1.41424 -1.288241,-1.45227 0.01496,-0.038 0.879666,-0.87928 1.921563,-1.86947 2.083505,-1.98011 7.070409,-6.84505 11.41765,-11.13841 l 2.80026,-2.76555 1.355459,1.39906 c 0.745502,0.76949 1.356174,1.42468 1.357049,1.45597 8.79e-4,0.0313 -1.577505,1.56282 -3.507509,3.40339 -4.381968,4.17892 -7.628516,7.35174 -10.40604,10.16972 -1.184726,1.20199 -2.194704,2.18436 -2.244395,2.18306 -0.04969,-0.001 -0.6823,-0.62478 -1.405796,-1.3855 z"
     id="path906" />
  <path
     style="font-variation-settings:normal;opacity:1;vector-effect:none;fill:#ff5555;fill-opacity:1;stroke-width:0.0113997;stroke-linecap:butt;stroke-linejoin:miter;stroke-miterlimit:4;stroke-dasharray:none;stroke-dashoffset:0;stroke-opacity:1;stop-color:#000000;stop-opacity:1"
     d="m 43.229657,204.01777 -1.39535,-1.4592 8.106205,-7.69818 c 4.458412,-4.23401 8.135477,-7.69819 8.171255,-7.69819 0.03578,0 0.612673,0.57796 1.28199,1.28435 l 1.216939,1.28434 -1.311136,1.37757 c -1.372102,1.44161 -6.302476,6.28955 -10.487375,10.31202 -1.350587,1.29817 -2.845215,2.74195 -3.321396,3.2084 l -0.865783,0.84808 z"
     id="path908" />
  <path
     style="font-variation-settings:normal;opacity:1;vector-effect:none;fill:#ff5555;fill-opacity:1;stroke-width:0.0113997;stroke-linecap:butt;stroke-linejoin:miter;stroke-miterlimit:4;stroke-dasharray:none;stroke-dashoffset:0;stroke-opacity:1;stop-color:#000000;stop-opacity:1"
     d="m 48.714336,209.7824 c -0.538546,-0.57146 -0.979174,-1.07593 -0.979174,-1.12105 0,-0.25539 4.820408,-5.08027 14.592597,-14.60615 l 1.237509,-1.20632 1.110346,1.16319 c 0.610691,0.63975 1.110372,1.18749 1.110402,1.21719 7.6e-5,0.0746 -4.776629,4.79947 -7.754512,7.67043 -5.038491,4.85758 -8.193054,7.87163 -8.264417,7.8963 -0.04047,0.014 -0.514205,-0.44213 -1.052751,-1.01359 z"
     id="path910" />
  <path
     style="font-variation-settings:normal;opacity:1;vector-effect:none;fill:#ff2a2a;fill-opacity:1;stroke-width:0.00183855;stroke-linecap:butt;stroke-linejoin:miter;stroke-miterlimit:4;stroke-dasharray:none;stroke-dashoffset:0;stroke-opacity:1;stop-color:#000000;stop-opacity:1"
     d="m 14.875247,218.58973 -1.296923,-1.38911 3.010672,-2.84969 c 1.65587,-1.56734 4.964081,-4.78473 7.35158,-7.14977 l 4.340907,-4.30008 1.344389,1.43169 1.344387,1.43168 -0.612657,0.67496 c -1.154692,1.27211 -13.815571,13.45108 -14.038736,13.50438 -0.08068,0.0193 -0.730312,-0.59006 -1.443619,-1.35406 z"
     id="path912" />
  <path
     style="font-variation-settings:normal;opacity:1;vector-effect:none;fill:#ff9955;fill-opacity:1;stroke-width:0.00123741;stroke-linecap:butt;stroke-linejoin:miter;stroke-miterlimit:4;stroke-dasharray:none;stroke-dashoffset:0;stroke-opacity:1;stop-color:#000000;stop-opacity:1"
     d="m 34.653478,184.05917 c -1.812673,-1.89153 -3.288597,-3.50202 -3.27983,-3.57887 0.0088,-0.0769 3.890956,-3.85142 8.627087,-8.38793 9.6751,-9.2673 9.0485,-8.50428 9.995875,-12.17216 0.731718,-2.83294 0.847823,-5.35562 0.32562,-7.07486 -0.762588,-2.51065 -2.041157,-4.6423 -6.063504,-10.10914 -2.708692,-3.68144 -3.44753,-4.85291 -3.483231,-5.52286 -0.0232,-0.4353 0.848099,-1.31291 7.728423,-7.78442 4.265012,-4.01159 8.07486,-7.60063 8.46633,-7.97565 l 0.71176,-0.68185 1.873095,1.45539 c 3.658901,2.84297 4.777408,3.4563 6.87084,3.76766 1.541378,0.22926 3.413458,-0.0211 4.652381,-0.62221 0.528424,-0.25637 1.882896,-1.37068 3.502576,-2.88151 1.452527,-1.35492 3.119759,-2.90068 3.70496,-3.43503 l 1.064003,-0.97153 7.668326,8.07965 c 4.217579,4.44381 7.690104,8.14498 7.716721,8.22484 0.05975,0.17924 -36.523154,35.43112 -38.371314,36.97521 -0.517083,0.43201 -0.85125,0.59047 -1.111531,0.52706 -0.452719,-0.11029 -0.714422,0.12089 -9.938077,8.77899 -3.744801,3.51518 -6.933831,6.4896 -7.086735,6.60981 -0.241234,0.18965 -0.713934,-0.23634 -3.573775,-3.22059 z"
     id="path926" />
  <path
     style="font-variation-settings:normal;opacity:1;vector-effect:none;fill:#ff9955;fill-opacity:1;stroke-width:0.00123741;stroke-linecap:butt;stroke-linejoin:miter;stroke-miterlimit:4;stroke-dasharray:none;stroke-dashoffset:0;stroke-opacity:1;stop-color:#000000;stop-opacity:1"
     d="m 66.580441,177.01508 -1.740705,-1.84422 -1.167094,1.09112 -1.167094,1.09112 -0.632103,-0.61723 c -0.584267,-0.57052 -0.711057,-0.61723 -1.675383,-0.61723 h -1.043279 l -1.646891,-1.77598 -1.64689,-1.77598 3.648056,-3.52298 c 2.006431,-1.93763 8.338292,-8.0187 14.0708,-13.51348 9.850115,-9.44162 13.437167,-12.90652 19.003204,-18.35606 1.307243,-1.27988 2.452701,-2.32705 2.545463,-2.32705 0.09276,0 1.194479,1.0934 2.44826,2.42977 1.253779,1.33638 6.819995,7.26863 12.369365,13.18277 5.54937,5.91414 10.47317,11.1691 10.94177,11.67769 l 0.852,0.9247 -0.78636,0.71237 c -0.43249,0.39181 -3.18501,2.91992 -6.1167,5.61803 -8.39245,7.72379 -8.62585,7.93246 -8.87231,7.93246 -0.12833,0 -3.02854,-2.81477 -6.444902,-6.25505 -8.187956,-8.24529 -9.015513,-8.89789 -11.467438,-9.04305 l -1.292428,-0.0765 -1.045641,0.7709 c -0.575105,0.42399 -1.58138,1.26612 -2.236171,1.87138 -0.970305,0.89692 -11.88464,11.1672 -14.46753,13.61381 l -0.689295,0.65293 z"
     id="path928" />
  <path
     style="font-variation-settings:normal;opacity:1;vector-effect:none;fill:#ff9955;fill-opacity:1;stroke-width:0.00123741;stroke-linecap:butt;stroke-linejoin:miter;stroke-miterlimit:4;stroke-dasharray:none;stroke-dashoffset:0;stroke-opacity:1;stop-color:#000000;stop-opacity:1"
     d="m 66.037856,121.72799 -3.489555,-3.6959 -1.54e-4,-0.98414 c -8.5e-5,-0.54127 0.118312,-3.85332 0.263105,-7.36011 l 0.263259,-6.37597 2.795641,-2.74091 c 4.1094,-4.028954 17.205535,-16.562932 17.768362,-17.005653 0.366934,-0.28863 0.516607,-0.328287 0.61826,-0.163811 0.07376,0.119356 0.93853,2.622344 1.921697,5.562196 l 1.787577,5.345184 3.769895,3.984525 c 2.073442,2.191489 3.864752,4.086449 3.98069,4.211019 0.170628,0.18334 0.962709,-0.48769 4.156996,-3.521685 11.010461,-10.45795 11.808631,-11.184578 11.969581,-10.89681 0.14497,0.259186 0.47682,3.54127 0.5434,5.374391 0.0356,0.980269 -0.009,1.206067 -0.266,1.349955 -0.41265,0.230931 -1.69978,1.37584 -3.98023,3.540444 l -1.8831,1.787435 0.98589,0.99629 0.98589,0.99629 -4.49211,4.35277 -4.492115,4.35276 -0.60492,-0.53113 c -0.332707,-0.29212 -0.71561,-0.53112 -0.850898,-0.53112 -0.265051,0 -1.142169,0.75453 -4.282885,3.6843 l -2.009898,1.87491 -2.181703,-2.30572 c -3.723305,-3.93494 -6.058443,-6.18849 -6.682917,-6.44941 -1.205657,-0.50376 -3.302222,-0.17892 -4.608149,0.71398 -0.40238,0.27512 -1.285283,1.0233 -1.962008,1.66262 -1.571089,1.48426 -2.216306,2.77698 -2.215132,4.43811 9.82e-4,1.38334 0.172406,1.71909 2.078891,4.07161 l 1.466376,1.80945 -0.637315,0.77776 c -0.668794,0.81617 -2.795245,2.73343 -4.433391,3.99725 -1.088119,0.83948 -2.133154,1.41434 -2.528345,1.39081 -0.145821,-0.009 -1.83543,-1.67895 -3.754685,-3.71169 z m 6.246734,-14.34283 c 0.695495,-0.3162 5.347843,-4.51413 6.015644,-5.42805 l 0.360334,-0.49314 -2.220154,-2.134797 c -1.221085,-1.174139 -2.272062,-2.134797 -2.335504,-2.134797 -0.06344,0 -1.359479,1.230485 -2.880082,2.734412 -3.063227,3.029632 -3.619496,3.843222 -3.422982,5.006382 0.15824,0.93661 0.957475,2.13009 1.657305,2.47482 0.765708,0.37719 1.96439,0.36665 2.825439,-0.0248 z"
     id="path930" />
  <path
     style="font-variation-settings:normal;opacity:1;vector-effect:none;fill:#ff9955;fill-opacity:1;stroke-width:0.00123741;stroke-linecap:butt;stroke-linejoin:miter;stroke-miterlimit:4;stroke-dasharray:none;stroke-dashoffset:0;stroke-opacity:1;stop-color:#000000;stop-opacity:1"
     d="m 134.23497,147.83856 c -2.6064,-2.75553 -4.76211,-5.07253 -4.79046,-5.14889 -0.0486,-0.13077 8.61578,-8.47678 8.90742,-8.58016 0.10955,-0.0388 8.38369,8.53957 9.54865,9.89978 0.30761,0.35916 0.26898,0.40204 -4.10869,4.56102 -2.43057,2.30916 -4.50895,4.21643 -4.61862,4.23839 -0.10967,0.022 -2.33191,-2.21461 -4.9383,-4.97014 z"
     id="path936" />
  <path
     style="font-variation-settings:normal;opacity:1;vector-effect:none;fill:#ff9955;fill-opacity:1;stroke-width:0.00123741;stroke-linecap:butt;stroke-linejoin:miter;stroke-miterlimit:4;stroke-dasharray:none;stroke-dashoffset:0;stroke-opacity:1;stop-color:#000000;stop-opacity:1"
     d="m 128.5052,154.32298 c -2.91442,-3.07206 -5.29895,-5.65553 -5.29895,-5.74103 0,-0.0855 1.31107,-1.40817 2.91349,-2.93925 l 2.91348,-2.78378 5.36877,5.73038 5.36877,5.73039 -2.85631,2.80026 c -1.57096,1.54014 -2.91345,2.79764 -2.9833,2.79443 -0.0699,-0.003 -2.51152,-2.51933 -5.42595,-5.5914 z"
     id="path938" />
  <path
     style="font-variation-settings:normal;opacity:1;vector-effect:none;fill:#ff9955;fill-opacity:1;stroke-width:0.00123741;stroke-linecap:butt;stroke-linejoin:miter;stroke-miterlimit:4;stroke-dasharray:none;stroke-dashoffset:0;stroke-opacity:1;stop-color:#000000;stop-opacity:1"
     d="m 144.38041,139.73551 c -3.06838,-3.23384 -5.57887,-5.93854 -5.57887,-6.01044 0,-0.13189 6.21469,-6.07658 6.44085,-6.16103 0.1229,-0.0459 10.91311,11.2427 11.02311,11.53226 0.0781,0.20569 -3.23452,3.74982 -4.95254,5.2986 l -1.35369,1.22032 z"
     id="path940" />
  <path
     style="font-variation-settings:normal;opacity:1;vector-effect:none;fill:#ff9955;fill-opacity:1;stroke-width:0.00123741;stroke-linecap:butt;stroke-linejoin:miter;stroke-miterlimit:4;stroke-dasharray:none;stroke-dashoffset:0;stroke-opacity:1;stop-color:#000000;stop-opacity:1"
     d="M 22.913847,236.47569 C 14.715546,227.84756 7.5509065,220.28378 6.9924255,219.66729 l -1.0154201,-1.12091 0.6707727,-0.69347 c 0.3689249,-0.3814 1.3403318,-1.30736 2.1586817,-2.05767 l 1.4879092,-1.36422 8.257685,8.48741 c 4.541728,4.66807 8.983661,9.24668 9.870965,10.17468 0.887303,0.92801 1.711281,1.66469 1.83106,1.63708 0.11978,-0.0276 3.329364,-2.99695 7.132409,-6.59851 3.803047,-3.60157 7.186156,-6.80542 7.51802,-7.11968 l 0.603392,-0.57137 -0.648732,-0.72106 c -0.356801,-0.39658 -4.76194,-5.01668 -9.789193,-10.2669 -5.027255,-5.25022 -9.140463,-9.63155 -9.140463,-9.73629 0,-0.25465 6.093826,-6.04945 6.361614,-6.04945 0.115371,0 3.190081,3.06297 6.832689,6.80659 8.757008,8.99986 13.18226,13.44145 13.391994,13.44145 0.180817,0 16.455253,-15.391 16.538496,-15.64073 0.02663,-0.0799 -4.353683,-4.78213 -9.734017,-10.44945 -5.380336,-5.66732 -9.807835,-10.37277 -9.838888,-10.45655 -0.03105,-0.0838 0.82195,-0.9912 1.895561,-2.01649 3.088437,-2.94941 3.531218,-3.38735 3.072125,-3.03848 -0.593598,0.45107 -3.586246,3.20547 -10.080484,9.27797 -3.033147,2.83617 -5.717516,5.34142 -5.965268,5.56723 l -0.450456,0.41055 -3.297584,-3.47272 c -1.813671,-1.91 -3.297585,-3.52902 -3.297585,-3.59782 0,-0.0688 3.555522,-3.54442 7.901161,-7.72359 4.345637,-4.17917 8.260061,-8.01859 8.698718,-8.53204 1.037053,-1.21388 1.582597,-2.43571 2.089815,-4.68045 1.349053,-5.97036 0.592028,-8.1197 -6.017918,-17.08595 -2.243893,-3.04379 -3.151263,-4.47193 -3.293684,-5.18404 -0.09368,-0.46838 0.361842,-0.93042 8.301923,-8.42083 4.620569,-4.35889 8.484428,-7.9449 8.586354,-7.96892 0.101926,-0.024 1.27096,0.77653 2.597853,1.77901 3.770792,2.84885 5.373542,3.49569 8.184275,3.30304 2.390393,-0.16384 3.087462,-0.62044 8.04319,-5.26849 1.53242,-1.43728 2.825215,-2.61323 2.872879,-2.61323 0.156717,0 15.45056,16.18522 15.45056,16.35107 0,0.0891 -0.497933,0.6146 -1.106518,1.16784 -0.608585,0.55324 -4.42771,4.22485 -8.486943,8.15915 -4.059233,3.9343 -10.328671,9.98286 -13.932084,13.44125 -16.038644,15.39316 -15.42564,14.82923 -15.966104,14.6879 -0.214481,-0.0561 -0.334391,-0.0207 -0.295118,0.0872 0.03638,0.0999 3.404403,3.73693 7.484487,8.08226 8.372362,8.91665 19.004497,20.29114 21.940896,23.47285 l 1.959764,2.12348 -0.925821,0.95091 c -1.962159,2.01532 -47.44157,45.55005 -47.574381,45.54012 -0.02814,-0.002 -6.758866,-7.0632 -14.957166,-15.69132 z"
     id="path942" />
  <path
     style="font-variation-settings:normal;opacity:1;vector-effect:none;fill:#ff9955;fill-opacity:1;stroke-width:0.00123741;stroke-linecap:butt;stroke-linejoin:miter;stroke-miterlimit:4;stroke-dasharray:none;stroke-dashoffset:0;stroke-opacity:1;stop-color:#000000;stop-opacity:1"
     d="m 153.04697,135.12003 c -1.04256,-1.10919 -3.15872,-3.34348 -4.70258,-4.96509 l -2.80701,-2.94838 42.44154,-40.380758 C 211.32176,64.616385 230.80007,46.08954 231.26403,45.65504 l 0.84358,-0.790003 -2.17372,-2.360447 -2.17372,-2.360448 3.65717,-3.397851 c 7.83371,-7.278248 14.29896,-13.225915 14.50608,-13.344784 0.17306,-0.09932 0.24315,2.582811 0.34678,13.268926 l 0.12987,13.393407 -2.56168,2.480805 c -8.62674,8.35439 -34.83573,33.389841 -68.38934,65.327135 -6.91879,6.58551 -14.3051,13.62246 -16.414,15.63768 -2.10891,2.01521 -3.89246,3.65575 -3.96345,3.64565 -0.071,-0.0101 -0.98207,-0.92588 -2.02463,-2.03508 z"
     id="path944" />
  <path
     style="font-variation-settings:normal;opacity:1;vector-effect:none;fill:#ff9955;fill-opacity:1;stroke-width:0.00123741;stroke-linecap:butt;stroke-linejoin:miter;stroke-miterlimit:4;stroke-dasharray:none;stroke-dashoffset:0;stroke-opacity:1;stop-color:#000000;stop-opacity:1"
     d="m 143.42556,119.18855 c -0.71083,-0.21363 -1.64138,-0.56627 -2.06788,-0.78363 -0.92403,-0.47092 -3.35582,-2.90276 -10.44013,-10.44031 C 121.48704,97.930731 120.7436,97.028488 119.3585,93.936379 l -0.6489,-1.448598 2.37372,-2.299443 c 1.30554,-1.264694 2.42885,-2.299443 2.49624,-2.299443 0.0674,0 0.5194,0.794843 1.00448,1.766318 l 0.88195,1.766318 9.12573,9.563969 c 11.15019,11.68565 12.25715,12.77026 13.74297,13.46556 0.96949,0.45368 1.09559,0.56503 0.94934,0.83831 -0.16966,0.31702 -4.21809,4.19203 -4.44466,4.25427 -0.0668,0.0183 -0.70297,-0.14145 -1.41381,-0.35509 z"
     id="path946" />
  <path
     style="font-variation-settings:normal;opacity:1;vector-effect:none;fill:#ff9955;fill-opacity:1;stroke-width:0.000309352;stroke-linecap:butt;stroke-linejoin:miter;stroke-miterlimit:4;stroke-dasharray:none;stroke-dashoffset:0;stroke-opacity:1;stop-color:#000000;stop-opacity:1"
     d="m 147.65581,113.6196 c -0.42732,-0.2528 -1.012,-0.79562 -3.00211,-2.7872 -4.916,-4.91963 -13.4681,-13.88678 -16.62435,-17.431145 -1.94168,-2.180449 -3.15487,-3.752216 -3.28383,-4.254412 -0.068,-0.264909 0.12917,-0.122749 0.97058,0.69971 2.20675,2.157064 17.65454,18.486777 20.62387,21.801307 0.46841,0.52287 1.29952,1.50581 1.51895,1.79644 0.28806,0.38153 0.23009,0.43156 -0.20311,0.1753 z"
     id="path948" />
  <path
     style="font-variation-settings:normal;opacity:1;vector-effect:none;fill:#ff9955;fill-opacity:1;stroke-width:0.000309352;stroke-linecap:butt;stroke-linejoin:miter;stroke-miterlimit:4;stroke-dasharray:none;stroke-dashoffset:0;stroke-opacity:1;stop-color:#000000;stop-opacity:1"
     d="m 124.04979,87.621631 c -0.14807,-0.148066 -0.0253,-0.280203 0.42949,-0.462313 0.50728,-0.203129 0.54028,-0.177415 0.19733,0.153797 -0.36494,0.352458 -0.511,0.424344 -0.62682,0.308516 z"
     id="path950" />
  <path
     style="font-variation-settings:normal;opacity:1;vector-effect:none;fill:#ff9955;fill-opacity:1;stroke-width:0.000309352;stroke-linecap:butt;stroke-linejoin:miter;stroke-miterlimit:4;stroke-dasharray:none;stroke-dashoffset:0;stroke-opacity:1;stop-color:#000000;stop-opacity:1"
     d="m 149.43738,114.5935 c -0.14106,-0.0298 -0.19387,-0.0974 -0.19387,-0.24805 0,-0.1025 0.0318,-0.16738 0.11352,-0.23167 0.14886,-0.1171 0.2065,-0.11265 0.31417,0.0242 0.19167,0.24368 0.0519,0.51593 -0.23382,0.45549 z"
     id="path952" />
  <path
     style="font-variation-settings:normal;opacity:1;vector-effect:none;fill:#ffe6d5;fill-opacity:1;stroke-linecap:butt;stroke-linejoin:miter;stroke-miterlimit:4;stroke-dasharray:none;stroke-dashoffset:0;stroke-opacity:1;stop-color:#000000;stop-opacity:1"
     d="m 41.753973,252.58437 c -0.635645,-0.16845 -1.909736,-0.68809 -2.220092,-0.90547 -0.178354,-0.12493 -0.144336,-0.16798 1.233745,-1.56136 2.608491,-2.63745 9.543869,-9.26194 36.915841,-35.26102 l 8.271538,-7.85667 0.494228,0.53946 c 0.732353,0.79938 0.996746,1.38562 1.098191,2.43502 0.04581,0.47389 0.08369,1.24935 0.08417,1.72324 l 8.88e-4,0.86162 -3.763783,3.53263 C 67.852691,231.12424 57.94612,240.39048 49.002777,248.70413 l -4.124562,3.83416 -0.700503,0.1012 c -1.001855,0.14475 -1.732203,0.12814 -2.423739,-0.0551 z"
     id="path954" />
  <path
     style="font-variation-settings:normal;opacity:1;vector-effect:none;fill:#ffe6d5;fill-opacity:1;stroke-linecap:butt;stroke-linejoin:miter;stroke-miterlimit:4;stroke-dasharray:none;stroke-dashoffset:0;stroke-opacity:1;stop-color:#000000;stop-opacity:1"
     d="m 122.55665,116.77201 -15.75563,-16.59388 2.16921,-2.105863 c 1.19306,-1.158225 2.39899,-2.299948 2.67984,-2.537163 l 0.51063,-0.4313 0.78489,0.828467 0.7849,0.828468 0.64134,-0.499732 0.64134,-0.499733 1.12546,1.172693 c 6.90866,7.198633 28.81357,30.189853 28.81399,30.242943 8.5e-4,0.1123 -6.43084,6.20652 -6.54055,6.19733 -0.0549,-0.005 -7.18983,-7.4756 -15.85542,-16.60223 z"
     id="path956" />
  <path
     style="font-variation-settings:normal;opacity:1;vector-effect:none;fill:#ffe6d5;fill-opacity:1;stroke-linecap:butt;stroke-linejoin:miter;stroke-miterlimit:4;stroke-dasharray:none;stroke-dashoffset:0;stroke-opacity:1;stop-color:#000000;stop-opacity:1"
     d="m 108.09315,132.82853 c -8.04218,-8.47049 -15.004887,-15.81881 -15.472679,-16.32959 l -0.85053,-0.9287 1.155158,-1.08566 c 2.561922,-2.40781 4.717809,-4.25372 4.968018,-4.25372 0.08939,0 22.250123,23.24677 30.218343,31.69927 l 0.64869,0.68813 -2.95604,2.8151 c -1.62583,1.5483 -2.98592,2.81081 -3.02243,2.80558 -0.0365,-0.005 -6.64634,-6.93992 -14.68853,-15.41041 z"
     id="path958" />
  <path
     style="font-variation-settings:normal;opacity:1;vector-effect:none;fill:#ffdd55;fill-opacity:1;stroke-width:0.0034417;stroke-linecap:butt;stroke-linejoin:miter;stroke-miterlimit:4;stroke-dasharray:none;stroke-dashoffset:0;stroke-opacity:1;stop-color:#000000;stop-opacity:1"
     d="m 27.248027,245.62882 c -0.647319,-0.65343 -4.08158,-4.31353 -7.631694,-8.13357 C 7.6591432,224.62892 6.745847,223.60791 6.5457171,222.8831 c -0.2031087,-0.7356 0.2199373,-1.8987 0.6906002,-1.8987 0.3346524,0 4.2057337,3.95241 13.0084947,13.28179 9.115018,9.66032 10.530959,11.21799 10.530983,11.58509 3.2e-5,0.48317 -0.895573,0.96559 -1.792595,0.96559 -0.544429,0 -0.587329,-0.0294 -1.735173,-1.18805 z"
     id="path960" />
  <path
     style="font-variation-settings:normal;opacity:1;vector-effect:none;fill:#ffdd55;fill-opacity:1;stroke-width:0.0034417;stroke-linecap:butt;stroke-linejoin:miter;stroke-miterlimit:4;stroke-dasharray:none;stroke-dashoffset:0;stroke-opacity:1;stop-color:#000000;stop-opacity:1"
     d="m 83.019276,201.35644 c -0.117427,-0.0684 -2.365583,-2.43651 -4.995902,-5.26249 -5.919409,-6.35972 -17.133775,-18.37256 -17.788222,-19.05476 l -0.484684,-0.50523 0.647074,-0.0436 0.647074,-0.0436 6.463733,6.76743 c 11.616945,12.16277 15.616006,16.44372 15.797613,16.91119 0.132529,0.34114 0.146233,1.36438 0.0182,1.35919 -0.05026,-0.002 -0.187465,-0.0597 -0.30489,-0.12805 z"
     id="path962" />
  <path
     style="font-variation-settings:normal;opacity:1;vector-effect:none;fill:#ffdd55;fill-opacity:1;stroke-width:0.0034417;stroke-linecap:butt;stroke-linejoin:miter;stroke-miterlimit:4;stroke-dasharray:none;stroke-dashoffset:0;stroke-opacity:1;stop-color:#000000;stop-opacity:1"
     d="m 80.114507,195.66877 c -4.5734,-4.61069 -17.291817,-17.87374 -17.291817,-18.03229 0,-0.0624 0.455455,-0.52805 1.012122,-1.03479 l 1.012122,-0.92134 2.308325,2.45907 c 1.269579,1.3525 4.80323,5.11715 7.852558,8.36591 5.578564,5.94341 8.787986,9.41436 9.243967,9.99723 l 0.246338,0.31489 -0.817471,0.8112 -0.817471,0.81121 z"
     id="path964" />
  <path
     style="font-variation-settings:normal;opacity:1;vector-effect:none;fill:#ffdd55;fill-opacity:1;stroke-width:0.0034417;stroke-linecap:butt;stroke-linejoin:miter;stroke-miterlimit:4;stroke-dasharray:none;stroke-dashoffset:0;stroke-opacity:1;stop-color:#000000;stop-opacity:1"
     d="m 75.189086,186.05828 -6.555151,-6.89789 1.328709,-1.25892 c 0.73079,-0.6924 1.356126,-1.25724 1.389635,-1.2552 0.09806,0.006 12.97716,13.63334 12.97716,13.73111 0,0.0488 -0.581671,0.64905 -1.292601,1.3338 l -1.292601,1.245 z"
     id="path966" />
  <path
     style="font-variation-settings:normal;opacity:1;vector-effect:none;fill:#ffdd55;fill-opacity:1;stroke-width:0.0034417;stroke-linecap:butt;stroke-linejoin:miter;stroke-miterlimit:4;stroke-dasharray:none;stroke-dashoffset:0;stroke-opacity:1;stop-color:#000000;stop-opacity:1"
     d="m 78.081343,183.17358 -6.491797,-6.84767 0.642937,-0.57491 c 0.353615,-0.31621 0.670353,-0.57094 0.703862,-0.56608 0.118752,0.0172 5.798429,6.14415 10.526133,11.35503 l 2.301173,2.53635 -0.46767,0.47894 c -0.257219,0.26342 -0.525084,0.47603 -0.595255,0.47248 -0.07017,-0.004 -3.048894,-3.08792 -6.619383,-6.85414 z"
     id="path968" />
  <path
     style="font-variation-settings:normal;opacity:1;vector-effect:none;fill:#ffdd55;fill-opacity:1;stroke-width:0.0034417;stroke-linecap:butt;stroke-linejoin:miter;stroke-miterlimit:4;stroke-dasharray:none;stroke-dashoffset:0;stroke-opacity:1;stop-color:#000000;stop-opacity:1"
     d="m 81.93208,184.27671 c -2.249558,-2.42941 -5.138,-5.54119 -6.418761,-6.91506 l -2.328657,-2.49795 0.594995,-0.59585 0.594995,-0.59586 0.624341,0.53493 c 0.343387,0.29421 2.665413,2.646 5.160057,5.2262 2.494644,2.5802 5.22047,5.39412 6.05739,6.25316 l 1.521673,1.56189 -0.747858,0.72282 c -0.411323,0.39756 -0.797407,0.72283 -0.857965,0.72283 -0.06056,0 -1.950652,-1.9877 -4.20021,-4.41711 z"
     id="path970" />
  <path
     style="font-variation-settings:normal;opacity:1;vector-effect:none;fill:#ffdd55;fill-opacity:1;stroke-width:0.0034417;stroke-linecap:butt;stroke-linejoin:miter;stroke-miterlimit:4;stroke-dasharray:none;stroke-dashoffset:0;stroke-opacity:1;stop-color:#000000;stop-opacity:1"
     d="m 81.435213,180.1324 -6.523249,-6.85277 0.532236,-0.54363 0.532235,-0.54363 0.380477,0.36085 c 1.121955,1.06409 12.602875,13.25059 12.602875,13.3774 0,0.0824 -0.225298,0.35345 -0.500663,0.60223 l -0.500663,0.45232 z"
     id="path972" />
  <path
     style="font-variation-settings:normal;opacity:1;vector-effect:none;fill:#ffdd55;fill-opacity:1;stroke-width:0.0034417;stroke-linecap:butt;stroke-linejoin:miter;stroke-miterlimit:4;stroke-dasharray:none;stroke-dashoffset:0;stroke-opacity:1;stop-color:#000000;stop-opacity:1"
     d="m 83.659257,179.66622 c -3.116346,-3.28319 -6.047974,-6.38606 -6.514729,-6.89528 l -0.848645,-0.92586 0.604942,-0.52919 c 0.332719,-0.29106 0.643325,-0.53033 0.690237,-0.5317 0.04691,-0.001 2.673675,2.72544 5.837251,6.05959 3.163576,3.33416 6.084356,6.40457 6.490622,6.82314 l 0.738665,0.76103 -0.600623,0.60979 c -0.330344,0.33539 -0.630101,0.60712 -0.66613,0.60385 -0.03603,-0.003 -2.615244,-2.69218 -5.73159,-5.97537 z"
     id="path974" />
  <path
     style="font-variation-settings:normal;opacity:1;vector-effect:none;fill:#ffdd55;fill-opacity:1;stroke-width:0.0034417;stroke-linecap:butt;stroke-linejoin:miter;stroke-miterlimit:4;stroke-dasharray:none;stroke-dashoffset:0;stroke-opacity:1;stop-color:#000000;stop-opacity:1"
     d="m 84.453526,177.35443 c -3.550734,-3.74167 -6.471112,-6.84873 -6.489729,-6.90458 -0.01862,-0.0558 0.233756,-0.36513 0.560829,-0.68728 l 0.594678,-0.58574 5.823015,6.13342 c 3.202658,3.37338 6.154481,6.47517 6.559606,6.89286 l 0.736591,0.75944 -0.359927,0.37882 c -0.197958,0.20835 -0.497008,0.4772 -0.664554,0.59745 l -0.304628,0.21864 z"
     id="path976" />
  <path
     style="font-variation-settings:normal;opacity:1;vector-effect:none;fill:#ffdd55;fill-opacity:1;stroke-width:0.0034417;stroke-linecap:butt;stroke-linejoin:miter;stroke-miterlimit:4;stroke-dasharray:none;stroke-dashoffset:0;stroke-opacity:1;stop-color:#000000;stop-opacity:1"
     d="m 86.705538,176.61528 c -3.183364,-3.35033 -6.110873,-6.44793 -6.505575,-6.88357 l -0.71764,-0.79205 0.406452,-0.41936 c 0.223549,-0.23064 0.447014,-0.41935 0.496589,-0.41935 0.04958,0 2.679404,2.72795 5.844064,6.0621 3.16466,3.33416 6.08684,6.4052 6.493731,6.82454 l 0.739805,0.76244 -0.484745,0.47838 -0.484745,0.47838 z"
     id="path978" />
  <path
     style="font-variation-settings:normal;opacity:1;vector-effect:none;fill:#ffdd55;fill-opacity:1;stroke-width:0.0034417;stroke-linecap:butt;stroke-linejoin:miter;stroke-miterlimit:4;stroke-dasharray:none;stroke-dashoffset:0;stroke-opacity:1;stop-color:#000000;stop-opacity:1"
     d="m 87.984977,175.46375 c -3.149856,-3.31757 -6.078753,-6.41765 -6.508661,-6.88908 l -0.781651,-0.85713 0.612198,-0.6122 0.612198,-0.6122 5.824425,6.1349 c 3.203435,3.37419 6.156602,6.47736 6.562593,6.89593 l 0.738167,0.76104 -0.600623,0.60979 c -0.330344,0.33538 -0.630102,0.60779 -0.666131,0.60535 -0.03603,-0.002 -2.64266,-2.71883 -5.792515,-6.0364 z"
     id="path980" />
  <path
     style="font-variation-settings:normal;opacity:1;vector-effect:none;fill:#ffdd55;fill-opacity:1;stroke-width:0.0034417;stroke-linecap:butt;stroke-linejoin:miter;stroke-miterlimit:4;stroke-dasharray:none;stroke-dashoffset:0;stroke-opacity:1;stop-color:#000000;stop-opacity:1"
     d="m 89.505709,173.92531 c -3.18204,-3.34525 -6.109471,-6.43982 -6.505403,-6.87682 l -0.719876,-0.79456 0.538753,-0.53876 0.538754,-0.53875 6.21276,6.52886 c 3.417018,3.59087 6.360157,6.70551 6.540308,6.92143 l 0.327546,0.39258 -0.573658,0.49414 -0.573658,0.49414 z"
     id="path982" />
  <path
     style="font-variation-settings:normal;opacity:1;vector-effect:none;fill:#ffdd55;fill-opacity:1;stroke-width:0.0034417;stroke-linecap:butt;stroke-linejoin:miter;stroke-miterlimit:4;stroke-dasharray:none;stroke-dashoffset:0;stroke-opacity:1;stop-color:#000000;stop-opacity:1"
     d="m 90.228774,171.86163 c -3.579725,-3.76792 -6.508592,-6.9034 -6.508592,-6.96774 0,-0.0643 0.207455,-0.28489 0.461012,-0.49011 l 0.461011,-0.37312 0.466808,0.48154 c 0.908595,0.93728 12.139839,12.80224 12.348045,13.04477 0.204027,0.23768 0.19518,0.26207 -0.254154,0.70083 l -0.465537,0.45459 z"
     id="path984" />
  <path
     style="font-variation-settings:normal;opacity:1;vector-effect:none;fill:#ffdd55;fill-opacity:1;stroke-width:0.0034417;stroke-linecap:butt;stroke-linejoin:miter;stroke-miterlimit:4;stroke-dasharray:none;stroke-dashoffset:0;stroke-opacity:1;stop-color:#000000;stop-opacity:1"
     d="m 92.53878,171.78569 c -2.973198,-3.1324 -5.912123,-6.22023 -6.530944,-6.86182 l -1.12513,-1.16654 0.411192,-0.39854 0.411192,-0.39855 6.501399,6.8435 c 3.575769,3.76393 6.501399,6.88658 6.501399,6.93924 0,0.0526 -0.171741,0.24024 -0.381647,0.41687 l -0.381645,0.32113 z"
     id="path986" />
  <path
     style="font-variation-settings:normal;opacity:1;vector-effect:none;fill:#ffdd55;fill-opacity:1;stroke-width:0.0034417;stroke-linecap:butt;stroke-linejoin:miter;stroke-miterlimit:4;stroke-dasharray:none;stroke-dashoffset:0;stroke-opacity:1;stop-color:#000000;stop-opacity:1"
     d="m 93.636306,170.74778 c -5.49772,-5.8255 -6.82338,-7.26173 -7.144446,-7.74037 -0.221978,-0.33093 -0.118365,-0.47567 0.417177,-0.58278 0.344302,-0.0689 0.464516,0.006 1.324911,0.82021 0.520438,0.49277 3.058116,3.11669 5.639286,5.83092 2.581169,2.71424 5.024205,5.27699 5.428969,5.695 l 0.735937,0.76002 -0.414865,0.42803 c -0.228174,0.23541 -0.472648,0.42648 -0.543274,0.42459 -0.07063,-0.002 -2.520289,-2.53792 -5.443695,-5.63562 z"
     id="path988" />
  <path
     style="font-variation-settings:normal;opacity:1;vector-effect:none;fill:#ffdd55;fill-opacity:1;stroke-width:0.0034417;stroke-linecap:butt;stroke-linejoin:miter;stroke-miterlimit:4;stroke-dasharray:none;stroke-dashoffset:0;stroke-opacity:1;stop-color:#000000;stop-opacity:1"
     d="m 94.951835,169.5327 c -2.909341,-3.03257 -5.572247,-5.83889 -5.91757,-6.23625 -0.701466,-0.80719 -0.682039,-1.03967 0.06662,-0.79717 1.338493,0.43354 2.13223,1.02215 5.129902,3.80417 2.013611,1.86876 7.462453,7.4442 7.462453,7.63584 0,0.10645 -1.24444,1.10718 -1.37682,1.10718 -0.0412,0 -2.455243,-2.48119 -5.364583,-5.51377 z"
     id="path990" />
  <path
     style="font-variation-settings:normal;opacity:1;vector-effect:none;fill:#ffdd55;fill-opacity:1;stroke-width:0.0034417;stroke-linecap:butt;stroke-linejoin:miter;stroke-miterlimit:4;stroke-dasharray:none;stroke-dashoffset:0;stroke-opacity:1;stop-color:#000000;stop-opacity:1"
     d="m 98.867825,138.11533 c -5.293045,-5.56704 -9.76875,-10.29594 -9.946011,-10.50868 l -0.322292,-0.3868 3.532082,-3.35091 c 1.942645,-1.843 3.572423,-3.36603 3.62173,-3.38452 0.07959,-0.0298 19.109876,20.0712 19.669696,20.77643 l 0.22461,0.28294 -0.89479,0.81914 c -1.18326,1.08322 -4.73942,4.40904 -5.58859,5.22661 l -0.67272,0.64767 z"
     id="path992" />
  <path
     style="font-variation-settings:normal;opacity:1;vector-effect:none;fill:#ffdd55;fill-opacity:1;stroke-width:0.0034417;stroke-linecap:butt;stroke-linejoin:miter;stroke-miterlimit:4;stroke-dasharray:none;stroke-dashoffset:0;stroke-opacity:1;stop-color:#000000;stop-opacity:1"
     d="m 112.57329,125.01512 c -5.39203,-5.67127 -10.00597,-10.54331 -10.2532,-10.82675 l -0.44951,-0.51536 2.11525,-1.91408 c 3.02711,-2.73921 2.87601,-2.63399 3.78258,-2.63399 h 0.76142 l 1.07247,1.12712 c 0.58986,0.61992 3.84754,3.97845 7.23928,7.46339 8.68782,8.92655 10.41823,10.77158 10.8345,11.55213 0.16297,0.3056 0.14373,0.35172 -0.42648,1.02215 -0.70205,0.82545 -4.65066,4.95754 -4.78231,5.00455 -0.0497,0.0177 -4.50197,-4.60789 -9.894,-10.27916 z"
     id="path994" />
  <path
     style="font-variation-settings:normal;opacity:1;vector-effect:none;fill:#ffdd55;fill-opacity:1;stroke-width:0.0034417;stroke-linecap:butt;stroke-linejoin:miter;stroke-miterlimit:4;stroke-dasharray:none;stroke-dashoffset:0;stroke-opacity:1;stop-color:#000000;stop-opacity:1"
     d="m 126.31316,89.741082 -1.67965,-1.786668 0.58299,-0.567358 c 0.32064,-0.312048 4.47613,-4.261347 9.23443,-8.776223 14.86302,-14.10269 28.84478,-27.453614 55.8688,-53.348096 4.92584,-4.719949 9.16267,-8.776716 9.41519,-9.015037 l 0.45912,-0.433312 1.95375,1.946015 1.95375,1.946016 -0.47099,0.426479 c -0.25904,0.234564 -8.82954,8.350658 -19.04556,18.035764 -42.26779,40.071179 -56.3616,53.375201 -56.53126,53.363346 -0.0335,-0.0023 -0.81676,-0.808257 -1.74057,-1.790926 z"
     id="path996" />
  <path
     style="font-variation-settings:normal;opacity:1;vector-effect:none;fill:#ffdd55;fill-opacity:1;stroke-width:0.0034417;stroke-linecap:butt;stroke-linejoin:miter;stroke-miterlimit:4;stroke-dasharray:none;stroke-dashoffset:0;stroke-opacity:1;stop-color:#000000;stop-opacity:1"
     d="m 137.27561,101.27502 c -1.78814,-1.887379 -3.24606,-3.465841 -3.23983,-3.507695 0.006,-0.04185 0.97952,-0.991294 2.16286,-2.109868 3.41385,-3.227011 9.07426,-8.654941 14.47091,-13.876574 8.56524,-8.287466 58.74645,-56.327618 58.89516,-56.382304 0.16314,-0.05999 7.22156,7.00784 7.17752,7.187094 -0.0229,0.09336 -7.3345,7.047401 -16.24792,15.453424 -30.42684,28.694789 -56.19978,53.045023 -59.34992,56.073713 l -0.61762,0.59381 z"
     id="path998" />
  <path
     style="font-variation-settings:normal;opacity:1;vector-effect:none;fill:#ffdd55;fill-opacity:1;stroke-width:0.0034417;stroke-linecap:butt;stroke-linejoin:miter;stroke-miterlimit:4;stroke-dasharray:none;stroke-dashoffset:0;stroke-opacity:1;stop-color:#000000;stop-opacity:1"
     d="m 148.0318,112.89217 c -0.50255,-0.51939 -1.06335,-1.1119 -1.24624,-1.31668 l -0.33251,-0.37235 3.86889,-3.71583 c 7.83105,-7.521227 21.7564,-20.806687 59.16846,-56.449532 7.02541,-6.693181 12.81433,-12.121627 12.86427,-12.063214 0.0499,0.05841 0.45045,0.573937 0.89002,1.145608 0.43957,0.571672 0.89047,1.115132 1.002,1.207691 0.11152,0.09256 0.31061,0.319734 0.44241,0.504834 l 0.23965,0.336545 -19.28369,18.195669 c -27.66867,26.107557 -42.71481,40.317759 -49.19998,46.466499 -7.09503,6.72696 -7.39086,7.00511 -7.4506,7.00511 -0.0269,0 -0.46014,-0.42495 -0.96268,-0.94435 z"
     id="path1000" />
  <path
     style="font-variation-settings:normal;opacity:1;vector-effect:none;fill:#ffdd55;fill-opacity:1;stroke-width:0.0034417;stroke-linecap:butt;stroke-linejoin:miter;stroke-miterlimit:4;stroke-dasharray:none;stroke-dashoffset:0;stroke-opacity:1;stop-color:#000000;stop-opacity:1"
     d="m 212.69644,23.652567 -2.1016,-2.203897 1.74004,-1.659309 c 0.95701,-0.912619 1.85557,-1.747643 1.9968,-1.855608 0.24926,-0.190566 0.31549,-0.134324 2.26731,1.925452 1.1058,1.166964 2.0256,2.162361 2.04401,2.211995 0.0184,0.04963 -0.83919,0.921622 -1.90575,1.937753 l -1.93921,1.847512 z"
     id="path1002" />
  <path
     style="font-variation-settings:normal;opacity:1;vector-effect:none;fill:#ffdd55;fill-opacity:1;stroke-width:0.0034417;stroke-linecap:butt;stroke-linejoin:miter;stroke-miterlimit:4;stroke-dasharray:none;stroke-dashoffset:0;stroke-opacity:1;stop-color:#000000;stop-opacity:1"
     d="m 225.66153,36.486032 c -2.56926,-2.770898 -6.63565,-7.272221 -7.64079,-8.458033 -0.42264,-0.498618 -0.56769,-0.761088 -0.51403,-0.930154 0.0411,-0.129539 1.18357,-1.32469 2.53879,-2.65589 2.79142,-2.741947 19.54253,-18.6875061 19.63157,-18.6875061 0.0694,0 11.52768,12.0296761 11.52768,12.1025541 0,0.103136 -22.96689,21.296002 -23.06055,21.279294 -0.0166,-0.003 -1.13385,-1.195589 -2.48267,-2.650265 z"
     id="path1004" />
  <path
     style="font-variation-settings:normal;opacity:1;vector-effect:none;fill:#ffd42a;fill-opacity:1;stroke-width:0.00064276;stroke-linecap:butt;stroke-linejoin:miter;stroke-miterlimit:4;stroke-dasharray:none;stroke-dashoffset:0;stroke-opacity:1;stop-color:#000000;stop-opacity:1"
     d="m 131.11963,94.820972 c -1.37428,-1.465002 -2.49869,-2.72744 -2.49869,-2.80542 0,-0.07798 15.85809,-15.173358 35.2402,-33.545287 19.38211,-18.371929 36.38835,-34.495074 37.79165,-35.829209 1.40329,-1.334135 2.64915,-2.448027 2.76857,-2.475315 0.11942,-0.02729 0.58857,0.360441 1.04255,0.861619 0.45398,0.501178 1.51882,1.614329 2.3663,2.473669 l 1.54089,1.562438 -6.42398,6.105968 c -10.60765,10.082532 -17.84272,17.00281 -27.28181,26.094793 -7.46662,7.192058 -21.36288,20.533518 -38.62132,37.079391 -1.81223,1.737406 -3.32437,3.154887 -3.36031,3.149957 -0.036,-0.0049 -1.18976,-1.207603 -2.56405,-2.672604 z"
     id="path1012" />
  <path
     style="font-variation-settings:normal;opacity:1;vector-effect:none;fill:#ff2a2a;fill-opacity:1;stroke-width:0.00022403;stroke-linecap:butt;stroke-linejoin:miter;stroke-miterlimit:4;stroke-dasharray:none;stroke-dashoffset:0;stroke-opacity:1;stop-color:#000000;stop-opacity:1"
     d="m 21.242118,225.28134 c -0.467284,-0.48502 -1.081781,-1.13037 -1.36555,-1.43411 l -0.515942,-0.55226 7.442924,-7.06345 c 4.093608,-3.88489 7.483186,-7.07847 7.532395,-7.09683 0.04921,-0.0184 0.656545,0.54947 1.349632,1.26185 l 1.260159,1.29522 -2.243725,2.21694 c -1.234049,1.21932 -3.94355,3.85868 -6.021114,5.86526 -2.077565,2.00658 -4.410041,4.26503 -5.183281,5.01878 l -1.405891,1.37046 z"
     id="path890" />
  <path
     style="font-variation-settings:normal;opacity:1;vector-effect:none;fill:#ff2a2a;fill-opacity:1;stroke-width:0.00022403;stroke-linecap:butt;stroke-linejoin:miter;stroke-miterlimit:4;stroke-dasharray:none;stroke-dashoffset:0;stroke-opacity:1;stop-color:#000000;stop-opacity:1"
     d="m 26.62257,230.64954 -1.174302,-1.25416 0.519653,-0.49013 c 4.763809,-4.49324 14.280448,-13.40856 14.337894,-13.43194 0.04193,-0.0171 0.606223,0.50384 1.253985,1.15758 l 1.177749,1.18862 -7.37961,7.00645 c -4.058786,3.85355 -7.420438,7.02249 -7.470338,7.04209 -0.0499,0.0196 -0.619164,-0.52873 -1.265031,-1.21851 z"
     id="path892" />
  <path
     style="font-variation-settings:normal;opacity:1;vector-effect:none;fill:#ff2a2a;fill-opacity:1;stroke-width:0.00022403;stroke-linecap:butt;stroke-linejoin:miter;stroke-miterlimit:4;stroke-dasharray:none;stroke-dashoffset:0;stroke-opacity:1;stop-color:#000000;stop-opacity:1"
     d="m 34.053262,194.67683 -1.417993,-1.51139 8.197394,-7.79552 8.197395,-7.79551 0.286588,0.2608 c 0.157624,0.14343 0.769657,0.78363 1.360074,1.42264 l 1.073487,1.16186 -2.152108,2.058 c -1.18366,1.13191 -4.784095,4.64266 -8.000969,7.80167 -3.216873,3.15901 -5.911189,5.78082 -5.987368,5.82625 -0.08179,0.0488 -0.719175,-0.53631 -1.5565,-1.4288 z"
     id="path894" />
  <path
     style="font-variation-settings:normal;opacity:1;vector-effect:none;fill:#ff2a2a;fill-opacity:1;stroke-width:0.00022403;stroke-linecap:butt;stroke-linejoin:miter;stroke-miterlimit:4;stroke-dasharray:none;stroke-dashoffset:0;stroke-opacity:1;stop-color:#000000;stop-opacity:1"
     d="m 40.196434,201.02821 c -0.703364,-0.6226 -1.295392,-1.21793 -1.315618,-1.32295 -0.05268,-0.27354 15.71575,-15.73088 16.096244,-15.77868 0.162009,-0.0204 2.765363,2.68028 2.765363,2.8687 0,0.14599 -15.928957,15.29347 -16.126342,15.33517 -0.07744,0.0164 -0.716282,-0.47964 -1.419647,-1.10224 z"
     id="path897" />
  <path
     style="font-variation-settings:normal;opacity:1;vector-effect:none;fill:#ff2a2a;fill-opacity:1;stroke-width:0.00022403;stroke-linecap:butt;stroke-linejoin:miter;stroke-miterlimit:4;stroke-dasharray:none;stroke-dashoffset:0;stroke-opacity:1;stop-color:#000000;stop-opacity:1"
     d="m 46.13609,207.10279 c -0.586409,-0.62377 -1.066199,-1.17148 -1.066199,-1.21713 0,-0.23979 1.483021,-1.73407 7.260423,-7.31558 3.490596,-3.37223 6.832679,-6.65793 7.42685,-7.30153 0.59417,-0.64361 1.11844,-1.1702 1.165043,-1.1702 0.139078,0 2.206942,2.42404 2.162077,2.53448 -0.05841,0.14379 -15.742373,15.62323 -15.818997,15.61272 -0.03465,-0.005 -0.542788,-0.519 -1.129197,-1.14276 z"
     id="path899" />
  <path
     style="font-variation-settings:normal;opacity:1;vector-effect:none;fill:#ff2a2a;fill-opacity:1;stroke-width:0.00022403;stroke-linecap:butt;stroke-linejoin:miter;stroke-miterlimit:4;stroke-dasharray:none;stroke-dashoffset:0;stroke-opacity:1;stop-color:#000000;stop-opacity:1"
     d="m 51.703355,212.63003 c -0.465041,-0.47046 -1.023736,-0.96654 -1.241545,-1.10241 -0.217809,-0.13586 -0.396017,-0.29361 -0.396017,-0.35055 0,-0.0569 3.194027,-3.13429 7.097836,-6.83855 3.90381,-3.70427 7.548475,-7.17056 8.099257,-7.70287 l 1.001421,-0.96785 1.130976,1.19504 c 0.622037,0.65726 1.130977,1.26293 1.130977,1.34592 0,0.11652 -14.988643,14.47248 -15.795263,15.12853 -0.151486,0.1232 -0.324316,0.004 -1.027642,-0.70726 z"
     id="path901" />
  <path
     style="font-variation-settings:normal;opacity:1;vector-effect:none;fill:#ffd42a;fill-opacity:1;stroke-width:0.000110763;stroke-linecap:butt;stroke-linejoin:miter;stroke-miterlimit:4;stroke-dasharray:none;stroke-dashoffset:0;stroke-opacity:1;stop-color:#000000;stop-opacity:1"
     d="m 118.09127,118.47384 c -3.543,-3.6009 -6.41219,-6.57272 -6.37597,-6.60406 0.0362,-0.0313 0.47589,-0.19095 0.97706,-0.3547 1.02929,-0.33632 1.40037,-0.7726 1.53952,-1.81005 0.0513,-0.38273 0.14948,-0.69586 0.21811,-0.69586 0.18452,0 12.49564,12.9077 12.49564,13.10117 0,0.0908 -0.38773,0.41778 -0.86162,0.72651 -0.71483,0.46571 -0.90349,0.70079 -1.10741,1.37988 -0.13518,0.4502 -0.29027,0.81532 -0.34464,0.81137 -0.0544,-0.004 -2.99769,-2.95336 -6.54069,-6.55426 z"
     id="path903" />
  <path
     style="font-variation-settings:normal;opacity:1;vector-effect:none;fill:#ffd42a;fill-opacity:1;stroke-width:0.000110763;stroke-linecap:butt;stroke-linejoin:miter;stroke-miterlimit:4;stroke-dasharray:none;stroke-dashoffset:0;stroke-opacity:1;stop-color:#000000;stop-opacity:1"
     d="m 129.06144,109.84615 c -5.23915,-5.51067 -9.52573,-10.066481 -9.52573,-10.124017 0,-0.250247 1.67117,-1.62174 1.77864,-1.459695 0.0643,0.09696 4.0807,4.396342 8.92533,9.554192 4.84463,5.15785 9.01153,9.62033 9.25977,9.91663 l 0.45135,0.53872 -0.60839,0.79679 c -0.33462,0.43823 -0.64143,0.79679 -0.68181,0.79679 -0.0404,0 -4.36,-4.50874 -9.59916,-10.01941 z"
     id="path905" />
  <path
     style="font-variation-settings:normal;opacity:1;vector-effect:none;fill:#ffd42a;fill-opacity:1;stroke-width:0.000110763;stroke-linecap:butt;stroke-linejoin:miter;stroke-miterlimit:4;stroke-dasharray:none;stroke-dashoffset:0;stroke-opacity:1;stop-color:#000000;stop-opacity:1"
     d="m 143.34748,107.76161 -2.55375,-2.77147 0.48587,-0.46581 c 0.26722,-0.2562 8.31798,-7.863456 17.89056,-16.905016 9.57258,-9.041557 26.50147,-25.032207 37.61974,-35.534775 17.61704,-16.64144 20.25012,-19.066469 20.48795,-18.869086 0.49071,0.407246 4.55327,5.33666 4.49884,5.45878 -0.0916,0.205556 -19.52741,18.733825 -52.00862,49.580131 -21.66513,20.574636 -23.50173,22.302366 -23.69451,22.289876 -0.0948,-0.006 -1.32151,-1.25832 -2.72608,-2.78263 z"
     id="path907" />
  <path
     style="font-variation-settings:normal;opacity:1;vector-effect:none;fill:#ffd42a;fill-opacity:1;stroke-width:0.000110763;stroke-linecap:butt;stroke-linejoin:miter;stroke-miterlimit:4;stroke-dasharray:none;stroke-dashoffset:0;stroke-opacity:1;stop-color:#000000;stop-opacity:1"
     d="m 209.77415,24.839946 -4.50984,-4.555666 0.95167,-0.900057 0.95168,-0.900057 0.44985,0.415254 c 0.83495,0.770747 5.30622,5.57499 6.84526,7.355018 l 1.52761,1.766814 -0.75215,0.680112 c -0.41369,0.374062 -0.79763,0.683293 -0.8532,0.68718 -0.0556,0.0039 -2.13047,-2.042982 -4.61088,-4.548598 z"
     id="path909" />
  <path
     style="font-variation-settings:normal;opacity:1;vector-effect:none;fill:#ffd42a;fill-opacity:1;stroke-width:0.000110763;stroke-linecap:butt;stroke-linejoin:miter;stroke-miterlimit:4;stroke-dasharray:none;stroke-dashoffset:0;stroke-opacity:1;stop-color:#000000;stop-opacity:1"
     d="m 220.66106,36.590127 c -4.38032,-5.156411 -4.71024,-5.557161 -4.71024,-5.721583 0,-0.07808 0.29791,-0.465153 0.66202,-0.860164 0.36411,-0.395011 0.74705,-0.868957 0.85099,-1.053213 0.1781,-0.315746 0.23016,-0.295372 0.90531,0.354283 0.39399,0.379112 2.04854,2.12389 3.67677,3.877283 5.16728,5.564485 5.39913,5.859006 4.61224,5.859006 -0.17676,0 -0.77774,0.309998 -1.33551,0.688885 -0.55776,0.378886 -1.10194,0.689069 -1.20929,0.689294 -0.10734,2.26e-4 -1.66087,-1.72498 -3.45229,-3.833791 z"
     id="path911" />
  <path
     style="font-variation-settings:normal;opacity:1;vector-effect:none;fill:#ffd42a;fill-opacity:1;stroke-width:0.000110763;stroke-linecap:butt;stroke-linejoin:miter;stroke-miterlimit:4;stroke-dasharray:none;stroke-dashoffset:0;stroke-opacity:1;stop-color:#000000;stop-opacity:1"
     d="m 248.9194,14.830101 c -3.06896,-3.149196 -8.5712,-9.0212133 -8.64186,-9.2226335 -0.0558,-0.1590688 0.45435,-0.4080117 1.24044,-0.6053089 0.33715,-0.084619 1.04907,0.5926879 5.03287,4.7882341 2.55209,2.6877373 4.82552,5.0937933 5.05205,5.3467913 0.38855,0.43394 0.39948,0.504275 0.19301,1.24172 -0.12038,0.429948 -0.30573,0.781832 -0.41188,0.781964 -0.10616,1.31e-4 -1.21524,-1.048714 -2.46463,-2.330767 z"
     id="path913" />
  <path
     style="font-variation-settings:normal;opacity:1;vector-effect:none;fill:#ffd42a;fill-opacity:1;stroke-linecap:butt;stroke-linejoin:miter;stroke-miterlimit:4;stroke-dasharray:none;stroke-dashoffset:0;stroke-opacity:1;stop-color:#000000;stop-opacity:1"
     d="m 14.380246,237.11193 c -6.7030491,-7.16146 -8.8938615,-9.6247 -9.2967549,-10.45279 -0.2740437,-0.56326 -0.2284789,-0.98265 0.1600255,-1.47289 0.1817543,-0.22936 0.5430789,-0.59818 0.8029436,-0.81962 l 0.4724812,-0.40261 6.2407876,6.72354 c 3.432434,3.69795 6.251632,6.75176 6.264884,6.78625 0.01325,0.0345 -0.291271,0.36402 -0.676722,0.73228 -0.482572,0.46104 -0.871844,0.7471 -1.25001,0.91857 -0.302056,0.13696 -0.560773,0.24902 -0.574928,0.24902 -0.01416,0 -0.978373,-1.01779 -2.142707,-2.26175 z"
     id="path915" />
</svg>
