<?xml version="1.0" encoding="UTF-8" standalone="no"?>
<svg
   xmlns:dc="http://purl.org/dc/elements/1.1/"
   xmlns:cc="http://creativecommons.org/ns#"
   xmlns:rdf="http://www.w3.org/1999/02/22-rdf-syntax-ns#"
   xmlns:svg="http://www.w3.org/2000/svg"
   xmlns="http://www.w3.org/2000/svg"
   xmlns:sodipodi="http://sodipodi.sourceforge.net/DTD/sodipodi-0.dtd"
   xmlns:inkscape="http://www.inkscape.org/namespaces/inkscape"
   cursor="default"
   viewBox="0 0 256 256"
   version="1.1"
   id="svg50"
   sodipodi:docname="bladeencarmine.svg"
   inkscape:version="1.0.2-2 (e86c870879, 2021-01-15)">
  <metadata
     id="metadata56">
    <rdf:RDF>
      <cc:Work
         rdf:about="">
        <dc:format>image/svg+xml</dc:format>
        <dc:type
           rdf:resource="http://purl.org/dc/dcmitype/StillImage" />
      </cc:Work>
    </rdf:RDF>
  </metadata>
  <defs
     id="defs54" />
  <sodipodi:namedview
     pagecolor="#ffffff"
     bordercolor="#666666"
     borderopacity="1"
     objecttolerance="10"
     gridtolerance="10"
     guidetolerance="10"
     inkscape:pageopacity="0"
     inkscape:pageshadow="2"
     inkscape:window-width="1920"
     inkscape:window-height="1017"
     id="namedview52"
     showgrid="false"
     inkscape:zoom="2.0516816"
     inkscape:cx="153.71577"
     inkscape:cy="186.74584"
     inkscape:window-x="-8"
     inkscape:window-y="-8"
     inkscape:window-maximized="1"
     inkscape:current-layer="svg50"
     inkscape:document-rotation="0" />
  <path
     style="fill:#000000;stroke-width:0.279392"
     d="m 245.07653,7.4257615 c -2.4782,10.4812845 -5.01677,16.5948265 -9.42648,22.7014105 -3.31705,4.593444 -12.64768,15.499244 -20.14457,23.545288 -10.51895,11.289414 -51.81211,54.59344 -97.29739,102.03546 -12.34028,12.87114 -22.441831,23.50028 -22.447884,23.62026 -0.0061,0.11986 0.975087,1.50824 2.180303,3.08498 2.695481,3.52638 4.565411,6.98045 5.389951,9.95604 0.49225,1.77639 0.55263,2.70731 0.28269,4.35825 -0.3803,2.32574 -0.93874,3.19587 -1.43941,2.24286 -0.16602,-0.31601 -0.89624,-1.98631 -1.6227,-3.71181 -1.942956,-4.61483 -2.890193,-5.47156 -6.686107,-6.04728 l -1.999439,-0.30325 0.113301,-1.758 c 0.126523,-1.96332 -0.43523,-4.49418 -1.12284,-5.05865 -0.248012,-0.20368 -1.070883,-0.3355 -1.828603,-0.29313 l -1.377677,0.0771 -3.624741,3.27686 -3.624737,3.27683 0.0071,1.22359 c 0.01299,2.21841 1.852701,3.48322 5.882575,4.04408 l 2.21058,0.30768 1.063474,3.8886 c 1.196947,4.3766 1.912524,6.057 3.162475,7.42652 1.04385,1.14374 4.247463,2.91322 10.410029,5.74996 4.65121,2.14102 5.15508,2.42621 4.82069,2.7285 -0.31293,0.28291 -4.14261,0.58151 -6.86359,0.53518 -7.242909,-0.12321 -20.840701,-5.96183 -30.568609,-13.1253 -1.285177,-0.94638 -2.5161,-1.74653 -2.735388,-1.77813 -0.70598,-0.10163 -2.486294,0.84619 -3.096861,1.64882 -0.323693,0.4254 -0.60349,1.29352 -0.621902,1.92903 -0.04109,1.41945 -0.483258,1.85943 -1.627957,1.62001 -1.326024,-0.27736 -4.678994,1.44007 -7.115562,3.64471 -2.118032,1.91624 -8.443274,8.19729 -25.729304,25.54878 l -11.748651,11.79312 -0.873506,1.9501 c -1.559974,3.48259 -3.70552,5.05321 -6.967561,5.1005 -1.8316272,0.0266 -3.1202623,-0.57616 -4.5319419,-2.11971 -1.3421109,-1.46744 -2.1436601,-3.4587 -2.0936,-5.20083 0.073131,-2.54634 2.7437743,-5.78709 5.215078,-6.32847 l 1.3437453,-0.29435 6.6317656,-6.92341 c 12.167865,-12.70291 27.061945,-28.4235 29.549342,-31.18911 2.126869,-2.36473 2.587506,-3.03535 3.409516,-4.9637 0.598372,-1.4037 0.929214,-2.69382 0.893164,-3.48286 -0.06575,-1.43918 0.102278,-1.66112 1.323558,-1.74829 1.824184,-0.13013 3.721074,-2.81349 3.133317,-4.43243 -0.127529,-0.35126 -1.349747,-2.08564 -2.716062,-3.85415 -8.934807,-11.56499 -12.195528,-20.0868 -11.002005,-28.75335 0.420556,-3.05386 0.59322,-2.95814 2.852612,1.58135 0.867828,1.7436 2.22599,4.46457 3.018131,6.04661 1.568016,3.13152 2.709492,4.59367 4.083278,5.2304 0.809755,0.37529 3.237165,0.90353 6.199983,1.34919 l 1.159371,0.17434 0.485091,1.42188 c 0.656681,1.92488 2.436312,3.91955 3.546914,3.97554 0.691788,0.0348 1.064165,-0.20912 3.015824,-1.97594 3.7179,-3.36673 5.078038,-5.3711 4.784937,-7.05544 -0.126145,-0.72498 -1.610598,-0.8465 -3.615556,-0.29596 -0.829781,0.22784 -1.571367,0.41439 -1.647991,0.41454 -0.07665,1.1e-4 -0.178972,-0.60722 -0.22745,-1.34976 -0.258398,-3.9571 -1.579328,-5.92187 -4.482287,-6.66699 -0.952335,-0.24447 -2.305828,-0.7382 -3.007762,-1.09719 -2.275038,-1.16356 -1.561014,-1.75768 2.855664,-2.37624 2.952443,-0.41345 6.118347,0.86869 10.54479,4.27056 l 2.116277,1.62642 2.90901,-2.87275 C 93.332651,138.41592 158.07554,74.758493 181.06104,52.234064 c 34.21649,-33.5301 38.67375,-37.506204 46.91195,-41.847817 4.28032,-2.2557877 16.94428,-7.0212463 17.62985,-6.634134 0.16617,0.093876 -0.0708,1.7469088 -0.52633,3.6736275 z M 242.9236,4.9855123 c -5.22589,1.6592353 -12.7317,4.7623363 -16.15845,6.6803377 -4.48772,2.51183 -6.52586,4.103257 -14.17934,11.071509 -4.09102,3.723792 -11.03924,10.286429 -15.44152,14.582487 C 169.89167,63.91478 73.480254,158.71656 73.454023,158.94507 c -0.008,0.0687 0.590387,0.66524 1.329653,1.32547 1.31364,1.17343 1.366527,1.19109 2.340745,0.78196 1.537756,-0.64586 4.144734,-1.1654 5.684477,-1.13292 l 1.392688,0.0293 22.217204,-22.33835 C 214.89637,28.54134 222.88066,20.601808 228.27897,16.4333 c 3.0451,-2.351382 8.17566,-5.779046 11.67839,-7.8021554 1.17307,-0.6775408 1.30961,-0.6961274 1.19916,-0.1634446 -0.17015,0.8211207 -3.47796,6.476095 -5.56443,9.513085 -2.24944,3.274131 -4.96706,6.367886 -12.90019,14.685604 -12.19458,12.785833 -29.99782,31.109715 -99.30693,102.211211 -12.78971,13.12045 -25.227543,25.89063 -27.63964,28.37815 l -4.385638,4.52279 0.07812,1.33628 c 0.04298,0.73498 0.01739,2.15819 -0.05662,3.1627 l -0.134758,1.82641 1.95269,2.43176 1.952673,2.43172 0.830835,-0.91154 c 0.456876,-0.50144 12.435528,-13.00971 26.619128,-27.79631 67.21368,-70.071059 93.1555,-97.421024 101.41977,-106.925014 12.28774,-14.131004 15.17009,-18.432657 17.92841,-26.756661 1.07146,-3.233542 3.34365,-11.9728844 3.17325,-12.2051224 -0.0285,-0.037718 -1.01784,0.2374766 -2.19954,0.6126868 z m -7.41831,7.0667167 c -6.6053,4.24493 -9.3282,6.533846 -18.61854,15.651017 -10.10226,9.913944 -40.83655,40.72204 -111.59955,111.867574 -11.211576,11.27215 -20.419942,20.52674 -20.463055,20.56572 -0.04313,0.039 0.521501,0.33361 1.254703,0.65472 1.748325,0.76574 3.97274,3.13441 4.614983,4.91428 0.246573,0.68332 0.495727,1.24016 0.553683,1.2374 0.058,-0.002 1.245672,-1.18093 2.639162,-2.61834 1.393629,-1.43729 12.997954,-13.34838 25.787414,-26.46911 69.86326,-71.672832 91.74074,-94.186595 102.53389,-105.515948 10.51301,-11.03532 12.20337,-13.104906 16.06586,-19.670414 1.44013,-2.44794 1.8395,-3.321614 1.45455,-3.1821831 -0.29183,0.1056104 -2.19223,1.2600321 -4.22314,2.5652211 z M 85.837489,161.31089 c -1.778906,-0.98891 -4.090541,-1.02595 -7.206783,-0.11546 -2.552684,0.74579 -2.620503,0.7847 -4.218443,2.42126 -2.067908,2.11804 -2.856228,3.89512 -3.139895,7.07896 -0.311617,3.49738 -0.0088,4.35326 2.413711,6.82436 1.348456,1.37544 2.273433,2.12149 2.921528,2.35632 1.657721,0.6007 4.789437,0.54035 7.212981,-0.13893 2.170264,-0.60835 2.440419,-0.7589 4.187621,-2.33392 2.21548,-1.99721 2.709483,-3.05992 2.866058,-6.16614 0.238416,-4.72979 -1.361757,-7.88333 -5.036778,-9.92631 z m 0.192026,6.97936 c 0.678241,2.12714 -0.475355,4.47308 -2.893628,5.8844 -1.689393,0.98593 -3.299965,1.01816 -5.291838,0.10582 -1.309248,-0.59965 -1.389,-0.6793 -1.944178,-1.9416 -0.597373,-1.35824 -0.572106,-3.35585 0.05806,-4.58896 1.146067,-2.24262 4.863265,-3.63272 7.295541,-2.72828 1.097114,0.40796 2.324826,1.85352 2.776038,3.26862 z m -3.767717,-2.88005 c -1.617205,-0.23844 -3.684396,0.37352 -4.864028,1.43993 -1.067392,0.96495 -1.528731,2.46343 -1.289214,4.18754 0.298752,2.15053 2.94874,3.78818 5.339692,3.29986 1.404235,-0.2868 3.575957,-2.27766 4.028177,-3.6927 0.72253,-2.2609 -0.893485,-4.8924 -3.214627,-5.23463 z m 8.100915,10.32721 c -0.410904,0.75153 -1.142685,1.53885 -2.29501,2.46917 l -1.691752,1.36583 0.787715,0.0736 c 3.648109,0.3403 5.478802,2.71023 5.405943,6.99826 l -0.03254,1.91521 1.48572,0.15066 c 2.121692,0.21514 3.68738,0.88349 4.703924,2.00794 0.875177,0.9681 2.637787,4.43742 3.431587,6.75433 l 0.42675,1.2456 0.33874,-1.42665 c 0.71469,-3.00993 0.2892,-4.86132 -2.20693,-9.60306 -1.133431,-2.15311 -3.964726,-6.02532 -7.593217,-10.38483 -0.688689,-0.82745 -1.455915,-1.76652 -1.704914,-2.08687 l -0.452748,-0.58239 z M 70.355685,157.48924 c -4.001009,-3.06352 -6.076423,-4.05976 -8.638227,-4.14655 -1.104336,-0.0375 -2.719766,0.10247 -3.589849,0.31098 l -1.581972,0.37901 1.069256,0.57939 c 0.588091,0.31867 1.886749,0.81693 2.885894,1.10723 3.075181,0.8935 4.20517,2.28745 4.713804,5.81498 l 0.278111,1.92878 1.510738,-0.33169 c 2.604002,-0.5717 4.43705,0.0639 4.761163,1.65081 l 0.177526,0.86915 0.722375,-0.96095 c 0.397375,-0.52845 1.220346,-1.41853 1.829002,-1.97779 l 1.106363,-1.0171 -1.127056,-0.95846 c -0.619885,-0.52715 -2.472705,-1.98879 -4.117384,-3.24811 z M 88.87193,180.5488 c -2.001312,-0.49607 -3.916525,-0.53832 -5.441976,-0.12007 -2.001005,0.54865 -5.403232,0.50727 -6.998471,-0.0851 -1.463634,-0.54354 -4.724882,-3.7199 -5.409669,-5.26885 -0.562084,-1.27141 -0.489251,-5.27136 0.132704,-7.28854 0.265665,-0.86163 0.408916,-1.75382 0.318342,-1.98267 -0.09059,-0.22884 -0.222186,-0.59651 -0.292486,-0.81707 -0.07481,-0.23469 -0.212757,0.002 -0.332681,0.56966 -0.112672,0.53388 -0.724387,1.61465 -1.359342,2.4017 -1.263982,1.5668 -5.511564,5.51514 -6.2329,5.79371 -1.315968,0.50833 -4.130591,-2.00655 -4.883237,-4.3632 l -0.413203,-1.29379 -1.36538,-0.11147 c -2.000324,-0.16324 -3.958015,-0.56667 -5.355125,-1.10342 -2.264695,-0.87009 -2.824235,-1.72183 -7.882964,-11.99941 -0.70497,-1.43226 -1.345338,-2.6073 -1.423037,-2.61124 -0.07774,-0.004 -0.220294,1.39456 -0.316873,3.10771 -0.541986,9.61455 3.769976,18.20647 16.818771,33.51289 4.495274,5.27304 6.962043,7.64345 11.830979,11.36894 8.729005,6.679 22.229099,12.81586 29.543406,13.42978 1.686692,0.14166 5.486812,0.0168 6.582942,-0.21507 0.21429,-0.0455 -0.64318,-0.55544 -1.90543,-1.13332 -10.831184,-4.95864 -12.491879,-6.07438 -13.880574,-9.32565 -0.356938,-0.83568 -1.073029,-3.09667 -1.591303,-5.02444 l -0.94233,-3.50502 -1.913471,-0.2463 c -3.715838,-0.47831 -6.230122,-2.10609 -6.36853,-4.12304 -0.113154,-1.64874 0.483159,-2.51346 3.802642,-5.51435 3.102032,-2.80431 4.215463,-3.47118 5.79406,-3.47035 0.857568,4.4e-4 0.583055,-0.30987 -0.514897,-0.58207 z m -29.165595,10.54329 -4.046977,-4.47664 -0.302458,1.17961 c -0.403662,1.5743 -1.986561,3.07376 -3.343116,3.16686 -1.070495,0.0736 -1.255631,0.47829 -0.876476,1.91639 0.794817,3.01467 5.592958,8.10411 9.983005,10.5891 1.795393,1.01629 2.212464,0.90259 2.392409,-0.65211 0.19343,-1.67122 1.079287,-2.84075 2.636246,-3.48045 l 1.19267,-0.49001 -1.794148,-1.63806 c -0.986791,-0.90091 -3.615299,-3.65252 -5.84114,-6.11467 z m -2.022405,10.71679 c -2.085847,-1.56404 -5.307001,-4.99078 -6.172497,-6.56645 -0.323142,-0.58827 -0.603611,-1.05505 -0.623279,-1.03726 -0.0197,0.0168 -0.436936,0.89553 -0.927253,1.95054 -1.020341,2.19546 -1.121586,1.96909 2.044803,4.57192 1.149716,0.94509 2.419216,2.25414 3.339641,3.4437 l 1.48487,1.91905 1.514467,-0.74866 c 0.832947,-0.41178 1.737274,-0.85612 2.009617,-0.98744 0.428229,-0.20661 0.40441,-0.30233 -0.176688,-0.70903 -0.369519,-0.25865 -1.491675,-1.08503 -2.493689,-1.83637 z m -7.543994,-1.86054 -1.50407,-1.15185 -1.017244,1.08542 c -0.559462,0.59702 -1.022639,1.19258 -1.029282,1.32351 -0.0063,0.13096 0.675027,0.772 1.514692,1.4245 0.843724,0.65564 2.478916,2.30557 3.655185,3.68815 l 2.128464,2.50179 1.284336,-1.16144 1.284335,-1.16142 -0.894329,-1.16886 c -1.266461,-1.65523 -3.660814,-4.03103 -5.421964,-5.37961 z m -2.838312,2.7721 -1.269588,-0.92377 -1.180929,1.19159 c -0.649567,0.65531 -1.184115,1.25381 -1.18797,1.32987 -0.0042,0.0761 0.771291,0.67553 1.722455,1.33208 1.121293,0.77397 2.43149,1.98283 3.725919,3.4377 l 1.996484,2.24397 1.115363,-1.00831 c 0.887976,-0.80274 1.067801,-1.09977 0.882266,-1.45669 -0.471745,-0.90743 -4.573225,-5.25089 -5.803938,-6.14637 z m -2.471556,3.21913 -1.73333,-1.23604 -1.060253,1.16639 c -0.58312,0.64156 -1.066706,1.19848 -1.074669,1.23763 -0.0084,0.0392 0.644391,0.48534 1.449586,0.99152 0.997746,0.62721 2.197031,1.72704 3.765681,3.45338 l 2.301753,2.53299 1.053522,-0.95246 c 0.579438,-0.52384 1.059519,-1.07082 1.066794,-1.21553 0.02657,-0.52711 -4.052349,-4.75377 -5.768958,-5.97788 z m -1.371363,3.63624 c -0.66019,-0.50016 -1.593082,-1.16295 -2.073106,-1.47286 l -0.872795,-0.56349 -1.309233,1.31156 c -1.234237,1.23637 -1.278766,1.33059 -0.776907,1.64392 2.650779,1.65515 3.746172,2.58517 5.376867,4.56507 l 1.754264,2.12991 0.81584,-0.96943 c 0.448635,-0.53325 0.983706,-1.12121 1.188892,-1.3067 0.278485,-0.25177 0.215538,-0.55297 -0.248247,-1.18797 -1.269441,-1.73811 -2.689335,-3.26646 -3.855491,-4.14992 z m -4.390039,1.98267 -1.448433,-0.8734 -1.222545,1.21649 c -1.390516,1.38362 -1.475465,1.16014 1.172841,3.08403 0.979263,0.7114 2.500702,2.09014 3.380977,3.06387 l 1.60048,1.77042 1.229774,-1.11173 c 1.179777,-1.06656 1.21278,-1.13848 0.811879,-1.76973 -0.870447,-1.37057 -4.114425,-4.52937 -5.524973,-5.37995 z m -1.265543,4.26002 c -0.660191,-0.50016 -1.63497,-1.18963 -2.166207,-1.53219 l -0.965874,-0.62281 -1.245951,1.32239 c -0.685231,0.72737 -1.249932,1.40173 -1.254857,1.4986 -0.0042,0.0968 0.692356,0.54465 1.549435,0.99494 1.236039,0.64938 1.99767,1.29777 3.682658,3.13516 l 2.12434,2.31645 1.399107,-1.26456 1.399086,-1.26456 -1.660681,-1.83701 c -0.913404,-1.01036 -2.200865,-2.24623 -2.861035,-2.74637 z m -4.538271,2.08987 -1.760759,-0.99446 -1.022472,1.16867 c -0.562312,0.6428 -1.02484,1.21597 -1.027752,1.27378 -0.0021,0.0578 0.783947,0.4851 1.748564,0.94949 1.399819,0.67391 2.179827,1.27654 3.864103,2.98546 l 2.110259,2.14115 0.74778,-0.68165 c 1.340916,-1.22353 1.215672,-1.64503 -1.236228,-4.14959 -1.052479,-1.07505 -2.308844,-2.0633 -3.423411,-2.69279 z m -0.455528,4.05648 c -0.542008,-0.37795 -1.648276,-1.03035 -2.458396,-1.44977 -1.574202,-0.81505 -1.792023,-0.75614 -2.943679,0.79595 l -0.516004,0.69556 1.773689,0.89822 c 1.368681,0.69311 2.259287,1.38856 3.900459,3.04579 1.752127,1.76928 2.161367,2.07937 2.323177,1.76032 0.108125,-0.21294 0.561893,-0.71755 1.008537,-1.12134 l 0.812069,-0.73412 -1.457214,-1.60161 c -0.801424,-0.88088 -1.900589,-1.91087 -2.442575,-2.28881 z m -4.654358,1.31764 -1.859309,-0.90398 -0.818585,0.92674 c -0.450311,0.50963 -0.823132,1.01557 -0.828559,1.12426 -0.0063,0.10855 0.685399,0.58725 1.53529,1.06355 1.885103,1.0565 4.522471,3.16655 5.270062,4.21636 l 0.551647,0.77467 1.127642,-1.01941 1.127642,-1.01942 -2.12325,-2.12939 c -1.698567,-1.70347 -2.49515,-2.3102 -3.98258,-3.03336 z m -1.944488,2.93031 -2.174715,-1.32958 -0.741724,0.6762 c -0.408088,0.37175 -0.888846,0.90324 -1.068216,1.18124 l -0.326365,0.50519 1.989373,1.23022 c 1.418594,0.87725 2.467133,1.7587 3.654433,3.07206 l 1.665061,1.84182 0.774392,-0.70573 c 1.172212,-1.06819 1.496775,-1.71738 1.143672,-2.29124 -0.651432,-1.05866 -2.803704,-2.88882 -4.91589,-4.18016 z m -3.123259,2.35272 -1.517961,-0.88757 -0.973941,0.78246 c -1.488562,1.19569 -1.450404,1.44142 0.382607,2.46689 0.862107,0.48233 2.534502,1.72312 3.716416,2.75733 1.181914,1.0342 2.214696,1.81249 2.295077,1.72956 0.07984,-0.0836 0.53065,-0.49949 1.001245,-0.92493 l 0.855654,-0.77354 -2.12082,-2.13156 c -1.264747,-1.27116 -2.733549,-2.48985 -3.638759,-3.01914 z m 0.674334,5.03994 c -0.825898,-0.70344 -2.265887,-1.73211 -3.199952,-2.28594 l -1.698336,-1.00698 -0.869693,0.79188 c -1.394895,1.26949 -1.33857,1.47505 0.662851,2.43175 1.339094,0.64011 2.210924,1.2949 3.683644,2.76663 l 1.929317,1.92806 1.112199,-1.00546 1.112199,-1.00545 -0.615306,-0.66784 c -0.338498,-0.36723 -1.291066,-1.24331 -2.116944,-1.94673 z m -5.512337,0.36947 -1.924267,-0.99102 -0.829188,0.74958 c -0.696463,0.62964 -0.75788,0.79053 -0.383341,1.00567 3.358661,1.9289 3.98983,2.41789 5.384495,4.17159 l 1.437579,1.80763 0.888028,-0.80278 c 0.488406,-0.44153 0.897206,-0.93822 0.908438,-1.10373 0.04568,-0.674 -3.537109,-3.83542 -5.481744,-4.83694 z m -1.743744,2.25493 -2.035724,-1.19218 -0.923651,0.83499 c -0.507998,0.45924 -0.891444,0.87057 -0.852238,0.91395 0.03918,0.0434 0.893958,0.49953 1.899352,1.01357 1.640062,0.83855 2.000248,1.14671 3.503855,2.99761 l 1.675936,2.06299 0.833693,-0.88418 c 0.773701,-0.82034 0.797023,-0.93664 0.32494,-1.61198 -1.352672,-1.93508 -2.499759,-3.00663 -4.426184,-4.13481 z m -2.896176,1.71011 c -1.242117,-0.54159 -1.699741,-0.6139 -1.861886,-0.29416 -0.118183,0.23316 -0.41012,0.60041 -0.648645,0.81605 l -0.433694,0.39206 0.847964,0.0809 c 2.471848,0.23569 4.88603,2.11855 5.63733,4.39661 0.252606,0.76595 0.490711,1.4274 0.529141,1.46992 0.03835,0.0425 0.436712,-0.25441 0.885095,-0.65975 0.975869,-0.88221 0.86678,-1.12924 -1.664013,-3.7686 -1.293852,-1.34932 -1.995407,-1.86794 -3.29125,-2.43295 z m 0.05113,2.24131 c -1.359628,-0.75583 -3.7738731,-0.97874 -5.378124,-0.49658 -0.802534,0.24121 -1.3867019,0.64819 -2.2583646,1.57328 -2.6421453,2.80412 -2.6765315,6.02105 -0.094924,8.87678 1.7553533,1.94173 3.5167625,2.40021 6.1567076,1.60258 1.703722,-0.51477 2.675568,-1.29888 3.688883,-2.97631 2.098146,-3.47313 1.308646,-6.67696 -2.11424,-8.57975 z"
     id="path915" />
  <path
     style="font-variation-settings:normal;opacity:1;vector-effect:none;fill:#ff5555;fill-opacity:1;stroke-width:0.000422706;stroke-linecap:butt;stroke-linejoin:miter;stroke-miterlimit:4;stroke-dasharray:none;stroke-dashoffset:0;stroke-opacity:1;stop-color:#000000;stop-opacity:1"
     d="m 8.4959895,251.91069 c -0.896343,-0.29043 -1.3853083,-0.60655 -2.2334738,-1.44394 -2.928728,-2.89152 -3.0158125,-6.22232 -0.2398355,-9.1732 1.4463045,-1.53743 2.1530089,-1.84545 4.2341088,-1.84545 2.149203,0 3.650242,0.5743 5.029864,1.92442 0.521193,0.51004 0.888467,1.01182 1.159454,1.58406 0.793613,1.67587 0.559195,3.7689 -0.650312,5.80641 -1.026665,1.7295 -2.296455,2.65875 -4.284323,3.13532 -1.22891,0.29462 -2.1329518,0.29833 -3.0154825,0.0124 z"
     id="path917" />
  <path
     style="font-variation-settings:normal;opacity:1;vector-effect:none;fill:#cdde87;fill-opacity:1;stroke-width:0.00215205;stroke-linecap:butt;stroke-linejoin:miter;stroke-miterlimit:4;stroke-dasharray:none;stroke-dashoffset:0;stroke-opacity:1;stop-color:#000000;stop-opacity:1"
     d="m 90.698656,165.85817 c -1.018421,-2.28779 -2.732606,-4.08092 -4.92069,-5.14734 -0.546105,-0.26615 -0.972607,-0.53435 -0.94778,-0.59599 0.08241,-0.20462 101.640954,-102.140247 118.799244,-119.240348 9.27556,-9.244103 17.98907,-17.843694 19.36335,-19.110199 5.40799,-4.983873 8.85466,-7.547792 16.14929,-12.0131787 1.02493,-0.6274111 0.9214,-0.1530244 -0.51314,2.3512207 -4.69429,8.194747 -5.78394,9.420777 -36.8313,41.441109 C 184.93441,70.935125 91.339473,167.02135 91.261934,167.02135 c -0.02501,0 -0.278488,-0.52343 -0.563278,-1.16318 z"
     id="path919" />
  <path
     style="font-variation-settings:normal;opacity:1;vector-effect:none;fill:#cdde87;fill-opacity:1;stroke-width:0.00304345;stroke-linecap:butt;stroke-linejoin:miter;stroke-miterlimit:4;stroke-dasharray:none;stroke-dashoffset:0;stroke-opacity:1;stop-color:#000000;stop-opacity:1"
     d="m 93.18266,176.61603 c -1.064059,-1.34591 -1.92682,-2.66681 -1.917246,-2.93533 0.0096,-0.26853 0.03699,-1.72924 0.06093,-3.24601 l 0.04352,-2.75777 25.162286,-25.828 C 225.07696,30.432364 229.7812,25.552358 234.24161,19.741286 c 2.41743,-3.149445 7.07756,-11.0570113 6.72435,-11.410227 -0.29577,-0.295769 -7.85942,4.560929 -12.15156,7.802645 -1.27537,0.963249 -4.01703,3.317897 -6.09256,5.232551 -4.07455,3.758713 -59.60412,59.274631 -108.26872,108.242085 l -30.165737,30.35347 -2.246698,0.13928 c -1.235683,0.0766 -2.959527,0.36526 -3.830764,0.64147 -0.871236,0.2762 -1.768332,0.5036 -1.993547,0.50533 -0.225215,0.002 -0.976534,-0.51826 -1.669598,-1.15553 l -1.260118,-1.15868 5.203285,-5.11002 C 81.35175,151.01316 93.947012,138.6192 106.47942,126.28154 162.70437,70.930293 196.06844,38.231974 203.83858,30.865102 218.91798,16.568316 222.435,13.719363 228.93994,10.531854 233.9793,8.062494 244.6914,4.014325 245.10141,4.4243338 245.5362,4.8591162 241.83025,17.60708 240.18984,21.31948 236.26825,30.194423 227.67967,40.232281 191.04683,78.755135 179.96785,90.40571 102.0289,171.90869 95.892995,178.26019 l -0.775682,0.80294 z"
     id="path921" />
  <path
     style="font-variation-settings:normal;opacity:1;vector-effect:none;fill:#ff5555;fill-opacity:1;stroke-width:0.000103015;stroke-linecap:butt;stroke-linejoin:miter;stroke-miterlimit:4;stroke-dasharray:none;stroke-dashoffset:0;stroke-opacity:1;stop-color:#000000;stop-opacity:1"
     d="m 78.934695,174.18399 c -2.025076,-0.75004 -2.937518,-2.19211 -2.79575,-4.41853 0.07483,-1.17523 0.243791,-1.70971 0.750445,-2.37397 0.816739,-1.0708 2.44687,-1.87663 4.129035,-2.04112 2.571328,-0.25144 4.567891,1.59066 4.576261,4.22222 0.0033,1.05269 -0.126564,1.42954 -0.788024,2.28592 -1.730878,2.24092 -3.842452,3.07717 -5.871967,2.32548 z"
     id="path925" />
  <path
     style="font-variation-settings:normal;opacity:1;vector-effect:none;fill:#ffdd55;fill-opacity:1;stroke-width:0.000412621;stroke-linecap:butt;stroke-linejoin:miter;stroke-miterlimit:4;stroke-dasharray:none;stroke-dashoffset:0;stroke-opacity:1;stop-color:#000000;stop-opacity:1"
     d="m 61.728792,203.78727 c -4.836504,-2.33917 -10.7804,-8.88569 -10.7804,-11.87338 0,-0.60057 0.256718,-0.83824 1.072556,-0.99296 0.841175,-0.15953 1.452725,-0.48706 2.079253,-1.11358 0.693824,-0.69383 1.055152,-1.34171 1.303982,-2.33811 0.113632,-0.45502 0.245493,-0.81143 0.293025,-0.79203 0.04753,0.0194 1.150692,1.21355 2.451465,2.65367 3.399299,3.76345 5.867748,6.36152 7.608178,8.00768 0.835729,0.79046 1.51953,1.47072 1.519558,1.51168 3e-5,0.041 -0.315237,0.195 -0.700592,0.3423 -1.781715,0.68107 -2.634274,1.61842 -2.945782,3.23876 -0.237217,1.2339 -0.251789,1.27841 -0.499616,1.52624 -0.320008,0.32001 -0.410707,0.30899 -1.401627,-0.17027 z"
     id="path927" />
  <path
     style="font-variation-settings:normal;opacity:1;vector-effect:none;fill:#ffdd55;fill-opacity:1;stroke-width:0.000412621;stroke-linecap:butt;stroke-linejoin:miter;stroke-miterlimit:4;stroke-dasharray:none;stroke-dashoffset:0;stroke-opacity:1;stop-color:#000000;stop-opacity:1"
     d="m 99.677737,213.70349 c -7.238985,-0.68942 -20.330967,-6.61968 -29.050365,-13.15892 -5.281743,-3.96111 -8.232011,-6.85616 -13.847551,-13.58838 -9.429063,-11.30408 -13.716039,-18.76091 -14.929856,-25.96923 -0.371915,-2.20864 -0.27911,-8.79733 0.122032,-8.66362 0.07724,0.0257 1.254969,2.26312 2.617168,4.97193 2.848059,5.66353 3.708364,7.17469 4.678668,8.21828 0.827054,0.88951 1.746946,1.35725 3.569254,1.81488 1.093538,0.27461 3.32835,0.61588 4.62867,0.70684 l 0.485728,0.034 0.375176,1.04753 c 0.514543,1.43667 0.924765,2.09627 1.933354,3.10869 0.966712,0.97038 1.897425,1.50987 2.604817,1.50987 0.408348,0 0.622227,-0.1261 1.618581,-0.9543 1.56228,-1.2986 3.952477,-3.61005 4.772927,-4.61567 0.650676,-0.79753 1.553809,-2.28887 1.553809,-2.56579 0,-0.0738 0.06115,-0.28863 0.135891,-0.47729 l 0.135891,-0.34302 0.220626,0.4874 c 0.295767,0.65341 0.289133,0.93417 -0.05366,2.27137 -0.38904,1.51761 -0.5606,2.9043 -0.5606,4.53123 0,1.89432 0.17117,2.73457 0.734668,3.60642 0.933947,1.44499 3.493975,3.87813 4.70248,4.4694 1.441232,0.70513 4.636138,0.8301 7.113533,0.27825 1.977857,-0.44058 4.830365,-0.29284 6.314572,0.32705 0.521805,0.21794 0.393573,0.41787 -0.26801,0.41787 -0.761095,0 -1.64246,0.29911 -2.460975,0.83518 -1.801729,1.18 -5.950443,5.06164 -6.573064,6.14993 -0.461286,0.80628 -0.554417,2.00835 -0.214816,2.77269 0.32254,0.72595 0.763886,1.22517 1.536476,1.73799 1.208062,0.80187 2.698506,1.27192 5.070111,1.599 0.766561,0.10573 1.410114,0.20859 1.430117,0.2286 0.02,0.02 0.38821,1.32111 0.818235,2.89135 2.08218,7.6031 2.642784,8.40435 7.826078,11.18553 0.997485,0.53522 2.855438,1.45605 4.128788,2.0463 3.267,1.51439 5.47217,2.64053 5.44977,2.78309 -0.0105,0.067 -0.29121,0.15651 -0.62374,0.19886 -1.09891,0.13997 -4.92958,0.20817 -5.994783,0.10672 z"
     id="path929" />
  <path
     style="font-variation-settings:normal;opacity:1;vector-effect:none;fill:#ffdd55;fill-opacity:1;stroke-width:0.000412621;stroke-linecap:butt;stroke-linejoin:miter;stroke-miterlimit:4;stroke-dasharray:none;stroke-dashoffset:0;stroke-opacity:1;stop-color:#000000;stop-opacity:1"
     d="m 71.837262,165.2362 c -0.237561,-1.07297 -0.559376,-1.54608 -1.329209,-1.9541 -0.761394,-0.40355 -3.012724,-0.32402 -4.831072,0.17067 -0.166269,0.0452 -0.23155,-0.16744 -0.405293,-1.32034 -0.386332,-2.56359 -0.800216,-3.7274 -1.655584,-4.65536 -0.69239,-0.75116 -1.475147,-1.1746 -3.285164,-1.77714 -1.801122,-0.59959 -3.884117,-1.57661 -3.638437,-1.7066 0.346676,-0.18342 2.011347,-0.48922 3.332408,-0.61216 3.218307,-0.29949 5.31041,0.4287 9.077453,3.15957 1.47838,1.07174 4.889789,3.74153 5.977114,4.67774 l 0.534618,0.46032 -1.112538,1.08741 c -0.611895,0.59808 -1.424794,1.47389 -1.806442,1.94625 -0.381648,0.47236 -0.714101,0.85883 -0.738784,0.85883 -0.02468,0 -0.07826,-0.15079 -0.11907,-0.33509 z"
     id="path931" />
  <path
     style="font-variation-settings:normal;opacity:1;vector-effect:none;fill:#ffdd55;fill-opacity:1;stroke-width:0.000412621;stroke-linecap:butt;stroke-linejoin:miter;stroke-miterlimit:4;stroke-dasharray:none;stroke-dashoffset:0;stroke-opacity:1;stop-color:#000000;stop-opacity:1"
     d="m 77.542528,180.13316 c -1.190594,-0.21586 -1.762533,-0.58072 -3.413493,-2.17763 -2.618775,-2.53305 -3.038324,-3.43312 -2.918523,-6.2612 0.165692,-3.9114 1.022454,-5.95465 3.518613,-8.39139 1.25777,-1.22783 1.630778,-1.4547 3.149268,-1.91542 3.1349,-0.95114 5.28173,-1.09997 7.110185,-0.49291 0.873368,0.28996 2.638462,1.52242 3.450067,2.40898 1.858656,2.03029 2.595748,4.41081 2.435991,7.86729 -0.08512,1.84159 -0.290739,2.87001 -0.76292,3.81576 -0.400449,0.80207 -2.874731,3.26771 -3.868094,3.85459 -1.937281,1.14454 -6.102674,1.76301 -8.701094,1.29193 z m 3.760661,-5.30103 c 1.725173,-0.31989 3.604131,-1.75524 4.383374,-3.34849 0.37996,-0.77687 0.415919,-0.94565 0.415919,-1.95218 0,-1.00782 -0.03559,-1.17432 -0.417325,-1.95219 -0.567328,-1.15605 -1.667932,-2.25796 -2.54637,-2.54938 -0.750793,-0.24907 -2.231731,-0.27719 -3.140465,-0.0596 -1.670709,0.39998 -3.419431,1.63832 -4.005694,2.8366 -0.810208,1.65601 -0.475135,4.57063 0.65461,5.6941 0.658579,0.65493 2.476163,1.3425 3.802992,1.43863 0.108135,0.008 0.491966,-0.0405 0.852959,-0.10746 z"
     id="path933" />
  <path
     style="font-variation-settings:normal;opacity:1;vector-effect:none;fill:#ffdd55;fill-opacity:1;stroke-width:0.000412621;stroke-linecap:butt;stroke-linejoin:miter;stroke-miterlimit:4;stroke-dasharray:none;stroke-dashoffset:0;stroke-opacity:1;stop-color:#000000;stop-opacity:1"
     d="m 102.43845,198.39505 c -0.33416,-1.34385 -2.16993,-5.32128 -3.174651,-6.87826 -1.144919,-1.77424 -2.68252,-2.50653 -6.002555,-2.85874 l -0.76157,-0.0808 -0.0021,-1.78534 c -0.0012,-1.04671 -0.07174,-2.11302 -0.170413,-2.57738 -0.515053,-2.42392 -2.043255,-3.9711 -4.335968,-4.38983 -0.435618,-0.0796 -0.976112,-0.18014 -1.201098,-0.2235 l -0.409066,-0.0788 1.018417,-0.80708 c 1.569256,-1.24361 2.547364,-2.27783 3.084679,-3.26165 l 0.482385,-0.88324 0.207401,0.28311 c 0.114071,0.15572 1.148821,1.43461 2.299445,2.84199 2.620256,3.20496 4.761397,6.029 6.005064,7.92033 1.1781,1.79161 2.76259,4.94221 3.27452,6.51105 0.53196,1.63021 0.60619,3.25468 0.22931,5.0183 -0.32283,1.51072 -0.42215,1.73901 -0.54378,1.24988 z"
     id="path935" />
  <path
     style="font-variation-settings:normal;opacity:1;vector-effect:none;fill:#ffccaa;fill-opacity:1;stroke-width:0.00224078;stroke-linecap:butt;stroke-linejoin:miter;stroke-miterlimit:4;stroke-dasharray:none;stroke-dashoffset:0;stroke-opacity:1;stop-color:#000000;stop-opacity:1"
     d="m 17.540989,244.52105 c -0.05637,-0.15402 -0.213355,-0.60156 -0.348854,-0.99454 -0.458397,-1.32946 -1.15644,-2.30531 -2.245954,-3.13981 -1.0394,-0.79612 -2.658927,-1.44181 -3.626382,-1.44581 -0.156506,-6.5e-4 -0.368867,-0.0238 -0.471913,-0.0514 -0.179156,-0.0481 -0.174539,-0.0615 0.105491,-0.30737 0.161065,-0.14142 0.432848,-0.44785 0.603962,-0.68095 0.262272,-0.35729 0.355193,-0.42383 0.591856,-0.42383 0.701783,0 2.428,0.82274 3.436068,1.63768 0.890067,0.71954 3.06174,3.05448 3.373281,3.62688 0.269352,0.49489 0.250979,0.6993 -0.100386,1.11688 -0.25401,0.30187 -1.031992,0.94232 -1.144681,0.94232 -0.0385,0 -0.116117,-0.12601 -0.172488,-0.28002 z"
     id="path937" />
  <path
     style="font-variation-settings:normal;opacity:1;vector-effect:none;fill:#ffccaa;fill-opacity:1;stroke-width:0.00224078;stroke-linecap:butt;stroke-linejoin:miter;stroke-miterlimit:4;stroke-dasharray:none;stroke-dashoffset:0;stroke-opacity:1;stop-color:#000000;stop-opacity:1"
     d="m 18.507253,241.33306 c -1.942937,-2.38942 -2.286669,-2.67576 -4.736372,-3.94553 -0.580516,-0.30091 -1.055483,-0.59494 -1.055483,-0.65342 0,-0.10308 1.559588,-1.59658 1.728809,-1.65555 0.105605,-0.0368 2.108176,1.13038 3.139336,1.82974 0.93955,0.63722 2.216176,1.88825 2.9986,2.93846 0.60868,0.81701 0.713197,1.04134 0.632264,1.35705 -0.05073,0.1979 -1.305588,1.61554 -1.430033,1.61554 -0.03771,0 -0.61241,-0.66883 -1.277121,-1.48629 z"
     id="path939" />
  <path
     style="font-variation-settings:normal;opacity:1;vector-effect:none;fill:#ffccaa;fill-opacity:1;stroke-width:0.00224078;stroke-linecap:butt;stroke-linejoin:miter;stroke-miterlimit:4;stroke-dasharray:none;stroke-dashoffset:0;stroke-opacity:1;stop-color:#000000;stop-opacity:1"
     d="m 20.894807,239.44135 c -1.649941,-2.07513 -2.367663,-2.6861 -4.883718,-4.15737 -0.627905,-0.36717 -1.141645,-0.72168 -1.141645,-0.78779 0,-0.15194 0.498493,-0.70634 1.051165,-1.16907 l 0.425229,-0.35602 1.135823,0.58774 c 1.877698,0.97162 3.306196,2.01182 4.940895,3.59785 1.041103,1.01011 1.362386,1.43866 1.291202,1.72227 -0.05339,0.21271 -1.52813,1.72563 -1.724031,1.76866 -0.06359,0.014 -0.556306,-0.52885 -1.09492,-1.20627 z"
     id="path941" />
  <path
     style="font-variation-settings:normal;opacity:1;vector-effect:none;fill:#ffccaa;fill-opacity:1;stroke-width:0.00224078;stroke-linecap:butt;stroke-linejoin:miter;stroke-miterlimit:4;stroke-dasharray:none;stroke-dashoffset:0;stroke-opacity:1;stop-color:#000000;stop-opacity:1"
     d="m 22.719192,236.69334 c -1.887701,-1.82963 -2.53366,-2.32417 -4.152994,-3.17947 -1.328636,-0.70176 -1.604269,-0.94911 -1.503858,-1.34955 0.0585,-0.23329 1.631833,-1.83747 1.802799,-1.83814 0.128304,-5.1e-4 2.467436,1.44246 3.284982,2.02644 1.165349,0.83242 2.291831,1.78316 3.399377,2.86905 l 0.994878,0.97542 -0.352899,0.31701 c -0.194095,0.17435 -0.698142,0.63165 -1.120105,1.01623 l -0.767204,0.69923 z"
     id="path943" />
  <path
     style="font-variation-settings:normal;opacity:1;vector-effect:none;fill:#ffccaa;fill-opacity:1;stroke-width:0.00224078;stroke-linecap:butt;stroke-linejoin:miter;stroke-miterlimit:4;stroke-dasharray:none;stroke-dashoffset:0;stroke-opacity:1;stop-color:#000000;stop-opacity:1"
     d="m 25.805228,234.62164 c -0.541249,-0.43329 -1.216726,-0.99045 -1.50106,-1.23813 -0.860173,-0.7493 -2.435854,-1.89572 -3.37198,-2.45336 -1.832055,-1.09133 -1.843115,-1.26417 -0.168003,-2.62534 l 0.807146,-0.65587 1.054288,0.62763 c 1.438665,0.85646 2.581011,1.79504 4.563886,3.74978 l 1.681241,1.65738 -0.9047,0.85912 c -0.497584,0.47251 -0.965905,0.86079 -1.040713,0.86284 -0.07481,0.002 -0.578855,-0.35077 -1.120105,-0.78405 z"
     id="path945" />
  <path
     style="font-variation-settings:normal;opacity:1;vector-effect:none;fill:#ffccaa;fill-opacity:1;stroke-width:0.00224078;stroke-linecap:butt;stroke-linejoin:miter;stroke-miterlimit:4;stroke-dasharray:none;stroke-dashoffset:0;stroke-opacity:1;stop-color:#000000;stop-opacity:1"
     d="m 28.104272,232.19227 c -1.811329,-2.0119 -2.865181,-2.88097 -5.286396,-4.35948 -0.485738,-0.29662 -0.883159,-0.57802 -0.883159,-0.62534 0,-0.0473 0.08476,-0.20834 0.188364,-0.35782 0.24716,-0.35663 1.803049,-1.95195 1.903696,-1.95195 0.155648,0 3.083192,1.85246 3.952555,2.50105 1.260271,0.94024 2.397055,1.96743 2.862329,2.58638 0.32965,0.43853 0.398536,0.59407 0.398536,0.89988 0,0.47066 -0.470651,1.13033 -1.393748,1.9535 l -0.643644,0.57396 z"
     id="path947" />
  <path
     style="font-variation-settings:normal;opacity:1;vector-effect:none;fill:#ffccaa;fill-opacity:1;stroke-width:0.00224078;stroke-linecap:butt;stroke-linejoin:miter;stroke-miterlimit:4;stroke-dasharray:none;stroke-dashoffset:0;stroke-opacity:1;stop-color:#000000;stop-opacity:1"
     d="m 31.541764,229.87846 c -0.843231,-1.19841 -3.252439,-3.13967 -5.58424,-4.4996 -0.464936,-0.27115 -0.962654,-0.59783 -1.10604,-0.72594 l -0.260702,-0.23294 0.386769,-0.51506 c 0.212722,-0.28329 0.599551,-0.74771 0.859619,-1.03204 l 0.472851,-0.51697 1.231825,0.60313 c 2.156906,1.05608 3.117173,1.79934 5.721503,4.42852 l 1.03229,1.04215 -0.213752,0.19996 c -0.748811,0.70051 -2.04863,1.86793 -2.076297,1.8648 -0.01816,-0.002 -0.226881,-0.27926 -0.463826,-0.61601 z"
     id="path949" />
  <path
     style="font-variation-settings:normal;opacity:1;vector-effect:none;fill:#ffccaa;fill-opacity:1;stroke-width:0.00224078;stroke-linecap:butt;stroke-linejoin:miter;stroke-miterlimit:4;stroke-dasharray:none;stroke-dashoffset:0;stroke-opacity:1;stop-color:#000000;stop-opacity:1"
     d="m 33.935907,227.2914 c -0.321609,-0.29468 -1.069405,-1.0085 -1.661768,-1.58628 -1.727113,-1.68458 -2.426224,-2.19414 -4.286552,-3.12434 -0.580516,-0.29027 -1.055483,-0.56243 -1.055483,-0.6048 0,-0.15694 1.22975,-1.66188 1.493268,-1.82743 0.418643,-0.263 0.893824,-0.17232 1.953206,0.37274 1.998784,1.02839 2.598831,1.46503 4.178934,3.04088 0.807784,0.80562 1.620408,1.65204 1.805832,1.88093 l 0.337134,0.41618 -0.778347,0.74701 c -0.428091,0.41085 -0.846884,0.85363 -0.930651,0.98395 -0.08377,0.13032 -0.223972,0.23695 -0.311566,0.23695 -0.08759,0 -0.422397,-0.24111 -0.744007,-0.53579 z"
     id="path951" />
  <path
     style="font-variation-settings:normal;opacity:1;vector-effect:none;fill:#ffccaa;fill-opacity:1;stroke-width:0.00224078;stroke-linecap:butt;stroke-linejoin:miter;stroke-miterlimit:4;stroke-dasharray:none;stroke-dashoffset:0;stroke-opacity:1;stop-color:#000000;stop-opacity:1"
     d="m 35.203642,223.49176 c -2.143465,-2.12146 -2.569185,-2.44635 -4.468545,-3.4101 -0.664756,-0.3373 -1.231018,-0.64947 -1.258359,-0.69371 -0.04848,-0.0784 0.810518,-1.14616 1.647762,-2.04815 l 0.417264,-0.44954 1.104848,0.64259 c 1.458712,0.84839 2.183411,1.35653 3.160655,2.21614 1.099842,0.96746 2.529436,2.56364 2.81038,3.13786 0.336132,0.68703 0.225284,0.9898 -0.681,1.86005 -0.382472,0.36726 -0.71767,0.66682 -0.744884,0.66568 -0.02721,-0.001 -0.921868,-0.86551 -1.988121,-1.92082 z"
     id="path953" />
  <path
     style="font-variation-settings:normal;opacity:1;vector-effect:none;fill:#ffccaa;fill-opacity:1;stroke-width:0.00224078;stroke-linecap:butt;stroke-linejoin:miter;stroke-miterlimit:4;stroke-dasharray:none;stroke-dashoffset:0;stroke-opacity:1;stop-color:#000000;stop-opacity:1"
     d="m 38.176226,221.48537 c -2.230263,-2.4596 -3.091002,-3.22693 -4.480416,-3.99419 -0.876431,-0.48399 -1.50629,-0.90358 -1.507079,-1.00397 -4.14e-4,-0.0527 0.118682,-0.24659 0.264659,-0.43081 0.450353,-0.56835 2.15625,-2.35976 2.247119,-2.35976 0.131948,0 2.527733,1.64672 3.303394,2.27056 0.701039,0.56382 2.354671,2.21843 3.641583,3.64373 l 0.711178,0.78765 -1.393259,1.25869 c -0.766292,0.69228 -1.416094,1.25751 -1.444004,1.25606 -0.02791,-0.001 -0.632339,-0.64403 -1.343175,-1.42796 z"
     id="path955" />
  <path
     style="font-variation-settings:normal;opacity:1;vector-effect:none;fill:#ffccaa;fill-opacity:1;stroke-width:0.00224078;stroke-linecap:butt;stroke-linejoin:miter;stroke-miterlimit:4;stroke-dasharray:none;stroke-dashoffset:0;stroke-opacity:1;stop-color:#000000;stop-opacity:1"
     d="m 41.536539,218.72815 c -1.23729,-1.40034 -2.734217,-2.77991 -4.17885,-3.85124 -0.639752,-0.47444 -1.32797,-1.0197 -1.529373,-1.2117 -0.588026,-0.56058 -0.552533,-0.65837 0.701806,-1.93381 l 1.067994,-1.08595 0.923886,0.55628 c 1.219748,0.73441 2.295416,1.62989 3.919377,3.26284 1.310605,1.31785 2.043626,2.18816 2.309282,2.74179 0.116937,0.24369 0.118281,0.30751 0.01071,0.50885 -0.119532,0.22371 -2.120801,2.10559 -2.225007,2.09227 -0.02862,-0.004 -0.478542,-0.48936 -0.999821,-1.07933 z"
     id="path957" />
  <path
     style="font-variation-settings:normal;opacity:1;vector-effect:none;fill:#ffccaa;fill-opacity:1;stroke-width:0.00224078;stroke-linecap:butt;stroke-linejoin:miter;stroke-miterlimit:4;stroke-dasharray:none;stroke-dashoffset:0;stroke-opacity:1;stop-color:#000000;stop-opacity:1"
     d="m 44.419322,215.83466 c -2.002836,-2.44147 -2.967317,-3.33335 -5.1902,-4.79956 -0.739476,-0.48776 -1.095976,-0.77406 -1.095976,-0.88017 0,-0.0865 0.123262,-0.304 0.273916,-0.48336 0.541006,-0.64408 2.008618,-2.09242 2.120263,-2.09242 0.127537,0 0.692254,0.37009 2.21548,1.45193 1.542325,1.09541 3.550888,3.16705 4.648809,4.7948 0.481849,0.71438 0.480912,0.72064 -0.228609,1.52578 -0.346278,0.39294 -0.836873,0.95676 -1.090212,1.25294 -0.253339,0.29619 -0.487497,0.53852 -0.520352,0.53852 -0.03285,0 -0.542758,-0.58881 -1.133119,-1.30846 z"
     id="path959" />
  <path
     style="font-variation-settings:normal;opacity:1;vector-effect:none;fill:#ffccaa;fill-opacity:1;stroke-width:0.00224078;stroke-linecap:butt;stroke-linejoin:miter;stroke-miterlimit:4;stroke-dasharray:none;stroke-dashoffset:0;stroke-opacity:1;stop-color:#000000;stop-opacity:1"
     d="m 46.975371,212.4552 c -2.133721,-2.35454 -3.34293,-3.48693 -4.747799,-4.44617 -0.658593,-0.44968 -1.209515,-0.85639 -1.22427,-0.90379 -0.04438,-0.14258 2.044258,-2.38664 2.174741,-2.33657 0.30306,0.11629 2.336549,1.67672 3.18356,2.44295 1.5235,1.3782 3.504981,3.49253 4.062233,4.3346 l 0.225941,0.34142 -0.233382,0.33677 c -0.25149,0.3629 -1.79057,1.81688 -1.92322,1.81688 -0.04426,0 -0.727268,-0.71374 -1.517804,-1.58609 z"
     id="path961" />
  <path
     style="font-variation-settings:normal;opacity:1;vector-effect:none;fill:#ffccaa;fill-opacity:1;stroke-width:0.00224078;stroke-linecap:butt;stroke-linejoin:miter;stroke-miterlimit:4;stroke-dasharray:none;stroke-dashoffset:0;stroke-opacity:1;stop-color:#000000;stop-opacity:1"
     d="m 49.720111,209.80123 c -1.822688,-2.05438 -2.799739,-2.97117 -4.586315,-4.30345 -0.81746,-0.6096 -1.486292,-1.14678 -1.486292,-1.19374 0,-0.047 0.536285,-0.6352 1.191745,-1.30719 l 1.191745,-1.22182 0.768437,0.54773 c 1.310282,0.93394 5.83331,5.5953 6.295959,6.4885 0.07066,0.13642 0.100366,0.32362 0.06836,0.43081 -0.06421,0.21505 -0.676931,0.87029 -1.505001,1.60944 l -0.561856,0.50151 z"
     id="path963" />
  <path
     style="font-variation-settings:normal;opacity:1;vector-effect:none;fill:#ffccaa;fill-opacity:1;stroke-width:0.00224078;stroke-linecap:butt;stroke-linejoin:miter;stroke-miterlimit:4;stroke-dasharray:none;stroke-dashoffset:0;stroke-opacity:1;stop-color:#000000;stop-opacity:1"
     d="m 52.432299,207.1387 c -1.677231,-1.97082 -3.393512,-3.72608 -4.692106,-4.79867 -1.204698,-0.99504 -1.241874,-1.05256 -0.957768,-1.48187 0.179801,-0.2717 0.755716,-0.92684 1.695531,-1.92878 0.148611,-0.15844 0.177912,-0.14351 1.086074,0.5532 2.4771,1.90036 5.239418,4.68065 6.722608,6.76635 l 0.187579,0.26378 -1.241322,1.11404 c -0.682727,0.61272 -1.275648,1.12548 -1.317603,1.13946 -0.04196,0.014 -0.709302,-0.71839 -1.482993,-1.62751 z"
     id="path965" />
  <path
     style="font-variation-settings:normal;opacity:1;vector-effect:none;fill:#ffccaa;fill-opacity:1;stroke-width:0.00224078;stroke-linecap:butt;stroke-linejoin:miter;stroke-miterlimit:4;stroke-dasharray:none;stroke-dashoffset:0;stroke-opacity:1;stop-color:#000000;stop-opacity:1"
     d="m 56.546931,205.74509 c -0.15937,-0.19969 -0.635784,-0.80883 -1.058696,-1.35364 -1.089355,-1.40337 -2.340318,-2.66819 -4.118579,-4.16422 -0.847136,-0.71268 -1.651673,-1.4496 -1.787858,-1.6376 -0.414781,-0.57259 -0.363656,-0.85157 0.501189,-2.73493 0.41184,-0.89685 0.774024,-1.63064 0.804853,-1.63064 0.03083,0 0.291748,0.39742 0.57982,0.88316 0.596457,1.00573 1.104384,1.65917 2.41583,3.10794 1.398473,1.54492 2.884948,2.87239 4.906961,4.38209 1.007016,0.75187 1.830939,1.42398 1.830939,1.49358 0,0.15608 0.06802,0.11751 -2.04313,1.15854 l -1.741564,0.85879 z"
     id="path967" />
</svg>
