<?xml version="1.0" encoding="UTF-8" standalone="no"?>
<svg
   xmlns:dc="http://purl.org/dc/elements/1.1/"
   xmlns:cc="http://creativecommons.org/ns#"
   xmlns:rdf="http://www.w3.org/1999/02/22-rdf-syntax-ns#"
   xmlns:svg="http://www.w3.org/2000/svg"
   xmlns="http://www.w3.org/2000/svg"
   xmlns:sodipodi="http://sodipodi.sourceforge.net/DTD/sodipodi-0.dtd"
   xmlns:inkscape="http://www.inkscape.org/namespaces/inkscape"
   cursor="default"
   viewBox="0 0 256 256"
   version="1.1"
   id="svg50"
   sodipodi:docname="bolter.svg"
   inkscape:version="1.0.2-2 (e86c870879, 2021-01-15)">
  <metadata
     id="metadata56">
    <rdf:RDF>
      <cc:Work
         rdf:about="">
        <dc:format>image/svg+xml</dc:format>
        <dc:type
           rdf:resource="http://purl.org/dc/dcmitype/StillImage" />
      </cc:Work>
    </rdf:RDF>
  </metadata>
  <defs
     id="defs54" />
  <sodipodi:namedview
     pagecolor="#ffffff"
     bordercolor="#666666"
     borderopacity="1"
     objecttolerance="10"
     gridtolerance="10"
     guidetolerance="10"
     inkscape:pageopacity="0"
     inkscape:pageshadow="2"
     inkscape:window-width="1920"
     inkscape:window-height="1017"
     id="namedview52"
     showgrid="false"
     inkscape:zoom="2.9015159"
     inkscape:cx="115.61644"
     inkscape:cy="141.8784"
     inkscape:window-x="-8"
     inkscape:window-y="-8"
     inkscape:window-maximized="1"
     inkscape:current-layer="svg50"
     inkscape:document-rotation="0" />
  <path
     style="fill:#000000;stroke-width:0.200838"
     d="m 5.7156257,189.70127 c 0.079085,-0.10729 0.9015303,-1.09275 1.8276652,-2.19005 0.9261504,-1.09731 1.7816484,-2.11283 1.9011055,-2.25673 0.1193796,-0.14392 1.0022076,-5.14927 1.9616546,-11.12304 l 1.744459,-10.86139 1.811728,-1.08482 c 0.996441,-0.59665 3.790839,-2.35264 6.209747,-3.90219 l 4.398035,-2.81739 0.232667,-3.70427 0.23267,-3.70431 -1.217258,-1.81114 -1.217267,-1.81118 2.42104,-1.6941 2.421042,-1.69412 0.521872,-5.49291 0.521875,-5.49292 1.271738,-0.85377 c 0.699443,-0.46958 6.170245,-4.3731 12.157234,-8.67451 l 10.885473,-7.82084 3.166718,0.20278 c 1.741727,0.11121 3.313414,0.27715 3.492708,0.36798 0.297749,0.15076 2.57509,-1.38088 26.292703,-17.683834 14.281715,-9.816858 29.164635,-20.057612 33.073205,-22.757178 11.57646,-7.995619 35.08952,-24.174943 37.01358,-25.469021 l 1.78279,-1.199057 -0.53776,-0.908984 -0.53778,-0.908986 13.16842,-8.850361 13.1684,-8.850379 0.44865,-0.844788 c 0.24676,-0.464635 0.48097,-1.379398 0.52046,-2.032812 0.15355,-2.545881 -0.42372,-4.571066 -3.28952,-11.533756 -0.64365,-1.563775 -1.24469,-3.0382142 -1.33565,-3.2765347 -0.15908,-0.4167927 -0.096,-0.4799351 1.65517,-1.6568909 1.00131,-0.6729716 1.8907,-1.1890628 1.97644,-1.1468693 0.0857,0.0422 2.78463,4.1563589 5.99753,9.1425819 l 5.84163,9.065869 1.22971,0.700542 c 0.80449,0.458298 2.14269,0.903483 3.86998,1.287429 l 2.64028,0.586887 2.91627,-1.961683 c 4.49441,-3.023242 4.59183,-3.002213 7.76402,1.675964 2.15251,3.174409 2.37205,3.781312 1.67262,4.623767 -0.22072,0.26585 -2.63686,1.918479 -5.37113,3.673845 l -4.96993,3.190633 1.42767,1.895952 c 0.78521,1.042771 1.49188,1.988897 1.57038,2.102499 0.11277,0.163353 2.6182,-1.457182 11.95728,-7.733891 10.47881,-7.042718 11.90746,-7.958897 12.63643,-8.103609 1.38918,-0.275778 2.81916,-0.164918 3.42701,0.265682 0.62937,0.445858 11.47112,15.801968 12.30281,17.425564 0.60378,1.178696 0.66211,1.912657 0.23223,2.922594 -0.7414,1.741829 -1.50335,2.673049 -3.02256,3.694084 l -1.42762,0.959499 2.04884,3.048423 c 1.90203,2.830038 2.05772,3.11972 2.17315,4.043545 0.16035,1.283152 -0.34802,2.290612 -1.71996,3.408321 -0.57413,0.467745 -3.39421,2.457007 -6.2669,4.420575 -2.87264,1.963571 -6.46467,4.439629 -7.9823,5.502354 l -2.75927,1.932209 5.01856,7.444501 5.01852,7.444513 -2.22883,1.649928 c -4.30873,3.189634 -6.79759,4.803648 -7.80179,5.059442 -0.51136,0.130254 -1.44133,0.528785 -2.0666,0.88562 -1.0622,0.60622 -1.19563,0.753363 -2.03263,2.241667 l -0.8958,1.592844 -3.18777,2.14247 c -1.75326,1.17835 -3.23015,2.07938 -3.28197,2.00226 -0.0519,-0.0772 -0.59472,-0.0933 -1.20644,-0.036 -1.62578,0.15216 -2.31977,0.69374 -2.99631,2.33831 l -0.55035,1.33782 -2.83096,1.90264 -2.83093,1.90268 -1.41454,0.16422 c -1.93989,0.22524 -2.69366,0.75634 -3.77504,2.6599 l -0.83234,1.46512 -2.86902,1.92825 -2.86903,1.92824 -1.13268,-0.0252 c -1.56807,-0.0348 -2.64776,0.68555 -3.33251,2.22362 l -0.48211,1.0829 -2.88181,2.01653 c -2.71136,1.89729 -2.92519,2.01561 -3.616,2.00069 -2.24973,-0.0485 -3.18381,0.49369 -4.02111,2.33431 l -0.49918,1.09733 -2.81691,1.88972 c -2.21382,1.48513 -3.01748,1.9381 -3.75381,2.11589 -0.54906,0.13255 -1.46232,0.57251 -2.20618,1.0628 -1.167,0.76921 -1.34618,0.97119 -2.22389,2.50664 l -0.95459,1.67 -4.6836,3.14781 -4.68356,3.14778 -3.47295,-5.16735 -3.47291,-5.16738 -1.7917,1.20468 c -0.98543,0.66254 -3.83482,2.64938 -6.33198,4.41517 l -4.54029,3.21053 3.78293,5.46496 c 2.0806,3.00571 4.79724,6.87941 6.03695,8.60821 l 2.25404,3.14327 1.56534,-1.05205 1.56531,-1.05202 0.84024,1.25016 0.84022,1.25017 -3.05861,2.05563 -3.05859,2.05565 0.98467,1.69757 c 1.47602,2.54465 4.3859,6.80951 6.20933,9.10067 2.74664,3.45126 5.27027,5.69251 10.11491,8.98315 2.59789,1.76458 5.97781,3.76905 6.15478,3.65014 0.0819,-0.0551 0.34212,-0.44772 0.5783,-0.87264 0.23617,-0.42491 0.46285,-0.79503 0.50372,-0.82251 0.19562,-0.13147 7.91611,3.93255 7.86975,4.14258 -0.0652,0.29549 -22.53437,38.86506 -22.71007,38.98317 -0.12417,0.0835 -7.79622,-3.94557 -7.95061,-4.17531 -0.0433,-0.0643 0.46116,-1.01507 1.12091,-2.11267 0.65975,-1.09761 1.17497,-2.03225 1.14491,-2.07695 -0.0301,-0.0447 -1.12194,-0.76079 -2.42643,-1.59128 -3.61306,-2.3002 -9.04485,-6.06108 -11.85641,-8.20914 -6.86641,-5.24602 -11.45293,-10.17411 -19.42762,-20.87443 l -3.03401,-4.07094 -2.14565,1.44206 -2.14564,1.44207 -0.76324,-1.24139 -0.76327,-1.24141 0.59033,-0.47185 0.59032,-0.47184 -0.62656,-0.93226 -0.62658,-0.93225 -3.3823,2.43842 c -9.234586,6.65756 -21.829171,16.0786 -24.354507,18.21772 -1.642633,1.39143 -2.564587,2.93003 -3.091661,5.15952 -0.713852,3.01957 -0.479982,6.6241 0.809083,12.47002 1.172589,5.31765 2.572262,8.58278 5.217598,12.17154 5.373106,7.28925 5.608075,7.63448 5.691822,8.36267 0.126445,1.09945 -0.654383,2.23058 -2.503869,3.62724 -2.674332,2.01956 -3.285447,2.16512 -16.006795,3.81272 -6.121657,0.79283 -12.798319,1.61326 -14.837021,1.82315 -3.290123,0.33868 -3.7789,0.33392 -4.349174,-0.0423 -0.586385,-0.38693 -0.6588,-0.50863 -0.829644,-1.39425 -0.325913,-1.68953 -1.723191,-22.25268 -1.745928,-25.69392 l -0.0088,-1.32504 2.056096,-1.29282 c 1.783131,-1.12118 2.12747,-1.406 2.593761,-2.14549 0.765835,-1.21457 0.639367,-1.95857 -0.617327,-3.63178 -1.20956,-1.61044 -2.107686,-2.09877 -4.98949,-2.71293 -2.433593,-0.51863 -2.457804,-0.52946 -3.009016,-1.34453 -0.702407,-1.03864 -0.68505,-2.95327 0.03862,-4.2562 1.001546,-1.80322 3.61946,-3.56038 7.475583,-5.0176 2.972941,-1.12348 3.902854,-2.14118 3.629304,-3.97187 -0.07615,-0.51002 -0.721218,-2.17973 -1.435288,-3.71553 -1.485,-3.19379 -1.889042,-3.65996 -3.83853,-4.42881 -1.718774,-0.67785 -2.667003,-0.48409 -4.866879,0.9944 -1.923885,1.29303 -2.663463,2.11405 -2.577416,2.8612 0.02615,0.22664 0.223653,0.87848 0.438987,1.44855 l 0.391527,1.03651 -2.0047,1.20142 c -1.102579,0.66079 -4.469902,2.79912 -7.482925,4.75187 -3.013024,1.95275 -5.968595,3.82057 -6.567903,4.15074 l -1.089698,0.60034 -2.600849,-0.89662 -2.600851,-0.89661 -1.794045,1.20576 c -0.986702,0.66314 -1.873336,1.16977 -1.970296,1.12586 -0.09695,-0.044 -3.462843,-4.39696 -7.479749,-9.6734 -4.0169045,-5.27645 -7.5516562,-9.89772 -7.8549905,-10.26951 -0.3393669,-0.41598 -0.4962278,-0.75094 -0.4077255,-0.87095 z m 9.5219333,12.12589 c 3.260053,4.26384 6.015643,7.88368 6.123569,8.04407 0.174844,0.25986 0.393859,0.15872 2.012358,-0.92904 l 1.816145,-1.2206 2.57332,0.9043 2.573322,0.90427 1.272342,-0.71065 c 1.046079,-0.58427 12.425063,-7.83425 14.777421,-9.41525 0.53623,-0.3604 0.631147,-0.51761 0.491812,-0.81451 -0.09493,-0.20235 -0.272155,-0.76681 -0.393722,-1.25435 -0.343126,-1.37586 0.14914,-2.08999 2.555017,-3.707 1.246627,-0.83784 2.174035,-1.34506 2.621922,-1.43397 1.137115,-0.22573 3.251896,0.42884 4.499546,1.39278 l 1.09777,0.84812 2.459186,-1.79254 c 3.713191,-2.70659 26.945781,-18.45089 30.448813,-20.63459 2.796808,-1.74347 3.168191,-1.92689 4.178579,-2.06378 1.422861,-0.19276 5.475911,0.52297 7.265761,1.28313 l 1.38647,0.58881 5.16656,7.71829 c 2.84168,4.24501 5.20363,7.72336 5.24875,7.72967 0.0452,0.006 8.57754,-5.61866 18.96076,-12.49982 l 18.87862,-12.51127 -2.14181,-3.00453 c -4.6786,-6.56322 -10.08195,-14.46111 -10.0069,-14.6267 0.0435,-0.0963 2.9341,-2.17145 6.42327,-4.61144 l 6.34393,-4.43636 -2.9826,-4.67371 c -1.64043,-2.57053 -4.72716,-7.26975 -6.85939,-10.44268 l -3.87681,-5.76893 -26.19725,17.72842 -26.19722,17.72841 -1.111124,-1.64745 c -1.197125,-1.7751 -4.408197,-5.45047 -5.713562,-6.53965 -2.818037,-2.35138 -6.642459,-1.77204 -11.208772,1.69794 -4.699658,3.57133 -5.963103,6.28368 -4.650495,9.98363 0.605081,1.70562 2.107529,4.76063 2.993167,6.0862 0.444927,0.66595 0.700767,1.21839 0.633222,1.36743 -0.112515,0.24826 -14.68435,10.65606 -19.225309,13.73148 l -2.369575,1.60483 -9.242474,-13.75183 c -5.083354,-7.56352 -9.298627,-13.71386 -9.367235,-13.66743 -0.06866,0.0463 -0.216671,1.56792 -0.328933,3.38116 l -0.204113,3.29676 -5.065711,3.26411 c -2.786144,1.79527 -5.583535,3.55553 -6.216443,3.91171 l -1.150748,0.6476 -1.738256,10.82173 -1.738258,10.82175 -1.5067127,1.79279 c -0.828694,0.98603 -1.7083495,2.04251 -1.9547964,2.34775 l -0.4480514,0.55495 1.5836064,2.11175 c 0.8709995,1.16146 4.2509411,5.60037 7.5109771,9.86423 z m 40.251806,51.89206 c 0.831683,0.27838 27.406013,-3.02084 30.22295,-3.75217 1.444997,-0.37515 1.865367,-0.58051 3.630946,-1.77384 2.287517,-1.54612 2.905879,-2.32928 2.770268,-3.50856 -0.07001,-0.60873 -0.34787,-1.0544 -2.191837,-3.5154 -3.646035,-4.86612 -6.007918,-8.56006 -6.813946,-10.65689 -0.384334,-0.9998 -0.729693,-1.86381 -0.76744,-1.91996 -0.0377,-0.0562 -0.50557,-0.0639 -1.039626,-0.0167 -4.736622,0.41689 -10.235436,0.66158 -10.857059,0.48313 -0.870551,-0.24989 -1.173092,-0.60809 -1.277042,-1.51192 -0.08507,-0.73977 0.09767,-1.05291 0.941313,-1.61258 0.835695,-0.55442 1.669509,-0.66549 6.655891,-0.88654 2.365062,-0.1048 4.355623,-0.22795 4.423459,-0.27354 0.06781,-0.0456 -0.05249,-0.97197 -0.267382,-2.05862 -0.214909,-1.08667 -0.5071,-2.86169 -0.649272,-3.94457 -0.142189,-1.08286 -0.29364,-1.97046 -0.33655,-1.97246 -0.04301,-0.001 -1.785315,0.12947 -3.871973,0.29213 -2.086674,0.16267 -4.165769,0.27919 -4.620188,0.25891 -0.975123,-0.0435 -1.673669,-0.46941 -1.732789,-1.05655 -0.05961,-0.59182 0.582761,-1.45725 1.315684,-1.77258 0.346383,-0.14905 2.494101,-0.3765 4.77267,-0.50548 l 4.142862,-0.23448 0.363805,-1.66926 c 0.714118,-3.27671 1.603711,-4.58532 4.884228,-7.18486 3.411352,-2.70324 10.32928,-7.86491 18.372743,-13.70847 4.02419,-2.92357 7.46372,-5.46135 7.64342,-5.63956 l 0.32672,-0.32395 -4.41029,-6.56204 -4.41027,-6.56204 -1.41694,-0.58766 c -1.845335,-0.76535 -5.046605,-1.35586 -6.599406,-1.21736 l -1.229513,0.10968 -4.488055,2.86349 c -4.843351,3.09016 -22.565705,15.11068 -28.194368,19.12335 l -3.456434,2.4641 0.965241,2.0478 c 1.527736,3.24121 1.715829,3.81106 1.586827,4.80726 -0.241832,1.86748 -0.977376,2.61091 -3.51816,3.55602 -3.951905,1.46999 -6.569004,3.14929 -7.591948,4.87147 -0.435467,0.73312 -0.69004,2.24457 -0.509155,3.02266 0.299683,1.28905 0.713708,1.55882 3.211454,2.09258 3.043705,0.65043 3.914441,1.1429 5.231311,2.95873 1.247441,1.72012 1.39307,2.52591 0.69367,3.83804 -0.450348,0.84487 -0.617309,0.98787 -2.570016,2.20122 -1.761607,1.09461 -2.097066,1.36391 -2.143795,1.72107 -0.109846,0.83972 0.81987,15.87987 1.422541,23.01176 0.302343,3.57813 0.551936,4.42562 1.385451,4.7046 z m 35.008138,-71.49974 c -0.917023,-2.49161 -0.83563,-4.0445 0.296089,-5.64921 0.79717,-1.13035 5.058708,-3.80474 6.342626,-3.98041 1.563222,-0.21387 2.872372,0.67618 4.917622,3.34335 2.5297,3.29896 2.26793,5.71059 -0.84643,7.79762 -1.546272,1.03621 -4.133837,2.33936 -5.111274,2.57412 -2.218082,0.53281 -4.516128,-1.14415 -5.598652,-4.08547 z m 2.978593,3.23792 c 1.791709,0.99586 3.235588,0.6121 6.984304,-1.85636 1.96227,-1.29212 2.1564,-1.46507 2.55906,-2.28004 0.2994,-0.60596 0.39304,-1.19883 0.29935,-1.89501 -0.25882,-1.92164 -3.459655,-5.97867 -5.04705,-6.39709 -0.914615,-0.2411 -1.892904,0.11583 -4.209673,1.53574 -1.843037,1.12958 -2.369764,1.53397 -2.913144,2.23648 -1.083093,1.40026 -1.103138,3.00056 -0.07365,5.87703 0.291646,0.81486 1.607781,2.33844 2.400893,2.77925 z m -22.433489,43.27284 c 1.477866,0.16473 11.009819,-0.56283 11.050556,-0.84344 0.03972,-0.27546 -0.465453,-2.15488 -0.655585,-2.4378 -0.127285,-0.18948 -6.056423,10e-5 -9.034675,0.28889 -1.742334,0.16896 -2.653722,0.65766 -2.821447,1.51291 -0.171791,0.87621 0.295662,1.34956 1.461151,1.47944 z m 0.120645,-11.81749 c 0.330842,0.0454 2.459122,-0.0545 4.729803,-0.22453 3.099385,-0.23208 4.127893,-0.38618 4.126041,-0.61831 -0.0098,-1.21819 -0.05655,-1.8801 -0.133277,-1.88195 -1.195306,-0.0288 -8.300212,0.52885 -8.662117,0.67982 -0.278535,0.11615 -0.659885,0.42848 -0.84743,0.69401 -0.427562,0.60534 -0.06281,1.23141 0.78698,1.35096 z M 47.083699,174.6041 c 1.028334,-0.69771 5.730729,-4.0062 10.449776,-7.35224 6.973427,-4.94449 8.578394,-6.14555 8.571089,-6.41404 -0.0049,-0.18169 -0.27078,-0.72238 -0.590755,-1.20148 -0.942435,-1.41125 -2.528544,-4.82108 -3.019093,-6.49073 -1.037285,-3.53045 0.466422,-6.45508 5.083068,-9.88624 4.935928,-3.66843 8.978136,-4.11106 12.033127,-1.31763 1.101754,1.00742 4.350895,4.8127 5.244094,6.14166 l 0.995072,1.48057 44.467773,-30.05876 c 24.45727,-16.53231 44.56606,-30.155568 44.68617,-30.273896 0.12012,-0.118327 10.18235,-6.920157 22.36054,-15.115192 l 22.14215,-14.90006 -10.28955,-15.044455 c -5.65923,-8.274461 -10.30853,-15.048439 -10.33175,-15.053295 -0.14189,-0.02974 -13.29686,8.595967 -27.23534,17.858009 -8.92424,5.930112 -20.33874,13.49263 -25.36554,16.805614 -5.02682,3.312994 -14.79089,9.766753 -21.69791,14.341697 -32.223451,21.343564 -37.966929,25.144488 -46.980506,31.090678 -5.301967,3.49765 -16.56642,10.95938 -25.032122,16.58161 -8.465701,5.62224 -18.328809,12.13114 -21.918022,14.46425 l -6.525835,4.24201 10.54192,15.68525 10.54192,15.68524 z m 31.551887,-50.59475 c -0.136577,-1.54051 0.923987,-3.9921 2.519543,-5.82422 0.46918,-0.53876 1.802857,-1.6339 3.313396,-2.72079 3.055463,-2.19853 40.536535,-28.79006 41.360185,-29.343622 0.54056,-0.363313 0.55983,-0.439948 0.27443,-1.091881 -0.41531,-0.948734 -0.47747,-1.651063 -0.24127,-2.726801 0.25644,-1.168313 0.67613,-1.739683 1.86405,-2.538067 0.72404,-0.486628 1.1691,-0.649162 1.78456,-0.651734 1.35877,-0.0057 2.14347,0.591277 4.00882,3.049611 2.24012,2.952213 6.06969,9.023826 6.48491,10.281542 0.74479,2.25594 0.36853,3.409978 -1.4313,4.390061 -1.97753,1.076817 -3.01869,0.942951 -4.72051,-0.606992 l -1.06384,-0.968884 -22.75551,15.343517 c -24.268858,16.36395 -23.590569,15.93694 -25.786905,16.23383 -1.140547,0.15417 -3.055815,-0.17872 -3.995787,-0.69493 -0.810881,-0.44513 -1.552053,-1.42308 -1.61477,-2.13065 z m 2.203949,1.945 c 1.342332,0.49322 3.018129,0.63539 4.088452,0.34688 2.168601,-0.58469 3.743982,-1.58776 21.809983,-13.88678 9.679,-6.5893 19.45461,-13.228423 21.72353,-14.753612 l 4.12534,-2.773046 -2.9688,-4.417258 c -2.96408,-4.410239 -2.9693,-4.416913 -3.32754,-4.176149 -0.49359,0.331743 -37.903685,26.872425 -41.348351,29.334695 -2.37574,1.6982 -2.931087,2.17734 -3.829082,3.30384 -1.213971,1.52288 -1.85719,2.86933 -2.03589,4.26173 -0.169434,1.3206 0.439048,2.27352 1.76235,2.75977 z M 134.13544,95.913408 c 1.69361,1.498892 2.65306,1.567764 4.52733,0.324998 1.11047,-0.736314 1.15094,-0.790773 1.24356,-1.672375 0.17717,-1.688792 -0.14369,-2.323945 -4.28483,-8.476838 -3.42182,-5.084102 -3.83402,-5.636011 -4.53005,-6.065364 -1.17606,-0.725463 -1.98503,-0.703707 -3.15843,0.08492 -1.09648,0.736935 -1.50322,1.344363 -1.7082,2.551066 -0.25514,1.502585 -0.0289,1.965821 3.62637,7.421634 2.68513,4.007818 3.54365,5.176483 4.28425,5.831954 z m -86.039763,32.364962 14.994839,-9.94879 -1.419077,-2.35571 -1.419074,-2.35574 -0.858878,-0.0968 c -0.472348,-0.0537 -1.895717,-0.15984 -3.163124,-0.23541 l -2.304361,-0.1375 -12.031973,8.62513 -12.031973,8.62511 -0.486269,5.17441 -0.486267,5.17441 2.105594,-1.25958 c 1.158061,-0.69276 8.853256,-5.73651 17.100414,-11.20834 z m 22.9462,-15.23926 c 4.153042,-2.7813 7.717222,-5.13366 7.920409,-5.22739 0.203177,-0.0938 8.764727,-5.74437 19.025668,-12.556955 10.260946,-6.812583 28.076556,-18.608701 39.590266,-26.213586 20.9175,-13.816164 20.93464,-13.827897 21.73565,-14.864694 1.1571,-1.497712 1.73093,-2.929646 1.54642,-3.859038 -0.0847,-0.42647 -0.56289,-1.47811 -1.06272,-2.33698 l -0.90878,-1.561581 -7.9123,5.475683 c -4.35176,3.011622 -14.72813,10.159304 -23.05858,15.883736 -8.33046,5.724434 -18.90524,12.997163 -23.49952,16.16163 -4.594275,3.164451 -14.494136,9.983238 -21.999674,15.15283 -7.50554,5.169615 -15.423497,10.594735 -17.595445,12.055825 l -3.949024,2.65656 0.52693,0.91627 c 0.289806,0.50394 0.878553,1.4694 1.30832,2.14546 l 0.781391,1.22921 z m 45.310523,75.51826 c 1.62739,-1.09356 11.18718,-7.44617 21.24396,-14.11697 l 18.28508,-12.1287 -0.63465,-0.94429 -0.63466,-0.94429 -7.29274,4.90114 c -4.011,2.69565 -13.44718,8.96537 -20.96928,13.93274 -7.52209,4.9674 -13.7682,9.16205 -13.88023,9.32146 -0.1518,0.21598 -0.0603,0.50354 0.35994,1.12851 l 0.56367,0.83868 2.95895,-1.9882 z m 7.85687,7.78617 c 4.53931,5.808 7.96496,9.63801 11.21964,12.54397 3.59601,3.2107 10.71975,8.38171 17.17444,12.46664 l 1.98774,1.25796 0.51994,-0.90282 c 0.28599,-0.49654 4.54367,-7.72954 9.46149,-16.07334 l 8.94154,-15.17054 -2.55324,-1.56881 c -4.85596,-2.98371 -8.62032,-5.76364 -11.00269,-8.12544 -1.91911,-1.90249 -4.58568,-5.43865 -7.40977,-9.82614 l -2.69089,-4.18055 -2.14516,1.44173 -2.14518,1.44177 2.15922,3.20698 c 2.21826,3.29467 4.43464,6.19702 6.1363,8.03549 1.31933,1.42537 5.2522,4.91111 7.73971,6.85972 2.22843,1.74566 3.27338,3.01817 3.40283,4.14387 0.085,0.73904 -0.6693,2.10868 -1.63565,2.96994 -0.74764,0.66635 -2.13475,0.9765 -3.23833,0.72408 -0.89081,-0.20375 -6.09802,-3.50279 -8.72924,-5.53045 -3.30479,-2.5467 -4.34839,-3.7531 -8.84211,-10.22155 l -3.86778,-5.56743 -3.41581,2.29573 -3.41581,2.29574 2.04064,2.80272 c 7.16735,9.844 9.63276,12.32324 17.87898,17.97932 2.53285,1.73725 3.0798,2.19477 3.66514,3.06569 0.93659,1.39353 1.02587,2.22695 0.37281,3.47948 -0.75145,1.44125 -1.98573,2.40835 -3.41619,2.67678 -1.08062,0.20278 -1.12683,0.18746 -3.22352,-1.06872 -7.61817,-4.56422 -12.34252,-8.23927 -15.97052,-12.42343 -1.09721,-1.26542 -3.10756,-3.95079 -5.20966,-6.95898 l -3.42304,-4.89842 -3.33201,2.23941 -3.33203,2.23943 1.87818,2.54894 c 1.033,1.40191 3.022,4.01246 4.42003,5.80123 z m 32.07606,32.7067 c 1.83953,0.99293 3.43751,1.74288 3.55109,1.66656 0.16967,-0.11402 21.72117,-36.98237 22.26333,-38.08604 0.14482,-0.29484 -0.29508,-0.56908 -3.25815,-2.03127 -1.88407,-0.92973 -3.52571,-1.71154 -3.64806,-1.73732 -0.12232,-0.0258 -5.12478,8.27585 -11.11645,18.44813 -12.67581,21.52015 -11.55588,19.5645 -11.32197,19.77087 0.10212,0.09 1.69064,0.97613 3.53021,1.96907 z m -24.88376,-36.57266 c 2.12096,2.71668 4.06798,4.87996 5.7212,6.35669 2.62786,2.34729 8.33539,6.33296 12.5949,8.79524 1.941,1.12201 2.89939,1.14427 4.26579,0.099 1.1114,-0.85014 1.97663,-2.30049 1.87897,-3.14965 -0.15171,-1.31921 -1.20202,-2.48995 -3.8086,-4.24541 -2.97778,-2.00542 -6.50071,-4.67028 -8.4146,-6.3651 -2.64742,-2.34439 -5.41311,-5.65089 -9.96365,-11.91205 -1.87101,-2.57432 -2.19204,-2.94327 -2.42618,-2.78807 -0.14841,0.0984 -1.63377,1.02536 -3.30079,2.05994 l -3.03097,1.88106 2.34366,3.48352 c 1.28892,1.91598 3.15214,4.51908 4.14028,5.78478 z m 16.6366,-5.98282 c 1.60197,1.71724 3.42475,3.23962 5.93418,4.95626 2.37362,1.62374 5.65998,3.57538 6.28051,3.72978 0.62934,0.15664 2.06239,-0.007 2.47263,-0.28337 0.65174,-0.43804 1.73012,-1.95028 1.85885,-2.60675 0.21031,-1.07262 -0.85277,-2.31481 -4.52151,-5.28302 -5.74582,-4.64867 -7.23183,-6.24656 -11.66721,-12.54567 l -3.20943,-4.558 -3.08163,2.07113 -3.08164,2.07115 3.81506,5.48187 c 2.67304,3.84086 4.22973,5.92632 5.20019,6.96662 z m 15.71558,-43.83083 4.52605,-3.04191 -7.33091,-10.64048 -7.33091,-10.6405 0.28531,-0.96675 c 0.46625,-1.57986 1.35301,-2.96174 2.12963,-3.31875 0.70241,-0.32287 2.72391,-0.49443 3.8115,-0.32346 0.64164,0.10084 0.64324,0.10277 4.32232,5.33683 2.02426,2.87978 5.22931,7.43451 7.12238,10.12165 l 3.44195,4.8857 2.6668,-1.79232 2.6668,-1.79234 -7.0365,-10.2597 -7.0365,-10.25971 0.28114,-1.17767 c 0.15458,-0.64772 0.42184,-1.37655 0.59381,-1.61963 0.40553,-0.57322 1.43829,-0.85161 3.19666,-0.86174 l 1.3346,-0.007 4.16299,5.9556 c 2.28963,3.27559 5.46548,7.8936 7.05743,10.26226 l 2.89447,4.30663 2.75274,-1.8501 2.75274,-1.85008 -6.90159,-10.25308 -6.90159,-10.25307 0.22044,-0.80398 c 0.35234,-1.28515 0.82043,-2.082364 1.33354,-2.271074 0.54057,-0.198837 2.22638,-0.207303 2.99111,-0.015 0.67501,0.16971 0.86712,0.42785 7.89013,10.601624 3.13786,4.5456 5.93501,8.51863 6.21589,8.82894 l 0.51069,0.56421 2.75952,-1.85463 2.75952,-1.85467 -6.93876,-10.05967 -6.93872,-10.059679 0.30248,-1.113102 c 0.43991,-1.618697 1.08343,-2.654729 1.85509,-2.986499 0.34905,-0.150079 1.42444,-0.231918 2.38973,-0.181842 l 1.75506,0.09109 1.67309,2.263292 c 0.92019,1.244803 4.01512,5.728201 6.87758,9.9631 l 5.20451,7.69983 2.64404,-1.84352 2.64402,-1.84353 -4.37623,-6.49611 c -2.40694,-3.572865 -5.3983,-7.909967 -6.6475,-9.638012 l -2.27125,-3.141897 0.17035,-0.972488 c 0.20759,-1.183847 0.8127,-2.329642 1.46053,-2.765054 0.50796,-0.34139 1.90134,-0.366263 3.18872,-0.05692 l 0.76352,0.183508 6.50456,9.421376 c 3.5775,5.181766 6.57615,9.454937 6.66365,9.495947 0.0874,0.0409 1.43642,-0.78392 2.99761,-1.83317 l 2.83851,-1.90775 -5.95711,-8.639895 c -3.27641,-4.751946 -6.26486,-9.009612 -6.64098,-9.461494 -0.6745,-0.810308 -0.68009,-0.837316 -0.40801,-1.969228 0.30426,-1.265764 1.17831,-2.95518 1.71287,-3.310766 0.53007,-0.352614 2.42383,-0.575283 3.60022,-0.423297 l 1.05995,0.136931 6.41673,9.150146 c 3.52921,5.032583 6.49248,9.165008 6.58504,9.183161 0.0926,0.0179 2.05901,-1.318475 4.36993,-2.970286 l 4.20162,-3.003287 -8.35879,-12.199959 c -4.59732,-6.70996 -9.08579,-13.281082 -9.97435,-14.602466 l -1.61566,-2.402486 -30.13789,20.416224 c -16.57581,11.228736 -34.84404,23.579122 -40.59601,27.445132 l -10.45814,7.02906 5.86645,8.82183 c 3.22656,4.852 7.90017,11.89234 10.38584,15.64519 l 4.51938,6.82338 4.52606,-3.04192 z m 4.66623,-3.65919 c 0.0478,0.0126 0.43354,-0.56724 0.85712,-1.28915 0.93772,-1.59827 2.2132,-2.66316 3.78615,-3.1611 0.58484,-0.18517 1.07362,-0.38904 1.08617,-0.45308 0.0136,-0.0639 -2.57285,-3.79315 -5.74532,-8.28694 -3.17246,-4.49377 -6.28187,-8.93695 -6.90979,-9.87373 -1.102,-1.64407 -1.16761,-1.70744 -1.88824,-1.82393 -0.92501,-0.14947 -3.25958,0.1318 -3.73279,0.44982 -0.42578,0.28617 -1.16882,1.65018 -1.54015,2.82733 l -0.27275,0.86462 7.13632,10.36136 c 3.92498,5.69874 7.17545,10.37189 7.22328,10.3848 z m 11.76721,-9.1237 c 0.0455,0.0114 0.33335,-0.42681 0.63963,-0.97435 0.77345,-1.38265 1.68334,-1.95884 3.15503,-1.99795 l 1.15214,-0.0306 -6.93284,-10.05875 -6.93286,-10.05873 -0.56084,-0.0467 c -0.30848,-0.0256 -1.14556,0.025 -1.86026,0.1126 -1.51834,0.18617 -1.84122,0.49433 -2.17536,2.07602 l -0.20661,0.97749 6.81955,9.98996 c 3.75077,5.49447 6.85681,9.99945 6.90233,10.01108 z m 11.57893,-8.23857 c 0.6559,-1.27485 1.46149,-1.88379 2.68776,-2.03165 0.48266,-0.0582 0.92831,-0.13996 0.99038,-0.18168 0.12466,-0.0838 -10.31014,-15.23152 -12.24867,-17.78095 -1.37008,-1.801869 -1.85167,-2.048382 -3.55806,-1.821287 -1.00553,0.133812 -1.31949,0.460077 -1.74709,1.815507 l -0.26725,0.84713 6.79605,10.11178 6.79603,10.11179 z m -8.88764,-82.622565 c 5.93157,-3.947041 11.97149,-7.921946 13.42201,-8.833115 l 2.63728,-1.656673 0.38492,0.459876 0.38491,0.459875 1.60681,-1.079924 1.6068,-1.079924 -1.00502,-0.231969 c -3.28472,-0.758143 -4.51496,-1.1489 -5.43345,-1.725804 l -1.02864,-0.646111 -5.51417,-8.51413 c -3.0328,-4.682773 -5.6654,-8.7391622 -5.85024,-9.014196 l -0.3361,-0.5000686 -1.57729,1.0600829 -1.57727,1.0600839 0.27013,0.6653889 c 2.2827,5.6227609 3.34266,8.3343709 3.70804,9.4860169 0.90304,2.846405 0.92916,5.625397 0.067,7.125946 l -0.5359,0.932682 -12.99438,8.74931 -12.99434,8.749309 1.5172,2.473139 c 2.08873,3.404769 2.17111,4.054199 0.79581,6.273578 l -0.59062,0.953065 6.12592,-3.995003 c 3.36925,-2.197254 10.97903,-7.224411 16.91062,-11.171435 z m 16.13155,71.889945 3.04774,4.53297 0.76694,-1.2892 c 0.98662,-1.65844 1.9538,-2.32595 3.66385,-2.52861 l 1.2134,-0.14382 -6.68676,-9.72011 c -7.58147,-11.020726 -6.62269,-9.973003 -9.11952,-9.965555 -0.79693,0.0021 -1.62986,0.140177 -1.88544,0.311935 -0.47451,0.318921 -1.03764,1.487393 -1.35435,2.810284 l -0.18282,0.763703 3.74456,5.347773 c 2.0595,2.94127 5.11606,7.38757 6.79236,9.88068 z m 13.89891,-4.73926 0.78913,0.97374 0.56203,-1.11958 c 0.69131,-1.37711 1.39299,-1.87918 2.85901,-2.04579 l 1.10587,-0.12568 -2.28048,-3.35587 c -1.25427,-1.845741 -4.16215,-6.050842 -6.46197,-9.34469 l -4.18149,-5.988814 -1.30154,-0.188679 c -2.05613,-0.297992 -2.6793,0.09729 -3.18533,2.020656 l -0.30386,1.155003 5.80475,8.522989 c 3.19262,4.687625 6.15987,8.961145 6.59388,9.496695 z m 11.96536,-6.595269 c 0.0297,0.0064 0.39393,-0.592675 0.80907,-1.33007 0.86529,-1.536923 1.74769,-2.243103 3.6245,-2.900535 0.63047,-0.220859 1.14743,-0.43218 1.14879,-0.469611 0.001,-0.0374 -1.76887,-2.579878 -3.9339,-5.649888 -2.165,-3.069998 -4.99299,-7.129524 -6.28443,-9.021176 l -2.34802,-3.439362 -1.07687,-0.125914 c -1.17925,-0.137306 -2.74143,0.02275 -3.19576,0.3281 -0.38697,0.260073 -0.90105,1.208426 -1.4079,2.59715 l -0.41704,1.142632 6.51366,9.428902 c 3.58254,5.185902 6.53809,9.433707 6.56793,9.439558 z M 209.64601,34.980177 c 5.04905,-3.190945 6.14308,-4.049077 6.09108,-4.777631 -0.0478,-0.668281 -3.38894,-5.622321 -4.29713,-6.371356 -1.13429,-0.935511 -0.96694,-1.003527 -6.53221,2.654899 l -5.0095,3.293084 2.67975,3.987173 2.67974,3.987177 z m 25.76021,22.261367 c 11.23216,-7.549046 11.59889,-7.810222 12.25641,-8.729255 0.3728,-0.521057 0.8321,-1.367293 1.0207,-1.880516 0.2791,-0.759553 0.274,-1.105433 -0.0277,-1.859412 -0.42597,-1.065013 -10.02622,-15.097051 -11.57845,-16.923453 -1.12525,-1.324004 -1.45826,-1.445501 -3.30783,-1.206822 l -1.33729,0.172572 -11.80828,7.93624 -11.80829,7.936242 7.50602,11.168141 7.50601,11.168157 z m -9.84257,-11.170659 c -0.2495,-1.679066 0.39173,-2.823571 2.31757,-4.136286 2.12694,-1.449847 3.73385,-1.499903 5.85923,-0.182537 1.42439,0.88287 1.7729,1.386268 2.01646,2.912644 0.24165,1.514404 0.0419,2.543404 -0.74511,3.837157 -1.1675,1.919373 -2.64685,2.736648 -4.55132,2.514348 -1.42615,-0.166303 -2.36733,-0.833183 -3.68766,-2.612215 -0.88455,-1.191854 -1.10191,-1.61127 -1.20917,-2.333111 z m 3.40261,4.004699 c 0.98237,0.542856 1.83885,0.687982 2.86173,0.484933 1.00611,-0.199731 1.63523,-0.625646 2.39497,-1.621418 1.09039,-1.429161 1.33719,-2.356721 1.0999,-4.133989 l -0.21755,-1.62939 -0.7526,-0.527086 c -2.57676,-1.804646 -3.92042,-1.906792 -6.07086,-0.461486 -1.91652,1.288065 -2.5839,2.389237 -2.35089,3.878838 0.15501,0.990869 2.01224,3.444236 3.0353,4.009598 z m 0.85876,23.40817 c 0.0377,0.0072 4.04379,-2.737285 8.90241,-6.099286 8.30247,-5.745052 8.86012,-6.158888 9.27057,-6.879889 0.84628,-1.486615 0.76869,-1.74543 -1.63204,-5.443291 l -2.12515,-3.27342 -9.98345,6.709782 c -5.49092,3.690384 -10.00533,6.806161 -10.03207,6.923948 -0.0414,0.182315 5.40523,8.024015 5.59973,8.062156 z"
     id="path854" />
  <path
     style="font-variation-settings:normal;opacity:1;vector-effect:none;fill:#ffdd55;fill-opacity:1;stroke-width:0.000151033;stroke-linecap:butt;stroke-linejoin:miter;stroke-miterlimit:4;stroke-dasharray:none;stroke-dashoffset:0;stroke-opacity:1;stop-color:#000000;stop-opacity:1"
     d="M 34.702482,160.29624 C 28.9493,151.73883 24.224655,144.67242 24.203271,144.5931 c -0.02138,-0.0793 2.481354,-1.78989 5.561641,-3.80129 5.868238,-3.83191 14.071856,-9.25256 45.407298,-30.00352 10.425584,-6.90404 29.96709,-19.835957 43.42558,-28.737606 13.45848,-8.90165 30.67362,-20.293888 38.25586,-25.316083 7.58224,-5.022198 17.46932,-11.571027 21.97127,-14.552954 11.12375,-7.367952 19.76553,-12.987386 19.97249,-12.987386 0.19532,0 0.60905,0.594382 12.21243,17.544966 4.69169,6.85378 8.46165,12.521577 8.37767,12.595106 -0.084,0.07353 -8.6827,5.872525 -19.10828,12.88666 -10.42559,7.014135 -23.56958,15.890347 -29.20887,19.724913 -5.6393,3.834568 -23.08707,15.650944 -38.77284,26.258624 -15.68577,10.60767 -32.547181,22.01048 -37.469811,25.33956 l -8.950237,6.05289 -0.958376,-1.34047 c -1.31686,-1.84187 -4.001975,-4.98169 -5.293213,-6.18958 -2.246642,-2.10162 -5.099858,-2.42278 -8.432088,-0.94911 -2.888627,1.27749 -7.01255,4.78136 -8.113564,6.89364 -1.551451,2.97644 -1.011053,5.3824 2.720798,12.11351 l 0.410348,0.74014 -0.51844,0.46959 c -1.098034,0.99459 -19.683188,14.19547 -20.340529,14.44772 -0.104276,0.04 -4.896743,-6.92877 -10.649926,-15.48618 z m 51.23996,-33.98214 c 1.596464,-0.63294 3.660957,-1.98921 28.174928,-18.50954 6.25535,-4.21558 13.01215,-8.774827 15.0151,-10.131666 l 3.64173,-2.466981 0.98008,0.857643 c 1.25701,1.099978 1.79633,1.370895 2.72909,1.370895 0.90072,0 2.69882,-0.83614 3.2183,-1.496556 0.87136,-1.107757 0.73763,-2.649256 -0.41605,-4.795722 -1.50835,-2.806335 -4.54395,-7.396761 -6.49624,-9.823596 -1.66532,-2.070116 -2.94963,-2.576387 -4.55918,-1.797219 -1.96282,0.950188 -2.92218,3.178025 -2.22249,5.161138 0.14216,0.402945 0.25848,0.831407 0.25848,0.952137 0,0.120732 -5.25372,3.942005 -11.67493,8.491718 -21.31633,15.103569 -30.497738,21.649469 -31.831784,22.694519 -1.539495,1.20599 -2.465804,2.36487 -3.308286,4.1389 -0.805415,1.69597 -0.949469,3.074 -0.412217,3.94329 0.49735,0.80473 1.10058,1.21771 2.254535,1.54348 1.830838,0.51686 3.10257,0.48063 4.648934,-0.13244 z"
     id="path856" />
  <path
     style="font-variation-settings:normal;opacity:1;vector-effect:none;fill:#ffdd55;fill-opacity:1;stroke-width:0.000213593;stroke-linecap:butt;stroke-linejoin:miter;stroke-miterlimit:4;stroke-dasharray:none;stroke-dashoffset:0;stroke-opacity:1;stop-color:#000000;stop-opacity:1"
     d="m 28.913313,139.63682 c 0.07491,-0.56965 0.31093,-2.90006 0.524485,-5.17868 0.213555,-2.27862 0.405732,-4.15188 0.42706,-4.16281 0.02133,-0.0109 5.447605,-3.88924 12.058393,-8.61845 l 12.019615,-8.59858 2.602536,0.16096 c 3.928621,0.24296 3.636166,0.0881 5.207977,2.75688 l 1.386926,2.35482 -4.189505,2.79799 c -14.407762,9.62234 -29.620255,19.52361 -29.996435,19.52361 -0.09749,0 -0.115963,-0.46608 -0.04105,-1.03574 z"
     id="path858" />
  <path
     style="font-variation-settings:normal;opacity:1;vector-effect:none;fill:#ffdd55;fill-opacity:1;stroke-width:0.000213593;stroke-linecap:butt;stroke-linejoin:miter;stroke-miterlimit:4;stroke-dasharray:none;stroke-dashoffset:0;stroke-opacity:1;stop-color:#000000;stop-opacity:1"
     d="m 159.95993,54.009305 c 0.0573,-0.119185 0.40679,-0.84335 0.77659,-1.609256 0.83913,-1.737945 0.72595,-2.263545 -1.17243,-5.444731 -0.74309,-1.245218 -1.3456,-2.354725 -1.33892,-2.465573 0.007,-0.110845 5.82615,-4.094687 12.93216,-8.852979 14.80227,-9.911831 13.97795,-9.163207 13.954,-12.672532 -0.0176,-2.575625 -0.1657,-3.105785 -2.57664,-9.221989 -1.07475,-2.726458 -1.8599,-5.0421754 -1.74478,-5.1460399 0.11511,-0.1038645 0.80953,-0.5863766 1.54315,-1.072249 1.05103,-0.6960941 1.39434,-0.8192785 1.61914,-0.5809698 0.15691,0.1663391 2.72621,4.0859167 5.70955,8.7101717 2.98334,4.624256 5.59954,8.615197 5.81378,8.868758 0.5937,0.70266 2.55544,1.528942 5.06819,2.134708 1.24678,0.300568 2.26458,0.607152 2.26179,0.681297 -0.003,0.07415 -0.7046,0.594283 -1.55958,1.155862 -1.50456,0.98824 -1.56773,1.006455 -1.96557,0.566842 -0.49676,-0.548915 1.88087,-2.028741 -21.32744,13.274108 -19.37104,12.772676 -18.1356,11.971073 -17.99299,11.674572 z"
     id="path860" />
  <path
     style="font-variation-settings:normal;opacity:1;vector-effect:none;fill:#ffdd55;fill-opacity:1;stroke-width:0.000213593;stroke-linecap:butt;stroke-linejoin:miter;stroke-miterlimit:4;stroke-dasharray:none;stroke-dashoffset:0;stroke-opacity:1;stop-color:#000000;stop-opacity:1"
     d="m 54.948064,253.38197 c -0.162119,-0.19535 -0.405106,-0.89602 -0.53997,-1.55706 -0.400826,-1.96467 -1.714777,-20.64161 -1.717158,-24.40828 l -0.0011,-1.76055 2.144273,-1.44181 c 3.31783,-2.2309 3.637706,-3.44428 1.629341,-6.18052 -1.014588,-1.3823 -2.049449,-1.94598 -4.872572,-2.65404 -2.837221,-0.71159 -3.400727,-1.20169 -3.375659,-2.93588 0.02372,-1.64123 0.486951,-2.55092 1.958624,-3.84634 1.049908,-0.92416 2.273531,-1.58682 7.180491,-3.8886 2.838832,-1.33166 3.096479,-2.90568 1.166964,-7.12926 -0.679751,-1.48793 -1.145832,-2.78722 -1.035736,-2.88731 0.962568,-0.87507 22.523959,-15.58168 30.297439,-20.66529 l 5.727009,-3.74529 2.437026,0.11618 c 2.203519,0.10505 5.613624,0.9233 6.609804,1.58601 0.13796,0.0918 2.19788,3.07302 4.57759,6.62499 3.22524,4.814 4.27006,6.55118 4.10406,6.82367 -0.12248,0.20105 -2.5165,2.04518 -5.32005,4.09805 -12.572805,9.20635 -21.052575,15.64335 -22.532008,17.10407 -1.756425,1.7342 -2.384929,2.8811 -3.019404,5.50982 l -0.418145,1.73243 -3.454944,0.17283 c -4.303938,0.2153 -5.392213,0.41607 -6.158701,1.13615 -0.750549,0.7051 -0.677887,1.45586 0.180601,1.86598 0.515332,0.2462 1.511425,0.25047 4.955593,0.0213 3.175256,-0.21132 4.354993,-0.21507 4.479094,-0.0143 0.209377,0.33878 1.363223,7.58147 1.228582,7.71181 -0.05386,0.0521 -2.268273,0.21941 -4.920917,0.37172 -4.830986,0.27738 -5.773483,0.44452 -6.569657,1.16505 -0.665143,0.60195 -0.557914,1.91967 0.196431,2.41394 0.647776,0.42444 2.174529,0.41529 9.855852,-0.0591 l 2.558877,-0.15803 0.961017,2.14267 c 0.990104,2.20753 3.393721,5.96819 6.901716,10.79832 2.303472,3.17163 2.428852,3.68463 1.233332,5.04625 -1.115653,1.27066 -3.480094,2.80091 -5.113081,3.30915 -2.33063,0.72537 -22.872914,3.4562 -28.478025,3.78578 -2.080625,0.12234 -2.617179,0.0839 -2.856576,-0.20453 z m 43.803865,-68.32934 c 5.592921,-2.88863 6.269261,-5.34659 2.688781,-9.77165 -2.352642,-2.90759 -3.756661,-3.21863 -6.771627,-1.50016 -2.380857,1.35704 -4.094032,2.89937 -4.463268,4.01816 -0.401093,1.21533 -0.147898,3.21437 0.619699,4.89268 0.775386,1.69533 1.630877,2.64928 2.928186,3.26518 1.32746,0.63021 2.404593,0.43535 4.998229,-0.90421 z"
     id="path862" />
  <path
     style="font-variation-settings:normal;opacity:1;vector-effect:none;fill:#ffdd55;fill-opacity:1;stroke-width:0.000106797;stroke-linecap:butt;stroke-linejoin:miter;stroke-miterlimit:4;stroke-dasharray:none;stroke-dashoffset:0;stroke-opacity:1;stop-color:#000000;stop-opacity:1"
     d="m 158.07888,144.0093 c -0.63137,-0.95401 -5.27691,-7.95157 -10.32343,-15.55012 -5.04652,-7.59856 -9.18191,-13.88625 -9.18976,-13.97267 -0.008,-0.0864 2.12421,-1.59559 4.73792,-3.35373 11.02068,-7.4132 32.33834,-21.826644 61.9324,-41.874146 7.8587,-5.323616 14.33873,-9.661248 14.40006,-9.639181 0.0613,0.02207 3.25803,4.646098 7.10376,10.275626 3.84574,5.629528 8.32231,12.17381 9.94795,14.542847 1.62564,2.369039 2.9383,4.320751 2.91702,4.337142 -0.3749,0.288771 -5.92607,4.200984 -7.02579,4.951453 l -1.5038,1.026216 -0.35186,-0.41879 c -0.49046,-0.583758 -3.72088,-5.117768 -8.57425,-12.034276 -4.67515,-6.662512 -4.05504,-6.054249 -6.16369,-6.045987 -1.64412,0.0064 -2.55165,0.251999 -2.96481,0.802214 -0.75125,1.000466 -1.65357,3.442588 -1.47724,3.998158 0.0437,0.137784 0.58651,0.945948 1.20616,1.795919 0.61966,0.849973 3.09947,4.396724 5.51069,7.88167 5.96225,8.617273 6.43287,9.309065 6.37153,9.365995 -0.18332,0.17016 -5.01046,3.31203 -5.37841,3.50069 l -0.45102,0.23124 -1.18933,-1.67491 c -0.65413,-0.9212 -3.61813,-5.18423 -6.58667,-9.473394 l -5.39734,-7.798481 -0.63894,-0.159727 c -0.35141,-0.08785 -1.13476,-0.170099 -1.74077,-0.182776 -1.44982,-0.03033 -1.78237,0.161682 -2.43566,1.406367 -0.2956,0.563197 -0.6624,1.861883 -0.66315,2.347971 -2.4e-4,0.134037 0.69003,1.203281 1.53386,2.3761 2.94802,4.097395 11.62285,16.81692 11.62285,17.04209 0,0.11463 -5.03951,3.67263 -5.20187,3.67263 -0.0567,0 -0.97947,-1.30146 -2.05052,-2.89212 -4.99091,-7.41219 -9.05306,-13.311189 -10.72892,-15.580406 l -0.99879,-1.35242 -1.2201,-0.08403 c -1.5156,-0.104385 -2.70377,0.0099 -3.19227,0.306926 -0.20546,0.124949 -0.53925,0.487754 -0.74176,0.806233 -0.41438,0.65169 -1.14821,2.868737 -1.04155,3.146705 0.0383,0.09969 3.1186,4.601472 6.84521,10.003972 3.7266,5.40249 6.80283,9.89358 6.83607,9.98019 0.0383,0.0999 -0.94757,0.83045 -2.69419,1.99655 l -2.75461,1.83907 -0.29905,-0.33841 c -0.47202,-0.53416 -2.49801,-3.39658 -7.00974,-9.90374 -5.34922,-7.71505 -5.77877,-8.31549 -6.52966,-9.12742 l -0.62356,-0.674247 -1.28369,-0.04752 c -2.09435,-0.07753 -2.44629,0.166233 -3.07718,2.131327 l -0.31929,0.9945 6.90664,10.25736 c 3.79865,5.64154 6.85953,10.29886 6.80196,10.34958 -0.26273,0.23148 -5.42638,3.68128 -5.45442,3.64406 -0.0174,-0.0231 -1.15638,-1.71439 -2.53108,-3.75844 -2.50917,-3.73093 -3.84789,-5.68131 -8.81281,-12.83942 l -2.68073,-3.8649 -1.64499,0.0387 c -2.60098,0.0611 -2.9703,0.32437 -3.52995,2.51629 -0.14042,0.54998 -0.21499,1.06614 -0.16571,1.14702 0.0493,0.0809 3.20396,4.68803 7.01039,10.23813 3.80643,5.55009 6.9193,10.12865 6.91749,10.17458 -0.002,0.0459 -1.18769,0.86965 -2.6353,1.83049 -2.1794,1.44657 -2.65901,1.71898 -2.78897,1.58407 -0.0863,-0.0896 -2.98944,-4.18877 -6.45137,-9.10925 -7.54997,-10.73084 -7.53487,-10.71043 -8.09678,-10.94623 -0.50385,-0.21142 -2.59803,-0.15774 -3.56424,0.0914 -0.66883,0.17244 -1.28762,0.73721 -1.79847,1.64146 -0.3903,0.69086 -0.98146,2.27357 -0.98146,2.62766 0,0.12823 3.24254,4.93656 7.20564,10.68519 3.9631,5.74862 7.22536,10.53429 7.24947,10.63482 0.0299,0.12464 -1.38643,1.14136 -4.45318,3.19678 l -4.49701,3.01401 z"
     id="path868" />
  <path
     style="font-variation-settings:normal;opacity:1;vector-effect:none;fill:#ffd42a;fill-opacity:1;stroke-width:0.0001068;stroke-linecap:butt;stroke-linejoin:miter;stroke-miterlimit:4;stroke-dasharray:none;stroke-dashoffset:0;stroke-opacity:1;stop-color:#000000;stop-opacity:1"
     d="m 163.88202,132.5398 c -2.44691,-3.53714 -5.66935,-8.20341 -7.16097,-10.36951 l -2.71204,-3.93834 0.32836,-0.93571 c 0.37849,-1.07854 1.02566,-2.30011 1.39624,-2.63548 0.36481,-0.33014 1.57165,-0.54899 3.04371,-0.55193 l 1.27008,-0.003 0.47219,0.51787 c 0.2597,0.28483 2.61682,3.58852 5.23803,7.34154 7.19073,10.29558 8.38232,12.01951 8.38232,12.12718 0,0.0543 -0.26046,0.19172 -0.5788,0.3054 -2.00612,0.71639 -3.3363,1.79362 -4.4231,3.58198 -0.30249,0.49775 -0.60782,0.92428 -0.67853,0.94785 -0.0707,0.0236 -2.13057,-2.85117 -4.57749,-6.38831 z"
     id="path870" />
  <path
     style="font-variation-settings:normal;opacity:1;vector-effect:none;fill:#ffd42a;fill-opacity:1;stroke-width:0.0001068;stroke-linecap:butt;stroke-linejoin:miter;stroke-miterlimit:4;stroke-dasharray:none;stroke-dashoffset:0;stroke-opacity:1;stop-color:#000000;stop-opacity:1"
     d="m 179.28361,128.63705 c -0.87578,-1.24157 -5.18919,-7.53029 -10.00837,-14.59168 -3.13965,-4.60043 -2.92558,-4.11862 -2.50041,-5.62752 0.36364,-1.29053 0.86576,-1.56279 3.1387,-1.70186 l 1.26314,-0.0773 0.30944,0.41334 c 0.41656,0.55643 13.62044,19.726 13.62044,19.77434 0,0.0209 -0.46051,0.0706 -1.02336,0.11031 -1.65361,0.11669 -2.33945,0.54596 -3.26268,2.04211 -0.28722,0.46546 -0.56197,0.84629 -0.61055,0.84629 -0.0486,0 -0.46544,-0.53462 -0.92635,-1.18805 z"
     id="path872" />
  <path
     style="font-variation-settings:normal;opacity:1;vector-effect:none;fill:#ffd42a;fill-opacity:1;stroke-width:0.0001068;stroke-linecap:butt;stroke-linejoin:miter;stroke-miterlimit:4;stroke-dasharray:none;stroke-dashoffset:0;stroke-opacity:1;stop-color:#000000;stop-opacity:1"
     d="m 184.35789,112.55631 -6.77133,-10.07957 0.30034,-0.89327 c 0.39724,-1.18147 0.72488,-1.55774 1.50149,-1.724291 1.4467,-0.310262 2.32064,-0.03581 3.20511,1.006541 0.9986,1.17685 6.53651,9.07492 10.85534,15.4817 1.51742,2.25103 2.00157,3.05585 1.87755,3.12119 -0.0919,0.0484 -0.43254,0.12249 -0.75695,0.16462 -1.30692,0.1697 -2.11163,0.78622 -2.84559,2.18015 -0.23819,0.45238 -0.46942,0.8225 -0.51385,0.8225 -0.0444,0 -3.12788,-4.53581 -6.85211,-10.07957 z"
     id="path874" />
  <path
     style="font-variation-settings:normal;opacity:1;vector-effect:none;fill:#ffd42a;fill-opacity:1;stroke-width:0.0001068;stroke-linecap:butt;stroke-linejoin:miter;stroke-miterlimit:4;stroke-dasharray:none;stroke-dashoffset:0;stroke-opacity:1;stop-color:#000000;stop-opacity:1"
     d="m 201.28121,114.32385 c -0.42933,-0.62229 -1.64917,-2.42002 -2.71075,-3.99495 -1.87773,-2.78573 -5.89586,-8.60856 -8.74031,-12.665919 l -1.40487,-2.003934 0.2331,-0.85957 c 0.30255,-1.115686 0.93319,-2.373065 1.33569,-2.663104 0.39835,-0.287052 2.7288,-0.507797 3.41603,-0.323573 0.55384,0.148467 1.53706,1.176555 2.73633,2.861213 1.47707,2.074872 11.38966,16.511137 11.456,16.684017 0.0465,0.12118 -0.13671,0.18647 -0.70688,0.25189 -2.04828,0.235 -2.9815,0.85593 -4.17046,2.77485 l -0.66329,1.07052 z"
     id="path876" />
  <path
     style="font-variation-settings:normal;opacity:1;vector-effect:none;fill:#ffd42a;fill-opacity:1;stroke-width:0.0001068;stroke-linecap:butt;stroke-linejoin:miter;stroke-miterlimit:4;stroke-dasharray:none;stroke-dashoffset:0;stroke-opacity:1;stop-color:#000000;stop-opacity:1"
     d="m 213.1101,106.46012 c -0.92332,-1.18569 -4.57428,-6.461294 -10.24849,-14.808985 l -2.38402,-3.507284 0.23924,-0.879361 c 0.33952,-1.247942 0.70182,-1.904542 1.20519,-2.184231 0.36858,-0.204792 0.57537,-0.22679 1.52315,-0.162032 1.91589,0.130905 1.67283,-0.04891 3.54764,2.624489 2.63641,3.759402 8.02614,11.544098 9.71263,14.028504 l 1.54085,2.26986 -0.37888,0.0758 c -0.20839,0.0417 -0.49916,0.0758 -0.64617,0.0758 -0.57012,0 -1.5627,0.39571 -2.01299,0.80251 -0.25764,0.23277 -0.69581,0.86025 -0.97371,1.39442 -0.27791,0.53416 -0.52183,0.9712 -0.54206,0.9712 -0.0202,0 -0.2823,-0.31529 -0.58238,-0.70065 z"
     id="path878" />
  <path
     style="font-variation-settings:normal;opacity:1;vector-effect:none;fill:#ffd42a;fill-opacity:1;stroke-width:0.0001068;stroke-linecap:butt;stroke-linejoin:miter;stroke-miterlimit:4;stroke-dasharray:none;stroke-dashoffset:0;stroke-opacity:1;stop-color:#000000;stop-opacity:1"
     d="m 223.223,97.260354 c -2.02473,-2.890835 -11.0969,-16.021389 -11.30599,-16.363667 -0.13005,-0.21287 -0.0797,-0.433932 0.34865,-1.529389 0.649,-1.659927 1.08824,-2.350481 1.6151,-2.539182 0.58376,-0.20908 1.98269,-0.298762 3.07039,-0.196837 l 0.93301,0.08743 1.7257,2.518035 c 0.94914,1.38492 3.74643,5.407871 6.21621,8.939892 2.46977,3.532021 4.5192,6.496665 4.55429,6.588096 0.0449,0.11691 -0.27605,0.300747 -1.08143,0.619514 -2.01514,0.797573 -2.70475,1.376536 -3.73961,3.139595 -0.34935,0.595181 -0.6483,1.082149 -0.66432,1.082149 -0.016,0 -0.76843,-1.055537 -1.672,-2.345636 z"
     id="path880" />
  <path
     style="font-variation-settings:normal;opacity:1;vector-effect:none;fill:#ff9955;fill-opacity:1;stroke-linecap:butt;stroke-linejoin:miter;stroke-miterlimit:4;stroke-dasharray:none;stroke-dashoffset:0;stroke-opacity:1;stop-color:#000000;stop-opacity:1"
     d="M 21.240369,209.71558 C 20.989914,209.44284 7.2758836,191.43475 6.4019417,190.23102 c -0.2583935,-0.3559 -0.2680363,-0.41421 -0.1007567,-0.60926 0.1017408,-0.11863 0.9814679,-1.17527 1.9549494,-2.34809 l 1.7699666,-2.13239 1.721809,-10.72292 c 0.946996,-5.8976 1.721757,-10.76014 1.721692,-10.80566 -6.5e-5,-0.0455 0.65871,-0.47261 1.463943,-0.9491 1.187909,-0.70295 4.77586,-2.97752 10.317412,-6.5407 0.73667,-0.47367 0.687188,-0.27544 0.892821,-3.57684 0.162854,-2.61461 0.254104,-3.5339 0.350688,-3.53299 0.150185,0.001 3.839162,5.3974 12.495092,18.27699 3.265443,4.85882 5.986026,8.88475 6.045739,8.94651 0.126713,0.13105 1.287961,-0.62591 5.842526,-3.80847 3.931615,-2.74725 12.017102,-8.51829 14.227885,-10.15519 l 1.616279,-1.19671 -0.168079,-0.39629 c -0.09244,-0.21796 -0.45269,-0.86237 -0.800548,-1.43203 -0.770337,-1.2615 -1.962069,-3.68725 -2.508383,-5.10577 -0.530522,-1.37752 -0.715214,-2.37554 -0.639363,-3.45493 0.128831,-1.83331 0.798496,-3.02586 2.822125,-5.02571 2.798361,-2.76548 5.780348,-4.54248 8.419048,-5.01699 1.661299,-0.29875 3.163505,-0.002 4.525219,0.89408 1.273636,0.83807 4.557177,4.49134 6.424019,7.14737 0.526588,0.7492 0.997875,1.35131 1.047304,1.33802 0.04943,-0.0133 3.264981,-2.17336 7.145675,-4.80014 3.880692,-2.62678 9.824876,-6.65053 13.209296,-8.94166 3.38442,-2.29113 10.84171,-7.33789 16.57177,-11.21501 5.73006,-3.87713 11.53651,-7.80626 12.90324,-8.73141 l 2.48497,-1.68209 1.94371,2.89231 c 4.03376,6.00237 10.56874,15.99413 11.70594,17.89797 0.0527,0.0882 -1.41123,1.18738 -3.9675,2.97892 -6.7416,4.72478 -8.62044,6.08977 -8.62044,6.26281 0,0.29789 3.5212,5.4858 8.93273,13.16094 1.6066,2.27862 2.96893,4.20427 3.02742,4.27922 0.10804,0.13844 -10.97508,7.54243 -33.04035,22.07236 l -4.69122,3.08915 -0.27603,-0.34191 c -0.15182,-0.18806 -2.50967,-3.6688 -5.23967,-7.73499 l -4.96363,-7.39308 -1.21851,-0.48454 c -2.795834,-1.11176 -6.790584,-1.66236 -8.28589,-1.14206 -0.979349,0.34078 -2.973005,1.60149 -10.540134,6.66517 -11.666253,7.80669 -23.18407,15.70032 -25.538758,17.50276 -0.08131,0.0622 -0.459901,-0.14621 -0.976877,-0.53787 -1.053511,-0.79814 -2.108069,-1.27718 -3.350441,-1.52194 -0.761382,-0.15 -1.058035,-0.16063 -1.419369,-0.0508 -1.230026,0.37371 -4.307798,2.48026 -4.874144,3.33607 -0.406809,0.61473 -0.418529,1.31918 -0.04072,2.44725 0.230612,0.68857 0.250336,0.8588 0.117985,1.01828 -0.19787,0.23841 -1.631329,1.17755 -8.027838,5.25944 -6.501362,4.14881 -8.4017,5.29186 -8.643229,5.19888 -0.926727,-0.35675 -4.739637,-1.66223 -4.882262,-1.6716 -0.100527,-0.007 -0.895607,0.45561 -1.766843,1.02715 -0.871237,0.57154 -1.673728,1.0704 -1.783317,1.10858 -0.123084,0.0429 -0.313651,-0.0552 -0.498528,-0.25648 z"
     id="path884" />
  <path
     style="font-variation-settings:normal;opacity:1;vector-effect:none;fill:#ff9955;fill-opacity:1;stroke-linecap:butt;stroke-linejoin:miter;stroke-miterlimit:4;stroke-dasharray:none;stroke-dashoffset:0;stroke-opacity:1;stop-color:#000000;stop-opacity:1"
     d="m 203.81768,35.635508 c -2.93743,-4.349912 -3.94899,-5.866112 -3.92485,-5.882841 0.6873,-0.47613 7.87854,-5.157662 8.61597,-5.609031 0.58249,-0.356534 1.26354,-0.707912 1.51345,-0.780839 0.43341,-0.126476 0.47195,-0.124089 0.83516,0.05174 0.4921,0.238223 1.21582,1.017209 2.13319,2.296097 1.69452,2.362319 2.73459,4.103114 2.73663,4.580399 0.002,0.535368 -0.79594,1.245515 -3.18678,2.835128 -1.66294,1.105652 -6.97229,4.476206 -7.17125,4.552558 -0.10364,0.03977 -0.47651,-0.45127 -1.55152,-2.043211 z"
     id="path886" />
  <path
     style="font-variation-settings:normal;opacity:1;vector-effect:none;fill:#ff9955;fill-opacity:1;stroke-linecap:butt;stroke-linejoin:miter;stroke-miterlimit:4;stroke-dasharray:none;stroke-dashoffset:0;stroke-opacity:1;stop-color:#000000;stop-opacity:1"
     d="m 216.33486,53.922736 c -4.09734,-6.105353 -7.46212,-11.137881 -7.47729,-11.183397 -0.0152,-0.04552 2.30972,-1.653884 5.16642,-3.574149 2.8567,-1.920265 8.16857,-5.490101 11.80415,-7.932968 l 6.61014,-4.441576 1.14443,-0.146156 c 1.97267,-0.251933 2.40855,-0.104991 3.46937,1.169565 1.77611,2.133977 10.78338,15.272064 11.56359,16.866754 0.31909,0.652182 0.35215,1.187007 0.11435,1.849307 -0.23059,0.642202 -0.58335,1.293395 -1.09499,2.021368 -0.62101,0.883585 -1.18321,1.282088 -13.42487,9.515888 -8.19802,5.514028 -10.36894,6.966631 -10.40231,6.960371 -0.0128,-0.0024 -3.37564,-4.999656 -7.47299,-11.105007 z m 16.47868,-3.305384 c 1.12136,-0.554283 2.24113,-1.89747 2.7445,-3.292083 0.35431,-0.981637 0.29937,-2.70505 -0.1222,-3.833364 -0.22298,-0.596797 -0.81486,-1.184423 -1.76671,-1.754031 -1.13293,-0.677965 -1.71866,-0.863456 -2.73312,-0.865532 -0.76134,-0.0016 -0.93767,0.02871 -1.515,0.260029 -1.45872,0.58447 -3.08284,1.910778 -3.57484,2.919326 -0.23021,0.471912 -0.25213,0.595824 -0.25144,1.421671 6.9e-4,0.804816 0.0268,0.960533 0.23689,1.410421 0.53477,1.145318 2.30596,3.227473 3.09658,3.640252 0.69703,0.363914 1.2011,0.463905 2.22777,0.441921 0.95919,-0.02054 1.01952,-0.03323 1.65757,-0.34861 z"
     id="path888" />
  <path
     style="font-variation-settings:normal;opacity:1;vector-effect:none;fill:#ff9955;fill-opacity:1;stroke-linecap:butt;stroke-linejoin:miter;stroke-miterlimit:4;stroke-dasharray:none;stroke-dashoffset:0;stroke-opacity:1;stop-color:#000000;stop-opacity:1"
     d="m 229.27279,72.808217 c -1.4123,-1.857263 -5.01615,-7.142965 -5.01162,-7.350459 0.001,-0.06825 0.0887,-0.186212 0.19387,-0.262149 1.89992,-1.372265 6.09319,-4.224402 16.62609,-11.308589 l 3.16601,-2.129386 0.5742,0.885934 c 3.32606,5.131718 3.57473,5.566581 3.63142,6.350229 0.0317,0.438484 -0.001,0.597527 -0.21855,1.062411 -0.3527,0.753712 -0.65447,1.068825 -1.95502,2.041453 -2.10065,1.570988 -16.28535,11.37831 -16.45687,11.37831 -0.023,0 -0.27025,-0.300489 -0.54953,-0.667754 z"
     id="path890" />
  <path
     style="font-variation-settings:normal;opacity:1;vector-effect:none;fill:#ff9955;fill-opacity:1;stroke-linecap:butt;stroke-linejoin:miter;stroke-miterlimit:4;stroke-dasharray:none;stroke-dashoffset:0;stroke-opacity:1;stop-color:#000000;stop-opacity:1"
     d="m 62.389676,116.37584 c -0.568508,-0.92475 -1.154181,-1.88435 -1.301496,-2.13244 l -0.267844,-0.45108 2.230102,-1.48921 c 3.589358,-2.39688 13.574343,-9.24562 34.886241,-23.928598 4.490221,-3.093567 12.578101,-8.659299 17.973061,-12.368294 12.72896,-8.751056 36.31619,-24.999647 39.91201,-27.494271 1.54456,-1.071553 2.86829,-1.985355 2.94161,-2.030671 0.15063,-0.0931 0.86649,1.055564 1.63107,2.617185 0.46007,0.939692 0.493,1.074096 0.4446,1.814835 -0.0754,1.154403 -0.82875,2.568153 -1.97611,3.708512 -1.06893,1.062413 -2.81427,2.248301 -20.8981,14.199458 -7.7406,5.115572 -22.02462,14.568981 -31.74225,21.007575 -9.717643,6.438596 -19.798803,13.104589 -22.40258,14.813329 -2.603779,1.70873 -8.196752,5.40978 -12.42883,8.22454 -4.232078,2.81477 -7.756144,5.13412 -7.83126,5.15412 -0.07511,0.02 -0.601716,-0.72024 -1.170224,-1.64499 z"
     id="path892" />
  <path
     style="font-variation-settings:normal;opacity:1;vector-effect:none;fill:#ff9955;fill-opacity:1;stroke-width:0.000107671;stroke-linecap:butt;stroke-linejoin:miter;stroke-miterlimit:4;stroke-dasharray:none;stroke-dashoffset:0;stroke-opacity:1;stop-color:#000000;stop-opacity:1"
     d="m 112.86964,189.78674 c -0.28057,-0.44241 -0.51013,-0.90536 -0.51013,-1.02876 0,-0.17296 42.02487,-28.31389 42.28315,-28.31389 0.0328,0 0.33706,0.41776 0.67607,0.92835 l 0.61639,0.92834 -21.27768,14.14517 -21.27768,14.14517 z"
     id="path894" />
  <path
     style="font-variation-settings:normal;opacity:1;vector-effect:none;fill:#ff9955;fill-opacity:1;stroke-width:0.000107671;stroke-linecap:butt;stroke-linejoin:miter;stroke-miterlimit:4;stroke-dasharray:none;stroke-dashoffset:0;stroke-opacity:1;stop-color:#000000;stop-opacity:1"
     d="m 135.52578,96.881415 c -1.4818,-0.685485 -2.23494,-1.600211 -6.12084,-7.434107 -3.28806,-4.936342 -3.58898,-5.667791 -3.05922,-7.43598 0.35853,-1.196643 2.06531,-2.545044 3.23484,-2.555595 0.79581,-0.0072 1.88905,0.688468 2.66078,1.693099 1.48839,1.937575 6.55189,9.618587 7.11415,10.791724 0.45051,0.939973 0.57581,1.420963 0.57581,2.210383 0,1.14869 -0.31363,1.586035 -1.72323,2.40295 -1.08971,0.631524 -1.82979,0.721892 -2.68229,0.327526 z"
     id="path896" />
  <path
     style="font-variation-settings:normal;opacity:1;vector-effect:none;fill:#ff5555;fill-opacity:1;stroke-width:0.000373881;stroke-linecap:butt;stroke-linejoin:miter;stroke-miterlimit:4;stroke-dasharray:none;stroke-dashoffset:0;stroke-opacity:1;stop-color:#000000;stop-opacity:1"
     d="m 153.20961,221.78133 c -6.97492,-4.49005 -12.57898,-8.50067 -16.70921,-11.95818 -3.38593,-2.83445 -7.1815,-6.95501 -11.75283,-12.75914 -2.72733,-3.46285 -6.87745,-9.05124 -6.78286,-9.13353 0.35987,-0.31303 6.54378,-4.38065 6.61825,-4.35331 0.0519,0.019 1.13977,1.53016 2.41747,3.35802 2.44895,3.50343 4.62135,6.46485 5.7856,7.88693 0.92673,1.13196 3.38661,3.61294 4.82662,4.868 2.4798,2.16132 6.52838,5.01742 10.68133,7.53522 2.65108,1.60727 2.88778,1.71154 3.71487,1.63655 1.49902,-0.13593 3.05868,-1.26528 3.78506,-2.74078 0.51533,-1.04679 0.51643,-1.68767 0.005,-2.72532 -0.49103,-0.99561 -1.29577,-1.79508 -3.06005,-3.04 -6.10549,-4.3082 -7.41835,-5.33411 -9.80815,-7.6644 -1.85989,-1.81358 -3.46147,-3.63844 -5.50052,-6.26733 -1.40436,-1.81061 -5.45584,-7.31506 -5.52126,-7.50133 -0.0352,-0.10032 6.46966,-4.53872 6.73977,-4.59866 0.067,-0.0149 1.30076,1.68043 2.74166,3.76735 5.48416,7.94301 6.57265,9.24273 9.93087,11.85806 1.53475,1.19523 5.69103,3.95485 7.36007,4.88681 1.08735,0.60716 1.37521,0.71461 2.02535,0.75601 1.14966,0.0732 2.02028,-0.22658 2.8002,-0.9642 0.79757,-0.7543 1.44142,-1.92009 1.44142,-2.60991 0,-1.11012 -1.05295,-2.39007 -3.75708,-4.56708 -2.17504,-1.75104 -5.2319,-4.44682 -6.70249,-5.91078 -1.95216,-1.94334 -4.16589,-4.81072 -7.40295,-9.58883 l -1.54313,-2.27775 0.57413,-0.41587 c 0.85051,-0.61607 3.52693,-2.39076 3.66275,-2.4287 0.0647,-0.0181 1.05958,1.42023 2.21095,3.19621 3.54511,5.46833 5.72906,8.39328 7.9213,10.60895 2.60958,2.63748 6.33719,5.3597 12.45464,9.09547 l 1.18339,0.72266 -9.10744,15.46662 c -5.00909,8.50663 -9.25887,15.72707 -9.44396,16.0454 -0.18508,0.31834 -0.40274,0.57502 -0.48369,0.57041 -0.081,-0.005 -0.66809,-0.34372 -1.30476,-0.75357 z"
     id="path898" />
  <path
     style="font-variation-settings:normal;opacity:1;vector-effect:none;fill:#ff5555;fill-opacity:1;stroke-width:0.000373881;stroke-linecap:butt;stroke-linejoin:miter;stroke-miterlimit:4;stroke-dasharray:none;stroke-dashoffset:0;stroke-opacity:1;stop-color:#000000;stop-opacity:1"
     d="m 157.7181,229.80685 c -1.78055,-0.89737 -4.84375,-2.57367 -5.04183,-2.75909 -0.13239,-0.12393 0.10191,-0.54748 3.73882,-6.75872 12.02874,-20.54311 18.53646,-31.3767 18.84793,-31.3767 0.22926,0 5.9637,2.81489 6.47249,3.17718 0.59045,0.42043 1.31707,-0.97213 -6.43785,12.3381 -12.64753,21.70772 -15.3646,26.28081 -15.61094,26.27469 -0.11097,-0.003 -0.99685,-0.40571 -1.96862,-0.89546 z"
     id="path900" />
  <path
     style="font-variation-settings:normal;opacity:1;vector-effect:none;fill:#ffd42a;fill-opacity:1;stroke-linecap:butt;stroke-linejoin:miter;stroke-miterlimit:4;stroke-dasharray:none;stroke-dashoffset:0;stroke-opacity:1;stop-color:#000000;stop-opacity:1"
     d="m 70.68695,216.79597 c -0.329277,-0.20258 -0.539771,-0.48952 -0.544456,-0.74218 -0.0058,-0.31494 0.687321,-1.03898 1.12934,-1.17964 0.697684,-0.22202 8.37652,-0.83015 8.615707,-0.68232 0.06657,0.0411 0.121031,0.50811 0.121031,1.03772 v 0.96292 l -0.456943,0.12197 c -0.639922,0.17082 -4.3461,0.48434 -6.671357,0.56437 -1.431606,0.0493 -2.014372,0.0273 -2.193322,-0.0828 z"
     id="path902" />
  <path
     style="font-variation-settings:normal;opacity:1;vector-effect:none;fill:#ffd42a;fill-opacity:1;stroke-linecap:butt;stroke-linejoin:miter;stroke-miterlimit:4;stroke-dasharray:none;stroke-dashoffset:0;stroke-opacity:1;stop-color:#000000;stop-opacity:1"
     d="m 70.382384,228.61565 c -0.879283,-0.35061 -1.130477,-1.22059 -0.551205,-1.90901 0.664722,-0.78998 1.794008,-1.01344 6.278152,-1.24232 3.335592,-0.17025 5.180688,-0.16032 5.330413,0.0287 0.20636,0.26052 0.530029,1.3861 0.555281,1.93104 0.02327,0.50213 0.0095,0.52299 -0.402387,0.61056 -0.539108,0.11462 -3.902075,0.4364 -6.214415,0.59461 -2.218926,0.15183 -4.59723,0.14536 -4.995839,-0.0136 z"
     id="path906" />
  <path
     style="font-variation-settings:normal;opacity:1;vector-effect:none;fill:#ffd42a;fill-opacity:1;stroke-linecap:butt;stroke-linejoin:miter;stroke-miterlimit:4;stroke-dasharray:none;stroke-dashoffset:0;stroke-opacity:1;stop-color:#000000;stop-opacity:1"
     d="m 82.711065,126.41044 c -0.352662,-0.0433 -0.9274,-0.15726 -1.277195,-0.25322 -2.185771,-0.59966 -2.844818,-1.90101 -2.094105,-4.13499 0.665253,-1.97968 2.09542,-3.79748 4.270989,-5.4286 1.782682,-1.33656 42.599076,-30.297865 42.818996,-30.382254 0.2477,-0.09506 0.63903,0.433847 3.79314,5.12672 1.81933,2.706909 2.36722,3.581496 2.27583,3.632861 -0.22294,0.125317 -10.29701,6.951153 -21.23001,14.384733 -20.717376,14.08617 -22.547717,15.29548 -24.728453,16.33814 -1.438863,0.68795 -2.478396,0.8825 -3.829192,0.71661 z"
     id="path908" />
  <path
     style="font-variation-settings:normal;opacity:1;vector-effect:none;fill:#ff2a2a;fill-opacity:1;stroke-linecap:butt;stroke-linejoin:miter;stroke-miterlimit:4;stroke-dasharray:none;stroke-dashoffset:0;stroke-opacity:1;stop-color:#000000;stop-opacity:1"
     d="m 159.14652,194.67637 c -2.51043,-1.36015 -5.97721,-3.65775 -8.1031,-5.37033 -2.76104,-2.22425 -4.05157,-3.78984 -9.1799,-11.1364 l -2.86993,-4.11132 1.48595,-1.02005 c 2.51824,-1.72869 4.71465,-3.1667 4.75673,-3.11427 0.0221,0.0275 0.96428,1.36596 2.09381,2.9744 5.23539,7.45516 6.55492,8.94571 11.69533,13.2112 4.35799,3.61624 5.18812,4.44528 5.53951,5.53228 0.13946,0.43141 0.12293,0.52136 -0.22396,1.21851 -0.44427,0.89287 -1.23242,1.84009 -1.75664,2.11117 -0.21542,0.1114 -0.79594,0.21683 -1.35863,0.24674 l -0.98251,0.0522 z"
     id="path910" />
  <path
     style="font-variation-settings:normal;opacity:1;vector-effect:none;fill:#ff2a2a;fill-opacity:1;stroke-width:0.121851;stroke-linecap:butt;stroke-linejoin:miter;stroke-miterlimit:4;stroke-dasharray:none;stroke-dashoffset:0;stroke-opacity:1;stop-color:#000000;stop-opacity:1"
     d="m 151.04703,208.29842 c -2.06702,-0.76494 -10.1238,-6.19947 -13.62817,-9.1926 -2.19746,-1.87687 -5.22014,-5.3911 -8.07882,-9.3926 -1.68177,-2.35409 -4.37365,-6.34624 -4.37059,-6.48172 0.001,-0.0537 1.43412,-0.98457 3.18422,-2.06866 2.52622,-1.56484 3.22265,-1.94527 3.37917,-1.84591 0.23232,0.14749 0.53712,0.54139 3.89648,5.03549 5.90308,7.89705 8.27167,10.16988 16.64072,15.96803 3.49198,2.41928 4.37779,3.88511 3.41575,5.65238 -0.44221,0.81235 -1.27001,1.68038 -2.0237,2.12208 -0.76903,0.45068 -1.56574,0.51781 -2.41506,0.20351 z"
     id="path912" />
</svg>
