<?xml version="1.0" encoding="UTF-8" standalone="no"?>
<svg
   xmlns:dc="http://purl.org/dc/elements/1.1/"
   xmlns:cc="http://creativecommons.org/ns#"
   xmlns:rdf="http://www.w3.org/1999/02/22-rdf-syntax-ns#"
   xmlns:svg="http://www.w3.org/2000/svg"
   xmlns="http://www.w3.org/2000/svg"
   xmlns:xlink="http://www.w3.org/1999/xlink"
   xmlns:sodipodi="http://sodipodi.sourceforge.net/DTD/sodipodi-0.dtd"
   xmlns:inkscape="http://www.inkscape.org/namespaces/inkscape"
   cursor="default"
   viewBox="0 0 256 256"
   version="1.1"
   id="svg53"
   sodipodi:docname="chainaxe.svg"
   inkscape:version="1.0.2-2 (e86c870879, 2021-01-15)">
  <metadata
     id="metadata57">
    <rdf:RDF>
      <cc:Work
         rdf:about="">
        <dc:format>image/svg+xml</dc:format>
        <dc:type
           rdf:resource="http://purl.org/dc/dcmitype/StillImage" />
      </cc:Work>
    </rdf:RDF>
  </metadata>
  <sodipodi:namedview
     pagecolor="#ffffff"
     bordercolor="#666666"
     borderopacity="1"
     objecttolerance="10"
     gridtolerance="10"
     guidetolerance="10"
     inkscape:pageopacity="0"
     inkscape:pageshadow="2"
     inkscape:window-width="1920"
     inkscape:window-height="1017"
     id="namedview55"
     showgrid="false"
     inkscape:zoom="1.9631877"
     inkscape:cx="184.1473"
     inkscape:cy="164.98184"
     inkscape:window-x="-8"
     inkscape:window-y="-8"
     inkscape:window-maximized="1"
     inkscape:current-layer="svg53"
     inkscape:document-rotation="0" />
  <defs
     id="defs25">
    <linearGradient
       id="innoGrad2">
      <stop
         offset="0"
         stop-color="#f55"
         id="stop2" />
      <stop
         offset="1"
         stop-color="#ff8080"
         id="stop4" />
    </linearGradient>
    <linearGradient
       id="innoGrad3">
      <stop
         offset="0"
         stop-color="#f55"
         id="stop7" />
      <stop
         offset="1"
         stop-color="#ff2a2a"
         id="stop9" />
    </linearGradient>
    <linearGradient
       id="innoGrad1">
      <stop
         offset="0"
         stop-color="#ff7f2a"
         id="stop12" />
      <stop
         offset="1"
         stop-color="#f95"
         id="stop14" />
    </linearGradient>
    <linearGradient
       id="linearGradient1068"
       x1="87.051"
       x2="54.78"
       y1="102.78"
       y2="123.932"
       gradientTransform="translate(6.903 5.37)"
       gradientUnits="userSpaceOnUse"
       xlink:href="#innoGrad1" />
    <linearGradient
       id="linearGradient1076"
       x1="125.831"
       x2="107.39"
       y1="56.949"
       y2="73.763"
       gradientTransform="translate(6.903 5.37)"
       gradientUnits="userSpaceOnUse"
       xlink:href="#innoGrad1" />
    <linearGradient
       id="linearGradient1084"
       x1="184.678"
       x2="165.966"
       y1="32"
       y2="46.373"
       gradientTransform="translate(6.903 5.37)"
       gradientUnits="userSpaceOnUse"
       xlink:href="#innoGrad1" />
    <linearGradient
       id="linearGradient1092"
       x1="53.966"
       x2="38.78"
       y1="163.525"
       y2="179.525"
       gradientTransform="translate(6.903 5.37)"
       gradientUnits="userSpaceOnUse"
       xlink:href="#innoGrad1" />
    <linearGradient
       id="linearGradient1100"
       x1="156.475"
       x2="120.949"
       y1="104.678"
       y2="137.492"
       gradientTransform="translate(6.903 5.37)"
       gradientUnits="userSpaceOnUse"
       xlink:href="#innoGrad1" />
    <linearGradient
       id="linearGradient1108"
       x1="120.136"
       x2="184.678"
       y1="232.136"
       y2="130.712"
       gradientTransform="translate(6.903 5.37)"
       gradientUnits="userSpaceOnUse"
       xlink:href="#innoGrad1" />
    <linearGradient
       id="linearGradient1116"
       x1="82.072"
       x2="27.613"
       y1="213.813"
       y2="231.839"
       gradientTransform="translate(6.903 5.37)"
       gradientUnits="userSpaceOnUse"
       xlink:href="#innoGrad3" />
    <linearGradient
       id="linearGradient1124"
       x1="204.03"
       x2="223.206"
       y1="87.637"
       y2="49.285"
       gradientTransform="translate(6.903 5.37)"
       gradientUnits="userSpaceOnUse"
       xlink:href="#innoGrad2" />
  </defs>
  <path
     style="fill:#000000;stroke-width:0.174619"
     d="m 8.9331761,199.33253 c 0.00583,-0.21027 0.6549818,-0.91024 2.1976169,-2.36966 l 2.189331,-2.07123 1.026894,1.01163 1.02688,1.01165 3.292972,-3.05121 3.292984,-3.05122 -0.894978,-1.02028 -0.894967,-1.02029 19.344304,-18.30081 19.344304,-18.30081 0.944353,1.08972 0.944341,1.08973 3.116817,-2.94868 3.116818,-2.94869 -1.013387,-1.1446 -1.013401,-1.14459 8.236716,-7.99877 c 4.530201,-4.39933 8.35374,-8.04705 8.496757,-8.10605 0.202788,-0.0837 0.481169,0.12646 1.264512,0.95447 l 1.004478,1.06175 3.789416,-3.42652 c 2.084178,-1.8846 9.997134,-9.29919 17.584343,-16.47688 l 13.79493,-13.050343 -0.71295,-0.753601 c -0.4208,-0.444797 -0.68732,-0.850121 -0.6504,-0.989148 0.0344,-0.129549 3.37626,-3.34312 7.42636,-7.141266 l 7.36381,-6.905721 -1.46247,-1.579938 c -0.80436,-0.868965 -3.12839,-3.411265 -5.16452,-5.649555 l -3.70204,-4.069619 3.99083,-3.839008 3.99083,-3.839008 -1.01175,-1.142793 -1.01174,-1.142793 4.00188,-3.695741 4.00188,-3.69574 -0.6062,-0.718667 -0.60619,-0.718666 10.7055,-10.281388 c 7.14263,-6.859674 10.79862,-10.288655 10.98532,-10.303216 0.15391,-0.012 0.51623,0.228052 0.80516,0.533458 l 0.52533,0.555284 0.92599,-0.876039 c 0.55108,-0.521356 1.04592,-0.872714 1.22221,-0.867828 0.21831,0.0061 1.32783,1.098634 4.2184,4.154028 l 3.92218,4.145817 0.35777,-0.193527 c 0.19677,-0.106439 1.28608,-1.070284 2.42068,-2.141879 l 2.06292,-1.948355 0.29497,0.311785 c 0.28489,0.301139 0.32972,0.281297 1.31308,-0.58121 l 1.01812,-0.892994 0.90346,0.827933 0.90346,0.827933 2.153,-1.916664 2.15299,-1.916664 2.26291,2.238767 c 1.24459,1.231324 5.10884,5.201571 8.58722,8.822771 l 6.32432,6.584004 -2.1553,2.104799 -2.15529,2.1048 0.64863,0.685607 c 0.90868,0.96049 0.86714,1.234352 -0.36381,2.398906 -0.88067,0.833158 -0.97181,0.97231 -0.81913,1.250536 0.16288,0.296793 0.0426,0.438654 -2.31345,2.729513 l -2.48526,2.416449 4.74021,5.010491 4.74021,5.010492 1.07026,0.38393 c 0.66646,0.239078 1.68397,0.383053 2.69689,0.381604 2.3356,-0.0033 2.5472,-0.12926 6.98644,-4.157422 l 3.63266,-3.296272 17.47849,18.305126 c 9.61318,10.067819 17.49556,18.387552 17.51642,18.488302 0.0418,0.20219 -4.66999,4.66663 -6.20414,5.87839 l -0.96303,0.76066 -0.74544,-0.61686 c -0.41,-0.33927 -1.4008,-1.18703 -2.20179,-1.8839 -1.87507,-1.63135 -3.36577,-2.52155 -5.43266,-3.24425 l -1.6618,-0.58105 0.27254,0.73278 c 0.77114,2.07341 0.74007,4.212 -0.0951,6.54643 -0.5281,1.47607 -0.90968,1.26338 -1.24074,-0.69158 -0.26783,-1.58155 -0.8162,-2.78811 -1.8643,-4.10196 -1.39876,-1.75342 -2.72686,-1.96352 -6.35125,-1.00473 -1.97897,0.52351 -3.95956,1.26353 -3.96404,1.48111 -0.002,0.0857 0.24529,0.67783 0.54901,1.31595 0.89175,1.87356 1.52285,3.96272 1.71246,5.66886 0.26776,2.40937 0.23748,7.26974 -0.047,7.53885 -0.35268,0.33366 -0.48128,0.11477 -1.04329,-1.77581 -1.08542,-3.65136 -2.9733,-5.62894 -5.22649,-5.47483 -1.28576,0.0879 -3.81794,0.91704 -5.11119,1.67353 l -1.12901,0.66041 0.68743,1.89638 c 1.40637,3.87972 1.62944,5.86073 1.16503,10.34593 -0.35069,3.38683 -0.82742,3.84462 -1.36363,1.30947 -0.42613,-2.01466 -0.65668,-2.67325 -1.28271,-3.66422 -0.85829,-1.35861 -1.72645,-1.77363 -4.00563,-1.91485 -1.83301,-0.11358 -2.24873,-0.006 -3.52135,0.90801 -0.38042,0.27334 -0.99039,0.62984 -1.35547,0.79222 l -0.6638,0.29524 0.34788,1.16317 c 0.56791,1.89887 1.11219,4.65139 1.24962,6.31957 0.1971,2.39253 0.0881,6.76749 -0.17483,7.01622 -0.31654,0.29947 -0.56845,-0.0126 -0.74881,-0.92781 -0.5293,-2.68565 -1.48943,-4.59763 -2.64159,-5.2604 -0.75255,-0.4329 -2.95309,-0.62669 -4.46195,-0.39295 -0.78356,0.12138 -1.10986,0.28879 -2.1038,1.07936 -0.64702,0.51463 -1.30689,0.98709 -1.46638,1.04991 -0.22513,0.0887 -0.19883,0.67175 0.11765,2.60776 0.22419,1.37144 0.4417,3.3638 0.48335,4.42745 0.10195,2.60383 -0.19894,7.59868 -0.47352,7.86045 -0.32118,0.30626 -0.5786,-0.0649 -0.73611,-1.06152 -0.21587,-1.36574 -0.65575,-2.68456 -1.2647,-3.79178 -0.9587,-1.74315 -2.29282,-2.56734 -4.16074,-2.57041 -1.32478,-0.002 -1.99077,0.24852 -3.37468,1.27025 -0.6733,0.4971 -1.38397,0.97199 -1.57925,1.05531 -0.31497,0.13439 -0.2957,0.36164 0.17061,2.01239 0.28912,1.02349 0.64757,2.5357 0.79655,3.36047 0.33977,1.88102 0.20222,8.41534 -0.18486,8.78154 -0.33627,0.31813 -0.62485,0.0378 -0.73287,-0.71183 -0.2866,-1.98901 -1.40575,-4.26452 -2.5305,-5.14515 -0.90922,-0.71187 -2.33336,-1.20657 -3.206,-1.11365 -0.83277,0.0887 -2.00803,0.83154 -3.45098,2.18131 -0.41541,0.38858 -0.9916,0.76442 -1.31449,0.85742 -0.31619,0.0911 -0.56946,0.19546 -0.56282,0.23198 0.007,0.0365 0.20717,0.91657 0.44562,1.95568 0.23845,1.0391 0.50176,2.48996 0.58514,3.22413 0.20293,1.78681 0.11706,8.59547 -0.11114,8.81135 -0.36798,0.34814 -0.67342,-0.0958 -0.97038,-1.41034 -0.44531,-1.97125 -0.82294,-2.74109 -1.92805,-3.93059 -0.87319,-0.93987 -1.08695,-1.08351 -2.22839,-1.49752 -1.79114,-0.64966 -2.61898,-0.49825 -4.10877,0.75148 -1.2761,1.07047 -2.00359,1.47878 -2.85837,1.60427 l -0.59211,0.0869 -0.10807,2.75098 c -0.0594,1.51304 -0.26188,3.37942 -0.44985,4.1475 -0.53426,2.18301 -2.20778,6.88956 -2.49133,7.00654 -0.48344,0.19944 -0.56889,-0.22933 -0.32872,-1.64958 0.24698,-1.46056 0.22698,-2.54322 -0.0654,-3.54065 -0.26128,-0.89132 -1.26688,-2.37003 -2.0045,-2.94755 -0.58011,-0.4542 -0.85685,-0.51916 -2.24446,-0.5269 -0.87052,-0.005 -2.51901,0.15721 -3.66331,0.36012 -1.14429,0.20292 -2.29707,0.37375 -2.56172,0.37961 -0.47149,0.0105 -0.49732,0.0496 -1.28429,1.94559 -0.44172,1.06421 -1.06292,2.34634 -1.38046,2.84919 -0.73998,1.17182 -2.50101,3.24411 -3.80607,4.47877 -1.41893,1.34239 -1.61651,1.07953 -0.88549,-1.17807 1.16935,-3.61134 1.03185,-5.61759 -0.49499,-7.22226 -1.00491,-1.05613 -2.01065,-1.39653 -3.31839,-1.12314 -1.22859,0.25685 -2.62115,0.12396 -3.59145,-0.34272 -0.53365,-0.25666 -0.77617,-0.28396 -0.88113,-0.0992 -0.42547,0.74909 -2.1417,2.88015 -2.8884,3.58657 -1.1181,1.05778 -2.53852,1.75692 -5.36708,2.64168 -1.66958,0.52225 -2.33029,0.64939 -2.49111,0.4794 -0.20164,-0.21313 -0.0808,-0.36057 1.53397,-1.87224 1.50978,-1.41337 1.82148,-1.77974 2.24781,-2.64222 1.03338,-2.09051 1.10939,-3.80287 0.20953,-4.72004 -0.19165,-0.19533 -0.97658,-0.73445 -1.74429,-1.19803 -0.76771,-0.46358 -1.57408,-0.96664 -1.79192,-1.11792 -0.35216,-0.24453 -0.57262,-0.19277 -1.9876,0.46665 -3.1376,1.4622 -5.33042,1.86686 -9.83266,1.81452 -1.85637,-0.0216 -2.386294,-0.28541 -1.56248,-0.7779 2.3726,-1.41838 2.99626,-2.06315 3.61268,-3.73499 0.50176,-1.36084 0.63205,-2.39324 0.46019,-3.64641 l -0.13272,-0.96777 -1.02338,0.25392 c -2.42195,0.60093 -5.03161,2.09539 -7.757636,4.44251 l -1.788384,1.5398 -2.535375,-2.76955 c -1.394454,-1.52326 -2.536064,-2.8504 -2.536902,-2.94921 -0.001,-0.12115 28.434187,-26.49484 28.900347,-26.80509 0.0106,-0.007 0.69363,0.62018 1.51794,1.39379 2.73639,2.56807 4.75836,3.72636 7.76105,4.44592 2.89589,0.69398 8.41869,0.64794 10.67297,-0.089 l 1.19359,-0.39018 11.01326,-10.46426 c 6.05728,-5.75534 12.22922,-11.72261 13.71541,-13.2606 2.6074,-2.69827 2.71307,-2.82988 3.01343,-3.75264 0.46373,-1.42472 0.44271,-5.51532 -0.0374,-7.26771 l -0.39192,-1.43061 -4.36899,-4.693288 -4.36899,-4.693293 -0.35421,0.208953 c -0.19481,0.114923 -0.73905,0.545367 -1.20941,0.956541 l -0.85521,0.747589 -1.50568,-1.520191 -1.50568,-1.520192 -2.59648,2.456415 -2.59648,2.456416 -0.66003,-0.697664 -0.66002,-0.697663 -7.28338,6.890487 c -4.00586,3.78977 -7.40645,6.94127 -7.55687,7.00332 -0.21807,0.09 -0.4694,-0.0943 -1.2403,-0.9091 l -0.9668,-1.02194 -6.22022,6.04414 c -3.42112,3.32427 -11.28859,10.83911 -17.48327,16.69962 l -11.263054,10.65549 0.832769,0.95491 0.83277,0.9549 -8.39043,7.99965 c -6.092683,5.80892 -8.474832,8.00512 -8.698642,8.01969 -0.205457,0.0134 -0.584081,-0.27155 -1.13569,-0.85461 l -0.827478,-0.87466 -3.043926,2.9441 -3.043927,2.94409 0.772527,0.89171 0.772527,0.89171 -19.211659,18.17532 -19.211659,18.17532 -0.842029,-0.89004 -0.842031,-0.89004 -3.297762,3.18396 -3.297764,3.18396 0.607469,0.67239 c 1.041816,1.15318 1.132345,0.94648 -1.453586,3.31868 l -2.287186,2.09814 -6.218048,-6.50681 c -4.735886,-4.95581 -6.2161094,-6.57791 -6.2097749,-6.80523 z m 9.5113199,9.65781 c -1.609047,-1.74071 -4.309141,-4.59482 -6.000215,-6.34245 -1.691074,-1.74763 -0.374588,-0.3234 2.925545,3.16493 3.300121,3.48834 4.683717,4.91823 3.07467,3.17752 z M 9.9408485,198.73596 c 0.092986,-0.14891 -0.00417,-0.11087 -0.2159172,0.0846 -0.2117472,0.19543 -0.2878345,0.31728 -0.1690727,0.27077 0.1187479,-0.0465 0.291993,-0.20639 0.3849959,-0.35531 z m 13.3468175,11.24455 1.775871,-1.68008 -5.880261,-6.21554 -5.88026,-6.21555 -1.488831,1.41179 c -0.818794,0.77655 -1.584694,1.56772 -1.70187,1.75829 l -0.2130482,0.3465 5.8062612,6.13733 5.806262,6.13733 1.77587,-1.68008 z m 2.001637,-1.48908 c 0.06288,-0.13622 0.0044,-0.13785 -0.149144,-0.004 -0.138919,0.121 -0.185487,0.22186 -0.103459,0.22413 0.08203,0.002 0.195697,-0.0967 0.252598,-0.22 z m -0.153526,-0.79739 c -0.08299,-0.15132 -0.297841,-0.38073 -0.477484,-0.50979 -0.179618,-0.12908 -0.111722,-0.005 0.150881,0.27512 0.262617,0.28038 0.409563,0.38601 0.326578,0.23469 z m 2.056825,-4.82924 3.297764,-3.18396 -0.279018,-0.27689 c -0.153454,-0.15229 -1.963342,-2.03672 -4.021889,-4.18769 l -3.74282,-3.91085 -3.298045,3.12014 -3.298045,3.12014 4.02217,4.25151 4.022171,4.25151 3.297763,-3.18396 z M 22.04266,190.18522 c -0.22015,-0.28751 -0.625168,-0.71562 -0.90004,-0.95136 -0.274885,-0.23572 -0.09476,-4.9e-4 0.400257,0.52276 0.495022,0.52325 0.71992,0.71612 0.499783,0.4286 z m 6.902842,7.29136 c -1.117696,-1.2232 -2.980779,-3.19251 -4.140183,-4.37626 -1.159404,-1.18374 -0.244911,-0.18295 2.032189,2.22399 2.277101,2.40694 3.225691,3.37547 2.107994,2.15227 z M 51.4909,183.29865 70.180542,165.61718 66.824714,161.90206 c -1.8457,-2.04333 -4.427091,-4.84747 -5.736412,-6.23145 l -2.380582,-2.51632 -18.773489,17.76079 -18.773488,17.76078 5.820258,6.15213 5.820257,6.15212 z m 16.05114,-21.24682 c -0.285272,-0.35368 -0.825029,-0.92475 -1.200053,-1.26848 -0.374428,-0.3443 -0.141037,-0.0549 0.518663,0.64306 0.660029,0.69766 0.966053,0.97967 0.680794,0.62598 z m -8.106596,-8.80477 c -0.04732,-0.1205 -0.182322,-0.2632 -0.300013,-0.31712 -0.117691,-0.0539 -0.07898,0.0447 0.08603,0.21909 0.165007,0.17441 0.261304,0.21852 0.213988,0.098 z m 12.702235,7.15324 3.088975,-2.92234 -0.908582,-1.12356 c -0.499722,-0.61796 -2.244799,-2.53666 -3.877953,-4.26377 l -2.96937,-3.14021 -3.105858,2.93832 -3.105858,2.93832 3.474536,3.744 c 1.911,2.05919 3.663676,3.9707 3.894836,4.24779 l 0.420299,0.5038 z m 3.08266,-3.6976 c -0.22015,-0.28751 -0.625168,-0.71562 -0.90004,-0.95136 -0.274885,-0.23573 -0.09477,-4.9e-4 0.400257,0.52276 0.495022,0.52325 0.71992,0.71612 0.499783,0.4286 z m 2.474532,2.61004 c 0.08301,-0.0171 -0.143975,-0.30975 -0.50444,-0.65039 -1.083486,-1.02396 -1.265661,-1.1014 -0.432172,-0.18367 0.432111,0.4758 0.853599,0.85112 0.936612,0.83406 z m 8.178546,-8.06115 8.054841,-7.62034 -6.000265,-6.34239 -6.000266,-6.34239 -8.054841,7.62033 -8.054841,7.62034 6.000265,6.34239 6.000266,6.3424 z m 6.892036,14.08695 c -0.221521,-0.28917 -0.600007,-0.68829 -0.841306,-0.88674 -0.241059,-0.19868 -0.05981,0.0379 0.402769,0.52574 0.462021,0.48837 0.659816,0.65038 0.438296,0.36122 z m 2.694386,-1.21398 c 4.501292,-3.91264 9.213581,-5.33383 13.085301,-3.94643 1.54662,0.55422 7.39492,3.1807 9.84433,4.42111 5.82471,2.94969 8.20975,3.67814 12.39847,3.78677 2.08284,0.054 3.37988,-0.0649 6.43155,-0.58956 6.9246,-1.19057 10.01293,-2.44178 14.33833,-5.80906 2.65198,-2.06454 20.38011,-18.90856 34.81239,-33.07627 6.58058,-6.45994 14.72472,-14.37337 18.09808,-17.5854 6.01064,-5.72317 6.15889,-5.85334 7.4071,-6.50406 4.81718,-2.51131 14.96678,-2.74503 21.21649,-0.48854 2.35562,0.8505 4.1155,2.00693 6.95393,4.56947 l 1.05276,0.95042 2.06431,-1.79683 c 1.13537,-0.98825 2.53541,-2.24216 3.1112,-2.78645 l 1.0469,-0.98962 -17.02437,-17.995077 -17.02437,-17.995078 -3.58454,3.261958 c -3.9992,3.639305 -4.31259,3.844297 -6.19946,4.055136 -1.44063,0.160977 -3.47429,-0.195134 -4.55483,-0.797591 -0.77522,-0.432219 -1.41467,-1.0667 -5.70004,-5.655727 l -4.82686,-5.168893 2.51558,-2.44483 2.51558,-2.444829 -5.58388,-6.070418 c -3.07114,-3.338728 -7.67642,-8.282388 -10.23395,-10.985911 l -4.65006,-4.915493 -3.11611,2.948019 c -1.90544,1.802653 -3.2597,2.987186 -3.4857,3.04883 -0.35487,0.0968 -0.5426,-0.08194 -4.71728,-4.491324 -2.3913,-2.525615 -4.50363,-4.688005 -4.6942,-4.805181 l -0.3465,-0.213048 -10.38673,9.826439 -10.38674,9.82644 0.59295,0.626753 c 0.32612,0.344714 0.56841,0.719141 0.53843,0.83206 -0.03,0.11292 -1.79988,1.843779 -3.93309,3.846355 l -3.87858,3.641049 0.95743,1.012019 c 0.63519,0.671417 0.93608,1.096352 0.894,1.26259 -0.0349,0.137814 -1.83385,1.88872 -3.99771,3.890904 l -3.9343,3.640331 5.5242,5.916895 c 3.03832,3.25429 8.30238,8.819173 11.6979,12.36642 l 6.17371,6.44951 2.54694,-2.440377 2.54696,-2.440393 1.56091,1.578874 1.56092,1.578875 1.14078,-1.0099 1.14079,-1.0099 4.80021,5.073916 4.80022,5.073917 0.32233,1.13893 c 0.69907,2.47015 0.74086,6.06344 0.0936,8.05189 -0.30054,0.92335 -0.4456,1.11324 -2.50979,3.28538 -2.81963,2.9671 -24.1113,23.43105 -25.10986,24.13372 -1.5544,1.09379 -3.32348,1.48069 -7.25409,1.58648 -2.73531,0.0736 -5.31262,-0.31313 -7.5189,-1.12826 -2.19016,-0.80918 -3.85666,-1.86817 -5.78248,-3.67451 l -1.4254,-1.33697 -4.78415,4.37263 c -2.63129,2.40494 -7.98,7.34036 -11.88602,10.96759 -3.906027,3.62723 -8.087336,7.46581 -9.291794,8.53016 l -2.189929,1.9352 2.10498,2.29447 c 1.157733,1.26196 2.14975,2.31705 2.204465,2.34465 0.05473,0.0276 0.917667,-0.66102 1.917645,-1.53022 z m -2.722858,-6.68864 c 0.379819,-0.40718 0.06245,-0.14653 -0.705245,0.57922 -0.76767,0.72578 -1.078456,1.05888 -0.690574,0.74032 0.38788,-0.31857 1.015999,-0.91236 1.395807,-1.31956 z M 79.596255,132.61095 c 1.218705,-1.19232 0.189431,-0.25077 -2.287274,2.09234 -2.476705,2.3431 -3.473826,3.31863 -2.215827,2.16785 1.258,-1.15078 3.284395,-3.06787 4.503101,-4.26019 z m 26.311095,36.05718 c 0.73294,-0.0586 1.81216,-0.24981 2.39827,-0.42485 1.27577,-0.38099 4.51627,-1.81672 4.57172,-2.02554 0.0574,-0.21613 -0.65084,-3.49898 -0.78558,-3.6414 -0.13482,-0.14251 -2.98019,-1.37014 -4.08739,-1.7635 -0.42263,-0.15015 -1.28604,-0.30466 -1.91869,-0.34336 l -1.15028,-0.0703 0.0926,1.04502 c 0.13595,1.53422 -0.0174,2.6891 -0.53318,4.01573 -0.40847,1.05056 -0.58467,1.29853 -1.61705,2.27562 l -1.15863,1.09662 1.4278,-0.0287 c 0.78529,-0.0158 2.02748,-0.0767 2.76042,-0.13528 z m -2.74633,0.6027 c 0.32944,-10e-4 0.57197,-0.0306 0.53897,-0.0655 -0.033,-0.0349 -0.32954,-0.0625 -0.65897,-0.0613 -0.32943,0.001 -0.57197,0.0306 -0.53897,0.0655 0.033,0.0349 0.32954,0.0625 0.65897,0.0613 z m 11.17178,8.58507 c 0.0629,-0.13622 0.004,-0.13784 -0.14914,-0.004 -0.13892,0.121 -0.18549,0.22186 -0.10346,0.22413 0.082,0.002 0.1957,-0.0967 0.2526,-0.22 z m 4.02881,-1.28372 c 1.3658,-0.60571 2.97774,-2.09734 4.17897,-3.86707 l 0.81382,-1.19898 -0.46322,-0.78909 c -0.25477,-0.434 -0.70862,-1.45718 -1.00854,-2.27374 l -0.54531,-1.48465 -2.42932,-1.23737 c -1.33613,-0.68055 -3.19112,-1.5814 -4.1222,-2.00188 l -1.69287,-0.76451 0.32434,1.69866 c 0.17838,0.93426 0.41394,1.79353 0.52346,1.9095 0.10952,0.11597 0.87654,0.62897 1.70448,1.13999 1.9207,1.18548 2.73069,2.11328 2.85373,3.26883 0.18027,1.69295 -0.77292,3.95337 -2.41694,5.73159 l -1.00986,1.09228 1.0944,-0.36771 c 0.60191,-0.20225 1.58969,-0.58738 2.19506,-0.85585 z m -12.59888,-16.49334 c 0.32943,-0.001 0.57196,-0.0306 0.53896,-0.0655 -0.033,-0.0349 -0.32954,-0.0625 -0.65897,-0.0613 -0.32943,10e-4 -0.57196,0.0306 -0.53896,0.0655 0.033,0.0349 0.32953,0.0625 0.65897,0.0613 z m 15.95146,14.39955 c 0.0629,-0.13623 0.004,-0.13785 -0.14914,-0.004 -0.13893,0.121 -0.18548,0.22186 -0.10346,0.22413 0.082,0.002 0.1957,-0.0967 0.2526,-0.22 z M 88.789011,128.24067 c 0.837847,-0.8343 0.153337,-0.22092 -1.521135,1.36307 -1.67447,1.58399 -2.359981,2.2666 -1.523357,1.51691 0.836625,-0.74969 2.206646,-2.04568 3.044469,-2.88 z m 21.320329,-3.64943 c 9.59749,-9.17533 17.4529,-16.70679 17.45647,-16.73657 0.004,-0.0298 -1.79533,-1.88418 -3.99755,-4.12089 l -4.00403,-4.066747 -17.48451,16.541337 -17.484506,16.54134 4.032076,4.26198 4.032074,4.26197 z m -6.97768,23.2511 c 0.37982,-0.40718 0.0625,-0.14653 -0.70524,0.57921 -0.76767,0.72578 -1.07846,1.05889 -0.69057,0.74032 0.38788,-0.31857 1.016,-0.91236 1.3958,-1.31955 z m 29.25304,34.40541 c 0.0698,-0.066 0.0697,-0.18045 -2.4e-4,-0.25434 -0.0699,-0.0739 -0.15079,-0.0451 -0.17977,0.0641 -0.029,0.10912 -0.0289,0.22358 2.4e-4,0.25434 0.0291,0.0308 0.11,0.002 0.17977,-0.0641 z m 1.86192,-2.49942 c 0.69113,-0.79513 1.51056,-1.84659 1.82096,-2.33659 0.48795,-0.77028 1.95323,-4.00418 2.12741,-4.69523 0.0384,-0.15219 -0.49155,-0.87891 -1.47647,-2.02483 l -1.53629,-1.78745 -1.20843,0.18173 c -2.94384,0.4427 -7.07756,-0.005 -10.00271,-1.08324 -0.87573,-0.32282 -1.5932,-0.55211 -1.59438,-0.50955 -0.001,0.0426 0.24436,0.70031 0.54565,1.46165 0.43812,1.10713 0.68285,1.50523 1.22239,1.98844 0.86951,0.77871 2.24789,1.18368 3.34929,0.984 1.58904,-0.28809 2.82885,-0.15161 3.68349,0.40547 1.87166,1.22001 2.83314,3.45666 2.47281,5.7524 -0.11927,0.75992 -0.34767,1.76944 -0.50755,2.24337 -0.15988,0.47393 -0.25966,0.86255 -0.22173,0.8636 0.0379,10e-4 0.63443,-0.64864 1.32556,-1.44377 z m -10.39697,-8.47603 c -0.0836,-0.15228 -0.27261,-0.35206 -0.42002,-0.44397 -0.14741,-0.0919 -0.079,0.0327 0.152,0.27687 0.23101,0.24418 0.35162,0.31937 0.26802,0.1671 z m 10.3021,9.22254 c 0.0539,-0.11769 -0.0447,-0.079 -0.21909,0.086 -0.17441,0.16501 -0.21853,0.26131 -0.098,0.21399 0.1205,-0.0473 0.26321,-0.18232 0.31712,-0.30001 z m -2.42198,-11.56951 c 0.0952,-0.0901 -0.1132,-0.10873 -1.17055,-0.10453 l -1.13754,0.005 1.13554,0.0675 c 0.62455,0.0371 1.15219,0.0518 1.17255,0.0325 z m 5.89391,2.17627 c -0.0473,-0.1205 -0.18232,-0.2632 -0.30001,-0.31712 -0.11769,-0.0539 -0.079,0.0447 0.086,0.21909 0.165,0.17441 0.2613,0.21853 0.21398,0.098 z m -1.6231,-1.95497 c 0.002,-0.082 -0.0967,-0.1957 -0.22,-0.25259 -0.13622,-0.0629 -0.13784,-0.004 -0.004,0.14914 0.121,0.13892 0.22186,0.18548 0.22413,0.10345 z m 3.27003,2.82887 c 0.31876,0.0471 1.47666,-0.0728 2.57312,-0.2664 1.09645,-0.19358 2.76767,-0.36031 3.71382,-0.3705 2.02772,-0.0219 2.56381,0.22853 3.86725,1.80623 0.86944,1.05237 1.56187,2.61613 1.58309,3.57519 0.0104,0.47077 0.73398,-1.74112 1.14986,-3.51503 0.14038,-0.59882 0.31333,-2.27226 0.38431,-3.71875 0.11715,-2.38721 0.0923,-2.64224 -0.26949,-2.76281 -0.2192,-0.0731 -0.91894,-0.62829 -1.55499,-1.23385 l -1.15643,-1.10101 -1.17997,0.68932 c -2.56094,1.49606 -5.72784,2.56857 -9.76194,3.30598 -1.12716,0.20604 -2.11672,0.41777 -2.19903,0.47053 -0.12918,0.0828 0.4288,0.84363 1.92026,2.61837 0.21023,0.25016 0.58259,0.45141 0.93014,0.50273 z m 0.41013,0.51589 c 0.35046,-0.0325 0.3507,-0.0413 0.003,-0.0932 -0.21126,-0.0315 -0.40565,-0.0369 -0.43199,-0.012 -0.1044,0.0988 0.0613,0.13936 0.42941,0.10517 z m -26.15439,-34.24264 c 0.37982,-0.40717 0.0625,-0.14652 -0.70524,0.57922 -0.76767,0.72578 -1.07846,1.05889 -0.69058,0.74032 0.38788,-0.31857 1.016,-0.91236 1.39581,-1.31955 z m 37.16724,40.6513 c 0.0201,-0.16628 0.12332,-0.3042 0.22934,-0.3065 0.10602,-0.002 0.0799,-0.0378 -0.0581,-0.079 -0.1933,-0.0576 -0.25972,-0.002 -0.28934,0.24307 -0.0212,0.17483 -0.0115,0.3464 0.0215,0.38129 0.033,0.0349 0.0765,-0.0726 0.0966,-0.23891 z m -33.34362,-60.61224 c 1.81751,-1.75702 0.3363,-0.38648 -3.29157,3.04565 -3.62787,3.43213 -5.11492,4.8697 -3.30456,3.19459 1.81036,-1.67511 4.77862,-4.48321 6.59613,-6.24024 z m 1.84491,18.09065 c -0.0465,-0.11875 -0.20639,-0.292 -0.35531,-0.38499 -0.14892,-0.093 -0.11087,0.004 0.0846,0.21591 0.19542,0.21175 0.31727,0.28783 0.27077,0.16908 z m 32.35339,29.36203 c -0.0836,-0.15228 -0.27261,-0.35206 -0.42002,-0.44397 -0.14741,-0.0919 -0.079,0.0327 0.152,0.27687 0.23101,0.24418 0.35162,0.31937 0.26802,0.1671 z m 0.27881,-0.26521 c 1.29722,1.03116 2.49615,0.80679 4.54716,-0.85096 0.72362,-0.58488 1.5582,-1.13195 1.85462,-1.2157 0.85202,-0.24074 2.0599,-0.10889 3.22528,0.35206 0.95622,0.37821 1.20725,0.56587 2.27094,1.69764 0.87205,0.92787 1.26556,1.46687 1.45322,1.99048 0.25494,0.71133 0.25799,0.70169 0.32541,-1.02899 0.0955,-2.45227 -0.11619,-4.67546 -0.67885,-7.12817 l -0.48367,-2.10838 -1.52068,-1.506 -1.52068,-1.506 -2.43063,2.29518 c -2.57379,2.43039 -7.37518,6.61047 -8.21258,7.14987 -0.49691,0.32007 -0.49701,0.32324 -0.0262,0.80238 0.25996,0.26456 0.79845,0.74003 1.19668,1.05657 z M 130.7486,141.008 c 0.74222,0.0159 1.32249,4.3e-4 1.28949,-0.0345 -0.033,-0.0349 -0.66727,-0.0765 -1.40949,-0.0924 -0.74223,-0.0159 -1.3225,-4.2e-4 -1.2895,0.0345 0.033,0.0349 0.66728,0.0765 1.4095,0.0924 z m 21.71031,20.72495 c 0.0539,-0.11769 -0.0447,-0.079 -0.21909,0.086 -0.17442,0.16501 -0.21853,0.2613 -0.098,0.21399 0.12049,-0.0473 0.2632,-0.18232 0.31712,-0.30002 z m 4.886,-4.36362 c 0.37734,-0.40469 0.0296,-0.11477 -0.77267,0.64426 -0.80232,0.75904 -1.11105,1.09015 -0.68608,0.7358 0.42497,-0.35434 1.08141,-0.97537 1.45875,-1.38006 z m 8.47986,12.26649 c 0.0603,-0.3206 0.11355,-1.37896 0.11841,-2.35191 l 0.009,-1.769 -0.0874,1.94564 c -0.0481,1.0701 -0.15275,2.00745 -0.2326,2.08299 -0.12002,0.11356 -0.099,0.35287 0.055,0.62536 0.0155,0.0274 0.0775,-0.21249 0.13775,-0.53308 z m -1.68028,-13.1729 c 0.002,-0.082 -0.0967,-0.1957 -0.22,-0.25259 -0.13623,-0.0629 -0.13785,-0.004 -0.004,0.14914 0.121,0.13892 0.22185,0.18548 0.22413,0.10345 z m 0.25283,-0.35475 c 0.80775,0.48663 1.42541,0.27442 2.69379,-0.92553 1.62934,-1.54145 2.43814,-1.95188 3.76866,-1.91243 2.37186,0.0703 4.76339,2.05412 5.57366,4.62337 0.24983,0.79215 0.1955,-3.84604 -0.0635,-5.41768 -0.13647,-0.8283 -0.49685,-2.40155 -0.80084,-3.49611 l -0.5527,-1.99012 -0.74833,-0.39514 c -0.4139,-0.21854 -1.1487,-0.81832 -1.64418,-1.34206 l -0.89585,-0.94692 -4.94706,4.6802 -4.94707,4.68021 0.9908,1.04578 c 0.54491,0.57521 1.2526,1.20357 1.57263,1.39638 z m 3.88693,-1.40107 c 0.16523,-0.21157 0.0143,-0.11544 -0.33545,0.21362 -0.34979,0.329 -0.48493,0.50217 -0.30043,0.38468 0.1845,-0.11749 0.47065,-0.38672 0.63588,-0.5983 z m 8.50363,5.36272 c 0.0201,-0.25907 -0.0208,-0.47263 -0.0909,-0.47458 -0.0701,-0.002 -0.10665,0.18519 -0.0812,0.41586 0.065,0.58851 0.12919,0.61041 0.17206,0.0587 z m -52.37064,-56.05319 c -0.72391,-0.80982 -1.91204,-2.06554 -2.64025,-2.79053 -0.72826,-0.72494 -0.13598,-0.0624 1.31618,1.47241 1.45216,1.53477 2.04801,2.12791 1.32411,1.31808 z m -4.77366,-8.095631 c 0.23573,-0.274878 4.9e-4,-0.09476 -0.52276,0.400263 -0.52325,0.495022 -0.71612,0.71992 -0.4286,0.499777 0.28751,-0.220145 0.71562,-0.625163 0.95136,-0.90004 z m 10.44524,13.421191 c 0.0201,0.004 3.31514,-3.01628 7.32227,-6.71074 l 7.28568,-6.717204 -2.33868,-2.472029 c -1.28627,-1.359616 -3.92426,-4.072446 -5.86219,-6.02851 l -3.52352,-3.556481 -7.19379,6.805728 -7.19378,6.805728 5.73371,5.933528 c 3.15354,3.26344 5.75018,5.93643 5.7703,5.93998 z m 6.56008,-5.46637 c 1.1882,-1.16364 0.21954,-0.27967 -2.15255,1.96438 -2.3721,2.24406 -3.34426,3.19613 -2.16036,2.11572 1.18391,-1.08041 3.12472,-2.91645 4.31291,-4.0801 z m 40.39045,51.02964 c 0.0263,-0.0249 0.0317,-0.21932 0.012,-0.432 -0.0326,-0.35046 -0.0413,-0.3507 -0.0932,-0.003 -0.0545,0.36561 -0.0232,0.53335 0.0812,0.43458 z m -4.91687,-11.51697 c 0.34203,-0.37214 0.0225,-0.10959 -0.71002,0.58344 -0.73255,0.69303 -1.01239,0.99751 -0.62188,0.67662 0.39051,-0.32089 0.98987,-0.88792 1.3319,-1.26006 z m 1.65337,2.40515 c -0.0473,-0.1205 -0.18232,-0.2632 -0.30001,-0.31712 -0.11769,-0.0539 -0.079,0.0447 0.086,0.21909 0.165,0.17442 0.2613,0.21853 0.21398,0.098 z m 1.17836,0.26936 c 0.29246,0.10209 0.62532,0.16626 0.73969,0.14258 0.11437,-0.0237 0.85883,-0.50601 1.65436,-1.07186 2.14063,-1.52261 3.6288,-1.81747 5.69301,-1.128 1.1114,0.37122 2.87925,2.24559 3.43704,3.64413 l 0.38039,0.95374 0.0751,-2.22598 c 0.0832,-2.46627 -0.0955,-4.84766 -0.56622,-7.54428 l -0.31144,-1.78431 -1.56867,-1.36479 c -0.86277,-0.75063 -1.69907,-1.45846 -1.85843,-1.57296 -0.28461,-0.20448 -0.37107,-0.13008 -4.86019,4.18209 -2.51373,2.41466 -4.79069,4.65954 -5.05991,4.98863 l -0.48949,0.59834 1.10151,0.99852 c 0.60583,0.54918 1.3408,1.08205 1.63326,1.18415 z m -18.44978,-22.99438 c 0.34203,-0.37214 0.0225,-0.10959 -0.71003,0.58344 -0.73255,0.69303 -1.01239,0.99751 -0.62188,0.67662 0.39052,-0.3209 0.98987,-0.88792 1.33191,-1.26006 z m 20.98509,22.43573 c 0.0539,-0.1177 -0.0447,-0.079 -0.21909,0.086 -0.17442,0.16501 -0.21853,0.2613 -0.098,0.21399 0.1205,-0.0473 0.2632,-0.18232 0.31712,-0.30001 z m 9.68848,4.68817 c 0.005,-0.18777 -0.0649,-0.2493 -0.24226,-0.21259 -0.16089,0.0333 -0.16819,0.0733 -0.0205,0.11248 0.12598,0.0335 0.15909,0.12701 0.0736,0.20791 -0.0855,0.0809 -0.0796,0.1492 0.0132,0.15177 0.0928,0.003 0.17198,-0.11424 0.17601,-0.25957 z m 0.13288,-0.91806 c 0.0188,-0.0178 0.0488,-1.10087 0.0667,-2.40682 l 0.0325,-2.37444 -0.0991,2.3726 c -0.092,2.20365 -0.0921,2.49562 -1.3e-4,2.40866 z m -6.8102,-14.05381 c 0.27124,-0.30722 0.008,-0.0996 -0.58504,0.46147 -0.59301,0.56102 -0.81494,0.81238 -0.49316,0.55858 0.32177,-0.25381 0.80696,-0.71283 1.0782,-1.02005 z m -17.5877,-18.46 c 0.16524,-0.21157 0.0143,-0.11544 -0.33545,0.21362 -0.34979,0.329 -0.48492,0.50217 -0.30042,0.38468 0.1845,-0.11749 0.47064,-0.38672 0.63587,-0.5983 z M 131.8375,81.878527 c -0.58412,-0.663449 -1.61007,-1.748093 -2.27985,-2.41035 -0.66981,-0.662227 -0.19189,-0.119404 1.06205,1.206272 1.25393,1.325676 1.80196,1.867496 1.21783,1.204048 z m 5.33403,5.63812 c -0.55428,-0.632454 -1.49932,-1.631381 -2.1001,-2.219839 -0.60077,-0.588456 -0.14728,-0.07099 1.00777,1.149917 1.15505,1.220911 1.6466,1.702376 1.09233,1.069922 z m 47.08335,47.516903 c 0.002,-0.082 -0.0967,-0.1957 -0.22,-0.2526 -0.13622,-0.0629 -0.13785,-0.004 -0.004,0.14914 0.121,0.13893 0.22186,0.18549 0.22413,0.10346 z M 150.52853,93.388142 c 0.5566,-0.571215 0.0986,-0.174666 -1.01785,0.88122 -1.11638,1.05592 -1.57181,1.523244 -1.01199,1.038573 0.55981,-0.48467 1.47324,-1.348576 2.0298,-1.919831 z m 34.44697,41.760208 c 0.74783,0.62975 1.5004,1.14889 1.67237,1.15366 0.17197,0.005 0.81645,-0.39932 1.43218,-0.89798 1.37702,-1.11519 2.14601,-1.37493 4.20817,-1.42138 1.90306,-0.0429 3.19918,0.37173 4.07723,1.30423 0.64777,0.68792 1.39528,1.95231 1.60176,2.70931 0.15584,0.57132 0.13838,-2.12104 -0.0246,-3.79399 -0.14911,-1.53053 -0.71244,-4.28037 -1.23212,-6.01445 l -0.39638,-1.32265 -1.25176,-1.06439 c -0.68847,-0.58542 -1.51984,-1.28755 -1.84749,-1.5603 l -0.59573,-0.49591 -2.9752,2.97279 c -1.63636,1.63503 -3.82218,3.77408 -4.85738,4.75343 l -1.88218,1.78065 0.35572,0.376 c 0.19564,0.2068 0.96758,0.89124 1.71541,1.52098 z m -19.33876,-21.21318 c 0.0629,-0.13623 0.004,-0.13785 -0.14915,-0.004 -0.13892,0.121 -0.18548,0.22186 -0.10345,0.22413 0.082,0.002 0.19569,-0.0967 0.25259,-0.22 z m 22.88007,21.62793 c 0.12837,-0.17874 -0.0235,-0.082 -0.33741,0.21504 -0.31395,0.29701 -0.41898,0.44326 -0.2334,0.32499 0.18558,-0.11828 0.44244,-0.36129 0.57081,-0.54003 z m -21.50009,-25.02073 c 0.0196,-0.0186 0.0389,-0.71284 0.0428,-1.54283 l 0.007,-1.50907 -0.0765,1.50715 c -0.0711,1.40001 -0.067,1.63343 0.0267,1.54475 z m 21.10168,17.23111 c 0.27124,-0.30722 0.008,-0.0996 -0.58504,0.46146 -0.59302,0.56103 -0.81494,0.81239 -0.49317,0.55858 0.32177,-0.2538 0.80697,-0.71282 1.07821,-1.02004 z m 4.24947,6.6515 c 0.35046,-0.0326 0.3507,-0.0413 0.003,-0.0932 -0.21125,-0.0315 -0.40565,-0.0369 -0.43199,-0.012 -0.1044,0.0988 0.0613,0.13937 0.42941,0.10518 z m 6.0372,5.55565 c 0.14071,-0.42221 0.0799,-0.58733 -0.11488,-0.31199 -0.11209,0.15846 -0.13705,0.53861 -0.0427,0.64976 0.0178,0.0209 0.0886,-0.13109 0.15753,-0.33777 z m -4.80293,-5.52144 c 0.35045,-0.0326 0.3507,-0.0413 0.003,-0.0932 -0.21126,-0.0315 -0.40565,-0.0369 -0.43199,-0.012 -0.10441,0.0988 0.0613,0.13936 0.42941,0.10517 z M 130.19583,65.02371 c 0.20012,-0.242649 -0.007,-0.09016 -0.46066,0.338855 -0.45348,0.429019 -0.61721,0.62755 -0.36385,0.441179 0.25336,-0.186372 0.62439,-0.537387 0.82451,-0.780034 z m 26.61473,28.656328 c 0.0629,-0.136225 0.004,-0.137847 -0.14914,-0.0041 -0.13892,0.120999 -0.18548,0.221856 -0.10346,0.22413 0.082,0.0023 0.1957,-0.09673 0.2526,-0.220002 z m 41.69985,44.037512 c 0.0241,-0.0228 0.031,-0.27271 0.0154,-0.55542 l -0.0284,-0.51402 -0.0568,0.51166 c -0.0534,0.48083 -0.0317,0.65381 0.0698,0.55778 z M 129.80949,61.062691 c 0.20129,-0.243923 0.0229,-0.120065 -0.39634,0.275241 -0.41932,0.395257 -0.58396,0.594879 -0.36597,0.443497 0.21799,-0.151383 0.56103,-0.474815 0.76231,-0.718738 z m 63.59674,62.794189 c -0.0473,-0.1205 -0.18232,-0.2632 -0.30002,-0.31712 -0.11769,-0.0539 -0.079,0.0447 0.086,0.21909 0.16501,0.17441 0.2613,0.21853 0.21399,0.098 z m 1.61704,1.46992 c 0.002,-0.082 -0.0967,-0.19569 -0.22,-0.25259 -0.13623,-0.0629 -0.13785,-0.004 -0.004,0.14914 0.121,0.13892 0.22186,0.18548 0.22413,0.10346 z m 1.34199,0.59835 c 0.58128,0.35909 1.11443,0.19334 2.65893,-0.82663 0.83331,-0.55032 1.47549,-0.84129 2.05186,-0.9297 0.91837,-0.14088 3.12906,0.0689 4.02606,0.38202 1.58707,0.55402 3.26122,2.99406 3.43356,5.00433 0.021,0.24459 0.0904,-0.7946 0.15421,-2.3093 0.14745,-3.49841 -0.20841,-5.5706 -1.51933,-8.847 l -0.4733,-1.18292 -1.89193,-1.68751 -1.89193,-1.6875 -2.67184,2.52844 c -1.46947,1.39068 -3.62868,3.50501 -4.79816,4.6986 l -2.12633,2.17016 1.29353,1.20106 c 0.71145,0.6606 1.50105,1.32927 1.75467,1.48595 z m -0.75599,-5.47884 c 0.27124,-0.30722 0.008,-0.0996 -0.58504,0.46147 -0.59302,0.56102 -0.81494,0.81238 -0.49317,0.55858 0.32177,-0.25381 0.80696,-0.71283 1.07821,-1.02005 z m 3.55212,5.04098 c 0.0629,-0.13623 0.004,-0.13785 -0.14914,-0.004 -0.13892,0.121 -0.18548,0.22186 -0.10346,0.22413 0.082,0.002 0.1957,-0.0967 0.2526,-0.22 z m 3.22997,-0.92121 0.76472,-0.0174 -0.76258,-0.0598 c -0.41942,-0.0329 -0.78044,-0.0429 -0.80227,-0.0222 -0.098,0.0927 0.0873,0.11575 0.80013,0.0995 z m 6.29522,7.12993 c 0.0263,-0.0249 0.0317,-0.21931 0.012,-0.43199 -0.0326,-0.35046 -0.0413,-0.3507 -0.0932,-0.003 -0.0545,0.3656 -0.0232,0.53334 0.0812,0.43457 z m 0.46814,-3.8082 c 0.0218,-0.0207 0.0318,-0.38168 0.0222,-0.80227 l -0.0174,-0.76473 -0.0598,0.76259 c -0.0557,0.71083 -0.043,0.89712 0.055,0.80441 z m 0.0564,-1.97636 c 0.0227,-0.0215 0.0312,-0.32698 0.0188,-0.67885 l -0.0225,-0.63976 -0.0579,0.63754 c -0.0541,0.59587 -0.0379,0.77519 0.0616,0.68107 z m -6.68888,-12.25497 c 0.093,-0.14893 -0.004,-0.11088 -0.21591,0.0845 -0.21175,0.19543 -0.28783,0.31727 -0.16908,0.27077 0.11875,-0.0465 0.292,-0.20639 0.385,-0.35531 z m 2.05572,1.1888 c 0.002,-0.082 -0.0967,-0.19569 -0.22,-0.25259 -0.13623,-0.0629 -0.13785,-0.004 -0.004,0.14914 0.121,0.13893 0.22186,0.18549 0.22413,0.10346 z m -0.46617,-2.68498 c 0.20128,-0.24392 0.0229,-0.12006 -0.39635,0.27524 -0.41931,0.39526 -0.58395,0.59488 -0.36596,0.4435 0.21799,-0.15138 0.56103,-0.47481 0.76231,-0.71874 z m 1.24226,2.87554 c 0.79654,0.69063 1.53737,1.25999 1.64629,1.26524 0.10892,0.005 0.67404,-0.27406 1.25583,-0.62068 1.41221,-0.84139 4.10343,-1.69266 5.50868,-1.74247 1.49545,-0.053 2.34533,0.3035 3.41306,1.43174 0.78931,0.83407 1.77139,2.28992 2.07865,3.08146 l 0.13649,0.35163 0.0512,-0.52917 c 0.0282,-0.29105 -0.008,-1.50118 -0.0795,-2.68919 -0.13959,-2.308 -0.61686,-4.12947 -1.72512,-6.58385 l -0.65544,-1.45154 -1.60172,-1.32112 c -0.88094,-0.72661 -1.68924,-1.32354 -1.79622,-1.32651 -0.10698,-0.003 -0.76328,0.30397 -1.45845,0.68208 -1.01689,0.55309 -1.78721,1.15762 -3.94103,3.09282 -3.36077,3.01964 -4.78602,4.57003 -4.48938,4.88358 0.11462,0.12115 0.86011,0.78534 1.65665,1.47598 z m 14.45018,5.44933 c 0.0592,-0.182 0.10375,-0.73518 0.099,-1.22928 -0.008,-0.85051 -0.0154,-0.8351 -0.13612,0.28933 -0.13744,1.27992 -0.13052,1.45538 0.0371,0.93995 z m -9.86809,-13.84504 c 0.0629,-0.13622 0.004,-0.13785 -0.14914,-0.004 -0.13892,0.121 -0.18548,0.22185 -0.10346,0.22413 0.082,0.002 0.1957,-0.0967 0.2526,-0.22001 z m 9.91626,9.92521 c 0.0263,-0.0249 0.0317,-0.21932 0.012,-0.43199 -0.0325,-0.35046 -0.0413,-0.35071 -0.0932,-0.003 -0.0545,0.36561 -0.0232,0.53335 0.0812,0.43458 z M 155.19577,34.406821 c 0.72877,-0.731957 0.0978,-0.169781 -1.40219,1.249282 -1.49998,1.419063 -2.09625,2.017938 -1.32504,1.330832 0.7712,-0.687105 1.99846,-1.848156 2.72723,-2.580114 z m 61.58165,71.986379 c 0.37765,0.28106 0.55845,0.27178 1.30901,-0.0671 1.16276,-0.52505 4.54256,-1.47532 6.01964,-1.69249 2.12848,-0.31295 3.08576,0.0784 4.5781,1.87159 1.11204,1.33622 1.73383,2.50683 1.91173,3.59912 l 0.12544,0.77021 0.18942,-0.88664 c 0.28723,-1.34447 0.20483,-2.86609 -0.22774,-4.2054 -0.21436,-0.66373 -0.45823,-1.27915 -0.54192,-1.36762 -0.51186,-0.54104 -6.48132,-1.00835 -9.69497,-0.75895 -1.94232,0.15073 -5.48607,0.71126 -5.68469,0.89916 -0.0868,0.0822 1.0532,1.12164 2.01598,1.83815 z M 157.36878,33.678603 c -0.0465,-0.118752 -0.2064,-0.291997 -0.35531,-0.384996 -0.14892,-0.09299 -0.11088,0.0042 0.0845,0.215913 0.19542,0.211748 0.31726,0.28783 0.27076,0.169077 z m 8.47258,8.686272 c -0.15244,-0.219355 -0.44945,-0.533303 -0.66003,-0.697664 -0.21057,-0.164362 -0.0858,0.01511 0.27717,0.398825 0.36302,0.383715 0.53531,0.518192 0.38286,0.298839 z m -0.23498,-0.73921 0.71001,0.590276 0.68,-0.643313 0.67999,-0.643314 -3.84017,-4.059133 -3.84017,-4.059132 -0.76108,0.720032 -0.76109,0.720032 3.21128,3.392101 c 1.76622,1.865649 3.53076,3.657762 3.92127,3.982414 z m 2.10936,-0.07739 c 0.2372,-0.276442 0.0313,-0.125066 -0.45763,0.336392 -0.48884,0.461513 -0.68297,0.687638 -0.43128,0.502622 0.2517,-0.185015 0.65171,-0.562572 0.8889,-0.839023 z m -1.45325,-2.81167 c -1.04735,-1.149142 -2.82939,-3.03287 -3.96009,-4.186063 -1.13069,-1.153194 -0.27376,-0.212988 1.90428,2.089347 2.17805,2.302335 3.10317,3.245857 2.05581,2.096716 z m 2.84655,1.483802 c 0.0919,-0.147411 -0.0327,-0.07901 -0.27687,0.151998 -0.24418,0.23101 -0.31938,0.35162 -0.1671,0.268021 0.15227,-0.0836 0.35206,-0.272609 0.44397,-0.420019 z m 32.9272,35.058764 c 0.35046,-0.03255 0.3507,-0.04128 0.003,-0.0932 -0.36561,-0.05452 -0.53334,-0.02317 -0.43457,0.08123 0.0249,0.02634 0.21931,0.03173 0.43199,0.01197 z m 36.57269,32.851099 c 0.002,-0.082 -0.0967,-0.1957 -0.22001,-0.2526 -0.13622,-0.0629 -0.13784,-0.004 -0.004,0.14914 0.121,0.13893 0.22186,0.18549 0.22413,0.10346 z m 1.75827,1.59128 c -0.0465,-0.11875 -0.2064,-0.29199 -0.35531,-0.38499 -0.14893,-0.093 -0.11088,0.004 0.0845,0.21591 0.19543,0.21175 0.31727,0.28783 0.27077,0.16908 z M 207.85655,72.79242 c 0.0919,-0.147411 -0.0327,-0.07901 -0.27687,0.151998 -0.24418,0.231011 -0.31938,0.35162 -0.1671,0.268021 0.15227,-0.0836 0.35206,-0.272609 0.44397,-0.420019 z M 188.76161,53.372664 c -0.48775,-0.563184 -1.32478,-1.447948 -1.86009,-1.966142 -0.5353,-0.518194 -0.13623,-0.05741 0.88681,1.023971 1.02305,1.081378 1.46102,1.505355 0.97328,0.942171 z M 175.26644,38.856755 c -0.2538,-0.321772 -0.71282,-0.806965 -1.02004,-1.078207 -0.30722,-0.271241 -0.0996,-0.008 0.46146,0.585042 0.56103,0.593014 0.81239,0.814938 0.55858,0.493165 z m 18.99611,18.265848 0.87134,-0.824336 -0.3714,-0.550062 c -0.49513,-0.733324 -13.38112,-14.350206 -16.5632,-17.502669 l -2.51333,-2.489935 -0.74096,0.700984 c -0.40752,0.385542 -0.73638,0.723707 -0.7308,0.751479 0.006,0.02777 3.48369,3.795428 7.72914,8.372569 4.24545,4.577142 8.55799,9.232028 9.58343,10.344191 l 1.86444,2.022115 z m 0.88038,-0.175814 c 0.273,-0.309054 0.0394,-0.130273 -0.51921,0.39729 -0.55861,0.527516 -0.78193,0.780425 -0.49636,0.561914 0.28556,-0.218509 0.74257,-0.650151 1.01562,-0.959154 z m 48.54565,51.185581 c 0.2372,-0.27644 0.0313,-0.12507 -0.45762,0.33639 -0.48885,0.46151 -0.68298,0.68764 -0.43128,0.50262 0.2517,-0.18501 0.6517,-0.56257 0.8889,-0.83902 z M 179.64716,39.167427 c -0.28526,-0.353682 -0.82501,-0.924753 -1.19941,-1.269078 -0.37444,-0.344295 -0.14104,-0.05492 0.51866,0.643057 0.65965,0.698024 0.96605,0.979671 0.68079,0.625989 z m 15.83106,16.744986 c -0.0836,-0.152274 -0.27261,-0.35206 -0.42001,-0.443967 -0.14742,-0.09191 -0.079,0.03268 0.15199,0.276866 0.23101,0.244182 0.35162,0.319377 0.26802,0.167101 z m 0.69755,-3.724584 1.93453,-1.829986 -2.63999,-2.730859 c -1.452,-1.501972 -5.11976,-5.279595 -8.15058,-8.394717 l -5.51058,-5.663859 -1.8243,1.725895 -1.82431,1.725895 8.04036,8.498808 8.04035,8.498809 z m 48.34382,48.432591 c -1.81189,-1.954649 -4.80902,-5.122675 -6.6603,-7.040059 -1.85128,-1.917384 -0.36882,-0.318127 3.29434,3.553905 3.66316,3.872034 5.17784,5.440804 3.36596,3.486154 z m -57.3788,-62.171602 c -0.31858,-0.387883 -0.91237,-1.016002 -1.31956,-1.395807 -0.40717,-0.379816 -0.14652,-0.06246 0.57922,0.705243 0.72578,0.76767 1.05889,1.07846 0.74032,0.690576 z m 10.26329,10.593649 c -0.35434,-0.424971 -0.97537,-1.081409 -1.38006,-1.458751 -0.40469,-0.377341 -0.11477,-0.02964 0.64426,0.772676 0.75904,0.802313 1.09015,1.111047 0.7358,0.686075 z"
     id="path38" />
  <path
     style="fill:#ff8080;fill-opacity:1;stroke-width:0.063672"
     d="m 230.68431,110.69003 c -0.0175,-0.0829 -0.0785,-0.39432 -0.13543,-0.69199 -0.25225,-1.31784 -1.14088,-2.77708 -2.5408,-4.17236 -0.74592,-0.74344 -1.19449,-1.02902 -1.84543,-1.1749 -0.45779,-0.1026 -1.54119,-0.0857 -2.25146,0.0352 -1.5728,0.26755 -4.54629,1.11334 -5.81152,1.65306 -0.61537,0.26249 -0.823,0.30607 -1.04897,0.22016 -0.2433,-0.0925 -1.28147,-0.92904 -1.87671,-1.51222 -0.39346,-0.38548 -0.45967,-0.47805 -0.37601,-0.52573 0.25292,-0.14416 2.71936,-0.5588 4.80121,-0.80714 1.28153,-0.15288 4.84658,-0.15073 6.65372,0.004 2.25967,0.19348 3.60926,0.4365 3.86205,0.69544 0.15845,0.16231 0.52569,1.11861 0.71417,1.85972 0.30674,1.20611 0.33068,2.56767 0.0678,3.85216 -0.0753,0.3677 -0.14673,0.6791 -0.1588,0.69198 -0.0121,0.0129 -0.0363,-0.0444 -0.0538,-0.12734 z"
     id="path119" />
  <path
     style="fill:#ff8080;fill-opacity:1;stroke-width:0.063672"
     d="m 219.1105,118.19944 c -0.69276,-1.4337 -2.06675,-3.13265 -3.01327,-3.72592 -0.61494,-0.38544 -1.04226,-0.48795 -2.0375,-0.48875 -1.08359,-8.7e-4 -1.72848,0.12462 -3.30785,0.64371 -0.78471,0.2579 -1.37665,0.50628 -2.1361,0.89631 -0.57783,0.29675 -1.16136,0.5952 -1.29674,0.66321 -0.1383,0.0695 -0.30568,0.10764 -0.38203,0.0871 -0.29087,-0.0783 -3.28765,-2.64615 -3.28765,-2.81705 0,-0.45902 1.49106,-2.04869 4.27261,-4.55519 2.53655,-2.28572 3.26248,-2.84294 4.58714,-3.52111 0.51292,-0.26259 0.9865,-0.47744 1.05239,-0.47744 0.1434,0 1.16184,0.75781 2.47206,1.83943 l 0.95508,0.78844 0.45392,1.00328 c 0.98287,2.17237 1.44572,3.55908 1.71018,5.12374 0.18909,1.11877 0.30211,2.81489 0.27573,4.13812 l -0.0203,1.01818 z"
     id="path121" />
  <path
     style="fill:#ff8080;fill-opacity:1;stroke-width:0.063672"
     d="m 208.44743,129.11457 c -0.27121,-1.68857 -1.69515,-3.74886 -3.04709,-4.40881 -0.84785,-0.41389 -3.33163,-0.69827 -4.39759,-0.50351 -0.49817,0.091 -1.21814,0.43437 -2.18514,1.0421 -1.60935,1.01141 -1.9843,1.07298 -2.77705,0.45603 -0.23584,-0.18355 -1.34559,-1.16933 -2.32373,-2.06415 l -0.41357,-0.37835 1.20947,-1.25898 c 1.3324,-1.38693 4.34869,-4.34197 6.80849,-6.67023 l 1.58768,-1.50278 0.22697,0.19888 c 0.12483,0.10938 0.98626,0.87772 1.91428,1.70741 l 1.6873,1.50854 0.40682,1.04263 c 1.40482,3.60043 1.71971,5.52803 1.5381,9.4155 -0.0434,0.92802 -0.0984,1.72268 -0.12244,1.76591 -0.024,0.0432 -0.0746,-0.11435 -0.1125,-0.35019 z"
     id="path123" />
  <path
     style="fill:#ff8080;fill-opacity:1;stroke-width:0.063672"
     d="m 197.95141,137.98187 c -0.0283,-0.07 -0.11669,-0.29179 -0.19643,-0.49277 -0.19305,-0.48661 -0.67848,-1.29471 -1.09287,-1.81931 -0.62591,-0.79239 -1.31349,-1.22906 -2.34563,-1.48969 -0.49993,-0.12623 -0.72857,-0.14345 -1.90522,-0.14343 -2.07218,3e-5 -2.79281,0.21478 -4.12072,1.22796 -0.90242,0.68855 -1.43788,1.02993 -1.61545,1.02993 -0.2335,0 -1.19005,-0.68739 -2.28649,-1.64311 -0.56032,-0.4884 -1.12744,-1.00147 -1.26027,-1.14015 l -0.24151,-0.25214 1.83331,-1.75052 c 1.00832,-0.96279 3.20145,-3.10518 4.87363,-4.76086 l 3.04031,-3.01034 0.55715,0.46674 c 0.30643,0.25671 1.1302,0.95191 1.83059,1.54488 0.70039,0.59298 1.28064,1.08328 1.28943,1.08956 0.009,0.006 0.13147,0.3958 0.27262,0.86561 0.51779,1.72354 1.01648,3.96169 1.26854,5.69326 0.24384,1.67514 0.3184,5.12734 0.099,4.58438 z"
     id="path125" />
  <path
     style="fill:#ff8080;fill-opacity:1;stroke-width:0.063672"
     d="m 186.57354,147.93202 c -0.69359,-1.71006 -2.33537,-3.49566 -3.62072,-3.93789 -0.65749,-0.22621 -1.40242,-0.33139 -2.08741,-0.29474 -1.08492,0.058 -1.99716,0.42487 -3.34277,1.34417 -1.63693,1.11833 -1.78016,1.19711 -2.10118,1.15574 -0.15759,-0.0203 -0.43011,-0.10702 -0.60561,-0.19269 -0.34499,-0.1684 -1.36712,-0.97429 -2.13012,-1.67947 l -0.47538,-0.43935 0.18111,-0.2469 c 0.48599,-0.66255 8.52257,-8.46486 9.60985,-9.32972 0.51019,-0.40583 0.31499,-0.51702 2.68442,1.52919 0.66537,0.57461 1.24972,1.08178 1.29855,1.12705 0.17808,0.16509 0.75811,3.95263 0.89643,5.85353 0.0696,0.95601 0.0754,4.02741 0.01,5.12559 l -0.04,0.66856 z"
     id="path127" />
  <path
     style="fill:#ff8080;fill-opacity:1;stroke-width:0.063672"
     d="m 176.25939,157.47305 c -0.55583,-1.46327 -1.79627,-2.84918 -3.19379,-3.56835 -0.77804,-0.40037 -1.31487,-0.55154 -2.10118,-0.59169 -1.42533,-0.0728 -2.0284,0.22719 -3.99634,1.98763 -1.47992,1.32388 -2.01737,1.36888 -3.26485,0.27336 -0.49825,-0.43756 -1.7871,-1.76963 -1.83045,-1.89182 -0.0139,-0.0392 6.22351,-5.9814 9.48812,-9.03911 l 0.36465,-0.34153 0.81328,0.82404 c 0.82588,0.8368 1.30155,1.21277 2.0665,1.63335 0.48618,0.26731 0.3813,0.0345 0.93657,2.07901 0.40353,1.4858 0.73547,2.95864 0.86102,3.82032 0.19957,1.36982 0.27378,5.2098 0.10272,5.31552 -0.025,0.0154 -0.13578,-0.2099 -0.24625,-0.50073 z"
     id="path129" />
  <path
     style="fill:#ff8080;fill-opacity:1;stroke-width:0.063672"
     d="m 165.20234,167.55817 c -0.15965,-0.48064 -0.63698,-1.15879 -1.41223,-2.00634 -0.98944,-1.08173 -1.36251,-1.36882 -2.26142,-1.74026 -0.7921,-0.3273 -1.5099,-0.47456 -2.3474,-0.48158 -0.72633,-0.006 -0.7423,-0.003 -1.20976,0.22936 -0.26055,0.12954 -0.92312,0.57353 -1.47237,0.98666 -1.71851,1.29257 -2.17652,1.5157 -3.1082,1.51425 -0.54004,-8.4e-4 -0.64241,-0.0204 -0.95507,-0.18275 -0.62756,-0.32579 -2.16485,-1.67223 -2.16485,-1.89608 0,-0.0577 0.15042,-0.21252 0.33428,-0.34397 1.43562,-1.02646 5.55716,-4.64558 9.23687,-8.11089 0.76411,-0.71959 1.40879,-1.31428 1.43262,-1.32153 0.0238,-0.007 0.72527,0.65175 1.55877,1.46445 l 1.51546,1.47764 0.22129,0.95508 c 0.80029,3.45391 1.03848,5.49068 0.95312,8.15001 -0.0435,1.3539 -0.0707,1.62363 -0.16394,1.62363 -0.0284,0 -0.0991,-0.14296 -0.15717,-0.31768 z"
     id="path131" />
  <path
     style="fill:#ff8080;fill-opacity:1;stroke-width:0.063672"
     d="m 150.95082,176.42381 c -0.10277,-0.97097 -0.82175,-2.42552 -1.71168,-3.46287 -0.83813,-0.97698 -1.33914,-1.33439 -2.09699,-1.49597 -0.91962,-0.19607 -3.53956,-0.0482 -5.70034,0.32174 -0.30931,0.053 -0.88854,0.12832 -1.28718,0.16747 -1.13986,0.11196 -1.43435,-0.007 -2.15646,-0.87359 -1.00984,-1.21141 -1.60762,-2.01543 -1.60762,-2.16225 0,-0.10243 0.18209,-0.15038 1.65547,-0.43593 5.33113,-1.03318 7.88201,-1.93326 11.31309,-3.99182 l 0.20233,-0.12139 0.84826,0.80489 c 0.46654,0.4427 1.07747,0.97298 1.35763,1.17841 0.28016,0.20543 0.58101,0.42909 0.66856,0.49702 l 0.15918,0.12352 -0.011,1.21847 c -0.0205,2.27808 -0.23019,4.29582 -0.59254,5.70134 -0.3704,1.43676 -0.85026,2.89708 -0.95197,2.89708 -0.0275,0 -0.0675,-0.16475 -0.0888,-0.36612 z"
     id="path133" />
  <path
     style="fill:#ff8080;fill-opacity:1;stroke-width:0.063672"
     d="m 132.92678,181.01443 c 0.0241,-0.0997 0.12262,-0.44023 0.21902,-0.75666 0.68103,-2.2354 0.71182,-3.97302 0.0957,-5.39818 -0.34259,-0.79241 -0.60187,-1.17785 -1.18363,-1.75961 -0.57882,-0.57882 -1.06256,-0.90493 -1.64439,-1.10856 -0.51503,-0.18025 -1.79697,-0.21563 -2.76077,-0.0762 -0.44597,0.0645 -0.86639,0.0897 -1.07509,0.0643 -1.49426,-0.18133 -2.65568,-0.9362 -3.25842,-2.11783 -0.3397,-0.66595 -0.9679,-2.29401 -0.90819,-2.35372 0.0234,-0.0234 0.64983,0.16312 1.39203,0.41454 1.44202,0.48847 2.20611,0.69582 3.32327,0.90179 1.64457,0.30322 2.21693,0.35107 4.23419,0.35398 1.7233,0.002 2.0485,-0.0138 2.88777,-0.14445 0.52018,-0.081 0.95212,-0.1383 0.95987,-0.12734 0.008,0.011 0.44321,0.52133 0.96768,1.13417 1.15305,1.34736 1.60206,1.90636 1.85918,2.31468 l 0.19459,0.30901 -0.16276,0.45505 c -0.41106,1.14928 -1.60788,3.69286 -2.08694,4.43533 -0.48775,0.75593 -2.82773,3.54841 -3.03244,3.61884 -0.0399,0.0137 -0.0478,-0.0467 -0.0206,-0.15918 z"
     id="path135" />
  <path
     style="fill:#ff8080;fill-opacity:1;stroke-width:0.063672"
     d="m 102.81214,167.77215 c 1.04994,-1.03383 1.10181,-1.09697 1.37946,-1.67911 0.75572,-1.58454 0.95497,-2.85713 0.78897,-5.03898 l -0.0515,-0.67744 0.43357,0.0274 c 0.89311,0.0564 1.72227,0.16122 2.19553,0.27746 0.91475,0.22467 4.39389,1.70712 4.54397,1.93618 0.13919,0.21243 0.7935,3.12655 0.7935,3.53403 0,0.14701 -0.90259,0.62415 -2.36923,1.25245 -2.54857,1.0918 -3.7026,1.31444 -7.27707,1.40397 l -1.52813,0.0383 z"
     id="path137" />
  <path
     style="fill:#ff8080;fill-opacity:1;stroke-width:0.063672"
     d="m 115.13466,177.7517 c 0.0117,-0.0316 0.33307,-0.40132 0.71412,-0.82168 0.89177,-0.98376 1.41597,-1.7189 1.84783,-2.59146 0.90696,-1.83245 1.04774,-3.40293 0.40148,-4.47863 -0.33735,-0.56152 -1.13709,-1.26846 -2.28169,-2.01691 -1.69934,-1.11121 -1.88266,-1.24292 -1.95693,-1.40592 -0.16528,-0.36275 -0.81667,-3.37772 -0.7452,-3.44919 0.0571,-0.0571 2.58953,1.13017 5.35932,2.51249 l 2.87193,1.4333 0.36738,0.99637 c 0.472,1.28012 0.8373,2.11229 1.27463,2.90364 0.19265,0.3486 0.35027,0.65457 0.35027,0.67994 0,0.0809 -1.15053,1.72434 -1.55365,2.2193 -0.84354,1.03572 -1.95057,2.02831 -2.84432,2.55029 -0.68142,0.39797 -3.86363,1.62602 -3.80517,1.46846 z"
     id="path139" />
  <path
     style="fill:#ffccaa;fill-opacity:1;stroke-width:0.360183"
     d="m 19.878236,201.93004 c -2.129582,-2.26177 -3.871967,-4.2492 -3.871967,-4.41653 0,-0.55447 6.527959,-6.33514 6.788795,-6.01164 0.140739,0.17455 1.946425,2.06297 4.012634,4.19648 l 3.756743,3.87911 -3.219518,3.2345 c -1.770735,1.77898 -3.303939,3.23358 -3.407119,3.23245 -0.103181,-0.001 -1.929986,-1.8526 -4.059568,-4.11437 z"
     id="path141" />
  <path
     style="fill:#ffccaa;fill-opacity:1;stroke-width:0.360183"
     d="m 65.171246,159.17854 c -1.981007,-2.19333 -3.645475,-4.10305 -3.698819,-4.24384 -0.129232,-0.34106 5.492052,-5.79715 5.972678,-5.79715 0.421353,0 7.631173,7.73953 7.631173,8.19183 0,0.42067 -5.533794,5.857 -5.950988,5.84617 -0.193718,-0.005 -1.973038,-1.80368 -3.954044,-3.99701 z"
     id="path143" />
  <path
     style="fill:#ffccaa;fill-opacity:1;stroke-width:0.360183"
     d="m 88.485628,136.97961 -3.984086,-4.25906 17.309968,-16.37399 c 9.52048,-9.00569 17.49984,-16.42059 17.73191,-16.477555 0.23207,-0.05697 2.15421,1.751825 4.27144,4.019525 l 3.84949,4.1231 -2.28026,2.10359 c -1.25415,1.15697 -9.04516,8.58687 -17.31336,16.5109 -8.268194,7.92402 -15.160867,14.4535 -15.317049,14.50994 -0.156181,0.0564 -2.076805,-1.81396 -4.268053,-4.15645 z"
     id="path145" />
  <path
     style="fill:#ffccaa;fill-opacity:1;stroke-width:0.127344"
     d="m 164.16546,40.221885 c -1.05764,-1.070579 -2.78045,-2.85242 -3.82848,-3.959647 l -1.90549,-2.013138 0.71636,-0.688407 c 0.394,-0.378623 0.76814,-0.688406 0.83141,-0.688406 0.0633,0 1.37199,1.33142 2.90827,2.958711 1.53628,1.627291 3.24735,3.434589 3.80239,4.016217 l 1.00915,1.057506 -0.62233,0.631836 c -0.34229,0.347509 -0.70468,0.631836 -0.80532,0.631836 -0.10063,0 -1.04832,-0.875929 -2.10596,-1.946508 z"
     id="path149" />
  <path
     style="fill:#ffccaa;fill-opacity:1;stroke-width:0.127344"
     d="m 184.01829,47.888133 c -5.11286,-5.527431 -9.40865,-10.194476 -9.54621,-10.371213 l -0.25011,-0.321338 0.72762,-0.727613 0.72761,-0.727612 2.11232,2.099758 c 4.24012,4.214899 16.38091,17.029568 17.08978,18.038353 l 0.28293,0.402637 -0.83845,0.80713 c -0.46115,0.443922 -0.87691,0.816725 -0.92392,0.828451 -0.047,0.01173 -4.26871,-4.501122 -9.38157,-10.028553 z"
     id="path151" />
  <path
     style="fill:#ffdd55;fill-opacity:1;stroke-width:0.127344"
     d="m 15.687798,205.56002 c -3.169272,-3.35557 -5.7623122,-6.16867 -5.7623122,-6.25133 0,-0.16758 2.5443002,-2.79678 3.0794732,-3.18223 l 0.341579,-0.24602 5.877366,6.21055 5.877366,6.21055 -1.761907,1.68215 c -0.96905,0.92518 -1.790561,1.68107 -1.825581,1.67976 -0.03502,-0.001 -2.656712,-2.74785 -5.825984,-6.10343 z"
     id="path155" />
  <path
     style="fill:#ffdd55;fill-opacity:1;stroke-width:0.127344"
     d="m 27.734315,195.66266 c -2.76531,-2.92414 -5.381019,-5.69518 -5.812685,-6.15788 L 21.136781,188.6635 39.86488,170.9444 c 10.300454,-9.74551 18.776323,-17.7191 18.835264,-17.7191 0.16673,0 4.928439,5.09609 9.795724,10.48362 l 1.705603,1.8879 -0.880728,0.86514 c -1.26883,1.24637 -36.467222,34.51731 -36.516969,34.51731 -0.02289,0 -2.304149,-2.39248 -5.069459,-5.31661 z"
     id="path157" />
  <path
     style="fill:#ffdd55;fill-opacity:1;stroke-width:0.127344"
     d="m 71.814628,152.57028 c -3.256821,-3.44133 -5.936848,-6.29507 -5.955615,-6.34163 -0.03185,-0.079 14.995231,-14.37965 15.759723,-14.99785 l 0.349178,-0.28236 5.079034,5.37376 c 2.793469,2.95556 5.49315,5.80956 5.999293,6.34222 l 0.920258,0.96847 -8.030904,7.59777 c -4.416999,4.17877 -8.068834,7.5975 -8.115191,7.59718 -0.04636,-3.3e-4 -2.748956,-2.81623 -6.005776,-6.25756 z"
     id="path159" />
  <path
     style="fill:#ffdd55;fill-opacity:1;stroke-width:0.127344"
     d="m 124.2824,103.39506 c -4.64821,-4.799318 -5.71962,-5.968528 -5.58312,-6.092717 0.41407,-0.376699 10.06685,-9.495546 12.05108,-11.384483 l 2.20401,-2.098166 1.78422,1.773789 c 3.18139,3.162803 9.85308,10.133073 9.85308,10.294032 0,0.141673 -2.26657,2.260968 -11.41884,10.676855 -1.65665,1.52335 -3.0405,2.76973 -3.07523,2.76973 -0.0347,0 -2.65158,-2.67257 -5.8152,-5.93904 z"
     id="path161" />
  <path
     style="fill:#ffdd55;fill-opacity:1;stroke-width:0.127344"
     d="m 186.25436,45.621771 c -4.37745,-4.626493 -7.97541,-8.476083 -7.99546,-8.554645 -0.0201,-0.07856 0.77242,-0.908059 1.76105,-1.843328 l 1.79753,-1.700489 0.79747,0.816479 c 1.59247,1.63042 13.66303,14.086162 14.57972,15.044967 l 0.94146,0.98472 -1.38834,1.314066 c -0.76359,0.722736 -1.64621,1.547158 -1.96139,1.832051 l -0.57305,0.517985 z"
     id="path163" />
  <path
     style="fill:#ffdd55;fill-opacity:1;stroke-width:0.180091"
     d="m 127.25624,168.08178 c -2.08508,-0.37768 -4.1966,-1.19467 -8.81572,-3.411 -5.34213,-2.56324 -9.49261,-4.36242 -10.89026,-4.72079 -1.48019,-0.37953 -3.71825,-0.22964 -5.58811,0.37426 -1.992129,0.64339 -4.064442,1.86512 -6.347219,3.742 -1.065344,0.87592 -1.98806,1.59261 -2.05048,1.59265 -0.173408,1.1e-4 -4.314885,-4.54899 -4.258281,-4.67741 0.02727,-0.0619 1.304262,-1.24309 2.837766,-2.62498 1.533505,-1.38189 7.048621,-6.44302 12.255814,-11.24696 5.20719,-4.80394 10.25013,-9.45047 11.20653,-10.32563 l 1.73891,-1.5912 1.71551,1.51143 c 1.94612,1.71461 3.37091,2.6165 5.32284,3.36936 2.36064,0.91051 3.9021,1.15347 7.29371,1.14965 4.83755,-0.005 6.48394,-0.44235 8.50271,-2.25637 2.43354,-2.18671 16.27463,-15.47505 21.1566,-20.3117 3.79731,-3.76205 5.08493,-5.14972 5.35673,-5.77292 0.837,-1.91918 0.92165,-5.51072 0.19669,-8.3453 l -0.35798,-1.39969 -3.1877,-3.361692 c -1.75323,-1.848931 -3.91177,-4.109955 -4.79675,-5.024499 l -1.60907,-1.662806 -1.11619,0.979966 -1.1162,0.979968 -1.51636,-1.524277 c -0.83399,-0.838353 -1.5752,-1.503569 -1.64712,-1.478259 -0.0719,0.02531 -1.23287,1.089887 -2.57989,2.365727 l -2.44912,2.319708 -0.55029,-0.518793 C 144.13503,94.488585 123.1229,72.227399 123.1229,72.014071 c 0,-0.06456 0.74963,-0.79917 1.66585,-1.632459 2.79572,-2.542677 6.07809,-5.801671 6.07809,-6.034805 0,-0.121262 -0.37165,-0.633835 -0.82588,-1.139049 -0.45423,-0.505215 -0.79865,-0.983846 -0.76539,-1.063624 0.0333,-0.07978 1.47871,-1.489894 3.21209,-3.133589 1.73338,-1.643695 3.45478,-3.303834 3.82533,-3.689199 l 0.67374,-0.700664 -0.56531,-0.685819 -0.56531,-0.685819 0.97212,-0.959257 c 3.31965,-3.275708 19.72695,-18.637876 19.90586,-18.637876 0.11953,0 2.18644,2.066698 4.59314,4.592661 2.40669,2.525963 4.52418,4.639754 4.70553,4.697313 0.46564,0.147788 0.76628,-0.08597 4.03754,-3.139396 l 2.91502,-2.720912 4.28864,4.547467 c 2.35874,2.501106 6.71425,7.17945 9.67889,10.39632 2.96464,3.21687 5.63626,6.113902 5.93691,6.437851 l 0.54665,0.589 -2.47771,2.482467 -2.47772,2.48247 4.38437,4.672466 c 2.41141,2.569857 4.76315,5.005215 5.2261,5.411904 1.15321,1.013083 2.46288,1.413704 4.63189,1.416877 2.26572,0.0033 2.6828,-0.2214 6.13641,-3.306222 1.50977,-1.348557 3.12469,-2.791485 3.5887,-3.206505 l 0.84365,-0.754584 17.03568,18.012171 17.03569,18.012171 -1.20434,1.12723 c -1.0192,0.95395 -3.69624,3.32605 -4.75072,4.20958 -0.27253,0.22834 -0.46285,0.11784 -1.80091,-1.04565 -3.85963,-3.35606 -6.30298,-4.51644 -11.22651,-5.33164 -2.38712,-0.39524 -8.21835,-0.44815 -10.43992,-0.0947 -2.33788,0.37192 -4.73013,1.06569 -6.02992,1.74871 -1.78461,0.93779 -5.02182,4.01097 -32.32957,30.69147 -4.10963,4.01524 -14.34524,13.82123 -19.097,18.29546 -8.2602,7.77774 -10.2435,9.411 -13.40951,11.04279 -5.02455,2.5897 -14.57205,4.1135 -19.81883,3.16313 z"
     id="path165" />
</svg>
