<?xml version="1.0" encoding="UTF-8" standalone="no"?>
<svg
   xmlns:dc="http://purl.org/dc/elements/1.1/"
   xmlns:cc="http://creativecommons.org/ns#"
   xmlns:rdf="http://www.w3.org/1999/02/22-rdf-syntax-ns#"
   xmlns:svg="http://www.w3.org/2000/svg"
   xmlns="http://www.w3.org/2000/svg"
   xmlns:sodipodi="http://sodipodi.sourceforge.net/DTD/sodipodi-0.dtd"
   xmlns:inkscape="http://www.inkscape.org/namespaces/inkscape"
   cursor="default"
   viewBox="0 0 256 256"
   version="1.1"
   id="svg50"
   sodipodi:docname="chainsword.svg"
   inkscape:version="1.0.2-2 (e86c870879, 2021-01-15)">
  <metadata
     id="metadata56">
    <rdf:RDF>
      <cc:Work
         rdf:about="">
        <dc:format>image/svg+xml</dc:format>
        <dc:type
           rdf:resource="http://purl.org/dc/dcmitype/StillImage" />
      </cc:Work>
    </rdf:RDF>
  </metadata>
  <defs
     id="defs54" />
  <sodipodi:namedview
     pagecolor="#ffffff"
     bordercolor="#666666"
     borderopacity="1"
     objecttolerance="10"
     gridtolerance="10"
     guidetolerance="10"
     inkscape:pageopacity="0"
     inkscape:pageshadow="2"
     inkscape:window-width="1920"
     inkscape:window-height="1017"
     id="namedview52"
     showgrid="false"
     inkscape:zoom="2.0516816"
     inkscape:cx="214.77488"
     inkscape:cy="133.11418"
     inkscape:window-x="-8"
     inkscape:window-y="-8"
     inkscape:window-maximized="1"
     inkscape:current-layer="svg50"
     inkscape:document-rotation="0" />
  <path
     style="fill:#000000;stroke-width:0.210543"
     d="m 4.9596596,233.8879 c 4.88e-4,-0.10919 0.5950685,-0.7878 1.3213982,-1.50807 l 1.3205674,-1.30956 -1.5613031,-1.57443 c -1.2209418,-1.2312 -1.5322576,-1.63888 -1.4281625,-1.87003 0.073292,-0.16252 1.4206459,-1.46127 2.9942997,-2.88592 l 2.8611927,-2.59032 1.562842,1.68657 1.562831,1.68653 16.925676,-16.97994 c 9.309082,-9.33905 18.35495,-18.39795 20.101784,-20.1311 l 3.176084,-3.15112 -2.594412,-2.61625 -2.594402,-2.61623 2.915231,-2.8909 2.915232,-2.89091 -4.058202,-4.1298 c -2.23221,-2.27119 -4.199888,-4.28949 -4.373147,-4.48461 l -0.31484,-0.35494 6.651494,-6.67317 6.651506,-6.67319 -0.443221,-0.44695 -0.443231,-0.44696 3.13948,-3.11328 3.139482,-3.1133 0.392408,0.39572 0.392407,0.3957 1.587355,-1.76314 c 0.872988,-0.96977 1.704416,-1.88054 1.847529,-2.02403 0.178138,-0.17843 0.143232,-0.37882 -0.110382,-0.63459 l -0.370625,-0.37374 2.018238,-2.0014 2.018238,-2.0014 0.370625,0.37374 0.370626,0.37375 2.242486,-2.22378 c 2.142808,-2.12493 2.229367,-2.23701 1.945991,-2.52276 -0.281308,-0.28368 -0.196828,-0.39786 1.646978,-2.22629 1.068915,-1.05998 1.977262,-1.99411 2.018583,-2.0758 0.04131,-0.0818 0.246668,-0.0186 0.456398,0.14039 0.374475,0.28389 0.418333,0.25231 2.453994,-1.76638 l 2.072663,-2.05535 -0.360368,-0.45803 -0.36038,-0.45804 2.106098,-2.17105 c 1.394698,-1.43777 2.230197,-2.18201 2.473469,-2.20362 0.291401,-0.0258 1.382287,0.97308 5.277195,4.83232 2.700463,2.67566 4.981766,4.86515 5.069694,4.86539 0.08785,8.9e-4 20.685701,-20.26759 45.772861,-45.039675 25.0871,-24.772157 46.00322,-45.386734 46.48017,-45.810269 0.47691,-0.423552 8.59326,-8.419032 18.03619,-17.767842 11.85782,-11.7388769 17.21706,-16.9493266 17.32433,-16.8411598 0.0854,0.086124 1.05642,2.2090228 2.1578,4.7175235 1.10137,2.5084903 2.06099,4.6198863 2.13247,4.6919703 0.0713,0.07209 1.07801,0.246135 2.23674,0.386777 2.52238,0.306148 4.9041,0.89292 6.60689,1.627699 1.16885,0.50439 1.43297,0.724032 4.06576,3.381024 2.72339,2.748462 3.54224,3.751894 3.27654,4.015379 -0.0697,0.06916 -0.5673,0.03415 -1.1057,-0.0778 -1.88606,-0.392119 -4.87134,-0.508055 -5.95093,-0.2311 -1.18149,0.303107 -3.73383,1.419964 -3.73472,1.634279 -1.8e-4,0.0728 0.66727,0.449081 1.48357,0.836362 3.73271,1.771027 5.9836,3.6153 7.0405,5.768666 1.16234,2.36816 3.08682,9.164743 2.65621,9.380772 -0.11215,0.05629 -0.45283,-0.107662 -0.75695,-0.364302 -0.3041,-0.256646 -1.54047,-1.130772 -2.74744,-1.942514 -2.25114,-1.513966 -3.76861,-2.162702 -5.83595,-2.49494 l -1.09326,-0.175653 0.68161,2.19027 c 1.32942,4.272061 1.43937,6.529446 0.45365,9.314258 -0.50481,1.426129 -3.08341,6.734898 -3.44597,7.094413 -0.28427,0.281897 -0.45132,-0.166708 -0.72453,-1.945852 -0.35111,-2.286429 -1.0898,-4.67181 -1.60432,-5.180592 -0.65205,-0.644066 -1.92474,-1.018157 -3.96278,-1.163372 -2.59034,-0.184638 -2.72092,-0.02581 -1.93152,2.346959 0.86359,2.595972 1.3674,5.360011 1.26143,6.920534 -0.0492,0.720099 -0.34195,2.02176 -0.65122,2.892553 -0.50892,1.432942 -3.08851,6.741935 -3.44999,7.100407 -0.28429,0.281898 -0.45131,-0.166706 -0.72452,-1.945867 -0.3511,-2.286413 -1.08981,-4.671793 -1.60434,-5.180576 -0.65203,-0.644081 -1.92472,-1.018172 -3.96278,-1.163371 -2.59031,-0.184638 -2.72089,-0.02597 -1.93152,2.346959 0.86286,2.593738 1.36743,5.359647 1.26173,6.916327 -0.11768,1.732995 -0.87493,3.821999 -2.62176,7.232578 -1.38377,2.70172 -1.78558,3.218722 -1.91453,2.463367 -1.08398,-6.349173 -1.56153,-7.291284 -3.93515,-7.76296 -1.52849,-0.303753 -4.21981,-0.31911 -4.51562,-0.02571 -0.18034,0.178835 -0.0662,0.850812 0.36464,2.145768 0.86362,2.595987 1.36742,5.359995 1.26145,6.920534 -0.0492,0.720098 -0.34193,2.021744 -0.65122,2.892522 -0.50894,1.432973 -3.0885,6.741949 -3.45001,7.100438 -0.28428,0.281914 -0.4513,-0.166706 -0.72451,-1.945867 -0.35081,-2.284471 -1.08955,-4.671166 -1.60369,-5.181211 -0.68793,-0.682485 -2.11392,-1.074301 -4.13937,-1.13749 l -1.95175,-0.06092 0.63595,1.911623 c 0.87175,2.620506 1.3765,5.380984 1.27016,6.94677 -0.0492,0.720099 -0.34194,2.021743 -0.65122,2.892521 -0.50894,1.432957 -3.0885,6.741948 -3.44998,7.100424 -0.28429,0.281904 -0.45133,-0.16671 -0.72455,-1.945855 -0.35108,-2.28643 -1.08979,-4.671795 -1.60432,-5.180573 -0.22055,-0.217926 -0.77155,-0.538267 -1.22463,-0.711694 -1.04448,-0.399754 -4.57198,-0.661249 -4.89995,-0.363184 -0.15958,0.144816 -0.0243,0.895314 0.37976,2.110259 0.86289,2.593731 1.36745,5.359645 1.26174,6.916303 -0.11768,1.732995 -0.87491,3.82202 -2.62175,7.23261 -1.38376,2.7017 -1.78559,3.2187 -1.91452,2.46334 -1.08398,-6.34917 -1.56153,-7.29128 -3.93517,-7.762969 -1.34874,-0.268018 -4.20647,-0.332238 -4.44085,-0.09988 -0.10329,0.10233 0.0943,1.034679 0.43937,2.071649 0.86362,2.59596 1.36743,5.36 1.26147,6.92056 -0.0492,0.72007 -0.34195,2.02172 -0.65124,2.89252 -0.50893,1.43293 -3.08849,6.74194 -3.44999,7.1004 -0.28427,0.28192 -0.45131,-0.16671 -0.72454,-1.94585 -0.35079,-2.28446 -1.08953,-4.67117 -1.60368,-5.18123 -0.22055,-0.2179 -0.79701,-0.54784 -1.28201,-0.7322 -0.96517,-0.36688 -4.61511,-0.58878 -4.90797,-0.29838 -0.10042,0.0997 0.0996,1.02957 0.44454,2.06654 0.8636,2.59596 1.36742,5.35999 1.26145,6.92053 -0.0492,0.7201 -0.34193,2.02175 -0.65121,2.89253 -0.50895,1.43295 -3.08851,6.74195 -3.45001,7.10044 -0.28428,0.2819 -0.45133,-0.16671 -0.72453,-1.94588 -0.35109,-2.28642 -1.08982,-4.67178 -1.60432,-5.18058 -0.22055,-0.21792 -0.77156,-0.53825 -1.22463,-0.71166 -1.04448,-0.39978 -4.572,-0.66128 -4.89996,-0.36319 -0.15951,0.14482 -0.0244,0.89533 0.37977,2.11027 0.86359,2.59597 1.36741,5.35999 1.26146,6.92054 -0.0489,0.72011 -0.34195,2.02175 -0.65122,2.89252 -0.50894,1.43296 -3.0885,6.74194 -3.45,7.10044 -0.28428,0.28189 -0.45134,-0.16671 -0.72453,-1.94588 -0.35111,-2.2864 -1.08983,-4.6718 -1.60434,-5.18059 -0.22054,-0.21789 -0.77154,-0.53824 -1.22463,-0.71166 -1.04448,-0.39975 -4.572,-0.66128 -4.89994,-0.36317 -0.15953,0.14481 -0.0244,0.89532 0.37976,2.11025 0.8636,2.59596 1.36742,5.36001 1.26145,6.92055 -0.0489,0.7201 -0.34194,2.02173 -0.65122,2.89253 -0.50893,1.43295 -3.0885,6.74194 -3.44998,7.10041 -0.28429,0.28192 -0.45134,-0.16671 -0.72454,-1.94585 -0.35081,-2.28447 -1.08953,-4.67117 -1.6037,-5.18123 -0.67909,-0.6736 -2.07947,-1.06424 -4.08556,-1.13956 -1.05698,-0.0395 -1.9703,-0.0241 -2.02967,0.0349 -0.0593,0.0589 0.17433,0.95546 0.51929,1.99243 0.86359,2.59597 1.36742,5.35999 1.26146,6.92053 -0.0489,0.72012 -0.34195,2.02176 -0.65124,2.89255 -0.50893,1.43293 -3.0885,6.74194 -3.44998,7.10041 -0.28429,0.28189 -0.45134,-0.16671 -0.72454,-1.94587 -0.3511,-2.28642 -1.08981,-4.67179 -1.60434,-5.18057 -0.22053,-0.21793 -0.77153,-0.53827 -1.22462,-0.71168 -0.88676,-0.33939 -4.55121,-0.67979 -4.80876,-0.44669 -0.0855,0.0782 0.0297,0.62501 0.25708,1.21604 1.49501,3.88668 1.79152,7.54492 0.83026,10.2434 -0.53837,1.51127 -3.11539,6.83246 -3.48778,7.20174 -0.28429,0.28191 -0.45131,-0.1667 -0.72453,-1.94586 -0.3511,-2.28641 -1.08981,-4.67179 -1.60433,-5.18058 -0.22055,-0.21792 -0.77154,-0.53825 -1.22464,-0.71167 -0.8838,-0.33828 -4.54866,-0.6799 -4.81049,-0.44844 -0.0867,0.0771 0.12132,1.02685 0.46272,2.11117 0.68799,2.18518 0.87163,5.24218 0.47492,7.90599 l -0.23314,1.56553 0.91587,1.01911 0.91587,1.01911 -5.71992,5.74379 -5.719911,5.7438 -6.613012,-1.73502 -6.613,-1.73499 -1.498322,1.47915 c -0.824477,0.81316 -3.110243,3.16524 -5.080538,5.22584 l -3.582404,3.74645 1.224414,1.42353 c 3.127241,3.63578 4.404233,8.73034 3.110773,12.4104 -1.220324,3.47196 -2.591823,5.02535 -18.732284,21.2167 -12.978817,13.01974 -17.334273,17.15206 -19.708023,18.69827 -2.101612,1.36896 -4.688934,2.19366 -7.068403,2.25305 -2.406549,0.0601 -4.090349,-0.42503 -6.54011,-1.88412 -1.737816,-1.03505 -1.980979,-1.24994 -5.257842,-4.64624 l -3.435712,-3.56104 -1.425447,1.32839 -1.425449,1.32838 -5.158539,-5.20194 C 7.2802268,236.42731 4.9592569,233.9971 4.9597238,233.88793 Z m 11.6006104,8.75797 1.270737,-1.26014 -4.966437,-5.00822 -4.9664375,-5.00823 -1.2707399,1.26015 -1.2707491,1.26015 4.9664385,5.0082 4.966438,5.00823 z m 10.301985,6.93312 c 2.322856,1.41488 3.933594,1.92742 6.08679,1.93678 2.005038,0.009 4.542237,-0.65091 6.339675,-1.64818 2.514521,-1.39512 4.160733,-2.92449 18.365554,-17.06194 7.592098,-7.55612 14.880166,-14.94038 16.195563,-16.40963 3.940744,-4.40134 4.947662,-6.3024 5.070465,-9.5729 0.120768,-3.21707 -1.575907,-7.33753 -4.074064,-9.89398 l -0.698587,-0.71568 -2.158572,2.14056 -2.158595,2.14059 0.610232,0.80329 c 0.335615,0.44182 0.916887,1.3665 1.291733,2.05483 0.999085,1.83448 0.874879,3.97155 -0.377207,6.4902 -0.51894,1.04391 -1.293291,1.83772 -16.468361,16.88207 -14.586267,14.46012 -16.030381,15.84925 -17.192003,16.53245 -2.343369,1.37814 -3.68422,1.55968 -5.798502,0.78502 l -1.200863,-0.43998 -10.165522,-10.45286 -10.16553,-10.4529 -1.2716245,1.26102 c -0.699387,0.69356 -1.9301027,1.82749 -2.7349789,2.5198 l -1.4634675,1.25866 8.1002069,8.24574 c 4.455092,4.53518 9.036874,9.22975 10.181696,10.43241 1.73862,1.82658 2.345849,2.34763 3.686348,3.16423 z m 5.307535,-5.95588 c 2.801165,1.00013 4.117463,0.47257 8.301562,-3.32726 3.716346,-3.37505 26.234771,-25.69077 28.668769,-28.41178 1.680411,-1.87789 1.904232,-2.21127 2.348411,-3.49913 0.272147,-0.78908 0.470451,-1.98532 0.444936,-2.68405 -0.07205,-1.9734 -0.581593,-2.73769 -4.376624,-6.56464 l -3.234639,-3.26185 -20.157452,19.98926 c -11.08662,10.99412 -20.157854,20.07864 -20.158287,20.18781 -4.88e-4,0.10921 1.539234,1.75133 3.421417,3.64934 l 3.422271,3.45082 z m 11.674062,-28.03318 20.182381,-20.01401 -4.989979,-5.03195 -4.989976,-5.03196 -7.491239,7.62042 c -4.120181,4.19123 -13.158334,13.24182 -20.084756,20.11246 l -12.593071,12.49244 4.892309,4.93347 4.892307,4.93348 z m 8.349936,-34.56232 c 0.503894,-0.51971 4.742778,-4.75568 9.419791,-9.41326 l 8.503657,-8.46829 -5.411192,-5.45673 -5.411184,-5.4567 -6.503211,6.44896 -6.503211,6.44895 1.834416,1.8873 c 1.009144,1.03781 1.951033,2.03853 2.093596,2.22334 0.142557,0.1848 1.284805,1.38711 2.53834,2.67182 l 2.279181,2.3358 -2.922072,2.89771 -2.922061,2.89768 1.043866,0.96429 1.043875,0.9643 z m 19.84561,3.04384 9.493197,-9.414 -5.582803,-5.62976 -5.582792,-5.62976 -7.566537,7.69398 c -4.161643,4.23167 -8.38966,8.51225 -9.395683,9.51232 l -1.829136,1.81833 5.48531,5.53148 5.485325,5.53147 z m 4.908762,8.53818 7.581757,-7.6039 6.589264,1.70525 6.589252,1.70527 5.587707,-5.46345 5.58769,-5.46347 -4.01857,-4.24681 c -2.21018,-2.33575 -4.28913,-4.59177 -4.61976,-5.01345 l -0.601115,-0.76673 -1.260777,1.06767 c -2.30979,1.95609 -4.090566,2.45488 -6.203468,1.73758 -1.284324,-0.43602 -2.097262,-1.14315 -3.238512,-2.81705 -1.837451,-2.69495 -1.721542,-5.23183 0.33272,-7.28384 1.768291,-1.76687 3.798618,-2.24537 6.497746,-1.5325 1.033785,0.27306 1.298354,0.44543 2.420771,1.57729 1.121551,1.131 1.298932,1.40809 1.61306,2.51949 0.194105,0.68682 0.306415,1.67466 0.249565,2.19523 -0.05684,0.52055 -0.13004,1.20803 -0.162645,1.52769 -0.04169,0.4085 0.147205,0.8392 0.635455,1.449 l 0.69479,0.86772 16.56276,-16.39902 c 9.10918,-9.01982 17.62855,-17.40984 18.93128,-18.64523 1.30271,-1.23535 24.99179,-24.59447 52.6426,-51.908905 l 50.2741,-49.662723 -0.84325,-1.929977 C 235.03444,21.627796 227.42473,4.3266429 227.39807,4.3231705 c -0.0179,-0.00234 -16.11996,15.8647025 -35.78152,35.2602015 -19.6615,19.395461 -48.25374,47.579881 -63.53824,62.632048 l -27.79001,27.36754 4.83957,4.88029 4.83957,4.8803 -0.31747,0.35261 c -0.175,0.19357 -1.01446,1.12678 -1.86622,2.07305 l -1.54877,1.72042 1.11863,7.48961 c 0.61524,4.11929 1.14994,7.68906 1.18822,7.93281 0.0601,0.38208 -0.22688,0.74227 -2.0798,2.61132 l -2.14939,2.16815 -3.23946,-3.2667 c -3.897135,-3.92993 -4.486604,-4.29978 -6.747755,-4.23378 -2.448612,0.0715 -5.542512,1.52632 -6.913703,3.25104 -1.432691,1.80206 -1.96651,4.75049 -1.243963,6.87058 0.514961,1.51098 1.682529,3.04106 4.473995,5.8632 l 2.308619,2.33476 -1.944806,2.12273 c -1.069666,1.16748 -2.337824,2.51246 -2.818164,2.98879 l -0.873359,0.86606 -2.742662,-2.76574 -2.742662,-2.76573 -9.4961,9.41687 -9.496111,9.41688 3.264728,3.2117 3.264728,3.21169 7.581758,-7.6039 z m 12.134858,-14.57129 c 0.946351,-1.04497 2.069217,-2.24563 2.49529,-2.66817 l 0.774689,-0.76822 -2.146258,-2.19572 c -3.69608,-3.78143 -4.675175,-5.43307 -4.806077,-8.10763 -0.175962,-3.59582 2.073461,-6.55058 6.051877,-7.94952 1.983698,-0.6975 3.80197,-0.77276 5.255338,-0.21742 1.083698,0.41405 1.254626,0.56033 4.329983,3.70522 l 3.20171,3.27417 1.96532,-1.95068 1.96546,-1.95057 -1.20911,-7.94698 -1.20911,-7.94698 1.76011,-1.95601 c 0.96804,-1.07583 1.76028,-2.00748 1.76056,-2.07029 -2.9e-4,-0.0628 -4.41423,-4.45017 -9.809933,-9.74962 l -9.810387,-9.6354 -1.668077,1.60703 c -0.917482,0.88381 -1.819867,1.82846 -2.005382,2.09918 l -0.337307,0.49216 4.354997,4.358 c 4.100386,4.10325 4.371747,4.41032 4.641289,5.25337 0.542189,1.69571 -0.577148,3.37904 -2.532223,3.80808 -1.905261,0.41813 -2.284274,0.17497 -7.056889,-4.528 l -4.086836,-4.02726 -1.79288,1.77793 -1.792869,1.7779 3.991063,3.82574 c 3.671964,3.51986 4.026758,3.90635 4.437953,4.83372 0.87315,1.96903 0.002,4.21105 -1.895384,4.87826 -1.717133,0.60382 -2.883565,-0.13285 -8.010554,-5.05825 -1.908045,-1.83306 -3.567442,-3.35651 -3.687599,-3.38537 -0.120136,-0.0291 -0.951006,0.67388 -1.84634,1.56175 l -1.627912,1.61432 4.695718,4.8256 4.695704,4.82559 -0.0036,0.80542 c -0.0048,1.08608 -1.222562,2.52167 -2.432491,2.86773 -1.530718,0.43776 -1.854196,0.24101 -6.010017,-3.65535 -2.051627,-1.92357 -4.082919,-3.84817 -4.51398,-4.27688 l -0.783926,-0.77933 -2.84048,2.81679 -2.840479,2.81678 14.329073,14.44963 14.329082,14.44963 z M 69.678506,149.84322 c 2.132617,1.98978 4.115647,3.72594 4.406757,3.85812 1.304615,0.59244 3.446631,-0.78928 3.567035,-2.30095 l 0.06188,-0.77656 -4.194252,-4.31745 -4.194255,-4.31746 -1.950045,1.93377 c -1.461685,1.4495 -1.903073,1.97994 -1.762304,2.11826 0.103086,0.1017 1.932577,1.81248 4.065227,3.80225 z m 22.008745,19.80442 c 1.638636,0.9352 3.97454,0.52582 5.959965,-1.04461 1.48856,-1.17737 1.9533,-2.11668 1.961005,-3.96394 0.01384,-3.3055 -2.07352,-5.51275 -5.553926,-5.87292 -1.641854,-0.16984 -2.795132,0.24443 -4.23617,1.52189 -1.021225,0.90529 -1.225859,1.1876 -1.492423,2.05957 -0.437691,1.43141 -0.237864,2.79029 0.630093,4.28513 0.841617,1.44943 1.754949,2.45756 2.731456,3.01488 z m 15.588399,4.73145 c 0.23533,-1.40884 0.3827,-4.45764 0.26582,-5.49882 -0.11232,-1.00042 -0.52822,-2.56945 -1.04251,-3.93282 l -0.22382,-0.59343 -2.38078,2.36092 -2.38077,2.3609 2.14096,2.25047 c 1.17758,1.23771 2.44759,2.58928 2.8223,3.00347 l 0.6812,0.75309 z M 79.482492,143.73227 c 1.897524,1.74349 3.096542,2.31758 4.150163,1.98708 1.527262,-0.47908 2.414202,-2.1511 1.997458,-3.76558 -0.285512,-1.10612 -1.062851,-2.0056 -4.668215,-5.40165 l -3.309308,-3.11715 -2.224905,2.20634 -2.224907,2.20634 2.336856,2.20447 c 1.285293,1.21245 3.0596,2.86848 3.942858,3.68015 z m 32.184358,20.0884 c 0.5337,0.18803 1.16605,0.53933 1.40524,0.78066 0.50685,0.5114 1.3173,2.69304 1.61675,4.35217 0.11481,0.63607 0.25601,0.99182 0.31375,0.79051 0.24553,-0.85583 0.32445,-4.96177 0.1155,-6.01289 -0.22153,-1.11473 -1.74875,-3.91342 -2.60872,-4.78062 l -0.38933,-0.39261 -2.40809,2.38799 -2.40808,2.388 1.69631,0.0724 c 0.93297,0.0401 2.13299,0.2263 2.66667,0.41434 z m 4.89679,4.86397 c 1.32821,-2.63885 2.22036,-5.20508 2.29745,-6.60851 0.0363,-0.66666 -0.0832,-2.00064 -0.2661,-2.96445 -0.33944,-1.78799 -1.26153,-4.86481 -1.54298,-5.14864 -0.10382,-0.10468 -0.87543,0.58368 -2.31001,2.06096 l -2.1541,2.21817 0.93965,1.33298 c 1.98693,2.81863 2.40943,4.57293 2.0699,8.5946 -0.10968,1.29895 -0.14635,2.36196 -0.0817,2.36222 0.0648,-2e-4 0.53628,-0.83104 1.04782,-1.84733 z M 89.778595,136.76686 c 1.736538,0.95073 3.927526,0.18878 4.493225,-1.56354 0.411812,-1.27532 0.107328,-1.7118 -4.280717,-6.13676 l -3.93344,-3.96654 -2.092978,2.0755 -2.092991,2.07554 3.457006,3.48609 c 2.671922,2.69441 3.68245,3.60961 4.449895,4.02971 z m 32.650955,16.67742 c 0.53369,0.18804 1.16604,0.53934 1.40525,0.78065 0.50684,0.51141 1.31728,2.69305 1.61674,4.35218 0.11481,0.63609 0.25599,0.99181 0.31375,0.79054 0.24554,-0.85588 0.32444,-4.9618 0.11551,-6.01292 -0.22155,-1.11473 -1.74874,-3.91339 -2.60872,-4.78061 l -0.38934,-0.39262 -2.4081,2.38801 -2.40808,2.38798 1.69633,0.0724 c 0.93296,0.0402 2.13298,0.2263 2.66667,0.41434 z m 4.87536,4.88273 c 1.31936,-2.57343 2.24083,-5.20702 2.31885,-6.62724 0.0363,-0.66666 -0.0832,-2.00063 -0.2661,-2.96445 -0.33944,-1.78798 -1.26154,-4.86481 -1.54297,-5.14862 -0.10383,-0.10468 -0.87544,0.58367 -2.31002,2.06095 l -2.15411,2.21819 0.93967,1.33296 c 1.98692,2.81862 2.40942,4.57293 2.06989,8.5946 -0.10967,1.29894 -0.15297,2.36192 -0.0961,2.36215 0.0567,-5.6e-4 0.52522,-0.8226 1.04095,-1.82854 z m 5.88856,-15.55683 c 0.53369,0.18804 1.16603,0.53933 1.40523,0.78065 0.50685,0.5114 1.31729,2.69305 1.61675,4.35216 0.11482,0.6361 0.25599,0.99185 0.31374,0.79055 0.24554,-0.85588 0.32445,-4.96179 0.11552,-6.01292 -0.22155,-1.11473 -1.74875,-3.91339 -2.60873,-4.78061 l -0.38932,-0.39262 -2.4081,2.38801 -2.40809,2.38798 1.69633,0.0724 c 0.93296,0.0401 2.13299,0.22631 2.66667,0.41435 z m 4.87534,4.88271 c 1.31938,-2.57343 2.24084,-5.20701 2.31886,-6.62724 0.0363,-0.66666 -0.0832,-2.00062 -0.26611,-2.96444 -0.33942,-1.78797 -1.26153,-4.86479 -1.54297,-5.1486 -0.10382,-0.10468 -0.87543,0.58365 -2.31,2.06093 l -2.15411,2.21818 0.93966,1.33298 c 1.98692,2.81861 2.4094,4.57293 2.06989,8.59459 -0.10968,1.29895 -0.15296,2.36192 -0.0961,2.36215 0.0567,-5.6e-4 0.52521,-0.8226 1.04093,-1.82855 z m 6.03807,-15.70508 c 0.5337,0.18805 1.16604,0.53934 1.40523,0.78067 0.50685,0.51138 1.31729,2.69305 1.61675,4.35215 0.11481,0.6361 0.25601,0.99184 0.31375,0.79056 0.24553,-0.85588 0.32445,-4.96181 0.11551,-6.01293 -0.22154,-1.11473 -1.74875,-3.9134 -2.60873,-4.7806 l -0.38933,-0.39261 -2.40809,2.38798 -2.40809,2.38801 1.69633,0.0724 c 0.93296,0.0401 2.13298,0.22629 2.66667,0.41433 z m 4.87534,4.88273 c 1.31938,-2.57343 2.24084,-5.20701 2.31885,-6.62723 0.0363,-0.66666 -0.0831,-2.00065 -0.26609,-2.96444 -0.33944,-1.78797 -1.26154,-4.86482 -1.54298,-5.14863 -0.10382,-0.10467 -0.87543,0.58368 -2.31001,2.06095 l -2.15409,2.21818 0.93965,1.33298 c 1.98692,2.8186 2.40942,4.57292 2.0699,8.59458 -0.10968,1.29896 -0.15296,2.36192 -0.0961,2.36214 0.0567,-5.6e-4 0.5252,-0.82258 1.04094,-1.82853 z m 6.03807,-15.70508 c 0.53369,0.18803 1.16604,0.53933 1.40522,0.78067 0.50687,0.51139 1.31731,2.69303 1.61678,4.35213 0.11481,0.63611 0.25598,0.99184 0.31373,0.79056 0.24554,-0.85587 0.32445,-4.9618 0.11552,-6.01292 -0.22156,-1.11471 -1.74875,-3.91338 -2.60873,-4.78059 l -0.38934,-0.39262 -2.40808,2.38799 -2.4081,2.388 1.69632,0.0724 c 0.93298,0.0401 2.133,0.2263 2.66669,0.41433 z m 4.87533,4.88274 c 1.31935,-2.57344 2.24085,-5.20703 2.31886,-6.62724 0.0374,-0.6666 -0.0832,-2.00066 -0.26609,-2.96444 -0.33945,-1.78798 -1.26155,-4.86482 -1.54299,-5.14863 -0.10393,-0.10467 -0.87544,0.58369 -2.31,2.06096 l -2.15411,2.21817 0.93966,1.33298 c 1.98691,2.8186 2.40942,4.57292 2.06991,8.5946 -0.10968,1.29894 -0.15297,2.3619 -0.0955,2.36217 0.0568,-5.6e-4 0.5252,-0.8226 1.04093,-1.82855 z m 3.56287,-16.11474 c 1.73562,0.0849 3.24378,0.54795 3.88043,1.19031 0.50684,0.5114 1.31729,2.69304 1.61676,4.35216 0.11479,0.6361 0.25599,0.99185 0.31373,0.79054 0.24555,-0.85586 0.32434,-4.9618 0.11553,-6.01291 -0.22155,-1.11473 -1.74875,-3.9134 -2.60873,-4.78062 l -0.38934,-0.39262 -2.31724,2.2979 c -1.27449,1.26387 -2.27655,2.33896 -2.22683,2.38906 0.0497,0.0501 0.77677,0.12488 1.6157,0.16607 z m 7.35058,5.29235 c 1.31935,-2.57343 2.24083,-5.20701 2.31884,-6.62722 0.0374,-0.66661 -0.0832,-2.00067 -0.2661,-2.96445 -0.33944,-1.78798 -1.26153,-4.86481 -1.54297,-5.14862 -0.10392,-0.10468 -0.87544,0.58366 -2.31001,2.06095 l -2.1541,2.21816 0.93967,1.33299 c 1.98691,2.81859 2.40939,4.57291 2.06987,8.59459 -0.10968,1.29895 -0.15285,2.36192 -0.0954,2.36219 0.0568,-5.6e-4 0.52521,-0.8226 1.04094,-1.82855 z m 6.3358,-15.70384 c 0.53369,0.18805 1.16605,0.53934 1.40523,0.78068 0.50687,0.51138 1.31731,2.69303 1.61676,4.35213 0.11479,0.6361 0.256,0.99185 0.31376,0.79056 0.24554,-0.85588 0.32433,-4.96179 0.1155,-6.012933 -0.22154,-1.114699 -1.74876,-3.913389 -2.60874,-4.780589 l -0.38933,-0.392615 -2.40807,2.387973 -2.40811,2.388016 1.69632,0.07251 c 0.93298,0.04014 2.13299,0.226309 2.66668,0.414316 z m 4.87534,4.88274 c 1.31935,-2.57343 2.24085,-5.207003 2.31885,-6.627235 0.0374,-0.666606 -0.0832,-2.00064 -0.26608,-2.964431 -0.33946,-1.787993 -1.26155,-4.864817 -1.54299,-5.148643 -0.10392,-0.104726 -0.87544,0.583693 -2.31,2.060947 l -2.15411,2.218175 0.93964,1.33299 c 1.98693,2.818613 2.40943,4.572936 2.0699,8.594597 -0.10968,1.29896 -0.15286,2.36192 -0.0954,2.36217 0.0568,-5.5e-4 0.5252,-0.8226 1.04092,-1.82854 z m 6.03807,-15.70509 c 0.53369,0.188047 1.16604,0.539356 1.40524,0.780673 0.50599,0.510536 1.31714,2.692263 1.61546,4.345065 0.2978,1.649916 0.47574,0.852825 0.5394,-2.416223 0.034,-1.746352 -0.0789,-2.983556 -0.33012,-3.617956 -0.4293,-1.084005 -1.82292,-3.392435 -2.39837,-3.972715 l -0.37844,-0.381628 -2.40809,2.388011 -2.40809,2.387995 1.69632,0.07248 c 0.93299,0.04013 2.133,0.226308 2.66669,0.414324 z m 4.87535,4.882733 c 1.31936,-2.573425 2.24084,-5.207014 2.31884,-6.627246 0.0374,-0.666603 -0.0832,-2.00062 -0.26609,-2.96443 -0.33945,-1.78799 -1.26154,-4.8648 -1.54299,-5.148624 -0.10393,-0.104727 -0.87542,0.583672 -2.31,2.060934 l -2.1541,2.21819 0.93966,1.332968 c 1.9869,2.818623 2.40941,4.572944 2.06988,8.594609 -0.10968,1.298937 -0.15286,2.361917 -0.0954,2.362183 0.0568,-5.64e-4 0.52521,-0.822626 1.04093,-1.828553 z m 5.73905,-15.408582 c 0.53371,0.188032 1.16607,0.53934 1.40526,0.780674 0.50683,0.51138 1.31729,2.693027 1.61674,4.352129 0.11479,0.636109 0.25599,0.99186 0.31374,0.790559 0.24554,-0.85586 0.32435,-4.961798 0.11551,-6.012927 -0.22154,-1.1147 -1.74874,-3.913382 -2.60872,-4.780589 l -0.38935,-0.392614 -2.40807,2.387995 -2.40811,2.387994 1.69634,0.07248 c 0.93295,0.04013 2.13299,0.226309 2.66665,0.414338 z m 4.87535,4.882736 c 1.31935,-2.573428 2.24085,-5.207002 2.31884,-6.627234 0.0374,-0.666603 -0.0832,-2.000636 -0.26609,-2.964429 -0.33944,-1.787991 -1.26153,-4.864815 -1.54298,-5.148642 -0.10393,-0.104726 -0.87542,0.58369 -2.31002,2.060965 l -2.15409,2.21816 0.93966,1.333 c 1.9869,2.818592 2.40942,4.572912 2.06991,8.59458 -0.10968,1.298953 -0.15298,2.361912 -0.0955,2.362178 0.0568,-5.63e-4 0.5252,-0.822606 1.04094,-1.828549 z m 6.48531,-15.852067 c 0.53369,0.188015 1.16604,0.539323 1.40523,0.780656 0.50685,0.511381 1.31731,2.693028 1.61676,4.352146 0.11479,0.636078 0.25599,0.991844 0.31374,0.790543 0.24554,-0.85586 0.32444,-4.961792 0.11552,-6.012911 -0.22154,-1.114732 -1.74876,-3.913399 -2.60873,-4.780604 l -0.38935,-0.392614 -2.40807,2.387994 -2.40809,2.387996 1.69632,0.07248 c 0.93296,0.04012 2.13298,0.226309 2.66667,0.414341 z m 4.87534,4.882719 c 1.31935,-2.573427 2.24084,-5.207002 2.31885,-6.627218 0.0374,-0.666619 -0.0832,-2.000651 -0.26611,-2.964445 -0.33944,-1.78799 -1.26153,-4.864815 -1.54297,-5.148641 -0.10393,-0.104726 -0.87543,0.583688 -2.31002,2.060949 l -2.15408,2.218176 0.93963,1.332982 c 1.98695,2.81861 2.40944,4.57293 2.06991,8.594596 -0.10968,1.298953 -0.15297,2.361913 -0.0954,2.362184 0.0567,-5.63e-4 0.52519,-0.822607 1.04092,-1.82855 z m 6.18755,-15.853328 c 0.5337,0.188032 1.16607,0.539325 1.40524,0.780657 0.50686,0.511398 1.31729,2.693045 1.61675,4.352161 0.11479,0.636093 0.256,0.991845 0.31373,0.790543 0.24557,-0.855859 0.32445,-4.961792 0.11554,-6.01291 -0.22155,-1.114731 -1.74875,-3.913414 -2.60872,-4.780619 l -0.38933,-0.392615 -2.40809,2.387995 -2.40811,2.38801 1.69634,0.07249 c 0.93296,0.04012 2.13296,0.226308 2.66665,0.414323 z m 4.89679,4.863972 c 1.3282,-2.63884 2.22036,-5.205092 2.29745,-6.608516 0.0374,-0.666617 -0.0832,-2.000652 -0.26609,-2.964444 -0.33945,-1.78799 -1.26153,-4.864815 -1.54299,-5.148642 -0.10392,-0.104727 -0.87541,0.58369 -2.31001,2.060966 l -2.1541,2.218159 0.93966,1.333 c 1.98693,2.81861 2.40942,4.572928 2.06991,8.594579 -0.10968,1.298954 -0.14636,2.361968 -0.0817,2.362238 0.0649,-1.88e-4 0.53627,-0.83104 1.04782,-1.847341 z m 6.16617,-15.834624 c 0.53368,0.188047 1.16604,0.539339 1.40523,0.780671 0.50685,0.511399 1.3173,2.693045 1.61676,4.352147 0.11479,0.636094 0.25598,0.991844 0.31374,0.790542 0.24554,-0.855859 0.32444,-4.961776 0.11551,-6.012911 -0.22155,-1.114715 -1.74875,-3.913398 -2.60872,-4.780604 l -0.38934,-0.392614 -2.40808,2.387995 -2.40808,2.387996 1.69629,0.07248 c 0.93298,0.04013 2.133,0.226309 2.66669,0.414324 z m 4.87534,4.882719 c 1.31936,-2.573427 2.24084,-5.207002 2.31884,-6.627202 0.0374,-0.666618 -0.0832,-2.000668 -0.26609,-2.964461 -0.33946,-1.787975 -1.26153,-4.864815 -1.54297,-5.148626 -0.10393,-0.104726 -0.87542,0.583674 -2.31002,2.060934 l -2.15409,2.218191 0.93966,1.332969 c 1.98691,2.818625 2.40941,4.572928 2.06987,8.594595 -0.10967,1.298952 -0.15285,2.361932 -0.0954,2.362198 0.0567,10e-4 0.5252,-0.822621 1.04092,-1.828565 z m 5.0939,-14.650844 c 0.52715,0.206348 1.85845,0.976996 2.95845,1.712588 l 1.99997,1.337394 -0.58442,-0.92028 c -0.32138,-0.506183 -1.25763,-1.827579 -2.08044,-2.936532 -1.59464,-2.149158 -2.25154,-2.704941 -4.04661,-3.423872 l -0.85195,-0.341193 0.3357,0.63078 c 0.33518,0.62989 0.33423,0.632216 -0.66429,1.622393 -0.54998,0.545388 -1.00027,1.074887 -1.00068,1.176687 -4.6e-4,0.101777 0.66896,0.315954 1.48756,0.475958 0.81856,0.160051 1.91962,0.459761 2.44676,0.666126 z m -1.02129,-4.32881 1.8771,0.937949 1.29127,1.673909 c 0.71015,0.920666 1.81353,2.44712 2.45188,3.392147 1.0715,1.586229 1.15456,1.673094 1.08091,1.130564 -0.1955,-1.439636 -1.5148,-5.592243 -2.28264,-7.184746 -0.76372,-1.583967 -0.96814,-1.857339 -2.19178,-2.93138 -0.7423,-0.651434 -1.91407,-1.496714 -2.60406,-1.878315 -1.76228,-0.974601 -3.75743,-1.897141 -3.86729,-1.788199 -0.0685,0.06782 2.07266,5.265148 2.32745,5.649697 0.0221,0.03342 0.88475,0.482488 1.91716,0.998359 z m -2.87207,-8.270805 c 2.20502,-1.050335 3.82147,-1.341637 6.13906,-1.106344 1.05118,0.10672 1.91141,0.148738 1.91165,0.09336 0.002,-0.199374 -3.60214,-1.844983 -5.04723,-2.305175 -0.9945,-0.316687 -2.34772,-0.472112 -4.1396,-0.475465 -1.46418,-0.0028 -2.65746,0.05018 -2.65177,0.117599 0.0217,0.25732 1.92096,4.459964 2.01786,4.465149 0.0559,0.0029 0.85258,-0.352117 1.77003,-0.789147 z m -1.17353,-4.226011 c 3.3619,0.05238 4.33947,0.292529 7.52932,1.849598 l 2.43271,1.187485 -0.75846,-0.985057 c -1.336,-1.735321 -4.51194,-4.55438 -5.75464,-5.10869 -1.54235,-0.687611 -4.00441,-1.293189 -6.42573,-1.580501 l -2.06371,-0.244891 0.98197,2.270335 c 0.54009,1.248672 1.04101,2.337278 1.11316,2.419123 0.0722,0.08181 1.39755,0.168526 2.94535,0.19265 z"
     id="path911" />
  <path
     style="font-variation-settings:normal;opacity:1;vector-effect:none;fill:#ff8080;fill-opacity:1;stroke-width:0.121851;stroke-linecap:butt;stroke-linejoin:miter;stroke-miterlimit:4;stroke-dasharray:none;stroke-dashoffset:0;stroke-opacity:1;stop-color:#000000;stop-opacity:1"
     d="m 114.56506,168.52461 c -0.17622,-0.72578 -0.51766,-1.82517 -0.75875,-2.4431 -0.73797,-1.89147 -1.59921,-2.36291 -4.80134,-2.62826 l -1.71184,-0.14185 2.41788,-2.41546 2.41787,-2.41547 0.40575,0.46213 c 0.87445,0.99594 2.0665,3.10269 2.49448,4.40859 0.18329,0.55927 0.20672,1.03456 0.16936,3.43622 -0.0523,3.36018 -0.16456,3.66816 -0.63341,1.7372 z"
     id="path913" />
  <path
     style="font-variation-settings:normal;opacity:1;vector-effect:none;fill:#ff8080;fill-opacity:1;stroke-width:0.121851;stroke-linecap:butt;stroke-linejoin:miter;stroke-miterlimit:4;stroke-dasharray:none;stroke-dashoffset:0;stroke-opacity:1;stop-color:#000000;stop-opacity:1"
     d="m 115.46275,170.07415 c -0.003,-0.30158 0.0571,-1.37974 0.13276,-2.3959 0.16399,-2.20342 0.0281,-3.71266 -0.45568,-5.06141 -0.37905,-1.05675 -0.68321,-1.60998 -1.71161,-3.11323 -0.42408,-0.61989 -0.77105,-1.1991 -0.77105,-1.28713 0,-0.22631 4.07085,-4.2267 4.30114,-4.2267 0.50202,0 1.7401,4.6788 1.87013,7.06737 0.0901,1.65464 -0.10241,2.57883 -1.01516,4.87405 -0.57351,1.44217 -1.82139,4.01565 -2.15663,4.44758 -0.17916,0.23083 -0.18941,0.21474 -0.1939,-0.30463 z"
     id="path915" />
  <path
     style="font-variation-settings:normal;opacity:1;vector-effect:none;fill:#ff8080;fill-opacity:1;stroke-width:0.121851;stroke-linecap:butt;stroke-linejoin:miter;stroke-miterlimit:4;stroke-dasharray:none;stroke-dashoffset:0;stroke-opacity:1;stop-color:#000000;stop-opacity:1"
     d="m 125.65374,159.35124 c -0.0416,-0.10053 -0.24353,-0.84078 -0.44867,-1.645 -0.21525,-0.84388 -0.58981,-1.9002 -0.88574,-2.49795 -0.4591,-0.92733 -0.57654,-1.07034 -1.12203,-1.36633 -0.81905,-0.44444 -1.94424,-0.68636 -3.64383,-0.78343 -0.77715,-0.0444 -1.413,-0.114 -1.413,-0.15469 0,-0.0407 1.0571,-1.13004 2.34911,-2.42078 l 2.3491,-2.34678 0.44137,0.45926 c 0.59391,0.61799 1.48415,2.02574 2.06534,3.26595 0.61979,1.32259 0.76629,2.41814 0.6594,4.93087 -0.0827,1.94347 -0.21288,2.89252 -0.35105,2.55888 z"
     id="path917" />
  <path
     style="font-variation-settings:normal;opacity:1;vector-effect:none;fill:#ff8080;fill-opacity:1;stroke-width:0.121851;stroke-linecap:butt;stroke-linejoin:miter;stroke-miterlimit:4;stroke-dasharray:none;stroke-dashoffset:0;stroke-opacity:1;stop-color:#000000;stop-opacity:1"
     d="m 126.27188,158.71152 c 0.14594,-2.13846 0.10966,-4.81982 -0.0754,-5.5747 -0.25366,-1.03456 -0.99963,-2.5359 -1.96388,-3.95248 l -0.87708,-1.28851 0.8611,-0.95519 c 1.40204,-1.55525 3.30594,-3.32618 3.52962,-3.2831 0.25771,0.0496 0.62417,1.06207 1.26998,3.50857 0.48079,1.82138 0.49885,1.95818 0.5067,3.83831 l 0.008,1.94962 -0.46361,1.32705 c -0.68249,1.95353 -2.52647,5.80125 -2.78019,5.80125 -0.0631,0 -0.0696,-0.57689 -0.0154,-1.37082 z"
     id="path919" />
  <path
     style="font-variation-settings:normal;opacity:1;vector-effect:none;fill:#ff8080;fill-opacity:1;stroke-width:0.121851;stroke-linecap:butt;stroke-linejoin:miter;stroke-miterlimit:4;stroke-dasharray:none;stroke-dashoffset:0;stroke-opacity:1;stop-color:#000000;stop-opacity:1"
     d="m 136.37384,148.62832 c -0.0334,-0.10052 -0.19509,-0.7311 -0.35934,-1.40129 -0.43055,-1.75681 -1.00645,-3.16883 -1.4894,-3.65178 -0.70638,-0.70638 -1.93517,-1.02702 -4.73536,-1.23566 l -0.96235,-0.0717 2.39038,-2.39037 2.39038,-2.39038 0.37749,0.36145 c 0.83264,0.79726 2.29856,3.41559 2.62704,4.69227 0.168,0.65294 0.19236,1.21404 0.14307,3.29536 -0.0342,1.44484 -0.11491,2.60732 -0.1903,2.74165 -0.10695,0.19056 -0.14201,0.19979 -0.19161,0.0505 z"
     id="path921" />
  <path
     style="font-variation-settings:normal;opacity:1;vector-effect:none;fill:#ff8080;fill-opacity:1;stroke-width:0.121851;stroke-linecap:butt;stroke-linejoin:miter;stroke-miterlimit:4;stroke-dasharray:none;stroke-dashoffset:0;stroke-opacity:1;stop-color:#000000;stop-opacity:1"
     d="m 137.06782,146.11284 0.0205,-3.3943 -0.34166,-0.97481 c -0.34578,-0.98656 -1.2415,-2.57958 -2.18115,-3.87912 l -0.51409,-0.71099 2.14094,-2.12205 c 1.17752,-1.16713 2.20212,-2.12206 2.27689,-2.12206 0.215,0 0.45913,0.5753 0.92626,2.18274 0.97614,3.359 1.22007,5.76397 0.75495,7.44351 -0.38043,1.37373 -1.05019,3.05064 -1.90916,4.78005 -1.29741,2.61217 -1.1972,2.7149 -1.1735,-1.20297 z"
     id="path923" />
  <path
     style="font-variation-settings:normal;opacity:1;vector-effect:none;fill:#ff8080;fill-opacity:1;stroke-width:0.121851;stroke-linecap:butt;stroke-linejoin:miter;stroke-miterlimit:4;stroke-dasharray:none;stroke-dashoffset:0;stroke-opacity:1;stop-color:#000000;stop-opacity:1"
     d="m 146.97361,136.56165 c -0.36323,-1.55187 -0.93026,-3.0443 -1.38133,-3.63568 -0.60279,-0.7903 -2.42724,-1.34154 -4.48284,-1.35444 -0.53615,-0.003 -1.04168,-0.0486 -1.12341,-0.10053 -0.0999,-0.0635 0.63186,-0.87193 2.23156,-2.46562 l 2.38014,-2.37121 0.37161,0.42648 c 0.61616,0.70714 1.43439,2.02569 2.00643,3.23327 0.42966,0.90702 0.56637,1.36045 0.66729,2.21325 0.17774,1.50194 -0.01,5.39824 -0.25951,5.39824 -0.0525,0 -0.23695,-0.60469 -0.40994,-1.34376 z"
     id="path925" />
  <path
     style="font-variation-settings:normal;opacity:1;vector-effect:none;fill:#ff8080;fill-opacity:1;stroke-width:0.121851;stroke-linecap:butt;stroke-linejoin:miter;stroke-miterlimit:4;stroke-dasharray:none;stroke-dashoffset:0;stroke-opacity:1;stop-color:#000000;stop-opacity:1"
     d="m 147.95604,137.1743 c 0.0544,-0.83772 0.0935,-2.2908 0.0869,-3.22905 -0.0183,-2.58836 -0.39405,-3.70602 -2.07813,-6.18096 -0.49235,-0.72358 -0.89519,-1.35816 -0.89519,-1.41019 0,-0.14911 4.20392,-4.28935 4.35532,-4.28935 0.17786,0 0.56271,1.04066 1.08148,2.92443 1.11434,4.04642 1.06294,5.74151 -0.27711,9.13884 -0.58127,1.47365 -1.88042,4.07578 -2.19009,4.38665 -0.16155,0.16217 -0.17092,0.0111 -0.0832,-1.34037 z"
     id="path927" />
  <path
     style="font-variation-settings:normal;opacity:1;vector-effect:none;fill:#ff8080;fill-opacity:1;stroke-width:0.121851;stroke-linecap:butt;stroke-linejoin:miter;stroke-miterlimit:4;stroke-dasharray:none;stroke-dashoffset:0;stroke-opacity:1;stop-color:#000000;stop-opacity:1"
     d="m 158.19819,126.97988 c -0.0324,-0.0561 -0.15481,-0.54067 -0.2721,-1.07682 -0.26406,-1.20704 -0.8426,-2.88409 -1.22115,-3.53982 -0.55697,-0.96476 -2.01261,-1.48576 -4.47658,-1.60222 -0.85448,-0.0404 -1.55409,-0.10628 -1.55468,-0.14642 -6e-4,-0.0401 1.08235,-1.12671 2.40656,-2.41459 l 2.40765,-2.3416 0.4874,0.52675 c 0.61448,0.66408 1.52122,2.16919 2.10707,3.49755 l 0.45181,1.02445 v 2.94888 c 0,2.04057 -0.0427,2.99153 -0.13856,3.08736 -0.0762,0.0762 -0.16505,0.0926 -0.19742,0.0365 z"
     id="path929" />
  <path
     style="font-variation-settings:normal;opacity:1;vector-effect:none;fill:#ff8080;fill-opacity:1;stroke-width:0.121851;stroke-linecap:butt;stroke-linejoin:miter;stroke-miterlimit:4;stroke-dasharray:none;stroke-dashoffset:0;stroke-opacity:1;stop-color:#000000;stop-opacity:1"
     d="m 158.91993,125.72029 c 0.20436,-4.74458 -0.0683,-5.89295 -2.10477,-8.86548 l -0.88218,-1.28765 1.48337,-1.57601 c 1.63526,-1.73739 2.86943,-2.83656 3.01592,-2.68602 0.20314,0.20874 0.63675,1.50697 1.08913,3.26082 0.50646,1.96354 0.72975,3.32184 0.72838,4.43087 -0.002,1.46992 -0.91037,4.20416 -2.30679,6.9421 -1.15851,2.27148 -1.13057,2.27745 -1.02306,-0.21863 z"
     id="path931" />
  <path
     style="font-variation-settings:normal;opacity:1;vector-effect:none;fill:#ff8080;fill-opacity:1;stroke-width:0.121851;stroke-linecap:butt;stroke-linejoin:miter;stroke-miterlimit:4;stroke-dasharray:none;stroke-dashoffset:0;stroke-opacity:1;stop-color:#000000;stop-opacity:1"
     d="m 168.83204,115.02784 c -0.40903,-1.78457 -1.06567,-3.40987 -1.58907,-3.93327 -0.66532,-0.66532 -2.62796,-1.20165 -4.44401,-1.2144 -1.05321,-0.007 -1.06118,-0.11029 -0.0913,-1.17878 0.47638,-0.52479 1.49183,-1.57512 2.25656,-2.33407 l 1.39043,-1.3799 0.5567,0.61919 c 0.619,0.68847 1.46943,2.07885 2.03651,3.32952 0.51928,1.14524 0.65812,2.3065 0.56357,4.71379 -0.1174,2.9892 -0.24895,3.256 -0.67941,1.37792 z"
     id="path933" />
  <path
     style="font-variation-settings:normal;opacity:1;vector-effect:none;fill:#ff8080;fill-opacity:1;stroke-width:0.121851;stroke-linecap:butt;stroke-linejoin:miter;stroke-miterlimit:4;stroke-dasharray:none;stroke-dashoffset:0;stroke-opacity:1;stop-color:#000000;stop-opacity:1"
     d="m 169.77278,115.57617 c 0.0515,-0.75396 0.0897,-2.19333 0.0849,-3.1986 -0.0127,-2.69598 -0.3516,-3.72155 -2.07352,-6.27524 l -0.91442,-1.35613 0.72272,-0.81518 c 0.92109,-1.03895 3.51568,-3.5558 3.66562,-3.5558 0.1441,0 0.49599,0.93785 0.9631,2.5668 1.13316,3.95169 1.18846,5.70667 0.26478,8.4028 -0.60628,1.76965 -2.45191,5.60217 -2.69784,5.60217 -0.0631,0 -0.0695,-0.57689 -0.0154,-1.37082 z"
     id="path935" />
  <path
     style="font-variation-settings:normal;opacity:1;vector-effect:none;fill:#ff8080;fill-opacity:1;stroke-width:0.121851;stroke-linecap:butt;stroke-linejoin:miter;stroke-miterlimit:4;stroke-dasharray:none;stroke-dashoffset:0;stroke-opacity:1;stop-color:#000000;stop-opacity:1"
     d="m 180.36288,105.37112 c -0.0405,-0.10052 -0.24026,-0.83504 -0.44394,-1.63226 -0.20368,-0.79722 -0.58216,-1.90153 -0.84107,-2.45402 -0.40708,-0.8687 -0.54697,-1.04921 -1.0345,-1.334922 -0.85568,-0.501459 -1.55807,-0.669684 -3.42484,-0.82025 -0.93825,-0.07568 -1.72933,-0.155955 -1.75796,-0.178398 -0.0754,-0.05915 0.41284,-0.554939 2.71753,-2.759315 l 2.05623,-1.966733 0.50265,0.558757 c 0.65754,0.730943 1.60829,2.344867 2.14524,3.641623 l 0.42888,1.035735 -0.0192,2.680733 c -0.0178,2.48265 -0.14132,3.69497 -0.32899,3.22905 z"
     id="path937" />
  <path
     style="font-variation-settings:normal;opacity:1;vector-effect:none;fill:#ff8080;fill-opacity:1;stroke-width:0.121851;stroke-linecap:butt;stroke-linejoin:miter;stroke-miterlimit:4;stroke-dasharray:none;stroke-dashoffset:0;stroke-opacity:1;stop-color:#000000;stop-opacity:1"
     d="m 180.98243,104.7425 c 0.14653,-2.14913 0.11066,-4.829548 -0.0747,-5.585791 -0.25558,-1.042392 -1.00864,-2.553571 -1.96985,-3.952902 l -0.87806,-1.278272 1.49076,-1.584399 c 1.74607,-1.855748 2.742,-2.73929 2.98334,-2.64668 0.38771,0.148778 1.56504,4.586185 1.76695,6.659674 0.1494,1.534278 -0.0478,2.699243 -0.80393,4.74801 -0.54744,1.48342 -2.2346,4.8976 -2.45681,4.97166 -0.11896,0.0397 -0.13146,-0.2489 -0.0576,-1.3313 z"
     id="path939" />
  <path
     style="font-variation-settings:normal;opacity:1;vector-effect:none;fill:#ff8080;fill-opacity:1;stroke-width:0.121851;stroke-linecap:butt;stroke-linejoin:miter;stroke-miterlimit:4;stroke-dasharray:none;stroke-dashoffset:0;stroke-opacity:1;stop-color:#000000;stop-opacity:1"
     d="m 191.20809,94.447239 c -0.037,-0.124029 -0.15342,-0.609338 -0.25863,-1.078465 -0.39502,-1.761471 -1.11117,-3.536923 -1.60737,-3.984937 -0.69168,-0.624523 -2.10325,-0.984132 -4.47427,-1.13986 l -1.20473,-0.07913 2.36115,-2.363477 c 1.29863,-1.299913 2.42585,-2.363477 2.50493,-2.363477 0.34585,0 2.30807,3.06728 2.83,4.423773 0.16191,0.420818 0.19669,1.04336 0.19669,3.521007 0,2.106839 -0.0421,3.051844 -0.14021,3.149936 -0.10568,0.105622 -0.15679,0.0846 -0.20756,-0.08537 z"
     id="path941" />
  <path
     style="font-variation-settings:normal;opacity:1;vector-effect:none;fill:#ff8080;fill-opacity:1;stroke-width:0.121851;stroke-linecap:butt;stroke-linejoin:miter;stroke-miterlimit:4;stroke-dasharray:none;stroke-dashoffset:0;stroke-opacity:1;stop-color:#000000;stop-opacity:1"
     d="m 191.93902,93.612477 c 0.27945,-4.899503 -0.087,-6.439888 -2.25875,-9.49574 l -0.74067,-1.042175 1.93799,-1.985792 c 1.8032,-1.847664 2.46979,-2.419018 2.63245,-2.256352 0.1336,0.133593 0.80272,2.243393 1.147,3.616576 0.90912,3.626032 0.80675,5.256153 -0.53681,8.548406 -0.5621,1.377358 -1.91482,4.083844 -2.15966,4.320994 -0.0865,0.08376 -0.0932,-0.449582 -0.0215,-1.705917 z"
     id="path943" />
  <path
     style="font-variation-settings:normal;opacity:1;vector-effect:none;fill:#ff8080;fill-opacity:1;stroke-width:0.121851;stroke-linecap:butt;stroke-linejoin:miter;stroke-miterlimit:4;stroke-dasharray:none;stroke-dashoffset:0;stroke-opacity:1;stop-color:#000000;stop-opacity:1"
     d="m 201.80632,83.833912 c -0.0343,-0.117282 -0.17151,-0.682234 -0.30486,-1.255449 -0.28251,-1.214386 -0.7572,-2.525243 -1.16871,-3.227437 -0.56262,-0.960034 -1.97654,-1.455808 -4.55278,-1.596373 l -1.5029,-0.082 2.41294,-2.415204 2.41294,-2.415203 0.34865,0.332386 c 0.54039,0.515184 1.36864,1.82757 2.06829,3.277251 l 0.63703,1.31993 0.0412,2.254248 c 0.0227,1.239837 0.004,2.651788 -0.0409,3.13767 -0.079,0.84971 -0.21977,1.118573 -0.35098,0.670182 z"
     id="path945" />
  <path
     style="font-variation-settings:normal;opacity:1;vector-effect:none;fill:#ff8080;fill-opacity:1;stroke-width:0.121851;stroke-linecap:butt;stroke-linejoin:miter;stroke-miterlimit:4;stroke-dasharray:none;stroke-dashoffset:0;stroke-opacity:1;stop-color:#000000;stop-opacity:1"
     d="m 202.53904,83.129261 c 0.15282,-2.47026 0.10747,-4.365917 -0.12818,-5.357449 -0.27602,-1.161444 -0.97735,-2.563752 -2.01105,-4.021092 l -0.86429,-1.218513 2.18776,-2.17398 c 1.20328,-1.195689 2.24191,-2.140518 2.30809,-2.099619 0.30509,0.188555 1.35715,3.741593 1.6623,5.613963 0.45986,2.821596 0.005,4.822849 -2.02458,8.916764 -1.20713,2.434371 -1.26062,2.450461 -1.13005,0.339926 z"
     id="path947" />
  <path
     style="font-variation-settings:normal;opacity:1;vector-effect:none;fill:#ff8080;fill-opacity:1;stroke-width:0.121851;stroke-linecap:butt;stroke-linejoin:miter;stroke-miterlimit:4;stroke-dasharray:none;stroke-dashoffset:0;stroke-opacity:1;stop-color:#000000;stop-opacity:1"
     d="m 212.89085,71.741 c -0.3247,-1.337259 -0.80388,-2.660417 -1.24267,-3.431349 -0.16028,-0.281611 -0.47694,-0.530184 -1.02336,-0.803338 -0.94596,-0.472872 -1.67714,-0.624046 -3.50246,-0.724146 -0.75395,-0.04135 -1.37083,-0.108439 -1.37083,-0.149095 0,-0.04066 1.06033,-1.1332 2.35628,-2.427874 l 2.35628,-2.353953 0.53769,0.601199 c 0.69617,0.778396 1.63958,2.374469 2.1767,3.682572 l 0.42528,1.035735 -0.005,2.3761 c -0.005,2.372565 -0.0982,3.533687 -0.28433,3.533687 -0.0542,0 -0.24493,-0.602792 -0.42382,-1.339538 z"
     id="path949" />
  <path
     style="font-variation-settings:normal;opacity:1;vector-effect:none;fill:#ff8080;fill-opacity:1;stroke-width:0.121851;stroke-linecap:butt;stroke-linejoin:miter;stroke-miterlimit:4;stroke-dasharray:none;stroke-dashoffset:0;stroke-opacity:1;stop-color:#000000;stop-opacity:1"
     d="m 213.88014,72.379893 c 0.053,-0.787464 0.0933,-2.226832 0.0896,-3.198596 -0.006,-1.481899 -0.0517,-1.913535 -0.28562,-2.676433 -0.36795,-1.200285 -0.83876,-2.115228 -1.86705,-3.628299 l -0.84808,-1.247905 0.36357,-0.458013 c 0.19997,-0.251907 1.16671,-1.244295 2.14832,-2.205306 1.4742,-1.443272 1.81548,-1.721783 1.96141,-1.600674 0.21424,0.177808 0.79361,1.953497 1.31102,4.018149 0.34108,1.360987 0.38223,1.717726 0.38653,3.35091 l 0.005,1.827769 -0.54122,1.584067 c -0.55109,1.61294 -2.48249,5.666084 -2.7,5.666084 -0.077,0 -0.0853,-0.510753 -0.0233,-1.431753 z"
     id="path951" />
  <path
     style="font-variation-settings:normal;opacity:1;vector-effect:none;fill:#ff8080;fill-opacity:1;stroke-width:0.121851;stroke-linecap:butt;stroke-linejoin:miter;stroke-miterlimit:4;stroke-dasharray:none;stroke-dashoffset:0;stroke-opacity:1;stop-color:#000000;stop-opacity:1"
     d="m 224.22695,61.900684 c -0.0343,-0.117282 -0.17151,-0.682234 -0.30486,-1.255449 -0.28483,-1.22437 -0.75784,-2.526353 -1.17876,-3.24459 -0.22941,-0.391466 -0.47907,-0.59955 -1.06067,-0.884058 -0.93499,-0.457376 -1.68278,-0.605592 -3.54298,-0.702242 l -1.44198,-0.07492 2.41294,-2.415204 2.41294,-2.415205 0.34865,0.332387 c 0.54039,0.515184 1.36865,1.82757 2.0683,3.277251 l 0.63702,1.31993 0.0408,2.376099 c 0.0224,1.306855 0.004,2.718807 -0.0402,3.13767 -0.0791,0.744666 -0.22646,0.974667 -0.35122,0.548331 z"
     id="path953" />
  <path
     style="font-variation-settings:normal;opacity:1;vector-effect:none;fill:#ff8080;fill-opacity:1;stroke-width:0.121851;stroke-linecap:butt;stroke-linejoin:miter;stroke-miterlimit:4;stroke-dasharray:none;stroke-dashoffset:0;stroke-opacity:1;stop-color:#000000;stop-opacity:1"
     d="m 224.96109,61.169576 c 0.30027,-4.843448 -0.013,-6.248426 -2.06143,-9.245203 l -0.92643,-1.355334 2.17985,-2.158628 c 1.19891,-1.187244 2.23371,-2.125336 2.29954,-2.084648 0.30452,0.188199 1.35688,3.743345 1.66169,5.61358 0.37867,2.323468 0.1947,3.664478 -0.87689,6.391704 -0.63525,1.616745 -2.08716,4.513984 -2.26212,4.513984 -0.0755,0 -0.0806,-0.60391 -0.0142,-1.675455 z"
     id="path955" />
  <path
     style="font-variation-settings:normal;opacity:1;vector-effect:none;fill:#ff8080;fill-opacity:1;stroke-width:0.121851;stroke-linecap:butt;stroke-linejoin:miter;stroke-miterlimit:4;stroke-dasharray:none;stroke-dashoffset:0;stroke-opacity:1;stop-color:#000000;stop-opacity:1"
     d="m 235.33005,51.066538 c -0.0324,-0.0561 -0.15482,-0.54067 -0.27211,-1.076815 -0.26668,-1.219049 -0.84372,-2.886111 -1.2312,-3.556972 -0.22664,-0.39238 -0.47119,-0.596892 -1.05562,-0.882779 -0.93499,-0.457375 -1.68277,-0.605591 -3.54298,-0.702241 l -1.44197,-0.07492 2.41294,-2.415204 2.41294,-2.415205 0.34643,0.331907 c 0.4288,0.410814 1.37468,1.875991 1.9502,3.020871 0.79036,1.572281 0.85307,1.961194 0.79747,4.946003 -0.0318,1.70534 -0.0976,2.707672 -0.18339,2.793501 -0.0736,0.07362 -0.16035,0.08796 -0.19271,0.03185 z"
     id="path957" />
  <path
     style="font-variation-settings:normal;opacity:1;vector-effect:none;fill:#ff8080;fill-opacity:1;stroke-width:0.121851;stroke-linecap:butt;stroke-linejoin:miter;stroke-miterlimit:4;stroke-dasharray:none;stroke-dashoffset:0;stroke-opacity:1;stop-color:#000000;stop-opacity:1"
     d="m 236.05612,49.989723 c 0.23755,-4.759734 -0.0656,-6.070472 -2.0851,-9.014761 l -0.91782,-1.338132 1.55011,-1.576082 c 0.85256,-0.866846 1.84691,-1.848691 2.20966,-2.181878 0.62252,-0.571792 0.66889,-0.593008 0.82611,-0.377994 0.0916,0.125291 0.30562,0.667467 0.47556,1.204835 0.78743,2.489875 1.26654,4.888147 1.26627,6.338489 -2.8e-4,1.518787 -0.80362,3.991651 -2.19696,6.762746 -1.26098,2.507857 -1.24373,2.505062 -1.12783,0.182777 z"
     id="path959" />
  <path
     style="font-variation-settings:normal;opacity:1;vector-effect:none;fill:#ff8080;fill-opacity:1;stroke-width:0.121851;stroke-linecap:butt;stroke-linejoin:miter;stroke-miterlimit:4;stroke-dasharray:none;stroke-dashoffset:0;stroke-opacity:1;stop-color:#000000;stop-opacity:1"
     d="m 245.5969,37.547637 c -2.38303,-1.626961 -3.33362,-2.087322 -5.35436,-2.59305 -1.01435,-0.253861 -1.90117,-0.518464 -1.97071,-0.588006 -0.0873,-0.08735 0.15895,-0.431609 0.79673,-1.113593 0.50775,-0.542935 0.92318,-1.072819 0.92318,-1.177521 0,-0.104701 -0.11078,-0.407514 -0.24618,-0.672917 -0.15502,-0.303875 -0.19408,-0.482551 -0.10549,-0.482551 0.0774,0 0.65346,0.242896 1.28016,0.53977 1.39148,0.659147 2.13957,1.335721 3.51249,3.176694 1.08357,1.452973 2.50454,3.518488 2.50454,3.640589 0,0.156254 -0.21246,0.04063 -1.34036,-0.729415 z"
     id="path961" />
  <path
     style="font-variation-settings:normal;opacity:1;vector-effect:none;fill:#ff8080;fill-opacity:1;stroke-width:0.121851;stroke-linecap:butt;stroke-linejoin:miter;stroke-miterlimit:4;stroke-dasharray:none;stroke-dashoffset:0;stroke-opacity:1;stop-color:#000000;stop-opacity:1"
     d="m 246.62972,37.037965 c -0.59306,-0.851699 -1.64776,-2.301742 -2.34378,-3.222318 l -1.2655,-1.673774 -1.93147,-0.98539 -1.93146,-0.985391 -0.49363,-1.125559 c -0.54061,-1.232676 -1.84027,-4.443065 -1.84027,-4.54579 0,-0.146804 0.75374,0.146293 2.19054,0.8518 3.0884,1.516492 5.29642,3.32544 6.21558,5.092198 1.06658,2.0501 2.91327,7.873934 2.56501,8.089172 -0.0477,0.02948 -0.57195,-0.643249 -1.16502,-1.494948 z"
     id="path963" />
  <path
     style="font-variation-settings:normal;opacity:1;vector-effect:none;fill:#ff8080;fill-opacity:1;stroke-width:0.121851;stroke-linecap:butt;stroke-linejoin:miter;stroke-miterlimit:4;stroke-dasharray:none;stroke-dashoffset:0;stroke-opacity:1;stop-color:#000000;stop-opacity:1"
     d="m 235.87672,22.542725 c -0.8726,-1.880215 -1.36829,-3.050625 -1.36829,-3.230814 0,-0.40589 4.65431,-0.342697 6.3073,0.08564 1.16325,0.301428 4.80544,1.882733 5.3295,2.313875 0.22801,0.187586 0.15742,0.194322 -1.09666,0.104648 -3.10455,-0.221993 -4.40925,-0.01101 -6.88614,1.113528 -0.82295,0.373628 -1.56256,0.679323 -1.64357,0.679323 -0.081,0 -0.36998,-0.479789 -0.64214,-1.066198 z"
     id="path965" />
  <path
     style="font-variation-settings:normal;opacity:1;vector-effect:none;fill:#ff8080;fill-opacity:1;stroke-width:0.121851;stroke-linecap:butt;stroke-linejoin:miter;stroke-miterlimit:4;stroke-dasharray:none;stroke-dashoffset:0;stroke-opacity:1;stop-color:#000000;stop-opacity:1"
     d="m 245.65782,21.019417 c -1.77983,-0.898038 -3.78505,-1.736238 -4.69562,-1.96281 -0.99303,-0.247092 -1.67782,-0.312771 -4.47828,-0.429519 -1.67637,-0.06988 -2.2694,-0.135958 -2.39393,-0.266722 -0.17328,-0.18196 -2.01858,-4.318886 -2.01858,-4.525407 0,-0.124192 0.22999,-0.104733 2.68073,0.226805 1.52688,0.206559 4.18764,0.845136 5.21883,1.25251 1.21182,0.478729 2.95909,1.829155 4.86288,3.758407 0.97289,0.985906 2.17394,2.437323 2.08581,2.520614 -0.0238,0.02252 -0.59165,-0.235729 -1.26184,-0.573878 z"
     id="path967" />
  <path
     style="fill:#000000;fill-rule:evenodd"
     d="m 91.245407,156.69611 c 0.360528,0.62826 1.019929,1.25653 1.658616,1.88479 l -0.538511,0.0862 c -0.387704,-0.70188 -0.934256,-1.26477 -1.550914,-1.76632 z"
     id="path983"
     sodipodi:nodetypes="ccccc" />
  <path
     style="font-variation-settings:normal;opacity:1;vector-effect:none;fill:#ffccaa;fill-opacity:1;stroke-width:0.121851;stroke-linecap:butt;stroke-linejoin:miter;stroke-miterlimit:4;stroke-dasharray:none;stroke-dashoffset:0;stroke-opacity:1;stop-color:#000000;stop-opacity:1"
     d="m 74.176277,153.76125 c -0.405547,-0.1521 -2.648484,-2.14823 -7.282572,-6.48119 -1.218291,-1.13913 -1.343153,-1.29442 -1.22471,-1.52314 0.148024,-0.28585 3.514179,-3.72746 3.645738,-3.72746 0.04637,0 1.954265,1.92457 4.239769,4.27682 4.083458,4.20271 4.155462,4.28544 4.155462,4.77465 0,0.98667 -0.778487,2.03712 -1.880728,2.53776 -0.477038,0.21667 -1.272448,0.28527 -1.652959,0.14256 z"
     id="path985" />
  <path
     style="font-variation-settings:normal;opacity:1;vector-effect:none;fill:#ffccaa;fill-opacity:1;stroke-width:0.121851;stroke-linecap:butt;stroke-linejoin:miter;stroke-miterlimit:4;stroke-dasharray:none;stroke-dashoffset:0;stroke-opacity:1;stop-color:#000000;stop-opacity:1"
     d="m 81.913833,145.51812 c -0.335091,-0.15749 -0.900233,-0.50651 -1.25587,-0.7756 -0.628307,-0.47539 -4.041658,-3.60763 -6.335014,-5.81329 l -1.133015,-1.08968 2.221285,-2.22373 2.221286,-2.22372 1.46947,1.36379 c 0.808209,0.75008 2.459718,2.35078 3.67002,3.55711 2.633589,2.62494 2.920427,3.06232 2.916789,4.44757 -0.0027,1.01172 -0.182717,1.48115 -0.8337,2.17354 -0.840933,0.89442 -1.853178,1.09541 -2.941251,0.58401 z"
     id="path987" />
  <path
     style="font-variation-settings:normal;opacity:1;vector-effect:none;fill:#ffccaa;fill-opacity:1;stroke-width:0.121851;stroke-linecap:butt;stroke-linejoin:miter;stroke-miterlimit:4;stroke-dasharray:none;stroke-dashoffset:0;stroke-opacity:1;stop-color:#000000;stop-opacity:1"
     d="m 89.956016,136.86813 c -0.775247,-0.36252 -2.258526,-1.70008 -5.516887,-4.97489 l -2.592457,-2.60555 2.105052,-2.10287 2.105052,-2.10286 3.657258,3.69361 c 3.897221,3.93595 4.689554,4.90187 4.689554,5.71691 0,1.98476 -2.466313,3.30213 -4.447572,2.37565 z"
     id="path989" />
  <path
     style="font-variation-settings:normal;opacity:1;vector-effect:none;fill:#ffccaa;fill-opacity:1;stroke-width:0.243703;stroke-linecap:butt;stroke-linejoin:miter;stroke-miterlimit:4;stroke-dasharray:none;stroke-dashoffset:0;stroke-opacity:1;stop-color:#000000;stop-opacity:1"
     d="m 56.964142,187.90398 c -2.942739,-3.03891 -5.317408,-5.58865 -5.277041,-5.66608 0.04037,-0.0774 4.25665,-4.34108 9.36952,-9.47478 l 9.296127,-9.33399 5.618187,5.63019 5.618184,5.63019 -9.439167,9.36989 c -5.191543,5.15344 -9.528315,9.36989 -9.637272,9.36989 -0.108957,0 -2.605799,-2.48639 -5.548538,-5.52531 z"
     id="path995" />
  <path
     style="font-variation-settings:normal;opacity:1;vector-effect:none;fill:#ffccaa;fill-opacity:1;stroke-width:0.243703;stroke-linecap:butt;stroke-linejoin:miter;stroke-miterlimit:4;stroke-dasharray:none;stroke-dashoffset:0;stroke-opacity:1;stop-color:#000000;stop-opacity:1"
     d="m 10.303765,238.87744 -4.988409,-4.99286 1.2779568,-1.27796 1.2779568,-1.27795 4.9986374,4.99863 4.998638,4.99864 -1.288186,1.27218 -1.288186,1.27219 z"
     id="path997" />
  <path
     style="font-variation-settings:normal;opacity:1;vector-effect:none;fill:#ff9955;fill-opacity:1;stroke-width:0.0209979;stroke-linecap:butt;stroke-linejoin:miter;stroke-miterlimit:4;stroke-dasharray:none;stroke-dashoffset:0;stroke-opacity:1;stop-color:#000000;stop-opacity:1"
     d="m 50.205541,181.01136 -1.056015,-0.97948 2.930712,-2.88642 2.930712,-2.88642 -1.720181,-1.76632 c -0.9461,-0.97148 -2.111736,-2.19282 -2.590302,-2.7141 -0.478565,-0.52128 -1.661519,-1.77137 -2.628786,-2.77798 -0.967266,-1.00661 -1.745632,-1.86312 -1.729701,-1.90334 0.01593,-0.0402 2.931176,-2.95412 6.478322,-6.47532 l 6.449355,-6.4022 4.132566,4.12668 c 2.272911,2.26967 4.709266,4.73012 5.414121,5.46766 l 1.281554,1.34097 -9.418172,9.41788 -9.418171,9.41788 z"
     id="path1001" />
  <path
     style="font-variation-settings:normal;opacity:1;vector-effect:none;fill:#ff9955;fill-opacity:1;stroke-width:0.0209979;stroke-linecap:butt;stroke-linejoin:miter;stroke-miterlimit:4;stroke-dasharray:none;stroke-dashoffset:0;stroke-opacity:1;stop-color:#000000;stop-opacity:1"
     d="m 66.102012,197.018 -3.274151,-3.23062 2.541775,-2.52582 c 3.610834,-3.58817 12.647952,-12.5491 14.713372,-14.58933 l 1.743846,-1.72259 2.752995,2.75199 2.752994,2.75199 0.187068,-0.16779 c 0.2235,-0.20046 3.308832,-3.48098 4.533561,-4.82037 l 0.866501,-0.94762 -1.956885,-1.9934 c -3.196981,-3.25664 -4.26869,-4.6515 -4.832126,-6.28916 -0.495394,-1.43989 -0.350075,-3.57092 0.356999,-5.23524 0.687388,-1.61798 1.815952,-2.72874 3.768132,-3.7087 l 0.631894,-0.31719 0.299782,0.22865 c 0.340176,0.25947 1.073982,1.16027 1.018413,1.25018 -0.02014,0.0326 -0.155759,0.0831 -0.301371,0.11221 -0.827962,0.16559 -2.367431,1.2262 -3.05926,2.10767 -1.633107,2.08074 -1.558712,4.29726 0.23247,6.92626 1.394456,2.0467 2.839441,2.91188 4.863297,2.91188 1.560552,0 2.742331,-0.56603 4.769087,-2.2842 0.47456,-0.40231 0.897748,-0.73147 0.940416,-0.73147 0.04267,0 0.143053,0.0999 0.223078,0.22206 0.336591,0.51371 2.022991,2.35478 6.332391,6.9132 1.4476,1.53125 2.632,2.81728 2.632,2.85786 0,0.0406 -2.11312,2.13651 -4.69582,4.65764 -2.5827,2.52113 -5.085296,4.96807 -5.561323,5.43763 l -0.865503,0.85375 -4.002642,-1.03677 c -2.201452,-0.57022 -5.16848,-1.33587 -6.593395,-1.70144 l -2.590752,-0.66468 -7.576347,7.60702 -7.576345,7.60701 z"
     id="path1003" />
  <path
     style="font-variation-settings:normal;opacity:1;vector-effect:none;fill:#ff9955;fill-opacity:1;stroke-width:0.0419958;stroke-linecap:butt;stroke-linejoin:miter;stroke-miterlimit:4;stroke-dasharray:none;stroke-dashoffset:0;stroke-opacity:1;stop-color:#000000;stop-opacity:1"
     d="m 85.351126,178.00025 c -0.989474,-1.01797 -7.414874,-7.51089 -14.278667,-14.42871 l -12.479625,-12.57786 2.903926,-2.79378 2.903927,-2.79378 2.574718,2.44573 c 6.045173,5.74231 6.776254,6.323 7.960493,6.323 1.485253,0 3.075248,-1.55868 3.09305,-3.03213 0.0087,-0.7207 -0.02734,-0.76353 -4.600882,-5.46655 -2.535313,-2.60708 -4.60966,-4.81718 -4.60966,-4.91133 0,-0.21378 3.085746,-3.13306 3.311713,-3.13306 0.207103,0 1.086592,0.78172 4.604511,4.09267 4.157308,3.91271 5.463219,4.73905 6.884564,4.35632 1.452916,-0.39123 2.434375,-1.73155 2.427799,-3.3155 -0.0069,-1.66067 -0.345474,-2.12016 -4.697087,-6.37454 l -4.001476,-3.91207 1.720004,-1.73153 c 0.946002,-0.95235 1.792562,-1.73154 1.881245,-1.73154 0.08868,0 1.834913,1.65175 3.880516,3.67054 4.462429,4.40396 5.065335,4.86187 6.390294,4.85349 1.159155,-0.007 2.422551,-0.57448 2.959467,-1.32851 0.51243,-0.71964 0.622564,-2.12079 0.228129,-2.90232 -0.163285,-0.32353 -2.196171,-2.49829 -4.517523,-4.83279 -3.287959,-3.30659 -4.197966,-4.31601 -4.118025,-4.56788 0.05644,-0.17782 0.952032,-1.17009 1.990206,-2.20505 l 1.887589,-1.88174 8.927375,8.80529 c 4.910053,4.8429 9.341953,9.22859 9.848653,9.74596 l 0.92128,0.94069 -1.73383,1.95951 c -0.95595,1.08039 -1.73475,2.11414 -1.73588,2.30417 -0.001,0.18955 0.52338,3.77344 1.16557,7.9642 l 1.16762,7.61955 -1.99226,1.98707 -1.99226,1.98708 -3.18583,-3.19959 c -1.752198,-1.75977 -3.496001,-3.36362 -3.875113,-3.56411 -0.511805,-0.27067 -1.099561,-0.38379 -2.2826,-0.43932 -1.365536,-0.0641 -1.796636,-0.011 -3.015665,0.37117 -4.494433,1.40915 -6.898311,4.74641 -6.325934,8.7822 0.322736,2.27559 1.394354,3.90318 5.020282,7.6249 l 1.856952,1.90601 -0.867503,0.85117 c -0.477127,0.46815 -1.579845,1.64602 -2.450485,2.61749 -0.87064,0.97148 -1.665681,1.76632 -1.766759,1.76632 -0.101078,0 -0.993346,-0.83288 -1.982819,-1.85084 z"
     id="path1005" />
  <path
     style="font-variation-settings:normal;opacity:1;vector-effect:none;fill:#ffccaa;fill-opacity:1;stroke-width:0.0209979;stroke-linecap:butt;stroke-linejoin:miter;stroke-miterlimit:4;stroke-dasharray:none;stroke-dashoffset:0;stroke-opacity:1;stop-color:#000000;stop-opacity:1"
     d="m 92.780383,170.08545 c -1.427581,-0.29989 -3.044362,-1.85365 -4.076558,-3.91766 -0.665503,-1.33075 -0.782351,-2.58402 -0.363628,-3.90011 0.195836,-0.61554 0.299046,-0.78989 0.760923,-1.28541 1.134715,-1.21737 2.313407,-1.97404 3.406039,-2.18653 1.172184,-0.22795 2.997104,0.0966 4.276543,0.76055 0.725338,0.37641 1.702225,1.31185 2.090545,2.00184 0.496528,0.88227 0.642645,1.47536 0.690144,2.8013 0.06917,1.93098 -0.230119,2.73246 -1.431307,3.83291 -1.276831,1.16976 -2.816373,1.87858 -4.215976,1.9411 -0.411948,0.0184 -0.923474,-0.003 -1.136725,-0.048 z"
     id="path1007" />
  <path
     style="font-variation-settings:normal;opacity:1;vector-effect:none;fill:#ff8080;fill-opacity:1;stroke-width:0.00742385;stroke-linecap:butt;stroke-linejoin:miter;stroke-miterlimit:4;stroke-dasharray:none;stroke-dashoffset:0;stroke-opacity:1;stop-color:#000000;stop-opacity:1"
     d="m 105.85009,173.68404 c -0.69223,-0.74533 -1.94654,-2.07908 -2.78734,-2.96388 -0.84081,-0.88479 -1.52874,-1.62914 -1.52874,-1.65409 0,-0.0962 4.71364,-4.68999 4.76238,-4.64125 0.17924,0.17925 0.93096,2.65459 1.14924,3.78434 0.22917,1.18617 0.15439,3.99854 -0.16422,6.17597 -0.0527,0.36022 -0.11313,0.65475 -0.13427,0.65451 -0.0211,-2.5e-4 -0.60481,-0.61026 -1.29705,-1.3556 z"
     id="path1009" />
  <path
     style="font-variation-settings:normal;opacity:1;vector-effect:none;fill:#ffdd55;fill-opacity:1;stroke-width:0.00742386;stroke-linecap:butt;stroke-linejoin:miter;stroke-miterlimit:4;stroke-dasharray:none;stroke-dashoffset:0;stroke-opacity:1;stop-color:#000000;stop-opacity:1"
     d="m 18.706847,230.64605 -4.829731,-4.90379 16.356908,-16.32807 c 8.9963,-8.98044 18.034969,-18.03069 20.085933,-20.11168 l 3.729023,-3.7836 5.005379,5.00647 5.005381,5.00647 -7.345347,7.31506 c -16.040769,15.97464 -32.894335,32.64503 -33.032211,32.67319 -0.08008,0.0163 -2.318982,-2.17697 -4.975335,-4.87405 z"
     id="path1011" />
  <path
     style="font-variation-settings:normal;opacity:1;vector-effect:none;fill:#ffdd55;fill-opacity:1;stroke-width:0.00742386;stroke-linecap:butt;stroke-linejoin:miter;stroke-miterlimit:4;stroke-dasharray:none;stroke-dashoffset:0;stroke-opacity:1;stop-color:#000000;stop-opacity:1"
     d="m 31.039594,251.3893 c -1.421257,-0.29989 -3.066835,-1.05008 -4.760049,-2.17 -0.781659,-0.51701 -1.705812,-1.36983 -3.782035,-3.4901 -1.511188,-1.54325 -5.350094,-5.45818 -8.530902,-8.69985 -6.3274879,-6.44855 -9.0123472,-9.22251 -9.0123472,-9.31146 0,-0.0318 0.5894555,-0.5706 1.3099011,-1.19743 0.7204457,-0.62683 1.9234965,-1.73572 2.6734465,-2.46421 0.7499499,-0.72848 1.4136976,-1.30514 1.4749936,-1.28147 0.0613,0.0237 4.265322,4.32003 9.342278,9.54745 5.076955,5.22742 9.62235,9.90131 10.100875,10.38644 0.798709,0.80971 0.95997,0.91359 1.96671,1.26689 2.004573,0.70346 3.252937,0.60807 5.189517,-0.39653 1.172562,-0.60827 2.044559,-1.33047 4.654292,-3.85474 5.551242,-5.36945 26.436335,-26.14183 28.085574,-27.934 1.024201,-1.11296 1.384706,-1.60425 1.752077,-2.38767 0.569559,-1.21458 0.829928,-2.28092 0.832286,-3.40861 0.003,-1.4586 -0.494402,-2.67576 -1.886678,-4.6163 l -0.639806,-0.89176 2.155849,-2.15335 2.155847,-2.15336 0.845669,0.89047 c 1.546362,1.62827 2.904844,4.05807 3.529458,6.31284 0.433756,1.56579 0.53872,3.78676 0.248051,5.24855 -0.391434,1.96854 -1.617728,4.03606 -4.075122,6.87064 -2.890493,3.33416 -26.772191,27.22034 -31.132161,31.13801 -3.1341,2.81616 -4.739327,3.77292 -7.57191,4.51307 -1.106976,0.28926 -4.014238,0.42883 -4.925814,0.23648 z"
     id="path1013" />
  <path
     style="font-variation-settings:normal;opacity:1;vector-effect:none;fill:#ffdd55;fill-opacity:1;stroke-width:0.0104989;stroke-linecap:butt;stroke-linejoin:miter;stroke-miterlimit:4;stroke-dasharray:none;stroke-dashoffset:0;stroke-opacity:1;stop-color:#000000;stop-opacity:1"
     d="m 100.53852,167.98095 -0.625263,-0.81888 0.03498,-1.82551 c 0.052,-2.71381 -0.242037,-3.54155 -1.812711,-5.10299 -1.06437,-1.05811 -1.378697,-1.26722 -2.279833,-1.5167 -0.574886,-0.15915 -1.508675,-0.28936 -2.075086,-0.28936 -0.992205,0 -1.057522,-0.0282 -1.787347,-0.77185 -0.416629,-0.42451 -0.720328,-0.80902 -0.674887,-0.85446 0.239518,-0.23952 2.279277,-0.6139 3.344729,-0.6139 1.940426,0 2.537533,0.38981 6.383348,4.16723 l 3.29702,3.23839 2.10584,-2.14777 2.10583,-2.14777 -0.12173,-0.82266 c -0.0669,-0.45247 -0.60091,-4.00204 -1.18658,-7.88794 l -1.06485,-7.06527 1.21849,-1.36164 c 0.67016,-0.7489 1.50011,-1.68093 1.84432,-2.07118 l 0.62584,-0.70955 -4.79406,-4.92115 -4.79405,-4.92115 8.64863,-8.51789 C 134.98264,95.361287 213.86938,17.633273 218.73381,12.829138 c 3.12767,-3.0889112 6.36196,-6.2702901 7.18731,-7.0697307 l 1.50063,-1.4535282 0.53805,1.195298 c 0.29593,0.6574138 3.05871,6.9308349 6.13951,13.9409359 l 5.60146,12.745639 -2.55257,2.505009 c -1.40391,1.377758 -15.078,14.872631 -30.38687,29.988613 -51.07025,50.426776 -54.99183,54.294996 -69.53296,68.586866 -7.95557,7.81919 -18.93008,18.63681 -24.38782,24.03916 -5.45773,5.40235 -10.31772,10.1982 -10.79996,10.65745 l -0.87681,0.83499 z"
     id="path1017" />
</svg>
