<?xml version="1.0" encoding="UTF-8" standalone="no"?>
<svg
   xmlns:dc="http://purl.org/dc/elements/1.1/"
   xmlns:cc="http://creativecommons.org/ns#"
   xmlns:rdf="http://www.w3.org/1999/02/22-rdf-syntax-ns#"
   xmlns:svg="http://www.w3.org/2000/svg"
   xmlns="http://www.w3.org/2000/svg"
   xmlns:sodipodi="http://sodipodi.sourceforge.net/DTD/sodipodi-0.dtd"
   xmlns:inkscape="http://www.inkscape.org/namespaces/inkscape"
   cursor="default"
   viewBox="0 0 256 256"
   version="1.1"
   id="svg50"
   sodipodi:docname="emperorsword.svg"
   inkscape:version="1.0.2-2 (e86c870879, 2021-01-15)">
  <metadata
     id="metadata56">
    <rdf:RDF>
      <cc:Work
         rdf:about="">
        <dc:format>image/svg+xml</dc:format>
        <dc:type
           rdf:resource="http://purl.org/dc/dcmitype/StillImage" />
      </cc:Work>
    </rdf:RDF>
  </metadata>
  <defs
     id="defs54" />
  <sodipodi:namedview
     pagecolor="#ffffff"
     bordercolor="#666666"
     borderopacity="1"
     objecttolerance="10"
     gridtolerance="10"
     guidetolerance="10"
     inkscape:pageopacity="0"
     inkscape:pageshadow="2"
     inkscape:window-width="1920"
     inkscape:window-height="1017"
     id="namedview52"
     showgrid="false"
     inkscape:zoom="4.3254159"
     inkscape:cx="156.91765"
     inkscape:cy="93.061104"
     inkscape:window-x="-8"
     inkscape:window-y="-8"
     inkscape:window-maximized="1"
     inkscape:current-layer="svg50"
     inkscape:document-rotation="0" />
  <path
     style="fill:#000000;stroke-width:0.220751"
     d="m 14.457046,250.94144 c -2.576864,-2.33838 -3.730767,-3.66796 -4.120644,-4.74789 -0.3570625,-0.9891 -0.3520635,-1.19098 0.04143,-1.69545 0.649134,-0.83099 1.430441,-1.2138 2.101781,-1.02979 0.575757,0.15781 0.83531,-0.0997 13.180249,-13.07039 l 12.592946,-13.23138 -0.623468,-1.4136 c -0.577653,-1.30971 -0.590691,-1.45883 -0.177569,-2.02946 0.333038,-0.46002 0.410889,-0.82041 0.307582,-1.42405 -0.112058,-0.65483 -0.01199,-1.04495 0.527763,-2.05646 0.366315,-0.68656 0.629224,-1.26678 0.584226,-1.2894 -0.04495,-0.0225 -1.239818,-1.10856 -2.655165,-2.41323 -1.415349,-1.30468 -2.766311,-2.54124 -3.002149,-2.74794 -0.235835,-0.20667 -1.62188,-1.43063 -3.080101,-2.71988 -1.458236,-1.28925 -2.85316,-2.49556 -3.099834,-2.68068 -0.246674,-0.18509 -0.760909,-0.59979 -1.142749,-0.92152 -0.666763,-0.56184 -11.224734,-5.77784 -12.370044,-6.11125 -0.296353,-0.0863 -1.660809,-0.64889 -3.032124,-1.25023 l -2.4932915,-1.09336 0.4401931,-0.31005 c 0.7936289,-0.559 4.3891034,-1.65864 5.4372164,-1.66291 1.390872,-0.005 5.2223,0.77601 9.155574,1.86796 3.962654,1.10011 4.622451,1.33736 7.004132,2.51851 l 1.873404,0.92905 -0.540793,-1.36834 c -0.29744,-0.7526 -0.852326,-2.00435 -1.233086,-2.78163 -0.614956,-1.25547 -0.669703,-1.59947 -0.490143,-3.08009 0.256651,-2.11641 0.396014,-2.41092 0.924969,-1.95471 1.568116,1.35237 3.308404,2.65923 3.436389,2.58052 0.08401,-0.0516 0.519046,-1.12233 0.966803,-2.37926 0.447755,-1.25691 0.914718,-2.32293 1.037664,-2.36891 0.122945,-0.0459 0.800302,0.93376 1.505179,2.1772 0.704893,1.24343 1.318787,2.27951 1.364244,2.30234 0.04544,0.0229 0.422592,0.67765 0.838093,1.4551 0.415503,0.77745 0.827817,1.38959 0.916237,1.36032 0.08839,-0.0293 0.72218,-1.03761 1.408319,-2.24073 0.686155,-1.20312 1.354296,-2.22831 1.484747,-2.27817 0.130504,-0.0499 0.648088,0.73903 1.150289,1.75307 0.720243,1.45433 0.955588,2.29425 1.114293,3.97685 0.110626,1.17323 0.244829,2.07393 0.298181,2.00159 0.05342,-0.0723 0.14695,-0.18984 0.207909,-0.2611 0.06101,-0.0713 0.42577,-0.57674 0.810597,-1.12327 0.620809,-0.88167 1.087653,-1.18549 4.140501,-2.69462 1.89243,-0.9355 3.464539,-1.62916 3.493574,-1.54144 0.0434,0.13133 -0.08561,2.31371 -0.272018,4.60012 -0.03404,0.41708 0.834805,2.26013 1.137045,2.41204 0.289144,0.14543 1.115211,-2.13504 1.629479,-4.4983 0.674489,-3.09957 0.687025,-4.39102 0.05234,-5.40076 -1.550129,-2.46634 -1.32513,-3.38029 1.056179,-4.29 1.22139,-0.46662 6.510132,-4.35384 9.083098,-6.6761 1.063732,-0.9601 2.185985,-1.95254 2.493896,-2.20543 0.30791,-0.2529 1.399761,-1.3315 2.426343,-2.39693 1.526256,-1.584 2.018022,-1.96736 2.69767,-2.10299 0.787273,-0.15714 4.376324,-3.83164 67.958208,-69.576372 36.91985,-38.175774 68.52983,-70.873409 70.24439,-72.661416 1.71454,-1.788008 3.38795,-3.465265 3.71866,-3.727237 0.3307,-0.261969 0.63066,-0.534737 0.66656,-0.606146 0.27764,-0.552378 7.73318,-6.38922 10.38598,-8.131061 2.39,-1.5692787 5.80017,-2.9275513 9.61008,-3.8276923 5.06362,-1.1963135 12.4125,-2.4069001 13.19376,-2.1733879 0.80225,0.2397913 -1.50725,13.7279782 -3.1271,18.2631332 -1.19255,3.338795 -3.77553,7.432722 -7.91775,12.549278 -2.38773,2.949377 -0.97496,1.47239 -38.30287,40.043947 C 93.212187,187.35653 95.033325,185.46618 94.969394,186.03877 c -0.07,0.62678 -10e-4,0.5442 -2.083498,2.50393 -4.250156,4.00013 -8.901679,9.62691 -10.863426,13.1411 -1.114847,1.99708 -1.427586,2.41969 -1.983588,2.68044 -0.636415,0.29848 -0.712457,0.27796 -2.121072,-0.57161 -1.302864,-0.78579 -1.591196,-0.88105 -2.663753,-0.87999 -1.41842,10e-4 -5.502667,0.84929 -6.998032,1.45277 l -1.049899,0.42374 1.014682,0.65787 c 0.974086,0.63155 1.108408,0.65212 3.358396,0.51448 1.289044,-0.0789 2.474919,-0.0774 2.635283,0.003 0.249905,0.12552 0.03267,0.62566 -1.519252,3.4983 -1.752726,3.24421 -1.847915,3.37869 -2.966846,4.19132 -0.635824,0.46177 -1.103103,0.86619 -1.038409,0.8987 0.06473,0.0325 1.061352,0.15109 2.214798,0.26363 1.998755,0.19487 2.178726,0.25231 3.834926,1.22373 1.335131,0.78307 1.683901,1.06825 1.505325,1.23086 -0.127787,0.11637 -1.181862,0.74657 -2.342277,1.40037 -1.160431,0.65376 -2.089177,1.25118 -2.063898,1.32757 0.04003,0.12096 6.029975,3.84277 6.955846,4.32203 0.633818,0.32796 0.112971,0.65791 -2.322564,1.47111 l -2.42195,0.80864 1.53607,1.93691 c 0.844826,1.0653 1.497577,2.01349 1.450538,2.10705 -0.04702,0.0936 -0.908225,0.25623 -1.913758,0.36145 l -1.828243,0.19128 -2.844639,-1.24456 -2.844641,-1.24458 0.656596,1.30188 c 1.626458,3.22483 2.823817,7.10228 3.95948,12.82193 0.783353,3.94532 0.719428,4.86968 -0.56097,8.11229 -0.470403,1.1913 -0.691546,1.56719 -0.869398,1.47779 -0.131252,-0.0659 -1.056919,-2.06579 -2.057175,-4.44408 -5.223516,-12.42 -4.961398,-11.98624 -12.285672,-20.33172 l -4.544872,-5.17859 -0.918535,0.72949 c -1.189933,0.94499 -2.01924,1.20684 -2.714907,0.85716 -0.405982,-0.20407 -0.690028,-0.17688 -1.032569,0.0986 -0.440436,0.35435 -0.569977,0.33146 -1.908458,-0.33726 l -1.435975,-0.71732 -12.511383,12.94979 -12.511384,12.94981 0.01512,1.02677 c 0.01763,1.19493 -0.392087,1.79613 -1.466237,2.15168 -0.816394,0.27023 -1.718049,-0.10565 -2.962792,-1.23526 z m 2.823233,0.77324 c 1.283671,-0.42489 1.456293,-2.33271 0.325452,-3.59673 -0.660978,-0.73883 -4.269593,-3.82126 -4.765195,-4.07038 -0.709642,-0.35669 -1.675872,0.0992 -2.017224,0.95173 -0.37197,0.92899 0.08778,1.75626 2.088359,3.75738 2.723774,2.72461 3.495339,3.24703 4.368608,2.958 z M 31.05558,235.6778 c 6.757485,-6.97987 12.270448,-12.71871 12.250997,-12.753 -0.01946,-0.0343 -0.601307,-0.48474 -1.293057,-1.00094 -1.213431,-0.90544 -2.81995,-2.80681 -3.215399,-3.8055 -0.105114,-0.26554 -0.238071,-0.46073 -0.295344,-0.43374 -0.05736,0.027 -5.611559,5.84176 -12.342833,12.92173 -6.731275,7.07994 -12.321988,12.9545 -12.42382,13.05455 -0.111713,0.10982 0.518728,0.78962 1.59028,1.71476 0.976484,0.84308 2.064859,1.84181 2.418608,2.21942 0.353733,0.37764 0.728903,0.70613 0.833708,0.72996 0.104706,0.0239 5.719378,-5.66739 12.47686,-12.64724 z m 40.739349,13.04919 c 0.540814,-2.03133 0.429018,-3.40364 -0.655936,-8.05248 -1.117404,-4.78788 -2.162999,-7.93861 -3.515564,-10.5935 -0.598523,-1.17479 -1.041165,-2.22963 -0.983637,-2.3441 0.06765,-0.13467 1.240084,0.3345 3.326196,1.33127 l 3.221594,1.53932 1.532304,-0.15462 1.532304,-0.15465 -1.463731,-1.80753 c -0.805052,-0.99413 -1.47335,-1.91675 -1.485095,-2.05026 -0.01138,-0.13347 1.075327,-0.60894 2.415758,-1.05648 l 2.437138,-0.81372 -3.653088,-2.16089 c -2.538607,-1.50162 -3.644208,-2.25001 -3.623974,-2.45307 0.01584,-0.16073 1.052288,-0.87169 2.302813,-1.57992 l 2.273698,-1.28769 -1.346606,-0.74926 c -1.189929,-0.6621 -1.63056,-0.77578 -3.787068,-0.97701 -3.441509,-0.32117 -3.442263,-0.32208 -1.473351,-1.77998 l 1.639712,-1.21412 1.606263,-2.96051 1.606261,-2.96049 -2.305458,0.13836 -2.305458,0.13838 -1.119992,2.06398 c -1.09588,2.01955 -1.147301,2.07895 -2.387611,2.75908 l -1.267619,0.69507 -0.396574,2.14175 c -0.218123,1.17796 -0.332829,2.6185 -0.254921,3.20121 0.158626,1.1863 0.170084,1.18076 -1.536838,0.74534 -1.094917,-0.27929 -2.100094,0.19885 -2.584722,1.2295 -0.571031,1.21435 -0.468293,3.61587 0.3402,7.95259 0.735983,3.94788 0.782551,4.08605 1.765991,5.24026 2.17181,2.5489 3.534468,5.19914 7.371142,14.33616 1.96894,4.68906 1.964308,4.68634 2.775869,1.63801 z M 46.895184,223.76306 c 0.09544,-0.18981 -0.394511,-0.67042 -1.613358,-1.58278 -3.18298,-2.38261 -4.6659,-4.02286 -6.214516,-6.87394 -0.575401,-1.05933 -0.912909,-1.47814 -1.132606,-1.40542 -0.640924,0.21213 0.976711,3.86461 2.618939,5.91334 1.106292,1.38013 1.979568,2.03792 4.292344,3.23312 1.506766,0.77861 1.941239,0.93044 2.049197,0.71568 z m 12.320921,2.91435 c -0.904823,-5.09924 -0.733217,-7.36059 0.633901,-8.35276 0.780019,-0.56608 1.949117,-0.81178 2.513321,-0.52819 0.667014,0.33528 0.827662,0.16611 0.744055,-0.78345 -0.0423,-0.48026 0.118128,-1.85181 0.356556,-3.04787 0.40703,-2.0422 0.400268,-2.24278 -0.111043,-3.29315 l -0.544492,-1.11851 -0.656124,0.98032 c -0.774062,1.1565 -0.869904,1.77423 -0.518434,3.34078 l 0.260847,1.1625 -1.307373,-0.10508 c -2.244325,-0.18033 -2.480416,-0.0656 -3.586876,1.74368 -0.532008,0.86993 -1.047349,1.89584 -1.145167,2.27977 -0.35556,1.3951 1.899331,9.15668 3.078249,10.59576 0.421084,0.51398 0.806901,0.92285 0.857395,0.90859 0.05037,-0.0135 -0.208179,-1.71635 -0.574782,-3.78237 z m -9.960425,-3.09797 c 0.640455,-0.13033 2.255672,-1.24855 2.169719,-1.50208 -0.08789,-0.2591 -6.099658,-6.99373 -7.414313,-8.30577 -1.485802,-1.48285 -4.380015,-4.18937 -4.59595,-4.2979 -0.07093,-0.0357 -0.39167,0.45756 -0.712611,1.09606 -0.543379,1.08108 -0.557716,1.23637 -0.208518,2.25802 1.155141,3.37889 3.518827,6.32472 7.329586,9.13474 1.961826,1.44662 2.657738,1.77451 3.432038,1.61693 z m 7.164184,0.90676 c -1.444213,-4.91567 -1.441798,-4.76125 -0.115661,-7.39958 1.290597,-2.56764 1.551151,-2.75761 3.70007,-2.69802 l 1.203255,0.0339 -0.230853,-1.11984 c -0.218049,-1.05781 -0.185448,-1.20921 0.588967,-2.7341 l 0.819805,-1.6143 -0.49756,-0.641 c -0.914297,-1.17788 -2.741561,-1.81772 -3.777327,-1.3227 -2.180076,1.04195 -2.199955,1.06157 -3.564963,3.51868 l -1.297454,2.33552 -1.742748,-0.8048 c -1.155722,-0.53372 -1.917613,-1.00854 -2.261864,-1.40968 -0.600453,-0.69964 -1.996711,-3.78722 -1.847167,-4.08473 0.05559,-0.11048 0.961334,-0.55887 2.012959,-0.99656 1.051625,-0.43766 2.181877,-1.02734 2.511666,-1.31037 0.834039,-0.71582 1.645891,-2.42096 1.648462,-3.46227 0.0022,-0.8916 -0.847012,-2.63651 -1.723266,-3.54089 -0.479072,-0.49444 -0.510572,-0.4932 -0.773828,0.0306 -0.170611,0.33954 -0.691523,0.7209 -1.377688,1.00864 -1.01271,0.42469 -1.608337,0.44177 -4.065734,0.11654 -0.201735,-0.0267 -0.249774,0.25283 -0.160462,0.93362 0.166815,1.27136 -0.613937,2.92454 -1.695336,3.58973 -1.761843,1.08375 -5.401494,0.92033 -9.645557,-0.43309 -2.112991,-0.67381 -2.92989,-0.8436 -2.133962,-0.44354 0.33297,0.16729 1.193215,0.93974 4.806664,4.31575 0.760292,0.71033 1.523792,1.40329 1.696653,1.53993 0.172865,0.13657 1.414455,1.26702 2.759071,2.51195 1.344632,1.24493 2.863979,2.63337 3.376351,3.08543 0.512369,0.45208 0.986464,0.9474 1.053533,1.10074 0.06701,0.15331 2.615886,3.04521 5.66405,6.42637 3.048181,3.38119 5.563096,6.21095 5.588726,6.2884 0.02561,0.0774 0.126886,0.18116 0.225136,0.23052 0.09824,0.0493 -0.236594,-1.32327 -0.743985,-3.05023 z m -2.598397,-14.01144 c 0.504729,-1.00415 1.139357,-2.06604 1.410268,-2.35976 0.734438,-0.79622 3.101188,-1.88152 3.976235,-1.82334 1.71212,0.11377 3.429701,1.65213 4.574897,4.09733 0.238841,0.50996 0.531165,0.97592 0.649619,1.03545 0.1185,0.0597 0.643968,-0.13735 1.16779,-0.43762 0.85262,-0.48867 1.067895,-0.75586 2.054405,-2.54986 l 1.101963,-2.00403 -1.074598,-0.54012 c -1.426576,-0.71705 -3.113279,-2.41304 -3.51027,-3.52958 -0.55784,-1.5689 0.111309,-3.65087 1.479015,-4.60447 0.420248,-0.29294 1.477071,-0.9525 2.348458,-1.46572 2.027533,-1.19413 2.117593,-1.27117 2.071164,-1.77205 -0.110069,-1.18805 -4.066519,-5.03768 -4.895444,-4.7633 -0.194952,0.0646 -0.953356,1.22083 -1.829368,2.78918 -1.384145,2.47805 -1.565776,2.71874 -2.422079,3.20952 -0.968521,0.55511 -2.234773,0.77071 -3.222091,0.54866 -0.65609,-0.1475 -2.19436,-2.10452 -3.124441,-3.97481 l -0.535175,-1.0762 -0.938992,0.39276 c -2.31676,0.96904 -2.839039,1.32881 -3.321011,2.2877 l -0.467497,0.9301 1.283119,0.76513 c 2.379835,1.41911 3.756939,3.89489 3.360119,6.04089 -0.396433,2.14396 -1.66562,3.36067 -4.696985,4.50282 l -1.298722,0.48933 0.604345,1.62792 c 0.685119,1.84551 1.143294,2.3504 3.015172,3.32284 l 1.322432,0.68694 0.917688,-1.82574 z m -19.996244,-8.63444 c 4.248856,1.38081 6.876697,1.63441 9.052084,0.87349 0.847243,-0.29633 1.131354,-0.53417 1.647872,-1.37948 0.58685,-0.96044 0.605258,-1.08995 0.30796,-2.16848 -0.173871,-0.63087 -0.274729,-1.22944 -0.224105,-1.33017 0.05069,-0.10076 0.845298,-0.0465 1.765941,0.12084 1.836694,0.33351 3.053991,0.15736 3.887815,-0.56279 0.696215,-0.60127 0.742487,-1.11864 0.127631,-1.42768 -0.765314,-0.38467 -1.431212,-0.38396 -3.865177,0.004 -1.249889,0.19928 -2.837446,0.32326 -3.527885,0.27546 l -1.255331,-0.087 0.258549,0.84113 c 0.209777,0.68239 0.167633,1.02206 -0.22335,1.7999 -0.622463,1.23843 -1.366354,1.61422 -3.582615,1.80997 -1.926196,0.17015 -3.217059,0.004 -6.888498,-0.88517 l -2.532873,-0.6136 0.833564,0.79934 c 0.458456,0.43966 1.117291,0.89846 1.464083,1.01957 0.346775,0.12112 1.586218,0.53078 2.75429,0.9104 z m -16.225352,-9.26576 c 3.861899,1.68684 7.893724,3.8247 9.140498,4.84671 1.10661,0.90711 1.915648,1.19461 5.79948,2.06084 3.065763,0.68375 5.764026,0.82011 7.300699,0.36889 0.808554,-0.23742 0.992347,-0.4012 1.432171,-1.27621 0.467411,-0.92992 0.470405,-1.06216 0.04081,-1.79522 -0.255156,-0.43525 -0.43216,-0.85728 -0.393346,-0.93786 0.03874,-0.0806 0.875284,-0.12826 1.858798,-0.10593 0.983519,0.0228 2.718213,-0.11431 3.854869,-0.30359 l 2.066632,-0.34414 0.533659,-1.13818 c 0.617058,-1.31603 0.885708,-1.53536 3.019716,-2.46533 0.866396,-0.37754 1.602952,-0.74152 1.636777,-0.80883 0.03391,-0.0674 0.115662,-1.0247 0.181886,-2.12754 l 0.120523,-2.00518 -2.95654,1.48033 c -3.01092,1.50755 -2.964348,1.46994 -4.688992,3.7874 -0.183991,0.24723 -0.3969,0.55715 -0.473113,0.6887 -0.367538,0.63434 -0.642647,-0.24073 -0.789199,-2.51029 -0.134421,-2.0816 -0.287544,-2.73121 -0.924961,-3.92387 -0.902514,-1.68872 -0.794754,-1.74419 -2.432124,1.25166 -0.5657,1.03506 -1.109817,1.9088 -1.209163,1.94167 -0.09941,0.0329 -0.823297,-1.02135 -1.608776,-2.34275 -0.785496,-1.3214 -1.791645,-2.99734 -2.235923,-3.7243 l -0.80778,-1.32173 -0.391138,1.08972 c -0.215133,0.59932 -0.585877,1.64117 -0.823852,2.31516 -0.330771,0.93678 -0.506223,1.21811 -0.744867,1.19431 -0.171677,-0.0178 -1.04271,-0.62436 -1.93559,-1.34946 -0.89288,-0.72508 -1.676955,-1.30062 -1.742367,-1.27898 -0.0655,0.0217 -0.186423,0.66231 -0.268883,1.42366 -0.133598,1.23345 -0.03672,1.64006 0.895876,3.73203 0.575193,1.29123 1.233981,2.74019 1.463983,3.21987 0.229986,0.4797 0.399184,0.95389 0.37601,1.05374 -0.02318,0.0999 -1.297192,-0.43165 -2.831127,-1.18114 -1.783455,-0.8714 -3.748808,-1.65758 -5.451264,-2.1806 -3.566012,-1.09556 -8.810932,-2.26617 -10.316416,-2.30246 -1.144208,-0.0271 -3.03731,0.41018 -4.4757325,1.03498 l -0.629073,0.27323 2.6317185,1.14357 c 1.44745,0.62894 4.04676,1.76166 5.776269,2.51711 z m 49.589776,11.65009 c 0.690016,-0.4944 2.142575,-0.93578 4.948436,-1.50361 3.244135,-0.65654 3.906631,-0.61303 5.578669,0.36631 2.03089,1.18951 2.115156,1.15447 3.615528,-1.5028 2.057527,-3.64404 7.133927,-9.74476 11.452121,-13.76296 l 1.674137,-1.55783 0.121658,-9.76942 c 0.06707,-5.3732 0.108694,-9.98702 0.09271,-10.25291 -0.02689,-0.44945 -0.732492,-0.48088 -10.023723,-0.44622 l -9.994735,0.0372 -2.287064,2.28808 c -2.998876,3.00025 -5.016444,4.8017 -8.394243,7.49515 -1.592458,1.26984 -4.474828,3.13634 -5.418419,3.50876 -1.148126,0.45313 -1.841949,1.12686 -1.78312,1.73147 0.02148,0.2216 0.258788,0.74056 0.527195,1.15327 1.295967,1.99272 1.331935,2.61453 0.390969,6.75566 -0.546306,2.40423 -0.874369,3.42602 -1.301519,4.05373 -0.535721,0.78722 -0.54475,0.87264 -0.145866,1.37807 1.323616,1.67701 1.321488,1.67551 2.38329,1.68221 0.549356,0.003 1.424993,-0.22599 1.945866,-0.50989 0.894105,-0.48731 1.030337,-0.66634 2.435728,-3.20079 1.910491,-3.44533 1.914518,-3.4473 4.030837,-1.97123 1.772006,1.23593 3.598042,3.47276 3.622793,4.4378 0.0146,0.56989 -0.165713,0.7248 -2.528635,2.17254 -2.846862,1.74427 -3.321714,2.22656 -3.600988,3.65736 -0.235928,1.20863 0.02993,2.00279 1.049593,3.13603 0.99674,1.10774 0.955787,1.09183 1.608714,0.62398 z m 4.208041,-6.32245 c -0.01015,-0.1172 1.23791,-0.83884 2.773837,-1.60363 1.535942,-0.76477 2.808248,-1.4216 2.827354,-1.45961 0.07761,-0.1543 -2.227212,-3.9118 -3.199227,-5.21576 -1.536943,-2.06186 -3.10871,-3.39455 -7.222305,-6.12377 l -0.880095,-0.58389 -1.479337,2.94313 c -0.866662,1.72424 -1.585047,2.95247 -1.734571,2.96562 -0.378946,0.0334 -1.08383,-6.54043 -0.831722,-7.75656 0.404756,-1.95236 0.850381,-2.04281 4.714397,-0.95733 1.012139,0.28431 1.875944,0.51109 1.919576,0.50391 0.04359,-0.007 0.440989,-1.19572 0.883009,-2.6412 0.44202,-1.44549 0.90988,-2.72486 1.03965,-2.84302 0.150697,-0.13731 0.563595,-0.0502 1.143032,0.24102 0.771197,0.38764 0.917769,0.39656 0.978609,0.0594 0.03937,-0.21801 0.427436,-1.3611 0.862422,-2.54017 0.882206,-2.39131 1.454346,-3.20609 3.109506,-4.42822 1.560788,-1.15244 3.330025,-1.1934 3.968029,-0.0919 0.304223,0.52524 0.535084,0.65436 2.129802,1.19124 2.037018,0.68583 3.795836,0.79609 6.74621,0.42302 2.008082,-0.25392 2.396602,-0.14775 2.041869,0.55798 -0.427315,0.85014 -1.10901,3.81261 -1.158776,5.03572 -0.07113,1.74622 0.935902,4.70999 1.737039,5.11268 0.769417,0.38672 0.995731,1.25853 0.678218,2.6127 -0.543072,2.31611 -1.912188,3.4993 -5.133488,4.43638 l -2.208948,0.6426 0.188649,1.00329 c 0.185625,0.98735 0.179447,1.00684 -0.38863,1.22683 -0.317497,0.12295 -1.622442,0.47729 -2.899885,0.78739 -1.277443,0.31011 -2.348493,0.62219 -2.380104,0.6935 -0.03169,0.0714 0.249701,1.28228 0.625179,2.69101 0.375464,1.40875 0.650422,2.76318 0.611015,3.00987 -0.106742,0.66791 -1.70164,1.02982 -3.859475,0.87574 -3.266978,-0.23334 -5.581702,-0.55069 -5.600837,-0.76809 z m 6.080041,0.30662 c 1.433974,0.0711 2.589809,-0.13572 2.770923,-0.49605 0.176046,-0.35021 -0.01844,-1.27098 -0.8557,-4.05116 -0.329344,-1.09361 -0.556353,-1.99833 -0.504442,-2.01047 0.814512,-0.19081 5.288288,-1.32417 5.590778,-1.41633 0.35213,-0.1073 0.385623,-0.26242 0.232467,-1.07694 -0.0983,-0.52337 -0.141214,-1.02656 -0.09519,-1.11821 0.04598,-0.0918 0.903345,-0.36305 1.905067,-0.6031 3.089741,-0.74045 4.727135,-1.88677 5.307277,-3.71558 0.43917,-1.38431 0.256605,-2.37534 -0.508379,-2.75983 -0.532634,-0.26774 -0.745488,-0.63139 -1.177989,-2.01275 -0.864657,-2.7616 -0.857403,-3.85234 0.04639,-6.95639 0.224339,-0.77053 0.398341,-1.4439 0.386675,-1.49642 -0.01191,-0.0524 -1.161021,-7.2e-4 -2.554122,0.1151 -1.393083,0.11576 -3.093511,0.10933 -3.778717,-0.0143 -1.660321,-0.29976 -4.356908,-1.39893 -4.391334,-1.78994 -0.03582,-0.40594 -0.674038,-0.69022 -1.527644,-0.68041 -0.47495,0.005 -1.148975,0.33534 -1.999382,0.97858 l -1.282887,0.97034 -1.017526,2.38463 c -1.801251,4.22135 -1.543927,3.83945 -2.364009,3.50854 -1.230621,-0.49652 -1.174896,-0.55276 -1.941362,1.95884 -1.114381,3.6516 -0.861617,3.44111 -3.268511,2.72183 -1.129945,-0.3377 -2.43709,-0.64078 -2.904735,-0.67356 -0.836079,-0.0587 -0.856753,-0.0428 -1.239085,0.94299 -0.313751,0.80899 -0.325385,1.56638 -0.06018,3.9223 0.180689,1.60586 0.370796,2.94095 0.422414,2.96689 0.05166,0.0258 0.68271,-1.18557 1.402437,-2.69227 0.758383,-1.58763 1.400889,-2.72834 1.528113,-2.71304 0.60224,0.0724 5.161664,3.28618 6.659436,4.69393 0.501654,0.47151 1.370733,1.47517 1.931277,2.23038 1.210682,1.6311 3.401152,5.15557 3.43367,5.52475 0.01277,0.14309 -0.999658,0.76964 -2.249477,1.39218 -1.249786,0.6225 -2.394412,1.20898 -2.543593,1.30327 -0.260666,0.16476 2.472944,0.55431 4.647433,0.66227 z m -1.671095,-8.3711 c -0.304044,-0.61169 -1.022648,-1.74293 -1.596903,-2.51392 -0.86052,-1.1553 -1.375873,-1.6135 -2.931069,-2.60597 -1.037816,-0.66232 -2.017871,-1.23906 -2.177863,-1.28165 -0.226617,-0.0603 -0.08065,-0.49581 0.660451,-1.97022 1.084854,-2.15831 1.411421,-2.41213 2.528427,-1.96521 0.632843,0.25326 0.920673,0.19502 2.034942,-0.41158 1.999537,-1.08854 2.776668,-2.39266 1.884365,-3.16219 -0.347848,-0.30001 -0.589764,-0.3078 -1.180684,-0.0375 -0.673885,0.30753 -0.739381,0.29848 -0.702306,-0.097 0.02289,-0.23994 0.538176,-1.29163 1.145934,-2.33701 0.851756,-1.46512 1.25946,-1.98239 1.778877,-2.25696 0.662574,-0.35023 0.715682,-0.33737 3.172795,0.76755 2.928568,1.31696 3.565465,1.38972 6.002985,0.68578 1.536141,-0.44363 2.20555,-0.4794 2.031245,-0.10851 -0.50863,1.08221 -1.038935,3.3096 -0.985484,4.1392 0.03713,0.57565 0.432476,2.05073 0.878683,3.27795 1.345227,3.70005 1.230948,4.0393 -1.83357,5.44339 -2.273008,1.04144 -2.842517,1.06916 -2.362959,0.1151 0.205413,-0.40868 0.194603,-0.76074 -0.0355,-1.15812 -0.696517,-1.20248 -1.908126,-0.45017 -3.648214,2.26519 l -0.716781,1.11855 0.567401,0.66114 c 0.312085,0.36361 0.511676,0.77058 0.443534,0.90438 -0.282784,0.55523 -3.73422,2.02501 -4.169645,1.77565 -0.129708,-0.0743 -0.484603,-0.63555 -0.788631,-1.24724 z m 2.922921,0.0877 1.607283,-0.70041 -0.486595,-0.65108 -0.486612,-0.65106 0.772656,-1.48269 c 1.062905,-2.03969 2.220481,-3.16675 3.180355,-3.0965 0.614311,0.045 0.797594,0.14445 1.104425,0.59917 0.202354,0.29987 0.367088,0.79699 0.366084,1.10471 -0.0013,0.54869 0.02244,0.54878 1.254126,0.005 1.806297,-0.7971 2.382866,-1.14681 2.598645,-1.57611 0.107507,-0.21406 -0.222057,-1.67369 -0.757064,-3.35214 -1.069035,-3.35376 -1.120069,-3.92173 -0.533337,-5.93524 l 0.416721,-1.43008 -1.547966,0.46491 c -2.18296,0.65565 -2.912714,0.56072 -5.784544,-0.75242 -2.407894,-1.10104 -2.437206,-1.10804 -3.032739,-0.72508 -0.416927,0.26812 -0.833312,0.84822 -1.357849,1.8918 -0.724668,1.44169 -0.735521,1.50456 -0.25819,1.49229 0.584045,-0.0151 1.365957,0.90269 1.303455,1.5298 -0.09082,0.91164 -0.80277,1.86545 -1.878608,2.51702 -1.63363,0.9894 -2.289914,1.17611 -3.161729,0.89954 -0.74528,-0.23643 -0.815003,-0.20649 -1.357339,0.5829 -0.314443,0.45767 -0.737259,1.16149 -0.939596,1.56403 l -0.367876,0.73189 1.663855,0.99076 c 2.254709,1.34256 3.161541,2.25055 4.488851,4.49455 0.619859,1.04794 1.230351,1.96819 1.356664,2.04499 0.126325,0.0769 0.952917,-0.17557 1.836923,-0.56078 z m -2.006011,-3.36858 c -0.797034,-1.83279 -1.114069,-2.17135 -2.860925,-3.05515 -0.786443,-0.39801 -1.437159,-0.80481 -1.445913,-0.90421 -0.009,-0.0995 1.309942,-1.06416 2.930436,-2.14386 2.874835,-1.91544 2.962639,-1.99538 3.617283,-3.29287 0.626887,-1.24225 0.741801,-1.35727 1.748231,-1.74802 1.065467,-0.41366 4.845359,-1.05345 5.192578,-0.87891 0.197173,0.0991 -1.102493,4.78388 -1.602365,5.77594 -0.189688,0.37638 -0.757205,0.86497 -1.44961,1.24792 -1.016942,0.56243 -1.311434,0.8836 -2.770021,3.02085 -2.160261,3.16549 -2.469542,3.57888 -2.612547,3.49196 -0.06651,-0.0404 -0.402703,-0.72154 -0.747147,-1.51365 z m 3.092939,-2.48298 c 1.496753,-2.19341 1.795165,-2.52502 2.554248,-2.83829 0.472733,-0.19512 1.0037,-0.50252 1.179938,-0.68316 0.303346,-0.31089 1.424164,-3.58657 1.691663,-4.94402 l 0.124122,-0.62993 -1.885974,0.27829 c -1.037286,0.15304 -2.27859,0.44682 -2.758452,0.65285 -0.793058,0.34048 -0.918686,0.48742 -1.379856,1.61379 -0.504438,1.23206 -0.52305,1.2495 -3.221802,3.02088 -1.492948,0.97991 -2.737482,1.82751 -2.76566,1.88353 -0.02815,0.0561 0.308901,0.28288 0.749028,0.5041 1.308628,0.65777 2.22082,1.58479 2.858595,2.90505 0.501563,1.03824 0.647062,1.20062 0.880145,0.98219 0.153525,-0.14401 1.041859,-1.37931 1.973989,-2.74528 z m 36.173247,-21.1024 C 195.28982,80.997254 234.03074,40.970966 235.51693,39.478513 c 3.49999,-3.514703 8.53017,-10.261646 10.3842,-13.928313 1.36467,-2.698855 2.00379,-4.736074 2.99189,-9.536949 0.52756,-2.5633 1.77211,-10.5881657 1.68904,-10.8909709 -0.0152,-0.053541 -1.98433,0.2012075 -5.33513,0.6900251 -4.50595,0.6573279 -10.58299,2.2257479 -13.82174,3.5672497 -2.81384,1.1655011 -11.11729,7.3068671 -14.22041,10.5176681 -0.48618,0.503021 -1.05303,1.051953 -1.25972,1.219847 -0.65779,0.534386 -139.395483,144.06285 -139.359454,144.17173 0.06381,0.19265 7.457669,-0.006 7.758168,-0.20912 C 84.591918,164.91251 212.3772,33.134874 219.95429,25.232339 c 4.12903,-4.306376 8.32579,-7.499209 12.26384,-9.330155 2.51947,-1.171408 12.05997,-4.425129 12.29259,-4.192308 0.0959,0.09614 -0.28861,1.711804 -0.85483,3.590349 -1.39393,4.624699 -3.90933,10.099849 -6.02119,13.105966 -2.02439,2.881652 -4.78903,6.195992 -7.47847,8.965414 -1.25228,1.289528 -12.09117,12.476559 -24.08642,24.86007 -11.99525,12.383509 -38.94316,40.197715 -59.88427,61.809345 -20.94111,21.61163 -40.98805,42.30345 -44.54873,45.98184 l -6.47401,6.68794 -0.02878,3.85014 c -0.0158,2.11754 0.02072,3.83253 0.0812,3.81105 0.06058,-0.0215 9.40908,-9.65172 20.77462,-21.40053 z m 2.59526,-11.29604 c 12.61505,-13.02318 36.44806,-37.62228 52.96222,-54.664675 16.51418,-17.04239 34.18898,-35.286487 39.27731,-40.542438 5.08832,-5.255951 12.01168,-12.393775 15.38524,-15.861833 8.2472,-8.478277 10.34189,-11.004237 12.8701,-15.520084 1.56554,-2.79629 2.96927,-6.210455 4.12826,-10.040849 0.42514,-1.404995 0.76091,-2.590947 0.74619,-2.635454 -0.13207,-0.398945 -9.52365,2.989639 -12.65281,4.565258 -2.30115,1.158698 -6.68054,4.442336 -9.17403,6.878633 -2.52105,2.463223 -137.049796,141.230152 -137.01993,141.336592 0.01361,0.049 2.264029,0.0927 5.000648,0.0974 2.736639,0.004 5.03336,0.10244 5.103853,0.21694 0.07042,0.11466 0.09626,2.41309 0.05734,5.1078 -0.03882,2.69472 0.03034,4.86386 0.154147,4.82033 0.123709,-0.0434 10.546362,-10.73445 23.161422,-23.75764 z"
     id="path101" />
  <path
     style="fill:#ff9955;fill-opacity:1;stroke-width:0.119309"
     d="m 51.52587,211.60552 c -0.674397,-0.37567 -1.444816,-0.89006 -1.712041,-1.14309 -0.493539,-0.46731 -1.027999,-1.46958 -1.586075,-2.97436 l -0.300256,-0.8096 0.264704,-0.11369 c 0.145588,-0.0625 0.798235,-0.3286 1.450327,-0.59127 1.575907,-0.63479 2.348586,-1.11577 3.111789,-1.93703 2.266234,-2.43862 1.326,-6.10111 -2.14273,-8.34657 -0.586671,-0.37978 -1.123564,-0.70973 -1.193095,-0.73322 -0.189086,-0.0639 0.508161,-1.44582 0.937567,-1.85824 0.484291,-0.46513 3.558858,-1.96237 3.683746,-1.7939 0.02087,0.0281 0.349406,0.61492 0.73009,1.30393 0.827432,1.49759 1.702574,2.70899 2.378818,3.29283 l 0.495021,0.42738 1.073785,-0.0474 c 0.859035,-0.0379 1.224306,-0.11552 1.826416,-0.38814 0.946973,-0.42878 1.410827,-0.95173 2.398095,-2.70358 1.056632,-1.87494 2.001895,-3.3184 2.230548,-3.40614 0.701146,-0.26906 4.037487,2.75081 4.795695,4.34079 0.334775,0.70203 0.164179,0.89554 -1.91049,2.16715 -1.031153,0.63201 -2.11923,1.32311 -2.417948,1.53577 -1.547321,1.10156 -2.078465,3.52133 -1.122092,5.11198 0.570047,0.94811 2.015107,2.2665 3.233627,2.95017 l 1.023739,0.57439 -0.959123,1.71537 c -0.527517,0.94345 -1.108022,1.89601 -1.290011,2.11679 -0.444393,0.53913 -1.84791,1.25638 -2.121414,1.08413 -0.109343,-0.0689 -0.494097,-0.68318 -0.855008,-1.36515 -0.501174,-0.947 -0.867605,-1.45361 -1.551023,-2.14436 -1.830221,-1.84986 -3.22255,-1.96369 -5.738277,-0.46912 -1.010327,0.60022 -1.354085,1.0482 -2.495949,3.25266 -0.46736,0.90228 -0.88631,1.63916 -0.931001,1.63752 -0.04469,-0.002 -0.633036,-0.31036 -1.307434,-0.68603 z"
     id="path103" />
  <path
     style="fill:#ff9955;fill-opacity:1;stroke-width:0.119309"
     d="m 75.4805,198.08422 c -1.422032,-0.16026 -2.499219,-0.35806 -2.569539,-0.47184 -0.03569,-0.0577 0.429303,-0.35319 1.033312,-0.65654 1.516312,-0.76154 3.224367,-1.7118 3.475529,-1.93358 0.197776,-0.17464 0.185513,-0.22819 -0.222416,-0.97121 -0.696976,-1.26949 -2.510862,-4.04031 -3.323578,-5.07695 -0.413528,-0.52747 -1.147333,-1.3396 -1.630677,-1.80473 -1.266294,-1.21857 -5.0495,-3.97586 -6.222997,-4.53546 -0.429448,-0.20479 -0.448558,-0.20418 -0.620891,0.0198 -0.09779,0.12709 -0.645793,1.17063 -1.217777,2.31898 -1.110121,2.22876 -1.472745,2.89753 -1.536521,2.83376 -0.128147,-0.12815 -0.559386,-4.05862 -0.566171,-5.16029 -0.0072,-1.1759 0.02471,-1.38376 0.3072,-1.99844 l 0.315282,-0.68602 h 0.59798 c 0.328889,0 1.338517,0.19493 2.243618,0.43319 2.881328,0.75847 2.761889,0.74425 3.085927,0.36753 0.162978,-0.18947 0.484811,-0.98629 0.769596,-1.90542 0.802687,-2.59064 0.841104,-2.69749 1.071274,-2.97932 l 0.221142,-0.27078 0.754348,0.27404 0.754349,0.27404 0.238618,-0.31101 c 0.131241,-0.17105 0.757139,-1.52922 1.390885,-3.01816 l 1.152267,-2.70715 0.872035,-0.68114 c 1.422243,-1.11092 1.894136,-1.32285 2.814885,-1.26422 0.744411,0.0474 0.800114,0.0727 1.212308,0.55116 0.506538,0.58794 1.788622,1.17631 3.57415,1.64023 1.276545,0.33167 2.572016,0.37213 5.301504,0.16555 0.903635,-0.0684 1.689901,-0.0953 1.74726,-0.0599 0.05736,0.0354 -0.107956,0.85669 -0.367367,1.82498 -0.661702,2.46991 -0.724501,3.689 -0.281371,5.46224 0.50633,2.02615 0.831977,2.74415 1.43176,3.15682 0.652472,0.44891 0.826689,0.87711 0.749269,1.84161 -0.08025,0.99979 -0.525916,1.94762 -1.261739,2.68344 -0.927347,0.92735 -1.885974,1.35028 -5.193009,2.2911 l -0.935679,0.26619 0.08311,1.05003 c 0.08114,1.02515 0.07645,1.0529 -0.19776,1.17124 -0.154476,0.0667 -1.453012,0.41251 -2.885633,0.76852 -1.432621,0.35601 -2.63645,0.67898 -2.675175,0.7177 -0.03872,0.0387 0.23319,1.15732 0.604258,2.48577 0.371068,1.32845 0.707833,2.63432 0.748369,2.90194 0.08767,0.57882 -0.09099,0.81394 -0.759608,0.99963 -0.514778,0.14297 -2.784844,0.13889 -4.082323,-0.007 z m 2.528215,-7.33994 c 1.016184,-0.36492 2.065577,-0.87603 2.468473,-1.20227 0.349254,-0.28281 0.286461,-0.54592 -0.296931,-1.24419 -0.228896,-0.27397 -0.388154,-0.57115 -0.353908,-0.66039 0.155085,-0.40415 1.501129,-2.30192 2.066143,-2.91303 0.98621,-1.06667 1.702582,-1.20893 2.188256,-0.43455 0.23884,0.38081 0.245521,0.65184 0.03815,1.54782 -0.06426,0.27763 -0.03752,0.3281 0.173866,0.3281 0.676891,0 3.67028,-1.40787 4.336601,-2.03962 0.430478,-0.40814 0.45241,-0.4654 0.45241,-1.18113 0,-0.59551 -0.135078,-1.15232 -0.648475,-2.67311 -0.839206,-2.48589 -1.054914,-3.42877 -0.958065,-4.18779 0.100335,-0.78634 0.488209,-2.32609 0.778061,-3.0887 0.127497,-0.33544 0.231839,-0.62332 0.231872,-0.63972 2.39e-4,-0.11824 -0.880273,0.0279 -2.090446,0.34695 -1.618019,0.42657 -2.752724,0.48653 -3.697117,0.19534 -0.328713,-0.10135 -1.499054,-0.57232 -2.600757,-1.0466 -2.309715,-0.99431 -2.53366,-1.01166 -3.290378,-0.25495 -0.719173,0.71918 -2.399758,3.65069 -2.399758,4.186 0,0.28914 0.109102,0.29934 0.674604,0.0631 0.595204,-0.24869 0.841286,-0.22495 1.180115,0.11389 0.216568,0.21656 0.292851,0.42145 0.292851,0.78655 0,0.4473 -0.0701,0.56314 -0.745684,1.23227 -0.832163,0.82421 -2.273036,1.65038 -2.873752,1.64775 -0.207587,-9.1e-4 -0.528572,-0.06 -0.713299,-0.13124 -0.983276,-0.37938 -1.441229,0.003 -2.471391,2.06365 -0.668198,1.3366 -0.842431,1.86328 -0.616397,1.86328 0.194907,0 3.185536,1.93136 3.789166,2.44705 0.343378,0.29336 0.903679,0.91021 1.245114,1.37078 0.548328,0.73965 0.929798,1.34605 2.082813,3.31091 0.359922,0.61334 0.535785,0.63274 1.75786,0.19389 z"
     id="path105" />
  <path
     style="fill:#ff9955;fill-opacity:1;stroke-width:0.0843645"
     d="m 48.525326,223.587 c -0.651813,-0.16449 -2.001578,-1.02694 -3.599423,-2.29989 -3.204281,-2.55275 -5.204612,-5.13336 -6.344933,-8.18557 -0.353366,-0.94583 -0.382397,-1.38529 -0.133267,-2.01734 0.240043,-0.60899 0.826204,-1.59293 0.948956,-1.59293 0.120713,0 1.131777,0.91379 3.258513,2.945 2.255274,2.15399 8.816505,9.41943 8.762004,9.70243 -0.03408,0.17697 -0.910318,0.86786 -1.485588,1.17135 -0.526975,0.27801 -1.018486,0.37481 -1.406262,0.27695 z"
     id="path111" />
  <path
     style="fill:#ffe6d5;fill-opacity:1;stroke-width:0.119309"
     d="m 77.460741,186.74135 c -0.06425,-0.082 -0.323275,-0.52497 -0.575621,-0.98431 -0.614353,-1.1183 -1.578153,-2.10855 -2.640534,-2.713 -0.479646,-0.27289 -0.872084,-0.53756 -0.872084,-0.58814 0,-0.0506 1.124054,-0.84583 2.497897,-1.76722 1.373843,-0.92139 2.652712,-1.86307 2.841931,-2.09262 0.189218,-0.22956 0.470367,-0.72559 0.624776,-1.1023 0.532024,-1.29798 0.794672,-1.50337 2.457058,-1.92149 0.938812,-0.23613 3.510213,-0.65157 3.582915,-0.57887 0.07264,0.0726 -0.538305,2.29915 -0.971676,3.5412 -0.689714,1.97672 -0.753112,2.06766 -1.833077,2.62952 -1.061558,0.55229 -1.194221,0.70018 -3.210189,3.57879 -1.673123,2.38906 -1.630516,2.34428 -1.901396,1.99844 z"
     id="path113" />
  <path
     style="fill:#ffe6d5;fill-opacity:1;stroke-width:0.119309"
     d="m 59.253312,229.95683 c -0.252041,-0.29289 -0.64068,-0.89238 -0.863643,-1.3322 -0.949415,-1.87285 -2.400797,-6.8788 -2.520686,-8.69408 -0.06698,-1.01412 -0.06348,-1.03085 0.413058,-1.97592 1.072301,-2.12658 1.794636,-2.95779 2.678809,-3.08256 0.281655,-0.0397 1.03557,-0.0281 1.675367,0.0258 1.327962,0.11199 1.26238,0.1777 0.981917,-0.98383 -0.36245,-1.50108 -0.168202,-2.4428 0.791646,-3.83789 l 0.381652,-0.55471 0.417,0.82424 c 0.638396,1.26185 0.657392,1.46611 0.317123,3.40996 -0.164577,0.94018 -0.333082,2.24631 -0.374455,2.90251 -0.04137,0.65621 -0.128918,1.22812 -0.194545,1.27093 -0.06563,0.0428 -0.339394,1.3e-4 -0.608369,-0.0948 -1.198134,-0.423 -2.901945,0.45185 -3.354809,1.72258 -0.468727,1.31524 -0.370997,3.36901 0.372736,7.83296 0.229021,1.37461 0.400439,2.63434 0.380929,2.79941 -0.0342,0.28934 -0.05193,0.28099 -0.49373,-0.23241 z"
     id="path119" />
  <path
     style="fill:#ffe6d5;fill-opacity:1;stroke-width:0.119309"
     d="m 37.308902,202.81609 c -1.67837,-0.3557 -5.348861,-1.48806 -6.350913,-1.95927 -0.665003,-0.31272 -2.087916,-1.45387 -2.087916,-1.67448 0,-0.0535 0.496626,0.0308 1.103612,0.18739 2.799489,0.72201 5.069377,1.15024 6.416077,1.21043 1.348621,0.0603 2.807657,-0.0704 3.755055,-0.33623 0.689368,-0.19345 1.536535,-1.10667 1.798976,-1.93922 0.193873,-0.61504 0.19445,-0.69999 0.0092,-1.36005 -0.108649,-0.38722 -0.197322,-0.72736 -0.197051,-0.75587 2.38e-4,-0.0285 0.81903,-0.0556 1.819469,-0.0603 1.110839,-0.005 2.353126,-0.0913 3.191035,-0.22126 1.946507,-0.30194 2.929946,-0.30039 3.521567,0.006 0.605319,0.31302 0.676158,0.69421 0.227991,1.22683 -0.596682,0.70911 -1.146168,0.90255 -2.556463,0.89995 -0.689012,-0.001 -1.72253,-0.0486 -2.296707,-0.10521 -1.210472,-0.11931 -1.148282,-0.21128 -0.810325,1.19831 0.247108,1.03066 0.227437,1.22541 -0.20623,2.0419 -0.735865,1.38545 -1.743716,1.83399 -4.262889,1.89718 -1.431219,0.0359 -1.871348,-7.1e-4 -3.074534,-0.25571 z"
     id="path121" />
  <path
     style="fill:#ffe6d5;fill-opacity:1;stroke-width:0.119309"
     d="m 44.924986,223.10259 c -2.52991,-1.29883 -3.595425,-2.14327 -4.74429,-3.75993 -1.22775,-1.72767 -2.362413,-4.1312 -2.362413,-5.00425 0,-0.95423 0.409348,-0.55355 1.653548,1.61852 1.172132,2.04627 3.021459,4.05075 5.505019,5.96688 1.53803,1.18662 1.908952,1.53015 1.908952,1.76795 0,0.3275 -0.422672,0.2005 -1.960816,-0.58917 z"
     id="path123" />
  <path
     style="fill:#ffccaa;fill-opacity:1;stroke-width:0.119309"
     d="m 35.420967,200.00728 c -1.756253,-0.19807 -5.4889,-1.04417 -6.956371,-1.57683 -0.415823,-0.15094 -1.208588,-0.60118 -1.761697,-1.00053 -2.17389,-1.56959 -6.000218,-3.49357 -12.906772,-6.48987 -2.477163,-1.07468 -4.5039323,-1.99085 -4.5039323,-2.03595 0,-0.10659 1.6308893,-0.7336 2.6248083,-1.00913 0.558052,-0.1547 1.193702,-0.21467 2.26688,-0.21385 1.641203,0.001 2.798177,0.20585 6.68133,1.18158 4.074395,1.02379 5.62444,1.56379 9.246483,3.22124 2.531438,1.1584 2.684463,1.21421 2.684463,0.97904 0,-0.0948 -0.352816,-0.944 -0.784036,-1.88717 -1.948027,-4.26074 -2.050292,-4.60254 -1.843884,-6.16291 0.07568,-0.57209 0.179582,-1.08289 0.230898,-1.1351 0.05132,-0.0522 0.611949,0.31051 1.245849,0.80603 1.658806,1.29671 2.288575,1.73474 2.494059,1.73474 0.232584,0 0.45005,-0.4681 1.175427,-2.53017 0.324929,-0.92369 0.634528,-1.75761 0.687995,-1.85315 0.06936,-0.12395 0.535525,0.55592 1.627254,2.37325 1.920817,3.19747 2.917882,4.75419 3.045005,4.75419 0.146339,0 0.452898,-0.47706 1.458826,-2.27016 1.02308,-1.82369 1.291386,-2.14472 1.587247,-1.89918 0.214128,0.17771 0.942945,1.57636 1.206512,2.31537 0.09453,0.26505 0.249631,1.31409 0.34467,2.33121 0.194166,2.078 0.368202,2.98575 0.570636,2.97638 0.07548,-0.003 0.486217,-0.49282 0.912749,-1.08741 1.271142,-1.77197 1.766424,-2.15316 4.773217,-3.67368 1.454209,-0.73538 2.656982,-1.3192 2.672829,-1.29737 0.0407,0.0561 -0.150356,3.03624 -0.234319,3.65503 l -0.06965,0.51329 -1.826123,0.88102 c -2.065621,0.99657 -2.322754,1.22714 -2.943411,2.63944 l -0.379323,0.86314 -0.787819,0.13777 c -1.812419,0.31694 -3.3883,0.47335 -4.903996,0.48673 -0.885872,0.008 -1.735557,0.0494 -1.888189,0.0923 l -0.277512,0.0781 0.366994,0.69767 c 0.201847,0.38371 0.365485,0.83986 0.363639,1.01365 -0.0044,0.41818 -0.693953,1.67308 -1.07043,1.94816 -0.6837,0.49955 -2.91864,0.69261 -5.130307,0.44317 z"
     id="path125" />
  <path
     style="fill:#ffccaa;fill-opacity:1;stroke-width:0.119309"
     d="m 65.739685,203.7742 c -0.996052,-1.06478 -1.255205,-1.59217 -1.258563,-2.56125 -0.0063,-1.81256 0.593938,-2.52568 3.855468,-4.58063 1.209245,-0.7619 2.113989,-1.4122 2.186671,-1.57172 0.31372,-0.68854 -0.483055,-2.05259 -2.12877,-3.64437 -1.000712,-0.96792 -2.66747,-2.13423 -3.050001,-2.13423 -0.57694,0 -1.023752,0.5641 -2.362581,2.98274 -1.302212,2.35249 -1.601765,2.72202 -2.574339,3.17576 -0.830109,0.38728 -1.741063,0.54588 -2.356537,0.41028 -0.395057,-0.087 -0.639166,-0.26577 -1.179449,-0.86359 -1.05665,-1.16918 -1.057679,-1.17314 -0.549184,-2.10717 0.504357,-0.92643 0.903671,-2.18992 1.401068,-4.43319 0.844976,-3.81085 0.81712,-4.25414 -0.400923,-6.38016 -0.589309,-1.02861 -0.657327,-1.39777 -0.341868,-1.85547 0.296853,-0.43071 0.454732,-0.53987 1.705635,-1.17932 3.433596,-1.75523 7.508975,-4.9843 12.998761,-10.29938 l 3.048362,-2.95135 9.809003,0.0283 c 8.889895,0.0256 9.827247,0.0465 10.003697,0.22302 0.179046,0.17911 0.184172,0.99709 0.06378,10.1789 l -0.130908,9.98415 -2.843671,2.82583 c -4.630339,4.6013 -8.080351,8.85024 -10.432044,12.84783 -0.856772,1.4564 -1.321094,1.9686 -1.784589,1.9686 -0.186215,0 -0.983862,-0.33555 -1.772549,-0.74568 l -1.433978,-0.74568 -1.097301,0.0119 c -1.957398,0.0212 -6.31216,1.03221 -7.693256,1.78607 -0.412385,0.2251 -0.795476,0.40927 -0.851314,0.40927 -0.05584,0 -0.429618,-0.35073 -0.830624,-0.77941 z m 14.11655,-5.31593 c 0.288626,-0.0727 0.638639,-0.25334 0.777805,-0.40148 0.249117,-0.26517 0.250059,-0.28391 0.06088,-1.21123 -0.105687,-0.51803 -0.405804,-1.79604 -0.666929,-2.84001 -0.354916,-1.41894 -0.438515,-1.92053 -0.331152,-1.98688 0.07899,-0.0488 1.007888,-0.31113 2.064215,-0.5829 2.83112,-0.72839 3.497913,-0.94027 3.572738,-1.13526 0.03706,-0.0966 -0.007,-0.56592 -0.09789,-1.04298 -0.0909,-0.47706 -0.155657,-0.87495 -0.143905,-0.8842 0.01175,-0.009 0.773017,-0.23997 1.691699,-0.51271 1.996897,-0.59285 3.376641,-1.22911 4.143339,-1.91068 1.074929,-0.95558 1.875048,-3.17864 1.542973,-4.287 -0.09712,-0.32417 -0.3146,-0.62237 -0.660752,-0.90602 -0.92347,-0.75671 -1.753385,-3.05581 -1.767777,-4.89723 -0.0087,-1.10812 0.369952,-3.11176 0.871309,-4.61102 0.189757,-0.56745 0.345013,-1.09921 0.345013,-1.18169 0,-0.11822 -0.334693,-0.12748 -1.58085,-0.0437 -0.869468,0.0584 -2.439879,0.10561 -3.489802,0.10484 -1.618988,-0.001 -2.053934,-0.0424 -2.863427,-0.27127 -1.87344,-0.52971 -2.539092,-0.84045 -3.011818,-1.40598 -1.052455,-1.25908 -2.607351,-1.10064 -4.53438,0.46203 -1.327484,1.07648 -1.904971,2.07817 -2.955996,5.12736 -0.326933,0.94848 -0.629311,1.6405 -0.716816,1.6405 -0.08324,0 -0.438549,-0.1337 -0.789571,-0.29711 -0.351023,-0.16341 -0.730799,-0.29763 -0.84395,-0.29827 -0.292693,-0.002 -0.450633,0.36354 -1.289455,2.98157 -0.409983,1.27959 -0.791314,2.37725 -0.847401,2.43924 -0.103965,0.1149 -0.403871,0.0519 -3.085997,-0.64781 -1.526153,-0.39816 -2.548956,-0.45922 -2.95289,-0.1763 -0.632168,0.44279 -0.787853,2.41852 -0.439571,5.57842 0.183451,1.66441 0.470581,3.40631 0.579431,3.51516 0.09974,0.0997 0.85175,-1.18668 2.040456,-3.49049 0.643309,-1.24678 1.18729,-2.28885 1.208848,-2.3157 0.05991,-0.0746 2.676939,1.68692 4.207198,2.8319 1.508814,1.12894 2.883631,2.43763 3.744512,3.5644 0.68204,0.8927 2.256024,3.35704 2.939172,4.60177 l 0.495688,0.90317 -2.183001,1.10021 c -1.200651,0.60512 -2.477651,1.288 -2.837779,1.5175 -0.773417,0.49288 -0.735491,0.52597 0.855657,0.74649 3.218066,0.446 5.743759,0.52718 6.950182,0.2234 z"
     id="path127" />
  <path
     style="fill:#ffccaa;fill-opacity:1;stroke-width:0.119309"
     d="m 51.985791,221.764 c -2.797875,-3.13336 -5.523052,-6.21821 -6.055949,-6.8552 -0.532897,-0.637 -1.067321,-1.22758 -1.18761,-1.31241 -0.214828,-0.15149 -5.25101,-4.73728 -8.293071,-7.55141 -3.44573,-3.18755 -3.850248,-3.55051 -4.293419,-3.85227 -0.253798,-0.17281 -0.410897,-0.33105 -0.349108,-0.35165 0.06179,-0.0206 0.77949,0.15866 1.594892,0.39834 4.382399,1.28817 6.818277,1.61551 8.837259,1.18758 1.43115,-0.30334 2.18255,-0.86494 2.802665,-2.09472 0.277142,-0.54962 0.33889,-0.84546 0.380152,-1.82137 l 0.04926,-1.16516 0.791386,0.0914 c 0.435263,0.0503 1.248981,0.0914 1.808263,0.0914 0.90897,0 1.101564,-0.0417 1.814935,-0.393 0.737693,-0.36327 1.000731,-0.59026 1.361534,-1.17492 0.125829,-0.2039 0.181375,-0.1744 0.691221,0.36714 0.304918,0.32387 0.78024,1.04497 1.05627,1.60245 0.456502,0.92195 0.501817,1.09523 0.501242,1.91664 -4.77e-4,0.76501 -0.05825,1.02487 -0.377557,1.69999 -0.611169,1.29221 -1.18846,1.82174 -2.843166,2.60794 -0.787443,0.37414 -1.740427,0.81849 -2.117743,0.98745 -0.831834,0.37248 -0.84501,0.46074 -0.27529,1.84381 0.582926,1.41513 1.188289,2.44578 1.700915,2.89587 0.407572,0.35785 3.577234,1.99407 3.660331,1.8895 0.01969,-0.0248 0.514214,-0.89882 1.098946,-1.94232 0.584731,-1.04351 1.291129,-2.15181 1.569773,-2.46289 0.670395,-0.74844 2.239812,-1.54565 3.04281,-1.54565 1.093874,0 2.46404,0.76795 3.190547,1.78824 l 0.242463,0.3405 -0.727777,1.47096 -0.727775,1.47095 0.0674,0.89482 c 0.03707,0.49216 0.101577,1.06931 0.143351,1.28258 l 0.07595,0.38776 h -1.329778 c -1.505685,0 -1.941896,0.12716 -2.431307,0.7088 -0.504276,0.59929 -1.964447,3.61373 -2.060395,4.25355 -0.111706,0.74491 0.04794,1.56391 0.850405,4.36259 0.777432,2.71139 1.015681,3.67979 0.905318,3.67979 -0.04416,0 -2.369471,-2.56366 -5.167346,-5.69703 z"
     id="path129" />
  <path
     style="fill:#ffccaa;fill-opacity:1;stroke-width:0.119309"
     d="m 70.453336,250.33862 c -0.161309,-0.27889 -1.096482,-2.38619 -2.078162,-4.6829 -3.450025,-8.07157 -4.597229,-10.27048 -6.691396,-12.82577 -0.860552,-1.05004 -1.10735,-1.64653 -1.502108,-3.63048 -1.411553,-7.0941 -1.350862,-9.70414 0.247425,-10.6408 0.559772,-0.32805 0.786295,-0.33659 2.61584,-0.0986 l 0.600375,0.0781 0.009,-1.47422 c 0.0081,-1.32527 0.102633,-2.08016 0.531383,-4.24385 l 0.123264,-0.62205 0.971536,-0.51139 c 0.534345,-0.28126 1.161791,-0.7009 1.394325,-0.93253 0.232533,-0.23163 0.865435,-1.23134 1.406449,-2.22158 l 0.983661,-1.80042 0.805981,-0.0735 c 0.443289,-0.0404 1.497169,-0.10932 2.341955,-0.15305 l 1.535976,-0.0795 -0.612215,1.12187 c -0.336717,0.61703 -1.05475,1.94756 -1.595629,2.95675 l -0.983415,1.83488 -1.312405,0.98015 c -1.58919,1.18686 -1.803154,1.40458 -1.570253,1.59787 0.09116,0.0757 1.126037,0.24604 2.299717,0.37862 1.17368,0.13257 2.348721,0.29781 2.611201,0.36718 0.520513,0.13758 2.803773,1.28973 2.803773,1.41481 0,0.0425 -0.633789,0.43613 -1.40842,0.87472 -1.817412,1.02901 -2.937204,1.78201 -2.979924,2.00384 -0.04148,0.21538 1.664354,1.35125 4.834534,3.21917 1.262517,0.7439 2.255768,1.38826 2.207225,1.4319 -0.04854,0.0436 -0.786222,0.30811 -1.639285,0.5877 -1.593671,0.52232 -3.042391,1.11861 -3.042391,1.25224 0,0.13373 0.661986,1.0393 1.778418,2.43281 0.599219,0.74793 1.066848,1.38252 1.039174,1.41019 -0.02768,0.0277 -0.709943,0.11754 -1.51615,0.1997 l -1.465834,0.14938 -2.57244,-1.21704 c -1.414841,-0.66937 -2.887367,-1.33248 -3.272279,-1.47358 l -0.69984,-0.25655 0.07658,0.30513 c 0.04212,0.16783 0.481452,1.16478 0.97629,2.21544 1.453704,3.08659 2.246251,5.45138 3.32214,9.91257 1.193747,4.9499 1.334985,6.64409 0.737883,8.85116 -0.537631,1.98724 -0.795402,2.25477 -1.311985,1.36166 z"
     id="path131" />
  <path
     style="fill:#ffccaa;fill-opacity:1;stroke-width:0.0596547"
     d="m 76.560304,190.07252 c -0.167633,-0.23734 -0.489769,-0.73585 -0.715856,-1.10781 -1.788052,-2.9417 -2.403009,-3.56155 -5.197043,-5.2384 -0.677314,-0.4065 -1.242731,-0.75034 -1.256482,-0.76409 -0.08766,-0.0877 1.243062,-2.33188 1.632174,-2.7526 0.284919,-0.30807 0.37687,-0.32038 1.069616,-0.14321 0.256573,0.0656 0.550518,0.11931 0.653211,0.11931 0.793701,0 2.583926,-0.94771 3.421047,-1.81104 0.738991,-0.76212 1.05309,-1.62937 0.798541,-2.20482 -0.26731,-0.6043 -0.674077,-0.9454 -1.218947,-1.02218 -0.258078,-0.0364 -0.283311,-0.0542 -0.282812,-0.20032 5.97e-4,-0.17432 0.491193,-1.22837 0.898014,-1.92939 0.570764,-0.98353 1.136215,-1.50459 1.624741,-1.49721 0.299096,0.005 0.907823,0.23486 2.389479,0.90415 2.103681,0.95027 2.75849,1.15498 3.707327,1.15902 0.714097,0.003 1.190201,-0.0918 2.609895,-0.51997 0.582379,-0.17563 1.058871,-0.29456 1.058871,-0.26429 0,0.0303 -0.132169,0.51664 -0.293708,1.08082 -0.402612,1.40613 -0.446602,1.644 -0.443457,2.39785 0.0034,0.81803 0.149176,1.47787 0.770912,3.4898 0.545487,1.76519 0.796444,2.75309 0.841049,3.31083 0.0384,0.48009 -0.02958,0.60991 -0.482527,0.92155 -0.487496,0.3354 -2.624054,1.34324 -3.08482,1.45514 -0.21168,0.0514 -0.267999,-0.0363 -0.305839,-0.47619 -0.03968,-0.46127 -0.283916,-1.01396 -0.572691,-1.29594 -0.167756,-0.16381 -0.303368,-0.23215 -0.564851,-0.28467 -0.895294,-0.1798 -1.756335,0.38923 -2.72166,1.79865 -0.315917,0.46125 -1.49407,2.60352 -1.49407,2.71672 0,0.0397 0.161686,0.26484 0.815984,1.13604 l 0.138778,0.18478 -1.11867,0.4808 c -1.126062,0.48398 -1.997533,0.79097 -2.240275,0.78916 -0.0944,-7e-4 -0.216539,-0.12187 -0.435931,-0.43249 z m 1.396645,-2.4747 c 0.193345,-0.25428 0.896595,-1.25424 1.562779,-2.22214 2.037521,-2.96031 2.233094,-3.18681 3.295188,-3.81617 0.734389,-0.43518 1.236097,-0.85755 1.443255,-1.21504 0.379205,-0.65437 1.644612,-5.01631 1.644612,-5.66908 0,-0.14588 -0.01859,-0.15687 -0.26539,-0.15687 -1.066628,0 -4.252941,0.62662 -5.207954,1.02419 -0.65348,0.27204 -0.898,0.54238 -1.445843,1.59851 -0.670651,1.29288 -0.824215,1.43475 -3.520391,3.25251 -1.424235,0.96022 -2.497613,1.7238 -2.829538,2.01289 l -0.234558,0.20428 0.283443,0.19501 c 0.155893,0.10726 0.699791,0.41978 1.208662,0.69449 1.647953,0.88964 1.969991,1.19947 2.569283,2.47183 0.812882,1.72584 0.998277,2.08791 1.069076,2.08791 0.04171,0 0.234032,-0.20804 0.427376,-0.46232 z"
     id="path133" />
  <path
     style="fill:#ffccaa;fill-opacity:1;stroke-width:0.0843645"
     d="m 16.165635,251.59599 c -0.590689,-0.29436 -1.515204,-1.09445 -3.109518,-2.69105 -2.283496,-2.28677 -2.677628,-3.04739 -2.134748,-4.1198 0.199395,-0.39389 0.732639,-0.78997 1.160966,-0.86233 0.593203,-0.10022 0.914895,0.10899 3.297767,2.14471 1.839173,1.57123 2.554552,2.32192 2.775528,2.91253 0.430279,1.15002 0.130803,2.2914 -0.700251,2.66881 -0.46886,0.21294 -0.782106,0.20009 -1.289744,-0.0529 z"
     id="path135" />
  <path
     style="fill:#ffdd55;stroke-width:0.08348"
     d="m 17.472504,247.35803 c -0.550968,-0.52153 -1.559628,-1.45016 -2.241466,-2.06362 -0.681838,-0.61347 -1.30816,-1.22809 -1.391827,-1.36584 l -0.152121,-0.25044 2.310107,-2.42195 c 1.270558,-1.33208 5.63422,-5.91513 9.697025,-10.18456 10.786532,-11.33511 12.779063,-13.40391 12.860996,-13.35327 0.0405,0.025 0.206695,0.29767 0.369312,0.60587 0.653793,1.2391 1.922209,2.66095 3.383266,3.79254 0.528011,0.40894 0.96002,0.77741 0.96002,0.81882 0,0.0872 -1.246753,1.39836 -7.340462,7.71968 -9.157534,9.49958 -17.183673,17.65873 -17.365716,17.65351 -0.04806,-0.001 -0.538167,-0.42921 -1.089134,-0.95074 z"
     id="path23" />
  <path
     style="fill:#ff5555;stroke-width:0.165209"
     d="m 95.356217,175.24299 c -0.06341,-0.0634 -0.115284,-2.25448 -0.115284,-4.86907 0,-2.94391 -0.06198,-4.79209 -0.162792,-4.85439 -0.08954,-0.0553 -2.357034,-0.14588 -5.038887,-0.20121 -2.681851,-0.0553 -4.876094,-0.14077 -4.876094,-0.18987 0,-0.0491 0.839271,-0.94801 1.865046,-1.99757 1.025776,-1.04956 6.211285,-6.40475 11.523355,-11.90043 C 131.96139,116.66586 217.4415,28.541396 221.62611,24.348556 c 3.14714,-3.153326 7.55352,-6.412129 10.58666,-7.829525 3.02401,-1.413126 11.43537,-4.403805 11.68467,-4.154509 0.12044,0.120445 -0.40561,1.994906 -1.29945,4.63027 -1.9591,5.776155 -4.23333,9.99727 -7.62175,14.146463 -1.9412,2.377038 -4.35243,4.96401 -11.32491,12.150333 -3.1586,3.255469 -27.71003,28.594023 -54.55873,56.307898 -49.15272,50.736614 -69.670418,71.867464 -72.23211,74.390674 -0.763944,0.75246 -1.440866,1.31624 -1.504273,1.25283 z"
     id="path24" />
  <path
     style="fill:#ff8080;stroke-width:0.163477"
     d="m 95.146868,180.48548 1.64e-4,-3.80085 3.391975,-3.50462 c 1.865603,-1.92754 32.406223,-33.45003 67.868073,-70.04997 35.46185,-36.599942 65.1022,-67.244214 65.86746,-68.098382 1.88536,-2.104412 4.22567,-5.052865 5.47427,-6.896791 2.34082,-3.456925 4.94253,-9.393062 6.2558,-14.273503 0.54845,-2.03816 0.54092,-2.106664 -0.21629,-1.965846 -0.73856,0.137349 -5.54633,1.730981 -8.37821,2.777126 -5.32149,1.965852 -9.17272,4.493259 -14.00648,9.191875 -1.18492,1.151785 -7.76853,7.905769 -14.63025,15.008853 C 188.44969,57.84159 119.22435,129.246 94.781946,154.39005 l -10.428446,10.72781 -0.774667,0.0998 c -1.014191,0.1307 -6.733756,0.16759 -6.857123,0.0442 -0.05246,-0.0525 1.556385,-1.80735 3.575222,-3.89975 2.018837,-2.0924 6.756933,-7.00443 10.529103,-10.91562 C 120.73702,119.43321 196.66778,40.902364 214.81199,22.214964 c 2.78688,-2.870316 5.57511,-5.321892 8.9095,-7.833769 3.12772,-2.356185 5.63449,-4.018221 7.193,-4.7690981 2.14101,-1.0315228 7.08187,-2.4693712 11.46864,-3.3375131 2.39521,-0.4740084 8.03317,-1.2474525 8.16105,-1.1195723 0.21026,0.2102642 -1.23095,9.2172925 -2.07322,12.9567585 -0.99452,4.415403 -2.23264,7.330543 -4.65436,10.958572 -3.79573,5.686482 -5.19036,7.258115 -19.98914,22.52611 -15.07915,15.557264 -35.40113,36.553952 -76.5285,79.069358 -45.6098,47.1491 -51.892455,53.62051 -52.056556,53.62051 -0.05264,0 -0.09563,-1.71038 -0.09554,-3.80084 z"
     id="path25" />
</svg>
