<?xml version="1.0" encoding="UTF-8" standalone="no"?>
<svg
   xmlns:dc="http://purl.org/dc/elements/1.1/"
   xmlns:cc="http://creativecommons.org/ns#"
   xmlns:rdf="http://www.w3.org/1999/02/22-rdf-syntax-ns#"
   xmlns:svg="http://www.w3.org/2000/svg"
   xmlns="http://www.w3.org/2000/svg"
   xmlns:sodipodi="http://sodipodi.sourceforge.net/DTD/sodipodi-0.dtd"
   xmlns:inkscape="http://www.inkscape.org/namespaces/inkscape"
   cursor="default"
   viewBox="0 0 256 256"
   version="1.1"
   id="svg50"
   sodipodi:docname="Hbolter.svg"
   inkscape:version="1.0.2-2 (e86c870879, 2021-01-15)">
  <metadata
     id="metadata56">
    <rdf:RDF>
      <cc:Work
         rdf:about="">
        <dc:format>image/svg+xml</dc:format>
        <dc:type
           rdf:resource="http://purl.org/dc/dcmitype/StillImage" />
      </cc:Work>
    </rdf:RDF>
  </metadata>
  <defs
     id="defs54" />
  <sodipodi:namedview
     pagecolor="#ffffff"
     bordercolor="#666666"
     borderopacity="1"
     objecttolerance="10"
     gridtolerance="10"
     guidetolerance="10"
     inkscape:pageopacity="0"
     inkscape:pageshadow="2"
     inkscape:window-width="1920"
     inkscape:window-height="1017"
     id="namedview52"
     showgrid="false"
     inkscape:zoom="4.1033633"
     inkscape:cx="153.08111"
     inkscape:cy="116.23601"
     inkscape:window-x="-8"
     inkscape:window-y="-8"
     inkscape:window-maximized="1"
     inkscape:current-layer="svg50"
     inkscape:document-rotation="0" />
  <path
     style="fill:#000000;stroke-width:0.270571"
     d="m 25.224361,238.08554 c -0.770479,-2.23151 -1.327193,-4.33364 -1.256919,-4.74618 0.0694,-0.40732 0.41716,-0.99583 0.772853,-1.30785 0.64022,-0.56163 0.632103,-0.61435 -0.809827,-5.26649 -0.851285,-2.74653 -1.38032,-4.96233 -1.273113,-5.33253 0.100856,-0.34837 0.467162,-1.05414 0.813967,-1.56842 0.346825,-0.51426 0.688861,-1.19642 0.760089,-1.51589 0.185477,-0.83248 -0.827197,-2.58363 -1.83837,-3.17872 -1.433914,-0.84384 -1.53755,-2.41872 -0.354902,-5.39295 0.980449,-2.46568 0.886635,-2.71709 -1.110405,-2.97596 -1.860287,-0.24117 -2.447501,-0.61772 -4.380884,-2.8092 l -1.365121,-1.54692 -1.272159,0.13352 c -1.19671,0.12562 -1.350814,0.0611 -2.599393,-1.08816 -0.730056,-0.67188 -1.3161139,-1.36427 -1.302457,-1.53857 0.0142,-0.17431 0.296337,-0.60714 0.628247,-0.9619 l 0.603428,-0.64501 -1.390649,-0.14976 c -1.3292431,-0.14326 -1.4493566,-0.21668 -2.7189792,-1.66397 l -1.3282894,-1.51417 0.9152891,-0.80295 c 0.7730565,-0.67815 0.861026,-0.8648 0.566049,-1.20105 -0.1921734,-0.21898 -0.8722479,-0.37372 -1.5114121,-0.34391 l -1.162172,0.0542 -0.7813359,-1.69397 c -0.4297622,-0.93167 -0.7772977,-1.81765 -0.7723462,-1.96883 0.00406,-0.15119 0.3916928,-0.41855 0.8594431,-0.59418 0.7730971,-0.29027 0.8473283,-0.39656 0.8165441,-1.16919 l -0.033889,-0.84991 4.7417105,-4.27353 c 2.756541,-2.48438 4.671964,-4.35304 4.575146,-4.46341 -0.09172,-0.10445 -0.701686,0.27954 -1.355725,0.8533 -0.67421,0.59144 -1.588444,1.14824 -2.111309,1.28587 -0.9173592,0.24144 -0.929474,0.23438 -2.3243848,-1.35574 -1.3412565,-1.52894 -1.3926583,-1.63893 -1.1824446,-2.52904 0.1467174,-0.62141 0.6654029,-1.40133 1.5610079,-2.34735 l 1.3412361,-1.41675 -0.1195249,-3.44084 -0.119322,-3.44088 13.0386493,-11.45181 13.038668,-11.45183 -0.52455,-6.50505 -0.52455,-6.50504 18.845186,-16.48141 18.845186,-16.481408 5.258671,1.655919 5.258671,1.65592 -0.775735,-1.089453 c -0.705197,-0.990364 -0.730198,-1.139732 -0.274887,-1.642331 0.275476,-0.304091 0.469049,-0.843377 0.430148,-1.198435 -0.04809,-0.4383 0.229715,-0.979346 0.865064,-1.68528 0.690384,-0.767118 0.861574,-1.126675 0.652862,-1.371314 -0.155646,-0.182331 -1.200424,-1.632248 -2.321868,-3.221944 L 79.476567,86.65442 77.600756,86.477791 c -2.107779,-0.198464 -2.969779,-0.704986 -4.141935,-2.433857 -1.005734,-1.483412 -1.241334,-2.792971 -0.719787,-4.000781 0.370283,-0.857483 0.32708,-1.079871 -0.470368,-2.421661 -1.216334,-2.046634 -1.132017,-3.061263 0.363404,-4.373119 1.263291,-1.108203 2.335789,-1.333653 3.962241,-0.832904 l 0.986213,0.303632 6.100581,-5.559673 c 3.355303,-3.057823 10.335863,-9.275523 15.512308,-13.817113 l 9.411747,-8.257438 -0.25763,-0.691217 c -0.33782,-0.906334 0.34812,-2.267573 1.77213,-3.516771 0.93329,-0.818736 1.30065,-0.984348 2.07168,-0.93392 0.51548,0.03371 1.12615,0.276653 1.35706,0.539877 0.29259,0.33353 0.85348,0.432401 1.85051,0.326204 1.46441,-0.155991 4.04363,0.646346 4.77588,1.485642 0.86361,0.989993 1.30877,2.49146 1.25426,4.231221 l -0.0578,1.848627 2.36172,2.651499 c 2.81823,3.164024 3.98233,3.931084 5.10694,3.3651 0.40014,-0.201386 1.00206,-0.237785 1.33763,-0.08093 0.67553,0.31578 1.57892,-0.04645 1.19823,-0.480427 -0.13272,-0.151263 -0.5322,-1.148919 -0.88775,-2.217009 l -0.64649,-1.941982 2.19071,-2.144379 c 1.20489,-1.179404 4.54609,-4.231921 7.4249,-6.783369 4.44243,-3.937279 5.29769,-4.786078 5.65407,-5.611395 0.74167,-1.717543 0.86578,-5.01883 0.35976,-9.569051 l -0.49347,-4.437159 4.8172,-4.150587 4.81722,-4.15059 5.62565,6.304494 5.62567,6.304494 -0.38376,0.555196 c -0.21107,0.305363 -0.39758,0.960903 -0.4145,1.456757 -0.0254,0.746479 0.0866,0.967947 0.65164,1.287511 0.71441,0.404068 1.04117,0.263885 3.84138,-1.648034 1.68384,-1.149691 2.45765,-1.006428 5.40429,1.000607 l 2.54061,1.730463 5.56209,-4.699325 c 7.32474,-6.18858 7.3167,-6.186677 10.56064,-2.488778 1.89938,2.165168 2.17194,2.892077 1.57202,4.192589 -0.21279,0.461312 -2.23189,2.446503 -5.72962,5.633417 l -5.40103,4.921085 1.4706,1.661931 c 0.80885,0.914043 1.60768,1.670981 1.77527,1.682 0.1676,0.01096 5.50171,-4.494572 11.85361,-10.012411 l 11.54891,-10.032432 1.09634,0.109257 c 1.3289,0.132208 1.5271,-0.01481 1.46943,-1.090074 -0.0367,-0.683543 0.18629,-1.078557 1.24332,-2.20255 l 1.28797,-1.369636 4.02618,0.189393 4.02619,0.189393 10.57704,11.785944 10.57703,11.785942 -0.40087,3.852071 -0.40086,3.852074 -1.39037,1.21968 c -1.27271,1.116477 -1.49,1.214722 -2.56808,1.161121 -1.3053,-0.0649 -1.67577,0.312055 -1.50401,1.530392 l 0.10776,0.764006 -4.07763,3.35131 -4.07763,3.351313 2.70561,3.084224 2.70561,3.084223 -8.30021,7.189398 -8.30022,7.189399 0.008,0.970333 c 0.006,0.666935 0.29161,1.373029 0.91326,2.258224 1.135,1.616152 1.19184,1.889466 1.22068,5.869054 0.0183,2.668129 -0.0787,3.341753 -0.53762,3.695226 -0.30869,0.237755 -4.74025,4.115416 -9.84784,8.617078 l -9.28664,8.18475 2.32769,2.65341 2.32767,2.65341 0.0733,4.05862 c 0.0725,4.01689 0.0641,4.06652 -0.80372,4.82791 l -0.87693,0.76929 1.15229,1.31355 1.15229,1.31354 1.62846,-1.32344 1.62846,-1.32343 1.88687,2.03399 1.88689,2.034 -2.04112,1.79055 -2.04111,1.79054 1.51666,1.7289 c 1.79596,2.04728 1.9232,2.8083 0.65676,3.92845 -1.08148,0.95654 -1.11546,1.37883 -0.21192,2.633 l 0.79879,1.10877 1.06323,-0.68337 1.06324,-0.68338 1.51947,1.77555 c 0.83566,0.9766 2.18187,2.64957 2.99147,3.71781 l 1.47202,1.94227 -0.91985,0.69517 -0.91986,0.69518 1.17346,1.33766 c 0.95216,1.08541 1.23425,1.28431 1.49589,1.05478 0.27797,-0.24385 0.48502,-0.0583 1.50084,1.34469 l 1.17836,1.62754 0.95927,-0.59181 c 1.13981,-0.70311 1.05512,-0.77552 3.75225,3.20852 3.05306,4.50985 2.88515,4.05034 1.76491,4.82972 l -0.96706,0.67287 0.71551,1.08289 c 0.39352,0.59559 0.94518,1.34471 1.22591,1.66471 0.46795,0.53345 0.44833,0.63895 -0.23629,1.26926 l -0.74668,0.68742 0.89027,-0.42117 c 0.48963,-0.23166 0.92637,-0.41937 0.97051,-0.41718 0.0442,0.002 0.38526,0.61968 0.7581,1.37219 1.016,2.05066 1.13439,2.12987 2.20035,1.4723 0.51461,-0.31753 1.03561,-0.46065 1.16002,-0.31883 0.2009,0.22907 2.62927,4.81851 3.88408,7.34082 l 0.47412,0.95301 -0.99855,0.64192 -0.99869,0.64178 0.9913,1.86488 c 0.54521,1.02568 0.93879,1.90974 0.87466,1.96461 -0.0641,0.0548 -1.71697,0.94242 -3.67292,1.97236 -1.95595,1.02995 -3.5603,1.9341 -3.56521,2.00924 -0.004,0.0751 1.78272,-0.50787 3.97251,-1.29558 2.1898,-0.78768 4.05447,-1.34892 4.1437,-1.24722 0.0893,0.10167 0.42724,0.94831 0.75116,1.88133 0.32389,0.93301 0.62057,1.6866 0.65927,1.67471 1.70192,-0.52398 2.22619,-0.63632 2.3268,-0.49859 0.0676,0.0923 0.70775,2.0844 1.42271,4.42662 1.37639,4.50907 1.38061,4.38328 -0.17391,5.18485 -0.5795,0.29889 -0.5797,0.47022 -0.002,2.32377 0.71072,2.28159 1.05574,1.9148 -3.03674,3.22825 -4.72077,1.51509 -4.76618,1.66665 -0.20618,0.68813 4.79535,-1.02905 4.37437,-1.11834 4.75466,1.00862 0.36911,2.06437 0.4644,2.23532 1.09955,1.97216 0.25411,-0.10532 0.74755,-0.21151 1.09665,-0.23607 0.60253,-0.0424 0.66968,0.16722 1.32542,4.1366 0.93051,5.63277 0.95164,5.32389 -0.38097,5.57611 -1.21969,0.23086 -1.17072,0.0211 -0.63935,2.73885 0.22129,1.13194 0.19461,1.67885 -0.0871,1.78283 -0.22352,0.0824 -2.75871,0.54164 -5.63388,1.0203 -2.8752,0.47865 -10.7095,1.82194 -17.40955,2.9851 -6.70007,1.16313 -12.32414,2.11387 -12.49795,2.11275 -0.17391,-0.001 -0.36373,-0.41803 -0.42243,-0.92618 -0.1175,-1.01927 -1.91881,-11.15909 -2.29446,-12.91515 -0.25753,-1.20395 -3.47263,-11.02061 -4.32948,-13.21917 -0.29163,-0.74832 -1.86268,-3.83594 -3.49122,-6.86141 -3.56809,-6.62872 -10.22331,-16.52896 -11.00654,-16.37324 -0.34071,0.0678 -0.74177,-0.31008 -1.87929,-1.77069 -0.79537,-1.02125 -3.06721,-3.75506 -5.04857,-6.0751 l -3.60245,-4.21827 -1.6202,1.31642 c -1.45682,1.18371 -1.70866,1.29995 -2.49789,1.15292 -0.72457,-0.13499 -1.13812,-0.46036 -2.3703,-1.86498 l -1.4926,-1.70146 -2.5425,2.23038 -2.54249,2.23038 -1.78431,-2.034 -1.78431,-2.03399 1.42381,-1.24902 1.42379,-1.24901 -1.1598,-1.3221 -1.1598,-1.3221 -0.99409,0.87206 c -0.9871,0.86593 -1.01141,0.86917 -3.46945,0.45569 -1.36144,-0.229 -2.61617,-0.45315 -2.78826,-0.49811 -0.18486,-0.0483 -0.40965,0.39789 -0.54932,1.09016 l -0.23646,1.17192 -16.28885,14.28924 -16.28883,14.28925 -2.52381,0.14448 -2.52378,0.14449 -1.9045,-2.0093 c -1.04748,-1.10511 -2.06959,-2.01736 -2.27138,-2.0272 -0.21176,-0.0101 -5.14024,4.02949 -11.65756,9.55561 -8.700426,7.37714 -11.41628,9.57691 -11.838087,9.58845 -0.701382,0.0183 -1.749245,-0.64856 -10.226343,-6.51697 l -6.9944,-4.84198 -2.591763,2.17339 -2.591763,2.17336 -2.177424,-0.15382 -2.177404,-0.15382 -2.494499,-2.56909 -2.4945,-2.56908 -9.338509,8.09513 c -5.136184,4.45233 -9.453834,8.24387 -9.594829,8.42562 -0.34159,0.44059 0.354577,5.26705 1.230762,8.53261 0.896985,3.34307 1.758701,5.01378 4.153948,8.05359 2.599495,3.29911 5.059557,5.4617 7.266345,6.38793 0.946357,0.39717 1.835266,0.85175 1.975368,1.01014 0.531185,0.59937 2.833471,5.84641 2.798811,6.37632 -0.05012,0.76593 -0.659214,0.98006 -4.022451,1.41408 l -2.871561,0.37053 -2.152605,1.94568 c -1.364817,1.2336 -2.782293,2.28676 -3.873298,2.87777 -4.313247,2.33654 -9.718007,1.87031 -13.412342,-1.157 l -1.421941,-1.16519 -2.596917,0.25727 c -2.420269,0.23976 -2.639797,0.20737 -3.22762,-0.47615 -0.351168,-0.40953 -1.24245,-2.50511 -2.013802,-4.73905 z m 3.788596,4.82775 c 1.57917,-0.13576 20.567136,-2.39644 25.715008,-3.06146 2.695014,-0.34815 5.042654,-0.7581 5.216949,-0.91099 0.174316,-0.1528 0.262042,-0.51333 0.195014,-0.80098 -0.222551,-0.95516 -2.481857,-5.36624 -2.844896,-5.55434 -0.196435,-0.10166 -3.590801,0.22223 -7.543119,0.71999 -9.85405,1.24099 -14.665527,1.58147 -16.573766,1.17281 -0.882171,-0.18893 -2.725311,-0.73651 -4.09585,-1.21686 -3.085651,-1.08145 -3.601231,-1.15996 -4.195284,-0.63884 -0.621956,0.54559 -0.488815,1.3262 0.951593,5.57863 1.398218,4.12783 1.867491,4.82448 3.17431,4.71204 z m 6.234047,1.20921 c 1.467052,1.09646 2.696089,1.59599 4.943076,2.00905 3.664951,0.67377 7.329314,-0.59084 10.899355,-3.76144 l 1.839,-1.63323 -0.84954,0.0574 c -1.376343,0.0929 -17.97996,2.10358 -18.077528,2.18917 -0.123583,0.10837 -0.07914,0.14895 1.245698,1.13906 z m -6.794759,-11.64554 c 4.292467,1.50699 6.17331,1.81566 9.51177,1.56094 3.527893,-0.26914 17.455653,-1.92512 17.653853,-2.09901 0.07102,-0.0623 -0.256766,-0.26498 -0.729082,-0.44983 -2.101508,-0.82346 -7.449792,-6.6866 -9.276657,-10.16966 -1.075765,-2.05106 -2.005239,-5.51664 -2.61512,-9.75054 l -0.489971,-3.40139 2.084015,-1.84492 2.084016,-1.84492 -1.288617,0.46663 c -2.689189,0.97381 -7.537457,0.84312 -10.067064,-0.27135 -1.32143,-0.58217 -1.655247,-0.8795 -4.056156,-3.61272 l -2.61577,-2.97875 -2.407484,1.87143 c -1.324129,1.02927 -3.434424,2.82405 -4.689578,3.9884 l -2.282054,2.11696 1.687352,0.17959 c 0.928033,0.0988 1.845006,0.35949 2.037747,0.57918 0.461846,0.5265 0.298042,1.81881 -0.371947,2.93403 -0.296459,0.49346 -0.624635,1.57937 -0.729285,2.41312 -0.163966,1.30548 -0.09639,1.60569 0.486379,2.16267 2.641643,2.52492 2.927042,3.53203 1.629111,5.75002 -0.757005,1.29365 -0.897695,1.79418 -0.716764,2.55013 0.200899,0.83878 2.609357,8.77445 2.712932,8.93853 0.02334,0.0359 1.124934,0.44624 2.448922,0.91107 z M 12.216212,201.51329 c 0.455676,0.51635 0.829248,0.62031 1.855904,0.52059 l 1.284781,-0.1248 1.676799,1.70496 c 0.92225,0.93776 1.736501,1.70408 1.809312,1.70306 0.07305,-0.001 2.641095,-2.0984 5.707082,-4.6607 5.306319,-4.43456 5.563389,-4.68089 5.343333,-5.12027 -0.214353,-0.42806 0.138803,-0.80334 4.855716,-5.16102 2.797797,-2.58469 7.2688,-6.61345 9.935505,-8.95281 l 4.848613,-4.25339 1.605876,1.83059 1.605875,1.8306 24.45953,-21.45546 C 90.657222,147.5741 106.77623,133.5413 113.02448,128.19061 l 11.36047,-9.72854 -6.22088,-7.06094 c -3.42155,-3.88344 -6.21631,-7.11114 -6.21081,-7.17247 0.006,-0.0614 7.19208,-6.510558 15.97002,-14.331518 23.61636,-21.041718 30.93487,-27.715268 30.69733,-27.992095 -0.10979,-0.128028 -0.0712,-0.685633 0.0856,-1.239204 0.23331,-0.822792 0.72858,-1.442305 2.71367,-3.394352 l 2.42828,-2.387852 1.53349,0.254125 1.53349,0.254128 6.64954,7.2584 6.64949,7.258362 2.60912,-2.188542 2.60912,-2.188547 -0.51063,-1.092037 c -1.1564,-2.472775 -1.06751,-6.138332 0.22696,-9.363578 0.30947,-0.771064 1.19178,-2.315399 1.96069,-3.431861 0.7689,-1.11646 1.40278,-2.102981 1.40862,-2.192268 0.006,-0.08929 -4.22267,-5.031166 -9.39667,-10.981955 l -9.40731,-10.819608 -0.63932,0.465796 c -2.08282,1.51751 -3.29934,1.741616 -4.15559,0.765542 -0.48024,-0.547418 -0.45089,-2.568291 0.0436,-3.002057 0.29005,-0.254442 -0.23474,-0.909383 -5.03841,-6.287902 l -5.3622,-6.003875 -4.45662,3.909526 -4.45661,3.909529 0.41756,4.225462 c 0.48953,4.953828 0.42857,7.12689 -0.25699,9.160304 l -0.49961,1.481928 -4.06573,3.571205 c -2.23617,1.964121 -5.58198,5.006503 -7.4351,6.760835 l -3.36937,3.189693 0.60422,1.761517 c 0.39906,1.163453 0.93619,2.139967 1.58203,2.87619 l 0.97783,1.114671 -5.33886,4.68421 c -2.93642,2.576294 -14.30832,12.659734 -25.27096,22.407577 L 83.061889,100.36376 77.717176,98.690593 72.372463,97.017431 56.412029,111.09455 c -8.778244,7.74242 -17.120618,15.15477 -18.538622,16.47194 l -2.578208,2.39484 0.526397,6.34413 0.526356,6.34414 -13.03739,11.44476 -13.037391,11.44478 0.114655,3.69826 0.114654,3.69825 2.239338,2.42502 2.239357,2.42501 -4.841957,4.45006 -4.8419369,4.45006 -0.027395,0.99456 c -0.021916,0.79673 -0.1396149,1.02067 -0.5909686,1.12574 -0.9547993,0.22225 -0.9971911,0.44582 -0.3591836,1.89491 l 0.6170855,1.40167 1.2543625,5.5e-4 c 1.0338602,4.4e-4 1.3338293,0.12338 1.706467,0.69917 0.4249325,0.65669 0.3984909,0.74566 -0.4400912,1.48129 l -0.8922161,0.7827 1.0512715,1.19839 c 0.9971911,1.13673 1.1458972,1.20962 2.8888909,1.41697 1.981253,0.23564 2.349548,0.60443 1.241274,1.24296 -1.023593,0.58975 -1.252232,1.17512 -0.623072,1.59532 0.286738,0.19157 0.778312,0.63858 1.092425,0.99356 z m 30.474537,-49.44518 c 0.108364,-0.1775 4.305394,-4.02314 9.327004,-8.54599 8.340466,-7.51206 9.188301,-8.22245 9.801775,-8.21297 0.60838,0.009 0.99851,0.3831 4.146318,3.97141 l 3.474766,3.96101 2.061653,0.0935 c 2.296279,0.10416 3.086239,0.62392 2.790065,1.83579 -0.23282,0.95274 -0.278986,0.97832 -1.764058,0.97768 l -1.287602,-5.7e-4 -0.364622,1.51629 c -0.200494,0.83398 -0.455514,1.96659 -0.566617,2.51694 l -0.201914,1.00063 -2.316024,-0.14083 -2.316024,-0.14083 -0.545594,1.29606 -0.545594,1.29606 -2.571511,-0.15823 c -1.557233,-0.0958 -2.742417,-0.008 -3.004784,0.22185 -0.291527,0.25575 -1.349312,0.24184 -3.233869,-0.0425 -1.816922,-0.27415 -2.952997,-0.29457 -3.234459,-0.0581 -0.295606,0.24825 -1.271368,0.18645 -3.061198,-0.194 -1.445054,-0.30715 -2.773323,-0.43655 -2.951718,-0.28756 -0.178374,0.14897 -1.00336,0.1431 -1.833257,-0.0132 -1.801762,-0.33916 -2.061693,-0.46784 -1.802675,-0.89248 z m 2.213748,0.35256 1.301401,0.0647 7.693327,-7.00511 c 4.231325,-3.8528 7.806703,-6.97038 7.945304,-6.92796 0.1386,0.0425 1.745855,1.64595 3.571705,3.56334 l 3.319749,3.48613 2.213606,0.0185 c 2.39817,0.0199 3.426388,-0.4454 2.732271,-1.23664 -0.25153,-0.28673 -1.130698,-0.47679 -2.386541,-0.5159 l -1.988295,-0.0619 -1.846447,-1.82819 c -1.015637,-1.00544 -2.583971,-2.79231 -3.485177,-3.97085 -1.291173,-1.68817 -1.74068,-2.13966 -2.11971,-2.12832 -0.522907,0.0156 -18.590105,16.09254 -18.368588,16.34505 0.06392,0.0728 0.701767,0.16147 1.417537,0.19707 z m 4.84145,0.37307 c 1.679579,0.37328 2.11342,0.35981 2.626504,-0.0815 0.773584,-0.66539 9.863425,-10.03834 10.630922,-10.962 0.556004,-0.66913 0.54815,-0.70862 -0.343193,-1.72469 l -0.912225,-1.03988 -3.576413,3.37415 c -1.967048,1.85579 -5.216929,4.81327 -7.221985,6.57218 -2.005036,1.7589 -3.548775,3.24676 -3.430528,3.30634 0.118307,0.0595 1.120368,0.30952 2.226918,0.55544 z m 6.628601,0.28168 1.90414,0.21352 3.665844,-4.94704 c 2.016237,-2.72088 3.671952,-5.03997 3.679379,-5.15355 0.0081,-0.11362 -0.371197,-0.5253 -0.841322,-0.91503 -0.813743,-0.67469 -0.881785,-0.67771 -1.418247,-0.0645 -0.309913,0.35421 -2.182517,2.30645 -4.161335,4.33827 -5.735411,5.889 -5.795011,5.95916 -5.223747,6.15042 0.270159,0.0904 1.347974,0.2605 2.395247,0.37793 z m 8.540736,-2.22556 c 2.818618,-6.2411 2.646311,-5.64732 1.889184,-6.5104 -0.466471,-0.53176 -0.738213,-0.67967 -0.860823,-0.4684 -0.09862,0.16983 -1.302111,1.798 -2.67468,3.61828 -1.372568,1.82027 -2.770624,3.71473 -3.106816,4.20992 l -0.611241,0.90032 2.216366,0.1566 2.216345,0.15663 z m 5.244629,-2.42706 0.499285,-2.16078 -1.13366,-0.10686 c -0.623498,-0.0588 -1.259172,-0.18113 -1.412566,-0.2719 -0.177156,-0.10479 -0.65136,0.67619 -1.29996,2.14117 l -1.021015,2.30618 1.934315,0.12648 1.934315,0.12649 z m -4.152345,-11.41305 c -0.424851,-0.9455 -0.530658,-1.88978 -0.413163,-3.68674 l 0.158082,-2.41568 1.503619,-1.31903 c 1.270475,-1.11451 1.699284,-1.34731 2.76543,-1.50139 1.414595,-0.20443 3.210655,0.14674 4.472566,0.87447 1.038792,0.59907 3.975473,3.90645 4.155572,4.68012 0.07265,0.31218 -0.137383,0.99799 -0.46698,1.52402 -0.773015,1.23406 -0.746655,1.54936 0.264802,3.16712 0.462109,0.73909 0.790447,1.52227 0.72965,1.7404 -0.229634,0.82402 -0.874338,1.50046 -1.859496,1.95108 -1.256351,0.57468 -2.363793,0.52708 -2.936904,-0.12622 -0.844142,-0.96227 -1.682602,-1.1808 -2.975866,-0.77561 -1.050967,0.32929 -1.417233,0.29647 -2.166324,-0.19416 -1.238716,-0.8113 -2.5486,-2.3999 -3.230866,-3.91839 z m 3.529192,3.51732 c 0.376047,0.24557 1.085526,0.24867 2.041421,0.009 1.270333,-0.31877 1.583106,-0.27976 2.352673,0.29345 1.600193,1.1919 1.961446,1.28032 3.047926,0.74599 1.663243,-0.81798 2.026668,-1.77248 1.08721,-2.85537 -0.998124,-1.15041 -1.161766,-2.34725 -0.494009,-3.61167 0.752642,-1.42515 0.626298,-1.7402 -1.638588,-4.08589 -1.876135,-1.9431 -3.425211,-2.65712 -5.397839,-2.48809 -1.170715,0.10031 -3.036481,1.26966 -3.808909,2.38719 -0.515682,0.74604 -0.838744,3.60217 -0.543929,4.8086 0.410321,1.67921 1.948215,3.87873 3.354044,4.79697 z m 10.870762,-2.53878 c -0.07245,-0.31097 -0.05337,-1.37283 0.04241,-2.35967 l 0.174316,-1.79426 -3.485583,-3.97333 c -3.157994,-3.59994 -3.478317,-4.03603 -3.408429,-4.64038 0.07082,-0.6116 0.873263,-1.34268 9.652562,-8.79336 7.414929,-6.29278 9.625512,-8.0692 9.797413,-7.87323 0.356768,0.40669 0.422233,3.29239 0.08178,3.60595 -0.170866,0.15752 -0.215632,1.49128 -0.09923,2.96403 0.144079,1.82413 0.07833,2.7997 -0.206298,3.0604 -0.271072,0.24831 -0.398815,1.37734 -0.363607,3.21448 0.03653,1.90555 -0.08746,2.95611 -0.378989,3.21187 -0.262367,0.23016 -0.503466,1.39385 -0.611262,2.9503 l -0.177968,2.57023 -1.356071,0.37215 -1.35607,0.37217 -0.169648,2.306 -0.169648,2.30601 -2.486281,0.22681 c -1.367435,0.12474 -2.544339,0.27774 -2.615324,0.34001 -0.07102,0.0623 -0.134338,0.45682 -0.140832,0.87677 -0.01826,1.21059 -0.300416,1.71881 -1.083456,1.95467 -0.821272,0.24738 -1.45372,-0.0988 -1.639846,-0.89762 z m 1.630207,0.22683 c 0.265085,-0.23363 0.570006,-1.32316 0.726504,-2.5969 l 0.269672,-2.19452 -3.021911,-3.73663 c -1.662046,-2.05513 -3.042326,-3.85817 -3.067306,-4.00673 -0.02516,-0.14942 3.52215,-3.29155 7.937734,-7.03123 l 7.98315,-6.7611 0.05479,-1.34558 c 0.03003,-0.74007 -0.01623,-1.34583 -0.101058,-1.34613 -0.08564,-3e-4 -4.291108,3.53812 -9.345328,7.86316 -7.79749,6.67253 -9.187389,7.93952 -9.175781,8.36417 0.01015,0.35514 0.549368,1.02951 1.858521,2.32247 1.014623,1.00212 2.560452,2.76259 3.435135,3.91216 l 1.590331,2.09016 -0.206642,1.97166 c -0.226631,2.16221 0.22797,3.2299 1.06231,2.49504 z m 3.860229,-3.03361 1.954365,-0.18006 0.127033,-1.94303 0.127033,-1.94304 -2.418564,0.71305 c -2.100534,0.61927 -2.397398,0.77176 -2.257499,1.15952 0.08868,0.24557 0.116684,0.8801 0.0625,1.41008 -0.05418,0.52997 0.02496,0.96358 0.176142,0.96357 0.151182,0 1.154177,-0.0811 2.229069,-0.18008 z m -4.486305,-5.27052 c 0.24804,-0.11215 2.513413,-1.36088 5.034172,-2.77495 2.520738,-1.41408 4.819127,-2.69722 5.107509,-2.85142 0.412858,-0.22074 0.51761,-0.78102 0.492609,-2.63461 -0.01826,-1.29483 -0.09578,-2.35842 -0.17391,-2.36353 -0.07833,-0.005 -2.490116,1.73017 -5.359749,3.8562 -2.869654,2.12603 -5.589404,4.12352 -6.043924,4.43887 -0.751546,0.52143 -0.791117,0.62872 -0.436763,1.18439 0.771129,1.20927 0.935846,1.34593 1.380117,1.14505 z m 5.375213,0.99873 4.064498,-1.21341 0.165995,-2.16612 c 0.09132,-1.19136 0.04708,-2.16482 -0.09801,-2.16323 -0.145297,0.002 -1.721099,0.83447 -3.501939,1.85085 -1.78084,1.01638 -3.8693,2.18983 -4.641017,2.60768 l -1.403109,0.75972 0.674555,0.76896 0.674575,0.76897 z m -6.824589,-3.67665 c 1.036214,-0.65359 11.506821,-8.44415 12.251001,-9.11524 0.504521,-0.45501 0.57232,-0.89826 0.418479,-2.73602 -0.101058,-1.20619 -0.236736,-2.19179 -0.301693,-2.19022 -0.06494,0.002 -3.439396,2.81735 -7.49878,6.25731 l -7.380695,6.25446 0.87931,1.00235 c 0.854207,0.97374 0.9008,0.98879 1.632378,0.52736 z m -69.4143,52.04407 c 0.398815,-0.12013 1.224248,-0.65626 1.834271,-1.1914 l 1.109107,-0.97296 -1.797136,-2.04863 -1.7971354,-2.04863 -1.0417948,1.1716 c -1.6358073,1.83969 -1.6634868,2.30924 -0.2323126,3.94069 1.1125965,1.26829 1.2525969,1.35186 1.9250008,1.14933 z m 25.554087,25.17547 c 2.015101,0.66605 6.417271,0.73267 8.499034,0.12865 3.135531,-0.90983 4.494706,-1.84689 11.196808,-7.71936 l 6.086376,-5.33302 -3.478906,-3.69677 c -1.913434,-2.03321 -4.703519,-5.0925 -6.200422,-6.79823 l -2.721637,-3.10134 -1.444872,1.26751 -1.444872,1.26747 1.218951,0.15951 c 1.729337,0.2264 2.857884,0.96585 4.108655,2.69225 1.977255,2.72908 2.486545,7.19909 1.031547,9.05366 -0.982925,1.25284 -10.932067,9.5224 -12.051361,10.01692 -2.35458,1.04023 -5.573798,-0.22101 -6.937763,-2.71811 -0.846902,-1.55045 -1.062513,-4.10472 -0.519497,-6.15427 l 0.408901,-1.5434 -1.763368,1.65182 c -1.669757,1.56409 -1.745105,1.6797 -1.419323,2.17777 0.318923,0.48753 0.268231,0.57469 -0.694888,1.19373 l -1.038954,0.66775 2.902203,3.16865 c 2.764233,3.01812 2.966877,3.19004 4.263449,3.61866 z m 0.214171,-3.68011 c 1.362685,-0.33977 5.931947,-2.45589 6.635379,-3.07297 1.039643,-0.912 0.770986,-1.51574 -2.131116,-4.78914 -1.381538,-1.55948 -2.797391,-3.03037 -3.145129,-3.26972 -0.593931,-0.40901 -0.699982,-0.37575 -1.755089,0.54985 -2.627499,2.30493 -3.08143,7.54568 -0.884809,10.215 0.346277,0.41935 0.68184,0.51631 1.280764,0.36698 z m 2.323552,1.41782 c 1.273418,0.0804 1.623368,-0.0357 3.218569,-1.06617 2.272232,-1.4679 10.357272,-8.53676 10.87614,-9.50913 1.313354,-2.46134 -0.132512,-7.59223 -2.708975,-9.61366 -0.408677,-0.32063 -1.475777,-0.67346 -2.398575,-0.79309 l -1.66237,-0.21549 -3.910617,3.4724 c -2.15086,1.90978 -4.040856,3.66489 -4.200053,3.90012 -0.266994,0.39456 -0.155444,0.55282 1.437525,2.03968 2.210745,2.06348 4.354138,4.76281 4.664152,5.87395 0.358595,1.28521 -0.629444,2.15628 -4.187736,3.692 -1.577202,0.68068 -2.927549,1.29018 -3.000827,1.35445 -0.375966,0.3298 0.61045,0.78541 1.872808,0.865 z m 19.679,-22.28915 c 1.986062,-1.74153 18.102995,-15.77217 35.815312,-31.17931 l 32.204221,-28.013 -0.82902,-0.94504 -0.82905,-0.94505 -9.96454,8.64284 c -5.48049,4.75357 -21.586798,18.79633 -35.791778,31.20615 l -25.827188,22.56328 0.805485,0.91821 0.805504,0.91821 3.611054,-3.16631 z m 5.646893,12.86119 3.595509,3.68449 1.98728,0.14631 1.987279,0.14631 2.596411,-2.27769 c 2.52504,-2.21506 2.610351,-2.26776 3.10568,-1.91459 6.315401,4.50248 16.193193,11.1575 16.600187,11.18411 0.442262,0.029 2.541193,-1.66168 11.658614,-9.39064 6.11558,-5.18424 11.35179,-9.55264 11.63605,-9.70756 0.63636,-0.34676 1.36859,0.18101 3.351,2.4154 l 1.45906,1.64447 2.24175,-0.16701 2.24177,-0.16701 16.23459,-14.14028 16.23459,-14.14026 0.17493,-1.03138 0.17492,-1.03138 -4.917,-5.60509 c -4.87755,-5.56009 -4.91663,-5.61203 -4.86186,-6.47615 0.0548,-0.8661 0.0956,-0.90759 7.12372,-7.26539 3.88775,-3.51686 14.28754,-12.72097 23.11065,-20.45358 l 16.04207,-14.05926 0.99148,0.14008 c 0.91122,0.12876 1.14237,0.31209 2.85506,2.26445 1.36303,1.55377 1.93634,2.06953 2.13446,1.92028 0.14895,-0.1123 4.56297,-3.98906 9.80896,-8.615073 l 9.53813,-8.410846 0.0183,-1.355526 c 0.0649,-4.843827 0.039,-5.00301 -1.1295,-6.913528 -1.31566,-2.151097 -1.31997,-3.069412 -0.0215,-4.605433 0.46325,-0.548031 4.11501,-3.774009 8.11497,-7.16885 l 7.2727,-6.172428 -3.33495,-3.796094 -3.33495,-3.796092 -2.86042,-0.291675 -2.86042,-0.291673 -7.58169,6.538182 c -6.97689,6.016577 -7.74729,6.621543 -9.65691,7.5832 -3.82987,1.928639 -6.55594,2.331649 -9.81596,1.45115 -1.95441,-0.527864 -5.58199,-2.363028 -7.02928,-3.556062 l -0.899,-0.74105 -2.53107,2.220355 -2.53106,2.220353 4.4154,4.992788 4.41541,4.992788 -0.063,1.267044 -0.063,1.267037 -2.78403,2.442264 -2.78402,2.442266 -1.44876,-0.168796 -1.44876,-0.168796 -23.6966,20.787635 -23.69658,20.78762 -4.54999,-5.18669 -4.54998,-5.18669 -21.30699,18.68959 c -11.718912,10.27922 -27.83763,24.3119 -35.819542,31.18356 l -14.5126,12.49389 2.686551,2.83107 c 1.477685,1.55709 4.304521,4.48917 6.28204,6.51563 z m 24.915145,-98.34094 5.491796,-4.817626 -0.435708,-0.496678 c -0.36655,-0.417836 -0.627861,-0.40635 -1.646177,0.07234 -1.053889,0.49541 -1.259801,0.49872 -1.59161,0.02557 -0.837648,-1.194387 -4.816469,-8.193505 -4.838304,-8.510997 -0.01623,-0.22356 5.024289,-4.705991 14.760768,-13.128718 l 14.7841,-12.789258 3.96778,3.111443 c 2.18227,1.711295 3.9626,3.190443 3.95629,3.286999 -0.006,0.09655 -0.50969,0.787722 -1.11864,1.535926 -0.99411,1.221486 -1.31522,2.148894 -0.90569,2.615733 0.0793,0.09049 2.70715,-2.083701 5.83951,-4.831531 l 5.69519,-4.996059 -0.44607,-0.508498 c -0.33051,-0.376751 -0.55394,-0.413887 -0.86235,-0.143329 -0.24398,0.214039 -0.76358,0.246317 -1.25552,0.07799 -0.46704,-0.159807 -1.18815,-0.125877 -1.62582,0.0765 -0.70293,0.325018 -0.94614,0.255053 -2.28839,-0.658351 -0.94534,-0.6433 -2.25015,-1.864638 -3.52121,-3.295938 l -2.01933,-2.273914 0.0311,-1.968198 c 0.0347,-2.195186 -0.45147,-3.650755 -1.48314,-4.440417 -1.01667,-0.77819 -2.87197,-1.196036 -4.304,-0.969337 -0.86514,0.136957 -1.38782,0.05499 -1.66511,-0.261075 -0.80404,-0.91656 -1.73761,-0.89078 -2.84252,0.07849 -1.35785,1.191163 -1.98517,2.523182 -1.56963,3.33282 l 0.32684,0.636817 -7.47037,6.553329 c -4.108723,3.604332 -11.276444,9.999502 -15.928278,14.211482 -8.334297,7.546267 -8.463035,7.652281 -8.810408,7.2563 -0.474,-0.540348 -2.268112,-0.588935 -3.325593,-0.09006 -1.199105,0.56569 -2.048828,1.906273 -1.778061,2.805202 0.116278,0.385994 0.558216,1.221796 0.982114,1.857346 0.701686,1.052067 0.732024,1.252693 0.338748,2.240342 -0.59251,1.487972 -0.255182,2.700127 1.227921,4.412343 l 1.206472,1.392839 1.966053,0.08257 1.966073,0.08257 2.260239,3.196558 c 1.243141,1.758104 2.413876,3.37167 2.601626,3.585701 0.279209,0.318265 0.163357,0.589593 -0.636344,1.489634 -0.618323,0.695952 -0.981768,1.360788 -0.988688,1.808603 -0.0061,0.389464 -0.225596,0.896406 -0.487942,1.12654 -0.420853,0.369206 -0.393011,0.514115 0.236757,1.232022 l 0.71372,0.813597 z m 3.560667,-5.970463 c 0.985218,-0.504702 1.170593,-0.502573 1.727044,0.01989 l 0.623356,0.585226 3.236406,-2.875407 c 1.780008,-1.581479 7.686492,-6.803384 13.125532,-11.604228 9.62133,-8.492468 9.8798,-8.73945 9.54501,-9.121096 -0.55201,-0.629245 -0.34005,-1.422637 0.68971,-2.581677 0.52879,-0.595178 1.00697,-1.236783 1.06261,-1.425791 0.0722,-0.245505 -0.9317,-1.159469 -3.51515,-3.20004 l -3.6163,-2.85639 -14.45572,12.681151 -14.455728,12.681152 1.996189,3.557774 c 2.747632,4.897034 2.684542,4.832349 4.037041,4.139492 z M 219.98051,224.17271 c 1.79675,-0.32125 3.98081,-0.69334 4.85349,-0.82687 9.10605,-1.39319 25.86063,-4.4917 25.87988,-4.78609 0.0122,-0.19846 -0.48213,-3.22849 -1.10025,-6.73315 -0.61813,-3.50464 -1.23343,-7.07374 -1.36732,-7.9313 -0.19745,-1.26471 -0.33461,-1.56324 -0.72604,-1.58051 -0.26543,-0.0122 -3.43052,0.57935 -7.03354,1.31346 -5.24999,1.0697 -8.53049,1.97339 -16.51857,4.55059 -5.4822,1.7687 -10.07197,3.35244 -10.19954,3.51937 -0.12743,0.16701 0.27982,3.1708 0.90529,6.67525 0.88325,4.94866 1.23803,6.37305 1.58852,6.37758 0.24813,0.004 1.92133,-0.25705 3.71808,-0.57833 z m -60.58825,-114.22266 23.60605,-20.708205 -0.82088,-0.809582 -0.82087,-0.809582 -1.22307,0.964973 -1.22305,0.96497 -1.50776,-1.718745 -1.50776,-1.718748 1.25284,-1.099047 1.25284,-1.099045 -4.17767,-4.49168 c -2.29772,-2.47043 -5.56984,-6.078659 -7.27137,-8.018303 l -3.09371,-3.526621 -1.63431,1.433685 -1.6343,1.433688 -1.77096,-2.135699 -1.77094,-2.1357 1.5176,-1.347229 c 1.50356,-1.334649 1.51367,-1.352949 1.09091,-1.965529 l -0.42674,-0.618344 -6.57523,5.97107 c -3.61639,3.284087 -14.10041,12.671145 -23.29785,20.860133 l -16.72261,14.88906 11.57636,13.19632 11.57637,13.19632 L 159.3922,109.95 Z m -16.47869,-21.176922 17.26622,-15.146636 4.28936,4.605483 c 2.35915,2.533019 4.90146,5.36426 5.64955,6.29167 l 1.36021,1.686187 -1.53795,1.324042 c -0.84585,0.728246 -8.01828,6.953419 -15.93866,13.833826 -7.92037,6.8804 -15.09799,13.05349 -15.95029,13.71797 l -1.54964,1.20815 -5.42753,-6.18705 -5.42749,-6.187 z m -4.23352,24.977002 c 1.15416,-0.99736 2.313,-1.93811 2.57517,-2.09058 0.26214,-0.15248 6.97981,-5.97292 14.92809,-12.934319 L 170.63473,86.0681 167.80909,82.869207 c -1.55415,-1.759336 -3.90749,-4.395896 -5.22969,-5.858968 l -2.40402,-2.660122 -16.88215,14.80974 -16.88218,14.809743 5.08527,5.79688 5.08527,5.7969 2.0985,-1.81336 z m 18.27855,40.77296 2.85082,2.97934 2.29506,0.39211 c 1.2623,0.21565 2.49116,0.38208 2.73077,0.36983 0.2589,-0.0132 1.58199,-1.07208 3.26086,-2.6096 l 2.8252,-2.58732 -0.61512,-0.70117 -0.6151,-0.70118 15.15328,-13.29308 15.15327,-13.29308 0.71373,0.8136 0.71372,0.8136 2.31657,-2.03219 c 2.68347,-2.35406 2.52285,-1.91229 2.42175,-6.66054 l -0.0684,-3.21626 -4.28883,-4.889 c -3.95949,-4.51358 -4.35108,-4.89965 -5.09951,-5.02755 l -0.81068,-0.13854 -22.88566,20.1686 c -17.5285,15.44748 -22.90453,20.28699 -22.96622,20.67431 -0.0442,0.27814 0.008,0.75817 0.11466,1.06673 0.24418,0.70147 3.0771,3.98081 6.79983,7.8714 z m 33.14146,-5.9544 c 10.78116,-9.43007 20.43476,-17.85811 21.45242,-18.72898 l 1.85033,-1.58339 -1.413,-1.72986 -1.41297,-1.72987 -21.4669,18.83165 -21.46688,18.83164 1.42744,1.6272 1.42744,1.62719 z m 26.37999,61.45897 c 14.16742,-4.61465 17.53151,-5.70138 19.14354,-6.18416 3.88797,-1.16437 11.49004,-3.72687 11.49511,-3.87472 0.008,-0.21095 -4.96207,-15.32182 -5.15086,-15.66294 -0.14793,-0.26724 -9.83467,2.94624 -12.61996,4.18649 -1.49384,0.66518 -18.82808,9.79295 -19.52378,10.28073 -0.31919,0.22385 -0.13637,1.10379 0.87316,4.20188 1.50088,4.60599 2.56782,7.7475 2.68783,7.91407 0.0471,0.0653 1.43982,-0.32225 3.09496,-0.86135 z m -27.93858,-66.62059 18.40768,-16.14797 -1.1598,-1.32209 -1.1598,-1.3221 -1.6272,1.42744 -1.6272,1.42745 -0.71372,-0.8136 -0.71372,-0.8136 -14.73359,12.92491 -14.7336,12.92492 0.51617,0.71696 0.51617,0.71696 -1.93208,1.79791 -1.93208,1.79791 1.24255,1.41643 1.24255,1.41644 z m -8.97624,21.60165 0.81005,0.13909 16.15675,-14.17337 c 13.39508,-11.75072 16.17244,-14.27157 16.24847,-14.74781 0.0718,-0.45023 -0.22902,-0.94005 -1.39162,-2.26534 l -1.48333,-1.69091 -2.24978,1.84605 c -1.23736,1.01534 -8.88229,7.62507 -16.98872,14.68828 l -14.73895,12.84222 1.41354,1.61134 c 1.12587,1.28344 1.57838,1.63965 2.22357,1.75044 z m 31.34328,32.51274 c 1.62809,-0.87856 6.79054,-3.60907 12.59959,-6.6642 14.19658,-7.46637 17.11419,-9.02098 17.12951,-9.1273 0.0101,-0.0655 -0.17797,-0.48692 -0.4166,-0.93672 -3.62432,-6.83391 -7.30161,-13.67235 -7.43221,-13.82122 -0.27647,-0.31515 -9.98496,5.47059 -15.12705,9.01489 -2.65236,1.82819 -6.97892,4.80362 -9.61455,6.61207 -2.63566,1.80844 -4.8685,3.41736 -4.96189,3.57536 -0.15504,0.26241 5.05278,10.27878 6.00871,11.55662 0.37292,0.4985 0.5377,0.47948 1.81449,-0.2095 z m -0.33437,-17.30516 c 4.27181,-2.91574 9.02245,-6.178 10.55702,-7.24948 1.53454,-1.07147 4.32432,-2.96868 6.19949,-4.21603 1.87518,-1.24733 3.64975,-2.47566 3.94349,-2.72962 0.60142,-0.51949 1.20202,0.49936 -5.03251,-8.53588 -1.48907,-2.15801 -2.97936,-4.33296 -3.31173,-4.83322 l -0.60435,-0.90957 -2.5779,2.30247 c -1.41831,1.26581 -7.07035,5.95137 -12.56116,10.41113 -5.4908,4.45975 -10.50883,8.55984 -11.15118,9.11133 l -1.16779,1.00284 0.63621,0.98984 c 1.71637,2.67045 6.87147,9.9082 7.07357,9.93132 0.12662,0.0142 3.72512,-2.35931 7.99692,-5.27503 z m -16.23112,-6.00606 c 0.48376,-0.33611 16.77852,-13.64743 23.10724,-18.8765 l 4.01701,-3.31901 -1.30613,-1.49323 c -2.28908,-2.61677 -8.38988,-9.99922 -8.80586,-10.65583 l -0.40097,-0.63291 -13.31331,11.58387 c -7.32233,6.37113 -13.33826,11.70267 -13.36893,11.84765 -0.0306,0.14508 1.81011,2.49854 4.09042,5.22991 2.2803,2.73138 4.14651,5.02291 4.14713,5.09231 5.9e-4,0.0694 0.31492,0.44155 0.69844,0.82699 0.53258,0.53522 0.80077,0.62895 1.13503,0.39671 z m 57.94705,39.84975 c 0.0747,-0.12115 -0.1597,-2.03596 -0.52116,-4.25495 l -0.65704,-4.03452 -0.82501,0.0536 c -0.45375,0.0294 -0.89189,0.10857 -0.97365,0.17594 -0.0822,0.0668 0.0664,1.26993 0.32933,2.67249 0.2629,1.40254 0.58742,3.26062 0.72115,4.12905 l 0.24315,1.57897 0.77366,-0.0499 c 0.42555,-0.0274 0.83483,-0.14916 0.90957,-0.27041 z M 247.2562,195.5146 c 0.41177,-0.12399 0.75427,-0.31312 0.76125,-0.42027 0.0142,-0.23103 -2.06727,-6.93829 -2.34835,-7.56402 -0.13292,-0.29601 -0.48622,-0.35991 -1.12061,-0.20272 -0.91931,0.22774 -0.92418,0.23525 -0.63148,0.97661 0.16214,0.41089 0.73241,2.14497 1.26707,3.85347 0.53468,1.70854 1.05121,3.2135 1.14785,3.34439 0.0968,0.13088 0.51255,0.13657 0.92425,0.0122 z m -7.3289,-18.25111 c 0.36062,-0.20946 0.65755,-0.49153 0.65978,-0.62684 0.002,-0.13531 -0.74857,-1.69114 -1.66858,-3.45753 -0.92002,-1.76641 -1.76059,-3.40377 -1.86792,-3.63858 -0.14327,-0.31318 -0.39626,-0.31607 -0.94985,-0.0108 -0.41507,0.22887 -0.76094,0.51204 -0.76867,0.62923 -0.0162,0.24458 3.25447,6.6103 3.6667,7.13689 0.17025,0.2175 0.51933,0.20533 0.92848,-0.0324 z m -9.29695,-16.13688 0.60511,-0.64367 -1.88987,-2.8412 c -2.70324,-4.06396 -2.67138,-4.03222 -3.55712,-3.54384 -0.40985,0.22591 -0.74929,0.47428 -0.75435,0.55187 -0.0122,0.1858 3.49409,5.2992 4.33555,6.32295 0.63959,0.77813 0.67021,0.78184 1.26066,0.15386 z m -10.95928,-13.35418 0.68121,-0.59759 -1.60835,-2.09836 c -0.88461,-1.1541 -2.06959,-2.62507 -2.63331,-3.26883 -0.89741,-1.02506 -1.07883,-1.1299 -1.45848,-0.84412 -0.23847,0.17949 -0.55601,0.41757 -0.70565,0.52906 -0.26062,0.19416 0.91848,1.84308 4.05677,5.67332 l 0.9866,1.2041 z M 160.78642,69.595651 c 0.19238,-0.07099 1.52649,-1.134939 2.96489,-2.364317 l 2.61528,-2.235238 -1.41851,-1.617018 -1.41853,-1.617019 -2.76815,2.280853 c -1.52249,1.254472 -2.80725,2.374786 -2.85496,2.489637 -0.15788,0.379899 2.4976,3.204336 2.88002,3.063144 z m 20.42917,17.250885 2.23739,-1.962737 -1.1598,-1.322096 -1.1598,-1.3221 -2.23739,1.962737 -2.23741,1.962738 1.1598,1.322098 1.1598,1.322098 z m -19.09572,-24.639976 1.4113,-1.058094 1.69511,1.932298 1.69508,1.932297 -1.35211,1.293866 -1.35212,1.293871 5.50744,6.007295 c 3.0291,3.304016 6.29733,6.907686 7.2627,8.00816 l 1.75525,2.000864 1.22678,-1.076183 c 0.79455,-0.697023 1.33923,-1.016313 1.54593,-0.906253 0.17554,0.09347 0.85234,0.916945 1.50403,1.829959 l 1.18488,1.660025 -1.22777,0.959601 -1.22777,0.959616 1.02983,1.173936 c 0.87449,0.996863 1.18775,1.187672 2.07683,1.264958 1.03888,0.0903 1.0669,0.07356 3.61508,-2.161813 l 2.56809,-2.252832 0.0488,-1.111054 0.0488,-1.111056 -7.58943,-8.380685 C 179.37239,69.855959 173.81476,63.763189 171.19631,60.92585 l -4.76082,-5.1588 -1.21516,-0.116299 -1.21514,-0.116298 -2.29057,2.233497 c -2.80799,2.738002 -3.08182,3.452189 -1.8056,4.709244 l 0.79952,0.787497 z m 19.79249,9.586681 0.68473,0.524112 2.46772,-2.164797 2.46774,-2.164798 -0.89303,-1.015118 -0.89302,-1.015121 -2.59388,2.274381 c -2.87085,2.517343 -2.81474,2.355909 -1.24007,3.561211 z m 8.69368,-2.198782 c 4.4167,2.973698 8.8207,3.646248 12.90974,1.971484 3.41529,-1.398815 5.41773,-2.892148 12.46728,-9.297581 l 6.60937,-6.00543 3.18313,0.448813 c 2.8396,0.400366 3.26129,0.537877 3.90709,1.274057 l 0.72395,0.825248 3.52229,-3.062369 c 1.93726,-1.684318 3.7089,-3.17191 3.93698,-3.305792 0.24438,-0.143491 0.37582,-0.625394 0.32008,-1.173725 -0.0925,-0.910031 -0.37088,-1.245251 -12.77886,-15.389574 l -12.68428,-14.45928 -0.89092,-0.121007 -0.89091,-0.121006 -11.41653,10.015049 c -9.55552,8.382497 -11.52229,10.024307 -12.06538,10.071829 -0.61866,0.05414 -0.86036,-0.190895 -5.19438,-5.265652 -4.42537,-5.181717 -4.61263,-5.369929 -7.08312,-7.118745 -2.44326,-1.729522 -3.9664,-2.367318 -4.51151,-1.889121 -0.35831,0.314324 3.39694,4.929415 11.89253,14.615566 l 6.79626,7.748544 -1.6073,2.373286 c -1.95578,2.887844 -2.71676,4.701421 -3.02652,7.212884 -0.53608,4.346385 1.20862,7.506571 5.88108,10.652468 z M 210.3594,46.497968 c -0.96512,-2.020866 -1.15553,-3.843057 -0.55101,-5.273422 1.19754,-2.833605 3.71157,-4.282107 6.74872,-3.888402 1.73548,0.224971 3.02783,0.933017 4.25385,2.330597 1.93271,2.203177 2.42087,4.413132 1.55342,7.032256 -1.11514,3.366912 -5.18873,4.971923 -8.50858,3.352413 -1.26745,-0.618299 -2.87481,-2.251866 -3.4964,-3.553442 z m 4.17325,3.153109 c 2.44121,0.990275 5.39733,0.211802 6.62241,-1.743977 0.83814,-1.338005 1.25313,-3.604253 0.89979,-4.913593 -0.38165,-1.41426 -1.85451,-3.423054 -3.13245,-4.272267 -1.94166,-1.290259 -5.41099,-1.086028 -7.11766,0.419 -1.17426,1.035521 -2.02445,3.248524 -1.78814,4.654435 0.45379,2.699894 2.14674,4.895291 4.51605,5.856402 z M 188.75601,32.35954 c 2.83595,-2.488889 5.28302,-4.798851 5.60554,-5.291314 0.86421,-1.319651 0.66894,-2.019026 -1.13925,-4.08024 -3.00694,-3.427726 -3.00126,-3.429256 -10.01598,2.724348 l -5.19323,4.555711 2.85488,3.254394 2.8549,3.254394 5.03307,-4.417378 z m 50.01311,17.315918 c 0.26833,-0.235376 -1.21154,-1.996543 -12.27426,-14.60732 -11.06269,-12.610782 -12.61613,-14.307409 -12.88444,-14.072032 -0.26831,0.235377 1.21157,1.996543 12.27426,14.607323 11.06269,12.610777 12.61613,14.307406 12.88444,14.072029 z m 1.79281,-0.07137 c 0.50875,0.05883 0.9613,-0.18507 1.94581,-1.048724 l 1.28287,-1.1254 0.31454,-3.573791 0.31456,-3.573792 -10.40098,-11.603052 -10.40099,-11.60305 -3.77508,-0.19745 -3.77508,-0.197449 -1.04013,1.14131 c -0.57209,0.627707 -1.07538,1.33193 -1.11844,1.564923 -0.0613,0.331981 2.74134,3.637821 12.95585,15.281725 11.87802,13.540187 13.09296,14.864904 13.69707,14.934769 z"
     id="path869" />
  <path
     style="font-variation-settings:normal;opacity:1;vector-effect:none;fill:#ff2a2a;fill-opacity:1;stroke-width:0.243703;stroke-linecap:butt;stroke-linejoin:miter;stroke-miterlimit:4;stroke-dasharray:none;stroke-dashoffset:0;stroke-opacity:1;stop-color:#000000;stop-opacity:1"
     d="m 191.18502,171.44587 c -1.27296,-1.57492 -3.36892,-4.16529 -4.65769,-5.75635 -2.29575,-2.83427 -2.33434,-2.90294 -1.90551,-3.39113 0.24073,-0.27405 6.25,-5.58637 13.35393,-11.80514 l 12.91624,-11.30687 0.60925,0.80036 c 0.33509,0.44019 2.52842,3.09527 4.87405,5.90016 2.34564,2.80489 4.45705,5.3455 4.69202,5.6458 l 0.42723,0.54599 -9.93163,8.14256 c -15.8955,13.03214 -17.21864,14.08813 -17.65214,14.08813 -0.23123,0 -1.42443,-1.2535 -2.72575,-2.86351 z"
     id="path871" />
  <path
     style="font-variation-settings:normal;opacity:1;vector-effect:none;fill:#ff5555;fill-opacity:1;stroke-linecap:butt;stroke-linejoin:miter;stroke-miterlimit:4;stroke-dasharray:none;stroke-dashoffset:0;stroke-opacity:1;stop-color:#000000;stop-opacity:1"
     d="m 217.28624,146.34451 c -1.91624,-2.30794 -3.34797,-4.29462 -3.34797,-4.64563 0,-0.14394 0.24201,-0.43122 0.53779,-0.63839 0.50246,-0.35194 0.58331,-0.3331 1.23019,0.28666 0.93743,0.89811 4.56828,5.5524 4.56828,5.85595 0,0.21686 -1.03482,1.03011 -1.31076,1.03011 -0.0602,0 -0.81506,-0.84992 -1.67753,-1.8887 z"
     id="path881" />
  <path
     style="font-variation-settings:normal;opacity:1;vector-effect:none;fill:#ff5555;fill-opacity:1;stroke-linecap:butt;stroke-linejoin:miter;stroke-miterlimit:4;stroke-dasharray:none;stroke-dashoffset:0;stroke-opacity:1;stop-color:#000000;stop-opacity:1"
     d="m 228.85318,160.35741 c -0.51761,-0.70369 -1.61474,-2.26644 -2.43805,-3.47276 l -1.49692,-2.19333 0.54166,-0.42106 c 1.06106,-0.8248 1.19615,-0.71021 3.8729,3.28521 l 1.94936,2.90967 -0.55038,0.58586 c -0.3027,0.32221 -0.63747,0.58585 -0.74391,0.58585 -0.10644,0 -0.61704,-0.57575 -1.13466,-1.27944 z"
     id="path883" />
  <path
     style="font-variation-settings:normal;opacity:1;vector-effect:none;fill:#ff5555;fill-opacity:1;stroke-linecap:butt;stroke-linejoin:miter;stroke-miterlimit:4;stroke-dasharray:none;stroke-dashoffset:0;stroke-opacity:1;stop-color:#000000;stop-opacity:1"
     d="m 238.46164,176.44177 c -0.32919,-0.56965 -1.18373,-2.22314 -1.89896,-3.67441 l -1.30044,-2.63868 0.58522,-0.47654 c 0.32187,-0.2621 0.70571,-0.44115 0.85296,-0.39791 0.14726,0.0433 1.11228,1.71926 2.1445,3.72448 1.87144,3.63551 1.87534,3.64705 1.37429,4.07232 -0.75928,0.64445 -1.10166,0.52576 -1.75757,-0.60926 z"
     id="path885" />
  <path
     style="font-variation-settings:normal;opacity:1;vector-effect:none;fill:#ff5555;fill-opacity:1;stroke-linecap:butt;stroke-linejoin:miter;stroke-miterlimit:4;stroke-dasharray:none;stroke-dashoffset:0;stroke-opacity:1;stop-color:#000000;stop-opacity:1"
     d="m 246.44811,195.56686 c -0.14749,-0.0975 -0.84623,-1.91716 -1.55278,-4.04376 -1.39063,-4.18562 -1.38584,-4.36989 0.11029,-4.23913 0.7161,0.0626 0.74321,0.1182 1.91357,3.92567 0.65295,2.1242 1.09374,3.94878 0.97953,4.05463 -0.34531,0.32002 -1.16539,0.49109 -1.45061,0.30259 z"
     id="path887" />
  <path
     style="font-variation-settings:normal;opacity:1;vector-effect:none;fill:#ff5555;fill-opacity:1;stroke-linecap:butt;stroke-linejoin:miter;stroke-miterlimit:4;stroke-dasharray:none;stroke-dashoffset:0;stroke-opacity:1;stop-color:#000000;stop-opacity:1"
     d="m 250.64051,214.31706 c -0.25212,-0.40794 -1.40927,-7.86046 -1.27487,-8.2107 0.14128,-0.36817 1.85425,-0.53041 1.86432,-0.17658 0.003,0.10053 0.27367,1.93531 0.6018,4.07729 0.32813,2.14198 0.51771,3.96472 0.42128,4.05055 -0.31614,0.28138 -1.48295,0.4691 -1.61253,0.25944 z"
     id="path889" />
  <path
     style="font-variation-settings:normal;opacity:1;vector-effect:none;fill:#ffdd55;fill-opacity:1;stroke-linecap:butt;stroke-linejoin:miter;stroke-miterlimit:4;stroke-dasharray:none;stroke-dashoffset:0;stroke-opacity:1;stop-color:#000000;stop-opacity:1"
     d="m 34.380886,234.0642 c -0.663897,-0.0734 -1.968358,-0.34088 -2.898803,-0.59436 -1.819888,-0.4958 -5.242898,-1.70935 -5.471194,-1.93969 -0.242306,-0.24448 -2.778528,-8.85754 -2.778528,-9.43594 0,-0.30388 0.317937,-1.18485 0.706527,-1.95772 1.142537,-2.27239 1.003844,-2.98668 -1.01671,-5.23623 l -1.120104,-1.24705 0.0381,-0.98879 c 0.02095,-0.54383 0.195432,-1.41917 0.387729,-1.9452 0.192297,-0.52603 0.508821,-1.39231 0.703388,-1.92506 0.652439,-1.78648 0.310739,-2.17061 -2.255261,-2.53532 l -1.416834,-0.20137 1.272553,-1.20608 c 1.733316,-1.64278 4.368611,-3.89713 6.424943,-5.49619 1.367909,-1.06372 1.748147,-1.28361 1.908986,-1.10395 0.110465,0.12339 1.017829,1.15489 2.016365,2.29223 2.289946,2.60826 3.38705,3.632 4.321529,4.03257 1.478346,0.63369 3.210666,0.91029 5.640275,0.90058 2.2662,-0.009 2.47611,-0.0411 5.342036,-0.81421 0.523979,-0.14136 0.563186,-0.18308 -1.637076,1.74239 -0.94778,0.82941 -1.789535,1.56794 -1.870567,1.64117 -0.211474,0.19112 0.689824,5.88218 1.34989,8.52361 0.649441,2.5989 1.3843,4.45855 2.364281,5.98308 2.055119,3.19711 6.318437,7.72088 8.234821,8.7379 1.032941,0.54819 1.082104,0.60003 0.686789,0.72433 -0.475344,0.14946 -8.698846,1.16632 -13.608555,1.68273 -4.228319,0.44474 -5.873299,0.52707 -7.324577,0.36657 z"
     id="path891" />
  <path
     style="font-variation-settings:normal;opacity:1;vector-effect:none;fill:#ffdd55;fill-opacity:1;stroke-linecap:butt;stroke-linejoin:miter;stroke-miterlimit:4;stroke-dasharray:none;stroke-dashoffset:0;stroke-opacity:1;stop-color:#000000;stop-opacity:1"
     d="m 35.035034,200.41424 c -1.619841,-1.77153 -1.890287,-5.47374 -0.601087,-8.22846 0.541036,-1.15607 2.082145,-2.75718 2.653851,-2.75718 0.70882,0 5.444725,5.06927 6.212722,6.65004 l 0.368635,0.75876 -0.351536,0.47445 c -0.652342,0.88043 -6.191755,3.49479 -7.398043,3.49154 -0.328362,-8.8e-4 -0.664899,-0.14894 -0.884542,-0.38915 z"
     id="path893" />
  <path
     style="font-variation-settings:normal;opacity:1;vector-effect:none;fill:#ffdd55;fill-opacity:1;stroke-linecap:butt;stroke-linejoin:miter;stroke-miterlimit:4;stroke-dasharray:none;stroke-dashoffset:0;stroke-opacity:1;stop-color:#000000;stop-opacity:1"
     d="m 39.822859,246.10806 c -0.991396,-0.1945 -2.355712,-0.64319 -3.114784,-1.02437 -1.005663,-0.50501 -2.807355,-1.90915 -2.647993,-2.0637 0.203894,-0.19775 16.780077,-2.23478 18.208446,-2.23762 l 0.654451,-10e-4 -1.171422,1.05067 c -2.519797,2.26005 -4.935343,3.68031 -7.145604,4.20137 -1.179748,0.27812 -3.557638,0.31538 -4.783094,0.075 z"
     id="path895" />
  <path
     style="font-variation-settings:normal;opacity:1;vector-effect:none;fill:#ffdd55;fill-opacity:1;stroke-linecap:butt;stroke-linejoin:miter;stroke-miterlimit:4;stroke-dasharray:none;stroke-dashoffset:0;stroke-opacity:1;stop-color:#000000;stop-opacity:1"
     d="m 82.737635,98.554003 c -0.592765,-0.719126 -0.667893,-1.10957 -0.276071,-1.434754 0.143015,-0.118691 0.30984,-0.52731 0.370721,-0.90804 0.07115,-0.444923 0.409205,-1.086625 0.946238,-1.796144 0.45955,-0.60715 0.835545,-1.182012 0.835545,-1.277469 0,-0.383799 -4.860106,-6.963808 -5.223266,-7.071688 -0.20749,-0.06164 -1.113938,-0.124152 -2.01433,-0.138925 l -1.637075,-0.02686 -0.861619,-1.023996 c -1.797116,-2.135791 -2.141037,-3.263973 -1.536166,-5.039171 0.303724,-0.891383 0.384992,-0.619507 -0.878907,-2.940344 -0.601838,-1.105126 -0.630874,-1.225232 -0.445658,-1.84343 0.235277,-0.785282 1.062609,-1.661854 1.907743,-2.021283 0.816963,-0.347448 2.446189,-0.342921 2.982197,0.0083 0.666953,0.437004 -0.10641,1.072286 12.546905,-10.306711 4.720667,-4.245246 12.501548,-11.147548 18.772518,-16.652819 0.89573,-0.786365 1.07358,-1.022843 0.90071,-1.197649 -0.41822,-0.4229 -0.25582,-1.600372 0.34464,-2.498861 0.6114,-0.914843 2.00912,-1.958121 2.62337,-1.958121 0.21301,0 0.6889,0.209039 1.05755,0.46453 0.6189,0.428936 0.8089,0.465777 2.47966,0.480804 1.50311,0.01352 1.96381,0.08487 2.72159,0.421534 1.86282,0.827594 2.5175,2.203144 2.49733,5.247133 l -0.0113,1.702774 1.33428,1.485214 c 1.85079,2.060161 3.78065,3.858513 4.75081,4.427062 0.76312,0.44722 0.87745,0.467164 1.69876,0.296326 0.48432,-0.100741 1.27638,-0.144466 1.76015,-0.09716 0.50644,0.04952 1.03718,0.0017 1.25109,-0.112829 0.31919,-0.170827 0.4329,-0.132602 0.80732,0.271405 l 0.4358,0.470236 -0.39447,0.37242 c -2.50661,2.366551 -10.81595,9.385171 -11.11108,9.385171 -0.27861,0 -0.29677,-0.747772 -0.0306,-1.260675 0.10742,-0.207019 0.5727,-0.889931 1.03394,-1.517581 0.46124,-0.627651 0.83862,-1.192227 0.83862,-1.254613 0,-0.06239 -0.2832,-0.363083 -0.62934,-0.668216 -1.02226,-0.901171 -7.02844,-5.627663 -7.1584,-5.633228 -0.17995,-0.0077 -22.138868,19.024535 -27.415589,23.761645 -1.593699,1.430723 -2.016985,1.903058 -1.965862,2.19366 0.07749,0.440466 4.07771,7.502995 4.668492,8.242385 l 0.410305,0.513514 0.927122,-0.384272 c 1.166375,-0.483435 1.543519,-0.482782 1.999197,0.0035 l 0.363354,0.387728 -5.406904,4.735582 c -2.973798,2.604569 -5.480326,4.760055 -5.570063,4.789967 -0.08974,0.02991 -0.404403,-0.238284 -0.699257,-0.595994 z"
     id="path897" />
  <path
     style="font-variation-settings:normal;opacity:1;vector-effect:none;fill:#ffdd55;fill-opacity:1;stroke-linecap:butt;stroke-linejoin:miter;stroke-miterlimit:4;stroke-dasharray:none;stroke-dashoffset:0;stroke-opacity:1;stop-color:#000000;stop-opacity:1"
     d="m 196.45216,72.210434 c -3.09107,-0.663431 -6.58306,-2.689625 -9.00589,-5.225576 -2.72717,-2.854495 -3.46841,-6.001113 -2.35777,-10.008968 0.44573,-1.608493 1.09663,-2.888411 2.78123,-5.468994 0.92894,-1.423022 1.32596,-2.178191 1.22923,-2.338113 -0.0786,-0.129916 -2.27966,-2.673619 -4.89128,-5.652669 -6.35562,-7.249814 -9.00984,-10.343973 -11.04262,-12.87297 -2.68227,-3.337025 -2.93604,-3.83069 -1.9692,-3.83069 0.64859,0 1.62597,0.477491 3.44536,1.683198 2.29391,1.520164 3.71134,2.899812 7.38845,7.191473 3.36791,3.93079 4.52256,5.192 4.98621,5.446381 0.64762,0.355316 1.31505,-0.185743 14.73764,-11.947268 l 9.18895,-8.051801 0.81098,0.105635 c 0.44604,0.0581 0.91985,0.191855 1.05291,0.297234 0.25258,0.200019 20.86842,23.711756 23.09665,26.341014 1.84279,2.174449 2.24988,2.840984 2.25075,3.685215 6.9e-4,0.620607 -0.0822,0.775105 -0.64548,1.204498 -0.35541,0.270915 -2.09172,1.746533 -3.85845,3.279153 l -3.21224,2.78658 -0.57888,-0.608232 c -0.81962,-0.861174 -1.37444,-1.048421 -4.48696,-1.514311 l -2.75712,-0.412692 -5.12374,4.640207 c -8.16523,7.394681 -10.2523,9.022918 -13.27565,10.357076 -2.61824,1.155383 -5.21555,1.461391 -7.76308,0.91462 z m 22.97402,-22.278388 c 1.80444,-0.888325 2.89548,-2.469426 3.17836,-4.606009 0.28866,-2.180255 -0.28685,-3.8885 -1.91686,-5.689726 -1.55141,-1.714355 -3.39545,-2.447849 -5.67382,-2.256838 -1.5353,0.128714 -2.75962,0.715907 -3.79041,1.817909 -1.08518,1.160136 -1.53787,2.123953 -1.63534,3.481771 -0.14784,2.0594 0.71584,4.188747 2.3699,5.84281 1.61816,1.618154 2.79045,2.096283 4.94114,2.015277 1.16808,-0.044 1.59453,-0.146125 2.52703,-0.605194 z"
     id="path901" />
  <path
     style="font-variation-settings:normal;opacity:1;vector-effect:none;fill:#ffdd55;fill-opacity:1;stroke-linecap:butt;stroke-linejoin:miter;stroke-miterlimit:4;stroke-dasharray:none;stroke-dashoffset:0;stroke-opacity:1;stop-color:#000000;stop-opacity:1"
     d="m 240.10505,49.370507 c -0.67694,-0.42861 -4.17346,-4.310328 -14.23418,-15.802324 -8.03709,-9.180475 -11.22146,-12.895568 -11.76686,-13.727955 -0.27876,-0.425429 -0.27274,-0.467032 0.15713,-1.086247 0.24585,-0.354131 0.74581,-0.977598 1.11103,-1.385482 l 0.66403,-0.741607 3.77847,0.20157 c 2.07816,0.110864 3.83175,0.250723 3.89686,0.310798 0.0651,0.06008 4.7602,5.291003 10.43351,11.624284 l 10.31512,11.515057 -0.21336,2.443164 c -0.45664,5.229048 -0.30165,4.627425 -1.44915,5.625487 -0.55599,0.483587 -1.26968,0.987376 -1.58597,1.119531 -0.5194,0.217019 -0.62654,0.207698 -1.10663,-0.09628 z"
     id="path903" />
  <path
     style="font-variation-settings:normal;opacity:1;vector-effect:none;fill:#ffdd55;fill-opacity:1;stroke-linecap:butt;stroke-linejoin:miter;stroke-miterlimit:4;stroke-dasharray:none;stroke-dashoffset:0;stroke-opacity:1;stop-color:#000000;stop-opacity:1"
     d="m 182.82951,88.259262 c -0.73506,-0.746281 -1.10792,-1.295671 -0.95103,-1.40129 0.99481,-0.669704 2.0566,-1.613505 2.0566,-1.828061 0,-0.373535 -2.27078,-3.32835 -2.56334,-3.335503 -0.1365,-0.0033 -0.78853,0.440453 -1.44896,0.986203 l -1.20079,0.992274 -1.13973,-1.296902 c -0.62685,-0.713295 -3.88716,-4.312721 -7.24513,-7.998722 l -6.10539,-6.701819 1.30828,-1.340364 1.30828,-1.340364 -0.65638,-0.736941 c -0.36101,-0.405318 -1.10641,-1.252431 -1.65644,-1.882475 l -1.00006,-1.145533 -1.2982,0.96859 c -0.71401,0.532724 -1.42988,0.96859 -1.59082,0.96859 -0.16094,0 -0.59012,-0.390054 -0.95375,-0.866786 -0.48853,-0.640501 -0.62052,-1.028561 -0.5056,-1.486465 0.0856,-0.340823 1.18245,-1.67801 2.43757,-2.971528 l 2.28204,-2.351851 1.24727,0.08487 1.24727,0.08487 5.2977,5.763986 c 19.8527,21.600079 19.98337,21.757543 19.37606,23.349396 -0.1069,0.280194 -1.28939,1.455328 -2.62776,2.611406 -2.19269,1.894047 -2.53108,2.101966 -3.42099,2.101966 -0.8636,0 -1.13942,-0.154132 -2.1967,-1.227556 z"
     id="path905" />
  <path
     style="font-variation-settings:normal;opacity:1;vector-effect:none;fill:#ffdd55;fill-opacity:1;stroke-linecap:butt;stroke-linejoin:miter;stroke-miterlimit:4;stroke-dasharray:none;stroke-dashoffset:0;stroke-opacity:1;stop-color:#000000;stop-opacity:1"
     d="m 159.23099,68.29715 c -0.75464,-0.791166 -1.37208,-1.540363 -1.37208,-1.664883 0,-0.12452 1.27904,-1.289254 2.8423,-2.588299 l 2.8423,-2.361899 1.11787,1.27129 c 1.98031,2.252105 2.05797,1.86093 -0.84967,4.279797 -1.42025,1.181512 -2.72321,2.227915 -2.89546,2.32534 -0.2014,0.113912 -0.80291,-0.336297 -1.68526,-1.261346 z"
     id="path907" />
  <path
     style="font-variation-settings:normal;opacity:1;vector-effect:none;fill:#ffdd55;fill-opacity:1;stroke-linecap:butt;stroke-linejoin:miter;stroke-miterlimit:4;stroke-dasharray:none;stroke-dashoffset:0;stroke-opacity:1;stop-color:#000000;stop-opacity:1"
     d="m 177.72784,87.476273 -1.12729,-1.279439 1.41302,-1.286122 c 0.77716,-0.707367 1.80712,-1.607747 2.28879,-2.000844 l 0.87578,-0.714723 1.1665,1.351151 c 0.9712,1.124929 1.11019,1.401502 0.83014,1.651874 -2.1377,1.911198 -4.07364,3.557541 -4.18333,3.557541 -0.075,0 -0.64361,-0.575747 -1.26361,-1.279438 z"
     id="path909" />
  <path
     style="font-variation-settings:normal;opacity:1;vector-effect:none;fill:#ffdd55;fill-opacity:1;stroke-linecap:butt;stroke-linejoin:miter;stroke-miterlimit:4;stroke-dasharray:none;stroke-dashoffset:0;stroke-opacity:1;stop-color:#000000;stop-opacity:1"
     d="m 124.1953,117.60716 c -6.20792,-7.09708 -11.32593,-13.03827 -11.37337,-13.20264 -0.0474,-0.16438 6.66023,-6.316478 14.90592,-13.671344 8.24569,-7.354866 18.61737,-16.642297 23.04818,-20.638736 4.43081,-3.996439 8.22842,-7.266253 8.43914,-7.266253 0.21072,0 0.44024,0.296585 0.51005,0.659077 0.0837,0.434786 -0.31999,1.034286 -1.18633,1.761621 -1.27021,1.066409 -1.29522,1.129524 -0.7632,1.925779 0.30253,0.452779 1.07114,1.409396 1.70802,2.125816 l 1.15797,1.302582 1.59944,-1.383389 1.59943,-1.383388 5.81049,6.402309 c 3.19576,3.52127 6.46294,7.139553 7.26039,8.040628 l 1.44993,1.638318 -1.17424,1.13811 -1.17423,1.13811 1.44755,1.628311 1.44755,1.628312 1.24238,-0.979275 1.24238,-0.979276 0.80885,0.860974 0.80884,0.860974 -1.01728,0.977546 c -2.58916,2.488028 -45.99442,40.357714 -46.2365,40.339854 -0.15084,-0.0111 -5.35345,-5.82694 -11.56136,-12.92402 z m 16.00968,-4.44404 c 11.64732,-9.96237 30.94844,-26.820729 30.94844,-27.031594 0,-0.866892 -10.64489,-12.191078 -11.24376,-11.961271 -0.62671,0.240493 -33.90505,29.481845 -33.90505,29.792045 0,0.44033 10.40668,12.14907 10.70478,12.04412 0.16019,-0.0564 1.7332,-1.33588 3.49559,-2.8433 z"
     id="path911" />
  <path
     style="font-variation-settings:normal;opacity:1;vector-effect:none;fill:#ffd42a;fill-opacity:1;stroke-width:0.0609256;stroke-linecap:butt;stroke-linejoin:miter;stroke-miterlimit:4;stroke-dasharray:none;stroke-dashoffset:0;stroke-opacity:1;stop-color:#000000;stop-opacity:1"
     d="m 131.4925,109.78044 c -2.79447,-3.18596 -5.06886,-5.81116 -5.05418,-5.83378 0.0147,-0.0226 7.54051,-6.631072 16.72408,-14.685448 9.18358,-8.054377 16.76747,-14.709761 16.85311,-14.789742 l 0.15569,-0.145421 1.02569,1.133518 c 1.87067,2.067326 4.7254,5.26076 7.09571,7.937605 1.676,1.892748 2.32447,2.665026 2.28471,2.720946 -0.0584,0.08218 -17.03772,14.946622 -22.20198,19.436622 -4.36826,3.79792 -6.81922,5.88887 -7.64884,6.52533 -0.40064,0.30736 -1.457,1.18469 -2.34747,1.94962 -0.89047,0.76493 -1.66103,1.42513 -1.71235,1.4671 -0.0799,0.0654 -0.82086,-0.75315 -5.17417,-5.71635 z"
     id="path919" />
  <path
     style="font-variation-settings:normal;opacity:1;vector-effect:none;fill:#ffdd55;fill-opacity:1;stroke-width:0.0861619;stroke-linecap:butt;stroke-linejoin:miter;stroke-miterlimit:4;stroke-dasharray:none;stroke-dashoffset:0;stroke-opacity:1;stop-color:#000000;stop-opacity:1"
     d="m 75.623028,141.85625 c -0.367234,-0.11628 -0.794505,-0.35856 -1.384482,-0.78505 -1.06184,-0.76761 -1.335124,-0.8205 -2.664568,-0.51572 -0.911717,0.20901 -1.558486,0.21716 -1.968701,0.0248 -0.448073,-0.21011 -1.62272,-1.41284 -2.162808,-2.21452 -0.562972,-0.83564 -1.161048,-2.09117 -1.288171,-2.70422 -0.282998,-1.36476 0.0623,-3.99329 0.634127,-4.82712 0.577037,-0.84144 2.076719,-1.86514 3.228737,-2.20397 0.925764,-0.27228 2.282687,-0.11723 3.324233,0.37986 0.827654,0.395 1.794474,1.16235 2.845949,2.25879 1.108569,1.15598 1.640859,1.8551 1.765861,2.31933 0.108338,0.40233 0.09154,0.47177 -0.37217,1.53884 -0.312712,0.7196 -0.355664,0.89665 -0.35533,1.46475 4.3e-4,0.77495 0.170191,1.20428 0.82571,2.08853 0.379129,0.51141 0.451791,0.67144 0.484619,1.0673 0.03343,0.40318 0.0068,0.5116 -0.198517,0.80786 -0.52986,0.76459 -2.072668,1.50376 -2.714489,1.30053 z"
     id="path923" />
  <path
     style="font-variation-settings:normal;opacity:1;vector-effect:none;fill:#ffdd55;fill-opacity:1;stroke-width:0.0861619;stroke-linecap:butt;stroke-linejoin:miter;stroke-miterlimit:4;stroke-dasharray:none;stroke-dashoffset:0;stroke-opacity:1;stop-color:#000000;stop-opacity:1"
     d="m 44.949964,152.44696 c -0.984967,-0.068 -1.464752,-0.15069 -1.464752,-0.25228 0,-0.2649 7.728407,-7.28926 14.164731,-12.87435 2.902218,-2.51839 4.030814,-3.41759 4.289437,-3.41759 0.306947,0 0.722233,0.42459 2.13341,2.1812 1.487354,1.85144 2.427088,2.8938 4.07306,4.51788 l 1.244355,1.22781 h 1.072606 c 2.067868,0 3.208658,0.26964 3.391148,0.80154 0.248206,0.72345 -0.724485,1.0032 -3.498334,1.00615 l -1.606081,0.002 -2.285696,-2.39099 c -1.257132,-1.31505 -2.809715,-2.91131 -3.450182,-3.54725 l -1.164486,-1.15625 -0.328853,0.25039 c -1.014666,0.77259 -4.028897,3.45144 -10.309645,9.16254 -3.138871,2.85419 -5.052363,4.53523 -5.169711,4.54171 -0.102469,0.006 -0.593422,-0.0178 -1.091007,-0.0522 z"
     id="path925" />
  <path
     style="font-variation-settings:normal;opacity:1;vector-effect:none;fill:#ffdd55;fill-opacity:1;stroke-width:0.0861619;stroke-linecap:butt;stroke-linejoin:miter;stroke-miterlimit:4;stroke-dasharray:none;stroke-dashoffset:0;stroke-opacity:1;stop-color:#000000;stop-opacity:1"
     d="m 81.366816,138.38931 c -0.443296,-0.25572 -0.553748,-1.2316 -0.358742,-3.16963 l 0.148694,-1.47778 -0.892571,-1.17285 c -1.357141,-1.78331 -2.492004,-3.10953 -4.046691,-4.72905 -1.52973,-1.59353 -1.907889,-2.06997 -1.907889,-2.40373 0,-0.47146 1.234965,-1.60364 8.982374,-8.23475 4.069806,-3.4834 7.968814,-6.78347 8.994441,-7.61279 0.386944,-0.31288 0.524787,-0.38309 0.580273,-0.29556 0.08351,0.13173 0.10156,1.98733 0.02314,2.3794 -0.04281,0.21405 -0.63855,0.75781 -3.29219,3.0049 -8.904084,7.53994 -12.595485,10.76047 -12.595485,10.98882 0,0.16779 0.80062,1.21741 3.429168,4.49567 l 2.616421,3.26314 -0.101274,0.91571 c -0.239661,2.16699 -0.580805,3.60541 -0.927193,3.90947 -0.21616,0.18974 -0.470586,0.24396 -0.652481,0.13903 z"
     id="path927" />
  <path
     style="font-variation-settings:normal;opacity:1;vector-effect:none;fill:#ffdd55;fill-opacity:1;stroke-width:0.0861619;stroke-linecap:butt;stroke-linejoin:miter;stroke-miterlimit:4;stroke-dasharray:none;stroke-dashoffset:0;stroke-opacity:1;stop-color:#000000;stop-opacity:1"
     d="m 78.436801,126.83474 c -0.371987,-0.39126 -0.74727,-0.81042 -0.833963,-0.93149 l -0.157622,-0.22012 2.941905,-2.49398 c 9.465805,-8.02457 11.922276,-10.06456 11.989112,-9.95642 0.02668,0.0432 0.106761,0.57646 0.177955,1.18508 0.164317,1.40471 0.16954,2.8697 0.01158,3.24776 -0.07392,0.17692 -0.403196,0.50875 -0.883159,0.89001 -0.835099,0.66336 -5.215197,3.95005 -8.089049,6.06977 -3.522916,2.59845 -3.997843,2.9191 -4.325354,2.92022 -0.08528,2.6e-4 -0.459415,-0.31958 -0.831402,-0.71083 z"
     id="path929" />
  <path
     style="font-variation-settings:normal;opacity:1;vector-effect:none;fill:#ffdd55;fill-opacity:1;stroke-width:0.0861619;stroke-linecap:butt;stroke-linejoin:miter;stroke-miterlimit:4;stroke-dasharray:none;stroke-dashoffset:0;stroke-opacity:1;stop-color:#000000;stop-opacity:1"
     d="m 80.797753,129.81886 c -0.236014,-0.1986 -0.858354,-1.10989 -0.975368,-1.42824 -0.08133,-0.22127 0.177016,-0.48697 1.20064,-1.23482 0.513401,-0.37509 2.406825,-1.7667 4.207607,-3.09247 3.916449,-2.88336 6.222911,-4.55258 6.482687,-4.69161 0.171928,-0.092 0.196698,-0.0786 0.25258,0.13683 0.03408,0.13136 0.06411,1.11123 0.06674,2.17748 0.0044,1.79972 -0.0078,1.96025 -0.170872,2.24021 -0.151041,0.25931 -0.742593,0.61834 -4.221931,2.56236 -4.863789,2.71757 -6.129754,3.40744 -6.39246,3.48352 -0.143163,0.0414 -0.269321,-0.002 -0.449623,-0.15326 z"
     id="path931" />
  <path
     style="font-variation-settings:normal;opacity:1;vector-effect:none;fill:#ffdd55;fill-opacity:1;stroke-width:0.0861619;stroke-linecap:butt;stroke-linejoin:miter;stroke-miterlimit:4;stroke-dasharray:none;stroke-dashoffset:0;stroke-opacity:1;stop-color:#000000;stop-opacity:1"
     d="m 82.045508,131.37414 c -0.365333,-0.41062 -0.63175,-0.77818 -0.592038,-0.8168 0.03971,-0.0386 0.905818,-0.53235 1.924682,-1.09716 1.018864,-0.56482 2.783028,-1.55138 3.920365,-2.19237 2.569796,-1.4483 3.470423,-1.9026 3.641593,-1.83691 0.117162,0.045 0.126027,0.26339 0.07279,1.7935 -0.03334,0.95827 -0.08787,1.91257 -0.121183,2.12068 l -0.06056,0.37836 -3.834203,1.14737 c -2.108811,0.63106 -3.936127,1.17044 -4.060702,1.19864 -0.200425,0.0454 -0.302964,-0.0347 -0.89074,-0.69531 z"
     id="path933" />
  <path
     style="font-variation-settings:normal;opacity:1;vector-effect:none;fill:#ffdd55;fill-opacity:1;stroke-width:0.0861619;stroke-linecap:butt;stroke-linejoin:miter;stroke-miterlimit:4;stroke-dasharray:none;stroke-dashoffset:0;stroke-opacity:1;stop-color:#000000;stop-opacity:1"
     d="m 83.569453,135.27807 c -0.141294,-0.17237 -0.170203,-2.51035 -0.03308,-2.67556 0.107055,-0.129 1.778332,-0.69826 3.675986,-1.2521 0.574475,-0.16766 0.869516,-0.21912 0.885317,-0.1544 0.02907,0.11906 -0.214247,3.76309 -0.253842,3.80172 -0.02449,0.0239 -3.874162,0.38804 -4.102253,0.38804 -0.04611,0 -0.123567,-0.0485 -0.172124,-0.1077 z"
     id="path935" />
  <path
     style="font-variation-settings:normal;opacity:1;vector-effect:none;fill:#ffdd55;fill-opacity:1;stroke-width:0.0861619;stroke-linecap:butt;stroke-linejoin:miter;stroke-miterlimit:4;stroke-dasharray:none;stroke-dashoffset:0;stroke-opacity:1;stop-color:#000000;stop-opacity:1"
     d="m 50.550485,152.98767 c -0.255489,-0.0448 -2.229799,-0.50976 -2.692558,-0.63404 -0.177709,-0.0477 -0.323107,-0.12736 -0.323107,-0.17695 0,-0.14298 1.237549,-1.31868 3.745207,-3.55802 2.813191,-2.51219 5.786726,-5.23948 8.445946,-7.7465 1.089535,-1.02718 2.000696,-1.86748 2.024804,-1.86734 0.05912,3.4e-4 1.297664,1.42642 1.486473,1.71154 0.250109,0.3777 0.185023,0.55543 -0.48156,1.31502 -1.634945,1.86308 -10.284766,10.69522 -10.671554,10.89649 -0.221024,0.11502 -1.037705,0.14686 -1.533651,0.0598 z"
     id="path937" />
  <path
     style="font-variation-settings:normal;opacity:1;vector-effect:none;fill:#ffdd55;fill-opacity:1;stroke-width:0.0861619;stroke-linecap:butt;stroke-linejoin:miter;stroke-miterlimit:4;stroke-dasharray:none;stroke-dashoffset:0;stroke-opacity:1;stop-color:#000000;stop-opacity:1"
     d="m 56.581815,153.12628 c -1.606925,-0.19524 -2.671158,-0.38765 -2.787473,-0.50397 -0.227916,-0.22792 0.25045,-0.77826 4.397106,-5.0587 1.706082,-1.76112 3.658998,-3.787 4.339813,-4.50195 0.843591,-0.88589 1.296625,-1.29991 1.422393,-1.29991 0.229639,0 0.725769,0.36202 1.281764,0.9353 0.395274,0.40756 0.41736,0.45291 0.314342,0.6454 -0.173927,0.32499 -2.160483,3.07374 -4.819971,6.66929 -1.95813,2.64734 -2.474558,3.29384 -2.62508,3.28625 -0.103062,-0.005 -0.788364,-0.0825 -1.522894,-0.17171 z"
     id="path939" />
  <path
     style="font-variation-settings:normal;opacity:1;vector-effect:none;fill:#ffdd55;fill-opacity:1;stroke-width:0.0861619;stroke-linecap:butt;stroke-linejoin:miter;stroke-miterlimit:4;stroke-dasharray:none;stroke-dashoffset:0;stroke-opacity:1;stop-color:#000000;stop-opacity:1"
     d="m 61.720782,152.7855 c -1.130552,-0.0864 -2.077641,-0.17914 -2.104643,-0.20614 -0.0724,-0.0724 0.586435,-0.9968 3.472638,-4.87245 1.429273,-1.91925 2.667489,-3.59618 2.751589,-3.7265 0.0841,-0.13032 0.210386,-0.23694 0.280635,-0.23694 0.07025,0 0.360047,0.24233 0.643997,0.53851 0.794553,0.82878 0.840795,0.64339 -1.402345,5.62206 -0.74729,1.65862 -1.409923,3.02081 -1.472516,3.02709 -0.06259,0.006 -1.038804,-0.0592 -2.169355,-0.14563 z"
     id="path941" />
  <path
     style="font-variation-settings:normal;opacity:1;vector-effect:none;fill:#ffdd55;fill-opacity:1;stroke-width:0.0861619;stroke-linecap:butt;stroke-linejoin:miter;stroke-miterlimit:4;stroke-dasharray:none;stroke-dashoffset:0;stroke-opacity:1;stop-color:#000000;stop-opacity:1"
     d="m 67.696694,150.48599 c -1.018864,-0.0703 -1.86645,-0.14063 -1.883524,-0.1562 -0.04218,-0.0385 1.130409,-2.6787 1.553196,-3.49722 0.501955,-0.97179 0.486338,-0.96312 1.458654,-0.8103 0.445674,0.07 1.03326,0.15096 1.305747,0.17982 0.339582,0.036 0.49543,0.09 0.49543,0.17189 0,0.0657 -0.21325,1.03908 -0.47389,2.16311 -0.260639,1.12403 -0.47389,2.05621 -0.47389,2.07151 0,0.0153 -0.02908,0.0228 -0.06462,0.0165 -0.03554,-0.006 -0.898238,-0.0688 -1.917102,-0.13916 z"
     id="path943" />
  <path
     style="font-variation-settings:normal;opacity:1;vector-effect:none;fill:#ff9955;fill-opacity:1;stroke-width:0.172324;stroke-linecap:butt;stroke-linejoin:miter;stroke-miterlimit:4;stroke-dasharray:none;stroke-dashoffset:0;stroke-opacity:1;stop-color:#000000;stop-opacity:1"
     d="m 88.368999,200.24204 c -2.87124,-1.92291 -6.636977,-4.48997 -8.368301,-5.70456 -3.686185,-2.586 -2.87676,-2.62719 -6.257179,0.31844 -1.886998,1.64429 -2.340357,1.96119 -2.719544,1.90098 -0.250275,-0.0397 -1.133437,-0.12061 -1.962584,-0.1797 l -1.507538,-0.10742 -4.960884,-5.11119 c -6.743033,-6.94733 -7.689588,-7.94423 -7.605564,-8.0101 0.312824,-0.24523 17.347279,-14.91072 21.440531,-18.45881 9.911345,-8.59131 48.300514,-42.14534 49.740444,-43.47559 l 0.45585,-0.42114 4.23643,4.81657 c 2.33003,2.64911 4.37584,4.98873 4.54624,5.19917 l 0.30981,0.3826 23.6898,-20.78429 23.68981,-20.784286 1.1201,0.112339 c 0.61606,0.06179 1.28375,0.122102 1.48375,0.13403 0.2385,0.01422 1.31831,-0.808581 3.13763,-2.390843 l 2.77398,-2.412532 0.002,-1.292428 0.002,-1.292428 -4.385,-4.945699 -4.38501,-4.9457 2.10664,-1.848586 c 1.15866,-1.016722 2.30052,-2.022877 2.53746,-2.235901 l 0.43081,-0.387316 1.1201,0.852404 c 1.23985,0.943526 4.67287,2.708988 6.31117,3.245572 2.21518,0.725527 5.05022,0.729533 7.23314,0.01022 1.91262,-0.630243 4.18887,-1.799447 5.64365,-2.898878 0.74385,-0.562155 4.22142,-3.493337 7.72794,-6.513739 3.50651,-3.020402 6.529,-5.601901 6.71663,-5.736665 0.28884,-0.20745 0.6629,-0.213268 2.43917,-0.03794 3.94771,0.389667 3.1278,-0.108137 6.92145,4.202229 l 3.33619,3.790597 -1.75345,1.494733 c -6.99878,5.966134 -11.42551,9.792185 -12.57665,10.870101 -2.30799,2.161155 -2.49284,3.075353 -1.10449,5.462181 0.43049,0.740092 0.8666,1.655807 0.96913,2.034919 0.10253,0.379112 0.18685,1.972393 0.18737,3.540627 l 9.7e-4,2.85133 -4.69583,4.139581 c -12.12224,10.686308 -14.58915,12.818328 -14.83183,12.818328 -0.1435,0 -1.02268,-0.82147 -1.95372,-1.8255 -1.87142,-2.0181 -1.96123,-2.0852 -3.06777,-2.29192 l -0.77339,-0.14449 -5.82045,5.09645 c -25.46513,22.29757 -39.21739,34.5615 -40.02043,35.68926 -0.44868,0.63012 -0.44689,1.44995 0.005,2.18074 0.19563,0.31653 2.37329,2.88469 4.83925,5.70702 l 4.48356,5.13151 -0.113,0.94778 c -0.0937,0.78599 -0.22114,1.05507 -0.74656,1.57635 -0.34846,0.34571 -7.67444,6.75511 -16.27995,14.2431 l -15.64639,13.61453 -1.24133,0.10922 c -0.68274,0.0601 -1.70662,0.14922 -2.27528,0.19812 l -1.03395,0.0889 -1.37859,-1.58466 c -1.4526,-1.66974 -2.51519,-2.56934 -3.03484,-2.56934 -0.3602,0 -1.76383,1.14048 -11.44073,9.29591 -10.52004,8.86599 -11.72374,9.83202 -12.251,9.83202 -0.124737,0 -2.57599,-1.5733 -5.447231,-3.49622 z"
     id="path945" />
  <path
     style="font-variation-settings:normal;opacity:1;vector-effect:none;fill:#ff9955;fill-opacity:1;stroke-width:0.172324;stroke-linecap:butt;stroke-linejoin:miter;stroke-miterlimit:4;stroke-dasharray:none;stroke-dashoffset:0;stroke-opacity:1;stop-color:#000000;stop-opacity:1"
     d="m 17.060535,203.66624 -1.691193,-1.67994 -1.293149,0.0452 -1.293149,0.0452 -1.014194,-0.93136 c -1.196914,-1.09913 -1.211577,-1.45377 -0.09261,-2.23969 0.907281,-0.63725 0.701827,-0.88054 -0.961084,-1.13813 -1.9128038,-0.29629 -2.2252861,-0.4529 -3.2636244,-1.63557 l -0.9634745,-1.09741 0.7780407,-0.63755 c 1.4927018,-1.22315 0.6960443,-2.29595 -1.720653,-2.31706 -0.6822408,-0.006 -0.6941444,-0.0174 -1.163185,-1.11564 -0.6474961,-1.51611 -0.6275075,-1.91097 0.1090417,-2.15405 0.6009599,-0.19835 0.7956578,-0.61702 0.7956578,-1.71099 0,-0.37514 0.831436,-1.219 4.7389017,-4.80967 2.606397,-2.39508 4.738903,-4.437 4.738903,-4.53759 0,-0.10059 -0.960467,-1.20979 -2.134371,-2.46489 l -2.134371,-2.282 -0.121015,-3.00024 c -0.06656,-1.65013 -0.0948,-3.36068 -0.06276,-3.80123 l 0.05826,-0.80098 12.321146,-10.81106 c 6.77663,-5.94608 12.613175,-11.0729 12.970099,-11.39294 l 0.648956,-0.58189 -0.535738,-6.33087 -0.535735,-6.33087 1.179209,-1.09755 c 2.36479,-2.20104 33.328536,-29.637852 35.730961,-31.66102 0.214421,-0.180571 1.154469,0.06278 5.428197,1.405223 2.842876,0.892988 5.260712,1.624487 5.372967,1.625557 0.112257,10e-4 8.603508,-7.461969 18.869441,-16.584538 10.26595,-9.122568 21.59614,-19.173164 25.17821,-22.334658 l 6.51285,-5.748171 -0.44257,-0.541314 c -1.00591,-1.230305 -1.65289,-2.343494 -2.14924,-3.697979 -0.28891,-0.788384 -0.52529,-1.462714 -0.52529,-1.498513 0,-0.143594 7.95424,-7.453125 11.26196,-10.349142 l 3.5289,-3.089671 0.4559,-1.324873 c 0.81719,-2.374688 0.86037,-4.986224 0.18849,-11.396065 -0.13095,-1.249174 -0.22604,-2.279837 -0.21134,-2.290361 0.0147,-0.01053 2.03822,-1.7829 4.4967,-3.938611 l 4.46997,-3.919475 0.44126,0.521186 c 0.24269,0.286652 2.41093,2.735454 4.81832,5.441783 5.25237,5.904616 5.31219,5.982628 5.04219,6.57522 -0.10996,0.241339 -0.19993,0.903949 -0.19993,1.472466 0,0.867708 0.0679,1.101577 0.42298,1.456643 0.73026,0.73027 1.97662,0.470506 3.81664,-0.795458 l 0.79437,-0.546537 0.38618,0.408595 c 0.65581,0.69387 15.26033,17.568485 17.12621,19.78825 0.60063,0.714556 1.13241,1.396245 1.18173,1.514867 0.0493,0.118621 -0.45212,1.049169 -1.11429,2.067885 -0.66216,1.018714 -1.44399,2.330773 -1.73741,2.915682 -1.56264,3.115029 -1.82524,7.374432 -0.61834,10.029149 0.23144,0.509039 0.41944,1.013086 0.41782,1.120104 -0.003,0.203554 -4.90809,4.330351 -5.14693,4.330351 -0.0754,0 -3.10202,-3.237532 -6.72575,-7.194515 -3.62374,-3.956984 -6.60223,-7.196067 -6.61888,-7.19796 -0.0166,-0.0019 -0.68941,-0.112816 -1.49503,-0.24649 l -1.46475,-0.243046 -2.2876,2.271294 c -2.3619,2.345069 -2.96827,3.221033 -2.96827,4.287952 0,0.559192 -0.17923,0.787715 -1.96182,2.501396 -2.73141,2.625825 -9.8321,9.035171 -27.07473,24.438673 -18.25035,16.303741 -17.49138,15.616421 -17.48837,15.837261 0.001,0.10037 2.75424,3.32226 6.11749,7.15975 3.36326,3.83748 6.11025,7.01686 6.10443,7.06527 -0.006,0.0484 -2.69295,2.37562 -5.9714,5.17158 -10.58759,9.02938 -28.611863,24.72246 -54.503649,47.45434 l -11.11488,9.75839 -0.947781,-1.07766 c -0.521279,-0.5927 -1.257963,-1.40832 -1.637075,-1.81248 l -0.689295,-0.73483 -3.360312,2.95085 c -4.923046,4.32317 -11.668902,10.45356 -14.087464,12.80219 -1.650124,1.60242 -2.110965,2.14936 -2.110965,2.50535 0,0.32233 -0.264383,0.71359 -0.9047,1.33883 -0.985685,0.96252 -9.512224,8.08533 -9.983017,8.33952 -0.231151,0.1248 -0.632112,-0.18354 -1.981002,-1.52344 z m 44.613446,-50.249 2.708182,-0.0262 0.509225,-1.20627 0.509226,-1.20627 2.340033,0.0606 c 1.287017,0.0333 2.345522,-0.005 2.352231,-0.0862 0.0067,-0.0807 0.258734,-1.19364 0.560052,-2.47314 l 0.547853,-2.32637 1.333305,-0.0503 c 1.516239,-0.0572 1.743215,-0.24693 1.649247,-1.37868 -0.07492,-0.90231 -0.791624,-1.22272 -3.041676,-1.3598 l -1.729706,-0.10538 -2.200727,-2.51637 c -3.269936,-3.73893 -4.880983,-5.35971 -5.327533,-5.35971 -0.732942,0 -2.502752,1.50387 -13.084993,11.11882 -5.747531,5.22216 -6.201467,5.66594 -6.048603,5.91328 0.184931,0.29922 1.760566,0.5404 3.504461,0.53643 0.925389,-0.002 2.302889,0.11867 3.061114,0.26841 0.998328,0.19716 1.901449,0.24538 3.27415,0.1748 1.042559,-0.0536 2.322062,-0.0252 2.843341,0.0631 0.52128,0.0883 1.529373,0.12118 2.240209,0.073 0.710835,-0.0482 2.51111,-0.0994 4.000609,-0.11382 z m 15.782431,-11.53255 c 0.706363,-0.32796 1.41012,-1.0661 1.641007,-1.72118 0.06602,-0.18733 -0.187696,-0.86174 -0.663811,-1.76446 -0.871381,-1.65216 -0.922747,-2.04223 -0.40306,-3.0609 0.675586,-1.32426 0.688474,-1.57579 0.126177,-2.46244 -0.280636,-0.44251 -1.223845,-1.52521 -2.096018,-2.406 -1.49277,-1.5075 -1.659839,-1.62384 -2.848665,-1.98367 -1.001462,-0.30312 -1.555938,-0.36686 -2.678517,-0.30794 -1.577211,0.0828 -2.040292,0.31926 -3.882998,1.98295 l -0.931459,0.84097 -0.01632,2.66447 -0.01632,2.66448 0.597894,1.1201 c 0.695443,1.30285 2.81798,3.53968 3.527895,3.71786 0.26485,0.0665 1.006025,0.0219 1.647055,-0.0991 1.383556,-0.26106 1.865775,-0.16692 2.643653,0.51606 1.063952,0.93416 1.836683,1.00301 3.35349,0.29876 z m 5.176035,-3.40947 c 0.208078,-0.22334 0.373445,-0.73659 0.447106,-1.38767 0.06429,-0.56828 0.209517,-1.06762 0.322718,-1.10965 0.113201,-0.042 1.252686,-0.17413 2.53219,-0.29358 l 2.32637,-0.21717 0.134962,-1.46365 c 0.07423,-0.80501 0.190549,-1.8492 0.258486,-2.32042 l 0.123523,-0.85676 1.290583,-0.36553 1.29058,-0.36553 0.202873,-2.24498 c 0.130686,-1.44613 0.325944,-2.54417 0.548734,-3.08579 0.276699,-0.67269 0.361585,-1.36004 0.424496,-3.43731 0.06148,-2.02985 0.144962,-2.72474 0.382553,-3.18419 0.262239,-0.50712 0.289566,-0.88773 0.199267,-2.77551 -0.07572,-1.58299 -0.0368,-2.51207 0.140783,-3.36082 0.250865,-1.19902 0.181343,-3.0825 -0.120668,-3.26915 -0.243731,-0.15064 -1.159315,0.53011 -4.79001,3.56142 -8.780615,7.33105 -14.070955,11.95742 -14.399054,12.5919 -0.204986,0.3964 -0.217121,0.58114 -0.05825,0.88687 0.300698,0.57867 1.733618,2.31932 4.360872,5.2974 l 2.356368,2.67101 -0.116466,2.10603 c -0.09966,1.80217 -0.07528,2.16889 0.169046,2.54177 0.373977,0.57076 1.474687,0.61613 1.972942,0.0813 z"
     id="path947" />
  <path
     style="font-variation-settings:normal;opacity:1;vector-effect:none;fill:#ff9955;fill-opacity:1;stroke-width:0.0861619;stroke-linecap:butt;stroke-linejoin:miter;stroke-miterlimit:4;stroke-dasharray:none;stroke-dashoffset:0;stroke-opacity:1;stop-color:#000000;stop-opacity:1"
     d="m 163.86584,158.1793 c -0.49758,-0.0638 -1.57771,-0.23172 -2.40027,-0.3731 -0.82257,-0.14138 -1.52697,-0.25705 -1.56533,-0.25705 -0.14741,0 -5.80714,-6.01623 -7.50269,-7.97528 -1.87872,-2.17069 -2.28278,-2.76995 -2.37042,-3.51562 l -0.0588,-0.50034 0.93897,-0.9234 c 2.26106,-2.22357 6.44533,-5.94169 37.42851,-33.25878 l 7.53916,-6.64708 0.34465,0.0516 c 0.70766,0.10608 0.9858,0.22224 1.45298,0.60685 0.53837,0.44322 1.91928,1.96492 5.76551,6.35337 l 2.63115,3.00206 0.0516,0.57366 c 0.0284,0.3155 0.061,1.85315 0.0726,3.41699 0.0236,3.18877 -0.0132,3.45958 -0.56797,4.18547 -0.28942,0.37869 -4.05731,3.74142 -4.19221,3.74142 -0.0388,0 -0.36948,-0.34101 -0.73485,-0.7578 -0.36537,-0.41679 -0.69669,-0.74636 -0.73626,-0.73238 -0.0396,0.014 -6.78944,5.9189 -14.99973,13.12203 -8.21028,7.20313 -15.0026,13.15733 -15.09404,13.23155 -0.16014,0.12998 -0.14327,0.16097 0.45917,0.84353 0.34398,0.38972 0.61082,0.72095 0.59297,0.73607 -0.0178,0.0151 -0.8079,0.73653 -1.75568,1.60315 -2.34412,2.14339 -3.87902,3.41975 -4.26501,3.54661 -0.0711,0.0234 -0.53636,-0.01 -1.03395,-0.0736 z"
     id="path951" />
  <path
     style="font-variation-settings:normal;opacity:1;vector-effect:none;fill:#ff9955;fill-opacity:1;stroke-width:0.0861619;stroke-linecap:butt;stroke-linejoin:miter;stroke-miterlimit:4;stroke-dasharray:none;stroke-dashoffset:0;stroke-opacity:1;stop-color:#000000;stop-opacity:1"
     d="m 169.07864,164.13297 c -0.75823,-0.87489 -1.37859,-1.62574 -1.37859,-1.66854 0,-0.0756 42.77681,-37.64997 42.86807,-37.65452 0.0624,-0.003 2.79771,3.35636 2.79771,3.43606 0,0.035 -0.73668,0.69883 -1.63707,1.47516 -2.40361,2.07242 -5.20411,4.51699 -24.10471,21.0411 -9.41907,8.23476 -17.13487,14.96985 -17.14621,14.96687 -0.0113,-0.003 -0.64098,-0.72124 -1.3992,-1.59613 z"
     id="path953" />
  <path
     style="font-variation-settings:normal;opacity:1;vector-effect:none;fill:#ffe6d5;fill-opacity:1;stroke-width:0.121851;stroke-linecap:butt;stroke-linejoin:miter;stroke-miterlimit:4;stroke-dasharray:none;stroke-dashoffset:0;stroke-opacity:1;stop-color:#000000;stop-opacity:1"
     d="m 168.85653,158.13831 -1.24671,-1.40793 1.19985,-1.1156 c 0.65993,-0.61358 1.5267,-1.42664 1.92616,-1.80679 l 0.7263,-0.69119 -0.50357,-0.71789 -0.50356,-0.71788 14.74674,-12.93678 14.74673,-12.93678 0.68106,0.78795 c 0.37458,0.43337 0.71179,0.78759 0.74934,0.78714 0.0376,-4.6e-4 0.69887,-0.55505 1.46958,-1.23245 0.77071,-0.67739 1.48695,-1.30678 1.59164,-1.39864 0.16682,-0.14637 0.33599,-0.002 1.36795,1.16527 l 1.17759,1.3323 -1.42887,1.26276 c -4.09986,3.62322 -35.20148,30.8793 -35.31759,30.95077 -0.0801,0.0493 -0.64758,-0.49415 -1.38264,-1.32426 z"
     id="path955" />
  <path
     style="font-variation-settings:normal;opacity:1;vector-effect:none;fill:#ffe6d5;fill-opacity:1;stroke-width:0.0148477;stroke-linecap:butt;stroke-linejoin:miter;stroke-miterlimit:4;stroke-dasharray:none;stroke-dashoffset:0;stroke-opacity:1;stop-color:#000000;stop-opacity:1"
     d="m 179.52177,165.02038 c -0.26377,-0.0618 -0.66361,-0.25278 -0.88854,-0.42434 -0.55988,-0.42704 -2.71479,-2.87245 -2.63912,-2.9949 0.0336,-0.0544 4.26637,-3.76068 9.40616,-8.23625 19.82962,-17.26705 24.44675,-21.23223 24.56196,-21.09375 0.0216,0.026 0.60349,0.70521 1.2931,1.50943 1.27607,1.48815 1.65051,2.09935 1.52615,2.49115 -0.15864,0.49986 -3.0089,3.09535 -14.19782,12.92877 -15.80694,13.89198 -18.18649,15.95624 -18.37994,15.94454 -0.11131,-0.007 -0.41819,-0.0628 -0.68195,-0.12465 z"
     id="path957" />
  <path
     style="font-variation-settings:normal;opacity:1;vector-effect:none;fill:#ffe6d5;fill-opacity:1;stroke-width:0.0148477;stroke-linecap:butt;stroke-linejoin:miter;stroke-miterlimit:4;stroke-dasharray:none;stroke-dashoffset:0;stroke-opacity:1;stop-color:#000000;stop-opacity:1"
     d="m 53.922032,182.21277 c -0.399986,-0.47115 -0.742001,-0.89924 -0.760032,-0.95131 -0.01803,-0.0521 4.231532,-3.81955 9.443473,-8.37217 43.679377,-38.15385 61.922837,-54.03551 62.071277,-54.03551 0.16434,0 1.70111,1.86459 1.60664,1.94937 -0.0548,0.0492 -7.72149,6.71578 -17.03702,14.8146 -16.167462,14.05582 -27.473299,23.89439 -46.08667,40.10558 -4.639043,4.04034 -8.451679,7.34607 -8.472523,7.34607 -0.02084,0 -0.365159,-0.38548 -0.765145,-0.85663 z"
     id="path959" />
  <path
     style="font-variation-settings:normal;opacity:1;vector-effect:none;fill:#ffe6d5;fill-opacity:1;stroke-width:0.00742385;stroke-linecap:butt;stroke-linejoin:miter;stroke-miterlimit:4;stroke-dasharray:none;stroke-dashoffset:0;stroke-opacity:1;stop-color:#000000;stop-opacity:1"
     d="m 181.91794,71.824299 c -0.72316,-0.561172 -1.09666,-0.94908 -1.09666,-1.138964 0,-0.205461 0.29341,-0.630705 0.70859,-1.026972 0.19668,-0.187724 1.15269,-1.035347 2.12445,-1.883608 0.97176,-0.84826 1.83868,-1.60799 1.92649,-1.688288 l 0.15964,-0.145996 0.89132,1.005043 c 0.49023,0.552773 0.89133,1.018898 0.89133,1.035833 0,0.06842 -4.87476,4.302643 -4.94769,4.297569 -0.0433,-0.003 -0.33913,-0.207589 -0.65747,-0.454617 z"
     id="path961" />
  <path
     style="font-variation-settings:normal;opacity:1;vector-effect:none;fill:#ffe6d5;fill-opacity:1;stroke-width:0.00524945;stroke-linecap:butt;stroke-linejoin:miter;stroke-miterlimit:4;stroke-dasharray:none;stroke-dashoffset:0;stroke-opacity:1;stop-color:#000000;stop-opacity:1"
     d="M 9.8345362,179.31052 C 9.647501,179.22926 9.2687152,178.8666 8.7190997,178.24256 8.182061,177.6328 7.9232074,177.28763 7.7433743,176.94144 7.6242408,176.7121 7.6089762,176.64159 7.6080088,176.31613 c -9.745e-4,-0.32785 0.013769,-0.39704 0.1387605,-0.65117 0.2022589,-0.41124 0.4710976,-0.76176 1.3564051,-1.76856 l 0.7869724,-0.89497 0.091056,0.096 c 0.1986962,0.20945 3.5062622,3.9953 3.5062622,4.01328 0,0.0376 -1.347322,1.19592 -1.660757,1.42771 -0.710742,0.52562 -1.355844,0.83989 -1.714863,0.83542 -0.07451,-9.2e-4 -0.1993001,-0.0294 -0.2773084,-0.0633 z"
     id="path963" />
  <path
     style="font-variation-settings:normal;opacity:1;vector-effect:none;fill:#ffd42a;fill-opacity:1;stroke-width:0.00524946;stroke-linecap:butt;stroke-linejoin:miter;stroke-miterlimit:4;stroke-dasharray:none;stroke-dashoffset:0;stroke-opacity:1;stop-color:#000000;stop-opacity:1"
     d="m 237.59177,48.755846 c -1.49113,-1.516392 -5.5608,-6.099248 -15.08963,-16.992442 -5.98789,-6.845257 -7.78484,-8.950165 -8.51908,-9.97911 -0.37415,-0.524326 -0.49216,-0.834203 -0.31768,-0.834203 0.40308,0 3.61928,3.559995 15.99634,17.706261 8.54549,9.766993 9.60383,11.071798 8.98045,11.071798 -0.0519,0 -0.52454,-0.437537 -1.0504,-0.972304 z"
     id="path878" />
  <path
     style="font-variation-settings:normal;opacity:1;vector-effect:none;fill:#ffd42a;fill-opacity:1;stroke-width:0.00524946;stroke-linecap:butt;stroke-linejoin:miter;stroke-miterlimit:4;stroke-dasharray:none;stroke-dashoffset:0;stroke-opacity:1;stop-color:#000000;stop-opacity:1"
     d="m 180.87009,33.552383 c -1.56867,-1.788653 -2.83251,-3.283826 -2.80855,-3.322604 0.0735,-0.118953 7.67743,-6.758699 8.68641,-7.584988 1.06237,-0.870013 2.14246,-1.595669 2.6943,-1.810171 0.49269,-0.191507 1.09843,-0.177507 1.57071,0.0363 0.71896,0.325488 3.05362,2.896254 3.59308,3.956452 0.33089,0.650312 0.32687,1.252207 -0.0125,1.873225 -0.42309,0.774183 -2.7752,3.002633 -7.93174,7.514736 -1.37428,1.202531 -2.59789,2.277033 -2.71913,2.387782 l -0.22044,0.201362 z"
     id="path880" />
  <path
     style="font-variation-settings:normal;opacity:1;vector-effect:none;fill:#ffd42a;fill-opacity:1;stroke-width:0.0148477;stroke-linecap:butt;stroke-linejoin:miter;stroke-miterlimit:4;stroke-dasharray:none;stroke-dashoffset:0;stroke-opacity:1;stop-color:#000000;stop-opacity:1"
     d="m 38.192359,204.91721 c -2.723261,-0.37636 -3.348755,-0.77427 -6.431905,-4.09161 l -2.849259,-3.06568 0.71254,-0.57014 c 0.391897,-0.31357 0.808497,-0.57068 0.925779,-0.57135 0.117282,-6.6e-4 0.147988,-0.32747 0.06824,-0.72622 -0.130114,-0.65057 0.02251,-0.88688 1.486336,-2.30121 0.897237,-0.86691 1.672541,-1.53499 1.722896,-1.48464 0.05036,0.0504 -0.05215,0.51016 -0.227793,1.02177 -0.175642,0.51162 -0.317337,1.81814 -0.314879,2.90338 0.0037,1.65083 0.113595,2.19621 0.672499,3.33857 1.102077,2.25256 3.502974,3.58763 5.825442,3.23935 1.197397,-0.17956 4.325565,-2.48925 9.664579,-7.13586 4.119205,-3.585 4.041184,-3.45969 4.041184,-6.49068 0,-2.18078 -0.07876,-2.64736 -0.654054,-3.87483 -1.30048,-2.77475 -2.833144,-4.06987 -5.274659,-4.45715 l -1.054662,-0.16729 1.298365,-1.18283 c 0.7141,-0.65056 1.424538,-1.18781 1.57875,-1.1939 0.154213,-0.006 1.577923,1.44202 3.163801,3.218 1.585877,1.77598 4.354114,4.79963 6.151634,6.71921 2.728847,2.91416 3.212197,3.54108 2.928761,3.7987 -5.109859,4.64459 -11.78869,10.19208 -13.542154,11.24823 -2.641973,1.59132 -6.472999,2.29861 -9.891438,1.82618 z"
     id="path882" />
  <path
     style="font-variation-settings:normal;opacity:1;vector-effect:none;fill:#ffd42a;fill-opacity:1;stroke-width:0.0148477;stroke-linecap:butt;stroke-linejoin:miter;stroke-miterlimit:4;stroke-dasharray:none;stroke-dashoffset:0;stroke-opacity:1;stop-color:#000000;stop-opacity:1"
     d="m 27.703188,242.48594 c -0.884953,-0.97786 -3.080628,-7.10267 -3.143234,-8.76801 -0.03228,-0.85862 0.484426,-1.52014 1.187363,-1.52014 0.172583,0 1.878864,0.51877 3.791736,1.15281 l 3.477949,1.15281 3.289984,-0.0367 c 1.809492,-0.0202 5.263975,-0.26861 7.67663,-0.55208 11.398045,-1.33918 13.08919,-1.49041 13.437095,-1.20168 0.47132,0.39116 2.769123,5.03044 2.769123,5.59088 0,1.00274 -0.117494,1.02188 -22.420632,3.65227 -4.490219,0.52957 -8.503453,0.96325 -8.918297,0.96372 -0.415258,4.9e-4 -0.931102,-0.19453 -1.147717,-0.43389 z"
     id="path884" />
  <path
     style="font-variation-settings:normal;opacity:1;vector-effect:none;fill:#ff2a2a;fill-opacity:1;stroke-width:0.059391;stroke-linecap:butt;stroke-linejoin:miter;stroke-miterlimit:4;stroke-dasharray:none;stroke-dashoffset:0;stroke-opacity:1;stop-color:#000000;stop-opacity:1"
     d="m 201.14987,183.7213 c -3.34375,-4.54385 -6.42904,-9.15015 -6.23259,-9.30518 2.55016,-2.01243 22.80541,-18.69898 24.62165,-20.28366 1.43427,-1.2514 2.69543,-2.27258 2.80258,-2.2693 0.10715,0.003 0.98047,1.18219 1.9407,2.6198 0.96024,1.43761 3.01648,4.46961 4.56943,6.73777 1.55294,2.26817 2.82197,4.24216 2.82006,4.38665 -0.003,0.24321 -6.52762,4.76366 -22.45072,15.55504 -3.51053,2.37915 -6.4701,4.32572 -6.57685,4.32572 -0.10674,0 -0.77916,-0.79508 -1.49426,-1.76684 z"
     id="path886" />
  <path
     style="font-variation-settings:normal;opacity:1;vector-effect:none;fill:#ff2a2a;fill-opacity:1;stroke-width:0.059391;stroke-linecap:butt;stroke-linejoin:miter;stroke-miterlimit:4;stroke-dasharray:none;stroke-dashoffset:0;stroke-opacity:1;stop-color:#000000;stop-opacity:1"
     d="m 208.53397,196.92165 c -1.27189,-2.06709 -5.37199,-10.09887 -5.37199,-10.52332 0,-0.43964 1.40438,-1.47457 10.23551,-7.54287 8.30218,-5.70483 18.28168,-11.88871 19.18591,-11.88871 0.4579,0 8.25345,14.57703 7.95271,14.87092 -0.29476,0.28805 -30.30944,16.12563 -30.80731,16.25583 -0.2851,0.0745 -0.64525,-0.27867 -1.19483,-1.17185 z"
     id="path888" />
  <path
     style="font-variation-settings:normal;opacity:1;vector-effect:none;fill:#ff2a2a;fill-opacity:1;stroke-width:0.059391;stroke-linecap:butt;stroke-linejoin:miter;stroke-miterlimit:4;stroke-dasharray:none;stroke-dashoffset:0;stroke-opacity:1;stop-color:#000000;stop-opacity:1"
     d="m 211.50715,205.51836 c -0.97086,-2.94766 -1.76451,-5.67192 -1.76366,-6.05391 0.001,-0.52714 0.19205,-0.8034 0.79204,-1.1463 2.37969,-1.36005 15.0021,-7.95096 17.77691,-9.2824 2.92508,-1.40354 10.8781,-4.26434 12.91948,-4.64731 l 0.81079,-0.15211 2.52785,7.67006 c 1.39031,4.21853 2.47001,7.82078 2.39932,8.005 -0.0728,0.18981 -3.49347,1.42583 -7.89439,2.85257 -4.27123,1.38469 -11.46845,3.71902 -15.99382,5.18739 -4.52538,1.46837 -8.58377,2.72751 -9.01864,2.79808 l -0.79068,0.12831 z"
     id="path890" />
  <path
     style="font-variation-settings:normal;opacity:1;vector-effect:none;fill:#ff2a2a;fill-opacity:1;stroke-width:0.059391;stroke-linecap:butt;stroke-linejoin:miter;stroke-miterlimit:4;stroke-dasharray:none;stroke-dashoffset:0;stroke-opacity:1;stop-color:#000000;stop-opacity:1"
     d="m 215.84018,224.12988 c -0.31116,-0.81839 -1.35324,-6.25487 -1.84247,-9.61203 -0.33708,-2.31308 -0.34965,-2.80734 -0.0757,-2.97754 0.37805,-0.23487 14.16668,-4.76609 17.26578,-5.67387 4.02004,-1.17754 14.80569,-3.56283 16.11022,-3.56283 0.2596,0 0.57892,0.24675 0.7096,0.54834 0.30741,0.70947 2.72667,14.97312 2.62719,15.48965 -0.043,0.22314 -0.44307,0.47341 -0.92709,0.57991 -5.15203,1.13361 -31.8029,5.80274 -33.1214,5.80274 -0.3271,0 -0.604,-0.22059 -0.74611,-0.59437 z"
     id="path892" />
</svg>
