<?xml version="1.0" encoding="UTF-8" standalone="no"?>
<svg
   xmlns:dc="http://purl.org/dc/elements/1.1/"
   xmlns:cc="http://creativecommons.org/ns#"
   xmlns:rdf="http://www.w3.org/1999/02/22-rdf-syntax-ns#"
   xmlns:svg="http://www.w3.org/2000/svg"
   xmlns="http://www.w3.org/2000/svg"
   xmlns:sodipodi="http://sodipodi.sourceforge.net/DTD/sodipodi-0.dtd"
   xmlns:inkscape="http://www.inkscape.org/namespaces/inkscape"
   cursor="default"
   viewBox="0 0 256 256"
   version="1.1"
   id="svg50"
   sodipodi:docname="lionsword.svg"
   inkscape:version="1.0.2-2 (e86c870879, 2021-01-15)">
  <metadata
     id="metadata56">
    <rdf:RDF>
      <cc:Work
         rdf:about="">
        <dc:format>image/svg+xml</dc:format>
        <dc:type
           rdf:resource="http://purl.org/dc/dcmitype/StillImage" />
      </cc:Work>
    </rdf:RDF>
  </metadata>
  <defs
     id="defs54" />
  <sodipodi:namedview
     pagecolor="#ffffff"
     bordercolor="#666666"
     borderopacity="1"
     objecttolerance="10"
     gridtolerance="10"
     guidetolerance="10"
     inkscape:pageopacity="0"
     inkscape:pageshadow="2"
     inkscape:window-width="1920"
     inkscape:window-height="1017"
     id="namedview52"
     showgrid="false"
     inkscape:zoom="2.0516816"
     inkscape:cx="254.50564"
     inkscape:cy="131.54219"
     inkscape:window-x="-8"
     inkscape:window-y="-8"
     inkscape:window-maximized="1"
     inkscape:current-layer="svg50"
     inkscape:document-rotation="0" />
  <path
     style="fill:#000000;stroke-width:0.236398"
     d="m 3.6057362,250.52674 c 0.5997316,-5.35122 1.4697378,-8.35275 3.8484167,-13.27668 l 0.9667051,-2.0011 2.231662,-0.0566 c 1.741254,-0.0442 2.492824,-0.1987 3.42008,-0.70361 1.17707,-0.64097 1.189747,-0.65627 1.32859,-1.60303 l 0.140243,-0.95588 21.954811,-22.8476 c 12.075144,-12.56617 22.019544,-22.97112 22.098672,-23.12211 0.07925,-0.15106 0.0071,-0.41314 -0.161874,-0.58257 -0.606717,-0.61139 -0.878339,-2.77545 -0.453265,-3.61126 0.648507,-1.27522 2.478002,-2.16111 3.911358,-1.89398 0.609678,0.11365 1.169446,0.15177 1.243894,0.0849 0.244992,-0.22063 0.742617,-4.1955 0.549379,-4.39024 -0.103897,-0.10479 -0.83155,-0.23388 -1.616914,-0.28693 -0.78531,-0.053 -1.562589,-0.23951 -1.727247,-0.41434 -0.165242,-0.17411 -1.475819,-2.14786 -2.913643,-4.38448 l -2.61422,-4.06659 0.48181,-0.41543 0.481792,-0.41539 -1.619892,-1.63239 c -1.864051,-1.87845 -3.629258,-3.01208 -5.225888,-3.35608 -0.606629,-0.13067 -2.279002,-0.23685 -3.716347,-0.23588 -1.437363,0.001 -2.671222,-0.0566 -2.741929,-0.12765 -0.321762,-0.32426 -1.479401,-5.60992 -1.5522,-7.08728 -0.07996,-1.61933 0.225082,-5.66855 0.531224,-7.05531 l 0.156023,-0.70665 3.814481,-0.084 c 3.60589,-0.0794 7.149139,0.38598 9.974009,1.31019 l 0.824529,0.26974 0.176235,2.23399 c 0.232741,2.94862 0.662371,4.48451 1.825364,6.52519 1.121647,1.96805 1.786447,2.65998 5.929943,6.17204 1.692425,1.43449 3.859604,3.29287 4.815972,4.12977 l 1.738789,1.52165 3.628478,-3.60315 C 88.500876,150.78281 220.96445,21.704438 223.50756,19.47095 c 5.86844,-5.153994 9.28763,-7.385319 14.93978,-9.7495304 3.79048,-1.5854077 9.45998,-3.5863865 9.64202,-3.4029352 0.33502,0.337595 -2.97602,11.1687026 -4.42615,14.4789276 -1.95167,4.455099 -4.57662,7.788604 -13.19778,16.760305 -3.55944,3.704237 -36.29757,37.390923 -72.75133,74.859363 -36.45374,37.46845 -67.011046,68.93532 -67.905076,69.92641 l -1.625513,1.8019 0.777439,0.77842 c 0.42745,0.42826 2.468729,2.73524 4.536124,5.12665 3.586457,4.14835 3.838399,4.40022 5.488379,5.48696 2.074947,1.36652 4.231857,2.16879 7.688797,2.85975 l 2.57511,0.51473 0.39364,1.14142 c 0.6917,2.00578 1.30042,5.64537 1.20172,7.18514 -0.13883,2.16443 -0.74427,5.38282 -1.07435,5.7104 -0.31417,0.31176 -3.90148,0.94544 -6.46118,1.14134 -1.49841,0.11471 -6.136992,-0.40201 -7.514002,-0.83699 -0.510089,-0.16117 -0.58709,-0.41869 -0.767918,-2.56832 -0.110634,-1.3141 -0.402557,-3.06059 -0.648932,-3.88106 -0.48798,-1.62508 -3.419495,-6.77332 -4.445843,-7.80757 l -0.636397,-0.64133 -0.313376,0.68634 c -0.200118,0.43838 -0.423461,0.67957 -0.617923,0.66766 -0.167547,-0.0106 -2.076277,-1.29494 -4.241648,-2.85471 l -3.937013,-2.83593 -0.0089,-1.57355 c -0.0053,-0.86541 -0.136165,-1.85449 -0.290504,-2.19792 -0.270168,-0.60081 -0.36653,-0.60899 -2.552184,-0.21485 -1.249284,0.2252 -2.312546,0.45023 -2.362775,0.50009 -0.05018,0.0498 -0.05354,0.72244 -0.0071,1.49472 0.09344,1.56119 -0.702139,3.47506 -1.687656,4.05998 -0.825983,0.49025 -3.195602,0.35597 -3.760299,-0.21302 l -0.468353,-0.47201 -6.064902,6.22201 c -3.335739,3.42205 -13.332158,13.62357 -22.214448,22.66984 -15.899359,16.19295 -16.163073,16.45117 -17.018967,16.66249 -0.478157,0.11808 -0.983672,0.0995 -1.123384,-0.0415 -0.139534,-0.14077 -0.313819,-0.1273 -0.386937,0.0296 -0.07322,0.15691 -0.40332,0.81577 -0.733788,1.46384 -0.597515,1.17171 -0.781445,2.81765 -0.500302,4.47715 l 0.140598,0.8294 -1.281623,0.85521 c -2.034542,1.35763 -5.322445,2.97022 -7.145202,3.50445 -2.9950239,0.87781 -8.7285899,1.60796 -9.1659688,1.16722 -0.1237547,-0.12482 -0.099642,-1.34643 0.053722,-2.71475 z m 4.2072521,1.9173 c 4.7068807,-0.65551 6.7161037,-1.37077 11.0326957,-3.92753 l 1.573138,-0.93181 -0.08599,-1.72035 c -0.08954,-1.7869 0.16542,-2.90484 1.018991,-4.47126 l 0.501703,-0.92074 -3.110941,-3.13493 -3.110924,-3.13497 -1.108792,0.69732 c -0.885431,0.55686 -1.579823,0.73281 -3.446852,0.87343 l -2.3380952,0.17605 -0.9651094,1.98008 c -1.4449869,2.9646 -2.6850161,6.63173 -3.1147002,9.211 -0.507873,3.04866 -0.7093378,5.54827 -0.4574137,5.67545 0.112053,0.0566 1.7376189,-0.11064 3.6123076,-0.37178 z m 0.5645733,-5.49892 c 0.4117414,-1.70893 1.1087747,-3.37479 2.1172334,-5.06 1.583972,-2.64685 1.587571,-2.64878 3.316041,-1.76631 1.601364,0.81754 2.066898,1.35028 2.588299,2.9616 0.246321,0.76133 0.217191,1.00532 -0.14769,1.23654 -0.250045,0.15851 -1.028015,0.69191 -1.728842,1.18547 -1.903837,1.34081 -5.7904789,2.89074 -6.2039579,2.47405 -0.083862,-0.0846 -0.057445,-0.54863 0.059041,-1.03135 z m 2.4163194,-0.12091 c 1.313023,-0.49587 4.400153,-2.30228 5.069279,-2.9663 0.203876,-0.20232 -0.471367,-1.84251 -0.962219,-2.33714 -0.558757,-0.56309 -1.82774,-1.2326 -2.363519,-1.24696 -0.791871,-0.022 -4.0807142,6.49932 -3.5486044,7.03558 0.078189,0.0785 0.8902892,-0.13972 1.8050634,-0.48518 z m 12.658598,-6.38568 c 0.621628,0.002 1.039345,-0.41041 21.311376,-21.06191 11.372543,-11.58541 21.379334,-21.75856 22.237372,-22.60699 l 1.559806,-1.54287 -2.7306,-2.53571 c -1.676592,-1.55689 -3.293275,-3.24949 -4.188228,-4.38496 -0.801746,-1.01708 -1.503052,-1.84948 -1.558582,-1.84969 -0.05532,-2e-4 -9.989185,10.30749 -22.07486,22.90596 -24.627824,25.6729 -22.649682,23.3733 -21.426017,24.90803 0.337719,0.42362 1.87882,1.98417 3.424264,3.46831 2.477133,2.37747 2.885843,2.69796 3.444707,2.70008 z m 45.613838,-45.71264 c 1.260295,0.99807 1.512396,1.10489 2.52832,1.0712 0.833535,-0.0277 1.2843,-0.19206 1.724888,-0.6293 0.794193,-0.7881 1.274231,-2.32891 1.085443,-3.48412 l -0.153364,-0.93783 -5.136724,-5.06034 -5.136725,-5.06036 -0.953408,-0.1367 c -1.222263,-0.17517 -2.252353,0.1539 -3.092768,0.98789 -0.564768,0.56045 -0.651379,0.83471 -0.56358,1.78459 0.120209,1.29918 0.31116,1.63211 2.5961,4.52447 1.712532,2.1678 4.43549,4.82888 7.101747,6.94037 z m 29.235914,18.42544 c 2.744229,0.45405 5.500579,0.41525 8.819439,-0.12411 l 2.34522,-0.38112 0.33464,-1.93087 c 0.42461,-2.45022 0.51868,-5.06785 0.2382,-6.6265 -0.27205,-1.51162 -1.03692,-4.33335 -1.22635,-4.52425 -0.0776,-0.0782 -1.47636,-0.42989 -3.10835,-0.78151 -3.2973,-0.7104 -4.68612,-1.27163 -7.261102,-2.93423 -1.499151,-0.968 -1.98277,-1.41047 -3.404991,-3.11541 -9.767314,-11.70891 -18.168964,-20.16835 -30.360912,-30.56941 -4.020166,-3.42975 -4.475133,-3.87324 -5.349625,-5.21501 -1.793344,-2.75146 -2.346818,-4.50178 -2.517273,-7.96049 l -0.08315,-1.68778 -0.830858,-0.23042 c -3.108034,-0.86188 -5.863243,-1.24552 -8.792506,-1.22418 -1.804992,0.0124 -3.47678,0.12393 -3.715105,0.24627 -0.316727,0.16258 -0.49892,0.80708 -0.677229,2.39632 -0.430234,3.83455 -0.209603,6.45601 0.855751,10.16856 l 0.314121,1.09463 2.977612,0.0663 c 1.869388,0.0411 3.451976,0.24447 4.252162,0.54563 1.470926,0.55351 3.389283,1.93754 5.196067,3.7488 1.171627,1.17563 1.33038,1.26462 2.20833,1.24912 l 0.945677,-0.016 1.2351,3.55667 c 0.679304,1.95618 1.277067,3.59894 1.328307,3.65059 0.05124,0.0516 0.198362,-0.0106 0.326939,-0.13811 0.128542,-0.12766 -0.05567,-1.59316 -0.409809,-3.25679 -0.35396,-1.66365 -0.544875,-3.11809 -0.424223,-3.23216 0.246091,-0.23171 2.642535,0.0539 2.936745,0.34958 0.104074,0.10496 0.241499,1.52707 0.305663,3.16069 0.06418,1.63363 0.201182,3.05545 0.304529,3.15957 0.103366,0.10408 0.368055,0.1734 0.588261,0.15372 0.308003,-0.0273 0.401192,-0.68684 0.403904,-2.85781 0.0018,-1.55216 0.1,-2.91804 0.218309,-3.03522 0.187121,-0.18568 3.06534,0.65097 3.400151,0.98836 0.06826,0.0686 -0.243573,1.48924 -0.69276,3.15675 -0.728114,2.70282 -0.763698,3.04814 -0.327613,3.182 0.269051,0.0826 0.546134,0.0936 0.615795,0.0236 0.0695,-0.0692 0.638932,-1.09483 1.265117,-2.27936 0.626167,-1.18452 1.258344,-2.14906 1.404846,-2.14344 0.146626,0.005 0.705083,0.30081 1.241324,0.65583 l 0.974984,0.64555 -0.3174,0.76456 c -0.174462,0.42052 -0.586807,1.21145 -0.916122,1.75766 l -0.598774,0.9931 0.772314,-0.064 c 0.424773,-0.0351 1.063901,0.13102 1.420343,0.36919 0.540248,0.36119 0.782686,0.3564 1.45777,-0.0289 0.445357,-0.25411 0.987608,-0.44479 1.205012,-0.42375 0.57975,0.0562 3.338452,2.79097 3.389053,3.35985 0.02482,0.27813 -0.241463,0.74131 -0.671396,1.16794 -0.707174,0.70175 -0.708132,0.71269 -0.122336,1.48621 0.324634,0.42857 0.599022,1.10202 0.609838,1.49655 l 0.01968,0.7173 1.90467,-0.76432 c 1.224586,-0.49137 1.997043,-0.67055 2.163349,-0.50174 0.605795,0.61549 1.14411,1.88171 0.901565,2.12239 -0.14113,0.13989 -1.050035,0.46289 -2.019878,0.71755 -2.858645,0.75066 -2.859266,0.75093 -2.817228,1.22272 0.02996,0.33611 0.730844,0.35146 3.522913,0.0778 1.917063,-0.18828 3.580766,-0.25349 3.697145,-0.14486 0.356247,0.33256 0.992839,2.43735 0.79609,2.63258 -0.101592,0.10088 -1.509736,0.22426 -3.128884,0.27408 -1.619147,0.0497 -3.016902,0.16294 -3.106119,0.25148 -0.08936,0.0885 -0.146094,0.34224 -0.126414,0.56364 0.02766,0.31105 0.903871,0.43305 3.852193,0.53641 l 3.816326,0.13369 0.0539,0.83274 c 0.13652,2.1089 0.122336,3.26216 -0.04202,3.41956 -0.09787,0.0947 -1.640229,-0.17357 -3.42641,-0.59521 -2.782247,-0.65661 -3.247851,-0.69944 -3.249376,-0.29882 -0.0014,0.40064 0.479009,0.61009 3.354266,1.4613 1.845843,0.54651 3.394727,1.03257 3.441941,1.08016 0.04716,0.0477 -0.02305,0.50473 -0.157618,1.01585 -0.20088,0.76682 -0.146272,1.0272 0.312081,1.48913 0.913179,0.92026 4.114578,6.43872 4.676829,8.06174 0.287526,0.83009 0.628206,2.60358 0.757031,3.94111 0.128896,1.3375 0.259743,2.45819 0.290841,2.49041 0.03156,0.0319 1.124306,0.2352 2.429351,0.45114 z M 46.689056,152.57172 c 0.159746,-1.76131 0.351353,-3.26276 0.425748,-3.33661 0.170739,-0.16949 6.663872,0.23953 6.854681,0.43176 0.07766,0.078 0.132797,0.96424 0.122691,1.96894 l -0.01844,1.82668 -1.659643,0.005 -1.659625,0.005 -0.01879,1.65132 c -0.01064,0.90824 -0.07766,1.64362 -0.149108,1.63422 -3.017417,-0.39546 -3.76069,-0.53443 -3.954265,-0.73925 -0.127832,-0.13634 -0.102656,-1.68815 0.05674,-3.44944 z m 1.912613,3.34842 c 0.704657,0.11028 1.340948,0.14698 1.413959,0.0815 0.07323,-0.0651 0.105848,-0.69162 0.07323,-1.39174 -0.0328,-0.7001 0.02323,-1.35533 0.124641,-1.456 0.101415,-0.1007 0.858358,-0.18875 1.682,-0.19572 l 1.497503,-0.0124 0.0812,-1.3857 0.0812,-1.38568 -0.973283,-0.11826 c -0.535266,-0.0651 -1.887773,-0.16364 -3.005573,-0.21875 l -2.032325,-0.10053 -0.257474,2.84498 c -0.141484,1.56472 -0.191926,2.91097 -0.111875,2.99164 0.08014,0.0807 0.722085,0.23683 1.426725,0.34701 z m 50.745314,51.00653 c -0.154427,-1.01185 -0.284582,-1.891 -0.289476,-1.9537 -0.0035,-0.0628 0.659251,-0.16382 1.475833,-0.22451 l 1.48469,-0.11064 0.0177,-1.34086 c 0.0106,-0.73745 0.0941,-1.40927 0.18719,-1.49292 0.17429,-0.15532 3.32386,0.1023 3.74133,0.30662 0.2048,0.1 0.42619,5.85783 0.24329,6.3261 -0.10053,0.25738 -6.15283,0.74834 -6.387606,0.51814 -0.105671,-0.10408 -0.318731,-1.01655 -0.473052,-2.02836 z m 3.711527,1.35366 2.677,-0.23893 -0.0949,-2.69401 c -0.0521,-1.4817 -0.13474,-2.72911 -0.18391,-2.77198 -0.0496,-0.0426 -0.72694,-0.11968 -1.50642,-0.17021 l -1.41724,-0.0924 0.11046,1.30591 c 0.0608,0.71826 0.0252,1.39054 -0.0793,1.49396 -0.10408,0.10354 -0.79975,0.19141 -1.54559,0.19554 l -1.356089,0.007 0.25891,1.49759 c 0.142369,0.82364 0.304119,1.54445 0.359369,1.60174 0.056,0.0565 1.30513,-0.004 2.77748,-0.13475 z m -26.336546,-18.72868 2.375257,-0.43385 -0.443354,-0.65067 c -0.243768,-0.3579 -0.983016,-1.14817 -1.642746,-1.75613 l -1.199428,-1.10546 -0.944684,0.51018 c -1.26549,0.68348 -2.289445,0.67276 -3.587912,-0.0376 -2.729766,-1.49328 -4.120091,-4.46726 -3.049702,-6.52343 0.23556,-0.45256 0.43417,-0.95286 0.44128,-1.11179 0.01418,-0.30274 -2.806324,-2.43426 -3.123122,-2.36076 -0.09663,0.0225 -0.303909,0.99967 -0.460428,2.17163 l -0.284512,2.13084 4.771595,4.80088 4.771595,4.80088 2.375221,-0.43381 z m -4.411004,-3.69821 c 0.968957,0.32236 1.264656,0.29469 2.209323,-0.2068 1.74854,-0.92825 1.634253,-0.96408 3.411871,1.07074 2.436159,2.78872 2.816129,3.51283 2.833699,5.40016 l 0.01596,1.62804 3.60346,2.56625 c 1.981919,1.41142 3.705656,2.56661 3.830492,2.56711 0.124818,8.5e-4 0.457857,-0.61275 0.740099,-1.36265 l 0.513086,-1.3635 -1.080283,-0.35584 c -0.594147,-0.19572 -2.099185,-0.65186 -3.344533,-1.01362 l -2.26425,-0.65776 -0.241056,-0.94991 c -0.13262,-0.52243 -0.134747,-1.00249 -0.0053,-1.06683 0.12996,-0.0645 1.7184,0.23368 3.530059,0.66219 1.811623,0.42854 3.326679,0.73668 3.366766,0.68479 0.03989,-0.0521 0.03812,-0.76579 -0.0035,-1.58642 l -0.07712,-1.49206 -3.7717,-0.1211 c -2.074416,-0.0667 -3.83909,-0.18898 -3.921517,-0.27203 -0.08244,-0.0831 -0.138825,-0.589 -0.12535,-1.12436 l 0.02411,-0.97337 3.199502,-0.11631 c 2.235226,-0.0812 3.173617,-0.2182 3.113601,-0.45461 -0.04734,-0.18609 -0.14113,-0.59189 -0.208433,-0.90171 -0.11418,-0.52491 -0.360892,-0.54113 -3.62041,-0.23738 -1.923854,0.17934 -3.589081,0.23623 -3.700531,0.12659 -0.331443,-0.32644 -0.674251,-1.42811 -0.498565,-1.60248 0.08971,-0.0888 1.211307,-0.44254 2.492629,-0.78588 1.281322,-0.34328 2.355807,-0.7329 2.387685,-0.86579 0.03191,-0.13279 -0.08989,-0.46143 -0.270948,-0.73015 -0.308553,-0.45819 -0.543794,-0.40477 -3.789589,0.86012 -1.903322,0.74176 -3.566688,1.32316 -3.696329,1.29204 -0.519256,-0.12464 -0.168434,-0.41271 1.147177,-0.94206 2.051403,-0.82529 2.195334,-1.44759 0.732742,-3.16801 -0.474293,-0.55803 -0.482325,-0.67535 -0.06826,-0.99846 0.258076,-0.20141 0.664871,-0.64732 0.904331,-0.99059 l 0.435162,-0.62439 -1.468053,-1.37969 c -0.807437,-0.75882 -1.540516,-1.37999 -1.62913,-1.38032 -0.08847,-3.4e-4 -0.548261,0.27192 -1.021455,0.60506 -0.824404,0.5803 -0.891565,0.58126 -1.606417,0.0216 -0.630351,-0.49351 -0.884988,-0.53693 -1.642445,-0.28031 -0.849386,0.28778 -0.922079,0.35909 -1.385822,1.36024 -0.476952,1.02819 -1.084006,1.46174 -0.908321,0.64872 0.04805,-0.22292 0.744426,-1.66358 1.547253,-3.20134 l 1.459668,-2.79592 -0.633685,-0.43469 c -0.348463,-0.23915 -0.68159,-0.43945 -0.740135,-0.44523 -0.05851,-0.007 -0.627425,0.97091 -1.264159,2.17034 -0.636734,1.19946 -1.20363,2.22641 -1.259763,2.28214 -0.111166,0.11045 -1.782245,-0.2625 -1.957132,-0.43673 -0.05886,-0.0592 0.208911,-1.33625 0.595777,-2.83836 0.38692,-1.50215 0.739603,-2.89687 0.783804,-3.09938 0.06471,-0.29689 -0.143435,-0.44169 -1.074964,-0.74763 l -1.15528,-0.37939 -0.05159,2.86372 c -0.02784,1.57505 -0.126592,2.93823 -0.218362,3.02927 -0.202954,0.20142 -1.750774,-0.0422 -2.025233,-0.31899 -0.10833,-0.10922 -0.24196,-1.52713 -0.296887,-3.15091 -0.05496,-1.62377 -0.177122,-3.02534 -0.271835,-3.11463 -0.09397,-0.0897 -0.565105,-0.20316 -1.045426,-0.25316 l -0.873375,-0.091 0.666999,3.22803 0.666999,3.228 -0.797686,0.20198 c -0.438726,0.11116 -0.857471,0.14166 -0.930518,0.0681 -0.07305,-0.0736 -0.655032,-1.72485 -1.293272,-3.6694 -0.840841,-2.56181 -1.265472,-3.54571 -1.541881,-3.57248 -0.484027,-0.047 -2.176115,0.44707 -2.156116,0.62935 0.0089,0.0754 1.178507,1.9151 2.600551,4.08827 l 2.585534,3.95127 1.065514,0.0856 c 0.586026,0.0472 1.501775,0.25214 2.035002,0.45573 1.196786,0.45694 4.730515,2.89374 4.600874,3.17268 -1.05055,2.26035 -1.165582,2.79583 -0.833589,3.8818 0.474399,1.55192 2.100266,3.20103 3.670692,3.7242 z m -0.05425,-7.54102 c -0.143789,-0.83508 0.460038,-1.39457 1.467079,-1.35918 l 0.814423,0.0278 0.11418,0.79845 c 0.138825,0.9712 -0.31506,1.64304 -1.135688,1.68079 -0.740153,0.034 -1.11514,-0.30776 -1.259905,-1.14858 z m 1.567944,0.51719 c 0.373108,-0.16453 0.446386,-0.98537 0.117549,-1.31672 -0.263501,-0.26555 -1.077712,0.14113 -1.079272,0.53904 -0.0013,0.569 0.504895,0.97904 0.961759,0.77763 z m 1.21542,2.03334 c 0.03617,-1.03747 0.44979,-1.35292 1.448657,-1.10544 0.890591,0.22063 1.122427,0.56021 1.11826,1.63803 -0.0018,0.70646 -0.344456,1.00383 -1.15012,1.00069 -0.887524,-0.004 -1.449189,-0.61127 -1.416885,-1.5333 z m 1.552537,0.87531 c 0.371016,-0.0876 0.454346,-0.23354 0.389721,-0.68253 -0.09592,-0.66725 -0.334174,-0.83102 -0.985162,-0.67725 -0.370981,0.0876 -0.454329,0.23354 -0.389703,0.68251 0.0961,0.66727 0.334155,0.83102 0.985144,0.67727 z m 0.04291,-9.76022 3.403839,3.19978 5.388046,-5.34929 c 2.963269,-2.94224 39.106474,-39.33179 80.318204,-80.865662 41.21175,-41.533887 76.32309,-76.906687 78.0252,-78.606292 l 3.09431,-3.090588 -1.68339,0.5340778 c -4.97891,1.5796809 -11.15184,4.3865012 -14.20586,6.4594282 -4.8727,3.3073 -2.64836,1.177265 -81.61884,78.157105 -41.29304,40.252141 -75.599533,73.696621 -76.236639,74.321081 l -1.158826,1.13496 0.634677,0.45256 c 0.349102,0.24887 2.16647,1.89238 4.038588,3.65227 z m 12.400239,10.2571 c 5.511207,-5.47398 147.05678,-151.362056 148.22121,-152.768445 4.03099,-4.868755 5.534,-7.504322 7.35802,-12.90258 1.25593,-3.716896 2.73476,-8.7518688 2.56952,-8.7483405 -0.0748,0.00177 -166.411335,167.5451955 -166.648188,167.8576555 -0.03032,0.0399 2.033016,2.25056 5.612931,6.01353 l 1.670547,1.75594 1.216041,-1.20774 z"
     id="path869" />
  <path
     style="font-variation-settings:normal;opacity:1;vector-effect:none;fill:#ff5555;fill-opacity:1;stroke-width:0.00306834;stroke-linecap:butt;stroke-linejoin:miter;stroke-miterlimit:4;stroke-dasharray:none;stroke-dashoffset:0;stroke-opacity:1;stop-color:#000000;stop-opacity:1"
     d="m 76.977523,172.35894 c -1.611227,-1.51619 -3.375101,-3.1215 -3.919721,-3.56735 -0.54462,-0.44585 -0.984121,-0.88818 -0.976669,-0.98296 0.0075,-0.0948 15.02007,-14.78968 33.361377,-32.65534 18.3413,-17.86566 44.64784,-43.494507 58.45898,-56.952989 61.60102,-60.028094 62.53003,-60.916116 66.60321,-63.66467 2.63879,-1.78064 6.4501,-3.67192 10.95581,-5.4365834 2.21033,-0.8656785 5.18267,-1.8544454 5.28051,-1.7565988 0.025,0.025022 -3.15365,3.2607842 -7.06372,7.1905842 -3.91006,3.929799 -17.49587,17.613755 -30.19068,30.40879 -77.67187,78.285117 -85.51958,86.186397 -111.208333,111.967337 -9.986939,10.02278 -18.206038,18.21946 -18.264665,18.21486 -0.05863,-0.005 -1.424872,-1.24889 -3.036099,-2.76508 z"
     id="path871" />
  <path
     style="font-variation-settings:normal;opacity:1;vector-effect:none;fill:#ff5555;fill-opacity:1;stroke-width:0.00306834;stroke-linecap:butt;stroke-linejoin:miter;stroke-miterlimit:4;stroke-dasharray:none;stroke-dashoffset:0;stroke-opacity:1;stop-color:#000000;stop-opacity:1"
     d="m 84.818252,180.35947 c -1.563838,-1.66005 -3.184735,-3.40557 -3.601995,-3.87895 l -0.758654,-0.86068 9.728531,-9.76461 c 5.350692,-5.37054 19.955486,-20.07818 32.455106,-32.68366 12.49962,-12.60548 27.85423,-28.07585 34.12136,-34.378585 6.26713,-6.30274 22.51358,-22.664877 36.10322,-36.360304 13.58964,-13.695428 31.37115,-31.58219 39.51447,-39.748359 13.44654,-13.4842657 14.79661,-14.7896549 14.70325,-14.2167069 -0.15123,0.9281891 -1.91411,6.6748299 -2.81025,9.1608999 -1.75721,4.874818 -4.04196,8.621515 -7.59557,12.455797 -3.22109,3.475496 -80.50515,83.214168 -130.64538,134.794818 -10.092884,10.38283 -18.142351,18.53283 -18.283342,18.5117 -0.04807,-0.007 -1.366908,-1.37132 -2.930746,-3.03136 z"
     id="path873" />
  <path
     style="font-variation-settings:normal;opacity:1;vector-effect:none;fill:#ffdd55;fill-opacity:1;stroke-width:0.000876451;stroke-linecap:butt;stroke-linejoin:miter;stroke-miterlimit:4;stroke-dasharray:none;stroke-dashoffset:0;stroke-opacity:1;stop-color:#000000;stop-opacity:1"
     d="m 4.1322311,251.38194 c 0.1785153,-3.5209 0.9566941,-6.99852 2.3692521,-10.58802 0.7288574,-1.85212 2.1732409,-4.87405 2.3296368,-4.87405 0.068204,0 0.8261148,-0.0563 1.684247,-0.12504 2.27943,-0.18267 3.133052,-0.39524 4.180426,-1.04099 0.488921,-0.30144 0.925686,-0.53252 0.97059,-0.51352 0.0449,0.019 1.456105,1.43312 3.136002,3.14247 l 3.054359,3.10792 -0.46953,0.91318 c -0.876942,1.70554 -1.003093,2.2614 -0.988113,4.35395 l 0.01329,1.85672 -1.342488,0.79689 c -3.23229,1.91865 -5.294229,2.83254 -7.69762,3.41171 -1.345844,0.32433 -4.6380715,0.83725 -6.2920037,0.98028 l -1.0246146,0.0886 z m 5.8885049,-3.71623 c 0.527016,-0.17458 1.506541,-0.57978 2.176723,-0.90042 1.344617,-0.64333 4.171598,-2.4555 4.282854,-2.74543 0.09197,-0.23967 -0.139934,-1.14941 -0.474359,-1.86087 -0.393189,-0.83647 -1.034673,-1.39985 -2.321018,-2.03843 -1.081138,-0.5367 -1.1753,-0.56217 -1.503209,-0.40655 -0.434993,0.20645 -1.523372,1.80862 -2.347714,3.45601 -0.7404157,1.47967 -1.4748687,3.6263 -1.4748687,4.31069 0,0.47263 0.020865,0.50244 0.3516909,0.50244 0.19343,0 0.7828855,-0.14285 1.3099008,-0.31744 z"
     id="path875" />
  <path
     style="font-variation-settings:normal;opacity:1;vector-effect:none;fill:#ffdd55;fill-opacity:1;stroke-width:0.000876451;stroke-linecap:butt;stroke-linejoin:miter;stroke-miterlimit:4;stroke-dasharray:none;stroke-dashoffset:0;stroke-opacity:1;stop-color:#000000;stop-opacity:1"
     d="m 70.320514,195.59844 c -2.073986,-0.96598 -8.609468,-7.58372 -10.387246,-10.51799 -0.436864,-0.72105 -0.698827,-1.84544 -0.600666,-2.57815 0.08144,-0.60788 0.858284,-1.42184 1.704397,-1.78583 0.636146,-0.27366 1.975136,-0.34932 2.668295,-0.15076 0.406527,0.11645 10.422553,9.92952 10.59607,10.38136 0.225378,0.58689 0.148865,2.08158 -0.146571,2.8633 -0.33556,0.88788 -1.082859,1.72867 -1.685154,1.89597 -0.68242,0.18955 -1.610533,0.14295 -2.149125,-0.1079 z"
     id="path877" />
  <path
     style="font-variation-settings:normal;opacity:1;vector-effect:none;fill:#ffdd55;fill-opacity:1;stroke-width:0.000876451;stroke-linecap:butt;stroke-linejoin:miter;stroke-miterlimit:4;stroke-dasharray:none;stroke-dashoffset:0;stroke-opacity:1;stop-color:#000000;stop-opacity:1"
     d="m 69.550533,185.19088 -4.789917,-4.79107 0.19239,-1.39289 c 0.282704,-2.04674 0.448968,-2.80812 0.628238,-2.87692 0.319716,-0.12268 3.094278,1.96988 3.094278,2.33369 0,0.0883 -0.170854,0.56207 -0.379676,1.05279 -0.342156,0.80406 -0.374295,0.98516 -0.325235,1.83265 0.07557,1.30548 0.578443,2.31214 1.730545,3.46424 1.176639,1.17664 2.224271,1.69581 3.421937,1.69581 0.737452,0 0.977634,-0.0599 1.70848,-0.42648 0.467718,-0.23456 0.886954,-0.44323 0.931636,-0.46371 0.130949,-0.06 2.530321,2.29652 2.930549,2.87823 0.201258,0.29252 0.318769,0.57282 0.261134,0.62288 -0.0831,0.0722 -4.314619,0.87586 -4.552939,0.86472 -0.03383,-0.002 -2.216966,-2.15886 -4.85142,-4.79394 z"
     id="path879" />
  <path
     style="font-variation-settings:normal;opacity:1;vector-effect:none;fill:#ffdd55;fill-opacity:1;stroke-width:0.000876451;stroke-linecap:butt;stroke-linejoin:miter;stroke-miterlimit:4;stroke-dasharray:none;stroke-dashoffset:0;stroke-opacity:1;stop-color:#000000;stop-opacity:1"
     d="m 86.5213,197.80989 c -0.868248,-0.58696 -2.51779,-1.73563 -3.665649,-2.5526 l -2.087016,-1.48539 -0.04999,-1.49896 c -0.04535,-1.35964 -0.08453,-1.57273 -0.42153,-2.29268 -0.388264,-0.82946 -1.783082,-2.64621 -3.109293,-4.04987 -0.953572,-1.00926 -1.151533,-1.034 -2.569422,-0.3211 -0.875328,0.44011 -1.067897,0.49304 -1.57524,0.43295 -0.974417,-0.1154 -1.90244,-0.64232 -2.915495,-1.65538 -1.75221,-1.75221 -2.029678,-2.99269 -1.143721,-5.11325 l 0.477542,-1.14302 -0.423443,-0.35868 c -0.650099,-0.55067 -2.8716,-2.01812 -3.637916,-2.40308 -0.783148,-0.39342 -2.182572,-0.74015 -2.987333,-0.74015 -0.476391,0 -0.587803,-0.0521 -0.847074,-0.39601 -0.555635,-0.73707 -4.865251,-7.44383 -4.921532,-7.65905 -0.04497,-0.17196 0.1035,-0.26286 0.760965,-0.46593 1.197189,-0.36978 1.427313,-0.34257 1.730902,0.20465 0.139429,0.25131 0.703577,1.77293 1.253661,3.38137 0.550085,1.60843 1.078357,3.04843 1.173939,3.19998 0.181697,0.2881 0.187723,0.28819 1.271157,0.0182 l 0.434627,-0.10832 -0.64339,-3.07806 c -0.353865,-1.69293 -0.645405,-3.14995 -0.647867,-3.23783 -0.0034,-0.12037 0.138297,-0.14098 0.574317,-0.0836 1.047295,0.13793 1.249691,0.19976 1.366122,0.41731 0.06332,0.11831 0.172134,1.25164 0.241817,2.51851 0.193866,3.52461 0.203155,3.57559 0.688491,3.77837 0.223813,0.0935 0.676005,0.17003 1.004871,0.17003 0.74434,0 0.706848,0.14903 0.821852,-3.26689 0.04781,-1.42009 0.119613,-2.58197 0.159563,-2.58197 0.241998,0 1.966947,0.65098 2.077308,0.78396 0.09919,0.11951 -0.03493,0.8447 -0.522695,2.82608 -0.923027,3.7495 -0.89106,3.42269 -0.35005,3.57868 0.249133,0.0718 0.699719,0.16049 1.001301,0.19701 l 0.54833,0.0664 1.157587,-2.15424 c 0.636673,-1.18483 1.220921,-2.18002 1.298328,-2.21152 0.140463,-0.0572 1.37606,0.68396 1.380211,0.82786 0.0012,0.0418 -0.655808,1.36714 -1.460026,2.9453 -1.361571,2.67188 -1.641705,3.37598 -1.343173,3.37598 0.141302,0 0.352437,-0.3107 0.828036,-1.21852 0.282882,-0.53996 0.467664,-0.72882 0.950988,-0.972 0.821174,-0.41316 1.327669,-0.38941 1.988994,0.0933 0.294883,0.21522 0.63574,0.39132 0.757459,0.39132 0.12172,0 0.560659,-0.21933 0.975418,-0.48741 0.414761,-0.26807 0.819854,-0.4874 0.900206,-0.4874 0.140926,0 3.106107,2.63427 3.106107,2.75947 0,0.14575 -1.131105,1.51518 -1.346864,1.63065 -0.350563,0.18762 -0.293275,0.44844 0.259233,1.18023 0.665177,0.88103 0.901084,1.45743 0.74062,1.80961 -0.177533,0.38965 -0.792811,0.80693 -1.882057,1.27641 -0.522296,0.22512 -1.015794,0.48948 -1.096661,0.58746 -0.302337,0.36633 0.831843,0.0474 3.785318,-1.06432 1.624975,-0.61168 3.109995,-1.11214 3.300043,-1.11214 0.391581,0 0.692583,0.277 0.809284,0.74475 0.07091,0.28423 0.02801,0.33883 -0.401201,0.51056 -0.264333,0.10577 -1.268217,0.41987 -2.230853,0.698 -2.259395,0.6528 -2.225288,0.63322 -2.145044,1.23148 0.03541,0.26402 0.152837,0.61503 0.260945,0.78002 0.174253,0.26594 0.282659,0.2998 0.955319,0.29838 0.417318,-8.6e-4 1.690924,-0.082 2.830233,-0.18028 2.575136,-0.22211 3.407183,-0.22944 3.561851,-0.0314 0.18365,0.2352 0.399423,1.23568 0.290079,1.34502 -0.136246,0.13625 -2.039053,0.31405 -4.313589,0.40308 l -1.923875,0.0753 0.03518,0.98379 c 0.03475,0.97164 0.03955,0.98496 0.388977,1.07808 0.194588,0.0519 1.920559,0.15491 3.83549,0.229 1.91493,0.0741 3.495039,0.14806 3.511352,0.16438 0.01631,0.0163 0.045,0.71213 0.06375,1.54627 l 0.03409,1.51662 -0.365554,-0.0355 c -0.201054,-0.0195 -1.605817,-0.3074 -3.121695,-0.63972 -1.515878,-0.33232 -2.935283,-0.60421 -3.154232,-0.60421 H 82.41159 l 0.07483,0.51786 c 0.04116,0.28483 0.132494,0.72008 0.20297,0.96723 0.117706,0.41276 0.184895,0.46533 0.825153,0.64559 1.064168,0.29961 5.930347,1.7826 5.965868,1.81812 0.05456,0.0546 -0.796703,2.14902 -0.998802,2.45747 -0.106509,0.16255 -0.235958,0.29555 -0.287664,0.29555 -0.05171,0 -0.804397,-0.48024 -1.672647,-1.0672 z M 77.380978,182.0345 c 0.222191,-0.31722 0.249274,-1.17101 0.05095,-1.60628 -0.175194,-0.3845 -0.791911,-0.68178 -1.414398,-0.68178 -0.737758,0 -0.940385,0.33937 -0.896803,1.50205 0.0077,0.20581 0.156282,0.48783 0.369092,0.70064 0.307643,0.30765 0.447844,0.35618 1.028826,0.35618 0.55696,0 0.705269,-0.0466 0.862332,-0.27081 z m -3.137555,-2.94796 c 0.311287,-0.268 0.341667,-0.36668 0.339453,-1.10261 -0.0029,-0.95868 -0.110526,-1.07204 -0.950992,-1.00155 -0.873973,0.0733 -1.231413,0.3922 -1.275914,1.13837 -0.05091,0.85353 0.275917,1.26013 1.012875,1.26013 0.387653,0 0.625778,-0.0801 0.874578,-0.29434 z"
     id="path881" />
  <path
     style="font-variation-settings:normal;opacity:1;vector-effect:none;fill:#ffdd55;fill-opacity:1;stroke-width:0.000876451;stroke-linecap:butt;stroke-linejoin:miter;stroke-miterlimit:4;stroke-dasharray:none;stroke-dashoffset:0;stroke-opacity:1;stop-color:#000000;stop-opacity:1"
     d="m 99.625744,213.36207 c -1.031999,-0.1192 -3.682347,-0.58013 -3.75532,-0.6531 -0.0263,-0.0263 -0.123951,-0.72287 -0.217008,-1.54793 -0.411848,-3.65153 -0.684262,-4.70277 -1.753736,-6.76767 -1.112073,-2.14715 -2.58003,-4.58711 -3.452,-5.73776 l -0.709401,-0.93611 0.06753,-0.73111 c 0.03714,-0.40211 0.101255,-0.85044 0.142473,-0.9963 0.08175,-0.28928 0.504939,-0.13163 -4.689503,-1.74698 -1.668881,-0.51898 -2.175335,-0.8004 -2.046176,-1.13698 0.118131,-0.30785 0.683223,-0.25534 3.092441,0.28731 1.194219,0.26899 2.480621,0.52293 2.858671,0.56431 0.638273,0.0698 0.693598,0.0556 0.774628,-0.19971 0.048,-0.15122 0.04811,-1.08337 2.44e-4,-2.07145 l -0.087,-1.7965 -0.73596,-0.0769 c -0.404778,-0.0423 -1.235123,-0.0777 -1.84521,-0.0787 -1.666816,-0.003 -4.561976,-0.22259 -4.831722,-0.36696 -0.341472,-0.18275 -0.312335,-0.70554 0.04694,-0.84214 0.156546,-0.0595 1.458831,-0.16851 2.893967,-0.2422 3.024421,-0.15531 3.157683,-0.17889 3.157683,-0.55881 0,-0.43003 -0.464838,-1.83245 -0.706144,-2.13045 l -0.21639,-0.26723 -2.128073,0.16379 c -1.170439,0.0901 -2.758652,0.16379 -3.529361,0.16379 -1.347518,0 -1.402742,-0.0102 -1.439146,-0.26592 -0.0505,-0.35474 0.09994,-0.42316 2.201787,-1.00134 2.332934,-0.64174 2.649912,-0.77745 2.646519,-1.13308 -0.0038,-0.39361 -0.416344,-1.25881 -0.767962,-1.61043 -0.268695,-0.26869 -0.34426,-0.28494 -0.82393,-0.17717 -0.290457,0.0653 -1.151837,0.36254 -1.914178,0.66062 -0.762341,0.29808 -1.408817,0.54197 -1.436615,0.54197 -0.0278,0 -0.05054,-0.18374 -0.05054,-0.4083 0,-0.56561 -0.209074,-1.12696 -0.696517,-1.87011 -0.457106,-0.69689 -0.443112,-0.82659 0.148575,-1.37713 0.383437,-0.35677 0.669794,-0.86719 0.669794,-1.19387 0,-0.57895 -2.804751,-3.31463 -3.398325,-3.31463 -0.14111,0 -0.616945,0.17028 -1.057413,0.37839 l -0.80085,0.37838 -0.70739,-0.31746 c -0.513609,-0.23049 -0.91184,-0.31746 -1.453724,-0.31746 -0.410483,0 -0.746333,-0.0229 -0.746333,-0.0508 0,-0.028 0.254932,-0.48035 0.566516,-1.00528 0.60239,-1.01485 1.140097,-2.14363 1.138335,-2.38964 -0.0011,-0.15174 -1.115571,-0.9169 -1.751584,-1.20256 -0.330279,-0.14834 -0.37049,-0.13482 -0.670182,0.22542 -0.175352,0.21078 -0.756586,1.18913 -1.291632,2.17412 -0.535046,0.98498 -1.042374,1.81758 -1.127397,1.8502 -0.296175,0.11366 -0.759098,-0.0905 -0.827038,-0.36483 -0.0371,-0.14977 0.211035,-1.3877 0.55141,-2.75095 0.340374,-1.36325 0.630351,-2.67788 0.64439,-2.92141 l 0.02553,-0.44277 -1.157587,-0.38511 c -0.636673,-0.2118 -1.382697,-0.42227 -1.657833,-0.46769 l -0.500244,-0.0826 -0.07855,0.57307 c -0.0432,0.31519 -0.08255,1.31937 -0.08744,2.23152 -0.0098,1.82728 -0.120579,2.8724 -0.326263,3.07808 -0.233566,0.23356 -0.734775,0.016 -0.813958,-0.35332 -0.03953,-0.18437 -0.150883,-1.54378 -0.247457,-3.02092 -0.09657,-1.47714 -0.21132,-2.77883 -0.254994,-2.89264 -0.107035,-0.27893 -0.866936,-0.46714 -1.990131,-0.49292 l -0.927724,-0.0213 0.03382,0.67018 c 0.0186,0.3686 0.168015,1.38301 0.332033,2.25425 0.572992,3.04364 0.617374,3.71646 0.245152,3.71646 -0.195767,0 -0.216266,-0.0509 -1.576682,-3.91382 l -1.132045,-3.21448 -0.71798,-0.0314 c -1.118818,-0.0489 -1.203304,-0.0919 -2.396639,-1.22175 -2.645926,-2.50507 -4.351497,-3.63289 -6.042927,-3.99593 -0.677506,-0.14542 -4.465422,-0.40724 -6.001949,-0.41485 l -0.441745,-0.002 -0.373308,-1.37083 c -0.813434,-2.98701 -1.06291,-4.94805 -0.957216,-7.52431 0.13397,-3.26546 0.435552,-4.67533 1.03613,-4.84382 0.178709,-0.0501 1.860251,-0.0886 3.73676,-0.0855 3.765996,0.006 4.419543,0.0798 7.636626,0.85901 l 1.787766,0.43303 0.06889,0.93522 c 0.271189,3.68162 0.555293,5.03807 1.415394,6.75768 1.264264,2.52767 2.10187,3.45506 6.63791,7.34945 12.016955,10.31709 19.335845,17.63277 28.941643,28.92896 2.791788,3.28307 3.10022,3.58556 4.756923,4.66522 2.349868,1.53139 3.811668,2.10752 7.520968,2.9642 1.32177,0.30527 2.51611,0.6268 2.65409,0.71451 0.25682,0.16327 0.79252,1.84773 1.22119,3.83993 0.27409,1.27384 0.35357,3.4954 0.18325,5.12211 -0.1966,1.8776 -0.58351,4.04099 -0.74001,4.13772 -0.17898,0.11061 -3.3388,0.59059 -4.81454,0.73133 -1.45073,0.13836 -3.66711,0.13177 -4.934977,-0.0147 z m 4.633996,-4.62718 c 0.67296,-0.0732 1.3724,-0.17332 1.55431,-0.22247 l 0.33074,-0.0894 -0.0173,-2.85383 c -0.01,-1.62396 -0.0713,-2.99069 -0.14264,-3.17141 -0.14882,-0.37703 -0.43279,-0.44238 -2.41061,-0.55475 l -1.35202,-0.0768 -0.0784,0.47458 c -0.0431,0.26101 -0.079,0.90125 -0.0797,1.42274 -9.7e-4,0.65029 -0.0492,0.9635 -0.15365,0.99697 -0.0838,0.0268 -0.67708,0.0843 -1.31846,0.12775 -0.641372,0.0434 -1.240325,0.12482 -1.331003,0.18086 -0.136972,0.0846 -0.121172,0.37771 0.09338,1.73193 0.142036,0.89651 0.317851,1.7868 0.390701,1.97841 l 0.132455,0.34838 1.579317,-0.0799 c 0.86863,-0.044 2.12993,-0.13984 2.80289,-0.21305 z M 50.684213,155.60117 c 0.04355,-0.61346 0.07917,-1.35371 0.07917,-1.64499 v -0.52962 h 1.644993 1.644992 l -0.0019,-1.73638 c -10e-4,-0.95501 -0.04638,-1.80652 -0.100776,-1.89225 -0.137746,-0.21706 -1.613699,-0.37393 -4.422508,-0.47003 l -2.392753,-0.0819 -0.07335,0.35389 c -0.16604,0.80106 -0.441673,4.02508 -0.441673,5.16615 0,1.46427 -0.119461,1.36344 2.010546,1.697 2.186868,0.34246 1.961007,0.43727 2.053225,-0.8619 z"
     id="path883" />
  <path
     style="font-variation-settings:normal;opacity:1;vector-effect:none;fill:#000000;fill-opacity:1;stroke-width:0.00509212;stroke-linecap:butt;stroke-linejoin:miter;stroke-miterlimit:4;stroke-dasharray:none;stroke-dashoffset:0;stroke-opacity:1;stop-color:#000000;stop-opacity:1"
     d="m 73.295569,178.80954 c -0.07275,-0.0364 -0.167584,-0.10663 -0.210752,-0.15617 -0.183269,-0.21033 -0.269266,-0.53594 -0.193762,-0.73364 0.05103,-0.13362 0.233833,-0.29917 0.438016,-0.39667 0.154022,-0.0735 0.182396,-0.0799 0.358167,-0.0799 h 0.190894 l 0.08286,0.0933 c 0.138167,0.1556 0.17977,0.29353 0.17977,0.59597 0,0.21544 -0.0078,0.27822 -0.04713,0.37696 -0.102552,0.25778 -0.252848,0.36491 -0.513071,0.36572 -0.127928,3.9e-4 -0.174205,-0.0103 -0.284993,-0.0656 z"
     id="path889" />
  <path
     style="font-variation-settings:normal;opacity:1;vector-effect:none;fill:#000000;fill-opacity:1;stroke-width:0.00509212;stroke-linecap:butt;stroke-linejoin:miter;stroke-miterlimit:4;stroke-dasharray:none;stroke-dashoffset:0;stroke-opacity:1;stop-color:#000000;stop-opacity:1"
     d="m 76.077461,181.7832 c -0.184951,-0.0377 -0.27403,-0.11276 -0.362011,-0.30494 -0.0752,-0.16424 -0.123086,-0.39894 -0.126699,-0.62091 -0.0024,-0.14948 0.0051,-0.19692 0.04126,-0.25841 0.08449,-0.14383 0.255139,-0.21965 0.59394,-0.26388 0.240132,-0.0314 0.386614,-0.002 0.50787,0.10181 0.157056,0.13443 0.264845,0.47377 0.264845,0.83378 0,0.20628 -0.03758,0.30058 -0.14927,0.37448 -0.149449,0.0989 -0.581818,0.17644 -0.769939,0.13807 z"
     id="path891" />
  <path
     style="font-variation-settings:normal;opacity:1;vector-effect:none;fill:#ff9955;fill-opacity:1;stroke-width:0.000624824;stroke-linecap:butt;stroke-linejoin:miter;stroke-miterlimit:4;stroke-dasharray:none;stroke-dashoffset:0;stroke-opacity:1;stop-color:#000000;stop-opacity:1"
     d="m 22.330083,239.88679 c -0.996685,-0.74863 -6.261552,-5.97944 -6.371398,-6.33018 -0.263216,-0.84046 0.930932,-2.19598 13.391947,-15.20168 19.798575,-20.66399 30.613434,-31.86946 30.75852,-31.86946 0.04741,0 0.612541,0.64429 1.255845,1.43175 1.344776,1.64613 3.222244,3.59651 5.57797,5.7946 l 1.644992,1.53492 -4.334788,4.36219 c -2.384134,2.39921 -10.520535,10.668 -18.080892,18.37509 -15.277511,15.57403 -21.193629,21.51851 -21.989846,22.09529 -0.293277,0.21245 -0.656653,0.38627 -0.807503,0.38627 -0.15085,0 -0.621031,-0.26046 -1.044847,-0.57879 z"
     id="path893" />
</svg>
