<?xml version="1.0" encoding="UTF-8" standalone="no"?>
<svg
   xmlns:dc="http://purl.org/dc/elements/1.1/"
   xmlns:cc="http://creativecommons.org/ns#"
   xmlns:rdf="http://www.w3.org/1999/02/22-rdf-syntax-ns#"
   xmlns:svg="http://www.w3.org/2000/svg"
   xmlns="http://www.w3.org/2000/svg"
   xmlns:sodipodi="http://sodipodi.sourceforge.net/DTD/sodipodi-0.dtd"
   xmlns:inkscape="http://www.inkscape.org/namespaces/inkscape"
   cursor="default"
   viewBox="0 0 256 256"
   version="1.1"
   id="svg50"
   sodipodi:docname="mjalnar.svg"
   inkscape:version="1.0.2-2 (e86c870879, 2021-01-15)">
  <metadata
     id="metadata56">
    <rdf:RDF>
      <cc:Work
         rdf:about="">
        <dc:format>image/svg+xml</dc:format>
        <dc:type
           rdf:resource="http://purl.org/dc/dcmitype/StillImage" />
      </cc:Work>
    </rdf:RDF>
  </metadata>
  <defs
     id="defs54" />
  <sodipodi:namedview
     pagecolor="#ffffff"
     bordercolor="#666666"
     borderopacity="1"
     objecttolerance="10"
     gridtolerance="10"
     guidetolerance="10"
     inkscape:pageopacity="0"
     inkscape:pageshadow="2"
     inkscape:window-width="1920"
     inkscape:window-height="1017"
     id="namedview52"
     showgrid="false"
     inkscape:zoom="5.8030318"
     inkscape:cx="64.570303"
     inkscape:cy="157.86272"
     inkscape:window-x="-8"
     inkscape:window-y="-8"
     inkscape:window-maximized="1"
     inkscape:current-layer="svg50"
     inkscape:document-rotation="0" />
  <path
     style="fill:#000000;stroke-width:0.238315"
     d="m 5.2308339,248.16445 c -0.4315884,-0.88564 -0.5925388,-1.84126 -0.6237946,-3.70346 l -0.0421,-2.50982 0.9633055,-0.98979 c 0.8099206,-0.83043 1.099689,-0.99066 1.8120046,-0.99849 0.5816061,-0.006 0.92132,0.12831 1.0810761,0.42849 0.2144353,0.40306 0.3116108,0.35736 1.2237133,-0.57497 0.6773562,-0.69238 0.9755082,-1.15893 0.9426942,-1.47479 -0.03512,-0.3377 0.298262,-0.81605 1.238964,-1.77762 1.067218,-1.09088 1.394674,-1.31135 1.917393,-1.29102 0.346696,0.0138 0.703988,0.1851 0.793947,0.38119 0.146447,0.31931 1.795079,-1.31101 15.740664,-15.56587 12.394747,-12.66964 15.533395,-15.96528 15.36301,-16.13198 -0.162777,-0.15933 -1.535026,-6.00171 -1.594638,-6.78926 -0.0061,-0.0805 0.245507,-0.20851 0.559201,-0.28459 0.366147,-0.0889 0.545834,-0.23582 0.501954,-0.41059 -0.03754,-0.14976 -1.892763,-2.78915 -4.122744,-5.86549 l -4.054505,-5.59331 -1.25108,-0.0492 c -2.448996,-0.0974 -4.101476,-2.03119 -6.69278,-7.83242 -4.400923,-9.85245 -8.858718,-20.61784 -8.633094,-20.84847 0.13642,-0.1394 0.30115,-0.1021 0.388311,0.0879 0.306828,0.66906 10.422823,16.08607 12.033146,18.33879 3.484066,4.87389 6.280565,5.79735 12.017498,3.96841 0.659854,-0.21039 1.276844,-0.30707 1.371082,-0.21488 0.0943,0.0922 1.251868,1.82285 2.572531,3.84593 1.320659,2.02305 2.524115,3.80052 2.674328,3.94986 0.358906,0.35613 3.445781,-0.85614 4.648885,-1.82603 0.895753,-0.72212 0.901077,-0.73805 0.948693,-2.86741 0.06713,-3 0.162197,-3.37575 0.945744,-3.73802 0.352997,-0.1633 0.64112,-0.36843 0.640172,-0.45603 -10e-4,-0.0877 -0.915224,-1.18927 -2.031695,-2.44815 -4.303067,-4.8519 -7.901854,-9.36251 -8.981937,-11.25762 -0.596012,-1.04578 -1.501207,-3.08484 -2.011532,-4.53123 -0.780001,-2.21071 -0.932497,-3.06211 -0.956819,-5.34262 -0.02953,-2.76731 0.979678,-9.17928 1.445563,-9.18438 0.138257,-9.4e-4 0.928326,1.06246 1.755764,2.36428 2.040374,3.21044 4.37558,5.53425 7.396978,7.36075 l 2.163786,1.30802 -0.09058,1.93681 c -0.119416,2.55309 0.260114,4.19151 1.369476,5.91191 1.751543,2.71637 4.010832,4.50847 7.034976,5.58023 2.592603,0.91881 3.121325,0.82268 4.967805,-0.90339 0.83818,-0.78342 1.925608,-1.61045 2.416618,-1.83771 l 0.892746,-0.41323 0.893698,-3.49109 0.893722,-3.4911 3.097917,-0.0404 3.097919,-0.0404 0.859064,-3.82432 c 0.472468,-2.1034 0.92701,-3.89384 1.010065,-3.97872 0.08312,-0.085 0.596565,-0.14973 1.141091,-0.14405 0.544516,0.006 1.063623,-0.0649 1.153539,-0.15676 0.08987,-0.0918 0.622588,-2.19081 1.183683,-4.66423 0.56112,-2.47341 1.131422,-4.62822 1.267369,-4.78851 0.277286,-0.32688 0.319987,-0.27928 0.996058,1.11023 0.766584,1.57538 1.917553,1.88594 4.17353,1.12405 3.405301,-1.14957 8.145751,-5.88102 10.276441,-10.25691 0.89602,-1.84023 0.94683,-2.87924 0.16018,-3.27597 -0.22455,-0.11313 -1.48744,-0.21118 -2.80656,-0.21762 -3.660918,-0.0179 -3.598685,-0.24162 0.54921,-1.97507 5.55006,-2.31941 10.73385,-4.89429 14.56989,-7.23716 3.56902,-2.1798 4.13508,-2.60535 7.03361,-5.2878 1.7337,-1.60449 21.49581,-21.352995 43.91577,-43.885631 l 40.76356,-40.968917 4.47908,-3.554486 c 9.4983,-7.537635 13.06625,-9.884684 32.71905,-21.5231236 3.00189,-1.7777216 4.08162,-2.2172281 4.08769,-1.6639138 0.002,0.1843059 -7.50082,12.5828284 -11.33891,18.7375634 -3.75115,6.015282 -6.03931,9.342093 -10.88138,15.820627 l -3.52638,4.718222 -8.12498,8.22082 c -4.46879,4.521398 -24.14951,24.426538 -43.73506,44.233567 -33.51475,33.893792 -35.71997,36.160012 -37.47805,38.514972 -3.42583,4.58881 -4.82789,7.55978 -7.50484,15.90282 -0.99629,3.10509 -1.37368,3.91182 -1.68672,3.6056 -0.0799,-0.0781 -0.33283,-1.00073 -0.56228,-2.05034 -0.22945,-1.04965 -0.5668,-2.05479 -0.74967,-2.23369 -0.47451,-0.46421 -2.74026,-0.31801 -4.52819,0.2922 -3.20709,1.09449 -5.70374,3.04225 -7.74866,6.04503 -1.41092,2.07182 -2.00992,3.75994 -1.92397,5.42229 0.0854,1.65121 0.46585,2.36651 1.55903,2.93097 0.50332,0.25987 0.80273,0.53234 0.80487,0.73242 0.002,0.19993 -2.08996,0.76372 -5.62422,1.51528 -4.77297,1.015 -5.63897,1.27063 -5.70185,1.68317 -0.0407,0.26757 -0.11812,0.61872 -0.1719,0.78039 -0.0538,0.16161 -1.668408,0.64523 -3.588085,1.0746 l -3.49034,0.78066 -0.18296,3.1549 c -0.100643,1.73518 -0.315,3.21297 -0.476369,3.28393 -0.161385,0.0709 -1.68426,0.47865 -3.384224,0.90593 -2.978395,0.74861 -3.101617,0.80395 -3.38709,1.52059 -0.162904,0.40905 -0.827965,1.28022 -1.477852,1.93599 -1.362695,1.37502 -2.133389,3.07022 -1.848639,4.06613 0.27236,0.95258 3.774273,4.26167 5.421098,5.12245 2.462821,1.28747 5.943743,2.15943 9.157602,2.29392 0.906632,0.0386 1.741566,0.16018 1.85538,0.27143 0.113846,0.11132 0.652598,1.14827 1.197279,2.30432 2.12904,4.51856 3.82973,6.43499 8.07694,9.10168 1.11275,0.69865 2.11245,1.40476 2.22153,1.56913 0.28138,0.42406 -4.85767,1.72882 -7.33032,1.86115 -3.2034,0.17141 -7.962266,-0.95355 -11.692188,-2.76396 -3.789364,-1.83926 -8.619555,-5.20829 -13.447179,-9.37938 -2.003533,-1.73102 -2.635952,-2.0766 -3.041625,-1.66193 -0.136884,0.13991 -0.924543,0.48499 -1.750364,0.76684 -1.679078,0.57302 -2.359556,1.14782 -2.866055,2.42092 -0.605445,1.52178 -1.35351,5.45222 -1.086534,5.70874 0.1418,0.13615 2.118475,1.17679 4.392632,2.31234 l 4.134867,2.06464 0.08292,3.68172 c 0.09647,4.2828 0.29585,4.83477 2.392217,6.62214 1.619859,1.38119 3.53381,2.33371 15.452597,7.69117 4.266552,1.91778 7.892302,3.56991 8.057182,3.67135 0.16486,0.10148 0.20792,0.3322 0.0957,0.51259 -0.15186,0.24418 -2.94699,-0.46933 -10.921913,-2.78785 -5.894786,-1.71379 -12.436808,-3.64689 -14.537866,-4.29577 -3.679696,-1.13647 -3.853504,-1.21762 -4.730102,-2.20874 -0.684808,-0.77423 -0.962919,-1.32344 -1.123689,-2.21882 -0.117501,-0.65441 -0.247695,-1.36478 -0.289334,-1.57859 -0.05207,-0.26747 -1.9416,-1.33327 -6.058187,-3.41709 -4.784031,-2.42169 -6.040526,-2.96973 -6.27214,-2.73572 -0.159397,0.16086 -1.78932,0.39998 -3.622261,0.53119 -2.808539,0.20102 -3.411452,0.16139 -3.834095,-0.25208 l -0.501485,-0.49061 -15.592153,15.93793 c -10.444524,10.67617 -15.501127,15.95838 -15.316367,15.99988 0.151661,0.0342 0.379365,0.25663 0.505754,0.49479 0.484373,0.91022 -1.87697,3.86126 -3.028468,3.78475 -0.501436,-0.0333 -0.83235,0.16924 -1.66186,1.01714 l -1.035743,1.05871 0.673935,0.47453 c 0.60113,0.42331 0.64786,0.55955 0.432929,1.26141 -0.132536,0.43276 -0.619797,1.17406 -1.082805,1.64733 -0.815196,0.83329 -0.886171,0.8537 -2.24145,0.64691 -0.769792,-0.11762 -1.68428,-0.10344 -2.03216,0.0308 -1.620165,0.62624 -5.3703018,-1.77119 -6.5466636,-4.18521 z m 3.7651211,2.95934 c 0.7858167,0.40398 1.71902,0.71681 2.073796,0.69524 0.35479,-0.0216 0.613126,-0.0688 0.574091,-0.10465 -0.03921,-0.0359 -0.603358,-0.36473 -1.253934,-0.73062 -1.4029686,-0.78882 -3.368183,-2.6505 -4.3291588,-4.10121 -0.3789192,-0.57197 -0.7674918,-1.03909 -0.863476,-1.03803 -0.5285244,0.006 0.8989596,3.03231 1.9304432,4.09288 0.2415362,0.24881 1.0824672,0.78248 1.8682603,1.18647 z m 2.470088,-0.21775 c 0.796925,0.40371 1.984519,0.77875 2.639127,0.83341 1.114181,0.0928 1.230946,0.0473 1.829348,-0.7205 0.816638,-1.04764 0.891754,-1.68148 0.222123,-1.87624 -0.270536,-0.0785 -0.627542,-0.005 -0.793453,0.16528 -0.470582,0.48101 -1.280601,0.33308 -3.161343,-0.5773 -2.069358,-1.00168 -2.6980317,-1.57514 -3.5174787,-3.20838 -1.0072534,-2.00774 -1.3523107,-3.28047 -1.0154543,-3.74555 0.1682101,-0.23226 0.2547775,-0.63431 0.1923278,-0.89344 -0.162532,-0.67449 -1.0979451,-0.48106 -1.9831113,0.41003 -0.8675066,0.87398 -1.0302568,2.20692 -0.4149778,3.40636 1.4658773,2.85782 3.4573479,4.91679 6.0028533,6.20635 z m 1.824823,-2.29126 1.246712,0.51477 1.48053,-1.51338 c 0.814322,-0.83238 1.458707,-1.53475 1.432005,-1.56088 -0.0267,-0.0262 -0.667994,-0.32901 -1.425185,-0.6731 -1.97334,-0.89686 -3.57977,-2.51246 -4.405462,-4.43067 l -0.636673,-1.47911 -1.4897029,1.52274 -1.4897027,1.52274 0.5546114,1.3887 c 1.0045914,2.5153 2.1275982,3.63245 4.7328172,4.70814 z m 3.87734,-3.42606 1.657284,0.58017 1.078391,-1.1023 c 1.224258,-1.25141 1.500843,-1.74372 1.164748,-2.07252 -0.238293,-0.23312 -0.72005,0.004 -1.699278,0.83804 -0.489311,0.41658 -0.659497,0.40194 -1.622323,-0.13918 -1.561883,-0.87766 -3.20871,-2.52569 -4.085295,-4.08818 l -0.759339,-1.35372 0.649884,-0.6643 c 0.691792,-0.70713 0.647986,-1.48723 -0.07395,-1.31675 -0.574713,0.13576 -2.064454,1.73794 -2.145334,2.30718 -0.03884,0.27407 0.27809,1.29188 0.704382,2.26187 1.048432,2.38564 2.672386,3.88896 5.130715,4.74958 z m 0.601088,-2.60004 1.067749,0.61252 16.404723,-16.76854 16.404728,-16.76854 -2.551878,-2.58853 -2.551865,-2.58852 -16.4149,16.77896 -16.414911,16.77892 0.565758,1.04043 c 0.71169,1.3088 2.107978,2.71021 3.490558,3.50335 z m 38.461993,-32.41405 c 1.634154,-0.12407 3.03496,-0.2908 3.112942,-0.37051 0.07801,-0.0797 0.07818,-0.4068 4.94e-4,-0.72691 -0.130341,-0.53702 -0.300703,-0.58098 -2.203175,-0.56864 l -2.061907,0.0135 -3.698828,-3.61856 -3.698829,-3.61858 -0.445994,-1.93659 c -0.245308,-1.06512 -0.516649,-2.00569 -0.603005,-2.09019 -0.168233,-0.16449 -1.925231,0.0876 -1.907038,0.2737 0.006,0.0612 0.278855,1.3697 0.606385,2.90781 l 0.59552,2.79652 3.66637,3.58181 3.666359,3.58182 2.971177,-0.22559 z m 0.981412,-2.29389 1.939603,-0.12108 -0.08225,-0.70768 c -0.07636,-0.65682 -0.441107,-1.05874 -5.07716,-5.59422 l -4.994903,-4.88651 -0.916782,0.16454 c -0.504216,0.0906 -0.868633,0.26085 -0.80982,0.37857 0.05881,0.11787 0.308917,1.08109 0.555783,2.14078 l 0.448831,1.9267 3.498458,3.41006 3.498471,3.41007 z M 47.53452,196.2618 c 2.596085,-0.47068 2.58706,-0.54662 -0.686502,-5.77731 -1.495104,-2.389 -2.944553,-4.56489 -3.22097,-4.83532 -0.654163,-0.63998 -6.238851,-1.00483 -5.776221,-0.37737 0.666271,0.90366 8.040899,11.19623 8.051845,11.23777 0.0073,0.0245 0.740981,-0.0863 1.631848,-0.24777 z m -9.617735,-11.83303 c 5.176771,0.0275 5.390227,0.0614 6.255014,0.9931 0.406785,0.43823 1.786427,2.4871 3.065888,4.55304 1.279459,2.06594 2.372501,3.75625 2.428948,3.75622 0.0565,-3.4e-4 0.24553,-0.63065 0.420169,-1.40136 0.208338,-0.91941 0.476857,-1.50045 0.780794,-1.68957 0.335272,-0.20851 0.487972,-0.66671 0.552789,-1.65763 l 0.08952,-1.36943 -2.663749,-4.06613 c -1.465065,-2.23635 -2.780496,-4.17995 -2.923178,-4.31911 -0.142467,-0.1394 -0.863878,-0.057 -1.602648,0.18242 -4.326448,1.40251 -7.20186,0.87166 -9.975321,-1.84162 -1.06705,-1.04391 -3.830944,-5.00173 -8.516332,-12.19512 -1.788659,-2.7461 -3.294541,-4.99245 -3.346403,-4.99188 -0.220419,0.002 8.095053,19.05578 8.946222,20.49868 0.35222,0.59704 1.192586,1.6356 1.867466,2.30792 l 1.226808,1.22269 3.393737,0.0181 z m 27.905682,27.5672 c 3.144815,1.59064 5.870445,2.93468 6.05698,2.98673 0.573936,0.16018 -0.808572,-4.15206 -1.569968,-4.89694 -0.793247,-0.77606 -9.153446,-4.51153 -9.8516,-4.40186 -0.270861,0.0425 -0.587121,0.17416 -0.702901,0.29252 -0.182596,0.18664 0.05175,2.83602 0.269734,3.04926 0.04396,0.043 2.652943,1.37965 5.797755,2.97029 z m -7.913966,-7.70678 1.194274,1.16838 2.211842,-0.58663 c 1.216496,-0.32268 2.480403,-0.64868 2.808711,-0.72452 0.571958,-0.13208 0.567571,-0.40303 -0.106926,-6.49529 l -0.703774,-6.35744 -6.18523,-0.0592 -6.18523,-0.0592 -0.629228,2.75037 -0.629205,2.75032 3.514784,3.22298 c 1.933107,1.77265 4.052447,3.7485 4.709545,4.39083 z m 19.296173,17.04231 c 4.4407,1.37069 23.404976,6.89349 23.404136,6.81574 -5.1e-4,-0.0476 -3.10919,-1.4976 -6.90812,-3.22256 -9.764474,-4.43369 -11.491696,-5.2793 -13.12751,-6.42685 -2.635921,-1.84923 -3.288991,-3.59499 -3.198891,-8.55113 l 0.04134,-2.27374 -4.931892,-2.4902 c -2.712553,-1.36959 -4.966479,-2.48021 -5.008751,-2.46807 -0.04231,0.0113 -0.549045,0.0995 -1.12613,0.1942 l -1.049236,0.17207 0.0076,0.69659 0.0077,0.69657 -1.57788,0.3986 c -0.867824,0.21923 -1.577317,0.4499 -1.576629,0.51262 7.76e-4,0.0626 1.721342,0.86168 3.823663,1.77547 5.237226,2.27641 5.322218,2.36327 6.431794,6.5753 0.472963,1.79545 0.829941,3.39802 0.793281,3.56128 -0.03663,0.16321 0.10521,0.75404 0.315215,1.31284 0.508307,1.35226 1.413365,2.02151 3.680354,2.72127 z M 57.031116,190.67348 c 2.672932,-3.6e-4 5.298489,0.0186 5.834581,0.0421 l 0.974729,0.0425 0.646305,5.79754 c 0.355489,3.18863 0.688939,5.83946 0.740995,5.89073 0.05211,0.0513 0.67533,-0.0139 1.384995,-0.14477 0.709651,-0.13088 1.406849,-0.12391 1.549319,0.0155 0.142469,0.13939 0.307538,0.20384 0.366659,0.14343 0.05924,-0.0607 0.373108,-1.29238 0.697559,-2.7375 0.862454,-3.84135 1.554228,-4.75763 4.289568,-5.68167 0.701247,-0.23689 1.516183,-0.63987 1.810946,-0.89548 1.41067,-1.22317 1.472062,-1.79452 0.14588,-1.35633 -1.144022,0.37797 -1.731452,0.1216 -2.117057,-0.92404 -0.176838,-0.47956 -0.258017,-1.09027 -0.180394,-1.35717 0.08233,-0.28325 -0.04351,-0.66588 -0.302416,-0.91918 -0.439686,-0.43014 -0.451478,-0.42418 -1.366815,0.69853 -0.806557,0.98929 -0.910518,1.25885 -0.822235,2.13229 0.08665,0.85731 -0.01988,1.14585 -0.747393,2.0243 -1.164919,1.40673 -1.675188,1.23674 -0.586268,-0.19525 0.683632,-0.89916 0.822651,-1.28651 0.786217,-2.19187 -0.03436,-0.85354 0.09043,-1.23747 0.557421,-1.7148 0.581987,-0.5949 0.581407,-0.62242 -0.01644,-0.83854 -0.528815,-0.19115 -0.622903,-0.33659 -0.651165,-1.00609 l -0.03303,-0.78261 -0.460379,0.2449 c -0.536555,0.28552 -1.093713,-0.15489 -1.039175,-0.82133 0.05025,-0.61382 -0.128635,-0.75696 -0.935135,-0.74807 -0.370721,0.005 -0.777117,-0.0935 -0.90314,-0.21677 -0.125975,-0.12333 -0.217882,-0.5132 -0.204136,-0.8665 0.01378,-0.35328 -0.06108,-0.72655 -0.166293,-0.82947 -0.105146,-0.10292 -0.472529,-0.16225 -0.816299,-0.13187 -0.743958,0.0657 -1.111714,-0.23606 -1.05983,-0.87005 0.06585,-0.80397 -0.171884,-0.72386 -1.097171,0.36973 -0.700065,0.82753 -1.130782,1.14052 -1.941088,1.41366 -0.716356,0.24107 -1.168361,0.54532 -1.447761,0.97457 -0.423945,0.65137 -0.8828,0.58486 -0.592844,-0.0858 0.281637,-0.65149 0.834121,-1.07727 1.891888,-1.45803 0.841578,-0.30294 1.199913,-0.5843 1.951078,-1.53187 1.463606,-1.8463 1.385545,-2.02375 -0.948811,-2.15653 -2.123973,-0.12074 -2.326467,-0.21214 -2.718137,-1.22539 -0.216797,-0.56088 -0.32597,-0.63643 -0.804544,-0.5568 -0.304569,0.0507 -0.655835,0.19655 -0.780589,0.32406 -0.124737,0.12759 -0.244739,1.31695 -0.266646,2.64314 -0.02188,1.32623 -0.180842,2.65281 -0.353193,2.94796 -0.369647,0.63291 -2.32186,1.77896 -4.002986,2.34979 l -1.192173,0.40481 -0.02449,1.08632 c -0.01361,0.5975 -0.08,1.36958 -0.147874,1.71577 -0.06787,0.34617 -0.04215,0.70891 0.05717,0.80606 0.09928,0.0971 2.367507,0.17635 5.040428,0.17597 z m 5.224487,-11.2298 1.483858,0.0259 2.049294,-2.65371 c 1.127091,-1.45955 2.101953,-2.75221 2.166333,-2.87259 0.163642,-0.30579 -3.256754,0.88433 -4.281393,1.48979 -1.235777,0.7302 -3.631907,2.61038 -3.697148,2.90105 -0.135417,0.60311 0.854041,1.08481 2.279056,1.10963 z m -0.445814,-3.45392 c 1.61181,-1.18404 2.427798,-1.60407 4.391045,-2.26035 1.326232,-0.44333 2.550567,-0.71401 2.720725,-0.60154 0.255279,0.1688 -0.09946,0.72849 -2.027669,3.19984 -2.120257,2.71747 -2.317685,3.04362 -2.128772,3.51657 0.185856,0.46517 0.343811,0.47438 1.468507,0.0851 1.725252,-0.59722 2.240045,-0.21149 1.6561,1.24097 l -0.430605,1.07114 1.208664,-0.37543 c 0.664761,-0.20647 1.320916,-0.26563 1.458109,-0.13146 0.137193,0.13422 0.126056,0.70187 -0.02469,1.26141 l -0.274175,1.0174 0.973341,-0.50007 c 1.356291,-0.69685 1.804063,-0.22559 1.119416,1.17814 l -0.506937,1.03937 0.942326,-0.39039 c 1.234761,-0.51154 1.575562,-0.0361 0.987643,1.37786 l -0.442599,1.06434 2.320698,-2.56385 c 1.276308,-1.41017 2.485702,-2.81498 2.687435,-3.12188 0.785098,-1.19444 1.012238,0.25882 0.633126,4.05085 -0.09255,0.92575 -0.467653,2.43411 -0.833545,3.35191 -0.365916,0.91781 -0.706201,1.98651 -0.7562,2.37489 -0.04998,0.38839 -0.240447,0.85904 -0.423222,1.04586 -0.31633,0.32334 -0.250925,0.4083 1.358076,1.76406 7.673352,6.46565 12.486611,9.55843 17.451483,11.21349 4.538443,1.5129 7.733251,1.7075 11.763641,0.71647 1.3007,-0.31981 2.36421,-0.6471 2.36331,-0.72727 -6.6e-4,-0.0801 -0.91826,-0.73531 -2.03873,-1.45582 -3.64163,-2.34203 -6.1129,-5.36141 -8.051583,-9.83732 l -0.517927,-1.19576 -2.161875,-0.15453 c -2.862911,-0.20451 -6.382251,-1.07247 -8.309464,-2.04936 -1.279206,-0.6484 -1.96419,-1.1861 -3.804359,-2.98635 -1.998635,-1.95526 -2.259316,-2.28554 -2.381572,-3.01819 -0.220092,-1.31862 0.335781,-2.62129 1.900467,-4.4537 0.767835,-0.8991 1.536511,-2.02244 1.708292,-2.49618 0.17176,-0.47374 0.307338,-3.39639 0.301292,-6.49477 l -0.011,-5.6334 -5.408541,-0.0684 c -6.154429,-0.0778 -6.737055,0.0692 -9.325646,2.35352 -2.516001,2.22029 -3.225474,2.3214 -6.654562,0.94829 -1.83403,-0.73438 -1.953157,-0.82114 -4.355708,-3.17155 -2.349038,-2.29809 -2.497934,-2.48974 -3.038339,-3.91064 -0.387302,-1.0184 -0.574144,-2.27065 -0.586799,-3.93281 l -0.0186,-2.43863 -1.55582,-0.86315 c -2.251912,-1.24931 -6.429718,-5.34418 -7.830251,-7.67537 -1.151132,-1.91545 -1.10096,-1.94777 -1.636116,1.05405 -0.814715,4.57008 -0.692617,7.48637 0.446341,10.66159 1.484282,4.138 3.063533,6.47485 8.989995,13.3025 3.568355,4.11093 4.381192,5.00911 4.565934,5.0452 0.07703,0.0148 1.030822,-0.62711 2.11966,-1.42695 z m 4.099991,6.80787 c 0.587714,-0.0357 0.65315,-0.10117 1.17804,-1.17734 0.84245,-1.72745 0.743173,-1.76841 -1.708426,-0.70496 -0.479995,0.20822 -0.57192,0.36735 -0.518607,0.89845 0.08398,0.83713 0.289714,1.0301 1.04907,0.9838 z m 2.070884,1.99819 c 0.621884,-0.0379 0.674697,-0.0905 1.267679,-1.26026 0.340307,-0.67146 0.555421,-1.28276 0.478048,-1.35844 -0.07742,-0.0757 -0.692085,0.089 -1.366047,0.36624 l -1.225354,0.50384 -0.01586,0.78233 c -0.01928,0.9506 0.03945,1.01639 0.861566,0.96639 z m 1.926501,1.4755 c 0.54834,-0.27802 0.671824,-0.42792 1.400107,-1.69982 0.546311,-0.95406 0.340051,-0.95414 -1.276461,-5.2e-4 -0.932449,0.5501 -1.010709,0.64723 -0.934225,1.15916 0.114125,0.7636 0.225345,0.83784 0.810527,0.54113 z m 1.387359,1.70732 c 0.503524,-0.005 1.019616,-0.52066 1.45901,-1.45634 0.423894,-0.90277 0.177853,-0.96233 -1.049422,-0.25416 -0.775371,0.44744 -0.976242,0.65176 -1.006766,1.024 -0.04602,0.56196 0.06736,0.69231 0.597166,0.68646 z m 4.217918,3.15833 1.059237,-0.32644 0.589056,-1.43929 c 0.607706,-1.48484 0.975797,-3.7187 0.911346,-5.53064 l -0.03685,-1.03624 -1.312073,1.55026 c -3.346016,3.95315 -3.161605,3.63311 -2.983182,5.1779 0.08872,0.76801 0.285483,1.51665 0.437277,1.66365 0.151047,0.14771 0.752667,0.12021 1.335236,-0.0592 z m 14.531099,-14.1342 c 1.27629,-0.33549 2.363519,-0.65393 2.416115,-0.70769 0.08225,-0.084 0.970786,-14.30837 1.001645,-16.03542 0.01075,-0.60599 -0.0058,-0.62062 -0.803816,-0.70712 -0.448219,-0.0485 -4.327176,-0.079 -8.619917,-0.0677 l -7.804993,0.0206 -0.726808,2.80538 c -0.399758,1.54296 -0.67252,2.85848 -0.606148,2.92341 0.06632,0.0648 2.696036,0.16308 5.843673,0.21826 3.14768,0.0549 5.762661,0.13784 5.811083,0.184 0.0478,0.0466 0.116339,2.80465 0.150874,6.12998 0.05472,5.26693 0.124347,6.03322 0.540299,5.9462 0.262575,-0.0551 1.521737,-0.37435 2.798028,-0.70983 z m -0.15952,-18.09972 c 3.677428,-0.004 4.249638,0.06 4.237017,0.47294 -0.0081,0.26256 -0.144463,2.6383 -0.303213,5.27933 -0.15875,2.64102 -0.22577,4.86335 -0.148943,4.93849 0.07679,0.0751 1.523124,-0.17061 3.214001,-0.54613 l 3.07433,-0.68282 0.03405,-0.69364 c 0.01871,-0.38151 0.198987,-4.05794 0.400527,-8.16986 0.20153,-4.11191 0.37388,-7.57888 0.38298,-7.70435 0.009,-0.12542 -3.715878,-0.23558 -8.277753,-0.24399 l -8.294297,-0.0166 -0.651928,2.84409 c -0.358573,1.56424 -0.715171,3.20731 -0.792432,3.65124 l -0.140461,0.80714 1.507227,0.034 c 0.828992,0.0182 3.420442,0.0326 5.758823,0.0302 z m 15.964449,6.71261 5.08994,-1.07893 -0.75904,-0.68729 c -1.4784,-1.33859 -1.54447,-4.15758 -0.16165,-6.90491 1.0307,-2.04779 4.07613,-5.43593 5.85731,-6.51649 1.86109,-1.12902 4.43731,-2.02059 6.08468,-2.10577 2.1321,-0.11018 2.45166,0.10525 3.03979,2.04918 l 0.49465,1.63508 1.33622,-3.92032 c 2.92353,-8.57727 3.89939,-10.43832 8.74017,-16.66826 0.2398,-0.30878 10.32225,-10.54863 22.40638,-22.75429 64.7682,-65.425203 64.20889,-64.854898 66.50256,-67.809233 7.74245,-9.972249 9.66744,-12.885445 22.71667,-34.3781705 0.64787,-1.0670798 1.06153,-1.9376186 0.91924,-1.9345214 -0.32703,0.00779 -16.12043,9.4420069 -20.81062,12.4321299 -7.40622,4.721725 -14.77889,10.427978 -20.6281,15.965663 -2.38135,2.254453 -22.37317,22.228343 -44.42633,44.38635 l -40.09663,40.287282 -2.75501,1.80554 c -5.11107,3.34962 -8.12717,4.93655 -15.73377,8.27843 -1.35812,0.59669 -2.62627,1.15638 -2.81809,1.24375 -0.1918,0.0875 0.48727,0.18915 1.5091,0.22615 3.20811,0.11659 3.69813,1.35812 1.93657,4.90843 -0.80204,1.61645 -1.25487,2.21129 -3.68847,4.84519 -3.172609,3.43361 -4.858286,4.69935 -7.105711,5.3351 -2.035037,0.57572 -2.577271,0.47919 -3.749275,-0.66739 -0.552324,-0.54033 -1.033306,-0.91437 -1.06901,-0.83102 -0.0356,0.0832 -0.471407,1.93609 -0.968465,4.1174 l -0.903744,3.96605 0.750032,0.11016 c 0.412516,0.0606 2.150988,0.0823 3.863277,0.0482 l 3.113228,-0.0619 56.106318,-56.463887 56.10632,-56.463878 3.6514,-2.883877 c 4.767,-3.764986 7.67459,-5.721908 12.77598,-8.598756 2.30108,-1.29764 4.39131,-2.493902 4.64494,-2.658337 1.12257,-0.727736 0.79393,0.269538 -1.37078,4.159927 -2.79043,5.014784 -4.11671,7.141371 -6.24752,10.017227 -4.38376,5.916493 -3.56376,5.071154 -62.88172,64.828341 l -56.34576,56.76296 -0.16487,3.53903 c -0.0907,1.94647 -0.13902,3.53444 -0.10744,3.52889 0.0316,-0.006 2.34784,-0.49564 5.14731,-1.08905 z m 49.34872,-61.40619 c 29.64051,-29.832286 55.46553,-55.926523 57.38891,-57.987242 3.46243,-3.709691 6.37443,-7.287415 8.61068,-10.579487 1.21737,-1.792127 5.28018,-8.696037 5.94083,-10.095223 l 0.38734,-0.820331 -2.68768,1.506408 c -8.45186,4.737224 -14.3697,9.047287 -20.10275,14.641156 -1.73609,1.69382 -23.70398,23.785228 -48.81767,49.09185 -25.11366,25.306619 -49.04392,49.378909 -53.17835,53.493959 l -7.517117,7.48191 2.961637,-0.0197 c 1.6289,-0.0109 3.01266,0.0301 3.07501,0.0915 0.0624,0.061 0.034,1.7598 -0.0631,3.77511 -0.0971,2.01529 -0.11195,3.66345 -0.033,3.66261 0.0789,-6.9e-4 24.39481,-24.4098 54.03532,-54.24206 z"
     id="path911" />
  <path
     style="font-variation-settings:normal;opacity:1;vector-effect:none;fill:#ff5555;fill-opacity:1;stroke-width:0.0178057;stroke-linecap:butt;stroke-linejoin:miter;stroke-miterlimit:4;stroke-dasharray:none;stroke-dashoffset:0;stroke-opacity:1;stop-color:#000000;stop-opacity:1"
     d="m 101.14308,158.25661 c -0.0106,-0.0922 -0.03,-1.75739 -0.0431,-3.70034 l -0.0237,-3.53263 -2.885009,-0.0862 -2.885006,-0.0862 13.409015,-13.44125 c 7.37496,-7.39268 30.39743,-30.54007 51.16105,-51.438626 44.44378,-44.732604 47.01975,-47.297016 49.88148,-49.65762 2.58731,-2.134247 5.8871,-4.508805 9.10173,-6.549701 2.97998,-1.891919 8.44631,-5.022585 8.56409,-4.904806 0.19284,0.192835 -4.42641,8.15428 -6.51243,11.224412 -2.56625,3.776924 -5.89136,7.686969 -10.91756,12.838116 -9.55179,9.789237 -48.38927,48.924332 -85.42112,86.075695 -23.86433,23.94136 -23.40349,23.48387 -23.42942,23.25908 z"
     id="path969" />
  <path
     style="font-variation-settings:normal;opacity:1;vector-effect:none;fill:#ff8080;fill-opacity:1;stroke-width:0.0139149;stroke-linecap:butt;stroke-linejoin:miter;stroke-miterlimit:4;stroke-dasharray:none;stroke-dashoffset:0;stroke-opacity:1;stop-color:#000000;stop-opacity:1"
     d="m 100.76306,164.4164 c 0.0124,-1.30023 0.0705,-2.92401 0.12924,-3.60841 l 0.10672,-1.24437 6.63883,-6.68252 c 35.98299,-36.21984 89.07868,-89.77272 96.92105,-97.755611 10.79278,-10.986166 13.71335,-14.264888 16.96174,-19.04177 1.72598,-2.538118 4.03215,-6.423046 5.62621,-9.477805 1.18385,-2.268653 1.41024,-2.843341 1.1201,-2.843341 -0.22908,0 -6.7986,3.746257 -9.31235,5.31035 -2.46616,1.534484 -4.7021,3.121236 -8.27153,5.869932 -2.80221,2.15788 -3.87653,3.1831 -15.17724,14.483518 -10.02272,10.022468 -83.22659,83.678367 -97.022303,97.621417 l -3.909294,3.95104 -3.794954,0.0124 c -2.087226,0.007 -3.8444,-0.0368 -3.904832,-0.097 -0.107667,-0.10719 1.559921,-7.61585 1.782511,-8.02612 0.07601,-0.1401 0.442314,0.0722 1.11531,0.64652 0.551167,0.47033 1.205082,0.90609 1.453142,0.96835 1.145703,0.28755 3.859736,-0.70512 5.663607,-2.07149 1.086286,-0.82282 4.127523,-3.90225 5.593803,-5.66403 1.4933,-1.79426 2.73813,-4.4386 2.73813,-5.8165 0,-1.09353 -1.01233,-1.71272 -2.8422,-1.73841 -0.47452,-0.007 -1.01785,-0.0756 -1.20741,-0.15311 -0.30036,-0.12289 -0.24501,-0.1851 0.43081,-0.48417 0.42651,-0.18873 1.78355,-0.78656 3.01567,-1.3285 5.94442,-2.61464 10.74745,-5.20001 15.50913,-8.34825 1.82667,-1.20772 3.45511,-2.81482 44.80417,-44.217109 23.59973,-23.630114 43.80038,-43.731632 44.89033,-44.67004 6.41553,-5.523559 12.74329,-10.157302 19.98955,-14.638101 3.17228,-1.961614 15.3883,-9.264537 16.93971,-10.12682 1.98411,-1.1027766 2.1465,-1.4693524 -3.29692,7.442478 -9.16251,15.000645 -13.02372,20.731709 -19.07071,28.305997 -2.36742,2.965353 -4.575,5.221727 -54.62326,55.8306 -12.98259,13.128015 -25.97831,26.273035 -28.87938,29.211155 -8.76629,8.87825 -10.35755,11.39345 -14.05837,22.22125 -0.61389,1.7961 -1.17276,3.36676 -1.24192,3.49035 -0.0763,0.1364 -0.31265,-0.34915 -0.60125,-1.23532 -0.60359,-1.85343 -0.94955,-2.16036 -2.43509,-2.16036 -1.48199,0 -3.4972,0.5527 -5.43252,1.48995 -1.45926,0.7067 -1.84433,1.00107 -3.54523,2.71018 -3.16568,3.18097 -4.43524,5.52432 -4.44639,8.20718 -0.006,1.46528 0.24704,2.10968 1.2331,3.13908 0.44488,0.46443 0.5462,0.66236 0.36874,0.72037 -0.13458,0.044 -2.33842,0.5154 -4.89743,1.04757 -2.559,0.53217 -4.74967,1.00041 -4.86814,1.04054 -0.16611,0.0563 -0.21025,-0.46811 -0.19288,-2.29109 z"
     id="path971" />
  <path
     style="font-variation-settings:normal;opacity:1;vector-effect:none;fill:#ffdd55;fill-opacity:1;stroke-width:0.00719279;stroke-linecap:butt;stroke-linejoin:miter;stroke-miterlimit:4;stroke-dasharray:none;stroke-dashoffset:0;stroke-opacity:1;stop-color:#000000;stop-opacity:1"
     d="m 49.291729,193.25362 c -0.163199,-0.24787 -0.894024,-1.40061 -1.624057,-2.56164 -1.997902,-3.17743 -3.10942,-4.81465 -3.636015,-5.3557 -0.752778,-0.77345 -0.708332,-0.76649 -5.469706,-0.85637 l -4.047392,-0.0764 -0.849017,-0.84075 c -1.467044,-1.45276 -1.965837,-2.1314 -2.771066,-3.77025 -1.698824,-3.45755 -8.516041,-19.17378 -8.377213,-19.31261 0.05836,-0.0584 0.837455,1.09041 3.806622,5.61287 3.767485,5.73842 5.725914,8.59328 7.151935,10.42559 1.44038,1.85075 3.379428,3.13531 5.256599,3.48233 0.739827,0.13676 2.391348,0.11395 3.321855,-0.0459 0.445943,-0.0766 1.257312,-0.27179 1.803042,-0.43375 0.54573,-0.16196 1.232069,-0.31791 1.525198,-0.34655 l 0.532961,-0.0521 2.815585,4.24296 2.815586,4.24296 -0.08932,1.09796 c -0.09997,1.22881 -0.227703,1.62339 -0.662091,2.04526 -0.301759,0.29307 -0.485874,0.77462 -0.880502,2.30299 -0.08467,0.32792 -0.192724,0.60827 -0.240113,0.62299 -0.04739,0.0147 -0.219688,-0.17604 -0.382887,-0.42391 z"
     id="path973" />
  <path
     style="font-variation-settings:normal;opacity:1;vector-effect:none;fill:#ffdd55;fill-opacity:1;stroke-width:0.00719279;stroke-linecap:butt;stroke-linejoin:miter;stroke-miterlimit:4;stroke-dasharray:none;stroke-dashoffset:0;stroke-opacity:1;stop-color:#000000;stop-opacity:1"
     d="m 45.694054,196.23236 c -0.139752,-0.18017 -0.695315,-0.94795 -1.234586,-1.70618 -0.539271,-0.75822 -2.252106,-3.15092 -3.8063,-5.31711 -1.554194,-2.16619 -2.825807,-3.97467 -2.825807,-4.01885 0,-0.47553 4.51607,-0.22188 5.55744,0.31214 0.330953,0.16972 0.269243,0.0884 1.71435,2.26012 2.718454,4.08539 4.282299,6.78771 4.299384,7.42933 0.01648,0.61908 -0.428248,0.85209 -2.179532,1.14191 -0.450195,0.0745 -0.920309,0.15588 -1.044696,0.18084 -0.185859,0.0373 -0.271438,-0.013 -0.480253,-0.2822 z"
     id="path975" />
  <path
     style="font-variation-settings:normal;opacity:1;vector-effect:none;fill:#ffdd55;fill-opacity:1;stroke-width:0.00719279;stroke-linecap:butt;stroke-linejoin:miter;stroke-miterlimit:4;stroke-dasharray:none;stroke-dashoffset:0;stroke-opacity:1;stop-color:#000000;stop-opacity:1"
     d="m 95.29732,226.67004 c -5.973316,-1.72516 -14.965326,-4.36568 -17.232371,-5.06031 -2.540909,-0.77855 -3.528305,-1.29851 -4.129523,-2.17459 -0.308417,-0.44942 -0.673092,-1.4589 -0.740431,-2.04963 -0.09898,-0.86829 -0.89871,-4.18107 -1.347992,-5.58387 -0.488643,-1.5257 -1.229931,-2.3895 -2.714476,-3.1631 -0.465822,-0.24274 -1.893816,-0.9058 -3.17332,-1.47346 -1.279503,-0.56767 -2.675325,-1.1962 -3.101826,-1.39675 l -0.775457,-0.36462 0.344647,-0.15269 c 0.189556,-0.084 0.916547,-0.29801 1.615535,-0.47564 l 1.270888,-0.32295 v -0.70213 -0.70213 l 1.098563,-0.17827 1.098564,-0.17827 4.949306,2.474 4.949306,2.47399 0.01297,2.70568 c 0.01417,2.95554 0.09677,3.72992 0.52428,4.91506 0.639301,1.77229 2.056618,3.076 5.030187,4.62696 1.434632,0.74829 2.990196,1.47805 9.305481,4.36549 5.364479,2.45271 8.104549,3.72386 8.171589,3.79091 0.13421,0.1342 -0.75738,-0.10334 -5.155924,-1.37368 z"
     id="path977" />
  <path
     style="font-variation-settings:normal;opacity:1;vector-effect:none;fill:#ffdd55;fill-opacity:1;stroke-width:0.00719279;stroke-linecap:butt;stroke-linejoin:miter;stroke-miterlimit:4;stroke-dasharray:none;stroke-dashoffset:0;stroke-opacity:1;stop-color:#000000;stop-opacity:1"
     d="m 65.929415,212.05724 c -3.206067,-1.61282 -5.873459,-2.99089 -5.927536,-3.06239 -0.137904,-0.18233 -0.289523,-1.31449 -0.298476,-2.22876 -0.0084,-0.85982 0.04045,-0.94537 0.60001,-1.05034 0.40457,-0.0759 1.3036,0.22204 3.544829,1.17476 3.246255,1.37995 6.010691,2.75313 6.477231,3.21742 0.513184,0.51072 1.560486,3.23409 1.67872,4.3653 0.04743,0.45373 0.0358,0.5164 -0.09579,0.5164 -0.08237,0 -2.772916,-1.31958 -5.978984,-2.93239 z"
     id="path979" />
  <path
     style="font-variation-settings:normal;opacity:1;vector-effect:none;fill:#ffdd55;fill-opacity:1;stroke-width:0.00719279;stroke-linecap:butt;stroke-linejoin:miter;stroke-miterlimit:4;stroke-dasharray:none;stroke-dashoffset:0;stroke-opacity:1;stop-color:#000000;stop-opacity:1"
     d="m 57.558426,203.9896 c -0.829308,-0.787 -2.70979,-2.53693 -4.17885,-3.88874 -3.646239,-3.35521 -3.661879,-3.37032 -3.661879,-3.53764 0,-0.15086 1.185247,-5.36655 1.22662,-5.39775 0.05451,-0.0411 12.311174,0.11131 12.353489,0.15362 0.04395,0.044 0.667442,5.54598 1.06407,9.38996 0.09661,0.93634 0.175661,2.0289 0.175661,2.42791 0,0.8188 -0.06554,0.93918 -0.58547,1.07529 -3.573277,0.9354 -4.665713,1.21297 -4.765503,1.21084 -0.06617,-0.001 -0.79883,-0.64648 -1.628138,-1.43349 z"
     id="path981" />
  <path
     style="font-variation-settings:normal;opacity:1;vector-effect:none;fill:#ffdd55;fill-opacity:1;stroke-width:0.00719279;stroke-linecap:butt;stroke-linejoin:miter;stroke-miterlimit:4;stroke-dasharray:none;stroke-dashoffset:0;stroke-opacity:1;stop-color:#000000;stop-opacity:1"
     d="m 51.196603,208.42213 c -1.121427,-1.10051 -2.779448,-2.73866 -3.684491,-3.64034 l -1.645534,-1.63942 -0.544511,-2.62794 c -0.299481,-1.44536 -0.561255,-2.71174 -0.581721,-2.81417 -0.02489,-0.12457 0.02088,-0.21733 0.138237,-0.28013 0.230749,-0.1235 1.440181,-0.28988 1.641846,-0.22587 0.185802,0.059 0.388739,0.69577 0.865206,2.71493 l 0.323977,1.37295 2.490335,2.4348 c 1.369684,1.33915 3.034816,2.96935 3.700293,3.62268 l 1.209959,1.18787 h 1.894238 c 2.138389,0 2.205657,0.0174 2.365379,0.61052 0.107559,0.39945 0.05157,0.65463 -0.157181,0.71642 -0.342706,0.10144 -5.220687,0.56862 -5.937184,0.56862 -0.02194,0 -0.957422,-0.90042 -2.078848,-2.00092 z"
     id="path983" />
  <path
     style="font-variation-settings:normal;opacity:1;vector-effect:none;fill:#ffdd55;fill-opacity:1;stroke-width:0.0101721;stroke-linecap:butt;stroke-linejoin:miter;stroke-miterlimit:4;stroke-dasharray:none;stroke-dashoffset:0;stroke-opacity:1;stop-color:#000000;stop-opacity:1"
     d="m 51.769779,204.62921 -3.511237,-3.42472 -0.503881,-2.07064 c -0.397038,-1.63159 -0.471538,-2.09749 -0.351352,-2.19723 0.08389,-0.0696 0.486823,-0.18876 0.895406,-0.26474 l 0.742878,-0.13816 3.259437,3.20367 c 6.334596,6.2262 6.843876,6.7987 6.851373,7.70192 0.003,0.35786 0.319481,0.29888 -2.909165,0.54212 l -0.962221,0.0725 z"
     id="path985" />
  <path
     style="font-variation-settings:normal;opacity:1;vector-effect:none;fill:#ffdd55;fill-opacity:1;stroke-width:0.0101721;stroke-linecap:butt;stroke-linejoin:miter;stroke-miterlimit:4;stroke-dasharray:none;stroke-dashoffset:0;stroke-opacity:1;stop-color:#000000;stop-opacity:1"
     d="m 17.660712,245.39232 c -2.282102,-0.82833 -3.594867,-1.73041 -4.630744,-3.18206 -0.621956,-0.8716 -1.277654,-2.22572 -1.574692,-3.25201 -0.192385,-0.6647 -0.190728,-0.71221 0.04065,-1.16575 0.266221,-0.52184 1.75399,-1.97962 2.020341,-1.97962 0.794152,0 0.733724,0.68399 -0.141358,1.60007 l -0.42268,0.44248 0.20987,0.41047 c 1.050418,2.05449 2.810971,3.97608 4.502619,4.91447 1.127906,0.62568 1.123661,0.6258 2.060032,-0.0568 0.84705,-0.61754 1.329338,-0.75819 1.4572,-0.42499 0.129348,0.33708 -0.145426,0.76569 -1.224542,1.91012 -0.588675,0.62431 -1.098603,1.14592 -1.133174,1.15915 -0.03457,0.0132 -0.558157,-0.15575 -1.163526,-0.37548 z"
     id="path987" />
  <path
     style="font-variation-settings:normal;opacity:1;vector-effect:none;fill:#ffdd55;fill-opacity:1;stroke-width:0.0101721;stroke-linecap:butt;stroke-linejoin:miter;stroke-miterlimit:4;stroke-dasharray:none;stroke-dashoffset:0;stroke-opacity:1;stop-color:#000000;stop-opacity:1"
     d="m 12.683818,251.40411 c -2.8657619,-0.97041 -5.6050683,-3.4668 -7.1432968,-6.50985 -0.7819629,-1.54694 -0.5210856,-2.9896 0.7102268,-3.92756 0.9733515,-0.74146 1.5631999,-0.67884 1.5193364,0.1613 -0.013577,0.26005 -0.059999,0.70101 -0.1031615,0.97993 -0.051101,0.33021 -0.00678,0.75373 0.1270498,1.21409 0.2465037,0.84795 1.1377345,2.67087 1.6641983,3.40396 0.58418,0.81346 1.898467,1.6641 3.705765,2.39847 1.155702,0.4696 1.581126,0.51483 2.079104,0.22101 0.728993,-0.43011 1.385947,-0.23526 1.385947,0.41109 0,0.31402 -0.446009,1.03006 -1.010827,1.62283 -0.345346,0.36243 -0.439895,0.3958 -1.115011,0.39351 -0.49334,-0.002 -1.095932,-0.12383 -1.819331,-0.36878 z"
     id="path989" />
  <path
     style="font-variation-settings:normal;opacity:1;vector-effect:none;fill:#ffdd55;fill-opacity:1;stroke-width:0.0101721;stroke-linecap:butt;stroke-linejoin:miter;stroke-miterlimit:4;stroke-dasharray:none;stroke-dashoffset:0;stroke-opacity:1;stop-color:#000000;stop-opacity:1"
     d="m 10.292721,251.6643 c -1.7346718,-0.55394 -3.1165673,-1.48397 -3.8546769,-2.59425 -0.9371912,-1.40973 -1.6554636,-3.26537 -1.2639479,-3.26537 0.066539,0 0.4331783,0.42496 0.8147537,0.94435 1.3494816,1.83688 3.0256893,3.38977 4.7648411,4.41428 0.488098,0.28754 0.871929,0.53517 0.852959,0.5503 -0.185135,0.14763 -0.765414,0.12585 -1.313929,-0.0493 z"
     id="path991" />
  <path
     style="font-variation-settings:normal;opacity:1;vector-effect:none;fill:#ff9955;fill-opacity:1;stroke-width:0.0420821;stroke-linecap:butt;stroke-linejoin:miter;stroke-miterlimit:4;stroke-dasharray:none;stroke-dashoffset:0;stroke-opacity:1;stop-color:#000000;stop-opacity:1"
     d="m 12.7326,248.3917 c -2.300129,-1.11686 -3.209815,-2.11261 -4.3047539,-4.71199 l -0.4940127,-1.17279 1.5266021,-1.53371 1.5266025,-1.5337 0.740502,1.55827 c 0.954086,2.00772 2.151732,3.21699 4.274493,4.31597 l 1.519811,0.78682 -1.42751,1.48693 c -0.785131,0.81781 -1.552528,1.48392 -1.705327,1.48026 -0.1528,-0.004 -0.898183,-0.30789 -1.656407,-0.67606 z"
     id="path993" />
  <path
     style="font-variation-settings:normal;opacity:1;vector-effect:none;fill:#ff9955;fill-opacity:1;stroke-width:0.00725174;stroke-linecap:butt;stroke-linejoin:miter;stroke-miterlimit:4;stroke-dasharray:none;stroke-dashoffset:0;stroke-opacity:1;stop-color:#000000;stop-opacity:1"
     d="m 17.716839,242.58614 c -1.242044,-0.73273 -3.003613,-2.54997 -3.616871,-3.73119 l -0.412013,-0.79359 2.218166,-2.28265 c 1.219991,-1.25546 8.612309,-8.82039 16.427374,-16.81096 l 14.209207,-14.52831 2.58632,2.58632 2.586321,2.58632 -2.314606,2.37802 c -4.453451,4.57548 -30.542495,31.24225 -30.565392,31.24225 -0.01271,0 -0.516039,-0.29079 -1.118506,-0.64621 z"
     id="path854" />
  <path
     style="font-variation-settings:normal;opacity:1;vector-effect:none;fill:#ff9955;fill-opacity:1;stroke-width:0.00512776;stroke-linecap:butt;stroke-linejoin:miter;stroke-miterlimit:4;stroke-dasharray:none;stroke-dashoffset:0;stroke-opacity:1;stop-color:#000000;stop-opacity:1"
     d="m 99.805898,207.05092 c -3.009199,-0.46912 -6.708521,-1.78234 -9.669893,-3.4327 -1.506455,-0.83953 -4.224678,-2.60805 -5.857427,-3.81092 -2.52445,-1.8598 -7.623041,-6.0343 -7.836963,-6.41655 -0.07845,-0.14018 -0.02652,-0.34774 0.175276,-0.70061 0.157713,-0.27578 0.287676,-0.61108 0.28881,-0.74512 0.0011,-0.13403 0.27551,-1.03365 0.609729,-1.99913 0.750565,-2.16823 0.933396,-3.03645 1.094569,-5.19779 0.141908,-1.903 0.05277,-2.91673 -0.256471,-2.91673 -0.107266,0 -0.495255,0.36627 -0.862197,0.81393 -1.109351,1.35339 -4.397496,4.97927 -4.459366,4.9174 -0.03181,-0.0318 0.06099,-0.33403 0.206211,-0.67161 0.34075,-0.79209 0.386013,-1.44725 0.112271,-1.62507 -0.155037,-0.10071 -0.378512,-0.0756 -0.913884,0.10279 -0.389766,0.12985 -0.775436,0.25435 -0.857045,0.27666 -0.08463,0.0231 0.0099,-0.30854 0.220041,-0.77197 0.439317,-0.96889 0.44467,-1.55853 0.0147,-1.61951 -0.153556,-0.0218 -0.641533,0.12996 -1.084395,0.3372 -0.442862,0.20724 -0.825767,0.35624 -0.850902,0.3311 -0.02513,-0.0251 0.03789,-0.3666 0.140048,-0.75882 0.235089,-0.90256 0.235645,-1.34781 0.0018,-1.43754 -0.196146,-0.0753 -1.13922,0.0748 -1.643823,0.26161 -0.167546,0.062 -0.453738,0.14884 -0.635982,0.19292 l -0.331354,0.0802 0.23465,-0.54741 c 0.824434,-1.92334 0.512538,-2.33581 -1.33879,-1.77053 -1.097317,0.33506 -1.43804,0.32153 -1.534029,-0.0609 -0.156028,-0.62167 -0.226438,-0.5073 2.611295,-4.24159 1.28462,-1.69049 1.69405,-2.34934 1.549669,-2.49372 -0.101371,-0.10137 -1.451509,0.20424 -2.650998,0.60007 -1.809329,0.59707 -2.801292,1.11076 -4.679831,2.42345 -0.968449,0.67674 -1.853904,1.21251 -1.967679,1.1906 -0.355277,-0.0684 -7.332659,-8.13713 -9.450972,-10.92919 -1.840852,-2.42635 -2.855086,-4.20143 -3.800363,-6.65127 -1.477846,-3.83007 -1.607531,-6.7745 -0.541939,-12.30446 0.350323,-1.81803 0.403378,-1.82416 1.495352,-0.17291 1.1015,1.66566 2.977309,3.77268 4.751203,5.33683 1.504449,1.32656 2.258555,1.88001 3.652595,2.68071 l 1.000373,0.57458 0.07516,2.42812 c 0.121529,3.9261 0.410652,4.63441 2.940475,7.20376 2.293214,2.32904 3.13616,3.00551 4.452156,3.57286 2.643888,1.13984 3.976984,1.33149 5.156183,0.74125 0.308384,-0.15436 1.213129,-0.82604 2.010546,-1.49264 1.677808,-1.40255 2.762288,-1.99126 4.008724,-2.1761 0.513068,-0.0761 2.819466,-0.11316 5.787935,-0.093 l 4.934976,0.0335 -0.01621,5.17868 c -0.0089,2.84828 -0.07224,5.60442 -0.140724,6.12476 -0.140477,1.06741 -0.411862,1.57213 -1.696986,3.15604 -1.111724,1.3702 -1.675614,2.29946 -1.916667,3.15856 -0.252451,0.89973 -0.186957,1.53136 0.233116,2.24821 0.420986,0.71841 3.634033,3.79888 4.719922,4.52517 2.073159,1.38661 5.689034,2.39233 9.810338,2.72865 0.92386,0.0754 1.715184,0.17294 1.758496,0.21677 0.04331,0.0438 0.374593,0.7377 0.736179,1.54191 1.883944,4.19016 4.144094,6.88648 7.948514,9.48245 0.99986,0.68225 1.8378,1.3005 1.86209,1.37388 0.0423,0.12777 -0.8316,0.42224 -2.48868,0.83861 -2.16555,0.54414 -5.01971,0.69053 -7.109834,0.36468 z"
     id="path856" />
  <path
     style="font-variation-settings:normal;opacity:1;vector-effect:none;fill:#ff9955;fill-opacity:1;stroke-width:0.00512776;stroke-linecap:butt;stroke-linejoin:miter;stroke-miterlimit:4;stroke-dasharray:none;stroke-dashoffset:0;stroke-opacity:1;stop-color:#000000;stop-opacity:1"
     d="m 65.161309,202.16486 c -0.104728,-0.49918 -0.475112,-3.55401 -0.936239,-7.72189 -0.218736,-1.97703 -0.412705,-3.61429 -0.431042,-3.63836 -0.01834,-0.0241 -2.663925,-0.0789 -5.879084,-0.12185 -3.21516,-0.0429 -5.882325,-0.11469 -5.927034,-0.1594 -0.04471,-0.0447 -0.03556,-0.88694 0.02032,-1.87161 l 0.101612,-1.7903 1.112485,-0.39678 c 1.454663,-0.51882 2.991861,-1.3435 3.639591,-1.95257 0.599474,-0.5637 0.611041,-0.61864 0.78659,-3.7363 0.05911,-1.04969 0.16837,-2.02233 0.24281,-2.16142 0.07444,-0.13909 0.284553,-0.28606 0.466918,-0.32659 0.182366,-0.0405 0.419791,-0.0972 0.527611,-0.12604 0.232302,-0.062 0.400658,0.12237 0.757824,0.83006 0.145707,0.28871 0.414352,0.5954 0.597734,0.68238 0.183195,0.0869 1.000868,0.21501 1.817051,0.28469 1.766465,0.15081 2.053736,0.23894 2.053736,0.63007 0,0.38167 -0.634266,1.32055 -1.46093,2.16255 -0.493072,0.50222 -0.875752,0.7622 -1.440377,0.97856 -0.422901,0.16205 -0.958667,0.45036 -1.190592,0.64069 -0.515533,0.42307 -0.856411,1.02971 -0.678554,1.20757 0.08455,0.0846 0.287282,-0.0547 0.633532,-0.43517 0.379412,-0.4169 0.730814,-0.64567 1.37871,-0.89756 0.747555,-0.29064 1.008868,-0.48142 1.863021,-1.36014 0.561729,-0.57789 1.051577,-0.98619 1.127125,-0.9395 0.07349,0.0454 0.133618,0.29556 0.133618,0.55588 0,0.60135 0.326832,0.85268 1.108854,0.85268 0.311974,0 0.621235,0.0685 0.687249,0.15231 0.06601,0.0838 0.15308,0.446 0.193484,0.80494 0.0404,0.35894 0.130613,0.72148 0.200469,0.80566 0.06985,0.0842 0.451859,0.18249 0.848898,0.21849 0.397038,0.036 0.780444,0.10165 0.852012,0.14588 0.07157,0.0442 0.130126,0.28432 0.130126,0.53353 0,0.2492 0.08902,0.58019 0.197827,0.73553 0.200144,0.28575 0.398327,0.29887 1.112074,0.0736 0.262232,-0.0828 0.274166,-0.0565 0.274166,0.60353 0,0.64423 0.02488,0.70385 0.374676,0.89764 0.791182,0.43831 0.787138,0.4291 0.389197,0.88701 -0.542872,0.62468 -0.642022,0.88089 -0.642022,1.65899 0,0.98235 -0.132226,1.35957 -0.855763,2.44135 -0.781372,1.16825 -0.595715,1.34673 0.347168,0.33374 0.834971,-0.89704 0.995108,-1.28438 0.975265,-2.35895 -0.01351,-0.7318 0.02982,-0.92786 0.291636,-1.31963 0.538507,-0.80578 1.325998,-1.61772 1.569015,-1.61772 0.384211,0 0.69459,0.65763 0.69459,1.4717 0,0.8082 0.371964,1.73489 0.785115,1.956 0.23714,0.12691 0.70243,0.1057 1.889521,-0.0861 0.458169,-0.074 0.517868,-0.0568 0.517868,0.14976 0,0.32843 -1.161401,1.42236 -1.888695,1.77899 -0.335091,0.16431 -1.001682,0.44678 -1.481314,0.62772 -2.318275,0.87457 -2.850618,1.66726 -3.846207,5.72723 -0.329857,1.34514 -0.623307,2.46928 -0.652112,2.49808 -0.0288,0.0288 -0.187245,-0.0198 -0.352092,-0.10803 -0.294303,-0.15751 -0.935014,-0.13917 -2.398174,0.0686 -0.549591,0.0781 -0.567973,0.0703 -0.639269,-0.26951 z"
     id="path858" />
  <path
     style="font-variation-settings:normal;opacity:1;vector-effect:none;fill:#ffccaa;fill-opacity:1;stroke-width:0.00162165;stroke-linecap:butt;stroke-linejoin:miter;stroke-miterlimit:4;stroke-dasharray:none;stroke-dashoffset:0;stroke-opacity:1;stop-color:#000000;stop-opacity:1"
     d="m 62.374868,179.44579 c -1.158435,-0.0493 -1.647782,-0.16233 -2.090588,-0.4831 -0.485642,-0.35179 -0.4279,-0.63669 0.248045,-1.22386 1.168581,-1.01511 2.905783,-2.23773 3.692256,-2.59857 1.488676,-0.68302 3.724982,-1.4006 3.724982,-1.19527 0,0.0554 -0.587505,0.83642 -2.547519,3.38673 -1.481516,1.9277 -1.6922,2.17694 -1.832696,2.1681 -0.08731,-0.006 -0.624825,-0.0298 -1.19448,-0.054 z"
     id="path860" />
  <path
     style="font-variation-settings:normal;opacity:1;vector-effect:none;fill:#ffccaa;fill-opacity:1;stroke-width:0.00162165;stroke-linecap:butt;stroke-linejoin:miter;stroke-miterlimit:4;stroke-dasharray:none;stroke-dashoffset:0;stroke-opacity:1;stop-color:#000000;stop-opacity:1"
     d="m 65.163268,182.65183 c -0.206052,-0.17338 -0.320912,-0.54637 -0.320912,-1.04212 0,-0.38625 0.198928,-0.57286 0.944347,-0.88589 0.719222,-0.30202 1.411439,-0.54383 1.556815,-0.54383 0.199721,0 0.266236,0.16045 0.183917,0.44365 -0.125005,0.43005 -0.833434,1.8312 -1.007864,1.99338 -0.141921,0.13195 -0.230845,0.15512 -0.665273,0.17332 -0.467403,0.0196 -0.514328,0.0102 -0.69103,-0.13851 z"
     id="path862" />
  <path
     style="font-variation-settings:normal;opacity:1;vector-effect:none;fill:#ffccaa;fill-opacity:1;stroke-width:0.00162165;stroke-linecap:butt;stroke-linejoin:miter;stroke-miterlimit:4;stroke-dasharray:none;stroke-dashoffset:0;stroke-opacity:1;stop-color:#000000;stop-opacity:1"
     d="m 67.24313,184.68227 c -0.101104,-0.11157 -0.116063,-0.22617 -0.116063,-0.88918 v -0.76111 l 0.877291,-0.35549 c 1.039064,-0.42105 1.628352,-0.59402 1.718077,-0.50429 0.08564,0.0856 -0.119397,0.67345 -0.503052,1.44215 -0.529251,1.06042 -0.692612,1.19599 -1.441197,1.19599 -0.348356,0 -0.43856,-0.0216 -0.535056,-0.12807 z"
     id="path864" />
  <path
     style="font-variation-settings:normal;opacity:1;vector-effect:none;fill:#ffccaa;fill-opacity:1;stroke-width:0.00162165;stroke-linecap:butt;stroke-linejoin:miter;stroke-miterlimit:4;stroke-dasharray:none;stroke-dashoffset:0;stroke-opacity:1;stop-color:#000000;stop-opacity:1"
     d="m 69.260741,186.31352 c -0.05111,-0.078 -0.122266,-0.30057 -0.158134,-0.49459 -0.09536,-0.51586 -0.01885,-0.65173 0.590694,-1.04905 0.586303,-0.38218 1.627568,-0.93435 1.761946,-0.93435 0.184106,0 0.157268,0.18868 -0.09298,0.65362 -0.479872,0.89159 -0.893253,1.45538 -1.204815,1.64318 -0.598229,0.36061 -0.758002,0.39289 -0.896714,0.18119 z"
     id="path866" />
  <path
     style="font-variation-settings:normal;opacity:1;vector-effect:none;fill:#ffccaa;fill-opacity:1;stroke-width:0.00162165;stroke-linecap:butt;stroke-linejoin:miter;stroke-miterlimit:4;stroke-dasharray:none;stroke-dashoffset:0;stroke-opacity:1;stop-color:#000000;stop-opacity:1"
     d="m 70.820041,187.87902 c -0.128689,-0.0901 -0.13968,-0.13576 -0.117317,-0.48697 0.02155,-0.33849 0.0499,-0.41355 0.224048,-0.59322 0.302844,-0.31246 1.485381,-0.96809 1.761059,-0.97638 0.193631,-0.006 0.230127,0.014 0.247187,0.13442 0.02497,0.17621 -0.343814,0.96255 -0.641826,1.36852 -0.421694,0.57447 -1.086633,0.82436 -1.473151,0.55363 z"
     id="path868" />
  <path
     style="font-variation-settings:normal;opacity:1;vector-effect:none;fill:#ffccaa;fill-opacity:1;stroke-width:0.00162165;stroke-linecap:butt;stroke-linejoin:miter;stroke-miterlimit:4;stroke-dasharray:none;stroke-dashoffset:0;stroke-opacity:1;stop-color:#000000;stop-opacity:1"
     d="m 74.358213,191.28762 c -0.297265,-0.0604 -0.499688,-0.66925 -0.651415,-1.95928 -0.149022,-1.26703 -0.166067,-1.23846 2.888683,-4.84324 l 1.437275,-1.69607 0.03046,0.6908 c 0.066,1.49675 -0.107144,3.20315 -0.465749,4.59003 -0.08664,0.33509 -0.34973,1.09285 -0.584637,1.68391 l -0.427102,1.07465 -0.738703,0.21642 c -0.740952,0.21708 -1.226053,0.29619 -1.488815,0.24278 z"
     id="path870" />
  <path
     style="font-variation-settings:normal;opacity:1;vector-effect:none;fill:#ffccaa;fill-opacity:1;stroke-width:0.00162165;stroke-linecap:butt;stroke-linejoin:miter;stroke-miterlimit:4;stroke-dasharray:none;stroke-dashoffset:0;stroke-opacity:1;stop-color:#000000;stop-opacity:1"
     d="m 87.104564,177.69634 c -0.281122,-0.18771 -0.313675,-0.69449 -0.417713,-6.50288 -0.05042,-2.81476 -0.107646,-5.21658 -0.127177,-5.33737 l -0.03551,-0.21961 -0.894794,-0.0395 c -0.492137,-0.0217 -2.155955,-0.0668 -3.697374,-0.10009 -3.455725,-0.0747 -6.575125,-0.17617 -6.838902,-0.22246 -0.172561,-0.0303 -0.198008,-0.0587 -0.198008,-0.22074 0,-0.25847 0.345084,-1.76802 0.873608,-3.82155 l 0.446898,-1.73638 7.001145,-0.0164 c 6.868857,-0.0161 9.700332,0.029 10.030494,0.15967 0.100503,0.0398 0.181921,0.12969 0.206649,0.22822 0.06413,0.25552 -0.262931,6.17902 -0.709473,12.84935 -0.240434,3.59155 -0.236984,3.55728 -0.364976,3.62578 -0.15107,0.0808 -1.790576,0.53693 -3.597421,1.00073 -1.731816,0.44455 -1.586512,0.41395 -1.677446,0.35323 z"
     id="path872" />
  <path
     style="font-variation-settings:normal;opacity:1;vector-effect:none;fill:#ffccaa;fill-opacity:1;stroke-width:0.000279449;stroke-linecap:butt;stroke-linejoin:miter;stroke-miterlimit:4;stroke-dasharray:none;stroke-dashoffset:0;stroke-opacity:1;stop-color:#000000;stop-opacity:1"
     d="m 93.616463,168.43269 c 0.0053,-0.69547 0.11227,-3.00927 0.237739,-5.14177 0.140397,-2.38621 0.166666,-3.94356 0.06831,-4.04961 -0.09674,-0.10431 -2.32755,-0.20633 -5.651875,-0.25849 -3.020632,-0.0474 -5.53969,-0.13393 -5.597907,-0.19231 -0.100414,-0.10069 0.351683,-2.38109 1.13352,-5.71753 l 0.355151,-1.51558 8.241157,0.0508 c 4.532636,0.028 8.280782,0.0905 8.329202,0.13904 0.0863,0.0865 -0.69223,16.54418 -0.786886,16.63393 -0.06756,0.0641 -4.716135,1.05921 -5.605648,1.20004 l -0.732375,0.11595 0.0096,-1.2645 z"
     id="path874" />
</svg>
