<?xml version="1.0" encoding="UTF-8" standalone="no"?>
<svg
   xmlns:dc="http://purl.org/dc/elements/1.1/"
   xmlns:cc="http://creativecommons.org/ns#"
   xmlns:rdf="http://www.w3.org/1999/02/22-rdf-syntax-ns#"
   xmlns:svg="http://www.w3.org/2000/svg"
   xmlns="http://www.w3.org/2000/svg"
   xmlns:sodipodi="http://sodipodi.sourceforge.net/DTD/sodipodi-0.dtd"
   xmlns:inkscape="http://www.inkscape.org/namespaces/inkscape"
   cursor="default"
   viewBox="0 0 256 256"
   version="1.1"
   id="svg50"
   sodipodi:docname="plasmagun.svg"
   inkscape:version="1.0.2-2 (e86c870879, 2021-01-15)">
  <metadata
     id="metadata56">
    <rdf:RDF>
      <cc:Work
         rdf:about="">
        <dc:format>image/svg+xml</dc:format>
        <dc:type
           rdf:resource="http://purl.org/dc/dcmitype/StillImage" />
      </cc:Work>
    </rdf:RDF>
  </metadata>
  <defs
     id="defs54" />
  <sodipodi:namedview
     pagecolor="#ffffff"
     bordercolor="#666666"
     borderopacity="1"
     objecttolerance="10"
     gridtolerance="10"
     guidetolerance="10"
     inkscape:pageopacity="0"
     inkscape:pageshadow="2"
     inkscape:window-width="1920"
     inkscape:window-height="1017"
     id="namedview52"
     showgrid="false"
     inkscape:zoom="2.901516"
     inkscape:cx="28.471116"
     inkscape:cy="100.87745"
     inkscape:window-x="-8"
     inkscape:window-y="-8"
     inkscape:window-maximized="1"
     inkscape:current-layer="svg50"
     inkscape:document-rotation="0" />
  <path
     style="fill:#000000;stroke-width:0.180262"
     d="m 47.024582,241.25458 c -0.456805,-1.39429 -0.757551,-3.66924 -0.703614,-5.32259 0.05279,-1.61802 0.733404,-3.70756 1.428296,-4.3849 0.419129,-0.40851 1.539657,-0.94111 2.363347,-1.12332 0.239765,-0.053 -0.318144,-4.00427 -2.87202,-20.34065 -2.80514,-17.94344 -3.225654,-20.35986 -3.656961,-21.01433 -1.209119,-1.83404 -0.769741,-5.46075 0.86421,-7.13788 0.340601,-0.34959 1.506307,-1.33318 2.590493,-2.1858 2.442513,-1.92079 4.146792,-3.50755 4.397211,-4.09395 0.333448,-0.78089 0.179404,-1.90463 -0.405048,-2.95459 -0.673832,-1.21048 -1.491105,-1.94514 -2.318817,-2.08432 l -0.632449,-0.1064 -6.686599,4.48575 c -3.677612,2.46715 -7.439971,5.05159 -8.360751,5.7432 l -1.674151,1.25749 -0.812146,-0.60105 c -0.796492,-0.58947 -0.832928,-0.59464 -1.889502,-0.26775 -1.625605,0.50299 -1.783873,0.41047 -3.366345,-1.96751 l -1.335161,-2.00636 -2.598795,-0.008 -2.598817,-0.008 -5.190636,-7.96666 C 10.7114,164.78511 8.0440769,160.62107 7.6388145,159.9134 l -0.7368684,-1.28666 0.6497775,-2.73737 c 0.6340745,-2.67124 0.6393796,-2.75301 0.2195578,-3.38387 l -0.4302183,-0.64649 4.3565179,-17.91319 c 3.61471,-14.86304 4.431131,-17.97151 4.794787,-18.25568 0.743886,-0.58126 20.879473,-14.60402 22.883073,-15.936127 l 1.888801,-1.25576 2.778327,1.615557 c 1.528081,0.88857 2.838069,1.58801 2.911087,1.55429 0.07292,-0.0339 0.234069,-0.12871 0.357876,-0.21104 0.123813,-0.0823 12.844329,-8.560472 28.268649,-18.838978 L 103.62374,63.928906 103.40553,63.26213 c -0.11999,-0.366748 -0.49631,-1.08548 -0.8362,-1.597225 -0.52733,-0.794037 -0.62857,-1.115615 -0.69011,-2.193226 l -0.0721,-1.262763 19.34075,-12.870639 c 20.82042,-13.855302 21.88637,-14.521298 32.1965,-20.11868 12.76036,-6.927512 19.13095,-9.719981 30.00584,-13.152706 6.07321,-1.917039 18.10751,-5.236252 20.8937,-5.7627384 l 0.80881,-0.1528397 0.76979,1.0608724 0.7698,1.0608723 1.2822,-0.5945038 c 1.67441,-0.7763634 2.70431,-1.0377267 4.43872,-1.1264426 l 1.42177,-0.072722 10.68461,16.0557828 10.68459,16.055797 -0.91169,1.553653 c -0.59106,1.00723 -1.25386,1.870831 -1.88456,2.455456 -1.78515,1.654748 -1.72762,1.266765 -0.45578,3.07258 l 1.11337,1.580818 1.27522,-0.718053 c 1.41,-0.794105 2.28808,-0.947057 3.00308,-0.523327 0.53192,0.315228 3.08748,3.751701 5.85618,7.874857 2.79669,4.16477 2.7986,4.188389 0.40819,6.063714 l -1.30404,1.023045 0.62084,0.932924 0.62082,0.932924 -1.86316,3.138357 c -7.45721,12.561042 -14.46238,22.424224 -20.09374,28.291686 -5.59302,5.827497 -13.34977,12.516387 -23.25077,20.049837 -3.38843,2.57818 -10.27401,7.24117 -11.94096,8.08645 -0.82343,0.41757 -0.91493,0.42253 -1.21632,0.0658 l -0.32591,-0.38577 -11.84008,8.02956 c -10.91843,7.40454 -11.88282,8.0299 -12.38966,8.03355 -1.18004,0.008 -1.79359,-0.61765 -5.79918,-5.91759 -2.72448,-3.60487 -2.51077,-3.41756 -3.3002,-2.89223 l -0.64802,0.43124 1.60727,2.26298 c 1.42009,1.99949 1.65082,2.40772 1.98128,3.50605 0.40644,1.35073 0.45747,4.43588 0.12519,7.56617 -0.10208,0.96107 -0.11397,2.33313 -0.0265,3.04902 0.0875,0.71589 0.14178,1.82248 0.12073,2.4591 -0.0211,0.63663 0.19184,2.41932 0.4732,3.96155 l 0.51153,2.80403 -12.55023,8.35111 -12.55023,8.35112 -2.916,-0.98946 c -1.6038,-0.54421 -3.70539,-1.10303 -4.67019,-1.24181 -1.48112,-0.21308 -2.00712,-0.39814 -3.37918,-1.18891 -1.35406,-0.78039 -1.90506,-0.97687 -3.30488,-1.17849 -2.44874,-0.35273 -3.87746,-0.92726 -5.18926,-2.08684 -0.93999,-0.83092 -3.77912,-3.87471 -4.83629,-5.18492 -0.2675,-0.33145 -0.4965,-0.39912 -1.06425,-0.3142 -0.89352,0.13358 -1.01056,0.0808 -1.76257,-0.79464 -0.51378,-0.59809 -0.67057,-0.68154 -1.04863,-0.55786 -1.62461,0.53151 -11.582647,7.978 -16.265337,12.16301 -3.881914,3.46934 -5.955688,6.31217 -6.62332,9.07955 -0.317375,1.31559 -0.77012,5.19778 -0.760665,6.52261 0.0035,0.48981 0.05202,0.53138 1.003348,0.85899 0.737757,0.25406 1.098453,0.49268 1.376632,0.91069 0.66563,1.00026 0.697737,3.78557 0.06785,5.8851 -0.457974,1.52651 -0.584483,1.7087 -1.189507,1.71303 -0.284194,0.001 -0.577421,0.0441 -0.651592,0.0934 -0.215606,0.14347 0.206642,2.23195 0.680239,3.36443 0.537796,1.28606 1.312616,1.98956 3.511892,3.18993 1.58592,0.86542 2.860807,1.97906 3.128497,2.73275 0.08956,0.25195 0.07453,0.76016 -0.03327,1.12926 -0.177851,0.60906 -0.323408,0.75589 -1.574925,1.58875 -1.167192,0.77671 -1.445594,1.04156 -1.812836,1.72481 l -0.433901,0.80715 0.903776,1.53698 c 0.674334,1.1468 0.935918,1.77109 1.030332,2.45926 0.233705,1.70357 -0.702894,4.281 -1.705278,4.69277 -0.464699,0.19086 -0.469289,0.22298 -0.109077,0.76427 0.48602,0.73034 1.822993,1.92188 2.49835,2.22656 0.290498,0.13101 1.4789,0.5953 2.640892,1.03166 2.607074,0.97901 5.418814,2.3871 6.6379,3.32418 1.198146,0.92099 2.925314,3.43648 3.216593,4.68473 0.446284,1.91249 -0.0221,3.20536 -1.927672,5.32087 -1.019619,1.13196 -1.584918,1.60213 -3.329008,2.76888 -2.454605,1.64158 -3.270568,2.01812 -7.204373,3.32083 -5.87173,1.94451 -18.959244,5.83955 -23.20806,6.90707 -2.454662,0.61676 -2.872737,0.55968 -3.81221,-0.52046 -0.847468,-0.97434 -2.367282,-2.22343 -3.137644,-2.57878 -0.345423,-0.15932 -1.09041,-0.29689 -1.655528,-0.30572 -1.804359,-0.0283 -2.763334,-0.24306 -3.643106,-0.81613 -1.116233,-0.72713 -2.446269,-2.50642 -2.893167,-3.87037 z m 3.107612,3.5298 c 0.866456,0.5644 1.830528,0.77877 3.628928,0.8069 1.583315,0.0247 2.70665,0.69959 4.727174,2.83982 0.62813,0.66533 1.004994,0.92762 1.383892,0.96315 1.262212,0.1183 24.597527,-6.78231 28.981779,-8.57042 1.941195,-0.79171 5.938563,-3.61238 7.071105,-4.98961 1.926357,-2.34255 2.150518,-3.64981 1.016202,-5.92634 -0.97697,-1.96076 -2.113133,-3.13076 -4.162598,-4.28637 -0.976509,-0.55064 -2.413014,-1.25113 -3.192233,-1.55665 -5.380639,-2.10968 -5.430922,-2.13813 -6.812459,-3.85643 l -0.774385,-0.96307 -2.189059,0.3217 c -4.480502,0.65843 -5.357142,0.71996 -6.776207,0.47561 -1.35266,-0.23291 -1.453893,-0.28397 -1.904297,-0.96079 -0.561077,-0.84314 -0.687871,-1.72408 -0.500818,-3.47951 0.261316,-2.45213 1.191181,-3.79424 2.983995,-4.30689 0.510412,-0.14596 2.67737,-0.41831 4.815466,-0.60526 l 3.887438,-0.33989 0.476288,-0.93807 c 0.431695,-0.85019 0.609831,-1.02693 1.901192,-1.88629 1.287579,-0.85685 1.432556,-1.00025 1.504141,-1.48815 0.04357,-0.29695 0.04163,-0.6888 -0.0043,-0.87079 -0.150086,-0.59436 -1.41099,-1.63805 -3.327086,-2.75399 -1.034268,-0.60238 -2.130652,-1.37138 -2.436399,-1.7089 -0.646871,-0.71412 -1.29685,-2.37149 -1.547398,-3.94568 l -0.164181,-1.03154 -4.140298,0.33853 c -2.277161,0.18618 -4.530798,0.26418 -5.008082,0.17333 -0.814981,-0.15516 -0.904861,-0.22265 -1.476853,-1.10905 -0.807827,-1.25174 -1.128658,-2.78403 -0.904356,-4.31859 0.202298,-1.38404 0.532349,-2.08795 1.181552,-2.51997 0.27402,-0.18236 2.278686,-0.51771 5.162953,-0.86371 l 4.715026,-0.5656 0.135313,-2.17226 c 0.2207,-3.54344 0.830478,-6.17781 1.832839,-7.91849 1.510223,-2.62261 4.571149,-5.72034 9.768855,-9.88633 3.495031,-2.80127 8.603614,-6.55597 10.636547,-7.81764 1.99579,-1.23865 2.26804,-1.26114 2.94517,-0.24361 0.21482,0.32281 0.58795,0.62332 0.89196,0.71835 l 0.52261,0.16339 23.45044,-15.54865 23.45042,-15.54865 -0.29288,-0.44011 c -0.85392,-1.28319 -6.58847,-4.84036 -9.78288,-6.06835 -2.67064,-1.02665 -5.83279,-1.87854 -8.00317,-2.15609 -5.09921,-0.65209 -11.12095,0.0794 -14.49327,1.76034 -0.78614,0.39194 -5.01548,3.11399 -10.24027,6.59092 l -8.90096,5.92329 3.26358,4.81123 3.26359,4.81123 1.04142,-0.71269 c 0.57254,-0.39237 2.23293,-1.52118 3.6893,-2.50918 l 2.64786,-1.79649 -0.32855,-0.49371 c -0.99109,-1.48933 -1.45286,-4.33347 -1.0385,-6.39636 0.2266,-1.1281 0.46466,-1.66646 1.19126,-2.69385 0.49944,-0.70619 1.13199,-1.51834 1.40566,-1.80478 1.16204,-1.21626 4.35783,-2.24928 6.52278,-2.10847 1.87133,0.12167 4.41911,1.84808 5.79413,3.92609 2.83923,4.29091 1.27429,10.0784 -3.26258,12.06547 -1.30057,0.56961 -3.50422,0.89093 -4.88335,0.71203 -1.47727,-0.19164 -3.17087,-0.97999 -4.31875,-2.01034 l -0.97735,-0.8773 -3.79182,2.59981 -3.79181,2.59982 -3.36007,-4.96354 -3.360085,-4.96355 -3.144044,2.09226 -3.144067,2.09227 1.394782,0.82322 c 2.682547,1.58327 3.488363,2.78953 3.958733,5.92684 0.345342,2.30153 -0.206922,5.15296 -1.394759,7.20116 l -0.797931,1.37587 -6.186564,4.05476 c -3.402623,2.23006 -6.843309,4.39922 -7.645946,4.82031 -1.653119,0.86724 -4.154795,1.70645 -5.643911,1.89332 -2.302197,0.28887 -4.713356,-0.68126 -7.134152,-2.87042 -1.84919,-1.67223 -2.325525,-2.44574 -3.210298,-5.21296 l -0.128464,-0.40169 -18.32606,12.19539 c -10.079321,6.70745 -18.309046,12.22092 -18.288299,12.2521 0.02075,0.0312 0.308604,0.23728 0.639731,0.45791 l 0.602007,0.4012 1.016133,-0.81667 c 0.55885,-0.44921 4.252042,-2.98794 8.207147,-5.64151 6.739474,-4.52177 7.228792,-4.82514 7.793021,-4.82956 2.013628,-0.0161 4.139366,3.44061 3.364109,5.47034 -0.287254,0.75207 -1.637507,2.04463 -4.499848,4.30755 -1.047524,0.82815 -2.178289,1.78669 -2.512835,2.13007 -1.648307,1.69184 -2.043811,5.03877 -0.813862,6.88701 l 0.548718,0.82456 0.625605,-0.28006 c 1.978142,-0.88541 4.170638,-1.08688 6.587637,-0.60534 3.64092,0.72536 5.295917,2.28093 6.021248,5.6595 0.637994,2.97177 2.728651,20.15445 2.939263,24.15723 0.179213,3.40629 -1.431098,6.74625 -4.115405,8.53581 -1.400283,0.93347 -5.922941,3.29219 -6.896577,3.5967 -1.195885,0.37404 -1.678727,0.73041 -2.166934,1.59923 -0.756619,1.34669 -0.993631,3.4069 -0.676506,5.88071 0.158593,1.23702 0.42839,2.59439 0.599577,3.01638 0.482645,1.18973 1.724852,2.75252 2.684988,3.37798 z m 4.291064,-16.66844 c 2.734232,-1.49514 3.595058,-2.24917 4.708883,-4.12429 1.025251,-1.72611 1.322303,-3.42673 1.11631,-6.39109 -0.242928,-3.49597 -2.446249,-21.15626 -2.878456,-23.07168 -0.464327,-2.05782 -1.317398,-3.31612 -2.857675,-4.21517 -2.583315,-1.50784 -6.548758,-1.6601 -9.30333,-0.35725 l -0.708173,0.33502 3.114528,19.86401 3.114529,19.86402 0.68956,-0.31907 c 0.379283,-0.17541 1.730976,-0.88848 3.003842,-1.5845 z m -32.885356,-51.33039 2.622203,0.0222 1.378049,2.07081 c 1.631817,2.45214 1.597033,2.43549 3.492758,1.66943 1.129961,-0.45661 6.417603,-3.92066 45.161532,-29.58622 28.486696,-18.87072 44.312346,-29.27807 45.109186,-29.66486 3.42717,-1.66361 9.72762,-2.40516 14.52069,-1.70904 4.9085,0.71288 9.82611,2.5178 13.78312,5.05882 3.39498,2.18008 3.52612,2.31014 7.37147,7.30979 4.13549,5.37687 4.39609,5.66179 5.27909,5.77111 l 0.66482,0.0823 11.97361,-8.12508 11.9736,-8.12508 0.29229,0.43924 0.2923,0.43924 1.3022,-0.72756 c 0.71621,-0.40013 2.23105,-1.34503 3.36626,-2.09984 l 2.06406,-1.37225 -19.52237,-29.33634 -19.52237,-29.336336 -4.19097,2.731456 -4.19095,2.731457 -6.48264,-9.543807 c -3.56551,-5.249073 -7.24507,-10.668541 -8.17679,-12.043269 l -1.69415,-2.499439 -13.01709,8.665688 c -7.15946,4.766015 -13.05743,8.764155 -13.10674,8.884507 -0.0493,0.120325 -0.0634,0.648281 -0.0312,1.173249 0.0498,0.81245 0.17482,1.129311 0.84034,2.129386 0.70581,1.060617 0.79262,1.301862 0.89249,2.479518 0.0756,0.892311 0.18126,1.282393 0.33424,1.234358 0.12301,-0.03867 3.11128,-1.88057 6.64065,-4.093197 3.52938,-2.212599 6.72613,-4.140218 7.10395,-4.283526 0.37782,-0.143268 0.8611,-0.200605 1.07401,-0.127355 0.3236,0.111402 1.60964,1.994392 7.84078,11.48047 6.80072,10.353202 7.44634,11.383886 7.36967,11.765533 -0.0783,0.38942 -2.90781,2.293271 -40.965181,27.562777 -25.2808,16.78603 -41.123123,27.22675 -41.515236,27.36012 -0.753382,0.25626 -1.264946,0.14456 -1.95039,-0.42588 -0.72689,-0.60491 -14.831824,-21.40814 -15.142989,-22.33422 -0.303861,-0.90439 -0.119622,-1.64219 0.595849,-2.38599 0.316713,-0.32931 2.960228,-2.25509 5.874446,-4.27959 2.914181,-2.02456 5.247234,-3.71657 5.184487,-3.76016 -0.06273,-0.0435 -1.238994,-0.75646 -2.613901,-1.58419 l -2.499834,-1.504939 -1.139794,0.753626 c -0.626406,0.415233 -6.231753,4.303093 -12.455565,8.640803 l -11.316078,7.88669 -0.286248,1.19672 c -0.157436,0.65822 -2.107015,8.67346 -4.332386,17.8117 l -4.0461347,16.61497 0.4218227,0.62411 c 0.4088424,0.60461 0.4010659,0.71274 -0.2327909,3.46563 l -0.654239,2.84123 4.3361039,6.61765 c 2.384891,3.63966 4.430776,6.79822 4.546488,7.01895 0.115701,0.22072 0.784328,1.29916 1.485844,2.39654 l 1.275467,1.99521 2.622192,0.0222 z m 13.610753,-28.53004 14.181625,-9.43741 4.410445,6.6276 4.410452,6.6276 -8.132175,5.26878 c -4.472702,2.89783 -10.884244,7.09988 -14.247836,9.33791 l -6.115688,4.06909 -4.344203,-6.52805 -4.344202,-6.52804 z m 2.073381,17.02557 c 4.106405,-2.73244 10.382854,-6.84465 13.94763,-9.1383 l 6.481409,-4.17024 -4.210625,-6.32734 -4.210619,-6.3273 -13.881494,9.23767 -13.881482,9.23768 4.144467,6.22789 4.144474,6.22793 7.46618,-4.96808 z m 35.934344,54.4068 c 1.091213,0.2011 2.025666,0.15827 4.780152,-0.2192 1.8831,-0.25807 3.849651,-0.57624 4.37014,-0.70707 l 0.946354,-0.23788 0.424002,-0.86989 c 1.013037,-2.07838 0.846326,-3.91867 -0.527277,-5.82091 l -0.799216,-1.1068 -1.240168,0.0887 c -0.682091,0.0488 -2.710569,0.24994 -4.507743,0.44707 -2.443739,0.26806 -3.413693,0.45564 -3.847065,0.74404 -0.915863,0.60948 -1.59598,1.9961 -1.742345,3.5523 -0.171397,1.82229 -0.08178,2.57442 0.391454,3.28556 0.348136,0.52315 0.557473,0.62395 1.751712,0.84413 z m -4.250254,-24.10141 c 0.567787,0.40559 1.306916,0.4784 3.138898,0.3092 0.899246,-0.083 3.071325,-0.26216 4.826823,-0.39801 2.24819,-0.17399 3.272789,-0.33562 3.465686,-0.54673 0.429301,-0.46982 0.923613,-3.30652 0.834149,-4.78683 -0.177765,-2.94105 -0.961815,-3.18139 -7.667017,-2.35029 -2.545585,0.31553 -4.764271,0.66413 -4.930387,0.77467 -0.481591,0.32048 -0.83071,1.09532 -1.014318,2.2511 -0.206872,1.30229 -0.178836,1.65641 0.22669,2.86288 0.381303,1.13438 0.610777,1.5206 1.119453,1.88402 z M 50.107345,134.42323 c 0.688006,0.62714 1.21201,0.65226 2.280509,0.10924 l 0.923541,-0.4694 -8.265235,-12.42021 -8.265234,-12.4202 -0.40657,0.40584 c -0.223645,0.22321 -0.561781,0.50912 -0.751487,0.63537 -0.47683,0.3173 -0.786245,1.49938 -0.534387,2.04149 0.402524,0.86641 14.531147,21.67325 15.018788,22.11775 z m 21.063075,27.79469 c 2.139986,1.70725 4.057416,2.3631 6.195111,2.119 1.258868,-0.14374 3.831587,-1.05261 5.494299,-1.94096 0.888435,-0.47462 4.32965,-2.64094 7.647196,-4.81396 l 6.031937,-3.95087 0.704,-1.20417 c 0.512241,-0.87614 0.823952,-1.79137 1.144281,-3.35982 0.484374,-2.37154 0.392588,-3.85354 -0.369993,-5.97399 -0.395509,-1.09973 -0.480416,-1.2263 -1.330389,-1.9821 -0.499185,-0.44416 -1.473326,-1.14306 -2.164733,-1.55311 l -1.257136,-0.74557 -6.131065,4.08003 -6.131078,4.08003 -0.237472,1.4741 c -0.396602,2.46186 -0.124476,3.55704 1.170428,4.71052 1.231945,1.09738 3.342147,2.08197 5.568971,2.59844 1.0914,0.25314 2.011994,0.50176 2.045774,0.55253 0.230826,0.34686 -3.532685,1.70188 -5.530387,1.99116 -1.827003,0.26455 -4.795766,-0.24481 -7.162251,-1.22891 -1.8923,-0.78687 -3.033182,-1.53091 -4.543199,-2.96286 l -0.972778,-0.92248 -2.122876,1.41271 -2.122878,1.41269 0.409317,1.29746 c 0.569123,1.80395 1.743854,3.37802 3.664666,4.91039 z m -16.310754,-29.24471 1.275603,-0.84888 -8.239005,-12.38078 -8.239005,-12.38078 -1.275604,0.84887 -1.275591,0.84886 8.239005,12.38078 8.239005,12.38079 z m 2.846139,-1.89403 1.270394,-0.84539 -2.375846,-3.66976 c -1.306765,-2.01834 -5.006205,-7.65804 -8.221022,-12.53264 l -5.845179,-8.86288 -0.951455,0.77151 c -0.523267,0.42439 -1.1031,0.8731 -1.288438,0.99724 l -0.336961,0.22575 8.239005,12.38079 8.239005,12.38078 1.270404,-0.84541 z m 16.275073,23.91607 c 0.847275,0.66107 1.938821,1.29756 2.954578,1.72286 2.162471,0.9054 5.383952,1.47245 7.029615,1.23737 1.183626,-0.16906 4.578346,-1.21714 4.623419,-1.42741 0.01095,-0.0514 -0.737535,-0.27595 -1.6634,-0.49931 -1.181092,-0.2849 -2.230828,-0.71619 -3.518049,-1.44537 -1.61465,-0.91469 -1.911428,-1.15181 -2.47487,-1.97748 -0.74014,-1.08464 -0.892683,-2.20134 -0.567555,-4.15562 l 0.188971,-1.13589 -0.83646,0.46553 c -0.460021,0.25612 -2.459037,1.52257 -4.442167,2.81451 l -3.605697,2.34897 0.483959,0.50176 c 0.266163,0.276 1.088652,0.97352 1.827681,1.55013 z m -13.250311,-25.92894 1.455226,-0.9684 -3.218646,-4.62461 c -1.770255,-2.54352 -5.544735,-8.11905 -8.387867,-12.38998 l -5.169184,-7.7654 -1.274534,0.84815 -1.274512,0.84816 6.527627,9.89279 c 3.59016,5.44106 7.283378,11.07067 8.207115,12.51027 l 1.67948,2.61747 z m -1.14891,-5.35236 2.865696,4.2099 1.220419,-0.81216 1.220397,-0.81212 -4.668061,-6.79973 c -2.567485,-3.73982 -6.342191,-9.3152 -8.388438,-12.38961 l -3.720031,-5.5901 -1.202995,0.80055 -1.202973,0.80054 5.505296,8.19133 c 3.027945,4.50519 6.794886,10.08575 8.370984,12.40121 z m 4.384204,0.65517 1.173435,1.76333 1.374774,-0.91487 1.374763,-0.91486 -3.619124,-5.22422 c -1.990529,-2.8733 -5.765122,-8.44875 -8.3881,-12.38982 l -4.768631,-7.16584 -1.375269,0.91519 -1.37528,0.91521 7.215,10.62628 c 3.96823,5.84447 7.74316,11.4197 8.388656,12.38946 z m 3.10085,-1.84697 1.073564,1.61325 1.200564,-0.79895 1.200554,-0.79891 -8.323448,-12.50768 -8.323454,-12.507699 -0.388118,0.311547 c -0.213428,0.17143 -0.783017,0.58409 -1.265668,0.917133 l -0.877612,0.605451 7.314415,10.776648 c 4.022927,5.92715 7.797745,11.50247 8.38855,12.38953 z m 5.051882,-1.0342 1.276458,-0.84944 -8.352285,-12.4678 -8.352285,-12.467794 -1.065483,0.644252 c -0.585986,0.354391 -1.133459,0.739661 -1.216282,0.856646 -0.12484,0.175972 1.274562,2.354313 8.1413,12.672986 l 8.292073,12.46052 z m 2.850473,-1.89689 1.275592,-0.84887 -8.338869,-12.53085 -8.338878,-12.530856 -1.175543,0.782288 c -0.646558,0.430263 -1.190618,0.857268 -1.209007,0.948918 -0.01841,0.09166 3.689052,5.76049 8.238819,12.59745 l 8.27229,12.43081 z m 2.935427,-1.95343 1.341572,-0.89278 -8.33887,-12.53084 -8.338877,-12.530865 -1.250583,0.832216 c -0.687831,0.457735 -1.266295,0.9104 -1.285476,1.005984 -0.0192,0.09558 3.692418,5.761657 8.247934,12.591375 l 8.282846,12.41763 1.341571,-0.89277 z m 30.520857,44.59508 c 1.9057,2.11564 3.21736,3.34338 4.11837,3.85498 0.71591,0.40648 3.44332,1.10371 4.44092,1.13523 l 0.62979,0.0199 -3.55208,-5.33771 -3.55207,-5.33771 -2.17601,1.44806 -2.17601,1.44807 0.32456,0.48772 c 0.17852,0.26827 1.05273,1.29486 1.94183,2.2819 z m -27.603549,-46.53646 1.275591,-0.84886 -8.338869,-12.53085 -8.338877,-12.530865 -1.275592,0.848872 -1.275604,0.848872 8.338878,12.530851 8.338869,12.53085 z m 2.928528,-1.94883 1.352791,-0.90024 -6.252382,-9.31813 C 75.411967,98.404062 71.622106,92.790039 70.428917,91.053413 l -2.169558,-3.157474 -1.269796,0.845005 -1.269806,0.845019 8.338876,12.530867 8.33887,12.53085 z m 36.014551,54.68555 c 0.98187,0.56804 1.71443,0.82635 2.80658,0.98959 l 1.47792,0.22091 15.05501,-10.01862 15.05502,-10.01862 0.0476,-1.06014 c 0.0261,-0.58309 -0.003,-1.56237 -0.065,-2.17618 l -0.11249,-1.11602 -3.98886,-6.16907 -3.98888,-6.16904 -17.52055,11.65934 c -9.6363,6.41265 -17.53754,11.74374 -17.55831,11.84687 -0.0208,0.10316 1.64996,2.67488 3.7128,5.71492 l 3.75056,5.52739 z m 0.77555,-17.1743 c 0.1007,-0.14187 3.32652,-2.28597 7.16885,-4.76415 3.84202,-2.47861 7.40775,-4.78718 7.92384,-5.13014 l 0.93839,-0.62346 3.16185,4.7513 3.16182,4.7513 -5.7303,3.67205 c -3.15164,2.01967 -6.82807,4.40175 -8.16977,5.29363 l -2.4394,1.62173 -3.099,-4.6569 c -2.77879,-4.17568 -3.08005,-4.68356 -2.91593,-4.91483 z m 11.18202,5.70407 c 2.78642,-1.85266 6.32751,-4.1453 7.86858,-5.09549 l 2.80193,-1.72769 -2.96105,-4.44959 -2.96106,-4.44959 -3.33982,2.2209 c -1.83699,1.22137 -5.26844,3.44119 -7.62548,4.9329 -2.35705,1.49173 -4.36709,2.82723 -4.46684,2.96766 -0.16149,0.22748 0.13576,0.7319 2.71797,4.6122 l 2.89928,4.35675 5.06636,-3.36824 z m -52.640795,-53.80387 6.317277,9.49146 1.276458,-0.84944 1.276459,-0.84944 -8.352285,-12.467798 -8.352286,-12.467797 -1.365916,0.845952 -1.365915,0.845965 2.124446,2.979867 c 1.168448,1.638933 4.967249,7.251009 8.441817,12.471281 z m 49.244855,67.8167 2.09496,0.70777 12.34821,-8.27188 12.34819,-8.27189 -0.36396,-2.24786 c -0.20018,-1.23634 -0.43776,-2.36929 -0.52795,-2.51767 -0.15517,-0.25514 -0.96088,0.26051 -14.88384,9.52579 l -14.71985,9.79557 0.80467,0.28625 c 0.44257,0.15744 1.7474,0.60475 2.89963,0.994 z m -38.800646,-61.07158 1.275592,-0.84886 -8.33887,-12.530854 -8.338876,-12.530866 -1.275593,0.848872 -1.275593,0.848858 8.338878,12.530866 8.338869,12.530854 z m 2.947786,-1.96165 1.378318,-0.91723 -5.916398,-8.6756 C 84.681507,93.577965 80.884219,87.968891 79.497092,85.884944 l -2.522087,-3.788977 -1.19012,0.791981 c -1.115846,0.742567 -1.179974,0.8156 -1.027201,1.170761 0.0896,0.208325 3.802243,5.873735 8.250299,12.589812 l 8.087382,12.211019 z m 24.03605,32.62636 c 3.51112,2.13311 8.45993,1.16169 10.80838,-2.12162 1.28053,-1.79028 1.67714,-4.54295 0.98952,-6.86761 -1.00888,-3.4107 -4.44293,-6.10344 -7.46718,-5.85523 -1.58079,0.12979 -3.34721,0.64595 -4.23736,1.23833 -0.85211,0.56704 -2.32402,2.24001 -2.95919,3.36338 -0.53989,0.95484 -0.83174,2.51179 -0.74774,3.98899 0.14415,2.53476 1.57877,5.01756 3.61357,6.25376 z m -1.19171,-5.09805 c -0.65097,-1.57536 -0.47722,-3.33632 0.50212,-5.0888 1.40766,-2.51895 4.9142,-3.39609 7.70167,-1.92644 1.31933,0.69559 2.48309,2.22834 2.82731,3.72372 0.34205,1.48592 0.0131,3.47847 -0.80763,4.8916 -0.54275,0.93452 -0.84405,1.26348 -1.65631,1.80831 -1.28043,0.85858 -2.18247,1.083 -3.50926,0.87223 -2.1564,-0.34256 -4.11587,-2.00091 -5.0579,-4.28062 z m 2.66836,2.89446 c 3.23166,2.4285 7.34998,0.55067 8.01825,-3.65609 0.35076,-2.20801 -0.30116,-4.07381 -1.89245,-5.41607 -1.8945,-1.59803 -5.51697,-1.52416 -6.99382,0.14264 -1.06324,1.19996 -1.82403,2.74542 -1.83935,3.73645 -0.0285,1.84511 1.07891,3.96936 2.70737,5.19307 z m -26.213755,-35.00897 2.330411,3.50191 1.422012,-0.94629 1.422012,-0.94631 -7.791917,-11.541542 C 84.869594,87.076039 81.04581,81.484595 80.657883,80.998441 l -0.705322,-0.883942 -1.363282,0.907223 -1.363294,0.907223 6.108077,8.962665 c 3.359462,4.929428 7.15675,10.5385 8.438478,12.46457 z m 1.162169,-4.977238 4.368574,6.349438 1.33584,-0.88896 1.335831,-0.88896 -1.858064,-2.6069 C 97.095066,98.909711 93.262561,93.324066 89.600321,87.930968 l -6.658646,-9.805629 -1.257549,0.836867 -1.25755,0.836853 4.06972,6.115263 c 2.238374,3.363379 6.035662,8.972453 8.438366,12.464647 z m 5.05874,1.126539 c 0.105683,0.108292 0.657933,0.885699 1.22723,1.727509 l 1.035116,1.53058 1.20237,-0.80014 1.20236,-0.80013 -7.640838,-11.425539 C 90.817291,83.453678 87.024731,77.841454 86.59173,77.266192 l -0.78729,-1.045921 -1.273431,0.847426 -1.27342,0.847412 7.271802,10.696763 c 3.999521,5.883199 7.358291,10.785357 7.463979,10.89365 z m -3.185104,-10.78844 8.15611,12.244009 1.29632,-0.86267 1.29634,-0.862657 -3.36901,-4.849337 c -1.85298,-2.667104 -5.650047,-8.276327 -8.438029,-12.464864 l -5.069049,-7.615526 -1.188049,0.790616 c -1.111794,0.739849 -1.373754,1.100216 -0.956302,1.315503 0.06414,0.03312 3.786657,5.570164 8.272231,12.304547 z m 6.73868,4.057572 4.31028,6.261343 1.17614,-0.782679 1.17613,-0.78268 -3.2198,-4.84036 c -1.77094,-2.662169 -5.478749,-8.330784 -8.239603,-12.59691 l -5.019804,-7.756563 -1.374885,0.914942 -1.374876,0.914929 4.128094,6.203304 c 2.270453,3.41182 6.067741,9.020894 8.438364,12.464633 z m 8.31169,3.59854 1.3646,-0.908102 -7.20529,-10.741013 c -3.96293,-5.907534 -7.756053,-11.51938 -8.429131,-12.470785 l -1.22386,-1.729772 -1.190019,0.791914 -1.19003,0.791927 4.679759,7.116732 c 2.573903,3.914169 6.288461,9.578296 8.254581,12.586959 l 3.57491,5.470147 z m 3.00299,-1.998394 1.35063,-0.8988 -8.33887,-12.530853 -8.338872,-12.530867 -1.35063,0.8988 -1.350631,0.8988 8.338873,12.530867 8.33887,12.530853 z m 2.85134,-1.897484 1.20056,-0.798917 -4.51867,-6.790881 c -2.48529,-3.734966 -6.19302,-9.403649 -8.2396,-12.596923 l -3.72097,-5.806015 -1.299881,0.865028 -1.299893,0.865041 8.338874,12.530853 8.33887,12.530853 1.20057,-0.798931 z m 2.84878,-1.895753 1.35318,-0.900503 -7.83364,-11.771657 c -5.07557,-7.627072 -7.90766,-11.769142 -8.04386,-11.764586 -0.12861,0.0041 -0.24558,-0.297757 -0.30125,-0.778042 -0.0501,-0.431831 -0.11528,-0.82159 -0.14494,-0.86615 -0.0297,-0.04462 -0.69457,0.345292 -1.4776,0.866366 l -1.42367,0.947403 3.331,5.091164 c 1.83205,2.800136 5.54875,8.462829 8.2593,12.583809 l 4.9283,7.492659 z m 35.50943,53.020588 c 0.24138,-1.86249 0.3299,-5.82925 0.15651,-7.01461 -0.15856,-1.08391 -0.32224,-1.49309 -1.13914,-2.8475 -0.52467,-0.86994 -1.34352,-2.06283 -1.81963,-2.65089 l -0.86563,-1.06922 -2.00983,1.33749 -2.00985,1.33747 1.78172,2.76597 c 0.98001,1.52123 2.68554,4.16197 3.79003,5.86832 l 2.00833,3.10235 z m -32.55591,-54.986061 1.30021,-0.865258 -6.66551,-9.801046 c -3.66601,-5.390583 -7.2386,-10.66199 -7.93914,-11.714211 l -1.2737,-1.913126 -1.20055,0.798917 -1.20057,0.798944 7.83954,11.780498 7.83954,11.780499 z m -2.11959,-6.546906 3.67073,5.514667 1.27559,-0.848859 1.2756,-0.848872 -7.77654,-11.685847 -7.77654,-11.685821 -0.62463,0.281534 c -0.3436,0.154759 -0.99065,0.523967 -1.43797,0.820345 l -0.81297,0.53938 4.26814,6.199735 c 2.34756,3.409805 5.92003,8.681293 7.93893,11.714374 z m 7.89715,2.702119 1.37509,-0.915078 -5.01737,-7.32511 c -2.75961,-4.028775 -6.30962,-9.266492 -7.8891,-11.639259 l -2.8717,-4.314162 -1.27559,0.848859 -1.27559,0.848872 7.7896,11.705464 7.78961,11.705465 z m -4.0415,-9.490215 5.71699,8.375236 1.32606,-0.882441 1.32606,-0.882455 -7.73967,-11.630431 -7.73968,-11.63043 -0.63854,0.4233 c -0.35129,0.232701 -1.02155,0.616469 -1.48948,0.852834 l -0.85086,0.429641 2.18616,3.284843 c 1.20238,1.806658 4.7588,7.05369 7.90312,11.660079 z m 9.73663,5.655663 1.05864,-0.76816 -2.25434,-3.58821 c -1.2399,-1.973505 -4.56241,-7.076065 -7.38333,-11.339001 -3.96588,-5.993208 -5.20904,-7.77883 -5.48199,-7.874509 -0.23556,-0.08261 -0.71236,0.06692 -1.43318,0.449394 l -1.08016,0.573138 7.75784,11.657713 7.75784,11.657741 z m 11.49953,-16.918629 0.38554,0.501268 4.18389,-2.72659 4.18382,-2.726697 19.63732,29.509076 19.63732,29.509092 2.29516,-1.67578 c 10.85456,-7.92511 21.44888,-17.001487 27.47762,-23.54066 5.29377,-5.741972 13.53403,-17.56499 19.41049,-27.849985 l 1.27665,-2.234393 -2.27036,-3.413618 C 238.20536,55.611142 207.04192,9.7290756 205.6498,7.7576492 l -0.86919,-1.2309793 -1.49407,0.3578868 c -2.76727,0.6628457 -13.95151,3.7177733 -16.95897,4.6322763 -11.22675,3.413771 -16.96783,5.746353 -27.17577,11.041394 -9.7721,5.068954 -17.39223,9.496824 -24.61286,14.301917 l -5.80798,3.865021 7.68562,11.39573 c 4.22711,6.267657 7.85903,11.621385 8.07108,11.897092 z m 23.40071,-29.278056 c -0.38528,-1.59562 -0.12708,-3.141462 0.74476,-4.459165 0.59298,-0.896205 2.35,-1.986077 5.20364,-3.227787 2.71164,-1.179934 8.14457,-3.946532 12.53262,-6.381967 3.46223,-1.921609 7.67514,-4.044385 8.859,-4.46382 1.42541,-0.505008 2.99551,0.125719 4.19099,1.683582 0.93094,1.213105 1.14069,2.218048 0.78119,3.742444 -0.31806,1.348692 -0.94481,2.444879 -1.79699,3.142968 -0.77427,0.634288 -3.74265,2.2734 -7.5943,4.193559 -1.74376,0.869309 -3.99507,2.025279 -5.00289,2.56883 -11.21429,6.048014 -12.01761,6.405368 -13.77281,6.126541 -1.15399,-0.183326 -2.87183,-1.032271 -3.53861,-1.748771 -0.24576,-0.264077 -0.51006,-0.776708 -0.6066,-1.176414 z m 1.56639,1.493489 c 0.99587,0.719426 2.86557,1.256722 3.86731,1.111355 0.76818,-0.11147 5.07538,-2.208752 9.73065,-4.738095 1.61811,-0.879168 4.72762,-2.502576 6.91,-3.607564 4.92847,-2.495414 7.38671,-3.847515 8.19476,-4.507388 1.18009,-0.963671 1.97689,-2.989844 1.80043,-4.578307 -0.12479,-1.122791 -1.01814,-2.368623 -2.17508,-3.033073 -1.518,-0.871814 -1.91594,-0.767415 -6.97942,1.831185 -1.50913,0.774503 -3.77479,1.982117 -5.0348,2.683593 -4.3197,2.404894 -8.54301,4.573403 -10.97414,5.634786 -3.25213,1.419822 -4.65666,2.207008 -5.48882,3.076285 -1.05741,1.10458 -1.50013,2.874964 -1.11006,4.439097 0.23023,0.923202 0.2652,0.970096 1.25915,1.688129 z m 9.44065,14.739372 c -0.20795,-1.373448 -0.0542,-2.37885 0.52701,-3.446308 0.47523,-0.872778 0.59227,-0.976304 2.4698,-2.184391 1.084,-0.697502 6.51005,-4.257362 12.05781,-7.91089 5.54783,-3.653413 10.37543,-6.753799 10.72808,-6.889607 0.7457,-0.287252 2.35617,0.03227 3.33389,0.661449 0.3473,0.223503 0.90618,0.810148 1.24194,1.30366 1.07414,1.578817 0.97408,3.726798 -0.26764,5.745186 l -0.51178,0.831906 -11.25526,7.490006 c -9.22114,6.136359 -11.41189,7.539186 -12.12171,7.762422 -1.75546,0.551913 -4.72938,-0.380091 -5.6499,-1.770628 -0.22191,-0.335085 -0.47038,-1.05191 -0.55228,-1.592859 z m 1.92681,2.329869 c 1.11937,0.628894 2.92108,0.977092 3.91357,0.75633 0.81744,-0.181839 1.65474,-0.712215 12.05723,-7.637627 8.6358,-5.748459 11.29536,-7.582778 11.69115,-8.059931 0.70662,-0.85191 1.24661,-2.726583 1.11717,-3.878474 -0.26378,-2.347512 -2.9198,-4.286242 -4.86392,-3.550358 -0.36072,0.136602 -4.77533,2.989629 -9.81019,6.340157 -5.03485,3.350529 -10.27873,6.752956 -11.65309,7.560942 -2.17301,1.277537 -2.57586,1.567673 -3.08962,2.225711 -0.77621,0.99411 -1.14518,2.360906 -0.984,3.645097 0.1579,1.257936 0.65566,2.055393 1.62171,2.59814 z m 9.01605,13.231739 c -0.12506,-1.49134 0.0845,-2.529581 0.70166,-3.477012 0.59423,-0.912211 1.31161,-1.432799 8.25087,-5.987597 2.56947,-1.686509 5.70871,-3.850925 6.97616,-4.809644 3.01405,-2.280035 8.88079,-6.188786 9.68244,-6.451455 1.33693,-0.43741 3.44146,0.523332 4.43952,2.026689 1.23107,1.854329 0.83132,4.690711 -0.91136,6.466423 -0.3361,0.342534 -3.37172,2.550807 -6.74579,4.907323 -16.51972,11.53778 -15.22086,10.664762 -16.30842,10.961694 -0.70259,0.191777 -1.36838,0.195927 -2.26645,0.01406 -2.46934,-0.499984 -3.64923,-1.627969 -3.81882,-3.65082 z m 1.95273,2.616418 c 0.98262,0.552061 2.44916,0.893825 3.43105,0.799552 0.78454,-0.0753 1.01705,-0.205282 4.42968,-2.476287 5.49461,-3.656485 18.43029,-12.774396 19.14164,-13.492276 0.78069,-0.787857 1.16777,-1.610515 1.35706,-2.884174 0.19037,-1.28096 8.2e-4,-2.197431 -0.65476,-3.165722 -0.64264,-0.9491 -1.66494,-1.592914 -2.88858,-1.819006 l -0.88029,-0.162654 -2.61833,1.660393 c -1.44008,0.913185 -4.42373,2.973891 -6.63043,4.579241 -4.82585,3.510933 -8.44956,6.000915 -12.05169,8.281234 -3.12033,1.975303 -3.69474,2.544318 -4.1033,4.065049 -0.32077,1.193826 -0.1491,2.849564 0.37749,3.64087 0.21112,0.317252 0.70183,0.755451 1.09047,0.973807 z m 9.3744,14.811402 c -0.52571,-2.087381 -0.14425,-3.638274 1.26187,-5.130384 0.4475,-0.474878 1.97094,-1.736208 3.38542,-2.802989 2.74173,-2.067791 6.68502,-5.381917 10.32288,-8.675832 3.04919,-2.760916 5.94083,-5.182962 7.41296,-6.209144 1.34787,-0.939508 1.79195,-1.034308 3.20292,-0.683851 0.89192,0.22156 2.25193,1.175358 2.75557,1.932512 0.76484,1.149982 0.76309,3.996437 -0.004,5.425883 -0.3792,0.707119 -2.82801,2.995469 -6.18233,5.777232 -1.88013,1.559195 -4.55506,3.83562 -5.94431,5.058703 -4.18242,3.682158 -6.5775,5.719584 -8.10828,6.897443 -1.36419,1.04976 -1.51901,1.128431 -2.53972,1.290843 -1.15872,0.184422 -2.97872,-0.08544 -3.85532,-0.571584 -0.8778,-0.486843 -1.44106,-1.248148 -1.70819,-2.308832 z m 1.86413,1.89947 c 1.04184,0.59834 2.48886,0.839476 3.75329,0.625447 0.82514,-0.139699 0.99068,-0.238582 2.86626,-1.712346 1.70521,-1.339905 7.47625,-6.303984 8.4688,-7.284619 0.17961,-0.177499 1.86634,-1.596197 3.74825,-3.152702 6.45905,-5.342263 7.28591,-6.200248 7.71059,-8.001038 0.38531,-1.63381 0.25943,-2.604886 -0.48362,-3.730708 -0.71575,-1.084344 -2.05041,-1.872918 -3.3074,-1.954023 -0.72979,-0.04705 -0.89963,0.02082 -2.06791,0.825956 -1.37282,0.946227 -3.96112,3.098921 -6.77044,5.631044 -4.92875,4.44245 -8.00204,7.063654 -9.94101,8.478702 -3.45233,2.519468 -4.89573,3.893971 -5.47881,5.217302 -0.39798,0.903221 -0.17024,3.326227 0.39695,4.223039 0.10883,0.172132 0.60612,0.547397 1.10505,0.833946 z m 20.24451,-52.891288 7.21285,10.627707 0.62227,-0.4141 c 0.88586,-0.589508 1.98261,-1.870207 2.84158,-3.318162 l 0.74033,-1.247987 -10.63296,-15.895465 -10.63296,-15.8954765 -1.6359,0.1499289 c -1.58773,0.1455174 -3.57239,0.77365 -4.59542,1.4544456 l -0.46197,0.3074207 4.66469,6.8019673 c 2.56557,3.741087 7.91047,11.584441 11.87755,17.429668 z m 19.97073,26.719795 c 1.48493,-1.171546 1.79673,-1.637541 1.57429,-2.352906 -0.21613,-0.6951 -6.77829,-10.173549 -7.46539,-10.782993 -0.68435,-0.607091 -1.47929,-0.517885 -2.95459,0.331514 l -1.13498,0.653462 4.36915,6.565549 4.36914,6.565522 z"
     id="path890" />
  <path
     style="font-variation-settings:normal;opacity:1;vector-effect:none;fill:#ff2a2a;fill-opacity:1;stroke-width:0.0296955;stroke-linecap:butt;stroke-linejoin:miter;stroke-miterlimit:4;stroke-dasharray:none;stroke-dashoffset:0;stroke-opacity:1;stop-color:#000000;stop-opacity:1"
     d="m 124.14239,70.051082 -7.74533,-11.663945 0.85208,-0.472581 c 0.46864,-0.259919 1.06072,-0.500566 1.31574,-0.534771 0.45897,-0.06156 0.47078,-0.05249 1.16712,0.895747 0.81537,1.110339 6.65102,9.884892 9.5919,14.422502 3.33969,5.152962 4.7568,7.454446 4.64874,7.549892 -0.20591,0.181878 -1.99031,1.467101 -2.03692,1.467101 -0.0264,0 -3.5334,-5.248775 -7.79333,-11.663945 z"
     id="path920" />
  <path
     style="font-variation-settings:normal;opacity:1;vector-effect:none;fill:#ff5555;fill-opacity:1;stroke-width:0.520182;stroke-linecap:butt;stroke-linejoin:miter;stroke-miterlimit:4;stroke-dasharray:none;stroke-dashoffset:0;stroke-opacity:1;stop-color:#000000;stop-opacity:1"
     d="m 45.32606,121.44535 -8.240257,-12.37761 1.056474,-0.70424 c 0.581061,-0.38733 1.161734,-0.7726 1.290386,-0.85616 l 0.233913,-0.15192 8.243957,12.37692 c 4.628478,6.94888 8.210149,12.40776 8.166868,12.44725 -0.110451,0.10078 -2.435107,1.64337 -2.476537,1.64337 -0.019,0 -3.742663,-5.56993 -8.274804,-12.37761 z"
     id="path922" />
  <path
     style="font-variation-settings:normal;opacity:1;vector-effect:none;fill:#ff5555;fill-opacity:1;stroke-width:0.520182;stroke-linecap:butt;stroke-linejoin:miter;stroke-miterlimit:4;stroke-dasharray:none;stroke-dashoffset:0;stroke-opacity:1;stop-color:#000000;stop-opacity:1"
     d="m 58.905973,129.49332 c -2.10221,-3.27517 -5.366342,-8.25717 -12.031234,-18.3631 -2.21502,-3.35863 -3.995259,-6.1356 -3.956088,-6.17106 0.118172,-0.10698 2.432991,-1.6375 2.476615,-1.6375 0.02227,0 1.841838,2.7044 4.043482,6.00979 4.449237,6.67975 7.895653,11.76554 10.794754,15.92953 1.06006,1.52257 1.927383,2.79182 1.927383,2.82054 0,0.0496 -2.801279,1.95031 -2.874418,1.95031 -0.01916,0 -0.190387,-0.24233 -0.380494,-0.53851 z"
     id="path924" />
  <path
     style="font-variation-settings:normal;opacity:1;vector-effect:none;fill:#ff5555;fill-opacity:1;stroke-width:0.520182;stroke-linecap:butt;stroke-linejoin:miter;stroke-miterlimit:4;stroke-dasharray:none;stroke-dashoffset:0;stroke-opacity:1;stop-color:#000000;stop-opacity:1"
     d="m 63.371472,123.52023 c -0.966464,-1.43395 -4.736044,-6.99732 -8.376845,-12.36304 -3.640802,-5.36571 -6.619639,-9.77428 -6.619639,-9.79682 0,-0.0225 0.571899,-0.41677 1.270888,-0.87608 0.698988,-0.45931 1.317723,-0.871657 1.374966,-0.916332 0.07559,-0.05899 0.748881,0.893822 2.459442,3.480492 3.934448,5.94957 7.90688,11.82027 12.18412,18.00642 1.20074,1.73663 2.182341,3.19061 2.181336,3.23107 -0.0015,0.0594 -2.458617,1.73952 -2.66044,1.81915 -0.03114,0.0123 -0.847364,-1.1509 -1.813828,-2.58486 z"
     id="path926" />
  <path
     style="font-variation-settings:normal;opacity:1;vector-effect:none;fill:#ff5555;fill-opacity:1;stroke-width:0.520182;stroke-linecap:butt;stroke-linejoin:miter;stroke-miterlimit:4;stroke-dasharray:none;stroke-dashoffset:0;stroke-opacity:1;stop-color:#000000;stop-opacity:1"
     d="M 64.117455,112.2575 C 57.222664,101.88901 55.036814,98.550437 54.61263,97.740255 c -0.242281,-0.46275 -0.242878,-0.467753 -0.07759,-0.650398 0.152346,-0.168341 2.03076,-1.379161 2.13957,-1.379161 0.05274,0 16.579854,24.658864 16.650499,24.842954 0.03007,0.0784 -0.375027,0.39668 -1.208293,0.94947 -0.68944,0.45737 -1.263595,0.83159 -1.275899,0.83159 -0.0123,0 -3.037865,-4.53475 -6.723466,-10.07721 z"
     id="path928" />
  <path
     style="font-variation-settings:normal;opacity:1;vector-effect:none;fill:#ff5555;fill-opacity:1;stroke-width:0.520182;stroke-linecap:butt;stroke-linejoin:miter;stroke-miterlimit:4;stroke-dasharray:none;stroke-dashoffset:0;stroke-opacity:1;stop-color:#000000;stop-opacity:1"
     d="m 69.852414,108.49203 c -6.003479,-9.015506 -9.466551,-14.28132 -9.747672,-14.821942 -0.0872,-0.16769 -0.05805,-0.220436 0.268323,-0.485535 0.653125,-0.530506 2.169067,-1.521456 2.228854,-1.456971 0.138603,0.149495 16.619013,24.941468 16.619013,25.000478 0,0.0532 -1.100549,0.81338 -2.430906,1.67907 l -0.233778,0.15213 z"
     id="path930" />
  <path
     style="font-variation-settings:normal;opacity:1;vector-effect:none;fill:#ff5555;fill-opacity:1;stroke-width:0.520182;stroke-linecap:butt;stroke-linejoin:miter;stroke-miterlimit:4;stroke-dasharray:none;stroke-dashoffset:0;stroke-opacity:1;stop-color:#000000;stop-opacity:1"
     d="m 74.033229,102.12464 -8.33261,-12.533426 1.283898,-0.858671 1.283899,-0.858671 0.72308,1.05353 c 3.962418,5.773252 16.089821,23.797938 16.086615,23.909178 -0.0016,0.0545 -2.508464,1.75601 -2.658045,1.80406 -0.02982,0.01 -3.8039,-5.62262 -8.386837,-12.516 z"
     id="path932" />
  <path
     style="font-variation-settings:normal;opacity:1;vector-effect:none;fill:#ff5555;fill-opacity:1;stroke-width:0.520182;stroke-linecap:butt;stroke-linejoin:miter;stroke-miterlimit:4;stroke-dasharray:none;stroke-dashoffset:0;stroke-opacity:1;stop-color:#000000;stop-opacity:1"
     d="m 87.694749,109.95393 c -0.265729,-0.41192 -4.009206,-6.03845 -8.318838,-12.503408 l -7.835694,-11.754468 1.061638,-0.707689 c 0.583901,-0.389228 1.167555,-0.776482 1.297009,-0.860563 l 0.235371,-0.152875 8.316193,12.498167 c 4.573906,6.873996 8.315201,12.529126 8.313989,12.566966 -0.0027,0.0842 -2.374115,1.6628 -2.497981,1.6628 -0.0487,0 -0.305958,-0.33702 -0.571687,-0.74893 z"
     id="path934" />
  <path
     style="font-variation-settings:normal;opacity:1;vector-effect:none;fill:#ff5555;fill-opacity:1;stroke-width:0.520182;stroke-linecap:butt;stroke-linejoin:miter;stroke-miterlimit:4;stroke-dasharray:none;stroke-dashoffset:0;stroke-opacity:1;stop-color:#000000;stop-opacity:1"
     d="m 92.012251,103.74785 c -2.451349,-3.65501 -6.234531,-9.236342 -11.124932,-16.412613 -1.96045,-2.876804 -3.582477,-5.280719 -3.604505,-5.342035 -0.02481,-0.06906 0.474024,-0.452019 1.310744,-1.006282 l 1.350796,-0.894798 0.284904,0.334746 c 0.399334,0.469195 1.573637,2.151537 4.563912,6.538399 2.348295,3.445049 11.983206,17.703853 12.115944,17.930513 0.03329,0.0568 -0.509443,0.46356 -1.350969,1.0124 -0.773634,0.50457 -1.423509,0.9174 -1.444166,0.9174 -0.02066,0 -0.966435,-1.38498 -2.101728,-3.07773 z"
     id="path936" />
  <path
     style="font-variation-settings:normal;opacity:1;vector-effect:none;fill:#ff5555;fill-opacity:1;stroke-width:0.520182;stroke-linecap:butt;stroke-linejoin:miter;stroke-miterlimit:4;stroke-dasharray:none;stroke-dashoffset:0;stroke-opacity:1;stop-color:#000000;stop-opacity:1"
     d="m 99.41558,101.54959 c -0.462372,-0.67608 -1.045631,-1.50862 -1.296131,-1.850084 -0.584348,-0.796549 -1.429233,-2.024223 -5.383793,-7.823013 -7.357391,-10.78855 -9.470436,-13.922989 -9.430059,-13.988319 0.02341,-0.03788 0.591875,-0.433205 1.263258,-0.878506 l 1.220695,-0.809638 0.206244,0.255988 c 1.153861,1.432168 16.726666,24.656052 16.606376,24.765262 -0.07,0.0635 -2.02374,1.36719 -2.24413,1.4974 -0.0654,0.0387 -0.401975,-0.3788 -0.94246,-1.16909 z"
     id="path938" />
  <path
     style="font-variation-settings:normal;opacity:1;vector-effect:none;fill:#ff5555;fill-opacity:1;stroke-width:0.520182;stroke-linecap:butt;stroke-linejoin:miter;stroke-miterlimit:4;stroke-dasharray:none;stroke-dashoffset:0;stroke-opacity:1;stop-color:#000000;stop-opacity:1"
     d="M 102.6754,94.438067 C 97.704392,87.199641 91.599648,78.15946 89.620454,75.105709 l -0.65017,-1.003165 1.380499,-0.919856 c 0.759275,-0.50592 1.391838,-0.907499 1.405695,-0.892396 0.01386,0.0151 1.418555,2.179352 3.121552,4.809443 5.16214,7.972358 9.60072,14.757739 12.1918,18.637934 0.5637,0.844143 1.04522,1.587765 1.07006,1.652494 0.0299,0.07778 -0.34993,0.382121 -1.12001,0.897526 l -1.16518,0.779836 z"
     id="path940" />
  <path
     style="font-variation-settings:normal;opacity:1;vector-effect:none;fill:#ff5555;fill-opacity:1;stroke-width:0.520182;stroke-linecap:butt;stroke-linejoin:miter;stroke-miterlimit:4;stroke-dasharray:none;stroke-dashoffset:0;stroke-opacity:1;stop-color:#000000;stop-opacity:1"
     d="M 104.76841,85.174762 C 101.07234,79.619856 97.321005,73.980006 96.432114,72.641765 l -1.616167,-2.433168 1.354438,-0.904048 c 0.744941,-0.497226 1.381111,-0.875669 1.41371,-0.840983 0.09779,0.104044 16.551735,24.870421 16.585095,24.963785 0.0239,0.06686 -2.38629,1.744681 -2.62642,1.828348 -0.0298,0.01039 -3.07828,-4.52603 -6.77436,-10.080937 z"
     id="path942" />
  <path
     style="font-variation-settings:normal;opacity:1;vector-effect:none;fill:#ff5555;fill-opacity:1;stroke-width:0.520182;stroke-linecap:butt;stroke-linejoin:miter;stroke-miterlimit:4;stroke-dasharray:none;stroke-dashoffset:0;stroke-opacity:1;stop-color:#000000;stop-opacity:1"
     d="m 116.60201,90.604931 c -0.31527,-0.485366 -2.59872,-3.964925 -5.07433,-7.732352 -7.69217,-11.706075 -10.86425,-16.560206 -10.83629,-16.582435 0.57137,-0.454245 2.74387,-1.78345 2.85461,-1.746537 0.053,0.01768 0.14216,0.327853 0.19804,0.689274 0.0878,0.567899 0.14873,0.713292 0.44867,1.07074 0.19089,0.227486 0.89675,1.208454 1.56859,2.179929 1.66884,2.41313 14.12848,21.086474 14.1262,21.171031 -0.001,0.0554 -2.47488,1.741487 -2.65804,1.811969 -0.0298,0.01148 -0.31218,-0.376252 -0.62745,-0.861619 z"
     id="path944" />
  <path
     style="font-variation-settings:normal;opacity:1;vector-effect:none;fill:#ff5555;fill-opacity:1;stroke-width:0.520182;stroke-linecap:butt;stroke-linejoin:miter;stroke-miterlimit:4;stroke-dasharray:none;stroke-dashoffset:0;stroke-opacity:1;stop-color:#000000;stop-opacity:1"
     d="m 119.60603,82.418109 c -3.76078,-5.610016 -6.04881,-8.978374 -9.85472,-14.507776 -1.34233,-1.950191 -2.46178,-3.601 -2.48766,-3.668465 -0.0314,-0.08184 0.16151,-0.261361 0.5796,-0.539374 0.70056,-0.465837 1.99887,-1.164622 2.16111,-1.163163 0.1011,9.09e-4 15.50217,23.066299 15.5534,23.293521 0.0137,0.06058 -0.5372,0.484599 -1.22413,0.942266 l -1.24897,0.832122 z"
     id="path946" />
  <path
     style="font-variation-settings:normal;opacity:1;vector-effect:none;fill:#ff5555;fill-opacity:1;stroke-width:0.520182;stroke-linecap:butt;stroke-linejoin:miter;stroke-miterlimit:4;stroke-dasharray:none;stroke-dashoffset:0;stroke-opacity:1;stop-color:#000000;stop-opacity:1"
     d="m 128.782,83.411091 c -0.27627,-0.394193 -4.63166,-6.778135 -7.65652,-11.222582 -3.56105,-5.232275 -7.95678,-11.772469 -7.95678,-11.838513 0,-0.02745 0.31614,-0.208848 0.70252,-0.403119 0.38639,-0.194271 1.04173,-0.563045 1.45632,-0.819499 0.41459,-0.256454 0.77847,-0.46628 0.80863,-0.46628 0.0517,0 15.47117,23.146804 15.47117,23.224477 0,0.0411 -2.55891,1.762461 -2.62001,1.762461 -0.0216,0 -0.114,-0.106625 -0.20533,-0.236945 z"
     id="path948" />
  <path
     style="font-variation-settings:normal;opacity:1;vector-effect:none;fill:#ff9955;fill-opacity:1;stroke-width:0.013645;stroke-linecap:butt;stroke-linejoin:miter;stroke-miterlimit:4;stroke-dasharray:none;stroke-dashoffset:0;stroke-opacity:1;stop-color:#000000;stop-opacity:1"
     d="m 59.506378,249.27834 c -0.176163,-0.0954 -0.916555,-0.73922 -1.645314,-1.43079 -1.791875,-1.70042 -2.534165,-2.05083 -4.810682,-2.27097 -1.207453,-0.11677 -2.060981,-0.2958 -2.515375,-0.52761 -0.897317,-0.45778 -2.323378,-2.02928 -2.877618,-3.17111 -0.625947,-1.28955 -1.019307,-3.92866 -0.91367,-6.12993 0.07593,-1.58216 0.149257,-1.90601 0.663341,-2.9295 0.438174,-0.87237 0.723868,-1.22172 1.181112,-1.44429 0.331723,-0.16147 1.51157,-0.71778 2.621883,-1.23625 3.545929,-1.65578 5.460528,-2.8178 6.683597,-4.05643 1.748488,-1.77074 2.748648,-4.19213 2.754632,-6.66898 0.0052,-2.13858 -1.486379,-15.33917 -2.49454,-22.07737 -0.666464,-4.4544 -1.275368,-5.85004 -3.083028,-7.06647 -2.297301,-1.54591 -6.744118,-1.92746 -9.489377,-0.8142 -1.179099,0.47815 -1.13302,0.49948 -1.874326,-0.86764 -0.308897,-0.56967 -0.373845,-0.97404 -0.374238,-2.33 -4.31e-4,-1.50542 0.04599,-1.73509 0.563126,-2.78554 0.507646,-1.03117 0.789642,-1.33022 2.840313,-3.01204 2.763995,-2.26684 4.560547,-3.94871 4.884522,-4.57274 0.809322,-1.55888 -0.483848,-4.55519 -2.32411,-5.38503 -0.3866,-0.17434 -0.86247,-0.26584 -1.088064,-0.20922 -0.220523,0.0554 -1.213871,0.62275 -2.207439,1.2609 -2.798836,1.79762 -11.822484,7.92358 -13.280346,9.01574 l -1.306041,0.97842 -0.554486,-0.37994 c -0.304967,-0.20896 -0.59601,-0.42146 -0.646761,-0.47221 -0.116426,-0.11643 36.103587,-24.28941 36.431954,-24.31444 0.152215,-0.0116 0.417504,0.47451 0.714902,1.30996 0.557915,1.5673 1.134557,2.486 2.227013,3.54809 2.263779,2.20083 4.8346,3.48121 6.989803,3.48121 1.026727,0 3.864947,-0.82733 5.489604,-1.60019 1.698538,-0.80802 2.962152,-1.58918 10.124956,-6.25925 l 4.57223,-2.98104 0.729152,-1.36847 c 0.401032,-0.75265 0.88315,-1.9706 1.071371,-2.70654 0.607817,-2.37654 0.37906,-5.74429 -0.505972,-7.44893 -0.514414,-0.99081 -1.236798,-1.67319 -2.9314,-2.76908 l -1.558579,-1.00792 2.712167,-1.80512 c 1.491691,-0.99282 2.916534,-1.93812 3.166316,-2.10066 l 0.45415,-0.29554 3.330104,4.92265 c 1.83155,2.70746 3.41074,4.89096 3.50929,4.85223 0.0986,-0.0387 1.73011,-1.13597 3.62567,-2.4383 1.89556,-1.30233 3.53723,-2.40302 3.64815,-2.44598 0.11092,-0.043 0.65374,0.2903 1.20627,0.74056 0.55252,0.45027 1.50863,1.05717 2.12469,1.34868 1.05804,0.50064 1.23468,0.5299 3.18799,0.52806 3.0109,-0.003 4.56101,-0.59874 6.27685,-2.41298 3.82352,-4.04282 2.36623,-10.78873 -2.89661,-13.40854 -1.1316,-0.5633 -1.4182,-0.63344 -2.58832,-0.63344 -2.32207,0 -4.86745,0.91453 -6.07373,2.18224 -1.03503,1.08773 -2.03671,2.65791 -2.3223,3.6403 -0.31707,1.09071 -0.34358,3.57841 -0.0511,4.79374 0.11163,0.46378 0.42348,1.28704 0.69302,1.82946 l 0.49006,0.98622 -2.70912,1.84178 c -1.49001,1.01297 -3.05807,2.08534 -3.48457,2.38303 -0.4265,0.29769 -0.86733,0.59683 -0.97961,0.66477 -0.13363,0.0809 -1.02145,-1.08292 -2.57032,-3.36925 -1.30139,-1.92102 -2.7832,-4.09096 -3.29291,-4.82208 l -0.92674,-1.32932 6.16808,-4.11194 c 7.44575,-4.96371 12.06184,-7.93604 13.26653,-8.54242 1.30366,-0.6562 3.55301,-1.26392 5.86639,-1.58495 2.89703,-0.40203 7.89316,-0.27871 10.38502,0.25634 4.99485,1.07248 9.91834,3.31861 14.25364,6.50261 1.35571,0.99568 1.93441,1.68827 1.64907,1.97362 -0.14116,0.14116 -23.49753,15.65576 -42.87215,28.47807 -3.75961,2.48815 -3.88827,2.55714 -4.38526,2.35127 -0.28161,-0.11664 -0.71279,-0.47531 -0.95818,-0.79703 -0.27055,-0.35471 -0.59641,-0.58496 -0.82786,-0.58496 -0.76604,0 -3.6347,1.89226 -8.943968,5.89972 -7.008746,5.29023 -10.953907,8.95165 -13.089309,12.14792 -1.192368,1.78473 -1.893049,4.54831 -2.185378,8.61941 -0.07656,1.06623 -0.171531,1.9692 -0.211045,2.00659 -0.03951,0.0374 -1.428891,0.2311 -3.087507,0.43046 -5.35814,0.64404 -6.574282,0.8832 -7.086556,1.39361 -0.831891,0.82887 -1.098229,3.44665 -0.520709,5.11791 0.444201,1.28545 1.046369,2.08915 1.737494,2.31898 0.624182,0.20758 2.725847,0.14107 7.037816,-0.22271 1.25848,-0.10618 2.33282,-0.14837 2.387422,-0.0938 0.0546,0.0546 0.204912,0.65368 0.334026,1.3313 0.244372,1.28252 0.911921,2.93406 1.41751,3.50699 0.161435,0.18293 1.262838,0.96727 2.447564,1.74297 1.184725,0.7757 2.401629,1.6438 2.704228,1.92911 1.089859,1.02759 0.923252,2.02337 -0.499487,2.98537 -1.447156,0.9785 -1.854131,1.37668 -2.293688,2.2441 -0.463002,0.91369 -0.364047,0.88068 -3.357527,1.12011 -3.451558,0.27608 -5.794867,0.63838 -6.548301,1.01244 -1.432286,0.7111 -2.240208,2.52817 -2.240208,5.03838 0,2.66313 0.846559,3.38165 3.963445,3.36401 1.235016,-0.007 5.763806,-0.52779 7.00621,-0.8057 0.292979,-0.0655 0.54857,0.13692 1.206266,0.95546 1.072987,1.3354 1.848983,1.82287 4.797964,3.01402 5.907029,2.38596 7.862085,3.77189 9.231047,6.54382 0.374461,0.75823 0.728683,1.74159 0.787159,2.18526 0.249561,1.89341 -1.820853,4.53467 -5.462226,6.96824 -2.218478,1.48263 -3.059202,1.88794 -6.031653,2.90785 -4.443738,1.52472 -18.756063,5.80065 -23.07038,6.89246 -2.596234,0.65702 -3.200802,0.75064 -3.567061,0.55237 z"
     id="path950" />
  <path
     style="font-variation-settings:normal;opacity:1;vector-effect:none;fill:#ff9955;fill-opacity:1;stroke-width:0.013645;stroke-linecap:butt;stroke-linejoin:miter;stroke-miterlimit:4;stroke-dasharray:none;stroke-dashoffset:0;stroke-opacity:1;stop-color:#000000;stop-opacity:1"
     d="m 118.98241,138.96484 c -1.99285,-0.96864 -3.4889,-3.13248 -3.66269,-5.29756 -0.0765,-0.95357 -0.0238,-1.22197 0.42812,-2.17803 1.14806,-2.42883 2.50644,-3.33859 4.9578,-3.32042 2.31376,0.0172 4.02337,1.09992 4.96967,3.1475 0.58015,1.25531 0.5268,3.55682 -0.11454,4.9415 -0.93162,2.01143 -2.3304,3.02383 -4.33815,3.13986 -1.06225,0.0614 -1.32972,0.01 -2.24021,-0.43285 z"
     id="path952" />
  <path
     style="font-variation-settings:normal;opacity:1;vector-effect:none;fill:#ff9955;fill-opacity:1;stroke-width:0.013645;stroke-linecap:butt;stroke-linejoin:miter;stroke-miterlimit:4;stroke-dasharray:none;stroke-dashoffset:0;stroke-opacity:1;stop-color:#000000;stop-opacity:1"
     d="m 80.717859,157.81587 c -3.50464,-0.66809 -5.679394,-1.7212 -8.074087,-3.90982 -0.801148,-0.7322 -0.942669,-0.93993 -0.759078,-1.11421 0.542704,-0.51517 8.359372,-5.41913 8.63783,-5.41913 0.03937,0 0.0078,0.32957 -0.0701,0.73237 -0.07792,0.40281 -0.143354,1.2752 -0.1454,1.93865 -0.0044,1.42952 0.345898,2.32742 1.267636,3.24916 0.761259,0.76126 4.018518,2.36745 5.663873,2.79293 0.643475,0.1664 1.207495,0.36328 1.253378,0.43752 0.04588,0.0742 -0.79078,0.41919 -1.85925,0.76657 -2.254551,0.73298 -4.009978,0.88908 -5.914802,0.52596 z"
     id="path954" />
  <path
     style="font-variation-settings:normal;opacity:1;vector-effect:none;fill:#ff9955;fill-opacity:1;stroke-width:0.00682249;stroke-linecap:butt;stroke-linejoin:miter;stroke-miterlimit:4;stroke-dasharray:none;stroke-dashoffset:0;stroke-opacity:1;stop-color:#000000;stop-opacity:1"
     d="m 123.26178,169.5628 c -0.82796,-0.12471 -1.95967,-0.39374 -2.37296,-0.5641 -0.2623,-0.10811 -0.923,-0.44533 -1.46823,-0.74937 -0.98696,-0.55035 -0.99366,-0.55625 -1.51729,-1.33551 -0.28928,-0.43049 -1.44584,-2.13976 -2.57015,-3.79837 -1.92882,-2.84547 -3.85878,-5.76878 -4.22689,-6.40247 l -0.16555,-0.28498 0.21537,-0.16666 c 1.05574,-0.81701 34.86589,-23.4103 34.92515,-23.33839 0.0162,0.0197 1.80738,2.78862 3.98029,6.15311 3.14688,4.87257 3.96428,6.1962 4.01724,6.50522 0.10448,0.60958 0.19036,3.19042 0.12146,3.6499 l -0.0622,0.41496 -14.96422,9.96192 c -15.9933,10.64699 -15.08573,10.07921 -15.91199,9.95474 z m 5.83213,-10.42963 c 1.34167,-0.88705 4.53314,-2.95855 7.09215,-4.60333 2.559,-1.64478 5.10871,-3.28363 5.666,-3.64188 l 1.01327,-0.65136 -3.15293,-4.72962 -3.15294,-4.72962 -2.08226,1.35342 c -1.14525,0.74438 -3.80766,2.47119 -5.91647,3.83736 -4.55031,2.94787 -7.64935,5.00063 -7.87358,5.21533 -0.21602,0.20685 -0.159,0.39911 0.38345,1.29289 0.75678,1.24692 5.4388,8.26964 5.51334,8.26964 0.0388,0 1.16829,-0.72577 2.50997,-1.61283 z"
     id="path956" />
  <path
     style="font-variation-settings:normal;opacity:1;vector-effect:none;fill:#ff9955;fill-opacity:1;stroke-width:0.013645;stroke-linecap:butt;stroke-linejoin:miter;stroke-miterlimit:4;stroke-dasharray:none;stroke-dashoffset:0;stroke-opacity:1;stop-color:#000000;stop-opacity:1"
     d="m 228.79842,41.176672 c -1.56337,-2.324224 -16.22221,-23.848697 -20.18036,-29.632046 -1.02112,-1.491983 -1.8035,-2.7985843 -1.73862,-2.903558 0.3835,-0.6205101 3.32397,-1.55554 5.59807,-1.7801093 l 0.95506,-0.094313 10.65593,15.9302203 10.65592,15.930218 -0.80895,1.297901 c -0.9158,1.469348 -2.22718,2.967397 -2.98135,3.405734 l -0.50814,0.295337 z"
     id="path958" />
  <path
     style="font-variation-settings:normal;opacity:1;vector-effect:none;fill:#ff9955;fill-opacity:1;stroke-width:0.013645;stroke-linecap:butt;stroke-linejoin:miter;stroke-miterlimit:4;stroke-dasharray:none;stroke-dashoffset:0;stroke-opacity:1;stop-color:#000000;stop-opacity:1"
     d="m 237.63488,54.158336 c -2.3926,-3.591445 -4.30693,-6.599882 -4.25406,-6.685416 0.20756,-0.335843 2.42003,-1.318479 2.96865,-1.318479 0.78107,0 1.09703,0.325957 3.21903,3.320922 4.25202,6.001218 5.29859,7.647473 5.29859,8.334625 0,0.432547 -1.14021,1.637953 -2.39354,2.530407 l -0.4885,0.347839 z"
     id="path960" />
  <path
     style="font-variation-settings:normal;opacity:1;vector-effect:none;fill:#ffe6d5;fill-opacity:1;stroke-width:0.00257501;stroke-linecap:butt;stroke-linejoin:miter;stroke-miterlimit:4;stroke-dasharray:none;stroke-dashoffset:0;stroke-opacity:1;stop-color:#000000;stop-opacity:1"
     d="m 50.683919,229.94839 c 0,-0.0471 -1.396303,-8.99023 -3.102897,-19.87359 -1.706593,-10.88337 -3.092722,-19.79775 -3.080286,-19.80976 0.06835,-0.066 1.139872,-0.51493 1.653562,-0.69283 1.785424,-0.61834 4.128717,-0.67608 6.166696,-0.15195 0.988039,0.2541 2.378808,0.91843 2.985982,1.42632 1.373712,1.14908 1.937326,2.45468 2.3921,5.54128 0.512104,3.47569 1.711454,13.04448 2.240898,17.87858 0.527775,4.81886 0.505886,6.50789 -0.10722,8.27348 -0.60028,1.72866 -1.971727,3.4655 -3.548314,4.4937 -1.06418,0.69402 -5.335128,3.00044 -5.556115,3.00044 -0.02442,0 -0.04441,-0.0386 -0.04441,-0.0857 z"
     id="path962" />
  <path
     style="font-variation-settings:normal;opacity:1;vector-effect:none;fill:#ffe6d5;fill-opacity:1;stroke-width:0.00257501;stroke-linecap:butt;stroke-linejoin:miter;stroke-miterlimit:4;stroke-dasharray:none;stroke-dashoffset:0;stroke-opacity:1;stop-color:#000000;stop-opacity:1"
     d="m 73.990701,219.80513 c -0.736229,-0.0524 -1.872169,-0.31326 -2.134839,-0.49027 -0.365894,-0.24657 -0.640441,-0.67095 -0.808855,-1.25028 -0.111317,-0.38291 -0.12893,-0.71735 -0.08877,-1.68557 0.0701,-1.69006 0.37075,-2.73715 1.052615,-3.66604 0.597063,-0.81336 1.196721,-1.04753 3.401517,-1.32832 1.361439,-0.17339 5.024826,-0.54384 6.081889,-0.61502 l 0.869097,-0.0585 0.519632,0.72218 c 0.657815,0.91424 1.00179,1.53249 1.21674,2.18694 0.440494,1.34116 0.302702,2.5071 -0.500368,4.23393 l -0.326141,0.70129 -0.763976,0.17586 c -2.201063,0.50664 -7.356395,1.1565 -8.518543,1.07382 z"
     id="path964" />
  <path
     style="font-variation-settings:normal;opacity:1;vector-effect:none;fill:#ffe6d5;fill-opacity:1;stroke-width:0.00257501;stroke-linecap:butt;stroke-linejoin:miter;stroke-miterlimit:4;stroke-dasharray:none;stroke-dashoffset:0;stroke-opacity:1;stop-color:#000000;stop-opacity:1"
     d="m 69.528678,195.87759 c -0.839692,-0.22581 -1.286128,-0.79435 -1.798175,-2.28999 -0.241674,-0.70591 -0.279579,-0.93117 -0.275473,-1.63708 0.0079,-1.35101 0.389863,-2.67227 0.925432,-3.20086 0.263331,-0.2599 0.402447,-0.2905 3.068464,-0.67488 3.269152,-0.47134 4.887205,-0.63155 6.462139,-0.63983 1.618703,-0.009 1.960325,0.052 2.477949,0.43854 0.621819,0.46441 0.849886,1.41954 0.767467,3.21413 -0.05782,1.2591 -0.352997,2.90177 -0.636639,3.54299 -0.26389,0.59657 -0.390733,0.61986 -5.807248,1.06662 -3.982131,0.32845 -4.558652,0.34851 -5.183916,0.18036 z"
     id="path966" />
  <path
     style="font-variation-settings:normal;opacity:1;vector-effect:none;fill:#ffe6d5;fill-opacity:1;stroke-width:0.00257501;stroke-linecap:butt;stroke-linejoin:miter;stroke-miterlimit:4;stroke-dasharray:none;stroke-dashoffset:0;stroke-opacity:1;stop-color:#000000;stop-opacity:1"
     d="m 119.03899,141.56335 c -0.79278,-0.1698 -1.45741,-0.41617 -2.2691,-0.84112 -0.54061,-0.28303 -0.893,-0.55824 -1.52202,-1.18867 -1.10714,-1.10963 -1.72846,-2.21439 -2.16781,-3.85458 -0.34973,-1.30562 -0.21846,-3.51302 0.28505,-4.79319 0.30197,-0.76778 1.11173,-1.8708 2.13888,-2.91347 0.88823,-0.90167 1.07064,-1.04406 1.7256,-1.34697 1.31119,-0.60642 3.44287,-1.03724 4.5235,-0.91423 1.88288,0.21434 3.86023,1.44521 5.21946,3.24904 1.55891,2.06883 2.05124,4.55452 1.40862,7.11183 -0.54021,2.14977 -1.87309,3.75578 -3.95706,4.76794 -1.26284,0.61334 -1.97804,0.77808 -3.53264,0.81373 -0.88288,0.0203 -1.4699,-0.008 -1.85248,-0.0903 z m 3.25994,-1.93073 c 0.62134,-0.19338 1.47442,-0.65895 2.06989,-1.12964 0.73338,-0.5797 1.39236,-1.67914 1.79256,-2.9907 0.20196,-0.66187 0.23238,-0.91305 0.238,-1.96513 0.007,-1.34358 -0.0673,-1.67091 -0.62724,-2.75718 -0.45969,-0.89176 -1.57559,-1.99265 -2.42506,-2.39243 -0.91461,-0.43044 -1.69369,-0.604 -2.7141,-0.60462 -1.04114,-6.3e-4 -1.72951,0.16024 -2.68127,0.62662 -1.71246,0.83913 -2.84226,2.6868 -2.94332,4.81351 -0.0528,1.11079 0.0539,1.62953 0.54575,2.65369 0.76847,1.60011 2.09728,2.89436 3.57101,3.47812 1.10702,0.43849 2.30145,0.53926 3.17378,0.26776 z"
     id="path968" />
  <path
     style="font-variation-settings:normal;opacity:1;vector-effect:none;fill:#ffe6d5;fill-opacity:1;stroke-width:0.00257501;stroke-linecap:butt;stroke-linejoin:miter;stroke-miterlimit:4;stroke-dasharray:none;stroke-dashoffset:0;stroke-opacity:1;stop-color:#000000;stop-opacity:1"
     d="m 124.12594,156.55305 c -2.72733,-4.10253 -3.13189,-4.76511 -3.08995,-5.06064 0.0345,-0.24316 0.56737,-0.60924 5.456,-3.74829 2.03773,-1.30845 5.0814,-3.28835 6.76371,-4.39977 1.68231,-1.11143 3.10007,-2.03679 3.15057,-2.05637 0.0891,-0.0345 6.04632,8.81541 5.97506,8.87649 -0.0196,0.0168 -1.00488,0.63045 -2.1896,1.36375 -2.81834,1.74443 -5.04431,3.18551 -9.59971,6.2148 -2.05738,1.36814 -3.791,2.50683 -3.85248,2.53042 -0.072,0.0276 -1.0018,-1.29588 -2.6136,-3.72039 z"
     id="path970" />
  <path
     style="font-variation-settings:normal;opacity:1;vector-effect:none;fill:#ffe6d5;fill-opacity:1;stroke-width:0.00257501;stroke-linecap:butt;stroke-linejoin:miter;stroke-miterlimit:4;stroke-dasharray:none;stroke-dashoffset:0;stroke-opacity:1;stop-color:#000000;stop-opacity:1"
     d="m 116.62646,167.21789 c -0.54544,-0.0616 -2.26851,-0.46706 -3.06621,-0.72159 -0.92732,-0.29588 -1.52814,-0.66978 -2.57739,-1.60398 -1.10568,-0.98444 -3.92861,-4.08994 -4.61409,-5.07595 l -0.24665,-0.3548 2.15006,-1.43306 c 1.18253,-0.78819 2.17927,-1.43201 2.21496,-1.43071 0.071,0.003 7.0871,10.51401 7.0871,10.61781 0,0.0643 -0.38968,0.0653 -0.94778,0.002 z"
     id="path972" />
  <path
     style="font-variation-settings:normal;opacity:1;vector-effect:none;fill:#ffe6d5;fill-opacity:1;stroke-width:0.00257501;stroke-linecap:butt;stroke-linejoin:miter;stroke-miterlimit:4;stroke-dasharray:none;stroke-dashoffset:0;stroke-opacity:1;stop-color:#000000;stop-opacity:1"
     d="m 127.46131,170.70404 c -1.55199,-0.53035 -2.82088,-0.9847 -2.81976,-1.00967 0.001,-0.025 0.37916,-0.29541 0.84008,-0.60097 0.46092,-0.30556 6.33646,-4.20973 13.05675,-8.67594 11.2549,-7.47985 14.75294,-9.7679 15.3477,-10.0389 0.29812,-0.13583 0.37367,-0.0495 0.52532,0.60061 0.14582,0.62507 0.74648,4.16631 0.71097,4.19156 -0.0135,0.01 -2.97138,1.98847 -6.57294,4.3974 -3.60157,2.40893 -9.12036,6.10329 -12.26399,8.20969 -3.14363,2.1064 -5.78018,3.84347 -5.85901,3.86015 -0.0788,0.0167 -1.41313,-0.40359 -2.96512,-0.93393 z"
     id="path974" />
  <path
     style="font-variation-settings:normal;opacity:1;vector-effect:none;fill:#ffe6d5;fill-opacity:1;stroke-width:0.00257501;stroke-linecap:butt;stroke-linejoin:miter;stroke-miterlimit:4;stroke-dasharray:none;stroke-dashoffset:0;stroke-opacity:1;stop-color:#000000;stop-opacity:1"
     d="m 150.12489,138.52802 -3.76657,-5.83178 1.97788,-1.31933 c 1.08783,-0.72562 2.0111,-1.31932 2.05171,-1.31932 0.20296,0 2.00859,2.48173 2.89356,3.97703 0.67434,1.1394 0.88884,1.80084 1.00466,3.09808 0.15347,1.71891 -0.10661,7.22886 -0.34115,7.22743 -0.0294,-1.7e-4 -1.74848,-2.62463 -3.82009,-5.83211 z"
     id="path976" />
  <path
     style="font-variation-settings:normal;opacity:1;vector-effect:none;fill:#ffe6d5;fill-opacity:1;stroke-width:0.00364161;stroke-linecap:butt;stroke-linejoin:miter;stroke-miterlimit:4;stroke-dasharray:none;stroke-dashoffset:0;stroke-opacity:1;stop-color:#000000;stop-opacity:1"
     d="m 171.11512,37.04182 c -1.0115,-0.327578 -1.93645,-0.882682 -2.45514,-1.473432 -0.74563,-0.849225 -0.81549,-2.846454 -0.14935,-4.269954 0.70726,-1.511369 1.69655,-2.205758 5.82961,-4.091837 3.10436,-1.41664 6.4654,-3.131952 11.18261,-5.707067 4.11836,-2.248202 8.6307,-4.53495 9.61487,-4.872591 0.39584,-0.135804 0.94339,-0.246916 1.21676,-0.246916 1.0759,0 2.65112,1.174434 3.28716,2.45079 0.6119,1.227932 0.35063,3.169753 -0.63055,4.686298 -0.25703,0.397275 -0.65537,0.864066 -0.88522,1.037313 -0.78458,0.591393 -2.581,1.587539 -6.61795,3.669759 -2.2195,1.144796 -5.87235,3.054327 -8.11746,4.243403 -4.80054,2.542507 -7.08745,3.69542 -8.67916,4.375474 -1.4055,0.600491 -2.21718,0.645353 -3.59618,0.19876 z"
     id="path982" />
  <path
     style="font-variation-settings:normal;opacity:1;vector-effect:none;fill:#ffe6d5;fill-opacity:1;stroke-width:0.00364161;stroke-linecap:butt;stroke-linejoin:miter;stroke-miterlimit:4;stroke-dasharray:none;stroke-dashoffset:0;stroke-opacity:1;stop-color:#000000;stop-opacity:1"
     d="m 182.58313,53.972199 c -1.09838,-0.238899 -2.04106,-0.730233 -2.58361,-1.346599 -1.09778,-1.24715 -1.14301,-3.42448 -0.10713,-5.157051 0.49731,-0.831764 0.92432,-1.171403 3.31529,-2.636928 2.5715,-1.576179 4.53982,-2.850749 11.75865,-7.614211 7.13281,-4.706709 9.18843,-6.024712 9.78545,-6.274165 1.45052,-0.606067 3.56195,0.471297 4.46488,2.278221 0.31834,0.637055 0.37182,0.879612 0.37182,1.686576 0,1.018815 -0.28706,2.139311 -0.76313,2.978729 -0.40449,0.71323 -1.54353,1.528914 -10.44719,7.481407 -12.96506,8.667726 -13.1707,8.793238 -14.37845,8.775953 -0.3686,-0.0053 -1.00606,-0.08264 -1.41658,-0.171932 z"
     id="path984" />
  <path
     style="font-variation-settings:normal;opacity:1;vector-effect:none;fill:#ffe6d5;fill-opacity:1;stroke-width:0.00364161;stroke-linecap:butt;stroke-linejoin:miter;stroke-miterlimit:4;stroke-dasharray:none;stroke-dashoffset:0;stroke-opacity:1;stop-color:#000000;stop-opacity:1"
     d="m 193.29989,69.751962 c -1.09033,-0.285799 -1.51084,-0.501435 -2.17913,-1.11744 -0.67484,-0.622048 -0.94868,-1.402718 -0.95478,-2.721961 -0.01,-2.145055 0.6771,-3.118926 3.50473,-4.968046 4.66443,-3.050297 7.45506,-4.954753 11.4702,-7.8278 4.23002,-3.026812 7.60032,-5.333293 9.61106,-6.577367 l 0.95962,-0.593734 0.7463,0.128386 c 1.06001,0.182356 1.86834,0.598875 2.59363,1.33646 0.80587,0.819514 1.13915,1.664967 1.13504,2.879248 -0.005,1.588123 -0.42183,2.716782 -1.33586,3.620504 -1.03643,1.024734 -15.0951,10.92659 -20.83809,14.676762 -2.29149,1.496338 -2.88699,1.643548 -4.71272,1.164988 z"
     id="path986" />
  <path
     style="font-variation-settings:normal;opacity:1;vector-effect:none;fill:#ffe6d5;fill-opacity:1;stroke-width:0.00364161;stroke-linecap:butt;stroke-linejoin:miter;stroke-miterlimit:4;stroke-dasharray:none;stroke-dashoffset:0;stroke-opacity:1;stop-color:#000000;stop-opacity:1"
     d="m 204.22998,86.37768 c -0.72169,-0.201147 -1.46762,-0.598871 -2.0634,-1.100187 -0.5427,-0.456654 -0.79417,-1.393142 -0.79909,-2.975937 -0.003,-1.117442 0.0328,-1.348865 0.28613,-1.827769 0.43425,-0.820795 2.4109,-2.708395 4.40117,-4.20289 2.9939,-2.248121 4.58512,-3.586152 10.35827,-8.710097 4.65569,-4.132145 7.07533,-6.097229 8.26211,-6.709987 1.80168,-0.930241 4.81846,1.141128 5.09786,3.50027 0.0931,0.785928 -0.13446,2.117499 -0.49588,2.901842 -0.59423,1.289578 -1.45426,2.122789 -6.83336,6.620267 -1.8095,1.512918 -4.05765,3.433738 -4.99591,4.268489 -4.22283,3.756989 -8.64678,7.430625 -9.67133,8.031056 -0.48198,0.28246 -0.71244,0.330558 -1.718,0.358566 -0.76127,0.0212 -1.3912,-0.03172 -1.82857,-0.153623 z"
     id="path988" />
  <path
     style="font-variation-settings:normal;opacity:1;vector-effect:none;fill:#ffdd55;fill-opacity:1;stroke-width:0.279878;stroke-linecap:butt;stroke-linejoin:miter;stroke-miterlimit:4;stroke-dasharray:none;stroke-dashoffset:0;stroke-opacity:1;stop-color:#000000;stop-opacity:1"
     d="m 26.944841,180.77235 c -0.173261,-0.13629 -0.863862,-1.06197 -1.534668,-2.05707 l -1.219646,-1.80929 -2.664778,-0.0889 c -2.272523,-0.0758 -2.683553,-0.11827 -2.792329,-0.28857 -0.07015,-0.10984 -0.973521,-1.54311 -2.007484,-3.18506 -1.033963,-1.64194 -3.589312,-5.59961 -5.678553,-8.79483 l -3.7986195,-5.80947 0.5569382,-2.47641 c 0.6674359,-2.96774 0.6866239,-3.28727 0.2380995,-3.96504 l -0.3340631,-0.5048 4.3385389,-17.82144 c 2.386196,-9.8018 4.351216,-17.83022 4.366711,-17.84094 0.01549,-0.0107 3.098823,-2.15771 6.851842,-4.77108 10.040351,-6.99146 16.73207,-11.62481 17.440182,-12.075575 l 0.624707,-0.397672 2.586969,1.551047 2.586968,1.55106 -0.281442,0.22789 c -0.154794,0.12535 -1.188799,0.87258 -2.297792,1.66052 -9.121949,6.48114 -8.713496,6.16852 -9.048286,6.92536 -0.369623,0.8356 -0.258664,1.35532 0.579618,2.71488 2.006953,3.25496 12.846718,19.18814 14.15456,20.80553 0.92989,1.14998 1.662769,1.19354 3.247131,0.19299 3.609474,-2.27943 21.474526,-14.08323 50.463665,-33.34237 27.20164,-18.071598 31.01115,-20.647177 31.01115,-20.966367 0,-0.188752 -0.79283,-1.583539 -1.73788,-3.057409 -4.22233,-6.584921 -12.67311,-19.296409 -13.19624,-19.849499 -0.6534,-0.690835 -0.61706,-0.709299 -9.67984,4.918497 -5.07583,3.151986 -5.44194,3.368741 -5.53421,3.276477 -0.037,-0.03698 -0.12555,-0.502165 -0.19682,-1.033748 -0.16724,-1.247428 -0.30816,-1.679506 -0.79959,-2.451755 -0.72788,-1.143815 -0.90283,-1.591079 -0.97912,-2.503218 -0.0859,-1.026658 -0.18785,-0.884979 1.4781,-2.053766 1.56144,-1.095465 24.71392,-16.564356 24.73964,-16.529322 0.0117,0.01599 3.62929,5.347873 8.03902,11.848638 4.40973,6.500765 8.07966,11.9107 8.1554,12.022079 0.121,0.177909 0.64697,-0.129346 4.33033,-2.529612 l 4.19259,-2.732116 19.47902,29.263411 c 10.71347,16.09487 19.49005,29.31939 19.50353,29.38782 0.0281,0.14246 -3.64677,2.56238 -5.44416,3.58506 l -1.20385,0.68496 -0.33621,-0.41193 -0.3362,-0.41194 -0.89697,0.61516 c -0.49333,0.33834 -5.85597,3.97849 -11.91698,8.08923 -10.36242,7.02807 -11.04878,7.47238 -11.50209,7.44563 -1.03664,-0.0612 -1.20127,-0.23203 -5.24023,-5.43888 -3.5378,-4.56079 -4.53493,-5.60101 -6.80893,-7.10322 -4.35642,-2.87787 -8.77898,-4.6179 -14.05922,-5.53152 -1.32023,-0.22844 -2.03119,-0.27243 -4.43574,-0.27448 -1.71747,-0.001 -3.32679,0.0619 -4.02109,0.15822 -2.84129,0.39429 -5.44618,1.10618 -6.79292,1.85641 -1.41852,0.79023 -14.94374,9.68961 -50.5381,33.25327 -35.495103,23.49795 -38.553145,25.48844 -39.989219,26.02897 -0.946984,0.35644 -1.254036,0.36461 -1.66144,0.0441 z m 8.202487,-13.7086 c 5.15297,-3.40961 13.578362,-8.91847 19.831294,-12.96651 1.692209,-1.0955 3.076725,-2.02485 3.076701,-2.06522 -2.3e-5,-0.0404 -1.966848,-3.02371 -4.370723,-6.62964 l -4.37068,-6.55624 -14.156492,9.43189 -14.156491,9.4319 4.301079,6.47479 c 2.365595,3.56113 4.355913,6.45487 4.422931,6.43053 0.06702,-0.0243 2.50709,-1.62251 5.422381,-3.5515 z"
     id="path994" />
  <path
     style="font-variation-settings:normal;opacity:1;vector-effect:none;fill:#ffd42a;fill-opacity:1;stroke-width:0.0106126;stroke-linecap:butt;stroke-linejoin:miter;stroke-miterlimit:4;stroke-dasharray:none;stroke-dashoffset:0;stroke-opacity:1;stop-color:#000000;stop-opacity:1"
     d="M 172.91442,88.676628 C 162.14068,72.490606 153.29017,59.225484 153.24664,59.198577 c -0.0435,-0.02691 -1.93177,1.156722 -4.19607,2.630284 -3.17908,2.068883 -4.15382,2.648567 -4.27896,2.544715 -0.0891,-0.07397 -0.73351,-0.968073 -1.43197,-1.986897 -2.58732,-3.774046 -14.48418,-21.42467 -14.53648,-21.566848 -0.0554,-0.150509 6.75494,-4.720137 10.82973,-7.266608 9.57458,-5.983475 22.95634,-13.10175 31.27463,-16.636178 7.002,-2.975143 17.06981,-6.129301 30.76639,-9.6388471 2.8785,-0.7375743 3.05619,-0.7687481 3.24551,-0.5693881 0.11016,0.1159988 1.32191,1.855899 2.69278,3.8664452 4.17759,6.12696 12.23393,17.978606 19.54795,28.756898 13.91855,20.511067 15.76146,23.255885 15.76146,23.474944 0,0.320961 -3.91501,6.897018 -6.55411,11.008963 -4.04162,6.297193 -8.48491,12.469189 -12.11311,16.825832 -3.22741,3.87538 -9.23728,9.619208 -15.94959,15.243518 -4.2749,3.58199 -11.91821,9.50712 -15.41967,11.9534 l -0.38209,0.26695 z m 33.88251,-1.8945 c 0.39554,-0.07312 0.92258,-0.236719 1.1712,-0.363557 0.82735,-0.422084 2.88631,-2.118416 8.51176,-7.012678 1.70896,-1.486834 4.4232,-3.810859 6.03164,-5.164501 5.31195,-4.470482 6.62024,-5.731618 7.16058,-6.902529 0.24082,-0.521864 0.27234,-0.787633 0.27234,-2.296094 0,-1.541057 -0.0275,-1.761719 -0.28437,-2.283339 -0.85094,-1.727865 -3.6605,-2.91036 -5.14458,-2.165271 -1.12007,0.562337 -3.98325,2.876574 -8.15996,6.595507 -4.36982,3.890875 -7.24258,6.31424 -10.23301,8.632226 -4.42665,3.431253 -5.1199,4.311658 -5.1163,6.497553 0.004,2.711834 1.24106,4.134798 3.89002,4.476278 1.01703,0.131106 1.12198,0.130355 1.90068,-0.01359 z M 196.67906,69.885627 c 0.60843,-0.313339 2.61583,-1.68391 9.56532,-6.530819 11.36626,-7.927373 12.59287,-8.825511 13.22366,-9.682564 1.13346,-1.54002 1.39967,-3.792726 0.63624,-5.384023 -0.59512,-1.240496 -2.24782,-2.375439 -3.67333,-2.522565 -0.56947,-0.05877 -0.77584,-0.01908 -1.34273,0.258273 -0.92501,0.452563 -6.02279,3.85321 -8.58381,5.72612 -2.76466,2.021834 -5.24275,3.72461 -9.64257,6.625742 -5.58087,3.67988 -6.26946,4.255588 -6.7354,5.631243 -0.61851,1.826099 -0.17911,4.190366 0.93665,5.039773 1.51322,1.151985 4.2222,1.556607 5.61597,0.83882 z M 185.6705,54.02262 c 1.06438,-0.554517 3.42825,-2.093858 13.50651,-8.795355 l 9.32162,-6.198376 0.44752,-0.768589 c 0.74135,-1.273226 0.98203,-2.158126 0.93411,-3.434398 -0.0505,-1.345445 -0.4,-2.153937 -1.3354,-3.089335 -0.7491,-0.749105 -1.63103,-1.121883 -2.85698,-1.207605 l -0.86113,-0.06021 -1.14942,0.708172 c -2.08339,1.283609 -8.20013,5.271951 -22.27025,14.521028 -1.55932,1.025033 -1.93026,1.478194 -2.35704,2.879513 -0.39505,1.297145 -0.15891,3.15382 0.52356,4.116536 0.303,0.427415 1.20058,1.013197 2.02532,1.321773 1.55464,0.581666 2.96369,0.584036 4.07158,0.0068 z M 174.16448,37.418247 c 0.99306,-0.323673 4.57429,-2.098958 8.31891,-4.123849 1.50791,-0.815397 4.82531,-2.550668 7.372,-3.856158 5.54614,-2.843074 7.94898,-4.18708 8.71193,-4.872926 1.03796,-0.933058 1.70635,-2.595336 1.70635,-4.243634 0,-1.132268 -0.38059,-1.915863 -1.45467,-2.994965 -0.96675,-0.971278 -1.67013,-1.261654 -2.87091,-1.185194 -0.69037,0.04396 -1.06263,0.194004 -3.61395,1.456658 -1.56437,0.774208 -4.4893,2.301929 -6.49984,3.394935 -4.38567,2.384208 -9.26868,4.866414 -11.96002,6.079693 -4.37961,1.974366 -5.40577,2.840907 -5.97019,5.041529 -0.23996,0.935581 -0.16419,2.27881 0.17117,3.034336 0.29964,0.675058 1.00218,1.305444 2.00513,1.799195 1.5834,0.779506 2.73036,0.911606 4.08409,0.47038 z"
     id="path996" />
  <path
     style="font-variation-settings:normal;opacity:1;vector-effect:none;fill:#ffd42a;fill-opacity:1;stroke-width:0.0106126;stroke-linecap:butt;stroke-linejoin:miter;stroke-miterlimit:4;stroke-dasharray:none;stroke-dashoffset:0;stroke-opacity:1;stop-color:#000000;stop-opacity:1"
     d="m 25.794836,164.34829 c -2.172331,-3.25976 -4.04259,-6.0695 -4.156131,-6.24387 l -0.206439,-0.31704 13.773872,-9.17085 c 7.575629,-5.04397 13.852093,-9.17829 13.947696,-9.18736 0.102726,-0.01 1.873839,2.54572 4.330037,6.24766 3.339528,5.03329 4.124943,6.29248 3.997086,6.4082 -0.08752,0.0792 -1.173537,0.79364 -2.413374,1.58764 -4.960944,3.17699 -11.982501,7.76223 -18.479926,12.0678 l -6.843129,4.53465 z"
     id="path998" />
  <path
     style="font-variation-settings:normal;opacity:1;vector-effect:none;fill:#ff2a2a;fill-opacity:1;stroke-width:0.00361843;stroke-linecap:butt;stroke-linejoin:miter;stroke-miterlimit:4;stroke-dasharray:none;stroke-dashoffset:0;stroke-opacity:1;stop-color:#000000;stop-opacity:1"
     d="m 50.694695,134.85744 c -0.572042,-0.24669 -0.63565,-0.33362 -6.208229,-8.48546 -1.879911,-2.75002 -4.783829,-7.04034 -6.453151,-9.53404 -2.85018,-4.25772 -3.034635,-4.56676 -3.027003,-5.07163 0.0045,-0.29569 0.09604,-0.72102 0.20348,-0.94516 0.234354,-0.48891 1.509731,-1.64059 1.649161,-1.48921 0.170632,0.18525 16.455545,24.65561 16.455545,24.72676 0,0.12486 -1.554065,0.7967 -1.967572,0.85059 -0.224691,0.0293 -0.518194,0.006 -0.652231,-0.0519 z"
     id="path882" />
  <path
     style="font-variation-settings:normal;opacity:1;vector-effect:none;fill:#ff2a2a;fill-opacity:1;stroke-width:0.00361843;stroke-linecap:butt;stroke-linejoin:miter;stroke-miterlimit:4;stroke-dasharray:none;stroke-dashoffset:0;stroke-opacity:1;stop-color:#000000;stop-opacity:1"
     d="m 48.210183,119.61549 c -4.49761,-6.76768 -8.177473,-12.35401 -8.177473,-12.41407 0,-0.0601 0.39754,-0.41363 0.883422,-0.78572 0.485881,-0.37209 1.050031,-0.8123 1.253665,-0.97824 l 0.370243,-0.3017 3.791626,5.74613 c 8.276817,12.54335 12.58799,19.15927 12.58799,19.31751 0,0.0874 -2.357425,1.72096 -2.483501,1.72096 -0.02667,0 -3.728362,-5.5372 -8.225972,-12.30487 z"
     id="path884" />
  <path
     style="font-variation-settings:normal;opacity:1;vector-effect:none;fill:#ff2a2a;fill-opacity:1;stroke-width:0.00361843;stroke-linecap:butt;stroke-linejoin:miter;stroke-miterlimit:4;stroke-dasharray:none;stroke-dashoffset:0;stroke-opacity:1;stop-color:#000000;stop-opacity:1"
     d="m 61.213372,126.16509 c -0.646015,-0.95622 -2.749564,-4.06899 -4.674556,-6.91727 -6.518022,-9.64425 -10.655817,-15.81701 -10.727008,-16.00253 -0.05053,-0.13167 0.245543,-0.39753 1.030494,-0.92533 0.605765,-0.40731 1.157365,-0.74057 1.225776,-0.74057 0.06841,0 1.724032,2.39895 3.679156,5.33099 3.335125,5.0016 6.376171,9.48706 11.008122,16.23668 1.080798,1.57493 2.004989,2.92951 2.053758,3.01019 0.058,0.0959 -0.292785,0.40316 -1.01406,0.88815 -0.606501,0.40781 -1.171216,0.76775 -1.254921,0.79987 -0.09135,0.0351 -0.621755,-0.63664 -1.326761,-1.68018 z"
     id="path886" />
  <path
     style="font-variation-settings:normal;opacity:1;vector-effect:none;fill:#ff2a2a;fill-opacity:1;stroke-width:0.00361843;stroke-linecap:butt;stroke-linejoin:miter;stroke-miterlimit:4;stroke-dasharray:none;stroke-dashoffset:0;stroke-opacity:1;stop-color:#000000;stop-opacity:1"
     d="m 64.714007,119.09551 c -1.870091,-2.7645 -5.645031,-8.33468 -8.388756,-12.37816 -2.743725,-4.04349 -4.941118,-7.393161 -4.883094,-7.443707 0.05802,-0.05055 0.563501,-0.416052 1.123283,-0.812235 0.559783,-0.396182 1.091775,-0.773226 1.182206,-0.837873 0.09043,-0.06465 0.185435,-0.09207 0.211122,-0.06093 0.224802,0.272518 16.536758,24.890635 16.536758,24.957395 0,0.0772 -2.225226,1.60187 -2.337897,1.60187 -0.0239,0 -1.57353,-2.26186 -3.443622,-5.02636 z"
     id="path888" />
  <path
     style="font-variation-settings:normal;opacity:1;vector-effect:none;fill:#ff2a2a;fill-opacity:1;stroke-width:0.00361843;stroke-linecap:butt;stroke-linejoin:miter;stroke-miterlimit:4;stroke-dasharray:none;stroke-dashoffset:0;stroke-opacity:1;stop-color:#000000;stop-opacity:1"
     d="m 71.919065,117.82659 c -0.962036,-1.46343 -3.883911,-5.86852 -6.493055,-9.78908 -5.655645,-8.498313 -8.096869,-12.244392 -8.17563,-12.545576 -0.0444,-0.169769 0.218274,-0.414627 1.116853,-1.041122 0.646195,-0.450532 1.192041,-0.799276 1.21299,-0.774988 0.203174,0.235559 16.641914,24.985116 16.640738,25.053686 -0.0013,0.0785 -0.618934,0.50792 -2.206556,1.53411 l -0.346183,0.22376 z"
     id="path891" />
  <path
     style="font-variation-settings:normal;opacity:1;vector-effect:none;fill:#ff2a2a;fill-opacity:1;stroke-width:0.00361843;stroke-linecap:butt;stroke-linejoin:miter;stroke-miterlimit:4;stroke-dasharray:none;stroke-dashoffset:0;stroke-opacity:1;stop-color:#000000;stop-opacity:1"
     d="m 78.012731,114.29287 c -0.827464,-1.26236 -4.582439,-6.91142 -8.344387,-12.55346 l -6.839908,-10.258272 1.299324,-0.854045 1.299324,-0.854045 8.322156,12.482872 c 4.577185,6.86557 8.321448,12.52411 8.320582,12.57452 -0.0013,0.0784 -0.61939,0.50804 -2.206492,1.5339 l -0.346118,0.22372 z"
     id="path893" />
  <path
     style="font-variation-settings:normal;opacity:1;vector-effect:none;fill:#ff2a2a;fill-opacity:1;stroke-width:0.00361843;stroke-linecap:butt;stroke-linejoin:miter;stroke-miterlimit:4;stroke-dasharray:none;stroke-dashoffset:0;stroke-opacity:1;stop-color:#000000;stop-opacity:1"
     d="m 80.291831,105.02459 c -5.695306,-8.528654 -8.9953,-13.39123 -10.642648,-15.682051 -0.606803,-0.843826 -1.100772,-1.57493 -1.097711,-1.624674 0.0056,-0.09172 2.690614,-1.76825 2.734593,-1.707515 0.489823,0.676451 16.633688,24.87384 16.632617,24.92997 -0.0013,0.0703 -0.630015,0.50504 -2.191095,1.51503 l -0.330724,0.21397 z"
     id="path895" />
  <path
     style="font-variation-settings:normal;opacity:1;vector-effect:none;fill:#ff2a2a;fill-opacity:1;stroke-width:0.00361843;stroke-linecap:butt;stroke-linejoin:miter;stroke-miterlimit:4;stroke-dasharray:none;stroke-dashoffset:0;stroke-opacity:1;stop-color:#000000;stop-opacity:1"
     d="M 87.350345,103.25725 C 76.103631,86.269248 74.598116,83.948169 74.682805,83.727474 c 0.06296,-0.164079 2.262747,-1.702765 2.321563,-1.623867 0.01661,0.02228 1.491526,2.21832 3.277594,4.88009 2.79444,4.164543 7.904561,11.699509 12.345705,18.203963 l 1.257299,1.84143 -1.401015,0.93309 -1.401017,0.93309 z"
     id="path897" />
  <path
     style="font-variation-settings:normal;opacity:1;vector-effect:none;fill:#ff2a2a;fill-opacity:1;stroke-width:0.00361843;stroke-linecap:butt;stroke-linejoin:miter;stroke-miterlimit:4;stroke-dasharray:none;stroke-dashoffset:0;stroke-opacity:1;stop-color:#000000;stop-opacity:1"
     d="M 97.023188,104.35056 C 96.046631,103.0228 89.475747,93.371891 84.673288,86.211778 l -4.300378,-6.411544 1.213785,-0.808143 c 0.667581,-0.444478 1.260603,-0.808143 1.317826,-0.808143 0.05722,0 1.137685,1.521618 2.401028,3.381373 7.86861,11.583304 11.788761,17.297358 13.673243,19.930259 0.566606,0.79164 1.010758,1.45538 0.987004,1.47499 -0.02375,0.0196 -0.63018,0.42701 -1.347614,0.90535 l -1.304424,0.86971 z"
     id="path899" />
  <path
     style="font-variation-settings:normal;opacity:1;vector-effect:none;fill:#ff2a2a;fill-opacity:1;stroke-width:0.00361843;stroke-linecap:butt;stroke-linejoin:miter;stroke-miterlimit:4;stroke-dasharray:none;stroke-dashoffset:0;stroke-opacity:1;stop-color:#000000;stop-opacity:1"
     d="M 97.241474,92.405332 C 92.613922,85.460023 86.992337,77.1007 86.401193,76.285785 c -0.08341,-0.114982 -0.03008,-0.256923 0.182777,-0.486453 0.306163,-0.33015 2.061836,-1.56896 2.11813,-1.494561 0.01701,0.02247 2.471275,3.687262 5.453932,8.143972 2.982658,4.45671 6.332668,9.419102 7.444458,11.027539 1.1118,1.608437 2.46521,3.567527 3.00759,4.353534 l 0.98615,1.429102 -1.11069,0.735496 c -0.61088,0.404526 -1.20769,0.787406 -1.32625,0.850856 -0.18692,0.10004 -0.97266,-1.020944 -5.915816,-8.439938 z"
     id="path901" />
  <path
     style="font-variation-settings:normal;opacity:1;vector-effect:none;fill:#ff2a2a;fill-opacity:1;stroke-width:0.00361843;stroke-linecap:butt;stroke-linejoin:miter;stroke-miterlimit:4;stroke-dasharray:none;stroke-dashoffset:0;stroke-opacity:1;stop-color:#000000;stop-opacity:1"
     d="M 107.17374,95.328115 C 106.10811,93.683007 100.23571,84.719289 93.447252,74.375821 l -1.499646,-2.284987 1.175395,-0.786009 c 0.646467,-0.432306 1.219825,-0.75855 1.274129,-0.724988 0.256751,0.15868 16.79952,24.660639 16.79457,24.874895 -0.002,0.07941 -2.44987,1.754495 -2.66421,1.823003 -0.0414,0.01324 -0.6506,-0.864092 -1.35375,-1.94962 z"
     id="path903" />
  <path
     style="font-variation-settings:normal;opacity:1;vector-effect:none;fill:#ff2a2a;fill-opacity:1;stroke-width:0.00361843;stroke-linecap:butt;stroke-linejoin:miter;stroke-miterlimit:4;stroke-dasharray:none;stroke-dashoffset:0;stroke-opacity:1;stop-color:#000000;stop-opacity:1"
     d="m 108.96093,84.984781 c -3.03683,-4.578185 -6.78919,-10.22375 -8.33858,-12.545699 l -2.817071,-4.221726 1.30071,-0.862868 c 1.002931,-0.665328 1.331421,-0.828616 1.434841,-0.713251 0.0738,0.08229 0.72819,1.08178 1.45426,2.22109 2.66033,4.174436 7.02265,10.868521 10.84026,16.634631 2.1527,3.251446 3.95426,5.976854 4.00347,6.056463 0.0739,0.119636 -1.14149,1.038079 -2.20337,1.664996 -0.10649,0.06287 -1.83205,-2.440894 -5.67452,-8.233636 z"
     id="path905" />
  <path
     style="font-variation-settings:normal;opacity:1;vector-effect:none;fill:#ff2a2a;fill-opacity:1;stroke-width:0.00361843;stroke-linecap:butt;stroke-linejoin:miter;stroke-miterlimit:4;stroke-dasharray:none;stroke-dashoffset:0;stroke-opacity:1;stop-color:#000000;stop-opacity:1"
     d="m 114.46416,80.89682 c -3.16239,-4.742461 -6.69441,-10.057266 -7.84894,-11.810676 l -2.09914,-3.188018 1.19652,-0.796647 c 0.88077,-0.586421 1.22691,-0.758026 1.3117,-0.650296 0.0633,0.08049 2.32531,3.408917 5.02658,7.3965 2.70127,3.987582 6.1953,9.135822 7.76453,11.440534 1.56922,2.304711 2.88019,4.260888 2.91326,4.347059 0.0369,0.09611 -0.43755,0.490574 -1.2273,1.02044 l -1.28742,0.863764 z"
     id="path907" />
  <path
     style="font-variation-settings:normal;opacity:1;vector-effect:none;fill:#ff2a2a;fill-opacity:1;stroke-width:0.00361843;stroke-linecap:butt;stroke-linejoin:miter;stroke-miterlimit:4;stroke-dasharray:none;stroke-dashoffset:0;stroke-opacity:1;stop-color:#000000;stop-opacity:1"
     d="m 118.08878,73.965499 c -4.27211,-6.408257 -7.72194,-11.692336 -7.66629,-11.742396 0.31126,-0.280014 2.38428,-1.595334 2.46354,-1.563104 0.0518,0.02106 1.40174,1.984867 2.99988,4.364013 2.91052,4.332875 6.83064,10.100762 10.61469,15.617991 1.11077,1.619514 2.04601,3.013452 2.07831,3.09764 0.0544,0.141864 -2.36468,1.877232 -2.61687,1.877232 -0.0582,0 -3.60116,-5.243119 -7.87326,-11.651376 z"
     id="path909" />
</svg>
