<?xml version="1.0" encoding="UTF-8" standalone="no"?>
<svg
   xmlns:dc="http://purl.org/dc/elements/1.1/"
   xmlns:cc="http://creativecommons.org/ns#"
   xmlns:rdf="http://www.w3.org/1999/02/22-rdf-syntax-ns#"
   xmlns:svg="http://www.w3.org/2000/svg"
   xmlns="http://www.w3.org/2000/svg"
   xmlns:sodipodi="http://sodipodi.sourceforge.net/DTD/sodipodi-0.dtd"
   xmlns:inkscape="http://www.inkscape.org/namespaces/inkscape"
   cursor="default"
   viewBox="0 0 256 256"
   version="1.1"
   id="svg50"
   sodipodi:docname="plasmacannon.svg"
   inkscape:version="1.0.2-2 (e86c870879, 2021-01-15)">
  <metadata
     id="metadata56">
    <rdf:RDF>
      <cc:Work
         rdf:about="">
        <dc:format>image/svg+xml</dc:format>
        <dc:type
           rdf:resource="http://purl.org/dc/dcmitype/StillImage" />
      </cc:Work>
    </rdf:RDF>
  </metadata>
  <defs
     id="defs54" />
  <sodipodi:namedview
     pagecolor="#ffffff"
     bordercolor="#666666"
     borderopacity="1"
     objecttolerance="10"
     gridtolerance="10"
     guidetolerance="10"
     inkscape:pageopacity="0"
     inkscape:pageshadow="2"
     inkscape:window-width="1920"
     inkscape:window-height="1017"
     id="namedview52"
     showgrid="false"
     inkscape:zoom="2.0516816"
     inkscape:cx="-29.212171"
     inkscape:cy="109.41435"
     inkscape:window-x="-8"
     inkscape:window-y="-8"
     inkscape:window-maximized="1"
     inkscape:current-layer="svg50"
     inkscape:document-rotation="0" />
  <path
     style="fill:#000000;stroke-width:0.203361"
     d="m 7.8645576,200.17637 2.2113934,-15.59192 1.150495,-1.13412 1.150485,-1.13409 -1.917702,-2.09318 -1.917687,-2.09316 3.415382,-3.12078 c 1.878263,-1.71667 7.825467,-7.04489 13.215219,-11.84142 5.389692,-4.79656 14.065641,-12.59897 19.279875,-17.33868 5.214263,-4.73971 10.562324,-9.56701 11.884712,-10.72723 l 2.404331,-2.10948 2.198244,2.31653 2.198242,2.31653 17.409696,-15.7675 c 9.575265,-8.67223 21.576477,-19.53663 26.669267,-24.14328 l 9.25967,-8.375625 -3.32635,-3.418026 -3.32633,-3.418018 7.14768,-6.440911 7.14766,-6.440863 -4.0994,-4.355754 -4.09939,-4.35577 6.15188,-5.445631 C 137.75439,41.581711 143.10409,37.2824 153.86829,29.910683 l 3.76664,-2.579538 2.34221,2.473891 c 1.83494,1.938289 2.38524,2.434411 2.54131,2.29143 0.63659,-0.583236 8.91285,-6.350774 12.05516,-8.401002 6.40761,-4.180675 13.41284,-7.665368 23.5892,-11.734241 l 1.81674,-0.726395 1.35848,1.396783 1.35852,1.396786 2.61876,-2.32374 2.61879,-2.3237396 13.81009,14.9970196 13.81006,14.997008 -2.7747,2.542104 -2.77469,2.542088 2.78386,3.038612 2.78384,3.038596 2.35958,-2.165915 2.3596,-2.165901 3.70012,4.056773 c 2.03553,2.230805 4.84665,5.333475 6.24748,6.894325 l 2.54698,2.837834 -2.39914,2.198 -2.39914,2.198015 1.97511,2.155861 c 1.41479,1.544238 1.96117,2.24739 1.92596,2.478458 -0.1112,0.729347 -5.8931,9.168482 -8.7084,12.710523 -2.69054,3.385136 -10.07289,10.897091 -16.51521,16.805144 l -2.88542,2.645598 3.22019,3.51488 c 1.77115,1.93319 3.19435,3.6063 3.16278,3.71806 -0.13818,0.48867 -6.73149,9.24064 -9.78418,12.98745 -3.37721,4.14515 -5.43507,6.37992 -9.67767,10.50965 -4.42846,4.31067 -14.77499,13.6288 -15.71624,14.15398 l -0.5475,0.3055 -3.99858,-4.18 c -2.19917,-2.299 -5.44109,-5.73599 -7.20428,-7.6377 l -3.2057,-3.45773 -1.6627,1.42131 c -0.91446,0.78177 -8.01704,7.21961 -15.78347,14.30638 l -14.12074,12.88504 -0.96551,5.8701 c -0.53104,3.22853 -0.97971,6.11311 -0.99706,6.41016 -0.0309,0.52946 0.0303,0.5499 3.13026,1.03951 1.739,0.27469 3.25967,0.50998 3.37924,0.52286 0.11952,0.013 0.55005,-2.29359 0.95657,-5.12546 0.54062,-3.76604 0.82838,-5.16352 1.07148,-5.20341 0.18266,-0.0306 5.68425,0.43104 12.22555,1.02452 l 11.89319,1.07905 -0.12333,3.0312 -0.12332,3.03122 3.9335,0.25749 c 2.16345,0.14161 3.99553,0.32482 4.07127,0.40711 0.0758,0.0823 -0.0437,1.24352 -0.26546,2.58055 -0.22175,1.337 -0.38663,2.5178 -0.36642,2.62403 0.0209,0.10609 1.45304,0.3724 3.18405,0.59149 1.73102,0.21912 3.19205,0.45715 3.24675,0.52897 0.0552,0.0716 -0.67693,4.97614 -1.62585,10.89843 l -1.72533,10.76783 -3.38235,-0.2299 -3.38235,-0.22986 -0.2803,1.69676 c -0.15419,0.93321 -0.35342,2.16863 -0.44274,2.74537 l -0.16243,1.04861 -4.04151,-0.4155 c -2.22286,-0.22855 -4.19786,-0.40786 -4.38893,-0.39851 -0.26651,0.0134 -0.40574,0.50267 -0.59816,2.10294 -0.13793,1.14728 -0.27656,2.28089 -0.30805,2.51919 -0.0513,0.38754 -1.30608,0.28013 -11.89674,-1.01897 -6.51171,-0.79869 -11.88098,-1.50326 -11.93167,-1.56567 -0.0509,-0.0622 0.26065,-2.42255 0.69193,-5.24475 0.43128,-2.82225 0.73904,-5.1899 0.68392,-5.2615 -0.12897,-0.16773 -6.96116,-1.21964 -7.12123,-1.09646 -0.0668,0.0509 -0.47169,2.25042 -0.90059,4.88729 -0.42891,2.6369 -0.81512,4.91738 -0.85824,5.06774 -0.0505,0.1757 -1.64711,0.0813 -4.46784,-0.26403 l -4.3894,-0.53744 -0.30026,4.62062 c -0.16514,2.54134 -0.35667,4.67227 -0.42561,4.73546 -0.0903,0.0829 -17.64729,-2.3493 -22.5934,-3.12973 -0.28696,-0.0453 -0.30193,-0.97403 -0.0745,-4.62038 l 0.28459,-4.56371 -3.10718,-0.39734 -3.10718,-0.39736 -1.02865,-1.12278 -1.02864,-1.12276 -2.324165,2.12931 -2.324162,2.12932 -1.154865,-1.26056 -1.154867,-1.26052 -1.567311,1.22442 c -2.859592,2.23399 -9.072064,8.07691 -10.528946,9.90261 -1.520057,1.90485 -2.005408,2.89848 -2.459239,5.03463 -0.43538,2.04941 -0.409541,4.22949 0.08577,7.23508 0.868659,5.27106 2.409749,9.39464 4.471852,11.96566 0.932984,1.16329 1.30905,1.49475 2.377997,2.09633 2.170122,1.22124 3.035816,1.47495 4.169458,1.22195 1.654329,-0.36916 3.740572,0.69392 4.096849,2.08766 0.16137,0.63122 -0.373732,1.67995 -1.28155,2.51167 -1.130596,1.03582 -12.992041,7.33298 -18.727806,9.9425 -2.093571,0.95247 -2.801912,1.03031 -3.771077,0.41448 -1.028991,-0.65388 -1.4173,-1.60615 -1.428921,-3.50441 -0.01011,-1.64563 -0.01053,-1.64678 -1.638384,-4.6858 -2.226461,-4.15652 -3.281642,-6.54009 -4.339901,-9.80345 -1.191429,-3.67397 -1.588348,-5.67447 -1.522624,-7.67412 0.077,-2.34212 0.693874,-3.88605 2.972761,-7.4403 0.735254,-1.14675 1.289191,-2.24933 1.377594,-2.74206 0.25684,-1.43165 0.06821,-1.71334 -3.708796,-5.53901 l -3.390726,-3.43446 -16.14652,14.79292 -16.146681,14.79303 -1.223924,-1.22303 c -0.67315,-0.67265 -2.975869,-3.09306 -5.117308,-5.37853 -2.141451,-2.28548 -6.335287,-6.73551 -9.319645,-9.88896 l -5.4262254,-5.73354 z m 16.3891534,34.64693 2.463059,2.50105 27.719905,-25.39602 27.719957,-25.39608 2.587726,2.82451 c 1.423254,1.55347 4.596506,4.92723 7.051737,7.49719 l 4.464006,4.67268 2.013349,-1.94924 c 1.107372,-1.07206 2.01708,-2.03354 2.02156,-2.13662 0.005,-0.10308 -2.874926,-3.23352 -6.398871,-6.95641 l -6.406997,-6.76908 -12.320767,1.01419 -12.3208,1.01419 -8.217742,7.52882 -8.217757,7.52883 -4.269286,-4.65995 -4.269299,-4.65997 3.371326,-3.01836 3.371324,-3.01834 -3.328823,-3.54946 c -1.830894,-1.95214 -3.746115,-3.92702 -4.255993,-4.38869 l -0.927167,-0.83927 -0.856683,0.61441 c -0.471265,0.33786 -2.679244,2.28274 -4.906863,4.32174 -2.227517,2.03913 -5.45705,4.91497 -7.176628,6.3909 l -3.12655,2.68343 -3.693096,-4.03102 -3.693106,-4.03108 -1.091304,1.08029 -1.091308,1.08029 -2.1928505,15.38548 -2.19286,15.38554 7.8539055,8.38745 c 4.319644,4.61308 8.962226,9.51296 10.316876,10.88856 z m 47.435299,18.34454 c 0.7356,0.20389 1.248368,-0.005 6.944239,-2.83861 8.824042,-4.38866 13.538495,-6.99224 14.539569,-8.02943 1.078483,-1.11737 1.204167,-1.78839 0.482619,-2.57595 -0.274509,-0.29964 -0.924845,-0.70468 -1.445191,-0.9001 -0.755243,-0.28364 -1.185335,-0.28244 -2.132052,0.006 -0.652276,0.19872 -5.502285,2.40891 -10.777769,4.9116 l -9.591812,4.55035 -0.0026,1.45488 c -0.0037,2.03214 0.575333,3.03109 1.983037,3.42131 z m -1.402801,-5.61127 c 0.337771,-0.16948 4.585056,-2.18424 9.438494,-4.47723 4.853435,-2.293 8.826559,-4.2176 8.829166,-4.27694 0.0026,-0.0594 -0.697528,-0.45079 -1.555832,-0.86997 -1.929999,-0.94258 -3.560404,-2.4543 -4.554553,-4.22308 -0.365488,-0.65027 -0.68569,-1.18201 -0.711561,-1.18171 -0.02586,0.001 -1.271931,0.48688 -2.769021,1.08122 -2.73008,1.08387 -3.796686,1.28703 -4.236517,0.80694 -0.595026,-0.64946 0.422231,-1.45137 3.380568,-2.66489 1.349123,-0.55339 2.525992,-1.07308 2.615238,-1.15485 0.08929,-0.0818 -0.04589,-0.68268 -0.300375,-1.33536 -0.254473,-0.65263 -0.67781,-2.21956 -0.940753,-3.48202 -0.262944,-1.26244 -0.55952,-2.29475 -0.659064,-2.29402 -0.09955,0.001 -1.289288,0.55276 -2.643866,1.22667 -1.35458,0.67395 -2.703605,1.26737 -2.997831,1.31876 -1.063293,0.18574 -1.289468,-0.85743 -0.368822,-1.7009 0.222198,-0.20356 1.590889,-1.0007 3.041537,-1.77143 l 2.637571,-1.40129 0.112273,-2.7083 c 0.182144,-4.39369 1.026327,-6.1767 4.842164,-10.22714 1.951552,-2.07151 6.490532,-6.12739 9.042221,-8.07981 l 1.094457,-0.83742 -0.464219,-0.5067 -0.464219,-0.5067 -2.049395,2.05341 c -1.127217,1.12933 -3.782169,3.65479 -5.899861,5.61211 -4.279738,3.95548 -4.527759,4.11425 -6.148469,3.93758 -1.68284,-0.18343 -2.699846,-0.88502 -5.107398,-3.52322 -2.435902,-2.67009 -2.834522,-3.43673 -3.269844,-6.29828 -0.133015,-0.87431 -0.264548,-1.61445 -0.292333,-1.64477 -0.02773,-0.0302 -2.41719,2.11317 -5.309831,4.76332 l -5.259325,4.81842 3.445964,3.54611 c 3.10454,3.19468 3.469833,3.62387 3.687413,4.33051 0.383549,1.24602 0.08005,2.23489 -1.379623,4.4951 -2.387878,3.6975 -3.060087,5.6123 -2.87267,8.18278 0.292748,4.01545 2.362121,9.83359 5.77517,16.23727 0.833714,1.56424 1.556977,2.89365 1.607235,2.95427 0.05082,0.06 0.367644,-0.029 0.705439,-0.19791 z M 23.940537,186.73462 c 2.13224,-1.85337 5.683832,-5.01829 7.892256,-7.03329 2.930395,-2.67436 4.090312,-3.64354 4.292572,-3.58957 0.152481,0.0406 1.362664,1.18944 2.689375,2.55272 l 2.412179,2.47869 0.961655,-0.90709 c 0.528849,-0.499 2.402813,-2.24668 4.16428,-3.88384 l 3.2026,-2.97671 -5.775717,-6.08569 c -3.176597,-3.34716 -6.816088,-7.13652 -8.087725,-8.42083 l -2.312066,-2.33511 -2.652578,2.26702 c -1.458925,1.24684 -6.925163,6.10408 -12.147251,10.79384 l -9.4946989,8.52683 5.4890929,5.99138 5.489096,5.99138 3.87689,-3.36964 z m 54.995373,46.4364 c 1.41283,-0.56732 2.570732,-1.07672 2.573153,-1.132 0.0024,-0.0552 -0.112444,-0.31646 -0.255162,-0.58045 -0.254442,-0.47032 -0.311632,-0.45778 -2.870617,0.63095 -2.553461,1.08639 -3.275727,1.51189 -3.294497,1.9409 -0.0195,0.44543 1.371494,0.13469 3.847123,-0.8594 z m -24.360804,-40.3934 8.137636,-7.44922 12.389178,-1.01246 12.389176,-1.01247 19.521284,-17.89302 19.52128,-17.89301 2.14078,2.11224 c 1.17744,1.1617 4.20719,4.28372 6.73277,6.93778 l 4.59191,4.82561 11.07868,-10.1499 11.07864,-10.14987 -7.27859,-7.94463 -7.2786,-7.94462 -3.95459,3.54941 -3.9546,3.54944 -6.24271,-6.82975 c -3.43328,-3.75649 -6.37933,-6.91498 -6.5467,-7.01888 -0.28506,-0.17703 -1.91346,1.29559 -25.81914,23.34913 -19.662961,18.13948 -25.750104,23.67702 -26.540184,24.14394 -1.206425,0.7129 -1.978871,0.67162 -2.957175,-0.158 -0.359427,-0.30472 -4.953007,-5.17869 -10.208046,-10.83096 C 56.12111,149.30606 51.205418,144.0979 50.452446,143.38461 l -1.369017,-1.29696 -7.694481,7.04944 -7.694461,7.04938 2.860794,2.96408 c 3.625767,3.75661 13.535004,14.13545 13.53555,14.17704 8.61e-4,0.0598 -6.132655,5.99421 -7.372774,7.13354 l -1.246315,1.14595 1.869029,1.94206 1.869021,1.94207 -3.388943,2.99913 -3.388932,2.99911 4.00222,4.36846 4.002231,4.36845 8.137637,-7.44922 z m 18.528769,32.86799 c 0.177924,-0.0121 1.553977,-0.63343 3.058094,-1.37906 2.150662,-1.06612 2.724728,-1.42221 2.687767,-1.66722 -0.166618,-1.10481 -0.07559,-1.11505 -2.791371,0.31367 -1.41967,0.74686 -2.778128,1.53831 -3.0188,1.75883 -0.622981,0.57072 -0.593219,1.02136 0.0643,0.97378 z m 3.472033,-16.8682 c 0.868467,0.499 2.063131,0.77486 2.95509,0.6824 0.618941,-0.0638 0.968902,-0.29889 2.724089,-1.82682 l 2.014031,-1.75315 -1.289615,0.0941 c -2.73224,0.19916 -3.842547,-0.26547 -5.37961,-2.25148 -1.005638,-1.29952 -1.80403,-3.0069 -3.067028,-6.5595 l -0.83436,-2.34691 -1.695003,1.63046 -1.695011,1.63049 0.187403,1.34521 c 0.248308,1.78247 0.639009,3.11236 1.244915,4.23763 0.598317,1.11116 3.84762,4.55037 4.835226,5.11783 z m 3.753227,-3.30783 c 0.719681,0.18305 2.227489,0.17822 3.531955,-0.0114 l 1.019463,-0.14814 3.36468,-3.2514 c 1.850544,-1.78828 3.524199,-3.46733 3.719231,-3.73119 l 0.354583,-0.4798 -1.210857,-1.13629 c -0.666022,-0.62492 -2.958138,-3.04166 -5.093724,-5.3704 l -3.883095,-4.23389 -4.032202,3.69414 -4.032204,3.69418 0.692358,2.03211 c 0.92305,2.70926 1.912335,5.09483 2.51404,6.06246 0.695873,1.11904 2.38238,2.70852 3.05561,2.87973 z m 39.914965,5.86183 c 5.91677,0.86482 10.80443,1.53766 10.86152,1.49517 0.0573,-0.0422 0.22299,-2.09658 0.36877,-4.56466 l 0.26503,-4.48739 -0.63719,-0.0672 c -0.35047,-0.037 -5.31154,-0.6619 -11.02461,-1.38882 -5.71307,-0.72689 -10.42786,-1.24774 -10.47732,-1.15738 -0.0494,0.0902 -0.21551,2.00186 -0.36902,4.24779 -0.17223,2.51974 -0.17683,4.13455 -0.012,4.21674 0.14692,0.0733 5.10804,0.84085 11.02484,1.7057 z m -66.782028,-65.44992 1.621068,1.76716 0.02698,-1.09946 0.02701,-1.09943 1.996757,-2.00746 c 1.097676,-1.1035 2.828931,-2.76988 3.846754,-3.70237 l 1.850619,-1.69548 -2.060626,-2.24916 -2.060627,-2.24921 -2.138783,1.95537 c -1.176026,1.07575 -3.285659,2.92662 -4.688092,4.11303 l -2.549809,2.15713 1.253497,1.17108 c 0.689406,0.64411 1.982813,1.96647 2.874339,2.93844 z m 50.252378,53.85887 c 1.56452,0.3476 36.86343,4.72347 36.93672,4.57893 0.17495,-0.34503 1.45005,-8.31932 1.34029,-8.38202 -0.0654,-0.0374 -7.3992,-1.10556 -16.29751,-2.37389 l -16.17874,-2.30607 -3.15049,-3.25184 c -1.73273,-1.78853 -4.87463,-5.11635 -6.982003,-7.39511 l -3.831502,-4.14326 -3.833037,3.51169 -3.833049,3.51172 7.551222,8.04418 c 7.368659,7.84966 7.568839,8.04808 8.278089,8.20567 z M 72.165427,165.73207 c 0.909035,0.64106 1.661188,0.38098 3.582267,-1.23874 l 1.716094,-1.44687 -9.359149,-10.21556 -9.359147,-10.2156 -1.541063,1.4119 c -1.700618,1.55805 -1.90186,1.95719 -1.645128,3.26315 0.137615,0.70007 0.495542,1.11456 8.128902,9.4134 4.39126,4.77503 8.206504,8.83734 8.477256,9.02832 z m 7.76147,-5.01313 2.198496,-2.01418 -5.559623,-5.86967 c -3.057793,-3.22834 -7.337026,-7.80951 -9.509489,-10.1803 l -3.949539,-4.31094 -2.099245,1.92325 -2.09923,1.92325 9.410198,10.27127 9.410189,10.27127 2.19851,-2.01421 z m 24.863333,25.03116 4.86277,5.10837 16.16393,2.30577 c 11.01353,1.5711 16.2081,2.21719 16.30264,2.02768 0.1117,-0.22399 4.016,-23.4243 4.10131,-24.371 0.0148,-0.16418 -2.86534,-0.39343 -7.51192,-0.59799 -4.14473,-0.18244 -7.58181,-0.38185 -7.63796,-0.44314 -0.0562,-0.0613 1.858,-1.90724 4.25371,-4.10209 l 4.35583,-3.99068 -5.22114,-5.49026 c -2.87158,-3.01966 -5.33273,-5.5742 -5.46916,-5.67675 -0.13638,-0.10255 -0.73227,-0.70467 -1.32414,-1.33806 l -1.07612,-1.15156 -15.36943,14.08093 -15.369425,14.08095 2.038186,2.22469 c 1.120992,1.22358 4.226389,4.52349 6.900939,7.33304 z m 11.73538,-5.84914 c 0.5551,-4.47878 1.07406,-8.16844 1.15322,-8.19929 0.30863,-0.12027 24.39525,3.31466 24.56832,3.50357 0.17589,0.19197 -1.74577,15.51666 -1.97168,15.72364 -0.0986,0.0903 -24.31598,-2.6892 -24.62767,-2.82671 -0.0723,-0.0319 0.32269,-3.72244 0.87781,-8.20121 z m 11.60493,9.28495 11.86966,1.40316 0.98952,-7.48276 c 0.54424,-4.11552 0.95106,-7.53411 0.90403,-7.59683 -0.12159,-0.16206 -23.72412,-3.45588 -23.88042,-3.33255 -0.1901,0.15001 -2.05191,15.45364 -1.89008,15.53589 0.0758,0.0384 5.479,0.70137 12.00729,1.47309 z m -47.574541,-32.69775 1.820223,1.98678 1.724371,-1.5798 1.724381,-1.57982 -2.793619,-3.04924 c -1.536485,-1.67709 -5.815831,-6.25815 -9.509604,-10.18021 l -6.715542,-7.13137 -1.724405,1.57987 -1.724392,1.57983 7.688939,8.19383 c 4.228919,4.50659 8.508266,9.08767 9.509603,10.18018 z m 1.825528,-5.53371 3.743468,4.08601 2.099239,-1.92327 2.099244,-1.92325 -9.410187,-10.27127 -9.410201,-10.27128 -2.198543,2.01423 -2.198543,2.01424 5.765684,6.09458 c 3.171128,3.35203 7.450361,7.9332 9.509504,10.18032 z m 10.365628,-1.981 2.123455,-1.94543 -4.448914,-4.65687 c -2.446876,-2.56127 -6.72611,-7.14245 -9.509377,-10.18039 l -5.060477,-5.52355 -2.024262,1.85457 -2.024267,1.85456 9.410199,10.27129 9.410187,10.27125 z m -1.19722,-6.0051 3.582053,3.82021 2.021555,-1.85209 2.021556,-1.85208 -8.305073,-9.00836 c -4.567792,-4.95462 -8.8423,-9.5401 -9.498816,-10.19007 l -1.193735,-1.18174 -2.015856,1.84686 -2.015851,1.84685 5.911133,6.37505 c 3.25106,3.50631 7.522983,8.09419 9.49308,10.19534 z m 69.038935,64.49756 c 6.21282,0.76457 11.3195,1.36866 11.34814,1.34239 0.10286,-0.0943 0.57596,-4.4813 0.49305,-4.57179 -0.11707,-0.12788 -22.7417,-2.35034 -22.85132,-2.24474 -0.1865,0.17914 -0.60767,3.91429 -0.451,3.99698 0.0909,0.0479 5.24829,0.71262 11.46113,1.47716 z m -14.13665,-12.69397 c 1.90014,0.29406 3.49482,0.50629 3.54376,0.47154 0.0699,-0.0496 3.06606,-20.16127 3.13459,-21.04072 0.009,-0.12072 -1.51226,-0.45459 -3.38145,-0.742 -3.2622,-0.50161 -3.40309,-0.50201 -3.51215,-0.009 -0.36517,1.64766 -3.4225,20.56672 -3.33966,20.66616 0.0547,0.0665 1.65481,0.36085 3.55491,0.65494 z m 19.25359,8.29931 c 8.06154,0.80567 14.88107,1.4815 15.15447,1.5019 0.47238,0.0353 0.61737,-0.70609 2.91798,-14.91232 1.33151,-8.22219 2.50823,-15.49687 2.61499,-16.16601 l 0.19409,-1.21658 -15.28611,-0.84966 c -8.40737,-0.4673 -15.71811,-0.87437 -16.24612,-0.90456 l -0.96004,-0.055 -0.77478,5.34549 -0.7748,5.34552 1.91497,0.19833 c 9.54601,0.98881 21.7149,2.43118 21.86156,2.59127 0.2329,0.25422 -0.57173,6.53915 -0.84383,6.59095 -0.11232,0.022 -5.53839,-0.53119 -12.05774,-1.22794 -7.52484,-0.80424 -11.87021,-1.16775 -11.89956,-0.99549 -0.0254,0.14919 -0.46759,3.17309 -0.98262,6.71961 l -0.93644,6.44827 0.7233,0.0606 c 0.39782,0.0334 7.31911,0.71985 15.38067,1.52548 z m -75.343567,-70.17681 9.116328,9.92793 1.948449,-1.86204 1.94845,-1.86206 -7.486935,-8.17203 c -4.11782,-4.49462 -8.357417,-9.08108 -9.421391,-10.19207 l -1.93446,-2.02002 -2.015217,1.84626 c -2.008519,1.84013 -2.014029,1.84713 -1.64323,2.12603 0.20464,0.15384 4.474306,4.74736 9.488184,10.20784 z m 15.487947,4.0133 2.02354,-1.93064 -9.330285,-10.06867 c -5.131652,-5.53779 -9.345225,-10.06919 -9.36353,-10.06975 -0.01836,3e-4 -0.964141,0.7778 -2.101898,1.7298 l -2.068588,1.73092 9.408569,10.26952 9.408572,10.26949 z m 40.40549,33.09723 c 0.0679,-0.0623 0.50685,-2.45128 0.97549,-5.30905 l 0.85202,-5.19596 15.72164,-14.39947 15.72161,-14.39945 -1.18758,-1.189 c -0.65316,-0.65399 -1.21726,-1.19183 -1.25362,-1.19516 -0.0364,-0.004 -10.25443,9.25099 -22.70697,20.56528 l -22.64101,20.5714 7.19747,0.3323 c 3.95859,0.18277 7.253,0.2814 7.32091,0.21919 z m 17.64477,18.94331 c 6.19067,0.65444 11.28904,1.1594 11.32971,1.12214 0.0975,-0.0893 0.86342,-5.76794 0.789,-5.84919 -0.13832,-0.15104 -23.45152,-2.64518 -23.51087,-2.51529 -0.0363,0.0795 -0.25615,1.43582 -0.48845,3.01389 -0.40801,2.77171 -0.40457,2.87208 0.10129,2.95387 0.28799,0.0466 5.5887,0.62014 11.77937,1.27457 z m -57.25138,-56.05866 1.69932,1.85296 0.70633,-0.80949 c 0.38847,-0.44524 1.12651,-1.19755 1.64011,-1.67181 l 0.93406,-0.86196 -9.27282,-10.12133 -9.272816,-10.12133 -1.823594,1.67071 -1.823582,1.67071 7.756945,8.26941 c 4.266347,4.54816 8.521687,9.10323 9.456247,10.1224 z m 7.47792,-3.77944 2.19846,-2.01414 -4.52932,-4.74507 c -2.49112,-2.6098 -6.70853,-7.1235 -9.372,-10.03046 l -4.842736,-5.28536 -2.099242,1.92326 -2.099232,1.92325 9.27282,10.12133 9.27282,10.12132 z m 53.59716,41.71347 10.73756,0.58313 0.12474,-2.85101 0.12473,-2.85103 -11.80202,-1.06288 -11.80202,-1.06287 -0.47124,3.21325 -0.47125,3.21326 1.41097,0.11749 c 0.77605,0.0645 6.24289,0.37992 12.14853,0.70066 z m -56.57803,-49.78402 5.47944,5.78146 1.94917,-1.78577 1.94915,-1.78575 -4.5293,-4.74509 c -2.49113,-2.60978 -6.70854,-7.12348 -9.372,-10.03044 l -4.84274,-5.28535 -1.949293,1.78589 -1.949291,1.78585 3.892694,4.24889 c 2.14098,2.33689 6.3584,6.85059 9.37212,10.03035 z m 74.77527,78.37067 c 2.80442,0.19312 3.05378,0.17242 3.14478,-0.26093 0.47995,-2.28576 3.19693,-20.38586 3.07047,-20.45507 -0.0906,-0.0496 -1.47499,-0.25895 -3.07654,-0.46534 -2.58869,-0.33364 -2.92206,-0.32728 -3.00349,0.0572 -0.34348,1.62172 -3.35436,20.75274 -3.27742,20.82458 0.0532,0.0492 1.46696,0.18426 3.1422,0.29961 z m -70.57678,-82.21718 5.47943,5.78146 2.02404,-1.85434 2.024,-1.85434 -4.52896,-4.7454 c -2.49101,-2.60989 -6.70832,-7.12369 -9.3719,-10.03057 l -4.84289,-5.285187 -2.02427,1.854557 -2.02426,1.85458 3.89269,4.24889 c 2.14098,2.33688 6.35839,6.85058 9.37212,10.03035 z m 6.20708,-1.98717 3.58195,3.82032 2.06127,-1.88848 2.06129,-1.88846 -4.96595,-5.31037 c -2.73127,-2.92071 -6.95797,-7.39486 -9.39289,-9.942394 l -4.42706,-4.631894 -2.02818,1.781195 -2.02816,1.781205 5.77786,6.229348 c 3.17782,3.42616 7.38974,7.94852 9.35983,10.04967 z m 35.33394,0.94268 c 9.38407,-8.59115 17.72178,-16.153127 18.52853,-16.804131 l 1.46664,-1.18376 -7.50344,-8.190056 -7.50345,-8.190044 -6.97246,6.387943 -6.97246,6.387948 0.96161,1.049637 0.96164,1.049615 -3.80641,3.521848 c -2.09371,1.93679 -3.85842,3.60053 -3.92204,3.69665 -0.0636,0.096 -3.48167,3.2742 -7.59571,7.06235 l -7.48009,6.88755 6.38795,6.97247 6.38794,6.97247 17.06147,-15.6208 z m -29.68832,-3.77064 2.4571,2.5065 2.15812,-1.97718 2.15809,-1.97718 -9.20415,-10.04636 -9.20412,-10.04635 -1.77217,1.602917 c -0.97418,0.882169 -1.96607,1.724687 -2.20313,1.873425 -0.94586,0.593243 -1.2346,0.214404 6.23065,8.175328 3.80738,4.06026 8.02821,8.51015 9.37959,9.88877 z m 9.17238,-3.64579 2.09923,-1.92326 -4.15574,-4.53573 c -2.2857,-2.494617 -6.47219,-6.974573 -9.30344,-9.955363 l -5.14761,-5.419759 -1.99994,1.832279 -1.99993,1.832286 9.20412,10.046367 9.20414,10.04634 2.09923,-1.92326 z m 27.52944,30.80113 c 0.79273,-0.70768 1.5921,-1.39307 1.77589,-1.5236 0.1838,-0.1306 2.83167,-2.50989 5.88418,-5.28743 l 5.54999,-5.05018 1.0133,0.93332 c 0.55735,0.5133 4.4561,4.6053 8.66399,9.09326 4.20789,4.48792 7.71389,8.16405 7.79111,8.16918 0.0773,0.005 4.60248,-4.08365 10.05631,-9.08606 9.29145,-8.52283 10.06654,-9.27164 12.30775,-11.89531 4.043,-4.73289 12.58931,-15.85883 12.61396,-16.42135 0.008,-0.20106 -28.21386,-31.922287 -28.39588,-31.915909 -0.0469,0.0017 -12.05522,10.881582 -26.68543,24.177649 l -26.60035,24.17468 7.29179,7.95902 7.29182,7.95906 z m -48.88174,-52.299489 1.73498,1.892232 2.22408,-1.917854 c 2.0917,-1.803801 2.29956,-1.938598 3.49184,-2.267262 1.77443,-0.489057 3.55674,-0.192161 5.51807,0.919264 1.42348,0.806628 1.80165,1.140517 5.02453,4.436453 1.9168,1.96037 5.11271,5.331034 7.10192,7.490521 l 3.61735,3.925765 2.7365,-2.507091 2.73651,-2.507098 -12.31335,-13.334441 c -6.77229,-7.333977 -12.34399,-13.336926 -12.3815,-13.339942 -0.0374,-0.0025 -3.23579,2.813533 -7.10734,6.259043 l -7.03918,6.264535 1.46052,1.396617 c 0.80326,0.768167 2.24126,2.248122 3.19554,3.28882 z m 22.69904,17.965869 1.20398,1.14909 0.42969,-0.48447 c 0.23637,-0.26642 1.26031,-1.25621 2.27557,-2.1994 l 1.84579,-1.71503 -6.59769,-6.987167 c -7.02814,-7.442975 -8.044,-8.370538 -10.15776,-9.27475 -2.03433,-0.870221 -4.0925,-0.700783 -5.85169,0.481742 l -0.6436,0.432646 8.14583,8.724146 c 4.48021,4.798273 8.68763,9.241203 9.34983,9.873213 z M 127.06049,71.949531 c 0.0795,0.01518 14.99454,-13.085615 14.98953,-13.166054 -0.006,-0.0968 -2.96914,-3.677034 -3.78575,-4.574301 l -0.67009,-0.735904 3.81923,-3.357347 3.81921,-3.357347 -2.71783,-2.966519 -2.71783,-2.966532 -1.16953,0.906002 c -1.58107,1.224801 -9.64022,8.17626 -16.49071,14.224127 l -5.60979,4.952523 5.24037,5.515788 c 2.88217,3.033703 5.26412,5.520267 5.29312,5.525783 z m 18.8059,20.42855 1.80506,1.862728 9.88784,-9.058903 9.88785,-9.058891 -7.68969,-8.393332 -7.68968,-8.393333 -2.5493,2.259871 -2.5493,2.259883 -2.25798,-2.381962 -2.25795,-2.381933 -4.24174,3.716716 c -2.33302,2.044147 -5.74675,5.022487 -7.58614,6.61841 l -3.34442,2.901663 8.39016,9.093102 c 4.61459,5.00118 9.20239,9.931365 10.1952,10.955855 z m 43.12265,-5.444057 11.835,-10.772302 -1.76932,-2.035098 c -0.97314,-1.119288 -4.07583,-4.584265 -6.89503,-7.699823 -2.8192,-3.115559 -5.23899,-5.848857 -5.37745,-6.073852 -0.13828,-0.225082 -2.69416,-3.088102 -5.67932,-6.362464 l -5.42769,-5.953252 -4.16042,3.832305 c -2.28872,2.107192 -6.35961,5.868452 -9.0471,8.357548 l -4.88631,4.525679 5.22027,5.697941 5.22024,5.697926 -2.92748,2.682037 -2.92746,2.682068 7.49364,8.096922 7.49365,8.096961 z m -39.46398,-25.833065 2.55451,-2.340362 2.61662,2.774073 2.61659,2.774077 9.02218,-8.365279 c 4.96224,-4.600862 9.02195,-8.382283 9.02156,-8.403233 -4.1e-4,-0.02075 -3.97629,-4.474254 -8.83536,-9.896497 l -8.83474,-9.858574 -3.91134,2.699645 c -4.11265,2.838633 -9.94453,7.058345 -12.31973,8.914105 l -1.4065,1.098906 2.89751,3.162653 2.89749,3.162639 -3.83536,3.331371 -3.83537,3.3314 1.93787,2.198731 c 1.06577,1.209348 3.04525,3.449212 4.39862,4.977685 l 2.46088,2.778858 z m 76.64072,37.344388 c 3.31949,-3.045372 10.1068,-9.703587 12.89178,-12.645964 3.36571,-3.555943 5.50198,-6.332121 9.77588,-12.704229 2.56477,-3.823884 2.63173,-3.949479 2.35244,-4.412983 -0.15798,-0.262433 -3.58941,-4.091939 -7.62506,-8.510175 -4.0355,-4.418337 -7.46574,-8.225912 -7.62246,-8.461559 -0.15673,-0.235648 -5.93203,-6.673073 -12.83389,-14.305513 -6.90193,-7.632373 -14.92034,-16.55241 -17.81872,-19.822269 l -5.26978,-5.945246 -2.88899,1.180951 c -4.47851,1.830705 -11.81076,5.163826 -14.58342,6.629401 -4.87277,2.575635 -10.54463,6.280139 -19.0038,12.412085 l -0.93368,0.676881 4.07373,4.626683 c 2.24057,2.544681 6.63562,7.492284 9.76677,10.994711 7.65767,8.565654 16.41498,18.379456 31.00896,34.749731 6.69932,7.514627 13.05125,14.633869 14.11552,15.82043 l 1.93498,2.157448 2.65948,-2.440667 z m -12.5448,-20.022605 c -0.068,-0.359602 0.0295,-1.028547 0.2166,-1.486562 0.31675,-0.775206 0.85503,-1.310573 7.79252,-7.750665 4.09867,-3.804905 7.64986,-7.000276 7.892,-7.100287 0.64475,-0.267262 1.87587,0.151042 2.5228,0.857157 0.69922,0.763206 0.79109,1.958277 0.22291,2.899678 -0.27191,0.450594 -2.80417,2.839292 -7.79988,7.357821 -8.21233,7.427876 -7.83609,7.160531 -9.44951,6.694203 -0.8945,-0.258739 -1.23617,-0.618471 -1.39748,-1.471402 z m 1.81583,1.142803 c 0.44175,0.05761 1.1151,-0.05476 1.49644,-0.248182 1.00127,-0.50958 14.82891,-13.200815 15.05739,-13.819905 0.54025,-1.463908 0.0151,-2.566323 -1.42052,-2.981516 -0.69363,-0.200625 -0.77593,-0.166834 -2.11425,0.868804 -0.76588,0.592663 -1.75394,1.492514 -2.19591,1.999422 -0.44169,0.507244 -3.26266,3.16888 -6.26883,5.914761 -3.26728,2.985095 -5.56816,5.196289 -5.72037,5.499148 -0.3521,0.700443 -0.32618,1.910627 0.0498,2.32094 0.17214,0.1878 0.67426,0.388557 1.116,0.446129 z m 6.04663,7.160169 c -0.0207,-0.469178 0.0974,-1.141459 0.26048,-1.493897 0.18612,-0.402229 1.99785,-2.408501 4.86661,-5.389086 2.51358,-2.61157 5.08295,-5.340076 5.7097,-6.063367 0.6267,-0.723291 1.82368,-1.942807 2.65988,-2.710058 l 1.52036,-1.39499 0.95098,0.103686 c 1.72787,0.188357 2.631,1.746359 1.95712,3.376232 -0.39236,0.948916 -2.88349,3.642975 -11.17589,12.086238 -1.36498,1.389745 -2.72824,2.678843 -3.0295,2.864676 -1.06315,0.6555 -2.70239,0.54479 -3.41267,-0.230464 -0.14901,-0.162717 -0.28722,-0.679751 -0.30703,-1.148931 z m 1.84112,1.384906 c 1.15223,0.115497 1.93356,-0.4189 4.60761,-3.151538 10.90647,-11.145242 11.44876,-11.777046 11.27071,-13.131771 -0.12908,-0.982378 -1.32301,-1.846312 -2.35774,-1.706087 -0.42312,0.05778 -2.81296,2.352729 -4.92318,4.728671 -1.08269,1.21903 -2.67986,2.930174 -3.54922,3.802544 -3.10402,3.114656 -6.05567,6.263977 -6.26951,6.6894 -0.28642,0.569739 -0.21575,2.036611 0.11532,2.398191 0.14414,0.157303 0.64175,0.324078 1.1058,0.370603 z M 196.04953,58.942377 c -0.0679,-0.35961 0.0295,-1.028548 0.2166,-1.486549 0.31681,-0.775208 0.85505,-1.310588 7.79251,-7.750678 4.09869,-3.804908 7.64989,-7.000278 7.89203,-7.100289 0.64472,-0.267247 1.87586,0.151058 2.52278,0.857173 0.69922,0.763205 0.7911,1.958261 0.22291,2.899647 -0.27194,0.450612 -2.80418,2.839322 -7.79987,7.357836 -8.21239,7.427893 -7.83612,7.160548 -9.44954,6.694204 -0.89448,-0.258739 -1.23617,-0.618456 -1.39749,-1.471401 z m 1.81586,1.142815 c 0.44173,0.05761 1.11517,-0.05318 1.49641,-0.248196 1.00128,-0.50958 14.82892,-13.200816 15.0574,-13.81989 0.54023,-1.463922 0.0151,-2.566323 -1.42055,-2.981529 -0.69324,-0.20054 -0.77633,-0.166462 -2.1092,0.864915 -0.76313,0.590547 -1.80026,1.534305 -2.30484,2.097129 -0.50448,0.562925 -3.3275,3.226031 -6.27343,5.917953 -3.19788,2.921519 -5.45904,5.098803 -5.61123,5.40169 -0.35246,0.701072 -0.3267,1.911159 0.0494,2.321667 0.17199,0.187794 0.67422,0.388578 1.11598,0.446147 z m 6.56399,8.003879 c -0.0679,-0.359609 0.0295,-1.028563 0.21662,-1.486564 0.31678,-0.775208 0.85507,-1.31059 7.79253,-7.750664 4.09878,-3.804821 7.64987,-7.000293 7.89202,-7.100303 0.64474,-0.267248 1.87584,0.151058 2.52279,0.857171 0.6992,0.763208 0.79108,1.958262 0.22291,2.899663 -0.27196,0.450613 -2.8042,2.839308 -7.79991,7.35782 -8.21234,7.427894 -7.83608,7.160549 -9.44952,6.694222 -0.8945,-0.25874 -1.23613,-0.61846 -1.39749,-1.471403 z m 1.81588,1.1428 c 0.44173,0.05761 1.11508,-0.05476 1.49643,-0.248183 1.00127,-0.509579 14.82891,-13.20083 15.0574,-13.819905 0.54022,-1.463936 0.0148,-2.566329 -1.42056,-2.981544 -0.69361,-0.200627 -0.77589,-0.166805 -2.11421,0.868802 -0.76591,0.592665 -1.75396,1.49253 -2.19596,1.999439 -0.44167,0.507227 -3.26264,3.168864 -6.26881,5.91476 -3.26731,2.985096 -5.56815,5.196306 -5.72037,5.499133 -0.35212,0.700459 -0.32617,1.910611 0.0498,2.320925 0.17214,0.187801 0.67426,0.388589 1.11599,0.446159 z M 178.91534,39.337223 c -0.068,-0.359604 0.0295,-1.028547 0.21661,-1.48655 0.31679,-0.775207 0.85504,-1.310588 7.79252,-7.750677 4.09878,-3.804805 7.64987,-7.000279 7.89202,-7.10029 0.64474,-0.267245 1.87584,0.151045 2.52278,0.857174 0.69921,0.763207 0.7911,1.958259 0.22291,2.899646 -0.27191,0.45061 -2.80416,2.839323 -7.79987,7.357836 -8.21234,7.427892 -7.83609,7.160548 -9.44953,6.694204 -0.89447,-0.258739 -1.23613,-0.618458 -1.39748,-1.471403 z m 1.81586,1.1428 c 0.44174,0.05761 1.11508,-0.05476 1.49643,-0.248121 1.00129,-0.509581 14.82892,-13.200816 15.05739,-13.819906 0.54023,-1.463936 0.0148,-2.566329 -1.42056,-2.981543 -0.6936,-0.200612 -0.77587,-0.166806 -2.11422,0.868803 -0.76588,0.592678 -1.75396,1.492528 -2.19594,1.999439 -0.44166,0.507242 -3.26263,3.168878 -6.26882,5.914759 -3.26727,2.985096 -5.56813,5.19629 -5.72034,5.499132 -0.35211,0.700443 -0.32616,1.910626 0.0498,2.320941 0.17206,0.187788 0.67424,0.388573 1.11598,0.446145 z m 7.81298,9.066055 c -0.0681,-0.359589 0.0295,-1.028532 0.21661,-1.486533 0.31677,-0.775223 0.85503,-1.310588 7.79251,-7.750663 4.09878,-3.80482 7.64987,-7.000293 7.89201,-7.100304 0.64473,-0.267247 1.87584,0.151059 2.52278,0.857173 0.69921,0.763206 0.79111,1.95826 0.22291,2.899662 -0.27193,0.450596 -2.80418,2.839308 -7.79989,7.357822 -8.21231,7.427874 -7.83607,7.16053 -9.44951,6.694203 -0.8945,-0.258738 -1.23614,-0.618443 -1.39748,-1.471402 z m 1.81583,1.142832 c 0.44174,0.05761 1.11511,-0.05476 1.49644,-0.248152 1.00128,-0.509564 14.82892,-13.200801 15.0574,-13.819889 0.54023,-1.463937 0.0148,-2.56633 -1.42056,-2.981544 -0.6936,-0.200629 -0.77589,-0.166807 -2.11424,0.868802 -0.76587,0.592678 -1.75394,1.492529 -2.1959,1.999436 -0.44168,0.507229 -3.26264,3.168865 -6.26885,5.914764 -3.26728,2.985093 -5.56813,5.196288 -5.72035,5.49913 -0.35209,0.70046 -0.32617,1.910628 0.0498,2.320941 0.172,0.187793 0.67424,0.388559 1.11598,0.446145 z m 59.60286,11.340268 2.24919,-2.060613 -4.06262,-4.483153 c -2.23442,-2.465752 -4.92213,-5.433261 -5.97271,-6.594419 l -1.91009,-2.1113 -0.87015,0.705962 c -0.47852,0.388357 -1.4499,1.320083 -2.15821,2.071005 l -1.28808,1.365014 0.79337,0.972091 c 0.43632,0.534718 3.0831,3.497512 5.88172,6.584061 l 5.0883,5.611971 z m -17.6087,-20.273638 2.62405,-2.404053 -13.53144,-14.769642 -13.53145,-14.7696525 -2.47408,2.2666925 -2.47413,2.266686 1.38709,1.556204 c 2.79212,3.132518 18.45987,20.592964 21.8678,24.369894 l 3.50805,3.887992 z"
     id="path895" />
  <path
     style="font-variation-settings:normal;opacity:1;vector-effect:none;fill:#ff5555;fill-opacity:1;stroke-width:0.132306;stroke-linecap:butt;stroke-linejoin:miter;stroke-miterlimit:4;stroke-dasharray:none;stroke-dashoffset:0;stroke-opacity:1;stop-color:#000000;stop-opacity:1"
     d="m 72.572219,165.98674 c -0.422821,-0.15149 -4.017236,-3.93132 -11.446672,-12.03713 -4.787457,-5.22331 -5.439895,-6.01332 -5.606062,-6.78813 -0.238748,-1.11324 -0.07312,-1.42186 1.677121,-3.12511 l 1.544636,-1.50317 0.305058,0.35835 c 0.167781,0.19709 4.362704,4.78422 9.322051,10.19363 4.959346,5.40941 9.032244,9.87718 9.050883,9.92839 0.04933,0.13552 -2.413054,2.15119 -3.225879,2.64065 -0.653403,0.39345 -1.160662,0.4975 -1.621136,0.33252 z"
     id="path897" />
  <path
     style="font-variation-settings:normal;opacity:1;vector-effect:none;fill:#ff5555;fill-opacity:1;stroke-width:0.132306;stroke-linecap:butt;stroke-linejoin:miter;stroke-miterlimit:4;stroke-dasharray:none;stroke-dashoffset:0;stroke-opacity:1;stop-color:#000000;stop-opacity:1"
     d="m 81.950245,158.0606 c -0.621733,-0.71727 -15.2858,-16.43521 -18.161372,-19.46659 l -0.462353,-0.48741 1.71396,-1.57364 c 1.236125,-1.13492 1.758563,-1.54257 1.873946,-1.46221 0.235403,0.16395 12.714468,13.46818 17.762884,18.93744 l 1.18099,1.27944 -0.793874,0.74839 c -0.436633,0.41161 -1.22666,1.13853 -1.755618,1.61538 l -0.961741,0.867 z"
     id="path899" />
  <path
     style="font-variation-settings:normal;opacity:1;vector-effect:none;fill:#ff5555;fill-opacity:1;stroke-width:0.132306;stroke-linecap:butt;stroke-linejoin:miter;stroke-miterlimit:4;stroke-dasharray:none;stroke-dashoffset:0;stroke-opacity:1;stop-color:#000000;stop-opacity:1"
     d="m 81.238899,140.71306 c -5.171989,-5.64608 -9.388588,-10.31068 -9.370221,-10.36579 0.04553,-0.1366 3.873999,-3.63376 3.978008,-3.63376 0.04562,0 1.095901,1.1079 2.333947,2.46201 3.635174,3.97595 8.476484,9.17359 11.877243,12.75142 1.742473,1.8332 3.53761,3.73311 3.989192,4.22203 l 0.821061,0.88894 -1.491243,1.37625 c -0.820182,0.75693 -1.770946,1.6436 -2.112806,1.97037 l -0.621566,0.59412 z"
     id="path901" />
  <path
     style="font-variation-settings:normal;opacity:1;vector-effect:none;fill:#ff5555;fill-opacity:1;stroke-width:0.132306;stroke-linecap:butt;stroke-linejoin:miter;stroke-miterlimit:4;stroke-dasharray:none;stroke-dashoffset:0;stroke-opacity:1;stop-color:#000000;stop-opacity:1"
     d="M 95.592902,138.62473 C 89.327388,131.79627 83.075242,125.03231 81.788998,123.6908 l -1.204128,-1.25587 0.288932,-0.31412 c 0.158912,-0.17277 1.045502,-1.01707 1.970198,-1.87621 l 1.681267,-1.56209 1.252846,1.30431 c 1.686735,1.75602 4.632606,4.93661 11.703946,12.63647 l 5.930951,6.45812 -1.92537,1.8547 c -1.05895,1.02008 -1.956925,1.85629 -1.995497,1.85823 -0.03857,0.002 -1.793232,-1.87438 -3.899241,-4.16961 z"
     id="path903" />
  <path
     style="font-variation-settings:normal;opacity:1;vector-effect:none;fill:#ff5555;fill-opacity:1;stroke-width:0.132306;stroke-linecap:butt;stroke-linejoin:miter;stroke-miterlimit:4;stroke-dasharray:none;stroke-dashoffset:0;stroke-opacity:1;stop-color:#000000;stop-opacity:1"
     d="m 105.80881,132.0319 c -1.37298,-1.48422 -5.62444,-6.03622 -9.447695,-10.11554 l -6.951366,-7.41695 0.750543,-0.69618 c 0.412798,-0.3829 1.24404,-1.14742 1.847204,-1.69893 l 1.096661,-1.00275 0.304628,0.35675 c 0.167546,0.19621 4.326782,4.74557 9.242745,10.10969 4.91597,5.36412 8.92732,9.78043 8.91411,9.81401 -0.0132,0.0336 -0.75221,0.80075 -1.64225,1.70478 l -1.61824,1.64371 z"
     id="path905" />
  <path
     style="font-variation-settings:normal;opacity:1;vector-effect:none;fill:#ff5555;fill-opacity:1;stroke-width:0.132306;stroke-linecap:butt;stroke-linejoin:miter;stroke-miterlimit:4;stroke-dasharray:none;stroke-dashoffset:0;stroke-opacity:1;stop-color:#000000;stop-opacity:1"
     d="m 112.82342,122.84053 c -8.64026,-9.13562 -14.939101,-15.95406 -14.883345,-16.11107 0.04934,-0.13892 3.784965,-3.53692 3.871665,-3.52173 0.0361,0.006 0.36729,0.35049 0.73589,0.76478 2.51377,2.82541 11.85954,12.84553 16.78445,17.99554 l 1.22996,1.28618 -1.72038,1.57732 c -0.94621,0.86753 -1.83909,1.6714 -1.98418,1.78637 -0.26073,0.20662 -0.30746,0.16286 -4.03406,-3.77739 z"
     id="path907" />
  <path
     style="font-variation-settings:normal;opacity:1;vector-effect:none;fill:#ff5555;fill-opacity:1;stroke-width:0.132306;stroke-linecap:butt;stroke-linejoin:miter;stroke-miterlimit:4;stroke-dasharray:none;stroke-dashoffset:0;stroke-opacity:1;stop-color:#000000;stop-opacity:1"
     d="m 121.77563,115.47398 c -3.72464,-3.98346 -12.33305,-13.23343 -14.14781,-15.2022 -0.64865,-0.703687 -1.16601,-1.320473 -1.14969,-1.370631 0.0411,-0.126175 3.89991,-3.503415 4.00303,-3.503415 0.0458,0 0.48657,0.427616 0.97942,0.950257 0.49284,0.522642 2.84763,3.003838 5.23285,5.513769 5.662,5.95802 12.53963,13.30216 12.53963,13.39019 0,0.063 -2.55472,2.42553 -3.66602,3.39016 l -0.45767,0.39727 z"
     id="path909" />
  <path
     style="font-variation-settings:normal;opacity:1;vector-effect:none;fill:#ff5555;fill-opacity:1;stroke-width:0.132306;stroke-linecap:butt;stroke-linejoin:miter;stroke-miterlimit:4;stroke-dasharray:none;stroke-dashoffset:0;stroke-opacity:1;stop-color:#000000;stop-opacity:1"
     d="m 125.69937,101.35882 c -4.65776,-5.090588 -8.78299,-9.604581 -9.16716,-10.031092 l -0.6985,-0.775476 1.939,-1.778303 c 1.06645,-0.978067 1.98394,-1.793148 2.03886,-1.811291 0.18237,-0.06024 14.04591,14.655502 18.23473,19.355632 l 0.44762,0.50226 -2.07393,1.9043 c -1.14067,1.04736 -2.114,1.90098 -2.16295,1.89694 -0.0489,-0.004 -3.89991,-4.17238 -8.55767,-9.26297 z"
     id="path911" />
  <path
     style="font-variation-settings:normal;opacity:1;vector-effect:none;fill:#ff2a2a;fill-opacity:1;stroke-width:0.0150885;stroke-linecap:butt;stroke-linejoin:miter;stroke-miterlimit:4;stroke-dasharray:none;stroke-dashoffset:0;stroke-opacity:1;stop-color:#000000;stop-opacity:1"
     d="m 68.289576,152.51173 c -5.093383,-5.56833 -9.260696,-10.20422 -9.260696,-10.30196 0,-0.0977 0.918363,-1.02338 2.040807,-2.05695 l 2.040808,-1.87922 1.61473,1.76038 c 2.724433,2.97019 10.745311,11.57138 14.128129,15.1503 1.762978,1.86518 3.204551,3.45534 3.203495,3.53369 -0.0029,0.21461 -4.073803,3.91998 -4.305535,3.91893 -0.110573,-5.1e-4 -4.368356,-4.55683 -9.461738,-10.12517 z"
     id="path913" />
  <path
     style="font-variation-settings:normal;opacity:1;vector-effect:none;fill:#ff2a2a;fill-opacity:1;stroke-width:0.0150885;stroke-linecap:butt;stroke-linejoin:miter;stroke-miterlimit:4;stroke-dasharray:none;stroke-dashoffset:0;stroke-opacity:1;stop-color:#000000;stop-opacity:1"
     d="m 82.917261,151.6206 c -1.724701,-1.88292 -5.974534,-6.43383 -9.444073,-10.11314 -3.469539,-3.67931 -6.274541,-6.78121 -6.233338,-6.89311 0.134404,-0.36503 4.125901,-3.93263 4.313176,-3.85512 0.100202,0.0415 3.892426,4.13305 8.427164,9.0924 4.534738,4.95934 8.740414,9.53309 9.345946,10.16387 l 1.100968,1.14689 -1.784805,1.65569 c -0.981642,0.91064 -1.965797,1.78401 -2.187011,1.94085 -0.344181,0.24401 -0.854607,-0.20875 -3.538027,-3.13833 z"
     id="path915" />
  <path
     style="font-variation-settings:normal;opacity:1;vector-effect:none;fill:#ff2a2a;fill-opacity:1;stroke-width:0.0150885;stroke-linecap:butt;stroke-linejoin:miter;stroke-miterlimit:4;stroke-dasharray:none;stroke-dashoffset:0;stroke-opacity:1;stop-color:#000000;stop-opacity:1"
     d="m 85.926914,137.00637 c -5.009262,-5.37988 -9.253857,-9.9878 -9.432431,-10.23982 -0.293711,-0.41451 -0.156895,-0.61428 1.434324,-2.09431 0.967452,-0.89985 1.897985,-1.71783 2.067849,-1.81773 0.206359,-0.12136 1.874778,1.49601 5.027892,4.87405 6.185284,6.62652 13.398704,14.44925 13.819194,14.98648 0.299085,0.38212 0.150107,0.59718 -1.434984,2.07147 -0.972794,0.9048 -1.904927,1.72527 -2.071405,1.82328 -0.19959,0.11749 -3.40486,-3.1535 -9.410439,-9.60342 z"
     id="path917" />
  <path
     style="font-variation-settings:normal;opacity:1;vector-effect:none;fill:#ff2a2a;fill-opacity:1;stroke-width:0.0150885;stroke-linecap:butt;stroke-linejoin:miter;stroke-miterlimit:4;stroke-dasharray:none;stroke-dashoffset:0;stroke-opacity:1;stop-color:#000000;stop-opacity:1"
     d="m 94.365746,128.61068 c -5.093383,-5.56889 -9.282467,-10.198 -9.309076,-10.28692 -0.04594,-0.15352 3.642613,-3.25601 4.038058,-3.39646 0.103237,-0.0367 4.38048,4.45139 9.504986,9.97346 l 9.317286,10.04012 -1.89586,1.90704 c -1.04272,1.04887 -2.0081,1.90276 -2.14528,1.89753 -0.13718,-0.005 -4.416731,-4.56588 -9.510114,-10.13477 z"
     id="path919" />
  <path
     style="font-variation-settings:normal;opacity:1;vector-effect:none;fill:#ff2a2a;fill-opacity:1;stroke-width:0.0150885;stroke-linecap:butt;stroke-linejoin:miter;stroke-miterlimit:4;stroke-dasharray:none;stroke-dashoffset:0;stroke-opacity:1;stop-color:#000000;stop-opacity:1"
     d="m 102.6089,121.02954 -9.297079,-10.15117 1.722211,-1.59774 c 2.720883,-2.52423 2.407061,-2.46939 4.023028,-0.70303 2.96162,3.23726 11.04735,11.91267 14.1031,15.13162 l 3.19745,3.36822 -1.49257,1.39119 c -0.82091,0.76516 -1.82253,1.68839 -2.22581,2.05164 l -0.73324,0.66044 z"
     id="path921" />
  <path
     style="font-variation-settings:normal;opacity:1;vector-effect:none;fill:#ff2a2a;fill-opacity:1;stroke-width:0.0150885;stroke-linecap:butt;stroke-linejoin:miter;stroke-miterlimit:4;stroke-dasharray:none;stroke-dashoffset:0;stroke-opacity:1;stop-color:#000000;stop-opacity:1"
     d="m 114.20119,116.0297 c -3.55443,-3.78652 -7.75822,-8.28456 -9.34176,-9.99564 l -2.87916,-3.11105 1.65378,-1.5193 c 2.32906,-2.139654 2.52543,-2.264989 2.90406,-1.853565 0.1692,0.183846 2.36874,2.582425 4.88786,5.330165 2.51913,2.74775 6.53785,7.04216 8.93049,9.54314 2.39264,2.50098 4.35025,4.65773 4.35025,4.79278 0,0.25232 -3.62916,3.69807 -3.89491,3.69807 -0.0814,0 -3.05619,-3.09807 -6.61061,-6.8846 z"
     id="path923" />
  <path
     style="font-variation-settings:normal;opacity:1;vector-effect:none;fill:#ff2a2a;fill-opacity:1;stroke-width:0.0150885;stroke-linecap:butt;stroke-linejoin:miter;stroke-miterlimit:4;stroke-dasharray:none;stroke-dashoffset:0;stroke-opacity:1;stop-color:#000000;stop-opacity:1"
     d="m 128.11855,113.40914 c -0.7372,-0.78454 -4.53881,-4.80656 -8.44802,-8.9378 -6.8171,-7.204318 -8.61116,-9.200358 -8.61116,-9.580657 0,-0.09598 1.02285,-1.056251 2.27301,-2.133936 l 2.273,-1.959429 9.12009,9.960542 c 5.01605,5.47829 9.12009,10.05023 9.12009,10.15985 0,0.21981 -4.05191,3.96541 -4.25803,3.93614 -0.0707,-0.01 -0.73178,-0.66016 -1.46898,-1.44471 z"
     id="path925" />
  <path
     style="font-variation-settings:normal;opacity:1;vector-effect:none;fill:#ff2a2a;fill-opacity:1;stroke-width:0.0150885;stroke-linecap:butt;stroke-linejoin:miter;stroke-miterlimit:4;stroke-dasharray:none;stroke-dashoffset:0;stroke-opacity:1;stop-color:#000000;stop-opacity:1"
     d="m 135.52408,102.99371 c -7.46034,-7.858944 -15.20401,-16.229768 -15.20401,-16.435367 0,-0.122015 0.57574,-0.489894 1.27943,-0.81751 1.83118,-0.852533 3.51226,-0.809675 5.54424,0.141346 1.35813,0.635646 2.22709,1.392739 6.09256,5.308237 2.47967,2.511768 5.81092,5.961851 7.40278,7.666852 l 2.89429,3.100002 -2.25741,2.1317 c -1.24158,1.17244 -2.32751,2.16007 -2.41317,2.19473 -0.0857,0.0347 -1.58809,-1.44583 -3.33871,-3.28999 z"
     id="path927" />
  <path
     style="font-variation-settings:normal;opacity:1;vector-effect:none;fill:#ff9955;fill-opacity:1;stroke-width:0.0101551;stroke-linecap:butt;stroke-linejoin:miter;stroke-miterlimit:4;stroke-dasharray:none;stroke-dashoffset:0;stroke-opacity:1;stop-color:#000000;stop-opacity:1"
     d="m 69.142359,247.09855 c -0.268197,-0.43497 -1.297233,-2.43585 -2.286746,-4.44639 -2.835264,-5.76085 -4.342279,-10.23689 -4.672125,-13.87686 -0.210688,-2.32502 0.38727,-4.3701 2.104387,-7.19722 1.849256,-3.04469 2.182573,-3.78565 2.182573,-4.85184 0,-1.17657 -0.300973,-1.57265 -4.213419,-5.54487 -1.602197,-1.62667 -2.872364,-3.06878 -2.822594,-3.20469 0.141106,-0.38533 10.289979,-9.55194 10.425476,-9.41644 0.06625,0.0662 0.312113,1.06716 0.546373,2.22425 0.516905,2.55318 1.285343,3.76604 4.170021,6.5817 2.519214,2.45894 4.076226,3.02616 5.824774,2.12195 0.884813,-0.45755 4.391464,-3.60726 9.010614,-8.09342 l 3.335885,-3.23984 0.395766,0.55911 c 0.456255,0.64457 0.818397,0.24826 -3.692108,4.04045 -3.125132,2.62744 -7.661387,7.20652 -8.823284,8.90659 -1.24785,1.82583 -1.741712,3.54672 -1.928449,6.71981 l -0.16578,2.81698 -2.552095,1.38006 c -2.904706,1.57073 -3.734034,2.21903 -3.616879,2.82737 0.145792,0.75703 0.897243,0.617 3.636334,-0.67763 1.481188,-0.70008 2.772154,-1.17389 2.875799,-1.05546 0.173965,0.19878 1.719682,5.87739 1.810091,6.64985 0.02506,0.21411 -0.831669,0.72489 -2.286557,1.36326 -2.879085,1.26327 -3.644082,1.75523 -3.644082,2.34347 0,0.74374 1.397798,0.5748 4.264794,-0.51543 1.409908,-0.53615 2.612646,-0.97481 2.672751,-0.97481 0.06011,0 0.383163,0.46608 0.717906,1.03574 0.866919,1.47529 2.93367,3.38906 4.736708,4.3861 0.85107,0.47062 1.454234,0.91279 1.340364,0.98258 -0.293813,0.18011 -16.026785,7.6715 -17.575133,8.36856 l -1.283734,0.57793 z"
     id="path929" />
  <path
     style="font-variation-settings:normal;opacity:1;vector-effect:none;fill:#ff9955;fill-opacity:1;stroke-width:0.0101551;stroke-linecap:butt;stroke-linejoin:miter;stroke-miterlimit:4;stroke-dasharray:none;stroke-dashoffset:0;stroke-opacity:1;stop-color:#000000;stop-opacity:1"
     d="m 25.038254,235.6967 c -0.869716,-0.92344 -4.980952,-5.27367 -9.13608,-9.66718 -4.155128,-4.39351 -8.081681,-8.55416 -8.7256729,-9.24589 L 6.0056065,215.52594 8.2112361,200.10522 C 10.605997,183.36218 10.386414,184.31604 12.134404,183.063 l 0.618876,-0.44364 3.637303,3.99449 c 3.571383,3.9221 3.646291,3.98664 4.133323,3.5613 0.272812,-0.23826 1.812015,-1.57561 3.420451,-2.97189 1.608437,-1.39628 4.459757,-3.91668 6.336266,-5.6009 4.44917,-3.99324 5.507792,-4.87174 5.870609,-4.87174 0.311317,0 8.38818,8.39608 8.383111,8.71443 -0.0015,0.0994 -1.477525,1.48628 -3.279873,3.08198 l -3.276997,2.90127 0.594266,0.70624 c 1.787811,2.12469 7.775955,8.48373 7.934018,8.42543 0.164468,-0.0606 5.423415,-4.845 13.569167,-12.34459 l 2.745962,-2.52814 12.338449,-1.01442 12.338447,-1.01441 5.404209,5.73588 c 2.972315,3.15473 5.883003,6.26338 6.468196,6.90811 l 1.063993,1.17223 -2.079618,2.07961 -2.079614,2.07962 -5.824332,-6.16953 c -3.203382,-3.39324 -6.394723,-6.77573 -7.09187,-7.51664 l -1.267538,-1.34712 -1.169487,1.12335 c -1.387821,1.33307 -53.418733,48.94963 -53.942071,49.36557 -0.295611,0.23495 -0.643268,-0.0145 -1.941396,-1.39279 z"
     id="path931" />
  <path
     style="font-variation-settings:normal;opacity:1;vector-effect:none;fill:#ff9955;fill-opacity:1;stroke-width:0.0101551;stroke-linecap:butt;stroke-linejoin:miter;stroke-miterlimit:4;stroke-dasharray:none;stroke-dashoffset:0;stroke-opacity:1;stop-color:#000000;stop-opacity:1"
     d="m 137.83354,169.8082 c -3.17281,-0.14674 -5.8218,-0.32164 -5.88664,-0.38865 -0.0989,-0.10221 18.57972,-17.16508 39.83429,-36.38857 l 5.27086,-4.76717 1.30911,1.184 c 1.30442,1.17976 1.30736,1.1857 0.82171,1.65576 -0.26808,0.25947 -7.06738,6.47904 -15.10956,13.82128 -8.04218,7.34224 -14.91754,13.63645 -15.27858,13.98713 -0.59787,0.58074 -0.73342,1.09025 -1.51957,5.71194 -0.47473,2.79088 -0.92606,5.17612 -1.00295,5.30053 -0.15827,0.25608 -0.48598,0.25157 -8.43867,-0.11625 z"
     id="path933" />
  <path
     style="font-variation-settings:normal;opacity:1;vector-effect:none;fill:#ff9955;fill-opacity:1;stroke-width:0.0101551;stroke-linecap:butt;stroke-linejoin:miter;stroke-miterlimit:4;stroke-dasharray:none;stroke-dashoffset:0;stroke-opacity:1;stop-color:#000000;stop-opacity:1"
     d="m 137.75344,204.0983 c -0.40211,-0.0537 -3.8566,-0.47538 -7.67663,-0.937 -17.47158,-2.1113 -26.46632,-3.33313 -26.98417,-3.66545 -0.52168,-0.33479 -14.984877,-15.56458 -15.121161,-15.92263 -0.03665,-0.0963 1.649902,-1.74991 3.747901,-3.6747 l 3.814545,-3.49961 1.126149,1.21017 c 7.430186,7.98458 12.818106,13.51664 13.258366,13.61308 0.29717,0.0651 7.55895,1.11843 16.13728,2.34075 8.57833,1.22231 15.69521,2.3158 15.8153,2.42997 0.2163,0.20565 0.0237,1.77561 -0.75372,6.14373 l -0.37951,2.1324 -1.12662,-0.0365 c -0.61965,-0.0201 -1.45562,-0.0805 -1.85773,-0.13419 z"
     id="path935" />
  <path
     style="font-variation-settings:normal;opacity:1;vector-effect:none;fill:#ff9955;fill-opacity:1;stroke-width:0.00359036;stroke-linecap:butt;stroke-linejoin:miter;stroke-miterlimit:4;stroke-dasharray:none;stroke-dashoffset:0;stroke-opacity:1;stop-color:#000000;stop-opacity:1"
     d="m 166.36216,203.16695 c -7.72441,-0.77341 -14.63647,-1.46206 -15.36013,-1.53034 -0.72366,-0.0683 -1.33756,-0.14596 -1.36422,-0.17262 -0.0402,-0.0402 1.49709,-10.89024 1.78735,-12.61471 0.0508,-0.30207 0.14078,-0.55191 0.20795,-0.57768 0.30945,-0.11875 3.92398,0.20342 13.91051,1.23989 4.09915,0.42544 7.8795,0.81391 8.40078,0.86326 0.52128,0.0494 1.07374,0.10535 1.22768,0.12443 0.19977,0.0248 0.30221,-0.007 0.35781,-0.11088 0.2154,-0.40248 0.7122,-4.11438 0.72863,-5.44408 l 0.0122,-0.99086 -0.64622,-0.10792 c -2.09136,-0.34927 -21.66075,-2.60153 -22.65594,-2.6075 -0.47428,-0.003 -0.48682,0.20328 0.32925,-5.41535 0.42149,-2.90193 0.78721,-5.2971 0.81272,-5.32261 0.064,-0.064 32.35654,1.7359 32.42814,1.8075 0.0317,0.0317 -0.20382,1.67631 -0.52342,3.65464 -4.00227,24.77412 -4.41416,27.20677 -4.7689,28.16516 -0.14808,0.40007 -0.17028,0.41936 -0.49743,0.43231 -0.18834,0.007 -6.6624,-0.61923 -14.38681,-1.39264 z"
     id="path937" />
  <path
     style="font-variation-settings:normal;opacity:1;vector-effect:none;fill:#ff9955;fill-opacity:1;stroke-width:0.00718071;stroke-linecap:butt;stroke-linejoin:miter;stroke-miterlimit:4;stroke-dasharray:none;stroke-dashoffset:0;stroke-opacity:1;stop-color:#000000;stop-opacity:1"
     d="m 243.35548,59.33644 c -2.36747,-2.619595 -5.02584,-5.585717 -5.9075,-6.591382 l -1.60302,-1.828481 2.19329,-2.136261 2.19329,-2.136261 0.41276,0.479866 c 0.22702,0.263927 2.90813,3.233997 5.95803,6.600156 3.0499,3.36616 5.54527,6.166498 5.54527,6.222973 0,0.105819 -4.31182,4.15229 -4.42458,4.15229 -0.0347,0 -2.00008,-2.143305 -4.36754,-4.7629 z"
     id="path939" />
  <path
     style="font-variation-settings:normal;opacity:1;vector-effect:none;fill:#ffe6d5;fill-opacity:1;stroke-width:0.000232854;stroke-linecap:butt;stroke-linejoin:miter;stroke-miterlimit:4;stroke-dasharray:none;stroke-dashoffset:0;stroke-opacity:1;stop-color:#000000;stop-opacity:1"
     d="m 71.711574,253.18459 c -0.436747,-0.11767 -0.936315,-0.39583 -1.209831,-0.67362 -0.616558,-0.62621 -0.834058,-1.54197 -0.806085,-3.39394 l 0.01265,-0.83772 0.92624,-0.43774 c 0.509432,-0.24076 2.428687,-1.15064 4.265012,-2.02196 6.590279,-3.12704 6.726205,-3.1911 9.391642,-4.42624 3.395241,-1.57333 5.407991,-2.46041 5.923628,-2.61074 0.911879,-0.26585 1.454408,-0.22835 2.277557,0.15739 1.233268,0.57792 1.808549,1.3601 1.55711,2.11712 -0.177135,0.5333 -0.846166,1.30706 -1.572919,1.81914 -2.013327,1.41863 -7.978664,4.59921 -15.961483,8.51029 -3.500504,1.71503 -4.174773,1.96742 -4.803524,1.79802 z"
     id="path941" />
  <path
     style="font-variation-settings:normal;opacity:1;vector-effect:none;fill:#ffe6d5;fill-opacity:1;stroke-width:0.000232854;stroke-linecap:butt;stroke-linejoin:miter;stroke-miterlimit:4;stroke-dasharray:none;stroke-dashoffset:0;stroke-opacity:1;stop-color:#000000;stop-opacity:1"
     d="m 75.258109,234.22321 c -0.398485,-0.0837 -0.113919,-0.55166 0.583044,-0.95871 0.635233,-0.37099 3.633902,-1.68752 4.519476,-1.98422 0.64867,-0.21732 0.7162,-0.19282 0.983797,0.35699 0.174166,0.35785 0.185552,0.39993 0.120989,0.44714 -0.221995,0.16232 -2.928142,1.27676 -4.002537,1.64831 -1.059386,0.36636 -1.9027,0.55397 -2.204769,0.49049 z"
     id="path943" />
  <path
     style="font-variation-settings:normal;opacity:1;vector-effect:none;fill:#ffe6d5;fill-opacity:1;stroke-width:0.000232854;stroke-linecap:butt;stroke-linejoin:miter;stroke-miterlimit:4;stroke-dasharray:none;stroke-dashoffset:0;stroke-opacity:1;stop-color:#000000;stop-opacity:1"
     d="m 72.833783,225.63524 c -0.541926,-0.12911 -0.186867,-0.76274 0.751812,-1.34165 0.873909,-0.53897 2.964019,-1.67341 4.044112,-2.195 0.629872,-0.30418 0.902276,-0.36263 1.030374,-0.22108 0.04233,0.0468 0.107534,0.23492 0.144888,0.41809 0.08769,0.43002 0.06342,0.47553 -0.425447,0.79759 -0.59494,0.39194 -3.470075,1.82594 -4.709792,2.34905 -0.501266,0.21151 -0.631786,0.24164 -0.835947,0.193 z"
     id="path945" />
  <path
     style="font-variation-settings:normal;opacity:1;vector-effect:none;fill:#ffe6d5;fill-opacity:1;stroke-width:0.000232854;stroke-linecap:butt;stroke-linejoin:miter;stroke-miterlimit:4;stroke-dasharray:none;stroke-dashoffset:0;stroke-opacity:1;stop-color:#000000;stop-opacity:1"
     d="m 78.361399,209.41521 c -0.772882,-0.13576 -1.598357,-0.47114 -2.114244,-0.85899 -0.939417,-0.70626 -3.097943,-2.95947 -4.067312,-4.24572 -0.874552,-1.16043 -1.353811,-2.57596 -1.714875,-5.06501 -0.07194,-0.49593 -0.140984,-0.96121 -0.153431,-1.03396 -0.02163,-0.1264 0.05184,-0.20371 1.658188,-1.74478 0.92445,-0.88688 1.695284,-1.61734 1.712965,-1.62325 0.01768,-0.006 0.28262,0.69201 0.588753,1.55091 1.51581,4.25287 2.221248,5.8194 3.232395,7.17806 0.993611,1.3351 1.836498,1.98871 2.931624,2.27332 0.374426,0.0973 0.543576,0.1145 1.292428,0.1314 0.544876,0.0123 1.162525,-0.004 1.680156,-0.0441 0.450196,-0.0349 0.825109,-0.0572 0.833139,-0.0494 0.01845,0.0178 -0.05536,0.0837 -1.543416,1.37641 -1.76153,1.53034 -2.186914,1.86285 -2.660592,2.07971 -0.215121,0.0985 -0.31021,0.11357 -0.784864,0.12454 -0.332918,0.008 -0.674659,-0.0112 -0.890914,-0.0491 z"
     id="path947" />
  <path
     style="font-variation-settings:normal;opacity:1;vector-effect:none;fill:#ffe6d5;fill-opacity:1;stroke-width:0.000931415;stroke-linecap:butt;stroke-linejoin:miter;stroke-miterlimit:4;stroke-dasharray:none;stroke-dashoffset:0;stroke-opacity:1;stop-color:#000000;stop-opacity:1"
     d="m 126.07104,212.21292 c -7.51282,-1.08113 -16.34662,-2.40986 -16.67232,-2.50775 -0.26531,-0.0798 -0.29936,-0.32234 -0.28322,-2.01768 0.0101,-1.05986 0.10702,-2.93512 0.2154,-4.16723 l 0.19707,-2.24021 1.63707,0.0431 c 1.47732,0.0389 20.45281,2.32436 20.5717,2.47769 0.0633,0.0816 -0.35884,7.00287 -0.50047,8.20634 -0.0628,0.53322 -0.18983,0.89866 -0.30948,0.88998 -0.11166,-0.008 -2.29674,-0.31601 -4.85575,-0.68426 z"
     id="path949" />
  <path
     style="font-variation-settings:normal;opacity:1;vector-effect:none;fill:#ffe6d5;fill-opacity:1;stroke-width:0.000931415;stroke-linecap:butt;stroke-linejoin:miter;stroke-miterlimit:4;stroke-dasharray:none;stroke-dashoffset:0;stroke-opacity:1;stop-color:#000000;stop-opacity:1"
     d="m 132.87783,189.79864 c -11.36394,-1.35309 -16.50376,-2.00136 -16.66685,-2.10216 -0.0883,-0.0546 -0.0933,-0.73898 -0.0116,-1.61333 0.19831,-2.12309 1.49452,-12.5159 1.65742,-13.28887 0.1301,-0.61739 0.15508,-0.63524 0.81392,-0.58146 1.98126,0.16171 22.55646,3.04094 23.03036,3.22279 0.19733,0.0757 0.21673,0.34344 0.10316,1.42316 -0.32641,3.10305 -1.73219,13.57345 -1.83508,13.66787 -0.0617,0.0566 -3.25283,-0.27096 -7.09134,-0.728 z"
     id="path951" />
  <path
     style="font-variation-settings:normal;opacity:1;vector-effect:none;fill:#ffe6d5;fill-opacity:1;stroke-width:0.000931415;stroke-linecap:butt;stroke-linejoin:miter;stroke-miterlimit:4;stroke-dasharray:none;stroke-dashoffset:0;stroke-opacity:1;stop-color:#000000;stop-opacity:1"
     d="m 170.96137,189.72664 c -15.12623,-1.57655 -18.88442,-2.01553 -19.1077,-2.23192 -0.2026,-0.19635 -0.17898,-0.63509 0.15792,-2.9324 0.28607,-1.95073 0.46685,-2.72864 0.65047,-2.7991 0.55341,-0.21236 23.03762,2.20769 23.32238,2.51026 0.10169,0.10806 -0.39072,4.28553 -0.63861,5.4178 -0.0571,0.26064 -0.19452,0.46615 -0.30547,0.45668 -0.11094,-0.009 -1.94649,-0.19905 -4.07899,-0.42132 z"
     id="path953" />
  <path
     style="font-variation-settings:normal;opacity:1;vector-effect:none;fill:#ffe6d5;fill-opacity:1;stroke-width:0.000931415;stroke-linecap:butt;stroke-linejoin:miter;stroke-miterlimit:4;stroke-dasharray:none;stroke-dashoffset:0;stroke-opacity:1;stop-color:#000000;stop-opacity:1"
     d="m 167.25641,170.85402 c -10.04857,-0.56712 -12.98243,-0.76083 -13.0683,-0.86287 -0.0342,-0.0407 0.14336,-1.46984 0.3947,-3.17584 l 0.45698,-3.10183 1.54173,0.038 c 1.8961,0.0467 21.93794,1.86215 22.07544,1.99965 0.0545,0.0545 0.0424,1.34367 -0.0268,2.8649 l -0.12582,2.76587 -1.31588,-0.0208 c -0.72373,-0.0114 -5.19316,-0.23962 -9.93206,-0.50707 z"
     id="path955" />
  <path
     style="font-variation-settings:normal;opacity:1;vector-effect:none;fill:#ffe6d5;fill-opacity:1;stroke-width:0.000931415;stroke-linecap:butt;stroke-linejoin:miter;stroke-miterlimit:4;stroke-dasharray:none;stroke-dashoffset:0;stroke-opacity:1;stop-color:#000000;stop-opacity:1"
     d="m 185.78121,199.45785 c -3.01202,-0.22996 -3.1063,-0.25542 -3.0085,-0.81249 0.0451,-0.25692 0.43229,-2.75474 0.86041,-5.55069 1.55887,-10.18077 2.3461,-14.73115 2.59253,-14.98558 0.21391,-0.22084 0.58646,-0.20594 3.02195,0.12087 1.52787,0.20503 2.81646,0.41128 2.86352,0.45834 0.19512,0.19512 -2.84906,20.46076 -3.11316,20.72487 -0.16935,0.16934 -1.36622,0.18597 -3.21675,0.0447 z"
     id="path957" />
  <path
     style="font-variation-settings:normal;opacity:1;vector-effect:none;fill:#ffe6d5;fill-opacity:1;stroke-width:0.000931415;stroke-linecap:butt;stroke-linejoin:miter;stroke-miterlimit:4;stroke-dasharray:none;stroke-dashoffset:0;stroke-opacity:1;stop-color:#000000;stop-opacity:1"
     d="m 170.01359,208.6564 c -0.28434,-0.0374 -4.85953,-0.60547 -10.1671,-1.26226 -5.30757,-0.65679 -9.90215,-1.24459 -10.21018,-1.30622 -0.49618,-0.0993 -0.56005,-0.17695 -0.56005,-0.68117 0,-0.82378 0.35018,-3.24691 0.48684,-3.36882 0.15382,-0.13721 1.95846,0.0186 13.20331,1.13959 5.20751,0.51916 9.53255,1.00826 9.61118,1.0869 0.12992,0.12992 -0.0852,2.88768 -0.31499,4.03782 -0.0862,0.43165 -0.15873,0.47159 -0.81336,0.44807 -0.39527,-0.0142 -0.95132,-0.0565 -1.23565,-0.0939 z"
     id="path959" />
  <path
     style="font-variation-settings:normal;opacity:1;vector-effect:none;fill:#ffe6d5;fill-opacity:1;stroke-width:0.000931415;stroke-linecap:butt;stroke-linejoin:miter;stroke-miterlimit:4;stroke-dasharray:none;stroke-dashoffset:0;stroke-opacity:1;stop-color:#000000;stop-opacity:1"
     d="m 149.24858,195.22034 c -4.64312,-0.70177 -6.24572,-1.00084 -6.31381,-1.17827 -0.0442,-0.11518 0.23706,-2.21717 0.625,-4.67109 0.99967,-6.32332 2.57471,-15.7953 2.66894,-16.05045 0.0467,-0.12641 0.38439,-0.21539 0.81734,-0.21537 0.81402,3e-5 4.50471,0.57927 5.51414,0.86541 0.56978,0.16152 0.63197,0.23325 0.56256,0.64893 -0.0429,0.25704 -0.62406,4.18954 -1.2914,8.73888 -1.5314,10.43967 -1.76712,11.85602 -1.97964,11.89526 -0.0948,0.0175 -0.36618,0.003 -0.60313,-0.0333 z"
     id="path961" />
  <path
     style="font-variation-settings:normal;opacity:1;vector-effect:none;fill:#ffe6d5;fill-opacity:1;stroke-width:0.00065861;stroke-linecap:butt;stroke-linejoin:miter;stroke-miterlimit:4;stroke-dasharray:none;stroke-dashoffset:0;stroke-opacity:1;stop-color:#000000;stop-opacity:1"
     d="m 223.69495,37.505526 c -3.28389,-3.658688 -8.92515,-9.948073 -12.53613,-13.976413 -3.61098,-4.02834 -6.94156,-7.742177 -7.40129,-8.252972 l -0.83586,-0.928717 2.4509,-2.239415 c 1.34799,-1.231679 2.49087,-2.2394156 2.53973,-2.2394156 0.0884,0 27.05389,29.3826266 27.05389,29.4789406 0,0.0653 -5.1135,4.753415 -5.21995,4.785708 -0.0443,0.01344 -2.7674,-2.969028 -6.05129,-6.627716 z"
     id="path963" />
  <path
     style="font-variation-settings:normal;opacity:1;vector-effect:none;fill:#ffe6d5;fill-opacity:1;stroke-width:0.00065861;stroke-linecap:butt;stroke-linejoin:miter;stroke-miterlimit:4;stroke-dasharray:none;stroke-dashoffset:0;stroke-opacity:1;stop-color:#000000;stop-opacity:1"
     d="m 180.13312,40.354995 c -0.72541,-0.247378 -1.031,-1.205532 -0.73003,-2.288987 0.14216,-0.511761 1.23177,-1.599732 6.03056,-6.0215 1.74247,-1.605572 4.15995,-3.887093 5.37218,-5.070046 2.47957,-2.419705 4.0138,-3.641304 4.57316,-3.641304 0.86868,0 1.85357,0.706704 2.06161,1.479286 0.25715,0.95498 0.0649,1.397286 -1.14988,2.645913 -2.08844,2.146586 -8.74166,8.290876 -12.23826,11.302115 -1.13749,0.979587 -1.90252,1.547547 -2.19333,1.628318 -0.57752,0.160408 -1.1918,0.14838 -1.72601,-0.03379 z"
     id="path965" />
  <path
     style="font-variation-settings:normal;opacity:1;vector-effect:none;fill:#ffe6d5;fill-opacity:1;stroke-width:0.00065861;stroke-linecap:butt;stroke-linejoin:miter;stroke-miterlimit:4;stroke-dasharray:none;stroke-dashoffset:0;stroke-opacity:1;stop-color:#000000;stop-opacity:1"
     d="m 189.82191,50.566008 c -0.26719,-0.09514 -0.55436,-0.266763 -0.63817,-0.381375 -0.22759,-0.311255 -0.31539,-0.949747 -0.21898,-1.592622 0.11043,-0.736398 0.57289,-1.219731 5.72959,-5.988195 2.14458,-1.983123 4.8314,-4.514116 5.97071,-5.62443 1.91746,-1.868659 3.14298,-2.923361 3.79984,-3.270189 0.85467,-0.451277 2.32343,0.304429 2.60195,1.338753 0.0674,0.250337 0.0887,0.691613 0.0473,0.980614 -0.0692,0.483392 -0.2329,0.681529 -2.04471,2.475076 -2.83954,2.810923 -10.49502,9.801435 -12.62984,11.532779 -0.84454,0.684932 -1.6971,0.857412 -2.61771,0.529589 z"
     id="path967" />
  <path
     style="font-variation-settings:normal;opacity:1;vector-effect:none;fill:#ffe6d5;fill-opacity:1;stroke-width:0.00065861;stroke-linecap:butt;stroke-linejoin:miter;stroke-miterlimit:4;stroke-dasharray:none;stroke-dashoffset:0;stroke-opacity:1;stop-color:#000000;stop-opacity:1"
     d="m 197.35228,60.004982 c -0.21359,-0.06569 -0.50664,-0.269557 -0.65122,-0.453033 -0.22637,-0.287283 -0.25671,-0.456208 -0.21854,-1.216833 l 0.0443,-0.883239 1.09431,-1.109773 c 0.60186,-0.610376 2.84896,-2.739917 4.99354,-4.732314 2.14458,-1.992396 4.81473,-4.504013 5.93366,-5.581371 2.38381,-2.295241 3.40637,-3.077207 4.02399,-3.077207 0.56856,0 1.43452,0.475125 1.77053,0.971442 0.31948,0.471895 0.36895,1.368419 0.10973,1.988808 -0.34836,0.833755 -13.82744,13.265424 -15.11114,13.936911 -0.44098,0.230668 -1.48191,0.312621 -1.98917,0.156609 z"
     id="path969" />
  <path
     style="font-variation-settings:normal;opacity:1;vector-effect:none;fill:#ffe6d5;fill-opacity:1;stroke-width:0.00065861;stroke-linecap:butt;stroke-linejoin:miter;stroke-miterlimit:4;stroke-dasharray:none;stroke-dashoffset:0;stroke-opacity:1;stop-color:#000000;stop-opacity:1"
     d="m 205.58688,69.075901 c -0.24179,-0.100445 -0.5111,-0.316176 -0.59846,-0.479403 -0.25017,-0.467456 -0.19025,-1.680109 0.10677,-2.160699 0.2647,-0.428289 1.92227,-2.021256 6.17093,-5.930402 1.40738,-1.294917 3.64479,-3.399949 4.97202,-4.677847 2.8591,-2.752834 4.08288,-3.737494 4.64511,-3.737494 0.64943,0 1.5709,0.541042 1.89077,1.110176 0.23235,0.413425 0.27007,0.617032 0.21432,1.157146 -0.0372,0.360494 -0.1757,0.807187 -0.30776,0.992651 -0.57433,0.806581 -10.56265,10.043537 -13.76135,12.726173 -1.42583,1.195796 -2.25876,1.445673 -3.33235,0.999699 z"
     id="path971" />
  <path
     style="font-variation-settings:normal;opacity:1;vector-effect:none;fill:#ffe6d5;fill-opacity:1;stroke-width:0.00065861;stroke-linecap:butt;stroke-linejoin:miter;stroke-miterlimit:4;stroke-dasharray:none;stroke-dashoffset:0;stroke-opacity:1;stop-color:#000000;stop-opacity:1"
     d="m 214.93421,79.455487 c -0.26117,-0.09691 -0.55514,-0.256484 -0.65327,-0.354615 -0.21983,-0.21983 -0.3327,-1.127448 -0.21694,-1.744499 0.11398,-0.607548 1.00925,-1.524182 6.03634,-6.180356 2.17809,-2.017386 4.86491,-4.547588 5.97071,-5.622671 2.33156,-2.266792 3.42338,-3.105932 4.04121,-3.105932 0.52469,0 1.4172,0.450014 1.72135,0.867922 0.31457,0.432235 0.42432,1.031068 0.3099,1.690954 -0.0868,0.500488 -0.24207,0.691861 -1.7798,2.193323 -4.21091,4.111599 -12.64358,11.714085 -13.46852,12.142561 -0.50853,0.26413 -1.41358,0.316428 -1.96098,0.113313 z"
     id="path973" />
  <path
     style="font-variation-settings:normal;opacity:1;vector-effect:none;fill:#ffe6d5;fill-opacity:1;stroke-width:0.00065861;stroke-linecap:butt;stroke-linejoin:miter;stroke-miterlimit:4;stroke-dasharray:none;stroke-dashoffset:0;stroke-opacity:1;stop-color:#000000;stop-opacity:1"
     d="m 222.66239,88.005385 c -0.23282,-0.08359 -0.49247,-0.289066 -0.577,-0.456611 -0.17711,-0.351038 -0.20847,-1.677274 -0.0495,-2.095274 0.1343,-0.35322 2.37103,-2.794054 5.55835,-6.06554 1.34036,-1.375759 3.00922,-3.131913 3.70857,-3.902565 1.76916,-1.949529 3.83582,-4.055674 4.67503,-4.764347 0.55063,-0.464983 0.80075,-0.597005 1.13104,-0.597005 0.58855,0 1.1353,0.259841 1.62151,0.770613 0.3232,0.33953 0.42569,0.563689 0.47038,1.028779 0.0741,0.771486 -0.18229,1.276993 -1.35723,2.675609 -2.20377,2.623306 -11.75056,12.346103 -12.7832,13.018873 -0.79408,0.51735 -1.65065,0.65576 -2.3979,0.387468 z"
     id="path975" />
  <path
     style="font-variation-settings:normal;opacity:1;vector-effect:none;fill:#ffdd55;fill-opacity:1;stroke-width:0.0282451;stroke-linecap:butt;stroke-linejoin:miter;stroke-miterlimit:4;stroke-dasharray:none;stroke-dashoffset:0;stroke-opacity:1;stop-color:#000000;stop-opacity:1"
     d="m 136.762,194.71625 c -2.08512,-0.27271 -8.9933,-1.23539 -15.35151,-2.13929 -6.35821,-0.90389 -11.60224,-1.64344 -11.6534,-1.64344 -0.0977,0 -10.090804,-10.52045 -12.516728,-13.1773 l -1.411117,-1.54544 0.64915,-0.63343 c 0.357032,-0.34839 7.271045,-6.69327 15.364475,-14.09974 l 14.71533,-13.4663 0.42671,0.39453 c 0.23469,0.21699 2.79651,2.87599 5.69293,5.90889 2.89643,3.0329 5.6594,5.92486 6.13994,6.42658 l 0.87372,0.91222 -1.12055,1.0695 c -0.6163,0.58823 -2.54567,2.38623 -4.2875,3.99557 l -3.16695,2.92607 0.58254,0.11281 c 0.3204,0.062 2.48241,0.20164 4.80447,0.31021 5.39376,0.2522 9.3362,0.53024 9.58456,0.67595 0.13813,0.081 -0.31986,3.18922 -1.57842,10.71207 -0.97515,5.82885 -1.9058,11.31521 -2.06812,12.19191 l -0.29512,1.59399 -0.79665,-0.0148 c -0.43815,-0.008 -2.50265,-0.23789 -4.58776,-0.51061 z m 3.59671,-4.34278 c 0.51303,-2.80511 1.93872,-14.89929 1.77559,-15.06242 -0.16171,-0.16171 -2.09952,-0.47431 -9.93888,-1.60333 -8.76129,-1.2618 -13.48639,-1.90213 -14.03601,-1.90213 -0.24577,0 -0.45408,0.12338 -0.50914,0.30156 -0.32536,1.05291 -2.05016,15.74515 -1.8682,15.91371 0.0708,0.0656 3.54077,0.51737 7.711,1.00394 6.53098,0.76201 15.95309,1.83778 16.56698,1.89153 0.10793,0.009 0.24232,-0.23484 0.29866,-0.54286 z"
     id="path977" />
  <path
     style="font-variation-settings:normal;opacity:1;vector-effect:none;fill:#ffdd55;fill-opacity:1;stroke-width:0.0282451;stroke-linecap:butt;stroke-linejoin:miter;stroke-miterlimit:4;stroke-dasharray:none;stroke-dashoffset:0;stroke-opacity:1;stop-color:#000000;stop-opacity:1"
     d="m 42.437988,195.90795 c -2.192666,-2.39307 -3.981957,-4.39437 -3.976202,-4.44733 0.0058,-0.053 1.50865,-1.41104 3.339765,-3.01796 l 3.329301,-2.92167 -1.745771,-1.86687 c -0.960174,-1.02677 -1.766739,-1.92682 -1.792368,-2.0001 -0.02563,-0.0733 0.517191,-0.67253 1.206266,-1.33166 0.689075,-0.65914 2.603566,-2.49532 4.254425,-4.08041 l 3.001561,-2.88199 -1.019839,-1.08164 C 46.948507,170.06526 37.269234,159.93451 35.48522,158.0964 l -1.84895,-1.90501 7.656458,-7.01274 c 4.211053,-3.85701 7.723207,-7.01274 7.804787,-7.01274 0.249423,0 4.769881,4.69419 12.528931,13.01044 9.30618,9.97448 10.357336,11.03756 11.06571,11.19122 1.404265,0.30459 0.206589,1.34738 30.466844,-26.5267 20.88332,-19.23656 23.33294,-21.45563 23.68483,-21.45563 0.0853,0 0.49073,0.37671 0.90089,0.83713 1.91213,2.14647 11.89911,12.94876 11.97145,12.94876 0.0449,0 1.78342,-1.53152 3.86334,-3.40339 2.07992,-1.87187 3.87832,-3.4187 3.99644,-3.43741 0.19673,-0.0312 14.35712,15.33713 14.46882,15.70304 0.0268,0.0879 -4.91411,4.71638 -10.9799,10.28542 l -11.02872,10.12553 -2.74623,-2.8755 c -1.51042,-1.58153 -4.55091,-4.69599 -6.75664,-6.92103 l -4.01042,-4.04554 -0.48095,0.44523 c -0.26452,0.24488 -8.85589,8.10643 -19.09191,17.47013 -10.236032,9.36369 -18.808046,17.20589 -19.048923,17.4271 -0.426067,0.39127 -0.773744,0.42965 -12.804002,1.41321 l -12.366041,1.01101 -0.551087,0.51332 c -0.303097,0.28232 -3.769232,3.44687 -7.70252,7.03234 -3.933289,3.58547 -7.354235,6.70474 -7.602103,6.93171 l -0.450669,0.41268 z"
     id="path979" />
  <path
     style="font-variation-settings:normal;opacity:1;vector-effect:none;fill:#ffdd55;fill-opacity:1;stroke-width:0.0282451;stroke-linecap:butt;stroke-linejoin:miter;stroke-miterlimit:4;stroke-dasharray:none;stroke-dashoffset:0;stroke-opacity:1;stop-color:#000000;stop-opacity:1"
     d="m 14.584488,184.20078 c -2.938119,-3.21879 -5.3657674,-5.92232 -5.3947734,-6.00783 -0.062619,-0.18462 15.8139214,-14.48991 22.5409824,-20.31017 l 1.637075,-1.4164 2.416191,2.45681 c 3.777904,3.84142 13.696076,14.29247 13.696076,14.43194 0,0.10804 -5.375144,5.19766 -7.547458,7.14654 l -0.740671,0.66449 -2.495267,-2.48316 c -1.372394,-1.36574 -2.523368,-2.50699 -2.557719,-2.53612 -0.110251,-0.0935 -1.995238,1.5062 -5.442169,4.6185 -4.78004,4.31599 -10.495412,9.30817 -10.643953,9.29714 -0.06945,-0.005 -2.530195,-2.64294 -5.468314,-5.86174 z"
     id="path981" />
  <path
     style="font-variation-settings:normal;opacity:1;vector-effect:none;fill:#ffdd55;fill-opacity:1;stroke-width:0.0282451;stroke-linecap:butt;stroke-linejoin:miter;stroke-miterlimit:4;stroke-dasharray:none;stroke-dashoffset:0;stroke-opacity:1;stop-color:#000000;stop-opacity:1"
     d="m 52.212131,144.67546 -2.868429,-2.95307 2.954591,-2.53081 c 1.625025,-1.39194 3.729593,-3.24076 4.676817,-4.10848 l 1.722228,-1.57768 1.431142,1.52998 c 0.787128,0.84149 1.708428,1.85998 2.047335,2.2633 l 0.616193,0.7333 -3.804981,3.71331 -3.804982,3.71331 -0.05074,1.08496 -0.05074,1.08496 z"
     id="path983" />
  <path
     style="font-variation-settings:normal;opacity:1;vector-effect:none;fill:#ffdd55;fill-opacity:1;stroke-width:0.0282451;stroke-linecap:butt;stroke-linejoin:miter;stroke-miterlimit:4;stroke-dasharray:none;stroke-dashoffset:0;stroke-opacity:1;stop-color:#000000;stop-opacity:1"
     d="m 140.74508,98.525541 c -5.60423,-6.065736 -10.73721,-11.258253 -11.94482,-12.083379 -2.17932,-1.489058 -4.32574,-1.963074 -6.395,-1.41227 -1.14806,0.305597 -1.37939,0.459404 -3.67296,2.442144 -1.02952,0.889994 -1.90459,1.61817 -1.94461,1.61817 -0.04,0 -0.56192,-0.523433 -1.15977,-1.163185 -0.59786,-0.639752 -2.02983,-2.120011 -3.18215,-3.289465 l -2.09513,-2.12628 6.14208,-5.455963 c 3.37814,-3.00078 6.56782,-5.827768 7.08818,-6.282195 l 0.94611,-0.826232 0.6893,0.76613 c 0.37911,0.421372 5.84608,6.331397 12.14882,13.133388 6.30274,6.801993 11.54591,12.489871 11.65148,12.639732 0.16023,0.227447 -0.24547,0.671129 -2.45497,2.684793 -1.45581,1.326771 -2.7062,2.432081 -2.77865,2.456221 -0.0724,0.0242 -1.4395,-1.37157 -3.03791,-3.101609 z"
     id="path985" />
  <path
     style="font-variation-settings:normal;opacity:1;vector-effect:none;fill:#ffd42a;fill-opacity:1;stroke-width:0.00372998;stroke-linecap:butt;stroke-linejoin:miter;stroke-miterlimit:4;stroke-dasharray:none;stroke-dashoffset:0;stroke-opacity:1;stop-color:#000000;stop-opacity:1"
     d="m 154.70669,61.573682 c -1.36355,-1.460192 -2.52904,-2.66215 -2.58998,-2.671018 -0.0609,-0.0089 -1.21599,0.99197 -2.56679,2.224084 -1.35079,1.232115 -2.51142,2.240209 -2.57916,2.240209 -0.0677,0 -2.08674,-2.222866 -4.48666,-4.939701 l -4.36351,-4.9397 0.84981,-0.740958 c 0.46739,-0.407528 2.18182,-1.887468 3.80984,-3.288758 1.62802,-1.401288 2.94629,-2.596727 2.9295,-2.656531 -0.0168,-0.0598 -1.29065,-1.481801 -2.83079,-3.159996 -1.54015,-1.678195 -2.79771,-3.102633 -2.79458,-3.165418 0.0174,-0.35054 17.09766,-12.607623 17.56869,-12.607623 0.0866,0 3.43376,3.664033 7.43802,8.142296 4.00425,4.478262 7.97029,8.906582 8.81342,9.840711 0.84313,0.934128 1.46751,1.757734 1.38751,1.830236 -0.08,0.0725 -4.12376,3.82525 -8.98615,8.339442 -4.86238,4.51419 -8.90354,8.207618 -8.98035,8.207618 -0.0768,0 -1.25528,-1.194701 -2.61882,-2.654893 z"
     id="path989" />
  <path
     style="font-variation-settings:normal;opacity:1;vector-effect:none;fill:#ff9955;fill-opacity:1;stroke-width:0.00507753;stroke-linecap:butt;stroke-linejoin:miter;stroke-miterlimit:4;stroke-dasharray:none;stroke-dashoffset:0;stroke-opacity:1;stop-color:#000000;stop-opacity:1"
     d="M 198.406,72.80124 C 167.29216,37.930033 162.65999,32.713866 162.65999,32.548556 c 0,-0.09024 4.14961,-3.087044 7.372,-5.323972 3.48913,-2.422093 7.35651,-4.892837 10.35,-6.612278 3.28738,-1.888255 10.30438,-5.153598 17.18839,-7.99858 2.28467,-0.944194 2.44941,-0.994195 2.63513,-0.799787 0.10896,0.114054 1.97245,2.208779 4.14109,4.654943 2.16864,2.446164 8.14056,9.108382 13.27093,14.804928 14.87364,16.515064 16.91999,18.793474 18.38606,20.471013 0.76141,0.871236 3.72341,4.16122 6.58223,7.311076 6.12482,6.748353 8.36953,9.258767 8.61826,9.638364 0.16356,0.249636 0.15844,0.3299 -0.0512,0.802808 -0.2644,0.596356 -3.55062,5.520776 -5.63614,8.445773 -1.86128,2.610494 -3.88528,5.108287 -5.87492,7.250151 -3.04698,3.280113 -9.93808,10.004543 -15.76417,15.382925 l -0.37818,0.34911 z m 26.58091,15.378496 c 0.68898,-0.325917 9.39063,-9.125409 12.71735,-12.860351 1.49557,-1.679088 1.84124,-2.279545 1.84273,-3.20099 0.002,-1.354966 -0.79039,-2.14688 -2.34283,-2.340844 l -0.69874,-0.0873 -1.29835,1.201867 c -0.71409,0.661027 -2.13279,2.106613 -3.15266,3.212414 -1.01988,1.1058 -3.21448,3.436205 -4.87691,5.178678 -3.53565,3.705898 -5.12362,5.464872 -5.38528,5.965206 -0.28527,0.545495 -0.34481,1.742296 -0.11414,2.294375 0.27226,0.651592 0.96563,0.961729 2.02939,0.907722 0.4442,-0.02255 1.00609,-0.141468 1.27944,-0.270775 z m -8.31149,-8.364412 c 0.89292,-0.452398 2.24836,-1.617557 8.61234,-7.40333 5.1457,-4.678185 6.81527,-6.303243 7.0869,-6.897979 0.39166,-0.857558 0.22346,-1.906375 -0.41758,-2.603803 -0.37088,-0.403505 -1.3977,-0.866335 -1.92521,-0.867767 -0.50612,-0.0014 -0.88552,0.30103 -4.44785,3.545186 -6.89715,6.281117 -11.22786,10.419334 -11.53983,11.026905 -0.51936,1.01146 -0.5157,2.077265 0.009,2.72568 0.2182,0.269461 1.33083,0.711197 1.82984,0.72648 0.15346,0.0047 0.50987,-0.108417 0.79203,-0.251372 z M 207.48409,69.48294 c 0.887,-0.452514 2.20256,-1.58005 8.23746,-7.060136 5.1596,-4.685259 7.19078,-6.641378 7.43868,-7.16379 0.73369,-1.546144 -0.32745,-3.277189 -2.16318,-3.528805 -0.54295,-0.07442 -0.54316,-0.0743 -1.81026,1.023015 -2.73974,2.372619 -12.74464,11.667375 -13.68698,12.715477 -0.74652,0.830318 -0.93614,1.214912 -1.01212,2.052923 -0.0965,1.064224 0.32371,1.701804 1.32822,2.015267 0.73848,0.230449 1.1359,0.217596 1.66818,-0.05395 z m -8.31664,-9.167147 c 0.8269,-0.412976 5.63986,-4.644152 12.05027,-10.593653 3.04772,-2.828594 3.54244,-3.362684 3.71772,-4.013613 0.40773,-1.514223 -0.67277,-2.941233 -2.37209,-3.132769 -0.51563,-0.05812 -0.53645,-0.04512 -2.02621,1.265186 -2.82053,2.480769 -10.82326,9.895556 -12.66859,11.73785 -1.47571,1.473278 -1.74667,1.938193 -1.75473,3.01081 -0.007,0.951543 0.25641,1.339332 1.16324,1.711527 0.83234,0.341621 1.22955,0.344701 1.89039,0.01466 z m -7.04128,-9.688594 c 0.84092,-0.578476 2.76172,-2.259229 7.69687,-6.73497 4.79139,-4.345357 7.29894,-6.776363 7.51284,-7.283512 0.19789,-0.469187 0.21515,-1.348998 0.0358,-1.82375 -0.30137,-0.797637 -1.54305,-1.618861 -2.45135,-1.621272 -0.55954,-0.0015 -1.24625,0.593782 -9.54062,8.270175 -3.96279,3.667544 -6.23664,5.944765 -6.5196,6.529287 -0.31444,0.649556 -0.33525,1.829655 -0.0399,2.261875 0.25057,0.366659 0.42693,0.484015 1.13448,0.75493 0.77601,0.297124 1.36614,0.201257 2.1715,-0.352763 z M 181.949,40.761514 c 0.79068,-0.404439 2.27335,-1.667904 7.31046,-6.229621 5.01941,-4.545691 7.84748,-7.212751 8.22343,-7.755244 0.28588,-0.412517 0.33119,-0.59865 0.33119,-1.360434 0,-0.804518 -0.0333,-0.923921 -0.37714,-1.350782 -0.72829,-0.904251 -2.04677,-1.374659 -2.68353,-0.957437 -0.923,0.604775 -12.39121,11.173066 -14.51777,13.378546 -1.02056,1.058438 -1.24776,1.512147 -1.24712,2.490447 6e-4,0.968766 0.28089,1.400599 1.11765,1.722067 0.79574,0.305707 1.33177,0.323874 1.84283,0.06246 z"
     id="path1001" />
  <path
     style="font-variation-settings:normal;opacity:1;vector-effect:none;fill:#ffd42a;fill-opacity:1;stroke-width:0.000642764;stroke-linecap:butt;stroke-linejoin:miter;stroke-miterlimit:4;stroke-dasharray:none;stroke-dashoffset:0;stroke-opacity:1;stop-color:#000000;stop-opacity:1"
     d="m 121.7726,66.479157 c -2.84193,-2.993932 -5.1816,-5.49478 -5.19928,-5.55744 -0.0549,-0.19441 18.6385,-16.499615 21.7993,-19.014351 0.69335,-0.551629 1.32209,-1.002963 1.39719,-1.002963 0.18952,0 5.35523,5.628045 5.35523,5.834531 0,0.130655 -5.49171,5.07128 -7.13282,6.417046 -0.32384,0.265568 -0.26876,0.353868 1.59306,2.553597 2.78969,3.295997 2.65234,2.945937 1.55083,3.952552 -2.19868,2.009267 -13.96877,12.260543 -14.07704,12.260543 -0.0656,0 -2.44455,-2.449582 -5.28647,-5.443515 z"
     id="path882" />
  <path
     style="font-variation-settings:normal;opacity:1;vector-effect:none;fill:#ffd42a;fill-opacity:1;stroke-width:0.000642764;stroke-linecap:butt;stroke-linejoin:miter;stroke-miterlimit:4;stroke-dasharray:none;stroke-dashoffset:0;stroke-opacity:1;stop-color:#000000;stop-opacity:1"
     d="m 145.62194,92.127627 c -1.07976,-1.113642 -5.25759,-5.591905 -9.28408,-9.951695 -4.02649,-4.359789 -7.72565,-8.356939 -8.22035,-8.882555 l -0.89945,-0.955664 7.50578,-6.540417 c 4.12819,-3.59723 7.60567,-6.5638 7.72774,-6.59238 0.12207,-0.02858 0.37873,0.147366 0.57037,0.390989 0.19163,0.243623 1.15997,1.289867 2.15186,2.324987 l 1.80344,1.882036 2.50782,-2.229944 c 1.37931,-1.226469 2.53748,-2.229943 2.57373,-2.229943 0.16513,0 15.29345,16.649033 15.26692,16.801562 -0.0338,0.194355 -19.4481,18.007828 -19.62611,18.007828 -0.063,0 -0.99791,-0.911162 -2.07767,-2.024804 z"
     id="path884" />
  <path
     style="font-variation-settings:normal;opacity:1;vector-effect:none;fill:#ffd42a;fill-opacity:1;stroke-width:0.000642764;stroke-linecap:butt;stroke-linejoin:miter;stroke-miterlimit:4;stroke-dasharray:none;stroke-dashoffset:0;stroke-opacity:1;stop-color:#000000;stop-opacity:1"
     d="m 169.6055,89.620877 -7.48559,-8.10051 1.79891,-1.652113 c 0.9894,-0.908661 2.29729,-2.128034 2.90642,-2.709716 l 1.10751,-1.057606 -4.62348,-5.061714 c -2.54291,-2.783943 -4.88417,-5.337596 -5.20281,-5.674785 l -0.57933,-0.61307 8.48955,-7.844717 c 4.66926,-4.314594 8.76096,-8.08105 9.09269,-8.369901 l 0.60313,-0.525185 5.01738,5.536498 c 2.75956,3.045073 5.5493,6.156862 6.19943,6.915087 0.65012,0.758224 3.50613,3.976369 6.34667,7.151434 2.84054,3.175064 5.69225,6.364709 6.33712,7.088101 0.64488,0.723391 1.16679,1.382529 1.1598,1.464752 -0.0121,0.141995 -22.23711,20.428568 -23.21606,21.191148 l -0.46575,0.362809 z"
     id="path886" />
  <path
     style="font-variation-settings:normal;opacity:1;vector-effect:none;fill:#ffd42a;fill-opacity:1;stroke-width:0.000642764;stroke-linecap:butt;stroke-linejoin:miter;stroke-miterlimit:4;stroke-dasharray:none;stroke-dashoffset:0;stroke-opacity:1;stop-color:#000000;stop-opacity:1"
     d="m 134.01016,125.49547 c -3.12767,-3.41911 -5.97627,-6.54967 -6.33021,-6.9568 l -0.64353,-0.74023 7.53648,-6.98469 c 8.49462,-7.87267 14.24291,-13.221635 14.81416,-13.785033 l 0.38474,-0.379447 -0.93867,-1.05377 -0.93867,-1.05377 7.00687,-6.423425 7.00687,-6.423424 0.44001,0.521514 c 0.24201,0.286833 3.58061,3.946711 7.41912,8.133064 3.83851,4.186352 7.00033,7.671267 7.02626,7.744255 0.0259,0.07299 -0.57931,0.657089 -1.34497,1.298004 -1.5281,1.279122 -11.86735,10.671902 -26.23792,23.836032 -5.09818,4.67019 -9.32442,8.48969 -9.39164,8.48777 -0.0672,-0.002 -2.68122,-2.80093 -5.8089,-6.22005 z"
     id="path888" />
  <path
     style="font-variation-settings:normal;opacity:1;vector-effect:none;fill:#ffd42a;fill-opacity:1;stroke-width:0.000642764;stroke-linecap:butt;stroke-linejoin:miter;stroke-miterlimit:4;stroke-dasharray:none;stroke-dashoffset:0;stroke-opacity:1;stop-color:#000000;stop-opacity:1"
     d="m 187.40649,138.39654 c -3.87061,-4.09915 -7.75221,-8.18006 -8.62578,-9.06869 l -1.5883,-1.61569 -0.48632,0.40943 c -0.26747,0.22518 -2.46155,2.20269 -4.87572,4.39446 -2.41417,2.19176 -5.51203,4.96432 -6.88412,6.16124 l -2.49471,2.1762 -0.45271,-0.47455 c -0.82886,-0.86887 -13.68212,-14.95006 -13.90921,-15.23803 -0.19701,-0.24982 2.4301,-2.69349 22.22976,-20.67753 26.37222,-23.953904 30.60805,-27.783941 30.80522,-27.854077 0.15836,-0.05633 4.71704,4.987868 16.55533,18.318584 10.17091,11.453123 11.88093,13.412603 11.88043,13.613573 -0.001,0.44301 -7.75354,10.56416 -11.73642,15.32237 -2.30039,2.7482 -4.59811,5.05894 -9.80074,9.85632 -6.02742,5.55791 -13.31194,12.12939 -13.44549,12.12939 -0.0735,0 -3.3006,-3.35385 -7.17122,-7.453 z"
     id="path890" />
</svg>
