<?xml version="1.0" encoding="UTF-8" standalone="no"?>
<svg
   xmlns:dc="http://purl.org/dc/elements/1.1/"
   xmlns:cc="http://creativecommons.org/ns#"
   xmlns:rdf="http://www.w3.org/1999/02/22-rdf-syntax-ns#"
   xmlns:svg="http://www.w3.org/2000/svg"
   xmlns="http://www.w3.org/2000/svg"
   xmlns:sodipodi="http://sodipodi.sourceforge.net/DTD/sodipodi-0.dtd"
   xmlns:inkscape="http://www.inkscape.org/namespaces/inkscape"
   cursor="default"
   viewBox="0 0 256 256"
   version="1.1"
   id="svg50"
   sodipodi:docname="powerfist.svg"
   inkscape:version="1.0.2-2 (e86c870879, 2021-01-15)">
  <metadata
     id="metadata56">
    <rdf:RDF>
      <cc:Work
         rdf:about="">
        <dc:format>image/svg+xml</dc:format>
        <dc:type
           rdf:resource="http://purl.org/dc/dcmitype/StillImage" />
      </cc:Work>
    </rdf:RDF>
  </metadata>
  <defs
     id="defs54" />
  <sodipodi:namedview
     pagecolor="#ffffff"
     bordercolor="#666666"
     borderopacity="1"
     objecttolerance="10"
     gridtolerance="10"
     guidetolerance="10"
     inkscape:pageopacity="0"
     inkscape:pageshadow="2"
     inkscape:window-width="1920"
     inkscape:window-height="1017"
     id="namedview52"
     showgrid="false"
     inkscape:zoom="2.0734212"
     inkscape:cx="117.69256"
     inkscape:cy="128.8691"
     inkscape:window-x="-8"
     inkscape:window-y="-8"
     inkscape:window-maximized="1"
     inkscape:current-layer="svg50"
     inkscape:document-rotation="0" />
  <path
     style="fill:#000000;stroke-width:0.287371"
     d="m 195.40911,159.80828 c -3.29455,3.07417 -11.2096,10.51775 -17.58891,16.54134 -21.28597,20.09896 -41.75354,39.15349 -44.18625,41.13567 -1.31484,1.07133 -1.59966,1.18023 -2.96871,1.13493 -0.83289,-0.0275 -2.18891,-0.30034 -3.01337,-0.60619 l -1.49903,-0.55614 -2.67349,2.60943 c -3.02531,2.95519 -4.04678,3.48462 -5.86784,3.04685 l -1.05787,-0.25428 -7.79906,7.64997 c -9.041896,8.86843 -8.822355,8.72066 -11.513004,7.75307 l -1.557981,-0.56029 -6.937683,6.81686 c -7.541188,7.41003 -7.834397,7.62697 -9.466226,7.00054 -0.787288,-0.3022 -17.99304,-17.72654 -20.603019,-20.86479 l -1.5212,-1.82911 -1.962354,1.92865 c -1.370653,1.34711 -2.168432,1.95894 -2.645962,2.02889 -0.655866,0.0961 -1.130009,-0.34085 -11.688504,-10.77416 -6.052688,-5.98091 -12.151052,-12.15913 -13.551912,-13.72937 -2.372747,-2.65959 -2.553121,-2.93404 -2.636476,-4.01119 -0.16641,-2.15043 -0.05597,-2.2884 8.792517,-10.98486 l 8.093329,-7.9543 -5.66629,-5.88583 c -5.390083,-5.59895 -5.673092,-5.93462 -5.805481,-6.88583 -0.23361,-1.67844 0.475139,-2.54317 8.900817,-10.85956 l 7.705015,-7.60498 -0.469757,-0.95301 c -0.516211,-1.04731 -0.395084,-2.64305 0.333688,-4.39576 0.366206,-0.88073 1.067088,-1.70966 3.111121,-3.67947 l 2.638413,-2.54262 -1.658127,-1.68956 c -1.077167,-1.09764 -1.75297,-2.00072 -1.92891,-2.57758 -0.170614,-0.55945 -0.839077,-1.46767 -1.806891,-2.45493 -1.198744,-1.22308 -1.656747,-1.90697 -2.085726,-3.1159 -0.906784,-2.55541 -0.887057,-2.586 6.173189,-9.57559 5.686666,-5.62976 6.107048,-5.99909 6.874403,-6.03213 l 0.81709,-0.0356 -1.102552,-1.12183 c -1.90153,-1.93476 -3.754914,-6.18719 -3.658471,-8.39408 0.04291,-0.98221 0.210249,-1.19989 4.659631,-6.0618 5.451266,-5.956657 6.349306,-7.238169 10.021703,-14.300901 2.432288,-4.677794 3.177479,-6.495399 5.83662,-14.236211 3.44044,-10.015202 3.91016,-10.868028 6.437078,-11.687362 2.081575,-0.67495 4.069523,-0.725513 4.965654,-0.1263 l 0.792572,0.530007 0.686719,-1.869692 c 0.377687,-1.028332 1.56499,-5.096442 2.638463,-9.040259 1.80732,-6.639929 2.028788,-7.246311 2.992591,-8.193557 0.842229,-0.82776 1.200766,-1.002835 1.878881,-0.917494 l 0.838033,0.105486 3.237569,-4.085342 c 4.1441,-5.22924 9.63357,-11.637937 10.16771,-11.870298 0.22739,-0.09892 0.67957,-0.05814 1.00477,0.0906 0.97726,0.446989 12.97561,-6.303623 20.58902,-11.583965 4.57912,-3.175894 5.08273,-3.31927 7.79737,-2.219796 1.53717,0.622564 5.60379,4.019138 7.06417,5.900174 0.85621,1.10271 0.74543,2.940962 -0.28984,4.812247 -2.00427,3.622831 -10.72849,15.589771 -12.97498,17.79764 -0.42967,0.422301 -1.42617,0.973048 -2.21445,1.223897 -1.3698,0.435889 -1.41602,0.47359 -1.04451,0.851596 1.01469,1.032422 0.77455,2.034601 -2.62607,10.959611 l -1.54779,4.062252 1.85852,1.891029 1.85855,1.891052 4.60584,-4.230575 4.60583,-4.230553 1.54335,0.04936 1.54333,0.04934 9.39518,-9.233773 c 6.68409,-6.569264 9.39629,-9.365703 9.39915,-9.690781 0.002,-0.319483 0.70532,-1.058258 2.33437,-2.454752 2.16984,-1.859962 2.42042,-2.002791 3.63583,-2.071161 0.71796,-0.04039 1.42563,0.0489 1.5726,0.198459 0.20562,0.209192 0.37726,0.07731 0.74468,-0.572012 0.26258,-0.46417 1.36714,-1.718485 2.45465,-2.787318 1.92601,-1.89292 1.98516,-1.986991 2.2773,-3.630204 0.70916,-3.987442 0.88187,-4.374373 3.14165,-7.039075 1.7996,-2.122078 2.37851,-2.653339 3.82532,-3.51029 2.60711,-1.544406 4.54961,-1.947963 7.38507,-1.534298 3.05389,0.445535 4.43553,1.124335 6.44022,3.16408 1.42907,1.454052 1.62798,1.797276 2.29448,3.957807 0.65303,2.117068 1.05157,4.584634 1.04222,6.453103 -0.002,0.361877 0.20842,1.399095 0.46726,2.304934 0.6123,2.142959 0.61144,4.384413 -0.002,6.205778 -1.01597,3.014815 -7.18128,13.763738 -8.81613,15.370519 -0.44447,0.436822 -1.13321,0.776118 -1.70363,0.839228 l -0.95751,0.105958 0.72463,0.737288 c 0.58113,0.591301 0.85953,0.678086 1.40576,0.438493 0.37468,-0.164276 0.89372,-0.23678 1.1536,-0.160957 0.4021,0.117306 1.8913,-1.205296 9.99975,-8.881166 6.38447,-6.043905 9.69186,-9.034139 10.02628,-9.064863 0.31736,-0.02908 2.20915,-1.66463 5.19561,-4.491538 3.30442,-3.127976 4.93945,-4.52692 5.51591,-4.719721 1.46331,-0.489413 2.72609,0.188329 5.31438,2.852147 3.64431,3.750752 3.5812,3.364309 1.88314,11.523467 -0.7939,3.814669 -1.59539,7.37187 -1.78112,7.904892 -0.18578,0.533024 -0.38404,1.438146 -0.44074,2.011378 -0.0567,0.573217 -0.25064,1.487051 -0.431,2.03071 -0.32741,0.986946 -3.77223,5.975126 -4.87471,7.058633 -0.32031,0.314823 -0.5571,0.683831 -0.52624,0.819937 0.0309,0.136214 2.36329,1.787555 5.18303,3.669748 6.33061,4.225704 7.71486,5.53847 9.3056,8.825094 1.5915,3.288175 1.79231,4.104469 1.26021,5.122543 -0.34431,0.658699 -5.55351,7.920453 -5.98828,8.347762 -0.0416,0.0409 0.90603,0.514768 2.10579,1.053094 1.83382,0.822891 2.66231,1.404799 5.20046,3.652596 4.75127,4.207838 5.07885,4.692972 5.78923,8.573206 0.67652,3.695249 0.75274,4.782779 0.38265,5.461079 -0.26909,0.4932 -6.79248,9.34117 -7.13569,9.67845 -0.1091,0.10709 0.0474,0.44448 0.3473,0.7497 0.40893,0.41608 0.52902,1.23086 0.47981,3.25552 l -0.0655,2.70058 -11.99085,11.63799 c -11.90252,11.55237 -11.98865,11.64216 -11.71385,12.18404 0.15216,0.30034 0.0885,0.92768 -0.14182,1.39422 -0.46578,0.94336 -6.88462,7.25479 -16.55942,16.28096 z m 15.94813,-16.57092 c 0.23676,-0.69853 0.13557,-0.89697 -1.21427,-2.37929 -1.70476,-1.87231 -1.19884,-1.94907 -5.0079,0.76055 -3.58918,2.55322 -10.78106,6.5573 -13.02295,7.25052 -2.61922,0.80993 -5.14985,0.3199 -5.72727,-1.10904 -0.6991,-1.72999 0.34687,-3.49668 5.68925,-9.60947 1.43708,-1.64416 2.871,-3.56627 3.4191,-4.5829 0.51924,-0.96303 1.56971,-2.54395 2.33431,-3.51317 0.76468,-0.96912 1.38909,-1.8071 1.38769,-1.86199 -0.001,-0.055 -1.4084,-1.66455 -3.12664,-3.57697 l -3.12407,-3.47723 -1.94767,1.91419 c -1.07122,1.05285 -2.27529,2.12864 -2.67583,2.39057 l -0.72819,0.47631 2.01205,2.29319 c 1.10663,1.26128 2.04546,2.44072 2.08636,2.62097 0.0408,0.18018 -0.568,0.95906 -1.35313,1.7307 -1.41596,1.39164 -1.4485,1.40548 -4.02218,1.72542 -3.67378,0.45652 -4.49742,0.9642 -8.33703,5.139 l -3.11653,3.38857 -1.60349,3.81447 c -1.90663,4.53559 -2.51923,7.09919 -2.51153,10.50997 0.0151,6.88711 2.15022,13.75543 5.49555,17.68215 l 0.93417,1.09652 6.19728,-5.78858 c 25.55801,-23.87262 27.60642,-25.84278 27.96292,-26.89462 z m -36.08867,31.38729 c -2.46878,-3.3315 -3.98789,-7.21794 -4.77983,-12.22864 -0.98452,-6.22911 -0.36979,-10.29033 2.5629,-16.9316 l 1.62388,-3.67735 3.09069,-3.20987 c 1.93376,-2.00841 3.49394,-3.43691 4.16799,-3.81653 0.59251,-0.33364 2.39138,-0.80941 3.99749,-1.05727 2.81216,-0.43396 2.95993,-0.49363 3.99365,-1.61326 l 1.07349,-1.16261 -1.82277,-2.21916 c -1.06371,-1.29508 -1.9235,-2.16989 -2.06471,-2.10079 -1.04006,0.50871 -5.86916,1.54213 -7.60143,1.62663 -1.81572,0.0885 -2.24113,-0.002 -2.83518,-0.60689 -0.91276,-0.92872 -1.25821,-2.11176 -1.12895,-3.86647 0.11808,-1.603 1.15309,-4.63987 1.99202,-5.84489 0.30603,-0.43946 0.48731,-0.93501 0.40294,-1.10111 -0.0845,-0.16617 -2.55234,-2.81096 -5.48464,-5.87723 l -5.33115,-5.57529 -3.68227,1.19517 c -4.22819,1.37238 -5.64038,1.62038 -6.89126,1.21028 -1.14464,-0.37526 -1.67022,-0.92342 -2.11454,-2.20531 -0.4433,-1.27885 0.0576,-3.26941 1.54812,-6.154413 l 1.11296,-2.153907 -4.48003,-4.558337 -4.48004,-4.558349 -4.59701,1.659707 c -6.00725,2.16886 -8.2405,2.260338 -9.06235,0.371161 -0.27169,-0.62458 1.63461,-5.994449 3.09805,-8.726836 l 1.15427,-2.155137 -0.98663,-1.272008 c -0.5426,-0.699675 -1.0719,-1.272683 -1.1759,-1.273628 -0.10413,-7.57e-4 -1.02133,0.719994 -2.03835,1.601999 l -1.84908,1.603643 -0.14074,2.443354 c -0.1817,3.155855 -2.1564,9.031094 -3.77944,11.245132 -1.54914,2.113245 -5.64674,5.662768 -7.67106,6.645189 -1.61806,0.78519 -6.93812,2.31655 -9.90873,2.85221 -5.00528,0.90247 -11.844596,-0.50411 -20.240555,-4.162778 -2.834031,-1.234975 -3.80677,-1.322033 -4.405664,-0.394283 -0.232946,0.360985 -8.483122,8.757931 -18.3336,18.660001 -18.1721,18.26729 -19.102584,19.27705 -18.990549,20.60802 0.06324,0.75116 75.507628,77.80386 77.239858,78.88642 1.22863,0.76784 4.40419,1.52179 5.30129,1.25863 0.82852,-0.24303 13.6276,-11.98801 36.31216,-33.32162 3.9156,-3.68244 7.46584,-7.0066 7.88935,-7.38708 l 0.77002,-0.6918 z m 56.32883,-59.52332 -3.43075,-3.37725 -0.97348,-2.5097 c -0.53543,-1.38034 -1.35997,-3.0878 -1.83236,-3.79439 -0.93645,-1.40067 -4.93245,-5.581124 -5.64551,-5.906209 -0.358,-0.163146 -0.79274,0.141821 -2.2657,1.589419 l -1.82267,1.79138 1.27439,1.29664 c 1.38509,1.40931 3.89528,5.70662 4.91641,8.41664 0.32907,0.8733 0.63335,2.21129 0.67622,2.97331 l 0.078,1.38544 2.80741,0.95734 c 2.99338,1.02072 4.9547,2.32411 5.30758,3.52711 0.18687,0.63678 0.24538,0.61688 1.54864,-0.52624 0.74488,-0.6535 1.67803,-1.4712 2.07363,-1.8171 l 0.71909,-0.62906 z m -1.5162,6.56711 c -0.32179,-1.09702 -2.02869,-2.17609 -4.97097,-3.1423 l -2.74297,-0.90084 -5.90015,5.7988 -5.90017,5.79879 0.52555,0.79299 c 0.67872,1.02397 1.2609,3.68722 1.03415,4.7306 -0.0972,0.44716 -0.77754,1.51144 -1.5119,2.36507 -1.05242,1.22351 -1.26722,1.6222 -1.01415,1.88324 0.17652,0.18213 0.60374,0.73328 0.94941,1.22457 l 0.62824,0.89352 9.55005,-9.38596 9.55005,-9.38598 z m 5.2608,-6.70856 c -0.0106,-1.63877 -0.0251,-1.66744 -1.83269,-3.771 -1.00171,-1.1659 -4.28237,-4.64196 -7.28998,-7.7249 -5.34139,-5.475047 -5.47835,-5.595627 -5.87847,-5.202373 -0.38959,0.382911 -0.2756,0.539532 2.29954,3.159693 3.13616,3.191 4.05531,4.53191 5.23302,7.63427 0.84964,2.23821 0.86776,2.26291 4.00054,5.45045 3.56675,3.62908 3.48949,3.61904 3.46804,0.45386 z m -23.82393,19.58161 c 0.28195,-1.2972 -0.91268,-4.36832 -2.2145,-5.69287 -2.1394,-2.17681 -4.26247,-2.77438 -6.82379,-1.92069 -1.54674,0.51554 -1.65887,0.60449 -3.45437,2.74078 -1.02064,1.21434 -2.27759,2.97783 -2.79324,3.91882 -1.29929,2.37109 -1.54564,2.6961 -5.0001,6.59673 -3.42678,3.86935 -4.11178,4.86649 -4.28823,6.24256 -0.21759,1.69669 1.30499,2.53273 3.74731,2.05759 2.55148,-0.49633 8.65153,-3.68613 14.1293,-7.3884 3.59724,-2.43128 6.39695,-5.17116 6.69719,-6.55495 z m 26.12449,-27.49014 c 4.71424,-6.26952 4.44916,-5.48217 3.53832,-10.51029 -0.55212,-3.04778 -0.55816,-3.06135 -2.01656,-4.545252 l -1.46278,-1.488358 -0.63219,2.210859 c -1.24379,4.349718 -2.43557,6.862482 -5.17052,10.901501 l -1.82693,2.69805 2.30138,2.45755 c 2.12899,2.27318 2.32112,2.42255 2.56279,1.9926 0.14376,-0.25572 1.36163,-1.92814 2.70642,-3.7166 z m -148.471231,72.98357 -36.459641,-37.09696 -2.409582,2.3682 c -1.325268,1.3025 -2.634172,2.7654 -2.90879,3.25075 -0.602735,1.0656 -0.982765,2.85441 -0.790449,3.72062 0.21512,0.9688 8.246477,9.02167 55.040683,55.18803 7.87689,7.77122 14.74576,14.38343 15.26416,14.69383 0.94133,0.56364 2.34985,0.54638 3.3493,-0.0411 0.28088,-0.1651 1.60495,-1.35467 2.94231,-2.64338 l 2.43166,-2.34303 z m 26.525191,42.27711 c 5.8e-4,-0.0579 -5.06656,-5.08536 -11.26017,-11.17175 -6.193584,-6.08641 -18.561231,-18.30623 -27.483651,-27.15521 -8.922411,-8.84898 -19.300998,-19.10525 -23.063511,-22.79173 l -6.840952,-6.70277 -7.955651,7.94863 c -9.660409,9.65158 -9.399474,9.21986 -7.232503,12.0064 0.504519,0.64877 5.732156,5.87598 11.616964,11.61607 37.500696,36.57846 49.248888,47.97129 51.241931,49.69187 2.504868,2.16249 3.360809,2.48051 5.211357,1.93621 1.003566,-0.29517 1.539406,-0.79122 8.418586,-7.79363 4.04076,-4.1131 7.34719,-7.52593 7.34768,-7.58402 z M 221.88396,115.80392 c -0.0437,-0.77683 -0.29459,-1.98347 -0.55751,-2.68142 -0.93705,-2.4876 -3.19569,-6.49244 -4.60588,-8.16697 l -1.43286,-1.70141 -9.79601,9.8716 c -5.38776,5.42938 -9.79663,9.89275 -9.79754,9.91843 -0.001,0.0259 0.91451,1.07438 2.03417,2.33046 l 2.03576,2.28381 0.94003,-0.7048 c 1.17784,-0.88322 3.30917,-1.25151 5.21699,-0.90149 1.16924,0.21445 1.74688,0.52073 2.85549,1.51379 l 1.38972,1.24489 5.8986,-5.79726 5.89862,-5.79724 z m 10.81554,-14.58459 c 1.53354,-2.493842 2.3982,-4.501838 3.71851,-8.635562 l 0.81534,-2.552705 -1.6532,-1.682071 c -1.61443,-1.642674 -2.99015,-2.554679 -5.90447,-3.914324 l -1.40301,-0.654545 -2.87981,3.833697 c -2.42182,3.224082 -2.83972,3.91267 -2.62792,4.330215 0.40504,0.798588 -0.13342,4.066193 -0.77365,4.695501 -0.5439,0.534579 -0.52178,0.614663 0.53924,1.946719 0.60858,0.764049 2.41596,2.721745 4.01657,4.350325 l 2.91014,2.961 0.89834,-1.16397 c 0.49417,-0.6401 1.54885,-2.22155 2.34379,-3.51428 z M 94.224481,236.41461 c -0.52394,-0.5377 -5.876209,-5.76537 -11.893944,-11.61702 l -10.941314,-10.63936 -6.534402,6.15348 c -6.730777,6.33835 -7.336924,7.04528 -7.007143,8.16965 0.110308,0.37606 4.066051,4.66636 10.520165,11.40989 9.583769,10.01355 10.408048,10.82126 11.22422,10.99866 0.484477,0.10521 1.16302,0.0741 1.507888,-0.0691 0.344808,-0.14332 3.653326,-3.22332 7.352093,-6.84453 l 6.724384,-6.58469 -0.952668,-0.97763 z M 216.71777,100.77759 c 0.0235,-0.26179 -3.64962,-1.204518 -6.87083,-1.7634 l -3.21589,-0.55796 -5.02744,4.92899 c -2.76481,2.71127 -5.56877,5.34678 -6.23054,5.85726 -1.18885,0.91731 -1.19657,0.93485 -0.66139,1.47941 0.70629,0.71865 1.10066,2.0411 1.18142,3.96175 0.0808,1.92254 -0.17932,2.73556 -1.48768,4.64877 l -1.03118,1.50789 0.87731,0.89263 0.87729,0.89263 10.78819,-10.85428 c 5.93343,-5.96992 10.79378,-10.91707 10.80063,-10.99379 z m 5.35836,-5.781212 c 0.002,-0.308915 -0.0675,-0.388597 -0.2151,-0.243454 -0.12027,0.118086 -0.97646,0.114067 -1.90282,-0.0083 -1.48681,-0.197638 -1.81886,-0.360902 -2.83232,-1.392081 -0.63143,-0.642476 -1.70832,-1.556786 -2.3929,-2.031967 l -1.24483,-0.863838 -2.17094,-6.713154 -2.17093,-6.713143 -2.74783,2.700626 -2.74782,2.700602 0.93833,1.797569 c 1.27853,2.449312 1.60523,4.242602 1.66076,9.115799 0.0261,2.287136 0.12478,4.23707 0.21916,4.333194 0.0944,0.0961 1.56156,0.397545 3.2602,0.66984 1.69867,0.272284 4.17109,0.804652 5.49425,1.183083 l 2.4058,0.688006 2.22123,-2.381283 c 1.25724,-1.347753 2.22298,-2.580424 2.22521,-2.840071 z m -0.23224,-3.187049 c -0.68654,-0.977112 -11.28518,-14.168632 -11.69521,-14.556201 -0.1722,-0.163157 0.58409,2.538592 1.68105,6.003504 l 1.99452,6.299794 2.02168,1.840878 c 2.70483,2.46274 2.89292,2.570968 4.65381,2.675579 1.46694,0.08712 1.53022,0.06052 1.6979,-0.710775 0.10024,-0.461008 -0.05,-1.120399 -0.35377,-1.552755 z m -27.20804,26.083411 c 0.71261,-1.30266 0.8435,-3.65843 0.29368,-5.28535 -0.83305,-2.46509 -3.56825,-4.46465 -6.44716,-4.71317 -1.9711,-0.17027 -3.35136,0.66878 -6.02511,3.66218 -2.4865,2.78377 -5.55496,8.48579 -6.08331,11.30436 -0.40502,2.16062 -0.034,3.86741 0.97442,4.48316 1.45962,0.89122 8.47735,-0.5846 10.22014,-2.14929 0.52626,-0.47249 1.05616,-0.85578 1.17734,-0.85193 0.37742,0.0129 5.30954,-5.38877 5.89,-6.44996 z m 33.76377,-35.414909 c 2.87395,-3.840341 5.42889,-7.365917 5.67764,-7.834607 0.39601,-0.74614 0.33478,-1.122065 -0.49219,-3.021889 -1.11103,-2.552531 -2.01474,-4.21814 -2.28993,-4.22051 -0.19376,-0.0017 -13.49828,17.584793 -13.5935,17.968614 -0.0269,0.10863 0.6387,1.023236 1.47924,2.032417 0.84048,1.009205 1.8242,2.249192 2.18589,2.755662 l 0.65774,0.920741 0.57497,-0.808967 c 0.31619,-0.444933 2.92627,-3.951097 5.80025,-7.791438 z m -22.759,11.101939 c -0.16897,-5.338888 -0.38768,-6.652965 -1.46077,-8.774272 -0.60625,-1.198402 -0.79695,-1.413865 -1.17546,-1.327907 -0.24855,0.05626 -4.99598,4.580004 -10.55006,10.052462 l -10.09878,9.949467 1.84509,1.87733 1.84509,1.87737 2.00882,0.0543 c 2.04134,0.0552 4.09213,0.8236 5.19595,1.94671 l 0.5645,0.57435 4.51625,-4.32169 c 2.48395,-2.37692 5.17908,-4.93872 5.98917,-5.692885 l 1.47292,-1.371146 z m 18.45141,-17.944638 c 3.2722,-4.337112 6.11282,-8.134518 6.3125,-8.438694 0.29069,-0.442825 0.2253,-0.693206 -0.32816,-1.256318 -0.58285,-0.593072 -11.36466,-7.994661 -11.65077,-7.998153 -0.0528,-6.03e-4 -2.1341,2.494382 -4.62473,5.544549 l -4.5284,5.545691 0.58157,2.861385 c 0.31986,1.573771 0.54787,2.94279 0.50668,3.042256 -0.36394,0.879208 -0.13082,1.286558 2.93178,5.124314 4.1906,5.251144 3.85176,4.933127 4.39774,4.12779 0.24883,-0.366942 3.12961,-4.215734 6.40179,-8.55282 z M 179.3749,114.30888 c 0.35228,-0.61398 1.89962,-2.37138 3.4385,-3.90543 l 2.79793,-2.78917 -4.78344,-4.86827 -4.78357,-4.868201 -2.21384,2.154661 c -1.21783,1.18484 -3.07209,2.75731 -4.12103,3.49392 -1.04896,0.7366 -1.90646,1.36241 -1.90562,1.39058 0.001,0.0288 2.37313,2.59572 5.27192,5.70559 4.6731,5.0134 5.29249,5.60608 5.46459,5.22851 0.10674,-0.23423 0.48233,-0.92818 0.83466,-1.54211 z M 57.252709,227.25806 c 0.166217,-0.76474 0.849172,-1.47415 6.921379,-7.18977 l 6.736923,-6.34133 -14.269679,-13.93706 -14.269681,-13.93705 -2.39952,2.10112 c -3.594606,3.14746 -13.368463,12.84355 -14.093266,13.9814 -0.381602,0.59897 -0.611893,1.47156 -0.578643,2.19252 l 0.05524,1.19761 13.349476,13.46637 c 11.603679,11.70529 13.414631,13.45225 13.84782,13.35846 0.274087,-0.0592 1.402229,-0.99348 2.506976,-2.07582 1.528464,-1.49616 2.052772,-2.17102 2.193016,-2.81641 z M 202.57661,82.052082 c 0.22889,-1.053011 -0.53423,-2.818783 -1.755,-4.060898 -1.11615,-1.135636 -2.97739,-1.835981 -6.43629,-2.421831 -1.17874,-0.19958 -2.58324,-0.496471 -3.12109,-0.659605 l -0.97793,-0.296633 -7.15657,7.033621 -7.15658,7.03363 0.8452,1.123769 c 0.9816,1.305035 1.5383,3.684251 1.1706,5.002371 -0.13793,0.494898 -0.53574,1.301938 -0.88375,1.793408 l -0.63275,0.893566 2.71023,2.75764 2.71024,2.7576 10.25499,-10.078802 c 8.94414,-8.790489 10.27716,-10.180998 10.42866,-10.877859 z m 7.11481,-7.037006 c 0.0345,-0.139232 -0.0843,-1.041501 -0.26368,-2.005066 l -0.32613,-1.751906 -0.98079,0.411467 c -1.09358,0.458753 -1.82767,0.175225 -3.90005,-1.506764 -1.48087,-1.201746 -3.5785,-2.03024 -5.81675,-2.297151 l -1.62539,-0.193761 -0.0593,-2.389678 c -0.0827,-3.329513 -1.19623,-5.618539 -4.82412,-9.916532 -1.46661,-1.737595 -2.80395,-3.472121 -2.97173,-3.854609 -0.40131,-0.914815 -0.42361,-0.929456 -0.82053,-0.539362 -0.18707,0.183869 -0.37339,1.364243 -0.41404,2.623053 l -0.0739,2.288791 -1.73371,1.703928 -1.73377,1.703951 1.40437,1.216748 c 0.77767,0.673809 1.72708,1.763415 2.1267,2.442763 0.77803,1.320222 2.56179,7.338699 2.82034,9.515929 0.0871,0.732562 0.24622,1.4215 0.35385,1.531011 0.10781,0.109492 1.89926,0.549663 3.98144,0.978113 5.5846,1.149179 7.31614,2.317494 8.23849,5.558799 l 0.39283,1.380461 3.08169,-3.323398 c 1.69499,-1.827829 3.10982,-3.437339 3.14417,-3.576593 z m -1.10494,-5.374862 c -0.61634,-1.049971 -18.32272,-18.458831 -18.77833,-18.462747 -0.54401,-0.0047 -0.0677,0.684059 2.87508,4.156966 3.66108,4.320688 4.99516,7.271949 4.70527,10.40878 l -0.11513,1.24524 2.42437,0.44567 c 2.40233,0.441662 3.24087,0.86244 5.97885,3.000099 1.2689,0.99068 1.7769,0.993999 3.14239,0.02155 0.0959,-0.06703 -0.008,-0.434442 -0.23252,-0.814506 z m 4.79684,-6.650449 c 5.68455,-6.970768 9.15663,-11.522312 9.94003,-13.030413 0.85039,-1.637049 1.03706,-4.758129 0.40372,-6.750924 -0.3093,-0.973258 -0.93051,-2.081051 -1.64782,-2.938495 l -1.15136,-1.376264 -0.63215,1.358815 c -0.34766,0.747352 -1.54448,2.459907 -2.65953,3.80567 -1.86905,2.255685 -15.11029,18.112903 -15.22331,18.230861 -0.0274,0.02845 1.35533,1.481417 3.07255,3.228667 2.65683,2.703252 3.16867,3.131184 3.43321,2.87117 0.17091,-0.168112 2.18013,-2.597684 4.46466,-5.399109 z m -36.94661,33.336069 c 1.00047,-1.308936 1.25089,-2.86272 0.73461,-4.557995 -0.3358,-1.102645 -2.68777,-3.567583 -4.19554,-4.397106 -1.27159,-0.699569 -3.99197,-1.200022 -5.20706,-0.95788 -0.79897,0.15928 -1.14724,0.48212 -3.95549,3.667832 -3.00327,3.406803 -6.48032,8.012812 -7.46776,9.892461 -1.55907,2.967724 -1.78042,5.239974 -0.625,6.415594 1.17458,1.19512 2.26052,1.15434 6.84088,-0.25682 3.61784,-1.11463 4.51916,-1.51195 6.15665,-2.71404 3.00996,-2.20963 6.2915,-5.224702 7.71876,-7.092011 z m 51.16565,-64.944002 c 0.21465,-1.352556 -0.5549,-2.689196 -2.99696,-5.20501 -2.15484,-2.220168 -3.36942,-2.867604 -4.6653,-2.487465 -0.38258,0.112188 -2.4675,1.881967 -5.0667,4.300727 l -4.41675,4.109997 1.27027,0.254629 c 4.64417,0.93094 10.93133,6.041876 12.39087,10.072754 0.33137,0.915229 0.63395,1.696044 0.6724,1.735165 0.0787,0.0801 2.56247,-11.208345 2.81209,-12.780857 z m -37.62857,41.82612 c -0.0398,-1.453291 -2.16449,-8.786019 -2.91886,-10.073373 -0.73659,-1.257008 -2.67347,-3.063443 -3.28885,-3.067452 -0.19871,-0.0014 -5.23127,4.655254 -11.18342,10.34787 l -10.82201,10.350195 2.17147,2.49969 2.17147,2.499679 2.60033,0.02518 c 2.61549,0.02541 4.05684,0.477806 5.95209,1.868409 l 0.88018,0.645916 7.23091,-7.106704 7.23091,-7.106682 z m 21.54087,-22.87423 c 5.51582,-6.627865 8.00678,-9.795461 8.37275,-10.647113 l 0.52095,-1.212325 -1.1545,-1.174689 c -2.35539,-2.396551 -6.91249,-4.603883 -9.14772,-4.43091 -1.08919,0.08427 -1.23658,0.193523 -5.19787,3.853324 -2.24225,2.071682 -6.45163,6.035 -9.35405,8.807479 l -5.27716,5.04084 2.24717,2.022947 c 1.23588,1.112662 3.84267,3.646337 5.79276,5.630497 l 3.54557,3.607568 0.90011,-1.031522 c 0.4951,-0.567295 4.43348,-5.27712 8.75197,-10.466261 z m -51.92438,43.7761 c 0.83737,-1.144608 2.65012,-3.312783 4.0283,-4.818186 l 2.50576,-2.737116 -0.9452,-0.961734 c -0.51985,-0.528929 -2.11022,-2.266721 -3.53422,-3.861652 l -2.58903,-2.899942 -3.896,3.578553 c -2.14283,1.968208 -4.37814,3.936854 -4.96736,4.374706 l -1.07138,0.796095 0.64737,0.920374 c 0.35607,0.506175 2.25527,2.558497 4.22053,4.560571 2.72758,2.778346 3.63304,3.579724 3.82587,3.384805 0.13945,-0.140096 0.93781,-1.191854 1.77516,-2.336474 z m 27.4951,-40.236885 c 0.036,-1.112553 -0.0384,-1.291089 -0.55438,-1.330003 -0.79454,-0.05992 -1.09976,-0.241708 -4.98017,-2.966333 -2.19564,-1.541638 -3.96799,-2.571631 -5.18951,-3.015816 -1.02029,-0.371022 -1.94695,-0.768087 -2.05929,-0.882375 -0.1123,-0.114209 -0.53001,-1.086671 -0.9282,-2.160848 -1.23196,-3.323408 -1.88814,-4.468341 -3.99103,-6.963522 -1.95739,-2.322555 -2.04547,-2.485403 -2.37927,-4.398849 l -0.34664,-1.987015 -1.12558,0.08709 c -1.04453,0.08084 -1.27745,0.236382 -3.23487,2.160168 l -2.10927,2.073046 1.56343,1.660252 c 1.79164,1.902606 3.01231,3.891921 3.68308,6.00256 0.60104,1.891177 1.23166,6.436685 1.32244,9.531807 l 0.0712,2.427007 1.3862,-0.269669 c 1.5583,-0.303124 5.22261,0.165828 7.61921,0.975141 0.87483,0.295426 2.30482,1.051803 3.17778,1.680846 1.53308,1.104716 1.60164,1.196488 2.01164,2.692345 0.23346,0.85175 0.44968,1.574289 0.4805,1.605649 0.0309,0.03125 1.29022,-1.223925 2.79849,-2.7897 l 2.74248,-2.846751 0.0416,-1.285073 z m -6.62318,5.723043 c -0.34746,-1.531851 -0.38052,-1.577844 -1.86671,-2.59762 -1.92829,-1.323068 -4.99619,-2.312497 -7.73173,-2.493524 -3.88896,-0.25737 -3.45321,-0.522305 -10.44751,6.351838 l -6.09715,5.992396 0.58913,0.327604 c 0.32414,0.179967 1.1513,0.792522 1.83834,1.360894 1.98619,1.643085 2.60797,3.247935 2.68872,6.939861 0.0642,2.941903 0.11854,3.161893 0.99865,4.057468 l 0.93068,0.946923 9.72562,-9.663115 9.72564,-9.663113 z m -3.98342,-19.260307 c -4.82064,-5.06848 -8.81679,-9.164313 -8.88073,-9.101467 -0.0638,0.0627 1e-4,0.679833 0.14203,1.371392 0.20777,1.012096 0.60521,1.662967 2.03768,3.336167 2.08487,2.435266 3.00128,4.007335 4.10792,7.04717 l 0.80779,2.218893 1.97282,0.761484 c 1.30103,0.502178 3.23476,1.644676 5.67879,3.3552 3.96661,2.776124 5.15192,3.194769 3.72513,1.315701 -0.45474,-0.598925 -4.77092,-5.235941 -9.59149,-10.30448 z m -17.63204,35.442958 c -0.0579,-3.871699 -0.90756,-5.726972 -3.42413,-7.476744 -1.09626,-0.762262 -1.93992,-1.11864 -2.79757,-1.181833 l -1.22793,-0.09052 -4.64447,4.306594 c -5.07742,4.707951 -6.35054,6.256543 -8.54351,10.388565 -1.51454,2.854055 -3.18671,7.450407 -2.97059,8.165342 0.46047,1.523263 2.34273,1.337895 8.35402,-0.82288 5.42421,-1.949733 6.79282,-2.866265 12.67144,-8.485782 l 2.61719,-2.501794 z m 31.23025,-30.985315 c 2.30185,-3.569975 5.95186,-10.300116 6.5522,-12.081529 0.60711,-1.801291 0.50374,-4.595743 -0.24882,-6.727849 -0.48423,-1.371826 -0.89544,-1.999621 -2.14225,-3.270378 -0.84854,-0.865043 -1.67029,-1.573741 -1.82596,-1.575013 -0.15562,-0.0015 -1.1314,1.773107 -2.16844,3.94325 -2.46621,5.160921 -4.70246,8.841532 -8.00508,13.175574 -1.48069,1.943096 -2.72124,3.733944 -2.75678,3.979653 -0.0466,0.321573 0.76153,1.287294 2.88378,3.446645 2.83435,2.883895 2.97785,2.994233 3.70981,2.852205 1.83112,-0.355278 1.79672,-0.323097 4.00154,-3.742404 z m -59.58194,43.562118 c 0.82479,-2.444501 1.32165,-4.588869 1.42047,-6.130502 l 0.15194,-2.37093 1.84622,-1.814496 c 1.01542,-0.997987 2.0471,-1.901933 2.29265,-2.008771 0.34325,-0.149362 0.74688,0.111431 1.74658,1.128622 l 1.30012,1.322825 0.81012,-1.123072 c 0.44555,-0.617712 2.98734,-3.217077 5.64831,-5.776419 4.5429,-4.369333 4.80716,-4.665945 4.32974,-4.859749 -0.27961,-0.113582 -1.15873,-0.583824 -1.95353,-1.045142 -2.15396,-1.250155 -3.11539,-2.937683 -3.55246,-6.235169 -0.50453,-3.806629 -2.12841,-5.597107 -5.2238,-5.759751 L 137.8648,53.60686 114.98866,76.090015 C 98.804544,91.99608 92.175811,98.637568 92.329158,98.793585 c 0.48199,0.490418 7.295476,2.778985 9.867352,3.314345 4.98882,1.03843 8.43298,0.77491 14.95146,-1.14392 4.32263,-1.272462 4.95722,-1.672406 8.80291,-5.547936 l 3.27569,-3.301021 z m 35.6172,-36.669627 c -0.36894,-7.926874 -1.679,-11.948959 -4.98889,-15.316722 l -1.19871,-1.219651 -9.21335,9.055069 -9.21335,9.055064 1.10788,0.888945 c 1.63073,1.308384 2.19651,2.330229 2.4826,4.48289 0.40164,3.022449 0.87761,4.262323 2.1238,5.532176 1.299,1.323736 3.13571,2.133931 5.1785,2.284392 l 1.41083,0.10389 6.21691,-6.110096 6.21692,-6.11012 z m 16.74576,-15.340663 c 3.02645,-4.17057 5.27279,-8.109852 7.86462,-13.791667 l 0.97828,-2.144588 -0.95557,-0.556688 c -3.81935,-2.225051 -9.22806,-2.438435 -12.29673,-0.485108 -0.84512,0.538083 -2.64874,2.293877 -5.74751,5.595583 -3.98043,4.241143 -4.50483,4.886161 -4.42363,5.440866 0.0702,0.479612 1.33433,1.893218 5.31414,5.942594 l 5.22198,5.313279 1.03817,-1.301057 c 0.57095,-0.715574 1.92376,-2.521531 3.00623,-4.01323 z m 12.62694,-17.098817 c -0.62477,-2.655084 -1.30619,-3.876226 -3.02544,-5.421813 -1.94052,-1.744464 -3.7083,-2.367703 -6.9431,-2.447673 -3.50823,-0.08673 -5.0692,0.630713 -8.16773,3.753921 -2.62346,2.644268 -3.1437,3.501566 -3.69128,6.081946 l -0.38808,1.828623 2.54956,-2.294201 c 2.98403,-2.685266 4.1923,-3.220905 7.53905,-3.342334 4.09154,-0.148456 7.1993,1.065983 10.64033,4.158003 l 2.11852,1.903731 -0.11442,-1.254257 c -0.0629,-0.689839 -0.2958,-2.024496 -0.51731,-2.965901 z M 98.631209,90.856933 c -0.02766,-0.02801 -0.756484,-0.354506 -1.619411,-0.725278 -1.487034,-0.63893 -1.831221,-0.942159 -6.593638,-5.808962 -5.80726,-5.934614 -6.874811,-7.417381 -8.173463,-11.353052 -0.845438,-2.562165 -1.040139,-5.424929 -0.436221,-6.414035 0.191976,-0.314414 0.774439,-0.703013 1.294349,-0.863539 1.078839,-0.333143 2.416664,-1.544674 2.923418,-2.647472 0.304187,-0.661954 0.253205,-0.812522 -0.432888,-1.278539 -0.87444,-0.593933 -2.063387,-0.561217 -4.369117,0.120265 -2.413011,0.71325 -2.812061,1.427384 -5.877434,10.517944 -3.055515,9.061299 -3.576496,10.311192 -6.891349,16.533054 -3.003861,5.638157 -4.789845,8.095187 -9.773428,13.445561 -4.491187,4.82173 -4.531433,4.90613 -3.6518,7.65922 0.949234,2.97093 1.934732,4.4256 5.357884,7.9086 l 3.079925,3.13375 3.313155,-3.29099 c 1.822725,-1.80953 7.071508,-7.12318 11.664943,-11.80709 6.449142,-6.575864 8.502185,-8.551626 9.011764,-8.672277 0.362947,-0.08593 1.346288,0.09894 2.18522,0.410949 l 1.525332,0.567251 3.75664,-3.692112 c 2.066153,-2.030656 3.733933,-3.715127 3.706238,-3.7432 z m 27.779841,-30.77084 -1.7842,-1.815401 -3.10968,0.131689 c -2.71752,0.115096 -3.4544,0.0065 -5.84322,-0.862202 -5.90665,-2.14738 -9.28358,-4.453166 -16.174979,-11.044362 -3.410715,-3.262174 -4.650666,-4.319178 -5.029263,-4.287297 -1.248521,0.105131 -2.02958,1.862076 -3.870707,8.706859 -2.049722,7.620328 -3.413505,11.57147 -4.632144,13.420192 -0.724782,1.099521 -1.003212,1.32781 -2.143115,1.757208 -1.259066,0.474293 -1.319421,0.530288 -1.548595,1.43663 -0.572714,2.264801 0.55952,6.41132 2.608887,9.554439 0.657347,1.008165 2.859978,3.643282 4.894735,5.855842 3.959325,4.305274 5.842296,5.877474 8.194279,6.841797 l 1.308912,0.536671 14.45665,-14.208281 14.45665,-14.208297 z m -70.183543,68.241867 6.605962,-6.75114 -1.916009,-1.77838 c -1.053806,-0.97809 -2.233397,-1.87439 -2.621308,-1.99176 l -0.705299,-0.21337 -6.113816,6.00877 c -5.889641,5.78847 -6.11836,6.04408 -6.237287,6.97156 -0.186648,1.45554 0.261834,2.51383 1.90096,4.48562 l 1.490195,1.79264 0.495293,-0.8864 c 0.272456,-0.48749 3.467986,-3.92442 7.101279,-7.63754 z M 126.57137,51.189662 c 1.23873,-3.332941 2.26993,-6.476928 2.29155,-6.986619 0.033,-0.776097 -0.11111,-1.040841 -0.88646,-1.62857 -6.91847,-5.244762 -9.96244,-7.841091 -13.95106,-11.899442 -3.75972,-3.82544 -4.28265,-4.281566 -4.70002,-4.100006 -0.70274,0.305697 -10.597515,12.016678 -12.6894,15.018552 l -0.556495,0.79858 3.786168,3.583004 c 6.671507,6.313384 10.418917,8.897199 15.734487,10.848858 2.12897,0.781659 3.17098,0.959729 5.43896,0.929404 1.543,-0.02155 2.91224,-0.142465 3.04273,-0.270683 0.13049,-0.12824 1.25077,-2.960123 2.48951,-6.293048 z m 8.2867,-14.778568 c 3.46736,-4.400208 6.17749,-8.180274 8.46165,-11.802267 3.076,-4.877633 3.0586,-5.062134 -0.82481,-8.754347 -2.48532,-2.363019 -2.95961,-2.708461 -4.43141,-3.227427 -0.90647,-0.319685 -1.97127,-0.567931 -2.36623,-0.551659 -0.4735,0.0194 -2.13785,1.014918 -4.88601,2.922223 -4.70287,3.263917 -7.35518,4.869953 -14.49927,8.779604 -2.73797,1.498391 -5.0599,2.8033 -5.15983,2.899799 -0.34124,0.329628 8.77597,8.923224 12.45069,11.734401 1.90165,1.455189 3.68082,2.790808 3.95376,2.968028 0.68744,0.4464 3.10961,-0.215721 4.20495,-1.149451 0.14569,-0.125092 1.53955,-1.843063 3.09651,-3.818904 z"
     id="path219" />
  <path
     style="fill:#ffe6d5;stroke-width:0.120574"
     d="m 185.30633,51.268027 c -0.49577,-0.284074 -1.98819,-1.247156 -3.3165,-2.140183 -2.98177,-2.00466 -3.89662,-2.525213 -5.81228,-3.307244 l -1.50741,-0.615367 -0.70205,-1.900084 c -1.18474,-3.206518 -2.01749,-4.682372 -3.99995,-7.088972 -1.51975,-1.84489 -1.97345,-2.55041 -2.19748,-3.417195 -0.20725,-0.801829 -0.243,-1.511982 -0.0761,-1.511982 0.30654,0 17.73849,18.393246 18.5898,19.614946 0.70531,1.012172 0.36914,1.138006 -0.97801,0.366081 z"
     id="path221" />
  <path
     style="fill:#ffe6d5;stroke-width:0.120574"
     d="m 206.46992,70.998909 c -0.19894,-0.111068 -0.87717,-0.589482 -1.50717,-1.063145 -2.38343,-1.791974 -3.12345,-2.10079 -6.44576,-2.689831 l -1.20081,-0.212902 -0.0117,-1.866861 c -0.0132,-2.109718 -0.12749,-2.653644 -0.90705,-4.317169 -0.84657,-1.806543 -1.7966,-3.169303 -4.34385,-6.230996 -1.83286,-2.203032 -2.40254,-2.967606 -2.40318,-3.225346 -10e-4,-0.407828 0.32201,-0.198883 1.75184,1.133214 3.4036,3.170947 15.45759,15.10007 16.70699,16.533924 0.8713,0.999941 0.90885,1.279866 0.23178,1.727931 -0.60209,0.398441 -1.37867,0.486091 -1.8711,0.211181 z"
     id="path223" />
  <path
     style="fill:#ffe6d5;stroke-width:0.120574"
     d="m 219.28729,93.937151 c -0.88988,-0.239563 -1.26728,-0.531425 -4.6277,-3.578896 l -0.85337,-0.773887 -0.61176,-1.929179 c -2.20585,-6.956084 -3.04704,-9.77645 -3.04704,-10.216247 0,-0.270773 0.25116,0.02226 4.05422,4.730145 5.04291,6.242719 7.66496,9.580388 7.83518,9.973598 0.22315,0.515478 0.21329,1.362529 -0.0197,1.695219 -0.16893,0.241174 -0.2865,0.267162 -1.17559,0.259839 -0.54335,-0.0045 -1.24274,-0.07674 -1.55421,-0.160592 z"
     id="path225" />
  <path
     style="fill:#ffe6d5;stroke-width:0.120574"
     d="m 233.88614,116.51598 c -0.47647,-0.42913 -1.7699,-1.72571 -2.87431,-2.88128 -2.14248,-2.24175 -2.44634,-2.68217 -3.18383,-4.61474 -0.62936,-1.6492 -1.4293,-3.15868 -2.25373,-4.25278 -0.40981,-0.54386 -1.76523,-2.0685 -3.01204,-3.38807 -1.24681,-1.31958 -2.30297,-2.512795 -2.34702,-2.651595 -0.0991,-0.312164 0.12518,-0.602089 0.46703,-0.603786 0.42615,-0.0021 10.32925,10.114011 13.26133,13.546591 1.3319,1.55925 1.40375,1.74917 1.40375,3.71067 0,2.25226 -0.11849,2.34429 -1.46118,1.13499 z"
     id="path227" />
  <path
     style="fill:#ffe6d5;stroke-width:0.120574"
     d="m 210.34075,140.00014 c -0.43791,-0.58348 -0.7962,-1.17733 -0.7962,-1.31967 0,-0.14234 0.42673,-0.8033 0.94829,-1.46879 1.48137,-1.89022 1.63145,-2.1958 1.60849,-3.27518 -0.0305,-1.43356 -0.55863,-3.19609 -1.3136,-4.38376 l -0.2183,-0.34342 5.84782,-5.77149 c 3.2163,-3.17433 5.93553,-5.77339 6.04272,-5.7757 0.4075,-0.009 3.84075,1.23863 5.11302,1.85771 1.4892,0.72465 2.34352,1.48909 2.59236,2.31963 l 0.14206,0.47418 -3.71973,3.67776 c -7.08445,7.00452 -15.24447,14.99769 -15.34737,15.03357 -0.0568,0.0198 -0.46165,-0.44136 -0.89956,-1.02484 z"
     id="path229" />
  <path
     style="fill:#ffe6d5;stroke-width:0.120574"
     d="m 194.84611,122.38587 c -0.0931,-0.11353 -0.46488,-0.51199 -0.82613,-0.88546 l -0.65682,-0.67905 0.87148,-1.29892 c 0.47932,-0.71441 0.99786,-1.57539 1.15231,-1.91329 0.42679,-0.93368 0.56783,-2.10985 0.42205,-3.51959 -0.18455,-1.78474 -0.4166,-2.40848 -1.39644,-3.75364 -0.0903,-0.124 0.003,-0.27746 0.37259,-0.61169 0.27124,-0.24539 1.19363,-1.07749 2.04975,-1.84912 0.85612,-0.77163 3.39971,-3.19968 5.65242,-5.39567 2.30883,-2.2507 4.19063,-3.992717 4.3131,-3.992717 0.4074,0 4.36709,0.730506 6.18048,1.140209 2.20906,0.499098 3.58159,0.923268 3.64982,1.127948 0.0282,0.0845 -1.4312,1.6569 -3.24299,3.49435 -5.63484,5.71461 -18.24791,18.35246 -18.31166,18.34764 -0.0333,-0.003 -0.13684,-0.0975 -0.22996,-0.211 z"
     id="path231" />
  <path
     style="fill:#ffe6d5;stroke-width:0.120574"
     d="m 179.12984,100.24331 c -1.44236,-1.479717 -2.62247,-2.730743 -2.62247,-2.78006 0,-0.04932 0.19022,-0.348802 0.42271,-0.665521 0.23249,-0.31672 0.57161,-0.8937 0.75359,-1.282177 0.28553,-0.609537 0.3303,-0.855025 0.32671,-1.791488 -0.006,-1.58576 -0.46865,-2.909265 -1.49308,-4.271999 -0.56677,-0.753942 -0.59284,-0.888811 -0.22203,-1.148539 0.25293,-0.177156 2.15331,-2.045183 10.5422,-10.3627 l 3.39711,-3.368215 0.88325,0.257079 c 0.48579,0.141393 1.88703,0.448597 3.11387,0.682674 2.84091,0.542039 3.80752,0.810522 5.0038,1.389843 1.57553,0.762974 2.80615,2.243828 3.26096,3.924041 0.30754,1.13613 0.18609,1.427733 -1.26712,3.042523 -1.44128,1.601535 -19.10765,19.008919 -19.32521,19.041909 -0.0835,0.0127 -1.33192,-1.18766 -2.77429,-2.66737 z"
     id="path233" />
  <path
     style="fill:#ffe6d5;stroke-width:0.120574"
     d="m 160.54969,79.678927 c -0.51715,-0.548204 -0.83405,-0.999011 -0.91587,-1.302863 -0.0688,-0.255537 -0.17759,-1.545848 -0.24173,-2.867356 -0.13069,-2.692317 -0.35261,-3.817038 -0.98862,-5.010308 -0.45559,-0.854778 -1.74276,-2.105416 -3.09706,-3.009157 -0.50837,-0.339246 -0.93999,-0.631616 -0.95916,-0.64971 -0.0705,-0.06657 10.55414,-10.397656 11.37613,-11.061796 1.00399,-0.811185 1.91298,-1.259348 2.77195,-1.366669 1.40603,-0.175673 4.77107,0.306331 6.75602,0.967723 1.98129,0.660174 4.25976,2.001307 4.77051,2.807984 0.15986,0.25248 0.82616,2.638308 0.82616,2.958236 0,0.02096 -4.3892,4.388271 -9.75378,9.705136 l -9.75379,9.667027 z"
     id="path235" />
  <path
     style="fill:#ffccaa;stroke-width:0.341034"
     d="m 175.11677,38.001683 c -6.82767,-6.994659 -6.90761,-7.090985 -6.67027,-8.036644 0.25628,-1.021091 9.10402,-10.269589 10.53008,-11.00703 2.75347,-1.423873 7.27191,-1.233982 10.88763,0.457561 l 2.03245,0.950842 -2.19027,4.433439 c -1.20465,2.438392 -2.84484,5.507697 -3.64487,6.820677 -1.63957,2.690827 -6.2004,9.055832 -6.91227,9.646635 -0.37146,0.308281 -1.19506,-0.358668 -4.03248,-3.26548 z"
     id="path237" />
  <path
     style="fill:#ffccaa;stroke-width:0.341034"
     d="m 195.96641,56.129162 c -5.08706,-5.0238 -5.55838,-5.588006 -5.11551,-6.123738 0.9003,-1.089088 16.98955,-16.127291 17.87558,-16.707838 1.84054,-1.205971 6.66098,0.498142 10.08561,3.565446 l 1.78162,1.595736 -0.53938,1.043057 c -0.72675,1.40537 -2.18256,3.239788 -10.72851,13.518576 -4.01565,4.829891 -7.40354,8.750296 -7.52864,8.712009 -0.1251,-0.03829 -2.74895,-2.559748 -5.83077,-5.603248 z"
     id="path239" />
  <path
     style="fill:#ffccaa;stroke-width:0.341034"
     d="m 213.55504,80.480546 c -2.2882,-2.901676 -3.28895,-4.446752 -3.28895,-5.077835 0,-0.4989 -0.23679,-2.155316 -0.52619,-3.680923 l -0.52619,-2.773831 4.4903,-5.448654 c 2.46967,-2.996759 4.63548,-5.448654 4.81293,-5.448654 0.34845,0 1.30401,0.626567 7.66645,5.026941 2.2834,1.57924 4.23575,3.09053 4.33854,3.358422 0.19116,0.498145 -12.82776,18.215276 -13.38497,18.215276 -0.16113,0 -1.773,-1.876834 -3.58192,-4.170742 z"
     id="path241" />
  <path
     style="fill:#ffccaa;stroke-width:0.341034"
     d="m 225.75602,102.21123 c -4.46754,-4.817724 -4.34545,-4.617137 -3.65403,-6.003124 0.31204,-0.6255 0.6042,-1.985384 0.64924,-3.021966 0.045,-1.03658 0.0934,-1.975991 0.1075,-2.087577 0.0859,-0.680481 5.22748,-7.129343 5.68412,-7.129343 1.07943,0 4.75514,2.241402 6.75862,4.121323 l 2.02979,1.904602 -1.11247,3.381422 c -0.61186,1.859782 -1.79157,4.666583 -2.62157,6.237335 -1.59853,3.025158 -3.76042,6.181488 -4.23393,6.181488 -0.156,0 -1.77927,-1.61287 -3.60727,-3.58416 z"
     id="path243" />
  <path
     style="fill:#ffccaa;stroke-width:0.341034"
     d="m 150.38742,66.095245 c -3.12153,-0.977324 -4.51279,-2.831061 -5.38106,-7.1698 -0.47874,-2.392264 -0.70979,-2.877494 -1.99248,-4.184455 l -1.45093,-1.478396 9.13469,-9.115864 9.13469,-9.115864 1.65771,1.783946 c 2.93061,3.153768 4.18735,6.967743 4.63756,14.074127 l 0.22686,3.580855 -6.31785,6.053351 c -6.85372,6.566788 -6.71959,6.48933 -9.64919,5.5721 z"
     id="path245" />
  <path
     style="fill:#ffccaa;stroke-width:0.341034"
     d="m 174.45449,87.607654 c -1.77004,-1.188095 -3.24821,-1.592231 -5.82379,-1.592231 h -2.31471 l -2.1531,-2.401597 c -1.1842,-1.320879 -2.19936,-2.533949 -2.25591,-2.695712 -0.0878,-0.251243 16.01138,-15.798932 20.32155,-19.625365 1.38172,-1.226654 1.51108,-1.271638 2.35957,-0.820557 1.98285,1.054134 4.01322,5.474917 5.21504,11.354837 l 0.41097,2.010713 -7.28453,7.284528 -7.28452,7.284527 z"
     id="path247" />
  <path
     style="fill:#ffccaa;stroke-width:0.341034"
     d="m 193.16854,109.31936 c -0.8029,-0.97025 -3.11144,-1.80349 -5.01835,-1.81132 -1.75648,-0.007 -1.90053,-0.0811 -3.87086,-1.98546 l -2.04648,-1.97797 10.3046,-10.128731 c 5.66753,-5.5708 10.43777,-10.128726 10.60053,-10.128726 0.16277,0 0.68645,0.770633 1.16374,1.712519 0.92893,1.833145 1.50514,5.962902 1.52213,10.909219 l 0.009,2.561241 -5.08649,4.853848 c -7.04723,6.7249 -7.00293,6.68985 -7.57762,5.99538 z"
     id="path249" />
  <path
     style="fill:#ffccaa;stroke-width:0.341034"
     d="m 208.65953,127.63351 c -2.03403,-1.86049 -5.39867,-2.12498 -7.87507,-0.61907 -0.61946,0.3767 -1.17571,0.62904 -1.23611,0.56075 -0.0604,-0.0683 -0.97201,-1.11928 -2.0258,-2.33554 l -1.91598,-2.21138 9.63173,-9.72004 c 5.29746,-5.34603 9.82132,-9.72219 10.05302,-9.72481 0.65226,-0.007 3.21599,3.628 4.87204,6.90856 1.09399,2.16716 1.53242,3.47776 1.63423,4.88527 l 0.13913,1.92354 -5.69532,5.58667 c -3.13242,3.07267 -5.87341,5.62289 -6.09109,5.66715 -0.21768,0.0443 -0.88853,-0.37024 -1.49078,-0.9211 z"
     id="path251" />
  <path
     style="fill:#ffccaa;stroke-width:0.341034"
     d="m 47.195968,135.20955 c -1.647525,-2.189 -1.990253,-2.91562 -1.990253,-4.21955 0,-0.98311 0.70709,-1.82069 6.192674,-7.33545 7.080246,-7.11791 6.298517,-6.82192 9.771233,-3.69965 l 1.768268,1.58982 -6.504176,6.70453 c -3.577297,3.68749 -6.756066,7.12656 -7.063931,7.64237 -0.307865,0.51581 -0.648597,0.93784 -0.757182,0.93784 -0.108584,0 -0.746069,-0.72896 -1.416633,-1.61991 z"
     id="path253" />
  <path
     style="fill:#ffccaa;stroke-width:0.341034"
     d="m 135.37564,90.313953 c -0.30616,-0.797836 0.0282,-2.211037 1.23769,-5.231672 2.06527,-5.157776 3.83739,-7.607904 9.46649,-13.088338 3.56827,-3.474033 5.45211,-5.07405 5.96809,-5.068924 1.23842,0.0123 3.4567,1.188569 4.74699,2.517142 1.32757,1.366955 1.82898,2.868682 2.13178,6.384685 l 0.19455,2.259157 -4.08017,3.702689 c -2.2441,2.036479 -5.00308,4.260734 -6.13108,4.942789 -4.5685,2.762385 -12.99331,4.99239 -13.53434,3.582472 z"
     id="path255" />
  <path
     style="fill:#ffccaa;stroke-width:0.341034"
     d="m 155.74105,106.35832 c -0.6918,-0.74355 -0.78806,-1.12424 -0.64932,-2.56809 0.0896,-0.93233 0.56534,-2.51233 1.05724,-3.51111 0.95848,-1.946135 5.22527,-7.579348 8.62702,-11.389781 1.97701,-2.214527 2.17857,-2.345899 3.92189,-2.556194 l 1.83777,-0.221688 -2.21672,-0.05685 -2.21672,-0.05685 -2.04559,-2.376546 c -1.12507,-1.307101 -2.09045,-2.511173 -2.1453,-2.675716 -0.18856,-0.565683 21.16296,-20.848651 21.947,-20.848651 1.04704,0 2.84375,2.121053 3.83759,4.53034 1.13652,2.75517 2.55418,8.122292 2.38519,9.030072 -0.0607,0.325871 -3.35166,3.791595 -7.31333,7.70161 l -7.20303,7.109118 -1.32651,-0.877841 c -0.72958,-0.482812 -1.86112,-0.964947 -2.51455,-1.071409 l -1.18803,-0.19357 1.23281,0.471171 c 2.69011,1.028136 5.30596,3.724966 5.64608,5.820866 0.33583,2.069528 -0.40238,3.368158 -3.73888,6.577235 -1.72701,1.661044 -3.99766,3.604024 -5.04589,4.317724 -2.2913,1.56005 -7.21191,3.29757 -10.03031,3.5418 -1.8717,0.16219 -2.11546,0.10287 -2.85841,-0.69565 z"
     id="path257" />
  <path
     style="fill:#ffccaa;stroke-width:0.341034"
     d="m 177.04016,127.08615 c -1.46059,-1.46059 -1.08142,-4.35088 1.1694,-8.91391 1.95049,-3.95422 5.10415,-8.1417 7.02632,-9.32966 0.71507,-0.44194 1.92034,-0.90548 2.67838,-1.03009 l 1.37825,-0.22656 -1.54533,-0.0427 c -1.4124,-0.039 -1.718,-0.21718 -3.55269,-2.07121 l -2.00736,-2.02853 8.66819,-8.471818 c 4.76751,-4.659498 9.48671,-9.227668 10.48712,-10.151488 l 1.81892,-1.679673 0.62572,0.829539 c 1.22029,1.617774 1.7429,4.106817 1.94866,9.280795 0.16,4.023661 0.10488,5.13322 -0.27805,5.596252 -0.2627,0.317647 -2.98456,2.943653 -6.0486,5.835563 -5.02815,4.7457 -5.62628,5.20962 -6.13861,4.76115 -0.76487,-0.66953 -2.64596,-1.60538 -3.19371,-1.58888 -0.24378,0.007 0.0291,0.21901 0.60638,0.47038 1.54148,0.67122 3.58898,2.58515 4.1167,3.84817 0.25341,0.6065 0.46075,1.92541 0.46075,2.9309 0,1.46303 -0.20552,2.13846 -1.029,3.38168 -1.36124,2.0551 -6.07076,6.5288 -7.80356,7.4128 -3.03125,1.54643 -8.35539,2.21977 -9.38788,1.18728 z"
     id="path259" />
  <path
     style="fill:#ffccaa;stroke-width:0.341034"
     d="m 187.58181,147.93854 c -1.50734,-1.50734 -1.12451,-2.28809 4.12463,-8.41195 1.71123,-1.9964 3.58598,-4.45584 4.16609,-5.46544 1.26999,-2.21021 3.99813,-5.62092 5.21517,-6.51998 1.04409,-0.7713 3.18993,-1.11842 4.91421,-0.79494 1.64332,0.30829 3.83441,2.33151 4.82591,4.45618 1.34423,2.88051 0.97703,4.13706 -1.99695,6.83354 -4.21346,3.82029 -15.45766,10.18459 -18.7439,10.60918 -1.41494,0.18281 -1.69465,0.10392 -2.50516,-0.70659 z"
     id="path261" />
  <path
     style="fill:#ff9955;stroke-width:0.341034"
     d="m 127.85936,217.44135 c -1.14042,-0.40431 -4.44503,-3.55652 -17.22221,-16.42796 C 95.922363,186.19006 63.779456,153.30857 53.46146,142.52391 l -4.503405,-4.70709 0.538055,-1.04048 c 0.721665,-1.39555 4.674641,-5.52068 22.580107,-23.56347 9.56665,-9.64002 15.388053,-15.261263 15.804691,-15.261263 0.362768,0 2.380781,0.680441 4.484472,1.51209 5.218745,2.063123 9.28327,3.195873 13.06978,3.642443 2.82591,0.33327 3.58085,0.2955 6.68971,-0.33472 7.71031,-1.56302 11.02981,-3.240105 15.16688,-7.662648 1.65031,-1.764181 2.30728,-2.810841 3.17234,-5.054003 1.23601,-3.205069 2.03164,-6.601432 2.04036,-8.709824 0.005,-1.321733 0.15111,-1.548925 1.91287,-2.984046 1.04883,-0.854364 2.03854,-1.553389 2.19937,-1.553389 0.16083,0 0.70656,0.542972 1.21273,1.206605 l 0.92033,1.206604 -1.39982,2.97106 c -1.96972,4.180661 -3.0063,7.501445 -2.56239,8.208876 0.94724,1.509572 3.52779,1.214306 10.00005,-1.144207 l 3.23982,-1.180602 4.5829,4.577335 4.58289,4.577334 -1.31426,2.662524 c -1.75212,3.549571 -1.87121,5.871441 -0.36754,7.165741 0.87343,0.75181 1.22909,0.84085 2.72828,0.68302 0.94815,-0.0998 3.19771,-0.65532 4.99901,-1.23446 1.8013,-0.57914 3.48942,-1.03912 3.75137,-1.02216 0.46805,0.0303 10.59134,10.54868 10.82871,11.25133 0.0668,0.19768 -0.26957,1.23139 -0.74743,2.29715 -1.71372,3.82198 -1.8956,6.48836 -0.56285,8.25123 0.56604,0.74871 0.87559,0.84156 2.63889,0.79156 1.0987,-0.0312 3.37043,-0.38666 5.04828,-0.79001 l 3.05064,-0.73335 1.97374,2.15414 1.97374,2.15414 -1.32156,1.23955 c -0.93029,0.87256 -1.76706,1.3093 -2.82632,1.47517 -4.49444,0.70379 -5.10113,1.03755 -8.91547,4.90473 -3.36115,3.4077 -3.67363,3.84459 -5.00422,6.9965 -2.26076,5.35533 -2.88592,8.01648 -2.85553,12.15521 0.0459,6.25219 1.6268,11.75023 4.69795,16.33856 l 1.78486,2.6666 -9.05749,8.48696 c -15.13616,14.18272 -24.51368,22.87402 -30.20435,27.99409 -5.16522,4.64732 -5.48614,4.87551 -6.82067,4.84985 -0.77024,-0.0148 -2.03547,-0.25207 -2.81162,-0.52724 z"
     id="path263" />
  <path
     style="fill:#ff9955;stroke-width:0.341034"
     d="m 117.33437,222.46119 c -1.20552,-0.515 -60.123377,-58.47189 -67.205333,-66.1092 -2.967103,-3.19978 -3.559187,-4.01867 -3.559187,-4.92258 0,-1.73591 1.169649,-3.68476 3.744148,-6.23845 l 2.400473,-2.38108 2.185593,2.21056 c 1.202076,1.2158 17.623046,17.93269 36.491044,37.14863 l 34.305452,34.93808 -1.28231,1.32587 c -3.4356,3.55233 -5.47611,4.7133 -7.07988,4.02817 z"
     id="path265" />
  <path
     style="fill:#ff9955;stroke-width:0.341034"
     d="M 97.084616,237.53785 C 95.616496,236.80909 93.047103,234.38668 70.442218,212.41949 43.87918,186.60582 30.89719,173.66869 30.677105,172.7918 c -0.105242,-0.41931 0.06062,-1.24964 0.368572,-1.84516 0.624956,-1.20853 15.416838,-16.38342 15.969911,-16.38342 0.193384,0 6.042249,5.64386 12.997478,12.54191 6.955228,6.89805 19.782005,19.58548 28.503945,28.1943 8.72194,8.60881 18.443389,18.2117 21.603219,21.33976 l 5.74513,5.68737 -6.91153,7.06049 c -3.80135,3.88327 -7.30745,7.3402 -7.79134,7.68206 -1.356373,0.95824 -2.76547,1.12021 -4.077874,0.46874 z"
     id="path267" />
  <path
     style="fill:#ff9955;stroke-width:0.341034"
     d="m 38.854496,218.97819 c -7.398735,-7.38673 -13.538281,-13.76756 -13.643436,-14.17963 -0.453975,-1.77897 0.48666,-3.00243 8.010787,-10.41941 4.084646,-4.02648 7.846927,-7.59626 8.360625,-7.93285 l 0.933998,-0.61198 5.35177,5.26224 c 2.943473,2.89423 9.31423,9.13915 14.157236,13.8776 4.843008,4.73844 8.756371,8.72428 8.696363,8.85741 -0.06001,0.13313 -2.937601,2.9277 -6.394651,6.21015 -3.457049,3.28245 -6.526355,6.41767 -6.820676,6.96716 -0.684886,1.27867 -2.932976,3.78561 -4.210429,4.69524 l -0.989341,0.70447 z"
     id="path269" />
  <path
     style="fill:#ff9955;stroke-width:0.341034"
     d="m 74.884228,246.72761 c -2.353138,-2.3915 -7.154345,-7.40699 -10.669348,-11.14553 -4.862333,-5.17156 -6.391336,-7.00685 -6.392679,-7.67326 -0.0014,-0.68111 1.117353,-1.96311 5.030249,-5.76442 2.767608,-2.68868 5.844143,-5.59029 6.836745,-6.44803 l 1.804731,-1.55952 4.333878,4.22319 c 10.025279,9.76923 19.16885,18.8551 19.16885,19.04788 0,0.21517 -6.774337,6.93205 -11.303028,11.20717 -3.654116,3.44951 -3.532354,3.4756 -8.809398,-1.88748 z"
     id="path271" />
  <path
     style="fill:#ff9955;stroke-width:0.341034"
     d="m 60.839148,118.49973 c -3.572468,-3.63616 -4.865942,-5.46347 -5.751906,-8.12579 -0.707062,-2.12472 -0.722451,-2.35382 -0.227793,-3.39113 0.291773,-0.61185 1.432799,-2.08848 2.535613,-3.2814 6.203341,-6.710188 8.069502,-9.279005 11.609536,-15.980818 2.391684,-4.527814 3.335478,-6.833575 6.231681,-15.224469 3.358855,-9.731295 3.585934,-10.080929 7.079274,-10.90001 2.133419,-0.500221 3.814221,-0.105749 3.814221,0.895172 0,0.902467 -1.602305,2.667505 -3.030514,3.338299 -1.208992,0.567833 -1.234375,0.620756 -1.335919,2.785312 -0.130146,2.774253 0.900909,6.157412 2.695612,8.845 0.704946,1.055666 3.479416,4.175684 6.165487,6.933376 3.668999,3.766826 5.298318,5.195052 6.550407,5.741935 l 1.666646,0.727951 -3.744016,3.744016 -3.744016,3.744016 -1.821158,-0.540825 c -1.001637,-0.297453 -1.903387,-0.540825 -2.003892,-0.540825 -0.100505,0 -5.562259,5.37166 -12.137232,11.93702 l -11.954495,11.93702 z"
     id="path273" />
  <path
     style="fill:#ff9955;stroke-width:0.170517"
     d="m 97.657611,89.643086 c -0.844058,-0.3983 -1.995047,-1.074396 -2.557753,-1.502436 -1.999447,-1.520943 -7.57107,-7.456006 -9.764676,-10.401631 -1.889708,-2.537544 -3.132014,-5.929865 -3.171233,-8.659573 -0.02946,-2.05043 0.147834,-2.361629 1.754804,-3.080163 0.886237,-0.396268 1.296907,-0.700801 1.697751,-1.258966 1.328475,-1.849868 2.503835,-5.106555 4.777701,-13.238049 1.925802,-6.886791 2.540911,-8.480928 3.519948,-9.122418 0.425316,-0.278677 0.480684,-0.278908 0.990912,-0.0041 0.297234,0.160071 2.189141,1.831926 4.204239,3.715234 4.646496,4.342603 6.571676,5.965283 9.089516,7.661263 2.14007,1.441528 4.21293,2.509086 6.75672,3.479833 2.77004,1.057088 3.34404,1.150222 6.70102,1.087273 l 3.02537,-0.05673 1.70648,1.70007 c 0.93856,0.935038 1.70647,1.78595 1.70647,1.890915 0,0.157526 -24.51365,24.381924 -27.87951,27.550549 l -1.023106,0.963148 z"
     id="path277" />
  <path
     style="fill:#ff9955;stroke-width:0.170517"
     d="m 103.28467,102.35705 c -3.24386,-0.59715 -10.998341,-3.153136 -10.998341,-3.625207 0,-0.250118 11.455341,-11.661018 29.580011,-29.465266 l 16.02392,-15.740629 1.19829,0.105041 c 1.63812,0.143595 2.34306,0.368068 3.1939,1.017029 1.30827,0.99785 1.82807,2.216832 2.51406,5.895726 0.51342,2.75343 1.64031,4.265715 4.14223,5.558823 0.72581,0.375137 1.32049,0.757042 1.3215,0.848678 10e-4,0.09164 -2.22795,2.386399 -4.95326,5.099473 -2.7253,2.713073 -5.18616,5.268709 -5.46858,5.679191 l -0.51349,0.746328 -1.28411,-1.199214 c -0.70626,-0.65957 -1.43209,-1.199217 -1.61297,-1.199217 -0.33064,0 -3.9455,3.189568 -4.21839,3.722082 -0.0803,0.156786 -0.19322,1.052392 -0.25084,1.990235 -0.12774,2.079261 -0.51274,3.724133 -1.7561,7.502744 l -0.95385,2.898787 -3.01194,2.98869 c -4.15399,4.121932 -5.02353,4.654167 -9.86993,6.041276 -3.81398,1.09162 -5.14747,1.31139 -8.3929,1.38326 -2.38276,0.0528 -3.32763,0.003 -4.68921,-0.24783 z"
     id="path279" />
  <path
     style="fill:#ff9955;stroke-width:0.170517"
     d="m 156.36926,95.440241 c -1.37966,-1.217688 -5.59282,-5.637152 -6.65481,-6.980669 l -0.6755,-0.854569 0.48344,-0.349686 c 0.95397,-0.690045 4.43212,-3.765466 9.10801,-8.053416 l 0.43928,-0.402837 2.80054,3.099625 c 1.5403,1.704794 3.12635,3.46407 3.52456,3.909503 l 0.72401,0.809877 -1.91763,2.106114 c -2.12883,2.33806 -3.63058,4.132677 -5.2119,6.228311 -0.57966,0.768187 -1.12489,1.440559 -1.21162,1.494159 -0.0867,0.0536 -0.7205,-0.399284 -1.40838,-1.006412 z"
     id="path281" />
  <path
     style="fill:#ff9955;stroke-width:0.170517"
     d="m 176.60307,114.40148 c -2.14686,-2.18973 -8.77819,-9.35802 -8.77573,-9.48632 0.001,-0.0579 0.43204,-0.40382 0.95762,-0.76874 1.66472,-1.15583 3.49593,-2.69093 5.3981,-4.525207 l 1.84419,-1.778355 1.53853,1.52258 c 0.84619,0.837422 3.00314,3.041432 4.79322,4.897812 l 3.2547,3.37523 -2.29649,2.33709 c -2.7172,2.76521 -3.67578,3.89759 -4.32406,5.10798 -0.2637,0.49237 -0.56141,0.89521 -0.66157,0.89521 -0.10016,0 -0.87799,-0.70977 -1.72851,-1.57728 z"
     id="path283" />
  <path
     style="fill:#ff9955;stroke-width:0.170517"
     d="m 176.58598,175.28894 c -3.82337,-4.47981 -6.16223,-12.2235 -5.80217,-19.21028 0.17028,-3.30416 0.73411,-5.32547 2.95806,-10.60455 l 1.1599,-2.7533 2.76598,-2.97976 c 4.12018,-4.43862 4.98083,-4.98354 8.67863,-5.49491 2.35354,-0.32548 2.92008,-0.57669 4.08983,-1.81352 1.39153,-1.47134 1.39586,-1.49589 0.46676,-2.64775 -0.43873,-0.5439 -1.30856,-1.56441 -1.93296,-2.26779 -0.6244,-0.70339 -1.18564,-1.36543 -1.2472,-1.47122 -0.0643,-0.11051 0.18184,-0.38675 0.57858,-0.6493 0.37979,-0.25133 1.55724,-1.29658 2.61655,-2.32279 1.05932,-1.0262 1.97198,-1.86582 2.02813,-1.86582 0.19781,0 6.25436,6.76425 6.25436,6.98518 0,0.0685 -0.51545,0.80763 -1.14545,1.64255 -0.63,0.83491 -1.67535,2.36208 -2.32299,3.39371 -1.35305,2.15528 -2.07936,3.1072 -4.92349,6.45285 -2.40808,2.83272 -3.59445,4.45341 -4.18231,5.71344 -0.79779,1.71 -0.22864,3.13198 1.43893,3.59505 0.83297,0.23131 2.36088,0.2317 3.43716,8.5e-4 1.90274,-0.40806 8.93707,-4.22906 13.28566,-7.21667 2.7555,-1.89311 3.45085,-2.31524 3.81975,-2.31888 0.35178,-0.003 2.67016,2.49577 2.80813,3.02718 0.30458,1.17319 -0.40997,1.88638 -23.874,23.82839 -5.61506,5.25084 -10.25739,9.55919 -10.31627,9.57411 -0.0589,0.0149 -0.34669,-0.25364 -0.63957,-0.59681 z"
     id="path285" />
  <path
     style="fill:#ff9955;stroke-width:0.170517"
     d="m 118.11964,57.579066 c -2.59435,-0.483939 -6.45316,-2.231854 -9.57993,-4.339388 -2.77539,-1.870704 -4.72362,-3.536444 -11.032836,-9.433131 l -1.514872,-1.415821 1.286555,-1.700174 C 99.934999,37.18008 106.8102,29.025384 108.54607,27.326129 l 0.94154,-0.921682 0.47938,0.311137 c 0.26367,0.171125 2.24424,2.049293 4.40128,4.173707 4.43122,4.364195 6.14118,5.862825 10.90452,9.556813 1.83925,1.426348 3.41847,2.732344 3.50938,2.902213 0.0909,0.169871 0.1653,0.473471 0.1653,0.674669 0,0.75802 -3.69692,11.147213 -4.6166,12.973713 -0.30514,0.606019 -0.32519,0.614968 -1.62328,0.724697 -1.8566,0.15694 -3.20841,0.115003 -4.58795,-0.14233 z"
     id="path287" />
  <path
     style="fill:#ff9955;stroke-width:0.170517"
     d="m 127.8454,41.502069 c -0.40642,-0.09494 -4.3712,-3.089756 -6.48594,-4.899172 -2.56817,-2.197394 -6.37183,-5.736958 -8.42103,-7.836356 -1.80195,-1.846078 -1.9183,-2.005083 -1.61991,-2.213614 0.17681,-0.123568 2.70019,-1.545602 5.6075,-3.160075 6.56833,-3.647484 8.55143,-4.847039 13.38558,-8.096751 2.11015,-1.418528 4.18762,-2.748994 4.6166,-2.956592 l 0.77996,-0.37745 1.32158,0.338001 c 0.72686,0.185901 1.70554,0.546982 2.17483,0.802402 1.04717,0.569945 4.67223,3.899008 5.60202,5.144603 1.20806,1.61839 0.94354,2.656 -1.72961,6.784554 -4.04621,6.249179 -10.66357,14.899355 -11.96895,15.645749 -1.07407,0.614123 -2.55818,0.989267 -3.26263,0.824701 z"
     id="path289" />
  <path
     style="fill:#ff9955;stroke-width:0.170517"
     d="m 181.38,60.518138 c -0.0418,-0.117231 -0.25341,-0.787719 -0.47028,-1.489972 -0.36363,-1.177462 -0.47249,-1.339806 -1.3989,-2.086141 -2.05743,-1.657496 -4.75134,-2.632884 -8.40135,-3.041879 -1.28688,-0.144199 -2.0305,-0.14613 -2.8275,-0.0073 -0.59476,0.103567 -1.16179,0.18831 -1.26006,0.18831 -0.10914,0 -0.22384,-0.846086 -0.29473,-2.17409 -0.46089,-8.633981 -1.58796,-12.057064 -5.2692,-16.003481 l -1.28881,-1.381654 2.00098,-1.976333 c 1.10054,-1.086983 2.2143,-2.05744 2.47504,-2.156571 0.26073,-0.09913 0.83559,-0.180239 1.27745,-0.180239 h 0.80339 l 0.26983,1.586106 c 0.1484,0.872359 0.39568,1.850699 0.54951,2.174091 0.15382,0.323391 1.04609,1.542516 1.98281,2.709165 1.81181,2.256525 2.62945,3.663507 3.72197,6.404665 1.09829,2.755643 0.92231,2.53964 2.6522,3.255456 1.99469,0.825393 2.95599,1.387519 6.50217,3.802185 1.59433,1.085616 3.28245,2.103901 3.75137,2.262855 l 0.85258,0.289009 0.0502,1.211644 0.0502,1.211642 -2.68671,2.807856 c -1.47769,1.544318 -2.7496,2.807854 -2.82646,2.807854 -0.0769,0 -0.17395,-0.09592 -0.21573,-0.213146 z"
     id="path291" />
  <path
     style="fill:#ff9955;stroke-width:0.170517"
     d="m 182.64431,45.938942 c -1.46432,-1.477103 -2.7969,-2.895656 -2.96128,-3.15234 -0.28791,-0.449588 -0.28585,-0.488756 0.0561,-1.068288 0.19522,-0.330875 1.21871,-1.770612 2.27441,-3.199416 3.49253,-4.726814 5.19694,-7.473816 7.43083,-11.976255 1.80068,-3.629299 2.79062,-5.371283 3.05242,-5.371283 0.3746,0 2.83238,2.603476 3.33968,3.537658 1.07591,1.981261 1.49041,5.646464 0.8735,7.723847 -0.72181,2.430587 -6.27201,12.34472 -8.3701,14.951221 -0.43868,0.544986 -0.79316,0.783774 -1.45552,0.980472 -0.48158,0.143013 -1.03355,0.260025 -1.2266,0.260025 -0.22678,0 -1.29328,-0.950497 -3.01342,-2.685641 z"
     id="path293" />
  <path
     style="fill:#ff9955;stroke-width:0.170517"
     d="m 194.64522,22.18029 c -3.54721,-3.227039 -6.17686,-4.480806 -9.85347,-4.697944 -3.98039,-0.235079 -5.62123,0.393614 -9.16528,3.511728 -1.28953,1.134552 -2.34461,1.955346 -2.34461,1.823986 0,-0.636653 0.88943,-3.630478 1.3124,-4.417561 0.58686,-1.092045 3.84669,-4.500936 5.28944,-5.5313 1.73039,-1.235789 2.6347,-1.485986 5.33435,-1.475849 3.69293,0.01387 5.24446,0.580131 7.52025,2.74468 1.58175,1.504437 2.21622,2.6941 2.78919,5.229822 0.42316,1.87273 0.71394,4.020228 0.54436,4.020228 -0.0545,0 -0.69643,-0.543506 -1.42663,-1.20779 z"
     id="path295" />
  <path
     style="fill:#ff9955;stroke-width:0.170517"
     d="m 224.27047,42.954896 c -1.58118,-4.403511 -7.3892,-9.323335 -12.40324,-10.506469 -0.73008,-0.172274 -1.31108,-0.366075 -1.2911,-0.43067 0.11306,-0.365541 8.49663,-7.893642 9.20301,-8.263922 1.09985,-0.576536 2.30831,-0.01159 4.46421,2.087003 1.96078,1.908661 3.20727,3.618598 3.35046,4.59615 0.0741,0.506041 -0.11513,1.761331 -0.6597,4.375725 -1.08469,5.20736 -2.02423,9.207913 -2.16251,9.207913 -0.0652,0 -0.29066,-0.479579 -0.50113,-1.06573 z"
     id="path297" />
  <path
     style="fill:#ff9955;stroke-width:0.170517"
     d="m 205.38167,65.441263 c -1.61778,-1.630549 -2.94016,-3.031225 -2.93862,-3.112611 0.002,-0.08139 3.63443,-4.494989 8.07308,-9.808006 7.85272,-9.399619 9.33244,-11.301803 10.04519,-12.91309 l 0.34375,-0.777106 0.6623,0.762031 c 1.74208,2.004416 2.37143,3.492251 2.48698,5.879457 0.0974,2.012895 -0.12366,3.263024 -0.82053,4.639463 -0.60155,1.188152 -2.90029,4.267944 -7.03572,9.426264 -5.75247,7.175325 -7.17542,8.848464 -7.53398,8.858596 -0.22206,0.0063 -1.36716,-1.024595 -3.28245,-2.954998 z"
     id="path299" />
  <path
     style="fill:#ff9955;stroke-width:0.170517"
     d="m 203.42304,81.765594 c -0.0455,-0.08029 -0.24364,-0.68416 -0.4402,-1.341927 -0.86901,-2.907941 -2.4509,-4.06482 -7.01471,-5.130053 -0.98887,-0.23081 -2.48854,-0.580477 -3.3326,-0.777035 -0.84406,-0.19656 -1.6299,-0.445716 -1.74632,-0.553681 -0.11642,-0.107964 -0.36481,-1.046776 -0.55199,-2.086248 -0.43769,-2.430758 -1.7351,-6.790539 -2.48954,-8.365815 -0.44049,-0.91976 -0.93449,-1.571842 -1.96996,-2.600383 -0.76013,-0.755033 -1.44971,-1.372787 -1.53241,-1.372787 -0.35898,0 -0.0505,-0.392244 1.52921,-1.944249 l 1.67957,-1.65015 0.10027,-2.122011 c 0.0946,-2.002531 0.31922,-2.969608 0.71825,-3.092576 0.0938,-0.0289 0.374,0.31073 0.6227,0.754735 0.24871,0.444005 1.45222,2.050999 2.67448,3.571097 4.29348,5.339709 4.88315,6.563352 5.08743,10.556959 l 0.10571,2.066658 1.12612,0.105543 c 1.33833,0.125432 3.35554,0.662958 4.34075,1.156684 0.389,0.194938 1.32113,0.795591 2.0714,1.334784 2.27024,1.63154 2.717,1.776413 3.9235,1.272305 0.35204,-0.147093 0.69829,-0.204642 0.76945,-0.127887 0.0711,0.07675 0.25589,0.895686 0.41054,1.81985 l 0.28118,1.680298 -0.41038,0.536422 c -0.38197,0.499302 -4.34029,4.875819 -5.39812,5.968433 -0.25933,0.267862 -0.50878,0.421327 -0.55433,0.341034 z"
     id="path301" />
  <path
     style="fill:#ff9955;stroke-width:0.170517"
     d="m 221.63459,90.593293 c -0.1561,-0.238238 -1.03538,-1.370044 -1.95395,-2.515124 -0.91857,-1.145079 -1.75501,-2.242434 -1.85877,-2.438564 -0.16784,-0.31728 0.27581,-0.975727 4.02317,-5.970963 4.4191,-5.890681 6.3076,-8.369945 8.27525,-10.863941 0.97685,-1.238149 1.22551,-1.464171 1.40699,-1.278877 0.27878,0.28463 1.7743,3.285395 2.35761,4.73054 0.24311,0.602321 0.44203,1.309133 0.44203,1.570694 0,0.589782 -0.83969,1.832888 -5.31583,7.869764 -1.89239,2.552231 -4.21368,5.692453 -5.15842,6.978275 -0.94474,1.285822 -1.76644,2.340896 -1.82599,2.344608 -0.0596,0.0037 -0.23599,-0.188173 -0.39209,-0.426412 z"
     id="path303" />
  <path
     style="fill:#ff9955;stroke-width:0.170517"
     d="m 232.42992,108.9084 c -1.11705,-1.16002 -2.10062,-2.22765 -2.18572,-2.37251 -0.11527,-0.19623 0.30252,-0.95702 1.63871,-2.98405 2.7208,-4.127522 4.0796,-7.03411 5.27725,-11.288494 0.27051,-0.960936 0.53845,-1.747445 0.59543,-1.747798 0.18995,-0.0012 2.48394,2.634448 2.76168,3.172972 0.35367,0.685728 1.1861,5.151131 1.19323,6.40077 0.004,0.70589 -0.115,1.20709 -0.44543,1.87569 -0.49216,0.99585 -6.29007,8.88118 -6.60808,8.98719 -0.10784,0.0359 -1.11002,-0.88375 -2.22707,-2.04377 z"
     id="path305" />
  <path
     style="fill:#ff9955;stroke-width:0.170517"
     d="m 215.99635,99.797464 c -0.75027,-0.227548 -2.74532,-0.687083 -4.43344,-1.021189 -1.68812,-0.334105 -3.5297,-0.699552 -4.09241,-0.812105 l -1.0231,-0.204641 -0.10938,-1.021928 c -0.0602,-0.562062 -0.11834,-2.096187 -0.12929,-3.409167 -0.038,-4.555138 -0.42298,-6.588213 -1.7406,-9.191596 l -0.85752,-1.694314 2.69528,-2.699228 c 1.4824,-1.484575 2.73674,-2.699227 2.78743,-2.699227 0.0945,0 0.43525,1.017579 2.97537,8.884449 l 1.4647,4.536269 0.96498,0.664497 c 0.53075,0.365474 1.56449,1.214859 2.29722,1.887523 1.53974,1.413522 2.11681,1.658398 3.93182,1.668449 1.51141,0.0084 1.61561,0.140245 0.88905,1.125174 -0.74148,1.00515 -3.9059,4.42169 -4.08546,4.41095 -0.0938,-0.006 -0.78438,-0.19637 -1.53465,-0.423916 z"
     id="path307" />
  <path
     style="fill:#ff9955;stroke-width:0.170517"
     d="m 230.64755,121.47162 c -0.29649,-1.18131 -2.82537,-2.72328 -6.32846,-3.85875 l -1.73776,-0.56327 -0.11094,-1.11802 c -0.061,-0.61491 -0.22532,-1.57841 -0.36511,-2.14112 -0.67754,-2.72741 -3.42801,-7.63492 -5.55108,-9.90449 l -0.98565,-1.05366 1.55032,-1.47533 c 2.08683,-1.985887 2.25586,-2.091219 2.79207,-1.739884 0.65154,0.426904 3.60579,3.463154 4.71984,4.850854 1.03839,1.29345 2.08516,3.3094 3.03405,5.84325 l 0.5489,1.46573 3.40507,3.28641 c 1.87279,1.80753 3.38254,3.34905 3.355,3.4256 -0.0934,0.25967 -3.79712,3.40108 -4.00985,3.40108 -0.11626,0 -0.25864,-0.18828 -0.3164,-0.4184 z"
     id="path309" />
</svg>
