<?xml version="1.0" encoding="UTF-8" standalone="no"?>
<svg
   xmlns:dc="http://purl.org/dc/elements/1.1/"
   xmlns:cc="http://creativecommons.org/ns#"
   xmlns:rdf="http://www.w3.org/1999/02/22-rdf-syntax-ns#"
   xmlns:svg="http://www.w3.org/2000/svg"
   xmlns="http://www.w3.org/2000/svg"
   xmlns:sodipodi="http://sodipodi.sourceforge.net/DTD/sodipodi-0.dtd"
   xmlns:inkscape="http://www.inkscape.org/namespaces/inkscape"
   cursor="default"
   viewBox="0 0 256 256"
   version="1.1"
   id="svg50"
   sodipodi:docname="powersword.svg"
   inkscape:version="1.0.2-2 (e86c870879, 2021-01-15)">
  <metadata
     id="metadata56">
    <rdf:RDF>
      <cc:Work
         rdf:about="">
        <dc:format>image/svg+xml</dc:format>
        <dc:type
           rdf:resource="http://purl.org/dc/dcmitype/StillImage" />
      </cc:Work>
    </rdf:RDF>
  </metadata>
  <defs
     id="defs54" />
  <sodipodi:namedview
     pagecolor="#ffffff"
     bordercolor="#666666"
     borderopacity="1"
     objecttolerance="10"
     gridtolerance="10"
     guidetolerance="10"
     inkscape:pageopacity="0"
     inkscape:pageshadow="2"
     inkscape:window-width="1920"
     inkscape:window-height="1017"
     id="namedview52"
     showgrid="false"
     inkscape:zoom="2.162708"
     inkscape:cx="180.55606"
     inkscape:cy="163.09599"
     inkscape:window-x="-8"
     inkscape:window-y="-8"
     inkscape:window-maximized="1"
     inkscape:current-layer="svg50"
     inkscape:document-rotation="0" />
  <path
     style="fill:#000000;stroke-width:0.228034"
     d="m 4.4436709,246.93424 c -0.1304554,-0.30428 -0.063279,-0.89864 0.159308,-1.41026 0.3380848,-0.77707 0.3180347,-0.97795 -0.165324,-1.65681 -0.3606014,-0.50653 -0.5503098,-1.13608 -0.5508219,-1.82831 l -7.68e-4,-1.0558 2.5545043,-2.55695 c 2.2550557,-2.25738 2.652486,-2.58083 3.3909233,-2.76044 0.4600434,-0.11191 1.0578054,-0.0712 1.3283394,0.0906 l 0.491929,0.294 2.049648,-2.19582 c 1.127319,-1.20771 10.138734,-10.65022 20.02538,-20.98336 9.886647,-10.33314 19.541722,-20.45039 21.455727,-22.48278 l 3.480007,-3.69524 -1.067044,-1.07032 c -0.586999,-0.58855 -1.180369,-1.26589 -1.318602,-1.50519 -0.301852,-0.52257 -0.0109,-1.40001 0.700549,-2.1125 0.286294,-0.2867 0.570928,-0.80859 0.63251,-1.1597 0.201467,-1.1484 -0.386705,-2.10628 -3.174335,-5.16971 -1.72172,-1.89204 -2.918103,-3.38977 -3.509951,-4.39396 -1.965535,-3.33499 -6.623888,-14.8401 -7.321651,-18.08291 -0.436783,-2.02953 -0.654691,-7.49039 -0.312638,-7.83294 0.188411,-0.1887 2.092039,1.64223 12.159234,11.69471 L 67.386455,168.97896 138.863,97.511856 c 73.52675,-73.517045 72.78854,-72.790522 79.43774,-78.18012 4.98547,-4.041046 7.95282,-5.923299 12.2013,-7.739537 5.40377,-2.3101627 17.93207,-5.9977111 18.48866,-5.4419107 0.40492,0.4043099 -2.32837,9.5199957 -4.543,15.1512507 -2.68615,6.830139 -5.38326,11.085585 -12.1214,19.124872 -5.85363,6.984008 -7.75696,8.918509 -77.17411,78.437239 l -69.173737,69.27496 1.234895,1.10306 c 2.614955,2.33583 23.077922,22.62457 23.028922,22.83285 -0.0821,0.34857 -5.96906,0.1264 -7.96826,-0.3007 -3.254499,-0.69533 -14.761073,-5.33325 -18.10545,-7.29775 -1.005042,-0.59039 -2.504529,-1.78459 -4.399082,-3.50352 -3.067508,-2.78315 -4.02624,-3.36993 -5.174348,-3.16678 -0.351031,0.0621 -0.872483,0.34749 -1.158777,0.63421 -1.239497,1.24132 -1.9154,1.09224 -3.862349,-0.85186 l -1.028689,-1.02718 -24.007921,24.04305 -24.007908,24.04305 0.333333,0.33284 c 0.544846,0.54404 0.656832,1.28301 0.319273,2.10681 -0.231113,0.56402 -1.055925,1.51422 -3.033665,3.49487 -2.670487,2.67439 -2.729106,2.71978 -3.478598,2.69697 -0.47697,-0.0147 -1.071863,-0.26966 -1.589107,-0.68151 -0.72025,-0.57346 -0.919631,-0.62004 -1.54778,-0.36157 -1.470444,0.60503 -1.5691502,0.55415 -4.3438581,-2.23901 -1.3854228,-1.39549 -2.6211324,-2.77319 -2.7451502,-3.06244 z m 5.6689881,5.11132 c 0.33698,0.0668 1.44606,-0.2437 1.445251,-0.40474 -10e-4,-0.22008 -6.1447538,-6.70074 -6.2512297,-6.59411 -0.2392867,0.23963 -0.5491356,1.52653 -0.4330181,1.79845 0.1937378,0.45368 4.9099363,5.13502 5.2389968,5.2004 z m 4.281084,0.68252 0.695356,0.11048 2.905906,-2.91017 c 2.631585,-2.63542 2.908859,-2.97114 2.937334,-3.55641 0.03048,-0.62652 -0.0976,-0.77434 -4.191282,-4.83891 -5.051692,-5.01555 -5.57707,-5.43213 -6.653162,-5.27487 -0.7081498,0.10343 -1.0617234,0.37209 -3.2659925,2.48084 -3.516843,3.36447 -3.5231453,3.2972 0.7284587,7.77207 4.3873838,4.61784 6.0003258,6.08317 6.8433818,6.217 z m 28.71534,-31.38539 c 12.588194,-12.63664 23.345893,-23.49696 23.905991,-24.13403 l 1.018359,-1.15836 -4.52498,-4.51836 -4.524975,-4.51836 -2.917875,3.12865 c -1.604839,1.72076 -11.401037,11.98711 -21.76935,22.81413 -10.3683,10.827 -19.607558,20.52564 -20.531673,21.55248 l -1.68023,1.86704 4.068552,3.97124 4.068556,3.97127 z m 28.789976,-22.47264 c 0.129056,-6e-5 0.639438,-0.33463 1.134201,-0.74327 1.830222,-1.51158 3.526505,-0.97225 6.60914,2.10141 3.283081,3.27345 6.098497,4.86785 14.603773,8.27003 6.923897,2.76958 8.404847,3.14425 13.024027,3.29493 1.13848,0.0372 2.0951,0.0429 2.12584,0.0117 0.0604,-0.0604 -16.424341,-16.36966 -20.992908,-20.76938 -1.719103,-1.65543 -2.998159,-2.75009 -3.326929,-2.84722 -0.445355,-0.13161 -0.68731,-0.007 -1.455949,0.7436 -1.228789,1.20156 -2.799527,1.96177 -3.865339,1.87081 -0.476373,-0.0408 -1.508466,-0.30562 -2.293508,-0.58882 l -1.427362,-0.51487 -0.566877,0.7438 c -0.726936,0.95382 -1.309783,0.93839 -2.63099,-0.0695 -1.024043,-0.78135 -1.984475,-0.96134 -2.482832,-0.46543 -0.155575,0.15478 -0.626982,0.47633 -1.047577,0.7145 -0.952305,0.53922 -1.760491,0.14899 -3.037182,-1.46659 -0.974617,-1.23336 -0.984034,-1.47379 -0.1045,-2.66846 0.789962,-1.07304 0.755497,-1.74266 -0.150713,-2.92685 -1.0431,-1.36304 -1.036031,-1.88106 0.03701,-2.70394 l 0.852756,-0.654 -0.622719,-1.75078 c -1.096747,-3.08341 -0.935516,-4.17485 0.886943,-6.00402 1.57786,-1.58356 2.680065,-0.19315 -11.288806,-14.24016 l -12.270576,-12.33919 -0.02433,1.63178 c -0.06714,4.49869 0.687413,7.41702 3.975467,15.37604 3.043501,7.36709 4.474242,9.78571 7.685924,12.9927 2.125684,2.12258 2.851361,3.32104 2.814905,4.64893 -0.02048,0.74717 -0.186256,1.23673 -0.539573,1.59363 -0.762817,0.77048 -1.050361,1.37386 -0.835471,1.7529 0.320337,0.56512 14.961978,15.00634 15.214289,15.00595 z m -2.597881,-8.80458 c 1.759615,-1.17313 2.377027,-1.16706 3.968613,0.0389 0.443906,0.33643 0.939116,0.58239 1.100399,0.54662 0.161251,-0.0356 0.886232,-0.70547 1.611007,-1.48829 0.827139,-0.89338 1.821662,-1.73745 2.671181,-2.2671 0.744365,-0.46409 1.706148,-1.19707 2.137288,-1.62884 0.697131,-0.69814 0.773052,-0.89693 0.685832,-1.79557 -0.05396,-0.55577 -0.414923,-1.75546 -0.802183,-2.66595 -0.58806,-1.38263 -0.930143,-1.88114 -2.075691,-3.025 -1.145544,-1.14389 -1.644523,-1.48527 -3.028046,-2.07127 -0.911052,-0.38592 -2.111267,-0.74514 -2.667115,-0.79828 -0.89877,-0.0859 -1.097429,-0.009 -1.794564,0.68846 -0.431138,0.43177 -1.162712,1.39463 -1.62571,2.13967 -0.528409,0.85028 -1.371029,1.84603 -2.263198,2.67449 -0.781752,0.72591 -1.450416,1.45189 -1.485941,1.61316 -0.03549,0.16126 0.211178,0.65616 0.548233,1.0996 1.19274,1.56929 1.218887,2.25042 0.145773,3.79902 -0.278689,0.40217 -0.531111,0.82127 -0.560945,0.93135 -0.02987,0.11021 0.55665,0.76828 1.303333,1.46264 l 1.357554,1.2625 z m -1.580181,-7.17776 c -0.170289,-0.30176 -0.159358,-0.74644 0.02752,-1.12078 0.457423,-0.91653 1.099925,-0.74348 2.364168,0.63675 l 1.002744,1.09482 -0.503785,0.6106 c -0.353841,0.42888 -0.650847,0.5879 -0.997906,0.53428 -0.520025,-0.0805 -1.417009,-0.91236 -1.892757,-1.75561 z m 2.437967,1.02529 c 0.490537,-0.38989 0.487083,-0.39983 -0.475221,-1.36072 -0.998532,-0.99707 -1.333209,-1.10479 -1.595964,-0.51366 -0.173549,0.39045 0.143882,0.9435 0.99026,1.72522 0.508735,0.46979 0.652527,0.48964 1.080925,0.14917 z m 1.588751,2.86123 c -0.05413,-0.34698 0.104455,-0.64421 0.532816,-0.99867 l 0.609873,-0.50468 1.096281,1.00114 c 1.382141,1.26217 1.556075,1.90446 0.640213,2.36323 -0.374079,0.18737 -0.818709,0.19893 -1.120744,0.0291 -0.843977,-0.47448 -1.677297,-1.37024 -1.758376,-1.89018 z m 2.496474,1.54879 c 0.643133,-0.14465 0.551777,-0.50547 -0.390314,-1.54153 -0.90866,-0.99942 -0.963565,-1.02645 -1.331381,-0.65808 -0.21102,0.21133 -0.384837,0.49431 -0.386311,0.62893 -0.004,0.36987 1.723642,1.65706 2.108006,1.57068 z m 3.83588,1.61122 c 0.79333,0.24106 1.694582,0.42552 2.00278,0.4099 0.885776,-0.0447 2.148739,-0.74183 3.170587,-1.74979 0.790299,-0.7796 1.065838,-0.92384 1.717985,-0.89951 l 0.776717,0.0292 69.022122,-69.12773 c 42.58699,-42.652215 70.04194,-70.269291 71.68502,-72.108196 7.93686,-8.882876 12.67229,-15.110204 15.09394,-19.84935 2.02878,-3.970283 4.76723,-11.437718 6.41276,-17.4867784 l 0.62043,-2.2807711 -63.04868,63.3671375 c -34.67677,34.851898 -63.32135,63.674868 -63.65462,64.051058 -0.33327,0.37619 -10.10462,10.21211 -21.71412,21.85762 l -21.108163,21.17365 0.702708,0.8902 c 0.386489,0.48961 1.022061,1.66344 1.412371,2.60851 1.478053,3.57896 1.172239,4.36355 -2.619854,6.72144 -0.986275,0.61324 -2.167317,1.7029 -2.012877,1.85712 0.05415,0.054 0.747544,0.29549 1.540897,0.53654 z m -9.033296,-12.43718 c 1.288049,-2.02845 2.177094,-2.90594 3.097512,-3.05726 0.961198,-0.15802 4.029352,0.85843 5.517733,1.82797 l 1.153921,0.75167 30.752291,-31.00978 c 16.91376,-17.05536 54.89111,-55.268549 84.3941,-84.918147 29.503,-29.649598 53.7141,-54.0492109 53.80243,-54.2213323 0.33316,-0.6493048 -10.54818,2.5033552 -15.52705,4.4986653 -7.23168,2.898123 -12.2501,6.544839 -23.70329,17.224323 C 204.19933,32.635414 89.781754,147.17597 73.056993,164.21621 l -5.135288,5.23216 0.302148,0.50377 c 0.572674,0.95487 0.395091,1.68516 -0.668868,2.75067 -1.051474,1.05303 -1.590999,2.11743 -1.532242,3.0229 0.02041,0.31467 0.289991,1.33548 0.599068,2.26846 l 0.561955,1.6963 0.461901,-0.35715 c 0.254045,-0.19642 0.884559,-1.02274 1.401137,-1.83627 z"
     id="path860" />
  <path
     style="font-variation-settings:normal;opacity:1;vector-effect:none;fill:#ffdd55;fill-opacity:1;stroke-width:0.00964994;stroke-linecap:butt;stroke-linejoin:miter;stroke-miterlimit:4;stroke-dasharray:none;stroke-dashoffset:0;stroke-opacity:1;stop-color:#000000;stop-opacity:1"
     d="m 105.78594,211.75921 c -3.53949,-0.25351 -5.53328,-0.82627 -12.156584,-3.49223 -4.423747,-1.78061 -7.185201,-3.05665 -9.113044,-4.21105 -1.887594,-1.13029 -2.606911,-1.69211 -4.928218,-3.84917 -0.898557,-0.83497 -1.873425,-1.68304 -2.166374,-1.8846 -1.766554,-1.21542 -3.071131,-1.24042 -4.499504,-0.0862 -0.929033,0.75071 -0.928726,0.7507 -1.735433,0.0375 -1.854934,-1.6399 -14.644659,-14.37077 -14.644659,-14.57727 0,-0.24098 0.404532,-0.95866 0.814249,-1.44456 0.949451,-1.12599 0.902831,-2.49293 -0.13819,-4.05187 -0.262824,-0.39358 -1.115101,-1.38445 -1.893951,-2.20192 -1.748838,-1.83558 -2.606326,-2.87869 -3.520804,-4.28297 -2.371898,-3.6423 -6.866497,-14.62961 -7.815737,-19.10602 -0.251877,-1.1878 -0.306843,-1.80596 -0.359803,-4.04642 -0.03698,-1.56431 -0.01967,-2.62666 0.04237,-2.6009 0.200455,0.0832 21.725562,21.78266 22.747258,22.9315 1.129816,1.27042 1.684195,2.06336 1.684195,2.40894 0,0.12384 -0.407126,0.64923 -0.904723,1.16754 -0.532741,0.55491 -1.037577,1.21392 -1.227845,1.60282 -0.29649,0.606 -0.31892,0.74371 -0.272141,1.67083 0.04173,0.82711 0.157498,1.32356 0.6382,2.73687 l 0.58722,1.72647 -0.306224,0.23767 c -1.626457,1.26236 -1.659356,1.51651 -0.432459,3.34087 0.746513,1.11005 0.739106,1.549 -0.04716,2.79415 -0.317889,0.50342 -0.577979,1.04841 -0.577979,1.2111 0,0.54657 1.345128,2.26031 2.139564,2.72588 0.742949,0.4354 1.166083,0.37782 2.173093,-0.29571 1.2203,-0.81618 1.669888,-0.77512 3.224959,0.29458 1.188813,0.81776 1.635763,0.77271 2.466837,-0.24866 l 0.479961,-0.58986 1.054408,0.3812 c 0.579925,0.20967 1.46972,0.47045 1.977323,0.57953 0.878533,0.18879 0.959694,0.18837 1.687751,-0.009 0.709435,-0.19204 2.334831,-1.11638 2.536299,-1.44236 0.207307,-0.33543 1.261961,-1.04645 1.552196,-1.04645 0.36708,0 1.309836,0.74484 3.133198,2.47543 2.347943,2.22848 20.688611,20.34131 21.040241,20.77887 l 0.35588,0.44284 -1.53709,-0.0202 c -0.8454,-0.0111 -1.77118,-0.037 -2.05728,-0.0575 z"
     id="path862" />
  <path
     style="font-variation-settings:normal;opacity:1;vector-effect:none;fill:#ffdd55;fill-opacity:1;stroke-width:0.00964994;stroke-linecap:butt;stroke-linejoin:miter;stroke-miterlimit:4;stroke-dasharray:none;stroke-dashoffset:0;stroke-opacity:1;stop-color:#000000;stop-opacity:1"
     d="m 73.231652,190.08442 c -1.741016,-1.14399 -2.186203,-1.13199 -4.055726,0.1093 -0.60588,0.40229 -0.617161,0.40478 -0.872915,0.19307 -0.797902,-0.66049 -2.397626,-2.32937 -2.397626,-2.50128 0,-0.11053 0.228137,-0.55371 0.506972,-0.98484 0.597963,-0.92457 0.822748,-1.59355 0.719815,-2.14222 -0.04107,-0.21895 -0.385923,-0.88349 -0.766329,-1.47676 -0.380407,-0.59327 -0.691649,-1.12448 -0.691649,-1.18047 0,-0.056 0.663231,-0.79079 1.473846,-1.63289 0.858986,-0.89235 1.83553,-2.05593 2.340816,-2.78914 1.002953,-1.45536 1.849579,-2.42051 2.350481,-2.67954 0.494447,-0.25569 1.377169,-0.1405 2.856964,0.37281 1.916125,0.66466 2.447678,0.99592 3.879572,2.41773 1.14706,1.13898 1.341037,1.39261 1.81523,2.37342 0.617769,1.27777 1.119718,2.92272 1.119718,3.66945 0,0.32274 -0.08941,0.66718 -0.233866,0.90091 -0.272118,0.44029 -1.397582,1.37571 -2.713827,2.25557 -0.508622,0.34 -1.637648,1.31007 -2.508946,2.15573 -0.871299,0.84566 -1.657901,1.53756 -1.748005,1.53756 -0.0901,0 -0.57364,-0.26929 -1.074525,-0.59841 z m 1.545713,-1.59665 c 0.398318,-0.24286 0.470462,-0.52367 0.247284,-0.96253 -0.166034,-0.32649 -1.968293,-2.15982 -2.123216,-2.15982 -0.06501,0 -0.339253,0.20206 -0.60943,0.44903 -0.793087,0.72495 -0.619097,1.37862 0.640159,2.40505 0.704424,0.57418 1.220434,0.6492 1.845203,0.26827 z m -4.219248,-4.39834 c 0.238416,-0.24695 0.433484,-0.51962 0.433484,-0.60595 0,-0.24887 -1.999283,-2.13907 -2.357651,-2.22902 -0.440432,-0.11054 -0.873642,0.32329 -0.959107,0.96047 -0.05253,0.39163 -0.0057,0.5506 0.286081,0.97131 0.648567,0.93513 1.480111,1.54502 1.932517,1.4174 0.127156,-0.0359 0.42626,-0.26726 0.664676,-0.51421 z"
     id="path864" />
  <path
     style="font-variation-settings:normal;opacity:1;vector-effect:none;fill:#ffdd55;fill-opacity:1;stroke-width:0.0136471;stroke-linecap:butt;stroke-linejoin:miter;stroke-miterlimit:4;stroke-dasharray:none;stroke-dashoffset:0;stroke-opacity:1;stop-color:#000000;stop-opacity:1"
     d="m 13.763369,252.473 c -0.982072,-0.59871 -2.415099,-1.95099 -5.5284035,-5.2169 -3.2012071,-3.35811 -3.9675503,-4.34472 -3.9675503,-5.10791 0,-0.78428 0.3795058,-1.28212 2.6798923,-3.51554 1.7435452,-1.69278 2.3581458,-2.18944 2.8848881,-2.33128 1.1847574,-0.31902 1.7173314,0.0794 6.6565914,4.98021 3.884032,3.85377 4.456019,4.48504 4.454754,4.91642 -0.0021,0.70732 -0.23638,1.0001 -3.169002,3.95982 -2.85727,2.88368 -2.970978,2.94931 -4.01117,2.31518 z"
     id="path866" />
  <path
     style="font-variation-settings:normal;opacity:1;vector-effect:none;fill:#ff9955;fill-opacity:1;stroke-width:0.0275832;stroke-linecap:butt;stroke-linejoin:miter;stroke-miterlimit:4;stroke-dasharray:none;stroke-dashoffset:0;stroke-opacity:1;stop-color:#000000;stop-opacity:1"
     d="m 16.132778,240.4121 c -2.212763,-2.13055 -3.98138,-3.99551 -3.930258,-4.14436 0.115472,-0.33622 2.602105,-2.96539 23.558471,-24.90896 9.229055,-9.66381 18.229179,-19.10746 20.000274,-20.98589 l 3.220171,-3.41533 4.565852,4.56158 4.565855,4.56157 -1.667637,1.74365 c -2.58803,2.706 -46.114631,46.48037 -46.207318,46.47035 -0.04521,-0.005 -1.892647,-1.75206 -4.10541,-3.88261 z"
     id="path868" />
  <path
     style="font-variation-settings:normal;opacity:1;vector-effect:none;fill:#ffe6d5;fill-opacity:1;stroke-width:0.00689581;stroke-linecap:butt;stroke-linejoin:miter;stroke-miterlimit:4;stroke-dasharray:none;stroke-dashoffset:0;stroke-opacity:1;stop-color:#000000;stop-opacity:1"
     d="M 9.9070477,251.91603 C 9.3018783,251.4734 6.066567,248.28224 5.1796906,247.2532 l -0.3450909,-0.40041 0.032335,-0.40876 c 0.036806,-0.46529 0.2240834,-1.11732 0.3741438,-1.30264 0.1007713,-0.12444 0.1079946,-0.1182 1.5470741,1.33809 2.2572081,2.2842 4.7661354,5.00323 4.7661354,5.16527 0,0.11775 -0.62374,0.3415 -1.127059,0.40432 -0.258169,0.0322 -0.313646,0.018 -0.5201813,-0.13304 z"
     id="path870" />
  <path
     style="font-variation-settings:normal;opacity:1;vector-effect:none;fill:#ffe6d5;fill-opacity:1;stroke-width:0.00689581;stroke-linecap:butt;stroke-linejoin:miter;stroke-miterlimit:4;stroke-dasharray:none;stroke-dashoffset:0;stroke-opacity:1;stop-color:#000000;stop-opacity:1"
     d="m 68.957882,183.63897 c -0.842805,-0.81247 -1.079282,-1.31806 -0.814059,-1.74046 0.167795,-0.26724 0.349342,-0.29336 0.683162,-0.0983 0.330485,0.19311 1.599591,1.44577 1.64598,1.62465 0.04108,0.15841 -0.0738,0.32509 -0.373862,0.54246 -0.4011,0.29055 -0.540945,0.25032 -1.141221,-0.32835 z"
     id="path872" />
  <path
     style="font-variation-settings:normal;opacity:1;vector-effect:none;fill:#ffe6d5;fill-opacity:1;stroke-width:0.00689581;stroke-linecap:butt;stroke-linejoin:miter;stroke-miterlimit:4;stroke-dasharray:none;stroke-dashoffset:0;stroke-opacity:1;stop-color:#000000;stop-opacity:1"
     d="m 73.882627,188.24067 c -0.641298,-0.29105 -1.745787,-1.23304 -1.745787,-1.48894 0,-0.16174 0.340447,-0.64782 0.53779,-0.76783 0.09398,-0.0572 0.212998,-0.0894 0.264478,-0.0718 0.143045,0.0491 0.840894,0.74465 1.234112,1.22999 0.562297,0.69403 0.62232,0.97381 0.242924,1.13233 -0.242992,0.10153 -0.234143,0.10209 -0.533517,-0.0338 z"
     id="path874" />
  <path
     style="font-variation-settings:normal;opacity:1;vector-effect:none;fill:#ff5555;fill-opacity:1;stroke-width:0.0381949;stroke-linecap:butt;stroke-linejoin:miter;stroke-miterlimit:4;stroke-dasharray:none;stroke-dashoffset:0;stroke-opacity:1;stop-color:#000000;stop-opacity:1"
     d="m 66.540699,177.87798 c -0.779105,-2.45301 -0.680354,-3.06897 0.799299,-4.98565 1.243625,-1.61093 1.336242,-1.929 0.826346,-2.83785 -0.318176,-0.56713 -0.240969,-0.66257 4.111844,-5.08274 C 84.96648,152.08711 196.26441,40.645047 203.72309,33.35662 221.50808,15.977601 225.71148,13.11687 239.9356,8.7112652 c 3.95264,-1.2242445 6.76144,-1.9206155 7.36921,-1.8270102 0.3924,0.060436 -2.46514,3.0530802 -14.19522,14.866358 -13.77249,13.87018 -72.51648,72.993669 -109.90958,110.619627 -24.181539,24.33212 -44.388899,44.61999 -44.442924,44.61999 -0.02581,0 -0.548022,-0.3074 -1.160459,-0.68311 -1.569801,-0.96302 -4.593917,-1.9308 -5.501383,-1.76056 -0.83902,0.1574 -1.748804,1.05406 -3.065875,3.02164 -0.510696,0.76294 -1.141779,1.57857 -1.402407,1.81253 -0.470783,0.4226 -0.477858,0.41281 -1.086263,-1.50275 z"
     id="path876" />
  <path
     style="font-variation-settings:normal;opacity:1;vector-effect:none;fill:#ff5555;fill-opacity:1;stroke-width:0.0381949;stroke-linecap:butt;stroke-linejoin:miter;stroke-miterlimit:4;stroke-dasharray:none;stroke-dashoffset:0;stroke-opacity:1;stop-color:#000000;stop-opacity:1"
     d="m 78.101446,190.01692 c -0.635777,-0.19261 -1.252334,-0.443 -1.370127,-0.55641 -0.310053,-0.29852 0.420113,-1.02621 2.318857,-2.31098 2.142672,-1.44983 2.868263,-2.31676 2.857975,-3.41469 -0.01,-1.06509 -1.077683,-3.80329 -2.037649,-5.22569 -0.400782,-0.59385 -0.728693,-1.1369 -0.728693,-1.20678 0,-0.12718 34.638331,-34.99059 114.236381,-114.97867 23.34826,-23.462661 45.28792,-45.549702 48.75481,-49.082311 3.46689,-3.5326083 6.34713,-6.3792321 6.40054,-6.3258306 0.13532,0.1353292 -1.56042,5.9410216 -2.71079,9.2808806 -1.22929,3.568984 -3.05084,8.06888 -4.18709,10.343671 -2.01853,4.041138 -6.78414,10.445354 -13.29659,17.868478 -3.03911,3.464097 -36.61538,37.265818 -119.12402,119.923892 -21.753171,21.79257 -23.537831,23.52375 -24.250444,23.52375 -0.554096,0 -1.071778,0.25138 -1.851062,0.89885 -2.044764,1.69889 -2.877505,1.90854 -5.012098,1.26184 z"
     id="path878" />
</svg>
