<?xml version="1.0" encoding="UTF-8" standalone="no"?>
<svg
   xmlns:dc="http://purl.org/dc/elements/1.1/"
   xmlns:cc="http://creativecommons.org/ns#"
   xmlns:rdf="http://www.w3.org/1999/02/22-rdf-syntax-ns#"
   xmlns:svg="http://www.w3.org/2000/svg"
   xmlns="http://www.w3.org/2000/svg"
   xmlns:sodipodi="http://sodipodi.sourceforge.net/DTD/sodipodi-0.dtd"
   xmlns:inkscape="http://www.inkscape.org/namespaces/inkscape"
   cursor="default"
   viewBox="0 0 256 256"
   version="1.1"
   id="svg50"
   sodipodi:docname="saintpowersword.svg"
   inkscape:version="1.0.2-2 (e86c870879, 2021-01-15)">
  <metadata
     id="metadata56">
    <rdf:RDF>
      <cc:Work
         rdf:about="">
        <dc:format>image/svg+xml</dc:format>
        <dc:type
           rdf:resource="http://purl.org/dc/dcmitype/StillImage" />
      </cc:Work>
    </rdf:RDF>
  </metadata>
  <defs
     id="defs54" />
  <sodipodi:namedview
     pagecolor="#ffffff"
     bordercolor="#666666"
     borderopacity="1"
     objecttolerance="10"
     gridtolerance="10"
     guidetolerance="10"
     inkscape:pageopacity="0"
     inkscape:pageshadow="2"
     inkscape:window-width="1920"
     inkscape:window-height="1017"
     id="namedview52"
     showgrid="false"
     inkscape:zoom="24.133878"
     inkscape:cx="59.6391"
     inkscape:cy="196.32094"
     inkscape:window-x="-8"
     inkscape:window-y="-8"
     inkscape:window-maximized="1"
     inkscape:current-layer="svg50"
     inkscape:document-rotation="0" />
  <path
     style="fill:#000000;stroke-width:0.237526"
     d="m 4.7963267,248.28251 c -1.1942246,-3.53743 -0.7230104,-6.07882 1.6170245,-8.7209 1.6562512,-1.87001 2.8064572,-2.53449 5.3497178,-3.0904 1.198336,-0.26194 1.863406,-0.54968 2.304181,-0.99691 1.004263,-1.01884 1.131134,-1.43012 0.837547,-2.71338 -0.155621,-0.68018 -0.14966,-1.34617 0.01354,-1.51054 0.385694,-0.38847 2.94374,-0.70637 3.477623,-0.43214 0.230629,0.11862 0.50681,0.12392 0.61361,0.0118 0.106797,-0.11164 1.887769,-2.13647 3.957722,-4.49956 2.069949,-2.36309 7.509511,-8.16546 12.08791,-12.89414 l 8.32439,-8.59767 -0.0052,-1.3847 c -0.0036,-0.94157 -0.215714,-1.78503 -0.663001,-2.63571 -0.361759,-0.68807 -0.79024,-1.92105 -0.952168,-2.73999 -0.161924,-0.81892 -0.582447,-1.97749 -0.934471,-2.5746 -0.652562,-1.10689 -0.917295,-1.95945 -1.842578,-5.934 -0.28809,-1.23754 -0.693649,-2.42198 -0.901233,-2.63214 -0.586529,-0.59486 -1.089536,-2.19488 -1.238326,-3.94469 -0.431075,-5.06974 -0.641202,-6.53878 -1.068888,-7.47312 -0.523123,-1.14281 -0.911526,-5.6215 -0.672205,-7.75115 0.10314,-0.91773 -0.0058,-1.64801 -0.351375,-2.35381 -0.685377,-1.40016 -0.80804,-3.08289 -0.332006,-4.5549 0.21928,-0.67803 0.485431,-1.32013 0.591452,-1.42694 0.144793,-0.14589 3.056065,2.71065 11.698801,11.47867 6.328322,6.42004 11.539771,11.63883 11.580941,11.59736 0.04117,-0.0414 0.320908,-0.57355 0.621535,-1.1823 0.565686,-1.1455 1.094861,-3.31885 1.135673,-4.66426 l 0.02343,-0.77191 13.528358,-12.88516 C 123.48409,115.49101 171.35855,70.022826 185.78965,56.452608 c 14.09938,-13.258274 31.7043,-28.914665 40.10185,-35.66333 7.03672,-5.65505 17.8841,-13.3584431 20.30863,-14.4224183 1.46006,-0.6407112 4.20745,-1.5700765 4.31776,-1.4605714 0.11033,0.1096118 -0.79929,2.8635268 -1.42949,4.3281607 -1.04651,2.432102 -8.67168,13.334587 -14.27601,20.411818 -6.66057,8.411097 -22.11687,26.048022 -35.29208,40.271236 C 186.71322,83.743271 134.42563,139.58766 87.839523,189.1952 l -6.934125,7.38384 -0.770406,0.0288 c -1.343853,0.0505 -3.513702,0.59548 -4.654651,1.16917 -0.606584,0.30498 -1.136591,0.58851 -1.177808,0.63003 -0.04117,0.0415 5.214962,5.21524 11.680348,11.49723 8.829977,8.57942 11.707208,11.47017 11.562492,11.61594 -0.10606,0.10686 -0.746211,0.37754 -1.422649,0.6017 -1.468534,0.48661 -3.152113,0.37607 -4.557166,-0.29919 -0.708245,-0.34039 -1.439307,-0.44416 -2.356264,-0.33443 -2.127902,0.25463 -6.609242,-0.10157 -7.755798,-0.61644 -0.937398,-0.42096 -2.407886,-0.62052 -7.480602,-1.01511 -1.750853,-0.13613 -3.355004,-0.62712 -3.953521,-1.20993 -0.212115,-0.20558 -1.39896,-0.60312 -2.638524,-0.88229 -3.981099,-0.89668 -4.835549,-1.15528 -5.947091,-1.79986 -0.599589,-0.34776 -1.761197,-0.75988 -2.581269,-0.91592 -0.820078,-0.1559 -2.057346,-0.57861 -2.749515,-0.93906 -0.788312,-0.41053 -1.658738,-0.64492 -2.329883,-0.62741 -0.589291,0.0155 -1.149538,-0.0495 -1.245001,-0.14445 -0.116048,-0.11528 -3.319693,2.94314 -9.667581,9.2293 -5.221689,5.1709 -11.123566,10.84717 -13.115262,12.61393 -3.106786,2.75592 -3.608057,3.26679 -3.528368,3.59602 0.05105,0.21108 0.164574,0.95053 0.252219,1.64327 0.227364,1.79742 -0.289217,2.26393 -1.966133,1.7756 -0.69904,-0.2035 -1.435583,-0.29607 -1.636772,-0.20567 -1.008428,0.45345 -1.545307,1.39453 -2.100242,3.68136 l -0.568424,2.34244 -1.844844,1.85818 c -1.748023,1.76063 -1.932662,1.88837 -3.518117,2.43384 -3.069933,1.05624 -6.6055709,0.39352 -8.6314158,-1.61779 -0.6570684,-0.65237 -1.0297061,-1.28989 -1.4067618,-2.40679 z m 4.311326,3.59397 c 3.2532653,1.0723 6.5493223,0.20603 9.1393453,-2.40231 1.052297,-1.0597 1.265961,-1.42577 1.78043,-3.05043 0.321555,-1.01541 0.518901,-1.91148 0.438554,-1.99126 -0.08036,-0.0797 -0.487592,-0.20377 -0.904987,-0.27553 -1.422471,-0.24466 -2.405612,-0.9132 -4.204195,-2.85914 -1.440945,-1.55914 -1.780186,-2.05935 -2.138655,-3.1544 -0.402486,-1.22954 -0.456712,-1.29984 -0.980996,-1.2718 -0.305234,0.0164 -1.216908,0.27211 -2.02595,0.56842 -1.2909085,0.47279 -1.6651854,0.73521 -3.0573007,2.14358 -1.9683068,1.99137 -2.6059604,3.45178 -2.4611109,5.63724 0.2426119,3.66003 1.6182076,5.73388 4.4148653,6.65563 z M 18.21506,243.1844 c 0.443271,0.24854 1.148536,0.45995 1.567123,0.46995 0.676253,0.0156 0.871234,-0.10857 1.748503,-1.11746 0.846975,-0.97411 0.930737,-1.15801 0.589009,-1.29315 -0.683992,-0.27052 -5.402197,-4.80328 -6.018242,-5.78181 -0.319529,-0.50753 -0.600031,-0.91243 -0.623294,-0.89986 -0.02328,0.0136 -0.510592,0.54907 -1.082987,1.19219 -0.945756,1.06261 -1.022785,1.23781 -0.84446,1.92076 0.107922,0.41331 0.420549,1.11064 0.694701,1.54965 0.697488,1.1169 3.005743,3.4193 3.970107,3.95925 z m 3.656263,-2.71674 c 1.298223,0.88007 3.619082,1.71059 3.923467,1.40402 0.24277,-0.24453 0.174757,-2.68589 -0.08195,-2.94075 -0.08917,-0.0885 -0.380017,-0.0942 -0.646289,-0.0127 -0.920962,0.28249 -2.360274,-0.55308 -4.260347,-2.47318 -0.96465,-0.9753 -1.936092,-2.10144 -2.158345,-2.50297 -0.545501,-0.98578 -0.737613,-1.997 -0.436918,-2.29987 0.135954,-0.13687 0.180449,-0.31518 0.09892,-0.39614 -0.190359,-0.18899 -2.791726,0.0742 -3.021568,0.30573 -0.273144,0.27513 0.384328,2.4246 1.036362,3.38832 0.842317,1.2449 4.273963,4.66458 5.546837,5.52716 z m 1.688589,-2.37934 c 0.419312,0.20795 0.962493,0.38466 1.207155,0.39263 0.78863,0.0268 7.273265,-5.91263 17.686216,-16.19619 l 9.783862,-9.66229 -0.495407,-0.30008 c -1.698128,-1.02841 -4.352835,-3.38653 -5.710704,-5.07276 -0.798272,-0.99138 -1.568221,-1.91838 -1.710938,-2.06008 -0.228098,-0.22645 -0.881256,0.36998 -5.400072,4.93106 -8.749261,8.83112 -20.331857,21.52075 -20.342728,22.28706 -0.003,0.21364 0.185936,0.72655 0.419921,1.13984 0.594542,1.05012 3.644179,4.08511 4.56309,4.54043 z m 27.664689,-26.75243 c 0.641144,0.44802 1.300931,1.0384 1.466115,1.31201 0.214189,0.35474 0.414489,0.44617 0.698163,0.31863 0.223359,-0.10044 0.340156,-0.29327 0.26628,-0.43966 -0.344092,-0.68204 -0.216225,-1.63944 0.346246,-2.59256 0.339681,-0.57557 0.548464,-1.11178 0.463982,-1.1916 -0.08498,-0.0793 -1.011718,-0.72202 -2.06047,-1.42719 -1.871774,-1.25856 -1.928583,-1.31599 -3.089869,-3.12472 -0.650683,-1.01341 -1.274353,-1.86438 -1.385932,-1.89107 -0.111572,-0.0268 -0.351478,0.10115 -0.533087,0.28409 -0.602906,0.60725 -1.96962,1.01951 -2.603096,0.7852 -0.697566,-0.25803 -1.053078,-0.0382 -0.990219,0.61268 0.02756,0.28562 0.135967,0.41096 0.317675,0.36738 0.1517,-0.0364 0.441277,0.17861 0.643532,0.4775 1.620075,2.39585 3.988212,4.78173 6.460694,6.5093 z m -6.263409,-8.67936 c 0.686872,0.21589 1.826859,-0.1346 2.437183,-0.74933 0.150858,-0.15195 0.217347,-0.88831 0.147769,-1.63636 -0.0696,-0.74805 0.06395,-1.90651 0.296606,-2.57437 l 0.423107,-1.21427 -3.169372,0.096 -3.169381,0.096 0.372747,1.49641 c 0.355069,1.42541 1.26536,3.55751 1.722744,4.03501 0.117978,0.12211 0.539818,0.3256 0.938588,0.45089 z m 12.087677,11.33031 c 0.693702,0.25864 1.700442,0.55242 2.237211,0.65285 l 0.975971,0.18247 0.0656,-3.15989 0.0656,-3.15991 -1.193089,0.44754 c -0.682736,0.25611 -1.78107,0.39714 -2.567683,0.32967 -1.45722,-0.12496 -1.719204,0.008 -2.267743,1.15457 -0.696891,1.45614 0.182303,2.61977 2.684142,3.55259 z m -3.884011,-6.69841 c 2.123122,1.34347 2.944137,1.63199 4.304842,1.51294 2.089025,-0.1828 3.026313,-0.71763 5.140892,-2.93335 1.286534,-1.34805 2.394597,-2.31435 3.346177,-2.91806 0.782477,-0.49645 1.80287,-1.33194 2.267528,-1.85668 l 0.844841,-0.9541 -0.573802,-0.67286 c -0.315601,-0.37007 -0.93526,-0.87608 -1.376931,-1.12456 -0.66748,-0.37547 -0.808823,-0.55499 -0.837378,-1.06308 -0.03072,-0.54711 0.154597,-0.78555 1.764911,-2.27074 1.595067,-1.47113 1.755959,-1.67659 1.417815,-1.81057 -1.5092,-0.59805 -2.178971,-1.0515 -3.520542,-2.38346 -1.341575,-1.33194 -1.799768,-1.99849 -2.408692,-3.5033 -0.136378,-0.33724 -0.340698,-0.17477 -1.800343,1.4308 -1.473573,1.62096 -1.710668,1.80798 -2.257991,1.78118 -0.508288,-0.0247 -0.688764,-0.16493 -1.06908,-0.82969 -0.251643,-0.43987 -0.762115,-1.05587 -1.134434,-1.36882 l -0.676979,-0.56896 -0.947974,0.85169 c -0.521388,0.46842 -1.349532,1.49481 -1.840324,2.28082 -0.596861,0.95592 -1.55516,2.0709 -2.893936,3.36708 -2.200445,2.13046 -2.728508,3.07157 -2.89628,5.16187 -0.107829,1.34341 0.18821,2.18932 1.472451,4.20715 1.361725,2.13956 1.529864,2.30722 3.675613,3.66434 z m -0.260504,-11.12081 c -0.341256,-0.85865 0.03606,-3.10789 0.68067,-4.05754 0.26363,-0.38836 0.729563,-0.75606 1.146866,-0.90517 0.664325,-0.23733 0.772581,-0.18728 1.973531,0.91207 1.963203,1.79699 2.273051,3.35623 1.04515,5.25836 -1.215825,1.88343 -3.881676,1.21905 -4.84622,-1.20772 z m 2.459617,1.75071 c 1.009964,0.31744 1.829499,-0.25165 2.360133,-1.6389 0.537162,-1.40436 0.250933,-2.30147 -1.190988,-3.73307 -1.034947,-1.02752 -1.147433,-1.08247 -1.702835,-0.83065 -0.749061,0.33964 -1.208414,1.10111 -1.482327,2.45728 -0.360218,1.78351 0.426906,3.24579 2.016017,3.74534 z m 3.026138,3.66818 c -0.408436,-1.36296 0.68415,-2.71615 2.571668,-3.18506 1.273246,-0.31633 2.355286,0.16314 3.744827,1.65938 1.108019,1.19295 1.158815,1.30088 0.926244,1.96691 -0.329027,0.9424 -1.244125,1.53923 -2.878272,1.87725 -1.961515,0.40575 -3.848453,-0.59665 -4.364467,-2.31848 z m 2.51265,1.84698 c 0.789073,0.24802 2.534554,-0.0417 3.392668,-0.56321 0.308314,-0.18735 0.679967,-0.6091 0.82592,-0.93724 0.247786,-0.55715 0.19208,-0.66928 -0.842864,-1.69681 -0.67763,-0.67279 -1.409303,-1.19488 -1.883168,-1.34385 -0.985141,-0.30966 -2.776123,0.34217 -3.327736,1.21117 -0.683185,1.07626 0.291417,2.84468 1.835187,3.32994 z m -1.17427,-7.53539 c 0.768606,-1.72818 1.604848,-3.02047 1.95536,-3.02174 0.46241,-0.001 2.057287,1.56169 2.058992,2.01813 0.0012,0.357 -2.671439,1.92589 -3.415298,2.00475 -0.607648,0.0644 -0.874535,-0.38166 -0.599005,-1.00118 z m 1.781742,0.0236 c 1.383832,-0.68666 1.686649,-1.02114 1.407652,-1.55484 -0.330549,-0.63239 -1.067967,-0.94709 -1.410646,-0.60194 -0.525512,0.52929 -1.521663,2.56846 -1.281929,2.62417 0.128452,0.0299 0.706702,-0.1805 1.28492,-0.46742 z m -16.1043,0.13936 3.133641,-0.0527 0.782599,-0.98922 c 0.430445,-0.5441 0.786758,-1.02842 0.791831,-1.07631 0.0051,-0.048 -0.265199,-0.18855 -0.60049,-0.3126 -0.484803,-0.17927 -0.661654,-0.38659 -0.86305,-1.01174 -0.139333,-0.4324 -0.398204,-0.93002 -0.575253,-1.10581 -0.177052,-0.17577 -1.740027,-0.84676 -3.473279,-1.49105 -1.733253,-0.64429 -3.691805,-1.44123 -4.352358,-1.77094 -0.862329,-0.43049 -1.178257,-0.49255 -1.120417,-0.21999 0.557579,2.62674 1.427988,5.91813 1.740147,6.58021 0.216303,0.45875 0.620457,0.98457 0.898127,1.16844 0.290241,0.19228 1.836782,0.3119 3.638554,0.28157 z m 18.52598,20.37779 c 0.866217,0.24004 2.429699,0.62156 3.474396,0.84778 l 1.899449,0.41137 -0.611381,-1.20303 c -0.336263,-0.66165 -1.148706,-2.61729 -1.805446,-4.34588 -0.656743,-1.72856 -1.338936,-3.28667 -1.515984,-3.46247 -0.177051,-0.17578 -0.676458,-0.4311 -1.109919,-0.56727 -0.626517,-0.19693 -0.835099,-0.3723 -1.017935,-0.85576 -0.126475,-0.33442 -0.269061,-0.60364 -0.316904,-0.59825 -0.04781,0.004 -0.52717,0.36331 -1.06521,0.79532 l -0.97822,0.78542 -0.06332,2.98851 c -0.03478,1.64368 0.0277,3.20438 0.138975,3.46821 0.301922,0.71602 1.214473,1.2492 2.97145,1.73608 z M 40.197413,187.6788 c 0.768612,0.37889 2.829828,1.22037 4.580481,1.86996 3.29564,1.22288 4.121893,1.75995 4.309182,2.80118 0.09505,0.52846 0.695863,1.08717 0.922994,0.85838 0.227231,-0.22886 0.274496,-3.51925 0.05376,-3.74257 -0.143304,-0.14473 -0.328076,-0.51677 -0.410883,-0.82635 -0.633874,-2.37043 -0.24776,-1.93315 -4.349103,-4.92526 -3.484691,-2.54221 -6.469052,-4.83193 -7.913749,-6.07175 -0.606278,-0.52034 -0.607991,-0.50173 -0.279125,2.97816 0.329765,3.48854 0.778519,5.46556 1.37505,6.05781 0.172635,0.17139 0.942735,0.6216 1.711336,1.0005 z m 31.517471,31.23039 c 0.618664,0.19633 2.701654,0.49459 4.628872,0.6628 3.482111,0.30384 3.500751,0.30209 2.976085,-0.30054 -1.250162,-1.43575 -3.561303,-4.40356 -6.128511,-7.86988 -3.021521,-4.07973 -2.581484,-3.69675 -4.956414,-4.31357 -0.310201,-0.0805 -0.683361,-0.26277 -0.829274,-0.40492 -0.225326,-0.2187 -3.514876,-0.14824 -3.742104,0.0807 -0.227183,0.22884 0.33581,0.8256 0.865008,0.91681 1.035759,0.17878 1.58934,1.00313 2.761114,4.11246 1.256406,3.33391 2.427473,5.8746 2.953318,6.40735 0.190372,0.19403 0.853319,0.5124 1.471956,0.70876 z M 53.066002,191.142 c 0.305537,-0.51539 0.613675,-1.29076 0.684794,-1.72311 0.338633,-2.05865 1.022351,-3.3612 2.600377,-4.95403 l 1.522046,-1.53632 -11.267327,-11.43311 c -6.197044,-6.28821 -11.334774,-11.4328 -11.417133,-11.43248 -0.306014,7.9e-4 -0.669576,2.77046 -0.484427,3.69009 0.370718,1.84126 0.731796,2.24974 9.316984,10.53974 6.555213,6.32976 8.155522,7.96102 8.316911,8.47746 0.122241,0.39105 -0.09614,1.65876 -0.562121,3.26322 -0.837385,2.88325 -1.066384,4.18561 -1.109844,6.3118 l -0.02895,1.41115 0.936498,-0.83867 c 0.515101,-0.46128 1.186487,-1.26034 1.492017,-1.77569 z m 13.712016,14.7874 c 0.791668,-0.11683 2.615316,-0.56165 4.052528,-0.98829 1.592929,-0.4729 2.863349,-0.69951 3.254008,-0.58046 0.517551,0.15774 2.160246,1.74629 8.537064,8.25573 8.351505,8.52536 8.762553,8.88351 10.606466,9.24093 0.920935,0.17864 3.687609,-0.20493 3.686509,-0.51094 -1.92e-4,-0.0823 -5.181681,-5.18296 -11.514282,-11.33462 l -11.513837,-11.18481 -1.545381,1.55653 c -1.635147,1.64695 -1.601774,1.63029 -5.816221,2.90587 -0.444359,0.13461 -1.358835,0.76835 -2.183819,1.51368 l -1.419327,1.28226 1.208464,0.0282 c 0.664683,0.0153 1.856205,-0.0673 2.647887,-0.18424 z M 40.702887,179.67937 c 1.196969,0.91493 3.683684,2.75964 5.526038,4.09931 l 3.349708,2.43583 0.2226,1.0458 c 0.420873,1.97737 0.532535,1.92987 1.297699,-0.5522 0.398763,-1.29348 0.745554,-2.75824 0.770666,-3.25501 l 0.04564,-0.90325 -8.090149,-7.79369 c -4.449519,-4.28657 -8.135052,-7.79697 -8.190007,-7.80092 -0.280211,-0.0202 -0.02556,6.28734 0.301956,7.47872 0.452438,1.64579 1.352548,2.63647 4.765806,5.24546 z m 41.835707,41.02209 c 1.193673,0.31895 7.502863,0.52826 7.480687,0.24822 -0.0042,-0.0549 -3.54116,-3.71509 -7.859628,-8.13369 l -7.851672,-8.03388 -0.90288,0.0521 c -0.496602,0.0288 -1.958817,0.38601 -3.249399,0.79405 -2.475334,0.78265 -2.522684,0.8951 -0.54769,1.30068 l 1.042549,0.21401 2.973713,4.00033 c 4.30418,5.79008 4.731019,6.32911 6.200345,7.83012 1.192009,1.2176 1.472568,1.39624 2.714029,1.72798 z M 56.884055,187.39732 c 0.47551,0.10312 0.78621,0.37925 1.444239,1.28352 0.461183,0.63362 0.971648,1.21096 1.134554,1.28282 0.224395,0.0991 0.974616,-0.5585 3.096086,-2.71358 l 2.799945,-2.84418 1.085854,-3.44055 c 0.597225,-1.89229 1.088266,-3.56935 1.091243,-3.72681 0.0047,-0.24796 -6.027219,-0.99669 -6.710088,-0.8329 -0.137009,0.0329 -0.347724,0.75544 -0.468344,1.60574 -0.43184,3.04446 -1.129742,4.37328 -3.476855,6.6201 -1.552673,1.48631 -1.723251,1.72682 -2.158695,3.04483 l -0.472831,1.43101 1.014518,-0.92063 c 0.819083,-0.74326 1.131251,-0.89533 1.62036,-0.78922 z m 12.904218,14.41717 c 0.620462,-0.25739 1.324125,-0.84066 2.438162,-2.021 2.191167,-2.32155 3.532816,-3.03464 6.559265,-3.48616 0.849426,-0.12664 1.57046,-0.34264 1.602336,-0.47988 0.158875,-0.68402 -0.6332,-6.71036 -0.881135,-6.70391 -0.157462,0.005 -1.830904,0.50721 -3.718863,1.11801 l -3.432653,1.11055 -2.823966,2.82035 c -2.139718,2.13695 -2.791852,2.89181 -2.691246,3.11552 0.07304,0.16241 0.653666,0.66906 1.290946,1.12529 1.665361,1.19371 1.75301,1.74798 0.481714,3.02847 -0.907264,0.91379 -0.923117,0.95516 -0.325194,0.84759 0.345718,-0.0621 1.021077,-0.27587 1.500753,-0.47484 z m -0.532591,-9.19364 c 0.807437,0.20458 0.929749,0.15714 1.768387,-0.68758 0.797176,-0.80293 1.36623,-1.06023 4.940614,-2.2338 l 4.039638,-1.3263 5.612569,-5.87677 c 3.086892,-3.23222 11.789116,-12.32129 19.33825,-20.19795 42.47544,-44.31819 75.29969,-78.82211 88.18123,-92.693657 9.68231,-10.426398 20.20447,-22.632096 36.45907,-42.292391 5.41379,-6.54811 6.61023,-8.062275 5.70603,-7.221312 -0.19141,0.178142 -2.04989,1.736969 -4.1298,3.464199 -17.46365,14.502203 -34.64932,29.492529 -44.93737,39.196899 -14.36859,13.553371 -49.43082,47.392102 -92.057509,88.845132 -7.821545,7.60621 -16.84743,16.37395 -20.057496,19.48386 l -5.836522,5.65444 -1.297224,4.04908 c -1.145616,3.57582 -1.402076,4.15466 -2.194032,4.95234 -0.744966,0.75035 -0.872723,1.00561 -0.754691,1.50804 0.250844,1.06772 0.700993,1.67502 2.545014,3.4334 1.425124,1.35893 1.989514,1.7689 2.673847,1.94237 z m -1.804426,-16.24487 c 0.49821,-0.0338 1.9813,-1.41238 11.892458,-11.05484 C 131.54682,114.53339 171.61716,75.82999 186.31682,61.997341 196.63185,52.29072 212.53728,38.42991 230.99099,23.065962 c 5.19168,-4.322399 6.34229,-5.385146 11.96356,-11.049982 l 6.21947,-6.2676415 -1.31709,0.4857223 c -2.088,0.7700032 -3.93507,1.8641684 -8.05359,4.7707462 -11.88351,8.386548 -19.50639,14.682711 -38.18636,31.540267 -11.47119,10.352019 -30.1561,28.000525 -97.00874,91.627766 -10.082254,9.5958 -23.723394,22.57515 -30.313636,28.84297 -6.59022,6.26785 -12.300375,11.7165 -12.689205,12.10813 l -0.706957,0.71207 2.991826,0.2893 c 1.645511,0.15923 3.247971,0.27198 3.56103,0.2507 z m 25.875425,6.2629 c 6.504577,-6.93704 20.824439,-22.20566 31.821929,-33.93033 62.42486,-66.552456 77.82028,-83.092216 88.08392,-94.631197 16.72276,-18.800701 22.96395,-26.468658 31.26482,-38.412157 2.8769,-4.139353 3.95771,-5.9942226 4.71271,-8.0877164 l 0.47622,-1.3205514 -6.22274,6.2643598 c -5.62429,5.661866 -6.6787,6.820114 -10.96369,12.042724 -15.23081,18.563737 -28.97691,34.568461 -38.60908,44.953005 -13.83095,14.911293 -57.8316,61.120433 -102.558798,107.706473 -5.927092,6.17343 -10.837514,11.34289 -10.912043,11.4877 -0.262435,0.50986 0.49075,6.91388 0.7908,6.7238 0.159195,-0.10074 5.611371,-5.85907 12.115956,-12.7961 z"
     id="path858"
     inkscape:transform-center-x="5.8255722"
     inkscape:transform-center-y="-11.651879" />
  <path
     style="font-variation-settings:normal;opacity:1;vector-effect:none;fill:#ff8080;fill-opacity:1;stroke-width:0.0267248;stroke-linecap:butt;stroke-linejoin:miter;stroke-miterlimit:4;stroke-dasharray:none;stroke-dashoffset:0;stroke-opacity:1;stop-color:#000000;stop-opacity:1"
     d="m 64.437581,176.22868 c -1.438599,-0.12374 -2.823486,-0.28056 -3.077526,-0.34852 -0.546397,-0.14615 -4.795908,3.95025 47.788535,-46.06652 77.3055,-73.530699 85.32232,-81.064095 101.6828,-95.551228 10.5491,-9.341177 17.5221,-15.035216 25.35788,-20.7068 4.63194,-3.352639 8.04878,-5.6325636 9.64123,-6.4332322 1.41679,-0.7123532 3.07418,-1.3716655 3.18059,-1.265251 0.11762,0.1176172 -12.52735,12.5958142 -14.31203,14.1232672 -0.94408,0.808012 -4.47519,3.779512 -7.84691,6.603333 -14.79672,12.392294 -29.24219,24.976633 -38.08722,33.180126 -9.58087,8.885962 -43.62994,41.701065 -90.323106,87.049735 -29.394528,28.54812 -29.715334,28.85642 -30.56931,29.37721 -0.270789,0.16513 -0.565909,0.29184 -0.655821,0.28156 -0.08991,-0.0103 -1.340513,-0.11995 -2.779112,-0.24368 z"
     id="path869" />
  <path
     style="font-variation-settings:normal;opacity:1;vector-effect:none;fill:#ff8080;fill-opacity:1;stroke-width:0.027095;stroke-linecap:butt;stroke-linejoin:miter;stroke-miterlimit:4;stroke-dasharray:none;stroke-dashoffset:0;stroke-opacity:1;stop-color:#000000;stop-opacity:1"
     d="m 86.427647,182.30732 c 11.630806,-12.04848 68.266513,-71.35465 85.589373,-89.625043 29.72282,-31.348622 32.93411,-34.972857 61.97385,-69.943172 2.28257,-2.748721 4.6309,-5.309422 7.9798,-8.701461 2.60996,-2.643586 5.36344,-5.4591306 6.11883,-6.2567645 0.75539,-0.797634 1.43114,-1.4502435 1.50167,-1.4502435 0.1796,0 -0.73531,2.3250119 -1.46509,3.723175 -1.10881,2.124312 -5.514,8.50735 -9.95568,14.425586 -4.86897,6.487583 -9.4718,12.044349 -18.61522,22.47323 C 205.5932,62.877498 199.63412,69.302592 124.14707,149.82187 L 92.409947,183.6747 h -3.651135 -3.651135 z"
     id="path877" />
  <path
     style="font-variation-settings:normal;opacity:1;vector-effect:none;fill:#ff8080;fill-opacity:1;stroke-width:0.00677376;stroke-linecap:butt;stroke-linejoin:miter;stroke-miterlimit:4;stroke-dasharray:none;stroke-dashoffset:0;stroke-opacity:1;stop-color:#000000;stop-opacity:1"
     d="m 81.10258,195.29451 c -0.267315,-0.64419 -0.726375,-4.35628 -0.72693,-5.87815 l -2.35e-4,-0.64691 0.127323,-0.16108 c 0.07003,-0.0886 1.016312,-1.1002 2.102853,-2.24801 1.086541,-1.14781 2.217928,-2.35245 2.514192,-2.67699 0.296264,-0.32453 1.480287,-1.56699 2.631163,-2.76103 1.83365,-1.90241 10.653398,-11.09974 12.181479,-12.70297 l 0.559935,-0.58748 3.47745,-0.003 3.47745,-0.003 -0.0838,0.0932 c -0.42977,0.47815 -14.976835,15.97328 -15.025243,16.00448 -0.03536,0.0228 -0.824765,0.85253 -1.754226,1.84388 -5.552394,5.92207 -9.304262,9.86165 -9.391763,9.86165 -0.01857,0 -0.05891,-0.0606 -0.08965,-0.13466 z"
     id="path879" />
  <path
     style="font-variation-settings:normal;opacity:1;vector-effect:none;fill:#ff8080;fill-opacity:1;stroke-width:0.00957954;stroke-linecap:butt;stroke-linejoin:miter;stroke-miterlimit:4;stroke-dasharray:none;stroke-dashoffset:0;stroke-opacity:1;stop-color:#000000;stop-opacity:1"
     d="m 67.889805,202.29671 c -0.02121,-0.0343 0.242019,-0.35988 0.584964,-0.72345 0.758535,-0.80416 0.962003,-1.13059 0.962768,-1.54462 9.49e-4,-0.51356 -0.247616,-0.80124 -1.552316,-1.79663 -0.322292,-0.24589 -0.703874,-0.5678 -0.847958,-0.71538 l -0.261971,-0.26831 0.107496,-0.1996 c 0.196265,-0.36445 1.036568,-1.27052 3.239968,-3.49358 l 2.180941,-2.20039 2.420059,-0.78197 c 2.745375,-0.88708 4.404945,-1.39399 4.651188,-1.42067 0.149604,-0.0162 0.176699,0.007 0.245692,0.21426 0.256003,0.76753 0.775405,4.75427 0.775405,5.95173 v 0.57551 l -0.309497,0.1158 c -0.311298,0.11647 -0.484519,0.1546 -2.153173,0.47392 -1.122351,0.21478 -1.731463,0.40229 -2.488919,0.76619 -0.944454,0.45373 -1.51504,0.90221 -2.988533,2.349 -1.966167,1.93054 -2.181622,2.08832 -3.393725,2.48538 -0.691323,0.22646 -1.116278,0.3036 -1.172389,0.21281 z"
     id="path881" />
  <path
     style="font-variation-settings:normal;opacity:1;vector-effect:none;fill:#ff8080;fill-opacity:1;stroke-width:0.00957954;stroke-linecap:butt;stroke-linejoin:miter;stroke-miterlimit:4;stroke-dasharray:none;stroke-dashoffset:0;stroke-opacity:1;stop-color:#000000;stop-opacity:1"
     d="m 59.115914,189.64662 c -0.1758,-0.18531 -0.53358,-0.61382 -0.795067,-0.95222 -0.802455,-1.03852 -1.13047,-1.28917 -1.687026,-1.28917 -0.434226,0 -0.696505,0.17433 -1.838876,1.22226 -0.293655,0.26938 -0.533918,0.46451 -0.533918,0.43363 0,-0.11969 0.706774,-2.13566 0.842945,-2.40438 0.232434,-0.45869 0.575547,-0.85384 1.792406,-2.06425 2.255331,-2.24338 2.874509,-3.33216 3.315785,-5.83057 0.277884,-1.57333 0.330369,-1.81838 0.44867,-2.0949 l 0.11908,-0.27835 h 0.578826 c 1.3675,0 5.950143,0.6015 6.156753,0.80811 0.06248,0.0625 -0.355003,1.52811 -1.215506,4.26718 -0.343128,1.09222 -0.690973,2.20144 -0.772988,2.46493 l -0.149119,0.47908 -2.408747,2.42993 c -2.300222,2.32046 -3.199795,3.14567 -3.429142,3.14567 -0.05744,0 -0.248276,-0.15163 -0.424076,-0.33695 z"
     id="path883" />
  <path
     style="font-variation-settings:normal;opacity:1;vector-effect:none;fill:#ff5555;fill-opacity:1;stroke-width:0.0273821;stroke-linecap:butt;stroke-linejoin:miter;stroke-miterlimit:4;stroke-dasharray:none;stroke-dashoffset:0;stroke-opacity:1;stop-color:#000000;stop-opacity:1"
     d="m 68.744735,192.46212 c -0.783845,-0.38583 -4.045927,-3.55858 -4.377775,-4.25791 -0.551832,-1.1629 -0.524091,-1.48504 0.195513,-2.27044 0.944899,-1.0313 1.354631,-1.94769 2.587778,-5.78769 l 1.095199,-3.41044 30.041787,-29.16578 C 141.87225,105.25577 167.909,80.110833 182.11234,66.615949 c 9.79479,-9.306232 19.08391,-17.635406 32.0711,-28.756846 9.83851,-8.4251 21.29786,-18.020737 21.29786,-17.834036 0,0.322651 -14.56522,17.892262 -23.51772,28.368755 -8.22393,9.623904 -14.09588,16.208896 -21.65198,24.28122 -14.65275,15.653817 -36.56843,38.681918 -81.49972,85.636558 l -28.815328,30.11296 -3.595568,1.19359 c -4.14185,1.37495 -4.309128,1.44957 -5.415884,2.41594 -0.912512,0.79677 -1.32941,0.87641 -2.240365,0.42803 z"
     id="path885" />
  <path
     style="font-variation-settings:normal;opacity:1;vector-effect:none;fill:#ffdd55;fill-opacity:1;stroke-width:0.00978364;stroke-linecap:butt;stroke-linejoin:miter;stroke-miterlimit:4;stroke-dasharray:none;stroke-dashoffset:0;stroke-opacity:1;stop-color:#000000;stop-opacity:1"
     d="m 55.70366,208.65248 c -1.413648,-0.52119 -4.012386,-2.19694 -4.877127,-3.14492 -0.675092,-0.74008 -1.833171,-2.55518 -2.39144,-3.74819 -0.656447,-1.40282 -0.586216,-3.16265 0.1896,-4.75087 0.344873,-0.70602 0.727001,-1.17418 2.202293,-2.69814 0.98176,-1.01414 2.094975,-2.26464 2.473812,-2.77888 1.667072,-2.26292 1.995033,-2.66288 2.645836,-3.22668 l 0.689519,-0.59734 0.737794,0.74133 c 0.405787,0.40774 0.908004,0.99307 1.116038,1.30073 0.208035,0.30767 0.517916,0.6125 0.688626,0.67741 0.583879,0.22199 0.981491,-0.044 2.554518,-1.70909 0.820279,-0.86826 1.537397,-1.57867 1.593595,-1.57867 0.0562,0 0.35268,0.48502 0.658847,1.07781 0.948726,1.83691 3.153934,3.92356 5.050543,4.77901 0.338407,0.15263 0.615286,0.32708 0.615286,0.38767 0,0.0606 -0.708186,0.79385 -1.573746,1.62947 -0.86556,0.83562 -1.620156,1.66041 -1.676881,1.83287 -0.209917,0.63819 -0.03112,0.95676 0.895103,1.59488 0.477072,0.32867 1.076543,0.84433 1.332158,1.14591 l 0.464753,0.54833 -0.592012,0.68036 c -0.570098,0.65519 -1.103841,1.09857 -3.127079,2.59768 -0.515668,0.38208 -1.736006,1.47821 -2.71186,2.43583 -1.926981,1.89097 -2.713799,2.44712 -3.900276,2.75684 -0.909287,0.23737 -2.475793,0.26126 -3.0579,0.0466 z m 7.120098,-4.82227 c 1.758582,-0.36324 2.842932,-1.2279 2.842932,-2.26693 0,-0.66856 -1.840682,-2.52531 -2.972116,-2.99806 -1.06098,-0.4433 -2.668581,-0.0538 -3.592835,0.87041 -0.97515,0.97515 -0.991972,2.16638 -0.0462,3.2713 0.61454,0.71795 1.419545,1.0932 2.777876,1.29488 0.05106,0.008 0.496715,-0.0696 0.990341,-0.1716 z m -5.807786,-5.78037 c 0.425321,-0.26973 0.624467,-0.51598 0.960524,-1.18772 0.849411,-1.69787 0.505655,-2.96006 -1.270602,-4.66534 -0.542981,-0.52128 -1.125443,-0.98247 -1.29436,-1.02487 -0.732285,-0.18379 -1.790559,0.66715 -2.169082,1.74411 -0.749796,2.13331 -0.506172,3.64076 0.769394,4.76072 0.604092,0.5304 1.047412,0.70337 1.816619,0.70879 0.522023,0.004 0.757205,-0.0628 1.187507,-0.33569 z m 4.147331,-1.47516 c 1.031159,-0.45603 2.511031,-1.47717 2.511031,-1.73266 0,-0.26657 -1.212092,-1.56259 -1.69503,-1.81239 -0.341932,-0.17687 -0.353138,-0.17283 -0.730416,0.26362 -0.481481,0.55699 -1.559264,2.63924 -1.559264,3.01246 0,0.62557 0.472385,0.71179 1.473679,0.26897 z"
     id="path887" />
  <path
     style="font-variation-settings:normal;opacity:1;vector-effect:none;fill:#ffdd55;fill-opacity:1;stroke-width:0.00978364;stroke-linecap:butt;stroke-linejoin:miter;stroke-miterlimit:4;stroke-dasharray:none;stroke-dashoffset:0;stroke-opacity:1;stop-color:#000000;stop-opacity:1"
     d="m 23.768629,238.19428 c -0.741834,-0.3482 -2.494889,-1.89753 -3.715304,-3.28354 -0.997755,-1.13313 -1.566841,-2.13652 -1.456748,-2.56848 0.262605,-1.03036 11.128304,-12.91626 20.524908,-22.45203 3.497192,-3.54898 4.746925,-4.70629 5.071796,-4.69669 0.111146,0.003 0.676735,0.58745 1.256862,1.29815 1.78364,2.18509 4.111608,4.31633 6.552714,5.99896 0.206772,0.14252 -0.177448,0.55178 -4.980889,5.30543 -13.024599,12.88959 -19.408995,18.91451 -21.544771,20.3317 -0.625156,0.41483 -0.940344,0.42709 -1.708568,0.0665 z"
     id="path889" />
  <path
     style="font-variation-settings:normal;opacity:1;vector-effect:none;fill:#ffdd55;fill-opacity:1;stroke-width:0.00978364;stroke-linecap:butt;stroke-linejoin:miter;stroke-miterlimit:4;stroke-dasharray:none;stroke-dashoffset:0;stroke-opacity:1;stop-color:#000000;stop-opacity:1"
     d="m 19.223248,243.60094 c -0.821562,-0.20897 -1.523501,-0.68305 -2.746385,-1.85487 -0.706766,-0.67725 -1.547562,-1.58118 -1.868437,-2.00874 -0.598238,-0.79714 -1.172699,-2.0311 -1.172699,-2.51899 0,-0.33092 0.453113,-0.97464 1.380699,-1.9615 l 0.690808,-0.73496 0.507085,0.75407 c 0.598518,0.89003 4.005754,4.2996 5.372345,5.37602 0.525835,0.41419 0.956064,0.79349 0.956064,0.84291 0,0.11561 -1.036111,1.34949 -1.495935,1.78147 -0.384434,0.36115 -0.997727,0.48377 -1.623545,0.32459 z"
     id="path891" />
  <path
     style="font-variation-settings:normal;opacity:1;vector-effect:none;fill:#ffe6d5;fill-opacity:1;stroke-width:0.00699135;stroke-linecap:butt;stroke-linejoin:miter;stroke-miterlimit:4;stroke-dasharray:none;stroke-dashoffset:0;stroke-opacity:1;stop-color:#000000;stop-opacity:1"
     d="m 11.083404,252.31216 c -0.518655,-0.0564 -1.2607546,-0.2116 -1.7965106,-0.37579 -2.1442265,-0.65713 -3.4357505,-1.9127 -4.1218163,-4.00707 -0.3230791,-0.98627 -0.4617611,-1.94088 -0.4646185,-3.19815 -0.00293,-1.28961 0.087436,-1.72371 0.5550297,-2.66624 0.3881415,-0.78239 0.9136317,-1.46843 1.9016336,-2.48264 1.3354264,-1.37086 1.8258664,-1.71012 3.1644991,-2.18908 1.348598,-0.48252 2.190063,-0.63048 2.398744,-0.4218 0.137817,0.13782 0.184932,0.24251 0.467104,1.03793 0.293184,0.82647 0.42246,1.09881 0.7534,1.58715 0.546169,0.80594 2.407042,2.78318 3.222925,3.42447 0.82381,0.64752 1.351606,0.88872 2.5213,1.15222 0.352394,0.0794 0.680281,0.17716 0.72864,0.2173 0.128479,0.10663 0.06422,0.52099 -0.247964,1.59886 -0.342457,1.18241 -0.628497,1.88822 -0.972739,2.40027 -0.284982,0.42389 -1.373051,1.54524 -1.898167,1.95621 -1.1844,0.92696 -2.509389,1.55658 -3.851087,1.83 -0.57697,0.11758 -1.854235,0.19137 -2.360373,0.13636 z"
     id="path899" />
  <path
     style="font-variation-settings:normal;opacity:1;vector-effect:none;fill:#ffe6d5;fill-opacity:1;stroke-width:0.00699135;stroke-linecap:butt;stroke-linejoin:miter;stroke-miterlimit:4;stroke-dasharray:none;stroke-dashoffset:0;stroke-opacity:1;stop-color:#000000;stop-opacity:1"
     d="m 25.203067,241.9131 c -0.726698,-0.12012 -2.328212,-0.78981 -3.139993,-1.31302 -0.873637,-0.56307 -2.796612,-2.326 -4.22534,-3.87367 -1.160495,-1.25711 -1.519218,-1.71536 -1.83014,-2.33793 -0.342031,-0.68486 -0.723659,-1.85646 -0.771149,-2.36744 -0.03534,-0.38027 -0.02957,-0.40816 0.1022,-0.49331 0.233225,-0.1507 1.085464,-0.28232 2.049423,-0.31651 1.061555,-0.0376 1.104734,-0.0159 0.845467,0.42654 -0.182996,0.31226 -0.189584,0.60917 -0.02657,1.19743 0.285161,1.02904 0.8686,1.82113 2.657472,3.60784 1.245282,1.24378 1.906665,1.7732 2.725707,2.18184 l 0.552607,0.27571 h 0.79461 0.79461 l 0.08472,0.23439 c 0.125672,0.34769 0.12921,2.5678 0.0043,2.687 -0.128742,0.12283 -0.285914,0.14601 -0.617906,0.0911 z"
     id="path901" />
  <path
     style="font-variation-settings:normal;opacity:1;vector-effect:none;fill:#ffe6d5;fill-opacity:1;stroke-width:0.00988726;stroke-linecap:butt;stroke-linejoin:miter;stroke-miterlimit:4;stroke-dasharray:none;stroke-dashoffset:0;stroke-opacity:1;stop-color:#000000;stop-opacity:1"
     d="m 92.507411,221.69466 c -0.719016,-0.2521 -1.468692,-0.76775 -2.597441,-1.7866 -0.496776,-0.44841 -3.830648,-3.77308 -7.408606,-7.38816 -6.555864,-6.62388 -7.859216,-7.88759 -8.345764,-8.09194 -0.335918,-0.14109 -1.16114,-0.0376 -2.468909,0.30958 -2.974777,0.78977 -4.146415,1.07848 -4.847956,1.19462 -0.956784,0.15839 -3.93259,0.27239 -3.885465,0.14885 0.06884,-0.18047 2.057457,-1.88698 2.683834,-2.30311 0.560667,-0.37248 0.879697,-0.50692 2.067485,-0.8713 1.6515,-0.50664 2.474385,-0.81426 3.011476,-1.1258 0.214791,-0.12459 1.015886,-0.84354 1.780211,-1.59767 l 1.389682,-1.37114 0.599224,0.58263 c 0.329572,0.32044 2.575697,2.49942 4.991389,4.84218 7.150773,6.93488 10.37249,10.07283 13.093627,12.75317 4.511156,4.44353 4.386737,4.31372 4.258048,4.44233 -0.203975,0.20385 -1.245725,0.37692 -2.517756,0.41829 -1.153003,0.0375 -1.28364,0.0262 -1.803079,-0.15593 z"
     id="path903" />
  <path
     style="font-variation-settings:normal;opacity:1;vector-effect:none;fill:#ffe6d5;fill-opacity:1;stroke-width:0.00988726;stroke-linecap:butt;stroke-linejoin:miter;stroke-miterlimit:4;stroke-dasharray:none;stroke-dashoffset:0;stroke-opacity:1;stop-color:#000000;stop-opacity:1"
     d="m 50.637459,192.48576 c 0.0997,-2.36975 0.25729,-3.32297 0.99215,-6.0013 0.790315,-2.88045 0.863687,-3.54314 0.452475,-4.08671 -0.57691,-0.76262 -2.049112,-2.24323 -7.195646,-7.23676 -9.676212,-9.38853 -9.906935,-9.64865 -10.203131,-11.50276 -0.142126,-0.88967 0.191041,-3.48861 0.457248,-3.56687 0.149918,-0.0441 5.196787,5.00435 18.22264,18.22825 l 4.548915,4.61808 -1.23692,1.26238 c -1.838863,1.8767 -2.369705,2.77532 -2.801815,4.74296 -0.250079,1.13874 -0.652734,2.05904 -1.241332,2.83716 -0.387603,0.51241 -1.837389,1.92792 -1.974599,1.92792 -0.03928,0 -0.04827,-0.55005 -0.01998,-1.22235 z"
     id="path905" />
  <path
     style="font-variation-settings:normal;opacity:1;vector-effect:none;fill:#ffe6d5;fill-opacity:1;stroke-width:0.00988726;stroke-linecap:butt;stroke-linejoin:miter;stroke-miterlimit:4;stroke-dasharray:none;stroke-dashoffset:0;stroke-opacity:1;stop-color:#000000;stop-opacity:1"
     d="m 76.990439,219.64738 c -4.198762,-0.3717 -5.936714,-0.73935 -6.711717,-1.41982 -0.497214,-0.43656 -1.657566,-2.91329 -2.984676,-6.37069 -1.205026,-3.13934 -1.753686,-3.94743 -2.839264,-4.18177 -0.306892,-0.0662 -0.848019,-0.53539 -0.848019,-0.73521 0,-0.26986 0.340841,-0.33565 1.924389,-0.37149 1.544383,-0.035 1.553364,-0.0341 1.966507,0.1819 0.228271,0.11936 0.835329,0.3311 1.349018,0.47053 0.513689,0.13943 1.088818,0.34401 1.278065,0.45461 0.492849,0.28804 0.947661,0.84422 3.690393,4.51292 2.361209,3.15837 4.29571,5.64548 5.30332,6.81827 0.265332,0.30883 0.482422,0.59385 0.482422,0.63338 0,0.20871 -0.325766,0.20963 -2.610438,0.007 z"
     id="path911" />
  <path
     style="font-variation-settings:normal;opacity:1;vector-effect:none;fill:#ffe6d5;fill-opacity:1;stroke-width:0.00988726;stroke-linecap:butt;stroke-linejoin:miter;stroke-miterlimit:4;stroke-dasharray:none;stroke-dashoffset:0;stroke-opacity:1;stop-color:#000000;stop-opacity:1"
     d="m 49.443201,192.98004 c -0.198964,-0.20916 -0.336476,-0.46216 -0.412572,-0.75907 -0.238355,-0.93001 -0.937563,-1.3581 -4.463939,-2.73301 -2.998602,-1.16915 -3.588701,-1.41584 -4.602923,-1.92432 -1.5909,-0.79759 -1.808234,-1.0379 -2.164675,-2.39349 -0.348163,-1.32412 -0.583943,-3.01092 -0.833708,-5.96447 -0.117282,-1.3869 -0.106393,-1.82317 0.0455,-1.82317 0.0381,0 0.807559,0.59033 1.709909,1.31184 1.74307,1.39374 4.447654,3.43799 7.448921,5.63023 2.822065,2.06134 2.913943,2.16293 3.337747,3.69028 0.136586,0.49225 0.330735,1.03298 0.431441,1.20163 0.127798,0.21402 0.203731,0.52485 0.251402,1.02911 0.06678,0.70637 -0.0221,2.61517 -0.135181,2.90313 -0.08911,0.22693 -0.287639,0.1722 -0.611925,-0.16869 z"
     id="path913" />
  <path
     style="font-variation-settings:normal;opacity:1;vector-effect:none;fill:#ffe6d5;fill-opacity:1;stroke-width:0.00988726;stroke-linecap:butt;stroke-linejoin:miter;stroke-miterlimit:4;stroke-dasharray:none;stroke-dashoffset:0;stroke-opacity:1;stop-color:#000000;stop-opacity:1"
     d="m 44.658796,202.57361 c -0.234458,-0.093 -0.519367,-0.26215 -0.633132,-0.37591 -0.274182,-0.27418 -0.718409,-1.13083 -1.138563,-2.1956 -0.440383,-1.11603 -1.018441,-3.30911 -0.882916,-3.34966 0.107524,-0.0322 6.217562,-0.20063 6.250537,-0.17232 0.0113,0.01 -0.07446,0.29429 -0.190569,0.63243 -0.413038,1.20288 -0.477215,1.61459 -0.485756,3.11619 -0.0095,1.67871 -0.02808,1.72366 -0.893925,2.16874 -0.705416,0.36262 -1.402612,0.42324 -2.025676,0.17613 z"
     id="path915" />
  <path
     style="font-variation-settings:normal;opacity:1;vector-effect:none;fill:#ffe6d5;fill-opacity:1;stroke-width:0.00988726;stroke-linecap:butt;stroke-linejoin:miter;stroke-miterlimit:4;stroke-dasharray:none;stroke-dashoffset:0;stroke-opacity:1;stop-color:#000000;stop-opacity:1"
     d="m 59.380339,214.67913 c -2.933973,-0.62244 -4.936878,-1.76508 -5.207837,-2.97103 -0.199496,-0.88789 0.487507,-2.22029 1.250784,-2.42582 0.209006,-0.0563 0.623375,-0.0696 1.090472,-0.035 0.985827,0.0729 1.943103,-0.064 2.941174,-0.42079 0.437555,-0.1564 0.823523,-0.28438 0.857707,-0.28439 0.07675,-3e-5 0.08002,1.92828 0.0075,4.42018 -0.03705,1.2731 -0.08376,1.87611 -0.145024,1.87216 -0.0497,-0.003 -0.407352,-0.0731 -0.794775,-0.15527 z"
     id="path917" />
  <path
     style="font-variation-settings:normal;opacity:1;vector-effect:none;fill:#ff9955;fill-opacity:1;stroke-width:0.00988726;stroke-linecap:butt;stroke-linejoin:miter;stroke-miterlimit:4;stroke-dasharray:none;stroke-dashoffset:0;stroke-opacity:1;stop-color:#000000;stop-opacity:1"
     d="m 50.115779,188.46509 c -0.08935,-0.1744 -0.550464,-2.02072 -0.550464,-2.2041 0,-0.0191 -0.326305,-0.27074 -0.725122,-0.55911 -1.623014,-1.17354 -5.781628,-4.22961 -7.023322,-5.16128 -4.024306,-3.01952 -5.266855,-4.2561 -5.802675,-5.77477 -0.357565,-1.01345 -0.71138,-7.47252 -0.425016,-7.75888 0.02574,-0.0257 0.169571,0.0556 0.319628,0.18082 0.356815,0.29768 4.316335,4.08334 10.801841,10.32754 l 5.225262,5.03084 -0.03181,0.56657 c -0.07823,1.39341 -1.27736,5.58027 -1.598214,5.58027 -0.04034,0 -0.125892,-0.10255 -0.190111,-0.2279 z"
     id="path919" />
  <path
     style="font-variation-settings:normal;opacity:1;vector-effect:none;fill:#ff9955;fill-opacity:1;stroke-width:0.00988726;stroke-linecap:butt;stroke-linejoin:miter;stroke-miterlimit:4;stroke-dasharray:none;stroke-dashoffset:0;stroke-opacity:1;stop-color:#000000;stop-opacity:1"
     d="m 42.581826,195.98144 c -1.381503,-0.16078 -1.732174,-0.80735 -2.832669,-5.22295 -0.290531,-1.16572 -0.554378,-2.29381 -0.586326,-2.50685 -0.0529,-0.35277 -0.04311,-0.38736 0.109635,-0.38736 0.09225,0 0.5906,0.1909 1.107451,0.42423 0.51685,0.23333 1.648275,0.70286 2.514278,1.04339 3.573648,1.40527 4.331437,1.71257 4.780558,1.93861 0.442534,0.22273 0.489663,0.27642 0.773123,0.88089 0.166024,0.35404 0.364168,0.77239 0.440319,0.92968 0.105749,0.21842 0.270605,0.35073 0.697838,0.56008 0.307658,0.15076 0.559379,0.29016 0.559379,0.30977 0,0.0567 -1.513647,1.98665 -1.611031,2.05416 -0.116079,0.0805 -5.23257,0.0601 -5.952555,-0.0237 z"
     id="path921" />
  <path
     style="font-variation-settings:normal;opacity:1;vector-effect:none;fill:#ff9955;fill-opacity:1;stroke-width:0.00988726;stroke-linecap:butt;stroke-linejoin:miter;stroke-miterlimit:4;stroke-dasharray:none;stroke-dashoffset:0;stroke-opacity:1;stop-color:#000000;stop-opacity:1"
     d="m 52.521002,212.50618 c -0.281045,-0.30299 -0.995787,-0.91372 -1.588315,-1.35717 -2.35058,-1.75918 -3.993545,-3.38481 -5.680508,-5.6206 -0.6074,-0.805 -0.854396,-1.06923 -1.063613,-1.1378 -0.149875,-0.0491 -0.306066,-0.14236 -0.347093,-0.20718 -0.116978,-0.18483 -0.09001,-0.51839 0.05913,-0.73131 0.126266,-0.18027 0.17034,-0.18978 0.600815,-0.1296 1.106578,0.15469 1.960434,-0.0525 2.797953,-0.67894 0.264525,-0.19785 0.526124,-0.35974 0.581331,-0.35974 0.136548,0 0.675977,0.71814 1.622223,2.15967 0.481162,0.73301 0.968277,1.36732 1.240979,1.61598 0.246901,0.22514 1.117575,0.86659 1.934833,1.42545 0.817257,0.55885 1.57728,1.08672 1.688942,1.17304 l 0.203019,0.15694 -0.464453,0.95114 c -0.64933,1.32975 -0.749818,1.91099 -0.46002,2.66082 0.08344,0.2159 0.07,0.25951 -0.13411,0.43508 -0.124765,0.10731 -0.283832,0.19512 -0.353484,0.19512 -0.06965,0 -0.356584,-0.24791 -0.637629,-0.5509 z"
     id="path923" />
  <path
     style="font-variation-settings:normal;opacity:1;vector-effect:none;fill:#ff9955;fill-opacity:1;stroke-width:0.00988726;stroke-linecap:butt;stroke-linejoin:miter;stroke-miterlimit:4;stroke-dasharray:none;stroke-dashoffset:0;stroke-opacity:1;stop-color:#000000;stop-opacity:1"
     d="m 67.506899,217.32755 c -4.331875,-0.98444 -5.725488,-1.47819 -6.325619,-2.24113 -0.346718,-0.44078 -0.386994,-0.99061 -0.359164,-4.90321 l 0.01366,-1.92086 0.999793,-0.79317 c 0.549886,-0.43624 1.034729,-0.79317 1.077428,-0.79317 0.0427,0 0.191288,0.24055 0.330198,0.53455 0.27136,0.57433 0.221819,0.53837 1.549632,1.12478 0.239267,0.10567 0.491219,0.25421 0.559894,0.3301 0.223899,0.2474 0.622076,1.15346 1.820694,4.14303 0.648734,1.61805 1.390047,3.36083 1.647363,3.87284 0.257315,0.512 0.467845,0.95018 0.467845,0.97373 0,0.0711 -0.145142,0.0444 -1.781727,-0.32749 z"
     id="path925" />
  <path
     style="font-variation-settings:normal;opacity:1;vector-effect:none;fill:#ff9955;fill-opacity:1;stroke-width:0.00988726;stroke-linecap:butt;stroke-linejoin:miter;stroke-miterlimit:4;stroke-dasharray:none;stroke-dashoffset:0;stroke-opacity:1;stop-color:#000000;stop-opacity:1"
     d="m 85.987144,221.04351 c -4.00973,-0.25736 -4.443789,-0.38527 -5.822579,-1.71584 -1.488009,-1.43597 -2.822636,-3.12099 -7.723454,-9.75117 -0.92649,-1.25343 -1.712073,-2.30998 -1.745738,-2.34789 -0.03367,-0.0379 -0.480259,-0.15768 -0.99243,-0.26615 -1.598349,-0.33851 -1.789608,-0.46356 -1.180874,-0.77206 0.866144,-0.43896 4.071872,-1.30967 5.117288,-1.38991 l 0.662968,-0.0509 4.641994,4.75456 c 4.922095,5.04144 9.574346,9.82884 10.519373,10.82496 0.313557,0.33051 0.542263,0.62885 0.508236,0.66297 -0.06155,0.0617 -3.194345,0.10215 -3.984784,0.0514 z"
     id="path927" />
  <path
     style="font-variation-settings:normal;opacity:1;vector-effect:none;fill:#ff5555;fill-opacity:1;stroke-width:0.00113459;stroke-linecap:butt;stroke-linejoin:miter;stroke-miterlimit:4;stroke-dasharray:none;stroke-dashoffset:0;stroke-opacity:1;stop-color:#000000;stop-opacity:1"
     d="m 55.243321,197.88329 c -0.948468,-0.33576 -1.632429,-1.07028 -1.887451,-2.02698 -0.111969,-0.42004 -0.120727,-1.21018 -0.01873,-1.69002 0.282921,-1.33101 0.717229,-2.05969 1.446075,-2.42619 0.575988,-0.28964 0.715054,-0.22828 1.689044,0.74532 0.849964,0.84963 1.262549,1.43014 1.428765,2.01027 0.311327,1.08662 -0.43772,2.9029 -1.390073,3.37063 -0.346664,0.17026 -0.81683,0.17655 -1.267626,0.017 z"
     id="path855" />
  <path
     style="font-variation-settings:normal;opacity:1;vector-effect:none;fill:#ff5555;fill-opacity:1;stroke-width:0.00113459;stroke-linecap:butt;stroke-linejoin:miter;stroke-miterlimit:4;stroke-dasharray:none;stroke-dashoffset:0;stroke-opacity:1;stop-color:#000000;stop-opacity:1"
     d="m 61.247256,203.50603 c -0.332362,-0.0388 -0.705607,-0.17636 -1.023718,-0.3774 -0.262163,-0.16569 -0.739024,-0.61601 -0.902157,-0.85195 -0.296139,-0.42831 -0.48835,-0.97123 -0.489661,-1.38311 -9.03e-4,-0.28379 0.141678,-0.69093 0.320062,-0.91395 0.581869,-0.72744 2.019498,-1.28397 2.969313,-1.14946 0.597944,0.0847 1.286965,0.55103 2.288197,1.54872 0.730601,0.72802 0.867676,0.92515 0.831389,1.19569 -0.06792,0.50635 -0.602317,1.14756 -1.192994,1.43143 -0.777918,0.37385 -2.004401,0.59284 -2.800431,0.50003 z"
     id="path857" />
  <path
     style="font-variation-settings:normal;opacity:1;vector-effect:none;fill:#ff5555;fill-opacity:1;stroke-width:0.00113459;stroke-linecap:butt;stroke-linejoin:miter;stroke-miterlimit:4;stroke-dasharray:none;stroke-dashoffset:0;stroke-opacity:1;stop-color:#000000;stop-opacity:1"
     d="m 60.19848,196.25973 c 0,-0.36586 0.792454,-1.9173 1.225163,-2.39858 0.230161,-0.256 0.382139,-0.29823 0.705906,-0.19617 0.40867,0.12882 0.886547,0.6786 0.886547,1.01994 0,0.36334 -0.417335,0.71003 -1.470961,1.22198 -0.586792,0.28511 -1.086584,0.47619 -1.245536,0.47619 -0.08456,0 -0.101119,-0.0202 -0.101119,-0.12336 z"
     id="path859" />
</svg>
