<?xml version="1.0" encoding="UTF-8" standalone="no"?>
<svg
   xmlns:dc="http://purl.org/dc/elements/1.1/"
   xmlns:cc="http://creativecommons.org/ns#"
   xmlns:rdf="http://www.w3.org/1999/02/22-rdf-syntax-ns#"
   xmlns:svg="http://www.w3.org/2000/svg"
   xmlns="http://www.w3.org/2000/svg"
   xmlns:sodipodi="http://sodipodi.sourceforge.net/DTD/sodipodi-0.dtd"
   xmlns:inkscape="http://www.inkscape.org/namespaces/inkscape"
   cursor="default"
   viewBox="0 0 256 256"
   version="1.1"
   id="svg50"
   sodipodi:docname="telesto.svg"
   inkscape:version="1.0.2-2 (e86c870879, 2021-01-15)">
  <metadata
     id="metadata56">
    <rdf:RDF>
      <cc:Work
         rdf:about="">
        <dc:format>image/svg+xml</dc:format>
        <dc:type
           rdf:resource="http://purl.org/dc/dcmitype/StillImage" />
      </cc:Work>
    </rdf:RDF>
  </metadata>
  <defs
     id="defs54" />
  <sodipodi:namedview
     pagecolor="#ffffff"
     bordercolor="#666666"
     borderopacity="1"
     objecttolerance="10"
     gridtolerance="10"
     guidetolerance="10"
     inkscape:pageopacity="0"
     inkscape:pageshadow="2"
     inkscape:window-width="1920"
     inkscape:window-height="1017"
     id="namedview52"
     showgrid="false"
     inkscape:zoom="2.0516816"
     inkscape:cx="123.1506"
     inkscape:cy="165.54559"
     inkscape:window-x="-8"
     inkscape:window-y="-8"
     inkscape:window-maximized="1"
     inkscape:current-layer="svg50"
     inkscape:document-rotation="0" />
  <path
     style="fill:#000000;stroke-width:0.240276"
     d="m 12.955388,249.86107 c 1.424364,-3.08385 13.400178,-22.84048 17.034471,-28.10195 l 0.904814,-1.30993 2.026805,-0.43457 c 2.400651,-0.5147 3.328921,-0.86987 5.338343,-2.0425 1.927749,-1.12498 2.378138,-1.58363 2.31797,-2.36043 -0.04159,-0.53711 0.161394,-0.84099 1.367352,-2.04696 1.305684,-1.30568 1.482792,-1.41393 2.269285,-1.38691 0.852016,0.0292 0.855348,0.0267 2.689329,-2.04221 1.543652,-1.7414 1.840889,-2.18873 1.865346,-2.80727 0.02476,-0.6259 0.294249,-1.02373 1.804294,-2.66355 1.706605,-1.85327 1.797689,-1.92094 2.357616,-1.75142 0.573542,0.17372 0.61886,0.13678 2.971,-2.41545 3.245063,-3.52116 5.296569,-5.71435 22.853738,-24.43207 8.367204,-8.92028 22.055419,-23.52065 30.418279,-32.44528 8.36285,-8.92462 23.15906,-24.71067 32.88047,-35.08009 9.72142,-10.369445 18.97839,-20.259229 20.57105,-21.977293 l 2.89574,-3.123738 -1.40189,-0.08938 c -1.38158,-0.08794 -4.54285,-1.169494 -4.54286,-1.554129 -5e-5,-0.160565 6.0344,-3.641421 7.27581,-4.196839 0.27943,-0.125064 0.13878,-0.365425 -0.74736,-1.277222 -0.60015,-0.617987 -1.09164,-1.197913 -1.09158,-1.28935 -7e-5,-0.09137 1.42055,-0.567979 3.15677,-1.059135 5.38974,-1.524683 5.99872,-1.807015 7.81174,-3.621328 2.18717,-2.188875 5.3893,-7.430918 6.70267,-10.972955 1.47757,-3.984896 2.37073,-6.169681 4.01857,-9.829951 0.84128,-1.868664 1.84741,-4.455924 2.23589,-5.749491 1.35103,-4.498795 3.47026,-7.780269 6.22473,-9.638571 2.1073,-1.421676 6.50725,-3.581592 13.41562,-6.585672 3.58784,-1.560148 7.38147,-3.309154 8.43028,-3.886666 2.74703,-1.512645 9.68618,-6.567435 26.43358,-19.2554078 0.84795,-0.6424044 1.27715,-0.6154814 0.90639,0.056946 -0.11623,0.210807 -1.34799,2.0755061 -2.73721,4.1437853 -4.20129,6.2549545 -11.23806,17.1584215 -13.26157,20.5488315 -2.12465,3.559877 -3.41564,6.28213 -5.30144,11.178986 -1.40081,3.637438 -4.22618,9.79236 -5.84293,12.728466 -1.83911,3.339934 -4.76547,5.764628 -9.82049,8.136918 -1.27198,0.596938 -3.69197,1.846823 -5.37776,2.777524 -1.68579,0.930682 -3.51342,1.855454 -4.0614,2.055052 -0.54797,0.19958 -1.9881,0.90021 -3.20029,1.556941 -1.21218,0.656749 -2.51397,1.342799 -2.89285,1.524593 -0.37889,0.181793 -3.0189,1.943288 -5.86668,3.914435 l -5.17782,3.583935 -1.98577,5.518609 c -1.09217,3.03522 -2.02762,5.611415 -2.07878,5.724874 -0.15768,0.349675 -0.94072,-0.608994 -1.48269,-1.815232 l -0.5155,-1.147329 -0.5056,1.307389 c -0.27808,0.719083 -0.81474,2.241748 -1.19258,3.383742 -0.37783,1.141976 -0.82506,2.137804 -0.99386,2.212987 -0.21633,0.09641 -0.49559,-0.107224 -0.94628,-0.690034 -0.80076,-1.035473 -1.14993,-2.043267 -1.18606,-3.423982 l -0.0282,-1.076939 -1.93482,2.125261 c -1.06414,1.168881 -18.75946,20.011469 -39.32294,41.872399 -20.56348,21.86092 -40.832079,43.41358 -45.041332,47.89479 -4.209256,4.48121 -11.840008,12.59774 -16.957256,18.03677 -8.710785,9.25855 -9.300204,9.92595 -9.243385,10.46637 0.04689,0.4462 -0.270216,0.97898 -1.396806,2.34672 -2.003009,2.43178 -1.949813,2.38875 -2.952597,2.38875 -0.883931,0 -0.915417,0.0231 -2.730231,2.00551 -1.669536,1.8237 -1.829225,2.06974 -1.761516,2.71396 0.0648,0.61648 -0.106989,0.91003 -1.323341,2.26114 -1.175824,1.30611 -1.497728,1.55766 -2.026987,1.58406 -1.229326,0.0613 -3.179943,3.33412 -4.015599,6.73746 -0.393739,1.60353 -0.607287,2.05538 -1.19963,2.53821 -0.396332,0.32306 -2.065255,1.76578 -3.708705,3.20604 -4.775576,4.18516 -9.35541,7.76138 -15.646254,12.21758 -3.227251,2.28606 -6.198674,4.40267 -6.603177,4.70356 -0.77614,0.57737 -1.310784,0.6414 -1.073955,0.12867 z m 10.098688,-10.56589 5.535903,-5.84749 1.198909,-2.41435 c 1.751224,-3.52664 3.46124,-6.13647 4.757209,-7.26047 1.500532,-1.30141 3.662817,-2.23276 4.40745,-1.89837 0.792366,0.35581 1.109256,1.44954 0.801623,2.76675 -0.216179,0.92569 -0.431929,1.22311 -1.967825,2.71268 -1.026582,0.99562 -3.174899,2.69699 -5.305963,4.20209 -2.602859,1.8383 -4.119535,3.06767 -5.55285,4.50099 -2.674522,2.67452 -11.513047,11.93811 -11.390319,11.93811 0.208533,7e-5 9.758203,-6.88728 12.57989,-9.07275 3.228241,-2.50037 9.714696,-7.99405 11.246534,-9.52522 0.791944,-0.7916 1.024147,-1.22837 1.349325,-2.53794 0.489074,-1.96963 1.248342,-3.65495 2.399512,-5.32618 l 0.889516,-1.29135 -0.758435,-0.40221 c -0.550435,-0.29192 -0.98178,-0.74197 -1.573096,-1.64088 -0.448074,-0.68127 -0.854799,-1.23138 -0.903925,-1.22237 -0.04911,0.009 -0.816224,0.49038 -1.704684,1.06975 -1.864928,1.2161 -3.676428,1.94028 -6.180693,2.47085 l -1.770498,0.3751 -2.365166,3.6445 c -3.973263,6.12243 -7.168598,11.31966 -10.741356,17.47089 l -3.413322,5.87671 1.463131,-1.37064 c 0.804746,-0.75388 3.954324,-4.00203 6.999081,-7.21814 z m 9.759279,-8.59009 c 3.415718,-2.42399 6.047848,-4.84845 6.367643,-5.86525 0.348491,-1.1081 0.296162,-1.74266 -0.183251,-2.22207 -0.395079,-0.39509 -0.64924,-0.38932 -1.74449,0.0395 -2.420027,0.94747 -3.885581,2.65633 -6.549714,7.63707 -1.361024,2.54452 -1.496045,2.84898 -1.200522,2.70721 0.126254,-0.0606 1.615948,-1.09399 3.310334,-2.29643 z M 44.557738,219.7576 c 0.670048,0.098 0.915414,-0.0238 1.94631,-0.9669 0.648778,-0.59353 1.130554,-1.12819 1.07057,-1.18816 -0.05997,-0.06 -0.656747,-0.41007 -1.32619,-0.77794 -1.486798,-0.81705 -2.450296,-1.97158 -2.653461,-3.17962 l -0.15123,-0.89922 -1.042143,1.04214 c -1.213708,1.21372 -1.459769,1.83165 -1.081567,2.71629 0.817839,1.91312 1.966522,3.06733 3.237918,3.25322 z m 2.673464,-2.9999 c 1.347977,0.42904 1.053341,-0.24591 -0.511952,-1.17273 -1.331885,-0.78865 -1.660805,-1.1773 -2.296535,-2.71384 -0.261957,-0.63318 -0.487688,0.11551 -0.293277,0.97289 0.244144,1.07666 1.737491,2.47946 3.101764,2.91368 z m 0.360032,-1.24222 c 0.372379,0.11281 0.579457,0.004 0.896452,-0.47171 0.226715,-0.34007 1.086944,-1.29305 1.911607,-2.1177 l 1.499384,-1.4994 -1.463699,-1.46368 -1.463701,-1.46372 -0.417958,0.62694 c -0.229891,0.34483 -1.123045,1.33203 -1.984827,2.19382 -1.454965,1.45496 -1.55321,1.60779 -1.375769,2.14032 0.206105,0.61864 1.600697,1.81349 2.398518,2.05513 z m 5.48938,-4.2757 c 0.573452,2e-5 0.809115,-0.17786 1.888197,-1.42488 0.67811,-0.78367 1.237015,-1.48358 1.241975,-1.55534 0.005,-0.0717 -0.29604,-0.14561 -0.668892,-0.16435 -0.504493,-0.0252 -1.020898,-0.3438 -2.018556,-1.24554 -1.173571,-1.06067 -1.357514,-1.32413 -1.475815,-2.11395 l -0.13521,-0.90219 -1.324543,1.5195 c -1.758601,2.0174 -1.736524,2.31256 0.327312,4.37639 1.26504,1.26504 1.616756,1.51023 2.165539,1.51029 z m 2.768428,-3.68411 c 0.577712,0.0324 1.050391,-0.0546 1.050391,-0.19345 0,-0.13895 -0.266552,-0.26655 -0.593881,-0.28216 -0.735552,-0.0368 -2.402946,-1.65978 -3.000696,-2.92116 -0.506631,-1.06887 -0.908372,-0.86761 -0.759224,0.38029 0.07387,0.6184 0.340196,1.04448 1.174291,1.87857 0.951801,0.95181 1.202417,1.0857 2.129184,1.13784 z m 1.342038,-1.8292 c 0.565338,-0.5093 0.993656,-0.96022 0.95181,-1.00206 -0.04184,-0.0418 -0.59905,-0.21861 -1.238223,-0.3928 -0.639159,-0.17426 -1.35535,-0.50579 -1.591537,-0.73682 -0.556993,-0.54426 -0.976092,-0.62669 -1.463582,-0.28642 -0.482359,0.33668 -0.05747,1.10145 1.353167,2.43565 l 0.960453,0.90847 z m 0.42693,-1.7296 c 1.1321,0.23043 1.145292,0.22537 2.220652,-0.84998 0.594979,-0.595 1.037301,-1.12625 0.98294,-1.18062 -0.05437,-0.0544 -0.800267,-0.28189 -1.657581,-0.50562 -0.857315,-0.22373 -1.773682,-0.51815 -2.036383,-0.65426 -0.415305,-0.21524 -0.60621,-0.11894 -1.46366,0.73854 l -0.986023,0.98602 0.900601,0.61705 c 0.49534,0.33937 1.413075,0.72139 2.039461,0.84887 z m 1.582263,-3.03291 1.950671,0.53084 0.819197,-0.81919 c 1.016045,-1.01605 0.842229,-1.25488 -1.103367,-1.51603 -0.778719,-0.10453 -1.656709,-0.29821 -1.951145,-0.43041 -0.448598,-0.2014 -0.659891,-0.11588 -1.304055,0.52835 -0.483672,0.48368 -0.693338,0.84422 -0.565367,0.97218 0.111873,0.11191 1.081217,0.44229 2.154066,0.73426 z m 1.181961,-2.37159 c 1.166351,0.21149 1.561773,0.0789 1.110441,-0.37247 -0.152492,-0.15246 -0.375636,-0.69393 -0.495848,-1.20317 l -0.218574,-0.92589 -0.948306,0.9483 c -1.094922,1.09493 -1.03424,1.26553 0.552287,1.55323 z m 3.936229,-0.26508 c 1.152748,-1.15276 1.176373,-1.20228 0.768004,-1.61065 -0.701011,-0.701 -1.250263,-2.28467 -1.148545,-3.31167 l 0.09596,-0.96902 -1.354553,1.52744 c -1.248138,1.40746 -1.347314,1.59571 -1.262234,2.39633 0.101205,0.95253 0.56045,1.92716 1.260164,2.6743 0.451373,0.48197 0.453339,0.48112 1.641203,-0.70673 z m 1.996347,-2.12379 c 0.23361,-0.35039 0.526932,-0.7393 0.651834,-0.8642 0.124884,-0.12489 -0.0015,-0.62403 -0.280805,-1.1092 -0.284047,-0.49328 -0.533696,-1.51673 -0.566464,-2.32187 l -0.0586,-1.43969 -0.726214,0.72622 c -1.288139,1.28812 -1.209606,3.74141 0.167323,5.22705 0.349504,0.37703 0.430516,0.35533 0.812946,-0.21829 z m 2.602576,-2.81493 1.370773,-1.37079 -0.84523,-0.14218 c -0.464873,-0.0782 -1.296196,-0.32427 -1.847396,-0.54684 l -1.002162,-0.40469 0.03024,1.08971 c 0.02572,0.92694 0.383614,2.07924 0.808961,2.60469 0.06244,0.0777 0.730865,-0.47602 1.484807,-1.22996 z M 68.303299,191.092 c 0.568642,0.1912 1.364616,0.3766 1.768829,0.41199 0.688119,0.0602 0.802994,-0.0189 1.802215,-1.24123 l 1.067282,-1.30557 -1.439421,-0.14092 c -0.791682,-0.0775 -1.89711,-0.25671 -2.456511,-0.39815 -0.772373,-0.19528 -1.125633,-0.1476 -1.468164,0.19855 -1.272822,1.28582 -1.104445,1.85994 0.725772,2.47538 z m 1.683111,-2.98402 c 0.640247,0.12704 1.688862,0.26353 2.330219,0.30325 1.152093,0.0714 1.181962,0.0562 2.479517,-1.24123 l 1.313341,-1.31334 -1.808173,0.10398 c -1.080333,0.0622 -2.12515,-0.0557 -2.595611,-0.29271 l -0.787423,-0.39666 -1.176141,1.17615 c -0.646867,0.64685 -1.11847,1.23314 -1.047979,1.30283 0.07008,0.0701 0.65199,0.23068 1.29225,0.35778 z m 2.051665,-2.82986 c 0.684203,0.22038 2.658912,0.29203 2.847617,0.10326 0.07518,-0.0752 -0.0734,-0.3471 -0.330029,-0.60442 -0.256976,-0.25697 -0.56429,-0.87083 -0.683721,-1.36332 -0.119405,-0.49251 -0.253482,-0.93184 -0.297948,-0.97631 -0.113315,-0.11335 -1.078967,0.88417 -1.713282,1.76971 -0.595831,0.8318 -0.597565,0.82146 0.177361,1.07103 z m 4.553454,0.0919 c 0.90015,-0.91111 0.968439,-1.32489 0.326039,-1.9751 -0.336974,-0.34207 -0.79565,-1.10553 -1.018141,-1.69775 -0.222519,-0.59218 -0.434454,-1.10658 -0.470972,-1.14309 -0.03653,-0.0366 -0.390585,0.25928 -0.786804,0.65734 -0.651759,0.65482 -0.695568,0.81998 -0.459703,1.73396 0.176441,0.68378 0.546509,1.30092 1.145173,1.90973 0.808277,0.82103 0.917394,0.86617 1.264408,0.51491 z m 2.253513,-2.58867 0.934454,-0.93446 -0.690781,-0.69078 c -0.749858,-0.74986 -1.031856,-1.41133 -1.084769,-2.54444 -0.01872,-0.40103 -0.109062,-0.72916 -0.200724,-0.72916 -0.09171,4e-5 -0.563733,0.5097 -1.049061,1.13268 -0.859209,1.10293 -0.872517,1.16263 -0.506589,2.27303 0.206692,0.6272 0.665425,1.42999 1.019407,1.78397 l 0.643607,0.64361 z m 2.357383,-2.35738 c 0.595704,-0.59572 1.270081,-1.36356 1.498595,-1.70634 l 0.415485,-0.62321 -1.250409,0.17048 c -0.687708,0.0939 -1.730215,0.0692 -2.316644,-0.0546 l -1.066269,-0.22508 0.05621,0.99899 c 0.0437,0.77721 0.225314,1.16814 0.818051,1.76088 l 0.761877,0.76186 z m -1.34552,-2.67364 c 1.994904,0.27379 3.86162,-0.18233 4.868934,-1.18964 0.456683,-0.45668 0.768853,-0.89177 0.693739,-0.96689 -0.07511,-0.0751 -0.674159,-0.12596 -1.331191,-0.11299 -0.657046,0.0126 -1.711472,-0.10938 -2.343145,-0.27202 l -1.148511,-0.29565 -1.173174,1.17317 c -0.645248,0.64524 -1.102656,1.24369 -1.016481,1.32986 0.08617,0.0861 0.738603,0.23654 1.449829,0.33414 z m 4.959833,-2.68165 c 1.207881,0.0422 1.438266,-0.0371 2.13707,-0.73595 1.473225,-1.47323 1.368656,-1.94405 -0.425506,-1.91602 -0.623335,0.009 -1.567411,-0.14651 -2.097955,-0.34732 -1.045264,-0.39555 -1.052553,-0.39155 -2.470862,1.35785 l -0.928095,1.14475 1.215761,0.22468 c 0.668662,0.12363 1.824983,0.24599 2.569583,0.27201 z m 1.518846,-3.16131 1.156155,-0.018 -0.45217,-0.45218 c -0.263494,-0.2635 -0.482755,-0.92277 -0.525435,-1.58004 l -0.07327,-1.12787 -1.283028,1.28303 -1.283039,1.28304 0.652332,0.31506 c 0.358801,0.17317 1.17257,0.30696 1.808453,0.29703 z m 3.276126,-0.57236 1.167235,-1.16722 -0.555589,-0.9877 c -0.305641,-0.54317 -0.636196,-1.5888 -0.734701,-2.32353 l -0.179091,-1.33584 -1.090296,1.09029 c -1.021664,1.02167 -1.095443,1.17677 -1.172249,2.46445 -0.06493,1.08851 0.04974,1.55658 0.551601,2.25177 0.348423,0.48272 0.681329,0.94454 0.739715,1.02631 0.05862,0.0816 0.63141,-0.37656 1.273382,-1.01853 z m 2.643428,-2.64341 c 1.120139,-1.12016 1.381878,-1.87052 0.841069,-2.41134 -0.376722,-0.37673 -0.786262,-1.77053 -0.820226,-2.79151 l -0.03008,-0.90437 -1.189319,1.18931 c -1.246226,1.24623 -1.309991,1.46266 -1.027611,3.48796 0.06783,0.48645 0.748325,2.08861 1.013977,2.38728 0.06626,0.0739 0.611466,-0.35661 1.212192,-0.95733 z m 2.877353,-3.21716 1.251146,-1.25115 -1.216057,-0.398 c -0.950392,-0.31106 -1.340549,-0.57047 -1.785871,-1.18741 l -0.569767,-0.78945 -0.02562,1.38226 c -0.02181,1.17658 0.210225,1.92658 1.064425,3.44054 0.01694,0.0297 0.593653,-0.50872 1.281793,-1.19684 z m 0.371416,-2.05914 1.271477,0.41624 0.903285,-0.90329 c 0.496795,-0.4968 0.903272,-0.98754 0.903272,-1.09056 -2.6e-5,-0.1029 -0.450994,-0.34447 -1.002217,-0.53655 -0.551212,-0.19211 -1.350963,-0.68427 -1.777199,-1.09374 l -0.775017,-0.74444 -0.89875,0.89875 c -0.825822,0.82584 -0.87469,0.95053 -0.60217,1.53663 0.440855,0.94818 0.590532,1.06303 1.977283,1.51699 z m 2.465354,-2.46297 c 0.996987,0.32332 1.033474,0.31206 1.947029,-0.6015 0.51205,-0.51204 0.89392,-0.96808 0.84861,-1.0134 -0.0453,-0.0452 -0.68367,-0.2256 -1.418574,-0.40062 -0.734902,-0.17498 -1.624847,-0.51065 -1.977652,-0.74586 -0.58699,-0.39127 -0.697443,-0.3717 -1.29985,0.23072 l -0.658373,0.65837 0.771325,0.77132 c 0.438622,0.43861 1.209604,0.9135 1.787422,1.10089 z m 0.429536,-2.82858 c 0.913697,0.39143 1.489653,0.33724 1.053239,-0.0991 -0.113261,-0.11336 -0.212038,-0.85552 -0.21947,-1.64946 l -0.01351,-1.44349 -0.870984,0.87098 c -0.938059,0.93808 -1.290074,1.52692 -1.053948,1.76305 0.08156,0.0816 0.578621,0.33268 1.104631,0.55801 z m 2.582553,0.75516 c 0.16123,0.15876 0.45649,-0.0425 1.0642,-0.7244 0.84043,-0.9431 0.84049,-0.94344 0.24495,-1.43069 -0.70575,-0.57729 -0.96701,-1.2914 -1.00715,-2.752 l -0.0295,-1.07483 -0.71654,0.71654 c -0.637309,0.6373 -0.719855,0.92412 -0.746506,2.5936 -0.0244,1.52789 0.06277,1.93064 0.468516,2.16496 0.2741,0.15841 0.59915,0.38635 0.72211,0.50677 z m 2.14626,-2.19621 c 0.20553,0.0458 0.57746,-0.25 1.03311,-0.8214 0.72685,-0.91151 0.72638,-0.93534 -0.0422,-2.14121 -0.19259,-0.30218 -0.40473,-1.16042 -0.47138,-1.90725 -0.1009,-1.13037 -0.18026,-1.31827 -0.47376,-1.12169 -1.82072,1.2196 -1.85407,5.58967 -0.0457,5.99155 z m 3.32269,-3.20568 1.18556,-1.18557 -1.30378,-0.29186 c -0.71707,-0.16057 -1.42898,-0.41706 -1.582,-0.57009 -1.06482,-1.06481 -0.70774,1.67653 0.40255,3.09033 0.0612,0.0789 0.64561,-0.39074 1.29767,-1.04281 z m -1.41985,-2.48789 c 0.47751,0.27006 1.3547,0.57466 1.9493,0.67691 1.09416,0.18816 1.58924,-0.0647 2.2004,-1.12408 0.2661,-0.46128 0.26153,-0.46484 -1.16177,-0.90691 -0.78593,-0.24409 -1.65055,-0.66542 -1.92139,-0.93627 -0.48365,-0.48364 -0.50915,-0.47577 -1.42692,0.44201 -1.02894,1.02895 -1.02158,1.06674 0.36038,1.84834 z m 3.68578,-1.64697 c 0.94145,0.17191 1.27286,0.10542 1.83244,-0.36775 0.59452,-0.50275 0.63561,-0.62516 0.31681,-0.94397 -0.20147,-0.20147 -0.74524,-0.43005 -1.20837,-0.50793 -0.46314,-0.0778 -1.15393,-0.3664 -1.53509,-0.64113 -0.67293,-0.4851 -0.71516,-0.47738 -1.45707,0.26453 l -0.76405,0.76405 0.83307,0.6111 c 0.45818,0.3361 1.3502,0.7056 1.98232,0.82104 z m 0.41086,-2.48251 0.70386,0.28273 -0.15934,-0.74229 c -0.0876,-0.40825 -0.22701,-1.05689 -0.30971,-1.44143 l -0.15036,-0.69914 -0.78409,0.78409 c -0.70215,0.70214 -0.74334,0.82326 -0.39417,1.15872 0.21408,0.20642 0.70671,0.5018 1.09381,0.65732 z m 3.33635,0.26442 0.91236,-0.91236 -0.71618,-0.89788 c -0.61696,-0.77345 -0.70569,-1.11071 -0.64024,-2.4339 l 0.076,-1.53604 -1.19058,1.29142 -1.19058,1.29142 0.25741,1.39377 c 0.1837,0.99469 0.44668,1.58305 0.91845,2.05482 l 0.66106,0.66105 z m 1.76359,-1.89101 c 0.23361,-0.35041 0.59804,-0.81041 0.80982,-1.02219 0.28909,-0.28909 0.28587,-0.61658 -0.013,-1.31393 -0.22535,-0.52599 -0.34635,-1.62093 -0.27896,-2.52442 0.0654,-0.87756 0.0617,-1.65292 -0.008,-1.72306 -0.07,-0.0701 -0.5738,0.31895 -1.11946,0.8646 -0.97407,0.97408 -0.99331,1.029 -1.05815,3.01951 -0.0588,1.80433 0.006,2.09938 0.5886,2.68199 0.64257,0.64257 0.66287,0.64248 1.07939,0.018 z m 2.2939,-2.50582 0.72225,-0.72192 -1.00776,-0.88975 -1.00777,-0.88978 -0.0335,0.82624 c -0.0261,0.64276 0.2965,1.97468 0.56862,2.34783 0.0195,0.0272 0.36086,-0.2757 0.75814,-0.67273 z m 0.81108,-1.34904 c 0.29011,0.12921 0.63357,-0.096 1.56283,-1.02533 1.15607,-1.15606 1.17634,-1.19877 0.69298,-1.45753 -0.27384,-0.14669 -1.05764,-0.73907 -1.74166,-1.31657 l -1.24368,-1.04999 -0.73767,0.73768 c -0.67935,0.67933 -0.71388,0.81461 -0.43689,1.71114 0.29739,0.96253 1.18347,2.07963 1.90411,2.40058 z m 2.0842,-3.20018 0.85364,0.46003 1.07746,-1.07746 c 0.59261,-0.59261 1.04858,-1.10635 1.01327,-1.14165 -0.0353,-0.0353 -0.47334,-0.23225 -0.97349,-0.43756 -0.52394,-0.21515 -1.21538,-0.72658 -1.6316,-1.20684 -0.8303,-0.95825 -1.05271,-0.9021 -2.11379,0.53335 l -0.63294,0.85627 0.77691,0.77691 c 0.4273,0.42729 1.16105,0.98392 1.63055,1.23695 z m 2.31467,-2.59063 1.06564,0.52401 1.03985,-1.03986 c 0.87498,-0.87498 0.96471,-1.03608 0.56605,-1.01606 -0.26059,0.0126 -1.39722,0.056 -2.52584,0.0955 -1.88641,0.066 -2.01813,0.1056 -1.63171,0.49207 0.23119,0.23119 0.89984,0.6562 1.48601,0.94435 z m -0.17765,-1.92966 c 3.20213,-0.0544 3.497,-0.13985 4.72533,-1.36818 l 1.08955,-1.08955 -1.63196,-0.002 c -0.89756,-9.3e-4 -2.10486,-0.0923 -2.68287,-0.20313 l -1.05094,-0.20141 -1.31792,1.31555 c -0.72488,0.72351 -1.25816,1.37531 -1.18515,1.44831 0.073,0.073 0.99728,0.11804 2.05393,0.10001 z m 4.54118,-2.96799 c 1.80749,-0.0288 1.81609,-0.0321 2.91269,-1.12873 l 1.09984,-1.09984 -1.95953,-0.0755 c -1.07773,-0.0414 -2.32575,-0.16976 -2.77335,-0.28487 -0.73904,-0.19016 -0.89506,-0.12813 -1.69776,0.67453 -1.35957,1.35956 -1.39925,1.59223 -0.30429,1.78399 0.50025,0.0876 1.72532,0.14632 2.7224,0.13047 z m 2.04815,-2.81191 c 2.07299,0.0692 2.16172,0.0461 2.97812,-0.7702 0.79432,-0.79432 0.81344,-0.8563 0.34128,-1.10583 -0.99034,-0.52338 -2.00404,-0.74577 -3.17316,-0.69613 -1.08598,0.0461 -1.28362,0.14381 -2.25879,1.1176 -1.01659,1.01489 -1.04317,1.07478 -0.54639,1.22518 0.28727,0.087 1.48378,0.19021 2.65894,0.22938 z m 3.0948,-2.48418 c 0.84094,0.35072 1.21667,0.3784 1.48657,0.10939 0.29117,-0.29015 0.24822,-0.51594 -0.22152,-1.1645 -0.32046,-0.44254 -0.76818,-1.37102 -0.99484,-2.06338 l -0.41209,-1.25884 -1.67356,1.67357 c -0.92047,0.92044 -1.67357,1.77274 -1.67357,1.89398 -3e-5,0.12128 0.53183,0.24741 1.18183,0.28039 0.64999,0.033 1.68823,0.27117 2.30718,0.52932 z m 2.97666,-1.37936 c 0.71734,-0.71735 0.72735,-0.77241 0.2636,-1.45033 -0.31713,-0.46368 -0.4418,-1.06267 -0.36441,-1.75131 l 0.11764,-1.04665 -0.92273,-0.0198 c -0.55389,-0.0126 -1.10267,0.1602 -1.37287,0.43037 -0.37427,0.37427 -0.37343,0.6741 0.005,1.77905 0.55796,1.62945 0.69133,1.90656 1.15933,2.40858 0.32894,0.35187 0.45058,0.31398 1.11451,-0.34995 z m 1.92801,-2.21749 c 0.42608,-0.49184 0.77612,-0.94633 0.77785,-1.00994 0.007,-0.26145 -1.66606,-0.93231 -1.97833,-0.79324 -0.58926,0.26244 -0.43081,2.20663 0.20976,2.57365 0.12036,0.0688 0.55925,-0.27242 0.99072,-0.77047 z m -2.03431,-2.49847 c 0.62102,0.0688 1.65226,0.32841 2.29166,0.57673 l 1.16252,0.45153 1.26631,-1.2663 c 0.69648,-0.69647 1.20869,-1.32337 1.13826,-1.39311 -0.23732,-0.23494 -1.98296,-0.57845 -3.52376,-0.69337 -1.5254,-0.11371 -1.53321,-0.11101 -2.59198,0.94767 -0.58408,0.58399 -1.01926,1.10452 -0.96705,1.15672 0.0522,0.0523 0.60301,0.1512 1.22404,0.22013 z m 3.08985,-2.73718 c 0.81822,0.0515 1.921,0.23368 2.45062,0.40491 1.02112,0.33012 1.0551,0.32066 1.47713,-0.41071 0.1971,-0.34159 0.12346,-0.67681 -0.27037,-1.23075 -0.29767,-0.41875 -0.64662,-1.38515 -0.77541,-2.14757 -0.1288,-0.76244 -0.29252,-1.38625 -0.36385,-1.38623 -0.18143,2e-5 -4.18022,4.50236 -4.08414,4.59843 0.0431,0.0431 0.7478,0.12038 1.56602,0.17192 z m 6.83431,-3.04434 2.23833,-2.23832 -0.73047,-0.0341 c -1.04138,-0.0487 -1.62136,-0.27965 -2.67301,-1.06483 l -0.92414,-0.68993 -0.82481,0.82481 c -0.75592,0.75592 -0.8133,0.92411 -0.68688,2.01339 0.15024,1.29442 0.61333,2.64376 1.07194,3.12335 0.26209,0.27483 0.508,0.0867 2.52902,-1.93435 z m 1.29857,-2.80479 c 1.14343,0.0485 1.16351,0.0379 2.34968,-1.2503 l 1.19639,-1.29926 -1.15385,-0.13101 c -0.63462,-0.0721 -1.63111,-0.41358 -2.21441,-0.75887 -1.05382,-0.62384 -1.0649,-0.62345 -1.74819,0.0645 -1.30618,1.3151 -1.3473,1.56174 -0.41511,2.49392 0.7023,0.7023 1.01214,0.83985 1.98548,0.8811 z m 0.89856,-3.59898 c 0.47114,0.19345 1.39259,0.41394 2.04764,0.48997 1.12232,0.13029 1.24408,0.0851 2.11119,-0.78196 0.5061,-0.50609 0.8846,-0.95575 0.84113,-0.99923 -0.0435,-0.0434 -0.67522,-0.2125 -1.40388,-0.37563 -0.72866,-0.16309 -1.65855,-0.53828 -2.06644,-0.83369 l -0.74155,-0.53717 -1.08264,1.08264 c -1.21134,1.21134 -1.19122,1.34492 0.29459,1.95502 z m 3.54656,-2.12935 1.02124,0.2391 -0.60999,-0.79962 c -0.33552,-0.43974 -0.67531,-1.28502 -0.75516,-1.8783 l -0.14519,-1.07869 -0.64348,0.64806 c -0.35377,0.35658 -0.77545,0.87657 -0.93676,1.15584 -0.25453,0.44062 -0.20464,0.57163 0.37737,0.99112 0.36885,0.2659 1.13023,0.59099 1.69192,0.72249 z m 3.14652,-1.03668 1.27426,-1.27427 -0.81893,-0.81892 c -0.69371,-0.69371 -0.83461,-1.0204 -0.92121,-2.137015 l -0.10231,-1.31807 -1.23514,1.23514 c -1.22635,1.226355 -1.23479,1.244735 -1.18831,2.576025 0.0411,1.17625 0.1494,1.44339 0.88211,2.17611 l 0.83526,0.83526 z m 2.81081,-2.88087 1.18188,-1.281715 -0.71379,-1.39341 c -0.39452,-0.770131 -0.72228,-1.848296 -0.73277,-2.4104 l -0.019,-1.017002 -1.2828,1.282791 -1.2828,1.282808 0.0544,1.630033 c 0.0484,1.448805 0.14107,1.716685 0.83371,2.409305 l 0.77928,0.77928 z m 3.64544,-3.915202 c 1.16808,-1.16807 2.09843,-2.149103 2.06744,-2.180098 -0.031,-0.031 -0.68159,0.07731 -1.44578,0.240469 -0.7642,0.163268 -1.97544,0.251299 -2.69167,0.195723 l -1.30224,-0.101096 -0.0256,0.820684 c -0.0207,0.662876 0.59439,2.249205 1.16437,3.002945 0.0599,0.0804 1.06543,-0.81057 2.2335,-1.978645 z m -1.32524,-2.261913 c 0.96374,-0.01874 2.32626,-0.223511 3.02784,-0.45515 1.12215,-0.370525 1.41588,-0.582504 2.44169,-1.762107 l 1.1661,-1.340926 -1.81734,0.201274 c -0.99953,0.110648 -2.35047,0.117315 -3.00209,0.01442 -1.079,-0.169936 -1.22979,-0.125425 -1.68924,0.498202 -0.27746,0.376652 -0.90502,1.087067 -1.39459,1.578674 -0.57553,0.577908 -0.81844,0.965516 -0.68735,1.096617 0.11153,0.111549 0.99125,0.187471 1.95497,0.168855 z m 3.20146,-3.715846 c 3.40094,-0.152997 4.14855,-0.386798 5.47432,-1.712568 0.64506,-0.645072 1.17285,-1.270825 1.17285,-1.390555 3e-5,-0.119838 -0.55899,-0.09263 -1.2422,0.06037 -0.68321,0.152996 -1.31003,0.21023 -1.39293,0.127406 -0.33311,-0.333113 -0.32344,-1.837019 0.0192,-2.986618 l 0.36315,-1.218366 -1.86181,2.045916 c -1.02401,1.125271 -2.49224,2.677039 -3.26275,3.448382 -0.77059,0.771271 -1.33212,1.471252 -1.24806,1.555319 0.0841,0.08398 0.97428,0.115874 1.97822,0.07082 z m 10.26514,-8.725297 c 0.9689,-0.713136 5.16746,-3.616065 9.33013,-6.450967 4.16269,-2.834919 7.61788,-5.253144 7.67824,-5.373847 0.13299,-0.265843 -9.34933,4.754437 -12.89121,6.825114 -1.39521,0.815692 -3.97462,2.410098 -5.73202,3.543154 l -3.19529,2.060098 -0.57757,1.472819 c -0.31767,0.810052 -0.59795,1.810421 -0.62287,2.223061 l -0.0453,0.75024 2.14714,-1.876539 c 1.18092,-1.032085 2.93986,-2.459997 3.90876,-3.173133 z m -9.39166,-0.01442 c 1.3137,0.428822 2.35557,0.514853 3.76503,0.31093 0.25643,-0.03712 1.99401,-1.051944 3.86128,-2.255173 1.86729,-1.203247 4.49761,-2.827639 5.84518,-3.609741 4.12663,-2.39505 13.98037,-7.53661 15.2734,-7.969451 1.26333,-0.422911 5.00592,-2.328842 5.00592,-2.54929 -6e-5,-0.235009 -2.71781,-0.442536 -3.50052,-0.26723 -1.25709,0.281593 -22.21507,10.30433 -27.53066,13.166011 -3.58662,1.930871 -4.43638,2.444499 -4.28867,2.592215 0.0568,0.05677 0.76288,0.318589 1.56904,0.581729 z m 5.62411,4.827458 c 1.47781,-0.538894 2.72848,-1.650397 3.99011,-3.54611 1.11666,-1.677895 0.46165,-1.35927 -2.53196,1.231684 -3.56553,3.085949 -3.56304,3.081984 -1.45815,2.314426 z m 4.33629,3.486784 c 0.77727,-1.707918 3.67143,-10.532725 3.4319,-10.464481 -0.88664,0.252652 -1.97954,1.342368 -2.93316,2.924501 -0.55571,0.922051 -1.24898,2.014524 -1.54061,2.42774 -0.96354,1.365218 -0.77784,3.841794 0.37708,5.028786 0.38757,0.397772 0.51434,0.413937 0.66473,0.08344 z m 5.02472,-5.339284 c 2.07098,-5.563372 2.83953,-7.952025 2.5277,-7.856136 -0.18709,0.05749 -0.96353,0.534081 -1.72554,1.059044 l -1.38548,0.954471 -0.75942,2.219618 c -0.69617,2.034761 -0.72325,2.313398 -0.32508,3.345556 0.44154,1.144553 0.69249,1.690618 0.8898,1.936169 0.0601,0.07533 0.41045,-0.67131 0.77802,-1.658722 z m -9.32856,-8.334155 c 0.0431,0 4.10207,-1.935755 9.02003,-4.301684 4.91796,-2.365911 10.34813,-4.959604 12.06702,-5.763727 l 3.12529,-1.462061 2.96076,0.07244 c 2.79471,0.0683 3.04671,0.02505 4.49389,-0.773055 0.84323,-0.465008 1.81309,-1.024264 2.15523,-1.242784 0.61543,-0.393069 0.6102,-0.395249 -0.48685,-0.204355 -0.60991,0.106142 -2.13847,-0.02505 -3.39679,-0.291504 -3.81959,-0.808881 -4.40557,-0.713154 -7.99417,1.305929 -1.69897,0.955893 -3.23448,1.883458 -3.41229,2.061251 -0.17787,0.177865 -2.65248,1.505239 -5.49926,2.949838 -4.9634,2.518691 -9.5277,4.316263 -13.62222,5.364928 -1.2273,0.314318 -1.37803,0.405917 -1.19977,0.729174 0.18193,0.329996 1.59155,1.555607 1.78909,1.555643 z m 10.1991,-6.724721 c 0.76226,-0.384725 0.87732,-0.570267 1.66052,-2.677616 0.46283,-1.245325 0.7889,-2.264237 0.72459,-2.264237 -0.0643,-5.4e-5 -0.64829,0.832974 -1.29774,1.851075 -0.64946,1.018101 -1.67314,2.352684 -2.27486,2.965768 -1.04888,1.068758 -1.06388,1.102799 -0.36277,0.826541 0.40219,-0.158403 1.09982,-0.474163 1.55026,-0.701531 z m 2.93646,-1.456673 1.13355,-0.584233 0.92179,-2.542406 c 2.00575,-5.532106 1.96921,-5.392535 1.62878,-6.221599 -0.32969,-0.802951 -0.21492,-2.361405 0.20388,-2.768188 0.12759,-0.123983 0.18093,0.356541 0.1184,1.067784 -0.0624,0.71119 0.0353,1.541587 0.21717,1.845327 0.27552,0.460287 0.13029,1.115612 -0.87237,3.933646 -0.66167,1.859779 -1.27245,3.450833 -1.35732,3.535693 -0.0849,0.08488 -0.12668,0.271213 -0.0929,0.414135 0.0338,0.142905 0.72322,-0.09659 1.53218,-0.532135 l 1.47083,-0.791959 0.74426,-2.013569 c 0.40936,-1.107466 1.09172,-3.0842 1.51634,-4.392724 0.83685,-2.578881 0.86995,-2.230107 -0.55461,-5.844154 -0.39629,-1.005415 -0.49252,-1.801248 -0.35742,-2.955641 0.10164,-0.868871 0.14074,-1.535585 0.0867,-1.481577 -0.56392,0.563924 -7.83854,19.55012 -7.58704,19.801618 0.0628,0.06289 0.6243,-0.148671 1.24776,-0.470018 z m 9.33384,-5.33667 c 2.90194,-1.63971 3.45576,-2.035915 4.52644,-3.23817 1.40735,-1.580314 1.9072,-3.021146 1.36324,-3.929628 -1.09732,-1.832694 -4.69023,-0.270744 -6.81978,2.964777 -0.78457,1.19202 -2.69899,5.748716 -2.49918,5.94853 0.0676,0.06758 1.61072,-0.717947 3.42928,-1.745509 z m 3.08325,-8.255441 c 1.98753,-0.637197 3.27517,0.07641 3.39232,1.879927 0.0833,1.28279 -0.48359,2.419252 -1.94113,3.891278 l -1.0793,1.090005 0.9047,-0.05803 c 0.80014,-0.05136 0.99386,-0.171738 1.67613,-1.042303 0.42426,-0.54138 0.93191,-1.435481 1.12807,-1.986916 0.49791,-1.399674 1.15053,-5.861562 0.8671,-5.928455 -0.31392,-0.07407 -4.39126,0.657001 -5.9317,1.063622 -1.77964,0.469765 -3.20472,1.906795 -3.17699,3.203606 l 0.0196,0.914896 1.54347,-1.344872 c 1.0444,-0.910012 1.88435,-1.454132 2.59772,-1.682833 z m -3.3135,-0.348522 c 0.90728,-0.907273 1.18797,-1.0376 3.09976,-1.439193 l 2.10214,-0.44158 -0.0236,-2.073182 c -0.0353,-3.115323 0.76026,-5.088831 3.24662,-8.052851 2.4503,-2.921005 4.73018,-4.433686 15.62671,-10.368214 l 6.59971,-3.594351 10.24299,-10.994706 c 5.63363,-6.047085 10.08204,-10.9262803 9.88533,-10.8426459 -0.1967,0.083616 -3.23404,2.3217244 -6.74966,4.9735339 -15.10143,11.390928 -15.71775,11.775564 -25.89529,16.160738 -7.13727,3.07519 -11.96597,5.564994 -13.74141,7.08537 -2.08068,1.781786 -3.40155,3.976391 -4.71669,7.836728 -1.36977,4.020758 -2.24865,8.056636 -2.04743,9.402103 0.1503,1.005036 0.78902,2.711477 1.16953,3.124729 0.14038,0.153177 0.51176,-0.08704 1.20123,-0.776479 z m 8.33101,7.799101 c 2.28532,0.502167 4.58255,0.02793 8.41405,-1.736932 4.89554,-2.255011 8.02348,-4.746202 9.82343,-7.823681 1.43808,-2.458736 4.27078,-8.637301 6.27622,-13.689388 2.97797,-7.5021 3.90325,-9.124961 14.30447,-25.089236 l 4.63406,-7.1125634 -1.53854,1.5196919 c -0.84623,0.835785 -5.51938,5.7960375 -10.38488,11.0226915 l -8.84638,9.502982 -3.72871,7.484783 c -2.05078,4.116629 -4.18289,8.177429 -4.738,9.024009 -1.40231,2.138597 -5.32839,6.366846 -6.64783,7.159471 -0.56821,0.34135 -2.43318,1.091356 -4.14438,1.666705 l -3.11127,1.046088 -0.39101,1.985456 c -0.28702,1.457376 -0.60912,2.289034 -1.21104,3.126712 -0.45098,0.627663 -0.84685,1.168953 -0.87966,1.20285 -0.11858,0.122361 0.67336,0.38159 2.16943,0.710325 z m -0.98789,-10.013421 c 0.78537,-0.148671 1.48155,-0.217096 1.54705,-0.151915 0.0654,0.06524 0.0557,0.590162 -0.022,1.166683 -0.0777,0.57652 -0.0807,1.108493 -0.007,1.18218 0.22104,0.221043 5.04697,-1.425695 6.46046,-2.204499 1.0882,-0.599569 1.69125,-1.137399 3.50243,-3.12372 1.20334,-1.319697 2.56515,-2.939656 3.02624,-3.599919 1.14256,-1.636016 8.41729,-15.951481 8.10193,-15.943191 -0.35319,0.009 -10.16083,5.327138 -14.1591,7.677298 -3.0403,1.787084 -3.5098,2.139985 -5.62571,4.228574 -3.51727,3.471863 -4.5942,5.650755 -4.52065,9.14655 0.0191,0.912355 0.0874,1.711378 0.15173,1.775622 0.0643,0.06415 0.75936,-0.0054 1.54474,-0.153717 z"
     id="path894" />
  <path
     style="font-variation-settings:normal;opacity:1;vector-effect:none;fill:#cdde87;fill-opacity:1;stroke-width:0.00346903;stroke-linecap:butt;stroke-linejoin:miter;stroke-miterlimit:4;stroke-dasharray:none;stroke-dashoffset:0;stroke-opacity:1;stop-color:#000000;stop-opacity:1"
     d="m 29.422704,232.80279 c 0.06014,-0.24606 1.45122,-2.90244 2.26732,-4.32963 1.185741,-2.07361 2.559238,-3.90414 3.458763,-4.60966 1.019583,-0.79968 2.525895,-1.51415 3.212261,-1.52362 0.500785,-0.007 0.916233,0.43162 1.043177,1.10113 0.07161,0.37765 -0.153665,1.36513 -0.411979,1.80591 -0.456244,0.77852 -2.325265,2.55263 -4.309819,4.09096 -1.307227,1.0133 -5.12838,3.70186 -5.261322,3.70186 -0.03097,0 -0.03025,-0.10663 0.0016,-0.23695 z"
     id="path896" />
  <path
     style="font-variation-settings:normal;opacity:1;vector-effect:none;fill:#cdde87;fill-opacity:1;stroke-width:0.00346903;stroke-linecap:butt;stroke-linejoin:miter;stroke-miterlimit:4;stroke-dasharray:none;stroke-dashoffset:0;stroke-opacity:1;stop-color:#000000;stop-opacity:1"
     d="m 186.83984,65.039298 c 0.11536,-0.855257 1.97929,-5.015376 2.69903,-6.024005 0.93521,-1.310577 2.13732,-2.351615 3.43037,-2.970728 0.66198,-0.316958 0.85984,-0.371228 1.4702,-0.403263 0.99465,-0.05221 1.50309,0.21521 1.8112,0.952609 0.1765,0.422446 0.16704,0.796111 -0.0369,1.45529 -0.35993,1.163628 -1.90143,3.009355 -3.27709,3.923845 -1.1889,0.790344 -4.80042,2.81676 -5.73097,3.215644 l -0.40972,0.175626 z"
     id="path898" />
  <path
     style="font-variation-settings:normal;opacity:1;vector-effect:none;fill:#ff5555;fill-opacity:1;stroke-width:0.00346903;stroke-linecap:butt;stroke-linejoin:miter;stroke-miterlimit:4;stroke-dasharray:none;stroke-dashoffset:0;stroke-opacity:1;stop-color:#000000;stop-opacity:1"
     d="m 188.52726,55.303124 c -0.75496,-1.37421 -1.03527,-3.089898 -0.77692,-4.755275 0.20095,-1.295306 0.88223,-4.047091 1.4554,-5.878524 1.34274,-4.290431 2.5075,-6.580351 4.32458,-8.5021 1.87479,-1.982779 5.68993,-4.008822 16.16152,-8.582618 5.10978,-2.231856 7.63258,-3.530669 10.54014,-5.426374 2.3272,-1.517321 3.72316,-2.5304 12.1242,-8.798819 8.3499,-6.2302642 8.40774,-6.272562 8.40774,-6.1488796 0,0.161216 -3.76007,4.2657016 -13.1086,14.3093266 l -6.97522,7.493853 -4.79349,2.611654 c -11.44618,6.236277 -14.08537,7.87761 -16.32304,10.151458 -1.28448,1.305252 -2.66819,3.14937 -3.2879,4.381926 -0.79235,1.575901 -0.98314,2.503466 -1.00469,4.884448 -0.0175,1.939036 -0.0312,2.048678 -0.26221,2.099482 -0.13404,0.02948 -0.9017,0.196526 -1.70592,0.37121 -1.88041,0.408444 -2.34078,0.618351 -3.31593,1.511895 -0.44073,0.403854 -0.89297,0.734279 -1.00498,0.734279 -0.112,0 -0.31661,-0.205624 -0.45468,-0.456942 z"
     id="path900" />
  <path
     style="font-variation-settings:normal;opacity:1;vector-effect:none;fill:#ff5555;fill-opacity:1;stroke-width:0.00346903;stroke-linecap:butt;stroke-linejoin:miter;stroke-miterlimit:4;stroke-dasharray:none;stroke-dashoffset:0;stroke-opacity:1;stop-color:#000000;stop-opacity:1"
     d="m 198.48428,62.823542 c -0.8777,-0.184534 -2.31793,-0.633735 -2.31793,-0.722954 0,-0.04515 0.22394,-0.37987 0.49763,-0.743819 0.91419,-1.215657 1.19552,-1.915075 1.68749,-4.195413 l 0.31547,-1.462215 2.5013,-0.855904 c 3.9061,-1.336609 4.59538,-1.657717 5.77824,-2.691841 1.72919,-1.511761 4.5098,-4.665496 5.57423,-6.322208 0.78776,-1.226107 2.46735,-4.4388 5.69114,-10.885904 l 2.82336,-5.646299 5.01686,-5.381241 c 11.70742,-12.557733 15.42251,-16.4698406 15.53427,-16.3580753 0.0273,0.027312 -1.72836,2.7824383 -3.9015,6.1225033 -10.98772,16.887874 -11.53618,17.844004 -14.72789,25.675323 -2.60718,6.397076 -5.43602,12.488612 -6.65614,14.3331 -1.22107,1.845914 -2.83011,3.395479 -5.08583,4.897832 -2.31883,1.544394 -6.0409,3.301868 -8.46866,3.998714 -1.03655,0.297523 -3.36212,0.427605 -4.26204,0.238401 z"
     id="path902" />
  <path
     style="font-variation-settings:normal;opacity:1;vector-effect:none;fill:#ff5555;fill-opacity:1;stroke-width:0.00346903;stroke-linecap:butt;stroke-linejoin:miter;stroke-miterlimit:4;stroke-dasharray:none;stroke-dashoffset:0;stroke-opacity:1;stop-color:#000000;stop-opacity:1"
     d="m 15.930594,247.51962 c 0.547825,-0.65534 6.640184,-7.0364 9.37779,-9.82218 2.965276,-3.01746 3.482261,-3.46392 7.006448,-6.05065 3.223062,-2.3657 4.758194,-3.62285 6.057768,-4.96079 1.031085,-1.06153 1.175281,-1.30259 1.396657,-2.33482 0.27254,-1.27081 -0.346205,-2.51172 -1.252404,-2.51172 -0.902811,0 -2.837191,0.98115 -4.01006,2.03397 -1.3135,1.17906 -2.890381,3.61446 -4.747656,7.33247 l -1.118026,2.23813 -4.40677,4.64646 c -5.187844,5.47002 -9.312726,9.65357 -9.416185,9.55011 -0.126369,-0.12637 6.198603,-10.88621 9.615551,-16.35766 2.233349,-3.5762 6.392856,-10.05886 6.584555,-10.26214 0.07701,-0.0817 0.866526,-0.31342 1.754476,-0.515 2.865711,-0.65059 4.235329,-1.20821 6.581038,-2.67937 0.755073,-0.47356 1.398127,-0.86102 1.429009,-0.86102 0.03088,0 0.364343,0.43983 0.741022,0.97739 0.83786,1.19571 1.269167,1.63659 1.924033,1.96673 0.277083,0.13968 0.519929,0.26794 0.539657,0.28502 0.01973,0.0171 -0.398473,0.69517 -0.929335,1.50687 -1.097414,1.67799 -1.667729,2.91984 -2.221143,4.8365 -0.627153,2.17204 -0.664593,2.22225 -3.592549,4.81816 -1.789372,1.58645 -7.11491,6.02991 -8.83917,7.37512 -2.540821,1.98228 -12.513327,9.18443 -12.717275,9.18443 -0.04866,0 0.06049,-0.1782 0.242569,-0.39601 z"
     id="path904" />
  <path
     style="font-variation-settings:normal;opacity:1;vector-effect:none;fill:#ffdd55;fill-opacity:1;stroke-width:0.00165458;stroke-linecap:butt;stroke-linejoin:miter;stroke-miterlimit:4;stroke-dasharray:none;stroke-dashoffset:0;stroke-opacity:1;stop-color:#000000;stop-opacity:1"
     d="m 194.26582,61.596854 c 1.98634,-2.056237 2.52708,-3.044901 2.4224,-4.429006 -0.0849,-1.122106 -0.51086,-1.714707 -1.42332,-1.979966 -0.41763,-0.121407 -0.58359,-0.127504 -1.13592,-0.04173 -1.15306,0.179064 -2.03814,0.694926 -3.76931,2.196938 -0.58003,0.503246 -1.09377,0.914992 -1.14164,0.914992 -0.13153,0 -0.10469,-0.943294 0.0408,-1.433112 0.2823,-0.950607 1.38262,-2.018664 2.51681,-2.443019 1.00936,-0.37765 6.27286,-1.383784 6.50112,-1.24271 0.24673,0.152484 -0.15157,3.330242 -0.66018,5.267162 -0.31443,1.19742 -0.99944,2.418421 -1.79463,3.198837 -0.41983,0.412029 -0.75348,0.524841 -1.56183,0.52807 l -0.51448,0.0021 z"
     id="path906" />
  <path
     style="font-variation-settings:normal;opacity:1;vector-effect:none;fill:#ffdd55;fill-opacity:1;stroke-width:0.00165458;stroke-linecap:butt;stroke-linejoin:miter;stroke-miterlimit:4;stroke-dasharray:none;stroke-dashoffset:0;stroke-opacity:1;stop-color:#000000;stop-opacity:1"
     d="m 179.65317,69.28783 c 0,-0.932019 7.37157,-19.97149 7.6317,-19.711355 0.0266,0.02662 0.002,0.527199 -0.0545,1.112395 -0.18094,1.871476 -0.13833,2.086917 1.00277,5.070519 0.36542,0.955433 0.41225,1.15484 0.41485,1.766318 0.003,0.649746 -0.0472,0.837601 -0.86996,3.27415 -0.48009,1.421671 -1.11268,3.23421 -1.40575,4.027865 l -0.53285,1.443011 -1.0468,0.549821 c -0.57574,0.302401 -1.23277,0.61863 -1.46007,0.702729 -0.57032,0.211016 -0.65164,0.10496 -0.37809,-0.493075 0.28671,-0.626821 1.42111,-3.727934 1.85359,-5.067166 0.44731,-1.38519 0.50686,-1.830427 0.30535,-2.283289 -0.11552,-0.259634 -0.16496,-0.663448 -0.20041,-1.637075 l -0.0471,-1.292428 -0.16984,0.250904 c -0.27591,0.407609 -0.298,1.787512 -0.0417,2.604777 l 0.1974,0.62945 -0.18522,0.692046 c -0.10188,0.380625 -0.65503,2.000386 -1.22924,3.599469 -0.57421,1.599083 -1.10932,3.101288 -1.18913,3.338233 l -0.14511,0.43081 -1.07127,0.538511 c -1.03404,0.519795 -1.37869,0.633132 -1.37869,0.45338 z"
     id="path908" />
  <path
     style="font-variation-settings:normal;opacity:1;vector-effect:none;fill:#ffdd55;fill-opacity:1;stroke-width:0.00165458;stroke-linecap:butt;stroke-linejoin:miter;stroke-miterlimit:4;stroke-dasharray:none;stroke-dashoffset:0;stroke-opacity:1;stop-color:#000000;stop-opacity:1"
     d="m 175.94821,71.138024 c 0,-0.02439 0.32856,-0.395539 0.73013,-0.824785 0.84779,-0.906216 1.57207,-1.858558 2.76284,-3.632835 0.46912,-0.698988 0.88112,-1.270888 0.91555,-1.270888 0.13683,0 -0.76638,2.603962 -1.30284,3.756123 -0.39243,0.842827 -0.57546,0.995999 -1.89013,1.581774 -0.90358,0.402612 -1.21555,0.502861 -1.21555,0.390611 z"
     id="path910" />
  <path
     style="font-variation-settings:normal;opacity:1;vector-effect:none;fill:#ffdd55;fill-opacity:1;stroke-width:0.00165458;stroke-linecap:butt;stroke-linejoin:miter;stroke-miterlimit:4;stroke-dasharray:none;stroke-dashoffset:0;stroke-opacity:1;stop-color:#000000;stop-opacity:1"
     d="m 167.28703,76.768748 c -0.69844,-0.555552 -1.3336,-1.229919 -1.3336,-1.415928 0,-0.230409 0.10587,-0.274012 1.76632,-0.727499 3.11093,-0.849624 6.58236,-2.144175 10.03786,-3.743268 2.85374,-1.320622 7.64739,-3.821918 8.78851,-4.585792 2.04944,-1.371911 5.62577,-3.268953 6.62058,-3.51185 0.89276,-0.217978 2.3994,-0.144213 4.10657,0.201055 1.87894,0.380009 3.08051,0.489503 3.98429,0.363071 0.40208,-0.05625 0.74787,-0.08544 0.76844,-0.06488 0.0936,0.09356 -2.87012,1.794472 -3.71879,2.134272 -0.51089,0.204557 -0.55192,0.206991 -3.48955,0.206991 -2.85198,0 -2.98832,0.0074 -3.36032,0.183127 -3.6936,1.744513 -8.13021,3.858885 -13.26892,6.323633 -9.25816,4.440605 -10.25307,4.909686 -10.41336,4.909686 -0.0799,0 -0.29952,-0.122679 -0.48803,-0.272619 z"
     id="path912" />
  <path
     style="font-variation-settings:normal;opacity:1;vector-effect:none;fill:#ffdd55;fill-opacity:1;stroke-width:0.00165458;stroke-linecap:butt;stroke-linejoin:miter;stroke-miterlimit:4;stroke-dasharray:none;stroke-dashoffset:0;stroke-opacity:1;stop-color:#000000;stop-opacity:1"
     d="m 163.58398,82.805674 c -0.6777,-0.09157 -2.98716,-0.845212 -3.03369,-0.989973 -0.10342,-0.321749 5.49832,-3.301557 13.67468,-7.274156 8.78168,-4.2667 16.81142,-8.016496 17.99625,-8.404032 0.38854,-0.127084 0.64963,-0.141991 1.67904,-0.09587 1.15758,0.05187 1.80863,0.143565 1.93662,0.272757 0.0318,0.03209 -0.0585,0.151365 -0.20069,0.265064 -0.38278,0.306136 -3.29117,1.761668 -4.48041,2.242267 -1.64023,0.662855 -5.43962,2.576924 -10.46477,5.271982 -4.25894,2.284129 -6.10729,3.36936 -11.2911,6.629405 -1.20842,0.759963 -2.50731,1.539858 -2.88642,1.7331 -0.63005,0.32115 -0.75965,0.354769 -1.50784,0.391149 -0.45019,0.02189 -1.08994,0.0031 -1.42167,-0.0417 z"
     id="path914" />
  <path
     style="font-variation-settings:normal;opacity:1;vector-effect:none;fill:#ffdd55;fill-opacity:1;stroke-width:0.00165458;stroke-linecap:butt;stroke-linejoin:miter;stroke-miterlimit:4;stroke-dasharray:none;stroke-dashoffset:0;stroke-opacity:1;stop-color:#000000;stop-opacity:1"
     d="m 165.4719,86.92844 c 0.0742,-0.69274 0.38069,-1.758147 0.8475,-2.946353 l 0.37052,-0.943089 2.32431,-1.494898 c 2.85822,-1.838282 5.33942,-3.368579 7.20096,-4.441248 3.66283,-2.110621 11.85015,-6.442774 12.16072,-6.434596 0.0599,0.0016 0.0167,0.07959 -0.0958,0.17336 -0.34563,0.287893 -3.85806,2.728608 -9.23003,6.413778 -7.98014,5.474362 -8.83256,6.10578 -12.08261,8.949969 -0.79288,0.693873 -1.46672,1.261589 -1.49742,1.261589 -0.0307,0 -0.0298,-0.242331 0.002,-0.538512 z"
     id="path916" />
  <path
     style="font-variation-settings:normal;opacity:1;vector-effect:none;fill:#ffdd55;fill-opacity:1;stroke-width:0.00165458;stroke-linecap:butt;stroke-linejoin:miter;stroke-miterlimit:4;stroke-dasharray:none;stroke-dashoffset:0;stroke-opacity:1;stop-color:#000000;stop-opacity:1"
     d="m 166.29808,87.634417 c 0,-0.127239 0.66088,-0.749208 2.41253,-2.270487 2.07088,-1.798523 3.24426,-2.722042 3.4585,-2.722042 0.31261,0 -0.51219,1.368343 -1.52834,2.535499 -1.00618,1.155705 -2.03005,1.833087 -3.51241,2.32377 -0.75876,0.251159 -0.83028,0.262637 -0.83028,0.13326 z"
     id="path918" />
  <path
     style="font-variation-settings:normal;opacity:1;vector-effect:none;fill:#ffdd55;fill-opacity:1;stroke-width:0.00165458;stroke-linecap:butt;stroke-linejoin:miter;stroke-miterlimit:4;stroke-dasharray:none;stroke-dashoffset:0;stroke-opacity:1;stop-color:#000000;stop-opacity:1"
     d="m 171.40202,90.623995 c -0.65816,-0.714014 -0.96886,-1.602581 -0.96715,-2.765877 0.002,-1.242873 0.0648,-1.390491 1.67362,-3.923803 1.33621,-2.104042 1.9314,-2.821154 2.80111,-3.374903 0.4393,-0.279711 0.6078,-0.306449 0.6078,-0.09645 0,0.257338 -0.8214,2.898747 -1.84312,5.926966 -1.16445,3.451272 -1.59306,4.554909 -1.78295,4.590915 -0.0751,0.01424 -0.29528,-0.146344 -0.48931,-0.356848 z"
     id="path920" />
  <path
     style="font-variation-settings:normal;opacity:1;vector-effect:none;fill:#ffdd55;fill-opacity:1;stroke-width:0.00165458;stroke-linecap:butt;stroke-linejoin:miter;stroke-miterlimit:4;stroke-dasharray:none;stroke-dashoffset:0;stroke-opacity:1;stop-color:#000000;stop-opacity:1"
     d="m 176.16282,86.831614 c -0.0737,-0.112491 -0.31516,-0.645618 -0.53655,-1.184726 -0.35456,-0.863365 -0.40282,-1.05722 -0.40487,-1.626411 -0.002,-0.578106 0.0648,-0.845996 0.63433,-2.541774 0.43728,-1.301924 0.69191,-1.936036 0.81309,-2.024804 0.48208,-0.353154 2.38891,-1.614803 2.66387,-1.762539 0.17252,-0.0927 0.34059,-0.141632 0.37348,-0.108739 0.14203,0.142031 -0.6359,2.568558 -2.07776,6.480937 -0.7381,2.002791 -1.14882,2.972584 -1.25894,2.972584 -0.04,0 -0.13295,-0.09204 -0.20665,-0.204528 z"
     id="path922" />
  <path
     style="font-variation-settings:normal;opacity:1;vector-effect:none;fill:#ffdd55;fill-opacity:1;stroke-width:0.00165458;stroke-linecap:butt;stroke-linejoin:miter;stroke-miterlimit:4;stroke-dasharray:none;stroke-dashoffset:0;stroke-opacity:1;stop-color:#000000;stop-opacity:1"
     d="m 44.373762,219.74196 c -1.075865,-0.21153 -2.224586,-1.36976 -2.953999,-2.97845 -0.35617,-0.78551 -0.327914,-1.3498 0.09873,-1.9716 0.301963,-0.44009 1.785176,-2.0226 1.895689,-2.0226 0.03392,0 0.108456,0.28998 0.16563,0.6444 0.231937,1.43777 1.105227,2.49438 2.919201,3.53198 0.59928,0.3428 1.050096,0.65542 1.050096,0.72822 0,0.20312 -1.626164,1.70901 -2.101053,1.94566 -0.462402,0.23043 -0.501906,0.23493 -1.07429,0.12239 z"
     id="path924" />
  <path
     style="font-variation-settings:normal;opacity:1;vector-effect:none;fill:#ffdd55;fill-opacity:1;stroke-width:0.00165458;stroke-linecap:butt;stroke-linejoin:miter;stroke-miterlimit:4;stroke-dasharray:none;stroke-dashoffset:0;stroke-opacity:1;stop-color:#000000;stop-opacity:1"
     d="m 47.150015,216.74663 c -0.682783,-0.23599 -1.37523,-0.69113 -2.00419,-1.31736 -0.64417,-0.64138 -1.010219,-1.28871 -1.089991,-1.92758 -0.05619,-0.44999 0.07013,-0.9537 0.216479,-0.86325 0.04611,0.0285 0.235761,0.376 0.421437,0.77222 0.429904,0.91739 0.880901,1.40619 1.924733,2.08606 1.025595,0.668 1.447593,1.03093 1.447593,1.24496 0,0.21109 -0.314714,0.21279 -0.916061,0.005 z"
     id="path926" />
  <path
     style="font-variation-settings:normal;opacity:1;vector-effect:none;fill:#ffdd55;fill-opacity:1;stroke-width:0.00165458;stroke-linecap:butt;stroke-linejoin:miter;stroke-miterlimit:4;stroke-dasharray:none;stroke-dashoffset:0;stroke-opacity:1;stop-color:#000000;stop-opacity:1"
     d="m 47.244217,215.35883 c -1.08967,-0.54791 -2.107644,-1.61288 -2.107644,-2.20494 0,-0.34946 0.131738,-0.51889 1.504907,-1.93549 1.186673,-1.22421 1.908271,-2.05448 2.168625,-2.49522 l 0.156258,-0.26452 1.445417,1.44354 c 0.79498,0.79395 1.445418,1.47961 1.445418,1.5237 0,0.0441 -0.650907,0.74243 -1.44646,1.55187 -0.795552,0.80943 -1.631434,1.71403 -1.857516,2.01021 -0.22608,0.29618 -0.444391,0.53851 -0.485135,0.53851 -0.04074,0 -0.127211,0.0204 -0.19215,0.0453 -0.06494,0.0249 -0.349213,-0.0709 -0.63172,-0.21297 z"
     id="path928" />
  <path
     style="font-variation-settings:normal;opacity:1;vector-effect:none;fill:#ffdd55;fill-opacity:1;stroke-width:0.00165458;stroke-linecap:butt;stroke-linejoin:miter;stroke-miterlimit:4;stroke-dasharray:none;stroke-dashoffset:0;stroke-opacity:1;stop-color:#000000;stop-opacity:1"
     d="m 52.283336,210.97086 c -0.464042,-0.29987 -2.480305,-2.34695 -2.726451,-2.76813 -0.514724,-0.88072 -0.340324,-1.28749 1.429522,-3.33416 0.499804,-0.57798 0.917981,-1.04162 0.929282,-1.03032 0.0113,0.0113 0.06526,0.30971 0.119917,0.66314 0.128929,0.83374 0.333077,1.21875 0.975903,1.84048 1.268016,1.2264 1.871186,1.62936 2.595752,1.73413 0.709317,0.10258 0.711872,0.11697 0.146167,0.82329 -0.757321,0.94557 -1.50766,1.77154 -1.873317,2.06213 -0.4506,0.35809 -1.051753,0.36164 -1.596775,0.009 z"
     id="path930" />
  <path
     style="font-variation-settings:normal;opacity:1;vector-effect:none;fill:#ffdd55;fill-opacity:1;stroke-width:0.00165458;stroke-linecap:butt;stroke-linejoin:miter;stroke-miterlimit:4;stroke-dasharray:none;stroke-dashoffset:0;stroke-opacity:1;stop-color:#000000;stop-opacity:1"
     d="m 55.212236,207.48714 c -0.513209,-0.14511 -0.754887,-0.32588 -1.610604,-1.2047 -0.831614,-0.85406 -1.059596,-1.29374 -1.081609,-2.08599 -0.02728,-0.98188 0.282284,-0.9834 0.821681,-0.004 0.798944,1.45064 2.341091,2.89019 3.096182,2.89019 0.276348,0 0.55599,0.23982 0.428408,0.3674 -0.135092,0.1351 -1.221339,0.15946 -1.654058,0.0371 z"
     id="path932" />
  <path
     style="font-variation-settings:normal;opacity:1;vector-effect:none;fill:#ffe6d5;fill-opacity:1;stroke-width:0.0049169;stroke-linecap:butt;stroke-linejoin:miter;stroke-miterlimit:4;stroke-dasharray:none;stroke-dashoffset:0;stroke-opacity:1;stop-color:#000000;stop-opacity:1"
     d="m 57.856785,204.05807 c -0.587682,-0.11677 -1.146258,-0.30858 -1.708663,-0.58675 -0.494227,-0.24444 -1.436651,-0.87327 -1.436651,-0.95861 0,-0.1 1.685164,-1.68861 1.873279,-1.76599 0.182481,-0.0751 0.243911,-0.0642 0.792033,0.13984 0.326815,0.12167 1.22431,0.40002 1.994433,0.61855 0.770124,0.21854 1.423111,0.42023 1.451082,0.4482 0.07036,0.0704 -0.424146,0.64546 -1.218386,1.41698 -0.493014,0.47891 -0.731026,0.66669 -0.90697,0.71554 -0.284999,0.0791 -0.305635,0.0784 -0.840157,-0.0278 z"
     id="path934" />
  <path
     style="font-variation-settings:normal;opacity:1;vector-effect:none;fill:#ffe6d5;fill-opacity:1;stroke-width:0.0049169;stroke-linecap:butt;stroke-linejoin:miter;stroke-miterlimit:4;stroke-dasharray:none;stroke-dashoffset:0;stroke-opacity:1;stop-color:#000000;stop-opacity:1"
     d="m 62.683306,199.05022 c -0.76595,-0.82159 -1.271645,-1.97594 -1.280532,-2.92308 -0.0045,-0.47839 0.07932,-0.71042 0.418793,-1.15942 0.219419,-0.29021 2.152051,-2.5127 2.184994,-2.5127 0.0076,0 -7e-4,0.39068 -0.01848,0.86819 -0.02834,0.76111 -0.01592,0.93205 0.100709,1.38605 0.172415,0.67118 0.594244,1.53166 0.94564,1.92899 0.435254,0.49216 0.414321,0.54964 -0.569994,1.56526 -0.702294,0.72463 -1.198663,1.1361 -1.370517,1.1361 -0.0895,0 -0.239123,-0.10545 -0.410613,-0.28939 z"
     id="path936" />
  <path
     style="font-variation-settings:normal;opacity:1;vector-effect:none;fill:#ffe6d5;fill-opacity:1;stroke-width:0.0049169;stroke-linecap:butt;stroke-linejoin:miter;stroke-miterlimit:4;stroke-dasharray:none;stroke-dashoffset:0;stroke-opacity:1;stop-color:#000000;stop-opacity:1"
     d="m 69.493653,191.41864 c -0.713699,-0.15038 -1.32041,-0.33744 -1.800816,-0.55521 -1.188242,-0.53865 -1.244838,-1.08258 -0.22286,-2.14187 0.464524,-0.48148 0.652984,-0.50298 2.028111,-0.23139 0.855302,0.16892 1.911345,0.31329 2.957974,0.40438 0.259695,0.0226 0.472173,0.0541 0.472173,0.07 0,0.0592 -1.580917,1.94638 -1.83647,2.19224 -0.438066,0.42145 -0.664526,0.45855 -1.598112,0.26183 z"
     id="path938" />
  <path
     style="font-variation-settings:normal;opacity:1;vector-effect:none;fill:#ffe6d5;fill-opacity:1;stroke-width:0.0049169;stroke-linecap:butt;stroke-linejoin:miter;stroke-miterlimit:4;stroke-dasharray:none;stroke-dashoffset:0;stroke-opacity:1;stop-color:#000000;stop-opacity:1"
     d="m 75.828653,185.35262 c -0.450334,-0.34385 -1.113541,-1.16238 -1.378524,-1.70136 -0.142009,-0.28885 -0.282016,-0.69968 -0.343682,-1.00848 -0.103486,-0.51823 -0.103313,-0.52262 0.03161,-0.80133 0.145164,-0.29987 1.100456,-1.26693 1.25151,-1.26693 0.05525,0 0.172957,0.22147 0.315722,0.59402 0.411377,1.07352 0.722694,1.62964 1.273529,2.27496 0.153067,0.17932 0.308922,0.42823 0.346344,0.55313 0.06023,0.20103 0.04977,0.26419 -0.09108,0.55012 -0.208119,0.42249 -0.780877,1.02367 -0.975266,1.02367 -0.07971,0 -0.273276,-0.098 -0.430157,-0.2178 z"
     id="path940" />
  <path
     style="font-variation-settings:normal;opacity:1;vector-effect:none;fill:#ffe6d5;fill-opacity:1;stroke-width:0.0049169;stroke-linecap:butt;stroke-linejoin:miter;stroke-miterlimit:4;stroke-dasharray:none;stroke-dashoffset:0;stroke-opacity:1;stop-color:#000000;stop-opacity:1"
     d="m 84.169015,175.04832 c -0.748689,-0.0514 -3.042633,-0.39904 -3.12445,-0.47347 -0.0095,-0.009 0.302314,-0.41003 0.692884,-0.89202 1.334954,-1.6474 1.517166,-1.82068 1.914588,-1.82068 0.109861,0 0.46074,0.0836 0.779733,0.18579 0.706576,0.22633 1.563236,0.36159 2.296121,0.36252 1.441333,0.002 1.604647,0.40003 0.621364,1.51501 -0.535814,0.60758 -0.98715,0.9677 -1.348298,1.0758 -0.283794,0.0849 -1.009013,0.10358 -1.831942,0.047 z"
     id="path942" />
  <path
     style="font-variation-settings:normal;opacity:1;vector-effect:none;fill:#ffe6d5;fill-opacity:1;stroke-width:0.0049169;stroke-linecap:butt;stroke-linejoin:miter;stroke-miterlimit:4;stroke-dasharray:none;stroke-dashoffset:0;stroke-opacity:1;stop-color:#000000;stop-opacity:1"
     d="m 90.872355,169.40275 c -0.213101,-0.36363 -0.605117,-1.27761 -0.75088,-1.75068 -0.06606,-0.21439 -0.154368,-0.73251 -0.19624,-1.15137 -0.09024,-0.90277 -0.03393,-1.28666 0.255831,-1.74401 0.186374,-0.29416 1.997271,-2.17794 2.046427,-2.12879 0.01405,0.014 0.04888,0.39082 0.07742,0.83728 0.0803,1.25642 0.381228,2.26936 0.862889,2.90454 0.354315,0.46725 0.24756,0.95483 -0.383376,1.75099 -0.45334,0.57205 -1.52953,1.54812 -1.706924,1.54812 -0.02707,0 -0.119385,-0.11973 -0.205147,-0.26608 z"
     id="path944" />
  <path
     style="font-variation-settings:normal;opacity:1;vector-effect:none;fill:#ffe6d5;fill-opacity:1;stroke-width:0.0049169;stroke-linecap:butt;stroke-linejoin:miter;stroke-miterlimit:4;stroke-dasharray:none;stroke-dashoffset:0;stroke-opacity:1;stop-color:#000000;stop-opacity:1"
     d="m 97.986414,160.96352 c -0.706363,-0.24588 -1.357325,-0.67316 -2.028289,-1.33133 l -0.578794,-0.56776 0.570796,-0.54732 c 0.313938,-0.30102 0.642011,-0.56519 0.729051,-0.58703 0.119899,-0.0301 0.284264,0.0277 0.678179,0.23843 0.601577,0.32184 1.340503,0.59215 2.217158,0.81106 0.789555,0.19717 1.196735,0.32932 1.196735,0.38843 0,0.0648 -0.72057,0.89458 -1.043718,1.20184 -0.657387,0.62506 -0.911407,0.6825 -1.741118,0.39368 z"
     id="path946" />
  <path
     style="font-variation-settings:normal;opacity:1;vector-effect:none;fill:#ffe6d5;fill-opacity:1;stroke-width:0.0049169;stroke-linecap:butt;stroke-linejoin:miter;stroke-miterlimit:4;stroke-dasharray:none;stroke-dashoffset:0;stroke-opacity:1;stop-color:#000000;stop-opacity:1"
     d="m 102.73481,156.51795 c -0.34213,-0.21697 -0.61222,-0.635 -0.79315,-1.22757 -0.18472,-0.60501 -0.19958,-1.74313 -0.0322,-2.46749 0.17537,-0.75898 0.51744,-1.43184 0.94557,-1.85997 0.57774,-0.57774 0.62988,-0.52753 0.80115,0.77169 0.16049,1.21747 0.29985,1.68506 0.70002,2.34886 0.42157,0.69928 0.43775,0.90205 0.11098,1.3905 -0.123,0.18385 -0.42149,0.53305 -0.66331,0.77599 -0.509,0.51137 -0.63534,0.54304 -1.06905,0.26799 z"
     id="path948" />
  <path
     style="font-variation-settings:normal;opacity:1;vector-effect:none;fill:#ffe6d5;fill-opacity:1;stroke-width:0.0049169;stroke-linecap:butt;stroke-linejoin:miter;stroke-miterlimit:4;stroke-dasharray:none;stroke-dashoffset:0;stroke-opacity:1;stop-color:#000000;stop-opacity:1"
     d="m 108.49865,149.30225 c -0.86096,-0.2266 -1.66995,-0.64562 -2.46749,-1.27805 l -0.15231,-0.12078 0.42648,-0.43577 c 0.60558,-0.61878 0.98446,-0.90994 1.18407,-0.90994 0.0937,0 0.34033,0.1119 0.55809,0.2532 0.54508,0.35368 0.90953,0.51101 1.5983,0.68996 0.90655,0.23554 1.4422,0.56089 1.4422,0.87597 0,0.13838 -0.67651,0.76337 -0.99118,0.9157 -0.33874,0.16398 -0.99684,0.16798 -1.59816,0.01 z"
     id="path950" />
  <path
     style="font-variation-settings:normal;opacity:1;vector-effect:none;fill:#ffe6d5;fill-opacity:1;stroke-width:0.0049169;stroke-linecap:butt;stroke-linejoin:miter;stroke-miterlimit:4;stroke-dasharray:none;stroke-dashoffset:0;stroke-opacity:1;stop-color:#000000;stop-opacity:1"
     d="m 113.18896,145.25673 c -0.64435,-0.65489 -0.6643,-0.74008 -0.62213,-2.65705 0.0376,-1.71063 0.088,-1.96841 0.48653,-2.48808 0.28243,-0.36832 1.06265,-1.11465 1.39725,-1.33657 0.12416,-0.0823 0.25743,-0.12913 0.29742,-0.10441 0.0546,0.0337 0.0617,0.36962 0.029,1.36136 -0.0504,1.52474 0.004,2.08311 0.28311,2.90065 0.21657,0.63458 0.2366,0.95414 0.0725,1.15692 -0.22101,0.27313 -0.81365,1.03875 -1.01447,1.31057 -0.30301,0.41012 -0.39919,0.39528 -0.92919,-0.14339 z"
     id="path952" />
  <path
     style="font-variation-settings:normal;opacity:1;vector-effect:none;fill:#ffe6d5;fill-opacity:1;stroke-width:0.0049169;stroke-linecap:butt;stroke-linejoin:miter;stroke-miterlimit:4;stroke-dasharray:none;stroke-dashoffset:0;stroke-opacity:1;stop-color:#000000;stop-opacity:1"
     d="m 119.64804,138.32316 c -0.72474,-0.4055 -1.52873,-1.0226 -2.14948,-1.64981 l -0.5045,-0.50974 0.54183,-0.72797 c 0.29801,-0.40038 0.65887,-0.84487 0.80191,-0.98776 0.47495,-0.4744 0.69464,-0.43375 1.36617,0.2528 0.67146,0.68648 1.05923,0.96209 1.8941,1.34627 0.39161,0.18021 0.72587,0.3415 0.7428,0.35843 0.0169,0.0169 -0.009,0.0871 -0.0568,0.15582 -0.18212,0.26001 -1.94959,2.07601 -2.01709,2.07247 -0.0388,-0.002 -0.31738,-0.14177 -0.61896,-0.31051 z"
     id="path954" />
  <path
     style="font-variation-settings:normal;opacity:1;vector-effect:none;fill:#ffe6d5;fill-opacity:1;stroke-width:0.0049169;stroke-linecap:butt;stroke-linejoin:miter;stroke-miterlimit:4;stroke-dasharray:none;stroke-dashoffset:0;stroke-opacity:1;stop-color:#000000;stop-opacity:1"
     d="m 124.15654,130.65682 c -1.10329,-0.0842 -1.55384,-0.23058 -1.55338,-0.50475 3.9e-4,-0.23231 0.23349,-0.53615 0.99921,-1.30242 0.88094,-0.88158 0.98502,-0.92965 1.68988,-0.78052 0.67768,0.14337 1.96038,0.26499 3.25093,0.30823 0.63668,0.0213 1.24939,0.0565 1.36158,0.0781 l 0.204,0.0394 -0.97184,0.95104 c -1.2674,1.24028 -1.20308,1.21366 -3.0003,1.24164 -0.72044,0.0112 -1.61148,-0.003 -1.98008,-0.0307 z"
     id="path956" />
  <path
     style="font-variation-settings:normal;opacity:1;vector-effect:none;fill:#ffe6d5;fill-opacity:1;stroke-width:0.0049169;stroke-linecap:butt;stroke-linejoin:miter;stroke-miterlimit:4;stroke-dasharray:none;stroke-dashoffset:0;stroke-opacity:1;stop-color:#000000;stop-opacity:1"
     d="m 131.29032,125.42765 c -0.8793,-0.3049 -1.66863,-0.48862 -2.35112,-0.54723 -0.63628,-0.0546 -1.0753,-0.14663 -1.15433,-0.24186 -0.10349,-0.12471 0.26783,-0.55626 1.87983,-2.18474 l 1.43504,-1.44969 0.28633,0.85667 c 0.33359,0.99805 0.75544,1.90728 1.19872,2.58364 0.34021,0.5191 0.39102,0.76266 0.2066,0.99033 -0.27667,0.34155 -0.49854,0.3405 -1.50107,-0.007 z"
     id="path958" />
  <path
     style="font-variation-settings:normal;opacity:1;vector-effect:none;fill:#ffe6d5;fill-opacity:1;stroke-width:0.0049169;stroke-linecap:butt;stroke-linejoin:miter;stroke-miterlimit:4;stroke-dasharray:none;stroke-dashoffset:0;stroke-opacity:1;stop-color:#000000;stop-opacity:1"
     d="m 136.9103,120.08845 c -0.92259,-0.36892 -1.92328,-0.63968 -2.89837,-0.78424 -0.96942,-0.14371 -1.15318,-0.18037 -1.15318,-0.23002 0,-0.0925 0.54879,-0.72235 1.1124,-1.27667 0.78324,-0.77032 0.97494,-0.86703 1.72064,-0.86806 1.30936,-0.002 3.8199,0.41043 4.20222,0.68998 0.11386,0.0833 0.10847,0.0991 -0.15027,0.44178 -0.27238,0.36077 -2.11897,2.2812 -2.18705,2.2745 -0.0204,-0.002 -0.31129,-0.11328 -0.64639,-0.24727 z"
     id="path960" />
  <path
     style="font-variation-settings:normal;opacity:1;vector-effect:none;fill:#ffe6d5;fill-opacity:1;stroke-width:0.0049169;stroke-linecap:butt;stroke-linejoin:miter;stroke-miterlimit:4;stroke-dasharray:none;stroke-dashoffset:0;stroke-opacity:1;stop-color:#000000;stop-opacity:1"
     d="m 144.9014,110.68932 c -0.23355,-0.0271 -0.55584,-0.11651 -0.73342,-0.20339 -0.42383,-0.20736 -1.28134,-1.06538 -1.41529,-1.41612 -0.0987,-0.25852 -0.0976,-0.26888 0.0619,-0.59502 0.18044,-0.3688 1.1616,-1.44728 1.45445,-1.59873 0.24711,-0.12778 0.45907,-0.0754 1.01615,0.25121 0.90108,0.52827 1.81159,0.82261 2.92681,0.94617 0.35184,0.039 0.64673,0.0778 0.65529,0.0863 0.0271,0.0269 -1.59295,1.75658 -1.97918,2.11305 -0.5165,0.47671 -0.85595,0.54787 -1.98672,0.41649 z"
     id="path962" />
  <path
     style="font-variation-settings:normal;opacity:1;vector-effect:none;fill:#ffe6d5;fill-opacity:1;stroke-width:0.0049169;stroke-linecap:butt;stroke-linejoin:miter;stroke-miterlimit:4;stroke-dasharray:none;stroke-dashoffset:0;stroke-opacity:1;stop-color:#000000;stop-opacity:1"
     d="m 150.93901,104.54054 c -0.35528,-0.37491 -0.67926,-0.78061 -0.76768,-0.96134 -0.31254,-0.63881 -0.36724,-2.2481 -0.0943,-2.7745 0.12721,-0.24534 2.15359,-2.378245 2.25947,-2.378245 0.0233,0 0.0617,0.294728 0.0851,0.654951 0.11321,1.736484 0.20194,1.964354 1.13189,2.906914 l 0.66716,0.6762 -1.26341,1.26234 c -0.69488,0.69429 -1.29495,1.26234 -1.3335,1.26234 -0.0385,0 -0.34669,-0.29189 -0.68477,-0.64866 z"
     id="path964" />
  <path
     style="font-variation-settings:normal;opacity:1;vector-effect:none;fill:#ffe6d5;fill-opacity:1;stroke-width:0.0049169;stroke-linecap:butt;stroke-linejoin:miter;stroke-miterlimit:4;stroke-dasharray:none;stroke-dashoffset:0;stroke-opacity:1;stop-color:#000000;stop-opacity:1"
     d="m 156.92478,98.811336 c -0.56952,-0.890302 -0.9346,-2.017072 -0.9346,-2.884534 v -0.582946 l 1.62976,0.0029 c 1.60584,0.0029 1.64476,-4.3e-5 2.65118,-0.199373 0.56178,-0.111265 1.06898,-0.192834 1.12712,-0.181264 0.17478,0.03478 -3.68261,3.891795 -4.13351,4.133106 -0.10045,0.05376 -0.14613,0.01507 -0.33995,-0.287917 z"
     id="path966" />
  <path
     style="font-variation-settings:normal;opacity:1;vector-effect:none;fill:#ffe6d5;fill-opacity:1;stroke-width:0.0049169;stroke-linecap:butt;stroke-linejoin:miter;stroke-miterlimit:4;stroke-dasharray:none;stroke-dashoffset:0;stroke-opacity:1;stop-color:#000000;stop-opacity:1"
     d="m 159.84085,91.192424 c -0.36271,-0.01517 -0.51478,-0.0453 -0.53833,-0.106667 -0.0555,-0.144583 0.30292,-0.590931 1.33407,-1.661421 1.35727,-1.409045 2.55569,-2.690061 3.84775,-4.112947 0.60044,-0.661226 1.10361,-1.190322 1.11816,-1.175768 0.0146,0.01455 -0.0605,0.318833 -0.16668,0.676175 -0.10623,0.357342 -0.23243,0.855001 -0.28043,1.105908 -0.10467,0.547043 -0.10925,1.792655 -0.008,2.090468 0.0705,0.206671 0.0834,0.213799 0.41926,0.231399 0.1906,0.01 0.63751,-0.03799 0.99313,-0.10662 0.66499,-0.128328 1.27984,-0.162897 1.33416,-0.07501 0.0775,0.125415 -1.09527,1.425313 -1.77537,1.9678 -0.95395,0.760928 -1.95484,1.026157 -4.21891,1.117988 -0.48588,0.01971 -1.03421,0.04348 -1.21851,0.05283 -0.1843,0.0094 -0.56258,0.0075 -0.84061,-0.0041 z"
     id="path968" />
  <path
     style="font-variation-settings:normal;opacity:1;vector-effect:none;fill:#ffccaa;fill-opacity:1;stroke-width:0.00462394;stroke-linecap:butt;stroke-linejoin:miter;stroke-miterlimit:4;stroke-dasharray:none;stroke-dashoffset:0;stroke-opacity:1;stop-color:#000000;stop-opacity:1"
     d="m 55.121214,205.66978 c -0.966794,-0.94763 -1.405034,-1.50686 -1.440675,-1.83841 -0.03793,-0.35282 0.01127,-0.46672 0.25633,-0.59345 0.405063,-0.20946 0.724731,-0.16336 1.157425,0.16692 0.567973,0.43354 1.101135,0.68221 2.144176,1.00003 0.508535,0.15496 0.924609,0.31077 0.924609,0.34625 0,0.0779 -1.912702,1.88798 -1.995042,1.88798 -0.03185,0 -0.502918,-0.43619 -1.046823,-0.96932 z"
     id="path970" />
  <path
     style="font-variation-settings:normal;opacity:1;vector-effect:none;fill:#ffccaa;fill-opacity:1;stroke-width:0.00462394;stroke-linecap:butt;stroke-linejoin:miter;stroke-miterlimit:4;stroke-dasharray:none;stroke-dashoffset:0;stroke-opacity:1;stop-color:#000000;stop-opacity:1"
     d="m 60.21191,198.58077 c -0.795749,-0.15837 -1.052144,-0.29352 -1.084423,-0.57163 -0.02159,-0.18602 0.118835,-0.37988 0.764104,-1.05484 0.434806,-0.45482 0.820853,-0.82694 0.857882,-0.82694 0.03703,0 0.130027,0.2811 0.206663,0.62467 0.129763,0.58175 0.41678,1.28081 0.673145,1.63953 0.233157,0.32624 -0.342628,0.4031 -1.417371,0.18921 z"
     id="path972" />
  <path
     style="font-variation-settings:normal;opacity:1;vector-effect:none;fill:#ffccaa;fill-opacity:1;stroke-width:0.00462394;stroke-linecap:butt;stroke-linejoin:miter;stroke-miterlimit:4;stroke-dasharray:none;stroke-dashoffset:0;stroke-opacity:1;stop-color:#000000;stop-opacity:1"
     d="m 67.128756,194.1241 c -0.145442,-0.29619 -0.321676,-0.80993 -0.391632,-1.14165 -0.135379,-0.64196 -0.176879,-2.0248 -0.06076,-2.0248 0.03818,0 0.396829,0.13136 0.796997,0.29192 0.679434,0.27261 1.74877,0.568 2.528617,0.6985 l 0.336287,0.0563 -0.680934,0.69222 c -0.778692,0.7916 -2.089162,1.96605 -2.193754,1.96605 -0.03871,0 -0.189374,-0.24233 -0.334816,-0.53851 z"
     id="path974" />
  <path
     style="font-variation-settings:normal;opacity:1;vector-effect:none;fill:#ffccaa;fill-opacity:1;stroke-width:0.00462394;stroke-linecap:butt;stroke-linejoin:miter;stroke-miterlimit:4;stroke-dasharray:none;stroke-dashoffset:0;stroke-opacity:1;stop-color:#000000;stop-opacity:1"
     d="m 71.518166,188.36394 c -0.751509,-0.0845 -2.298384,-0.38282 -2.621043,-0.5055 -0.122264,-0.0465 -0.222298,-0.11833 -0.222298,-0.15966 0,-0.10849 1.005401,-1.25751 1.665599,-1.90353 l 0.564871,-0.55274 0.543713,0.26767 c 0.78145,0.38471 1.488211,0.47504 3.214066,0.4108 l 1.464752,-0.0545 -1.184891,1.17148 c -0.651689,0.64431 -1.319275,1.22762 -1.483524,1.29625 -0.323035,0.13497 -0.923596,0.14418 -1.941245,0.0298 z"
     id="path976" />
  <path
     style="font-variation-settings:normal;opacity:1;vector-effect:none;fill:#ffccaa;fill-opacity:1;stroke-width:0.00462394;stroke-linecap:butt;stroke-linejoin:miter;stroke-miterlimit:4;stroke-dasharray:none;stroke-dashoffset:0;stroke-opacity:1;stop-color:#000000;stop-opacity:1"
     d="m 77.423261,183.27439 c -0.803762,-0.89398 -1.499892,-2.41778 -1.396263,-3.05637 0.0265,-0.16328 0.223573,-0.54267 0.437946,-0.84309 0.440564,-0.61739 1.237564,-1.51389 1.345877,-1.51389 0.10269,0 0.150976,0.20122 0.256685,1.06967 0.120108,0.98674 0.35577,1.47415 1.111103,2.29804 l 0.599217,0.6536 -0.921708,0.91885 c -0.506939,0.50537 -0.946561,0.91885 -0.976937,0.91885 -0.03038,0 -0.235541,-0.20055 -0.45592,-0.44566 z"
     id="path978" />
  <path
     style="font-variation-settings:normal;opacity:1;vector-effect:none;fill:#ffccaa;fill-opacity:1;stroke-width:0.00462394;stroke-linecap:butt;stroke-linejoin:miter;stroke-miterlimit:4;stroke-dasharray:none;stroke-dashoffset:0;stroke-opacity:1;stop-color:#000000;stop-opacity:1"
     d="m 85.13174,171.79289 c -0.26064,-0.0597 -0.665474,-0.19396 -0.899631,-0.29835 l -0.42574,-0.18979 1.281613,-1.28376 c 0.704887,-0.70606 1.307505,-1.26775 1.339151,-1.24819 0.03165,0.0196 0.08031,0.39549 0.108137,0.8354 0.05293,0.83666 0.226161,1.47945 0.474532,1.76077 0.08071,0.0914 0.220603,0.25187 0.310879,0.35656 l 0.164137,0.19035 -0.939594,-0.007 c -0.516777,-0.004 -1.152845,-0.0561 -1.413484,-0.11577 z"
     id="path980" />
  <path
     style="font-variation-settings:normal;opacity:1;vector-effect:none;fill:#ffccaa;fill-opacity:1;stroke-width:0.00462394;stroke-linecap:butt;stroke-linejoin:miter;stroke-miterlimit:4;stroke-dasharray:none;stroke-dashoffset:0;stroke-opacity:1;stop-color:#000000;stop-opacity:1"
     d="m 79.617381,177.73575 c -0.87975,-0.14469 -1.206266,-0.25957 -1.206266,-0.42442 0,-0.12486 1.151047,-1.45206 1.79698,-2.07199 l 0.352613,-0.33842 0.454576,0.10771 c 1.310348,0.31051 1.684307,0.365 2.933699,0.42752 0.747461,0.0374 1.398792,0.10777 1.447404,0.15638 0.0604,0.0604 -0.0189,0.22411 -0.250509,0.51712 -0.613369,0.77597 -1.362062,1.24161 -2.469751,1.53604 -0.727296,0.19331 -2.172271,0.23586 -3.058746,0.0901 z"
     id="path982" />
  <path
     style="font-variation-settings:normal;opacity:1;vector-effect:none;fill:#ffccaa;fill-opacity:1;stroke-width:0.00462394;stroke-linecap:butt;stroke-linejoin:miter;stroke-miterlimit:4;stroke-dasharray:none;stroke-dashoffset:0;stroke-opacity:1;stop-color:#000000;stop-opacity:1"
     d="m 95.594588,163.4633 c -0.603461,-0.20396 -1.234231,-0.47536 -1.401713,-0.6031 -0.339191,-0.25872 -0.818318,-1.12528 -0.818318,-1.48004 0,-0.17487 0.200215,-0.43372 0.836102,-1.08094 l 0.836103,-0.85102 0.477866,0.45944 c 0.686024,0.65957 1.049245,0.90495 1.93414,1.30662 1.1986,0.54407 1.190892,0.53864 1.07427,0.75655 -0.112064,0.20939 -1.709547,1.87767 -1.789642,1.86896 -0.02838,-0.003 -0.545348,-0.1725 -1.148808,-0.37647 z"
     id="path984" />
  <path
     style="font-variation-settings:normal;opacity:1;vector-effect:none;fill:#ffccaa;fill-opacity:1;stroke-width:0.00462394;stroke-linecap:butt;stroke-linejoin:miter;stroke-miterlimit:4;stroke-dasharray:none;stroke-dashoffset:0;stroke-opacity:1;stop-color:#000000;stop-opacity:1"
     d="m 100.52599,158.57741 c -0.712684,-0.51434 -0.732985,-0.57642 -0.728603,-2.22811 0.0049,-1.84406 0.05457,-2.01029 0.844323,-2.82542 l 0.61666,-0.63646 0.0527,1.07223 c 0.0725,1.47604 0.22,1.90605 0.91264,2.66081 l 0.54819,0.59735 -0.1477,0.25004 c -0.25362,0.42934 -1.29516,1.46677 -1.46472,1.45894 -0.0878,-0.004 -0.37282,-0.16128 -0.63346,-0.34938 z"
     id="path986" />
  <path
     style="font-variation-settings:normal;opacity:1;vector-effect:none;fill:#ffccaa;fill-opacity:1;stroke-width:0.00462394;stroke-linecap:butt;stroke-linejoin:miter;stroke-miterlimit:4;stroke-dasharray:none;stroke-dashoffset:0;stroke-opacity:1;stop-color:#000000;stop-opacity:1"
     d="m 104.85128,154.08171 c -0.51981,-0.85769 -0.88189,-2.22538 -0.70931,-2.6793 0.10311,-0.2712 0.24999,-0.28121 0.55906,-0.0381 0.26206,0.20614 1.42064,0.59052 2.30864,0.76594 0.31988,0.0632 0.58159,0.13752 0.58159,0.16518 0,0.0277 -0.4168,0.46039 -0.92624,0.96162 -0.88975,0.87544 -1.35968,1.28285 -1.4797,1.28285 -0.031,0 -0.1813,-0.20619 -0.33404,-0.45819 z"
     id="path988" />
  <path
     style="font-variation-settings:normal;opacity:1;vector-effect:none;fill:#ffccaa;fill-opacity:1;stroke-width:0.00462394;stroke-linecap:butt;stroke-linejoin:miter;stroke-miterlimit:4;stroke-dasharray:none;stroke-dashoffset:0;stroke-opacity:1;stop-color:#000000;stop-opacity:1"
     d="m 109.28807,146.95248 c -0.54404,-0.22083 -1.32,-0.72071 -1.42266,-0.91648 -0.12585,-0.24002 0.002,-0.44805 0.69997,-1.13504 0.54018,-0.53201 0.65283,-0.60888 0.69442,-0.47389 0.051,0.16547 0.57167,2.59085 0.57167,2.66284 0,0.0664 -0.10937,0.0387 -0.5434,-0.13743 z"
     id="path990" />
  <path
     style="font-variation-settings:normal;opacity:1;vector-effect:none;fill:#ffccaa;fill-opacity:1;stroke-width:0.00462394;stroke-linecap:butt;stroke-linejoin:miter;stroke-miterlimit:4;stroke-dasharray:none;stroke-dashoffset:0;stroke-opacity:1;stop-color:#000000;stop-opacity:1"
     d="m 117.00661,141.18682 c -1.10118,-0.73625 -2.04814,-2.72989 -1.61332,-3.39653 0.22931,-0.35158 1.08382,-1.22993 1.19346,-1.22677 0.052,10e-4 0.55547,0.38873 1.11877,0.8605 0.5633,0.47178 1.29029,1.0396 1.61554,1.26183 0.32524,0.22223 0.59135,0.46256 0.59135,0.53407 0,0.19882 -1.89724,2.03527 -2.21668,2.14567 -0.25114,0.0868 -0.3178,0.0695 -0.68912,-0.17877 z"
     id="path992" />
  <path
     style="font-variation-settings:normal;opacity:1;vector-effect:none;fill:#ffccaa;fill-opacity:1;stroke-width:0.00462394;stroke-linecap:butt;stroke-linejoin:miter;stroke-miterlimit:4;stroke-dasharray:none;stroke-dashoffset:0;stroke-opacity:1;stop-color:#000000;stop-opacity:1"
     d="m 121.80797,135.64582 c -1.12698,-0.59987 -1.74075,-1.04145 -1.70507,-1.22671 0.038,-0.19746 0.42999,-0.24478 2.63131,-0.31766 1.54035,-0.051 1.9171,-0.0416 1.9171,0.0476 0,0.10644 -1.79151,1.98229 -1.8906,1.9796 -0.0264,-7.2e-4 -0.45516,-0.21801 -0.95274,-0.48286 z"
     id="path994" />
  <path
     style="font-variation-settings:normal;opacity:1;vector-effect:none;fill:#ffccaa;fill-opacity:1;stroke-width:0.00462394;stroke-linecap:butt;stroke-linejoin:miter;stroke-miterlimit:4;stroke-dasharray:none;stroke-dashoffset:0;stroke-opacity:1;stop-color:#000000;stop-opacity:1"
     d="m 127.07504,127.84652 c -1.27894,-0.0812 -1.80415,-0.18961 -1.88029,-0.38801 -0.0648,-0.16886 1.42403,-1.68932 1.91217,-1.95282 0.30217,-0.16311 0.4827,-0.18622 1.46476,-0.18753 1.0043,-0.001 1.19851,0.0242 1.87857,0.24712 0.77623,0.25442 1.26634,0.5224 1.33447,0.72964 0.0212,0.0644 -0.26647,0.41616 -0.64274,0.78592 -0.93142,0.9153 -1.12806,0.95232 -4.06694,0.76568 z"
     id="path996" />
  <path
     style="font-variation-settings:normal;opacity:1;vector-effect:none;fill:#ffccaa;fill-opacity:1;stroke-width:0.00462394;stroke-linecap:butt;stroke-linejoin:miter;stroke-miterlimit:4;stroke-dasharray:none;stroke-dashoffset:0;stroke-opacity:1;stop-color:#000000;stop-opacity:1"
     d="m 133.13156,124.39104 c -0.15936,-0.13993 -0.3911,-0.44125 -0.51498,-0.66961 -0.32145,-0.59259 -0.93769,-2.4193 -0.95551,-2.83245 -0.0327,-0.75784 0.49233,-1.09634 1.77389,-1.14366 l 0.8424,-0.0311 -0.0629,0.37433 c -0.0346,0.20589 -0.0647,0.68906 -0.0669,1.07373 -0.004,0.64464 0.0213,0.74782 0.31906,1.31818 0.17771,0.34034 0.32311,0.69132 0.32311,0.77996 0,0.19478 -0.74036,1.01982 -1.10589,1.23239 -0.26114,0.15186 -0.26396,0.15134 -0.55224,-0.10177 z"
     id="path998" />
  <path
     style="font-variation-settings:normal;opacity:1;vector-effect:none;fill:#ffccaa;fill-opacity:1;stroke-width:0.00462394;stroke-linecap:butt;stroke-linejoin:miter;stroke-miterlimit:4;stroke-dasharray:none;stroke-dashoffset:0;stroke-opacity:1;stop-color:#000000;stop-opacity:1"
     d="m 139.51047,116.96909 c -0.59428,-0.1587 -1.43675,-0.29529 -2.36632,-0.38364 -0.79393,-0.0754 -1.46091,-0.15459 -1.48218,-0.17587 -0.0976,-0.0976 1.72052,-2.24482 3.22337,-3.80695 0.6264,-0.6511 0.82836,-0.81475 0.89049,-0.72156 0.0442,0.0663 0.16682,0.53059 0.27251,1.03176 0.24525,1.16303 0.42575,1.68194 0.85651,2.46228 0.19084,0.34572 0.34698,0.71616 0.34698,0.8232 0,0.33027 -0.5537,1.06466 -0.77309,1.02537 -0.025,-0.004 -0.46072,-0.11904 -0.96827,-0.25459 z"
     id="path1000" />
  <path
     style="font-variation-settings:normal;opacity:1;vector-effect:none;fill:#ffccaa;fill-opacity:1;stroke-width:0.00462394;stroke-linecap:butt;stroke-linejoin:miter;stroke-miterlimit:4;stroke-dasharray:none;stroke-dashoffset:0;stroke-opacity:1;stop-color:#000000;stop-opacity:1"
     d="m 147.70486,107.53375 c -0.87646,-0.15868 -2.0481,-0.59104 -2.40179,-0.88632 -0.2301,-0.19209 -0.27631,-0.28192 -0.23328,-0.45338 0.0295,-0.11761 0.47356,-0.65556 0.98675,-1.19545 l 0.93307,-0.9816 0.47348,0.35748 c 0.75161,0.56747 1.20909,0.74215 3.46041,1.32133 0.17771,0.0457 0.3231,0.11718 0.3231,0.15882 0,0.15436 -1.33201,1.48527 -1.64768,1.64631 -0.38476,0.19629 -0.9381,0.20588 -1.89406,0.0328 z"
     id="path1002" />
  <path
     style="font-variation-settings:normal;opacity:1;vector-effect:none;fill:#ffccaa;fill-opacity:1;stroke-width:0.00462394;stroke-linecap:butt;stroke-linejoin:miter;stroke-miterlimit:4;stroke-dasharray:none;stroke-dashoffset:0;stroke-opacity:1;stop-color:#000000;stop-opacity:1"
     d="m 153.88803,101.7243 c -0.3121,-0.33083 -0.62971,-0.72192 -0.70581,-0.86908 -0.16272,-0.31467 -0.29485,-1.443311 -0.29701,-2.537006 l -0.002,-0.776534 1.29243,-1.290273 1.29242,-1.290274 v 0.541966 c 0,1.014967 0.38214,2.243986 1.12718,3.625248 l 0.34462,0.638911 -0.20238,0.223797 c -1.02427,1.132655 -2.1665,2.334765 -2.21846,2.334765 -0.0352,0 -0.31937,-0.27068 -0.63146,-0.60152 z"
     id="path1004" />
  <path
     style="font-variation-settings:normal;opacity:1;vector-effect:none;fill:#ff9955;fill-opacity:1;stroke-width:0.00644122;stroke-linecap:butt;stroke-linejoin:miter;stroke-miterlimit:4;stroke-dasharray:none;stroke-dashoffset:0;stroke-opacity:1;stop-color:#000000;stop-opacity:1"
     d="m 60.081613,201.24448 c -2.041609,-0.59646 -2.982319,-0.91165 -3.050597,-1.02213 -0.100082,-0.16193 0.154542,-0.54543 0.748774,-1.12775 0.538763,-0.52796 0.310538,-0.52537 2.840562,-0.0322 1.679862,0.32745 1.959212,0.44004 1.959212,0.78965 0,0.29264 -1.359683,1.59837 -1.648525,1.58311 -0.132093,-0.007 -0.514335,-0.0928 -0.849426,-0.19068 z"
     id="path1006" />
  <path
     style="font-variation-settings:normal;opacity:1;vector-effect:none;fill:#ff9955;fill-opacity:1;stroke-width:0.00644122;stroke-linecap:butt;stroke-linejoin:miter;stroke-miterlimit:4;stroke-dasharray:none;stroke-dashoffset:0;stroke-opacity:1;stop-color:#000000;stop-opacity:1"
     d="m 65.420089,196.36056 c -0.173784,-0.1843 -0.459039,-0.63668 -0.633901,-1.00528 -0.269802,-0.56873 -0.317797,-0.83619 -0.317055,-1.76684 0.001,-1.28498 0.192228,-1.74544 1.085732,-2.61471 l 0.558386,-0.54324 v 0.76162 c 0,0.88724 0.303633,2.47147 0.573822,2.99396 0.430881,0.83323 0.41806,0.97514 -0.159857,1.76937 -0.296236,0.40711 -0.595434,0.74021 -0.664883,0.74021 -0.06945,0 -0.26846,-0.15079 -0.442244,-0.33509 z"
     id="path1008" />
  <path
     style="font-variation-settings:normal;opacity:1;vector-effect:none;fill:#ff9955;fill-opacity:1;stroke-width:0.00644122;stroke-linecap:butt;stroke-linejoin:miter;stroke-miterlimit:4;stroke-dasharray:none;stroke-dashoffset:0;stroke-opacity:1;stop-color:#000000;stop-opacity:1"
     d="m 72.059492,185.29213 c -0.31504,-0.0969 -0.600489,-0.22103 -0.63433,-0.27579 -0.132955,-0.21512 1.744156,-2.57729 2.048063,-2.57729 0.08258,0 0.272793,0.39754 0.422701,0.88342 0.149909,0.48588 0.434124,1.09882 0.631589,1.36207 0.565361,0.75373 0.518575,0.80199 -0.768097,0.7923 -0.619919,-0.005 -1.384885,-0.0878 -1.699926,-0.18471 z"
     id="path1010" />
  <path
     style="font-variation-settings:normal;opacity:1;vector-effect:none;fill:#ff9955;fill-opacity:1;stroke-width:0.00644122;stroke-linecap:butt;stroke-linejoin:miter;stroke-miterlimit:4;stroke-dasharray:none;stroke-dashoffset:0;stroke-opacity:1;stop-color:#000000;stop-opacity:1"
     d="m 79.505396,180.88545 c -0.302865,-0.31834 -0.620946,-0.67251 -0.706847,-0.78705 -0.161159,-0.21489 -0.419845,-1.88023 -0.317731,-2.04545 0.0316,-0.0511 0.401025,-0.0193 0.820933,0.0708 0.850969,0.18256 2.005837,0.20434 3.017718,0.0569 0.3686,-0.0537 0.691915,-0.0782 0.718477,-0.0545 0.159518,0.14247 -2.620367,3.33807 -2.903825,3.33807 -0.04293,0 -0.32586,-0.26046 -0.628725,-0.57879 z"
     id="path1012" />
  <path
     style="font-variation-settings:normal;opacity:1;vector-effect:none;fill:#ff9955;fill-opacity:1;stroke-width:0.00644122;stroke-linecap:butt;stroke-linejoin:miter;stroke-miterlimit:4;stroke-dasharray:none;stroke-dashoffset:0;stroke-opacity:1;stop-color:#000000;stop-opacity:1"
     d="m 87.867967,171.7466 c -0.749146,-1.02124 -0.850529,-1.32531 -0.830947,-2.49224 0.02258,-1.34572 0.158986,-1.62986 1.351666,-2.81554 l 0.948492,-0.94293 0.147946,1.02325 c 0.168909,1.16823 0.497325,2.20272 0.938022,2.95471 0.167233,0.28536 0.30406,0.60165 0.30406,0.70285 0,0.19403 -2.104091,2.1487 -2.312951,2.1487 -0.06694,0 -0.312768,-0.26046 -0.546288,-0.5788 z"
     id="path1014" />
  <path
     style="font-variation-settings:normal;opacity:1;vector-effect:none;fill:#ff9955;fill-opacity:1;stroke-width:0.00644122;stroke-linecap:butt;stroke-linejoin:miter;stroke-miterlimit:4;stroke-dasharray:none;stroke-dashoffset:0;stroke-opacity:1;stop-color:#000000;stop-opacity:1"
     d="m 93.337678,165.71601 c -0.455674,-0.96492 -0.477101,-1.06639 -0.520781,-2.4663 l -0.04555,-1.45999 0.490082,0.62 c 0.684614,0.8661 0.995765,1.08056 2.102567,1.44916 0.532605,0.17737 0.968374,0.36033 0.968374,0.40657 0,0.0832 -1.774669,1.84426 -2.265004,2.24758 -0.250514,0.20606 -0.261821,0.19371 -0.729683,-0.79702 z"
     id="path1016" />
  <path
     style="font-variation-settings:normal;opacity:1;vector-effect:none;fill:#ff9955;fill-opacity:1;stroke-width:0.00644122;stroke-linecap:butt;stroke-linejoin:miter;stroke-miterlimit:4;stroke-dasharray:none;stroke-dashoffset:0;stroke-opacity:1;stop-color:#000000;stop-opacity:1"
     d="m 98.333585,158.11467 c -0.34022,-0.14809 -0.748214,-0.35604 -0.906655,-0.46211 -0.261207,-0.17485 -0.274236,-0.22599 -0.139705,-0.54833 0.0816,-0.19552 0.542351,-0.76674 1.023884,-1.26937 l 0.875516,-0.91389 0.07507,1.40129 c 0.04129,0.77071 0.139327,1.52106 0.217862,1.66745 0.07853,0.14638 0.14279,0.29717 0.14279,0.33509 0,0.15708 -0.71183,0.041 -1.288764,-0.21013 z"
     id="path1018" />
  <path
     style="font-variation-settings:normal;opacity:1;vector-effect:none;fill:#ff9955;fill-opacity:1;stroke-width:0.00644122;stroke-linecap:butt;stroke-linejoin:miter;stroke-miterlimit:4;stroke-dasharray:none;stroke-dashoffset:0;stroke-opacity:1;stop-color:#000000;stop-opacity:1"
     d="m 105.95746,151.40673 c -1.05729,-0.37329 -2.07032,-1.0244 -2.07032,-1.33067 0,-0.1861 1.48867,-1.67413 1.67485,-1.67413 0.0957,0 0.40392,0.16511 0.68493,0.36692 0.28101,0.2018 1.05764,0.56183 1.72584,0.80005 0.6682,0.23823 1.26299,0.48035 1.32175,0.53805 0.13967,0.13715 -0.32114,0.87804 -0.79313,1.27519 -0.48483,0.40796 -1.43214,0.41712 -2.54392,0.0246 z"
     id="path1020" />
  <path
     style="font-variation-settings:normal;opacity:1;vector-effect:none;fill:#ff9955;fill-opacity:1;stroke-width:0.00644122;stroke-linecap:butt;stroke-linejoin:miter;stroke-miterlimit:4;stroke-dasharray:none;stroke-dashoffset:0;stroke-opacity:1;stop-color:#000000;stop-opacity:1"
     d="m 110.90609,147.41528 c -0.59443,-0.66115 -0.82934,-1.25363 -1.06861,-2.69525 l -0.13584,-0.8184 1.12725,-1.22261 c 0.61998,-0.67244 1.16234,-1.22274 1.20523,-1.22289 0.0429,-1.5e-4 0.0602,0.53185 0.0386,1.18223 -0.0533,1.60093 0.014,1.85905 0.72894,2.79176 l 0.6176,0.80579 -0.89422,0.90024 c -0.49182,0.49512 -0.93164,0.90023 -0.97737,0.90023 -0.0457,0 -0.33443,-0.2795 -0.64156,-0.6211 z"
     id="path1022" />
  <path
     style="font-variation-settings:normal;opacity:1;vector-effect:none;fill:#ff9955;fill-opacity:1;stroke-width:0.00644122;stroke-linecap:butt;stroke-linejoin:miter;stroke-miterlimit:4;stroke-dasharray:none;stroke-dashoffset:0;stroke-opacity:1;stop-color:#000000;stop-opacity:1"
     d="m 115.58113,143.09157 c -0.26423,-0.69496 -0.37338,-1.36762 -0.33805,-2.08321 l 0.0372,-0.75268 1.00758,0.86866 1.00758,0.86867 -0.69914,0.70651 c -0.38453,0.38858 -0.74334,0.70651 -0.79736,0.70651 -0.054,0 -0.15202,-0.14151 -0.21777,-0.31446 z"
     id="path1024" />
  <path
     style="font-variation-settings:normal;opacity:1;vector-effect:none;fill:#ff9955;fill-opacity:1;stroke-width:0.00644122;stroke-linecap:butt;stroke-linejoin:miter;stroke-miterlimit:4;stroke-dasharray:none;stroke-dashoffset:0;stroke-opacity:1;stop-color:#000000;stop-opacity:1"
     d="m 119.48411,133.55192 c 0,-0.15662 1.2172,-1.57426 1.96662,-2.29046 l 0.53133,-0.50777 0.85295,0.16131 c 0.46913,0.0887 1.67268,0.20102 2.67456,0.24955 l 1.82159,0.0882 -1.04437,1.00974 c -0.68954,0.66668 -1.20494,1.05998 -1.51697,1.15759 -0.63112,0.19745 -5.28571,0.31351 -5.28571,0.1318 z"
     id="path1026" />
  <path
     style="font-variation-settings:normal;opacity:1;vector-effect:none;fill:#ff9955;fill-opacity:1;stroke-width:0.00644122;stroke-linecap:butt;stroke-linejoin:miter;stroke-miterlimit:4;stroke-dasharray:none;stroke-dashoffset:0;stroke-opacity:1;stop-color:#000000;stop-opacity:1"
     d="m 134.88209,122.26261 c -0.44403,-0.73015 -0.43469,-1.92699 0.0172,-2.21207 0.33091,-0.20873 2.05011,0.42007 2.05011,0.74983 0,0.14987 -1.32421,1.5894 -1.59575,1.73473 -0.19255,0.10305 -0.27068,0.0579 -0.47161,-0.27249 z"
     id="path1028" />
  <path
     style="font-variation-settings:normal;opacity:1;vector-effect:none;fill:#ff9955;fill-opacity:1;stroke-width:0.00644122;stroke-linecap:butt;stroke-linejoin:miter;stroke-miterlimit:4;stroke-dasharray:none;stroke-dashoffset:0;stroke-opacity:1;stop-color:#000000;stop-opacity:1"
     d="m 141.4306,115.37008 c -0.33351,-0.38038 -0.57852,-0.97573 -0.8255,-2.00592 -0.43615,-1.81931 -0.336,-2.28729 0.70771,-3.30697 l 0.60509,-0.59115 0.993,0.69581 c 1.0854,0.76056 1.80348,1.03483 2.70936,1.03483 0.32444,0 0.58989,0.0418 0.58989,0.0929 0,0.11649 -3.59127,3.67539 -4.06799,4.03132 -0.42515,0.31744 -0.47346,0.32078 -0.71156,0.0492 z"
     id="path1030" />
  <path
     style="font-variation-settings:normal;opacity:1;vector-effect:none;fill:#ff9955;fill-opacity:1;stroke-width:0.00644122;stroke-linecap:butt;stroke-linejoin:miter;stroke-miterlimit:4;stroke-dasharray:none;stroke-dashoffset:0;stroke-opacity:1;stop-color:#000000;stop-opacity:1"
     d="m 149.86569,105.03204 c -0.8361,-0.22193 -1.84216,-0.70388 -2.12751,-1.01918 -0.14662,-0.16202 -0.19168,-0.33838 -0.13954,-0.54613 0.0747,-0.29776 1.47072,-1.8963 1.65602,-1.8963 0.0507,0 0.12782,0.31529 0.17143,0.70064 0.0849,0.75017 0.51384,1.79584 0.99603,2.42801 0.45786,0.6003 0.45568,0.6016 -0.55643,0.33296 z"
     id="path1032" />
  <path
     style="font-variation-settings:normal;opacity:1;vector-effect:none;fill:#ff9955;fill-opacity:1;stroke-width:0.00644122;stroke-linecap:butt;stroke-linejoin:miter;stroke-miterlimit:4;stroke-dasharray:none;stroke-dashoffset:0;stroke-opacity:1;stop-color:#000000;stop-opacity:1"
     d="m 156.16134,94.787373 c -0.19187,-0.191862 -0.0127,-0.467433 1.18983,-1.829713 l 1.27107,-1.439962 2.35401,-0.0048 c 1.2947,-0.0026 2.64188,-0.05082 2.99372,-0.107087 0.36863,-0.05896 0.63972,-0.05642 0.63972,0.006 0,0.05957 -0.50587,0.650867 -1.12416,1.314003 -1.27339,1.365759 -1.75521,1.643713 -3.38529,1.952934 -0.9914,0.188065 -3.78249,0.265025 -3.9389,0.10861 z"
     id="path1034" />
</svg>
