<?xml version="1.0" encoding="UTF-8" standalone="no"?>
<svg
   xmlns:dc="http://purl.org/dc/elements/1.1/"
   xmlns:cc="http://creativecommons.org/ns#"
   xmlns:rdf="http://www.w3.org/1999/02/22-rdf-syntax-ns#"
   xmlns:svg="http://www.w3.org/2000/svg"
   xmlns="http://www.w3.org/2000/svg"
   xmlns:sodipodi="http://sodipodi.sourceforge.net/DTD/sodipodi-0.dtd"
   xmlns:inkscape="http://www.inkscape.org/namespaces/inkscape"
   cursor="default"
   viewBox="0 0 256 256"
   version="1.1"
   id="svg50"
   sodipodi:docname="whitetigerdao.svg"
   inkscape:version="1.0.2-2 (e86c870879, 2021-01-15)">
  <metadata
     id="metadata56">
    <rdf:RDF>
      <cc:Work
         rdf:about="">
        <dc:format>image/svg+xml</dc:format>
        <dc:type
           rdf:resource="http://purl.org/dc/dcmitype/StillImage" />
      </cc:Work>
    </rdf:RDF>
  </metadata>
  <defs
     id="defs54" />
  <sodipodi:namedview
     pagecolor="#ffffff"
     bordercolor="#666666"
     borderopacity="1"
     objecttolerance="10"
     gridtolerance="10"
     guidetolerance="10"
     inkscape:pageopacity="0"
     inkscape:pageshadow="2"
     inkscape:window-width="1528"
     inkscape:window-height="1009"
     id="namedview52"
     showgrid="false"
     inkscape:zoom="5.8030319"
     inkscape:cx="74.107251"
     inkscape:cy="185.08448"
     inkscape:window-x="26"
     inkscape:window-y="0"
     inkscape:window-maximized="0"
     inkscape:current-layer="svg50"
     inkscape:document-rotation="0" />
  <path
     style="fill:#000000;stroke-width:0.224358"
     d="m 12.24812,248.72864 c -1.1778,-1.37367 -1.87969,-2.42062 -2.6103198,-3.89305 -0.54965,-1.10771 -1.00603,-2.13331 -1.01417,-2.27907 -0.007,-0.14982 0.97946,-0.83157 2.2720598,-1.56829 2.77787,-1.58313 7.69545,-4.75788 11.34165,-7.32209 8.69187,-6.11264 25.523331,-19.69626 36.723371,-29.63712 l 1.9634,-1.74279 -0.55871,-0.66087 c -0.53729,-0.63561 -0.53553,-0.74674 0.0464,-2.90355 0.87663,-3.24938 0.62099,-5.25503 -0.85946,-6.74341 -0.45295,-0.45609 -0.51059,-0.44953 -0.94792,0.10248 -1.1058,1.39566 -3.2694,0.67752 -5.40491,-1.79401 -1.72222,-1.99313 -2.2022,-3.60028 -1.6324,-5.46576 0.26716,-0.87454 0.54505,-1.24349 2.06617,-2.74314 2.06172,-2.03255 3.57304,-2.82809 5.56769,-2.93061 1.87611,-0.0965 2.88964,0.39667 4.80292,2.33674 1.92881,1.95592 2.5732,3.07688 2.86375,4.98227 0.18538,1.21581 0.97443,3.01698 1.59315,3.63675 0.18751,0.18782 5.28539,-2.20428 7.98796,-3.74825 1.37642,-0.78635 5.62364,-4.00749 10.78019,-8.17578 1.40395,-1.13488 2.03364,-1.53546 2.18124,-1.38761 0.30547,0.30599 0.96571,-0.26328 9.11477,-7.85925 40.355199,-37.61601 57.523009,-55.05745 90.264619,-91.703376 21.27464,-23.811552 34.61212,-39.554792 55.68614,-65.730471 3.20227,-3.9775091 5.90172,-7.3110994 5.99878,-7.4079815 0.0969,-0.096886 0.26835,-0.084093 0.38062,0.028307 0.23545,0.2358602 -5.35299,13.3299115 -8.26002,19.3537815 -5.76796,11.952178 -16.19133,28.061518 -26.11845,40.366258 -7.08426,8.780994 -20.75482,23.800079 -40.52021,44.517332 -10.30913,10.8056 -47.36317,47.79781 -59.62125,59.52168 -5.03967,4.81999 -11.78151,11.28516 -14.98202,14.36694 l -5.819049,5.60327 0.21865,0.5366 c 0.45052,1.10559 0.1701,1.40986 -4.92687,5.34616 -5.62445,4.34365 -5.67922,4.39372 -9.02234,8.25083 -2.58882,2.98688 -2.62227,3.03714 -2.4236,3.64219 0.41047,1.25018 1.54449,3.33556 2.36534,4.34982 0.74281,0.91768 0.93269,1.04811 1.55653,1.0681 1.67246,0.0533 3.16294,1.57835 3.20275,3.27632 0.0248,1.05802 -0.79844,2.88021 -1.67499,3.7073 -1.43293,1.35203 -4.09597,1.83725 -5.01749,0.91418 -0.22985,-0.23026 -0.69585,-1.0688 -1.03556,-1.86338 -0.54453,-1.2738 -0.76482,-1.56689 -1.86166,-2.47735 -2.00521,-1.66448 -2.51361,-1.89919 -5.54224,-2.55845 -1.58269,-0.34453 -3.01737,-0.76641 -3.18813,-0.93745 -0.21496,-0.21532 -0.42185,-0.20274 -0.67239,0.041 -1.10411,1.07394 -16.33798,14.06967 -20.84515,17.78249 -7.1942,5.92629 -14.19171,11.15005 -29.790471,22.23896 l -1.39075,0.98862 -0.81325,-0.77319 c -0.44783,-0.42477 -1.53824,-1.61876 -2.42426,-2.65224 z m 3.83279,2.19564 c 0.34087,-0.22616 0.76677,-0.49412 0.94649,-0.59535 0.27829,-0.15681 0.0586,-0.51717 -1.48016,-2.42957 -0.99379,-1.23503 -1.86947,-2.31076 -1.94594,-2.39051 -0.1573,-0.16474 -2.12972,0.85848 -2.12993,1.10483 -6.4e-4,0.14816 2.14284,2.71913 3.43109,4.11603 0.51479,0.55831 0.60736,0.57362 1.17845,0.19451 z m -4.06442,-5.50034 c 0.53746,-0.29123 0.99671,-0.60145 1.02055,-0.68939 0.0703,-0.25911 -1.59642,-2.90233 -1.87108,-2.96737 -0.22424,-0.0533 -1.2895098,0.48788 -1.6822998,0.85443 -0.14079,0.13097 0.9775598,2.67364 1.3746898,3.12582 0.0992,0.11359 0.62066,-0.0322 1.15814,-0.32349 z m 6.60275,3.59715 c 0.42883,-0.31276 0.92331,-0.64965 1.09893,-0.74857 0.37731,-0.21237 -0.27969,-6.49945 -0.67668,-6.47592 -0.36162,0.0214 -4.71253,3.04854 -4.71564,3.28082 -0.003,0.21557 2.06619,2.95418 2.95425,3.91007 0.5449,0.58653 0.57967,0.58778 1.33914,0.0337 z m -2.20129,-6.36992 c 1.44124,-0.978 2.62049,-1.86502 2.62057,-1.97115 -9.3e-4,-0.2406 -1.65805,-2.93991 -1.74976,-2.84835 -0.0368,0.0367 -1.25265,0.80792 -2.70189,1.71377 -1.44922,0.90581 -2.635,1.69874 -2.63504,1.76199 6.7e-4,0.11504 1.72764,3.09415 1.8049,3.11234 0.0222,0.006 1.21998,-0.79057 2.66122,-1.7686 z m 5.97466,3.70164 c 0.85802,-0.63472 1.55796,-1.20342 1.5553,-1.26386 -0.006,-0.13431 -3.73348,-3.29577 -3.8859,-3.29589 -0.14045,-3.4e-4 0.49117,5.43391 0.65006,5.59306 0.0662,0.0663 0.82249,-0.39864 1.68054,-1.03331 z m -2.53704,-6.01127 c 0.042,-0.0418 1.34326,-0.98431 2.89157,-2.09409 1.54831,-1.10976 2.90986,-2.11237 3.02572,-2.22801 0.17834,-0.17805 -0.80032,-3.28113 -1.02714,-3.25673 -0.0623,0.006 -3.64426,2.47235 -6.36129,4.37867 -0.45789,0.32132 -0.44057,0.40225 0.35797,1.66787 1.0476,1.6604 1.02123,1.62409 1.11317,1.53229 z m 4.16786,3.81545 c 0.51479,0.3849 0.77457,0.43109 1.1529,0.20495 0.41474,-0.24784 0.51796,-0.83401 0.68446,-3.88688 0.1078,-1.97723 0.13702,-3.59501 0.0636,-3.59512 -0.11824,5.7e-4 -5.21978,3.59023 -5.56389,3.91582 -0.13195,0.12458 2.21771,2.28055 3.66294,3.36115 z m 6.5959,-7.1735 c 0.19987,-2.06872 0.31866,-3.80627 0.26376,-3.86121 -0.0549,-0.0549 -1.01282,0.62333 -2.12883,1.50724 l -2.02914,1.60717 -0.1223,2.62908 c -0.0682,1.44594 -0.16442,3.09597 -0.21593,3.66661 l -0.0937,1.03749 1.98116,-1.41253 1.98114,-1.41251 z m 3.295131,1.03338 c 0.41503,-0.3953 0.38359,-0.48543 -0.87474,-2.51526 -0.7178,-1.1578 -1.328151,-2.1052 -1.356341,-2.10526 -0.0283,-8e-5 -0.20346,1.5303 -0.38979,3.40085 l -0.33855,3.40099 1.264531,-0.8856 c 0.69558,-0.48705 1.45822,-1.07017 1.69489,-1.29572 z m -3.831281,-5.23204 0.90198,-0.69671 -0.76923,-1.33074 c -0.42311,-0.7319 -0.83266,-1.33079 -0.91016,-1.33087 -0.19731,5.7e-4 -3.69091,2.5913 -3.80768,2.82433 -0.0525,0.10501 0.16101,0.85846 0.4746,1.67455 l 0.57018,1.48381 1.31913,-0.96383 c 0.72557,-0.53009 1.72504,-1.27737 2.22115,-1.66056 z m 5.519271,4.0327 c 1.34832,-0.94936 3.11343,-2.34265 3.11352,-2.45764 10e-4,-0.18665 -2.76057,-5.08635 -2.86596,-5.08643 -0.0883,-3.6e-4 -2.39446,1.74362 -3.47911,2.63042 l -0.51851,0.42396 1.31972,2.16977 c 1.74177,2.86373 1.70616,2.82977 2.43034,2.3199 z m -2.0865,-6.66447 c 1.40898,-1.11357 1.87065,-1.56649 1.81927,-1.78481 -0.0867,-0.36871 -1.38334,-2.42802 -1.52886,-2.42813 -0.0594,-2.6e-4 -0.7939,0.52743 -1.63203,1.17214 -0.838211,0.64468 -1.703351,1.28689 -1.922661,1.42703 -0.342,0.21851 -0.30568,0.41999 0.25519,1.4158 1.06247,1.88637 0.88728,1.87484 3.009051,0.19791 z m 6.11731,3.55697 c 0.74451,-0.41457 4.16276,-3.26322 4.16413,-3.47024 0.002,-0.11916 -0.72985,-1.24435 -1.62359,-2.50031 l -1.62503,-2.2835 -0.81826,0.62998 c -0.45013,0.34644 -1.37469,1.09299 -2.05475,1.6589 l -1.23644,1.02892 0.66598,1.20029 c 0.36629,0.66019 0.9627,1.76007 1.32535,2.44422 0.83999,1.5847 0.78419,1.52477 1.2026,1.29179 z m -2.37001,-6.50232 c 0.64739,-0.53046 1.54748,-1.25107 2.00022,-1.60137 l 0.82309,-0.63696 -1.34151,-0.99381 -1.34149,-0.99378 -0.89889,0.68741 c -0.49442,0.37802 -1.16542,0.94087 -1.49108,1.25079 -0.58707,0.55849 -0.58636,0.57347 0.0796,1.71553 0.36956,0.63366 0.74413,1.23863 0.83242,1.34436 0.0948,0.11391 0.64152,-0.20185 1.33755,-0.77218 z m 8.86872,1.32005 c 0.89813,-0.77153 1.633,-1.47994 1.6331,-1.57421 -3.9e-4,-0.1221 -5.45744,-1.50459 -6.44106,-1.63172 -0.0423,-0.005 0.61809,0.97587 1.46746,2.18077 0.84936,1.20492 1.58102,2.24411 1.62591,2.30933 0.0443,0.0657 0.81646,-0.51267 1.71459,-1.28417 z m -5.59316,-4.19537 c 0.17859,0.019 1.0692,-0.60895 1.97909,-1.39597 0.90989,-0.78708 1.86468,-1.56065 2.12172,-1.71915 l 0.46734,-0.28823 -1.2092,-0.97759 c -0.66499,-0.53774 -1.32327,-0.95126 -1.46274,-0.91901 -0.13954,0.0323 -0.88471,0.5927 -1.6561,1.24551 -0.77135,0.65281 -1.72221,1.41903 -2.11292,1.70273 l -0.71036,0.51585 1.12927,0.9004 c 0.6211,0.49522 1.27535,0.91619 1.45392,0.93544 z m 4.7049,1.20254 c 1.84577,0.41833 3.45967,0.71313 3.58642,0.65508 0.32121,-0.14717 3.84604,-3.12766 3.85178,-3.25703 0.002,-0.058 -1.54226,-0.48304 -3.43301,-0.94449 -3.40522,-0.83112 -3.44471,-0.83366 -4.18385,-0.27003 -1.66293,1.26809 -3.40948,2.82337 -3.297,2.93604 0.0659,0.066 1.62984,0.46216 3.47565,0.88049 z m 0.26938,-5.19276 c 0.11384,0.004 3.85241,-3.1205 4.46601,-3.73279 l 0.59304,-0.59175 -1.76449,-0.3774 c -1.95741,-0.41865 -1.87302,-0.45107 -4.45929,1.71264 l -1.27278,1.06496 1.18663,0.96096 c 0.65269,0.52851 1.21558,0.96207 1.25096,0.96344 z m 8.43775,1.53777 c 0.34804,-0.23379 1.22081,-0.94647 1.9394,-1.58374 1.26545,-1.12232 1.29284,-1.16606 0.87192,-1.3909 -0.23903,-0.12775 -1.55006,-0.75925 -2.91332,-1.40347 l -2.47869,-1.1713 -1.45521,1.24161 c -0.80043,0.6828 -1.939,1.64686 -2.53023,2.14225 l -1.07492,0.90073 3.50413,0.84498 c 3.15711,0.76127 3.56682,0.80285 4.13697,0.41991 z m -4.4394,-6.74852 1.79205,0.39363 1.82529,-1.61296 c 1.00391,-0.88713 2.14493,-1.84957 2.53552,-2.13874 l 0.71015,-0.52587 -1.14207,-0.97396 c -0.62817,-0.53565 -1.19026,-0.97077 -1.24921,-0.96683 -0.12984,0.008 -6.35798,5.33674 -6.30278,5.39204 0.0213,0.0213 0.84536,0.21614 1.83098,0.43264 z m 9.41327,2.53766 c 0.67297,-0.54914 1.22359,-1.05245 1.22366,-1.11841 2e-4,-0.21606 -3.24251,-4.71038 -3.39868,-4.71051 -0.15595,9e-5 -3.29083,2.60241 -4.20974,3.4949 l -0.5113,0.49617 2.83613,1.41807 2.83615,1.41806 1.22358,-0.99848 z m 2.22165,-1.94581 c 0.24904,-0.14348 0.75074,-0.55638 1.11482,-0.91748 l 0.6622,-0.65631 -2.58933,-1.11538 -2.58932,-1.11541 1.23418,1.75492 c 1.65591,2.3546 1.64941,2.34845 2.16764,2.04987 z m -4.35166,-5.05471 c 0.0897,0.0119 4.63287,-3.89472 4.62222,-3.97476 -0.005,-0.0369 -0.40539,-0.55228 -0.88991,-1.14538 -1.04896,-1.28393 -0.81463,-1.36926 -3.95319,1.43965 l -2.03699,1.82311 1.09791,0.92449 c 0.60387,0.50845 1.12591,0.92823 1.16003,0.93288 z m 4.49167,2.10305 c 0.97588,0.42068 1.93745,0.78034 2.13681,0.79925 0.22072,0.0206 0.75853,-0.36096 1.37513,-0.97651 l 1.01263,-1.01091 -0.60968,-0.61072 c -0.33535,-0.33591 -1.21027,-1.30424 -1.94423,-2.15188 l -1.33454,-1.54115 -0.94372,0.76737 c -0.51901,0.42208 -1.53902,1.27885 -2.26661,1.90398 l -1.32284,1.13659 1.06136,0.45957 c 0.58377,0.25273 1.85985,0.80372 2.83574,1.22437 z m 5.68803,-2.03263 0.52861,-0.52773 -1.83023,-2.19016 c -1.00661,-1.20457 -1.92589,-2.21278 -2.04272,-2.24055 -0.11678,-0.0277 -0.45498,0.19169 -0.75131,0.48752 l -0.53877,0.53789 0.93436,1.04861 c 0.51392,0.57672 1.4377,1.58041 2.05297,2.23031 l 1.11858,1.18171 z m -4.39158,-5.06867 c 0.70168,-0.55403 0.62496,-0.81127 -0.61445,-2.05993 -0.74995,-0.75596 -0.75172,-0.75539 -1.29541,-0.21264 -0.59874,0.59772 -0.53803,0.78696 0.66568,2.0747 0.61397,0.65693 0.65483,0.66308 1.24418,0.1978 z m 6.76674,4.73646 0.69032,-0.21909 -0.79776,-0.37882 c -1.60437,-0.76185 -2.21981,-1.78295 -1.62953,-2.70373 0.43534,-0.67916 11.92182,-8.26236 12.51745,-8.26383 0.36132,-7.5e-4 0.24496,0.66037 -0.2277,1.2938 -0.22371,0.29989 0.3255,-0.16445 1.22052,-1.03181 0.89501,-0.86735 2.22933,-2.08431 2.96513,-2.70438 1.33514,-1.12507 1.33678,-1.12766 0.80765,-1.28835 -0.69167,-0.21008 -0.7347,-0.48385 -0.22453,-1.42859 0.3639,-0.6739 0.58047,-0.84236 1.60766,-1.25062 0.71701,-0.28494 1.23483,-0.36425 1.30771,-0.20024 0.14697,0.33085 1.08606,-0.30854 2.45891,-1.67419 0.88845,-0.88456 0.94375,-0.99493 0.59398,-1.20009 -0.30896,-0.18112 -0.2978,-0.38049 0.0569,-1.00542 0.62476,-1.1029 1.09811,-1.51341 2.2373,-1.94029 0.64027,-0.23993 1.02202,-0.26571 1.06755,-0.0721 0.0516,0.21938 0.18669,0.12803 0.49692,-0.33655 0.23432,-0.35089 0.76403,-1.06515 1.17708,-1.5873 0.41304,-0.5222 0.63604,-0.9494 0.49557,-0.94939 -0.14042,-3.3e-4 -1.15774,0.45376 -2.26057,1.0083 -1.81101,0.91069 -2.31181,1.28524 -5.17276,3.86896 -3.43772,3.10463 -6.56708,5.48109 -10.36126,7.86853 -2.34106,1.47307 -2.43066,1.55062 -2.55087,2.20821 -0.1129,0.61824 -0.39443,0.92699 -3.03234,3.32611 -1.59924,1.45459 -3.27489,2.9914 -3.72357,3.41522 -0.79156,0.74765 -0.86696,0.76515 -2.53655,0.585 -0.94643,-0.10207 -1.72092,-0.0919 -1.72114,0.0225 7.1e-4,0.11454 0.78789,1.15709 1.75134,2.31694 0.96341,1.15987 1.82943,2.20587 1.92437,2.32459 0.0948,0.1188 0.48327,0.1173 0.86297,-0.003 z m 2.77073,1.1455 c 1.02183,0.2376 1.89488,0.39627 1.94012,0.35261 0.0453,-0.0437 0.0248,-0.32612 -0.0441,-0.62761 -0.1154,-0.5015 -0.2585,-0.54982 -1.67875,-0.56712 -1.48256,-0.0181 -2.69037,0.15689 -2.2721,0.32909 0.10818,0.0445 1.03288,0.27544 2.05471,0.51303 z m -8.76391,-9.26049 c 10e-4,-1.69587 -0.0286,-1.78683 -0.9644,-2.91734 -0.53127,-0.64173 -1.02017,-1.11267 -1.0864,-1.04657 -0.0664,0.0662 -0.27828,0.6532 -0.47106,1.30442 -0.38333,1.29487 -0.36863,1.32562 1.67807,3.51062 l 0.84235,0.89926 z m 3.65445,2.80543 0.8138,0.0813 -0.72264,-2.11799 -0.72267,-2.118 -1.19127,-0.11332 -1.19128,-0.1133 0.0204,2.03515 0.0204,2.03512 1.07969,0.11496 c 0.59381,0.0633 1.44586,0.15159 1.89343,0.19626 z m 3.12362,4.33685 c 0.36951,-4.3e-4 0.99465,-0.61256 3.9636,-3.88553 1.93869,-2.13728 3.6619,-4.10597 3.82931,-4.37495 0.3093,-0.49709 -1.58221,0.65303 -7.24626,4.40571 -3.00426,1.99047 -3.13285,2.22172 -1.79924,3.23559 0.44768,0.34032 1.01132,0.61896 1.25259,0.61916 z m 4.93391,-2.96588 c 2.0067,-2.00094 5.29752,-5.02267 7.63804,-7.01474 2.26156,-1.92491 4.11199,-3.54009 4.11202,-3.58931 -1.5e-4,-0.0492 -0.15252,-0.15748 -0.33882,-0.24078 -0.27287,-0.12187 -0.78093,0.2516 -2.60989,1.91837 -1.2491,1.13829 -3.72118,3.36053 -5.49358,4.93828 -3.3057,2.94267 -7.48457,7.34896 -7.06423,7.4485 0.12662,0.03 1.81712,-1.52711 3.75647,-3.46032 z m 6.33631,12.31814 c 0.82702,0.0718 2.51822,-0.70241 3.18139,-1.45661 0.53193,-0.60498 1.18838,-1.94496 1.18877,-2.42672 7e-4,-0.87084 -2.29053,-2.22704 -3.13131,-1.85345 -0.75904,0.33726 -1.16874,3.10969 -0.55098,3.72849 0.31439,0.31493 1.28599,-0.10669 1.6521,-0.71697 0.44211,-0.73698 0.14256,-1.24077 -0.67078,-1.12826 -0.47986,0.0664 -0.67032,-0.004 -0.67056,-0.25015 -5.6e-4,-0.5062 1.41883,-0.61792 1.88738,-0.14857 0.59776,0.59879 0.33667,1.82003 -0.53067,2.48203 -1.8392,1.40383 -3.22433,-0.36055 -2.4094,-3.06916 0.23568,-0.78333 0.20088,-0.88655 -0.55553,-1.64418 -1.04247,-1.04424 -1.8351,-2.52451 -2.17967,-4.07064 l -0.27454,-1.23181 -1.8836,1.88042 c -1.85608,1.85292 -1.88165,1.89034 -1.74116,2.56723 0.12824,0.61863 0.31537,0.82221 1.88437,2.05098 1.83107,1.43391 2.32625,2.04084 2.91078,3.56745 0.48966,1.27883 0.87807,1.63168 1.89342,1.71992 z m -5.01434,-10.78984 1.88987,-1.88667 -0.19416,-0.75723 -0.19414,-0.75725 -2.71377,2.70917 -2.71378,2.70916 1.01806,-0.0651 c 1.0092,-0.0646 1.03449,-0.0816 2.90791,-1.95193 z m -4.7079,-6.13071 c 1.75851,-1.6231 3.20578,-2.9928 3.21628,-3.04367 0.0105,-0.051 -0.57055,-0.5127 -1.29096,-1.02609 -1.49599,-1.06608 -1.20448,-1.13767 -3.82126,0.93898 -0.92428,0.73341 -1.90556,1.48575 -2.18074,1.67179 -0.46197,0.31234 -0.45361,0.49327 0.10958,2.36256 0.33544,1.11341 0.64585,2.02959 0.68983,2.03593 0.0439,0.007 1.5187,-1.31643 3.2773,-2.93947 z m -14.98749,-9.79161 c 0.75612,0.10797 0.77591,0.0948 2.27179,-1.51659 1.75756,-1.89317 2.08278,-2.47979 1.62753,-2.93579 -0.23695,-0.23737 -0.61172,-0.2134 -1.36564,0.0874 -1.18595,0.47313 -1.74298,0.9504 -1.74344,1.4938 2.2e-4,0.2904 0.12534,0.38279 0.54963,0.40433 0.30246,0.0152 0.54986,0.11606 0.54978,0.22378 -6.9e-4,0.31302 -0.60775,0.49689 -1.12391,0.34014 -0.37086,-0.11261 -0.49388,-0.30587 -0.56233,-0.88314 -0.13846,-1.16739 0.7783,-1.84211 4.09141,-3.01135 2.62843,-0.92758 3.95032,-0.22347 5.28207,2.81353 1.19674,2.72908 3.35984,5.72408 4.68969,6.4933 0.72831,0.42128 0.73583,0.10154 0.0267,-1.13623 -0.87084,-1.52009 -1.69653,-2.64335 -2.53908,-3.4541 -1.07807,-1.03751 -2.00531,-2.82601 -2.23047,-4.30264 -0.29857,-1.95798 -0.72513,-2.70556 -2.65667,-4.65619 -1.96185,-1.98185 -2.81943,-2.39233 -4.63162,-2.21934 -1.40388,0.13402 -2.71473,0.78886 -4.32197,2.1591 -3.42168,2.91716 -3.45731,5.5536 -0.11694,8.65395 1.14252,1.06039 1.59853,1.35972 2.20343,1.44605 z m 8.58701,8.10292 1.43565,0.0884 1.88769,-1.4435 c 1.03823,-0.79393 2.0807,-1.63163 2.31658,-1.86157 0.41844,-0.40822 0.41038,-0.42871 -0.33071,-0.84866 -1.50526,-0.85312 -3.96316,-4.35062 -5.42464,-7.7189 -0.53946,-1.2433 -0.55465,-1.25978 -1.44483,-1.56517 -0.49476,-0.16977 -1.31662,-0.22628 -1.82639,-0.12548 -0.89739,0.17732 -0.91841,0.19457 -0.66253,0.54492 0.48152,0.6593 0.25615,1.44897 -0.75034,2.62909 -0.94201,1.1045 -0.9494,1.12849 -0.49351,1.58512 1.10383,1.10573 1.53295,2.23406 1.57889,4.15164 0.0427,1.77797 0.0956,1.9503 0.87061,2.83255 0.4538,0.51674 0.95632,1.09775 1.11652,1.29134 0.16641,0.20099 0.90698,0.38979 1.72697,0.44031 z m 16.53236,11.9153 c 0.28155,-0.28107 0.0403,-0.87834 -0.77568,-1.92031 -0.45984,-0.5871 -1.05702,-1.56019 -1.32718,-2.16234 -0.57246,-1.27613 -0.57007,-1.27269 -0.6509,-0.93157 -0.0715,0.30208 0.61423,2.49364 1.01961,3.25819 0.38557,0.72721 1.56668,1.92322 1.73407,1.75611 z m 1.56678,0.25644 c 0.39878,0.0479 1.05306,0.32525 1.45402,0.61615 0.56001,0.4064 0.70303,0.4367 0.61695,0.13087 -0.23777,-0.84488 -2.74904,-1.91499 -2.90906,-1.23964 -0.0793,0.33514 0.0213,0.3944 0.83809,0.49265 z m -3.65781,-8.97931 c 0.76621,-0.78867 0.91248,-1.01197 0.5321,-0.81663 -0.97121,0.499 -1.92072,1.56919 -1.64088,1.84951 0.029,0.029 0.52804,-0.43564 1.10885,-1.0328 z m -4.9694,-5.57823 c 0.42314,0.25689 0.42745,0.25121 0.71465,-0.93362 0.76616,-3.16192 2.63176,-5.52426 8.13709,-10.30376 3.99177,-3.46548 4.29803,-3.78251 4.99591,-5.17169 0.51888,-1.03278 0.82612,-3.62317 0.42977,-3.62349 -0.0994,-8.1e-4 -2.25937,1.65212 -4.79965,3.6716 -4.15165,3.30046 -4.61874,3.721 -4.61911,4.15865 -1.4e-4,0.26776 -0.006,0.50603 -0.0148,0.52944 -0.007,0.0239 -1.74713,1.93818 -3.8653,4.25501 l -3.85118,4.21243 0.34671,0.76344 c 0.32209,0.70908 1.42007,1.77069 2.5256,2.442 z m 0.21717,-7.55917 c 4.21014,-4.49296 4.52394,-4.96611 2.43521,-3.67175 -0.84814,0.52562 -3.02336,1.66828 -4.83385,2.53935 -1.81046,0.87099 -3.31889,1.61072 -3.35204,1.64382 -0.0332,0.0331 0.19877,0.33653 0.51534,0.67436 0.31621,0.3382 0.73505,0.88303 0.92995,1.21154 0.86161,1.45251 0.51926,1.64313 4.30536,-2.39729 z m 4.07618,4.75941 c 3.70366,-2.4028 5.63976,-3.89433 8.60171,-6.62662 1.49775,-1.38157 3.28178,-2.88128 3.96456,-3.33265 1.43923,-0.95144 4.73616,-2.52682 5.50063,-2.62838 0.45758,-0.0607 0.51596,-0.0174 0.4602,0.34285 -0.051,0.32957 -8.2e-4,0.31642 0.25185,-0.0652 0.17367,-0.26274 0.53582,-0.79463 0.80484,-1.18206 0.26901,-0.38743 0.47054,-0.78348 0.4478,-0.88015 -0.0229,-0.0964 -1.77227,0.54604 -3.88786,1.42819 l -3.84655,1.60391 -3.43888,3.22406 c -4.07256,3.81824 -5.70053,5.12028 -8.92471,7.13785 -1.74647,1.09289 -2.47118,1.65127 -2.64533,2.03814 -0.13472,0.29956 -0.12016,0.52578 0.0334,0.51667 0.15026,-0.009 1.3555,-0.71838 2.67829,-1.57654 z m 3.68167,-4.40926 c 1.58037,-1.27457 4.4891,-3.88606 10.86709,-9.75658 7.258909,-6.68136 41.608719,-40.26348 61.126569,-59.7604 25.00784,-24.982062 29.35794,-29.559998 43.74702,-46.048447 15.32641,-17.562499 23.10282,-27.082399 34.31131,-42.003867 1.83421,-2.441819 3.38808,-4.493599 3.45305,-4.559509 0.065,-0.06586 0.22512,-0.01266 0.35591,0.118334 0.13085,0.130997 0.20768,0.268189 0.17092,0.304887 -0.0366,0.0367 -0.90709,1.546671 -1.93407,3.355507 -3.14088,5.532 -6.01207,9.559532 -13.70821,19.228985 -10.56168,13.269715 -26.41357,31.495434 -41.86319,48.132181 -13.10989,14.117229 -45.25118,46.386179 -61.43269,61.676669 -3.23004,3.05219 -8.92995,8.43403 -12.66646,11.95961 -3.73647,3.52564 -6.858049,6.53868 -6.936759,6.69576 -0.0787,0.15701 0.36341,0.0476 0.98239,-0.24339 0.61904,-0.29095 1.209089,-0.44522 1.311279,-0.34285 0.10851,0.10879 -0.37653,1.04262 -1.166249,2.24555 -0.74361,1.1327 -1.65638,2.54052 -2.02838,3.12854 -0.73557,1.16267 -2.04359,2.3833 17.643239,-16.46463 24.65772,-23.60699 59.14116,-58.46928 77.4699,-78.321009 21.62763,-23.424751 28.12665,-31.422448 38.33842,-47.179204 7.29163,-11.251027 10.22357,-16.790151 16.2297,-30.661693 1.279,-2.9539191 2.29214,-5.3687392 2.25138,-5.3662706 -0.0408,0.00235 -2.33477,2.8130132 -5.09782,6.2456326 -27.68641,34.395242 -48.94036,58.854769 -83.42821,96.010924 -6.57804,7.08697 -33.9376,34.39506 -42.95367,42.87365 -8.70753,8.18774 -20.296379,18.9871 -24.610669,22.93417 l -3.37187,3.08484 0.0625,0.97489 c 0.0799,1.2462 -0.76014,3.4548 -1.71002,4.49595 -0.40587,0.44491 -2.23249,2.10577 -4.05912,3.69085 -3.28097,2.84709 -6.30125,5.93437 -6.66046,6.80827 -0.25132,0.61132 2.93755,-1.34545 5.30761,-3.25692 z m 3.26831,4.16708 c 0.45527,0.16163 0.87196,0.24988 0.92597,0.19589 0.0541,-0.0539 0.0911,-0.57496 0.0826,-1.15782 l -0.0157,-1.0598 -0.75486,0.37946 c -0.65129,0.32739 -1.32241,1.09116 -1.12897,1.28494 0.0346,0.0347 0.43567,0.19559 0.89093,0.35729 z m 8.4199,-4.71674 c 0.84057,-0.76779 1.01966,-1.17058 0.67417,-1.51663 -0.29937,-0.29987 -0.84113,0.25582 -1.00273,1.0286 -0.11968,0.57201 -0.16889,0.60361 -0.75073,0.4819 -0.59544,-0.12461 -0.72957,-0.0323 -3.06684,2.11972 -1.75584,1.61639 -2.455,2.36548 -2.48262,2.66008 -0.0302,0.32205 0.59507,-0.0714 2.91398,-1.83364 1.62385,-1.23403 3.2955,-2.55701 3.71483,-2.94 z m -1.55378,-0.80247 c 0.5681,0.12163 0.5693,0.11915 0.51221,-1.02531 -0.0313,-0.631 -0.0988,-1.18895 -0.14971,-1.23992 -0.16047,-0.16064 -1.39641,0.78467 -1.71054,1.30831 -0.32119,0.53559 -0.1924,0.62698 1.34804,0.95692 z m 2.77395,-3.16335 c 0.67628,-0.98833 1.16567,-1.79701 1.08761,-1.79707 -0.14094,-3.5e-4 -2.25204,2.7428 -2.54196,3.30243 -0.083,0.16021 -0.0664,0.29136 0.0369,0.2914 0.10311,9.6e-4 0.7412,-0.80841 1.41742,-1.79676 z m 4.22529,-8.77792 c 5.655079,-5.27928 16.861259,-15.89373 24.457209,-23.16574 8.29389,-7.94021 43.82722,-43.61972 49.71262,-49.91717 23.42604,-25.066108 43.43237,-48.365075 54.53257,-63.507542 2.20039,-3.001721 4.65202,-6.709082 4.43675,-6.70926 -0.0662,-1.17e-4 -1.253,1.490778 -2.63717,3.312966 -3.30106,4.345567 -9.77179,12.635246 -12.36296,15.838185 -7.50996,9.283086 -25.22488,29.576978 -36.0112,41.253754 -7.15482,7.745477 -46.54546,46.976857 -66.82166,66.551387 -8.99877,8.68742 -17.509389,16.95337 -18.912519,18.36879 l -2.55113,2.57342 1.01968,-0.37724 c 0.8916,-0.32991 1.53688,-0.86013 5.13769,-4.22166 z m -2.63658,6.31957 c 0.0761,-0.17718 7.4e-4,-0.1772 -0.19176,-0.001 -0.17444,0.15992 -0.2306,0.29132 -0.12513,0.29141 0.10538,0.001 0.24797,-0.13107 0.31681,-0.29131 z"
     id="path854" />
  <path
     style="font-variation-settings:normal;opacity:1;vector-effect:none;fill:#ff9955;fill-opacity:1;stroke-width:0.0102799;stroke-linecap:butt;stroke-linejoin:miter;stroke-miterlimit:4;stroke-dasharray:none;stroke-dashoffset:0;stroke-opacity:1;stop-color:#000000;stop-opacity:1"
     d="m 13.022388,243.26035 c -0.863494,-1.46617 -1.080015,-1.89441 -1.012813,-2.00314 0.150661,-0.24378 5.296193,-3.48927 5.370784,-3.38757 0.303053,0.41319 1.091203,1.66611 1.357194,2.15753 l 0.334202,0.61743 -0.207228,0.22088 c -0.32058,0.3417 -4.279236,3.11402 -4.968789,3.47974 -0.165512,0.0878 -0.229644,0.008 -0.87335,-1.08487 z"
     id="path915" />
  <path
     style="font-variation-settings:normal;opacity:1;vector-effect:none;fill:#ff9955;fill-opacity:1;stroke-width:0.0102799;stroke-linecap:butt;stroke-linejoin:miter;stroke-miterlimit:4;stroke-dasharray:none;stroke-dashoffset:0;stroke-opacity:1;stop-color:#000000;stop-opacity:1"
     d="m 30.962198,239.819 c 0.02487,-0.17771 0.163789,-1.48629 0.308701,-2.90796 0.361028,-3.54189 0.354794,-3.48956 0.415667,-3.48956 0.06338,0 1.454923,2.17289 2.021473,3.15653 0.571455,0.99216 0.580736,1.08729 0.146381,1.50048 -0.393521,0.37435 -2.734358,2.06362 -2.859574,2.06362 -0.04283,0 -0.05752,-0.1454 -0.03265,-0.32311 z"
     id="path917" />
  <path
     style="font-variation-settings:normal;opacity:1;vector-effect:none;fill:#ff9955;fill-opacity:1;stroke-width:0.0102799;stroke-linecap:butt;stroke-linejoin:miter;stroke-miterlimit:4;stroke-dasharray:none;stroke-dashoffset:0;stroke-opacity:1;stop-color:#000000;stop-opacity:1"
     d="m 40.041269,224.08867 c -0.509366,-0.30673 -2.05872,-1.51437 -2.054475,-1.60136 0.0014,-0.0283 0.242947,-0.22594 0.536812,-0.43919 0.293865,-0.21325 1.205998,-0.93482 2.026961,-1.60348 1.881366,-1.53234 1.825893,-1.50184 2.286732,-1.25711 0.399422,0.21211 2.212256,1.63272 2.212256,1.73361 0,0.0352 -0.184171,0.18431 -0.409269,0.33135 -0.225098,0.14703 -0.971475,0.73918 -1.658616,1.31589 -1.153882,0.96843 -2.076334,1.66247 -2.348326,1.76684 -0.06135,0.0235 -0.327784,-0.0874 -0.592075,-0.24655 z"
     id="path919" />
  <path
     style="font-variation-settings:normal;opacity:1;vector-effect:none;fill:#ff9955;fill-opacity:1;stroke-width:0.0102799;stroke-linecap:butt;stroke-linejoin:miter;stroke-miterlimit:4;stroke-dasharray:none;stroke-dashoffset:0;stroke-opacity:1;stop-color:#000000;stop-opacity:1"
     d="m 54.841434,217.25669 c -2.82873,-1.42072 -2.830713,-1.42191 -2.671017,-1.60099 0.247498,-0.27753 2.460106,-2.18715 3.563208,-3.07526 l 0.990861,-0.79775 0.288184,0.32919 c 0.701425,0.80123 3.11521,4.22826 3.11521,4.42289 0,0.056 -0.200311,0.28231 -0.445136,0.5028 -0.431759,0.38884 -1.967791,1.65499 -1.996329,1.64556 -0.0078,-0.003 -1.288023,-0.64447 -2.844981,-1.42644 z"
     id="path921" />
  <path
     style="font-variation-settings:normal;opacity:1;vector-effect:none;fill:#ff9955;fill-opacity:1;stroke-width:0.0102799;stroke-linecap:butt;stroke-linejoin:miter;stroke-miterlimit:4;stroke-dasharray:none;stroke-dashoffset:0;stroke-opacity:1;stop-color:#000000;stop-opacity:1"
     d="m 55.690544,209.80566 c -0.568668,-0.47719 -1.065352,-0.89794 -1.103742,-0.93499 -0.06141,-0.0593 3.026776,-2.8831 4.085342,-3.73563 0.502894,-0.40502 0.862871,-0.5383 1.104544,-0.40896 0.17137,0.0917 1.64362,1.85895 1.64362,1.97294 0,0.10744 -4.510558,3.97647 -4.634087,3.97499 -0.03395,-4e-4 -0.527009,-0.39116 -1.095677,-0.86835 z"
     id="path923" />
  <path
     style="font-variation-settings:normal;opacity:1;vector-effect:none;fill:#ff9955;fill-opacity:1;stroke-width:0.0102799;stroke-linecap:butt;stroke-linejoin:miter;stroke-miterlimit:4;stroke-dasharray:none;stroke-dashoffset:0;stroke-opacity:1;stop-color:#000000;stop-opacity:1"
     d="m 39.078571,233.57227 c -0.238715,-0.32307 -2.67415,-4.8055 -2.630897,-4.84218 1.412669,-1.19793 3.992795,-3.23622 4.093379,-3.23376 0.08,0.002 1.658489,2.2056 2.647155,3.69554 0.517682,0.78016 0.632196,1.00955 0.565856,1.13351 -0.226237,0.42273 -4.094872,3.52691 -4.395465,3.52691 -0.04021,0 -0.166228,-0.12601 -0.280028,-0.28002 z"
     id="path925" />
  <path
     style="font-variation-settings:normal;opacity:1;vector-effect:none;fill:#ff9955;fill-opacity:1;stroke-width:0.0102799;stroke-linecap:butt;stroke-linejoin:miter;stroke-miterlimit:4;stroke-dasharray:none;stroke-dashoffset:0;stroke-opacity:1;stop-color:#000000;stop-opacity:1"
     d="m 24.472757,244.44728 c -0.250426,-0.10276 -1.058409,-0.7211 -1.954528,-1.49577 -0.777106,-0.67178 -2.197127,-2.0459 -2.197127,-2.12609 0,-0.0638 1.75973,-1.33611 3.939537,-2.84838 1.025284,-0.7113 1.634801,-1.08357 1.687639,-1.03073 0.159507,0.15951 -0.166016,5.92055 -0.383293,6.78344 -0.14741,0.58541 -0.634452,0.90537 -1.092228,0.71753 z"
     id="path927" />
  <path
     style="font-variation-settings:normal;opacity:1;vector-effect:none;fill:#ffccaa;fill-opacity:1;stroke-width:0.00513994;stroke-linecap:butt;stroke-linejoin:miter;stroke-miterlimit:4;stroke-dasharray:none;stroke-dashoffset:0;stroke-opacity:1;stop-color:#000000;stop-opacity:1"
     d="m 17.618752,249.32045 c -0.555492,-0.40983 -3.371065,-4.05786 -3.291636,-4.26484 0.109011,-0.28408 4.381137,-3.25384 4.680786,-3.25384 0.08859,0 0.138107,0.0736 0.217315,0.32311 0.164945,0.51953 0.39805,2.10807 0.527868,3.59725 0.07672,0.88006 0.09769,2.29646 0.03612,2.43927 -0.02166,0.0502 -0.242942,0.23061 -0.491735,0.4008 -0.248792,0.1702 -0.632222,0.43443 -0.852066,0.58717 -0.455046,0.31616 -0.591677,0.34444 -0.826655,0.17108 z"
     id="path929" />
  <path
     style="font-variation-settings:normal;opacity:1;vector-effect:none;fill:#ffccaa;fill-opacity:1;stroke-width:0.00513994;stroke-linecap:butt;stroke-linejoin:miter;stroke-miterlimit:4;stroke-dasharray:none;stroke-dashoffset:0;stroke-opacity:1;stop-color:#000000;stop-opacity:1"
     d="m 19.67516,240.25666 c -0.145568,-0.17299 -1.269564,-1.95163 -1.441752,-2.28145 -0.08928,-0.17103 -0.142201,-0.33428 -0.142201,-0.4387 0,-0.21164 -0.03571,-0.18283 1.85248,-1.4947 3.382436,-2.35003 4.758989,-3.28704 4.828973,-3.28704 0.118901,0 0.661933,1.48454 0.900703,2.46234 0.202374,0.82875 0.261459,0.70645 -0.678437,1.40433 -0.444272,0.32988 -1.651077,1.20697 -2.681788,1.94909 -1.030711,0.74212 -2.014384,1.45287 -2.18594,1.57944 -0.171557,0.12657 -0.320078,0.23013 -0.330048,0.23013 -0.01,0 -0.06486,-0.0556 -0.12199,-0.12344 z"
     id="path931" />
  <path
     style="font-variation-settings:normal;opacity:1;vector-effect:none;fill:#ffccaa;fill-opacity:1;stroke-width:0.00513994;stroke-linecap:butt;stroke-linejoin:miter;stroke-miterlimit:4;stroke-dasharray:none;stroke-dashoffset:0;stroke-opacity:1;stop-color:#000000;stop-opacity:1"
     d="m 26.293625,243.40653 c 0.07493,-0.49182 0.203284,-2.59587 0.373832,-6.12826 0.02688,-0.55682 0.05747,-1.02656 0.06797,-1.04387 0.03275,-0.054 2.240113,-1.79296 3.002662,-2.36551 0.399226,-0.29975 0.823995,-0.59842 0.94393,-0.66369 l 0.218066,-0.11869 -0.02741,0.7496 c -0.01508,0.41228 -0.07605,1.29242 -0.1355,1.95587 -0.166245,1.85526 -0.456691,4.86226 -0.475039,4.9181 -0.01553,0.0473 -3.919366,2.85801 -3.969476,2.85801 -0.01301,0 -0.01257,-0.0727 9.65e-4,-0.16156 z"
     id="path933" />
  <path
     style="font-variation-settings:normal;opacity:1;vector-effect:none;fill:#ffccaa;fill-opacity:1;stroke-width:0.00513994;stroke-linecap:butt;stroke-linejoin:miter;stroke-miterlimit:4;stroke-dasharray:none;stroke-dashoffset:0;stroke-opacity:1;stop-color:#000000;stop-opacity:1"
     d="m 31.451689,231.34622 c -0.190531,-0.0946 -0.350023,-0.31943 -0.826888,-1.16577 -0.641678,-1.13884 -0.704655,-1.35323 -0.460164,-1.56652 0.158676,-0.13842 2.928365,-2.20812 3.335217,-2.4923 0.153334,-0.1071 0.293141,-0.17506 0.330586,-0.16069 0.173671,0.0666 1.394861,1.99143 1.510544,2.38085 0.06516,0.21935 -0.353681,0.64336 -1.697562,1.7185 -1.645205,1.31621 -1.867732,1.44677 -2.191733,1.28593 z"
     id="path935" />
  <path
     style="font-variation-settings:normal;opacity:1;vector-effect:none;fill:#ffccaa;fill-opacity:1;stroke-width:0.00513994;stroke-linecap:butt;stroke-linejoin:miter;stroke-miterlimit:4;stroke-dasharray:none;stroke-dashoffset:0;stroke-opacity:1;stop-color:#000000;stop-opacity:1"
     d="m 48.40582,226.17731 c -1.168363,-0.18901 -3.456648,-0.68316 -5.255873,-1.13498 -1.467316,-0.36847 -1.37859,-0.34175 -1.37859,-0.41518 0,-0.24334 3.227972,-2.99999 3.788064,-3.23496 0.243119,-0.102 0.768195,-0.0768 1.493165,0.0718 1.24784,0.25565 5.401473,1.31794 5.576723,1.42625 0.05017,0.031 0.03325,0.0685 -0.08822,0.19559 -0.387528,0.40543 -2.671236,2.34906 -3.360888,2.86041 -0.36052,0.2673 -0.427364,0.28725 -0.774383,0.23111 z"
     id="path937" />
  <path
     style="font-variation-settings:normal;opacity:1;vector-effect:none;fill:#ffccaa;fill-opacity:1;stroke-width:0.00513994;stroke-linecap:butt;stroke-linejoin:miter;stroke-miterlimit:4;stroke-dasharray:none;stroke-dashoffset:0;stroke-opacity:1;stop-color:#000000;stop-opacity:1"
     d="m 44.973645,219.95235 c -0.494984,-0.38368 -1.487689,-1.18094 -1.768428,-1.42026 l -0.138593,-0.11814 1.258698,-1.05141 c 0.692283,-0.57827 1.433175,-1.18007 1.646426,-1.33733 0.679748,-0.50128 1.140282,-0.66892 1.676187,-0.61015 0.309633,0.0339 2.871744,0.56921 2.908345,0.60759 0.09132,0.0958 -4.846769,4.32482 -5.049895,4.32482 -0.01266,0 -0.252388,-0.17781 -0.53274,-0.39512 z"
     id="path939" />
  <path
     style="font-variation-settings:normal;opacity:1;vector-effect:none;fill:#ffccaa;fill-opacity:1;stroke-width:0.00513994;stroke-linecap:butt;stroke-linejoin:miter;stroke-miterlimit:4;stroke-dasharray:none;stroke-dashoffset:0;stroke-opacity:1;stop-color:#000000;stop-opacity:1"
     d="m 60.50519,215.7055 c -0.09842,-0.0889 -0.317958,-0.34573 -0.487864,-0.57083 -0.415468,-0.55042 -2.273977,-3.19211 -2.255819,-3.20642 0.01077,-0.008 4.429684,1.88486 5.072778,2.1735 0.103663,0.0465 0.103095,0.0477 -0.150783,0.30781 -0.427258,0.43776 -1.099012,1.02188 -1.432404,1.24554 -0.391334,0.26252 -0.502618,0.27004 -0.745908,0.0504 z"
     id="path941" />
  <path
     style="font-variation-settings:normal;opacity:1;vector-effect:none;fill:#ffe6d5;fill-opacity:1;stroke-width:0.0102799;stroke-linecap:butt;stroke-linejoin:miter;stroke-miterlimit:4;stroke-dasharray:none;stroke-dashoffset:0;stroke-opacity:1;stop-color:#000000;stop-opacity:1"
     d="m 20.509892,246.48305 c -0.201484,-1.30582 -0.502991,-4.1654 -0.472178,-4.47829 l 0.02678,-0.27189 0.732375,0.58992 c 0.880874,0.70954 2.952975,2.49461 3.096567,2.66763 0.08439,0.10168 -0.03943,0.23629 -0.700027,0.76106 -1.006319,0.79941 -2.22142,1.61473 -2.406503,1.61473 -0.112196,0 -0.168378,-0.17913 -0.27701,-0.88316 z"
     id="path943" />
  <path
     style="font-variation-settings:normal;opacity:1;vector-effect:none;fill:#ffe6d5;fill-opacity:1;stroke-width:0.0102799;stroke-linecap:butt;stroke-linejoin:miter;stroke-miterlimit:4;stroke-dasharray:none;stroke-dashoffset:0;stroke-opacity:1;stop-color:#000000;stop-opacity:1"
     d="m 26.112469,234.33423 c -0.216492,-0.58052 -0.459126,-1.28591 -0.539187,-1.56753 l -0.145565,-0.51205 0.247889,-0.20746 c 0.544096,-0.45536 3.109012,-2.3493 3.375838,-2.49274 0.28271,-0.15197 0.285727,-0.15155 0.452534,0.0624 0.25105,0.32203 1.390369,2.23892 1.427064,2.40102 0.02097,0.0926 -0.165709,0.28806 -0.54596,0.57157 -2.336503,1.74203 -3.78025,2.79844 -3.825642,2.79927 -0.02934,5.4e-4 -0.23048,-0.47398 -0.446971,-1.05449 z"
     id="path945" />
  <path
     style="font-variation-settings:normal;opacity:1;vector-effect:none;fill:#ffe6d5;fill-opacity:1;stroke-width:0.0102799;stroke-linecap:butt;stroke-linejoin:miter;stroke-miterlimit:4;stroke-dasharray:none;stroke-dashoffset:0;stroke-opacity:1;stop-color:#000000;stop-opacity:1"
     d="m 34.653995,236.78811 c -0.23634,-0.2616 -1.242199,-1.84939 -2.664896,-4.20666 l -0.160834,-0.26649 0.924899,-0.73356 c 0.508694,-0.40345 1.404905,-1.09577 1.991579,-1.53848 l 1.06668,-0.80493 0.162476,0.20065 c 0.178506,0.22044 1.813218,3.0754 2.411052,4.21081 l 0.376661,0.71535 -0.344647,0.30578 c -0.958237,0.85016 -3.145868,2.44236 -3.355732,2.44236 -0.06257,0 -0.245831,-0.14617 -0.407238,-0.32483 z"
     id="path947" />
  <path
     style="font-variation-settings:normal;opacity:1;vector-effect:none;fill:#ffe6d5;fill-opacity:1;stroke-width:0.0102799;stroke-linecap:butt;stroke-linejoin:miter;stroke-miterlimit:4;stroke-dasharray:none;stroke-dashoffset:0;stroke-opacity:1;stop-color:#000000;stop-opacity:1"
     d="m 35.231702,226.88762 c -0.362317,-0.60978 -0.64894,-1.19133 -0.64894,-1.31667 0,-0.15999 0.142355,-0.36295 0.495431,-0.70635 0.479984,-0.46683 2.22265,-1.8822 2.317454,-1.8822 0.02577,0 0.647036,0.44772 1.380598,0.99494 l 1.333749,0.99494 -0.243382,0.18743 c -0.133859,0.10308 -0.913053,0.72105 -1.731542,1.37326 -1.47836,1.17803 -1.872886,1.44682 -2.123632,1.44682 -0.07594,0 -0.402942,-0.45802 -0.779736,-1.09217 z"
     id="path949" />
  <path
     style="font-variation-settings:normal;opacity:1;vector-effect:none;fill:#ffe6d5;fill-opacity:1;stroke-width:0.0102799;stroke-linecap:butt;stroke-linejoin:miter;stroke-miterlimit:4;stroke-dasharray:none;stroke-dashoffset:0;stroke-opacity:1;stop-color:#000000;stop-opacity:1"
     d="m 43.000638,227.82739 c -0.748822,-1.07721 -1.443719,-2.08912 -1.544217,-2.24867 l -0.182722,-0.29011 0.381032,0.064 c 0.911331,0.15305 5.803273,1.41336 6.030062,1.55352 0.220958,0.13656 -2.86096,2.88771 -3.227885,2.88145 -0.05213,-8.9e-4 -0.707447,-0.88297 -1.45627,-1.96018 z"
     id="path951" />
  <path
     style="font-variation-settings:normal;opacity:1;vector-effect:none;fill:#ffe6d5;fill-opacity:1;stroke-width:0.0102799;stroke-linecap:butt;stroke-linejoin:miter;stroke-miterlimit:4;stroke-dasharray:none;stroke-dashoffset:0;stroke-opacity:1;stop-color:#000000;stop-opacity:1"
     d="m 49.633109,215.18182 c -0.892085,-0.20031 -1.700264,-0.39914 -1.795953,-0.44184 -0.188848,-0.0843 0.0367,-0.2983 2.900955,-2.75282 2.606647,-2.23377 3.220712,-2.71889 3.349243,-2.64593 0.06849,0.0389 0.614986,0.47779 1.214431,0.97538 l 1.089902,0.9047 -0.207289,0.17232 c -0.114009,0.0948 -0.533062,0.42991 -0.931228,0.74474 -0.398166,0.31483 -1.433138,1.19561 -2.299939,1.95729 -0.8668,0.76168 -1.603484,1.39961 -1.637075,1.41762 -0.03359,0.018 -0.790962,-0.13114 -1.683047,-0.33146 z"
     id="path953" />
  <path
     style="font-variation-settings:normal;opacity:1;vector-effect:none;fill:#ffe6d5;fill-opacity:1;stroke-width:0.0102799;stroke-linecap:butt;stroke-linejoin:miter;stroke-miterlimit:4;stroke-dasharray:none;stroke-dashoffset:0;stroke-opacity:1;stop-color:#000000;stop-opacity:1"
     d="m 51.685891,221.90807 c -0.976731,-0.20793 -5.326677,-1.25143 -5.3617,-1.2862 -0.02692,-0.0267 4.694777,-4.0297 4.923845,-4.17434 0.166556,-0.10517 0.400951,-0.0117 2.55084,1.01722 1.302088,0.62316 2.541909,1.2181 2.75516,1.32208 0.53936,0.26298 0.537048,0.42393 -0.01351,0.93987 -0.707401,0.66292 -2.139736,1.85865 -2.56458,2.14095 -0.478332,0.31783 -0.948016,0.32612 -2.290058,0.0404 z"
     id="path955" />
  <path
     style="font-variation-settings:normal;opacity:1;vector-effect:none;fill:#ffe6d5;fill-opacity:1;stroke-width:0.0102799;stroke-linecap:butt;stroke-linejoin:miter;stroke-miterlimit:4;stroke-dasharray:none;stroke-dashoffset:0;stroke-opacity:1;stop-color:#000000;stop-opacity:1"
     d="m 62.542285,213.2912 c -1.116843,-0.42319 -5.122192,-2.14696 -5.124599,-2.20545 -0.0035,-0.0841 4.383868,-3.78481 4.487101,-3.78481 0.02917,0 0.656247,0.68822 1.393512,1.52938 0.737265,0.84115 1.595761,1.78027 1.907768,2.08693 0.312008,0.30666 0.567287,0.59831 0.567287,0.64812 0,0.12457 -1.335451,1.42754 -1.800786,1.75699 -0.208513,0.14762 -0.44115,0.26711 -0.516971,0.26554 -0.07582,-0.002 -0.486811,-0.13509 -0.913312,-0.2967 z"
     id="path957" />
  <path
     style="font-variation-settings:normal;opacity:1;vector-effect:none;fill:#ffdd55;fill-opacity:1;stroke-width:0.00508607;stroke-linecap:butt;stroke-linejoin:miter;stroke-miterlimit:4;stroke-dasharray:none;stroke-dashoffset:0;stroke-opacity:1;stop-color:#000000;stop-opacity:1"
     d="m 10.723968,245.58198 c -0.401526,-0.63605 -1.2601,-2.5869 -1.2601,-2.86319 0,-0.17997 0.792961,-0.68672 1.421681,-0.90855 0.243038,-0.0857 0.24753,-0.0846 0.451564,0.11261 0.463608,0.44815 1.773951,2.62457 1.698516,2.82115 -0.08442,0.22001 -1.453601,0.96511 -1.906378,1.03744 -0.245399,0.0392 -0.258776,0.0326 -0.405283,-0.19946 z"
     id="path959" />
  <path
     style="font-variation-settings:normal;opacity:1;vector-effect:none;fill:#ffdd55;fill-opacity:1;stroke-width:0.00508607;stroke-linecap:butt;stroke-linejoin:miter;stroke-miterlimit:4;stroke-dasharray:none;stroke-dashoffset:0;stroke-opacity:1;stop-color:#000000;stop-opacity:1"
     d="m 14.847688,250.66688 c -0.929634,-0.96016 -3.373274,-3.88399 -3.373274,-4.03614 0,-0.24142 1.612045,-1.13567 2.024567,-1.12309 0.09335,0.003 0.237119,0.12659 0.442422,0.38079 2.658532,3.29173 3.219837,4.04301 3.186847,4.26543 -0.02647,0.17843 -1.347022,1.01565 -1.60199,1.01565 -0.160438,0 -0.27174,-0.0824 -0.678572,-0.50264 z"
     id="path961" />
  <path
     style="font-variation-settings:normal;opacity:1;vector-effect:none;fill:#ffdd55;fill-opacity:1;stroke-width:0.00508607;stroke-linecap:butt;stroke-linejoin:miter;stroke-miterlimit:4;stroke-dasharray:none;stroke-dashoffset:0;stroke-opacity:1;stop-color:#000000;stop-opacity:1"
     d="m 65.72869,200.2265 c -0.899548,-0.0597 -1.664095,-0.19448 -1.957569,-0.34515 -0.195227,-0.10022 -1.456012,-1.5069 -1.784777,-1.9913 -0.323917,-0.47725 -0.356488,-0.63818 -0.430883,-2.12886 -0.104613,-2.09615 -0.389898,-2.95075 -1.344271,-4.0269 -0.547931,-0.61784 -0.573575,-0.66411 -0.485696,-0.87627 0.04036,-0.0975 0.33154,-0.48797 0.647058,-0.86783 0.332481,-0.40028 0.678256,-0.89557 0.822433,-1.17806 0.229884,-0.45041 0.247104,-0.51797 0.226864,-0.89015 -0.01714,-0.31522 -0.05881,-0.45852 -0.191726,-0.65937 -0.219027,-0.33097 -0.167825,-0.3939 0.428476,-0.52656 0.867,-0.19289 2.13708,-0.0257 2.70329,0.35588 0.274468,0.18497 0.456947,0.47776 0.844249,1.35465 1.519695,3.44072 3.87237,6.74563 5.487991,7.70924 0.617073,0.36804 0.628998,0.46834 0.109689,0.92264 -0.955008,0.83544 -4.073665,3.22144 -4.194866,3.20938 -0.04853,-0.005 -0.444644,-0.0324 -0.880262,-0.0613 z"
     id="path963" />
  <path
     style="font-variation-settings:normal;opacity:1;vector-effect:none;fill:#ffdd55;fill-opacity:1;stroke-width:0.00508607;stroke-linecap:butt;stroke-linejoin:miter;stroke-miterlimit:4;stroke-dasharray:none;stroke-dashoffset:0;stroke-opacity:1;stop-color:#000000;stop-opacity:1"
     d="m 70.968295,195.58875 c -0.457163,-0.24528 -1.412298,-1.1895 -2.047821,-2.02442 -1.01119,-1.32845 -1.839921,-2.71908 -2.653067,-4.45192 -0.266191,-0.56726 -0.626143,-1.25285 -0.799892,-1.52354 -0.41671,-0.6492 -0.98846,-1.19327 -1.517116,-1.44366 -0.398921,-0.18895 -0.443413,-0.19637 -1.146139,-0.19119 -0.611325,0.005 -0.820945,0.0326 -1.279439,0.17158 -1.715938,0.52005 -3.4732,1.31297 -4.022602,1.81509 -0.450515,0.41175 -0.577283,0.6692 -0.577283,1.17241 0,0.78635 0.25455,1.06986 0.96057,1.06986 0.372002,0 0.684422,-0.15051 0.684422,-0.32973 0,-0.10048 -0.262771,-0.2186 -0.486305,-0.2186 -0.213011,0 -0.499528,-0.1028 -0.562489,-0.20182 -0.07387,-0.11618 -0.05491,-0.39986 0.03884,-0.58117 0.149882,-0.28984 0.611765,-0.66002 1.140188,-0.91381 1.116634,-0.53631 1.643844,-0.61157 1.932586,-0.27589 0.225518,0.26218 0.161603,0.65099 -0.192087,1.16851 -0.570054,0.8341 -2.585274,2.98428 -2.992122,3.1925 -0.321083,0.16433 -0.871746,0.10857 -1.365778,-0.1383 -0.721549,-0.36056 -2.396126,-1.93252 -3.059031,-2.87157 -1.13514,-1.608 -1.310218,-2.96482 -0.576238,-4.46574 0.467207,-0.95539 1.312187,-1.91563 2.565464,-2.9154 1.564549,-1.24807 2.774807,-1.76959 4.288076,-1.84779 0.593758,-0.0307 0.778475,-0.0165 1.210822,0.093 0.968719,0.2453 1.616837,0.7147 3.180647,2.30356 1.771849,1.80023 2.184381,2.50434 2.494561,4.25768 0.323301,1.82751 0.998519,3.16825 2.292188,4.55147 0.847563,0.90623 1.556385,1.85482 2.252418,3.01435 0.585566,0.9755 0.839557,1.52827 0.777058,1.69114 -0.0502,0.13082 -0.125685,0.11593 -0.540435,-0.10659 z"
     id="path965" />
  <path
     style="font-variation-settings:normal;opacity:1;vector-effect:none;fill:#ffdd55;fill-opacity:1;stroke-width:0.00508607;stroke-linecap:butt;stroke-linejoin:miter;stroke-miterlimit:4;stroke-dasharray:none;stroke-dashoffset:0;stroke-opacity:1;stop-color:#000000;stop-opacity:1"
     d="m 71.171773,193.42725 c -0.08492,-0.0921 -0.259787,-0.34575 -0.388581,-0.56356 -0.30599,-0.51747 -0.583802,-0.8932 -1.115944,-1.50926 -0.239434,-0.27719 -0.435334,-0.52924 -0.435334,-0.56011 0,-0.0808 0.07876,-0.12163 2.863505,-1.48347 2.685568,-1.31334 3.978321,-1.98867 5.388165,-2.81477 1.274086,-0.74656 1.44877,-0.75113 0.895246,-0.0234 -0.789596,1.03805 -5.836578,6.42429 -6.427196,6.85923 -0.416279,0.30656 -0.568122,0.32513 -0.779861,0.0954 z"
     id="path967" />
  <path
     style="font-variation-settings:normal;opacity:1;vector-effect:none;fill:#ffdd55;fill-opacity:1;stroke-width:0.00508607;stroke-linecap:butt;stroke-linejoin:miter;stroke-miterlimit:4;stroke-dasharray:none;stroke-dashoffset:0;stroke-opacity:1;stop-color:#000000;stop-opacity:1"
     d="m 74.501331,197.63688 c -1.139335,-0.75889 -1.951834,-1.6104 -2.374489,-2.48848 l -0.263932,-0.54833 0.138314,-0.15231 c 0.07607,-0.0838 1.588318,-1.74345 3.360545,-3.68817 1.772226,-1.94472 3.448416,-3.78523 3.724866,-4.09003 0.493242,-0.54382 0.502637,-0.56006 0.502637,-0.86905 0,-0.17318 0.03844,-0.38891 0.08541,-0.47939 0.169872,-0.3272 1.070042,-1.12107 3.235034,-2.85301 3.042816,-2.43418 6.004581,-4.71398 6.124096,-4.71398 0.312886,0 0.188977,1.82204 -0.20932,3.07798 -0.169434,0.53427 -0.562917,1.26474 -0.955138,1.77313 -0.37622,0.48765 -1.470419,1.52004 -3.377993,3.18719 -4.519001,3.94942 -6.128812,5.58028 -7.431072,7.5282 -0.777131,1.16244 -1.193389,2.10246 -1.580023,3.56814 -0.230558,0.87401 -0.299047,1.03175 -0.447982,1.03175 -0.05782,0 -0.29675,-0.12764 -0.530956,-0.28364 z"
     id="path969" />
  <path
     style="font-variation-settings:normal;opacity:1;vector-effect:none;fill:#ffdd55;fill-opacity:1;stroke-width:0.00508607;stroke-linecap:butt;stroke-linejoin:miter;stroke-miterlimit:4;stroke-dasharray:none;stroke-dashoffset:0;stroke-opacity:1;stop-color:#000000;stop-opacity:1"
     d="m 68.337585,204.69849 c -0.02065,-0.0586 -0.07631,-0.20257 -0.123693,-0.31986 -0.04738,-0.11728 -0.264722,-0.80269 -0.48298,-1.52314 -0.412832,-1.36271 -0.532924,-2.04879 -0.388981,-2.22223 0.04238,-0.0511 0.354737,-0.30351 0.694123,-0.56099 0.339387,-0.25747 1.258539,-0.97191 2.04256,-1.58763 1.527871,-1.1999 1.873652,-1.41708 2.256128,-1.41708 0.266143,0 0.678493,0.25345 1.825203,1.12186 0.867998,0.65734 0.846497,0.58892 0.33465,1.06495 -0.238044,0.22139 -1.005468,0.9383 -1.705388,1.59313 -2.255708,2.11041 -4.301587,3.95761 -4.383266,3.95761 -0.01694,0 -0.04771,-0.048 -0.06836,-0.10662 z"
     id="path971" />
  <path
     style="font-variation-settings:normal;opacity:1;vector-effect:none;fill:#ffdd55;fill-opacity:1;stroke-width:0.00508607;stroke-linecap:butt;stroke-linejoin:miter;stroke-miterlimit:4;stroke-dasharray:none;stroke-dashoffset:0;stroke-opacity:1;stop-color:#000000;stop-opacity:1"
     d="m 65.743438,204.98722 c -0.863125,-0.0932 -1.610226,-0.18514 -1.660224,-0.20432 -0.07805,-0.03 -0.0909,-0.31946 -0.0909,-2.04735 v -2.01245 l 0.228471,0.005 c 0.125659,0.003 0.665167,0.0509 1.198906,0.10662 l 0.970436,0.1014 0.689721,2.01054 c 0.379346,1.1058 0.705307,2.05853 0.724356,2.11717 0.04589,0.14125 -0.08676,0.13631 -2.060762,-0.0768 z"
     id="path973" />
  <path
     style="font-variation-settings:normal;opacity:1;vector-effect:none;fill:#ffdd55;fill-opacity:1;stroke-width:0.00508607;stroke-linecap:butt;stroke-linejoin:miter;stroke-miterlimit:4;stroke-dasharray:none;stroke-dashoffset:0;stroke-opacity:1;stop-color:#000000;stop-opacity:1"
     d="m 62.45887,203.10963 c -1.671281,-1.80137 -1.855878,-2.08 -1.799952,-2.7169 0.03488,-0.39716 0.467212,-1.8139 0.614988,-2.01528 0.08585,-0.11698 0.109275,-0.10127 0.58719,0.39391 0.628624,0.65132 1.246206,1.47117 1.377423,1.82854 0.08114,0.22097 0.10677,0.58606 0.129489,1.84434 0.01558,0.86286 0.0048,1.56753 -0.02401,1.56593 -0.02878,-0.002 -0.427093,-0.40685 -0.88513,-0.90054 z"
     id="path975" />
  <path
     style="font-variation-settings:normal;opacity:1;vector-effect:none;fill:#ffdd55;fill-opacity:1;stroke-width:0.00508607;stroke-linecap:butt;stroke-linejoin:miter;stroke-miterlimit:4;stroke-dasharray:none;stroke-dashoffset:0;stroke-opacity:1;stop-color:#000000;stop-opacity:1"
     d="m 61.479683,205.61238 c -0.558866,-0.53536 -1.121493,-1.24123 -1.17176,-1.4701 -0.0248,-0.11289 -0.0061,-0.2464 0.04956,-0.35405 0.08532,-0.16499 0.723469,-0.81089 0.801158,-0.81089 0.128858,0 0.433801,0.24311 0.89249,0.71152 1.025441,1.04716 1.148734,1.3303 0.768355,1.76453 -0.213243,0.24344 -0.686115,0.57024 -0.825116,0.57024 -0.04696,0 -0.278573,-0.18507 -0.514692,-0.41125 z"
     id="path977" />
  <path
     style="font-variation-settings:normal;opacity:1;vector-effect:none;fill:#ffdd55;fill-opacity:1;stroke-width:0.00508607;stroke-linecap:butt;stroke-linejoin:miter;stroke-miterlimit:4;stroke-dasharray:none;stroke-dashoffset:0;stroke-opacity:1;stop-color:#000000;stop-opacity:1"
     d="m 66.166935,210.99816 c -0.127565,-0.13904 -0.829555,-0.89709 -1.559978,-1.68455 -0.730423,-0.78746 -1.543989,-1.67527 -1.807924,-1.97291 l -0.479882,-0.54116 0.504742,-0.479 c 0.722059,-0.68524 0.709105,-0.68557 1.395763,0.0354 0.312017,0.3276 1.181648,1.32587 1.932514,2.21838 l 1.365211,1.62274 -0.527521,0.5331 c -0.290137,0.29321 -0.541802,0.53034 -0.559255,0.52696 -0.01745,-0.003 -0.136105,-0.11989 -0.26367,-0.25893 z"
     id="path979" />
  <path
     style="font-variation-settings:normal;opacity:1;vector-effect:none;fill:#ffdd55;fill-opacity:1;stroke-width:0.00508607;stroke-linecap:butt;stroke-linejoin:miter;stroke-miterlimit:4;stroke-dasharray:none;stroke-dashoffset:0;stroke-opacity:1;stop-color:#000000;stop-opacity:1"
     d="m 68.614821,210.4938 c -0.08961,-0.0259 -1.511624,-1.70964 -2.771962,-3.28212 -0.643335,-0.80267 -1.082352,-1.42823 -1.035332,-1.47525 0.08967,-0.0897 0.779453,-0.0856 1.881234,0.011 1.246721,0.10932 1.48119,0.092 1.820255,-0.13444 0.294001,-0.19634 6.418018,-5.84176 6.73261,-6.20644 0.367584,-0.42612 0.467511,-0.6093 0.591605,-1.08451 0.151378,-0.57969 0.258588,-0.66782 2.773805,-2.28033 4.066339,-2.60692 6.467459,-4.44876 10.578023,-8.11416 2.328273,-2.07613 2.942049,-2.53778 4.373819,-3.2898 0.887006,-0.46588 2.412836,-1.15606 2.556472,-1.15636 0.236637,-4.9e-4 0.11922,0.21238 -0.768493,1.39327 -0.343293,0.45666 -0.725165,0.9706 -0.848604,1.14209 -0.331683,0.46078 -0.384455,0.49319 -0.523466,0.32152 -0.112034,-0.13835 -0.12654,-0.14032 -0.486991,-0.0659 -0.516441,0.10667 -1.32015,0.45504 -1.681387,0.72879 -0.166694,0.12632 -0.427151,0.38371 -0.578793,0.57197 -0.326826,0.40574 -0.793582,1.25825 -0.793582,1.44944 0,0.0778 0.09045,0.21513 0.21324,0.32384 0.117282,0.10383 0.21324,0.2192 0.21324,0.25637 0,0.12372 -0.604516,0.78552 -1.32704,1.4528 -1.058287,0.97738 -1.789143,1.43078 -1.932482,1.19885 -0.0632,-0.10226 -0.561224,-0.0681 -0.961501,0.066 -0.723676,0.24235 -1.34257,0.57116 -1.587043,0.84317 -0.269763,0.30015 -0.710977,1.17293 -0.710977,1.40641 0,0.23785 0.114152,0.34989 0.513437,0.50392 0.198619,0.0766 0.371179,0.16948 0.383469,0.20635 0.03152,0.0946 -0.222504,0.34088 -1.506162,1.46052 -0.619919,0.5407 -1.715109,1.53455 -2.433756,2.20855 -0.718648,0.674 -1.328666,1.22545 -1.355596,1.22545 -0.07657,0 -0.05883,-0.0587 0.07417,-0.2455 0.146916,-0.20632 0.303345,-0.62964 0.303345,-0.82089 0,-0.0755 -0.04046,-0.17077 -0.0899,-0.21181 -0.07341,-0.0609 -0.197244,-0.0173 -0.675058,0.23805 -2.41285,1.28922 -11.35924,7.27196 -11.897499,7.95624 -0.278369,0.35389 -0.317448,0.89121 -0.09597,1.3195 0.268188,0.51862 0.947316,1.04557 1.956804,1.51833 l 0.535651,0.25085 -0.41269,0.14232 c -0.43244,0.14912 -0.858891,0.22053 -1.026899,0.17195 z"
     id="path981" />
  <path
     style="font-variation-settings:normal;opacity:1;vector-effect:none;fill:#ffdd55;fill-opacity:1;stroke-width:0.00508607;stroke-linecap:butt;stroke-linejoin:miter;stroke-miterlimit:4;stroke-dasharray:none;stroke-dashoffset:0;stroke-opacity:1;stop-color:#000000;stop-opacity:1"
     d="m 69.567005,209.24862 c -0.486711,-0.24672 -1.215196,-0.81032 -1.368964,-1.05912 -0.391976,-0.63423 -0.03963,-0.96192 3.653675,-3.39799 3.270394,-2.15711 5.3342,-3.44874 5.864092,-3.67001 0.478944,-0.20001 0.276453,0.0739 -1.709566,2.31256 -2.743561,3.09256 -4.802044,5.29304 -5.393741,5.7658 -0.364173,0.29098 -0.550513,0.29966 -1.045496,0.0488 z"
     id="path983" />
  <path
     style="font-variation-settings:normal;opacity:1;vector-effect:none;fill:#ffdd55;fill-opacity:1;stroke-width:0.00508607;stroke-linecap:butt;stroke-linejoin:miter;stroke-miterlimit:4;stroke-dasharray:none;stroke-dashoffset:0;stroke-opacity:1;stop-color:#000000;stop-opacity:1"
     d="m 75.141444,207.33634 c 1.491013,-1.4927 2.724757,-2.71395 2.741653,-2.71388 0.0169,7e-5 0.118246,0.33592 0.225222,0.74634 l 0.194503,0.74621 -0.986536,0.99575 c -1.576662,1.59138 -2.583815,2.50653 -2.931836,2.66401 -0.206194,0.0933 -0.481188,0.15188 -0.826816,0.17613 -0.284827,0.02 -0.654951,0.0505 -0.822496,0.0679 l -0.304628,0.0316 z"
     id="path985" />
  <path
     style="font-variation-settings:normal;opacity:1;vector-effect:none;fill:#ffdd55;fill-opacity:1;stroke-width:0.00508607;stroke-linecap:butt;stroke-linejoin:miter;stroke-miterlimit:4;stroke-dasharray:none;stroke-dashoffset:0;stroke-opacity:1;stop-color:#000000;stop-opacity:1"
     d="m 71.365127,209.69074 c 0.208527,-0.37103 0.894197,-1.16702 2.181468,-2.53245 1.523373,-1.61588 3.377495,-3.39122 5.939558,-5.68721 1.112252,-0.99674 2.721398,-2.4436 3.57588,-3.21525 2.051287,-1.85243 2.340847,-2.10357 2.766985,-2.39988 0.4116,-0.28619 0.625132,-0.31413 0.859585,-0.11246 l 0.160605,0.13814 -1.116786,0.97709 c -0.614232,0.5374 -1.706241,1.48135 -2.426687,2.09766 -2.947929,2.52184 -5.520941,4.87561 -8.268054,7.56355 -2.384365,2.33301 -3.556883,3.40294 -3.729237,3.40294 -0.04784,0 -0.02791,-0.0816 0.05668,-0.23213 z"
     id="path987" />
  <path
     style="font-variation-settings:normal;opacity:1;vector-effect:none;fill:#ffdd55;fill-opacity:1;stroke-width:0.00508607;stroke-linecap:butt;stroke-linejoin:miter;stroke-miterlimit:4;stroke-dasharray:none;stroke-dashoffset:0;stroke-opacity:1;stop-color:#000000;stop-opacity:1"
     d="m 78.553536,204.28122 c 0,-0.32816 0.738199,-1.16543 1.348427,-1.52939 0.798481,-0.47624 0.724574,-0.30491 -0.325204,0.75389 -0.833985,0.84116 -1.023223,0.98458 -1.023223,0.7755 z"
     id="path989" />
  <path
     style="font-variation-settings:normal;opacity:1;vector-effect:none;fill:#ffdd55;fill-opacity:1;stroke-width:0.00508607;stroke-linecap:butt;stroke-linejoin:miter;stroke-miterlimit:4;stroke-dasharray:none;stroke-dashoffset:0;stroke-opacity:1;stop-color:#000000;stop-opacity:1"
     d="m 72.856989,211.72403 c -1.07876,-0.22677 -2.689799,-0.62555 -2.8188,-0.69774 -0.06898,-0.0386 -0.06925,-0.0577 -0.0016,-0.11383 0.156328,-0.12974 1.126907,-0.20693 2.351246,-0.187 1.430393,0.0233 1.507777,0.0503 1.642803,0.57416 0.102787,0.39875 0.07767,0.59983 -0.077,0.61633 -0.06702,0.007 -0.560516,-0.0792 -1.096662,-0.19192 z"
     id="path991" />
  <path
     style="font-variation-settings:normal;opacity:1;vector-effect:none;fill:#ffdd55;fill-opacity:1;stroke-width:0.00508607;stroke-linecap:butt;stroke-linejoin:miter;stroke-miterlimit:4;stroke-dasharray:none;stroke-dashoffset:0;stroke-opacity:1;stop-color:#000000;stop-opacity:1"
     d="m 81.173338,218.77592 c -0.439987,-0.0737 -0.732312,-0.22073 -0.993305,-0.49975 -0.319511,-0.34158 -0.362754,-0.42027 -0.740223,-1.34686 -0.567731,-1.39363 -1.101012,-2.02728 -2.957746,-3.51442 -1.299802,-1.04107 -1.602326,-1.3537 -1.731786,-1.78964 -0.122648,-0.413 -0.121106,-0.62421 0.0066,-0.90114 0.05992,-0.12995 0.824559,-0.95044 1.838838,-1.97315 0.954952,-0.96288 1.742742,-1.74423 1.750645,-1.73632 0.0079,0.008 0.102106,0.39817 0.209337,0.86727 0.435445,1.90491 1.007866,3.03743 2.201756,4.35613 0.318545,0.35185 0.610979,0.6996 0.649852,0.7728 0.10652,0.20055 0.08672,0.44535 -0.08896,1.0999 -0.20332,0.75755 -0.229114,1.81678 -0.05603,2.30071 0.336875,0.94185 1.00521,1.26993 1.904065,0.93468 0.262502,-0.0979 0.45523,-0.23413 0.754196,-0.5331 0.298966,-0.29896 0.435195,-0.49169 0.533099,-0.75419 0.266277,-0.71394 0.106489,-1.39342 -0.388773,-1.65322 -0.291562,-0.15294 -1.039482,-0.17536 -1.358727,-0.0407 -0.226051,0.0953 -0.329299,0.28455 -0.244043,0.44725 0.04693,0.0896 0.144003,0.10662 0.606744,0.10662 0.532612,0 0.557021,0.006 0.736323,0.18545 0.165356,0.16535 0.181163,0.21226 0.145885,0.43287 -0.0791,0.49469 -0.453261,0.95525 -0.975452,1.20071 -0.412363,0.19383 -0.752401,0.18976 -0.92516,-0.0111 -0.506188,-0.58848 -0.221989,-2.95967 0.427907,-3.57022 0.217945,-0.20475 0.604617,-0.23034 1.111989,-0.0736 0.878619,0.27142 1.826915,0.95426 2.095368,1.50881 0.132412,0.27353 0.132914,0.28423 0.0306,0.65289 -0.164657,0.59332 -0.739107,1.63818 -1.142946,2.0789 -0.832006,0.90799 -2.470675,1.60799 -3.40004,1.45242 z"
     id="path993" />
  <path
     style="font-variation-settings:normal;opacity:1;vector-effect:none;fill:#ffdd55;fill-opacity:1;stroke-width:0.00508607;stroke-linecap:butt;stroke-linejoin:miter;stroke-miterlimit:4;stroke-dasharray:none;stroke-dashoffset:0;stroke-opacity:1;stop-color:#000000;stop-opacity:1"
     d="m 81.393028,211.89839 c -0.437595,-0.33412 -1.111127,-1.1606 -1.37892,-1.69203 -0.251606,-0.49931 -0.784658,-2.06787 -0.910695,-2.67981 -0.07515,-0.36486 -0.04374,-0.68323 0.06101,-0.61849 0.03244,0.02 0.261473,0.45298 0.508958,0.96207 0.438859,0.90275 0.945455,1.73577 1.473658,2.42321 0.610279,0.79425 0.872287,1.36837 0.759663,1.6646 -0.0801,0.21068 -0.174024,0.1998 -0.513675,-0.0596 z"
     id="path995" />
  <path
     style="font-variation-settings:normal;opacity:1;vector-effect:none;fill:#ffdd55;fill-opacity:1;stroke-width:0.00508607;stroke-linecap:butt;stroke-linejoin:miter;stroke-miterlimit:4;stroke-dasharray:none;stroke-dashoffset:0;stroke-opacity:1;stop-color:#000000;stop-opacity:1"
     d="m 85.185348,213.19504 c -0.121765,-0.074 -0.368304,-0.22365 -0.547865,-0.33261 -0.441318,-0.26779 -0.893686,-0.43168 -1.468548,-0.53203 -0.529568,-0.0924 -0.655233,-0.16237 -0.655233,-0.36454 0,-0.19218 0.187181,-0.33708 0.43545,-0.33708 0.525031,0 1.56775,0.46149 2.085603,0.92304 0.51911,0.46268 0.629498,0.93417 0.150593,0.64322 z"
     id="path997" />
  <path
     style="font-variation-settings:normal;opacity:1;vector-effect:none;fill:#ffdd55;fill-opacity:1;stroke-width:0.00508607;stroke-linecap:butt;stroke-linejoin:miter;stroke-miterlimit:4;stroke-dasharray:none;stroke-dashoffset:0;stroke-opacity:1;stop-color:#000000;stop-opacity:1"
     d="m 87.786407,194.8785 c -0.119043,-0.19261 0.767145,-1.15737 2.704569,-2.94437 2.057154,-1.89743 2.138637,-1.95118 2.914734,-1.9227 l 0.523863,0.0192 0.156157,-0.48741 c 0.190228,-0.59375 0.316874,-0.83326 0.528709,-0.99989 0.206952,-0.16279 0.352777,-0.16104 0.508495,0.006 0.27447,0.29461 0.06169,0.796 -0.590912,1.39244 -0.637667,0.5828 -3.596772,2.90039 -5.115565,4.00656 -1.145291,0.83413 -1.547497,1.06362 -1.63005,0.93004 z"
     id="path999" />
  <path
     style="font-variation-settings:normal;opacity:1;vector-effect:none;fill:#ffdd55;fill-opacity:1;stroke-width:0.00508607;stroke-linecap:butt;stroke-linejoin:miter;stroke-miterlimit:4;stroke-dasharray:none;stroke-dashoffset:0;stroke-opacity:1;stop-color:#000000;stop-opacity:1"
     d="m 76.258639,196.48419 c -0.08113,-0.21143 0.101354,-0.56089 0.472177,-0.90421 0.353787,-0.32754 0.721483,-0.57991 3.528638,-2.42188 2.735737,-1.7951 3.797753,-2.69655 9.797172,-8.31592 l 1.298046,-1.21582 1.078053,-0.44722 c 3.451858,-1.43195 4.103287,-1.69694 5.099146,-2.07423 1.167199,-0.44221 1.553603,-0.54918 1.553603,-0.4301 0,0.0389 -0.04504,0.15847 -0.100097,0.26571 -0.134801,0.26259 -1.293011,1.98004 -1.365505,2.02485 -0.03291,0.0203 -0.05754,-0.0842 -0.05754,-0.24412 0,-0.34349 -0.07155,-0.38105 -0.530247,-0.2784 -0.898178,0.201 -3.8421,1.60119 -5.227225,2.48617 -0.757697,0.48411 -2.335688,1.79804 -4.295257,3.57649 -2.357364,2.13948 -3.577737,3.13586 -5.574696,4.55148 -2.062621,1.46217 -5.319365,3.52316 -5.567231,3.52316 -0.03972,0 -0.08879,-0.0432 -0.109038,-0.096 z"
     id="path1001" />
  <path
     style="font-variation-settings:normal;opacity:1;vector-effect:none;fill:#ffdd55;fill-opacity:1;stroke-width:0.00508607;stroke-linecap:butt;stroke-linejoin:miter;stroke-miterlimit:4;stroke-dasharray:none;stroke-dashoffset:0;stroke-opacity:1;stop-color:#000000;stop-opacity:1"
     d="m 94.124561,187.81419 c -0.01822,-0.0295 0.03675,-0.18502 0.122146,-0.34564 0.307314,-0.57797 2.332089,-3.19538 2.471889,-3.19538 0.173927,0 -1.672374,2.75895 -2.252638,3.36615 -0.225645,0.23611 -0.284813,0.26642 -0.341397,0.17487 z"
     id="path1003" />
  <path
     style="font-variation-settings:normal;opacity:1;vector-effect:none;fill:#ffdd55;fill-opacity:1;stroke-width:0.00254304;stroke-linecap:butt;stroke-linejoin:miter;stroke-miterlimit:4;stroke-dasharray:none;stroke-dashoffset:0;stroke-opacity:1;stop-color:#000000;stop-opacity:1"
     d="m 96.863863,183.8412 c 0,-0.047 0.05242,-0.12102 0.151009,-0.21324 0.145874,-0.13645 0.245007,-0.17928 0.245007,-0.10585 0,0.0759 -0.159216,0.30169 -0.243374,0.34521 -0.12188,0.063 -0.152642,0.0578 -0.152642,-0.0261 z"
     id="path1005" />
  <path
     style="font-variation-settings:normal;opacity:1;vector-effect:none;fill:#ff5555;fill-opacity:1;stroke-width:0.0284694;stroke-linecap:butt;stroke-linejoin:miter;stroke-miterlimit:4;stroke-dasharray:none;stroke-dashoffset:0;stroke-opacity:1;stop-color:#000000;stop-opacity:1"
     d="m 96.561528,178.9692 c 1.615864,-1.58369 7.897062,-7.68671 13.958222,-13.56227 30.01903,-29.09986 64.58895,-63.55899 73.30139,-73.06648 6.20626,-6.772608 16.59862,-18.532942 24.09405,-27.265608 7.91108,-9.216928 11.52792,-13.677147 20.02136,-24.689992 2.30251,-2.985508 4.34388,-5.583288 4.53638,-5.772844 0.65544,-0.64542 0.20455,0.169269 -1.45806,2.634516 -8.47267,12.562933 -31.70924,39.961884 -55.3226,65.232588 -4.5435,4.86238 -30.85304,31.47545 -41.48644,41.96505 -13.75528,13.56927 -36.56552,35.21474 -38.514351,36.54769 -0.607959,0.41583 -1.671653,0.88356 -1.964356,0.86377 -0.05694,-0.004 1.218542,-1.30274 2.834405,-2.88642 z"
     id="path1007" />
  <path
     style="font-variation-settings:normal;opacity:1;vector-effect:none;fill:#cdde87;fill-opacity:1;stroke-width:0.0402618;stroke-linecap:butt;stroke-linejoin:miter;stroke-miterlimit:4;stroke-dasharray:none;stroke-dashoffset:0;stroke-opacity:1;stop-color:#000000;stop-opacity:1"
     d="m 77.527387,193.58432 c 0,-0.34721 4.418824,-4.73977 7.920332,-7.87325 3.195089,-2.85927 4.024286,-4.10983 4.203234,-6.33914 l 0.124511,-1.55115 5.508114,-5.08037 C 124.08655,146.17415 149.16003,121.4668 167.33762,101.7385 197.84245,68.631315 215.76055,47.937524 242.514,14.916502 c 3.55197,-4.384088 6.48728,-7.8852087 6.52292,-7.7802678 0.0357,0.104941 -0.90823,2.4337219 -2.0975,5.1750688 -6.37214,14.688224 -9.36844,20.208037 -18.18329,33.497463 -8.58921,12.949226 -14.26321,19.996719 -30.10858,37.396892 -23.13446,25.404472 -59.04367,61.673372 -94.66679,95.615012 -3.74661,3.56976 -6.852239,6.45026 -6.901396,6.4011 -0.04916,-0.0491 0.51711,-1.0295 1.25837,-2.17855 0.74126,-1.14904 1.526944,-2.43571 1.745966,-2.85925 0.3956,-0.765 0.39446,-0.76919 -0.173358,-0.63504 -0.314368,0.0743 -0.835476,0.21599 -1.158017,0.31494 -0.422519,0.12963 -0.536658,0.0994 -0.408342,-0.10825 0.09795,-0.15849 5.184967,-5.0285 11.304477,-10.82223 15.68676,-14.85166 25.04588,-24.00187 41.9645,-41.02776 15.00105,-15.09616 22.08994,-22.40868 29.74417,-30.68249 18.75611,-20.274328 38.88671,-43.993847 47.841,-56.370155 2.08037,-2.875408 7.46701,-11.562213 7.46701,-12.041716 0,-0.660969 -1.03298,0.536315 -5.2396,6.072978 -11.58322,15.245577 -21.23512,26.941639 -36.71567,44.491628 -13.86763,15.721445 -27.86058,30.024915 -65.76125,67.220515 -33.434183,32.81221 -44.00873,42.75072 -48.899724,45.95849 -2.008953,1.31758 -2.521509,1.52684 -2.521509,1.02944 z"
     id="path1009" />
  <path
     style="font-variation-settings:normal;opacity:1;vector-effect:none;fill:#cdde87;fill-opacity:1;stroke-width:0.00122649;stroke-linecap:butt;stroke-linejoin:miter;stroke-miterlimit:4;stroke-dasharray:none;stroke-dashoffset:0;stroke-opacity:1;stop-color:#000000;stop-opacity:1"
     d="m 86.464541,194.89603 c -0.28469,-0.074 -0.940636,-0.30416 -1.22335,-0.42919 -0.146087,-0.0646 -0.162709,-0.0816 -0.162709,-0.16624 0,-0.14911 0.107137,-0.32165 0.369276,-0.5947 0.304121,-0.31678 0.56419,-0.49705 1.113872,-0.77208 l 0.432181,-0.21624 0.0095,0.55519 c 0.01333,0.7767 -0.01979,1.59543 -0.06685,1.65212 -0.0509,0.0613 -0.147945,0.0554 -0.471954,-0.0289 z"
     id="path1011" />
  <path
     style="font-variation-settings:normal;opacity:1;vector-effect:none;fill:#cdde87;fill-opacity:1;stroke-width:0.00122649;stroke-linecap:butt;stroke-linejoin:miter;stroke-miterlimit:4;stroke-dasharray:none;stroke-dashoffset:0;stroke-opacity:1;stop-color:#000000;stop-opacity:1"
     d="m 92.562333,189.17135 c -0.827608,-0.19084 -1.058691,-0.27764 -1.163014,-0.43686 -0.109391,-0.16695 0.08854,-0.5154 0.54191,-0.95399 0.465639,-0.45046 1.025707,-0.83205 1.221224,-0.83205 0.06335,0 0.0787,0.0208 0.106785,0.14469 0.05946,0.26232 0.09727,0.7142 0.115338,1.37845 0.01747,0.64205 0.0165,0.6566 -0.0491,0.73872 -0.08759,0.10965 -0.140123,0.107 -0.773143,-0.039 z"
     id="path1013" />
</svg>
