<?xml version="1.0" encoding="UTF-8" standalone="no"?>
<svg
   viewBox="0 0 256 256"
   version="1.1"
   id="svg922"
   sodipodi:docname="leia_top.svg"
   xml:space="preserve"
   inkscape:version="1.2 (dc2aedaf03, 2022-05-15)"
   xmlns:inkscape="http://www.inkscape.org/namespaces/inkscape"
   xmlns:sodipodi="http://sodipodi.sourceforge.net/DTD/sodipodi-0.dtd"
   xmlns:xlink="http://www.w3.org/1999/xlink"
   xmlns="http://www.w3.org/2000/svg"
   xmlns:svg="http://www.w3.org/2000/svg"><sodipodi:namedview
     id="namedview924"
     pagecolor="#ffffff"
     bordercolor="#000000"
     borderopacity="0.25"
     inkscape:showpageshadow="2"
     inkscape:pageopacity="0.0"
     inkscape:pagecheckerboard="0"
     inkscape:deskcolor="#d1d1d1"
     showgrid="false"
     inkscape:zoom="3.3359375"
     inkscape:cx="139.84075"
     inkscape:cy="109.86417"
     inkscape:window-width="1920"
     inkscape:window-height="1051"
     inkscape:window-x="-9"
     inkscape:window-y="-9"
     inkscape:window-maximized="1"
     inkscape:current-layer="svg922" /><defs
     id="defs664"><linearGradient
       inkscape:collect="always"
       id="linearGradient5756"><stop
         style="stop-color:#ffb380;stop-opacity:1"
         offset="0"
         id="stop5752" /><stop
         style="stop-color:#ffccaa;stop-opacity:1"
         offset="1"
         id="stop5754" /></linearGradient><linearGradient
       inkscape:collect="always"
       id="linearGradient5750"><stop
         style="stop-color:#ffb380;stop-opacity:1"
         offset="0"
         id="stop5746" /><stop
         style="stop-color:#ffccaa;stop-opacity:1"
         offset="1"
         id="stop5748" /></linearGradient><linearGradient
       inkscape:collect="always"
       id="linearGradient5744"><stop
         style="stop-color:#ffb380;stop-opacity:1"
         offset="0"
         id="stop5740" /><stop
         style="stop-color:#ffccaa;stop-opacity:1"
         offset="1"
         id="stop5742" /></linearGradient><linearGradient
       inkscape:collect="always"
       id="linearGradient5536"><stop
         style="stop-color:#ff8080;stop-opacity:1"
         offset="0"
         id="stop5532" /><stop
         style="stop-color:#ffd5d5;stop-opacity:1"
         offset="1"
         id="stop5534" /></linearGradient><linearGradient
       id="innoGrad6"><stop
         offset="0"
         stop-color="#ff2a2a"
         stop-opacity="0"
         id="stop554" /><stop
         offset="1"
         stop-color="#ff2a2a"
         stop-opacity=".402"
         id="stop556" /></linearGradient><linearGradient
       id="innoGrad7"><stop
         offset="0"
         stop-color="#ff2a2a"
         stop-opacity="0"
         id="stop559" /><stop
         offset="1"
         stop-color="#ff2a2a"
         stop-opacity=".5"
         id="stop561" /></linearGradient><linearGradient
       id="innoGrad5"><stop
         offset="0"
         stop-color="#ff2a2a"
         stop-opacity=".502"
         id="stop564" /><stop
         offset=".385"
         stop-color="#ff2a2a"
         stop-opacity="0"
         id="stop566" /><stop
         offset=".577"
         stop-color="#ff2a2a"
         stop-opacity=".502"
         id="stop568" /><stop
         offset=".77"
         stop-color="#ff2a2a"
         stop-opacity="0"
         id="stop570" /><stop
         offset="1"
         stop-color="#ff2a2a"
         stop-opacity=".502"
         id="stop572" /></linearGradient><linearGradient
       id="innoGrad4"><stop
         offset="0"
         stop-color="#ff2a2a"
         stop-opacity=".502"
         id="stop575" /><stop
         offset=".5"
         stop-color="#ff2a2a"
         stop-opacity="0"
         id="stop577" /><stop
         offset="1"
         stop-color="#ff2a2a"
         stop-opacity=".502"
         id="stop579" /></linearGradient><linearGradient
       id="innoGrad3"><stop
         offset="0"
         stop-color="#ff2a2a"
         id="stop582" /><stop
         offset="1"
         stop-color="#ff2a2a"
         stop-opacity="0"
         id="stop584" /></linearGradient><linearGradient
       id="innoGrad2"><stop
         offset="0"
         stop-color="#ff7f2a"
         stop-opacity="0"
         id="stop587" /><stop
         offset="1"
         stop-color="#ff7f2a"
         stop-opacity=".502"
         id="stop589" /></linearGradient><linearGradient
       id="innoGrad1"><stop
         offset="0"
         stop-color="#ff2a2a"
         stop-opacity="0"
         id="stop592" /><stop
         offset="1"
         stop-color="#ff2a2a"
         stop-opacity=".502"
         id="stop594" /></linearGradient><radialGradient
       id="radialGradient1139"
       cx="135.506"
       cy="186.841"
       r="79.465"
       fx="135.506"
       fy="186.841"
       gradientTransform="matrix(0,0.53898553,-0.54078102,0,595.69978,80.850286)"
       gradientUnits="userSpaceOnUse"
       xlink:href="#innoGrad1" /><linearGradient
       id="linearGradient1162"
       x1="127.197"
       x2="127.197"
       y1="178.156"
       y2="246.185"
       gradientUnits="userSpaceOnUse"
       xlink:href="#innoGrad6"
       gradientTransform="matrix(0.93214,0,0,0.93213,376.22835,-7.6601186)" /><linearGradient
       id="linearGradient1164"
       x1="129.466"
       x2="129.466"
       y1="189.246"
       y2="116.749"
       gradientUnits="userSpaceOnUse"
       xlink:href="#innoGrad7"
       gradientTransform="matrix(0.93214,0,0,0.93213,376.22835,-7.6601186)" /><radialGradient
       id="radialGradient1182"
       cx="128.663"
       cy="178.455"
       r="55.609"
       fx="128.663"
       fy="178.455"
       gradientTransform="matrix(-2.1986013,0,0,-2.2050094,771.85363,551.55916)"
       gradientUnits="userSpaceOnUse"
       xlink:href="#innoGrad1" /><radialGradient
       id="radialGradient1190"
       cx="129.848"
       cy="177.734"
       r="55.782"
       fx="129.848"
       fy="177.734"
       gradientTransform="matrix(0,2.1561658,-2.1404917,0,877.70382,-122.62624)"
       gradientUnits="userSpaceOnUse"
       xlink:href="#innoGrad1" /><radialGradient
       id="radialGradient1215"
       cx="127.999"
       cy="171.553"
       r="60.893"
       fx="127.999"
       fy="171.553"
       gradientTransform="matrix(0,0.93213,-0.9393268,0,656.68597,32.937871)"
       gradientUnits="userSpaceOnUse"
       xlink:href="#innoGrad2" /><linearGradient
       id="linearGradient1244"
       x1="191.695"
       x2="197.612"
       y1="242.336"
       y2="254.268"
       gradientUnits="userSpaceOnUse"
       xlink:href="#innoGrad3" /><linearGradient
       id="linearGradient1258"
       x1="173.962"
       x2="173.082"
       y1="239.479"
       y2="244.177"
       gradientUnits="userSpaceOnUse"
       xlink:href="#innoGrad3" /><linearGradient
       id="linearGradient1266"
       x1="126.741"
       x2="128.013"
       y1="236.306"
       y2="244.171"
       gradientUnits="userSpaceOnUse"
       xlink:href="#innoGrad3" /><linearGradient
       id="linearGradient1274"
       x1="73.8"
       x2="74.373"
       y1="239.134"
       y2="247.763"
       gradientUnits="userSpaceOnUse"
       xlink:href="#innoGrad3" /><linearGradient
       id="linearGradient1282"
       x1="63.737"
       x2="59.555"
       y1="240.743"
       y2="252.632"
       gradientUnits="userSpaceOnUse"
       xlink:href="#innoGrad3" /><linearGradient
       id="linearGradient1290"
       x1="52.79"
       x2="47.393"
       y1="241.359"
       y2="251.234"
       gradientUnits="userSpaceOnUse"
       xlink:href="#innoGrad3" /><linearGradient
       id="linearGradient1298"
       x1="218.585"
       x2="221.499"
       y1="243.069"
       y2="247.95"
       gradientUnits="userSpaceOnUse"
       xlink:href="#innoGrad3" /><linearGradient
       id="linearGradient1306"
       x1="225.625"
       x2="236.745"
       y1="238.215"
       y2="249.006"
       gradientUnits="userSpaceOnUse"
       xlink:href="#innoGrad3" /><linearGradient
       id="linearGradient1314"
       x1="223.464"
       x2="225.859"
       y1="239.34"
       y2="250.727"
       gradientUnits="userSpaceOnUse"
       xlink:href="#innoGrad3" /><linearGradient
       id="linearGradient1322"
       x1="227.982"
       x2="240.406"
       y1="238.068"
       y2="239.492"
       gradientUnits="userSpaceOnUse"
       xlink:href="#innoGrad3" /><linearGradient
       id="linearGradient1330"
       x1="201.644"
       x2="208.188"
       y1="245.273"
       y2="253.89"
       gradientUnits="userSpaceOnUse"
       xlink:href="#innoGrad3" /><linearGradient
       id="linearGradient1338"
       x1="139.838"
       x2="146.589"
       y1="236.745"
       y2="243.553"
       gradientUnits="userSpaceOnUse"
       xlink:href="#innoGrad3" /><linearGradient
       id="linearGradient1346"
       x1="110.805"
       x2="111.266"
       y1="237.315"
       y2="245.644"
       gradientUnits="userSpaceOnUse"
       xlink:href="#innoGrad3" /><linearGradient
       id="linearGradient1354"
       x1="98.556"
       x2="98.053"
       y1="236.003"
       y2="242.331"
       gradientUnits="userSpaceOnUse"
       xlink:href="#innoGrad3" /><linearGradient
       id="linearGradient1362"
       x1="36.274"
       x2="31.81"
       y1="237.317"
       y2="246.665"
       gradientUnits="userSpaceOnUse"
       xlink:href="#innoGrad3" /><linearGradient
       id="linearGradient1406"
       x1="28.923"
       x2="35.501"
       y1="255.231"
       y2="237.014"
       gradientUnits="userSpaceOnUse"
       xlink:href="#innoGrad1" /><linearGradient
       id="linearGradient1414"
       x1="73.788"
       x2="79.071"
       y1="255.568"
       y2="239.912"
       gradientUnits="userSpaceOnUse"
       xlink:href="#innoGrad1" /><linearGradient
       id="linearGradient1422"
       x1="48.207"
       x2="58.592"
       y1="260.101"
       y2="240.158"
       gradientUnits="userSpaceOnUse"
       xlink:href="#innoGrad1" /><linearGradient
       id="linearGradient1430"
       x1="199.834"
       x2="200.031"
       y1="258.86"
       y2="246.028"
       gradientUnits="userSpaceOnUse"
       xlink:href="#innoGrad1" /><linearGradient
       id="linearGradient1438"
       x1="185.275"
       x2="181.381"
       y1="256.055"
       y2="242.803"
       gradientUnits="userSpaceOnUse"
       xlink:href="#innoGrad1" /><linearGradient
       id="linearGradient1446"
       x1="140.84"
       x2="138.203"
       y1="260.282"
       y2="236.504"
       gradientUnits="userSpaceOnUse"
       xlink:href="#innoGrad1" /><linearGradient
       id="linearGradient1456"
       x1="114.287"
       x2="111.716"
       y1="260.122"
       y2="237.07"
       gradientUnits="userSpaceOnUse"
       xlink:href="#innoGrad1" /><linearGradient
       id="linearGradient1464"
       x1="244.885"
       x2="229.918"
       y1="256.034"
       y2="237.242"
       gradientUnits="userSpaceOnUse"
       xlink:href="#innoGrad1" /><linearGradient
       id="linearGradient1482"
       x1="12.33"
       x2="240.392"
       y1="114.615"
       y2="114.615"
       gradientUnits="userSpaceOnUse"
       xlink:href="#innoGrad3" /><linearGradient
       id="linearGradient1484"
       x1="168.262"
       x2="161.636"
       y1="127.361"
       y2="112.234"
       gradientUnits="userSpaceOnUse"
       xlink:href="#innoGrad3" /><linearGradient
       id="linearGradient1486"
       x1="148.478"
       x2="148.277"
       y1="128.421"
       y2="113.615"
       gradientUnits="userSpaceOnUse"
       xlink:href="#innoGrad3" /><linearGradient
       id="linearGradient1488"
       x1="229.4"
       x2="236.077"
       y1="124.97"
       y2="112.697"
       gradientUnits="userSpaceOnUse"
       xlink:href="#innoGrad3" /><linearGradient
       id="linearGradient1490"
       x1="42.086"
       x2="31.547"
       y1="118.859"
       y2="100.553"
       gradientUnits="userSpaceOnUse"
       xlink:href="#innoGrad3" /><linearGradient
       id="linearGradient1492"
       x1="26.296"
       x2="17.206"
       y1="122.344"
       y2="110.276"
       gradientUnits="userSpaceOnUse"
       xlink:href="#innoGrad3" /><linearGradient
       id="linearGradient1494"
       x1="53.822"
       x2="52.189"
       y1="122.479"
       y2="99.971"
       gradientUnits="userSpaceOnUse"
       xlink:href="#innoGrad3" /><linearGradient
       id="linearGradient1496"
       x1="81.483"
       x2="82.29"
       y1="127.903"
       y2="110.547"
       gradientUnits="userSpaceOnUse"
       xlink:href="#innoGrad3" /><linearGradient
       id="linearGradient1498"
       x1="100.194"
       x2="102.9"
       y1="127.361"
       y2="110.005"
       gradientUnits="userSpaceOnUse"
       xlink:href="#innoGrad3" /><linearGradient
       id="linearGradient1500"
       x1="116.305"
       x2="116.731"
       y1="127.575"
       y2="110.276"
       gradientUnits="userSpaceOnUse"
       xlink:href="#innoGrad3" /><linearGradient
       id="linearGradient1502"
       x1="127.489"
       x2="128.405"
       y1="127.626"
       y2="115.765"
       gradientUnits="userSpaceOnUse"
       xlink:href="#innoGrad3" /><linearGradient
       id="linearGradient1504"
       x1="193.349"
       x2="194.29"
       y1="122.669"
       y2="109.327"
       gradientUnits="userSpaceOnUse"
       xlink:href="#innoGrad3" /><linearGradient
       id="linearGradient1506"
       x1="206.5"
       x2="204.215"
       y1="126.818"
       y2="109.491"
       gradientUnits="userSpaceOnUse"
       xlink:href="#innoGrad3" /><linearGradient
       id="linearGradient1508"
       x1="218.703"
       x2="217.884"
       y1="124.649"
       y2="109.734"
       gradientUnits="userSpaceOnUse"
       xlink:href="#innoGrad3" /><linearGradient
       id="linearGradient1510"
       x1="181.55"
       x2="179.375"
       y1="123.022"
       y2="112.988"
       gradientUnits="userSpaceOnUse"
       xlink:href="#innoGrad3" /><linearGradient
       id="linearGradient1512"
       x1="71.177"
       x2="72.014"
       y1="120.039"
       y2="112.24"
       gradientUnits="userSpaceOnUse"
       xlink:href="#innoGrad3" /><linearGradient
       id="linearGradient1547"
       x1="160.982"
       x2="169.441"
       y1="109.078"
       y2="127.383"
       gradientUnits="userSpaceOnUse"
       xlink:href="#innoGrad1" /><linearGradient
       id="linearGradient1555"
       x1="147.144"
       x2="147.101"
       y1="101.765"
       y2="123.596"
       gradientUnits="userSpaceOnUse"
       xlink:href="#innoGrad1" /><linearGradient
       id="linearGradient1563"
       x1="204.371"
       x2="202.974"
       y1="99.752"
       y2="128.498"
       gradientUnits="userSpaceOnUse"
       xlink:href="#innoGrad1" /><linearGradient
       id="linearGradient1571"
       x1="93.787"
       x2="93.881"
       y1="101.327"
       y2="127.597"
       gradientUnits="userSpaceOnUse"
       xlink:href="#innoGrad1" /><linearGradient
       id="linearGradient1579"
       x1="51.4"
       x2="49.345"
       y1="90.775"
       y2="121.073"
       gradientUnits="userSpaceOnUse"
       xlink:href="#innoGrad1" /><linearGradient
       id="linearGradient1605"
       x1="50.297"
       x2="50.297"
       y1="21.887"
       y2="117.928"
       gradientUnits="userSpaceOnUse"
       xlink:href="#innoGrad4" /><linearGradient
       id="linearGradient1607"
       x1="50.297"
       x2="40.88"
       y1="21.887"
       y2="116.887"
       gradientUnits="userSpaceOnUse"
       xlink:href="#innoGrad1" /><linearGradient
       id="linearGradient1656"
       x1="1.589"
       x2="44.646"
       y1="91.053"
       y2="28.315"
       gradientUnits="userSpaceOnUse"
       xlink:href="#innoGrad1" /><linearGradient
       id="linearGradient1664"
       x1="17.089"
       x2="46.67"
       y1="32.858"
       y2="24.995"
       gradientUnits="userSpaceOnUse"
       xlink:href="#innoGrad4" /><linearGradient
       id="linearGradient1672"
       x1="17.589"
       x2="50.59"
       y1="33.428"
       y2="24.996"
       gradientUnits="userSpaceOnUse"
       xlink:href="#innoGrad4" /><linearGradient
       id="linearGradient1680"
       x1="22.34"
       x2="44.188"
       y1="63.303"
       y2="72.915"
       gradientUnits="userSpaceOnUse"
       xlink:href="#innoGrad4" /><linearGradient
       id="linearGradient1696"
       x1="22.34"
       x2="41.525"
       y1="63.303"
       y2="27.557"
       gradientUnits="userSpaceOnUse"
       xlink:href="#innoGrad1" /><linearGradient
       id="linearGradient1712"
       x1="44.061"
       x2=".522"
       y1="30.437"
       y2="136.574"
       gradientUnits="userSpaceOnUse"
       xlink:href="#innoGrad5" /><linearGradient
       id="linearGradient1732"
       x1="6.786"
       x2="16.787"
       y1="51.304"
       y2="51.304"
       gradientUnits="userSpaceOnUse"
       xlink:href="#innoGrad1" /><linearGradient
       id="linearGradient1784"
       x1="205.69"
       x2="201.773"
       y1="21.887"
       y2="116.886"
       gradientUnits="userSpaceOnUse"
       xlink:href="#innoGrad4" /><linearGradient
       id="linearGradient1792"
       x1="215.12"
       x2="205.689"
       y1="116.886"
       y2="21.886"
       gradientUnits="userSpaceOnUse"
       xlink:href="#innoGrad1" /><linearGradient
       id="linearGradient1800"
       x1="254.398"
       x2="211.341"
       y1="91.053"
       y2="28.316"
       gradientUnits="userSpaceOnUse"
       xlink:href="#innoGrad4" /><linearGradient
       id="linearGradient1808"
       x1="207.148"
       x2="205.98"
       y1="27.944"
       y2="61.627"
       gradientUnits="userSpaceOnUse"
       xlink:href="#innoGrad4" /><linearGradient
       id="linearGradient1816"
       x1="210.94"
       x2="205.98"
       y1="21.887"
       y2="61.627"
       gradientUnits="userSpaceOnUse"
       xlink:href="#innoGrad4" /><linearGradient
       id="linearGradient1824"
       x1="211.417"
       x2="225.783"
       y1="53.649"
       y2="48.225"
       gradientUnits="userSpaceOnUse"
       xlink:href="#innoGrad4" /><linearGradient
       id="linearGradient1832"
       x1="224.773"
       x2="211.341"
       y1="98.12"
       y2="28.316"
       gradientUnits="userSpaceOnUse"
       xlink:href="#innoGrad1" /><linearGradient
       id="linearGradient1840"
       x1="-167.866"
       x2="-157.866"
       y1="135.842"
       y2="135.842"
       gradientUnits="userSpaceOnUse"
       xlink:href="#innoGrad1" /><linearGradient
       inkscape:collect="always"
       xlink:href="#linearGradient5536"
       id="linearGradient5538"
       x1="154.67915"
       y1="162.92271"
       x2="228.93135"
       y2="143.0269"
       gradientUnits="userSpaceOnUse"
       gradientTransform="matrix(1.3013123,0,0,1.3013123,-42.07231,-60.799736)" /><linearGradient
       inkscape:collect="always"
       xlink:href="#linearGradient5756"
       id="linearGradient5734"
       x1="159.92505"
       y1="148.98361"
       x2="201.44263"
       y2="149.43326"
       gradientUnits="userSpaceOnUse"
       gradientTransform="matrix(1.3013123,0,0,1.3013123,-42.07231,-60.799736)" /><linearGradient
       inkscape:collect="always"
       xlink:href="#linearGradient5750"
       id="linearGradient5736"
       x1="159.92505"
       y1="148.98361"
       x2="201.44263"
       y2="149.43326"
       gradientUnits="userSpaceOnUse"
       gradientTransform="matrix(1.3013123,0,0,1.3013123,-42.07231,-60.799736)" /><linearGradient
       inkscape:collect="always"
       xlink:href="#linearGradient5744"
       id="linearGradient5738"
       x1="159.92505"
       y1="148.98361"
       x2="201.44263"
       y2="149.43326"
       gradientUnits="userSpaceOnUse"
       gradientTransform="matrix(1.3013123,0,0,1.3013123,-42.07231,-60.799736)" /><linearGradient
       inkscape:collect="always"
       xlink:href="#linearGradient5756"
       id="linearGradient6179"
       x1="137.95795"
       y1="182.32718"
       x2="190.06566"
       y2="197.4973"
       gradientUnits="userSpaceOnUse"
       gradientTransform="matrix(1.3013123,0,0,1.3013123,-42.07231,-60.799736)" /><linearGradient
       inkscape:collect="always"
       xlink:href="#linearGradient5756"
       id="linearGradient7163"
       x1="158.66087"
       y1="81.863197"
       x2="162.92099"
       y2="81.863197"
       gradientUnits="userSpaceOnUse"
       gradientTransform="matrix(1.2988972,0.07924326,-0.07924326,1.2988972,-35.181955,-73.34063)" /><linearGradient
       inkscape:collect="always"
       xlink:href="#linearGradient5756"
       id="linearGradient7165"
       x1="157.839"
       y1="82.052689"
       x2="163.67857"
       y2="82.052689"
       gradientUnits="userSpaceOnUse"
       gradientTransform="matrix(1.2988972,0.07924326,-0.07924326,1.2988972,-35.181955,-73.34063)" /><linearGradient
       inkscape:collect="always"
       xlink:href="#linearGradient5536"
       id="linearGradient12429"
       gradientUnits="userSpaceOnUse"
       x1="154.67915"
       y1="162.92271"
       x2="228.70099"
       y2="143.08862"
       gradientTransform="matrix(-1.3013123,0,0,1.3013123,298.32265,-60.799736)" /><linearGradient
       inkscape:collect="always"
       xlink:href="#linearGradient5756"
       id="linearGradient12433"
       gradientUnits="userSpaceOnUse"
       x1="159.92505"
       y1="148.98361"
       x2="201.44263"
       y2="149.43326"
       gradientTransform="matrix(-1.3013123,0,0,1.3013123,298.32265,-60.799736)" /><linearGradient
       inkscape:collect="always"
       xlink:href="#linearGradient5756"
       id="linearGradient12443"
       gradientUnits="userSpaceOnUse"
       gradientTransform="matrix(-1.2988972,0.07924327,0.07924327,1.2988972,291.43229,-73.34063)"
       x1="157.839"
       y1="82.052689"
       x2="163.67857"
       y2="82.052689" /><linearGradient
       inkscape:collect="always"
       xlink:href="#linearGradient5756"
       id="linearGradient12445"
       gradientUnits="userSpaceOnUse"
       gradientTransform="matrix(-1.2988972,0.07924327,0.07924327,1.2988972,291.43229,-73.34063)"
       x1="158.66087"
       y1="81.863197"
       x2="162.92099"
       y2="81.863197" /><linearGradient
       id="linearGradient911"
       x1="130.2"
       x2="131.07001"
       y1="73.638"
       y2="33.176998"
       gradientUnits="userSpaceOnUse"><stop
         stop-color="#ff2a2a"
         offset="0"
         id="stop1892"
         style="stop-color:#ff8080;stop-opacity:1" /><stop
         stop-color="#f55"
         offset="1"
         id="stop1894"
         style="stop-color:#ff5555;stop-opacity:0;" /></linearGradient><linearGradient
       id="linearGradient903"
       x1="140.94"
       x2="112.37"
       y1="155.89999"
       y2="154.37"
       gradientUnits="userSpaceOnUse"><stop
         stop-color="#f55"
         offset="0"
         id="stop1887"
         style="stop-color:#ff8080;stop-opacity:1" /><stop
         stop-color="#ff8080"
         offset="1"
         id="stop1889"
         style="stop-color:#ffaaaa;stop-opacity:1" /></linearGradient></defs><path
     d="m 199.04429,183.42689 c 0.94557,-0.40676 1.04183,1.63252 1.6906,2.12859 1.60914,1.23038 5.27446,2.56877 3.94112,4.27094 -0.48136,-0.31606 -0.964,-0.6293 -1.48175,-0.93786 -1.40857,-0.83942 -2.94695,-1.69596 -3.74382,-2.60771 -0.52359,-0.59906 -1.54692,-2.36318 -0.40615,-2.85396 z"
     style="fill:#ff9955;stroke:#000000;stroke-width:0.650656;stroke-linecap:round;stroke-linejoin:round;stroke-dasharray:none;stroke-opacity:1;stop-color:#000000"
     id="path11902"
     sodipodi:nodetypes="sscsss" /><path
     style="color:#000000;display:inline;fill:#ff2a2a;stroke:#000000;stroke-width:0.480982;stroke-linecap:round;stroke-linejoin:round;stroke-dasharray:none;stroke-opacity:1"
     d="m 199.07629,184.26114 a 0.96196476,0.96196476 0 0 1 1.21185,0.61625 0.96196476,0.96196476 0 0 1 -0.61813,1.21373 c -16.95074,5.51314 -46.96344,7.89676 -70.74199,7.89676 a 0.96196476,0.96196476 0 0 1 -0.96196,-0.96196 0.96196476,0.96196476 0 0 1 0.96196,-0.96197 c 23.64787,0 53.68271,-2.44749 70.14827,-7.80281 z"
     id="path16932-1" /><path
     id="path11172"
     style="fill:#ff7f2a;stroke:#000000;stroke-width:0.650656;stroke-linecap:round;stroke-linejoin:round;stroke-dasharray:none;stroke-opacity:1;stop-color:#000000"
     d="m 199.16606,182.2686 c -0.66582,0.0163 -1.21367,0.18935 -1.51737,0.48546 -0.80983,0.78957 -0.76625,3.4096 0.53122,4.70707 2.25912,2.25913 6.40305,3.78594 7.08858,5.16714 0.68555,1.38118 0.49815,2.22392 0.49815,2.22392 l 1.85541,-3.98018 c 0,0 -1.55084,-4.46999 -4.74776,-7.22077 -1.16349,-1.00112 -2.59858,-1.40985 -3.70823,-1.38264 z m 0.0356,1.94687 c 0.24416,-0.28703 1.71748,0.45705 2.36626,0.95312 1.60914,1.23038 2.55233,3.03056 3.25328,4.42243 -0.48138,-0.31608 -0.96401,-0.62931 -1.48177,-0.93786 -1.40857,-0.83944 -2.94694,-1.69596 -3.74381,-2.60771 -0.52359,-0.59907 -0.63811,-1.54293 -0.39396,-1.82998 z"
     sodipodi:nodetypes="ssssccsszscssz" /><path
     style="color:#000000;fill:#ff2a2a;stroke:#000000;stroke-width:0.5;stroke-linecap:round;stroke-linejoin:round;stroke-dasharray:none;stroke-opacity:1"
     d="m 71.479195,8.3029802 c 1.42759,-1.1955212 2.74264,-0.5397787 4.5622,0.2335958 C 136.1711,34.093913 199.46857,185.2577 199.46857,185.2577 c 0.91503,1.55458 2.83226,0.453 2.17949,-1.01907 0,0 -63.4283,-154.147118 -124.866785,-177.9649828 -1.22686,-0.4756185 -2.31624,-1.0250071 -3.45637,-0.6312115 -1.58015,0.5458217 -1.85508,1.6246123 -1.84567,2.6605194 z"
     id="path7402-3-6-7"
     sodipodi:nodetypes="csccsscc" /><path
     style="color:#000000;display:inline;fill:#ff2a2a;stroke:#000000;stroke-width:0.480982;stroke-linecap:round;stroke-linejoin:round;stroke-dasharray:none;stroke-opacity:1"
     d="m 56.04151,184.26114 a 0.96196476,0.96196476 0 0 0 -1.21185,0.61625 0.96196476,0.96196476 0 0 0 0.61813,1.21373 c 16.95074,5.51314 46.96345,7.89676 70.742,7.89676 a 0.96196476,0.96196476 0 0 0 0.96196,-0.96196 0.96196476,0.96196476 0 0 0 -0.96196,-0.96197 c -23.64787,0 -53.68272,-2.44749 -70.14828,-7.80281 z"
     id="path16932" /><g
     inkscape:groupmode="layer"
     id="layer1"
     inkscape:label="Body (Base)"
     style="display:inline"
     transform="translate(-276.59812,-88.199817)" /><g
     inkscape:groupmode="layer"
     id="layer13"
     inkscape:label="Body (Lining)"
     transform="translate(-276.59812,-88.199817)" /><path
     style="color:#000000;fill:#ff2a2a;stroke:#000000;stroke-width:0.5;stroke-linecap:round;stroke-linejoin:round;stroke-dasharray:none;stroke-opacity:1"
     d="m 126.70488,193.8339 c 0,0 -3.48333,0.9313 -7.6191,2.50899 -4.13574,1.57769 -8.92921,3.73792 -11.77956,6.55516 -3.29938,3.26099 -4.51804,7.1717 -3.63328,10.38851 0.88473,3.21681 4.02371,5.48646 8.31778,5.28794 1.87901,-0.0868 3.26428,-1.44443 4.38599,-3.12195 1.12171,-1.67754 2.09903,-3.82639 3.16007,-6.15816 2.12205,-4.66352 4.57096,-10.03136 8.29872,-13.37708 a 1.2196846,1.2196846 0 0 0 -1.13062,-2.08341 z m -3.05526,3.57293 c -2.64405,3.45768 -4.73114,7.35761 -6.33284,10.87762 -1.05833,2.32582 -2.02249,4.40044 -2.96633,5.81197 -0.94383,1.41153 -1.74558,2.00859 -2.4709,2.04213 -3.45758,0.15981 -5.26326,-1.34329 -5.85643,-3.49989 -0.59313,-2.1566 0.17748,-5.21873 2.9981,-8.00655 2.28755,-2.26096 6.92279,-4.47962 10.93161,-6.0089 2.00674,-0.76552 2.3517,-0.79908 3.69679,-1.21638 z"
     id="path42207" /><path
     style="color:#000000;fill:#ff2a2a;stroke:#000000;stroke-width:0.5;stroke-linecap:round;stroke-linejoin:round;stroke-dasharray:none;stroke-opacity:1"
     d="m 128.16581,194.60247 c -0.31037,-0.0904 -0.64393,-0.0539 -0.92738,0.10156 0,0 -1.29231,0.72731 -2.54076,2.36608 -1.24842,1.63879 -2.55125,4.25371 -2.92822,8.09866 -0.70673,7.2089 -4.87419,44.74983 -4.87419,44.74983 l 2.32765,1.44255 c 0,0 4.25647,-38.6459 4.97297,-45.95418 0.33466,-3.41363 1.44912,-5.55631 2.44231,-6.86005 0.99318,-1.30372 1.76898,-1.7023 1.76898,-1.7023 0.59104,-0.32279 0.80858,-1.06354 0.48593,-1.65466 -0.15475,-0.28469 -0.41643,-0.4961 -0.72729,-0.58756 z"
     id="path42263"
     sodipodi:nodetypes="ccssccsscccc" /><path
     style="color:#000000;fill:#ff2a2a;stroke:#000000;stroke-width:0.5;stroke-linecap:round;stroke-linejoin:round;stroke-dasharray:none;stroke-opacity:1"
     d="m 131.03052,194.02445 a 1.2196846,1.2196846 0 0 0 -1.27038,2.04213 c 5.92355,5.20292 7.17875,12.21539 7.70483,18.28075 0.26304,3.03266 0.32319,5.785 0.75904,7.99702 0.21795,1.10598 0.52438,2.09878 1.11477,2.9314 0.59037,0.8326 1.54705,1.44922 2.64556,1.5816 3.04814,0.36737 6.14078,-1.23843 7.6858,-4.36375 1.54499,-3.1253 1.5835,-7.64103 -0.83846,-13.23733 -2.14042,-4.94575 -6.60913,-8.68741 -10.50284,-11.25871 -3.89372,-2.57131 -7.29832,-3.97311 -7.29832,-3.97311 z m 4.55748,5.24984 c 0.6839,0.40001 0.64712,0.26568 1.39423,0.75904 3.69023,2.43694 7.79528,5.99013 9.61358,10.19161 2.22873,5.1498 2.0239,8.89368 0.88929,11.18884 -1.13464,2.29518 -3.15825,3.27061 -5.20856,3.02352 -0.48169,-0.0581 -0.68011,-0.19158 -0.94961,-0.57169 -0.26953,-0.38008 -0.52848,-1.0629 -0.7114,-1.99129 -0.3659,-1.85683 -0.45035,-4.61691 -0.72095,-7.73662 -0.39648,-4.57116 -1.28451,-9.99766 -4.30658,-14.86341 z"
     id="path42207-3" /><path
     style="color:#000000;fill:#ff2a2a;stroke:#000000;stroke-width:0.5;stroke-linecap:round;stroke-linejoin:round;stroke-dasharray:none;stroke-opacity:1"
     d="m 129.42347,194.74222 c -0.31085,0.0915 -0.57253,0.30285 -0.72728,0.58753 -0.32267,0.59112 -0.10513,1.33188 0.48592,1.65467 0,0 0.77264,0.39859 1.76582,1.7023 0.9932,1.30375 2.10763,3.44642 2.44231,6.86004 0.67941,6.93005 1.7198,42.82414 1.7198,42.82414 l 2.29174,-1.03595 c 0,0 -0.8381,-34.43922 -1.58195,-42.02637 -0.37694,-3.84494 -1.68295,-6.45987 -2.93139,-8.09867 -1.24842,-1.63877 -2.53759,-2.36607 -2.53759,-2.36607 -0.28345,-0.15543 -0.61701,-0.19196 -0.92738,-0.10157 z"
     id="path42263-0"
     sodipodi:nodetypes="cccssccssccc" /><path
     style="color:#000000;display:inline;fill:#ff2a2a;stroke:#000000;stroke-width:0.5;stroke-linecap:round;stroke-linejoin:round;stroke-dasharray:none;stroke-opacity:1"
     d="m 128.21638,191.91515 c 0.59635,0.65057 0.93283,1.80869 0.95302,2.72285 0.0203,0.91414 0.12782,2.93107 -0.21483,3.63659 -0.1456,1.11292 1.55951,0.99761 2.19457,-0.134 0.84272,-2.42728 0.81116,-4.90678 -0.6435,-6.52526 -0.4494,-0.40296 -2.04883,-0.79825 -2.28926,0.29982 z"
     id="path42569-2"
     sodipodi:nodetypes="cccccc" /><path
     style="color:#000000;fill:#ff2a2a;stroke:#000000;stroke-width:0.5;stroke-linecap:round;stroke-linejoin:round;stroke-dasharray:none;stroke-opacity:1"
     d="m 126.06164,192.03645 c 1.21456,1.91145 1.15164,4.25305 0.73819,6.35943 -0.14561,1.11293 1.55951,0.99762 2.19457,-0.134 0.84272,-2.42728 0.54885,-5.33768 -0.90579,-6.95617 -0.99272,-0.30929 -1.78653,-0.36733 -2.02697,0.73074 z"
     id="path42569"
     sodipodi:nodetypes="ccccc" /><path
     style="fill:#ff9955;stroke:#000000;stroke-width:0.5;stroke-linecap:round;stroke-linejoin:round;stroke-opacity:1;stop-color:#000000;stroke-dasharray:none"
     d="m 172.62286,173.93626 c -3.55956,-0.29258 -4.6323,3.1207 -3.21823,4.48601 1.41408,1.36531 5.21489,6.69377 20.63779,12.06321 8.21692,2.86071 13.86402,3.83994 14.89506,2.93076 1.8294,-1.6132 1.13767,-4.44788 -2.3791,-10.06796 3.44937,1.88986 4.65166,4.9728 5.06849,6.41315 0.48724,1.68375 0.73985,3.26627 0.68957,4.6547 l -1.86187,4.20647 -14.55029,-2.27563 -24.27343,-11.30921 -31.8705,-22.19129 2.08176,-3.15739 z"
     id="path6181"
     sodipodi:nodetypes="cssscsccccccc" /><path
     style="fill:url(#linearGradient5538);fill-opacity:1;stroke:#000000;stroke-width:0.5;stroke-linecap:round;stroke-linejoin:round;stroke-opacity:1;stop-color:#000000;stroke-dasharray:none"
     d="m 141.17195,155.212 14.33576,-14.23827 7.41168,-22.72266 -1.56034,-24.380557 8.87451,9.459647 23.99048,8.09433 7.60672,-0.19503 23.99047,3.80337 3.9009,9.45966 -3.51082,19.89454 -8.09434,18.9193 -18.33417,8.97205 -18.04162,-0.3901 z"
     id="path5367" /><path
     style="fill:#ff9955;stroke:#000000;stroke-width:0.5;stroke-linecap:round;stroke-linejoin:round;stroke-opacity:1;stop-color:#000000;stroke-dasharray:none"
     d="m 140.0773,153.51217 c 0,0 5.68061,1.34502 9.05563,2.17156 3.37501,0.82652 31.47723,12.67354 44.7018,9.91842 13.22458,-2.75511 19.07921,-13.15569 14.87765,-19.21694 -4.20157,-6.06126 -12.78278,-5.7607 -17.2195,-5.09699 -4.4278,0.66237 -10.40309,1.30028 -13.17923,0.81324 -2.77613,-0.48703 -6.81856,-4.04244 -6.81856,-4.04244 l 31.56024,-2.82483 8.68769,3.50556 4.3393,8.05872 0.20663,10.12506 -6.26789,9.78067 -12.94906,5.648 -25.55373,-3.09951 -43.25536,-13.08683 z"
     id="path3049"
     sodipodi:nodetypes="cssssscccccccccc" /><path
     id="path3049-9"
     style="fill:#ff9955;stroke:#000000;stroke-width:0.5;stroke-linecap:round;stroke-linejoin:round;stop-color:#000000;stroke-dasharray:none"
     d="m 202.83108,136.7608 -27.08865,2.42472 c 1.03406,0.62249 2.17088,1.32268 2.83137,1.43856 2.19563,0.38517 8.32606,-0.16695 12.69796,-0.82095 2.32574,-0.34792 5.71861,-0.61074 9.19308,0.0356 3.47446,0.64634 7.10041,2.26004 9.48025,5.69325 2.51563,3.62909 1.94103,8.49445 -0.90736,12.56326 -2.8484,4.06879 -7.96095,7.53158 -14.899,8.97702 -7.24047,1.50843 -17.59977,-0.9026 -26.77857,-3.64724 -4.58941,-1.37233 -8.85572,-2.85592 -12.18203,-4.04372 -3.32629,-1.1878 -5.89329,-2.11767 -6.39979,-2.24172 -3.23742,-0.79284 -8.31467,-1.99307 -8.71015,-2.08667 l -5.91436,1.32673 37.6745,11.39918 25.01722,3.03471 12.15914,-5.30184 5.77458,-9.01259 -0.18809,-9.30744 -3.91411,-7.26143 z" /><path
     style="fill:#ff9955;stroke:#000000;stroke-width:0.5;stroke-linecap:round;stroke-linejoin:round;stroke-opacity:1;stop-color:#000000;stroke-dasharray:none"
     d="m 219.76358,164.28121 c 0,0 6.3442,-10.75754 9.30942,-22.48049 2.93844,-11.61709 3.9363,-24.49243 -2.74395,-25.76022 -6.68028,-1.26778 -24.83961,-2.12917 -24.83961,-2.12917 12.97985,5.69016 20.30154,3.6458 23.60038,6.53399 3.19199,2.79463 2.05234,11.97702 -2.08519,23.90685 -4.1375,11.92986 -10.20587,21.30822 -10.20587,21.30822 l -4.68918,5.99939 2.75835,0.20689 5.51668,-3.79273 z"
     id="path3977"
     sodipodi:nodetypes="csscssccccc" /><path
     id="path3977-6"
     style="fill:#ff9955;stroke:#000000;stroke-width:0.5;stroke-linecap:round;stroke-linejoin:round;stop-color:#000000;stroke-dasharray:none"
     d="m 212.169,115.9398 c 1.75776,0.38267 3.51131,0.74732 4.94601,0.95566 3.82624,0.55563 6.72286,0.66312 8.86265,2.53654 2.20624,1.93158 2.58066,5.36501 2.16038,9.67343 -0.42029,4.30842 -1.76946,9.65964 -3.86074,15.68944 -3.09104,9.13368 -7.33997,17.76527 -13.25199,25.3248 l 4.94581,-2.0653 2.67907,-4.55055 c 0.0859,-0.14649 6.23574,-10.64307 9.11682,-22.03335 1.44907,-5.72892 2.40135,-11.77522 2.19341,-16.37061 -0.10392,-2.29768 -0.50775,-4.22015 -1.17169,-5.52041 -0.66393,-1.30025 -1.45836,-1.97586 -2.7119,-2.21376 -3.00254,-0.56981 -8.75975,-1.05474 -13.90778,-1.42584 z"
     sodipodi:nodetypes="csssccccsssssc" /><path
     id="path4080"
     style="fill:url(#linearGradient5738);fill-opacity:1;stroke:#000000;stroke-width:0.5;stroke-linecap:round;stroke-linejoin:round;stroke-opacity:1;stop-color:#000000;stroke-dasharray:none"
     d="m 157.87518,55.404975 c -2.31453,0.03791 -4.64308,0.961154 -5.92745,4.186996 -2.09671,5.266195 6.19396,21.794435 6.19396,21.794435 l 10.2402,14.629596 c 0,0 7.99648,4.925888 14.53046,6.486228 6.534,1.56035 9.26407,1.31574 10.33679,3.50999 1.07275,2.19426 1.16915,4.48597 1.16915,4.48597 l 5.86718,3.20653 c 17.51058,4.14193 22.19389,1.87273 27.14599,3.71686 3.05353,1.13711 3.68503,5.64286 3.68503,5.64286 0,0 -0.80812,-9.88392 -5.00158,-11.29799 -4.19345,-1.41406 -14.92193,-1.17104 -18.87157,-2.29254 -3.94965,-1.12151 -3.75595,-2.53495 -3.02454,-3.75398 0.73142,-1.21903 2.63432,-3.55991 -0.38887,-6.29052 -3.02317,-2.730624 -7.21629,-2.975684 -13.2139,-3.56081 -5.99761,-0.585144 -19.21268,-2.680322 -25.74667,-13.602792 -6.53397,-10.922473 -6.4354,-14.822757 -6.4354,-14.822757 0,0 2.58459,-0.195627 4.24245,-1.65846 1.38214,-1.219554 2.63235,-5.802177 0.0968,-8.33775 -1.10931,-1.109316 -2.70851,-2.077724 -4.898,-2.041866 z m 0.0835,3.782878 c 1.24815,-6.16e-4 2.26013,1.01136 2.25951,2.259505 -7.9e-4,1.247153 -1.01235,2.257577 -2.25951,2.256963 -1.24616,-7.93e-4 -2.25615,-1.010806 -2.25695,-2.256963 -6.1e-4,-1.247149 1.00981,-2.258711 2.25695,-2.259505 z"
     sodipodi:nodetypes="ssccssccscsssssscsssccccc" /><path
     id="path4080-6"
     style="fill:none;stroke:#000000;stroke-width:0.25;stroke-linecap:round;stroke-linejoin:round;stop-color:#000000;stroke-dasharray:none"
     d="m 155.88471,71.850234 c 1.75797,4.651125 3.7493,8.619528 3.78194,8.684737 l 9.90726,14.154308 c 0.44775,0.269264 7.87888,4.722498 13.74256,6.122781 3.19383,0.7627 5.43822,1.07125 7.23348,1.5199 1.79525,0.44861 3.45912,1.27486 4.2623,2.91777 0.86393,1.76714 1.10969,3.20715 1.21999,4.15048 l 2.95051,2.40701 c 16.49065,3.87062 23.02901,2.10955 28.44364,3.853 -0.0975,-0.19683 -0.15293,-0.4726 -0.25672,-0.64811 -0.54322,-0.91867 -1.1281,-1.43571 -1.61139,-1.59869 -1.64271,-0.55393 -5.4021,-0.91369 -9.09139,-1.16914 -3.68928,-0.25545 -7.29431,-0.41522 -9.69883,-1.09799 -2.16666,-0.61522 -3.5719,-1.31395 -4.31823,-2.67633 -0.37316,-0.68117 -0.44969,-1.48944 -0.33294,-2.12225 0.11672,-0.6328 0.36827,-1.11961 0.60998,-1.52243 0.45535,-0.75893 0.89501,-1.42196 0.99378,-1.98501 0.0987,-0.56307 0.13619,-1.04171 -1.05732,-2.11972 -2.46808,-2.229239 -6.18619,-2.532921 -12.21505,-3.121105 -6.15117,-0.600122 -20.05691,-2.716743 -27.07084,-14.441523 -3.3158,-5.542796 -4.98025,-9.351763 -5.82287,-11.841434 -0.51527,-1.046436 -1.943,-0.371655 -1.66986,0.533746 z"
     sodipodi:nodetypes="cccssscccssssssssssscc" /><ellipse
     style="fill:#ff7f2a;stroke:#000000;stroke-width:0.5;stroke-linecap:round;stroke-linejoin:round;stroke-opacity:1;stop-color:#000000;stroke-dasharray:none"
     id="path7167"
     cx="169.43279"
     cy="-31.876429"
     rx="1.7304145"
     ry="1.4140723"
     transform="rotate(27.601789)" /><g
     id="path7402"
     transform="matrix(1.3013122,0,0,1.3013122,-42.072308,-60.799735)"><path
       style="color:#000000;fill:#ff7f2a;stroke-width:2;stroke-linecap:round;stroke-linejoin:round;-inkscape-stroke:none"
       d="m 154.42021,93.446156 4.82977,-8.486189"
       id="path7432" /><path
       style="color:#000000;fill:#ff8080;stroke:#000000;stroke-width:0.5;stroke-linecap:round;stroke-linejoin:round;stroke-dasharray:none;stroke-opacity:1"
       d="m 158.98437,83.996094 a 1,1 0 0 0 -0.60351,0.46875 l -4.83008,8.486328 a 1,1 0 0 0 0.375,1.363281 1,1 0 0 0 1.36328,-0.373047 l 4.83008,-8.486328 a 1,1 0 0 0 -0.375,-1.363281 1,1 0 0 0 -0.75977,-0.0957 z"
       id="path7434" /></g><path
     style="color:#000000;fill:#ff8080;stroke:#000000;stroke-width:0.650656;stroke-linecap:round;stroke-linejoin:round;stroke-dasharray:none;stroke-opacity:1"
     d="m 184.14028,6.0111818 c 1.46852,1.1448814 1.0593,2.560302 0.72914,4.5096312 -0.33748,1.992463 -1.50356,4.858979 -3.24313,8.102701 -3.47912,6.487445 -9.02283,14.582899 -13.23677,22.211262 -0.3478,0.629517 -0.11895,1.421801 0.51087,1.768972 0.62951,0.347802 1.42178,0.118992 1.76896,-0.510866 4.12247,-7.462783 9.65665,-15.535007 13.25204,-22.239221 1.79768,-3.352108 2.92452,-6.482018 3.31583,-9.084438 0.19564,-1.3012102 0.51604,-2.4797681 -0.10827,-3.5118572 -0.86531,-1.4304118 -2.52944,-2.3347866 -4.74709,-1.7633728 z"
     id="path7402-3"
     sodipodi:nodetypes="csscccssscc" /><path
     d="m 57.206027,183.42689 c -0.945573,-0.40676 -1.04183,1.63252 -1.6906,2.12859 -1.609137,1.23038 -5.274465,2.56877 -3.941127,4.27094 0.481368,-0.31606 0.964011,-0.6293 1.481764,-0.93786 1.408567,-0.83942 2.946939,-1.69596 3.74381,-2.60771 0.523597,-0.59906 1.546922,-2.36318 0.406153,-2.85396 z"
     style="fill:#ff9955;stroke:#000000;stroke-width:0.650656;stroke-linecap:round;stroke-linejoin:round;stroke-dasharray:none;stroke-opacity:1;stop-color:#000000"
     id="path11902-8"
     sodipodi:nodetypes="sscsss" /><path
     id="path11172-1"
     style="fill:#ff7f2a;stroke:#000000;stroke-width:0.650656;stroke-linecap:round;stroke-linejoin:round;stroke-dasharray:none;stroke-opacity:1;stop-color:#000000"
     d="m 57.084263,182.2686 c 0.665803,0.0163 1.213668,0.18935 1.517356,0.48546 0.809833,0.78957 0.766265,3.4096 -0.531209,4.70707 -2.259116,2.25913 -6.403054,3.78594 -7.088585,5.16714 -0.685545,1.38118 -0.498155,2.22392 -0.498155,2.22392 l -1.855398,-3.98018 c 0,0 1.550838,-4.46999 4.74776,-7.22077 1.163489,-1.00112 2.598564,-1.40985 3.708231,-1.38264 z m -0.03553,1.94687 c -0.244152,-0.28703 -1.717484,0.45705 -2.366254,0.95312 -1.609137,1.23038 -2.552342,3.03056 -3.25328,4.42243 0.481368,-0.31608 0.964012,-0.62931 1.481764,-0.93786 1.408567,-0.83944 2.94694,-1.69596 3.74381,-2.60771 0.523598,-0.59907 0.638112,-1.54293 0.39396,-1.82998 z"
     sodipodi:nodetypes="ssssccsszscssz" /><path
     style="color:#000000;fill:#ff2a2a;stroke:#000000;stroke-width:0.5;stroke-linecap:round;stroke-linejoin:round;stroke-dasharray:none;stroke-opacity:1"
     d="M 185.11556,8.3029802 C 183.68797,7.107459 182.37292,7.7632015 180.55336,8.536576 120.42365,34.093913 57.126187,185.2577 57.126187,185.2577 c -0.915028,1.55458 -2.83226,0.453 -2.179488,-1.01907 0,0 63.428291,-154.147118 124.866781,-177.9649828 1.22686,-0.4756185 2.31624,-1.0250071 3.45637,-0.6312115 1.58015,0.5458217 1.85508,1.6246123 1.84567,2.6605194 z"
     id="path7402-3-6"
     sodipodi:nodetypes="csccsscc" /><path
     style="color:#000000;fill:#ff8080;stroke:#000000;stroke-width:0.650656;stroke-linecap:round;stroke-linejoin:round;stroke-dasharray:none;stroke-opacity:1"
     d="m 72.454475,6.0111818 c -1.46852,1.1448814 -1.0593,2.560302 -0.72914,4.5096312 0.33748,1.992463 1.50356,4.858979 3.24313,8.102701 3.47912,6.487445 9.02283,14.582899 13.23677,22.211262 0.3478,0.629517 0.11895,1.421801 -0.51087,1.768972 -0.62951,0.347802 -1.42178,0.118992 -1.76896,-0.510866 -4.12247,-7.462783 -9.65665,-15.535007 -13.25204,-22.239221 -1.79768,-3.352108 -2.92452,-6.482018 -3.31583,-9.084438 -0.19564,-1.3012102 -0.51604,-2.4797681 0.10827,-3.5118572 0.86531,-1.4304118 2.52944,-2.3347866 4.74709,-1.7633728 z"
     id="path7402-3-0"
     sodipodi:nodetypes="csscccssscc" /><path
     style="fill:url(#linearGradient7165);fill-opacity:1;stroke:#000000;stroke-width:0.5;stroke-linecap:round;stroke-linejoin:round;stroke-opacity:1;stop-color:#000000;stroke-dasharray:none"
     d="m 163.44134,49.304135 c 1.20296,-0.421438 2.8376,0.108139 2.88486,1.959089 l 4.50055,-8.909562 c -0.3727,-1.257147 -1.74452,-2.006767 -3.16236,-1.414223 z"
     id="path7153"
     sodipodi:nodetypes="ccccc" /><path
     style="fill:url(#linearGradient7163);fill-opacity:1;stroke:#000000;stroke-width:0.5;stroke-linecap:round;stroke-linejoin:round;stroke-opacity:1;stop-color:#000000;stroke-dasharray:none"
     d="m 164.7337,45.683824 c 1.40436,-0.467413 3.62093,-0.151767 3.85517,2.202205 l 1.02795,-1.889479 c -0.11152,-2.141986 -2.5088,-2.868812 -3.90376,-2.258949 z"
     id="path7155"
     sodipodi:nodetypes="ccccc" /><path
     style="fill:url(#linearGradient12429);fill-opacity:1;stroke:#000000;stroke-width:0.5;stroke-linecap:round;stroke-linejoin:round;stroke-opacity:1;stop-color:#000000;stroke-dasharray:none"
     d="m 115.07837,155.212 -14.33575,-14.23827 -7.411695,-22.72266 1.560351,-24.380557 -8.874518,9.459647 -23.990476,8.09433 -7.606729,-0.19503 -23.99047,3.80337 -3.900891,9.45966 3.51081,19.89454 8.094343,18.9193 18.334174,8.97205 18.041618,-0.3901 z"
     id="path5367-1" /><path
     id="path1924"
     style="fill:#ff9955;stroke:#000000;stroke-width:0.5;stroke-linecap:round;stroke-linejoin:round;stroke-opacity:1;stop-color:#000000;stroke-dasharray:none"
     d="m 96.497087,94.775991 -1.433552,1.878834 c -7.117234,40.063425 15.125945,58.926885 33.061895,55.859715 17.93596,3.06717 40.17913,-15.79629 33.0619,-55.859715 l -1.43354,-1.878834 c 0.41327,7.828399 1.04201,29.143579 -11.92875,45.685809 -6.74699,8.60479 -16.62898,8.36083 -19.69961,8.36083 -3.07063,0 -12.95261,0.24396 -19.69961,-8.36083 C 95.455071,123.91957 96.083817,102.60439 96.497087,94.775991 Z" /><path
     style="fill:#ff9955;stroke:#000000;stroke-width:0.5;stroke-linecap:round;stroke-linejoin:round;stroke-opacity:1;stop-color:#000000;stroke-dasharray:none"
     d="m 116.17302,153.51217 c 0,0 -5.68061,1.34502 -9.05564,2.17156 -3.37501,0.82652 -31.47722,12.67354 -44.701797,9.91842 -13.224572,-2.75511 -19.079201,-13.15569 -14.877642,-19.21694 4.20156,-6.06126 12.782776,-5.7607 17.219496,-5.09699 4.427798,0.66237 10.403098,1.30028 13.179239,0.81324 2.776129,-0.48703 6.818563,-4.04244 6.818563,-4.04244 l -31.560247,-2.82483 -8.687689,3.50556 -4.339304,8.05872 -0.206636,10.12506 6.267901,9.78067 12.949058,5.648 25.553728,-3.09951 43.25537,-13.08683 z"
     id="path3049-4"
     sodipodi:nodetypes="cssssscccccccccc" /><path
     id="path3049-9-8"
     style="fill:#ff9955;stroke:#000000;stroke-width:0.5;stroke-linecap:round;stroke-linejoin:round;stop-color:#000000;stroke-dasharray:none"
     d="m 53.419235,136.7608 27.088652,2.42472 c -1.034062,0.62249 -2.170875,1.32268 -2.831369,1.43856 -2.195613,0.38517 -8.326055,-0.16695 -12.697962,-0.82095 -2.32573,-0.34792 -5.718603,-0.61074 -9.193067,0.0356 -3.474465,0.64634 -7.100428,2.26004 -9.480255,5.69325 -2.515631,3.62909 -1.941036,8.49445 0.907354,12.56326 2.84839,4.06879 7.960945,7.53158 14.899008,8.97702 7.240468,1.50843 17.599757,-0.9026 26.778576,-3.64724 4.589403,-1.37233 8.855702,-2.85592 12.182018,-4.04372 3.32629,-1.1878 5.89328,-2.11767 6.39979,-2.24172 3.23742,-0.79284 8.31467,-1.99307 8.71016,-2.08667 l 5.91435,1.32673 -37.674504,11.39918 -25.017224,3.03471 -12.159134,-5.30184 -5.774573,-9.01259 0.188079,-9.30744 3.914113,-7.26143 z" /><path
     style="fill:#ff9955;stroke:#000000;stroke-width:0.5;stroke-linecap:round;stroke-linejoin:round;stroke-opacity:1;stop-color:#000000;stroke-dasharray:none"
     d="m 36.486731,164.28121 c 0,0 -6.344197,-10.75754 -9.309419,-22.48049 -2.938441,-11.61709 -3.936299,-24.49243 2.74396,-25.76022 6.680272,-1.26778 24.839602,-2.12917 24.839602,-2.12917 -12.979847,5.69016 -20.301536,3.6458 -23.600376,6.53399 -3.191988,2.79463 -2.052338,11.97702 2.085184,23.90685 4.137509,11.92986 10.205866,21.30822 10.205866,21.30822 l 4.689188,5.99939 -2.75834,0.20689 -5.516692,-3.79273 z"
     id="path3977-68"
     sodipodi:nodetypes="csscssccccc" /><path
     style="fill:#ff9955;stroke:#000000;stroke-width:0.5;stroke-linecap:round;stroke-linejoin:round;stroke-opacity:1;stop-color:#000000;stroke-dasharray:none"
     d="m 83.627458,173.93626 c 3.55957,-0.29258 4.632306,3.1207 3.218236,4.48601 -1.414071,1.36531 -5.214892,6.69377 -20.637801,12.06321 -8.216915,2.86071 -13.864024,3.83994 -14.895053,2.93076 -1.829399,-1.6132 -1.137672,-4.44788 2.379098,-10.06796 -3.449376,1.88986 -4.651657,4.9728 -5.068481,6.41315 -0.487251,1.68375 -0.739861,3.26627 -0.689578,4.6547 l 1.861878,4.20647 14.550271,-2.27563 24.273446,-11.30921 31.870486,-22.19129 -2.08175,-3.15739 z"
     id="path6181-6"
     sodipodi:nodetypes="cssscsccccccc" /><path
     id="path3977-6-9"
     style="fill:#ff9955;stroke:#000000;stroke-width:0.5;stroke-linecap:round;stroke-linejoin:round;stop-color:#000000;stroke-dasharray:none"
     d="m 44.081304,115.9398 c -1.757746,0.38267 -3.511304,0.74732 -4.946,0.95566 -3.826235,0.55563 -6.722853,0.66312 -8.862652,2.53654 -2.206231,1.93158 -2.580658,5.36501 -2.160374,9.67343 0.420286,4.30842 1.76946,9.65964 3.860734,15.68944 3.091046,9.13368 7.339973,17.76527 13.25199,25.3248 l -4.945806,-2.0653 -2.679076,-4.55055 c -0.08588,-0.14649 -6.235732,-10.64307 -9.116811,-22.03335 -1.449076,-5.72892 -2.401351,-11.77522 -2.193414,-16.37061 0.103973,-2.29768 0.507747,-4.22015 1.171689,-5.52041 0.663942,-1.30025 1.458368,-1.97586 2.711908,-2.21376 3.00253,-0.56981 8.759743,-1.05474 13.907774,-1.42584 z"
     sodipodi:nodetypes="csssccccsssssc" /><path
     id="path4080-60"
     style="fill:url(#linearGradient12433);fill-opacity:1;stroke:#000000;stroke-width:0.5;stroke-linecap:round;stroke-linejoin:round;stroke-opacity:1;stop-color:#000000;stroke-dasharray:none"
     d="m 98.375137,55.404975 c 2.314533,0.03791 4.643093,0.961154 5.927453,4.186996 2.09671,5.266195 -6.193949,21.794435 -6.193949,21.794435 L 87.868434,96.016002 c 0,0 -7.996485,4.925888 -14.530465,6.486228 -6.533998,1.56035 -9.264072,1.31574 -10.336796,3.50999 -1.072749,2.19426 -1.16915,4.48597 -1.16915,4.48597 l -5.867174,3.20653 c -17.510574,4.14193 -22.193893,1.87273 -27.145996,3.71686 -3.05353,1.13711 -3.68503,5.64286 -3.68503,5.64286 0,0 0.808128,-9.88392 5.001593,-11.29799 4.193439,-1.41406 14.921912,-1.17104 18.871563,-2.29254 3.949652,-1.12151 3.755952,-2.53495 3.024537,-3.75398 -0.731416,-1.21903 -2.634325,-3.55991 0.38887,-6.29052 3.02317,-2.730624 7.216296,-2.975684 13.213901,-3.56081 5.997611,-0.585144 19.212683,-2.680322 25.746674,-13.602792 6.53398,-10.922473 6.435393,-14.822757 6.435393,-14.822757 0,0 -2.584576,-0.195627 -4.242434,-1.65846 -1.382149,-1.219554 -2.632359,-5.802177 -0.09682,-8.33775 1.109303,-1.109316 2.708512,-2.077724 4.897994,-2.041866 z m -0.08354,3.782878 c -1.24814,-6.16e-4 -2.260119,1.01136 -2.259507,2.259505 7.93e-4,1.247153 1.012355,2.257577 2.259507,2.256963 1.246159,-7.93e-4 2.256163,-1.010806 2.256953,-2.256963 6.2e-4,-1.247149 -1.009804,-2.258711 -2.256953,-2.259505 z"
     sodipodi:nodetypes="ssccssccscsssssscsssccccc" /><path
     id="path4080-6-7"
     style="fill:none;stroke:#000000;stroke-width:0.25;stroke-linecap:round;stroke-linejoin:round;stop-color:#000000;stroke-dasharray:none"
     d="m 100.36562,71.850234 c -1.757978,4.651125 -3.749311,8.619528 -3.781947,8.684737 l -9.907254,14.154308 c -0.447755,0.269264 -7.878885,4.722498 -13.742572,6.122781 -3.193823,0.7627 -5.438216,1.07125 -7.233479,1.5199 -1.795251,0.44861 -3.459122,1.27486 -4.262305,2.91777 -0.863928,1.76714 -1.109681,3.20715 -1.219981,4.15048 l -2.950516,2.40701 c -16.490643,3.87062 -23.029008,2.10955 -28.443639,3.853 0.09759,-0.19683 0.152931,-0.4726 0.256711,-0.64811 0.543231,-0.91867 1.12812,-1.43571 1.611388,-1.59869 1.642711,-0.55393 5.402111,-0.91369 9.091397,-1.16914 3.689284,-0.25545 7.294322,-0.41522 9.698835,-1.09799 2.166659,-0.61522 3.571893,-1.31395 4.318222,-2.67633 0.373177,-0.68117 0.449695,-1.48944 0.332954,-2.12225 -0.116728,-0.6328 -0.368285,-1.11961 -0.60999,-1.52243 -0.455343,-0.75893 -0.895004,-1.42196 -0.993774,-1.98501 -0.09877,-0.56307 -0.136194,-1.04171 1.057317,-2.11972 2.468081,-2.229239 6.18619,-2.532921 12.215052,-3.121105 6.151165,-0.600122 20.056908,-2.716743 27.070851,-14.441523 3.315782,-5.542796 4.980238,-9.351763 5.822864,-11.841434 0.515264,-1.046436 1.943006,-0.371655 1.669866,0.533746 z"
     sodipodi:nodetypes="cccssscccssssssssssscc" /><path
     id="path2024"
     style="fill:url(#linearGradient5736);fill-opacity:1;stroke:#000000;stroke-width:0.5;stroke-linecap:round;stroke-linejoin:round;stroke-opacity:1;stop-color:#000000;stroke-dasharray:none"
     d="M 98.587891 80.544922 C 98.587891 80.544922 87.694562 96.311845 84.939453 100.03125 C 82.184331 103.75067 69.166241 106.57362 64.207031 107.95117 C 59.247827 109.32874 55.113678 110.84399 55.320312 118.07617 C 55.526947 125.30834 62.828902 125.85863 66.617188 126.47852 C 70.405477 127.09843 73.641731 128.68415 75.570312 129.64844 C 77.498895 130.61272 77.155418 132.60925 75.708984 132.88477 C 74.262539 133.16029 70.014577 133.33403 63.568359 132.36133 C 53.39656 130.82645 43.406293 132.75001 38.828125 145.02344 C 34.249944 157.29686 46.814453 170.74023 46.814453 170.74023 C 43.022382 169.57234 39.700624 167.38035 36.5625 164.4082 C 36.5625 164.4082 43.620212 175.82704 56.458984 177.55859 C 77.285754 180.3675 109.39583 164.65363 114.90039 162.57227 C 119.78587 160.72499 125.52314 160.43555 128.125 160.43555 C 130.72688 160.43555 136.46413 160.72499 141.34961 162.57227 C 146.85417 164.65363 178.96621 180.3675 199.79297 177.55859 C 212.63175 175.82704 219.6875 164.4082 219.6875 164.4082 C 216.54938 167.38035 213.22763 169.57234 209.43555 170.74023 C 209.43555 170.74023 222.00201 157.29686 217.42383 145.02344 C 212.84566 132.75001 202.85344 130.82645 192.68164 132.36133 C 186.23544 133.33403 181.98745 133.16029 180.54102 132.88477 C 179.09458 132.60925 178.75109 130.61272 180.67969 129.64844 C 182.60826 128.68415 185.84454 127.09843 189.63281 126.47852 C 193.42111 125.85863 200.72306 125.30834 200.92969 118.07617 C 201.13633 110.84399 197.00218 109.32874 192.04297 107.95117 C 187.08378 106.57362 174.06762 103.75067 171.3125 100.03125 C 168.55738 96.311845 157.66211 80.544922 157.66211 80.544922 C 156.77701 81.379321 156.84256 82.50063 157.17578 83.802734 C 157.17578 83.802734 163.66602 100.92644 168.07422 104.99023 C 172.4824 109.05402 186.8772 114.2887 190.73438 115.11523 C 193.08812 115.61961 193.2192 117.7771 191.08398 118.32812 C 188.94879 118.87914 177.37291 119.86657 173.24023 124.61914 C 169.10756 129.37171 168.00463 137.43119 174.13477 139.56641 C 180.26489 141.70161 190.73608 138.80924 194.66211 138.46484 C 198.58816 138.12045 214.56732 136.32849 214.70508 151.06836 C 214.84285 165.80822 199.27568 170.28669 188.59961 169.04688 C 177.92353 167.80708 147.48055 158.37066 141.76367 157.13086 C 136.04681 155.89106 128.125 156.23437 128.125 156.23438 C 128.125 156.23437 120.20515 155.89106 114.48828 157.13086 C 108.77142 158.37066 78.326461 167.80708 67.650391 169.04688 C 56.974314 170.28669 41.407165 165.80822 41.544922 151.06836 C 41.682679 136.32849 57.663801 138.12045 61.589844 138.46484 C 65.515885 138.80924 75.985111 141.70161 82.115234 139.56641 C 88.245371 137.43119 87.142442 129.37171 83.009766 124.61914 C 78.877088 119.86657 67.303173 118.87914 65.167969 118.32812 C 63.032752 117.7771 63.161866 115.61961 65.515625 115.11523 C 69.372793 114.2887 83.767591 109.05402 88.175781 104.99023 C 92.583972 100.92644 99.074219 83.802734 99.074219 83.802734 C 99.407428 82.50063 99.472988 81.379321 98.587891 80.544922 z " /><path
     id="path5931"
     style="fill:url(#linearGradient6179);fill-opacity:1;stroke:#000000;stroke-width:0.5;stroke-linecap:round;stroke-linejoin:round;stroke-opacity:1;stop-color:#000000;stroke-dasharray:none"
     d="M 128.125 160.43555 C 108.35681 160.43555 107.00806 171.83352 83.773438 185.24805 C 73.283791 191.30424 55.417069 196.82992 50.898438 196.62305 C 48.615807 196.51854 48.001953 194.48438 48.001953 194.48438 C 47.940555 197.00937 48.394977 201.21841 50.484375 201.44531 C 52.851277 201.70236 61.840417 201.48121 78.34375 193.72656 C 97.331853 184.80438 112.90508 168.30449 117.7207 165.79883 C 120.93718 164.12525 124.28163 163.8418 128.125 163.8418 C 131.96839 163.8418 135.31477 164.12525 138.53125 165.79883 C 143.34689 168.30449 158.91815 184.80438 177.90625 193.72656 C 194.40958 201.48121 203.39872 201.70236 205.76562 201.44531 C 207.85502 201.21841 208.30944 197.00937 208.24805 194.48438 C 208.24805 194.48438 207.63419 196.51854 205.35156 196.62305 C 200.83294 196.82992 182.96621 191.30424 172.47656 185.24805 C 149.24193 171.83352 147.89321 160.43555 128.125 160.43555 z " /><path
     id="path2024-4-4"
     style="fill:none;stroke:#000000;stroke-width:0.25;stroke-linecap:round;stroke-linejoin:round;stop-color:#000000;stroke-dasharray:none"
     d="M 94.392578 89.935547 C 91.049679 94.745866 88.153644 98.966872 86.505859 101.19141 C 85.449897 102.61693 83.896394 103.5271 82.078125 104.40039 C 80.259855 105.27368 78.152297 106.04064 75.992188 106.72852 C 71.671966 108.10428 67.115341 109.16902 64.728516 109.83203 C 62.292097 110.50882 60.320723 111.20785 59.126953 112.27539 C 57.933194 113.34292 57.178824 114.78058 57.271484 118.02148 C 57.356096 120.98295 58.574201 122.08617 60.472656 123 C 62.371099 123.91382 64.933102 124.22537 66.933594 124.55273 C 71.069425 125.2295 74.497405 126.92741 76.443359 127.90039 C 77.931552 128.64448 78.914799 130.1037 78.855469 131.60156 C 78.796065 133.09946 77.623261 134.50607 76.076172 134.80078 C 74.087756 135.17951 69.88059 135.2877 63.275391 134.29102 C 58.401644 133.55559 53.722392 133.69039 49.855469 135.31445 C 47.104296 136.4699 44.719943 138.40627 42.792969 141.4668 C 44.664532 139.27712 47.122499 137.9794 49.583984 137.24023 C 54.601526 135.73349 59.858222 136.35289 61.757812 136.51953 C 64.044397 136.72012 67.512085 137.52277 71.273438 138.00781 C 75.034786 138.49283 78.99017 138.58863 81.470703 137.72461 C 83.78118 136.91984 84.477851 135.39066 84.457031 133.09375 C 84.436248 130.79683 83.301427 127.92937 81.537109 125.90039 C 80.018702 124.15422 76.398205 122.6642 72.871094 121.79102 C 71.107546 121.35441 69.378201 121.03981 67.949219 120.79883 C 66.520231 120.55785 65.487749 120.42389 64.677734 120.21484 C 63.00425 119.78298 61.557424 118.27633 61.712891 116.5293 C 61.868358 114.78229 63.37842 113.57517 65.105469 113.20508 C 66.69537 112.86439 71.343757 111.3479 75.892578 109.46289 C 80.441389 107.57787 85.120871 105.15198 86.853516 103.55469 C 88.404234 102.12513 91.356234 96.789448 93.5 92.066406 C 94.009958 90.94289 93.95798 90.953103 94.392578 89.935547 z M 42.792969 141.4668 C 42.757015 141.50886 42.717154 141.54516 42.681641 141.58789 C 42.431346 141.88906 42.309946 142.3353 42.085938 142.66797 C 42.313314 142.24703 42.550869 141.85131 42.792969 141.4668 z M 161.85742 89.935547 C 162.29201 90.953103 162.24004 90.94289 162.75 92.066406 C 164.89377 96.789448 167.84577 102.12513 169.39648 103.55469 C 171.12913 105.15198 175.80862 107.57787 180.35742 109.46289 C 184.90625 111.3479 189.55462 112.86439 191.14453 113.20508 C 192.87158 113.57517 194.38165 114.78229 194.53711 116.5293 C 194.69259 118.27633 193.24576 119.78298 191.57227 120.21484 C 190.76225 120.42389 189.72976 120.55785 188.30078 120.79883 C 186.87179 121.03981 185.14442 121.35441 183.38086 121.79102 C 179.85373 122.6642 176.2313 124.15422 174.71289 125.90039 C 172.94858 127.92937 171.81374 130.79683 171.79297 133.09375 C 171.77217 135.39066 172.46883 136.91984 174.7793 137.72461 C 177.25983 138.58863 181.21522 138.49283 184.97656 138.00781 C 188.7379 137.52277 192.2056 136.72012 194.49219 136.51953 C 196.39178 136.35289 201.64848 135.73349 206.66602 137.24023 C 209.12557 137.97882 211.58407 139.27441 213.45508 141.46094 C 211.52865 138.40331 209.14421 136.46927 206.39453 135.31445 C 202.52761 133.69039 197.84836 133.55559 192.97461 134.29102 C 186.36942 135.2877 182.1642 135.17951 180.17578 134.80078 C 178.62869 134.50607 177.45393 133.09946 177.39453 131.60156 C 177.33513 130.1037 178.31844 128.64448 179.80664 127.90039 C 181.7526 126.92741 185.18059 125.2295 189.31641 124.55273 C 191.31689 124.22537 193.87891 123.91382 195.77734 123 C 197.67579 122.08617 198.89391 120.98295 198.97852 118.02148 C 199.07112 114.78058 198.31682 113.34292 197.12305 112.27539 C 195.92928 111.20785 193.9579 110.50882 191.52148 109.83203 C 189.13467 109.16902 184.57998 108.10428 180.25977 106.72852 C 178.09965 106.04064 175.99014 105.27368 174.17188 104.40039 C 172.35361 103.5271 170.80011 102.61693 169.74414 101.19141 C 168.09636 98.966872 165.20032 94.745866 161.85742 89.935547 z M 213.45508 141.46094 C 213.69829 141.84696 213.9357 142.2452 214.16406 142.66797 C 213.94005 142.3353 213.82062 141.88906 213.57031 141.58789 C 213.53334 141.5434 213.49253 141.5047 213.45508 141.46094 z M 126.0625 158.16211 C 125.19058 158.15811 124.22789 158.16084 123.44922 158.18164 C 120.82408 158.25159 117.53971 158.46278 114.90039 159.03516 C 112.34313 159.58976 103.12806 162.29554 93.447266 164.9707 C 83.766463 167.64588 73.567483 170.32549 67.876953 170.98633 C 62.163608 171.64981 55.29063 170.82457 49.617188 167.76758 C 47.116276 166.42004 44.944202 164.49299 43.207031 162.16406 C 45.559762 166.41634 48.240234 169.4082 48.240234 169.4082 C 48.811601 170.34379 48.49984 171.56651 47.550781 172.11523 C 50.160027 173.73365 53.108615 175.13785 56.720703 175.625 C 66.524675 176.94726 79.602804 173.84697 90.798828 170.05078 C 101.99485 166.25459 111.11108 161.91745 114.20898 160.74609 C 118.64322 159.06943 125.0561 158.71071 128.125 158.60742 C 131.19392 158.71071 137.6068 159.06943 142.04102 160.74609 C 145.13894 161.91745 154.25514 166.25459 165.45117 170.05078 C 176.6472 173.84697 189.72533 176.94726 199.5293 175.625 C 203.14139 175.13785 206.08997 173.73365 208.69922 172.11523 C 207.75015 171.56651 207.44035 170.34379 208.01172 169.4082 C 208.01172 169.4082 210.69024 166.41634 213.04297 162.16406 C 211.3058 164.49299 209.13372 166.42004 206.63281 167.76758 C 200.95937 170.82457 194.08833 171.64981 188.375 170.98633 C 182.68448 170.32549 172.48353 167.64588 162.80273 164.9707 C 153.12193 162.29554 143.90687 159.58976 141.34961 159.03516 C 138.71029 158.46278 135.42589 158.25159 132.80078 158.18164 C 131.24342 158.14004 128.94534 158.16999 128.125 158.18359 C 127.71484 158.17679 126.93442 158.16611 126.0625 158.16211 z " /><ellipse
     style="fill:#ff7f2a;stroke:#000000;stroke-width:0.5;stroke-linecap:round;stroke-linejoin:round;stroke-opacity:1;stop-color:#000000;stroke-dasharray:none"
     id="path7167-4"
     cx="-57.653431"
     cy="86.850418"
     rx="1.7304145"
     ry="1.4140723"
     transform="matrix(-0.88618911,0.46332371,0.46332371,0.88618911,0,0)" /><g
     id="path7402-0"
     transform="matrix(-1.3013122,0,0,1.3013122,298.32264,-60.799735)"><path
       style="color:#000000;fill:#ff7f2a;stroke-width:2;stroke-linecap:round;stroke-linejoin:round"
       d="m 154.42021,93.446156 4.82977,-8.486189"
       id="path7432-3" /><path
       style="color:#000000;fill:#ff8080;stroke:#000000;stroke-width:0.5;stroke-linecap:round;stroke-linejoin:round;stroke-dasharray:none;stroke-opacity:1"
       d="m 158.98437,83.996094 a 1,1 0 0 0 -0.60351,0.46875 l -4.83008,8.486328 a 1,1 0 0 0 0.375,1.363281 1,1 0 0 0 1.36328,-0.373047 l 4.83008,-8.486328 a 1,1 0 0 0 -0.375,-1.363281 1,1 0 0 0 -0.75977,-0.0957 z"
       id="path7434-5" /></g><path
     style="fill:url(#linearGradient12443);fill-opacity:1;stroke:#000000;stroke-width:0.5;stroke-linecap:round;stroke-linejoin:round;stroke-opacity:1;stop-color:#000000;stroke-dasharray:none"
     d="m 92.808983,49.304135 c -1.202959,-0.421438 -2.837602,0.108139 -2.884854,1.959089 l -4.500562,-8.909562 c 0.37271,-1.257147 1.744526,-2.006767 3.162371,-1.414223 z"
     id="path7153-8"
     sodipodi:nodetypes="ccccc" /><path
     style="fill:url(#linearGradient12445);fill-opacity:1;stroke:#000000;stroke-width:0.5;stroke-linecap:round;stroke-linejoin:round;stroke-opacity:1;stop-color:#000000;stroke-dasharray:none"
     d="m 91.516623,45.683824 c -1.404362,-0.467413 -3.620926,-0.151767 -3.855176,2.202205 L 86.633502,45.99655 c 0.111522,-2.141986 2.5088,-2.868812 3.903767,-2.258949 z"
     id="path7155-5"
     sodipodi:nodetypes="ccccc" /><path
     id="path1772"
     style="fill:url(#linearGradient5734);fill-opacity:1;stroke:#000000;stroke-width:0.5;stroke-linecap:round;stroke-linejoin:round;stroke-opacity:1;stop-color:#000000;stroke-dasharray:none"
     d="m 95.640337,93.105703 -5.089771,12.272567 c -0.235863,13.88437 1.160397,31.7685 16.073454,48.3143 5.25532,1.64864 12.95121,2.54207 21.50141,2.54207 8.55022,0 16.2461,-0.89343 21.50142,-2.54207 14.91306,-16.5458 16.30742,-34.42993 16.07157,-48.3143 l -5.08789,-12.272567 c -0.51322,0.379341 -0.82009,1.050177 -0.85299,1.655252 0,0 5.77835,18.485895 -6.62478,42.373425 -7.89005,15.19566 -25.00733,15.38016 -25.00733,15.38016 0,0 -17.11917,-0.1845 -25.0092,-15.38016 -12.403136,-23.88753 -6.6229,-42.373425 -6.6229,-42.373425 -0.03293,-0.605075 -0.339783,-1.275911 -0.852993,-1.655252 z" /></svg>
