<?xml version="1.0" encoding="UTF-8" standalone="no"?>
<svg
   viewBox="0 0 256 256"
   version="1.1"
   id="svg16379"
   sodipodi:docname="leia_bottom.svg"
   xml:space="preserve"
   inkscape:version="1.2 (dc2aedaf03, 2022-05-15)"
   xmlns:inkscape="http://www.inkscape.org/namespaces/inkscape"
   xmlns:sodipodi="http://sodipodi.sourceforge.net/DTD/sodipodi-0.dtd"
   xmlns:xlink="http://www.w3.org/1999/xlink"
   xmlns="http://www.w3.org/2000/svg"
   xmlns:svg="http://www.w3.org/2000/svg"><sodipodi:namedview
     id="namedview16381"
     pagecolor="#ffffff"
     bordercolor="#000000"
     borderopacity="0.25"
     inkscape:showpageshadow="2"
     inkscape:pageopacity="0.0"
     inkscape:pagecheckerboard="0"
     inkscape:deskcolor="#d1d1d1"
     showgrid="false"
     inkscape:zoom="2.8284271"
     inkscape:cx="180.48901"
     inkscape:cy="144.78011"
     inkscape:window-width="1920"
     inkscape:window-height="1051"
     inkscape:window-x="-9"
     inkscape:window-y="-9"
     inkscape:window-maximized="1"
     inkscape:current-layer="svg16379" /><defs
     id="defs16199"><linearGradient
       inkscape:collect="always"
       id="linearGradient14084"><stop
         style="stop-color:#ff5555;stop-opacity:1"
         offset="0"
         id="stop14082" /><stop
         style="stop-color:#ff8080;stop-opacity:1"
         offset="1"
         id="stop14080" /></linearGradient><linearGradient
       inkscape:collect="always"
       id="linearGradient14074"><stop
         style="stop-color:#ff5555;stop-opacity:1"
         offset="0"
         id="stop14072" /><stop
         style="stop-color:#ff8080;stop-opacity:1"
         offset="1"
         id="stop14070" /></linearGradient><linearGradient
       inkscape:collect="always"
       id="linearGradient14066"><stop
         style="stop-color:#ff8080;stop-opacity:1"
         offset="0"
         id="stop14064" /><stop
         style="stop-color:#ffaaaa;stop-opacity:1"
         offset="1"
         id="stop14062" /></linearGradient><linearGradient
       inkscape:collect="always"
       id="linearGradient5314"><stop
         style="stop-color:#ffccaa;stop-opacity:1"
         offset="0"
         id="stop5310" /><stop
         style="stop-color:#ffb380;stop-opacity:1"
         offset="1"
         id="stop5312" /></linearGradient><linearGradient
       inkscape:collect="always"
       id="linearGradient5308"><stop
         style="stop-color:#ffccaa;stop-opacity:1"
         offset="0"
         id="stop5304" /><stop
         style="stop-color:#ffb380;stop-opacity:1"
         offset="1"
         id="stop5306" /></linearGradient><linearGradient
       inkscape:collect="always"
       id="linearGradient5296"><stop
         style="stop-color:#ffb380;stop-opacity:1"
         offset="0"
         id="stop5292" /><stop
         style="stop-color:#ff9955;stop-opacity:1"
         offset="1"
         id="stop5294" /></linearGradient><linearGradient
       inkscape:collect="always"
       id="linearGradient5222"><stop
         style="stop-color:#ffb380;stop-opacity:1"
         offset="0"
         id="stop5218" /><stop
         style="stop-color:#ff9955;stop-opacity:1"
         offset="1"
         id="stop5220" /></linearGradient><linearGradient
       id="innoGrad8"><stop
         offset="0"
         stop-color="#ff7f2a"
         stop-opacity=".502"
         id="stop16104" /><stop
         offset=".16"
         stop-color="#ff7f2a"
         stop-opacity="0"
         id="stop16106" /><stop
         offset=".444"
         stop-color="#ff7f2a"
         stop-opacity=".502"
         id="stop16108" /><stop
         offset=".729"
         stop-color="#ff7f2a"
         stop-opacity="0"
         id="stop16110" /><stop
         offset="1"
         stop-color="#ff7f2a"
         stop-opacity=".502"
         id="stop16112" /></linearGradient><linearGradient
       id="innoGrad7"><stop
         offset="0"
         stop-color="#ff7f2a"
         stop-opacity=".502"
         id="stop16115" /><stop
         offset=".529"
         stop-color="#ff7f2a"
         stop-opacity="0"
         id="stop16117" /><stop
         offset="1"
         stop-color="#ff7f2a"
         stop-opacity=".502"
         id="stop16119" /></linearGradient><linearGradient
       id="innoGrad6"><stop
         offset="0"
         stop-color="#ffd42a"
         stop-opacity="0"
         id="stop16122" /><stop
         offset="1"
         stop-color="#ffd42a"
         stop-opacity=".502"
         id="stop16124" /></linearGradient><linearGradient
       id="innoGrad5"><stop
         offset="0"
         stop-color="#ffd42a"
         stop-opacity=".502"
         id="stop16127" /><stop
         offset="1"
         stop-color="#ffd42a"
         stop-opacity="0"
         id="stop16129" /></linearGradient><linearGradient
       id="innoGrad4"><stop
         offset="0"
         stop-color="#ff7f2a"
         stop-opacity=".502"
         id="stop16132" /><stop
         offset=".828"
         stop-color="#ff7f2a"
         stop-opacity="0"
         id="stop16134" /><stop
         offset="1"
         stop-color="#ff7f2a"
         stop-opacity=".502"
         id="stop16136" /></linearGradient><linearGradient
       id="innoGrad3"><stop
         offset="0"
         stop-color="#ff7f2a"
         stop-opacity=".502"
         id="stop16139" /><stop
         offset=".5"
         stop-color="#ff7f2a"
         stop-opacity="0"
         id="stop16141" /><stop
         offset="1"
         stop-color="#ff7f2a"
         stop-opacity=".502"
         id="stop16143" /></linearGradient><linearGradient
       id="innoGrad2"><stop
         offset="0"
         stop-color="#ff7f2a"
         stop-opacity=".502"
         id="stop16146" /><stop
         offset="1"
         stop-color="#ff7f2a"
         stop-opacity="0"
         id="stop16148" /></linearGradient><linearGradient
       id="innoGrad1"><stop
         offset="0"
         stop-color="#ff2a2a"
         stop-opacity="0"
         id="stop16151" /><stop
         offset="1"
         stop-color="#ff2a2a"
         stop-opacity=".502"
         id="stop16153" /></linearGradient><linearGradient
       id="linearGradient949"
       x1="123.657"
       x2="123.657"
       y1="98.708"
       y2="151.969"
       gradientUnits="userSpaceOnUse"
       xlink:href="#innoGrad2"
       gradientTransform="matrix(0.84311,0,0,0.84248,21.704,22.646)" /><radialGradient
       id="radialGradient983"
       cx="101.654"
       cy="132.803"
       r="101.191"
       fx="101.654"
       fy="132.803"
       gradientTransform="matrix(0,0.52955765,-0.52685944,0,192.03342,110.95565)"
       gradientUnits="userSpaceOnUse"
       xlink:href="#innoGrad1" /><linearGradient
       id="linearGradient1019"
       x1="85.824"
       x2="109.825"
       y1="130.082"
       y2="136.533"
       gradientUnits="userSpaceOnUse"
       xlink:href="#innoGrad2"
       gradientTransform="matrix(0.84311,0,0,0.84248,-0.44984617,41.759122)" /><linearGradient
       id="linearGradient1021"
       x1="165.836"
       x2="141.835"
       y1="130.082"
       y2="136.533"
       gradientUnits="userSpaceOnUse"
       xlink:href="#innoGrad2"
       gradientTransform="matrix(0.84311,0,0,0.84248,31.550154,49.578127)" /><radialGradient
       id="radialGradient1060"
       cx="125.685"
       cy="235.659"
       r="100.784"
       fx="125.685"
       fy="235.659"
       gradientTransform="matrix(0,0.60272704,-0.60004139,0,260.67681,49.551842)"
       gradientUnits="userSpaceOnUse"
       xlink:href="#innoGrad2" /><linearGradient
       id="linearGradient1160"
       x1="-4.058"
       x2="24.98"
       y1="59.823"
       y2="100.021"
       gradientUnits="userSpaceOnUse"
       xlink:href="#innoGrad3"
       gradientTransform="matrix(0.84311,0,0,0.84248,21.704,22.646)" /><linearGradient
       id="linearGradient1184"
       x1="-4.058"
       x2="24.98"
       y1="59.823"
       y2="100.021"
       gradientUnits="userSpaceOnUse"
       xlink:href="#innoGrad3"
       gradientTransform="matrix(0.84311,0,0,0.84248,21.704,22.646)" /><linearGradient
       id="linearGradient1186"
       x1="-16.445"
       x2="25.856"
       y1="106.459"
       y2="98.183"
       gradientUnits="userSpaceOnUse"
       xlink:href="#innoGrad3"
       gradientTransform="matrix(0.84311,0,0,0.84248,21.704,22.646)" /><linearGradient
       id="linearGradient1188"
       x1="-16.445"
       x2="25.172"
       y1="106.459"
       y2="101.463"
       gradientUnits="userSpaceOnUse"
       xlink:href="#innoGrad3"
       gradientTransform="matrix(0.84311,0,0,0.84248,21.704,22.646)" /><linearGradient
       id="linearGradient1196"
       x1="-8.157"
       x2="24.809"
       y1="161.832"
       y2="99.599"
       gradientUnits="userSpaceOnUse"
       xlink:href="#innoGrad4"
       gradientTransform="matrix(0.84311,0,0,0.84248,21.704,22.646)" /><linearGradient
       id="linearGradient1212"
       x1="25.061"
       x2="7.697"
       y1="103.14"
       y2="180.112"
       gradientUnits="userSpaceOnUse"
       xlink:href="#innoGrad7"
       gradientTransform="matrix(0.84311,0,0,0.84248,21.704,22.646)" /><linearGradient
       id="linearGradient1220"
       x1="49.767"
       x2="54.925"
       y1="89.957"
       y2="89.957"
       gradientUnits="userSpaceOnUse"
       xlink:href="#innoGrad2"
       gradientTransform="matrix(0.84306507,0,0,0.84252496,26.967085,16.031656)" /><linearGradient
       id="linearGradient1243"
       x1="2.357"
       x2="6"
       y1="182.571"
       y2="190.369"
       gradientUnits="userSpaceOnUse"
       xlink:href="#innoGrad5" /><radialGradient
       id="radialGradient1278"
       cx="7.981"
       cy="185.933"
       r="2.492"
       fx="7.981"
       fy="185.933"
       gradientUnits="userSpaceOnUse"
       xlink:href="#innoGrad6" /><radialGradient
       id="radialGradient1280"
       cx="4.722"
       cy="189.327"
       r="1.054"
       fx="4.722"
       fy="189.327"
       gradientUnits="userSpaceOnUse"
       xlink:href="#innoGrad6" /><radialGradient
       id="radialGradient1282"
       cx="7.635"
       cy="189.659"
       r="1.054"
       fx="7.635"
       fy="189.659"
       gradientUnits="userSpaceOnUse"
       xlink:href="#innoGrad6" /><radialGradient
       id="radialGradient1284"
       cx="9.953"
       cy="188.291"
       r="1.054"
       fx="9.953"
       fy="188.291"
       gradientUnits="userSpaceOnUse"
       xlink:href="#innoGrad6" /><radialGradient
       id="radialGradient1286"
       cx="11.981"
       cy="185.913"
       r="1.054"
       fx="11.981"
       fy="185.913"
       gradientUnits="userSpaceOnUse"
       xlink:href="#innoGrad6" /><linearGradient
       id="linearGradient1379"
       x1="-13.579"
       x2="-5.979"
       y1="168.938"
       y2="164.758"
       gradientUnits="userSpaceOnUse"
       xlink:href="#innoGrad6" /><radialGradient
       id="radialGradient1387"
       cx="-10.325"
       cy="166.462"
       r="2.193"
       fx="-10.325"
       fy="166.462"
       gradientTransform="matrix(1,0,0,1.04776,0,-7.94)"
       gradientUnits="userSpaceOnUse"
       xlink:href="#innoGrad6" /><radialGradient
       id="radialGradient1389"
       cx="-9.949"
       cy="171.362"
       r=".939"
       fx="-9.949"
       fy="171.362"
       gradientTransform="matrix(1,0,0,1.04172,0,-7.142)"
       gradientUnits="userSpaceOnUse"
       xlink:href="#innoGrad6" /><radialGradient
       id="radialGradient1391"
       cx="-12.616"
       cy="170.059"
       r=".939"
       fx="-12.616"
       fy="170.059"
       gradientTransform="matrix(1,0,0,1.0421,0,-7.153)"
       gradientUnits="userSpaceOnUse"
       xlink:href="#innoGrad6" /><radialGradient
       id="radialGradient1393"
       cx="-13.792"
       cy="167.42"
       r=".939"
       fx="-13.792"
       fy="167.42"
       gradientTransform="matrix(1,0,0,1.04163,0,-6.968)"
       gradientUnits="userSpaceOnUse"
       xlink:href="#innoGrad6" /><radialGradient
       id="radialGradient1395"
       cx="-13.635"
       cy="164.713"
       r=".939"
       fx="-13.635"
       fy="164.713"
       gradientTransform="matrix(1,0,0,1.04202,0,-6.907)"
       gradientUnits="userSpaceOnUse"
       xlink:href="#innoGrad6" /><linearGradient
       id="linearGradient1444"
       x1="225.112"
       x2="272.622"
       y1="99.653"
       y2="86.5"
       gradientUnits="userSpaceOnUse"
       xlink:href="#innoGrad3"
       gradientTransform="matrix(0.84311,0,0,0.84248,21.704,22.646)" /><linearGradient
       id="linearGradient1452"
       x1="224.914"
       x2="271.227"
       y1="98.739"
       y2="83.627"
       gradientUnits="userSpaceOnUse"
       xlink:href="#innoGrad3"
       gradientTransform="matrix(0.84311,0,0,0.84248,21.704,22.646)" /><linearGradient
       id="linearGradient1460"
       x1="224.773"
       x2="267.778"
       y1="101.77"
       y2="106.459"
       gradientUnits="userSpaceOnUse"
       xlink:href="#innoGrad3"
       gradientTransform="matrix(0.84311,0,0,0.84248,21.704,22.646)" /><linearGradient
       id="linearGradient1476"
       x1="226.871"
       x2="267.778"
       y1="101.111"
       y2="106.459"
       gradientUnits="userSpaceOnUse"
       xlink:href="#innoGrad3"
       gradientTransform="matrix(0.84311,0,0,0.84248,21.704,22.646)" /><linearGradient
       id="linearGradient1484"
       x1="224.443"
       x2="228.258"
       y1="103.209"
       y2="164.985"
       gradientUnits="userSpaceOnUse"
       xlink:href="#innoGrad8"
       gradientTransform="matrix(0.84311,0,0,0.84248,21.704,22.646)" /><linearGradient
       id="linearGradient1492"
       x1="226.173"
       x2="248.75"
       y1="102.972"
       y2="179.156"
       gradientUnits="userSpaceOnUse"
       xlink:href="#innoGrad7"
       gradientTransform="matrix(0.84311,0,0,0.84248,21.704,22.646)" /><linearGradient
       id="linearGradient1512"
       x1="-192.43"
       x2="-187.272"
       y1="-157.079"
       y2="-157.079"
       gradientUnits="userSpaceOnUse"
       xlink:href="#innoGrad2"
       gradientTransform="matrix(0.84306507,0,0,0.84252496,-14.861779,-27.617324)" /><linearGradient
       id="linearGradient1550"
       x1="249.842"
       x2="252.971"
       y1="178.815"
       y2="186.833"
       gradientUnits="userSpaceOnUse"
       xlink:href="#innoGrad5" /><radialGradient
       id="radialGradient1558"
       cx="248.657"
       cy="185.289"
       r="2.492"
       fx="248.657"
       fy="185.289"
       gradientUnits="userSpaceOnUse"
       xlink:href="#innoGrad6" /><radialGradient
       id="radialGradient1560"
       cx="253.432"
       cy="185.356"
       r="1.054"
       fx="253.432"
       fy="185.356"
       gradientUnits="userSpaceOnUse"
       xlink:href="#innoGrad6" /><radialGradient
       id="radialGradient1562"
       cx="251.67"
       cy="188.129"
       r="1.054"
       fx="251.67"
       fy="188.129"
       gradientUnits="userSpaceOnUse"
       xlink:href="#innoGrad6" /><radialGradient
       id="radialGradient1564"
       cx="248.806"
       cy="188.868"
       r="1.054"
       fx="248.806"
       fy="188.868"
       gradientUnits="userSpaceOnUse"
       xlink:href="#innoGrad6" /><radialGradient
       id="radialGradient1566"
       cx="245.395"
       cy="188.771"
       r="1.055"
       fx="245.395"
       fy="188.771"
       gradientUnits="userSpaceOnUse"
       xlink:href="#innoGrad6" /><linearGradient
       id="linearGradient1604"
       x1="224.803"
       x2="231.728"
       y1="172.912"
       y2="169.138"
       gradientUnits="userSpaceOnUse"
       xlink:href="#innoGrad6" /><radialGradient
       id="radialGradient1612"
       cx="226.155"
       cy="169.238"
       r="2.221"
       fx="226.155"
       fy="169.238"
       gradientTransform="matrix(1,0,0,1.02393,0,-4.045)"
       gradientUnits="userSpaceOnUse"
       xlink:href="#innoGrad6" /><radialGradient
       id="radialGradient1614"
       cx="222.257"
       cy="166.49"
       r=".95"
       fx="222.257"
       fy="166.49"
       gradientTransform="matrix(1,0,0,1.02143,0,-3.567)"
       gradientUnits="userSpaceOnUse"
       xlink:href="#innoGrad6" /><radialGradient
       id="radialGradient1616"
       cx="221.974"
       cy="169.487"
       r=".95"
       fx="221.974"
       fy="169.487"
       gradientTransform="matrix(1,0,0,1.02268,0,-3.842)"
       gradientUnits="userSpaceOnUse"
       xlink:href="#innoGrad6" /><radialGradient
       id="radialGradient1618"
       cx="223.707"
       cy="171.654"
       r=".949"
       fx="223.707"
       fy="171.654"
       gradientTransform="matrix(1,0,0,1.02213,0,-3.798)"
       gradientUnits="userSpaceOnUse"
       xlink:href="#innoGrad6" /><radialGradient
       id="radialGradient1620"
       cx="226.172"
       cy="173.54"
       r=".949"
       fx="226.172"
       fy="173.54"
       gradientTransform="matrix(1,0,0,1.02256,0,-3.911)"
       gradientUnits="userSpaceOnUse"
       xlink:href="#innoGrad6" /><linearGradient
       id="linearGradient1605"
       x1="50.297001"
       x2="50.297001"
       y1="21.886999"
       y2="117.928"
       gradientUnits="userSpaceOnUse"
       xlink:href="#innoGrad4-7" /><linearGradient
       id="innoGrad4-7"><stop
         offset="0"
         stop-color="#ff2a2a"
         stop-opacity=".502"
         id="stop575" /><stop
         offset=".5"
         stop-color="#ff2a2a"
         stop-opacity="0"
         id="stop577" /><stop
         offset="1"
         stop-color="#ff2a2a"
         stop-opacity=".502"
         id="stop579" /></linearGradient><linearGradient
       id="linearGradient1607"
       x1="50.297001"
       x2="40.880001"
       y1="21.886999"
       y2="116.887"
       gradientUnits="userSpaceOnUse"
       xlink:href="#innoGrad1" /><linearGradient
       id="linearGradient1656"
       x1="1.589"
       x2="44.646"
       y1="91.053001"
       y2="28.315001"
       gradientUnits="userSpaceOnUse"
       xlink:href="#innoGrad1" /><linearGradient
       id="linearGradient1664"
       x1="17.089001"
       x2="46.669998"
       y1="32.858002"
       y2="24.995001"
       gradientUnits="userSpaceOnUse"
       xlink:href="#innoGrad4-7" /><linearGradient
       id="linearGradient1672"
       x1="17.589001"
       x2="50.59"
       y1="33.428001"
       y2="24.996"
       gradientUnits="userSpaceOnUse"
       xlink:href="#innoGrad4-7" /><linearGradient
       id="linearGradient1680"
       x1="22.34"
       x2="44.188"
       y1="63.303001"
       y2="72.915001"
       gradientUnits="userSpaceOnUse"
       xlink:href="#innoGrad4-7" /><linearGradient
       id="linearGradient1696"
       x1="22.34"
       x2="41.525002"
       y1="63.303001"
       y2="27.556999"
       gradientUnits="userSpaceOnUse"
       xlink:href="#innoGrad1" /><linearGradient
       id="linearGradient1712"
       x1="44.061001"
       x2="0.52200001"
       y1="30.437"
       y2="136.57401"
       gradientUnits="userSpaceOnUse"
       xlink:href="#innoGrad5-5" /><linearGradient
       id="innoGrad5-5"><stop
         offset="0"
         stop-color="#ff2a2a"
         stop-opacity=".502"
         id="stop564" /><stop
         offset=".385"
         stop-color="#ff2a2a"
         stop-opacity="0"
         id="stop566" /><stop
         offset=".577"
         stop-color="#ff2a2a"
         stop-opacity=".502"
         id="stop568" /><stop
         offset=".77"
         stop-color="#ff2a2a"
         stop-opacity="0"
         id="stop570" /><stop
         offset="1"
         stop-color="#ff2a2a"
         stop-opacity=".502"
         id="stop572" /></linearGradient><linearGradient
       id="linearGradient1732"
       x1="6.7859998"
       x2="16.787001"
       y1="51.304001"
       y2="51.304001"
       gradientUnits="userSpaceOnUse"
       xlink:href="#innoGrad1" /><linearGradient
       id="linearGradient1784"
       x1="205.69"
       x2="201.77299"
       y1="21.886999"
       y2="116.886"
       gradientUnits="userSpaceOnUse"
       xlink:href="#innoGrad4-7" /><linearGradient
       id="linearGradient1792"
       x1="215.12"
       x2="205.689"
       y1="116.886"
       y2="21.886"
       gradientUnits="userSpaceOnUse"
       xlink:href="#innoGrad1" /><linearGradient
       id="linearGradient1800"
       x1="254.39799"
       x2="211.341"
       y1="91.053001"
       y2="28.316"
       gradientUnits="userSpaceOnUse"
       xlink:href="#innoGrad4-7" /><linearGradient
       id="linearGradient1808"
       x1="207.14799"
       x2="205.98"
       y1="27.944"
       y2="61.626999"
       gradientUnits="userSpaceOnUse"
       xlink:href="#innoGrad4-7" /><linearGradient
       id="linearGradient1816"
       x1="210.94"
       x2="205.98"
       y1="21.886999"
       y2="61.626999"
       gradientUnits="userSpaceOnUse"
       xlink:href="#innoGrad4-7" /><linearGradient
       id="linearGradient1824"
       x1="211.41701"
       x2="225.783"
       y1="53.648998"
       y2="48.224998"
       gradientUnits="userSpaceOnUse"
       xlink:href="#innoGrad4-7" /><linearGradient
       id="linearGradient1832"
       x1="224.77299"
       x2="211.341"
       y1="98.120003"
       y2="28.316"
       gradientUnits="userSpaceOnUse"
       xlink:href="#innoGrad1" /><linearGradient
       id="linearGradient1840"
       x1="-167.866"
       x2="-157.866"
       y1="135.842"
       y2="135.842"
       gradientUnits="userSpaceOnUse"
       xlink:href="#innoGrad1" /><linearGradient
       inkscape:collect="always"
       xlink:href="#linearGradient5222"
       id="linearGradient5224"
       x1="144.91269"
       y1="36.018253"
       x2="163.79442"
       y2="30.95891"
       gradientUnits="userSpaceOnUse"
       gradientTransform="matrix(1.1509158,0,0,1.1509158,-35.558363,0.95297981)" /><linearGradient
       inkscape:collect="always"
       xlink:href="#linearGradient5296"
       id="linearGradient5226"
       x1="144.91269"
       y1="36.018253"
       x2="163.79442"
       y2="30.95891"
       gradientUnits="userSpaceOnUse"
       gradientTransform="matrix(1.1509158,0,0,1.1509158,-35.558363,0.95297981)" /><linearGradient
       inkscape:collect="always"
       xlink:href="#linearGradient5296"
       id="linearGradient5298"
       x1="155.60768"
       y1="26.825865"
       x2="162.10422"
       y2="29.12396"
       gradientUnits="userSpaceOnUse"
       gradientTransform="matrix(1.1509158,0,0,1.1509158,-35.558363,0.95297981)" /><linearGradient
       inkscape:collect="always"
       xlink:href="#linearGradient5314"
       id="linearGradient5300"
       x1="145.57561"
       y1="37.741825"
       x2="165.72815"
       y2="30.096231"
       gradientUnits="userSpaceOnUse"
       gradientTransform="matrix(1.1509158,0,0,1.1509158,-35.558363,0.95297981)" /><linearGradient
       inkscape:collect="always"
       xlink:href="#linearGradient5308"
       id="linearGradient5302"
       x1="145.57561"
       y1="37.741825"
       x2="165.72815"
       y2="30.096231"
       gradientUnits="userSpaceOnUse"
       gradientTransform="matrix(1.1509158,0,0,1.1509158,-35.558363,0.95297981)" /><linearGradient
       inkscape:collect="always"
       xlink:href="#linearGradient5314"
       id="linearGradient6663"
       x1="172.95686"
       y1="16.970387"
       x2="180.97243"
       y2="10.65062"
       gradientUnits="userSpaceOnUse"
       gradientTransform="matrix(1.1509158,0,0,1.1509158,-35.558363,0.95297981)" /><linearGradient
       inkscape:collect="always"
       xlink:href="#linearGradient5222"
       id="linearGradient9077"
       gradientUnits="userSpaceOnUse"
       x1="144.91269"
       y1="36.018253"
       x2="163.79442"
       y2="30.95891"
       gradientTransform="matrix(-1.1509158,0,0,1.1509158,296.15628,0.95297981)" /><linearGradient
       inkscape:collect="always"
       xlink:href="#linearGradient5314"
       id="linearGradient9081"
       gradientUnits="userSpaceOnUse"
       x1="145.57561"
       y1="37.741825"
       x2="165.72815"
       y2="30.096231"
       gradientTransform="matrix(1.1509158,0,0,1.1509158,-296.15628,0.95297981)" /><linearGradient
       inkscape:collect="always"
       xlink:href="#linearGradient5296"
       id="linearGradient9083"
       gradientUnits="userSpaceOnUse"
       x1="155.60768"
       y1="26.825865"
       x2="162.10422"
       y2="29.12396"
       gradientTransform="matrix(1.1509158,0,0,1.1509158,-296.15628,0.95297981)" /><linearGradient
       inkscape:collect="always"
       xlink:href="#linearGradient5314"
       id="linearGradient9085"
       gradientUnits="userSpaceOnUse"
       x1="172.95686"
       y1="16.970387"
       x2="180.97243"
       y2="10.65062"
       gradientTransform="matrix(-1.1509158,0,0,1.1509158,296.15628,0.95297981)" /><linearGradient
       inkscape:collect="always"
       xlink:href="#linearGradient14066"
       id="linearGradient14068"
       x1="129.04698"
       y1="248.54803"
       x2="129.04698"
       y2="58.689865"
       gradientUnits="userSpaceOnUse" /><linearGradient
       inkscape:collect="always"
       xlink:href="#linearGradient14074"
       id="linearGradient14076"
       x1="131.52187"
       y1="238.29498"
       x2="131.52187"
       y2="61.164738"
       gradientUnits="userSpaceOnUse" /><linearGradient
       inkscape:collect="always"
       xlink:href="#linearGradient14084"
       id="linearGradient14078"
       x1="131.52187"
       y1="238.29498"
       x2="131.52187"
       y2="61.164738"
       gradientUnits="userSpaceOnUse" /></defs><path
     id="path2075-2"
     style="fill:#ff7f2a;fill-opacity:1;stroke:#000000;stroke-width:0.25;stroke-linecap:round;stroke-linejoin:round;stroke-dasharray:none;stop-color:#000000"
     d="m 107.98466,9.4162566 c -1.74189,0.1158352 -3.99892,1.8891564 -3.02565,3.8978274 1.19789,2.472212 4.51166,10.06805 7.67202,14.145924 3.16036,4.077874 10.89487,9.581605 12.4263,10.272822 1.47149,0.66417 3.52502,0.886964 5.22183,0.890161 0.0124,2.4e-5 0.0258,0 0.0382,0 1.6968,-0.0032 3.75258,-0.225991 5.22407,-0.890161 1.53144,-0.691217 9.26595,-6.194948 12.42631,-10.272822 3.16035,-4.077874 6.47413,-11.673712 7.67201,-14.145924 1.19788,-2.47221 -2.49896,-4.587553 -4.10463,-3.6955179 -1.60566,0.8920349 -2.87972,2.3713559 -4.23051,2.7536559 -1.35079,0.382302 -2.97769,-0.03147 -4.12936,0.431593 -1.75358,0.705076 -5.6523,3.178541 -12.85789,3.187497 -0.0131,0 -0.0251,1.6e-5 -0.0382,0 -7.20555,-0.009 -11.10433,-2.482423 -12.85789,-3.187497 -1.15168,-0.46306 -2.77633,-0.04929 -4.12712,-0.431593 -1.35079,-0.3823 -2.62709,-1.861621 -4.23275,-2.7536559 -0.30107,-0.1672566 -0.67476,-0.2290406 -1.07674,-0.2023095 z" /><path
     style="fill:#ff7f2a;fill-opacity:1;stroke:#000000;stroke-width:0.25;stroke-linecap:round;stroke-linejoin:round;stroke-dasharray:none;stroke-opacity:1;stop-color:#000000"
     d="m 157.03217,9.1964382 c 0.87284,2.2403298 6.59108,1.5031808 10.97102,3.5642908 2.56646,1.207721 3.79867,2.688053 5.17366,4.907642 1.70553,-0.990004 -0.29242,-4.086281 -2.55681,-5.817101 -2.32828,-1.8768309 -3.76434,-2.3700711 -6.23849,-3.1076104 -1.42762,-0.4255712 -1.33627,-1.4943669 -0.41565,-2.0384034 0.92061,-0.5440358 3.67879,-1.6259782 5.32192,-0.5146205 1.64313,1.1113571 1.0484,0.5373282 1.0484,0.5373282 0,0 0.78533,-2.6129709 -1.72143,-3.2645577 -2.50676,-0.6515767 -11.87204,2.7661564 -11.58262,5.733032 z"
     id="path5903-0"
     sodipodi:nodetypes="csccssscsc" /><path
     style="fill:#ff2a2a;stroke:#000000;stroke-width:0.25;stroke-linecap:round;stroke-linejoin:round;stroke-dasharray:none;stroke-opacity:1;stop-color:#000000"
     d="m 152.90604,10.593009 c 1.78725,-1.6738744 3.56294,-1.9516728 5.17423,-2.6858834 0.34401,0.058655 0.47819,0.3652953 0.3306,0.8011039 0.49309,0.046627 0.59129,0.5498604 0.40693,0.7883881 -1.19119,1.0738634 -2.81872,2.0542284 -4.95922,2.9246674 -0.41306,-0.08016 -0.56189,-0.762265 -0.0941,-1.251321 -0.75548,0.153085 -1.04063,-0.160108 -0.85841,-0.576955 z"
     id="path6169-7"
     sodipodi:nodetypes="ccccccc" /><path
     style="fill:#ff8080;stroke:#000000;stroke-width:0.25;stroke-linecap:round;stroke-linejoin:round;stroke-dasharray:none;stroke-opacity:1;stop-color:#000000"
     d="m 153.80771,11.175122 c 1.74384,-0.574207 3.40181,-1.7401142 4.47602,-2.4160286"
     id="path6358-7"
     sodipodi:nodetypes="cc" /><path
     style="fill:#ff8080;stroke:#000000;stroke-width:0.25;stroke-linecap:round;stroke-linejoin:round;stroke-dasharray:none;stroke-opacity:1;stop-color:#000000"
     d="m 157.69853,24.502905 c 1.78724,-1.673874 4.13633,-2.165023 5.7476,-2.899234 l 0.40692,1.703935 c -1.19118,1.073864 -2.81871,2.054228 -4.95922,2.924667 z"
     id="path6169"
     sodipodi:nodetypes="ccccc" /><path
     style="fill:#ff8080;stroke:#000000;stroke-width:0.25;stroke-linecap:round;stroke-linejoin:round;stroke-dasharray:none;stroke-opacity:1;stop-color:#000000"
     d="m 158.84297,24.986111 c 1.74384,-0.574206 3.40181,-1.740114 4.47601,-2.416028"
     id="path6358"
     sodipodi:nodetypes="cc" /><path
     style="fill:#ff5555;stroke:#000000;stroke-width:0.25;stroke-linecap:round;stroke-linejoin:round;stroke-dasharray:none;stroke-opacity:1;stop-color:#000000"
     d="m 101.3615,164.25071 c 0,0 0.51949,-39.59685 0.75551,-42.32368 0.236,-2.72684 6.85024,-14.83165 6.85024,-14.83165 l 1.96448,41.20125 z"
     id="path9646" /><path
     style="fill:url(#linearGradient14076);stroke:#000000;stroke-width:0.25;stroke-linecap:round;stroke-linejoin:round;stroke-dasharray:none;stroke-opacity:1;stop-color:#000000;fill-opacity:1"
     d="m 147.61928,43.716603 c 0,0 3.26059,20.645669 3.45311,28.212305 0.19252,7.566637 0.78055,75.943742 0.78055,75.943742 l -0.82088,7.34417 5.94039,86.36296 c -4.99239,-3.83256 -10.55412,-4.98031 -16.13369,-6.04393 L 139.20984,47.033654 Z"
     id="path9480"
     sodipodi:nodetypes="cscccccc" /><path
     style="fill:url(#linearGradient14078);stroke:#000000;stroke-width:0.25;stroke-linecap:round;stroke-linejoin:round;stroke-dasharray:none;stroke-opacity:1;stop-color:#000000;fill-opacity:1"
     d="m 111.49732,44.495891 c 0,0 -4.10443,10.724429 -4.44663,13.278425 -0.34222,2.553996 0.0242,8.951781 0.2823,11.095543 0.25813,2.143763 1.13763,8.70403 1.13763,8.70403 0,0 -2.0921,9.795543 -2.09945,11.507217 -0.007,1.711675 1.07226,8.135197 1.11355,9.757866 0.0413,1.622668 0.61806,38.295258 0.65154,39.610938 0.0335,1.31567 0.11873,6.66739 0.11873,6.66739 l -7.11704,18.34918 c 0,0 0.50937,32.02258 0.68922,35.0899 0.17985,3.06732 2.45956,20.65081 2.45956,20.65081 l 8.57696,-74.99706 2.79504,-98.1964 z"
     id="path9644" /><path
     style="fill:url(#linearGradient14068);stroke:#000000;stroke-width:0.25;stroke-linecap:round;stroke-linejoin:round;stroke-dasharray:none;stroke-opacity:1;stop-color:#000000;fill-opacity:1"
     d="m 141.22783,49.961275 c 0,0 4.24425,163.983315 3.82026,169.952035 -0.42399,5.96871 -1.98554,29.46779 -1.98554,29.46779 -8.73427,7.71668 -27.93501,-0.1361 -42.36725,-1.65276 0,0 12.59993,-150.573157 13.13258,-161.645551 0.53267,-11.072395 0.35305,-42.137905 0.35305,-42.137905 z"
     id="path9642"
     sodipodi:nodetypes="csccscc" /><path
     style="fill:#ff5555;stroke:#000000;stroke-width:0.25;stroke-linecap:round;stroke-linejoin:round;stroke-dasharray:none;stroke-opacity:1;stop-color:#000000"
     d="m 124.98379,53.725911 -2.35542,94.145559 -7.45707,23.77321 c 0,0 -0.82066,35.64433 -1.0579,37.63634 -0.23724,1.99201 -5.34713,4.85274 -5.52888,3.36788 -0.18174,-1.48485 8.39004,-60.66162 8.75853,-63.15347 0.36849,-2.49184 3.81055,-90.707126 3.9948,-91.953049 0.18424,-1.245923 1.64215,-6.185896 1.64215,-6.185896 z"
     id="path9976" /><path
     style="fill:none;stroke:#000000;stroke-width:0.25;stroke-linecap:round;stroke-linejoin:round;stroke-dasharray:none;stroke-opacity:1;stop-color:#000000"
     d="m 135.47053,52.838477 c 0,0 -3.09702,49.975093 -3.34326,56.300693 -0.24626,6.32561 -0.46985,53.5508 -0.15481,57.93121 0.31505,4.38042 4.60596,44.99586 6.53532,48.8086 1.92936,3.81272 4.7332,1.98601 4.7332,1.98601"
     id="path9974" /><path
     style="fill:none;stroke:#000000;stroke-width:0.25;stroke-linecap:round;stroke-linejoin:round;stroke-dasharray:none;stroke-opacity:1;stop-color:#000000"
     d="m 125.02881,54.20111 c 0,0 0.003,88.1196 0.11147,100.40443 0.10897,12.28483 3.61681,75.71421 4.04184,81.10277 0.67411,8.54638 -5.89644,3.06692 -5.85514,-0.96814 0.0413,-4.03507 0.71515,-11.49962 0.71515,-11.49962"
     id="path10197"
     sodipodi:nodetypes="csssc" /><path
     id="path2075"
     style="fill:url(#linearGradient5302);fill-opacity:1;stroke:#000000;stroke-width:0.25;stroke-linecap:round;stroke-linejoin:round;stop-color:#000000;stroke-dasharray:none"
     d="m 104.48471,23.40258 c -2.01343,0.133892 -4.62269,2.185225 -3.49772,4.507004 1.3846,2.857575 5.21492,11.635323 8.86791,16.348848 3.65297,4.713526 12.59158,11.076598 14.36172,11.875562 1.71337,0.773344 4.11326,1.027283 6.08278,1.027283 1.96949,0 4.36938,-0.253939 6.08275,-1.027283 1.77014,-0.798964 10.70875,-7.162036 14.36172,-11.875562 3.65299,-4.713525 7.48331,-13.491273 8.86789,-16.348848 1.3846,-2.857575 -2.88707,-5.304308 -4.74302,-4.273224 -1.85596,1.031084 -3.33003,2.741109 -4.89139,3.183001 -1.56136,0.441894 -3.44106,-0.03622 -4.77226,0.49903 -2.0306,0.816462 -6.54788,3.68428 -14.90569,3.68428 -8.35784,0 -12.87737,-2.867818 -14.90797,-3.68428 -1.33119,-0.535247 -3.2109,-0.05713 -4.77225,-0.49903 -1.56135,-0.441892 -3.03319,-2.151917 -4.88915,-3.183001 -0.34799,-0.193327 -0.78069,-0.264677 -1.24532,-0.23378 z" /><path
     id="path2330-5-1"
     style="fill:url(#linearGradient5226);fill-opacity:1;stroke:#000000;stroke-width:0.25;stroke-linecap:round;stroke-linejoin:round;stop-color:#000000;stroke-dasharray:none"
     d="m 152.92316,33.491061 c 0,3.229213 -0.92738,8.76026 -3.04165,10.990156 0.39967,-1.867464 -1.97924,-4.49121 -6.59801,-3.895408 -2.35031,0.30318 -4.78437,2.196575 -5.21371,4.87603 -0.42977,2.682265 1.29933,3.976286 2.56295,4.003469 1.96034,0.04217 2.89895,-1.981573 2.43931,-2.661345 -0.6026,-0.891195 -1.68115,-0.303069 -1.70042,0.455882 -1.16845,-0.249322 -0.87529,-1.837663 0.63617,-1.886249 2.67024,-0.08584 2.00879,3.556831 1.7677,5.058729 l -5.79355,4.274164 c 0,0 -5.50028,-3.559076 -5.50028,-10.58688 0,-7.390536 5.24284,-10.717716 7.77161,-12.04954 -0.3931,-0.643998 -0.99864,-1.637935 -0.99864,-1.637935 0,0 6.13885,-2.788074 7.82151,-2.788075 3.22922,-3e-6 5.84701,2.617789 5.84701,5.847002 z"
     sodipodi:nodetypes="scsssscsccsccss" /><path
     style="fill:#ff9955;stroke:#000000;stroke-width:0.25;stroke-linecap:round;stroke-linejoin:round;stroke-dasharray:none;stroke-opacity:1;stop-color:#000000"
     d="m 142.87174,29.2841 2.05998,3.611327 c 0,0 -5.17242,1.309713 -8.03256,5.678111 -2.28606,3.49162 -1.36671,8.631868 -1.18688,8.595902 0.17983,-0.03597 -0.005,-4.97628 3.99224,-7.444986 4.70178,-2.904219 6.83356,-1.330746 6.83356,-1.330746 l -0.28772,-8.020445 -1.76234,-2.229899 z"
     id="path4259"
     sodipodi:nodetypes="ccssscccc" /><path
     id="path4259-0"
     style="fill:none;stroke:#000000;stroke-width:0.25;stroke-linecap:round;stroke-linejoin:round;stop-color:#000000;stroke-dasharray:none"
     d="m 142.38849,29.559531 1.71739,3.014409 c -1.44537,0.475816 -5.2557,2.003331 -7.67203,5.693886 -1.23035,1.87918 -1.57478,4.134669 -1.60947,5.916426 -0.0174,0.89088 0.0457,1.664851 0.12587,2.227652 0.0402,0.281401 0.0817,0.506937 0.12814,0.683356 0.0233,0.08821 0.0458,0.159926 0.0832,0.24502 0.0188,0.04255 0.0353,0.08938 0.0943,0.164095 0.0296,0.03736 0.0693,0.08441 0.1551,0.13712 0.0429,0.02636 0.0999,0.05316 0.17084,0.06969 0.0354,0.0083 0.11394,0.01572 0.11463,0.01573 7.3e-4,1.8e-5 0.12518,-0.01104 0.12587,-0.01128 7.1e-4,-1.4e-4 0.0749,-0.01991 0.10784,-0.03372 0.0329,-0.0138 0.0619,-0.02843 0.0877,-0.04496 0.0514,-0.03305 0.0869,-0.06826 0.11463,-0.09891 0.0554,-0.0613 0.0791,-0.107335 0.0967,-0.143865 0.0352,-0.07304 0.0443,-0.115682 0.0539,-0.155103 0.0193,-0.07884 0.0294,-0.143968 0.0405,-0.22254 0.0219,-0.157145 0.0446,-0.35675 0.0787,-0.602433 0.0683,-0.491365 0.18122,-1.156549 0.40686,-1.890468 0.45129,-1.467839 1.33361,-3.179844 3.18751,-4.324927 2.28063,-1.408712 3.8781,-1.699371 4.8734,-1.672425 4.70759,-0.115692 2.15519,-5.051348 1.93767,-8.173299 -0.005,-0.11882 -0.0472,-0.233042 -0.12138,-0.325942 l -1.61847,-2.068052 c -1.05847,0.275756 -1.90813,0.931408 -2.67958,1.600534 z"
     sodipodi:nodetypes="ccssccccssscscsssccscccccc" /><path
     id="path4259-0-7"
     style="fill:none;stroke:#000000;stroke-width:0.25;stroke-linecap:round;stroke-linejoin:round;stop-color:#000000;stroke-dasharray:none"
     d="m 141.858,29.860747 1.40267,2.459182 c -1.59994,0.538649 -4.87099,1.8452 -7.33933,5.61521 -1.32613,2.025463 -1.6723,4.382859 -1.70838,6.235626 -0.0181,0.926383 0.0475,1.729312 0.13261,2.326559 0.0426,0.298623 0.0881,0.540988 0.14386,0.753039 0.0279,0.106022 0.0516,0.19882 0.11245,0.337183 0.0304,0.06918 0.059,0.147443 0.17533,0.294474 0.0581,0.07351 0.13829,0.172575 0.31471,0.280984 0.0882,0.05421 0.20346,0.109602 0.35066,0.143864 0.0736,0.01713 0.2398,0.02921 0.24053,0.02922 7.3e-4,1.7e-5 0.25781,-0.02234 0.25851,-0.02248 7e-4,-1.41e-4 0.15645,-0.03881 0.22478,-0.06743 0.0684,-0.02863 0.12893,-0.06249 0.18208,-0.09666 0.10634,-0.06834 0.18159,-0.139645 0.23829,-0.20231 0.11336,-0.125326 0.15918,-0.216884 0.1933,-0.287729 0.0683,-0.141688 0.0816,-0.212839 0.0967,-0.274241 0.0301,-0.122802 0.0397,-0.197096 0.0516,-0.283234 0.0241,-0.172275 0.0457,-0.365207 0.0787,-0.602432 0.066,-0.474449 0.17454,-1.108436 0.38665,-1.798305 0.42419,-1.379739 1.22912,-2.93608 2.92448,-3.983248 2.20358,-1.361116 3.6762,-1.603485 4.53399,-1.580262 5.95875,-0.281826 2.82294,-5.848313 2.56482,-8.807198 -0.009,-0.248025 -0.0976,-0.486604 -0.25176,-0.681108 l -1.43864,-1.960154 c -1.14531,0.314402 -3.61729,1.409906 -3.86868,2.171441 z"
     sodipodi:nodetypes="ccsssccssssssssssccscccccc" /><path
     style="fill:none;stroke:#000000;stroke-width:0.25;stroke-linecap:round;stroke-linejoin:round;stroke-dasharray:none;stroke-opacity:1;stop-color:#000000"
     d="m 142.21199,50.903371 c 0,0 -1.99086,1.421678 -4.68831,-0.0158 -2.63753,-1.405548 -3.03605,-3.69812 -3.03605,-3.69812"
     id="path4640"
     sodipodi:nodetypes="csc" /><path
     id="path2330-5-1-9"
     style="fill:none;stroke:#000000;stroke-width:0.25;stroke-linecap:round;stroke-linejoin:round;stop-color:#000000;stroke-dasharray:none"
     d="m 147.07533,28.356913 c -0.2241,0 -0.98939,-0.725134 -1.77583,-0.472055 -0.78644,0.253079 -1.86754,0.909773 -2.73077,1.254538 -1.33228,0.532101 -2.04839,0.983318 -2.53182,1.199015 0.21046,0.34581 0.599,0.994112 0.82303,1.361103 0.21389,0.350169 0.0883,0.808174 -0.27424,1.000307 -2.45527,1.29311 -7.39105,4.365375 -7.39105,11.419243 0,5.876245 4.0401,9.198482 4.98548,9.888103 l 4.66296,-3.488847 c 0.0493,-0.311952 0.28254,-1.163884 0.32317,-1.546079 -0.55427,0.668325 -1.41702,1.229217 -2.54909,1.204865 -1.73539,-0.03733 -3.73307,-1.816365 -3.25045,-4.82845 0.48754,-3.042666 3.16285,-5.125787 5.82427,-5.469097 2.45629,-0.316853 4.39855,0.213962 5.69164,1.153163 0.603,0.437977 0.87481,0.750166 1.1217,1.036273 0.7609,-0.965664 1.18452,-1.573828 1.49708,-2.875042 0.48113,-2.002904 0.70808,-4.156406 0.70808,-5.702877 0,-2.844479 -2.28968,-5.134165 -5.13416,-5.134163 z"
     sodipodi:nodetypes="ssscccscccsssscsss" /><circle
     style="fill:url(#linearGradient5300);fill-opacity:1;stroke:#000000;stroke-width:0.25;stroke-linecap:round;stroke-linejoin:round;stop-color:#000000;stroke-dasharray:none"
     id="path2330-5"
     cx="147.07616"
     cy="33.491058"
     r="5.1996117" /><circle
     style="display:inline;fill:url(#linearGradient5298);fill-opacity:1;stroke:#000000;stroke-width:0.25;stroke-linecap:round;stroke-linejoin:round;stop-color:#000000;stroke-dasharray:none"
     id="path2330"
     cx="147.07616"
     cy="33.491058"
     r="4.1979871" /><path
     style="fill:url(#linearGradient6663);fill-opacity:1;stroke:#000000;stroke-width:0.25;stroke-linecap:round;stroke-linejoin:round;stroke-dasharray:none;stroke-opacity:1;stop-color:#000000"
     d="m 163.11847,23.611634 c -1.36672,-1.978137 2.50854,-6.792793 3.76097,-11.468625 1.1779,-4.39755 1.4768,-7.8709715 0.35605,-8.7231362 1.801,-0.298579 3.00132,0.5843089 3.3385,1.9495282 -0.19517,4.1832681 -1.87171,10.180491 -2.77899,12.317759 -0.51946,1.223671 0.30517,2.034551 1.27158,1.576777 0.96642,-0.457774 3.40788,-2.136279 3.40788,-4.119966 0,-1.983686 -1.88196,-3.306144 -1.88196,-3.306144 0,0 4.62861,2.950098 3.76393,5.39156 -0.86471,2.441461 -8.94258,8.284172 -11.23796,6.382247 z"
     id="path5903"
     sodipodi:nodetypes="csccssscsc" /><path
     id="path5903-7"
     style="fill:none;stroke:#000000;stroke-width:0.25;stroke-linecap:round;stroke-linejoin:round;stop-color:#000000;stroke-dasharray:none"
     d="m 168.19856,3.4101134 c 0.69108,0.8208844 0.58317,2.2038949 0.50594,3.2614787 -0.11152,1.5276414 -0.52007,3.4415089 -1.11495,5.6624149 -0.65898,2.460192 -1.96625,4.862142 -2.90651,6.867282 -0.47014,1.002569 -0.84636,1.907209 -1.01379,2.612039 -0.1538,0.647431 -0.0883,1.013938 0.0495,1.267805 0.31065,0.174313 0.90024,0.233856 1.79606,-0.02698 0.98876,-0.287891 2.1659,-0.813225 3.38306,-1.46562 1.31078,-0.702567 2.6953,-1.651588 3.56963,-2.474917 0.87436,-0.82333 1.50734,-1.833014 1.63396,-2.190517 0.42222,-1.130168 -0.11789,-1.89549 -0.89446,-2.877046 0.23284,2.352326 -0.78362,3.48857 -1.55548,4.253829 -0.80577,0.798907 -1.68924,1.354447 -2.27034,1.629715 -0.70056,0.331836 -1.54579,0.284432 -2.08604,-0.265251 -0.54027,-0.549682 -0.50195,-1.347166 -0.10565,-2.198429 2.05253,-4.408991 2.88504,-7.6517788 3.09759,-11.6912354 0.0477,-0.3949965 0.0168,-0.6595027 0.006,-1.0543891"
     sodipodi:nodetypes="csssscsssccsssscc" /><path
     style="fill:#ff7f2a;fill-opacity:1;stroke:#000000;stroke-width:0.25;stroke-linecap:round;stroke-linejoin:round;stroke-dasharray:none;stroke-opacity:1;stop-color:#000000"
     d="m 103.56574,9.1964382 c -0.87285,2.2403298 -6.591091,1.5031808 -10.971027,3.5642908 -2.56645,1.207721 -3.798667,2.688053 -5.173655,4.907642 -1.70553,-0.990004 0.292414,-4.086281 2.556818,-5.817101 C 92.306143,9.9744391 93.74221,9.4811989 96.216356,8.7436596 97.643975,8.3180884 97.552627,7.2492927 96.63201,6.7052562 95.711393,6.1612204 92.953223,5.079278 91.310083,6.1906357 c -1.643127,1.1113571 -1.048392,0.5373282 -1.048392,0.5373282 0,0 -0.785327,-2.6129709 1.721425,-3.2645577 2.506764,-0.6515767 11.872044,2.7661564 11.582624,5.733032 z"
     id="path5903-0-1"
     sodipodi:nodetypes="csccssscsc" /><path
     style="fill:#ff2a2a;stroke:#000000;stroke-width:0.25;stroke-linecap:round;stroke-linejoin:round;stroke-dasharray:none;stroke-opacity:1;stop-color:#000000"
     d="m 107.69186,10.593009 c -1.78724,-1.6738744 -3.56294,-1.9516728 -5.17422,-2.6858834 -0.34402,0.058655 -0.47819,0.3652953 -0.33061,0.8011039 -0.49309,0.046627 -0.59128,0.5498604 -0.40692,0.7883881 1.19119,1.0738634 2.81871,2.0542284 4.95922,2.9246674 0.41305,-0.08016 0.56189,-0.762265 0.0941,-1.251321 0.75547,0.153085 1.04062,-0.160108 0.85839,-0.576955 z"
     id="path6169-7-6"
     sodipodi:nodetypes="ccccccc" /><path
     style="fill:#ff8080;stroke:#000000;stroke-width:0.25;stroke-linecap:round;stroke-linejoin:round;stroke-dasharray:none;stroke-opacity:1;stop-color:#000000"
     d="m 106.7902,11.175122 c -1.74385,-0.574207 -3.40182,-1.7401142 -4.47602,-2.4160286"
     id="path6358-7-2"
     sodipodi:nodetypes="cc" /><path
     style="fill:#ff8080;stroke:#000000;stroke-width:0.25;stroke-linecap:round;stroke-linejoin:round;stroke-dasharray:none;stroke-opacity:1;stop-color:#000000"
     d="m 102.89938,24.502905 c -1.78725,-1.673874 -4.136323,-2.165023 -5.747605,-2.899234 l -0.406918,1.703935 c 1.191187,1.073864 2.818708,2.054228 4.959213,2.924667 z"
     id="path6169-8"
     sodipodi:nodetypes="ccccc" /><path
     style="fill:#ff8080;stroke:#000000;stroke-width:0.25;stroke-linecap:round;stroke-linejoin:round;stroke-dasharray:none;stroke-opacity:1;stop-color:#000000"
     d="M 101.75494,24.986111 C 100.0111,24.411905 98.353124,23.245997 97.278928,22.570083"
     id="path6358-0"
     sodipodi:nodetypes="cc" /><path
     id="path2330-5-1-7"
     style="fill:url(#linearGradient9077);fill-opacity:1;stroke:#000000;stroke-width:0.25;stroke-linecap:round;stroke-linejoin:round;stop-color:#000000;stroke-dasharray:none"
     d="m 107.67475,33.491061 c 0,3.229213 0.92739,8.76026 3.04164,10.990156 -0.39965,-1.867464 1.97925,-4.49121 6.59801,-3.895408 2.35031,0.30318 4.78439,2.196575 5.21372,4.87603 0.42978,2.682265 -1.29934,3.976286 -2.56295,4.003469 -1.96034,0.04217 -2.89895,-1.981573 -2.43931,-2.661345 0.6026,-0.891195 1.68114,-0.303069 1.70042,0.455882 1.16845,-0.249322 0.87528,-1.837663 -0.63617,-1.886249 -2.67025,-0.08584 -2.0088,3.556831 -1.7677,5.058729 l 5.79355,4.274164 c 0,0 5.50027,-3.559076 5.50027,-10.58688 0,-7.390536 -5.24284,-10.717716 -7.7716,-12.04954 0.3931,-0.643998 0.99865,-1.637935 0.99865,-1.637935 0,0 -6.13887,-2.788074 -7.82153,-2.788075 -3.22921,-3e-6 -5.847,2.617789 -5.847,5.847002 z"
     sodipodi:nodetypes="scsssscsccsccss" /><path
     style="fill:#ff9955;stroke:#000000;stroke-width:0.25;stroke-linecap:round;stroke-linejoin:round;stroke-dasharray:none;stroke-opacity:1;stop-color:#000000"
     d="m 117.72616,29.2841 -2.05997,3.611327 c 0,0 5.17242,1.309713 8.03255,5.678111 2.28608,3.49162 1.36671,8.631868 1.18688,8.595902 -0.17983,-0.03597 0.005,-4.97628 -3.99224,-7.444986 -4.70178,-2.904219 -6.83356,-1.330746 -6.83356,-1.330746 l 0.28773,-8.020445 1.76234,-2.229899 z"
     id="path4259-4"
     sodipodi:nodetypes="ccssscccc" /><path
     id="path4259-0-5"
     style="fill:none;stroke:#000000;stroke-width:0.25;stroke-linecap:round;stroke-linejoin:round;stop-color:#000000;stroke-dasharray:none"
     d="m 118.20941,29.559531 -1.71738,3.014409 c 1.44537,0.475816 5.2557,2.003331 7.67202,5.693886 1.23035,1.87918 1.57478,4.134669 1.60948,5.916426 0.0174,0.89088 -0.0457,1.664851 -0.12587,2.227652 -0.0402,0.281401 -0.0817,0.506937 -0.12813,0.683356 -0.0233,0.08821 -0.0458,0.159926 -0.0832,0.24502 -0.0188,0.04255 -0.0353,0.08938 -0.0943,0.164095 -0.0296,0.03736 -0.0693,0.08441 -0.1551,0.13712 -0.0429,0.02636 -0.0999,0.05316 -0.17084,0.06969 -0.0354,0.0083 -0.11394,0.01572 -0.11464,0.01573 -7.2e-4,1.8e-5 -0.12517,-0.01104 -0.12587,-0.01128 -7.1e-4,-1.4e-4 -0.0749,-0.01991 -0.10784,-0.03372 -0.0329,-0.0138 -0.0619,-0.02843 -0.0877,-0.04496 -0.0514,-0.03305 -0.0869,-0.06826 -0.11463,-0.09891 -0.0555,-0.0613 -0.0791,-0.107335 -0.0967,-0.143865 -0.0352,-0.07304 -0.0443,-0.115682 -0.0539,-0.155103 -0.0193,-0.07884 -0.0295,-0.143968 -0.0405,-0.22254 -0.0219,-0.157145 -0.0446,-0.35675 -0.0787,-0.602433 -0.0682,-0.491365 -0.18122,-1.156549 -0.40685,-1.890468 -0.45129,-1.467839 -1.33362,-3.179844 -3.18751,-4.324927 -2.28063,-1.408712 -3.8781,-1.699371 -4.87341,-1.672425 -4.70759,-0.115692 -2.15519,-5.051348 -1.93766,-8.173299 0.005,-0.11882 0.0472,-0.233042 0.12137,-0.325942 L 115.53,27.958999 c 1.05849,0.275756 1.90813,0.931408 2.67958,1.600534 z"
     sodipodi:nodetypes="ccssccccssscscsssccscccccc" /><path
     id="path4259-0-7-4"
     style="fill:none;stroke:#000000;stroke-width:0.25;stroke-linecap:round;stroke-linejoin:round;stop-color:#000000;stroke-dasharray:none"
     d="m 118.73992,29.860747 -1.40268,2.459182 c 1.59993,0.538649 4.87098,1.8452 7.33933,5.61521 1.32613,2.025463 1.67231,4.382859 1.70839,6.235626 0.0181,0.926383 -0.0475,1.729312 -0.13263,2.326559 -0.0426,0.298623 -0.0881,0.540988 -0.14386,0.753039 -0.0279,0.106022 -0.0515,0.19882 -0.11245,0.337183 -0.0303,0.06918 -0.059,0.147443 -0.17533,0.294474 -0.0581,0.07351 -0.13829,0.172575 -0.3147,0.280984 -0.0882,0.05421 -0.20346,0.109602 -0.35066,0.143864 -0.0736,0.01713 -0.23981,0.02921 -0.24054,0.02922 -7.2e-4,1.7e-5 -0.2578,-0.02234 -0.2585,-0.02248 -7e-4,-1.41e-4 -0.15646,-0.03881 -0.22479,-0.06743 -0.0683,-0.02863 -0.12892,-0.06249 -0.18207,-0.09666 -0.10634,-0.06834 -0.18159,-0.139645 -0.23828,-0.20231 -0.11337,-0.125326 -0.15919,-0.216884 -0.19332,-0.287729 -0.0683,-0.141688 -0.0816,-0.212839 -0.0967,-0.274241 -0.0302,-0.122802 -0.0397,-0.197096 -0.0516,-0.283234 -0.0241,-0.172275 -0.0457,-0.365207 -0.0787,-0.602432 -0.066,-0.474449 -0.17454,-1.108436 -0.38663,-1.798305 -0.4242,-1.379739 -1.22913,-2.93608 -2.9245,-3.983248 -2.20357,-1.361116 -3.67619,-1.603485 -4.53399,-1.580262 -5.95874,-0.281826 -2.82294,-5.848313 -2.56482,-8.807198 0.009,-0.248025 0.0976,-0.486604 0.25176,-0.681108 l 1.43865,-1.960154 c 1.14531,0.314402 3.61729,1.409906 3.86869,2.171441 z"
     sodipodi:nodetypes="ccsssccssssssssssccscccccc" /><path
     style="fill:none;stroke:#000000;stroke-width:0.25;stroke-linecap:round;stroke-linejoin:round;stroke-dasharray:none;stroke-opacity:1;stop-color:#000000"
     d="m 118.38592,50.903371 c 0,0 1.99087,1.421678 4.68831,-0.0158 2.63754,-1.405548 3.03605,-3.69812 3.03605,-3.69812"
     id="path4640-3"
     sodipodi:nodetypes="csc" /><path
     id="path2330-5-1-9-2"
     style="fill:none;stroke:#000000;stroke-width:0.25;stroke-linecap:round;stroke-linejoin:round;stop-color:#000000;stroke-dasharray:none"
     d="m 113.52257,28.356913 c 0.22411,0 0.9894,-0.725134 1.77583,-0.472055 0.78645,0.253079 1.86755,0.909773 2.73078,1.254538 1.33228,0.532101 2.04838,0.983318 2.53181,1.199015 -0.21045,0.34581 -0.599,0.994112 -0.82303,1.361103 -0.21388,0.350169 -0.0883,0.808174 0.27425,1.000307 2.45527,1.29311 7.39104,4.365375 7.39104,11.419243 0,5.876245 -4.04009,9.198482 -4.98548,9.888103 l -4.66294,-3.488847 c -0.0493,-0.311952 -0.28256,-1.163884 -0.32318,-1.546079 0.55426,0.668325 1.41701,1.229217 2.54909,1.204865 1.73538,-0.03733 3.73307,-1.816365 3.25044,-4.82845 -0.48754,-3.042666 -3.16284,-5.125787 -5.82427,-5.469097 -2.45628,-0.316853 -4.39855,0.213962 -5.69163,1.153163 -0.603,0.437977 -0.87482,0.750166 -1.12169,1.036273 -0.76091,-0.965664 -1.18453,-1.573828 -1.4971,-2.875042 -0.48112,-2.002904 -0.70807,-4.156406 -0.70807,-5.702877 0,-2.844479 2.28968,-5.134165 5.13415,-5.134163 z"
     sodipodi:nodetypes="ssscccscccsssscsss" /><circle
     style="fill:url(#linearGradient9081);fill-opacity:1;stroke:#000000;stroke-width:0.25;stroke-linecap:round;stroke-linejoin:round;stop-color:#000000;stroke-dasharray:none"
     id="path2330-5-14"
     cx="-113.52175"
     cy="33.491058"
     r="5.1996117"
     transform="scale(-1,1)" /><circle
     style="display:inline;fill:url(#linearGradient9083);fill-opacity:1;stroke:#000000;stroke-width:0.25;stroke-linecap:round;stroke-linejoin:round;stop-color:#000000;stroke-dasharray:none"
     id="path2330-3"
     cx="-113.52175"
     cy="33.491058"
     r="4.1979871"
     transform="scale(-1,1)" /><path
     style="fill:url(#linearGradient9085);fill-opacity:1;stroke:#000000;stroke-width:0.25;stroke-linecap:round;stroke-linejoin:round;stroke-dasharray:none;stroke-opacity:1;stop-color:#000000"
     d="M 97.479441,23.611634 C 98.846154,21.633497 94.970905,16.818841 93.718467,12.143009 92.540562,7.745459 92.241669,4.2720375 93.36242,3.4198728 c -1.801,-0.298579 -3.001312,0.5843089 -3.338497,1.9495282 0.195162,4.1832681 1.871712,10.180491 2.77899,12.317759 0.519454,1.223671 -0.305177,2.034551 -1.271589,1.576777 -0.966412,-0.457774 -3.407873,-2.136279 -3.407873,-4.119966 0,-1.983686 1.881954,-3.306144 1.881954,-3.306144 0,0 -4.628603,2.950098 -3.76392,5.39156 0.864694,2.441461 8.94257,8.284172 11.237956,6.382247 z"
     id="path5903-5"
     sodipodi:nodetypes="csccssscsc" /><path
     id="path5903-7-7"
     style="fill:none;stroke:#000000;stroke-width:0.25;stroke-linecap:round;stroke-linejoin:round;stop-color:#000000;stroke-dasharray:none"
     d="m 92.399356,3.4101134 c -0.69109,0.8208844 -0.583181,2.2038949 -0.505954,3.2614787 0.111524,1.5276414 0.520076,3.4415089 1.11495,5.6624149 0.65898,2.460192 1.966259,4.862142 2.906511,6.867282 0.470137,1.002569 0.846372,1.907209 1.013795,2.612039 0.153798,0.647431 0.08828,1.013938 -0.04949,1.267805 -0.310655,0.174313 -0.900246,0.233856 -1.796061,-0.02698 -0.988763,-0.287891 -2.165897,-0.813225 -3.383059,-1.46562 -1.310779,-0.702567 -2.695296,-1.651588 -3.569635,-2.474917 -0.874351,-0.82333 -1.507331,-1.833014 -1.633955,-2.190517 -0.422225,-1.130168 0.117889,-1.89549 0.894457,-2.877046 -0.232842,2.352326 0.783624,3.48857 1.555474,4.253829 0.805779,0.798907 1.689245,1.354447 2.270355,1.629715 0.70055,0.331836 1.545783,0.284432 2.086034,-0.265251 0.540263,-0.549682 0.501949,-1.347166 0.105654,-2.198429 -2.05254,-4.408994 -2.885043,-7.6517818 -3.097595,-11.6912384 -0.04765,-0.3949965 -0.0168,-0.6595027 -0.0058,-1.054389"
     sodipodi:nodetypes="csssscsssccsssscc" /><path
     id="path2075-6"
     style="fill:url(#linearGradient5224);fill-opacity:1;stroke:#000000;stroke-width:0.25;stroke-linecap:round;stroke-linejoin:round;stop-color:#000000;stroke-dasharray:none"
     d="m 104.82638,23.398085 c -0.11129,-0.0054 -0.22552,-0.0032 -0.34167,0.0045 -2.01343,0.133892 -4.62269,2.185232 -3.49772,4.507004 1.38457,2.857568 5.21495,11.635337 8.86791,16.348848 3.65297,4.713512 12.59158,11.076603 14.36172,11.875562 1.71337,0.773344 4.1133,1.027284 6.08278,1.027284 1.96945,0 4.36938,-0.25394 6.08275,-1.027284 1.77014,-0.798959 10.70875,-7.16205 14.36172,-11.875562 3.65296,-4.713511 7.48334,-13.49128 8.86789,-16.348848 1.12499,-2.321772 -1.48427,-4.373112 -3.49769,-4.507004 -0.11616,-0.0077 -0.23034,-0.0099 -0.34168,-0.0045 -0.33403,0.01609 -0.64266,0.09328 -0.90365,0.238275 -1.85596,1.03108 -3.33003,2.741113 -4.89139,3.183001 -1.56136,0.441894 -3.44106,-0.03622 -4.77226,0.49903 -2.0306,0.816459 -6.54792,3.68428 -14.90569,3.68428 -8.3578,0 -12.87512,-2.867821 -14.90572,-3.68428 -1.3312,-0.535248 -3.2109,-0.05713 -4.77225,-0.49903 -1.56136,-0.441888 -3.03544,-2.151921 -4.8914,-3.183001 -0.26099,-0.144992 -0.56962,-0.222186 -0.90365,-0.238275 z m -0.054,0.98682 c 0.21125,0.01082 0.37774,0.05625 0.47879,0.112398 1.64564,0.914239 3.05762,2.689631 5.10271,3.268421 0.96965,0.274425 1.91569,0.249231 2.73791,0.251763 0.82222,0.0025 1.51257,0.04353 1.93542,0.213549 0.87971,0.353705 2.61929,1.319359 5.13193,2.166958 3.02405,1.008511 6.28034,1.631964 10.1402,1.631964 3.85984,0 7.11613,-0.623453 10.14019,-1.631964 2.51263,-0.847599 4.25221,-1.813253 5.13192,-2.166958 0.42285,-0.170021 1.1132,-0.211016 1.93542,-0.213549 0.82222,-0.0025 1.76827,0.02266 2.73792,-0.251763 2.04509,-0.57879 3.45706,-2.354182 5.10269,-3.268421 0.10106,-0.05615 0.26754,-0.101591 0.4788,-0.112398 0.0704,-0.0036 0.14487,-0.0024 0.22479,0.0023 0.10658,0.0062 0.22115,0.02069 0.34168,0.04496 0.72156,0.145349 1.57797,0.635436 2.05231,1.218352 0.006,0.0069 0.0104,0.01333 0.0158,0.02024 -0.30279,-0.06241 -0.67227,-0.104285 -1.07899,-0.07193 -1.04468,0.0831 -2.34797,0.720005 -3.18075,2.47492 -1.10756,2.333987 -1.25301,4.840979 -1.47461,6.986419 -0.22158,2.145434 -0.529,3.857025 -1.64994,4.812715 -0.2415,0.206685 -0.0719,0.507091 0.27874,0.505773 -0.0638,0.386059 0.22775,0.5771 0.4698,0.370901 0.0946,-0.08061 0.18442,-0.163276 0.26976,-0.249515 -0.7088,1.167544 -1.42579,2.248985 -2.12874,3.156028 -1.71982,2.219102 -4.83574,4.980119 -7.71474,7.233684 -1.4395,1.126783 -2.82316,2.13308 -3.94729,2.902016 -1.12411,0.768942 -2.04732,1.319354 -2.32655,1.445389 -1.84588,0.580201 -3.02636,0.797341 -5.67814,0.908144 -2.65181,-0.110798 -3.83229,-0.327943 -5.67817,-0.908144 -0.27923,-0.126035 -1.20244,-0.676447 -2.32655,-1.445389 -1.12413,-0.768936 -2.50779,-1.775233 -3.94729,-2.902016 -2.879,-2.253565 -5.99491,-5.014582 -7.71474,-7.233684 -0.70295,-0.907043 -1.41993,-1.988484 -2.12872,-3.156028 0.0853,0.08624 0.17513,0.168905 0.26974,0.249515 0.24205,0.206199 0.53356,0.01516 0.4698,-0.370901 0.35065,0.0013 0.52024,-0.299088 0.27874,-0.505773 -1.12094,-0.95569 -1.42836,-2.667281 -1.64994,-4.812715 -0.2216,-2.14544 -0.36705,-4.652432 -1.47462,-6.986419 -0.83278,-1.754915 -2.13606,-2.391812 -3.18076,-2.47492 -0.4067,-0.03235 -0.77618,0.0096 -1.07898,0.07193 0.006,-0.0069 0.0104,-0.01333 0.0158,-0.02024 0.47434,-0.582916 1.33074,-1.073003 2.05231,-1.218352 0.12054,-0.02427 0.23511,-0.03874 0.34168,-0.04496 0.0799,-0.0047 0.15435,-0.0059 0.22479,-0.0023 z m -1.9062,2.35578 c 0.0832,-0.0017 0.16977,-2.77e-4 0.2585,0.0068 0.70998,0.05648 1.54048,0.363238 2.23215,1.820785 0.98573,2.077252 1.14607,4.431196 1.37121,6.611021 0.11875,1.149827 0.25579,2.270384 0.5822,3.266173 -2.35614,-4.230805 -4.46592,-8.959726 -5.43763,-10.96517 -0.084,-0.173215 -0.13544,-0.334734 -0.16409,-0.48779 0.0509,-0.0061 0.10082,-0.01892 0.14835,-0.03821 0,0 0.4269,-0.200994 1.00931,-0.21355 z m 54.86631,0 c 0.5824,0.01256 1.00931,0.21355 1.00931,0.21355 0.0476,0.01929 0.0975,0.03215 0.14834,0.03821 -0.0286,0.153056 -0.0801,0.314575 -0.1641,0.48779 -0.9717,2.005444 -3.08148,6.734365 -5.43762,10.96517 0.32641,-0.995789 0.46345,-2.116346 0.58221,-3.266173 0.22513,-2.179823 0.38547,-4.533769 1.3712,-6.611021 0.69167,-1.457547 1.52217,-1.764306 2.23215,-1.820785 0.0888,-0.0071 0.1753,-0.0086 0.25851,-0.0068 z" /></svg>
