<?xml version="1.0" encoding="UTF-8" standalone="no"?>
<svg
   cursor="default"
   version="1.1"
   viewBox="0 0 256 256"
   id="svg72"
   sodipodi:docname="leia_collar.svg"
   xml:space="preserve"
   inkscape:version="1.2 (dc2aedaf03, 2022-05-15)"
   xmlns:inkscape="http://www.inkscape.org/namespaces/inkscape"
   xmlns:sodipodi="http://sodipodi.sourceforge.net/DTD/sodipodi-0.dtd"
   xmlns:xlink="http://www.w3.org/1999/xlink"
   xmlns="http://www.w3.org/2000/svg"
   xmlns:svg="http://www.w3.org/2000/svg"><sodipodi:namedview
     id="namedview74"
     pagecolor="#ffffff"
     bordercolor="#000000"
     borderopacity="0.25"
     inkscape:showpageshadow="2"
     inkscape:pageopacity="0.0"
     inkscape:pagecheckerboard="0"
     inkscape:deskcolor="#d1d1d1"
     showgrid="false"
     inkscape:zoom="3.453125"
     inkscape:cx="155.36652"
     inkscape:cy="96.289593"
     inkscape:window-width="1920"
     inkscape:window-height="1051"
     inkscape:window-x="-9"
     inkscape:window-y="-9"
     inkscape:window-maximized="1"
     inkscape:current-layer="svg72" /><defs
     id="defs22"><linearGradient
       inkscape:collect="always"
       id="linearGradient4326"><stop
         style="stop-color:#ff9955;stop-opacity:1"
         offset="0"
         id="stop4322" /><stop
         style="stop-color:#ffb380;stop-opacity:1"
         offset="1"
         id="stop4324" /></linearGradient><linearGradient
       inkscape:collect="always"
       id="linearGradient1502"><stop
         style="stop-color:#ff8080;stop-opacity:1"
         offset="0"
         id="stop1498" /><stop
         style="stop-color:#ffaaaa;stop-opacity:1"
         offset="1"
         id="stop1500" /></linearGradient><linearGradient
       id="innoGrad1"><stop
         stop-color="#f55"
         offset="0"
         id="stop2" /><stop
         stop-color="#ff8080"
         offset="1"
         id="stop4" /></linearGradient><linearGradient
       id="linearGradient982"
       x1="297.8"
       x2="376.61"
       y1="110.65"
       y2="89.554"
       gradientTransform="translate(-260.79,-6.9033)"
       gradientUnits="userSpaceOnUse"
       xlink:href="#innoGrad1" /><linearGradient
       id="linearGradient990"
       x1="497.61"
       x2="437.97"
       y1="123.3"
       y2="93.006"
       gradientTransform="translate(-260.79,-6.9033)"
       gradientUnits="userSpaceOnUse"
       xlink:href="#innoGrad1" /><linearGradient
       id="linearGradient1002"
       x1="357.42"
       x2="391.19"
       y1="186.31"
       y2="187.53"
       gradientTransform="translate(-260.79,-6.9033)"
       gradientUnits="userSpaceOnUse"><stop
         stop-color="#ffe680"
         offset="0"
         id="stop9" /><stop
         stop-color="#fea"
         offset=".65371"
         id="stop11" /><stop
         stop-color="#ffe680"
         offset="1"
         id="stop13" /></linearGradient><linearGradient
       id="linearGradient1012"
       x1="257.34"
       x2="370.48"
       y1="188.12"
       y2="150.92"
       gradientTransform="translate(-260.79,-6.9033)"
       gradientUnits="userSpaceOnUse"
       xlink:href="#innoGrad1" /><linearGradient
       id="linearGradient1064"
       x1="356.29"
       x2="427.24"
       y1="202.12"
       y2="155.14"
       gradientTransform="translate(-260.79,-6.9033)"
       gradientUnits="userSpaceOnUse"><stop
         stop-color="#ffb380"
         offset="0"
         id="stop17" /><stop
         stop-color="#fca"
         offset="1"
         id="stop19" /></linearGradient><linearGradient
       inkscape:collect="always"
       xlink:href="#innoGrad1"
       id="linearGradient1480"
       x1="78.158035"
       y1="80.160423"
       x2="202.08458"
       y2="61.730854"
       gradientUnits="userSpaceOnUse"
       gradientTransform="matrix(1.2993193,0,0,1.2993193,-48.073426,-23.814902)" /><linearGradient
       inkscape:collect="always"
       xlink:href="#linearGradient1502"
       id="linearGradient1488"
       x1="197.14015"
       y1="65.941055"
       x2="206.91829"
       y2="65.941055"
       gradientUnits="userSpaceOnUse"
       gradientTransform="matrix(1.2993193,0,0,1.2993193,-48.073426,-23.814902)" /><linearGradient
       inkscape:collect="always"
       xlink:href="#linearGradient1502"
       id="linearGradient1490"
       x1="159.48491"
       y1="95.433037"
       x2="171.68053"
       y2="95.433037"
       gradientUnits="userSpaceOnUse"
       gradientTransform="matrix(1.2993193,0,0,1.2993193,-48.073426,-23.814902)" /><linearGradient
       inkscape:collect="always"
       xlink:href="#linearGradient1502"
       id="linearGradient1492"
       x1="151.4733"
       y1="101.35947"
       x2="161.55994"
       y2="101.35947"
       gradientUnits="userSpaceOnUse"
       gradientTransform="matrix(1.2993193,0,0,1.2993193,-48.073426,-23.814902)" /><linearGradient
       inkscape:collect="always"
       xlink:href="#linearGradient1502"
       id="linearGradient1494"
       x1="141.72285"
       y1="105.78299"
       x2="155.18213"
       y2="105.78299"
       gradientUnits="userSpaceOnUse"
       gradientTransform="matrix(1.2993193,0,0,1.2993193,-48.073426,-23.814902)" /><linearGradient
       inkscape:collect="always"
       xlink:href="#linearGradient1502"
       id="linearGradient1496"
       x1="129.71895"
       y1="113.78334"
       x2="146.35554"
       y2="113.78334"
       gradientUnits="userSpaceOnUse"
       gradientTransform="matrix(1.2993193,0,0,1.2993193,-48.073426,-23.814902)" /><linearGradient
       inkscape:collect="always"
       xlink:href="#linearGradient1502"
       id="linearGradient1991"
       x1="65.904129"
       y1="64.110268"
       x2="70.655212"
       y2="64.110268"
       gradientUnits="userSpaceOnUse"
       gradientTransform="matrix(1.2993193,0,0,1.2993193,-48.073426,-23.814902)" /><linearGradient
       inkscape:collect="always"
       xlink:href="#linearGradient1502"
       id="linearGradient1993"
       x1="82.591957"
       y1="91.149307"
       x2="96.358597"
       y2="91.149307"
       gradientUnits="userSpaceOnUse"
       gradientTransform="matrix(1.2993193,0,0,1.2993193,-48.073426,-23.814902)" /><linearGradient
       inkscape:collect="always"
       xlink:href="#linearGradient1502"
       id="linearGradient1995"
       x1="88.880569"
       y1="98.16993"
       x2="104.47946"
       y2="98.16993"
       gradientUnits="userSpaceOnUse"
       gradientTransform="matrix(1.2993193,0,0,1.2993193,-48.073426,-23.814902)" /><linearGradient
       inkscape:collect="always"
       xlink:href="#innoGrad1"
       id="linearGradient2079"
       x1="96.425575"
       y1="108.41932"
       x2="112.46719"
       y2="108.41932"
       gradientUnits="userSpaceOnUse"
       gradientTransform="matrix(1.2993193,0,0,1.2993193,-48.073426,-23.814902)" /><linearGradient
       inkscape:collect="always"
       xlink:href="#innoGrad1"
       id="linearGradient2081"
       x1="103.36032"
       y1="110.37254"
       x2="114.34149"
       y2="110.37254"
       gradientUnits="userSpaceOnUse"
       gradientTransform="matrix(1.2993193,0,0,1.2993193,-48.073426,-23.814902)" /><radialGradient
       inkscape:collect="always"
       xlink:href="#linearGradient4326"
       id="radialGradient4328"
       cx="127.87121"
       cy="185.21662"
       fx="127.87121"
       fy="185.21662"
       r="21.847614"
       gradientTransform="matrix(1.2993193,0,0,1.4268824,-48.073426,-47.44171)"
       gradientUnits="userSpaceOnUse" /><radialGradient
       inkscape:collect="always"
       xlink:href="#linearGradient4326"
       id="radialGradient4336"
       cx="125.27901"
       cy="155.70808"
       fx="125.27901"
       fy="155.70808"
       r="16.117807"
       gradientTransform="matrix(1.2993193,0,0,1.7957208,-48.073426,-101.10865)"
       gradientUnits="userSpaceOnUse" /><radialGradient
       inkscape:collect="always"
       xlink:href="#linearGradient4326"
       id="radialGradient4344"
       cx="120.68072"
       cy="130.56648"
       fx="120.68072"
       fy="130.56648"
       r="27.276419"
       gradientTransform="matrix(1.2993193,0,0,0.9665677,-48.073426,19.631306)"
       gradientUnits="userSpaceOnUse" /></defs><path
     style="fill:#ff2a2a;stroke:#000000;stroke-width:0.75;stroke-linecap:round;stroke-linejoin:round;stroke-dasharray:none;stop-color:#000000"
     d="m 49.838683,72.766879 c 0,0 1.976961,-24.888976 71.039497,-35.569313 50.10203,-7.748143 82.90814,6.700561 90.55358,28.195112 l 1.23901,-26.41612 -13.83539,-15.165733 -50.02033,-9.046227 -66.782441,6.119506 -35.120648,18.890651 -5.321309,14.101472 z"
     id="path2224"
     sodipodi:nodetypes="cscccccccc" /><path
     id="path1353"
     style="fill:url(#linearGradient1480);fill-opacity:1;stroke:#000000;stroke-width:0.75;stroke-linecap:round;stroke-linejoin:round;stroke-dasharray:none;stop-color:#000000"
     d="m 142.50271,12.007736 c -30.41,-0.126554 -68.835279,4.345223 -90.264628,18.396027 -5.841708,3.830295 -10.954953,11.389616 -12.244553,15.756784 -2.128522,8.514087 -0.131963,22.880199 -0.131963,22.880199 0,0 -2.354292,14.586669 2.527582,19.956733 2.660653,2.926712 7.715344,4.655387 9.843866,5.453583 2.128523,0.798196 9.578437,8.914508 11.973024,10.244828 2.394588,1.33033 16.23134,5.98651 16.23134,5.98651 l 8.379601,-7.18432 -5.453594,-11.841057 c 0,0 -10.77534,-5.854197 -20.220657,-11.5746 C 53.697404,74.362021 50.284113,67.972933 47.576266,57.867107 45.714803,50.920031 50.221211,44.645771 52.499468,42.701616 84.572181,15.332317 160.9787,14.560775 195.51419,26.809425 c 4.59127,1.628381 14.14756,10.64779 14.06587,23.878437 -0.094,15.239059 -4.70474,24.549984 -6.20983,25.961007 -1.5051,1.411024 -6.20776,6.116408 -7.33658,7.245228 -1.12881,1.12882 -2.53903,4.13732 -4.60853,5.078004 -2.0695,0.940688 -8.65435,0.470425 -13.8281,2.728067 -5.17376,2.257635 -30.19649,13.734212 -30.19649,13.734212 l -17.77935,8.55977 -2.91587,32.45507 2.1647,1.03539 c 0,0 3.19818,-5.17499 4.23293,-9.0318 1.03475,-3.8568 2.91547,-11.8518 4.51462,-14.29758 1.59917,-2.44578 4.70243,-3.38787 4.70243,-3.38787 0,0 17.02612,-2.72768 23.70496,-4.32684 6.67886,-1.59916 22.39043,-8.46588 22.39043,-8.46588 0,0 8.74857,-0.93956 13.7342,-3.38533 4.98561,-2.44577 16.46009,-17.028048 16.27195,-26.81115 -0.18812,-9.783098 -0.0939,-12.1329 -0.0939,-12.132901 0,0 3.10709,-21.506019 -4.42073,-31.513568 -4.59846,-6.113246 -8.68836,-11.268105 -16.65779,-13.909155 -17.89701,-5.931023 -35.46457,-8.134556 -54.74636,-8.2148 z"
     sodipodi:nodetypes="ssccssscccsssssssssccccsscscsscsss" /><path
     id="path3075"
     style="fill:url(#radialGradient4344);fill-opacity:1;stroke:#000000;stroke-width:0.75;stroke-linecap:round;stroke-linejoin:round;stroke-dasharray:none;stop-color:#000000"
     d="m 99.952419,119.79382 c -9.114622,-0.0599 -18.108457,3.0512 -23.905444,14.30012 -9.649659,18.72494 11.706693,30.16523 23.54509,34.58929 23.584245,8.81359 39.853195,-1.91011 43.636315,-16.09683 4.25706,-15.96392 -14.36779,-27.00515 -27.40497,-30.33098 -4.88895,-1.24719 -10.40221,-2.42564 -15.870991,-2.4616 z m -0.06601,10.07225 c 4.066571,0.0268 8.843351,0.97241 13.447461,2.14693 5.04508,1.28702 11.882,4.50732 15.94457,8.15881 4.06256,3.65149 5.25513,5.92823 4.21771,9.8185 -2.25651,8.46189 -10.72689,16.60435 -30.3792,9.26018 -5.112904,-1.91072 -12.381958,-5.67407 -16.14506,-9.53173 -1.881544,-1.92883 -2.828241,-3.65733 -3.146783,-5.10592 -0.318567,-1.44857 -0.35322,-2.9399 1.174961,-5.9053 4.200324,-8.15061 8.106896,-8.88603 14.886341,-8.84147 z" /><path
     style="fill:url(#linearGradient1496);fill-opacity:1;stroke:#000000;stroke-width:0.75;stroke-linecap:round;stroke-linejoin:round;stroke-dasharray:none;stop-color:#000000"
     d="m 121.67638,146.46702 c 1.67549,3.68192 6.2978,2.84295 7.11725,0.7982 2.63523,-12.01484 3.20461,-25.89181 9.3788,-32.85908 l 3.59189,-13.30329 c 0,0 -9.2512,-4.902906 -14.89968,0.3991 -7.70957,7.2367 -6.2971,32.92012 -5.18826,44.96507 z"
     id="path978"
     sodipodi:nodetypes="ccccsc" /><path
     style="fill:url(#linearGradient1494);fill-opacity:1;stroke:#000000;stroke-width:0.75;stroke-linecap:round;stroke-linejoin:round;stroke-dasharray:none;stop-color:#000000"
     d="m 153.23287,98.944316 c 0,0 -2.47151,-0.813134 -3.24771,-1.638134 -1.67808,-1.783545 -6.63517,-3.114685 -8.89281,-0.386708 -2.25765,2.727989 -4.69772,30.902076 -4.69772,33.443666 0,1.59916 1.88138,2.02247 2.35173,0.94069 0.3458,-0.79533 3.95086,-8.65429 5.36188,-11.94668 1.41103,-3.29239 2.44579,-7.90175 4.13901,-8.9365 1.69323,-1.03474 4.42122,-1.22288 4.42122,-1.22288 z"
     id="path1214"
     sodipodi:nodetypes="csssssscc" /><path
     style="fill:url(#linearGradient1492);fill-opacity:1;stroke:#000000;stroke-width:0.75;stroke-linecap:round;stroke-linejoin:round;stroke-dasharray:none;stop-color:#000000"
     d="m 161.51967,96.84581 c 0,0 -5.25478,-2.261566 -7.64937,-0.46562 -2.3946,1.795946 -3.32581,6.45209 -3.45886,8.71364 -0.13302,2.26156 -1.13077,12.70464 -1.33031,13.7689 -0.19956,1.06427 1.2638,1.52988 1.92896,0.99774 0.66517,-0.53212 8.64713,-10.04397 9.51185,-12.50508 0.86471,-2.4611 0.99773,-10.50958 0.99773,-10.50958 z"
     id="path1216" /><path
     style="fill:url(#linearGradient1490);fill-opacity:1;stroke:#000000;stroke-width:0.75;stroke-linecap:round;stroke-linejoin:round;stroke-dasharray:none;stop-color:#000000"
     d="m 163.0536,103.81792 c -0.67049,-0.77082 -3.0638,-1.51777 -3.52941,-3.71282 -0.46562,-2.195029 2.52762,-5.720399 5.05524,-6.518595 2.52764,-0.798196 9.37881,4.390077 10.04397,5.653892 0.66518,1.263803 -6.71814,6.851183 -7.98196,7.383333 -1.26381,0.53211 -2.99323,0.13302 -3.39233,-0.66518 -0.3991,-0.79819 0.10237,-1.79817 -0.19551,-2.14063 z"
     id="path1306"
     sodipodi:nodetypes="sssssss" /><path
     style="fill:url(#linearGradient1488);fill-opacity:1;stroke:#000000;stroke-width:0.75;stroke-linecap:round;stroke-linejoin:round;stroke-dasharray:none;stop-color:#000000"
     d="m 217.85783,43.161772 c 0,0 3.85682,10.441588 2.16358,18.531468 -1.69323,8.089879 -8.46616,18.719605 -8.46616,18.719605 -1.02503,0.537672 -2.77859,-0.472994 -2.53984,-2.163574 -0.91918,-0.663023 -0.81986,-2.953309 0.37628,-3.950871 0,0 4.98562,-5.832237 7.33733,-12.322955 2.35171,-6.490717 1.12881,-18.813673 1.12881,-18.813673 z"
     id="path1355"
     sodipodi:nodetypes="cscccsc" /><path
     style="fill:url(#linearGradient1993);fill-opacity:1;stroke:#000000;stroke-width:0.75;stroke-linecap:round;stroke-linejoin:round;stroke-dasharray:none;stop-color:#000000"
     d="m 76.802326,86.903561 c 0,0 -1.269922,-1.646196 -4.327144,-2.022469 -3.057222,-0.376273 -9.642007,0.188136 -11.946681,5.597067 -2.304676,5.408934 0.141101,11.711511 0.987717,13.169571 0.846614,1.45807 2.163572,0.70551 2.680948,-0.51738 0.517376,-1.22289 2.633914,-5.926306 4.091973,-6.961054 1.45806,-1.034749 4.515281,-0.893652 4.515281,-0.893652 z"
     id="path1852" /><path
     style="fill:url(#linearGradient1995);fill-opacity:1;stroke:#000000;stroke-width:0.75;stroke-linecap:round;stroke-linejoin:round;stroke-dasharray:none;stop-color:#000000"
     d="m 87.353919,91.724048 c 0,0 -0.86471,-2.660658 -2.261556,-3.924468 -1.396846,-1.263811 -3.658402,-3.392336 -6.452089,-2.394591 -2.793689,0.997746 -5.454344,4.124015 -8.44758,9.711397 -2.993238,5.587374 -2.793688,11.706884 -1.795942,17.360764 0.997746,5.6539 3.791432,8.64713 4.656146,9.64487 0.864713,0.99775 2.328073,-1.86245 2.461107,-3.19277 0.133031,-1.33034 0.53213,-12.83767 1.862458,-15.96394 1.330327,-3.126271 2.993236,-4.323565 3.325818,-3.924467 0.332582,0.399098 1.862465,1.529877 1.862465,1.529877 z"
     id="path1736" /><path
     style="fill:url(#linearGradient2079);fill-opacity:1;stroke:#000000;stroke-width:0.75;stroke-linecap:round;stroke-linejoin:round;stroke-dasharray:none;stop-color:#000000"
     d="m 97.732531,97.627354 c 0,0 -3.574596,-6.772917 -7.995803,-6.866992 -4.421219,-0.09402 -7.431404,5.738169 -9.030565,9.783108 -1.599161,4.04494 -3.762734,18.43739 -3.010187,23.42303 0.752547,4.98562 1.881367,12.22888 3.574597,14.48653 1.693233,2.25763 4.421219,5.07969 7.337332,4.89155 2.916115,-0.18813 5.644101,-2.63392 5.644101,-2.63392 l -5.361901,-5.6441 -0.564399,-12.79329 5.267818,-18.24927 z"
     id="path1619" /><path
     style="fill:#ff5555;stroke:#000000;stroke-width:0.75;stroke-linecap:round;stroke-linejoin:round;stroke-dasharray:none;stop-color:#000000"
     d="m 89.736728,114.74779 2.340295,5.88066 5.499655,-0.81808 0.720264,-7.79055 -2.163561,-6.96107 -4.515291,4.13902 z"
     id="path1621"
     sodipodi:nodetypes="ccccccc" /><path
     style="fill:#ff5555;stroke:#000000;stroke-width:0.75;stroke-linecap:round;stroke-linejoin:round;stroke-dasharray:none;stop-color:#000000"
     d="m 95.851169,130.08095 -3.386454,0.68199 -2.539846,2.96315 2.516327,2.82204 3.668667,-1.50509 z"
     id="path3155" /><path
     style="fill:url(#linearGradient2081);fill-opacity:1;stroke:#000000;stroke-width:0.75;stroke-linecap:round;stroke-linejoin:round;stroke-dasharray:none;stop-color:#000000"
     d="m 92.409168,141.54481 c -4.142801,0.0638 -7.582866,-11.97294 -4.922211,-22.61556 2.660655,-10.64262 6.784668,-21.152212 9.844422,-21.285244 3.059751,-0.133033 2.899161,22.106264 2.899161,22.106264 l -3.176644,0.10783 c 0,0 0.676582,-11.57147 -1.185875,-11.97057 -1.86247,-0.3991 -6.651644,11.83992 -6.385583,17.95943 0.266075,6.11949 2.128532,8.38104 3.724928,8.11498 1.596382,-0.26606 2.846419,-3.95063 2.846419,-3.95063 l 3.007014,-0.14012 c 0,0 -2.097868,11.60356 -6.651631,11.67362 z"
     id="path1560"
     sodipodi:nodetypes="sssccsssccs" /><path
     style="fill:url(#linearGradient1991);fill-opacity:1;stroke:#000000;stroke-width:0.75;stroke-linecap:round;stroke-linejoin:round;stroke-dasharray:none;stop-color:#000000"
     d="m 39.861225,47.224588 c 0,0 -2.92672,6.851188 -1.662909,15.498318 1.263812,8.647128 2.261556,8.846677 2.261556,8.846677 0.8159,0.787923 2.077099,-1.113365 1.662911,-2.793687 1.220639,-1.189514 1.757942,-2.872872 0.798196,-4.523114 0,0 -3.85795,-6.186024 -3.059754,-17.028194 z"
     id="path1917"
     sodipodi:nodetypes="cscccc" /><path
     style="fill:none;stroke:#000000;stroke-width:0.75;stroke-linecap:round;stroke-linejoin:round;stroke-dasharray:none;stop-color:#000000"
     d="m 39.794709,70.305772 c 0.837075,7.474172 1.719911,11.906919 5.454343,16.429546"
     id="path1919"
     sodipodi:nodetypes="cc" /><path
     id="path3228"
     style="fill:url(#radialGradient4336);fill-opacity:1;stroke:#000000;stroke-width:0.75;stroke-linecap:round;stroke-linejoin:round;stroke-dasharray:none;stop-color:#000000"
     d="m 121.75166,149.88784 c -5.70864,0.16732 -10.82629,3.61636 -15.67049,10.0672 2.98706,1.49907 8.20137,2.34748 10.2905,2.0048 2.41737,-2.37253 4.02721,-2.89885 5.64645,-2.9463 0.53381,-0.0156 1.12594,0.0352 1.84748,0.20301 0.51969,0.12084 0.37132,-0.0141 0.81969,0.68772 0.44837,0.70183 1.07925,2.37184 1.34246,4.64152 0.52641,4.53933 -0.46864,11.17626 -2.00735,15.34567 -2.09756,5.68366 -4.38146,11.42332 -6.94323,14.53359 -2.56178,3.11031 -3.87988,4.36532 -9.93269,3.31175 0.79918,0.1391 -1.6973,-0.92595 -2.94378,-4.02739 -1.24648,-3.10142 -1.71173,-7.53667 0.80701,-13.20382 1.52613,-3.43382 3.04417,-6.44208 4.52224,-9.05463 -3.37292,-0.65423 -6.34307,-1.3628 -9.10112,-2.36836 -1.296842,2.43265 -2.482924,4.83595 -3.762664,7.71537 -6.917666,15.56478 1.452367,28.63402 8.912524,29.93255 17.56754,3.05784 22.88255,-12.50485 27.00656,-23.67958 4.12399,-11.17473 4.78939,-30.06595 -6.6514,-32.72661 -1.4301,-0.33259 -2.82301,-0.47633 -4.18219,-0.43649 z"
     sodipodi:nodetypes="sccsssssscssccsssss" /><path
     id="path3401"
     style="fill:url(#radialGradient4328);fill-opacity:1;stroke:#000000;stroke-width:0.75;stroke-linecap:round;stroke-linejoin:round;stroke-dasharray:none;stop-color:#000000"
     d="m 113.97859,185.99217 c -0.69482,0.006 -1.38595,0.0515 -2.0708,0.13196 -1.56535,0.1841 -3.09903,0.56166 -4.5806,1.1496 -11.85259,4.70339 -25.267321,20.53731 -11.475631,47.60025 6.156481,12.0806 21.258291,15.99078 36.685471,10.15854 15.42717,-5.83221 16.55689,-23.70534 9.21958,-38.75625 -2.90271,-5.95428 -7.58787,-11.64573 -12.26522,-15.16687 -1.77017,3.84007 -2.72848,5.74575 -5.20977,8.99475 3.18482,2.48901 6.34298,6.18925 8.47366,10.55986 2.89566,5.9399 3.86791,12.31286 3.07573,16.64753 -0.79219,4.33467 -2.21272,6.60614 -6.83666,8.35422 -12.02,4.54413 -20.6751,1.61688 -24.22012,-5.3394 -5.94063,-11.65707 -5.443822,-18.97213 -3.47924,-23.97904 1.96463,-5.00687 6.17811,-8.35684 9.72714,-9.7652 0.64548,-0.25615 1.31415,-0.42542 2.05555,-0.51262 0.31922,-0.0376 0.6509,-0.0578 0.99734,-0.0609 0.34644,-0.002 1.13092,0.0117 1.50693,0.0457 2.50884,-2.10124 4.66656,-6.60453 5.51846,-8.91398 -2.23192,-0.67325 -4.91271,-1.17036 -7.12182,-1.14813 z"
     sodipodi:nodetypes="ssssssccssssssssccss" /><path
     style="fill:none;stroke:#000000;stroke-width:0.75;stroke-linecap:round;stroke-linejoin:round;stroke-dasharray:none;stop-color:#000000"
     d="m 158.66063,12.633484 c -2.4745,1.076698 -1.75346,5.223774 -0.54298,7.20362 0.23045,1.057584 0.43238,2.452487 0.32579,3.438914 3.22843,0.08716 5.91936,0.377303 8.39819,1.085973 0.46679,2.037046 0.33994,3.496989 0,5.031674 -2.81631,-0.743165 -5.31761,-1.059647 -8.61538,-1.049773 0.49437,2.976235 -2.4268,5.645358 -0.2172,7.16742"
     id="path4634"
     sodipodi:nodetypes="ccccccc" /><ellipse
     style="fill:#ff7f2a;stroke:#000000;stroke-width:0.75;stroke-linecap:round;stroke-linejoin:round;stroke-dasharray:none;stop-color:#000000"
     id="path4743"
     cx="161.46352"
     cy="14.871639"
     rx="2.1501164"
     ry="1.100655" /></svg>
