<?xml version="1.0" encoding="UTF-8" standalone="no"?>
<svg
   cursor="default"
   viewBox="0 0 256 256"
   version="1.1"
   id="svg169344"
   sodipodi:docname="bell_plug.svg"
   inkscape:version="1.2 (dc2aedaf03, 2022-05-15)"
   xml:space="preserve"
   xmlns:inkscape="http://www.inkscape.org/namespaces/inkscape"
   xmlns:sodipodi="http://sodipodi.sourceforge.net/DTD/sodipodi-0.dtd"
   xmlns:xlink="http://www.w3.org/1999/xlink"
   xmlns="http://www.w3.org/2000/svg"
   xmlns:svg="http://www.w3.org/2000/svg"><sodipodi:namedview
     id="namedview169346"
     pagecolor="#ffffff"
     bordercolor="#000000"
     borderopacity="0.25"
     inkscape:showpageshadow="2"
     inkscape:pageopacity="0.0"
     inkscape:pagecheckerboard="0"
     inkscape:deskcolor="#d1d1d1"
     showgrid="false"
     inkscape:zoom="2.4417281"
     inkscape:cx="15.357975"
     inkscape:cy="125.9354"
     inkscape:window-width="1920"
     inkscape:window-height="1051"
     inkscape:window-x="-9"
     inkscape:window-y="-9"
     inkscape:window-maximized="1"
     inkscape:current-layer="svg169344" /><defs
     id="defs169330"><linearGradient
       inkscape:collect="always"
       id="linearGradient188811"><stop
         style="stop-color:#ffb380;stop-opacity:1"
         offset="0"
         id="stop188807" /><stop
         style="stop-color:#ffccaa;stop-opacity:1"
         offset="1"
         id="stop188809" /></linearGradient><linearGradient
       inkscape:collect="always"
       id="linearGradient188707"><stop
         style="stop-color:#ffb380;stop-opacity:1"
         offset="0"
         id="stop188705" /><stop
         style="stop-color:#ffccaa;stop-opacity:1"
         offset="1"
         id="stop188703" /></linearGradient><marker
       markerWidth="5.5250001"
       markerHeight="1"
       refX="0"
       refY="0"
       orient="auto-start-reverse"
       id="marker171087"
       viewBox="0 0 0.525 1"
       inkscape:stockid="pin"
       style="overflow:visible"
       preserveAspectRatio="none"
       inkscape:isstock="true"
       inkscape:collect="always"><path
         id="path171085"
         style="fill:context-stroke;stroke-linecap:butt"
         d="M 0,-1 1,0 0,1 -0.05,0 Z"
         sodipodi:nodetypes="sssssscsss"
         transform="scale(0.5)" /></marker><marker
       markerWidth="5.5250001"
       markerHeight="1.001"
       refX="0"
       refY="0"
       orient="auto-start-reverse"
       id="CapTriangle"
       viewBox="0 0 0.525 1"
       inkscape:stockid="pin"
       style="overflow:visible"
       preserveAspectRatio="none"
       inkscape:isstock="true"
       inkscape:collect="always"><path
         id="path7813"
         style="fill:context-stroke;stroke-linecap:butt"
         d="M 0,-1 1,0 0,1 -0.05,0 Z"
         sodipodi:nodetypes="sssssscsss"
         transform="scale(0.5)" /></marker><linearGradient
       id="linearGradient170919"><stop
         offset="0"
         stop-color="#faa"
         id="stop170917" /><stop
         offset="1"
         stop-color="#ff8080"
         id="stop170915" /></linearGradient><linearGradient
       id="innoGrad2"><stop
         offset="0"
         stop-color="#ff8080"
         id="stop169316" /><stop
         offset="1"
         stop-color="#ff8080"
         stop-opacity="0"
         id="stop169318" /></linearGradient><linearGradient
       id="innoGrad1"><stop
         offset="0"
         stop-color="#ff8080"
         id="stop169321" /><stop
         offset="1"
         stop-color="#faa"
         id="stop169323" /></linearGradient><linearGradient
       id="linearGradient1097"
       x1="498.567"
       x2="491.833"
       y1="146.606"
       y2="79.162"
       gradientTransform="matrix(-0.5,-0.8660254,-0.8660254,0.5,468.84312,446.69334)"
       gradientUnits="userSpaceOnUse"
       xlink:href="#innoGrad1" /><linearGradient
       id="linearGradient1115"
       x1="423.04178"
       x2="430.68991"
       y1="139.97784"
       y2="135.82849"
       gradientTransform="matrix(-0.785961,-0.21059761,-0.21059761,0.785961,480.53425,83.298654)"
       gradientUnits="userSpaceOnUse"
       xlink:href="#innoGrad2" /><linearGradient
       id="linearGradient1131"
       x1="383.179"
       x2="357.464"
       y1="226.786"
       y2="120.393"
       gradientTransform="matrix(-0.785961,-0.21059761,-0.21059761,0.785961,482.16342,81.669489)"
       gradientUnits="userSpaceOnUse"
       xlink:href="#innoGrad1" /><linearGradient
       id="linearGradient1032"
       x1="145.75"
       x2="155.5"
       y1="194.75"
       y2="140.5"
       gradientUnits="userSpaceOnUse"
       xlink:href="#innoGrad1"
       gradientTransform="matrix(0.78596099,0.21059762,-0.21059762,0.78596099,33.69148,-31.690838)" /><linearGradient
       id="innoGrad1-3"><stop
         offset="0"
         stop-color="#fd5"
         id="stop1292" /><stop
         offset="1"
         stop-color="#fea"
         id="stop1294" /></linearGradient><linearGradient
       id="innoGrad2-0"><stop
         offset="0"
         stop-color="#ffb380"
         id="stop1297" /><stop
         offset="1"
         stop-color="#fca"
         id="stop1299" /></linearGradient><linearGradient
       id="innoGrad3"><stop
         offset="0"
         stop-color="#f55"
         id="stop1302" /><stop
         offset="1"
         stop-color="#faa"
         stop-opacity="0"
         id="stop1304" /></linearGradient><linearGradient
       id="linearGradient1196"
       x1="398.455"
       x2="411.183"
       y1="153.47"
       y2="43.161"
       gradientTransform="matrix(.729 0 0 .729 -214.257 45.489)"
       gradientUnits="userSpaceOnUse"
       xlink:href="#innoGrad1" /><linearGradient
       id="linearGradient1206"
       x1="413.5"
       x2="442.375"
       y1="106"
       y2="96.5"
       gradientTransform="matrix(.729 0 0 .729 -214.257 45.489)"
       gradientUnits="userSpaceOnUse"
       xlink:href="#innoGrad3" /><linearGradient
       id="linearGradient1242"
       x1="570.812"
       x2="608.996"
       y1="141.449"
       y2="112.104"
       gradientTransform="matrix(.729 0 0 .729 -214.257 45.489)"
       gradientUnits="userSpaceOnUse"
       xlink:href="#innoGrad2-0" /><linearGradient
       id="linearGradient1250"
       x1="82.29"
       x2="89.624"
       y1="176.582"
       y2="168.645"
       gradientUnits="userSpaceOnUse"
       xlink:href="#innoGrad1-3"
       gradientTransform="matrix(-1.8464921,-2.6970709,2.6970709,-1.8464921,-341.05524,738.52176)" /><linearGradient
       id="linearGradient1258"
       x1="95.059"
       x2="97.238"
       y1="180.828"
       y2="171.865"
       gradientUnits="userSpaceOnUse"
       xlink:href="#innoGrad1-3"
       gradientTransform="matrix(-1.8464921,-2.6970709,2.6970709,-1.8464921,-339.83193,738.52175)" /><linearGradient
       id="linearGradient1268"
       x1="74.777"
       x2="84.057"
       y1="178.395"
       y2="161.866"
       gradientUnits="userSpaceOnUse"
       xlink:href="#innoGrad1-3"
       gradientTransform="matrix(-1.8464921,-2.6970709,2.6970709,-1.8464921,-341.05524,738.52176)" /><linearGradient
       id="linearGradient1276"
       x1="111.104"
       x2="128.163"
       y1="195.896"
       y2="184.582"
       gradientTransform="rotate(-2.382,803.83923,890.65137)"
       gradientUnits="userSpaceOnUse"
       xlink:href="#innoGrad1-3" /><linearGradient
       id="linearGradient1097-1"
       x1="476.77267"
       x2="496.65549"
       y1="65.811928"
       y2="146.71666"
       gradientTransform="matrix(-0.81287352,-0.17752794,-0.26270904,0.83562143,496.69883,59.090961)"
       gradientUnits="userSpaceOnUse"
       xlink:href="#linearGradient170919" /><linearGradient
       id="linearGradient1097-19"
       x1="498.567"
       x2="491.833"
       y1="146.606"
       y2="79.162"
       gradientTransform="matrix(-0.07138508,-0.26985692,-0.26985692,0.07138508,-148.2724,139.19384)"
       gradientUnits="userSpaceOnUse"
       xlink:href="#innoGrad1" /><linearGradient
       id="linearGradient1115-2"
       x1="417.473"
       x2="428.507"
       y1="144.257"
       y2="136.143"
       gradientTransform="matrix(-0.07138508,-0.26985692,-0.26985692,0.07138508,-148.2724,139.19384)"
       gradientUnits="userSpaceOnUse"
       xlink:href="#innoGrad2" /><linearGradient
       id="linearGradient1131-7"
       x1="383.179"
       x2="357.464"
       y1="226.786"
       y2="120.393"
       gradientTransform="matrix(-0.07138508,-0.26985692,-0.26985692,0.07138508,-148.2724,139.19384)"
       gradientUnits="userSpaceOnUse"
       xlink:href="#innoGrad1" /><linearGradient
       id="linearGradient1032-0"
       x1="145.75"
       x2="155.5"
       y1="194.75"
       y2="140.5"
       gradientUnits="userSpaceOnUse"
       xlink:href="#innoGrad1"
       gradientTransform="matrix(0.07138508,0.26985692,-0.26985692,0.07138508,-191.03112,-13.626217)" /><linearGradient
       inkscape:collect="always"
       xlink:href="#linearGradient188811"
       id="linearGradient30461"
       x1="91.032639"
       y1="156.78571"
       x2="104.18378"
       y2="156.78571"
       gradientUnits="userSpaceOnUse"
       gradientTransform="matrix(2.2667195,-2.2667195,2.2667195,2.2667195,-410.16131,15.47376)" /><pattern
       id="EMFhbasepattern"
       patternUnits="userSpaceOnUse"
       width="6"
       height="6"
       x="0"
       y="0" /><linearGradient
       inkscape:collect="always"
       xlink:href="#linearGradient188811"
       id="linearGradient7735"
       x1="118.26361"
       y1="149.02275"
       x2="131.52187"
       y2="132.58252"
       gradientUnits="userSpaceOnUse"
       gradientTransform="matrix(2.4946545,0,0,2.0730389,-139.08224,-116.96445)" /><linearGradient
       inkscape:collect="always"
       xlink:href="#linearGradient188707"
       id="linearGradient7753"
       x1="118.08683"
       y1="181.01933"
       x2="130.4612"
       y2="162.45778"
       gradientUnits="userSpaceOnUse"
       gradientTransform="matrix(0.74799489,0.15566299,-0.15566299,0.74799489,102.30968,48.097727)" /><linearGradient
       inkscape:collect="always"
       xlink:href="#linearGradient188811"
       id="linearGradient7761"
       x1="104.82858"
       y1="232.99168"
       x2="140.89102"
       y2="184.02454"
       gradientUnits="userSpaceOnUse"
       gradientTransform="matrix(0.7640205,0,0,0.7640205,109.96321,26.244092)" /><linearGradient
       inkscape:collect="always"
       xlink:href="#linearGradient188811"
       id="linearGradient7753-5"
       x1="118.08683"
       y1="181.01933"
       x2="130.4612"
       y2="162.45778"
       gradientUnits="userSpaceOnUse"
       gradientTransform="matrix(0.73495362,-0.20873546,0.20873546,0.73495362,57.824695,90.432488)" /><linearGradient
       inkscape:collect="always"
       xlink:href="#linearGradient188811"
       id="linearGradient7761-2"
       x1="104.82858"
       y1="232.99168"
       x2="140.89102"
       y2="184.02454"
       gradientUnits="userSpaceOnUse"
       gradientTransform="matrix(0.76402049,0,0,0.76402049,30.91802,102.7901)" /></defs><path
     fill="url(#linearGradient1097)"
     fill-rule="evenodd"
     stroke="#000000"
     d="m 120.91157,108.1809 c -20.05031,20.05029 -45.48578,16.96215 -57.203631,9.49521 -27.4805,-17.51137 -46.678776,-82.892609 -30.520352,-99.051009 16.158427,-16.1584507 80.849833,4.106486 98.287483,30.142246 10.93181,16.322246 9.48679,39.363246 -10.5635,59.413553 z"
     id="path2512"
     style="fill:url(#linearGradient1097-1);fill-opacity:1;stroke-width:1;stroke-dasharray:none"
     sodipodi:nodetypes="zszsz" /><path
     fill="url(#linearGradient1115)"
     fill-rule="evenodd"
     stroke="#000000"
     d="m 123.79758,88.093673 c 0.71168,5.24087 11.74366,11.843147 17.61491,17.773877 l -23.21125,21.40339 c -5.62714,-5.5493 -12.7559,-15.60377 -16.88129,-16.64802"
     id="path169334"
     style="fill:url(#linearGradient1115);stroke-width:1;stroke-dasharray:none;marker-start:url(#marker171087);marker-end:url(#CapTriangle)"
     sodipodi:nodetypes="cccc" /><path
     fill="url(#linearGradient1032)"
     fill-rule="evenodd"
     stroke="#000000"
     d="m 193.00749,111.5876 c -1.38274,-8.40522 -11.05214,-17.970291 -16.38767,-19.960972 -26.26168,-9.795622 -56.17003,18.482742 -66.08995,35.843712 -13.402989,23.45671 -6.28425,43.91642 11.31144,50.41535 z"
     id="path169336"
     style="fill:url(#linearGradient1032);stroke-width:1;stroke-dasharray:none"
     sodipodi:nodetypes="ccscc" /><path
     fill="url(#linearGradient1131)"
     fill-rule="evenodd"
     stroke="#000000"
     d="m 180.18258,97.696271 c -23.2186,-8.970131 -55.16232,15.720299 -66.0992,40.653789 -12.71922,28.99678 4.60799,40.94499 16.56251,42.04476 21.1459,1.94519 45.12095,-18.18709 53.81838,-31.30859 12.23015,-18.45239 15.6044,-43.70869 -4.28169,-51.389959 z"
     id="path169338"
     style="fill:url(#linearGradient1131);stroke-width:1;stroke-dasharray:none"
     sodipodi:nodetypes="csccc" /><path
     fill="#ffd5d5"
     d="M 130.71233,59.452241 C 117.16775,30.398792 79.407857,18.264739 42.551487,22.4415 82.165254,22.815533 110.95937,38.737917 130.71233,59.452241 Z"
     id="path169340"
     sodipodi:nodetypes="ccc"
     style="stroke-width:1;stroke-dasharray:none" /><path
     id="path22143"
     style="fill:url(#linearGradient30461);fill-opacity:1;stroke:#000000;stroke-width:1;stroke-linecap:round;stroke-linejoin:round;stroke-dasharray:none;stop-color:#000000"
     d="m 150.00063,139.94291 c 0,0 2.21404,2.37548 2.214,3.39355 0,1.01803 -5.35321,14.45061 4.84208,23.13221 6.46222,5.50277 16.79041,3.075 22.5563,-3.10256 8.05677,-8.632 8.59197,-22.42674 -0.61733,-29.30497 -9.30829,-6.95217 -21.4323,1.87636 -21.4323,1.87636 l -1.73538,-1.93031 c -1.69662,-0.22954 -5.93804,4.03 -5.82737,5.93572 z m 11.12222,3.80417 c 0,0 7.90778,-6.03026 12.69594,-3.00745 4.39623,2.77536 5.92155,9.59543 1.0594,15.83905 -3.80543,4.88665 -9.82589,6.06016 -13.34031,2.51737 -5.84653,-5.89375 -0.41503,-15.34897 -0.41503,-15.34897 z"
     sodipodi:nodetypes="cssssccccsssc" /><path
     style="fill:none;stroke:#000000;stroke-width:1;stroke-linecap:round;stroke-linejoin:round;stroke-dasharray:none;stop-color:#000000"
     d="m 161.1074,143.66878 c -2.40321,-0.92824 -4.43021,-4.91756 -3.53928,-7.61851"
     id="path22146"
     sodipodi:nodetypes="cc" /><path
     id="path5081"
     style="fill:url(#linearGradient7735);fill-opacity:1;stroke:#000000;stroke-width:1;stroke-linecap:round;stroke-linejoin:round;stroke-dasharray:none;stop-color:#000000"
     d="m 171.31238,152.27063 c -12.59332,0.267 -22.61398,10.76907 -22.4375,23.51367 0.17779,12.74399 10.48682,22.95201 23.08203,22.86133 12.59374,-0.0894 22.75593,-10.44177 22.75781,-23.18555 l -0.01,-0.65625 c -0.22105,-7.91873 -4.34383,-14.80259 -10.45507,-18.81445 -0.54291,1.83095 -1.85764,3.80224 -3.12891,5.76562 4.16983,2.91106 6.95942,7.7205 7.11328,13.23243 l 0.008,0.47265 c -0.001,9.14448 -7.29325,16.5726 -16.33008,16.63672 -9.03787,0.0651 -16.43493,-7.26162 -16.5625,-16.40625 -0.12663,-9.14451 7.06191,-16.67862 16.09766,-16.87109 h 0.002 c 0.22599,-0.005 0.44987,-5e-4 0.67383,0.004 0.8697,0.049 4.69337,-3.77074 4.65163,-6.00955 -1.7096,-0.37143 -3.63845,-0.58197 -5.46217,-0.54318 z"
     sodipodi:nodetypes="cccccccccccssccc" /><path
     id="path5081-7"
     style="display:inline;fill:url(#linearGradient7753);fill-opacity:1;stroke:#000000;stroke-width:1;stroke-linecap:round;stroke-linejoin:round;stroke-dasharray:none;stop-color:#000000"
     d="m 169.29675,187.43274 a 7.0194383,8.5474793 11.755861 0 0 -7.39648,7.17773 c -0.70405,3.38308 -2.44027,6.28777 -4.83008,7.30078 l 7.58594,1.58008 -0.13086,-0.42383 a 7.0194383,8.5474793 11.755861 0 0 2.57812,1.23243 7.0194383,8.5474793 11.755861 0 0 2.76172,-0.12696 l -0.29297,0.33985 7.58594,1.58007 c -1.60984,-1.69543 -2.11662,-4.58753 -1.6875,-7.61718 l -4.09961,0.23633 a 3.6019619,4.3860622 11.755861 0 1 -3.44336,1.50976 3.6019619,4.3860622 11.755861 0 1 -2.66992,-4.97265 3.6019619,4.3860622 11.755861 0 1 4.35742,-3.63477 3.6019619,4.3860622 11.755861 0 1 1.11523,0.48047 l 4.41407,-0.48828 a 7.0194383,8.5474793 11.755861 0 0 -4.75196,-4.08008 7.0194383,8.5474793 11.755861 0 0 -1.0957,-0.0937 z" /><path
     style="fill:url(#linearGradient7761);fill-opacity:1;stroke:#000000;stroke-width:1;stroke-linecap:round;stroke-linejoin:round;stroke-dasharray:none;stop-color:#000000"
     id="path6827"
     sodipodi:type="arc"
     sodipodi:cx="205.19867"
     sodipodi:cy="185.74857"
     sodipodi:rx="22.555189"
     sodipodi:ry="22.555189"
     sodipodi:start="0"
     sodipodi:end="6.2550048"
     sodipodi:open="true"
     sodipodi:arc-type="arc"
     d="m 227.75386,185.74857 a 22.555189,22.555189 0 0 1 -22.39629,22.55463 22.555189,22.555189 0 0 1 -22.71185,-22.23684 22.555189,22.555189 0 0 1 22.07627,-22.86795 22.555189,22.555189 0 0 1 23.02291,21.91462"
     transform="rotate(11.755861)" /><path
     style="display:inline;fill:#ffffff;fill-opacity:1;stroke:none;stroke-width:1;stroke-linecap:butt;stroke-linejoin:miter;stroke-dasharray:none;stroke-opacity:1"
     d="m 173.97712,208.37771 c 5.52932,1.64643 11.02023,11.83895 8.36384,20.03424 -2.17469,6.70922 -1.73301,-1.97981 -4.12737,-9.34409 -2.22128,-6.83194 -8.4025,-11.93065 -4.23647,-10.69015 z"
     id="path7122"
     sodipodi:nodetypes="ssss" /><path
     id="path10225"
     style="fill:#ff7f2a;stroke:#000000;stroke-width:1;stroke-linejoin:round;stroke-dasharray:none;stroke-opacity:1"
     d="m 158.20862,219.53067 c -1.46569,-0.30502 -2.82074,0.23328 -3.71974,1.28509 -1.01049,1.11324 -1.06926,2.78739 -0.67073,4.1678 0.72611,2.28472 2.60242,3.89769 4.1093,5.66859 0.145,0.16611 0.28523,0.3377 0.42272,0.51018 -1.19741,5.7726 -1.96778,10.01003 -0.75378,14.36237 0.87487,0.25753 1.6344,0.37736 2.48373,0.49683 -1.03674,-3.71686 -0.66735,-8.6694 0.51429,-14.38609 0.19916,-0.10856 0.3947,-0.21462 0.57923,-0.30776 2.08824,-1.02273 4.45226,-1.75326 6.02954,-3.55863 0.91614,-1.10682 1.53013,-2.66542 1.04764,-4.08936 -0.40476,-1.32313 -1.43256,-2.35731 -2.89826,-2.66233 -1.75334,-0.36489 -2.98007,0.0827 -3.92586,0.95717 -0.51842,-1.17918 -1.46472,-2.07899 -3.21807,-2.44388 z"
     sodipodi:nodetypes="sccccccccccscs" /><path
     id="path5081-7-3"
     style="display:inline;fill:url(#linearGradient7753-5);fill-opacity:1;stroke:#000000;stroke-width:1;stroke-linecap:round;stroke-linejoin:round;stroke-dasharray:none;stop-color:#000000"
     d="m 184.95691,182.18079 a 8.5474793,7.0194383 74.144831 0 0 -2.18164,0.24804 8.5474793,7.0194383 74.144831 0 0 -4.24414,10.21289 c 0.94407,3.3241 0.75361,6.70374 -0.89454,8.70899 l 7.45313,-2.11719 -0.3125,-0.31445 a 8.5474793,7.0194383 74.144831 0 0 2.85547,-0.10352 8.5474793,7.0194383 74.144831 0 0 2.39062,-1.39258 l -0.10351,0.4375 7.45508,-2.11718 c -2.45611,-0.83959 -4.39382,-3.61341 -5.3379,-6.9375 l -0.004,0.0156 a 8.5474793,7.0194383 74.144831 0 0 -0.0293,-0.13086 l -0.0684,-0.23242 a 8.5474793,7.0194383 74.144831 0 0 -0.42968,-1.125 l -2.60938,3.54492 a 4.3860622,3.6019619 74.144831 0 1 -2.42188,3.94141 4.3860622,3.6019619 74.144831 0 1 -4.67187,-3.16797 4.3860622,3.6019619 74.144831 0 1 2.17773,-5.24024 4.3860622,3.6019619 74.144831 0 1 0.11719,-0.0195 l 2.27344,-3.91992 a 8.5474793,7.0194383 74.144831 0 0 -1.41406,-0.29101 z" /><path
     style="fill:url(#linearGradient7761-2);fill-opacity:1;stroke:#000000;stroke-width:1;stroke-linecap:round;stroke-linejoin:round;stroke-dasharray:none;stop-color:#000000"
     id="path6827-8"
     sodipodi:type="arc"
     sodipodi:cx="126.15347"
     sodipodi:cy="262.29459"
     sodipodi:rx="22.555189"
     sodipodi:ry="22.555189"
     sodipodi:start="0"
     sodipodi:end="6.2550048"
     sodipodi:open="true"
     sodipodi:arc-type="arc"
     d="m 148.70866,262.29459 a 22.555189,22.555189 0 0 1 -22.39628,22.55463 22.555189,22.555189 0 0 1 -22.71186,-22.23684 22.555189,22.555189 0 0 1 22.07628,-22.86795 22.555189,22.555189 0 0 1 23.02291,21.91462"
     transform="rotate(-15.855169)" /><path
     style="display:inline;fill:#ffffff;fill-opacity:1;stroke:none;stroke-width:1;stroke-linecap:butt;stroke-linejoin:miter;stroke-dasharray:none;stroke-opacity:1"
     d="m 195.64959,198.64742 c 5.66267,-1.10372 15.25214,5.38315 16.69652,13.87627 1.18247,6.95303 -2.45322,-0.95114 -7.988,-6.36703 -5.13468,-5.0244 -12.97504,-6.67764 -8.70852,-7.50924 z"
     id="path7122-9"
     sodipodi:nodetypes="ssss" /><path
     id="path10225-7"
     style="fill:#ff7f2a;stroke:#000000;stroke-width:1;stroke-linejoin:round;stroke-dasharray:none;stroke-opacity:1"
     d="m 195.78787,212.7331 c 1.30755,-0.72912 2.76155,-0.62039 3.93379,0.11468 1.29702,0.76037 1.85343,2.34045 1.88565,3.77688 -0.0101,2.39729 -1.31862,4.4973 -2.22738,6.63761 -0.0887,0.20186 -0.17128,0.40752 -0.25094,0.6132 2.86787,5.15092 4.86942,8.96446 5.01163,13.48071 -0.75792,0.50722 -1.44692,0.84856 -2.22174,1.21639 -0.12145,-3.85682 -1.95406,-8.47263 -4.79017,-13.57491 -0.2225,-0.0441 -0.4408,-0.0869 -0.64472,-0.12059 -2.29847,-0.35189 -4.77277,-0.34254 -6.8175,-1.59401 -1.20506,-0.78244 -2.25679,-2.08632 -2.2219,-3.58938 -0.009,-1.38363 0.66258,-2.67771 1.97014,-3.40682 1.56415,-0.87221 2.86859,-0.81169 4.03249,-0.25986 0.14232,-1.28021 0.77646,-2.42171 2.34063,-3.29392 z"
     sodipodi:nodetypes="sccccccccccscs" /><g
     id="path10371"
     transform="translate(-258.15015,-48.453747)" /></svg>
