<?xml version="1.0" encoding="UTF-8" standalone="no"?>
<svg
   cursor="default"
   viewBox="0 0 256 256"
   version="1.1"
   id="svg169344"
   sodipodi:docname="pentagram_plug.svg"
   inkscape:version="1.2 (dc2aedaf03, 2022-05-15)"
   xml:space="preserve"
   xmlns:inkscape="http://www.inkscape.org/namespaces/inkscape"
   xmlns:sodipodi="http://sodipodi.sourceforge.net/DTD/sodipodi-0.dtd"
   xmlns:xlink="http://www.w3.org/1999/xlink"
   xmlns="http://www.w3.org/2000/svg"
   xmlns:svg="http://www.w3.org/2000/svg"><sodipodi:namedview
     id="namedview169346"
     pagecolor="#ffffff"
     bordercolor="#000000"
     borderopacity="0.25"
     inkscape:showpageshadow="2"
     inkscape:pageopacity="0.0"
     inkscape:pagecheckerboard="0"
     inkscape:deskcolor="#d1d1d1"
     showgrid="false"
     inkscape:zoom="1.7265625"
     inkscape:cx="71.529412"
     inkscape:cy="164.77828"
     inkscape:window-width="1920"
     inkscape:window-height="1051"
     inkscape:window-x="-9"
     inkscape:window-y="-9"
     inkscape:window-maximized="1"
     inkscape:current-layer="svg169344" /><defs
     id="defs169330"><linearGradient
       inkscape:collect="always"
       id="linearGradient199568"><stop
         style="stop-color:#ffb380;stop-opacity:1;"
         offset="0"
         id="stop199564" /><stop
         style="stop-color:#ffccaa;stop-opacity:1"
         offset="1"
         id="stop199566" /></linearGradient><linearGradient
       inkscape:collect="always"
       id="linearGradient199284"><stop
         style="stop-color:#ffb380;stop-opacity:1;"
         offset="0"
         id="stop199280" /><stop
         style="stop-color:#ff9955;stop-opacity:1"
         offset="1"
         id="stop199282" /></linearGradient><marker
       markerWidth="5.5250001"
       markerHeight="1"
       refX="0"
       refY="0"
       orient="auto-start-reverse"
       id="marker171087"
       viewBox="0 0 0.525 1"
       inkscape:stockid="pin"
       style="overflow:visible"
       preserveAspectRatio="none"
       inkscape:isstock="true"
       inkscape:collect="always"><path
         id="path171085"
         style="fill:context-stroke;stroke-linecap:butt"
         d="M 0,-1 1,0 0,1 -0.05,0 Z"
         sodipodi:nodetypes="sssssscsss"
         transform="scale(0.5)" /></marker><marker
       markerWidth="5.5250001"
       markerHeight="1.001"
       refX="0"
       refY="0"
       orient="auto-start-reverse"
       id="CapTriangle"
       viewBox="0 0 0.525 1"
       inkscape:stockid="pin"
       style="overflow:visible"
       preserveAspectRatio="none"
       inkscape:isstock="true"
       inkscape:collect="always"><path
         id="path7813"
         style="fill:context-stroke;stroke-linecap:butt"
         d="M 0,-1 1,0 0,1 -0.05,0 Z"
         sodipodi:nodetypes="sssssscsss"
         transform="scale(0.5)" /></marker><linearGradient
       id="linearGradient170919"><stop
         offset="0"
         stop-color="#faa"
         id="stop170917" /><stop
         offset="1"
         stop-color="#ff8080"
         id="stop170915" /></linearGradient><linearGradient
       id="innoGrad2"><stop
         offset="0"
         stop-color="#ff8080"
         id="stop169316" /><stop
         offset="1"
         stop-color="#ff8080"
         stop-opacity="0"
         id="stop169318" /></linearGradient><linearGradient
       id="innoGrad1"><stop
         offset="0"
         stop-color="#ff8080"
         id="stop169321" /><stop
         offset="1"
         stop-color="#faa"
         id="stop169323" /></linearGradient><linearGradient
       id="linearGradient1097"
       x1="498.567"
       x2="491.833"
       y1="146.606"
       y2="79.162"
       gradientTransform="matrix(-0.5,-0.8660254,-0.8660254,0.5,468.84312,446.69334)"
       gradientUnits="userSpaceOnUse"
       xlink:href="#innoGrad1" /><linearGradient
       id="linearGradient1115"
       x1="423.04178"
       x2="430.68991"
       y1="139.97784"
       y2="135.82849"
       gradientTransform="matrix(-0.83913606,-0.22484582,-0.22484582,0.83913606,502.54609,93.311014)"
       gradientUnits="userSpaceOnUse"
       xlink:href="#innoGrad2" /><linearGradient
       id="linearGradient1131"
       x1="383.179"
       x2="357.464"
       y1="226.786"
       y2="120.393"
       gradientTransform="matrix(-0.83913606,-0.22484582,-0.22484582,0.83913606,504.28548,91.571626)"
       gradientUnits="userSpaceOnUse"
       xlink:href="#innoGrad1" /><linearGradient
       id="linearGradient1032"
       x1="145.75"
       x2="155.5"
       y1="194.75"
       y2="140.5"
       gradientUnits="userSpaceOnUse"
       xlink:href="#innoGrad1"
       gradientTransform="matrix(0.83913605,0.22484583,-0.22484583,0.83913605,25.471684,-29.458219)" /><linearGradient
       id="innoGrad1-3"><stop
         offset="0"
         stop-color="#fd5"
         id="stop1292" /><stop
         offset="1"
         stop-color="#fea"
         id="stop1294" /></linearGradient><linearGradient
       id="innoGrad2-0"><stop
         offset="0"
         stop-color="#ffb380"
         id="stop1297" /><stop
         offset="1"
         stop-color="#fca"
         id="stop1299" /></linearGradient><linearGradient
       id="innoGrad3"><stop
         offset="0"
         stop-color="#f55"
         id="stop1302" /><stop
         offset="1"
         stop-color="#faa"
         stop-opacity="0"
         id="stop1304" /></linearGradient><linearGradient
       id="linearGradient1196"
       x1="398.455"
       x2="411.183"
       y1="153.47"
       y2="43.161"
       gradientTransform="matrix(.729 0 0 .729 -214.257 45.489)"
       gradientUnits="userSpaceOnUse"
       xlink:href="#innoGrad1" /><linearGradient
       id="linearGradient1206"
       x1="413.5"
       x2="442.375"
       y1="106"
       y2="96.5"
       gradientTransform="matrix(.729 0 0 .729 -214.257 45.489)"
       gradientUnits="userSpaceOnUse"
       xlink:href="#innoGrad3" /><linearGradient
       id="linearGradient1242"
       x1="570.812"
       x2="608.996"
       y1="141.449"
       y2="112.104"
       gradientTransform="matrix(.729 0 0 .729 -214.257 45.489)"
       gradientUnits="userSpaceOnUse"
       xlink:href="#innoGrad2-0" /><linearGradient
       id="linearGradient1250"
       x1="82.29"
       x2="89.624"
       y1="176.582"
       y2="168.645"
       gradientUnits="userSpaceOnUse"
       xlink:href="#innoGrad1-3"
       gradientTransform="matrix(-1.8464921,-2.6970709,2.6970709,-1.8464921,-341.05524,738.52176)" /><linearGradient
       id="linearGradient1258"
       x1="95.059"
       x2="97.238"
       y1="180.828"
       y2="171.865"
       gradientUnits="userSpaceOnUse"
       xlink:href="#innoGrad1-3"
       gradientTransform="matrix(-1.8464921,-2.6970709,2.6970709,-1.8464921,-339.83193,738.52175)" /><linearGradient
       id="linearGradient1268"
       x1="74.777"
       x2="84.057"
       y1="178.395"
       y2="161.866"
       gradientUnits="userSpaceOnUse"
       xlink:href="#innoGrad1-3"
       gradientTransform="matrix(-1.8464921,-2.6970709,2.6970709,-1.8464921,-341.05524,738.52176)" /><linearGradient
       id="linearGradient1276"
       x1="111.104"
       x2="128.163"
       y1="195.896"
       y2="184.582"
       gradientTransform="rotate(-2.382,803.83923,890.65137)"
       gradientUnits="userSpaceOnUse"
       xlink:href="#innoGrad1-3" /><linearGradient
       id="linearGradient1097-1"
       x1="476.77267"
       x2="496.65549"
       y1="65.811928"
       y2="146.71666"
       gradientTransform="matrix(-0.86786937,-0.18953879,-0.28048291,0.89215632,519.8043,67.465523)"
       gradientUnits="userSpaceOnUse"
       xlink:href="#linearGradient170919" /><linearGradient
       id="linearGradient1097-19"
       x1="498.567"
       x2="491.833"
       y1="146.606"
       y2="79.162"
       gradientTransform="matrix(-0.07138508,-0.26985692,-0.26985692,0.07138508,-148.2724,139.19384)"
       gradientUnits="userSpaceOnUse"
       xlink:href="#innoGrad1" /><linearGradient
       id="linearGradient1115-2"
       x1="417.473"
       x2="428.507"
       y1="144.257"
       y2="136.143"
       gradientTransform="matrix(-0.07138508,-0.26985692,-0.26985692,0.07138508,-148.2724,139.19384)"
       gradientUnits="userSpaceOnUse"
       xlink:href="#innoGrad2" /><linearGradient
       id="linearGradient1131-7"
       x1="383.179"
       x2="357.464"
       y1="226.786"
       y2="120.393"
       gradientTransform="matrix(-0.07138508,-0.26985692,-0.26985692,0.07138508,-148.2724,139.19384)"
       gradientUnits="userSpaceOnUse"
       xlink:href="#innoGrad1" /><linearGradient
       id="linearGradient1032-0"
       x1="145.75"
       x2="155.5"
       y1="194.75"
       y2="140.5"
       gradientUnits="userSpaceOnUse"
       xlink:href="#innoGrad1"
       gradientTransform="matrix(0.07138508,0.26985692,-0.26985692,0.07138508,-191.03112,-13.626217)" /><pattern
       id="EMFhbasepattern"
       patternUnits="userSpaceOnUse"
       width="6"
       height="6"
       x="0"
       y="0" /><linearGradient
       id="linearGradient5910"><stop
         offset="0"
         stop-color="#f95"
         id="stop202521" /><stop
         offset="1"
         stop-color="#ffb380"
         id="stop202523" /></linearGradient><linearGradient
       id="innoGrad1-0"><stop
         offset="0"
         stop-color="#fca"
         id="stop202536" /><stop
         offset="1"
         stop-color="#ffe6d5"
         id="stop202538" /></linearGradient><linearGradient
       id="linearGradient5774"><stop
         offset="0"
         stop-opacity="0"
         id="stop202541" /><stop
         offset=".189"
         id="stop202543" /><stop
         offset=".806"
         id="stop202545" /><stop
         offset="1"
         stop-opacity="0"
         id="stop202547" /></linearGradient><linearGradient
       id="linearGradient5776"
       x1="60.851"
       x2="95.254"
       y1="23.977"
       y2="11.992"
       gradientTransform="translate(-228.57019,-44.930274)"
       gradientUnits="userSpaceOnUse"
       xlink:href="#linearGradient5774" /><linearGradient
       id="linearGradient5776-3"
       x1="60.851"
       x2="95.254"
       y1="23.977"
       y2="11.992"
       gradientTransform="translate(-121.97319,-44.861274)"
       gradientUnits="userSpaceOnUse"
       xlink:href="#linearGradient5774" /><linearGradient
       id="linearGradient5816"
       x1="120.807"
       x2="121.766"
       y1="66.543"
       y2="58.394"
       gradientUnits="userSpaceOnUse"
       xlink:href="#innoGrad1-0"
       gradientTransform="translate(-228.57019,-38.027274)" /><linearGradient
       id="linearGradient5824"
       x1="107.768"
       x2="109.877"
       y1="62.996"
       y2="55.23"
       gradientUnits="userSpaceOnUse"
       xlink:href="#innoGrad1-0"
       gradientTransform="translate(-228.57019,-38.027274)" /><linearGradient
       id="linearGradient5832"
       x1="96.358"
       x2="96.358"
       y1="55.997"
       y2="44.299"
       gradientUnits="userSpaceOnUse"
       xlink:href="#innoGrad1-0"
       gradientTransform="translate(-228.57019,-38.027274)" /><linearGradient
       id="linearGradient5840"
       x1="86.291"
       x2="87.825"
       y1="44.395"
       y2="33.753"
       gradientUnits="userSpaceOnUse"
       xlink:href="#innoGrad1-0"
       gradientTransform="translate(-228.57019,-38.027274)" /><linearGradient
       id="linearGradient5848"
       x1="78.717"
       x2="82.935"
       y1="32.41"
       y2="19.179"
       gradientUnits="userSpaceOnUse"
       xlink:href="#innoGrad1-0"
       gradientTransform="translate(-228.57019,-38.027274)" /><linearGradient
       id="linearGradient5856"
       x1="142.86"
       x2="141.613"
       y1="66.447"
       y2="58.969"
       gradientUnits="userSpaceOnUse"
       xlink:href="#innoGrad1-0"
       gradientTransform="translate(-228.57019,-38.027274)" /><linearGradient
       id="linearGradient5864"
       x1="155.036"
       x2="154.653"
       y1="62.612"
       y2="55.421"
       gradientUnits="userSpaceOnUse"
       xlink:href="#innoGrad1-0"
       gradientTransform="translate(-228.57019,-38.027274)" /><linearGradient
       id="linearGradient5872"
       x1="167.884"
       x2="165.87"
       y1="54.942"
       y2="45.45"
       gradientUnits="userSpaceOnUse"
       xlink:href="#innoGrad1-0"
       gradientTransform="translate(-225.70337,-39.255912)" /><linearGradient
       id="linearGradient5880"
       x1="176.417"
       x2="173.445"
       y1="45.642"
       y2="36.341"
       gradientUnits="userSpaceOnUse"
       xlink:href="#innoGrad1-0"
       gradientTransform="translate(-228.57019,-38.027274)" /><linearGradient
       id="linearGradient5888"
       x1="185.142"
       x2="181.307"
       y1="31.068"
       y2="20.713"
       gradientUnits="userSpaceOnUse"
       xlink:href="#innoGrad1-0"
       gradientTransform="translate(-228.57019,-38.027274)" /><linearGradient
       id="linearGradient5896"
       x1="163.254"
       x2="111.729"
       y1="208.271"
       y2="133.966"
       gradientUnits="userSpaceOnUse"
       xlink:href="#linearGradient199568"
       gradientTransform="matrix(0.74327369,0,0,0.48009839,11.965634,96.752884)" /><linearGradient
       id="linearGradient5904"
       x1="87.633"
       x2="75.361"
       y1="216.69"
       y2="200.966"
       gradientUnits="userSpaceOnUse"
       xlink:href="#linearGradient5910"
       gradientTransform="translate(-228.57019,-38.027274)" /><linearGradient
       id="linearGradient5912"
       x1="207.29"
       x2="195.593"
       y1="144.397"
       y2="116.017"
       gradientUnits="userSpaceOnUse"
       xlink:href="#linearGradient5910"
       gradientTransform="translate(-210.14062,-54.81866)" /><linearGradient
       id="linearGradient5920"
       x1="55.993"
       x2="65.581"
       y1="125.988"
       y2="130.974"
       gradientUnits="userSpaceOnUse"
       xlink:href="#linearGradient199284"
       gradientTransform="translate(-228.57019,-38.027274)" /><linearGradient
       id="linearGradient5928"
       x1="125.41"
       x2="133.08"
       y1="74.214"
       y2="86.87"
       gradientUnits="userSpaceOnUse"
       xlink:href="#linearGradient199284"
       gradientTransform="translate(-228.57019,-38.027274)" /><linearGradient
       id="linearGradient1169"
       x1="37.767"
       x2="45.697"
       y1="17.189"
       y2="20.377"
       gradientUnits="userSpaceOnUse"
       xlink:href="#innoGrad1"
       gradientTransform="translate(-71.026903,131.34578)" /><linearGradient
       id="linearGradient889"
       x1="39.019"
       x2="48.797"
       y1="15.173"
       y2="6.111"
       gradientUnits="userSpaceOnUse"
       xlink:href="#innoGrad1"
       gradientTransform="translate(-71.026903,131.34578)" /></defs><g
     id="g200646"
     transform="matrix(1.2348735,0,0,1.2348735,-6.1902858,-5.7100575)"
     style="stroke-width:0.80979955;stroke-dasharray:none"><path
       fill="url(#linearGradient1097)"
       fill-rule="evenodd"
       stroke="#000000"
       d="M 118.59274,119.87669 C 97.185909,141.28351 70.029574,137.98644 57.51894,130.01431 28.179216,111.31819 7.6820602,41.513514 24.9337,24.2619 c 17.251643,-17.2516686 86.31981,4.384315 104.93722,32.181553 11.67142,17.426545 10.12863,42.026409 -11.27818,63.433237 z"
       id="path2512"
       style="fill:url(#linearGradient1097-1);fill-opacity:1;stroke-width:0.80979955;stroke-dasharray:none"
       sodipodi:nodetypes="zszsz" /><path
       fill="url(#linearGradient1115)"
       fill-rule="evenodd"
       stroke="#000000"
       d="m 121.674,98.430444 c 0.75983,5.595446 12.53819,12.644406 18.80667,18.976386 l -24.78163,22.85146 c -6.00785,-5.92474 -13.61891,-16.65946 -18.023408,-17.77436"
       id="path169334"
       style="fill:url(#linearGradient1115);stroke-width:0.80979955;stroke-dasharray:none;marker-start:url(#marker171087);marker-end:url(#CapTriangle)"
       sodipodi:nodetypes="cccc" /><path
       fill="url(#linearGradient1032)"
       fill-rule="evenodd"
       stroke="#000000"
       d="m 195.56639,123.51388 c -1.4763,-8.97389 -11.79989,-19.18609 -17.4964,-21.31146 -28.03844,-10.458351 -59.97027,19.73322 -70.56134,38.26876 -14.309774,25.0437 -6.70941,46.88764 12.07673,53.82626 z"
       id="path169336"
       style="fill:url(#linearGradient1032);stroke-width:0.80979955;stroke-dasharray:none"
       sodipodi:nodetypes="ccscc" /><path
       fill="url(#linearGradient1131)"
       fill-rule="evenodd"
       stroke="#000000"
       d="m 181.87379,108.68272 c -24.78948,-9.577019 -58.89438,16.78387 -70.57121,43.40426 -13.579747,30.95859 4.91975,43.71517 17.68306,44.88935 22.57655,2.07679 48.17366,-19.41756 57.45952,-33.42681 13.0576,-19.70081 16.66014,-46.66585 -4.57137,-54.8668 z"
       id="path169338"
       style="fill:url(#linearGradient1131);stroke-width:0.80979955;stroke-dasharray:none"
       sodipodi:nodetypes="csccc" /><path
       fill="#ffd5d5"
       d="M 129.05658,67.851245 C 114.59563,36.832153 74.281053,23.877157 34.931125,28.336502 77.225004,28.73584 107.96721,45.735471 129.05658,67.851245 Z"
       id="path169340"
       sodipodi:nodetypes="ccc"
       style="stroke-width:0.80979955;stroke-dasharray:none" /></g><g
     id="path10371"
     transform="translate(-258.15015,-48.453747)" /><g
     fill="#ff8080"
     id="g211068"
     transform="matrix(0.59295112,1.4485108,-1.7541921,1.2082366,276.14953,27.32478)"
     style="stroke-width:0.5540705;stroke-dasharray:none"><g
       stroke-width="0.234"
       id="g211062"
       style="stroke-width:0.5540705;stroke-dasharray:none"><path
         d="m 31.909,69.412 c 0,0 3.291,2.509 5.232,4.26 0.275,0.247 0.295,0.731 0.208,1.091 -0.471,1.937 -2.6,8.583 -2.6,8.583 l 2.392,3.277 3.667,-8.752 c 0.75,-0.731 1.842,0.426 5.083,3.35 0.326,0.295 0.266,0.88 0.038,1.118 l -6.552,6.104 1.82,1.769 8.11,-6.196 c 0.597,-0.368 3.544,2.583 5.302,4.375 1.312,1.338 -2.037,2.927 -10.872,1.694 l 4.49,2.432 9.788,-2.8 0.084,-2.125 c 0.802,-0.65 2.463,-1.923 2.237,-2.751 -1.354,-4.962 -2.527,-8.558 -3.242,-8.247 l -1.228,0.458 4.057,-4.265 3.971,13.127 -4.96,2.53 -16.436,-14.2 -11.807,-9.207 z"
         stroke="#000000"
         id="path211052"
         style="stroke-width:0.5540705;stroke-dasharray:none" /><path
         d="m 64.698,69.54 c 0,0 0.866,0.323 0.932,0.79 0.417,2.957 -0.654,8.101 -2.827,10.996 l 1.091,4.588 4.12,-8.827 0.076,-11.374 z m -7.37,-6.415 c 0,0 -0.406,-0.984 0.203,-1.015 1.783,-0.09 5.043,-0.26 5.606,-0.192 0.893,0.106 1.621,2.842 1.427,3.412 -0.301,0.884 -5.109,4.856 -5.109,4.856 l 0.468,2.6 8.167,-7.073 -1.925,-5.514 -12.716,0.989 z"
         stroke="#000000"
         id="path211054"
         style="stroke-width:0.5540705;stroke-dasharray:none" /><path
         d="m 52.745,51.045 c 3.15,1.064 6.698,3.46 8.865,7.23 0.521,0.907 0.2,0.868 -0.26,1.144 l 3.957,0.104 -4.344,-5.773 -5.903,-3.798 -3.277,-0.858 z"
         stroke="#1a1a1a"
         id="path211056"
         style="stroke-width:0.5540705;stroke-dasharray:none" /><path
         d="m 48.715,51.757 c 0.717,2.344 1.677,5.715 2.143,7.679 0.29,1.226 -1.468,0.763 -1.468,0.763 l 5.488,-0.078 -3.906,-12.287 c -9.192,4.736 -2.91,2.125 -2.257,3.923 z"
         stroke="#000000"
         id="path211058"
         style="stroke-width:0.5540705;stroke-dasharray:none" /><path
         d="m 42.716,52.661 c -0.449,2.657 -1.589,6.434 -1.589,6.434 -0.162,0.706 -1.213,0.926 -1.213,0.926 -2.145,0.678 -7.719,0.464 -7.719,0.464 l -0.366,1.952 c 2.358,-0.034 4.293,-0.017 7.179,0.004 0.73,0.005 1.291,0.293 1.082,1.28 -0.908,4.297 -1.748,6.914 -1.748,6.914 l 3.006,2.663 5.554,-24.422 -6.49,0.89 c 0,0 1.391,0.99 2.008,1.476 0.447,0.352 0.402,0.792 0.296,1.419 z"
         stroke="#000000"
         id="path211060"
         style="stroke-width:0.5540705;stroke-dasharray:none" /></g><path
       d="m 44.787,60.72 10.871,-0.52 4.89,13.783 -10.352,8.063 -8.848,-8.748 z"
       id="path211064"
       style="stroke-width:0.5540705;stroke-dasharray:none" /><path
       d="m 38.626,93.196 c 6.678,3.57 13.513,4.754 21.686,-0.218 0.26,-0.39 1.857,1.366 3.255,2.297 0.749,0.5 2.81,-1.01 2.81,-1.01 L 64.667,88.709 51.499,94.52 39.987,91.946 Z M 24.743,59.87 c -1.89,0.209 -3.241,0.2 -3.303,1.197 -0.046,0.744 0.168,1.013 3.464,3.674 0.424,0.343 0.328,0.73 0.27,1.234 -1.096,9.686 2.698,17.44 7.64,22.869 0.871,0.958 0.508,0.172 -0.282,4.998 -0.198,1.211 1.51,2.053 2.244,1.958 0.41,-0.054 1.78,-0.775 1.78,-0.775 L 39.169,91.565 30.743,76.22 30.327,61.812 Z"
       stroke="#000000"
       stroke-width="0.234"
       id="path211066"
       style="stroke-width:0.5540705;stroke-dasharray:none" /></g><path
     d="m 187.3045,139.13453 c 20.85807,-7.99166 32.33906,-1.42472 38.36053,5.37437 5.75331,-2.60712 7.73712,-3.88068 8.52201,-3.32572 1.3415,0.95334 1.84584,3.05341 2.03299,4.38962 l -9.05079,8.79648 -19.90406,-9.76213 -20.34409,1.16626 z"
     stroke="#000000"
     stroke-width="0.342001"
     id="path211080"
     style="fill:#ff8080;stroke-width:1;stroke-dasharray:none" /><path
     d="m 211.73208,199.02249 2.24208,6.6912 -8.63975,0.32434 z"
     id="path211082"
     style="fill:#ff8080;stroke-width:1;stroke-dasharray:none" /><g
     stroke="#000000"
     id="g211092"
     transform="matrix(0.59295112,1.4485108,-1.7541921,1.2082366,276.14953,27.32478)"
     style="stroke-width:0.5540705;stroke-dasharray:none"><path
       d="m 48.456,44.566 a 25.62,21.893 83.496 0 0 -2.181,0.185 25.62,21.893 83.496 0 0 -18.228,28.5 25.62,21.893 83.496 0 0 25.12,22.27 25.62,21.893 83.496 0 0 18.228,-28.5 25.62,21.893 83.496 0 0 -22.94,-22.455 z m 0.19,4.859 A 20.808,17.682 83.612 0 1 67.177,67.667 20.808,17.682 83.612 0 1 52.461,90.808 20.808,17.682 83.612 0 1 32.17,72.715 20.808,17.682 83.612 0 1 46.886,49.574 a 20.808,17.682 83.612 0 1 1.76,-0.15 z"
       fill="#ff0000"
       stroke-width="0.234"
       id="path211086"
       style="stroke-width:0.5540705;stroke-dasharray:none" /><path
       d="m 48.457,44.566 a 21.893,25.62 -6.504 0 0 -2.181,0.185 21.893,25.62 -6.504 0 0 -18.228,28.5 21.893,25.62 -6.504 0 0 25.12,22.27 A 21.893,25.62 -6.504 0 0 71.396,67.02 21.893,25.62 -6.504 0 0 48.457,44.566 Z m 0.189,4.86 A 17.682,20.808 -6.388 0 1 67.176,67.666 17.682,20.808 -6.388 0 1 52.459,90.81 17.682,20.808 -6.388 0 1 32.17,72.715 17.682,20.808 -6.388 0 1 46.887,49.572 17.682,20.808 -6.388 0 1 48.646,49.426 Z"
       fill="#ffaaaa"
       stroke-width="0.23303"
       id="path211088"
       style="stroke-width:0.5540705;stroke-dasharray:none" /><path
       d="M 48.5,45.85 A 24.333,20.828 83.424 0 0 46.424,46.026 24.333,20.828 83.424 0 0 29.084,73.095 24.333,20.828 83.424 0 0 52.98,94.245 24.333,20.828 83.424 0 0 70.321,67.177 24.333,20.828 83.424 0 0 48.5,45.85 Z m 0.12,2.447 A 21.881,18.73 83.424 0 1 68.245,67.475 21.881,18.73 83.424 0 1 52.652,91.815 21.881,18.73 83.424 0 1 31.159,72.797 21.881,18.73 83.424 0 1 46.753,48.457 21.881,18.73 83.424 0 1 48.62,48.297 Z"
       fill="#ffb380"
       stroke-width="0.234"
       id="path211090"
       style="stroke-width:0.5540705;stroke-dasharray:none" /></g><g
     fill="#ffccaa"
     stroke="#000000"
     stroke-width="0.234"
     id="g211102"
     transform="matrix(0.59295112,1.4485108,-1.7541921,1.2082366,276.14953,27.32478)"
     style="stroke-width:0.5540705;stroke-dasharray:none"><path
       d="m 45.66,59.916 c 9.144,-0.352 17.323,-0.781 27.662,-0.975 1.27,-0.024 1.679,1.89 0.73,2.721 l -13.407,11.712 -0.688,-1.92 c 3.915,-3.434 7.982,-6.98 11.974,-10.645 -7.376,0.197 -17.387,0.71 -26.518,0.986 z"
       id="path211094"
       style="stroke-width:0.5540705;stroke-dasharray:none" /><path
       d="m 42.28,73.514 c 3.662,-12.562 5.566,-22.976 6.613,-30.336 l 5.136,16.384 1.91,-0.102 c -2.238,-6.748 -3.62,-12.547 -6.505,-19.779 -0.286,-0.718 -1.777,-0.471 -1.873,0.167 -1.115,7.369 -3.68,21.045 -6.947,32.581 z"
       id="path211096"
       style="stroke-width:0.5540705;stroke-dasharray:none" /><path
       d="m 24.255,60.051 c -0.539,0.408 -0.69,1.162 0.44,2.008 5.826,4.365 10.9,7.624 23.838,18.647 0.572,0.492 1.946,-0.953 1.341,-1.475 C 38.131,69.087 32.22,64.816 28.13,61.957 l 13.796,-0.061 c 1.003,-0.01 1.34,-2.155 0.419,-2.127 0,0 -13.234,0.051 -16.381,0.043 -0.74,-0.002 -1.409,0.013 -1.708,0.24 z M 51.05,82.15 c 0,0 7.853,7.783 13.706,12.222 0.637,0.483 2.345,-0.021 2.11,-1.143 -1.589,-7.56 -6.65,-21.94 -9.579,-30.41 -0.337,-0.975 -2.24,-0.765 -1.984,-0.023 2.809,8.11 6.507,18.137 9.376,29.126 -4.8,-3.626 -9.677,-8.42 -12.381,-10.873 z"
       id="path211098"
       style="stroke-width:0.5540705;stroke-dasharray:none" /><path
       d="m 39.71,75.497 c 0,0 -3.51,10.826 -4.946,18.03 -0.156,0.784 1.044,2.1 1.95,1.398 6.106,-4.733 15.504,-13.1 21.603,-19.323 0.83,-0.848 -0.315,-2.359 -1.012,-1.673 -6.116,6.02 -11.546,11.308 -20.37,18.458 1.162,-5.902 3.063,-11.038 4.315,-16.049 0.21,-0.836 -1.309,-1.686 -1.54,-0.84 z"
       id="path211100"
       style="stroke-width:0.5540705;stroke-dasharray:none" /></g><path
     d="m 193.20624,170.60913 -3.08254,9.55459 -8.43126,4.08582 -6.43143,-4.94394 z"
     fill="#ffb380"
     id="path211104"
     style="stroke-width:1;stroke-dasharray:none" /><path
     d="m 193.20624,170.60913 -3.08254,9.55459 2.42188,5.0539 5.81408,-3.84861 z"
     fill="#ffccaa"
     id="path211106"
     style="stroke-width:1;stroke-dasharray:none" /><path
     d="m 185.60977,192.42924 -2.01149,4.28782 -14.27743,-1.27422 9.58115,-3.61145 z"
     fill="#ffb380"
     id="path211108"
     style="stroke-width:1;stroke-dasharray:none" /><path
     d="m 192.54441,185.22027 -6.93459,7.20901 -2.01149,4.28782 14.76136,-15.34807 z"
     fill="#ffccaa"
     id="path211110"
     style="stroke-width:1;stroke-dasharray:none" /><path
     d="m 181.6907,184.25074 -2.7887,7.58065 -9.58115,3.61145 5.93842,-16.13605 z"
     fill="#ff9955"
     id="path211112"
     style="stroke-width:1;stroke-dasharray:none" /><path
     d="m 169.32085,195.44284 5.93842,-16.13605 17.94697,-8.69766 5.15342,10.75988 -14.76134,15.34809 z"
     fill="none"
     stroke="#000000"
     stroke-width="0.342001"
     id="path211114"
     style="stroke-width:1;stroke-dasharray:none" /><path
     d="m 190.1237,180.16372 2.42188,5.0539 -6.93568,7.21175 -6.70775,-0.59785 2.78867,-7.58065 z"
     fill="#ffe6d5"
     id="path211116"
     style="stroke-width:1;stroke-dasharray:none" /><g
     stroke="#000000"
     stroke-width="0.234"
     id="g211124"
     transform="matrix(0.59295112,1.4485108,-1.7541921,1.2082366,276.14953,27.32478)"
     style="stroke-width:0.5540705;stroke-dasharray:none"><path
       d="m 46.397,62.966 4.002,3.11"
       fill="#ff0000"
       id="path211118"
       style="stroke-width:0.5540705;stroke-dasharray:none" /><path
       d="m 52.52,73.19 -3.048,-2.62 0.927,-4.494 3.62,-0.157 1.311,4.397 z"
       fill="none"
       id="path211120"
       style="stroke-width:0.5540705;stroke-dasharray:none" /><path
       d="m 54.02,65.92 0.083,-3.287 m 1.227,7.683 1.563,1.675 m -4.373,1.199 -1.609,4.918 m -6.487,-5.578 5.048,-1.96"
       fill="#ff0000"
       id="path211122"
       style="stroke-width:0.5540705;stroke-dasharray:none" /></g><path
     d="m 172.62528,154.88648 c 0.38427,-0.20365 0.61018,-0.60319 0.8353,-0.90952 a 1.8940213,2.7651815 43.532757 0 1 0.49339,-0.54107 c 0,0 -0.10077,-0.2407 -0.48649,-0.33717 -0.39047,-0.0969 -0.96255,-0.0167 -1.3682,0.29431 -0.26378,0.0424 -0.58039,0.59838 -0.65534,1.01403 -0.075,0.42115 0.13186,0.50338 0.13186,0.50338 0,0 0.23978,-0.14478 0.44373,-0.0642 0.19974,0.0815 0.37497,0.31734 0.60546,0.0398 z m -2.92179,2.16844 c 0.26264,-0.16048 0.70947,-1.23331 0.70947,-1.23331 0,0 -0.51462,-0.71886 -1.19601,-0.2848 a 4.9501467,7.2269809 43.532757 0 0 -0.38363,0.25491 c -2.58786,1.81957 -3.6351,4.52407 -3.6351,4.52407 0,0 2.35745,-1.80012 4.23856,-3.08281 0.0911,-0.0627 0.18052,-0.12464 0.26482,-0.17697 z m -20.95656,23.33074 c 0.84202,-1.37101 1.80422,-2.75607 2.56982,-3.90174 0.75277,-1.12758 1.22495,-1.9133 1.22495,-1.9133 0,0 -0.74895,0.53257 -1.80365,1.43353 -1.05283,0.89984 -2.43125,2.21311 -3.46095,3.85078 -0.25728,0.3109 -0.30237,0.85448 -0.17359,1.19656 0.12706,0.3433 0.38332,0.37108 0.38332,0.37108 0,0 0.21061,-0.25461 0.4792,-0.41162 0.27138,-0.161 0.62517,-0.27462 0.77918,-0.62375 z m 75.62543,-7.34245 c 0.36387,-1.39633 0.33489,-2.64279 0.22725,-3.63638 -0.16927,-1.66605 -0.66274,-2.63531 -0.66274,-2.63531 0,0 -0.22545,1.26205 -0.58654,3.02786 -0.22577,1.0691 -0.45846,2.29708 -0.76135,3.43042 -0.0336,0.12706 -0.0682,0.24563 -0.10286,0.35313 -0.19399,0.31727 0.0606,0.45585 0.17295,0.64218 a 0.63930683,0.93335783 43.532757 0 1 0.0419,0.45394 c 0,0 0.20177,0.10793 0.62528,-0.12611 0.42355,-0.23426 0.89653,-0.71594 0.90633,-1.02716 a 5.5162621,8.0534824 43.532757 0 0 0.1398,-0.48254 z m -1.18887,4.10004 c 0.15994,-0.44438 -0.59358,-0.80186 -0.59358,-0.80186 0,0 -0.99981,0.43609 -1.12789,0.78798 -0.047,0.12706 -0.0968,0.25795 -0.15773,0.40572 -0.29124,0.71687 0.0639,1.70527 0.0639,1.70527 0,0 1.22882,-0.64586 1.61752,-1.58591 a 7.2848115,10.635481 43.532757 0 0 0.19768,-0.51133 z m -31.60755,7.78217 c -0.6394,-1.60587 -1.71794,-2.91122 -1.71794,-2.91122 0,0 0.19966,1.9051 0.83848,3.50956 l 0.14079,-0.52405 a 19.672127,28.72038 43.532757 0 0 -3.0467,4.15409 c 0,0 1.97295,-1.7396 3.64449,-3.70439 l 0.23855,-0.27959 z"
     fill="#ffffff"
     id="path211126"
     style="stroke-width:1;stroke-dasharray:none" /></svg>
