<?xml version="1.0" encoding="UTF-8" standalone="no"?>
<svg
   cursor="default"
   viewBox="0 0 256 256"
   version="1.1"
   id="svg169344"
   sodipodi:docname="rose_plug.svg"
   inkscape:version="1.2 (dc2aedaf03, 2022-05-15)"
   xml:space="preserve"
   xmlns:inkscape="http://www.inkscape.org/namespaces/inkscape"
   xmlns:sodipodi="http://sodipodi.sourceforge.net/DTD/sodipodi-0.dtd"
   xmlns:xlink="http://www.w3.org/1999/xlink"
   xmlns="http://www.w3.org/2000/svg"
   xmlns:svg="http://www.w3.org/2000/svg"><sodipodi:namedview
     id="namedview169346"
     pagecolor="#ffffff"
     bordercolor="#000000"
     borderopacity="0.25"
     inkscape:showpageshadow="2"
     inkscape:pageopacity="0.0"
     inkscape:pagecheckerboard="0"
     inkscape:deskcolor="#d1d1d1"
     showgrid="false"
     inkscape:zoom="4.8834562"
     inkscape:cx="176.41194"
     inkscape:cy="158.59669"
     inkscape:window-width="1920"
     inkscape:window-height="1051"
     inkscape:window-x="-9"
     inkscape:window-y="-9"
     inkscape:window-maximized="1"
     inkscape:current-layer="svg169344" /><defs
     id="defs169330"><linearGradient
       inkscape:collect="always"
       id="linearGradient179561"><stop
         style="stop-color:#ffccaa;stop-opacity:1"
         offset="0"
         id="stop179557" /><stop
         style="stop-color:#ff9955;stop-opacity:1"
         offset="1"
         id="stop179559" /></linearGradient><linearGradient
       inkscape:collect="always"
       id="linearGradient179555"><stop
         style="stop-color:#ffccaa;stop-opacity:1"
         offset="0"
         id="stop179551" /><stop
         style="stop-color:#ff9955;stop-opacity:1"
         offset="1"
         id="stop179553" /></linearGradient><linearGradient
       inkscape:collect="always"
       id="linearGradient179549"><stop
         style="stop-color:#ffccaa;stop-opacity:1"
         offset="0"
         id="stop179545" /><stop
         style="stop-color:#ff9955;stop-opacity:1"
         offset="1"
         id="stop179547" /></linearGradient><linearGradient
       inkscape:collect="always"
       id="linearGradient179543"><stop
         style="stop-color:#ffccaa;stop-opacity:1"
         offset="0"
         id="stop179539" /><stop
         style="stop-color:#ff9955;stop-opacity:1"
         offset="1"
         id="stop179541" /></linearGradient><linearGradient
       inkscape:collect="always"
       id="linearGradient179537"><stop
         style="stop-color:#ffccaa;stop-opacity:1"
         offset="0"
         id="stop179533" /><stop
         style="stop-color:#ff9955;stop-opacity:1"
         offset="1"
         id="stop179535" /></linearGradient><linearGradient
       inkscape:collect="always"
       id="linearGradient179317"><stop
         style="stop-color:#ffccaa;stop-opacity:1"
         offset="0"
         id="stop179313" /><stop
         style="stop-color:#ffb380;stop-opacity:1"
         offset="1"
         id="stop179315" /></linearGradient><linearGradient
       inkscape:collect="always"
       id="linearGradient179311"><stop
         style="stop-color:#ffccaa;stop-opacity:1"
         offset="0"
         id="stop179307" /><stop
         style="stop-color:#ffb380;stop-opacity:1"
         offset="1"
         id="stop179309" /></linearGradient><linearGradient
       inkscape:collect="always"
       id="linearGradient179305"><stop
         style="stop-color:#ffccaa;stop-opacity:1"
         offset="0"
         id="stop179301" /><stop
         style="stop-color:#ffb380;stop-opacity:1"
         offset="1"
         id="stop179303" /></linearGradient><linearGradient
       inkscape:collect="always"
       id="linearGradient179299"><stop
         style="stop-color:#ffccaa;stop-opacity:1"
         offset="0"
         id="stop179295" /><stop
         style="stop-color:#ffb380;stop-opacity:1"
         offset="1"
         id="stop179297" /></linearGradient><linearGradient
       inkscape:collect="always"
       id="linearGradient179293"><stop
         style="stop-color:#ffccaa;stop-opacity:1"
         offset="0"
         id="stop179289" /><stop
         style="stop-color:#ffb380;stop-opacity:1"
         offset="1"
         id="stop179291" /></linearGradient><linearGradient
       inkscape:collect="always"
       id="linearGradient179287"><stop
         style="stop-color:#ffccaa;stop-opacity:1"
         offset="0"
         id="stop179283" /><stop
         style="stop-color:#ffb380;stop-opacity:1"
         offset="1"
         id="stop179285" /></linearGradient><linearGradient
       inkscape:collect="always"
       id="linearGradient179281"><stop
         style="stop-color:#ffccaa;stop-opacity:1"
         offset="0"
         id="stop179277" /><stop
         style="stop-color:#ffb380;stop-opacity:1"
         offset="1"
         id="stop179279" /></linearGradient><linearGradient
       inkscape:collect="always"
       id="linearGradient179275"><stop
         style="stop-color:#ffccaa;stop-opacity:1"
         offset="0"
         id="stop179271" /><stop
         style="stop-color:#ffb380;stop-opacity:1"
         offset="1"
         id="stop179273" /></linearGradient><linearGradient
       inkscape:collect="always"
       id="linearGradient179269"><stop
         style="stop-color:#ffccaa;stop-opacity:1"
         offset="0"
         id="stop179265" /><stop
         style="stop-color:#ffb380;stop-opacity:1"
         offset="1"
         id="stop179267" /></linearGradient><linearGradient
       inkscape:collect="always"
       id="linearGradient179263"><stop
         style="stop-color:#ffccaa;stop-opacity:1"
         offset="0"
         id="stop179259" /><stop
         style="stop-color:#ffb380;stop-opacity:1"
         offset="1"
         id="stop179261" /></linearGradient><linearGradient
       inkscape:collect="always"
       id="linearGradient179257"><stop
         style="stop-color:#ffccaa;stop-opacity:1"
         offset="0"
         id="stop179253" /><stop
         style="stop-color:#ffb380;stop-opacity:1"
         offset="1"
         id="stop179255" /></linearGradient><linearGradient
       inkscape:collect="always"
       id="linearGradient178857"><stop
         style="stop-color:#ffccaa;stop-opacity:1;"
         offset="0"
         id="stop178853" /><stop
         style="stop-color:#ffccaa;stop-opacity:1"
         offset="1"
         id="stop178855" /></linearGradient><linearGradient
       inkscape:collect="always"
       id="linearGradient178851"><stop
         style="stop-color:#ffccaa;stop-opacity:1;"
         offset="0"
         id="stop178847" /><stop
         style="stop-color:#ffccaa;stop-opacity:1"
         offset="1"
         id="stop178849" /></linearGradient><linearGradient
       inkscape:collect="always"
       id="linearGradient178403"><stop
         style="stop-color:#ffccaa;stop-opacity:1"
         offset="0"
         id="stop178399" /><stop
         style="stop-color:#ffccaa;stop-opacity:1"
         offset="1"
         id="stop178401" /></linearGradient><marker
       markerWidth="5.5250001"
       markerHeight="1"
       refX="0"
       refY="0"
       orient="auto-start-reverse"
       id="marker171087"
       viewBox="0 0 0.525 1"
       inkscape:stockid="pin"
       style="overflow:visible"
       preserveAspectRatio="none"
       inkscape:isstock="true"
       inkscape:collect="always"><path
         id="path171085"
         style="fill:context-stroke;stroke-linecap:butt"
         d="M 0,-1 1,0 0,1 -0.05,0 Z"
         sodipodi:nodetypes="sssssscsss"
         transform="scale(0.5)" /></marker><marker
       markerWidth="5.5250001"
       markerHeight="1.001"
       refX="0"
       refY="0"
       orient="auto-start-reverse"
       id="CapTriangle"
       viewBox="0 0 0.525 1"
       inkscape:stockid="pin"
       style="overflow:visible"
       preserveAspectRatio="none"
       inkscape:isstock="true"
       inkscape:collect="always"><path
         id="path7813"
         style="fill:context-stroke;stroke-linecap:butt"
         d="M 0,-1 1,0 0,1 -0.05,0 Z"
         sodipodi:nodetypes="sssssscsss"
         transform="scale(0.5)" /></marker><linearGradient
       id="linearGradient170919"><stop
         offset="0"
         stop-color="#faa"
         id="stop170917" /><stop
         offset="1"
         stop-color="#ff8080"
         id="stop170915" /></linearGradient><linearGradient
       id="innoGrad2"><stop
         offset="0"
         stop-color="#ff8080"
         id="stop169316" /><stop
         offset="1"
         stop-color="#ff8080"
         stop-opacity="0"
         id="stop169318" /></linearGradient><linearGradient
       id="innoGrad1"><stop
         offset="0"
         stop-color="#ff8080"
         id="stop169321" /><stop
         offset="1"
         stop-color="#faa"
         id="stop169323" /></linearGradient><linearGradient
       id="linearGradient1097"
       x1="498.567"
       x2="491.833"
       y1="146.606"
       y2="79.162"
       gradientTransform="matrix(-0.5,-0.8660254,-0.8660254,0.5,468.84312,446.69334)"
       gradientUnits="userSpaceOnUse"
       xlink:href="#innoGrad1" /><linearGradient
       id="linearGradient1115"
       x1="423.04178"
       x2="430.68991"
       y1="139.97784"
       y2="135.82849"
       gradientTransform="matrix(-0.94134983,-0.25223392,-0.25223392,0.94134983,561.03208,103.41008)"
       gradientUnits="userSpaceOnUse"
       xlink:href="#innoGrad2" /><linearGradient
       id="linearGradient1131"
       x1="383.179"
       x2="357.464"
       y1="226.786"
       y2="120.393"
       gradientTransform="matrix(-0.94134983,-0.25223392,-0.25223392,0.94134983,562.98334,101.45882)"
       gradientUnits="userSpaceOnUse"
       xlink:href="#innoGrad1" /><linearGradient
       id="linearGradient1032"
       x1="145.75"
       x2="155.5"
       y1="194.75"
       y2="140.5"
       gradientUnits="userSpaceOnUse"
       xlink:href="#innoGrad1"
       gradientTransform="matrix(0.94134982,0.25223393,-0.25223393,0.94134982,25.84602,-34.31347)" /><linearGradient
       id="innoGrad1-3"><stop
         offset="0"
         stop-color="#fd5"
         id="stop1292" /><stop
         offset="1"
         stop-color="#fea"
         id="stop1294" /></linearGradient><linearGradient
       id="innoGrad2-0"><stop
         offset="0"
         stop-color="#ffb380"
         id="stop1297" /><stop
         offset="1"
         stop-color="#fca"
         id="stop1299" /></linearGradient><linearGradient
       id="innoGrad3"><stop
         offset="0"
         stop-color="#f55"
         id="stop1302" /><stop
         offset="1"
         stop-color="#faa"
         stop-opacity="0"
         id="stop1304" /></linearGradient><linearGradient
       id="linearGradient1196"
       x1="398.455"
       x2="411.183"
       y1="153.47"
       y2="43.161"
       gradientTransform="matrix(.729 0 0 .729 -214.257 45.489)"
       gradientUnits="userSpaceOnUse"
       xlink:href="#innoGrad1" /><linearGradient
       id="linearGradient1206"
       x1="413.5"
       x2="442.375"
       y1="106"
       y2="96.5"
       gradientTransform="matrix(.729 0 0 .729 -214.257 45.489)"
       gradientUnits="userSpaceOnUse"
       xlink:href="#innoGrad3" /><linearGradient
       id="linearGradient1242"
       x1="570.812"
       x2="608.996"
       y1="141.449"
       y2="112.104"
       gradientTransform="matrix(.729 0 0 .729 -214.257 45.489)"
       gradientUnits="userSpaceOnUse"
       xlink:href="#innoGrad2-0" /><linearGradient
       id="linearGradient1250"
       x1="82.29"
       x2="89.624"
       y1="176.582"
       y2="168.645"
       gradientUnits="userSpaceOnUse"
       xlink:href="#innoGrad1-3"
       gradientTransform="matrix(-1.8464921,-2.6970709,2.6970709,-1.8464921,-341.05524,738.52176)" /><linearGradient
       id="linearGradient1258"
       x1="95.059"
       x2="97.238"
       y1="180.828"
       y2="171.865"
       gradientUnits="userSpaceOnUse"
       xlink:href="#innoGrad1-3"
       gradientTransform="matrix(-1.8464921,-2.6970709,2.6970709,-1.8464921,-339.83193,738.52175)" /><linearGradient
       id="linearGradient1268"
       x1="74.777"
       x2="84.057"
       y1="178.395"
       y2="161.866"
       gradientUnits="userSpaceOnUse"
       xlink:href="#innoGrad1-3"
       gradientTransform="matrix(-1.8464921,-2.6970709,2.6970709,-1.8464921,-341.05524,738.52176)" /><linearGradient
       id="linearGradient1276"
       x1="111.104"
       x2="128.163"
       y1="195.896"
       y2="184.582"
       gradientTransform="rotate(-2.382,803.83923,890.65137)"
       gradientUnits="userSpaceOnUse"
       xlink:href="#innoGrad1-3" /><linearGradient
       id="linearGradient1097-1"
       x1="476.77267"
       x2="496.65549"
       y1="65.811928"
       y2="146.71666"
       gradientTransform="matrix(-0.97358311,-0.2126262,-0.31464807,1.0008284,580.39248,74.416392)"
       gradientUnits="userSpaceOnUse"
       xlink:href="#linearGradient170919" /><linearGradient
       inkscape:collect="always"
       xlink:href="#linearGradient178403"
       id="linearGradient178405"
       x1="231.59827"
       y1="141.49815"
       x2="157.47044"
       y2="181.42888"
       gradientUnits="userSpaceOnUse" /><linearGradient
       inkscape:collect="always"
       xlink:href="#linearGradient178857"
       id="linearGradient178419"
       x1="231.59827"
       y1="141.49815"
       x2="157.47044"
       y2="181.42888"
       gradientUnits="userSpaceOnUse" /><linearGradient
       inkscape:collect="always"
       xlink:href="#linearGradient178851"
       id="linearGradient178433"
       x1="231.59827"
       y1="141.49815"
       x2="157.47044"
       y2="181.42888"
       gradientUnits="userSpaceOnUse" /><linearGradient
       inkscape:collect="always"
       xlink:href="#linearGradient179317"
       id="linearGradient178907"
       x1="232.8269"
       y1="143.54588"
       x2="123.47812"
       y2="196.78685"
       gradientUnits="userSpaceOnUse" /><linearGradient
       inkscape:collect="always"
       xlink:href="#linearGradient179311"
       id="linearGradient178921"
       x1="232.8269"
       y1="143.54588"
       x2="123.47812"
       y2="196.78685"
       gradientUnits="userSpaceOnUse" /><linearGradient
       inkscape:collect="always"
       xlink:href="#linearGradient179305"
       id="linearGradient178935"
       x1="232.8269"
       y1="143.54588"
       x2="123.47812"
       y2="196.78685"
       gradientUnits="userSpaceOnUse" /><linearGradient
       inkscape:collect="always"
       xlink:href="#linearGradient179299"
       id="linearGradient178949"
       x1="232.8269"
       y1="143.54588"
       x2="123.47812"
       y2="196.78685"
       gradientUnits="userSpaceOnUse" /><linearGradient
       inkscape:collect="always"
       xlink:href="#linearGradient179293"
       id="linearGradient178963"
       x1="232.8269"
       y1="143.54588"
       x2="123.47812"
       y2="196.78685"
       gradientUnits="userSpaceOnUse" /><linearGradient
       inkscape:collect="always"
       xlink:href="#linearGradient179287"
       id="linearGradient178977"
       x1="232.8269"
       y1="143.54588"
       x2="123.47812"
       y2="196.78685"
       gradientUnits="userSpaceOnUse" /><linearGradient
       inkscape:collect="always"
       xlink:href="#linearGradient179281"
       id="linearGradient178991"
       x1="232.8269"
       y1="143.54588"
       x2="123.47812"
       y2="196.78685"
       gradientUnits="userSpaceOnUse" /><linearGradient
       inkscape:collect="always"
       xlink:href="#linearGradient179275"
       id="linearGradient179005"
       x1="232.8269"
       y1="143.54588"
       x2="123.47812"
       y2="196.78685"
       gradientUnits="userSpaceOnUse" /><linearGradient
       inkscape:collect="always"
       xlink:href="#linearGradient179269"
       id="linearGradient179019"
       x1="232.8269"
       y1="143.54588"
       x2="123.47812"
       y2="196.78685"
       gradientUnits="userSpaceOnUse" /><linearGradient
       inkscape:collect="always"
       xlink:href="#linearGradient179263"
       id="linearGradient179033"
       x1="232.8269"
       y1="143.54588"
       x2="123.47812"
       y2="196.78685"
       gradientUnits="userSpaceOnUse" /><linearGradient
       inkscape:collect="always"
       xlink:href="#linearGradient179257"
       id="linearGradient179047"
       x1="232.8269"
       y1="143.54588"
       x2="123.47812"
       y2="196.78685"
       gradientUnits="userSpaceOnUse" /><linearGradient
       inkscape:collect="always"
       xlink:href="#linearGradient179561"
       id="linearGradient179331"
       x1="219.51666"
       y1="153.78453"
       x2="124.50198"
       y2="203.13483"
       gradientUnits="userSpaceOnUse" /><linearGradient
       inkscape:collect="always"
       xlink:href="#linearGradient179555"
       id="linearGradient179345"
       x1="219.51666"
       y1="153.78453"
       x2="124.50198"
       y2="203.13483"
       gradientUnits="userSpaceOnUse" /><linearGradient
       inkscape:collect="always"
       xlink:href="#linearGradient179549"
       id="linearGradient179359"
       x1="219.51666"
       y1="153.78453"
       x2="124.50198"
       y2="203.13483"
       gradientUnits="userSpaceOnUse" /><linearGradient
       inkscape:collect="always"
       xlink:href="#linearGradient179543"
       id="linearGradient179373"
       x1="219.51666"
       y1="153.78453"
       x2="124.50198"
       y2="203.13483"
       gradientUnits="userSpaceOnUse" /><linearGradient
       inkscape:collect="always"
       xlink:href="#linearGradient179537"
       id="linearGradient179387"
       x1="219.51666"
       y1="153.78453"
       x2="124.50198"
       y2="203.13483"
       gradientUnits="userSpaceOnUse" /></defs><path
     fill="url(#linearGradient1097)"
     fill-rule="evenodd"
     stroke="#000000"
     d="M 130.31001,133.21168 C 106.29564,157.22603 75.831434,153.52734 61.796899,144.58415 28.883352,123.61069 5.8894707,45.303213 25.242505,25.950208 44.595542,6.5971417 122.0768,30.868569 142.96197,62.051742 c 13.09309,19.549245 11.36238,47.145578 -12.65196,71.159938 z"
     id="path2512"
     style="fill:url(#linearGradient1097-1);fill-opacity:1;stroke-width:1;stroke-dasharray:none"
     sodipodi:nodetypes="zszsz" /><path
     fill="url(#linearGradient1115)"
     fill-rule="evenodd"
     stroke="#000000"
     d="m 133.7666,109.1531 c 0.85238,6.27702 14.06544,14.18461 21.09747,21.28787 l -27.80024,25.63496 c -6.73966,-6.64643 -15.27781,-18.68872 -20.21882,-19.93942"
     id="path169334"
     style="fill:url(#linearGradient1115);stroke-width:1;marker-start:url(#marker171087);marker-end:url(#CapTriangle);stroke-dasharray:none"
     sodipodi:nodetypes="cccc" /><path
     fill="url(#linearGradient1032)"
     fill-rule="evenodd"
     stroke="#000000"
     d="m 216.65969,137.29191 c -1.65612,-10.06698 -13.23721,-21.52312 -19.62761,-23.90737 -31.45376,-11.73227 -67.27515,22.13688 -79.1563,42.93021 -16.05283,28.09424 -7.52668,52.59894 13.54778,60.38275 z"
     id="path169336"
     style="fill:url(#linearGradient1032);stroke-width:1;stroke-dasharray:none"
     sodipodi:nodetypes="ccscc" /><path
     fill="url(#linearGradient1131)"
     fill-rule="evenodd"
     stroke="#000000"
     d="m 201.29922,120.65419 c -27.80905,-10.74358 -66.06821,18.82829 -79.16738,48.69127 -15.23388,34.7296 5.51902,49.04004 19.83701,50.35723 25.32657,2.32977 54.04161,-21.78277 64.45858,-37.49846 14.64811,-22.10054 18.68947,-52.35015 -5.12821,-61.55004 z"
     id="path169338"
     style="fill:url(#linearGradient1131);stroke-width:1;stroke-dasharray:none"
     sodipodi:nodetypes="csccc" /><path
     fill="#ffd5d5"
     d="M 142.04843,74.849099 C 125.82601,40.051623 80.600777,25.5186 36.457699,30.52113 83.903327,30.969111 118.3902,50.039439 142.04843,74.849099 Z"
     id="path169340"
     sodipodi:nodetypes="ccc"
     style="stroke-width:1;stroke-dasharray:none" /><path
     style="fill:url(#linearGradient178405);stroke:#000000;stroke-width:1;stroke-linecap:round;stroke-linejoin:bevel;stop-color:#000000;stroke-dasharray:none;fill-opacity:1"
     d="m 218.0729,130.12883 c 0,0 11.49073,0.72956 14.31781,6.47493 2.82708,5.74536 2.73589,16.5977 -0.63837,21.43109 -3.37426,4.83341 -9.30201,8.39005 -9.30201,8.39005 l -37.20804,-26.0821 z"
     id="path172638" /><path
     style="fill:url(#linearGradient179047);stroke:#000000;stroke-width:1;stroke-linecap:round;stroke-linejoin:bevel;stop-color:#000000;stroke-dasharray:none;fill-opacity:1"
     d="m 207.53975,207.32639 c 0,0 -14.91057,12.44829 -19.78956,14.04421 -4.879,1.59593 -9.71239,1.04876 -9.71239,1.04876 l 4.6966,-6.06455 z"
     id="path173566" /><path
     style="fill:url(#linearGradient179033);stroke:#000000;stroke-width:1;stroke-linecap:round;stroke-linejoin:bevel;stop-color:#000000;stroke-dasharray:none;fill-opacity:1"
     d="m 184.14793,217.76836 c 0,0 -2.69028,5.42617 -6.7485,9.302 -4.05825,3.87585 -11.62752,5.51737 -14.54581,8.52685 -2.91828,3.00947 -8.66859,6.71199 -13.18257,5.93817 -4.51398,-0.77383 -17.66902,-5.54575 -19.79705,-9.09244 -2.12801,-3.5467 -4.70743,-14.6382 -4.70743,-14.6382 l 29.98573,-6.2551 z"
     id="path173552" /><path
     style="fill:url(#linearGradient178433);stroke:#000000;stroke-width:1;stroke-linecap:round;stroke-linejoin:bevel;stop-color:#000000;stroke-dasharray:none;fill-opacity:1"
     d="m 214.28827,155.16217 c 0,0 9.07402,4.9702 12.03789,11.58193 2.96388,6.61172 -2.49687,14.17497 -3.10947,17.88289 -0.61261,3.7079 0.41919,12.80462 -4.27741,17.68361 -4.6966,4.879 -18.69522,7.66048 -21.97828,9.48441 -3.28306,1.82391 -11.39952,7.66047 -17.60086,7.66047 -6.20134,0 -17.19049,-1.59593 -17.19049,-1.59593 z"
     id="path173409" /><path
     style="fill:url(#linearGradient179019);stroke:#000000;stroke-width:1;stroke-linecap:round;stroke-linejoin:bevel;stop-color:#000000;stroke-dasharray:none;fill-opacity:1"
     d="m 184.98972,159.09412 13.33922,-0.46649 c 0,0 9.83812,8.21872 11.34286,10.909 1.50474,2.6903 5.02686,10.11172 4.66207,13.2124 -0.36478,3.10067 -1.91513,4.83339 -1.91513,4.83339 0,0 0.456,2.64468 -3.28305,5.28938 -3.73905,2.64469 -12.00337,7.90878 -15.16315,9.39193 -3.15978,1.48318 -6.642,1.22524 -6.642,1.22524 z"
     id="path173230"
     sodipodi:nodetypes="ccsscsscc" /><path
     style="fill:url(#linearGradient179387);stroke:#000000;stroke-width:1;stroke-linecap:round;stroke-linejoin:bevel;stop-color:#000000;stroke-dasharray:none;fill-opacity:1"
     d="m 167.46902,205.16559 -13.09055,-8.70553 2.45046,-15.99239 8.25412,-2.57942 z"
     id="path173270" /><path
     style="fill:url(#linearGradient179005);stroke:#000000;stroke-width:1;stroke-linecap:round;stroke-linejoin:bevel;stop-color:#000000;stroke-dasharray:none;fill-opacity:1"
     d="m 195.0043,193.23578 c 0,0 -7.60928,17.66902 -13.284,19.21667 -5.67471,1.54764 -14.83165,-3.9981 -16.18584,-9.09245 -1.3542,-5.09435 -1.93456,-16.12137 -1.74111,-18.37835 0.19347,-2.257 1.09626,-7.41583 1.09626,-7.41583 1.09104,6.38722 1.70582,12.64909 5.93266,19.86151 z"
     id="path173256"
     sodipodi:nodetypes="csssccc" /><path
     style="fill:url(#linearGradient179373);stroke:#000000;stroke-width:1;stroke-linecap:round;stroke-linejoin:bevel;stop-color:#000000;stroke-dasharray:none;fill-opacity:1"
     d="m 197.71269,181.75738 c 0,0 2.1925,1.28971 0.22569,6.99667 -0.95015,2.75699 -3.93605,6.2262 -5.80368,7.80273 -2.28599,1.9297 -5.63074,2.59668 -5.63074,2.59668 l -9.81351,-3.78966 0.87054,-5.57798 15.18633,-10.73684 z"
     id="path173918"
     sodipodi:nodetypes="cssccccc" /><path
     style="fill:url(#linearGradient178991);stroke:#000000;stroke-width:1;stroke-linecap:round;stroke-linejoin:bevel;stop-color:#000000;stroke-dasharray:none;fill-opacity:1"
     d="m 185.78288,159.63888 c 2.63317,11.38252 10.2364,14.52509 12.3006,22.4248 0,0 -6.10494,-3.69034 -10.55948,2.789 -2.83736,4.12706 0.96727,6.38405 0.96727,6.38405 0,0 -3.86912,2.45045 -6.06163,2.57943 -2.1925,0.12897 -8.51206,-1.16075 -8.51206,-1.16075 l 2.96631,-30.05022 z"
     id="path173904"
     sodipodi:nodetypes="ccscsccc" /><path
     style="fill:url(#linearGradient178977);stroke:#000000;stroke-width:1;stroke-linecap:round;stroke-linejoin:bevel;stop-color:#000000;stroke-dasharray:none;fill-opacity:1"
     d="m 176.98903,165.37615 c 0,0 3.96704,3.87584 3.87584,6.70293 -0.0912,2.82707 -4.6966,17.46406 -1.45913,22.34305 3.23746,4.879 10.85233,3.37426 10.85233,3.37426 0,0 -4.5142,3.05506 -8.93722,2.3711 -4.42302,-0.68396 -10.46889,-2.68057 -10.46889,-2.68057 -3.37074,-5.61123 -5.20384,-11.44925 -6.03478,-20.64446 z"
     id="path173480"
     sodipodi:nodetypes="csscsccc" /><path
     style="fill:url(#linearGradient179359);stroke:#000000;stroke-width:1;stroke-linecap:round;stroke-linejoin:bevel;stop-color:#000000;stroke-dasharray:none;fill-opacity:1"
     d="m 122.6817,215.48845 c 0,0 5.92777,11.7643 15.86815,9.11961 9.94039,-2.64468 15.13856,-9.11961 15.13856,-9.11961 l -9.48059,-32.07736 -0.55098,-22.45795 -16.05053,29.91234 z"
     id="path172652"
     sodipodi:nodetypes="csccccc" /><path
     style="fill:url(#linearGradient178963);stroke:#000000;stroke-width:1;stroke-linecap:round;stroke-linejoin:bevel;stop-color:#000000;stroke-dasharray:none;fill-opacity:1"
     d="m 176.06313,212.34371 c 0,0 -9.98054,7.29886 -13.75295,7.3311 -3.7724,0.0322 -11.89756,-4.41724 -11.89756,-4.41724 l 6.32376,-17.68616 9.08328,6.35309 c 0,0 4.17418,6.19848 10.24347,8.41921 z"
     id="path173339"
     sodipodi:nodetypes="cscccc" /><path
     style="fill:url(#linearGradient179345);stroke:#000000;stroke-width:1;stroke-linecap:round;stroke-linejoin:bevel;stop-color:#000000;stroke-dasharray:none;fill-opacity:1"
     d="m 156.5065,183.49848 c 2.14658,0.011 4.21593,-0.82807 6.1906,-2.70839 10.56244,-11.90226 18.32863,-24.44227 38.11089,-34.24176 -9.91001,-3.24014 -13.38543,-9.97925 -21.43833,-14.63954 l -20.09028,18.25071 z"
     id="path173080"
     sodipodi:nodetypes="cccccc" /><path
     style="fill:url(#linearGradient179331);stroke:#000000;stroke-width:1;stroke-linecap:round;stroke-linejoin:bevel;stop-color:#000000;stroke-dasharray:none;fill-opacity:1"
     d="m 166.27348,146.54414 c 0.84217,2.23864 1.65196,4.4979 1.18555,7.56928 l -14.31779,36.56967 -3.37427,12.85866 c -11.72039,-11.02133 -13.46524,-18.12147 -13.40583,-29.63876 l 25.53494,-27.72364 z"
     id="path172680"
     sodipodi:nodetypes="ccccccc" /><path
     style="fill:url(#linearGradient178949);stroke:#000000;stroke-width:1;stroke-linecap:round;stroke-linejoin:bevel;stop-color:#000000;stroke-dasharray:none;fill-opacity:1"
     d="m 143.56563,164.145 c 0,0 -9.4844,13.67942 -7.75167,25.80852 1.73273,12.12909 -0.18239,22.43427 -3.19186,24.53177 -3.00948,2.09751 -10.39637,0.91197 -10.39637,0.91197 l 1.27674,-10.39636 c -0.15267,-0.0916 -6.06184,-5.35055 -0.91195,-19.69839 1.67062,-16.97435 7.16446,-21.07346 8.48124,-22.52546 4.56258,-5.03107 18.61752,-14.72225 18.14803,-14.1354 z"
     id="path172610"
     sodipodi:nodetypes="csscccscc" /><path
     style="fill:url(#linearGradient178935);stroke:#000000;stroke-width:1;stroke-linecap:round;stroke-linejoin:bevel;stop-color:#000000;stroke-dasharray:none;fill-opacity:1"
     d="m 171.92765,143.26107 c -0.12933,0.18107 10.82421,-0.28115 14.68258,-1.55033 3.46031,-1.13824 32.339,-10.68974 31.64507,-11.58192 -8.26252,-0.49229 -19.50759,1.99793 -29.09159,2.82709 z"
     id="path172624"
     sodipodi:nodetypes="csccc" /><path
     style="fill:url(#linearGradient178921);stroke:#000000;stroke-width:1;stroke-linecap:round;stroke-linejoin:bevel;stop-color:#000000;stroke-dasharray:none;fill-opacity:1"
     d="m 141.55931,174.90615 c 0,0 0.18241,-32.64824 24.44058,-46.32766 24.25818,-13.67943 37.39043,-4.37741 37.20804,-2.18869 -0.18239,2.18869 -2.4623,5.19817 -2.4623,5.19817 0,0 -17.0895,2.71888 -35.7489,16.4153 -15.46101,11.34875 -16.56184,24.7152 -23.43742,26.90288 z"
     id="path172584"
     sodipodi:nodetypes="csscsc" /><path
     style="fill:url(#linearGradient178907);stroke:#000000;stroke-width:1;stroke-linecap:round;stroke-linejoin:bevel;stop-color:#000000;stroke-dasharray:none;fill-opacity:1"
     d="m 167.55023,153.29265 c 0,0 0.72957,4.19503 -4.28622,14.86498 -5.0158,10.66995 -7.11331,20.06317 -5.74535,27.26766 1.36794,7.2045 4.19501,17.32727 1.09434,19.51599 -3.10067,2.1887 -8.57244,0 -8.57244,0 l 0.54718,-5.65417 c 0,0 -5.74536,-2.4623 -3.46545,-13.49703 2.2799,-11.03474 7.29569,-23.34623 10.57875,-27.72365 3.28306,-4.37742 9.84919,-14.77378 9.84919,-14.77378 z"
     id="path172666" /><path
     style="fill:url(#linearGradient178419);stroke:#000000;stroke-width:1;stroke-linecap:round;stroke-linejoin:bevel;stop-color:#000000;stroke-dasharray:none;fill-opacity:1"
     d="m 207.19205,166.6033 c 0,0 9.41487,-4.25603 8.31861,-10.38216 -1.09624,-6.12611 -8.31861,-11.9298 -14.96061,-10.31767 -6.64201,1.61214 -18.50732,4.57847 -23.40821,10.38216 -4.90089,5.80369 -6.31957,11.86531 -7.67376,13.47745 -1.3542,1.61214 -4.25605,3.9981 -5.15885,5.93267 -0.9028,1.93456 -2.12801,5.48125 -2.12801,5.48125 0,0 15.54098,-16.44378 20.82878,-18.89422 5.28782,-2.45045 12.96159,-2.38598 12.96159,-2.38598 z"
     id="path173054" /></svg>
