<?xml version="1.0" encoding="UTF-8" standalone="no"?>
<svg
   version="1.1"
   viewBox="0 0 64 64"
   id="svg80"
   sodipodi:docname="goblin_nuts.svg"
   inkscape:version="1.1 (c68e22c387, 2021-05-23)"
   xmlns:inkscape="http://www.inkscape.org/namespaces/inkscape"
   xmlns:sodipodi="http://sodipodi.sourceforge.net/DTD/sodipodi-0.dtd"
   xmlns="http://www.w3.org/2000/svg"
   xmlns:svg="http://www.w3.org/2000/svg">
  <defs
     id="defs84" />
  <sodipodi:namedview
     id="namedview82"
     pagecolor="#ffffff"
     bordercolor="#666666"
     borderopacity="1.0"
     inkscape:pageshadow="2"
     inkscape:pageopacity="0.0"
     inkscape:pagecheckerboard="0"
     showgrid="false"
     inkscape:zoom="5.8828126"
     inkscape:cx="86.608232"
     inkscape:cy="32.722443"
     inkscape:window-width="1920"
     inkscape:window-height="1017"
     inkscape:window-x="-8"
     inkscape:window-y="-8"
     inkscape:window-maximized="1"
     inkscape:current-layer="svg80" />
  <g
     id="g6"
     transform="matrix(1.3401,0,0,1.3401,-10.202,-11.638)"
     style="fill-rule:evenodd;stroke:#000000;stroke-width:0.29849">
    <path
       d="m 41.743,36.502 c 4.645,0.4 4.663,-4.273 3.285,-5.776 -2.539,-0.925 -2.73,-1.349 -5.2,1.123 0.284,2.373 1.085,3.664 1.915,4.653 z"
       fill="#5c3919"
       id="path2" />
    <path
       d="m 41.646,36.327 c 0.95,0.163 1.472,-0.516 0.317,-2.777 -0.47,-0.92 -1.018,-1.194 -2.11,-1.466 0.075,0.658 0.197,2.886 1.793,4.243 z"
       fill="#eac9b7"
       id="path4" />
  </g>
  <path
     d="m 49.496775,23.34263 c 5.561415,-2.846372 2.262089,-8.167909 -0.371208,-8.898264 -3.543224,0.754477 -4.061843,0.408731 -5.111141,4.971771 2.007469,2.495267 3.836706,3.393134 5.481009,3.926493 z"
     fill="#b77232"
     id="path8"
     style="fill-rule:evenodd;stroke:#000000;stroke-width:0.400006" />
  <path
     d="m 49.260917,23.212641 c 1.195369,-0.490477 1.306598,-1.632242 -1.61214,-3.381073 -1.188669,-0.711593 -2.00613,-0.633867 -3.438697,-0.166172 0.552121,0.694172 2.27415,3.138514 5.052177,3.547245 z"
     fill="#e4baa3"
     id="path10"
     style="fill-rule:evenodd;stroke:#000000;stroke-width:0.400006" />
  <g
     id="g16"
     transform="matrix(1.3401,0,0,1.3401,-10.202,-11.638)"
     style="fill-rule:evenodd;stroke:#000000;stroke-width:0.29849">
    <path
       d="m 35.26,39.079 c 4.149,-2.125 1.687,-6.095 -0.278,-6.64 -2.643,0.562 -3.03,0.305 -3.813,3.71 1.498,1.861 2.862,2.531 4.09,2.93 z"
       fill="#8a5626"
       id="path12" />
    <path
       d="m 35.084,38.981 c 0.892,-0.366 0.974,-1.217 -1.204,-2.522 -0.886,-0.532 -1.496,-0.473 -2.566,-0.124 0.413,0.518 1.697,2.342 3.77,2.646 z"
       fill="#eac9b7"
       id="path14" />
  </g>
  <path
     d="m 28.002911,35.654129 c 5.561415,-2.846372 2.669479,-7.038205 0.03618,-7.76722 -3.541885,0.753137 -4.060503,0.408731 -5.109802,4.970431 2.00747,2.495267 2.768647,3.268504 5.073619,2.796789 z"
     fill="#8a5626"
     id="path18"
     style="fill-rule:evenodd;stroke:#000000;stroke-width:0.400006" />
  <path
     d="m 23.938388,38.606369 c 0.487796,6.227445 6.494124,5.250512 8.18131,3.100992 0.66737,-3.559306 1.212791,-3.88495 -2.594433,-6.608033 -3.07553,0.892506 -4.461193,2.193743 -5.586877,3.507041 z"
     fill="#b77232"
     id="path20"
     style="fill-rule:evenodd;stroke:#000000;stroke-width:0.400006" />
  <path
     d="m 23.96385,38.528644 c 0.289461,1.302577 3.35025,3.654452 4.868583,1.466069 1.665744,-2.400119 0.94611,-3.441377 0.53604,-4.853842 -0.854984,0.243898 -3.958656,0.982293 -5.404623,3.387773 z"
     fill="#eac9b7"
     id="path22"
     style="fill-rule:evenodd;stroke:#000000;stroke-width:0.400006" />
  <path
     d="m 15.940671,32.5853 c 1.722028,6.003648 7.579605,3.792483 8.801777,1.348141 -0.05762,-3.620951 0.381928,-4.064524 -3.892991,-5.971486 -2.835651,1.490191 -4.068544,3.111712 -4.908786,4.623345 z"
     fill="#452b13"
     id="path24"
     style="fill-rule:evenodd;stroke:#000000;stroke-width:0.400006" />
  <path
     d="m 16.113544,32.380265 c 0.250598,1.266394 1.34948,1.594719 3.62765,-0.93271 0.92735,-1.029197 1.007756,-1.845318 0.825502,-3.342209 -0.787979,0.40873 -3.517762,1.626881 -4.453152,4.274919 z"
     fill="#eac9b7"
     id="path26"
     style="fill-rule:evenodd;stroke:#000000;stroke-width:0.400006" />
  <path
     d="m 23.607383,27.982057 c 1.723369,6.003648 6.392277,3.974736 7.615788,1.531734 -0.05762,-3.62095 0.380589,-4.064523 -3.89433,-5.971486 -2.835652,1.490191 -3.738879,2.087876 -3.721458,4.439752 z"
     fill="#8a5626"
     id="path28"
     style="fill-rule:evenodd;stroke:#000000;stroke-width:0.400006" />
  <g
     id="g34"
     transform="matrix(1.3401,0,0,1.3401,-10.202,-11.638)"
     style="fill-rule:evenodd;stroke:#000000;stroke-width:0.29849">
    <path
       d="m 18.203,30.059 c -4.631,-0.538 -4.778,4 -3.446,5.545 2.51,1 2.67,1.446 5.211,-0.95 -0.212,-2.38 -0.965,-3.582 -1.765,-4.595 z"
       fill="#8a5626"
       id="path30" />
    <path
       d="m 18.255,30.088 c -0.995,0.025 -3.157,1.928 -1.772,3.355 1.517,1.565 2.384,1.187 3.477,1.087 -0.056,-0.66 -0.15,-3.039 -1.705,-4.443 z"
       fill="#eac9b7"
       id="path32" />
  </g>
  <g
     id="g40"
     transform="matrix(1.3401,0,0,1.3401,-10.202,-11.638)"
     style="fill-rule:evenodd;stroke:#000000;stroke-width:0.29849">
    <path
       d="m 25.376,41.75 c 4.15,-2.125 1.688,-6.095 -0.277,-6.64 -2.643,0.563 -3.03,0.305 -3.813,3.71 1.498,1.862 2.862,2.531 4.09,2.93 z"
       fill="#8a5626"
       id="path36" />
    <path
       d="m 25.201,41.653 c 0.892,-0.366 0.974,-1.218 -1.204,-2.523 -0.886,-0.532 -1.496,-0.473 -2.566,-0.124 0.413,0.518 1.697,2.342 3.77,2.647 z"
       fill="#eac9b7"
       id="path38" />
  </g>
  <path
     d="m 16.491452,40.62188 c 5.561415,-2.846373 2.669479,-7.038206 0.03618,-7.76722 -3.541885,0.753136 -4.060503,0.408731 -5.109802,4.970431 2.00747,2.495266 2.768647,3.268504 5.073619,2.796789 z"
     fill="#b77232"
     id="path42"
     style="fill-rule:evenodd;stroke:#000000;stroke-width:0.400006" />
  <path
     d="m 12.426929,43.57412 c 0.487796,6.227445 6.494124,5.250512 8.18131,3.100991 0.66737,-3.559305 1.212791,-3.884949 -2.594433,-6.608033 -3.07553,0.892507 -4.461193,2.193744 -5.586877,3.507042 z"
     fill="#5b3919"
     id="path44"
     style="fill-rule:evenodd;stroke:#000000;stroke-width:0.400006" />
  <path
     d="m 12.452391,43.496394 c 0.289461,1.302577 3.35025,3.654453 4.868583,1.46607 1.665744,-2.400119 0.94611,-3.441377 0.53604,-4.853843 -0.854984,0.243899 -3.958656,0.982294 -5.404623,3.387773 z"
     fill="#eac9b7"
     id="path46"
     style="fill-rule:evenodd;stroke:#000000;stroke-width:0.400006" />
  <path
     d="m 30.277061,31.550743 c 3.071509,5.440806 8.253676,1.927064 8.875482,-0.734375 -0.897867,-3.508382 -0.573563,-4.040401 -5.175466,-4.903426 -2.41218,2.107977 -3.233662,3.972057 -3.700016,5.637801 z"
     fill="#563618"
     id="path48"
     style="fill-rule:evenodd;stroke:#000000;stroke-width:0.400006" />
  <path
     d="m 30.39767,31.310865 c 0.53872,1.173927 1.683165,1.236912 3.312727,-1.750171 0.662009,-1.21547 0.550781,-2.028911 0.0268,-3.442717 -0.67273,0.580264 -3.044707,2.40012 -3.339529,5.192888 z"
     fill="#eac9b7"
     id="path50"
     style="fill-rule:evenodd;stroke:#000000;stroke-width:0.400006" />
  <path
     d="m 35.947024,23.896092 c 3.070169,5.440806 7.141393,2.381357 7.763199,-0.278741 -0.897867,-3.508382 -0.573563,-4.041742 -5.174126,-4.904766 -2.41218,2.107977 -3.153255,2.899976 -2.589073,5.183507 z"
     fill="#8a5626"
     id="path52"
     style="fill-rule:evenodd;stroke:#000000;stroke-width:0.400006" />
  <g
     id="g58"
     transform="matrix(1.3401,0,0,1.3401,-10.202,-11.638)"
     style="fill-rule:evenodd;stroke:#000000;stroke-width:0.29849">
    <path
       d="m 33.64,24.1 c -4.628,0.553 -3.717,5.002 -2.063,6.194 2.674,0.39 2.933,0.787 4.848,-2.134 C 35.666,25.893 34.654,24.9 33.64,24.1 Z"
       fill="#8a5626"
       id="path54" />
    <path
       d="m 33.699,24.117 c -0.963,0.255 -2.623,2.609 -0.945,3.674 1.84,1.17 2.594,0.601 3.635,0.252 -0.208,-0.63 -0.852,-2.921 -2.69,-3.926 z"
       fill="#eac9b7"
       id="path56" />
  </g>
  <g
     id="g64"
     transform="matrix(1.3401,0,0,1.3401,-10.202,-11.638)"
     style="fill-rule:evenodd;stroke:#000000;stroke-width:0.29849">
    <path
       d="m 35.308,31.806 c -1.203,4.504 3.394,5.337 5.114,4.243 1.354,-2.34 1.805,-2.454 -0.198,-5.316 -2.386,-0.136 -3.798,0.428 -4.916,1.073 z"
       fill="#8a5626"
       id="path60" />
    <path
       d="m 35.498,31.741 c -0.326,0.907 0.25,1.54 2.679,0.797 0.988,-0.302 1.353,-0.794 1.811,-1.822 -0.66,-0.041 -2.876,-0.31 -4.49,1.025 z"
       fill="#eac9b7"
       id="path62" />
  </g>
  <path
     d="m 46.74689,26.394038 c -1.613481,6.037151 3.434676,6.7005 5.740988,5.23309 1.813155,-3.134493 2.41754,-3.288605 -0.26668,-7.123971 -3.197478,-0.180914 -4.280279,-0.13401 -5.474308,1.892221 z"
     fill="#8a5626"
     id="path66"
     style="fill-rule:evenodd;stroke:#000000;stroke-width:0.400006" />
  <path
     d="m 47.383437,21.686267 c -4.948989,-3.811245 -8.248315,1.302577 -7.783301,3.994838 2.195084,2.881215 2.070455,3.504361 6.642876,2.501967 1.399064,-2.881215 1.361542,-4.780137 1.140425,-6.496805 z"
     fill="#8a5626"
     id="path68"
     style="fill-rule:evenodd;stroke:#000000;stroke-width:0.400006" />
  <path
     d="m 47.42364,21.757292 c -1.160526,-0.657989 -4.95703,0.03752 -4.349965,2.631956 0.66603,2.845033 1.921704,3.007185 3.244383,3.649093 0.391309,-0.79736 1.924383,-3.595489 1.105582,-6.281049 z"
     fill="#eac9b7"
     id="path70"
     style="fill-rule:evenodd;stroke:#000000;stroke-width:0.400006" />
  <path
     d="M 4.3461256,28.660147 C 9.9236218,30.734622 52.506639,12.806764 51.130357,11.226786 l 8.44799,22.564604 C 43.984944,39.701231 30.120269,42.988496 13.10904,51.432466 Z"
     fill="#d7eef4"
     fill-opacity="0.125"
     stroke-linejoin="bevel"
     id="path72"
     style="fill-rule:evenodd;stroke:#000000;stroke-width:0.400006" />
  <path
     id="path72-6"
     style="font-variation-settings:normal;opacity:1;vector-effect:none;fill:#164e36;fill-opacity:0.787383;fill-rule:evenodd;stroke:#000000;stroke-width:0.400006;stroke-linecap:butt;stroke-linejoin:bevel;stroke-miterlimit:4;stroke-dasharray:none;stroke-dashoffset:0;stroke-opacity:1;-inkscape-stroke:none;stop-color:#000000;stop-opacity:1"
     d="M 31.883503,20.71368 C 20.296963,25.375761 7.2523946,29.774221 4.3327246,28.688289 l 8.7636724,22.771484 c 7.291456,-3.619302 13.992526,-6.270303 20.511716,-8.607421 -0.03055,-1.101705 -0.05976,-2.203341 -0.10547,-3.306641 -0.06212,-1.499515 -0.14032,-3.001236 -0.23242,-4.503906 -0.0921,-1.502671 -0.19985,-3.007606 -0.32422,-4.513672 -0.12436,-1.506067 -0.26491,-3.013735 -0.42382,-4.523438 -0.15891,-1.509703 -0.33551,-3.021576 -0.53125,-4.535156 -0.03255,-0.251626 -0.07383,-0.504122 -0.10743,-0.755859 z" />
  <path
     id="path1212"
     style="font-variation-settings:normal;opacity:1;vector-effect:none;fill:#164e36;fill-opacity:0.787383;fill-rule:evenodd;stroke:#000000;stroke-width:0.400006;stroke-linecap:butt;stroke-linejoin:bevel;stroke-miterlimit:4;stroke-dasharray:none;stroke-dashoffset:0;stroke-opacity:1;-inkscape-stroke:none;stop-color:#000000;stop-opacity:1"
     d="m 42.612023,16.129695 c -0.0061,0.244115 -0.01738,0.484606 -0.02148,0.730469 -0.01118,0.669861 -0.01508,1.345023 -0.01172,2.027344 0.0034,0.68232 0.01425,1.372393 0.03125,2.066406 0.017,0.694013 0.04056,1.392717 0.07031,2.097656 0.02975,0.70494 0.06582,1.41576 0.10742,2.13086 0.0416,0.715099 0.08807,1.43371 0.14063,2.158203 0.05256,0.724492 0.1112,1.45438 0.17382,2.1875 0.06263,0.733119 0.12938,1.469957 0.20118,2.210937 0.07179,0.74098 0.14844,1.486301 0.22851,2.234375 0.08007,0.748074 0.1645,1.499505 0.25195,2.253907 0.11512,0.992976 0.24499,1.997598 0.3711,3 5.06578,-1.704067 10.14106,-3.411234 15.41015,-5.408204 l -8.41406,-22.476562 c 9e-5,0.595401 -3.48005,2.473483 -8.53906,4.787109 z" />
  <path
     d="m 53.45543,10.48035 c -1.194029,0.08711 -2.079835,0.615106 -2.475164,1.098883 l 7.996376,22.442654 c 1.768932,-0.755816 1.986028,-0.340385 3.169337,-0.53336 0,0 -1.709968,-3.007184 -2.299612,-4.56706 C 59.406814,27.75558 59.270124,26.428881 58.740785,24.937349 57.947445,22.706083 56.447873,20.38637 55.625052,18.140362 55.139936,16.813663 55.032728,15.324812 54.716464,14.216549 54.050435,11.884775 53.45543,10.48035 53.45543,10.48035 Z M 1.9500268,29.489669 c 0.7089129,1.598739 1.7099676,2.81689 2.27817,4.485315 0.6673698,1.956546 0.8938467,4.366046 1.661724,6.275688 0.8134407,2.018191 2.1468402,3.827326 2.8704942,5.826755 0.7960194,2.196424 1.277115,4.221315 2.050353,6.4365 0.777258,-0.365847 1.541115,-0.723654 2.468464,-1.183308 L 4.3327246,28.688289 c -1.0083582,0.11277 -1.7880954,0.207381 -2.3826978,0.80138 z"
     fill="#dbe2e3"
     stroke-width="0.400006"
     id="path76"
     style="fill-rule:evenodd;stroke:#000000" />
</svg>
