<?xml version="1.0" encoding="UTF-8" standalone="no"?>
<svg
   viewBox="0 0 64 64"
   version="1.1"
   id="svg245"
   sodipodi:docname="goblin_black_stew.svg"
   inkscape:version="1.1 (c68e22c387, 2021-05-23)"
   xmlns:inkscape="http://www.inkscape.org/namespaces/inkscape"
   xmlns:sodipodi="http://sodipodi.sourceforge.net/DTD/sodipodi-0.dtd"
   xmlns:xlink="http://www.w3.org/1999/xlink"
   xmlns="http://www.w3.org/2000/svg"
   xmlns:svg="http://www.w3.org/2000/svg"
   xmlns:rdf="http://www.w3.org/1999/02/22-rdf-syntax-ns#"
   xmlns:cc="http://creativecommons.org/ns#"
   xmlns:dc="http://purl.org/dc/elements/1.1/">
  <metadata
     id="metadata249">
    <rdf:RDF>
      <cc:Work
         rdf:about="">
        <dc:format>image/svg+xml</dc:format>
        <dc:type
           rdf:resource="http://purl.org/dc/dcmitype/StillImage" />
      </cc:Work>
    </rdf:RDF>
  </metadata>
  <sodipodi:namedview
     pagecolor="#ffffff"
     bordercolor="#666666"
     borderopacity="1"
     objecttolerance="10"
     gridtolerance="10"
     guidetolerance="10"
     inkscape:pageopacity="0"
     inkscape:pageshadow="2"
     inkscape:window-width="1791"
     inkscape:window-height="1008"
     id="namedview247"
     showgrid="false"
     inkscape:zoom="1.3153809"
     inkscape:cx="-94.269269"
     inkscape:cy="63.099592"
     inkscape:window-x="32"
     inkscape:window-y="0"
     inkscape:window-maximized="0"
     inkscape:current-layer="svg245"
     inkscape:object-paths="true"
     inkscape:document-rotation="0"
     inkscape:pagecheckerboard="0"
     width="64px" />
  <defs
     id="defs121">
    <linearGradient
       inkscape:collect="always"
       id="linearGradient1458">
      <stop
         style="stop-color:#a0a000;stop-opacity:1"
         offset="0"
         id="stop1452" />
      <stop
         style="stop-color:#802500;stop-opacity:1"
         offset="0.21287896"
         id="stop1454" />
      <stop
         style="stop-color:#bf7800;stop-opacity:1"
         offset="1"
         id="stop1456" />
    </linearGradient>
    <linearGradient
       inkscape:collect="always"
       xlink:href="#linearGradient1458"
       id="linearGradient1415"
       gradientUnits="userSpaceOnUse"
       gradientTransform="translate(-102.44828,20.881178)"
       x1="125.60433"
       y1="187.82561"
       x2="330.67728"
       y2="186.52054" />
    <linearGradient
       inkscape:collect="always"
       xlink:href="#linearGradient1458"
       id="linearGradient1018"
       gradientUnits="userSpaceOnUse"
       gradientTransform="translate(-102.44828,20.881178)"
       x1="125.60433"
       y1="187.82561"
       x2="330.67728"
       y2="186.52054" />
  </defs>
  <g
     id="g1016"
     transform="matrix(0.25,0,0,0.25,1.0187886,-3.5508062)">
    <ellipse
       style="font-variation-settings:normal;opacity:1;vector-effect:none;fill:#280a08;fill-opacity:1;stroke:#000000;stroke-width:1.59188;stroke-linecap:butt;stroke-linejoin:miter;stroke-miterlimit:4;stroke-dasharray:none;stroke-dashoffset:0;stroke-opacity:1;stop-color:#000000;stop-opacity:1"
       id="path1176"
       cx="123.92982"
       cy="127.80623"
       rx="100.98732"
       ry="46.395607" />
    <path
       d="m 22.843124,130.6478 c 7.098706,18.70282 11.120111,35.98351 24.935102,54.07087 46.786929,40.17223 119.112474,33.30656 153.787384,-1.4042 15.69125,-22.31193 18.74201,-38.68332 26.27094,-61.00123 -35.65249,50.88821 -167.685893,56.87417 -204.993426,8.33456 z"
       fill="#333333"
       id="path2"
       style="font-variation-settings:normal;opacity:1;vector-effect:none;fill:url(#linearGradient1018);fill-opacity:1;fill-rule:evenodd;stroke:#000000;stroke-width:4;stroke-linecap:butt;stroke-linejoin:round;stroke-miterlimit:4;stroke-dasharray:none;stroke-dashoffset:0;stroke-opacity:1;stop-color:#000000;stop-opacity:1"
       sodipodi:nodetypes="ccccc" />
    <path
       d="m 203.50162,134.32861 c 1.29067,-1.92406 6.50117,-6.00522 6.75811,-5.68852 2.62915,-0.8246 2.82634,1.85235 3.10718,4.39187 0.47803,4.42176 -2.34831,5.22245 -6.21436,8.16232 -0.29876,-1.47591 -4.70259,-4.46956 -3.64496,-6.86567 z"
       fill="#803300"
       stroke-linejoin="round"
       id="path8"
       style="fill-rule:evenodd;stroke:#000000;stroke-width:1.61776" />
    <path
       d="m 81.511821,141.65992 c 3.101205,0.44217 10.307465,1.11141 10.080405,5.62877 -0.20914,4.20066 -4.89978,5.81401 -8.46108,5.89169 -8.682175,0.18523 -8.413285,-1.91809 -8.819615,-4.68467 -0.39437,-2.72476 2.91597,-7.44528 7.20029,-6.83579 z M 128.95007,98.840618 c 2.01369,-2.39612 6.39362,-8.15635 10.11028,-5.575 3.45375,2.40209 2.34233,7.230172 0.51985,10.295522 -4.42772,7.46917 -6.07692,6.1307 -8.63437,5.00733 -2.52159,-1.10544 -4.78027,-6.41154 -1.99576,-9.727852 z"
       fill="#782121"
       stroke-linejoin="round"
       id="path12"
       style="fill-rule:evenodd;stroke:#000000;stroke-width:1.61776" />
    <g
       stroke-linejoin="round"
       id="g30"
       style="fill:#5a3f00;fill-opacity:1;fill-rule:evenodd;stroke:#000000;stroke-width:0.27074"
       transform="matrix(-5.8566477,0,0,5.8566477,301.82272,-62.112897)">
      <path
         d="m 31.445,28.95 c 0.493,0.054 2.573,0.386 2.559,0.594 0.502,0.987 0.094,1.83 -0.279,2.677 -1.247,-0.391 -2.339,-1.172 -3.358,-2.133 0.198,-0.556 0.541,-0.954 1.078,-1.139 z"
         fill="#445016"
         id="path22"
         style="fill:#5a3f00;fill-opacity:1" />
      <path
         d="m 19.9,29.433 c 0.6,0.034 3.128,0.236 3.11,0.364 0.611,0.603 0.116,1.118 -0.338,1.636 -1.516,-0.239 -2.843,-0.716 -4.082,-1.304 0.241,-0.34 0.658,-0.583 1.31,-0.696 z"
         fill="#445016"
         id="path24"
         style="fill:#5a3f00;fill-opacity:1" />
      <path
         d="m 41.057,28.503 c -0.334,0.402 -1.698,1.188 -1.768,1.11 -0.693,0.116 -0.753,-0.497 -0.837,-1.083 -0.142,-1.018 0.604,-1.122 1.615,-1.686 0.085,0.344 1.26,1.143 0.99,1.659 z"
         fill="#803300"
         id="path26"
         style="fill:#5a3f00;fill-opacity:1" />
      <path
         d="m 28.085,31.92 c -0.757,-0.033 -2.51,-0.065 -2.517,-0.635 -0.006,-0.53 1.104,-0.765 1.966,-0.8 2.098,-0.087 2.063,0.18 2.198,0.525 0.134,0.339 -0.602,0.956 -1.647,0.91 z"
         fill="#782121"
         id="path28"
         style="fill:#5a3f00;fill-opacity:1" />
    </g>
    <g
       stroke-linejoin="round"
       id="g48"
       style="fill:#5d1200;fill-opacity:1;fill-rule:evenodd;stroke:#000000;stroke-width:0.27074"
       transform="matrix(-5.8566477,0,0,5.8566477,300.72081,-72.510508)">
      <path
         d="m 18.476,34.92 c 0.177,-0.463 1.02,-2.393 1.218,-2.326 1.082,-0.239 1.795,0.368 2.521,0.942 -0.692,1.109 -1.722,1.97 -2.908,2.714 -0.489,-0.331 -0.787,-0.763 -0.831,-1.33 z m 12.518,1.424 c 0.6,0.034 3.127,0.237 3.11,0.364 0.61,0.604 0.115,1.118 -0.339,1.636 -1.516,-0.239 -2.843,-0.716 -4.082,-1.304 0.241,-0.34 0.658,-0.582 1.31,-0.696 z m 11.651,-6.622 c 0.215,0.063 1.123,0.446 1.117,0.687 0.219,1.14 0.041,2.112 -0.122,3.09 -0.544,-0.451 -1.02,-1.353 -1.465,-2.463 0.086,-0.642 0.236,-1.1 0.47,-1.314 z"
         fill="#445016"
         id="path36"
         style="fill:#5d1200;fill-opacity:1" />
      <path
         d="m 37.455,33.11 c 0.41,0.165 1.424,1.139 1.385,1.23 0.296,0.595 -0.16,0.866 -0.589,1.15 -1.006,-0.531 -1.828,-1.197 -2.565,-1.926 0.24,-0.199 1.29,-0.52 1.769,-0.453 z M 25.512,32.504 c 0.496,0.168 1.719,1.159 1.67,1.252 0.358,0.605 -0.193,0.882 -0.709,1.17 -0.9,0.498 -1.265,-0.16 -2.154,-0.902 0.29,-0.203 0.615,-1.587 1.193,-1.52 z"
         fill="#803300"
         id="path38"
         style="fill:#5d1200;fill-opacity:1" />
      <path
         d="m 17.95,33.114 c -0.522,-0.044 -1.733,-0.087 -1.738,-0.844 -0.005,-0.704 0.762,-1.018 1.358,-1.065 1.449,-0.114 1.424,0.24 1.518,0.698 0.092,0.452 -0.416,1.272 -1.138,1.211 z m 16.427,2.883 c -0.522,-0.044 -1.733,-0.087 -1.738,-0.844 -0.004,-0.704 0.762,-1.018 1.357,-1.065 1.45,-0.114 1.425,0.24 1.519,0.698 0.092,0.451 -0.416,1.272 -1.138,1.211 z m 9.03,-0.372 c -0.523,-0.044 -1.733,-0.087 -1.738,-0.845 -0.005,-0.703 0.762,-1.017 1.357,-1.064 1.45,-0.115 1.425,0.24 1.518,0.698 0.093,0.451 -0.415,1.271 -1.137,1.21 z"
         fill="#782121"
         id="path40"
         style="fill:#5d1200;fill-opacity:1" />
      <path
         d="m 25.832,37.585 c -0.506,0.132 -2.072,-0.024 -2.083,-0.129 -0.631,-0.31 -0.323,-0.843 -0.05,-1.368 0.479,-0.91 1.145,-0.56 2.296,-0.428 -0.132,0.329 0.358,1.664 -0.163,1.925 z"
         fill="#445016"
         id="path42"
         style="fill:#5d1200;fill-opacity:1" />
      <path
         d="m 40.292,32.96 c -0.522,-0.043 -1.732,-0.086 -1.738,-0.844 -0.004,-0.703 0.763,-1.017 1.358,-1.064 1.449,-0.115 1.424,0.24 1.518,0.698 0.092,0.451 -0.416,1.272 -1.138,1.21 z"
         fill="#803300"
         id="path44"
         style="fill:#5d1200;fill-opacity:1" />
      <path
         d="m 31.24,34.485 c -0.321,0.305 -1.629,0.82 -1.696,0.746 -0.663,0.021 -0.72,-0.507 -0.799,-1.014 0.902,-0.693 1.85,-1.163 2.82,-1.529 0.08,0.302 -0.065,1.389 -0.326,1.797 z"
         fill="#803300"
         id="path46"
         style="fill:#5d1200;fill-opacity:1" />
    </g>
    <path
       style="font-variation-settings:normal;opacity:1;vector-effect:none;fill:url(#linearGradient1415);fill-opacity:1;stroke:#000000;stroke-width:4;stroke-linecap:butt;stroke-linejoin:round;stroke-miterlimit:4;stroke-dasharray:none;stroke-dashoffset:0;stroke-opacity:1;stop-color:#000000;stop-opacity:1"
       d="M 225.14484,125.78069 C 194.0954,69.123479 93.593975,78.653029 49.198512,100.14875 36.374231,107.18163 27.148511,114.01189 23.515006,123.97086 l -0.671882,6.67694 -1.972303,-5.61041 c -1.397662,-3.97579 -1.626646,-10.3962 0.133702,-15.09062 6.619957,-17.653814 38.625198,-32.663691 78.507717,-36.818696 12.41934,-1.293861 34.91193,-1.294811 47.34603,-0.002 31.2467,3.248812 58.29211,13.278295 71.22413,26.412658 12.94306,12.794118 11.09602,24.453938 7.06244,26.241958 z"
       id="path1321"
       sodipodi:nodetypes="ccscsssscc"
       inkscape:original-d="M 225.14484,125.78069 C 194.0954,69.123479 93.593975,78.653029 49.198512,100.14875 36.374231,107.18163 27.148511,114.01189 23.515006,123.97086 l -0.671882,6.67694 -1.972303,-5.61041 c -1.397662,-3.97579 -1.626646,-10.3962 0.133702,-15.09062 6.619957,-17.653814 38.625198,-32.663691 78.507717,-36.818696 12.41934,-1.293861 34.91193,-1.294811 47.34603,-0.002 31.2467,3.248812 58.29211,13.278295 71.22413,26.412658 12.94306,12.794118 11.09602,24.453938 7.06244,26.241958 z" />
  </g>
</svg>
