<svg xmlns="http://www.w3.org/2000/svg" xmlns:xlink="http://www.w3.org/1999/xlink" viewBox="0 0 64 64">
    <defs>
        <linearGradient id="linearGradient1532">
            <stop offset="0" stop-color="#c43507"/>
            <stop offset="1" stop-color="#f4d588"/>
        </linearGradient>
        <linearGradient id="linearGradient1534" x1="23.233" x2="27.532" y1="110.541" y2="158.772" gradientTransform="matrix(.27497 0 0 .27497 12.13 -12.14)" gradientUnits="userSpaceOnUse" xlink:href="#linearGradient1532"/>
        <linearGradient id="linearGradient2318" x1="65.678" x2="69.371" y1="99.158" y2="144.944" gradientTransform="matrix(.27497 0 0 .27497 12.13 -12.14)" gradientUnits="userSpaceOnUse" xlink:href="#linearGradient1532"/>
        <linearGradient id="linearGradient2326" x1="113.114" x2="120.784" y1="106.292" y2="148.135" gradientTransform="matrix(.27497 0 0 .27497 12.13 -12.14)" gradientUnits="userSpaceOnUse" xlink:href="#linearGradient1532"/>
        <linearGradient id="linearGradient4437" x1="23.233" x2="27.532" y1="110.541" y2="158.772" gradientTransform="matrix(.76634 0 0 .76634 -29.65 152.616)" gradientUnits="userSpaceOnUse" xlink:href="#linearGradient1532"/>
    </defs>
    <path fill="url(#linearGradient2318)" stroke="#000" stroke-width=".4" d="M19.017 25.182s3.353-7.172 6.63-8.873c3.06-1.587 7.025-1.251 10.335-.292 2.07.6 3.875 2.049 5.362 3.607.735.77 1.658 2.73 1.658 2.73l-11.797 5.362z"/>
    <path fill="#f6dfa3" stroke-width=".192" d="M31.205 27.716l-1.17 11.213 13.454 2.535 1.853-12.87z"/>
    <path fill="url(#linearGradient2326)" stroke-width=".192" d="M31.205 27.716s2.59-4.56 4.387-6.434c1.43-1.492 3.039-2.975 4.972-3.705 1.861-.703 3.995-.865 5.948-.488 1.926.373 3.727 1.414 5.265 2.633 1.392 1.103 3.412 4.095 3.412 4.095l-9.847 4.777z"/>
    <path fill="#f4d588" stroke-width=".192" d="M55.19 23.817c-.409 4.598-1.331 8.975-2.926 13.064l-8.775 4.583 1.853-12.87z"/>
    <path fill="url(#linearGradient1534)" stroke-width=".192" d="M8.39 29.179s1.288-6.716 3.705-8.775c2.19-1.865 5.533-2.425 8.385-2.047 2.941.39 5.68 2.213 7.8 4.29 1.393 1.365 2.925 5.07 2.925 5.07l-11.018 5.752z"/>
    <path fill="#f8e3b1" stroke-width=".192" d="M8.39 29.179s-.948 7.663 1.268 10.335c2.394 2.887 10.724 3.412 10.724 3.412l-.195-9.457z"/>
    <path fill="#f4d588" stroke-width=".192" d="M20.187 33.469l.195 9.457c4.759-.562 6.762-2.502 9.653-3.997l1.17-11.213z"/>
    <path fill="none" stroke="#000" stroke-width=".4" d="M18.835 18.246c-2.42-.011-4.96.642-6.74 2.158-2.417 2.058-3.705 8.775-3.705 8.775s-.948 7.663 1.268 10.335c2.395 2.887 10.724 3.412 10.724 3.412 4.759-.562 6.762-2.501 9.653-3.997l1.17-11.213s-1.532-3.704-2.925-5.07c-2.12-2.076-4.858-3.9-7.8-4.29a12.998 12.998 0 00-1.645-.11z"/>
    <path fill="none" stroke="#000" stroke-width=".4" d="M44.262 16.892a10.952 10.952 0 00-3.697.685c-1.934.73-3.543 2.213-4.973 3.705-1.797 1.874-4.387 6.434-4.387 6.434l-1.17 11.213 13.454 2.535 8.775-4.583c1.595-4.089 2.517-8.466 2.925-13.064 0 0-2.02-2.992-3.413-4.095-1.538-1.218-3.338-2.26-5.264-2.633a11.094 11.094 0 00-2.25-.197z"/>
    <g stroke="#000">
        <path fill="#f8e3b1" stroke-width=".19160454000000002" d="M42.594 38.537c.018.352.028.704.028 1.056-.003 2.848-.6 5.62-1.705 7.906 1.302.618 2.039 1.2 4.068 1.294l-.195-9.457z"/>
        <path fill="#f4d588" stroke-width=".19160454000000002" d="M44.79 39.336l.195 9.457c3.838-.79 7.17-2.022 9.652-3.997l1.17-11.212z"/>
        <path style="font-variation-settings:normal;-inkscape-stroke:none" fill="#fbefd2" stroke-width=".19160454000000002" d="M40.889 47.577c1.088-2.223 1.733-4.988 1.733-7.984 0-.319-.069-.638-.022-.947.818-5.371 2.88-13.23-.64-14.65-3.54 1.964-8.81 10.066-7.862 13.752 0 0 .339 5.033 1.78 6.934 1.167 1.536 5.01 2.895 5.01 2.895z"/>
        <path fill="url(#linearGradient4437)" stroke-width=".534" d="M-10.994 236.922c-1.059-.005-3.022-.037-4.087.052 8.254 4.805 4.304 25.122 1.995 39.518.038.375.072.75.102 1.127l5.79 2.105 30.706-16.032s-4.267-10.324-8.151-14.13c-5.907-5.787-13.541-10.868-21.74-11.954-1.49-.197-3.059-.68-4.615-.686z" transform="translate(47.37 -61.033) scale(.35881)"/>
        <path fill="#ce5c12" stroke-width=".25009057" d="M35.879 37.557c-.07 2.047-.044 4.918 1.908 5.535 1.167.368 3.144-.816 3.054-2.036-.1-1.33.105-4.76.684-8.667.407-2.75-5.495.758-5.646 5.168z"/>
        <path fill="none" stroke-width=".40007315000000004" d="M52.882 28.514c-2.119-2.077-4.858-3.9-7.8-4.29-.535-.07-1.098-.244-1.656-.246-.19-.001-.461-.004-.732-.004h0c-.272.001-.543.006-.734.022-3.54 1.964-8.81 10.066-7.862 13.752 0 0 .338 5.033 1.78 6.934 1.166 1.536 5.01 2.895 5.01 2.895l.036-.075c1.297.616 2.035 1.197 4.061 1.291 3.838-.79 7.17-2.022 9.652-3.997l1.17-11.213s-1.53-3.704-2.925-5.07z"/>
    </g>
</svg>
