<svg xmlns="http://www.w3.org/2000/svg" xmlns:xlink="http://www.w3.org/1999/xlink" viewBox="0 0 64 64">
    <defs>
        <linearGradient id="linearGradient2343">
            <stop offset="0" stop-color="#c69473"/>
            <stop offset="1" stop-color="#e9c6af"/>
        </linearGradient>
        <linearGradient id="linearGradient2345" x1="35.513" x2="27.368" y1="12.471" y2="11.729" gradientTransform="translate(0 -4.59)" gradientUnits="userSpaceOnUse" xlink:href="#linearGradient2343"/>
    </defs>
    <path fill="#666" d="M27.197 11.219l-2.209 5.1-6.799 7.65.17 27.707 7.989 4.08H37.907l7.99-4.08.17-27.707-6.8-7.65-2.21-5.1h-5.61z"/>
    <ellipse cx="15.724" cy="52.696" fill="#105514" stroke-width=".5" rx="10.624" ry="3.06"/>
    <ellipse cx="37.737" cy="55.076" fill="#105514" stroke-width=".5" rx="19.209" ry="5.95"/>
    <ellipse cx="53.461" cy="46.661" fill="#105514" stroke-width=".5" rx="4.505" ry="1.615"/>
    <path fill="#999" d="M29.25 24.703l-4.262-8.384-6.799 7.65.17 27.707 7.989 4.08-3.059-8.84 3.229-4.93-1.87-8.84 3.399-6.288s.563-.995 1.203-2.155z"/>
    <path fill="url(#linearGradient2345)" stroke="#000" d="M27.368 7.14l.819 5.79 6.881.03 2.314-8.595-11.179-.51z"/>
    <path fill="#b3b3b3" d="M27.197 11.219l-2.209 5.1 4.262 8.384c.125-.226.091-.16.234-.422a204.088 204.088 0 003.301-6.304 164.518 164.518 0 001.877-3.885l.068-.15-.927-2.723h-2.356z"/>
    <path fill="#808080" d="M34.73 13.942l-.068.15a164.518 164.518 0 01-1.877 3.885 204.088 204.088 0 01-3.3 6.305 141.734 141.734 0 01-1.438 2.576l-3.399 6.289 1.87 8.84-3.229 4.93 3.059 8.84h4.82l3-12.92-.51-12.579s.626-1.115 1.574-2.871a279.09 279.09 0 001.625-3.055c.27-.514.567-1.102.85-1.652z"/>
    <path fill="#666" d="M37.707 22.68c-.283.55-.58 1.138-.85 1.652a279.09 279.09 0 01-1.625 3.055c-.948 1.756-1.574 2.871-1.574 2.871l.51 12.578-3 12.92h6.739l2.38-25.498z"/>
    <path fill="#4d4d4d" d="M33.803 11.219l6.484 19.039-2.38 25.498 7.99-4.08.17-27.707-6.8-7.65-2.21-5.1z"/>
    <path fill="#105514" stroke-width="1.059" d="M30.833 11.458c-.468 1.143.47 4.149-.492 6.782-1.252 3.426-3.3 2.294-2.933 5.004.245 1.804-1.189 4.945-2.804 4.762-.83-.094-1.07-1.015-1.318-1.908-.784-4.875 4.972-5.681 5.652-9.538.536-3.04.8-4.257-1.02-5.16z"/>
    <path fill="none" stroke="#000" d="M27.197 11.219l-2.209 5.1-6.799 7.65.17 27.707 7.989 4.08H37.907l7.99-4.08.17-27.707-6.8-7.65-2.21-5.1h-5.61z"/>
</svg>
