<?xml version="1.0" encoding="UTF-8"?>
<svg version="1.1" viewBox="0 0 300 300" xmlns="http://www.w3.org/2000/svg" xmlns:cc="http://creativecommons.org/ns#" xmlns:dc="http://purl.org/dc/elements/1.1/" xmlns:rdf="http://www.w3.org/1999/02/22-rdf-syntax-ns#">
 <metadata>
  <rdf:RDF>
   <cc:Work rdf:about="">
    <dc:format>image/svg+xml</dc:format>
    <dc:type rdf:resource="http://purl.org/dc/dcmitype/StillImage"/>
    <dc:title/>
   </cc:Work>
  </rdf:RDF>
 </metadata>
 <defs>
  <linearGradient id="linearGradient4582" x1="92.796" x2="216.1" y1="161.44" y2="98.517" gradientTransform="translate(2.6966 .89886)" gradientUnits="userSpaceOnUse">
   <stop stop-color="#ff8080" offset="0"/>
   <stop stop-color="#ff8080" offset=".24064"/>
   <stop stop-color="#f55" offset=".53466"/>
   <stop stop-color="#ff8080" offset=".79076"/>
   <stop stop-color="#faa" offset="1"/>
  </linearGradient>
 </defs>
 <path d="m41.441 42.67c30.243-15.841 68.956-28.626 102.83-28.128 4.9584-0.53598 7.6642 1.0001 11.042 3.851 71.398 60.297 99.123 141.13 117.71 219.76 1.2248 7.0494 3.1674 9.2788-1.6054 11.813-31.637 19.611-67.437 30.894-106.02 36.617-7.3667 1.1606-7.969-2.5555-10.479-10.741-24.643-80.219-71.017-156.47-114.48-222.57-5.0423-7.6674-4.7366-7.5928 1.0037-10.6z" fill="url(#linearGradient4582)" stroke="#000" stroke-width="1px"/>
 <path d="m151.11 93.96c0.68015-0.34518 0.41372-0.46513 1.1066-0.75747 18.927-7.9852 42.312 3.5948 53.148 26.785 10.784 23.08 5.2178 49.268-12.363 60.073 2.7786 4.0101 3.4248 16.586 7.3111 16.299 24.922-14.223 33.043-50.787 18.015-82.951-15.408-32.975-49.314-48.838-75.731-35.431l-2e-5 -6e-5c-0.6783 0.34425-1.4942 0.79647-2.1493 1.1722" fill="#ffb380" stroke="#000" stroke-width="1.2986"/>
 <g stroke-linecap="round" stroke-linejoin="round">
  <ellipse transform="matrix(.89173 -.45257 .42331 .90598 0 0)" cx="96.511" cy="143.33" rx="2.3115" ry="2.6784" fill="#ff7f2a" stroke="#000" stroke-width=".77382"/>
  <ellipse transform="matrix(.89173 -.45257 .42331 .90598 0 0)" cx="137.99" cy="224.96" rx="2.3115" ry="2.6784" fill="#ff7f2a" stroke="#000" stroke-width=".77382"/>
 </g>
 <path d="m210.18 153.84c-10.043-7.6997-16.541-14.465-39.459-25.56-10.881-10.727-25.446-16.85-38.459-24.912-3.3666 3.5851-8.6001 3.4429-4.9646 11.628 18.339 10.948 37.755 20.567 53.752 34.409 9.6838 4.343 18.145 10.522 25.099 16.067" fill="#ff8080" stroke="#000" stroke-width="2.5487"/>
 <path d="m193.72 179.73c-2.5588 0.21977-3.6053 0.46797-4.2359 0.48467-21.597 3.5217-47.423-12.971-57.684-36.838-10.066-23.413-1.4135-45.224 19.377-49.406-3.1789 1.2229-14.598-9.6278-7.8789-15.853-28.099 5.9104-39.769 35.683-26.035 67.63 14.076 32.739 49.502 55.363 79.127 50.532 0.93318-0.37789 3.6947 0.0737 4.0143 0.0848" fill="#ffb380" stroke="#000" stroke-width="1.2744"/>
 <path d="m211.67 154.78c-16.324-13.546-28.874-20.454-40.913-26.466-6.5522-8.0248-24.36-16.271-37.765-24.429-8.1709 1.7517-4.614 7.5692-5.1893 11.496 17.674 11.239 35.214 18.162 53.028 33.85 9.9423 3.8907 18.39 10.363 26.713 17.052" fill="#ffb380" stroke-width=".84957"/>
 <g stroke-linecap="round" stroke-linejoin="round">
  <ellipse transform="matrix(.98696 -.16095 .39499 .91869 0 0)" cx="66.224" cy="196.8" rx="2.342" ry="2.6224" fill="#ff7f2a" stroke="#000" stroke-width=".77071"/>
 </g>
 <path d="m144.36 84.397c-5e-3 -1.795 2.3263-7.5056 0.82389-6.8591-0.97162 0.41809-1.4708 0.46494-3.3076 1.6401-5.58 0.64595 1.9546 15.957 5.5269 15.004 1.5327-0.40914 2.4337-0.59798 3.427-0.82938 2.7301-2.6586-2.1539-2.7832-3.0191-4.2505-1.4554 0.61506-4.6716-1.2496-3.4511-4.7048z" fill="#ffb380"/>
 <path d="m112.65 39.67c8.2042 9.4624 19.639 24.081 32.046 43.874 12.107 19.315 20.834 36.645 26.031 47.105 0.97194 1.9562 2.1031 4.2448 3.363 6.8362 7.2172 14.845 14.997 32.144 23.216 53.199 7.6443 19.583 13.499 36.932 16.403 46.02-2.9375-9.1942-8.3607-26.445-15.658-46.302-7.7316-21.039-15.329-38.926-22.341-53.695-1.2382-2.6083-2.3625-4.9162-3.3363-6.8761-5.1321-10.329-14.466-27.843-26.904-46.783-12.991-19.782-24.453-33.727-32.82-43.378z" fill-opacity=".25098"/>
</svg>
