<?xml version="1.0" encoding="UTF-8" standalone="no"?>
<svg
   viewBox="0 0 64 64"
   version="1.1"
   id="svg8"
   inkscape:version="1.2 (dc2aedaf03, 2022-05-15)"
   sodipodi:docname="nunchaku_edit.svg"
   xml:space="preserve"
   xmlns:inkscape="http://www.inkscape.org/namespaces/inkscape"
   xmlns:sodipodi="http://sodipodi.sourceforge.net/DTD/sodipodi-0.dtd"
   xmlns="http://www.w3.org/2000/svg"
   xmlns:svg="http://www.w3.org/2000/svg"
   xmlns:rdf="http://www.w3.org/1999/02/22-rdf-syntax-ns#"
   xmlns:cc="http://creativecommons.org/ns#"
   xmlns:dc="http://purl.org/dc/elements/1.1/"><defs
     id="defs2"><inkscape:path-effect
       effect="knot"
       id="path-effect1152"
       is_visible="true"
       lpeversion="1"
       switcher_size="6.7"
       interruption_width="0.1"
       prop_to_stroke_width="false"
       add_stroke_width="inkscape_1.0_and_up"
       both="false"
       inverse_width="false"
       add_other_stroke_width="inkscape_1.0_and_up"
       crossing_points_vector="" /></defs><sodipodi:namedview
     id="base"
     pagecolor="#ffffff"
     bordercolor="#666666"
     borderopacity="1.0"
     inkscape:pageopacity="0.0"
     inkscape:pageshadow="2"
     inkscape:zoom="8"
     inkscape:cx="9.5"
     inkscape:cy="31.4375"
     inkscape:document-units="mm"
     inkscape:current-layer="layer2"
     inkscape:document-rotation="0"
     showgrid="false"
     inkscape:window-width="1920"
     inkscape:window-height="1051"
     inkscape:window-x="-9"
     inkscape:window-y="-9"
     inkscape:window-maximized="1"
     inkscape:showpageshadow="2"
     inkscape:pagecheckerboard="0"
     inkscape:deskcolor="#d1d1d1" /><metadata
     id="metadata5"><rdf:RDF><cc:Work
         rdf:about=""><dc:format>image/svg+xml</dc:format><dc:type
           rdf:resource="http://purl.org/dc/dcmitype/StillImage" /></cc:Work></rdf:RDF></metadata><g
     inkscape:groupmode="layer"
     id="layer2"
     inkscape:label="Layer 2"
     style="display:inline"><g
       id="g7648"
       transform="rotate(-4.1532189,93.235215,77.905667)"><path
         style="fill:none;fill-opacity:1;stroke:#ffd42a;stroke-width:0.0364855;stroke-linecap:butt;stroke-linejoin:miter;stroke-miterlimit:4;stroke-dasharray:none;stroke-opacity:1"
         d="m 43.44406,8.322344 0.110566,0.552837 1.368272,-0.271812 -0.09675,-0.515981"
         id="path1759" /><ellipse
         style="display:inline;fill:#ffe680;fill-opacity:1;stroke:none;stroke-width:0.0364855;stroke-linecap:round;stroke-miterlimit:4;stroke-dasharray:none;stroke-dashoffset:0;stroke-opacity:1"
         id="path1604-0"
         cx="-38.740891"
         cy="22.302481"
         rx="0.43766278"
         ry="0.23956278"
         transform="matrix(-0.94892094,0.31551394,0.31551394,0.94892094,0,0)" /><path
         id="rect4639-0"
         style="display:inline;fill:#ffe680;fill-rule:evenodd;stroke:#000000;stroke-width:0.25;stroke-linecap:round;stroke-linejoin:round;stroke-dasharray:none;stop-color:#000000"
         d="m 37.431711,-0.63432779 c -0.448133,2.519e-4 -0.84905,0.1797791 -1.075357,0.5290141 -0.402324,0.6208628 -0.09418,1.53225429 0.69199,2.04358969 l 2.22304,1.4469373 c 0.786178,0.5113364 1.743574,0.422784 2.145907,-0.1980779 0.40232,-0.6208629 0.09172,-1.5322537 -0.694401,-2.043589 l -2.223057,-1.44693829 c -0.343947,-0.2237088 -0.719577,-0.3311307 -1.068122,-0.3309359 z m 0.03375,0.7343393 c 0.18493,0.00421 0.404118,0.06539 0.634121,0.2149885 L 40.32505,1.7619377 c 0.52572,0.3419387 0.605665,0.8225486 0.474982,1.0242107 -0.13067,0.2016585 -0.602678,0.3226121 -1.128397,-0.019325 L 37.448587,1.3198851 C 36.922866,0.97794761 36.842922,0.49733501 36.973599,0.29567501 c 0.0735,-0.1134352 0.2541,-0.2010697 0.491868,-0.1956635 z" /><path
         id="rect4639-0-1"
         style="display:inline;fill:#ffe680;fill-rule:evenodd;stroke:#000000;stroke-width:0.25;stroke-linecap:round;stroke-linejoin:round;stroke-dasharray:none;stop-color:#000000"
         d="m 32.652886,-2.3010843 c -0.30557,-0.00977 -0.634519,0.059679 -0.94998,0.2149871 l -2.379768,1.17156201 c -0.841225,0.4141582 -1.256555,1.2826198 -0.93069,1.94696529 0.325865,0.6643454 1.266088,0.8658736 2.107314,0.4517152 l 2.379767,-1.17156139 c 0.841225,-0.4141583 1.256554,-1.28262 0.93069,-1.94696541 -0.203665,-0.4152165 -0.648052,-0.6504183 -1.157333,-0.6667028 z m -0.05064,0.71743 c 0.285562,0.00409 0.495349,0.1277597 0.564201,0.2681298 0.110166,0.2245912 -0.03389,0.70306661 -0.602778,0.98314541 l -2.379767,1.1691458 c -0.568888,0.28007879 -1.035118,0.1038118 -1.145281,-0.1207791 -0.110166,-0.2245924 0.035,-0.7060248 0.602779,-0.9855603 l 2.377361,-1.17156141 c 0.21292,-0.104826 0.412153,-0.1449743 0.583489,-0.1425202 z" /><path
         id="rect4639-2"
         style="display:inline;fill:#ffe680;fill-rule:evenodd;stroke:#000000;stroke-width:0.25;stroke-linecap:round;stroke-linejoin:round;stroke-dasharray:none;stop-color:#000000"
         d="m 33.646264,-2.5619677 c -0.290167,0.01279 -0.567994,0.1012566 -0.810134,0.2512213 0.367456,0.06547 0.63539,0.2190652 0.884878,0.4637925 0.09656,0.00135 0.195329,0.017054 0.294155,0.048314 l 2.529257,0.79956051 c 0.227541,0.071976 0.40709,0.2128386 0.525622,0.3913254 0.247033,-0.069009 0.503309,-0.089277 0.761912,-0.062805 C 37.654555,-1.1370953 37.273484,-1.5199544 36.75901,-1.6826914 l -2.526848,-0.7995604 c -0.195519,-0.061846 -0.392818,-0.088226 -0.585898,-0.079718 z m -1.531058,1.1039244 c -0.329974,1.02527941 0.205653,1.92511931 1.099468,2.20784861 L 35.741521,1.549366 c 0.893815,0.2827293 1.839573,-0.2108652 2.121778,-1.10634009 0.02672,-0.084763 0.04717,-0.127476 0.06027,-0.2125772 -0.321098,-0.166026 -0.61952,-0.089106 -0.742628,-0.070053 -0.166419,0.5280633 -0.694184,0.87003229 -1.222436,0.7029369 l -2.529258,-0.7995594 c -0.528256,-0.1670965 -0.803321,-0.6954685 -0.636534,-1.22470491 0.03425,-0.1086809 0.08306,-0.2066926 0.144671,-0.2922847 -0.295958,-0.2446779 -0.690793,-0.091382 -0.82219,-0.00484 z"
         sodipodi:nodetypes="sccccccccscccsccccscc" /><path
         id="rect4639-4"
         style="display:inline;fill:#ffe680;fill-rule:evenodd;stroke:#000000;stroke-width:0.25;stroke-linecap:round;stroke-linejoin:round;stroke-dasharray:none;stop-color:#000000"
         d="M 43.657211,5.1099454 C 43.142564,5.1151354 42.637966,5.3556222 42.309395,5.8056353 41.75601,6.563551 41.91937,7.618495 42.67589,8.172913 l 2.141062,1.567719 c 0.756508,0.554417 1.809503,0.390746 2.362888,-0.367171 0.553397,-0.757917 0.390024,-1.812859 -0.366483,-2.367277 L 44.674702,5.4384656 C 44.367363,5.2132328 44.009336,5.1064243 43.657211,5.1099454 Z m -0.03617,0.7971443 c 0.197642,-0.010884 0.402147,0.047629 0.581074,0.1787546 l 2.138668,1.5677167 c 0.408974,0.299724 0.492055,0.839122 0.192889,1.248861 -0.299179,0.409737 -0.834059,0.491367 -1.244144,0.190831 L 43.150872,7.525536 C 42.740787,7.225 42.65641,6.68883 42.955576,6.279091 43.123862,6.0486135 43.366933,5.9210258 43.621041,5.9070897 Z" /><path
         id="rect4639-3"
         style="display:inline;fill:#ffe680;fill-rule:evenodd;stroke:#000000;stroke-width:0.249999;stroke-linecap:round;stroke-linejoin:bevel;stroke-dasharray:none;stop-color:#000000"
         d="m 40.915779,1.8972103 c -0.280303,0.00691 -0.545842,0.1265869 -0.754681,0.3647546 -0.137337,0.1566214 -0.234725,0.3491949 -0.294154,0.5604163 0.240886,0.1569637 0.456194,0.1866353 0.754669,0.09663 0.06037,-0.099734 0.19279,-0.1473645 0.296573,-0.1449351 0.193667,-0.00991 0.434504,0.096609 0.650996,0.3889102 l 1.58169,2.1353807 c 0.346386,0.4676854 0.303537,0.978712 0.130202,1.176393 -0.09752,0.111199 -0.270588,0.161555 -0.465341,0.101454 -0.06197,0.327 0.03395,0.719938 0.342373,0.888937 0.221776,-0.04002 0.428628,-0.154734 0.597963,-0.347845 0.514053,-0.586257 0.478957,-1.6663016 -0.07963,-2.420422 L 42.097223,2.5639138 C 41.76559,2.1161543 41.325445,1.8871018 40.915779,1.8972103 Z m -1.087413,1.7851213 c 0.05543,0.349569 0.191062,0.6989389 0.412295,0.9976379 l 1.579283,2.1329665 c 0.0758,0.102319 0.10271,0.164625 0.188062,0.243978 -0.04679,-0.363539 0.01494,-0.731548 0.163953,-1.0725217 L 40.768665,4.0785224 c -0.09197,-0.1242286 -0.136152,-0.2267046 -0.178421,-0.3502592 -0.243997,0.038031 -0.526423,0.02716 -0.761915,-0.045897 z"
         sodipodi:nodetypes="sscccccsccsccscccccccc" /><path
         id="rect4639-7-2"
         style="display:inline;fill:#ffe680;fill-rule:evenodd;stroke:#000000;stroke-width:0.25;stroke-linecap:round;stroke-linejoin:round;stroke-dasharray:none;stop-color:#000000"
         d="m 29.207405,-0.28889779 c -0.0262,3.19e-5 -0.05332,0.00111 -0.07956,0.00241 -0.419819,0.020852 -0.842353,0.2048624 -1.166978,0.5435078 L 26.12601,2.1725824 c -0.649251,0.6772892 -0.659197,1.715251 -0.0217,2.3286281 0.637498,0.6133783 1.672651,0.5613419 2.321903,-0.1159483 L 30.263475,2.4697013 C 30.526043,2.195794 30.740108,1.828571 30.738464,1.379312 c -0.264351,0.1235347 -0.543572,0.3367068 -0.831833,0.3415565 -0.04505,0.082628 -0.104191,0.161808 -0.17601,0.2367295 l -1.834858,1.9155627 c -0.390292,0.4071486 -0.94601,0.4158494 -1.280299,0.094206 -0.334291,-0.3216425 -0.347771,-0.8746163 0.04339,-1.2826782 l 1.834858,-1.91556329 c 0.195584,-0.2040301 0.43165,-0.3080917 0.660645,-0.3212732 0.228997,-0.01318 0.452511,0.063829 0.619656,0.2246506 0.08686,0.083578 0.116795,0.1427593 0.158789,0.2512949 0.246136,-0.068295 0.504527,-0.2200323 0.677864,-0.3285917 -3.01e-4,-6.473e-4 3.01e-4,-0.00177 -4.9e-5,-0.00245 -0.07751,-0.165837 -0.186574,-0.3180553 -0.325485,-0.4517107 -0.298827,-0.2875208 -0.684673,-0.4304632 -1.077766,-0.4299745 z"
         sodipodi:nodetypes="ssccsccccccsccsscccss" /><path
         id="rect4639-7-2-4"
         style="display:inline;fill:#ffe680;fill-rule:evenodd;stroke:#000000;stroke-width:0.25;stroke-linecap:round;stroke-linejoin:round;stroke-dasharray:none;stop-color:#000000"
         d="M 26.469349,2.8665491 C 26.281051,3.0059344 26.11019,3.2871366 26.009654,3.7289855 L 25.426992,6.267699 c -0.201078,0.883701 -0.09282,1.523116 0.32543,1.898679 0.467384,0.419687 0.970446,0.233613 1.171516,-0.431444 l 0.487187,-2.4703909 c 0.02726,-0.1197699 0.04718,-0.2187731 0.06269,-0.343014 -0.221092,0.04821 -0.560709,0.023499 -0.728204,-0.055569 L 26.276956,7.242002 c -0.0085,-0.275972 -0.0175,-0.565551 0.04099,-0.823717 l 0.449365,-2.2866643 c 0.270659,0.0713 0.436023,0.1138211 0.740212,-0.016907 0.04522,-0.4329819 0.0047,-0.8753749 -0.378498,-1.2271146 -0.203903,-0.1871654 -0.462137,-0.1672795 -0.659676,-0.02105 z"
         sodipodi:nodetypes="sccsccccccccss" /><path
         style="fill:#ffe680;fill-rule:evenodd;stroke:#000000;stroke-width:0.25;stroke-linecap:round;stroke-linejoin:bevel;stroke-dasharray:none;stop-color:#000000"
         d="m 26.769768,4.1847743 c 0,0 0.0096,-0.5314304 0.318267,-0.5024427"
         id="path6593"
         sodipodi:nodetypes="cc" /><path
         style="fill:#ffe680;fill-rule:evenodd;stroke:#000000;stroke-width:0.25;stroke-linecap:round;stroke-linejoin:bevel;stroke-dasharray:none;stop-color:#000000"
         d="M 45.257899,10.575258 44.889639,8.949166 C 45.47317,8.422069 46.20795,8.116438 47.262884,8.279599 l 0.531929,1.557769 z"
         id="path7419"
         sodipodi:nodetypes="ccccc" /><ellipse
         style="fill:#ffe680;fill-rule:evenodd;stroke:#000000;stroke-width:0.25;stroke-linecap:round;stroke-linejoin:bevel;stroke-dasharray:none;stop-color:#000000"
         id="path7473"
         cx="46.628654"
         cy="9.1882973"
         rx="0.38872048"
         ry="0.38944224" /><ellipse
         style="display:inline;fill:#ffe680;fill-rule:evenodd;stroke:#000000;stroke-width:0.25;stroke-linecap:round;stroke-linejoin:bevel;stroke-dasharray:none;stop-color:#000000"
         id="path7477-1"
         cx="25.639936"
         cy="-0.032877322"
         rx="0.19291347"
         ry="0.47822636"
         transform="matrix(0.96516294,0.26164958,-0.26074658,0.96540728,0,0)" /><path
         id="path7475"
         style="fill:#ffe680;fill-rule:evenodd;stroke:#000000;stroke-width:0.25;stroke-linecap:round;stroke-linejoin:bevel;stroke-dasharray:none;stop-color:#000000"
         d="M 25.150715,5.9715872 24.416465,7.7369823 27.069961,8.648061 27.59076,6.696265 C 27.197532,6.473024 26.791827,6.291028 26.368327,6.164834 26.26121,6.5917888 26.242194,6.9972447 26.258911,7.3258627 26.043099,7.6141384 25.488816,7.5416217 25.417597,7.2275601 25.335302,6.7547859 25.40546,6.5691203 25.490685,5.9933247 25.378779,5.9825397 25.2653,5.9737997 25.150718,5.9715847 Z"
         sodipodi:nodetypes="ccccccccsc" /><ellipse
         style="fill:#ffe680;fill-rule:evenodd;stroke:#000000;stroke-width:0.25;stroke-linecap:round;stroke-linejoin:bevel;stroke-dasharray:none;stop-color:#000000"
         id="path7477"
         cx="28.451868"
         cy="0.24090827"
         rx="0.19291347"
         ry="0.47822636"
         transform="matrix(0.96516294,0.26164958,-0.26074658,0.96540728,0,0)" /></g><circle
       style="fill:#ff8080;fill-opacity:1;stroke:#000000;stroke-width:0.275795;stroke-miterlimit:4;stroke-dasharray:none;stroke-opacity:1;paint-order:fill markers stroke"
       id="path850"
       cx="23.286097"
       cy="54.532181"
       r="3.203409"
       transform="rotate(13.687591)" /><path
       id="path850-7"
       style="display:inline;fill:#ff5555;fill-opacity:1;stroke:none;stroke-width:0.0351887;stroke-miterlimit:4;stroke-dasharray:none;stroke-opacity:1;paint-order:fill markers stroke"
       d="M 10.186089,55.314698 A 3.5078932,2.7211397 4.2875953 0 0 7.2065165,56.27713 c 0.1719692,0.209129 0.2684224,0.512403 0.2436322,0.843062 l -0.011071,0.147664 c -0.044256,0.590293 -0.4573276,1.037194 -0.9261894,1.00204 -0.00409,-3.07e-4 -0.00803,-0.0011 -0.011965,-0.0017 a 3.5078932,2.7211397 4.2875953 0 0 2.7039047,2.3937 3.5078932,2.7211397 4.2875953 0 0 3.538087,-0.879689 c -0.04875,-0.187741 -0.06884,-0.42389 -0.04971,-0.679024 l 0.08823,-1.176773 c 0.03408,-0.454608 0.181729,-0.831075 0.361216,-0.97208 a 3.5078932,2.7211397 4.2875953 0 0 -2.393747,-1.560927 3.5078932,2.7211397 4.2875953 0 0 -0.562796,-0.07879 z" /><path
       id="rect852-8"
       style="display:inline;fill:#ff2a2a;fill-opacity:1;stroke:none;stroke-width:0.0337198;stroke-miterlimit:4;stroke-dasharray:none;stroke-opacity:1;paint-order:fill markers stroke"
       d="m 7.0662489,56.326673 -0.5371855,2.205604 5.9905226,1.459064 0.537195,-2.205736 z" /><circle
       style="display:inline;fill:#ffe680;fill-opacity:1;stroke:#000000;stroke-width:0.275795;stroke-miterlimit:4;stroke-dasharray:none;stroke-opacity:1;paint-order:fill markers stroke"
       id="path850-1"
       cx="23.286097"
       cy="10.749678"
       r="3.203409"
       transform="rotate(13.687591)" /><circle
       style="display:inline;mix-blend-mode:normal;fill:#ffdd55;fill-opacity:1;stroke:#ffd42a;stroke-width:0.0364855;stroke-miterlimit:4;stroke-dasharray:none;stroke-opacity:1;paint-order:fill markers stroke"
       id="path850-1-6"
       cx="23.309933"
       cy="10.893661"
       r="3.203409"
       transform="rotate(13.687591)" /><rect
       style="fill:#ffb380;fill-opacity:1;stroke:#000000;stroke-width:0.275795;stroke-miterlimit:4;stroke-dasharray:none;stroke-opacity:1;paint-order:fill markers stroke"
       id="rect848"
       width="6.4129114"
       height="41.131084"
       x="20.082689"
       y="11.803012"
       transform="rotate(13.687591)" /><rect
       style="fill:#ff8080;fill-opacity:1;stroke:#000000;stroke-width:0.275795;stroke-miterlimit:4;stroke-dasharray:none;stroke-opacity:1;paint-order:fill markers stroke"
       id="rect852"
       width="6.6714134"
       height="2.4563637"
       x="19.966982"
       y="52.809616"
       transform="rotate(13.687591)" /><path
       style="display:inline;fill:#ff9955;fill-opacity:1;stroke:none;stroke-width:0.0729707px;stroke-linecap:butt;stroke-linejoin:miter;stroke-opacity:1;paint-order:fill markers stroke"
       d="M 22.319637,18.533863 12.094499,56.535219 21.592618,18.31541 Z"
       id="path1540-3" /><rect
       style="display:inline;fill:#ffe680;fill-opacity:1;stroke:#000000;stroke-width:0.275795;stroke-miterlimit:4;stroke-dasharray:none;stroke-opacity:1;paint-order:fill markers stroke"
       id="rect852-2"
       width="6.6714134"
       height="4.2457042"
       x="19.966982"
       y="8.6971893"
       transform="rotate(13.687591)" /><circle
       style="display:inline;fill:#ff8080;fill-opacity:1;stroke:#000000;stroke-width:0.275795;stroke-miterlimit:4;stroke-dasharray:none;stroke-opacity:1;paint-order:fill markers stroke"
       id="path850-8"
       cx="36.374596"
       cy="71.446136"
       r="3.203409"
       transform="rotate(-15.989754)" /><path
       id="path850-7-5"
       style="display:inline;fill:#ff5555;fill-opacity:1;stroke:none;stroke-width:0.0351887;stroke-miterlimit:4;stroke-dasharray:none;stroke-opacity:1;paint-order:fill markers stroke"
       d="m 53.493482,55.667378 a 2.7211397,3.5078932 64.696326 0 0 -2.11569,2.308244 c 0.252809,0.09693 0.48644,0.313022 0.628165,0.612794 l 0.06329,0.13387 c 0.253011,0.535156 0.114536,1.127745 -0.310566,1.328708 -0.0038,0.0015 -0.0075,0.003 -0.01123,0.0044 a 2.7211397,3.5078932 64.696326 0 0 3.533265,0.746276 2.7211397,3.5078932 64.696326 0 0 2.64222,-2.512084 c -0.135097,-0.139117 -0.269185,-0.334552 -0.378538,-0.56585 l -0.50438,-1.066829 C 56.845166,56.244763 56.78765,55.844491 56.874154,55.633236 a 2.7211397,3.5078932 64.696326 0 0 -2.852342,-0.175292 2.7211397,3.5078932 64.696326 0 0 -0.528294,0.20941 z" /><circle
       style="display:inline;fill:#ffe680;fill-opacity:1;stroke:#000000;stroke-width:0.275795;stroke-miterlimit:4;stroke-dasharray:none;stroke-opacity:1;paint-order:fill markers stroke"
       id="path850-1-3"
       cx="36.374596"
       cy="27.663641"
       r="3.203409"
       transform="rotate(-15.989754)" /><circle
       style="display:inline;mix-blend-mode:normal;fill:#ffdd55;fill-opacity:1;stroke:#ffd42a;stroke-width:0.0364855;stroke-miterlimit:4;stroke-dasharray:none;stroke-opacity:1;paint-order:fill markers stroke"
       id="path850-1-6-1"
       cx="-24.362637"
       cy="38.77914"
       r="3.2034092"
       transform="matrix(-0.80404787,0.59456457,0.59456457,0.80404787,0,0)" /><rect
       style="display:inline;fill:#ffb380;fill-opacity:1;stroke:#000000;stroke-width:0.275795;stroke-miterlimit:4;stroke-dasharray:none;stroke-opacity:1;paint-order:fill markers stroke"
       id="rect848-1"
       width="6.4129114"
       height="41.131084"
       x="33.171185"
       y="28.716978"
       transform="rotate(-15.989754)" /><path
       id="rect852-8-0"
       style="display:inline;fill:#ff2a2a;fill-opacity:1;stroke:none;stroke-width:0.0337198;stroke-miterlimit:4;stroke-dasharray:none;stroke-opacity:1;paint-order:fill markers stroke"
       d="m 51.280284,58.087967 0.622029,2.183197 5.929676,-1.689424 -0.622085,-2.183308 z" /><rect
       style="display:inline;fill:#ff8080;fill-opacity:1;stroke:#000000;stroke-width:0.275795;stroke-miterlimit:4;stroke-dasharray:none;stroke-opacity:1;paint-order:fill markers stroke"
       id="rect852-1"
       width="6.6714134"
       height="2.4563637"
       x="33.055477"
       y="69.723557"
       transform="rotate(-15.989754)" /><ellipse
       style="display:inline;fill:#ffaaaa;fill-opacity:1;stroke:none;stroke-width:0.0364855;stroke-linecap:round;stroke-miterlimit:4;stroke-dasharray:none;stroke-dashoffset:0;stroke-opacity:1;paint-order:fill markers stroke"
       id="path1426-9"
       cx="23.999073"
       cy="78.764702"
       rx="0.67107058"
       ry="0.48864368"
       transform="rotate(-25.303678)" /><path
       style="fill:#ff9955;fill-opacity:1;stroke:none;stroke-width:0.0729707px;stroke-linecap:butt;stroke-linejoin:miter;stroke-opacity:1;paint-order:fill markers stroke"
       d="M 45.614602,17.997878 56.413057,55.84032 44.878868,18.184894 Z"
       id="path1540" /><rect
       style="display:inline;fill:#ffe680;fill-opacity:1;stroke:#000000;stroke-width:0.275795;stroke-miterlimit:4;stroke-dasharray:none;stroke-opacity:1;paint-order:fill markers stroke"
       id="rect852-2-8"
       width="6.6714134"
       height="4.2457042"
       x="33.055477"
       y="25.611153"
       transform="rotate(-15.989754)" /><ellipse
       style="fill:#ffaaaa;fill-opacity:1;stroke:none;stroke-width:0.0364855;stroke-linecap:round;stroke-miterlimit:4;stroke-dasharray:none;stroke-dashoffset:0;stroke-opacity:1;paint-order:fill markers stroke"
       id="path1426"
       cx="13.724199"
       cy="59.972713"
       rx="0.67107058"
       ry="0.48864368"
       transform="rotate(4.2875915)" /><ellipse
       style="fill:#ffd5d5;fill-opacity:1;stroke:none;stroke-width:0.0364855;stroke-linecap:round;stroke-miterlimit:4;stroke-dasharray:none;stroke-dashoffset:0;stroke-opacity:1;paint-order:fill markers stroke"
       id="path1428"
       cx="13.698137"
       cy="60.278927"
       rx="0.22803369"
       ry="0.15636596"
       transform="rotate(4.2875915)" /><ellipse
       style="display:inline;fill:#ffd5d5;fill-opacity:1;stroke:none;stroke-width:0.0364855;stroke-linecap:round;stroke-miterlimit:4;stroke-dasharray:none;stroke-dashoffset:0;stroke-opacity:1;paint-order:fill markers stroke"
       id="path1428-1"
       cx="23.973013"
       cy="79.070908"
       rx="0.22803369"
       ry="0.15636596"
       transform="rotate(-25.303678)" /><rect
       style="display:inline;fill:#ff5555;fill-opacity:1;stroke:none;stroke-width:0.0314249;stroke-miterlimit:4;stroke-dasharray:none;stroke-opacity:1;paint-order:fill markers stroke"
       id="rect852-0"
       width="5.7461085"
       height="2.1156735"
       x="20.749493"
       y="52.93409"
       transform="rotate(13.687591)" /><path
       style="fill:none;fill-opacity:1;stroke:#ff2a2a;stroke-width:0.0364855;stroke-linecap:butt;stroke-linejoin:miter;stroke-miterlimit:4;stroke-dasharray:none;stroke-opacity:1;paint-order:fill markers stroke"
       d="m 12.029033,57.408422 1.188429,0.291955 -0.238341,0.961971"
       id="path1514" /><rect
       style="display:inline;fill:#ff5555;fill-opacity:1;stroke:none;stroke-width:0.0314249;stroke-miterlimit:4;stroke-dasharray:none;stroke-opacity:1;paint-order:fill markers stroke"
       id="rect852-0-3"
       width="5.7461085"
       height="2.1156735"
       x="-38.869362"
       y="69.870789"
       transform="matrix(-0.96112175,0.27612494,0.27612494,0.96112175,0,0)" /><path
       style="display:inline;fill:none;fill-opacity:1;stroke:#ff2a2a;stroke-width:0.0364855;stroke-linecap:butt;stroke-linejoin:miter;stroke-miterlimit:4;stroke-dasharray:none;stroke-opacity:1;paint-order:fill markers stroke"
       d="m 52.304063,57.667924 -1.175509,0.340264 0.277442,0.95143"
       id="path1514-1" /><path
       style="fill:#ffdd55;fill-opacity:1;stroke:#ffd42a;stroke-width:0.0729707px;stroke-linecap:butt;stroke-linejoin:miter;stroke-opacity:1;paint-order:fill markers stroke"
       d="m 21.046363,18.288604 1.633893,0.390452 0.886096,-3.684932"
       id="path1562" /><path
       style="display:inline;fill:#ffdd55;fill-opacity:1;stroke:#ffd42a;stroke-width:0.0729707px;stroke-linecap:butt;stroke-linejoin:miter;stroke-opacity:1;paint-order:fill markers stroke"
       d="M 44.531043,18.098531 46.148121,17.643432 45.126538,13.99374"
       id="path1562-8" /><path
       style="fill:none;fill-opacity:1;stroke:#ff9955;stroke-width:0.109456;stroke-linecap:butt;stroke-linejoin:miter;stroke-miterlimit:4;stroke-dasharray:none;stroke-opacity:1;paint-order:fill markers stroke"
       d="m 7.1829333,55.927078 5.9544177,1.425837"
       id="path1765" /><path
       style="display:inline;fill:none;fill-opacity:1;stroke:#ff9955;stroke-width:0.109456;stroke-linecap:butt;stroke-linejoin:miter;stroke-miterlimit:4;stroke-dasharray:none;stroke-opacity:1;paint-order:fill markers stroke"
       d="m 7.3058377,55.377119 5.9544183,1.425838"
       id="path1765-1" /><path
       id="path1765-5"
       style="display:inline;fill:none;fill-opacity:1;stroke:#ff9955;stroke-width:0.109456;stroke-linecap:butt;stroke-linejoin:miter;stroke-miterlimit:4;stroke-dasharray:none;stroke-opacity:1;paint-order:fill markers stroke"
       d="m 50.99586,57.05289 5.88748,-1.680865 z m 0.162932,0.53938 5.887481,-1.680869 z" /></g></svg>
