<?xml version="1.0" encoding="UTF-8" standalone="no"?>
<svg
   xmlns:dc="http://purl.org/dc/elements/1.1/"
   xmlns:cc="http://creativecommons.org/ns#"
   xmlns:rdf="http://www.w3.org/1999/02/22-rdf-syntax-ns#"
   xmlns:svg="http://www.w3.org/2000/svg"
   xmlns="http://www.w3.org/2000/svg"
   xmlns:sodipodi="http://sodipodi.sourceforge.net/DTD/sodipodi-0.dtd"
   xmlns:inkscape="http://www.inkscape.org/namespaces/inkscape"
   version="1.1"
   viewBox="0 0 64 64"
   id="svg22"
   sodipodi:docname="icon.svg"
   inkscape:version="1.0.2-2 (e86c870879, 2021-01-15)">
  <metadata
     id="metadata28">
    <rdf:RDF>
      <cc:Work
         rdf:about="">
        <dc:format>image/svg+xml</dc:format>
        <dc:type
           rdf:resource="http://purl.org/dc/dcmitype/StillImage" />
        <dc:title />
      </cc:Work>
    </rdf:RDF>
  </metadata>
  <defs
     id="defs26" />
  <sodipodi:namedview
     pagecolor="#ffffff"
     bordercolor="#666666"
     borderopacity="1"
     objecttolerance="10"
     gridtolerance="10"
     guidetolerance="10"
     inkscape:pageopacity="0"
     inkscape:pageshadow="2"
     inkscape:window-width="1920"
     inkscape:window-height="1017"
     id="namedview24"
     showgrid="false"
     inkscape:zoom="10.494193"
     inkscape:cx="76.23156"
     inkscape:cy="32.356832"
     inkscape:window-x="-8"
     inkscape:window-y="-8"
     inkscape:window-maximized="1"
     inkscape:current-layer="svg22"
     inkscape:document-rotation="0" />
  <path
     style="fill:#ff8080;stroke-width:0.1129"
     d=""
     id="path102" />
  <path
     style="fill:#ff8080;stroke-width:0.1129"
     d=""
     id="path152" />
  <path
     style="fill:#ff8080;stroke-width:0.1129"
     d=""
     id="path166" />
  <path
     style="fill:#ff8080;stroke-width:0.0564498"
     d=""
     id="path172" />
  <path
     style="fill:#000000;stroke-width:0.314426"
     d="m 5.6945091,52.285447 v -9.893878 l 4.3747309,-5.119951 4.374732,-5.119951 -4.374732,-0.08725 -4.3747309,-0.08724 v -5.493819 -5.493817 l 6.8387649,-0.02754 c 3.761311,-0.01515 7.50755,-0.121269 8.324967,-0.23582 l 1.486212,-0.208273 -3.320728,-3.53729 -3.320728,-3.537289 H 10.698757 5.6945091 V 7.7836708 2.1240069 l 9.6685869,0.00383 9.668596,0.00383 3.457675,4.0836734 c 1.901721,2.2460211 3.556031,4.0836737 3.676238,4.0836737 0.120207,0 1.747807,-1.8299032 3.6169,-4.0664504 l 3.398345,-4.0664502 9.833058,-0.021084 9.833061,-0.021084 -0.08586,5.5810566 -0.08586,5.581057 -5.051397,0.08612 -5.0514,0.08612 -3.239274,3.466578 c -1.781602,1.906618 -3.140264,3.565764 -3.019251,3.686992 0.121016,0.121227 3.887192,0.268102 8.369281,0.326387 l 8.149254,0.105973 v 5.475083 5.475084 l -3.537289,0.0372 c -5.949655,0.06257 -5.884154,-0.379241 -0.820528,5.534638 l 4.366933,5.100196 -0.08317,9.677814 -0.08316,9.677808 -3.694502,0.08862 -3.694502,0.08862 v -3.625871 -3.625875 h -2.20098 -2.200981 v 3.615893 3.615896 h -3.584877 -3.584878 l -0.226805,-3.629898 -0.226805,-3.629897 -1.926587,0.09262 -1.926587,0.09261 -0.0889,3.537291 -0.0889,3.537292 h -3.133968 -3.133957 v -3.615896 -3.6159 H 26.91825 24.874482 v 3.625883 3.625868 l -3.694499,-0.08862 -3.694499,-0.08862 -0.08891,-3.537283 -0.08891,-3.537297 h -2.190677 -2.190686 v 3.615901 3.615896 H 9.310405 5.6945091 Z M 41.853469,42.199688 c 0,-0.267579 -9.460791,-10.676873 -9.70399,-10.676873 -0.119288,0 -2.110743,2.122373 -4.425456,4.716386 -2.314722,2.594013 -4.493426,5.034743 -4.841576,5.423844 l -0.632992,0.707458 h 9.802011 c 5.3911,0 9.802003,-0.07687 9.802003,-0.170815 z"
     id="path26" />
  <path
     style="fill:#ffd5d5;stroke:#fff6d5;stroke-width:0.134762"
     d="m 5.6167323,52.333687 v -9.891629 l 4.3596453,-5.100591 4.3596454,-5.10059 -1.091678,-0.03949 c -0.600423,-0.02172 -2.547103,-0.08236 -4.3259552,-0.134761 l -3.2342767,-0.09527 -0.035185,-5.471575 -0.035185,-5.471574 6.5711189,-0.09449 c 6.219693,-0.08943 9.690971,-0.250293 9.897961,-0.458668 0.05091,-0.05125 -1.370793,-1.654733 -3.15934,-3.563293 l -3.251905,-3.47011 H 10.644155 5.6167323 V 7.781659 2.1216748 l 9.7365207,0.00364 9.73652,0.00364 2.595032,3.0724453 c 1.427267,1.6898451 3.018876,3.5226496 3.536909,4.0728991 l 0.941878,1.0004538 0.826344,-0.8759501 c 0.454489,-0.4817724 2.03387,-2.3162137 3.509734,-4.0765362 l 2.68339,-3.2005863 h 9.853135 9.853134 l -0.09665,5.5560574 c -0.05316,3.0558322 -0.1163,5.5757082 -0.140316,5.5997242 -0.02402,0.02402 -2.29751,0.08049 -5.052207,0.125505 l -5.00854,0.08184 -1.845948,1.972134 c -3.210419,3.429879 -4.460404,4.915861 -4.283747,5.092518 0.147731,0.147733 3.440512,0.269918 10.152898,0.376749 l 6.23272,0.0992 v 5.493909 5.493911 l -3.672251,0.0549 c -4.081834,0.06102 -4.503574,0.132196 -4.3524,0.734522 0.143401,0.571355 0.660686,1.226164 4.453333,5.63727 l 3.591886,4.177607 -0.08821,9.702142 c -0.04851,5.336178 -0.09862,9.709941 -0.111355,9.719476 -0.01273,0.0095 -1.675662,0.06056 -3.695401,0.113392 l -3.672251,0.09606 v -3.65021 -3.650193 H 49.077326 46.85376 v 3.638562 3.638561 h -3.555879 -3.555879 l -0.07654,-0.572737 c -0.04209,-0.315005 -0.148338,-1.906875 -0.236096,-3.53749 -0.08776,-1.630614 -0.197653,-3.008207 -0.244209,-3.061317 -0.04656,-0.05311 -0.917482,-0.05892 -1.93539,-0.01291 l -1.850741,0.08366 v 1.507549 c 0,0.829151 -0.03979,2.42683 -0.08842,3.550397 l -0.08842,2.042849 h -3.145855 -3.145856 v -3.638561 -3.638562 h -2.021423 -2.021423 v 3.650193 3.650194 l -3.672252,-0.09606 c -2.019738,-0.05283 -3.694462,-0.115652 -3.721608,-0.139599 -0.02715,-0.02395 -0.08156,-1.623311 -0.120917,-3.554138 l -0.07156,-3.510593 h -2.20372 -2.203719 v 3.638562 3.638561 H 9.2552936 5.6167323 Z M 41.565199,42.16901 c 0.123963,-0.0787 0.03493,-0.26755 -0.332598,-0.705434 -1.407827,-1.677349 -8.115903,-9.022205 -8.784401,-9.618281 l -0.292509,-0.26082 -0.816699,0.799866 c -0.694906,0.680585 -8.182993,8.971998 -8.725117,9.661155 -0.17556,0.223173 0.296679,0.235009 9.298546,0.233051 5.215923,-0.0011 9.559674,-0.05043 9.652778,-0.109537 z"
     id="path28" />
</svg>
