<?xml version="1.0" encoding="UTF-8" standalone="no"?>
<svg
   xmlns:dc="http://purl.org/dc/elements/1.1/"
   xmlns:cc="http://creativecommons.org/ns#"
   xmlns:rdf="http://www.w3.org/1999/02/22-rdf-syntax-ns#"
   xmlns:svg="http://www.w3.org/2000/svg"
   xmlns="http://www.w3.org/2000/svg"
   xmlns:sodipodi="http://sodipodi.sourceforge.net/DTD/sodipodi-0.dtd"
   xmlns:inkscape="http://www.inkscape.org/namespaces/inkscape"
   version="1.1"
   width=""
   height=""
   id="svg2"
   viewBox="0 0 725.66931 725.66931"
   sodipodi:docname="hollowmask.svg"
   inkscape:version="1.0.2-2 (e86c870879, 2021-01-15)">
  <metadata
     id="metadata8">
    <rdf:RDF>
      <cc:Work
         rdf:about="">
        <dc:format>image/svg+xml</dc:format>
        <dc:type
           rdf:resource="http://purl.org/dc/dcmitype/StillImage" />
        <dc:title />
      </cc:Work>
    </rdf:RDF>
  </metadata>
  <defs
     id="defs6" />
  <sodipodi:namedview
     pagecolor="#ffffff"
     bordercolor="#666666"
     borderopacity="1"
     objecttolerance="10"
     gridtolerance="10"
     guidetolerance="10"
     inkscape:pageopacity="0"
     inkscape:pageshadow="2"
     inkscape:window-width="1920"
     inkscape:window-height="1017"
     id="namedview4"
     showgrid="false"
     inkscape:zoom="0.90739764"
     inkscape:cx="489.84089"
     inkscape:cy="373.4471"
     inkscape:window-x="-8"
     inkscape:window-y="-8"
     inkscape:window-maximized="1"
     inkscape:current-layer="svg2"
     inkscape:measure-start="878.402,489.209"
     inkscape:measure-end="158.721,719.681"
     showguides="false"
     inkscape:document-rotation="0" />
  <path
     style="fill:#000000;stroke-width:0.915305"
     d="m 328.87728,698.59763 c -1.51027,-0.4421 -5.01131,-2.16159 -7.78009,-3.82136 l -5.03415,-3.01777 -0.0789,-14.63106 -0.0789,-14.63102 -3.24025,-6.40719 c -5.69451,-11.26 -13.66824,-32.38888 -14.96295,-39.64889 -1.6884,-9.46766 -1.68152,-20.63531 0.0132,-23.78149 0.73289,-1.35944 2.38044,-3.44161 3.6612,-4.62716 1.98764,-1.83984 2.32874,-2.94582 2.32874,-7.55127 0,-5.10214 -0.12084,-5.39581 -2.22164,-5.39581 -2.95564,0 -6.91897,4.90277 -11.46867,14.18728 -3.8666,7.89047 -5.53112,15.00197 -5.53112,23.63101 0,7.7626 -1.66291,12.39188 -6.01795,16.75348 -3.46453,3.46968 -9.90968,6.69148 -11.06832,5.53283 -0.26842,-0.26841 0.57665,-8.23837 1.87856,-17.7109 3.09601,-22.53028 3.86631,-29.41478 5.56289,-49.7161 7.20398,-86.2047 5.59933,-117.78325 -9.23268,-181.68833 -2.86804,-12.35712 -3.41057,-16.3628 -3.47325,-25.64174 -0.0617,-8.92595 0.25126,-11.72226 1.65525,-14.84883 1.9441,-4.32978 2.8738,-4.33004 3.79376,-8.9e-4 1.37571,6.47344 4.22515,7.37423 13.47216,4.25918 3.737,-1.25893 5.77852,-1.57053 5.99689,-0.91535 2.16207,6.48622 8.2904,-23.1566 8.68849,-42.02602 0.17093,-8.1036 -0.0198,-9.1229 -2.79026,-14.97651 -1.63554,-3.4549 -2.97371,-7.05433 -2.97371,-7.99906 0,-0.94467 3.1478,-8.5035 6.99511,-16.79728 l 6.99509,-15.07968 12.67489,-11.55325 c 21.17702,-19.30285 30.81799,-31.57368 41.67453,-53.04204 3.30954,-6.54449 15.95676,-29.81614 28.1049,-51.71484 l 22.08763,-39.815826 14.18728,-14.253123 c 24.96815,-25.084023 40.4625,-37.038389 74.57668,-57.53811 8.54674,-5.135838 15.67757,-8.923563 15.84637,-8.417286 0.16895,0.506628 -3.973,8.669161 -9.20391,18.139558 -19.04433,34.479258 -33.87023,62.715828 -38.34004,73.020157 -7.35734,16.96099 -14.40544,49.19891 -12.99917,59.45842 0.64389,4.69793 1.72189,6.08146 2.59502,3.33052 1.26279,-3.97863 9.96089,-15.9855 16.65982,-22.99719 6.76101,-7.07664 24.40287,-20.07213 25.60997,-18.86503 0.43865,0.43865 -1.88322,11.60686 -4.02683,19.37204 -1.02484,3.7125 2.71778,-0.71571 5.02229,-5.9423 4.67829,-10.6101 6.02186,-11.54302 45.80138,-31.80001 14.47868,-7.37299 24.86786,-12.138203 26.08623,-11.965001 3.08448,0.438671 2.99607,4.231881 -0.26567,11.406481 -1.56847,3.44977 -3.45443,9.15553 -4.19115,12.67949 -2.43893,11.66666 -2.13805,11.25506 -18.64254,25.50828 -15.6923,13.55194 -21.14158,19.21602 -22.87612,23.77835 -1.56983,4.12899 -1.24223,17.58386 0.46956,19.29593 0.79111,0.79111 1.94967,1.43838 2.57465,1.43838 1.47106,0 5.00339,-3.85169 8.81412,-9.61072 5.93509,-8.96974 11.05197,-14.14307 18.58665,-18.79177 10.75679,-6.63667 52.58799,-27.59044 53.17719,-26.63712 0.27322,0.4421 0.93862,25.64447 1.47901,56.0059 1.45301,81.62682 0.055,110.8561 -8.33762,174.31487 -8.44301,63.84 -15.49709,91.15282 -36.05035,139.58417 -8.72337,20.55569 -12.03867,25.62862 -16.74902,25.62862 -2.35228,0 -4.45373,2.43955 -12.03516,13.97165 -3.56255,5.419 -8.23088,11.76867 -10.37408,14.1104 -5.46417,5.97023 -16.33087,13.84663 -25.97789,18.82909 -4.50743,2.328 -8.94457,5.06059 -9.86034,6.07256 -0.91575,1.01186 -3.25948,6.08301 -5.20832,11.26917 -2.69999,7.18503 -4.31135,10.10682 -6.77039,12.27611 l -3.22709,2.84682 1.39199,3.94528 c 1.70095,4.82095 4.64512,19.49821 5.41804,27.00975 0.55055,5.34733 0.46407,5.65081 -2.63753,9.27413 -3.40605,3.97924 -7.52999,6.05798 -14.23183,7.17377 -3.09834,0.51555 -5.28917,1.75507 -8.8424,5.00164 -6.78525,6.19966 -13.94955,8.71911 -24.79347,8.71911 -7.01546,0 -8.46517,0.24166 -8.46653,1.41128 -0.002,2.054 -7.22088,8.79468 -11.18476,10.44444 -3.48642,1.45093 -12.98092,1.77592 -17.19138,0.58831 -1.76329,-0.4977 -3.25583,0.0481 -6.50576,2.37172 -2.31957,1.65949 -5.70446,3.63854 -7.52184,4.39786 -5.10095,2.1313 -13.84431,1.73282 -20.29639,-0.92502 -3.02051,-1.24433 -5.59481,-2.26422 -5.7207,-2.26655 -0.12568,-0.002 -0.2286,1.18067 -0.2286,2.62893 0,2.27555 -0.60206,2.89208 -4.43027,4.53906 -8.26274,3.55452 -15.10415,4.49221 -20.74068,2.84281 z m 11.62513,-1.89003 c 2.66771,-0.56564 6.39497,-1.80948 8.28278,-2.76451 3.39244,-1.71619 3.43358,-1.80291 3.53042,-7.43849 0.31441,-18.29042 -0.98721,-30.98734 -4.38454,-42.77201 -2.52472,-8.7577 -8.63373,-24.71328 -9.46209,-24.71328 -0.66519,0 -11.0598,15.73976 -13.24549,20.05703 -4.94843,9.77395 -7.77356,24.66844 -7.78215,41.0282 l -0.005,10.28573 3.78902,2.39192 c 7.59781,4.7963 11.45911,5.58257 19.27743,3.92541 z m 41.68393,-8.15132 c 3.05134,-1.52482 6.10329,-3.44202 6.78216,-4.26056 2.1499,-2.59215 1.5539,-26.33626 -0.92633,-36.90187 -3.8349,-16.33656 -13.27357,-44.85004 -14.84644,-44.85004 -1.12769,0 -9.85448,20.44295 -12.19319,28.56311 -3.31975,11.52633 -5.12368,26.28675 -5.12368,41.92347 v 13.67459 l 2.96883,1.53525 c 7.86678,4.06807 15.62002,4.1731 23.33865,0.31578 z m 29.38225,-6.30738 c 4.54661,-2.31953 9.29697,-7.26096 9.29697,-9.671 0,-3.80637 -2.7608,-34.0124 -3.68219,-40.28661 -0.51761,-3.52396 -1.58323,-8.67256 -2.36829,-11.44133 -2.37049,-8.36002 -8.75199,-24.01404 -9.45495,-23.19322 -0.36178,0.4222 -1.19648,3.6514 -1.85473,7.17536 -2.21597,11.86253 -7.36586,29.10155 -10.57461,35.39774 l -3.18519,6.25011 1.44942,8.39913 c 0.91487,5.30149 1.33677,12.03868 1.14396,18.26786 l -0.30549,9.86877 2.28833,0.35834 c 6.61861,1.03562 13.94904,0.55741 17.24683,-1.12487 z m 33.4783,-13.79884 c 2.97968,-1.14507 7.20153,-3.72636 9.38192,-5.73618 3.62262,-3.33917 3.96434,-4.03479 3.96434,-8.06908 0,-2.42822 -0.45444,-6.59762 -1.01049,-9.26536 -3.98665,-19.13624 -19.75338,-69.70056 -21.01102,-67.38299 -0.36041,0.66383 -0.94392,3.06053 -1.29691,5.32593 -1.28982,8.27632 -8.03861,26.64536 -12.543,34.14007 l -4.47673,7.4485 0.95248,6.4361 c 0.52379,3.53982 1.57443,13.62367 2.33456,22.40856 0.88591,10.23863 1.78774,16.25151 2.51226,16.74983 2.08545,1.43452 15.49571,0.1338 21.19259,-2.05538 z m -88.5918,-25.63275 c 0.81554,-4.78251 2.63924,-12.25155 4.05269,-16.59793 3.24482,-9.97749 11.54873,-26.66883 13.03065,-26.19235 1.53853,0.49495 7.46395,15.48354 11.30734,28.60301 4.67877,15.9708 4.28818,15.31055 6.49711,10.98169 2.92298,-5.72807 7.60195,-21.69203 10.32797,-35.23731 1.36774,-6.79614 2.84798,-12.30507 3.28946,-12.24205 0.96067,0.13732 6.96756,13.79997 9.91408,22.54989 1.15652,3.43433 2.46275,6.2327 2.90285,6.21854 1.50477,-0.0481 8.51378,-14.20921 11.34641,-22.92429 1.55604,-4.78752 3.56625,-12.39047 4.46706,-16.89537 0.90079,-4.50493 2.06637,-8.33365 2.59009,-8.50822 1.08764,-0.36246 1.31102,0.19554 8.51543,21.27551 l 5.31796,15.56018 2.72648,-5.76253 c 1.49963,-3.16941 3.89771,-10.27448 5.32923,-15.78903 1.43146,-5.51456 3.03196,-10.02653 3.55657,-10.02653 0.93402,0 6.78853,14.0521 10.58237,25.39976 1.0519,3.1464 2.20957,5.72071 2.57258,5.72071 1.98083,0 5.70993,-6.06712 8.38232,-13.63754 1.67034,-4.73184 3.98474,-9.72976 5.14312,-11.10642 1.15837,-1.37668 5.50776,-4.25954 9.66537,-6.4065 17.83376,-9.20913 26.12426,-16.62943 36.94564,-33.0678 7.87839,-11.96781 10.28236,-14.49812 13.77429,-14.49812 3.30106,0 7.25355,-6.83336 15.88576,-27.46489 5.2055,-12.44147 15.08346,-38.54418 16.06287,-42.4462 0.52995,-2.11306 -1.5273,-0.92023 -15.73997,9.12443 -19.7301,13.94411 -36.98705,24.37201 -52.96224,32.00355 -21.85527,10.44051 -49.23886,20.38233 -59.13894,21.4708 -4.42393,0.48603 -9.10038,2.04447 -17.39079,5.79423 l -11.33968,5.12889 4.83137,0.0274 c 7.90797,0.0414 31.23085,-2.65352 39.16038,-4.52465 7.42936,-1.75313 30.64164,-10.55888 47.45202,-18.00137 14.34056,-6.34895 13.45995,-5.07581 -9.06619,13.10774 -22.69,18.31584 -38.27132,27.22428 -53.30289,30.4753 -4.41242,0.95428 -13.995,2.19095 -21.29461,2.74819 -18.88389,1.44147 -39.66356,4.32186 -47.13822,6.53405 -15.5645,4.60641 -34.66575,16.99956 -45.07305,29.24404 -3.3936,3.99262 -6.52807,7.25931 -6.96551,7.25931 -2.11977,0 4.22275,-20.24497 9.17613,-29.28983 10.3186,-18.84154 20.11638,-28.77208 44.93112,-45.53977 12.21596,-8.2545 39.29206,-22.01237 76.6476,-38.94618 34.47227,-15.62675 61.18895,-28.14452 68.19037,-31.94959 18.94279,-10.29499 39.11356,-27.15831 50.39818,-42.13413 11.29611,-14.99109 14.4865,-24.35603 18.16591,-53.32369 3.4773,-27.37641 5.57572,-47.51855 5.57572,-53.51942 v -4.60255 l -5.26303,7.5e-4 c -10.16189,0.002 -24.90653,1.87888 -32.86187,4.1843 -15.39985,4.46266 -58.4133,20.958 -76.7461,29.43159 -9.97311,4.60963 -40.72807,20.74972 -55.23511,28.98716 -5.83062,3.31072 -7.47316,3.8865 -7.45188,2.61176 0.0131,-0.77401 22.62033,-19.62776 37.39269,-31.18416 24.40855,-19.09479 80.80189,-54.18838 129.18163,-80.38966 l 13.27191,-7.18779 0.1503,-10.14096 c 0.083,-5.5775 -0.12963,-10.59471 -0.47299,-11.14933 -1.39683,-2.26022 -35.05934,13.68752 -64.20665,30.41819 -29.86812,17.14437 -68.67449,45.50189 -107.1818,78.32249 -7.24958,6.17893 -31.0965,29.08656 -52.99316,50.90583 -21.8967,21.81935 -40.12274,39.67153 -40.50231,39.67153 -1.08237,0 -0.92942,-0.43661 3.28885,-9.39689 4.67555,-9.93109 26.82057,-43.45766 42.46182,-64.28532 14.57835,-19.41234 27.39685,-34.41818 69.58769,-81.46222 49.23342,-54.89683 72.24988,-77.66303 116.01776,-114.75677 3.15401,-2.67306 2.12878,-2.30312 -7.61047,2.74594 -14.78037,7.66255 -18.7231,10.74745 -25.6186,20.04472 -9.60184,12.94617 -11.13353,14.62262 -13.35977,14.62262 -1.14238,0 -3.03219,-1.01665 -4.19955,-2.25926 -1.87937,-2.00052 -2.11849,-3.13968 -2.08717,-9.94599 0.0274,-5.71288 0.51967,-8.7811 1.92085,-11.949 l 1.88541,-4.26236 -5.34384,4.11201 c -8.35392,6.42819 -40.39932,41.03866 -61.4871,66.40875 -27.02616,32.51437 -92.46381,124.06426 -114.07193,159.59103 -17.02691,27.99472 -38.31423,80.61831 -49.62981,122.68794 -4.99518,18.57147 -5.27436,18.6982 -6.08799,2.76322 -1.2623,-24.72489 8.52059,-89.23167 19.76932,-130.35535 19.61389,-71.70578 69.0614,-185.23539 106.82313,-245.26215 19.3014,-30.68187 40.49475,-57.780939 61.95082,-79.214051 l 15.57683,-15.56017 8.41596,-15.10256 c 4.62882,-8.306398 8.27271,-15.254884 8.09765,-15.440977 -0.42492,-0.451702 -20.91839,12.012632 -35.27489,21.455082 -6.34171,4.171051 -16.15624,11.361392 -21.81008,15.978585 -13.28292,10.847404 -39.60735,36.541649 -42.48102,41.464 -8.65759,14.829881 -38.27021,68.400221 -46.12946,83.449991 -5.25789,10.06832 -11.74641,21.60117 -14.41896,25.62853 -6.68714,10.07707 -17.39999,21.85788 -31.21601,34.32791 l -11.65786,10.52217 -6.5819,13.7296 c -3.62008,7.55127 -6.87978,14.67089 -7.24375,15.82135 -0.46062,1.45581 0.26431,4.23875 2.3849,9.15305 2.79207,6.4711 3.03658,7.78804 2.92598,15.7567 -0.21488,15.46886 -4.52814,39.0434 -8.15715,44.58198 -1.61537,2.46536 -1.62627,2.46749 -2.89263,0.56017 -1.2675,-1.90897 -1.28446,-1.90951 -5.81502,-0.18807 -8.14817,3.09601 -12.27255,2.02203 -14.40852,-3.75196 -0.80175,-2.16743 -0.86443,-2.12575 -2.00694,1.33604 -1.93415,5.86067 -0.62949,19.88739 3.53778,38.03885 9.78775,42.63096 13.05553,67.99756 13.02554,101.11127 -0.0198,24.62863 -3.2916,76.6887 -6.55266,104.34492 -1.53333,13.00372 -4.51896,35.44466 -5.09244,38.27674 l -0.52241,2.57987 3.51889,-1.80427 c 7.29927,-3.74263 10.38369,-9.45148 10.38369,-19.21898 0,-9.53527 1.40172,-15.34371 5.89069,-24.4099 5.52951,-11.16787 8.8867,-15.10257 12.88571,-15.10257 1.69559,0 3.39566,0.50595 3.77784,1.12446 1.23044,1.99087 0.54437,10.77883 -1.00592,12.88934 -0.80976,1.1022 -2.53399,3.44564 -3.83157,5.20764 -2.29408,3.11516 -2.34413,3.48148 -1.813,13.27191 0.56428,10.40237 1.80126,16.33541 5.23427,25.10725 4.27958,10.93479 12.08404,28.43817 12.68004,28.43817 0.3453,0 1.16372,-2.69634 1.81876,-5.99194 0.65491,-3.29558 2.79398,-9.30674 4.75319,-13.35813 3.87401,-8.01088 14.19491,-23.66927 15.60115,-23.66927 2.43508,0 11.88229,26.3867 13.74552,38.39219 l 1.19955,7.72943 0.69094,-5.44118 c 0.37962,-2.99263 1.35813,-9.3541 2.17362,-14.13661 z m -56.7436,-91.32997 c -0.52858,-0.8557 1.67961,-14.01909 3.64247,-21.71041 4.2828,-16.78237 20.85959,-47.05242 36.36441,-66.40325 16.87938,-21.0662 32.77846,-32.6964 79.31664,-58.01975 24.0134,-13.06674 60.86844,-31.60586 81.00461,-40.74772 29.75463,-13.50862 49.11064,-23.49847 54.20939,-27.97824 2.63057,-2.31116 6.52594,-6.85333 8.65637,-10.09365 2.13035,-3.24031 4.18259,-5.58224 4.56055,-5.20434 0.84781,0.84779 -1.34722,24.42901 -3.40432,36.5724 -3.5758,21.10913 -11.44954,39.10155 -26.34737,60.20724 -11.58922,16.41826 -20.60509,24.43682 -35.45195,31.53036 -12.07119,5.76733 -44.41789,16.50804 -77.35741,25.68649 -16.56908,4.61693 -34.03848,9.83266 -38.82089,11.59059 -13.51805,4.96894 -33.49783,15.06926 -42.48824,21.47898 -11.06194,7.88669 -25.09029,21.46047 -34.8147,33.68667 -4.42675,5.56563 -8.17899,10.11926 -8.33826,10.11926 -0.15929,0 -0.48808,-0.32196 -0.7313,-0.71463 z m 8.19033,-11.41319 c 19.02607,-23.74582 38.7568,-38.69872 66.7408,-50.57929 13.00062,-5.51942 17.87684,-7.08406 49.59789,-15.91452 27.48137,-7.65014 64.82867,-19.86473 75.71837,-24.76401 15.37509,-6.91718 26.41485,-17.05276 38.8711,-35.68759 15.714,-23.50845 21.91291,-40.51611 25.2902,-69.38788 0.75011,-6.41233 1.36382,-12.83182 1.36382,-14.26546 0,-2.50544 -0.15864,-2.41194 -4.086,2.40942 -4.83151,5.9311 -9.98931,9.81337 -20.79539,15.65234 l -7.9482,4.29477 -0.56635,5.22198 c -2.28528,21.0708 -9.90817,38.22099 -22.07177,49.65767 -14.59283,13.72081 -38.66466,30.77166 -50.25306,35.5959 -13.69872,5.7028 -19.40294,6.74981 -37.06702,6.8035 -9.51448,0.0274 -18.37391,-0.42425 -21.82086,-1.11546 -9.03606,-1.8128 -17.54024,-4.67658 -17.50818,-5.8959 0.0132,-0.6089 2.66099,-5.43011 5.87778,-10.71347 3.21683,-5.28338 5.69626,-9.7586 5.50989,-9.94491 -0.55607,-0.55603 -17.4261,10.0045 -24.82799,15.5417 -21.24716,15.89468 -35.44975,33.15656 -51.55038,62.65472 -7.83884,14.36179 -11.43043,23.42338 -14.30377,36.0888 -2.26531,9.98511 -2.43282,10.98368 -1.84237,10.98368 0.19488,0 2.74715,-2.98618 5.67149,-6.63599 z m 130.44975,-93.55299 c 18.20387,-2.74412 35.32607,-11.92545 59.96834,-32.15643 16.66313,-13.68022 23.13019,-22.54948 28.1704,-38.63411 1.90841,-6.0901 4.63146,-22.03581 3.88974,-22.77753 -0.25264,-0.25263 -39.15936,17.62488 -55.5114,25.50682 -13.84979,6.6759 -52.1211,26.78186 -67.7998,35.61876 l -7.8473,4.42293 -6.96358,11.5207 -6.96357,11.52072 2.45422,0.93992 c 12.66185,4.84936 33.95144,6.54834 50.60295,4.03822 z m 32.56669,208.99539 c 1.60285,-0.49632 4.38707,-2.53254 6.18711,-4.52492 2.82939,-3.13187 3.21134,-4.08592 2.81916,-7.0426 -2.51526,-18.96358 -4.37062,-26.33933 -11.4982,-45.70918 -6.69262,-18.188 -6.09244,-17.77172 -9.51626,-6.59954 -1.60637,5.24183 -4.08716,11.79591 -5.51278,14.56475 -2.97498,5.77783 -3.18464,3.87258 3.0499,27.71334 2.07715,7.94271 3.77661,16.52561 3.77661,19.07301 v 4.63167 l 3.88999,-0.60203 c 2.13956,-0.33087 5.20153,-1.00811 6.80447,-1.50443 z M 356.98773,575.69174 c 9.2355,-6.1451 21.01466,-11.8087 28.63858,-13.76976 8.28737,-2.1318 22.90488,-4.14963 40.73111,-5.6227 8.80987,-0.728 18.90112,-1.79031 22.42501,-2.36072 12.62401,-2.04338 27.08596,-8.72241 41.0458,-18.95638 7.1961,-5.27553 27.14451,-21.2843 27.14451,-21.78373 0,-0.20872 -1.54459,0.28901 -3.43239,1.10523 -10.37964,4.4891 -33.65365,13.54419 -39.81439,15.49035 -3.91363,1.23638 -11.7447,2.84299 -17.40253,3.57039 -13.62416,1.75163 -38.21401,3.57216 -38.9057,2.88048 -0.93911,-0.93905 0.7482,-1.87582 14.8892,-8.26681 10.6333,-4.80571 15.17449,-6.37233 20.13672,-6.94676 11.25361,-1.30287 40.97857,-12.40105 63.63874,-23.76023 16.67965,-8.36126 38.89491,-22.44774 59.90317,-37.98416 l 6.588,-4.87201 2.41175,-8.99962 c 2.97532,-11.10257 6.45909,-27.22544 8.37238,-38.74704 0.79412,-4.78251 1.65099,-9.72515 1.90409,-10.98369 0.2533,-1.25852 -1.14793,0.90733 -3.11333,4.81307 -4.39917,8.74216 -9.30886,15.32228 -18.85641,25.27178 -17.13023,17.85143 -32.54473,27.75081 -70.0489,44.98647 -6.29267,2.89192 -24.00387,11.02986 -39.35815,18.08419 -56.386,25.90604 -65.4927,30.69162 -84.20408,44.24925 -18.6687,13.52674 -28.96203,24.89925 -36.96304,40.83835 -2.74426,5.46693 -7.89109,19.23652 -7.89109,21.11143 0,0.2746 3.23354,-2.79986 7.18554,-6.83239 3.95207,-4.03252 10.69102,-9.66426 14.97541,-12.51499 z m -57.89626,-80.29426 c 4.29393,-13.87374 16.75394,-46.95507 23.07718,-61.27002 11.44128,-25.90136 20.88142,-42.14589 44.9466,-77.34335 31.13162,-45.53288 71.45546,-100.5145 90.22567,-123.02293 26.1441,-31.3509 53.46613,-60.33148 64.95443,-68.89744 4.87559,-3.63533 15.52825,-12.30083 23.67258,-19.25658 15.96277,-13.63321 15.15143,-12.49044 18.46315,-26.00338 1.00267,-4.09114 2.88541,-9.53499 4.18388,-12.09741 2.49995,-4.93347 3.04392,-8.381049 1.3223,-8.381049 -1.69053,0 -54.80451,27.261699 -60.28694,30.943379 -4.20681,2.82499 -5.5847,4.49182 -8.38342,10.14142 -3.98981,8.05398 -7.51167,12.03426 -9.17568,10.37025 -0.86779,-0.86778 -0.65009,-3.00886 1.00137,-9.86028 1.16041,-4.81352 1.93146,-8.93019 1.71338,-9.14829 -0.21839,-0.2184 -3.24856,1.49426 -6.73452,3.80523 -11.79276,7.8177 -23.4222,20.74481 -31.00065,34.4597 -1.8789,3.4002 -3.75464,5.97307 -4.16831,5.71742 -0.41396,-0.25538 -1.23257,-3.31294 -1.81972,-6.79395 -0.87431,-5.18354 -0.80736,-8.08033 0.37001,-16.00493 4.47741,-30.13817 8.97373,-42.08369 32.58884,-86.580972 l 5.58624,-10.525992 -13.67394,13.874649 c -19.4676,19.753455 -34.74025,39.051705 -53.48898,67.587575 -21.76684,33.12943 -44.92358,78.07334 -68.6177,133.17713 -31.55268,73.37954 -47.58535,124.52338 -56.52586,180.3153 -4.96991,31.01446 -8.30943,64.8116 -6.92287,70.06269 0.63499,2.4044 0.99243,1.68324 3.22488,-6.5044 1.38092,-5.06471 3.84159,-13.50842 5.46815,-18.76377 z m 135.2659,-160.83904 c 25.55167,-21.88099 56.84677,-45.97505 79.90569,-61.51929 23.79073,-16.03746 63.13185,-37.57454 83.48548,-45.7037 l 9.83953,-3.92982 -0.12634,-27.58737 c -0.07,-15.17297 -0.37893,-34.22464 -0.68647,-42.33682 l -0.56017,-14.74958 -9.33449,4.36938 c -9.89046,4.62961 -15.93723,9.25106 -44.18424,33.76951 -29.8051,25.87089 -42.31803,38.68559 -94.39502,96.6711 -37.18315,41.40188 -51.94708,58.49611 -63.59445,73.6323 -16.03752,20.84133 -39.73969,55.88111 -45.23517,66.87302 -2.8653,5.73107 -1.91831,4.87297 34.45256,-31.21697 20.56941,-20.4105 43.2643,-42.13277 50.43306,-48.27176 z m 23.57812,15.11381 c 16.17531,-8.73819 30.71812,-15.91912 42.25487,-20.86459 15.60535,-6.68947 57.40612,-22.38287 66.6666,-25.02871 8.90686,-2.54492 21.4991,-4.16041 32.62473,-4.18568 l 6.99621,-0.0131 0.5478,-14.87367 c 1.05662,-28.69162 1.08945,-33.6375 0.22312,-33.6375 -1.13867,0 -18.50641,9.22806 -36.73053,19.51618 -29.83076,16.84053 -77.68013,46.85782 -94.34914,59.18802 -10.29309,7.61382 -36.99729,29.15303 -36.99729,29.84142 0,0.24919 1.75051,-0.55055 3.89007,-1.77655 2.13948,-1.22624 8.83267,-4.89961 14.87368,-8.16306 z"
     id="path857" />
  <path
     style="font-variation-settings:normal;opacity:1;vector-effect:none;fill:#ffdd55;fill-opacity:1;stroke-width:0.30363;stroke-linecap:butt;stroke-linejoin:miter;stroke-miterlimit:4;stroke-dasharray:none;stroke-dashoffset:0;stroke-opacity:1;stop-color:#000000;stop-opacity:1"
     d="m 353.21144,660.15698 c -0.25582,-1.07149 -0.85985,-4.0522 -1.34229,-6.62378 -2.60014,-13.85968 -11.27044,-37.52661 -13.48126,-36.79919 -1.44772,0.47634 -9.5405,12.79109 -13.72548,20.88598 -2.12259,4.10567 -4.61511,10.24241 -5.53892,13.6372 -2.28966,8.41388 -2.61819,8.90892 -4.05565,6.11111 -2.97085,-5.7823 -11.50839,-26.35887 -13.33227,-32.13247 -2.12567,-6.72894 -3.58221,-16.75374 -3.59303,-24.72946 -0.006,-4.25757 0.32162,-5.21157 3.39372,-9.88893 3.67501,-5.59531 5.05182,-11.22755 3.6475,-14.92119 -0.64068,-1.68512 -1.26842,-2.03812 -3.62442,-2.03812 -4.0446,0 -7.22372,3.68421 -12.3503,14.31245 -4.80396,9.95941 -5.64651,13.17271 -6.58162,25.10088 -0.73572,9.38473 -1.62255,11.83418 -5.65987,15.63271 -2.4784,2.33181 -7.53147,5.35476 -8.05749,4.82032 -0.13657,-0.13876 0.0626,-2.00564 0.44254,-4.14863 2.72986,-15.39644 6.91708,-54.87716 8.88457,-83.77141 4.62344,-67.89886 3.05545,-94.49451 -8.8747,-150.52897 -5.81294,-27.30269 -7.00255,-36.72909 -5.53023,-43.82123 0.49821,-2.39986 1.23164,-4.36337 1.62986,-4.36337 0.39821,0 0.72402,0.32376 0.72402,0.71947 0,0.39572 0.90785,1.79841 2.01744,3.11708 1.67124,1.98616 2.57389,2.39173 5.26007,2.3634 1.78344,-0.0188 4.6453,-0.53955 6.35969,-1.15718 4.02154,-1.44881 6.34391,-1.44125 6.90559,0.0224 0.79878,2.08159 1.82797,1.25265 3.62819,-2.92226 3.43847,-7.97411 6.99977,-30.27286 6.99977,-43.82827 0,-5.51422 -0.40055,-7.72894 -2.29581,-12.69383 -3.81515,-9.99429 -4.04499,-8.48734 3.84424,-25.20529 l 7.12418,-15.09674 7.02284,-6.23415 c 10.23988,-9.0899 26.8985,-26.37791 31.91322,-33.11893 5.24579,-7.05167 7.54933,-11.00113 21.36198,-36.62564 5.8913,-10.92924 16.86544,-30.91749 24.38695,-44.41833 7.52153,-13.50083 14.92904,-26.80587 16.46113,-29.56675 4.77606,-8.606566 32.91988,-36.315458 50.5963,-49.814367 11.75302,-8.975406 48.76471,-32.833604 50.93542,-32.833604 0.78481,0 -1.62918,4.846718 -9.70318,19.481723 -6.17352,11.190168 -6.36739,11.434997 -20.05538,25.32624 -15.94271,16.179447 -22.16814,23.178945 -33.6149,37.794538 -22.54825,28.79035 -40.02628,57.16886 -61.43282,99.74643 -35.61623,70.84063 -66.52165,150.08211 -79.10504,202.82531 -8.31451,34.85026 -14.88661,78.28815 -15.76941,104.22708 -0.47343,13.91037 0.13281,23.88721 1.32233,21.76166 0.34828,-0.62236 2.44719,-7.44362 4.66423,-15.15836 13.00078,-45.23931 31.46255,-90.80628 48.19958,-118.9652 22.3528,-37.60707 93.20465,-135.95953 122.84991,-170.53316 24.51427,-28.58964 56.94354,-62.16067 58.5219,-60.58233 0.15503,0.15504 -0.41114,2.10577 -1.25817,4.33496 -1.98778,5.23142 -2.18982,17.56799 -0.33118,20.22158 1.61336,2.3034 3.97118,3.48875 5.79079,2.91124 0.81725,-0.25939 4.61701,-4.57454 8.44393,-9.58922 8.34934,-10.94076 13.51016,-15.94908 20.79242,-20.17805 7.3494,-4.26795 16.83712,-8.98783 17.2457,-8.57926 0.18243,0.18244 -5.8174,5.65281 -13.33297,12.15639 -36.50535,31.58984 -60.13876,55.48655 -109.91497,111.13957 -52.9251,59.17368 -68.10142,78.37798 -94.21006,119.21465 -7.5782,11.85311 -15.84727,27.3321 -15.03503,28.14433 0.24455,0.24455 14.40948,-13.3599 31.47763,-30.2321 41.5949,-41.11741 54.09025,-53.07498 66.10009,-63.25531 31.32939,-26.55683 65.59436,-51.94849 92.68307,-68.68173 25.47154,-15.73426 70.61409,-38.07309 74.17624,-36.70617 0.83792,0.32154 1.07314,2.71476 1.07314,10.91825 v 10.50646 l -4.87043,2.67216 c -57.2138,31.39036 -106.88278,61.84865 -133.4498,81.83485 -13.86948,10.43392 -42.0126,33.95618 -41.38165,34.58714 0.2206,0.22059 7.93095,-3.67535 17.1341,-8.65766 40.12335,-21.7216 55.42481,-28.7249 94.96362,-43.46373 27.96892,-10.42594 35.7767,-12.30119 56.49958,-13.56996 l 8.76678,-0.53675 v 4.73162 c 0,8.68429 -4.93572,52.02404 -7.82615,68.72017 -2.85934,16.51657 -6.40129,25.44428 -14.64428,36.91182 -8.74854,12.17088 -27.51784,29.0626 -43.47282,39.12401 -8.39872,5.29636 -21.18362,11.526 -63.41539,30.9002 -67.94105,31.16856 -82.86786,39.11881 -104.51367,55.66563 -13.51831,10.33386 -23.99627,22.74726 -31.0265,36.75755 -2.64667,5.27445 -7.39604,18.89124 -8.26854,23.70652 -0.60809,3.35602 0.44327,3.88099 2.34097,1.1689 2.05221,-2.93289 12.96318,-13.70068 17.1403,-16.91537 6.78038,-5.21814 17.27844,-11.44584 24.12695,-14.31269 10.53122,-4.40845 23.29306,-6.67828 53.44435,-9.50562 16.82245,-1.57747 22.53872,-2.48822 29.61222,-4.71798 14.53249,-4.58104 33.0023,-16.65652 58.76008,-38.4171 3.81628,-3.22406 6.56843,-5.98534 6.1159,-6.13618 -0.45255,-0.15085 -6.5795,2.16388 -13.61546,5.14383 -14.21493,6.02049 -31.63185,12.66671 -39.02218,14.89069 -8.30618,2.4996 -31.59275,5.52416 -41.84578,5.43512 l -5.8493,-0.0508 5.84452,-2.74106 c 9.75702,-4.576 16.57948,-7.10078 21.85895,-8.08929 14.67982,-2.7486 39.12636,-11.61777 60.74356,-22.03767 16.55329,-7.97901 28.32457,-15.19217 59.41097,-36.40561 4.60287,-3.141 8.55424,-5.52554 8.78083,-5.29894 1.04654,1.04654 -15.7119,44.4806 -22.70691,58.85113 -4.23675,8.70397 -7.51799,12.70597 -10.41764,12.70597 -2.14205,0 -5.21564,3.44895 -12.3625,13.87231 -10.82713,15.79085 -18.27016,22.80005 -32.83525,30.92137 -13.37742,7.4591 -13.60102,7.65252 -16.47764,14.25295 -8.19701,18.80816 -10.7133,21.7777 -13.02707,15.37355 -3.83622,-10.61805 -9.75609,-25.099 -10.63461,-26.01393 -0.86752,-0.90348 -1.30381,-0.149 -2.70371,4.67562 -3.92676,13.53309 -8.18213,24.84502 -9.34632,24.84502 -0.33668,0 -3.13418,-7.4336 -6.21668,-16.51911 -6.04433,-17.8154 -6.88537,-19.84986 -7.78288,-18.82647 -0.32226,0.36747 -1.9005,5.92818 -3.5072,12.35715 -4.03903,16.16163 -12.85236,36.54534 -15.17934,35.1072 -0.38343,-0.23698 -1.80401,-3.49898 -3.15684,-7.2489 -3.76942,-10.44846 -8.7427,-21.40626 -9.39461,-20.69942 -0.3215,0.3486 -1.87802,6.35772 -3.45891,13.35361 -4.28197,18.94889 -9.96002,35.98451 -11.99379,35.98451 -0.34826,0 -1.93756,-4.29572 -3.53176,-9.54605 -3.76723,-12.40688 -7.98676,-24.15079 -10.41533,-28.98816 -1.84,-3.66503 -1.99301,-3.78123 -3.07837,-2.33781 -2.41093,3.20635 -8.96775,17.11237 -11.17492,23.70031 -2.63568,7.86697 -4.26697,15.25748 -6.19836,28.08147 -0.88896,5.90244 -1.50847,8.29656 -1.81482,7.01342 z M 305.03163,546.54377 c 19.79053,-24.81056 35.53676,-38.20598 58.17347,-49.48853 18.15424,-9.04841 21.6846,-10.33307 54.15919,-19.7079 57.31713,-16.54642 79.58026,-24.3378 93.75758,-32.8121 13.93436,-8.32906 30.86885,-29.60237 41.74997,-52.44677 7.23613,-15.19193 10.65812,-28.16798 12.84411,-48.7043 1.92339,-18.06937 2.13636,-21.4299 1.35808,-21.4299 -0.40292,0 -2.29754,2.19169 -4.21026,4.87043 -8.24359,11.54498 -15.18961,15.82579 -57.87705,35.66944 -19.29176,8.96794 -60.66332,29.54271 -77.1023,38.34425 -51.69828,27.67959 -68.45811,39.40897 -85.8129,60.05618 -11.87898,14.13256 -28.48293,41.94646 -35.22657,59.00936 -3.48427,8.81595 -8.30681,31.98809 -6.63894,31.8999 0.36166,-0.0191 2.53319,-2.38614 4.82562,-5.26006 z"
     id="path859" />
  <path
     style="font-variation-settings:normal;opacity:1;vector-effect:none;fill:#ff5555;fill-opacity:1;stroke-width:0.429397;stroke-linecap:butt;stroke-linejoin:miter;stroke-miterlimit:4;stroke-dasharray:none;stroke-dashoffset:0;stroke-opacity:1;stop-color:#000000;stop-opacity:1"
     d="m 401.18156,446.25055 c -5.53734,-1.02245 -15.97976,-4.13253 -15.97976,-4.75927 0,-0.18471 3.13899,-5.47603 6.97555,-11.7585 l 6.97555,-11.42266 15.34102,-8.56331 c 24.95356,-13.92901 99.21739,-50.61151 114.80126,-56.70591 1.91587,-0.74924 1.73824,2.76829 -0.74824,14.8173 -4.13436,20.03437 -13.02192,33.00029 -34.13359,49.79698 -20.4853,16.29835 -36.37665,24.93981 -51.8486,28.19443 -8.77746,1.8464 -32.31971,2.07449 -41.38319,0.40094 z"
     id="path861" />
  <path
     style="font-variation-settings:normal;opacity:1;vector-effect:none;fill:#ffccaa;fill-opacity:1;stroke-width:0.30363;stroke-linecap:butt;stroke-linejoin:miter;stroke-miterlimit:4;stroke-dasharray:none;stroke-dashoffset:0;stroke-opacity:1;stop-color:#000000;stop-opacity:1"
     d="m 440.18142,358.6654 c 0.79877,-1.29244 24.97558,-20.77414 34.99051,-28.1954 17.70762,-13.12168 61.86472,-40.91627 93.95,-59.13662 25.08849,-14.24707 36.8487,-20.36919 38.16076,-19.8657 0.74845,0.28721 0.7981,2.10832 0.42535,15.60259 -0.23211,8.40258 -0.57823,19.12084 -0.76917,23.81834 l -0.34715,8.5409 -9.09194,0.34483 c -19.6855,0.74661 -27.35199,2.48937 -53.72507,12.21289 -12.96017,4.77829 -34.58966,13.17222 -42.15351,16.35883 -9.7421,4.1043 -33.30027,15.80043 -48.21481,23.93762 -6.97048,3.80301 -12.87421,6.91853 -13.11939,6.92338 -0.24519,0.005 -0.29269,-0.2389 -0.10558,-0.54166 z"
     id="path863" />
  <path
     style="font-variation-settings:normal;opacity:1;vector-effect:none;fill:#ffccaa;fill-opacity:1;stroke-width:0.30363;stroke-linecap:butt;stroke-linejoin:miter;stroke-miterlimit:4;stroke-dasharray:none;stroke-dashoffset:0;stroke-opacity:1;stop-color:#000000;stop-opacity:1"
     d="m 348.43588,416.22878 c 0,-2.5487 21.00236,-34.78689 36.79524,-56.47992 16.55637,-22.74176 29.38425,-37.80288 81.52197,-95.71429 46.39603,-51.5339 58.50237,-63.68088 93.55241,-93.86645 21.41942,-18.44669 27.06357,-22.5691 38.2141,-27.91103 4.04615,-1.93841 7.45951,-3.4215 7.58525,-3.29576 1.0151,1.01511 2.01094,83.73054 1.01854,84.60097 -0.29242,0.25648 -3.25925,1.53485 -6.59296,2.84084 -12.64017,4.9518 -26.4715,11.75186 -47.11276,23.16263 -28.00612,15.48216 -49.55417,29.87797 -79.89881,53.37875 -33.82013,26.19241 -47.18148,38.15508 -91.47038,81.89521 -30.76221,30.38105 -33.6126,33.04288 -33.6126,31.38905 z"
     id="path865" />
  <path
     style="font-variation-settings:normal;opacity:1;vector-effect:none;fill:#ffccaa;fill-opacity:1;stroke-width:0.30363;stroke-linecap:butt;stroke-linejoin:miter;stroke-miterlimit:4;stroke-dasharray:none;stroke-dashoffset:0;stroke-opacity:1;stop-color:#000000;stop-opacity:1"
     d="m 290.23114,520.30254 c -1.30094,-5.18335 2.34593,-40.9956 7.2406,-71.10277 9.52358,-58.57953 27.56979,-114.26671 62.8206,-193.85236 C 394.16199,178.88 424.90657,127.0303 461.08987,85.355781 c 5.77001,-6.645682 27.3467,-28.797047 27.70295,-28.440799 0.11364,0.113654 -3.55051,7.327497 -8.14258,16.030763 -16.55644,31.379105 -22.67563,46.382425 -26.38755,64.698235 -2.32919,11.493 -3.43172,19.46801 -3.43622,24.85549 -0.004,5.09868 1.50176,12.84932 2.43621,12.53783 0.31972,-0.10657 2.30154,-3.03317 4.40404,-6.50355 9.07168,-14.97369 18.87499,-25.56984 31.26496,-33.79354 4.56422,-3.02945 6.0772,-3.66259 6.0772,-2.54314 0,0.3053 -0.75549,3.95111 -1.67888,8.10181 -1.73544,7.80098 -1.87199,10.09758 -0.62474,10.50745 1.28373,0.42187 5.24862,-4.46074 8.30071,-10.22202 4.62292,-8.72644 4.98237,-9.00557 25.68693,-19.94789 22.11074,-11.68549 42.55887,-21.678787 43.5671,-21.291889 1.2999,0.498815 0.8151,2.983339 -1.69625,8.693059 -1.11134,2.5267 -3.00901,8.18944 -4.21705,12.58388 -2.49202,9.06513 -3.0757,10.48338 -5.54961,13.48466 -2.28719,2.77477 -18.06417,16.2538 -31.79171,27.16119 -15.98544,12.70144 -35.88947,33.08461 -60.99459,62.46289 -18.22258,21.32427 -39.5444,49.33281 -69.23604,90.94911 -34.19247,47.92475 -52.96952,76.49915 -63.66525,96.88405 -12.51001,23.84273 -27.99757,63.6243 -37.60676,96.59727 -2.10242,7.21422 -3.82258,13.2273 -3.82258,13.36239 0,0.13508 -0.24323,0.24561 -0.54052,0.24561 -0.2973,0 -0.70612,-0.65974 -0.9085,-1.4661 z"
     id="path867" />
  <path
     style="font-variation-settings:normal;opacity:1;vector-effect:none;fill:#ffccaa;fill-opacity:1;stroke-width:0.30363;stroke-linecap:butt;stroke-linejoin:miter;stroke-miterlimit:4;stroke-dasharray:none;stroke-dashoffset:0;stroke-opacity:1;stop-color:#000000;stop-opacity:1"
     d="m 334.66022,594.64928 c 0,-0.62431 4.03647,-11.67709 5.75466,-15.75757 8.32554,-19.77211 22.02573,-34.5712 48.36015,-52.2392 14.37107,-9.64167 27.37557,-16.0727 97.69294,-48.31145 44.50513,-20.40447 57.70059,-27.58507 72.31753,-39.35312 6.51205,-5.24283 20.71756,-19.68973 25.07186,-25.4979 3.1379,-4.18563 4.98532,-7.16487 8.93703,-14.41228 1.1279,-2.06857 2.17076,-3.641 2.31746,-3.4943 0.41824,0.41824 -3.44043,21.53098 -6.16002,33.70459 -2.29584,10.27677 -6.03323,24.99661 -6.43038,25.32628 -0.0962,0.0798 -3.02645,2.24007 -6.5117,4.80049 -15.38221,11.30051 -33.03994,22.93266 -47.07421,31.01046 -22.34678,12.86228 -56.74,26.82913 -74.85935,30.39987 -8.47003,1.66916 -12.3548,3.02126 -24.2677,8.44638 -10.18987,4.64045 -12.74426,6.05957 -12.08816,6.71567 0.50911,0.50911 11.61704,-0.10736 26.59413,-1.47592 9.60288,-0.87748 19.93733,-2.43962 25.89824,-3.91471 4.48628,-1.11018 17.54039,-5.95114 33.50193,-12.42378 6.75808,-2.7405 12.4149,-4.85525 12.57071,-4.69943 0.6178,0.61779 -22.75763,19.25429 -31.29079,24.94716 -6.68864,4.4623 -16.64917,9.7166 -22.39461,11.81343 -9.40852,3.43369 -12.93252,4.02647 -37.84692,6.36628 -25.07931,2.35531 -37.59518,4.47006 -45.87345,7.75103 -14.11393,5.59386 -25.5083,13.08787 -37.3928,24.59306 -5.49066,5.31541 -6.82655,6.43182 -6.82655,5.70496 z"
     id="path869" />
  <path
     style="font-variation-settings:normal;opacity:1;vector-effect:none;fill:#f9f9f9;fill-opacity:1;stroke-width:0.214699;stroke-linecap:butt;stroke-linejoin:miter;stroke-miterlimit:4;stroke-dasharray:none;stroke-dashoffset:0;stroke-opacity:1;stop-color:#000000;stop-opacity:1"
     d="m 330.23325,697.18269 c -2.37964,-0.61058 -5.13039,-1.93749 -9.10302,-4.39113 l -3.85012,-2.37797 0.21951,-11.13523 c 0.22212,-11.26754 0.68539,-16.19235 2.25702,-23.99317 1.0183,-5.05437 3.38851,-12.14044 5.35809,-16.01876 1.75497,-3.45573 9.1558,-15.05095 11.72987,-18.37773 l 1.68572,-2.17867 0.90764,1.78593 c 2.35381,4.63154 7.60756,19.32127 9.30687,26.02246 2.56547,10.11689 3.46438,18.71382 3.49004,33.37802 0.0231,13.18799 0.27951,12.34187 -4.38772,14.47738 -5.28966,2.4203 -13.82407,3.78127 -17.6139,2.80887 z"
     id="path871" />
  <path
     style="font-variation-settings:normal;opacity:1;vector-effect:none;fill:#f9f9f9;fill-opacity:1;stroke-width:0.0836541;stroke-linecap:butt;stroke-linejoin:miter;stroke-miterlimit:4;stroke-dasharray:none;stroke-dashoffset:0;stroke-opacity:1;stop-color:#000000;stop-opacity:1"
     d="m 364.91787,690.68825 c -1.17864,-0.31203 -3.67717,-1.28952 -5.55229,-2.1722 l -3.4093,-1.60488 v -11.99283 c 0,-6.59606 0.18486,-14.23791 0.4108,-16.98189 0.87363,-10.6099 2.76846,-21.15959 5.1291,-28.55687 2.67178,-8.37224 10.6574,-26.88986 11.59611,-26.88986 1.20675,0 6.19365,13.64276 11.10915,30.39149 4.76806,16.24632 5.59815,21.21942 5.91828,35.45674 0.25107,11.16613 -0.0768,14.72502 -1.49584,16.2355 -0.96266,1.0247 -5.15186,3.53573 -8.0344,4.81587 -4.32894,1.92249 -11.17333,2.48978 -15.67161,1.29893 z"
     id="path873" />
  <path
     style="font-variation-settings:normal;opacity:1;vector-effect:none;fill:#f9f9f9;fill-opacity:1;stroke-width:0.0836541;stroke-linecap:butt;stroke-linejoin:miter;stroke-miterlimit:4;stroke-dasharray:none;stroke-dashoffset:0;stroke-opacity:1;stop-color:#000000;stop-opacity:1"
     d="m 396.08863,683.70807 c -0.32145,-0.0687 -1.37346,-0.22774 -2.33781,-0.3535 l -1.75335,-0.22864 0.1338,-9.14282 c 0.14088,-9.62593 -0.15962,-13.86473 -1.57935,-22.27836 l -0.86717,-5.13899 2.39592,-4.99151 c 4.24055,-8.8345 7.69356,-19.79909 10.77482,-34.2141 1.71149,-8.00681 2.135,-9.54604 2.62649,-9.54604 0.9396,0 6.90718,14.4358 9.11016,22.03782 2.24306,7.74033 3.86084,20.20117 5.87145,45.2246 0.7267,9.04425 0.76303,8.87261 -2.63861,12.46933 -2.85055,3.01404 -6.29652,5.11531 -9.50281,5.79458 -2.34949,0.49775 -10.48067,0.7421 -12.23354,0.36763 z"
     id="path875" />
  <path
     style="font-variation-settings:normal;opacity:1;vector-effect:none;fill:#f9f9f9;fill-opacity:1;stroke-width:0.0836541;stroke-linecap:butt;stroke-linejoin:miter;stroke-miterlimit:4;stroke-dasharray:none;stroke-dashoffset:0;stroke-opacity:1;stop-color:#000000;stop-opacity:1"
     d="m 424.02924,670.6109 c -0.98041,-0.74783 -1.57582,-4.57763 -2.99058,-19.2359 -1.30496,-13.5207 -1.70992,-17.13899 -2.54661,-22.75367 l -0.5477,-3.67542 2.47054,-4.11727 c 4.09369,-6.8223 6.43632,-11.86556 9.87598,-21.26118 1.95787,-5.34805 3.72427,-11.46175 4.55928,-15.78019 0.7777,-4.02211 1.32473,-5.84452 1.75432,-5.84452 1.53605,0 13.8782,38.87996 19.24814,60.6351 1.96141,7.9462 2.57753,11.75425 2.57753,15.9309 0,3.60984 -0.37943,4.60405 -2.6522,6.94943 -3.95609,4.08248 -9.74195,7.1626 -15.85543,8.44068 -5.03397,1.05241 -14.86938,1.49304 -15.89327,0.71204 z"
     id="path877" />
  <path
     style="font-variation-settings:normal;opacity:1;vector-effect:none;fill:#f9f9f9;fill-opacity:1;stroke-width:0.0836541;stroke-linecap:butt;stroke-linejoin:miter;stroke-miterlimit:4;stroke-dasharray:none;stroke-dashoffset:0;stroke-opacity:1;stop-color:#000000;stop-opacity:1"
     d="m 460.18237,657.28176 c -0.0736,-0.24091 -0.22635,-2.36672 -0.33937,-4.72401 -0.24292,-5.06661 -1.07305,-9.09196 -5.2791,-25.59887 -3.85739,-15.13858 -3.8644,-15.25679 -1.23999,-20.93047 1.92741,-4.16684 3.87342,-9.37859 6.55877,-17.56553 1.73747,-5.29709 2.2934,-5.71542 3.75703,-2.8271 1.53627,3.03169 8.98797,23.88052 10.89801,30.49115 2.05881,7.12551 3.33404,13.23156 4.74102,22.70086 1.21647,8.18715 1.15526,8.55358 -1.99764,11.95909 -3.70813,4.00523 -6.36373,5.2355 -13.90884,6.4436 -2.24233,0.35903 -3.09166,0.37269 -3.18989,0.0513 z"
     id="path879" />
  <path
     style="font-variation-settings:normal;opacity:1;vector-effect:none;fill:#000000;fill-opacity:1;stroke-width:0.0836541;stroke-linecap:butt;stroke-linejoin:miter;stroke-miterlimit:4;stroke-dasharray:none;stroke-dashoffset:0;stroke-opacity:1;stop-color:#000000;stop-opacity:1"
     d="m 301.92697,545.79896 c 0,-1.30165 2.63928,-12.81509 4.10501,-17.90741 2.73096,-9.4881 7.57142,-20.13399 15.35495,-33.771 17.64175,-30.90895 34.01114,-48.54123 60.88159,-65.57857 8.24957,-5.23068 11.83936,-7.26486 12.19425,-6.90997 0.3343,0.3343 -0.68238,2.27708 -5.07948,9.70637 -2.02234,3.41693 -4.20771,7.26395 -4.85636,8.54893 l -1.17937,2.33632 1.27282,0.7831 c 3.32493,2.0457 14.37598,4.82497 21.7988,5.48228 7.21409,0.63883 31.02586,0.24151 35.38656,-0.59045 7.9525,-1.51723 17.98745,-5.25727 25.32624,-9.4391 5.96926,-3.40144 15.23052,-9.58265 22.40398,-14.95301 15.05995,-11.27453 24.18889,-19.82039 29.13625,-27.2753 7.02127,-10.57997 11.15547,-22.52744 13.13782,-37.9671 0.43951,-3.42317 0.92643,-6.35041 1.08205,-6.50498 0.15562,-0.15456 2.91297,-1.72029 6.12746,-3.47939 12.42949,-6.80195 16.43818,-9.75487 22.24348,-16.38522 3.06739,-3.50332 3.84661,-4.1991 4.13186,-3.68939 0.21897,0.39127 0.043,3.67793 -0.4667,8.7147 -3.36865,33.29096 -9.03235,50.24241 -24.82433,74.29921 -10.08022,15.35576 -18.89937,24.87932 -29.52763,31.8861 -7.48936,4.93742 -15.99444,8.42239 -39.5479,16.20482 -18.07184,5.97121 -27.66261,8.88735 -52.21101,15.87508 -24.28665,6.91323 -33.30148,9.8272 -42.66498,13.79107 -28.94538,12.25352 -47.181,25.84248 -67.4166,50.23805 -3.38876,4.08541 -6.30705,7.42802 -6.48508,7.42802 -0.17802,0 -0.32368,-0.37942 -0.32368,-0.84316 z"
     id="path881" />
</svg>
