<?xml version="1.0" encoding="UTF-8" standalone="no"?>
<svg
   xmlns:dc="http://purl.org/dc/elements/1.1/"
   xmlns:cc="http://creativecommons.org/ns#"
   xmlns:rdf="http://www.w3.org/1999/02/22-rdf-syntax-ns#"
   xmlns:svg="http://www.w3.org/2000/svg"
   xmlns="http://www.w3.org/2000/svg"
   xmlns:xlink="http://www.w3.org/1999/xlink"
   xmlns:sodipodi="http://sodipodi.sourceforge.net/DTD/sodipodi-0.dtd"
   xmlns:inkscape="http://www.inkscape.org/namespaces/inkscape"
   cursor="default"
   viewBox="0 0 256 256"
   version="1.1"
   id="svg53"
   sodipodi:docname="medallion.svg"
   inkscape:version="1.0.2-2 (e86c870879, 2021-01-15)">
  <metadata
     id="metadata57">
    <rdf:RDF>
      <cc:Work
         rdf:about="">
        <dc:format>image/svg+xml</dc:format>
        <dc:type
           rdf:resource="http://purl.org/dc/dcmitype/StillImage" />
      </cc:Work>
    </rdf:RDF>
  </metadata>
  <sodipodi:namedview
     pagecolor="#ffffff"
     bordercolor="#666666"
     borderopacity="1"
     objecttolerance="10"
     gridtolerance="10"
     guidetolerance="10"
     inkscape:pageopacity="0"
     inkscape:pageshadow="2"
     inkscape:window-width="1920"
     inkscape:window-height="1017"
     id="namedview55"
     showgrid="false"
     inkscape:zoom="2.3138125"
     inkscape:cx="136.21203"
     inkscape:cy="142.61623"
     inkscape:window-x="-8"
     inkscape:window-y="-8"
     inkscape:window-maximized="1"
     inkscape:current-layer="svg53"
     inkscape:document-rotation="0" />
  <defs
     id="defs25">
    <linearGradient
       id="innoGrad2">
      <stop
         offset="0"
         stop-color="#f55"
         id="stop2" />
      <stop
         offset="1"
         stop-color="#ff8080"
         id="stop4" />
    </linearGradient>
    <linearGradient
       id="innoGrad3">
      <stop
         offset="0"
         stop-color="#f55"
         id="stop7" />
      <stop
         offset="1"
         stop-color="#ff2a2a"
         id="stop9" />
    </linearGradient>
    <linearGradient
       id="innoGrad1">
      <stop
         offset="0"
         stop-color="#ff7f2a"
         id="stop12" />
      <stop
         offset="1"
         stop-color="#f95"
         id="stop14" />
    </linearGradient>
    <linearGradient
       id="linearGradient1068"
       x1="87.051"
       x2="54.78"
       y1="102.78"
       y2="123.932"
       gradientTransform="translate(6.903 5.37)"
       gradientUnits="userSpaceOnUse"
       xlink:href="#innoGrad1" />
    <linearGradient
       id="linearGradient1076"
       x1="125.831"
       x2="107.39"
       y1="56.949"
       y2="73.763"
       gradientTransform="translate(6.903 5.37)"
       gradientUnits="userSpaceOnUse"
       xlink:href="#innoGrad1" />
    <linearGradient
       id="linearGradient1084"
       x1="184.678"
       x2="165.966"
       y1="32"
       y2="46.373"
       gradientTransform="translate(6.903 5.37)"
       gradientUnits="userSpaceOnUse"
       xlink:href="#innoGrad1" />
    <linearGradient
       id="linearGradient1092"
       x1="53.966"
       x2="38.78"
       y1="163.525"
       y2="179.525"
       gradientTransform="translate(6.903 5.37)"
       gradientUnits="userSpaceOnUse"
       xlink:href="#innoGrad1" />
    <linearGradient
       id="linearGradient1100"
       x1="156.475"
       x2="120.949"
       y1="104.678"
       y2="137.492"
       gradientTransform="translate(6.903 5.37)"
       gradientUnits="userSpaceOnUse"
       xlink:href="#innoGrad1" />
    <linearGradient
       id="linearGradient1108"
       x1="120.136"
       x2="184.678"
       y1="232.136"
       y2="130.712"
       gradientTransform="translate(6.903 5.37)"
       gradientUnits="userSpaceOnUse"
       xlink:href="#innoGrad1" />
    <linearGradient
       id="linearGradient1116"
       x1="82.072"
       x2="27.613"
       y1="213.813"
       y2="231.839"
       gradientTransform="translate(6.903 5.37)"
       gradientUnits="userSpaceOnUse"
       xlink:href="#innoGrad3" />
    <linearGradient
       id="linearGradient1124"
       x1="204.03"
       x2="223.206"
       y1="87.637"
       y2="49.285"
       gradientTransform="translate(6.903 5.37)"
       gradientUnits="userSpaceOnUse"
       xlink:href="#innoGrad2" />
  </defs>
  <path
     style="fill:#000000;stroke-width:0.208369"
     d="m 119.53782,214.79818 c -5.14926,-0.6881 -11.5196,-2.14979 -16.15159,-3.706 -7.669956,-2.57691 -17.44047,-7.77807 -25.192403,-13.41078 -5.74078,-4.17135 -13.523402,-12.26585 -18.437245,-19.17609 -3.675526,-5.16879 -11.162365,-19.46048 -11.473727,-21.90223 -0.09497,-0.74501 -0.05781,-0.85739 0.283908,-0.85739 0.216268,0 0.708286,0.34503 1.093358,0.76673 0.385073,0.42171 1.46366,1.24315 2.396842,1.82542 5.054928,3.15407 8.353696,4.32307 12.220074,4.33044 3.839553,0.008 1.798048,1.22593 24.251566,-14.47612 L 108.78015,134.03 l -5.84602,-0.48174 c -25.092745,-2.06773 -39.790672,-3.09145 -42.720382,-2.97549 -1.847284,0.0732 -2.283006,0.16512 -3.250629,0.6864 -1.123891,0.60547 -2.634482,1.78324 -3.30917,2.58007 -1.836907,2.16945 -6.712989,9.36092 -7.368973,10.8681 -0.536585,1.23286 -0.946698,1.50102 -1.275378,0.8339 -0.208157,-0.42249 -0.867484,-3.91443 -1.402186,-7.42626 -0.484512,-3.18228 -0.477451,-14.02803 0.01207,-18.18473 0.665288,-5.65174 1.769555,-10.69263 3.834495,-17.50409 2.561375,-8.449042 5.576453,-15.015421 9.567371,-20.836292 2.850508,-4.157551 8.447452,-11.436792 10.880521,-14.150939 2.244123,-2.503371 7.103588,-7.219617 7.438857,-7.219617 0.436554,0 0.398046,0.626794 -0.177325,2.885745 -0.869633,3.414318 -1.134546,5.366045 -1.127136,8.303976 0.01207,4.681847 0.694842,7.394847 2.345614,9.316849 1.150475,1.339502 4.613535,3.78952 21.557818,15.251533 3.889643,2.631162 9.700203,6.615325 12.912323,8.853685 3.21215,2.23836 5.80517,4.00737 5.76229,3.93114 -0.0428,-0.0763 -1.32991,-4.65849 -2.86005,-10.182791 -6.63561,-23.956475 -10.10298,-35.567957 -11.08853,-37.133043 -1.15765,-1.838414 -4.299834,-3.849484 -7.71689,-4.938989 -2.724443,-0.868668 -7.52233,-2.057929 -8.312786,-2.060506 -0.396959,-0.0012 -1.061656,-0.06146 -1.477091,-0.133703 -0.643409,-0.111881 -0.726954,-0.187172 -0.563737,-0.507985 0.263115,-0.51714 4.145098,-2.958609 7.820362,-4.918409 5.218399,-2.782665 13.602882,-5.326626 23.160752,-7.027269 6.62468,-1.178734 16.87449,-1.775454 22.91569,-1.334096 9.11157,0.66567 20.24259,3.234304 27.87549,6.432644 2.08256,0.872633 8.24688,4.052239 9.47517,4.887371 0.82809,0.563029 2.37538,2.497709 2.17019,2.713542 -0.0417,0.04385 -1.07901,0.185749 -2.30518,0.315359 -5.93451,0.627289 -10.18989,2.113046 -14.21614,4.963534 -1.77306,1.255283 -2.13537,1.646764 -2.65683,2.870623 -0.2578,0.605069 -1.66205,4.98069 -3.12056,9.723601 -1.45851,4.742911 -4.60843,14.826275 -6.99983,22.407485 -2.3914,7.581202 -4.32251,13.812792 -4.29137,13.847962 0.05,0.0565 28.07646,-18.200735 36.5316,-23.797591 1.7654,-1.168608 3.58397,-2.5094 4.04125,-2.979556 1.75485,-1.804228 2.86599,-5.869043 2.86243,-10.471572 -0.001,-2.114983 -0.13267,-3.230767 -0.74766,-6.365968 -0.41011,-2.090826 -0.69133,-3.893966 -0.62493,-4.006978 1.06216,-1.80779 10.93915,9.095516 16.07539,17.745786 2.22743,3.751363 9.20874,18.001277 11.31503,23.095719 1.36142,3.2928 2.78727,9.80284 3.69431,16.86722 0.69825,5.43824 0.5837,16.61995 -0.2298,22.43123 -0.3644,2.60304 -1.88986,8.98747 -2.38902,9.99858 -0.40801,0.82649 -1.00263,0.90821 -1.4447,0.19853 -0.16994,-0.27281 -0.71898,-1.66875 -1.22011,-3.10209 -1.11002,-3.17496 -1.26207,-3.49273 -2.82538,-5.90423 -2.03358,-3.13694 -4.41505,-5.46087 -7.07551,-6.90447 l -1.07402,-0.58279 -17.77692,-0.0521 c -9.77729,-0.0286 -20.70095,0.0194 -24.27479,0.10678 l -6.49786,0.15898 12.89756,10.80133 c 17.17456,14.38317 23.58647,19.65675 24.62861,20.25617 0.83871,0.48239 0.98318,0.49478 4.72529,0.40522 4.28399,-0.10249 4.01691,-0.0375 9.67178,-2.35428 3.00469,-1.23102 3.96052,-1.74483 4.90587,-2.63721 2.1711,-2.04944 1.71563,0.28053 -1.28613,6.57935 -3.62629,7.60934 -9.1452,14.81916 -16.64374,21.74322 -7.45435,6.88326 -10.73273,9.31839 -18.45497,13.70806 -6.55377,3.72546 -11.58227,5.89697 -18.57483,8.02137 -7.85478,2.38635 -14.96104,3.53026 -20.71975,3.33532 -1.31319,-0.0445 -1.53141,-0.38118 -0.64357,-0.99311 0.92322,-0.6363 5.22719,-4.69776 6.36672,-6.00799 2.11292,-2.42939 4.31439,-6.59506 4.81196,-9.10527 0.28559,-1.44072 0.28087,-1.49726 -0.21569,-2.58693 -0.27922,-0.61271 -3.63009,-10.97117 -7.44639,-23.01882 -3.81629,-12.04766 -6.99928,-21.97631 -7.0733,-22.06367 -0.30587,-0.36101 -18.09706,44.34143 -18.09706,45.47092 0,1.24635 1.06967,5.566 1.70804,6.89759 1.33443,2.78351 4.53633,6.92128 7.14157,9.22896 2.47625,2.19342 2.36428,2.43456 -0.92619,1.99485 z m 19.24554,-0.70871 c 7.26777,-0.6894 18.4773,-3.74856 25.65387,-7.00113 4.76386,-2.15908 14.2821,-7.52107 14.27003,-8.03885 -0.002,-0.0931 -1.40391,-2.20508 -3.11497,-4.69347 -1.71106,-2.48837 -4.6314,-6.73617 -6.48965,-9.43954 -1.85824,-2.70337 -5.69653,-8.28108 -8.52955,-12.39491 -2.83301,-4.11384 -6.10499,-8.87413 -7.27107,-10.57844 -1.16607,-1.70429 -2.46058,-3.57956 -2.87668,-4.16725 -0.4161,-0.5877 -2.79796,-4.04972 -5.29302,-7.69339 -2.49508,-3.64369 -5.00775,-7.29805 -5.58373,-8.12081 -0.57598,-0.82277 -2.82272,-4.07942 -4.99276,-7.23701 l -3.94553,-5.74109 -0.12518,5.84793 c -0.069,3.21637 -0.13743,7.94437 -0.15238,10.50666 l -0.0272,4.65873 5.98909,18.84888 c 7.58288,23.86481 8.11643,25.51726 8.75179,27.10514 0.40468,1.01135 0.4942,1.50801 0.39463,2.18913 -0.37053,2.53437 -1.54054,5.36001 -3.38334,8.1709 -1.02019,1.55613 -3.95077,4.72614 -6.21593,6.72379 -0.69838,0.61589 -1.26978,1.15276 -1.26978,1.19303 0,0.13157 2.08977,0.063 4.21134,-0.1383 z m -20.54473,-2.19268 c -2.37095,-2.49637 -4.62602,-5.58954 -5.67983,-7.79067 -0.70121,-1.46467 -1.75705,-5.97823 -1.75705,-7.51114 0,-0.61753 0.60157,-2.48053 1.52834,-4.73308 0.26597,-0.64645 1.54747,-3.91615 2.84776,-7.26597 1.30031,-3.34983 2.57802,-6.61953 2.8394,-7.26599 0.26136,-0.64648 0.79529,-1.9928 1.1865,-2.99188 1.89397,-4.83667 5.43467,-13.62527 7.23213,-17.95127 0.75541,-1.81808 1.9655,-4.77382 2.44977,-5.98374 0.3528,-0.88145 0.39621,-1.82567 0.52026,-11.31689 l 0.13534,-10.3552 -1.5987,2.03755 c -0.87929,1.12065 -2.55866,3.26913 -3.73193,4.7744 -1.17327,1.50528 -2.5965,3.32488 -3.16271,4.04355 -1.5956,2.02526 -4.69022,5.98062 -6.70716,8.57268 -2.28589,2.9377 -6.24071,8.00406 -8.00733,10.25787 -2.87338,3.66576 -4.26254,5.44203 -11.304363,14.45448 -4.007576,5.12905 -9.069262,11.61446 -11.248207,14.41199 -2.178932,2.79756 -4.533115,5.79851 -5.231493,6.6688 -0.698377,0.87031 -1.269778,1.66681 -1.269778,1.77003 0,0.10315 1.165657,0.99373 2.59035,1.97895 11.983211,8.2868 23.207851,13.28895 34.385611,15.32359 1.39676,0.25424 3.22524,0.58744 4.06331,0.74044 0.83804,0.153 1.63093,0.28803 1.76196,0.30008 0.13102,0.0123 -0.69796,-0.96381 -1.84218,-2.16858 z m 63.48388,-14.74566 c 2.45356,-1.80012 7.75431,-6.32764 10.49397,-8.96323 5.12343,-4.92876 10.30275,-11.38504 13.20662,-16.46273 1.25896,-2.20142 3.73099,-7.29382 4.01726,-8.27561 0.14787,-0.50711 0.13733,-0.51357 -0.33105,-0.20272 -1.3291,0.88207 -8.30857,3.60121 -10.13408,3.94815 -1.96984,0.37436 -7.76259,0.38517 -8.73609,0.0164 -0.63906,-0.24215 -3.39078,-2.37849 -7.7405,-6.0095 -0.84919,-0.70887 -2.58624,-2.15091 -3.86012,-3.20454 -3.18744,-2.63631 -13.47185,-11.24593 -18.24478,-15.27362 -2.16803,-1.82952 -5.09361,-4.28396 -6.50127,-5.45427 l -2.55937,-2.12785 -8.43134,-2.96748 c -4.63723,-1.63211 -9.08649,-3.18606 -9.88727,-3.45321 l -1.45594,-0.48572 2.15327,3.12343 c 1.1843,1.71789 4.50019,6.53739 7.36861,10.71 2.86843,4.17259 8.59036,12.49108 12.7154,18.48551 4.12503,5.99445 11.65177,16.93349 16.72608,24.30901 5.07432,7.3755 9.32624,13.41001 9.4487,13.41001 0.12248,0 0.91082,-0.50487 1.7519,-1.12194 z M 76.503207,194.56341 c 0.14765,-0.15971 1.612215,-2.01093 3.254575,-4.11384 4.83498,-6.19074 11.874272,-15.19782 13.677235,-17.5006 1.942457,-2.48095 14.990443,-19.18854 18.760343,-24.02214 1.41246,-1.81097 3.93946,-5.04086 5.61557,-7.17751 1.6761,-2.13666 4.23598,-5.40758 5.68861,-7.26872 1.45263,-1.86113 3.13121,-3.998 3.73019,-4.74859 0.59895,-0.75058 1.05608,-1.39741 1.01582,-1.43741 -0.0674,-0.0668 -2.43361,0.69322 -7.89506,2.53618 -1.17329,0.39592 -3.5046,1.17358 -5.1807,1.72815 -5.1803,1.71396 -4.9219,1.56544 -14.93261,8.58294 -25.560078,17.91764 -31.275757,21.85075 -32.1245,22.10574 -0.490486,0.14735 -2.074908,0.27427 -3.530893,0.28281 -3.759904,0.0221 -6.307389,-0.66223 -10.056649,-2.70144 -1.508492,-0.82046 -3.266825,-1.85866 -3.907385,-2.30711 l -1.164656,-0.81536 1.916494,3.98824 c 3.976522,8.27518 7.642103,14.5646 10.856167,18.62707 3.309702,4.18335 7.953346,9.25019 11.193694,12.2138 2.89289,2.64584 2.656227,2.49021 3.083755,2.02779 z M 214.68788,149.38795 c 2.02175,-7.38357 2.70705,-13.54371 2.51418,-22.59937 -0.12676,-5.95025 -0.54954,-9.7165 -1.78725,-15.92105 -0.77438,-3.88179 -1.75861,-7.59711 -2.20605,-8.32749 -0.16583,-0.27065 -0.40891,-0.2443 -1.77816,0.19277 -0.87234,0.27844 -2.31746,0.72245 -3.21139,0.98668 -0.89392,0.26421 -3.0881,0.93429 -4.87595,1.48906 -1.78785,0.55476 -3.84488,1.17919 -4.5712,1.38763 -0.72631,0.2084 -2.41765,0.7184 -3.75856,1.13329 -3.63682,1.12529 -8.32561,2.5579 -14.11993,4.31419 -2.84939,0.86365 -6.32352,1.92428 -7.72027,2.35699 -1.39675,0.43268 -3.13381,0.95551 -3.86012,1.16185 -0.72632,0.20635 -2.09768,0.62264 -3.04748,0.92508 -0.9498,0.30244 -2.73257,0.85125 -3.96171,1.21955 -1.22914,0.36831 -3.28617,0.99276 -4.5712,1.38763 -1.28502,0.39491 -3.45685,1.05962 -4.82632,1.47719 -1.36946,0.41754 -3.587,1.09575 -4.92789,1.50714 -1.34088,0.41138 -3.53507,1.08455 -4.87596,1.49595 -1.34087,0.41136 -3.5574,1.09138 -4.92558,1.51113 -5.27448,1.61813 -6.05117,1.88562 -5.89721,2.03101 0.0875,0.0824 4.45588,1.67723 9.7077,3.54375 l 9.54874,3.39364 h 24.98925 24.98926 l 1.19398,0.58828 c 2.801,1.38008 5.48092,4.00914 7.74228,7.5953 1.16683,1.85045 1.97366,3.68289 3.24213,7.3635 0.19241,0.5583 0.41924,1.0151 0.50404,1.0151 0.0848,0 0.30561,-0.55297 0.49067,-1.2288 z m -84.84812,-5.01959 c -0.0487,-0.26584 -0.0902,-0.0987 -0.0925,0.37149 -0.002,0.47014 0.0376,0.68764 0.0884,0.48333 0.0508,-0.20433 0.0528,-0.589 0.003,-0.85482 z m -83.569881,-1.61188 c 1.303604,-2.25659 5.804461,-8.55046 7.07897,-9.899 0.960444,-1.01623 1.827385,-1.68396 2.933933,-2.25975 1.4863,-0.77337 1.691368,-0.82132 3.817432,-0.89281 2.387755,-0.0803 10.869635,0.44935 23.680636,1.47865 4.302016,0.34565 9.330347,0.72682 11.174062,0.84707 1.843705,0.12024 5.820668,0.44755 8.837658,0.72738 l 5.48544,0.50874 8.22818,-2.73765 c 4.52548,-1.50569 8.76368,-2.89684 9.4182,-3.09145 0.65452,-0.19459 1.15735,-0.3863 1.1174,-0.42601 -0.0399,-0.0397 -17.67176,-6.25018 -39.181816,-13.80106 -21.510067,-7.55088 -39.206454,-13.767005 -39.32531,-13.813605 -0.216014,-0.08477 -1.919438,5.300635 -3.121262,9.867745 -0.340229,1.29293 -0.941811,4.22604 -1.336839,6.51801 -1.286407,7.46374 -1.460837,17.2057 -0.420915,23.50762 0.675727,4.0949 0.755303,4.48901 0.904847,4.48105 0.06987,-0.003 0.389056,-0.46043 0.709384,-1.01493 z M 130.03927,128.2311 c -0.0511,-0.20569 -0.0929,-0.0373 -0.0929,0.37398 0,0.41137 0.0418,0.57968 0.0929,0.37399 0.0511,-0.2057 0.0511,-0.54228 0,-0.74797 z m -1.91472,-2.67132 c -0.10945,-0.14692 -1.47311,-1.99815 -3.03021,-4.11383 -1.55709,-2.1157 -4.08687,-5.54866 -5.6217,-7.62883 l -2.79061,-3.78211 -6.54631,-4.56007 c -3.60048,-2.50804 -7.73484,-5.35733 -9.18745,-6.331745 C 99.495636,98.168784 97.392877,96.750947 96.27548,95.992486 95.158072,95.234013 92.872465,93.683075 91.196368,92.545928 82.727147,86.800131 76.88262,82.616745 76.019951,81.683 c -2.039369,-2.207392 -2.581637,-4.088445 -2.737505,-9.496179 -0.09919,-3.439671 -0.06577,-3.956123 0.416304,-6.434411 0.288252,-1.482008 0.581669,-2.852395 0.65205,-3.045302 0.293465,-0.804445 -0.438063,-0.166871 -3.704647,3.228826 -3.569618,3.710712 -8.139322,9.426837 -12.214836,15.279221 -3.640433,5.2276 -5.486222,8.701912 -7.933277,14.932801 l -0.80758,2.056319 39.240943,13.795315 c 21.582507,7.58742 39.274967,13.80251 39.316597,13.81131 0.0417,0.009 -0.0139,-0.10425 -0.12345,-0.25112 z m 5.6348,-0.32547 c 0.72632,-0.24281 2.64623,-0.84385 4.26646,-1.33564 1.62025,-0.49179 3.81442,-1.16431 4.87595,-1.49445 1.06154,-0.33015 3.07287,-0.94551 4.46964,-1.36748 1.39675,-0.42196 3.45378,-1.04921 4.5712,-1.39389 2.28816,-0.70581 5.50981,-1.6884 9.85348,-3.00528 1.62025,-0.49122 4.01961,-1.22287 5.33193,-1.62593 2.86109,-0.87869 6.35436,-1.94415 9.39751,-2.86623 3.25933,-0.98759 6.78538,-2.06306 9.44716,-2.88146 1.28502,-0.39509 3.52491,-1.07453 4.97754,-1.50987 1.45263,-0.43533 3.50967,-1.05929 4.5712,-1.38655 1.06154,-0.32727 3.25572,-0.99496 4.87595,-1.48376 1.62024,-0.4888 3.81442,-1.1592 4.87596,-1.48977 1.06153,-0.33058 3.13172,-0.96866 4.60039,-1.41797 2.64777,-0.81001 2.66874,-0.82139 2.47941,-1.34517 -0.41306,-1.142825 -6.10448,-12.952271 -7.99215,-16.583389 -3.08577,-5.935783 -5.9169,-10.154966 -10.47349,-15.608482 -2.47329,-2.960149 -6.13039,-6.561739 -6.36937,-6.272702 -0.0379,0.04577 0.14428,1.189153 0.40472,2.540841 0.96525,5.009695 1.00967,8.16523 0.17679,12.557812 -0.42151,2.222986 -1.50444,4.524382 -2.58808,5.500077 -1.03212,0.929282 -6.40848,4.513778 -22.59806,15.066461 -2.57003,1.675197 -5.58703,3.645592 -6.70443,4.378652 -2.55174,1.67401 -9.13884,5.9639 -10.80485,7.0367 -1.00136,0.64483 -1.78419,1.48313 -3.86012,4.13372 -1.43223,1.82868 -3.51828,4.4886 -4.63569,5.91094 -5.1493,6.55454 -5.24607,6.68669 -4.75689,6.49615 0.158,-0.0615 0.88153,-0.31055 1.60784,-0.55333 z m -0.65815,-3.0404 c 0.96644,-1.23415 2.37842,-3.03729 3.13773,-4.00697 0.7593,-0.9697 2.00223,-2.55645 2.76206,-3.52615 0.75981,-0.96967 1.98696,-2.53757 2.72699,-3.48419 0.74002,-0.94662 1.48579,-2.05255 1.65726,-2.45762 0.26456,-0.62493 7.76394,-24.484177 13.02766,-41.447386 0.8571,-2.762144 1.74505,-5.373267 1.97323,-5.802494 0.66272,-1.246606 3.67706,-3.382511 6.97892,-4.945117 2.48397,-1.175545 7.95158,-2.50213 10.3127,-2.50213 h 1.02906 l -0.70014,-0.762148 c -0.74741,-0.813616 -7.244,-4.309685 -10.65521,-5.734 -6.86033,-2.864457 -17.35566,-5.283672 -26.51298,-6.111352 -2.81708,-0.254621 -7.92358,-0.275996 -8.28509,-0.03469 -0.21079,0.140693 -0.21795,3.148062 -0.0378,15.864361 0.12228,8.629917 0.1936,27.500183 0.15851,41.933932 -0.0615,25.334504 -0.0511,26.226174 0.30307,25.751534 0.20177,-0.27041 1.15759,-1.50143 2.12403,-2.73558 z m -3.49562,-35.261404 c -0.0639,-20.040239 -0.17271,-38.494546 -0.24184,-41.009575 l -0.1257,-4.57278 -2.5645,0.137933 c -6.3283,0.34037 -11.82503,1.199907 -18.81769,2.942558 -8.749318,2.180438 -12.483093,3.640645 -18.476319,7.225711 -3.345338,2.001132 -3.271917,1.748794 -0.663671,2.281237 7.89365,1.611395 13.18805,4.181155 14.86425,7.214711 0.70611,1.277898 3.38052,9.919235 6.02759,19.475889 0.32556,1.175381 0.80868,2.858307 1.07357,3.739849 0.26491,0.881531 0.86815,2.997211 1.34054,4.701521 0.4724,1.704295 1.11464,4.012318 1.42723,5.128935 1.03718,3.705066 2.47318,8.915125 3.67958,13.350215 0.32802,1.20593 0.70292,2.01947 1.28389,2.78612 0.9546,1.2597 0.99505,1.31446 5.5083,7.45642 1.89138,2.57391 3.8942,5.31001 4.45074,6.08025 l 1.01189,1.40044 0.16914,-0.95132 c 0.093,-0.52323 0.11694,-17.34788 0.053,-37.388114 z m 0.44089,-27.83132 c -0.0452,-0.384103 -0.0831,-0.121359 -0.0843,0.583863 -10e-4,0.705227 0.0358,1.019495 0.0822,0.698369 0.0463,-0.321124 0.0473,-0.898129 0.002,-1.282232 z M 129.83945,42.42833 c -0.0483,-0.264462 -0.0881,-0.04808 -0.0881,0.480836 0,0.528922 0.0396,0.745299 0.0881,0.480839 0.0483,-0.264461 0.0483,-0.697215 0,-0.961675 z"
     id="path44" />
  <path
     style="fill:#000000;stroke-width:0.520936"
     d="M 113.36207,246.32397 C 102.96476,245.06263 93.920579,242.74424 82.26373,238.35223 76.287571,236.10057 66.165469,230.60575 58.606061,225.50957 48.13264,218.44896 35.010718,205.38113 28.280757,195.30931 24.081018,189.02414 23.391457,187.8809 20.270952,182.02965 16.003752,174.02823 11.549305,161.66092 9.4584388,152.00983 7.1621888,141.41074 6.5065621,125.45337 7.8757563,113.48884 9.5682287,98.699407 14.227511,84.098549 21.439835,70.982918 22.082623,69.814008 22.863789,68.379417 23.175758,67.794962 27.031362,60.571714 36.252095,49.102494 44.762,40.944898 54.332982,31.770154 70.165829,21.498477 81.088926,17.377535 c 1.035905,-0.390817 3.49233,-1.31688 5.45872,-2.057923 12.68822,-4.781603 27.247624,-7.2930531 42.299434,-7.2965121 16.09263,-0.00372 29.97655,2.7227541 47.33735,9.2958631 4.07134,1.541484 15.97453,7.94897 20.69571,11.140491 11.51914,7.786973 22.82381,18.665819 30.93699,29.771681 7.63947,10.457414 14.26709,24.151114 18.00095,37.192688 4.22546,14.758727 5.4429,31.317457 3.43769,46.756517 -1.25015,9.62547 -2.12565,13.64881 -4.57929,21.04418 -3.13717,9.45552 -3.53613,10.47497 -6.31561,16.13816 -9.28249,18.91299 -23.3881,35.07092 -41.06799,47.04326 -5.87728,3.97993 -17.80688,10.33489 -22.89608,12.19689 -8.45423,3.09314 -12.54301,4.30589 -20.68541,6.1354 -10.02427,2.25233 -28.77895,2.98941 -40.34932,1.58574 z m 29.11279,-1.83448 c 12.17572,-1.49061 19.71221,-3.39708 32.68805,-8.26896 4.31722,-1.62094 16.08095,-7.99886 21.19618,-11.49193 25.26797,-17.25487 42.40156,-42.2809 49.46919,-72.25681 3.38605,-14.3613 3.39169,-34.63923 0.0134,-49.60943 -1.08878,-4.825226 -4.11662,-14.746646 -5.43204,-17.799351 -2.69339,-6.250601 -6.0434,-13.211414 -7.23513,-15.033512 -0.72522,-1.108834 -1.31858,-2.127432 -1.31858,-2.263577 0,-0.32544 -3.02773,-4.826254 -6.59281,-9.800446 C 219.54725,49.990419 207.19961,38.017938 198.16895,31.694493 177.62151,17.30653 154.42281,10.012271 128.93996,9.9270451 92.81699,9.8062408 60.113986,24.871659 36.422492,52.547446 21.293733,70.220468 12.238531,91.5221 9.3873342,116.14547 c -3.2187946,27.79797 5.5805018,58.63381 23.4629758,82.22254 4.05917,5.35444 14.768897,16.28158 20.010376,20.41663 18.340394,14.46883 39.366793,23.23926 61.522884,25.66214 3.2305,0.35328 6.21839,0.71219 6.63976,0.79756 2.62642,0.53226 14.29076,0.12176 21.45153,-0.75485 z M 123.83245,222.13076 C 100.01799,220.33231 78.735743,209.88379 62.105001,191.82572 48.310039,176.84681 40.417568,159.44781 38.025614,138.7426 37.065217,130.42921 37.06367,126.33365 38.01775,117.98924 40.743573,94.149616 50.821446,74.713608 69.361197,57.540797 75.239995,52.095448 89.217526,43.588605 97.018028,40.708623 c 11.425662,-4.218415 18.391162,-5.595501 30.134302,-5.957575 14.33665,-0.442041 21.49595,0.545698 34.2203,4.721225 19.38376,6.360832 37.11712,20.240843 48.40455,37.886537 6.44755,10.079495 10.6094,20.336967 13.25806,32.67643 1.18575,5.52412 1.31526,7.25695 1.35013,18.06501 0.0432,13.40322 -0.63037,18.19388 -4.08346,29.04286 -8.83621,27.76175 -29.94758,49.62857 -57.90776,59.97989 -10.68866,3.95712 -26.05312,5.95241 -38.56171,5.00776 z m 24.06995,-3.10842 c 14.08986,-2.98457 23.86751,-7.08873 35.43253,-14.87276 10.59908,-7.13389 22.01241,-19.66835 27.88227,-30.62112 3.61507,-6.74551 6.18856,-12.79336 7.87619,-18.50954 4.87664,-16.51778 4.9474,-36.88069 0.18309,-52.68788 C 214.56287,86.691996 205.1605,71.401479 194.06072,61.324117 178.33458,47.046565 161.68352,39.255758 141.96412,36.948816 113.53913,33.623416 85.85272,43.371375 65.967952,63.70591 59.841153,69.971282 58.120066,72.066023 54.313844,77.890133 44.293783,93.22237 39.303191,110.12428 39.303191,128.72756 c 0,15.96619 3.816206,30.47293 11.81514,44.91346 8.539806,15.41698 22.371956,28.65943 38.493822,36.85277 10.452167,5.3119 18.440517,7.72981 32.177317,9.73942 0.84272,0.12324 5.89917,0.14782 11.23651,0.0544 7.26781,-0.12715 11.00284,-0.44479 14.87642,-1.26531 z"
     id="path74" />
  <path
     style="fill:#ffaaaa;stroke-width:0.305602"
     d="m 123.23295,245.26717 c -3.05854,-0.22465 -14.41464,-1.70908 -17.41934,-2.27701 C 93.473479,240.65773 81.011399,236.12034 69.905323,229.91611 64.983855,227.16681 57.378675,222.12058 53.646502,219.12795 47.471719,214.17674 38.010072,204.61387 33.30653,198.57039 22.310722,184.44211 14.007882,165.57162 10.649645,147.07638 9.0405153,138.21421 8.5131193,126.22974 9.3720352,118.04414 12.41268,89.066362 23.530943,65.288712 43.316302,45.450526 62.459469,26.256251 85.828531,14.701794 112.84247,11.074437 c 6.142,-0.82473 18.45687,-1.1314463 25.0594,-0.624133 15.36601,1.180667 28.92072,4.72358 42.49614,11.107587 7.11673,3.346732 16.53011,9.172237 22.23909,13.762744 6.7634,5.438355 15.71471,14.234009 20.27476,19.922203 9.29407,11.593387 16.30982,25.222046 20.84954,40.501915 3.29405,11.087167 4.74198,22.866337 4.35641,35.440297 -0.30109,9.81906 -1.09526,15.87188 -3.11961,23.77641 -7.12556,27.82326 -23.46285,51.64958 -46.77599,68.21818 -4.26755,3.03295 -10.76948,6.80584 -17.3832,10.08701 -13.92677,6.90928 -31.17918,11.16844 -47.62059,11.75626 -2.55058,0.0912 -5.53131,0.20617 -6.62384,0.25553 -1.09253,0.0494 -2.60526,0.0443 -3.36163,-0.0113 z m 13.90491,-23.02016 c 11.70241,-0.84193 21.75407,-3.18884 30.77281,-7.18499 11.76161,-5.2115 21.75107,-12.10961 30.36677,-20.96945 11.69703,-12.02846 19.43244,-25.8536 23.82706,-42.58496 2.04052,-7.76876 2.12232,-8.66816 2.12639,-23.37859 l 0.004,-13.2937 -0.85886,-3.97283 C 218.23445,87.080484 207.11796,68.752282 189.12944,54.399339 178.78665,46.146878 167.18662,40.497663 153.33479,36.967349 c -7.89571,-2.012323 -9.75784,-2.200591 -21.69777,-2.193722 -7.03017,0.004 -11.69112,0.141928 -13.59931,0.402306 C 105.43507,36.8956 95.081859,40.509799 84.038385,47.044741 76.45306,51.533338 71.671968,55.050565 66.935707,59.626385 50.766171,75.248174 41.399209,93.30901 38.302485,114.83532 c -1.046328,7.27335 -1.346439,12.88114 -0.965281,18.03697 1.361347,18.41464 6.255515,33.57201 15.146028,46.90763 19.337726,29.00629 50.997668,44.88853 84.654628,42.46709 z"
     id="path76" />
  <path
     style="fill:#ffccaa;stroke-width:0.108047"
     d="m 126.89435,121.7414 c -1.3344,-1.82733 -3.69227,-5.03536 -5.23972,-7.12896 -3.62744,-4.90768 -3.78292,-5.13467 -4.09908,-5.98453 -0.14633,-0.39332 -0.58957,-1.90058 -0.98499,-3.34945 -3.03056,-11.10454 -8.14699,-29.205364 -9.95267,-35.21042 -1.29841,-4.318047 -2.54124,-8.035018 -2.97393,-8.894205 -0.39157,-0.777537 -1.7364,-2.175513 -2.74766,-2.856238 -2.700057,-1.817533 -6.69395,-3.276052 -12.079356,-4.411228 -0.9487,-0.199973 -1.777289,-0.416161 -1.841308,-0.480418 -0.159778,-0.16037 0.03353,-0.294678 2.582652,-1.794383 5.70914,-3.358815 9.02051,-4.703705 16.309582,-6.624022 6.18419,-1.629236 11.45501,-2.623773 16.59278,-3.130849 2.60628,-0.257228 6.56874,-0.499191 6.66117,-0.406756 0.15632,0.15632 0.24837,8.149887 0.36479,31.677432 0.13312,26.902177 0.1025,51.125037 -0.0653,51.619337 -0.0962,0.28362 -0.21109,0.14612 -2.52701,-3.02531 z"
     id="path98" />
  <path
     style="fill:#ffccaa;stroke-width:0.108047"
     d="m 130.82593,124.73258 c -0.0602,-0.0935 -0.1046,-11.18895 -0.11206,-27.976984 -0.007,-15.302126 -0.0735,-33.218984 -0.14818,-39.81524 -0.14956,-13.205477 -0.13705,-15.354511 0.0902,-15.494771 0.27305,-0.168511 2.98156,-0.231388 5.41864,-0.125792 9.45766,0.409791 22.13109,3.180153 29.82091,6.518733 3.93859,1.709962 9.77461,4.966752 10.35118,5.77648 l 0.22891,0.321462 -1.21128,0.06702 c -2.08107,0.115146 -5.37919,0.831566 -8.0954,1.75849 -3.17656,1.084023 -7.79345,3.987083 -8.71675,5.481019 -0.33362,0.539801 -1.3002,3.475627 -4.13282,12.552658 -5.24402,16.804352 -9.46756,30.236045 -10.43027,33.170365 -0.48336,1.47328 -0.71534,2.00786 -1.17214,2.70117 -0.31324,0.4754 -2.9691,3.93093 -5.90193,7.67894 -2.93282,3.74801 -5.45771,6.97811 -5.61087,7.17798 -0.22304,0.29109 -0.2983,0.33258 -0.37816,0.20847 z"
     id="path100" />
  <path
     style="fill:#ffccaa;stroke-width:0.108047"
     d="m 132.1441,125.57708 c 0.24002,-0.40504 7.84194,-10.14637 10.34994,-13.26275 1.85282,-2.30225 1.83395,-2.28745 8.19462,-6.42878 10.60227,-6.902976 24.93445,-16.285772 28.65862,-18.761837 6.29976,-4.188469 6.63528,-4.465544 7.54837,-6.233465 0.68406,-1.324453 1.0808,-2.600468 1.43828,-4.625809 0.28196,-1.597513 0.3023,-1.911898 0.30291,-4.683744 4.3e-4,-1.855131 -0.0496,-3.275693 -0.13303,-3.781638 -0.0735,-0.445693 -0.31278,-1.842929 -0.53169,-3.10497 -0.21891,-1.26204 -0.36622,-2.326417 -0.32736,-2.365281 0.11764,-0.117637 1.02164,0.668134 2.61525,2.273212 3.60514,3.631078 7.5258,8.569067 10.4011,13.099945 1.83532,2.892093 3.45301,5.91062 6.44298,12.022322 3.66297,7.487341 5.28896,10.991645 5.20347,11.214425 -0.11198,0.29181 0.14247,0.21088 -18.31994,5.82677 -35.05119,10.66187 -59.17908,18.04097 -60.87762,18.61838 -1.11227,0.37811 -1.07052,0.36976 -0.9659,0.19322 z"
     id="path102" />
  <path
     style="fill:#ffccaa;stroke-width:0.108047"
     d="m 213.8254,149.72553 c -0.15291,-0.40112 -0.52548,-1.41001 -0.82793,-2.24197 -2.15709,-5.93357 -5.78254,-10.49946 -10.22936,-12.88286 l -1.05514,-0.56553 -25.02496,-0.002 -25.02495,-0.002 -5.44424,-1.93561 c -7.53567,-2.67918 -12.42462,-4.44266 -13.36741,-4.82171 -0.33434,-0.13442 -0.42688,-0.21459 -0.32414,-0.28079 0.0791,-0.051 0.80019,-0.3083 1.60243,-0.57186 1.81053,-0.59481 28.35682,-8.7319 37.22212,-11.40948 2.13933,-0.64614 7.46333,-2.26576 11.83113,-3.59916 4.36779,-1.33339 9.57024,-2.91969 11.561,-3.5251 1.99076,-0.60542 6.77994,-2.06492 10.64261,-3.24334 6.6707,-2.03509 7.26297,-2.20472 7.59413,-2.17506 0.54284,0.0486 2.27835,7.13777 3.25655,13.3022 1.16267,7.32701 1.25362,17.8106 0.2165,24.95881 -0.52905,3.64646 -1.93918,9.72421 -2.25616,9.72421 -0.0518,0 -0.21927,-0.32819 -0.37218,-0.72932 z"
     id="path104" />
  <path
     style="fill:#ffccaa;stroke-width:0.108047"
     d="m 178.95828,196.80659 c -2.463,-3.38753 -4.92492,-6.94916 -29.21444,-42.26397 -8.66507,-12.59826 -16.23831,-23.60214 -16.82942,-24.45307 -0.59111,-0.85094 -1.04685,-1.57504 -1.01277,-1.60912 0.0709,-0.0709 -0.0671,-0.11812 11.03387,3.77474 7.17709,2.51685 8.38621,2.97146 8.80463,3.31045 0.26676,0.21612 4.71559,3.94359 9.88628,8.28326 21.41579,17.97391 27.09533,22.63424 28.38821,23.29381 0.57746,0.2946 2.95968,0.45914 5.37759,0.37143 2.55418,-0.0926 3.56529,-0.21741 4.76547,-0.58801 2.43023,-0.75041 6.29412,-2.26637 8.17313,-3.20664 0.60912,-0.30481 1.10748,-0.51785 1.10748,-0.47342 0,0.37903 -3.0042,6.58133 -4.15785,8.58405 -3.20257,5.55964 -9.21524,12.81339 -14.85838,17.92531 -4.05816,3.67615 -8.73543,7.48759 -10.32006,8.40966 -0.0603,0.0351 -0.57498,-0.57623 -1.14374,-1.35848 z"
     id="path106" />
  <path
     style="fill:#ffccaa;stroke-width:0.108047"
     d="m 135.48029,213.46581 c 2.48756,-2.22146 5.64777,-5.63931 6.72332,-7.27142 1.8621,-2.82568 3.29507,-6.56855 3.28544,-8.58143 -0.002,-0.48138 -0.13761,-0.99388 -0.59058,-2.2369 -0.32319,-0.88685 -0.74228,-2.09867 -0.93133,-2.69293 -0.18905,-0.59426 -0.79889,-2.49048 -1.3552,-4.21382 -0.55631,-1.72335 -3.54832,-11.10721 -6.64892,-20.85303 l -5.63745,-17.71967 0.13076,-9.12996 c 0.0719,-5.02147 0.16207,-9.66105 0.20033,-10.31018 l 0.0696,-1.18023 3.34365,4.85382 c 16.75829,24.32719 41.29956,60.01611 42.93404,62.43642 l 1.67393,2.47873 -0.33281,0.27646 c -1.17401,0.97523 -7.86641,4.7451 -12.17946,6.86076 -4.70792,2.30936 -10.61667,4.36701 -17.23347,6.00134 -4.91825,1.21479 -10.40948,2.05318 -13.45182,2.05378 l -0.86437,2.2e-4 0.86437,-0.77191 z"
     id="path108" />
  <path
     style="fill:#ffccaa;stroke-width:0.108047"
     d="m 116.13992,213.31784 c -3.86132,-0.71397 -6.0011,-1.19853 -8.58972,-1.94518 -6.82838,-1.96953 -13.722762,-5.06073 -20.880879,-9.36225 -3.936987,-2.36585 -9.256014,-5.99162 -9.261966,-6.31352 -0.0027,-0.14366 0.569046,-0.91284 2.440807,-3.28387 0.774052,-0.98053 5.393402,-6.88799 10.265221,-13.12769 4.871821,-6.2397 12.182297,-15.59925 16.245517,-20.799 4.06321,-5.19976 10.86295,-13.90292 15.11054,-19.34038 4.24758,-5.43745 7.79178,-9.95921 7.876,-10.04835 0.1322,-0.13993 0.14381,0.50955 0.085,4.75406 -0.11851,8.55408 -0.26803,14.83381 -0.36956,15.5218 -0.0692,0.46903 -0.95012,2.74861 -2.98529,7.72534 -3.09707,7.57343 -7.05652,17.48061 -9.88174,24.72563 -0.96169,2.46617 -2.44879,6.26909 -3.30466,8.45093 -1.75624,4.4771 -2.09759,5.53596 -2.09759,6.50674 0,1.25136 0.80935,4.98824 1.45236,6.70571 0.83466,2.22939 3.06657,5.34088 6.46923,9.01874 1.18807,1.28415 1.26596,1.41073 0.86101,1.39921 -0.16551,-0.005 -1.71094,-0.26927 -3.43428,-0.58792 z"
     id="path110" />
  <path
     style="fill:#ffccaa;stroke-width:0.108047"
     d="m 75.024499,193.90722 c -1.230945,-1.06661 -6.152747,-5.98052 -7.61387,-7.60167 -2.391085,-2.65296 -5.027576,-5.82384 -6.329819,-7.6128 -1.565387,-2.15047 -3.59388,-5.44981 -5.580036,-9.07593 -1.343484,-2.4528 -5.851921,-11.49034 -5.771934,-11.57033 0.02478,-0.0248 0.308341,0.14273 0.630134,0.37225 0.904912,0.64542 3.617789,2.20529 5.3077,3.05186 1.616049,0.80956 3.472756,1.48218 4.881601,1.76844 2.360585,0.47962 6.763877,0.42937 7.895763,-0.0901 1.067886,-0.49011 6.418944,-4.16709 25.394588,-17.44989 6.239704,-4.36774 12.293024,-8.56925 13.451824,-9.33669 3.29866,-2.18461 3.52304,-2.27895 12.65703,-5.32124 4.39246,-1.46302 8.02908,-2.64431 8.08139,-2.62508 0.11566,0.0425 0.61145,-0.60244 -7.46075,9.70514 -3.65325,4.66492 -11.42696,14.60792 -17.27491,22.09557 -28.305974,36.24261 -26.951341,34.52094 -27.161647,34.52094 -0.08175,0 -0.579925,-0.37371 -1.107064,-0.83047 z"
     id="path112" />
  <path
     style="fill:#ffccaa;stroke-width:0.108047"
     d="m 45.390289,143.15411 c -0.215884,-0.9319 -0.872064,-5.11408 -1.062438,-6.77148 -0.271698,-2.3654 -0.26874,-11.4605 0.0046,-14.27038 0.579741,-5.95873 1.491014,-10.77177 3.058314,-16.153 0.975652,-3.34984 2.013675,-6.482805 2.1479,-6.482805 0.04043,0 61.326415,21.530165 71.795855,25.222345 3.47532,1.22562 6.35589,2.26553 6.40127,2.31091 0.0454,0.0454 -0.3427,0.21826 -0.8624,0.38418 -0.5197,0.16592 -4.71073,1.54222 -9.3134,3.05844 l -8.3685,2.75677 -3.03044,-0.28221 c -4.90232,-0.45653 -7.658904,-0.68876 -11.674184,-0.98348 -2.079901,-0.15267 -7.209422,-0.54407 -11.398936,-0.86977 -15.223704,-1.18353 -21.716425,-1.55091 -23.985712,-1.35717 -1.260531,0.10761 -1.407658,0.14514 -2.344311,0.59797 -1.331085,0.64353 -2.198731,1.24635 -3.116712,2.16542 -1.25265,1.25414 -5.16084,6.60248 -7.127892,9.7545 -0.453743,0.72708 -0.865315,1.34689 -0.914603,1.37735 -0.04929,0.0305 -0.143092,-0.17545 -0.208452,-0.45759 z"
     id="path114" />
  <path
     style="fill:#ffccaa;stroke-width:0.108047"
     d="m 111.28818,119.7989 c -9.18127,-3.23204 -26.757784,-9.41136 -39.058911,-13.73181 -12.301126,-4.32046 -22.384205,-7.868904 -22.406841,-7.885437 -0.06207,-0.04533 0.870285,-2.40612 1.954156,-4.948078 1.674241,-3.926533 3.217458,-6.774628 5.591648,-10.319703 3.824765,-5.711037 8.753009,-12.016582 12.694852,-16.242696 1.550515,-1.662334 4.147032,-4.238558 4.20638,-4.173508 0.02247,0.02463 -0.09829,0.701168 -0.26835,1.503416 -0.766945,3.617918 -0.792047,3.837256 -0.772856,6.752924 0.04294,6.523735 0.604426,8.726745 2.782649,10.917828 1.545444,1.554567 6.572728,5.133637 19.340374,13.76897 6.530739,4.417034 10.570329,7.185464 16.044089,10.995404 l 5.23942,3.64683 4.78055,6.4828 c 2.6293,3.56555 5.21862,7.07842 5.75404,7.80638 0.53542,0.72797 0.93716,1.31897 0.89276,1.31335 -0.0444,-0.006 -7.59268,-2.65463 -16.77396,-5.88667 z"
     id="path116" />
  <path
     style="fill:#ffeeaa;stroke-width:0.216094"
     d="m 122.24082,220.10524 c -4.94921,-0.41707 -14.99214,-2.62748 -20.28757,-4.46521 -21.483961,-7.4558 -39.873578,-22.71998 -50.715004,-42.09566 -4.924699,-8.80137 -8.507103,-18.52168 -10.233862,-27.76802 -2.476241,-13.25963 -2.018959,-27.54781 1.293274,-40.4095 3.143572,-12.20677 9.237621,-24.455472 17.03583,-34.241084 2.497981,-3.134601 11.357703,-11.905787 14.826515,-14.678351 3.006942,-2.4034 8.949787,-6.455504 11.993193,-8.17751 14.487974,-8.197519 30.619814,-12.218011 47.216444,-11.767618 23.33911,0.633369 43.16704,8.873469 61.04643,25.369713 12.2265,11.280655 22.37212,29.09997 26.11765,45.87188 1.33477,5.97689 1.85542,10.6229 2.01268,17.96015 0.3635,16.95909 -2.49244,29.97525 -9.76167,44.48948 -3.57322,7.13455 -7.32541,12.61361 -13.09769,19.12569 -5.74046,6.47619 -12.09485,11.97744 -18.79157,16.26863 -9.27479,5.9432 -17.74648,9.58276 -28.54139,12.2618 -5.15341,1.27895 -7.96478,1.74975 -12.06945,2.02117 -4.71409,0.31171 -15.46871,0.45145 -18.04381,0.23444 z m 0.0538,-5.33655 c 0.048,-0.1461 -0.96709,-1.313 -2.25571,-2.59312 -5.0091,-4.97602 -7.19053,-8.77625 -8.11095,-14.1299 l -0.24585,-1.42994 1.04121,-2.78389 c 5.19531,-13.89077 16.70228,-42.37996 16.98755,-42.05812 0.0786,0.0887 1.12073,3.22442 2.31577,6.96824 1.19504,3.74382 4.08133,12.78734 6.41397,20.0967 2.33265,7.30937 4.66866,14.53579 5.19115,16.05873 l 0.94998,2.76897 -0.41163,1.60944 c -0.522,2.04102 -2.30324,5.5205 -3.93394,7.68461 -0.6941,0.92114 -2.66889,2.96609 -4.38842,4.54434 -1.71954,1.57826 -3.12643,2.98241 -3.12643,3.12034 0,0.55934 2.10299,0.6593 6.26671,0.29789 9.17331,-0.79624 20.6521,-4.15595 29.45068,-8.61987 7.75241,-3.93315 13.38358,-7.5925 18.62508,-12.10328 11.8058,-10.15994 18.77942,-19.16603 23.05358,-29.77257 0.67869,-1.68419 1.05834,-3.74046 0.69062,-3.74046 -0.10681,0 -0.84839,0.47694 -1.64797,1.05986 -1.49327,1.08865 -5.20197,2.77789 -8.69337,3.95966 -1.77231,0.59989 -2.26198,0.66778 -5.51984,0.76524 -3.07324,0.0919 -3.67407,0.0557 -4.28086,-0.25806 -1.10284,-0.5703 -11.0654,-8.77021 -33.50968,-27.5809 l -3.98134,-3.33679 3.11697,-0.13492 c 1.71434,-0.0742 12.52387,-0.14713 24.02118,-0.16207 l 20.90421,-0.0272 1.56341,0.9184 c 2.18453,1.28327 4.7786,3.9069 6.59227,6.66742 1.18792,1.80807 1.76967,3.00649 2.75749,5.68042 1.23753,3.34988 1.62705,3.95701 2.35859,3.67629 0.47837,-0.18357 1.05332,-1.8801 1.95675,-5.77386 1.3308,-5.73574 1.49639,-7.61064 1.51125,-17.11125 0.0135,-8.63552 -0.0147,-9.06412 -0.98793,-15.0185 -1.14367,-6.99702 -2.22402,-10.62921 -4.88485,-16.423109 -2.48739,-5.416232 -8.41002,-17.186389 -9.78626,-19.448422 -3.54573,-5.827881 -10.64123,-14.367611 -13.80295,-16.612409 -0.85248,-0.605258 -2.18254,-0.92319 -2.18254,-0.52171 0,0.08435 0.30976,1.85902 0.68836,3.943707 1.09575,6.033638 0.89146,10.641472 -0.64169,14.473373 -1.00532,2.512669 -0.73659,2.316039 -23.06063,16.87315 -14.60556,9.52403 -18.31542,11.89741 -18.42525,11.78758 -0.12801,-0.128 -0.28496,0.38548 7.33089,-23.983298 3.56277,-11.399941 6.70731,-21.180163 6.98788,-21.733829 0.54715,-1.079751 1.76172,-2.106439 4.29097,-3.627191 3.12827,-1.880919 6.73577,-3.017251 11.56992,-3.644425 1.49812,-0.194364 2.80912,-0.429937 2.91333,-0.523496 0.27618,-0.247954 -0.61984,-1.586681 -1.65504,-2.472778 -0.49208,-0.421202 -3.08641,-1.864556 -5.76518,-3.207454 -3.67319,-1.841411 -5.77356,-2.741134 -8.54408,-3.659968 -6.1383,-2.035748 -12.45696,-3.474998 -19.34038,-4.405305 -3.58297,-0.484246 -14.44652,-0.545263 -19.01623,-0.106807 -10.26094,0.984518 -21.66871,3.697787 -28.752695,6.838655 -3.533208,1.56654 -10.164287,5.557389 -10.443655,6.28541 -0.156275,0.407244 0.04526,0.494472 1.512793,0.65476 2.946637,0.32184 9.136447,2.038049 11.646391,3.229121 1.960416,0.930299 3.966866,2.421813 4.702566,3.495712 0.72881,1.063818 1.8978,4.496256 4.25285,12.487284 2.43882,8.275299 9.78938,34.484719 9.69673,34.574969 -0.0386,0.0376 -2.25816,-1.44398 -4.93231,-3.29243 -2.67416,-1.84845 -9.57835,-6.571608 -15.342647,-10.495908 -11.49937,-7.82871 -14.791773,-10.102219 -16.747252,-11.564516 -3.924823,-2.934957 -4.784119,-4.703363 -5.01423,-10.319144 -0.135906,-3.316745 0.0647,-5.251383 0.924547,-8.916457 0.637854,-2.718825 0.670165,-3.492033 0.145976,-3.493213 -0.695182,-0.0015 -8.394321,8.056519 -11.461873,11.996246 -6.09227,7.824435 -8.640098,11.617108 -11.176348,16.637003 -3.925243,7.769072 -7.500413,19.450059 -8.878395,29.007969 -0.869356,6.03 -0.752739,17.92549 0.229351,23.39472 0.949145,5.28577 1.137724,5.60368 2.228,3.75599 2.42592,-4.11119 6.553587,-10.05615 7.955479,-11.45804 1.423091,-1.42309 3.081785,-2.41895 4.505061,-2.70479 0.985088,-0.19783 2.38775,-0.19719 6.155074,0.003 7.763403,0.4122 43.159777,3.12481 43.357687,3.32272 0.0758,0.0758 -30.030263,21.15582 -35.221243,24.6616 -1.910313,1.29015 -4.056749,2.65154 -4.769858,3.02531 -1.260208,0.66053 -1.369268,0.67861 -3.889684,0.6446 -2.092708,-0.0282 -2.962312,-0.14398 -4.506246,-0.59977 -3.000086,-0.88567 -7.048508,-3.03104 -9.600878,-5.08777 -1.569054,-1.26435 -1.991847,-1.35865 -1.991847,-0.44423 0,2.41178 7.977523,17.60185 12.281509,23.38532 3.546269,4.76529 9.779237,11.47749 14.20253,15.29451 3.905626,3.37031 9.610952,7.13714 15.870301,10.47805 8.060646,4.30235 14.292346,6.56662 22.958486,8.34188 5.86013,1.20045 8.56576,1.48239 8.75306,0.9121 z"
     id="path118" />
</svg>
