<?xml version="1.0" encoding="UTF-8" standalone="no"?>
<svg
   viewBox="0 0 64 64"
   version="1.1"
   id="svg12"
   sodipodi:docname="piercing_penis_equipped.svg"
   inkscape:version="1.2.2 (732a01da63, 2022-12-09)"
   xml:space="preserve"
   xmlns:inkscape="http://www.inkscape.org/namespaces/inkscape"
   xmlns:sodipodi="http://sodipodi.sourceforge.net/DTD/sodipodi-0.dtd"
   xmlns:xlink="http://www.w3.org/1999/xlink"
   xmlns="http://www.w3.org/2000/svg"
   xmlns:svg="http://www.w3.org/2000/svg"><defs
     id="defs16"><linearGradient
       id="innoGrad2"><stop
         stop-color="#ff8080"
         offset="0"
         id="stop2" /><stop
         stop-color="#ffd5d5"
         offset="1"
         id="stop4" /></linearGradient><linearGradient
       id="linearGradient1219"
       x1="22.205"
       x2="15.445"
       y1="57.153"
       y2="17.56"
       gradientUnits="userSpaceOnUse"
       xlink:href="#innoGrad2" /><linearGradient
       id="linearGradient1228"
       x1="29.8"
       x2="19.205"
       y1="64.035"
       y2="18.195"
       gradientUnits="userSpaceOnUse"
       xlink:href="#innoGrad2" /><linearGradient
       id="linearGradient1236"
       x1="20.188"
       x2="13.967"
       y1="65.995"
       y2="56.584"
       gradientUnits="userSpaceOnUse"
       xlink:href="#innoGrad2" /><linearGradient
       id="linearGradient1358"
       x1="14.884"
       x2="22.676"
       y1="64.359"
       y2="57.511"
       gradientUnits="userSpaceOnUse"
       xlink:href="#innoGrad2" /><linearGradient
       id="linearGradient1360"
       x1="14.8"
       x2="55.83"
       y1="57.785"
       y2="17.57"
       gradientUnits="userSpaceOnUse"
       xlink:href="#innoGrad2" /><linearGradient
       id="linearGradient868"
       x1="18.08"
       x2="55.82"
       y1="60.278"
       y2="17.56"
       gradientUnits="userSpaceOnUse"
       xlink:href="#innoGrad2" /><linearGradient
       inkscape:collect="always"
       xlink:href="#innoGrad2"
       id="linearGradient2396"
       gradientUnits="userSpaceOnUse"
       x1="18.08"
       y1="60.278"
       x2="55.82"
       y2="17.56" /><linearGradient
       inkscape:collect="always"
       xlink:href="#innoGrad2"
       id="linearGradient2398"
       gradientUnits="userSpaceOnUse"
       x1="14.884"
       y1="64.359"
       x2="22.676"
       y2="57.511" /><linearGradient
       inkscape:collect="always"
       xlink:href="#innoGrad2"
       id="linearGradient2400"
       gradientUnits="userSpaceOnUse"
       x1="14.8"
       y1="57.785"
       x2="55.83"
       y2="17.57" /><linearGradient
       inkscape:collect="always"
       xlink:href="#innoGrad2"
       id="linearGradient2478"
       gradientUnits="userSpaceOnUse"
       x1="18.08"
       y1="60.278"
       x2="55.82"
       y2="17.56" /><linearGradient
       inkscape:collect="always"
       xlink:href="#innoGrad2"
       id="linearGradient2480"
       gradientUnits="userSpaceOnUse"
       x1="14.884"
       y1="64.359"
       x2="22.676"
       y2="57.511" /><linearGradient
       inkscape:collect="always"
       xlink:href="#innoGrad2"
       id="linearGradient2482"
       gradientUnits="userSpaceOnUse"
       x1="14.8"
       y1="57.785"
       x2="55.83"
       y2="17.57" /></defs><sodipodi:namedview
     id="namedview14"
     pagecolor="#ffffff"
     bordercolor="#666666"
     borderopacity="1.0"
     inkscape:showpageshadow="2"
     inkscape:pageopacity="0.0"
     inkscape:pagecheckerboard="0"
     inkscape:deskcolor="#d1d1d1"
     showgrid="false"
     inkscape:zoom="9.3780178"
     inkscape:cx="30.017004"
     inkscape:cy="31.776438"
     inkscape:window-width="1920"
     inkscape:window-height="1017"
     inkscape:window-x="-8"
     inkscape:window-y="-8"
     inkscape:window-maximized="1"
     inkscape:current-layer="svg12" /><path
     fill="#808080"
     fill-rule="evenodd"
     stroke="#000000"
     stroke-width="0.557165"
     d="M 9.6621039,39.608977 C 1.9591861,43.048767 3.1583684,49.821908 8.3166462,53.287298 12.394418,56.026465 18.248194,55.723311 20.469923,53.349271 34.073535,57.383244 34.508222,45.825656 32.701859,42.914027 46.435187,35.220651 52.08059,24.16293 58.473928,14.505108 60.060878,11.472219 60.416908,7.0677239 56.097643,6.039694 53.278391,5.3687127 46.6546,8.3706135 41.728155,12.997422 41.26725,13.429921 41.459063,14.518582 42.440213,14.852726 34.335728,25.422705 23.399572,33.475829 9.6634838,39.607629 Z"
     id="path8"
     style="stroke-width:0.557;stroke-dasharray:none" /><path
     fill-rule="evenodd"
     d="m 42.436072,14.859462 0.103501,-0.319322 c 0.371209,0.144166 0.735517,0.204797 1.159164,0.212881 0.426407,0.0067 0.896971,-0.04177 1.476553,-0.107792 1.156403,-0.130694 2.666077,-0.319323 4.974743,-0.233092 -2.304527,0.0256 -3.79488,0.323364 -4.919545,0.563194 -0.560262,0.118566 -1.048767,0.229048 -1.506912,0.277554 -0.463666,0.0512 -0.910772,0.04446 -1.390996,-0.0741 z M 20.338828,53.45437 c 0.117296,0.02425 0.234592,0.04581 0.354649,0.06736 0.298071,-0.437891 0.670659,-0.953927 1.001848,-1.495562 0.367069,-0.602267 0.678939,-1.228785 0.783816,-1.802757 -0.209754,0.536245 -0.614081,1.09405 -1.058427,1.61278 -0.404327,0.471573 -0.844533,0.913506 -1.224022,1.293459 0.04555,0.109131 0.09384,0.21827 0.142136,0.324712 z m 38.041263,-38.795663 0.226313,-0.22905 a 0.90249161,0.88116841 0 0 0 -0.287031,-0.134736 2.2921079,2.2379522 0 0 0 -0.31463,-0.06602 6.4664767,6.3136929 0 0 0 -0.717577,-0.05659 12.608663,12.310758 0 0 0 -1.25852,0.02425 c 0.121435,0.04042 0.30773,0.08489 0.521623,0.132041 0.213894,0.04716 0.455386,0.0997 0.689978,0.160335 0.234593,0.05928 0.458145,0.126651 0.63202,0.202103 a 1.1108651,1.0846186 0 0 1 0.211134,0.113177 c 0.04967,0.03638 0.07728,0.07275 0.069,0.08488 z"
     id="path10"
     style="stroke-width:1.36356" /><g
     id="g2457"
     transform="matrix(0.8262479,0,0,0.85585591,1.1673999,11.132997)"><g
       id="g2394"
       transform="matrix(0.77656633,0,0,0.76222922,4.1238626,13.789821)"><g
         id="g2386"
         transform="matrix(-0.09244514,-0.03732179,-0.03687507,0.09356508,36.884896,41.358923)"
         style="display:inline"
         inkscape:label="g61"><g
           transform="matrix(-1.0375,0,0,1.0375,100.54,-6.175)"
           id="g2360"
           style="display:inline"><g
             font-family="sans-serif"
             font-weight="400"
             id="g2358" /></g><g
           transform="matrix(1.0709,0,0,1.0709,14.069379,6.6732915)"
           id="g2382"><g
             font-family="sans-serif"
             font-weight="400"
             id="g2370"><path
               d="m 38.332,10.985 c -16.274,0 -31.58,13.176 -34.21,29.45 C 2.436,50.863 6.37,60.01 13.69,65.244 l 4.389,-4.965 C 11.889,56.027 8.91,48.522 10.205,40.437 12.292,27.533 24.443,17.072 37.347,17.07 c 5.476,0 10.466,1.925 14.101,5.435 4.85,1.267 5.018,-1.488 4.37,-4.944 -4.398,-4.11 -10.452,-6.575 -17.487,-6.575 z"
               fill="url(#linearGradient868)"
               overflow="visible"
               style="font-variant-ligatures:normal;font-variant-position:normal;font-variant-caps:normal;font-variant-numeric:normal;font-variant-alternates:normal;font-feature-settings:normal;text-indent:0;text-decoration:none;text-decoration-line:none;text-decoration-style:solid;text-decoration-color:#000000;text-transform:none;text-orientation:mixed;white-space:normal;shape-padding:0;isolation:auto;mix-blend-mode:normal;fill:url(#linearGradient2478)"
               id="path2362" /><path
               d="m 38.348,10.629 c -16.459,0 -31.92,13.311 -34.58,29.765 -1.47,9.094 1.29,17.26 6.846,22.74 l 0.36,-0.363 C 5.54,57.411 2.829,49.424 4.274,40.477 6.893,24.29 22.167,11.141 38.349,11.14 c 6.994,0 13.008,2.447 17.376,6.526 L 56.049,17.3 c -4.46,-4.166 -10.59,-6.67 -17.7,-6.671 z"
               overflow="visible"
               style="font-variant-ligatures:normal;font-variant-position:normal;font-variant-caps:normal;font-variant-numeric:normal;font-variant-alternates:normal;font-feature-settings:normal;text-indent:0;text-decoration:none;text-decoration-line:none;text-decoration-style:solid;text-decoration-color:#000000;text-transform:none;text-orientation:mixed;white-space:normal;shape-padding:0;isolation:auto;mix-blend-mode:normal"
               id="path2364" /><path
               d="M 37.348,16.812 C 24.306,16.814 12.063,27.357 9.954,40.394 8.88,47.097 10.714,53.376 14.8,57.785 l 0.376,-0.348 c -3.973,-4.288 -5.77,-10.396 -4.718,-16.96 2.066,-12.77 14.124,-23.149 26.89,-23.15 5.645,-0.002 10.475,2.016 13.938,5.364 L 51.61,22.323 C 48.055,18.887 43.108,16.811 37.348,16.812 Z"
               overflow="visible"
               style="font-variant-ligatures:normal;font-variant-position:normal;font-variant-caps:normal;font-variant-numeric:normal;font-variant-alternates:normal;font-feature-settings:normal;text-indent:0;text-decoration:none;text-decoration-line:none;text-decoration-style:solid;text-decoration-color:#000000;text-transform:none;text-orientation:mixed;white-space:normal;shape-padding:0;isolation:auto;mix-blend-mode:normal"
               id="path2366" /><path
               d="m 17.15,56.584 a 7.16,7.16 0 0 1 7.171,7.171 7.165,7.165 0 0 1 -7.172,7.178 7.165,7.165 0 0 1 -7.171,-7.178 7.16,7.16 0 0 1 7.171,-7.171 z"
               fill="url(#linearGradient1358)"
               overflow="visible"
               style="font-variant-ligatures:normal;font-variant-position:normal;font-variant-caps:normal;font-variant-numeric:normal;font-variant-alternates:normal;font-feature-settings:normal;text-indent:0;text-decoration:none;text-decoration-line:none;text-decoration-style:solid;text-decoration-color:#000000;text-transform:none;text-orientation:mixed;white-space:normal;shape-padding:0;isolation:auto;mix-blend-mode:normal;fill:url(#linearGradient2480)"
               id="path2368" /></g><circle
             cx="17.209999"
             cy="63.785999"
             r="7.098"
             fill="none"
             stroke="#000000"
             stroke-width="0.512"
             id="circle2372" /><path
             d="m 55.82,17.56 c -39.043,74.825 -19.522,37.413 0,0 z m 0.01,0.01 -4.37,4.945 c 4.599,4.438 6.611,11.005 5.494,17.93 -2.087,12.908 -14.243,23.37 -27.15,23.367 -4.34,-0.01 -5.022,-1.028 -6.624,-1.03 -2.967,-0.005 -3.602,3.808 -3.038,4.653 1.58,2.37 2.833,2.462 8.68,2.462 16.275,0 31.58,-13.177 34.212,-29.451 1.493,-9.24 -1.426,-17.478 -7.204,-22.876 z"
             fill="url(#linearGradient1360)"
             font-family="sans-serif"
             font-weight="400"
             overflow="visible"
             style="font-variant-ligatures:normal;font-variant-position:normal;font-variant-caps:normal;font-variant-numeric:normal;font-variant-alternates:normal;font-feature-settings:normal;text-indent:0;text-decoration:none;text-decoration-line:none;text-decoration-style:solid;text-decoration-color:#000000;text-transform:none;text-orientation:mixed;white-space:normal;shape-padding:0;isolation:auto;mix-blend-mode:normal;fill:url(#linearGradient2482)"
             id="path2374" /><path
             d="m 56.048,17.3 -0.324,0.366 c 5.737,5.358 8.632,13.537 7.146,22.728 -2.617,16.187 -17.894,29.336 -34.076,29.337 -2.337,0 -4.564,-0.274 -6.656,-0.79 l -0.096,0.503 a 28.28,28.28 0 0 0 6.752,0.798 c 16.46,0 31.922,-13.311 34.582,-29.765 C 64.887,31.131 61.912,22.778 56.048,17.3 Z"
             font-family="sans-serif"
             font-weight="400"
             overflow="visible"
             style="font-variant-ligatures:normal;font-variant-position:normal;font-variant-caps:normal;font-variant-numeric:normal;font-variant-alternates:normal;font-feature-settings:normal;text-indent:0;text-decoration:none;text-decoration-line:none;text-decoration-style:solid;text-decoration-color:#000000;text-transform:none;text-orientation:mixed;white-space:normal;shape-padding:0;isolation:auto;mix-blend-mode:normal"
             id="path2376" /><path
             d="m 24.266,63.36 c -1.634,-0.409 -2.958,0.003 -3.66,1.719 -0.703,1.716 0.021,3.381 1.532,3.862 l -0.096,0.503 c -1.979,-0.508 -2.643,-2.66 -1.964,-4.515 0.68,-1.856 2.393,-2.618 4.354,-2.057 z"
             id="path2378" /><path
             d="m 39.608,16.926 c 0.262,0.026 0.513,0.072 0.77,0.107 -0.257,-0.035 -0.509,-0.081 -0.77,-0.107 z m 2.165,0.325 c 0.299,0.06 0.588,0.136 0.88,0.208 -0.292,-0.072 -0.58,-0.148 -0.88,-0.208 z m -4.425,0.075 z m 2.906,0.208 z m 3.57,0.241 z m -1.295,0.18 z m 3.207,0.519 z M 44.57,18.56 Z m 1.922,0.805 z m 1.096,0.01 c 0.293,0.163 0.586,0.325 0.87,0.501 a 19.255,19.255 0 0 0 -0.87,-0.5 z m 0.649,0.948 c 0.238,0.148 0.466,0.309 0.696,0.467 -0.23,-0.158 -0.458,-0.318 -0.696,-0.467 z m 1.015,0.088 c 0.292,0.203 0.587,0.403 0.865,0.62 -0.279,-0.217 -0.573,-0.417 -0.865,-0.62 z m 0.584,1.026 c 0.193,0.15 0.37,0.315 0.556,0.473 -0.185,-0.158 -0.363,-0.323 -0.556,-0.473 z m 0.907,0.125 c 0.292,0.25 0.591,0.494 0.867,0.76 -0.276,-0.267 -0.574,-0.51 -0.867,-0.76 z m 0.867,0.76 -0.324,0.37 c 4.37,4.225 6.557,10.575 5.406,17.702 -2.066,12.774 -14.13,23.153 -26.898,23.15 a 21.77,21.77 0 0 1 -5.362,-0.672 l -0.166,0.487 c 1.767,0.459 3.623,0.695 5.528,0.7 C 42.839,64.061 55.087,53.517 57.196,40.477 58.372,33.194 56.107,26.669 51.61,22.323 Z"
             font-family="sans-serif"
             font-weight="400"
             overflow="visible"
             style="font-variant-ligatures:normal;font-variant-position:normal;font-variant-caps:normal;font-variant-numeric:normal;font-variant-alternates:normal;font-feature-settings:normal;text-indent:0;text-decoration:none;text-decoration-line:none;text-decoration-style:solid;text-decoration-color:#000000;text-transform:none;text-orientation:mixed;white-space:normal;shape-padding:0;isolation:auto;mix-blend-mode:normal"
             id="path2380" /></g><path
           d="m 36.190245,70.062804 c -1.982,-1.524 -4.286,-0.987 -4.286,-0.987 0,0 2.168,0.579 3.671,1.775 l 0.011,0.01 c 1.095,0.85 2.17,2.106 2.17,2.106 0,0 -0.095,-1.739 -1.552,-2.893 l -0.013,-0.01 z m 38.169,-42.366 c -2.75,-3.032 -6.193,-4.816 -9.02,-5.888 -2.777,-1.053 -4.71,-1.397 -4.71,-1.397 0,0 1.872,0.592 4.512,1.858 2.705,1.298 5.882,3.207 8.475,6.097 l 0.042,0.047 c 2.306,2.562 3.89,5.378 5.004,7.793 1.08,2.338 1.614,3.982 1.614,3.982 0,0 -0.288,-1.704 -1.149,-4.17 -0.88,-2.523 -2.324,-5.59 -4.724,-8.273 l -0.044,-0.05 z"
           fill="#ffffff"
           id="path2384"
           sodipodi:nodetypes="cccccccccccccccccccc"
           style="display:inline" /></g><g
         id="g2392"
         style="display:inline"
         transform="matrix(-0.03364126,-0.06651966,-0.06449837,0.04033593,34.286553,45.246193)"><path
           d="m 70.505768,30.135945 c 2.59226,8.337444 7.176494,15.09327 11.710164,19.706683 4.45351,4.531743 2.903166,1.346816 2.903166,1.346816 0,0 17.596042,-7.843561 13.604411,-12.664486 -4.050835,-7.223153 -6.953859,-4.58724 -9.373665,-12.273333 L 83.307474,15.970571 C 81.121419,8.7347182 78.871722,7.6677042 79.562012,6.4908832 c 0.0305,-5.49449867 -10.217434,0.9925979 -10.217434,0.9925979 0,0 -0.668689,-2.3316679 -1.243199,3.2138799 -0.58954,5.6729 0.134789,11.956263 2.363449,19.303939 l -0.70603,0.452336 z"
           fill="#ffffff"
           id="path2388"
           sodipodi:nodetypes="cccccccccccc"
           style="display:inline;fill:#808080;fill-opacity:1;stroke-width:2.14359" /><path
           d="m 69.276522,30.846904 c 2.59226,8.337444 7.67658,14.881936 12.21025,19.495349 4.45351,4.531743 2.40308,1.55815 2.40308,1.55815 0,0 2.39599,2.548447 -1.59564,-2.272478 -4.08917,-4.941258 -8.54052,-11.488746 -10.95637,-19.410327 l -0.0388,-0.128987 c -2.1559,-7.02906 -2.67155,-13.901262 -2.63706,-19.575282 0.0305,-5.494499 -0.54665,-2.318889 -0.54665,-2.318889 0,0 0.0424,-3.280457 -0.53211,2.265091 -0.58954,5.6729 -0.5763,12.905052 1.65236,20.252728 l -0.70603,0.452336 z"
           fill="#ffffff"
           id="path2390"
           sodipodi:nodetypes="cccccccccccc"
           style="fill:#000000;fill-opacity:1;stroke-width:2.14359" /></g></g><g
       id="g2449"
       transform="matrix(-0.09244514,-0.03732179,-0.03687507,0.09356508,36.884896,41.358923)"
       style="display:inline"
       inkscape:label="g61"><g
         transform="matrix(-1.0375,0,0,1.0375,100.54,-6.175)"
         id="g2423"
         style="display:inline"><g
           font-family="sans-serif"
           font-weight="400"
           id="g2421" /></g><g
         transform="matrix(1.0709,0,0,1.0709,14.069379,6.6732915)"
         id="g2445"><g
           font-family="sans-serif"
           font-weight="400"
           id="g2433"><path
             d="m 38.332,10.985 c -16.274,0 -31.58,13.176 -34.21,29.45 C 2.436,50.863 6.37,60.01 13.69,65.244 l 4.389,-4.965 C 11.889,56.027 8.91,48.522 10.205,40.437 12.292,27.533 24.443,17.072 37.347,17.07 c 5.476,0 10.466,1.925 14.101,5.435 4.85,1.267 5.018,-1.488 4.37,-4.944 -4.398,-4.11 -10.452,-6.575 -17.487,-6.575 z"
             fill="url(#linearGradient868)"
             overflow="visible"
             style="font-variant-ligatures:normal;font-variant-position:normal;font-variant-caps:normal;font-variant-numeric:normal;font-variant-alternates:normal;font-feature-settings:normal;text-indent:0;text-decoration:none;text-decoration-line:none;text-decoration-style:solid;text-decoration-color:#000000;text-transform:none;text-orientation:mixed;white-space:normal;shape-padding:0;isolation:auto;mix-blend-mode:normal;fill:url(#linearGradient2396)"
             id="path2425" /><path
             d="m 38.348,10.629 c -16.459,0 -31.92,13.311 -34.58,29.765 -1.47,9.094 1.29,17.26 6.846,22.74 l 0.36,-0.363 C 5.54,57.411 2.829,49.424 4.274,40.477 6.893,24.29 22.167,11.141 38.349,11.14 c 6.994,0 13.008,2.447 17.376,6.526 L 56.049,17.3 c -4.46,-4.166 -10.59,-6.67 -17.7,-6.671 z"
             overflow="visible"
             style="font-variant-ligatures:normal;font-variant-position:normal;font-variant-caps:normal;font-variant-numeric:normal;font-variant-alternates:normal;font-feature-settings:normal;text-indent:0;text-decoration:none;text-decoration-line:none;text-decoration-style:solid;text-decoration-color:#000000;text-transform:none;text-orientation:mixed;white-space:normal;shape-padding:0;isolation:auto;mix-blend-mode:normal"
             id="path2427" /><path
             d="M 37.348,16.812 C 24.306,16.814 12.063,27.357 9.954,40.394 8.88,47.097 10.714,53.376 14.8,57.785 l 0.376,-0.348 c -3.973,-4.288 -5.77,-10.396 -4.718,-16.96 2.066,-12.77 14.124,-23.149 26.89,-23.15 5.645,-0.002 10.475,2.016 13.938,5.364 L 51.61,22.323 C 48.055,18.887 43.108,16.811 37.348,16.812 Z"
             overflow="visible"
             style="font-variant-ligatures:normal;font-variant-position:normal;font-variant-caps:normal;font-variant-numeric:normal;font-variant-alternates:normal;font-feature-settings:normal;text-indent:0;text-decoration:none;text-decoration-line:none;text-decoration-style:solid;text-decoration-color:#000000;text-transform:none;text-orientation:mixed;white-space:normal;shape-padding:0;isolation:auto;mix-blend-mode:normal"
             id="path2429" /><path
             d="m 17.15,56.584 a 7.16,7.16 0 0 1 7.171,7.171 7.165,7.165 0 0 1 -7.172,7.178 7.165,7.165 0 0 1 -7.171,-7.178 7.16,7.16 0 0 1 7.171,-7.171 z"
             fill="url(#linearGradient1358)"
             overflow="visible"
             style="font-variant-ligatures:normal;font-variant-position:normal;font-variant-caps:normal;font-variant-numeric:normal;font-variant-alternates:normal;font-feature-settings:normal;text-indent:0;text-decoration:none;text-decoration-line:none;text-decoration-style:solid;text-decoration-color:#000000;text-transform:none;text-orientation:mixed;white-space:normal;shape-padding:0;isolation:auto;mix-blend-mode:normal;fill:url(#linearGradient2398)"
             id="path2431" /></g><circle
           cx="17.209999"
           cy="63.785999"
           r="7.098"
           fill="none"
           stroke="#000000"
           stroke-width="0.512"
           id="circle2435" /><path
           d="m 55.82,17.56 c -39.043,74.825 -19.522,37.413 0,0 z m 0.01,0.01 -4.37,4.945 c 4.599,4.438 6.611,11.005 5.494,17.93 -2.087,12.908 -14.243,23.37 -27.15,23.367 -4.34,-0.01 -5.022,-1.028 -6.624,-1.03 -2.967,-0.005 -3.602,3.808 -3.038,4.653 1.58,2.37 2.833,2.462 8.68,2.462 16.275,0 31.58,-13.177 34.212,-29.451 1.493,-9.24 -1.426,-17.478 -7.204,-22.876 z"
           fill="url(#linearGradient1360)"
           font-family="sans-serif"
           font-weight="400"
           overflow="visible"
           style="font-variant-ligatures:normal;font-variant-position:normal;font-variant-caps:normal;font-variant-numeric:normal;font-variant-alternates:normal;font-feature-settings:normal;text-indent:0;text-decoration:none;text-decoration-line:none;text-decoration-style:solid;text-decoration-color:#000000;text-transform:none;text-orientation:mixed;white-space:normal;shape-padding:0;isolation:auto;mix-blend-mode:normal;fill:url(#linearGradient2400)"
           id="path2437" /><path
           d="m 56.048,17.3 -0.324,0.366 c 5.737,5.358 8.632,13.537 7.146,22.728 -2.617,16.187 -17.894,29.336 -34.076,29.337 -2.337,0 -4.564,-0.274 -6.656,-0.79 l -0.096,0.503 a 28.28,28.28 0 0 0 6.752,0.798 c 16.46,0 31.922,-13.311 34.582,-29.765 C 64.887,31.131 61.912,22.778 56.048,17.3 Z"
           font-family="sans-serif"
           font-weight="400"
           overflow="visible"
           style="font-variant-ligatures:normal;font-variant-position:normal;font-variant-caps:normal;font-variant-numeric:normal;font-variant-alternates:normal;font-feature-settings:normal;text-indent:0;text-decoration:none;text-decoration-line:none;text-decoration-style:solid;text-decoration-color:#000000;text-transform:none;text-orientation:mixed;white-space:normal;shape-padding:0;isolation:auto;mix-blend-mode:normal"
           id="path2439" /><path
           d="m 24.266,63.36 c -1.634,-0.409 -2.958,0.003 -3.66,1.719 -0.703,1.716 0.021,3.381 1.532,3.862 l -0.096,0.503 c -1.979,-0.508 -2.643,-2.66 -1.964,-4.515 0.68,-1.856 2.393,-2.618 4.354,-2.057 z"
           id="path2441" /><path
           d="m 39.608,16.926 c 0.262,0.026 0.513,0.072 0.77,0.107 -0.257,-0.035 -0.509,-0.081 -0.77,-0.107 z m 2.165,0.325 c 0.299,0.06 0.588,0.136 0.88,0.208 -0.292,-0.072 -0.58,-0.148 -0.88,-0.208 z m -4.425,0.075 z m 2.906,0.208 z m 3.57,0.241 z m -1.295,0.18 z m 3.207,0.519 z M 44.57,18.56 Z m 1.922,0.805 z m 1.096,0.01 c 0.293,0.163 0.586,0.325 0.87,0.501 a 19.255,19.255 0 0 0 -0.87,-0.5 z m 0.649,0.948 c 0.238,0.148 0.466,0.309 0.696,0.467 -0.23,-0.158 -0.458,-0.318 -0.696,-0.467 z m 1.015,0.088 c 0.292,0.203 0.587,0.403 0.865,0.62 -0.279,-0.217 -0.573,-0.417 -0.865,-0.62 z m 0.584,1.026 c 0.193,0.15 0.37,0.315 0.556,0.473 -0.185,-0.158 -0.363,-0.323 -0.556,-0.473 z m 0.907,0.125 c 0.292,0.25 0.591,0.494 0.867,0.76 -0.276,-0.267 -0.574,-0.51 -0.867,-0.76 z m 0.867,0.76 -0.324,0.37 c 4.37,4.225 6.557,10.575 5.406,17.702 -2.066,12.774 -14.13,23.153 -26.898,23.15 a 21.77,21.77 0 0 1 -5.362,-0.672 l -0.166,0.487 c 1.767,0.459 3.623,0.695 5.528,0.7 C 42.839,64.061 55.087,53.517 57.196,40.477 58.372,33.194 56.107,26.669 51.61,22.323 Z"
           font-family="sans-serif"
           font-weight="400"
           overflow="visible"
           style="font-variant-ligatures:normal;font-variant-position:normal;font-variant-caps:normal;font-variant-numeric:normal;font-variant-alternates:normal;font-feature-settings:normal;text-indent:0;text-decoration:none;text-decoration-line:none;text-decoration-style:solid;text-decoration-color:#000000;text-transform:none;text-orientation:mixed;white-space:normal;shape-padding:0;isolation:auto;mix-blend-mode:normal"
           id="path2443" /></g><path
         d="m 36.190245,70.062804 c -1.982,-1.524 -4.286,-0.987 -4.286,-0.987 0,0 2.168,0.579 3.671,1.775 l 0.011,0.01 c 1.095,0.85 2.17,2.106 2.17,2.106 0,0 -0.095,-1.739 -1.552,-2.893 l -0.013,-0.01 z m 38.169,-42.366 c -2.75,-3.032 -6.193,-4.816 -9.02,-5.888 -2.777,-1.053 -4.71,-1.397 -4.71,-1.397 0,0 1.872,0.592 4.512,1.858 2.705,1.298 5.882,3.207 8.475,6.097 l 0.042,0.047 c 2.306,2.562 3.89,5.378 5.004,7.793 1.08,2.338 1.614,3.982 1.614,3.982 0,0 -0.288,-1.704 -1.149,-4.17 -0.88,-2.523 -2.324,-5.59 -4.724,-8.273 l -0.044,-0.05 z"
         fill="#ffffff"
         id="path2447"
         sodipodi:nodetypes="cccccccccccccccccccc"
         style="display:inline" /></g><g
       id="g2455"
       style="display:inline"
       transform="matrix(-0.03364126,-0.06651966,-0.06449837,0.04033593,34.286553,45.246193)"><path
         d="m 70.505768,30.135945 c 2.59226,8.337444 7.176494,15.09327 11.710164,19.706683 4.45351,4.531743 2.903166,1.346816 2.903166,1.346816 0,0 17.596042,-7.843561 13.604411,-12.664486 -4.050835,-7.223153 -6.953859,-4.58724 -9.373665,-12.273333 L 83.307474,15.970571 C 81.121419,8.7347182 78.871722,7.6677042 79.562012,6.4908832 c 0.0305,-5.49449867 -10.217434,0.9925979 -10.217434,0.9925979 0,0 -0.668689,-2.3316679 -1.243199,3.2138799 -0.58954,5.6729 0.134789,11.956263 2.363449,19.303939 l -0.70603,0.452336 z"
         fill="#ffffff"
         id="path2451"
         sodipodi:nodetypes="cccccccccccc"
         style="display:inline;fill:#808080;fill-opacity:1;stroke-width:2.14359" /><path
         d="m 69.276522,30.846904 c 2.59226,8.337444 7.67658,14.881936 12.21025,19.495349 4.45351,4.531743 2.40308,1.55815 2.40308,1.55815 0,0 2.39599,2.548447 -1.59564,-2.272478 -4.08917,-4.941258 -8.54052,-11.488746 -10.95637,-19.410327 l -0.0388,-0.128987 c -2.1559,-7.02906 -2.67155,-13.901262 -2.63706,-19.575282 0.0305,-5.494499 -0.54665,-2.318889 -0.54665,-2.318889 0,0 0.0424,-3.280457 -0.53211,2.265091 -0.58954,5.6729 -0.5763,12.905052 1.65236,20.252728 l -0.70603,0.452336 z"
         fill="#ffffff"
         id="path2453"
         sodipodi:nodetypes="cccccccccccc"
         style="fill:#000000;fill-opacity:1;stroke-width:2.14359" /></g></g><g
     id="g2356"
     transform="translate(-0.16287046,2.2431119)"><g
       id="g61"
       transform="matrix(-0.09244514,-0.03732179,-0.03687507,0.09356508,36.884896,41.358923)"
       style="display:inline"
       inkscape:label="g61"><g
         transform="matrix(-1.0375,0,0,1.0375,100.54,-6.175)"
         id="g35"
         style="display:inline"><g
           font-family="sans-serif"
           font-weight="400"
           id="g23" /></g><g
         transform="matrix(1.0709,0,0,1.0709,14.069379,6.6732915)"
         id="g57"><g
           font-family="sans-serif"
           font-weight="400"
           id="g45"><path
             d="m 38.332,10.985 c -16.274,0 -31.58,13.176 -34.21,29.45 C 2.436,50.863 6.37,60.01 13.69,65.244 l 4.389,-4.965 C 11.889,56.027 8.91,48.522 10.205,40.437 12.292,27.533 24.443,17.072 37.347,17.07 c 5.476,0 10.466,1.925 14.101,5.435 4.85,1.267 5.018,-1.488 4.37,-4.944 -4.398,-4.11 -10.452,-6.575 -17.487,-6.575 z"
             fill="url(#linearGradient868)"
             overflow="visible"
             style="font-variant-ligatures:normal;font-variant-position:normal;font-variant-caps:normal;font-variant-numeric:normal;font-variant-alternates:normal;font-feature-settings:normal;text-indent:0;text-decoration:none;text-decoration-line:none;text-decoration-style:solid;text-decoration-color:#000000;text-transform:none;text-orientation:mixed;white-space:normal;shape-padding:0;isolation:auto;mix-blend-mode:normal;fill:url(#linearGradient868)"
             id="path37" /><path
             d="m 38.348,10.629 c -16.459,0 -31.92,13.311 -34.58,29.765 -1.47,9.094 1.29,17.26 6.846,22.74 l 0.36,-0.363 C 5.54,57.411 2.829,49.424 4.274,40.477 6.893,24.29 22.167,11.141 38.349,11.14 c 6.994,0 13.008,2.447 17.376,6.526 L 56.049,17.3 c -4.46,-4.166 -10.59,-6.67 -17.7,-6.671 z"
             overflow="visible"
             style="font-variant-ligatures:normal;font-variant-position:normal;font-variant-caps:normal;font-variant-numeric:normal;font-variant-alternates:normal;font-feature-settings:normal;text-indent:0;text-decoration:none;text-decoration-line:none;text-decoration-style:solid;text-decoration-color:#000000;text-transform:none;text-orientation:mixed;white-space:normal;shape-padding:0;isolation:auto;mix-blend-mode:normal"
             id="path39" /><path
             d="M 37.348,16.812 C 24.306,16.814 12.063,27.357 9.954,40.394 8.88,47.097 10.714,53.376 14.8,57.785 l 0.376,-0.348 c -3.973,-4.288 -5.77,-10.396 -4.718,-16.96 2.066,-12.77 14.124,-23.149 26.89,-23.15 5.645,-0.002 10.475,2.016 13.938,5.364 L 51.61,22.323 C 48.055,18.887 43.108,16.811 37.348,16.812 Z"
             overflow="visible"
             style="font-variant-ligatures:normal;font-variant-position:normal;font-variant-caps:normal;font-variant-numeric:normal;font-variant-alternates:normal;font-feature-settings:normal;text-indent:0;text-decoration:none;text-decoration-line:none;text-decoration-style:solid;text-decoration-color:#000000;text-transform:none;text-orientation:mixed;white-space:normal;shape-padding:0;isolation:auto;mix-blend-mode:normal"
             id="path41" /><path
             d="m 17.15,56.584 a 7.16,7.16 0 0 1 7.171,7.171 7.165,7.165 0 0 1 -7.172,7.178 7.165,7.165 0 0 1 -7.171,-7.178 7.16,7.16 0 0 1 7.171,-7.171 z"
             fill="url(#linearGradient1358)"
             overflow="visible"
             style="font-variant-ligatures:normal;font-variant-position:normal;font-variant-caps:normal;font-variant-numeric:normal;font-variant-alternates:normal;font-feature-settings:normal;text-indent:0;text-decoration:none;text-decoration-line:none;text-decoration-style:solid;text-decoration-color:#000000;text-transform:none;text-orientation:mixed;white-space:normal;shape-padding:0;isolation:auto;mix-blend-mode:normal;fill:url(#linearGradient1358)"
             id="path43" /></g><circle
           cx="17.209999"
           cy="63.785999"
           r="7.098"
           fill="none"
           stroke="#000000"
           stroke-width="0.512"
           id="circle47" /><path
           d="m 55.82,17.56 c -39.043,74.825 -19.522,37.413 0,0 z m 0.01,0.01 -4.37,4.945 c 4.599,4.438 6.611,11.005 5.494,17.93 -2.087,12.908 -14.243,23.37 -27.15,23.367 -4.34,-0.01 -5.022,-1.028 -6.624,-1.03 -2.967,-0.005 -3.602,3.808 -3.038,4.653 1.58,2.37 2.833,2.462 8.68,2.462 16.275,0 31.58,-13.177 34.212,-29.451 1.493,-9.24 -1.426,-17.478 -7.204,-22.876 z"
           fill="url(#linearGradient1360)"
           font-family="sans-serif"
           font-weight="400"
           overflow="visible"
           style="font-variant-ligatures:normal;font-variant-position:normal;font-variant-caps:normal;font-variant-numeric:normal;font-variant-alternates:normal;font-feature-settings:normal;text-indent:0;text-decoration:none;text-decoration-line:none;text-decoration-style:solid;text-decoration-color:#000000;text-transform:none;text-orientation:mixed;white-space:normal;shape-padding:0;isolation:auto;mix-blend-mode:normal;fill:url(#linearGradient1360)"
           id="path49" /><path
           d="m 56.048,17.3 -0.324,0.366 c 5.737,5.358 8.632,13.537 7.146,22.728 -2.617,16.187 -17.894,29.336 -34.076,29.337 -2.337,0 -4.564,-0.274 -6.656,-0.79 l -0.096,0.503 a 28.28,28.28 0 0 0 6.752,0.798 c 16.46,0 31.922,-13.311 34.582,-29.765 C 64.887,31.131 61.912,22.778 56.048,17.3 Z"
           font-family="sans-serif"
           font-weight="400"
           overflow="visible"
           style="font-variant-ligatures:normal;font-variant-position:normal;font-variant-caps:normal;font-variant-numeric:normal;font-variant-alternates:normal;font-feature-settings:normal;text-indent:0;text-decoration:none;text-decoration-line:none;text-decoration-style:solid;text-decoration-color:#000000;text-transform:none;text-orientation:mixed;white-space:normal;shape-padding:0;isolation:auto;mix-blend-mode:normal"
           id="path51" /><path
           d="m 24.266,63.36 c -1.634,-0.409 -2.958,0.003 -3.66,1.719 -0.703,1.716 0.021,3.381 1.532,3.862 l -0.096,0.503 c -1.979,-0.508 -2.643,-2.66 -1.964,-4.515 0.68,-1.856 2.393,-2.618 4.354,-2.057 z"
           id="path53" /><path
           d="m 39.608,16.926 c 0.262,0.026 0.513,0.072 0.77,0.107 -0.257,-0.035 -0.509,-0.081 -0.77,-0.107 z m 2.165,0.325 c 0.299,0.06 0.588,0.136 0.88,0.208 -0.292,-0.072 -0.58,-0.148 -0.88,-0.208 z m -4.425,0.075 z m 2.906,0.208 z m 3.57,0.241 z m -1.295,0.18 z m 3.207,0.519 z M 44.57,18.56 Z m 1.922,0.805 z m 1.096,0.01 c 0.293,0.163 0.586,0.325 0.87,0.501 a 19.255,19.255 0 0 0 -0.87,-0.5 z m 0.649,0.948 c 0.238,0.148 0.466,0.309 0.696,0.467 -0.23,-0.158 -0.458,-0.318 -0.696,-0.467 z m 1.015,0.088 c 0.292,0.203 0.587,0.403 0.865,0.62 -0.279,-0.217 -0.573,-0.417 -0.865,-0.62 z m 0.584,1.026 c 0.193,0.15 0.37,0.315 0.556,0.473 -0.185,-0.158 -0.363,-0.323 -0.556,-0.473 z m 0.907,0.125 c 0.292,0.25 0.591,0.494 0.867,0.76 -0.276,-0.267 -0.574,-0.51 -0.867,-0.76 z m 0.867,0.76 -0.324,0.37 c 4.37,4.225 6.557,10.575 5.406,17.702 -2.066,12.774 -14.13,23.153 -26.898,23.15 a 21.77,21.77 0 0 1 -5.362,-0.672 l -0.166,0.487 c 1.767,0.459 3.623,0.695 5.528,0.7 C 42.839,64.061 55.087,53.517 57.196,40.477 58.372,33.194 56.107,26.669 51.61,22.323 Z"
           font-family="sans-serif"
           font-weight="400"
           overflow="visible"
           style="font-variant-ligatures:normal;font-variant-position:normal;font-variant-caps:normal;font-variant-numeric:normal;font-variant-alternates:normal;font-feature-settings:normal;text-indent:0;text-decoration:none;text-decoration-line:none;text-decoration-style:solid;text-decoration-color:#000000;text-transform:none;text-orientation:mixed;white-space:normal;shape-padding:0;isolation:auto;mix-blend-mode:normal"
           id="path55" /></g><path
         d="m 36.190245,70.062804 c -1.982,-1.524 -4.286,-0.987 -4.286,-0.987 0,0 2.168,0.579 3.671,1.775 l 0.011,0.01 c 1.095,0.85 2.17,2.106 2.17,2.106 0,0 -0.095,-1.739 -1.552,-2.893 l -0.013,-0.01 z m 38.169,-42.366 c -2.75,-3.032 -6.193,-4.816 -9.02,-5.888 -2.777,-1.053 -4.71,-1.397 -4.71,-1.397 0,0 1.872,0.592 4.512,1.858 2.705,1.298 5.882,3.207 8.475,6.097 l 0.042,0.047 c 2.306,2.562 3.89,5.378 5.004,7.793 1.08,2.338 1.614,3.982 1.614,3.982 0,0 -0.288,-1.704 -1.149,-4.17 -0.88,-2.523 -2.324,-5.59 -4.724,-8.273 l -0.044,-0.05 z"
         fill="#ffffff"
         id="path59"
         sodipodi:nodetypes="cccccccccccccccccccc"
         style="display:inline" /></g><g
       id="g2333"
       style="display:inline"
       transform="matrix(-0.03364126,-0.06651966,-0.06449837,0.04033593,34.286553,45.246193)"><path
         d="m 70.505768,30.135945 c 2.59226,8.337444 7.176494,15.09327 11.710164,19.706683 4.45351,4.531743 2.903166,1.346816 2.903166,1.346816 0,0 17.596042,-7.843561 13.604411,-12.664486 -4.050835,-7.223153 -6.953859,-4.58724 -9.373665,-12.273333 L 83.307474,15.970571 C 81.121419,8.7347182 78.871722,7.6677042 79.562012,6.4908832 c 0.0305,-5.49449867 -10.217434,0.9925979 -10.217434,0.9925979 0,0 -0.668689,-2.3316679 -1.243199,3.2138799 -0.58954,5.6729 0.134789,11.956263 2.363449,19.303939 l -0.70603,0.452336 z"
         fill="#ffffff"
         id="path1602"
         sodipodi:nodetypes="cccccccccccc"
         style="display:inline;fill:#808080;fill-opacity:1;stroke-width:2.14359" /><path
         d="m 69.276522,30.846904 c 2.59226,8.337444 7.67658,14.881936 12.21025,19.495349 4.45351,4.531743 2.40308,1.55815 2.40308,1.55815 0,0 2.39599,2.548447 -1.59564,-2.272478 -4.08917,-4.941258 -8.54052,-11.488746 -10.95637,-19.410327 l -0.0388,-0.128987 c -2.1559,-7.02906 -2.67155,-13.901262 -2.63706,-19.575282 0.0305,-5.494499 -0.54665,-2.318889 -0.54665,-2.318889 0,0 0.0424,-3.280457 -0.53211,2.265091 -0.58954,5.6729 -0.5763,12.905052 1.65236,20.252728 l -0.70603,0.452336 z"
         fill="#ffffff"
         id="path1391"
         sodipodi:nodetypes="cccccccccccc"
         style="fill:#000000;fill-opacity:1;stroke-width:2.14359" /></g></g></svg>
