<?xml version="1.0" encoding="UTF-8" standalone="no"?>
<svg
   version="1.1"
   viewBox="0 0 100 100"
   id="svg63"
   sodipodi:docname="piercing_pussy_ring.svg"
   inkscape:version="1.2.2 (732a01da63, 2022-12-09)"
   xmlns:inkscape="http://www.inkscape.org/namespaces/inkscape"
   xmlns:sodipodi="http://sodipodi.sourceforge.net/DTD/sodipodi-0.dtd"
   xmlns:xlink="http://www.w3.org/1999/xlink"
   xmlns="http://www.w3.org/2000/svg"
   xmlns:svg="http://www.w3.org/2000/svg"
   xmlns:rdf="http://www.w3.org/1999/02/22-rdf-syntax-ns#"
   xmlns:cc="http://creativecommons.org/ns#"
   xmlns:dc="http://purl.org/dc/elements/1.1/">
  <metadata
     id="metadata67">
    <rdf:RDF>
      <cc:Work
         rdf:about="">
        <dc:format>image/svg+xml</dc:format>
        <dc:type
           rdf:resource="http://purl.org/dc/dcmitype/StillImage" />
      </cc:Work>
    </rdf:RDF>
  </metadata>
  <sodipodi:namedview
     pagecolor="#ffffff"
     bordercolor="#666666"
     borderopacity="1"
     objecttolerance="10"
     gridtolerance="10"
     guidetolerance="10"
     inkscape:pageopacity="0"
     inkscape:pageshadow="2"
     inkscape:window-width="1920"
     inkscape:window-height="1017"
     id="namedview65"
     showgrid="false"
     inkscape:zoom="6.0104076"
     inkscape:cx="37.518254"
     inkscape:cy="45.58759"
     inkscape:window-x="-8"
     inkscape:window-y="-8"
     inkscape:window-maximized="1"
     inkscape:current-layer="svg63"
     inkscape:document-rotation="0"
     inkscape:showpageshadow="2"
     inkscape:pagecheckerboard="0"
     inkscape:deskcolor="#d1d1d1" />
  <defs
     id="defs13">
    <linearGradient
       id="innoGrad2">
      <stop
         stop-color="#ff8080"
         offset="0"
         id="stop2" />
      <stop
         stop-color="#ffd5d5"
         offset="1"
         id="stop4" />
    </linearGradient>
    <linearGradient
       id="linearGradient1219"
       x1="22.205"
       x2="15.445"
       y1="57.153"
       y2="17.56"
       gradientUnits="userSpaceOnUse"
       xlink:href="#innoGrad2" />
    <linearGradient
       id="linearGradient1228"
       x1="29.8"
       x2="19.205"
       y1="64.035"
       y2="18.195"
       gradientUnits="userSpaceOnUse"
       xlink:href="#innoGrad2" />
    <linearGradient
       id="linearGradient1236"
       x1="20.188"
       x2="13.967"
       y1="65.995"
       y2="56.584"
       gradientUnits="userSpaceOnUse"
       xlink:href="#innoGrad2" />
    <linearGradient
       id="linearGradient1358"
       x1="14.884"
       x2="22.676"
       y1="64.359"
       y2="57.511"
       gradientUnits="userSpaceOnUse"
       xlink:href="#innoGrad2" />
    <linearGradient
       id="linearGradient1360"
       x1="14.8"
       x2="55.83"
       y1="57.785"
       y2="17.57"
       gradientUnits="userSpaceOnUse"
       xlink:href="#innoGrad2" />
    <linearGradient
       id="linearGradient868"
       x1="18.08"
       x2="55.82"
       y1="60.278"
       y2="17.56"
       gradientUnits="userSpaceOnUse"
       xlink:href="#innoGrad2" />
    <linearGradient
       inkscape:collect="always"
       xlink:href="#innoGrad2"
       id="linearGradient3149"
       gradientUnits="userSpaceOnUse"
       x1="18.08"
       y1="60.278"
       x2="55.82"
       y2="17.56" />
    <linearGradient
       inkscape:collect="always"
       xlink:href="#innoGrad2"
       id="linearGradient3151"
       gradientUnits="userSpaceOnUse"
       x1="14.884"
       y1="64.359"
       x2="22.676"
       y2="57.511" />
    <linearGradient
       inkscape:collect="always"
       xlink:href="#innoGrad2"
       id="linearGradient3153"
       gradientUnits="userSpaceOnUse"
       x1="14.8"
       y1="57.785"
       x2="55.83"
       y2="17.57" />
    <linearGradient
       inkscape:collect="always"
       xlink:href="#innoGrad2"
       id="linearGradient3187"
       gradientUnits="userSpaceOnUse"
       x1="18.08"
       y1="60.278"
       x2="55.82"
       y2="17.56" />
    <linearGradient
       inkscape:collect="always"
       xlink:href="#innoGrad2"
       id="linearGradient3189"
       gradientUnits="userSpaceOnUse"
       x1="14.884"
       y1="64.359"
       x2="22.676"
       y2="57.511" />
    <linearGradient
       inkscape:collect="always"
       xlink:href="#innoGrad2"
       id="linearGradient3191"
       gradientUnits="userSpaceOnUse"
       x1="14.8"
       y1="57.785"
       x2="55.83"
       y2="17.57" />
  </defs>
  <g
     id="g61"
     transform="matrix(0.79932838,0,0,0.81257147,20.685978,26.677118)">
    <g
       transform="matrix(-1.0375,0,0,1.0375,100.54,-6.175)"
       id="g35">
      <g
         font-family="sans-serif"
         font-weight="400"
         id="g23" />
    </g>
    <g
       id="g3099">
      <g
         transform="matrix(1.0709,0,0,1.0709,14.069379,6.6732915)"
         id="g57">
        <g
           font-family="sans-serif"
           font-weight="400"
           id="g45">
          <path
             d="m 38.332,10.985 c -16.274,0 -31.58,13.176 -34.21,29.45 C 2.436,50.863 6.37,60.01 13.69,65.244 l 4.389,-4.965 C 11.889,56.027 8.91,48.522 10.205,40.437 12.292,27.533 24.443,17.072 37.347,17.07 c 5.476,0 10.466,1.925 14.101,5.435 4.85,1.267 5.018,-1.488 4.37,-4.944 -4.398,-4.11 -10.452,-6.575 -17.487,-6.575 z"
             fill="url(#linearGradient868)"
             overflow="visible"
             style="font-variant-ligatures:normal;font-variant-position:normal;font-variant-caps:normal;font-variant-numeric:normal;font-variant-alternates:normal;font-feature-settings:normal;text-indent:0;text-decoration:none;text-decoration-line:none;text-decoration-style:solid;text-decoration-color:#000000;text-transform:none;text-orientation:mixed;white-space:normal;shape-padding:0;isolation:auto;mix-blend-mode:normal;fill:url(#linearGradient868)"
             id="path37" />
          <path
             d="m 38.348,10.629 c -16.459,0 -31.92,13.311 -34.58,29.765 -1.47,9.094 1.29,17.26 6.846,22.74 l 0.36,-0.363 C 5.54,57.411 2.829,49.424 4.274,40.477 6.893,24.29 22.167,11.141 38.349,11.14 c 6.994,0 13.008,2.447 17.376,6.526 L 56.049,17.3 c -4.46,-4.166 -10.59,-6.67 -17.7,-6.671 z"
             overflow="visible"
             style="font-variant-ligatures:normal;font-variant-position:normal;font-variant-caps:normal;font-variant-numeric:normal;font-variant-alternates:normal;font-feature-settings:normal;text-indent:0;text-decoration:none;text-decoration-line:none;text-decoration-style:solid;text-decoration-color:#000000;text-transform:none;text-orientation:mixed;white-space:normal;shape-padding:0;isolation:auto;mix-blend-mode:normal"
             id="path39" />
          <path
             d="M 37.348,16.812 C 24.306,16.814 12.063,27.357 9.954,40.394 8.88,47.097 10.714,53.376 14.8,57.785 l 0.376,-0.348 c -3.973,-4.288 -5.77,-10.396 -4.718,-16.96 2.066,-12.77 14.124,-23.149 26.89,-23.15 5.645,-0.002 10.475,2.016 13.938,5.364 L 51.61,22.323 C 48.055,18.887 43.108,16.811 37.348,16.812 Z"
             overflow="visible"
             style="font-variant-ligatures:normal;font-variant-position:normal;font-variant-caps:normal;font-variant-numeric:normal;font-variant-alternates:normal;font-feature-settings:normal;text-indent:0;text-decoration:none;text-decoration-line:none;text-decoration-style:solid;text-decoration-color:#000000;text-transform:none;text-orientation:mixed;white-space:normal;shape-padding:0;isolation:auto;mix-blend-mode:normal"
             id="path41" />
          <path
             d="m 17.15,56.584 a 7.16,7.16 0 0 1 7.171,7.171 7.165,7.165 0 0 1 -7.172,7.178 7.165,7.165 0 0 1 -7.171,-7.178 7.16,7.16 0 0 1 7.171,-7.171 z"
             fill="url(#linearGradient1358)"
             overflow="visible"
             style="font-variant-ligatures:normal;font-variant-position:normal;font-variant-caps:normal;font-variant-numeric:normal;font-variant-alternates:normal;font-feature-settings:normal;text-indent:0;text-decoration:none;text-decoration-line:none;text-decoration-style:solid;text-decoration-color:#000000;text-transform:none;text-orientation:mixed;white-space:normal;shape-padding:0;isolation:auto;mix-blend-mode:normal;fill:url(#linearGradient1358)"
             id="path43" />
        </g>
        <circle
           cx="17.209999"
           cy="63.785999"
           r="7.098"
           fill="none"
           stroke="#000000"
           stroke-width="0.512"
           id="circle47" />
        <path
           d="m 55.82,17.56 c -39.043,74.825 -19.522,37.413 0,0 z m 0.01,0.01 -4.37,4.945 c 4.599,4.438 6.611,11.005 5.494,17.93 -2.087,12.908 -14.243,23.37 -27.15,23.367 -4.34,-0.01 -5.022,-1.028 -6.624,-1.03 -2.967,-0.005 -3.602,3.808 -3.038,4.653 1.58,2.37 2.833,2.462 8.68,2.462 16.275,0 31.58,-13.177 34.212,-29.451 1.493,-9.24 -1.426,-17.478 -7.204,-22.876 z"
           fill="url(#linearGradient1360)"
           font-family="sans-serif"
           font-weight="400"
           overflow="visible"
           style="font-variant-ligatures:normal;font-variant-position:normal;font-variant-caps:normal;font-variant-numeric:normal;font-variant-alternates:normal;font-feature-settings:normal;text-indent:0;text-decoration:none;text-decoration-line:none;text-decoration-style:solid;text-decoration-color:#000000;text-transform:none;text-orientation:mixed;white-space:normal;shape-padding:0;isolation:auto;mix-blend-mode:normal;fill:url(#linearGradient1360)"
           id="path49" />
        <path
           d="m 56.048,17.3 -0.324,0.366 c 5.737,5.358 8.632,13.537 7.146,22.728 -2.617,16.187 -17.894,29.336 -34.076,29.337 -2.337,0 -4.564,-0.274 -6.656,-0.79 l -0.096,0.503 a 28.28,28.28 0 0 0 6.752,0.798 c 16.46,0 31.922,-13.311 34.582,-29.765 C 64.887,31.131 61.912,22.778 56.048,17.3 Z"
           font-family="sans-serif"
           font-weight="400"
           overflow="visible"
           style="font-variant-ligatures:normal;font-variant-position:normal;font-variant-caps:normal;font-variant-numeric:normal;font-variant-alternates:normal;font-feature-settings:normal;text-indent:0;text-decoration:none;text-decoration-line:none;text-decoration-style:solid;text-decoration-color:#000000;text-transform:none;text-orientation:mixed;white-space:normal;shape-padding:0;isolation:auto;mix-blend-mode:normal"
           id="path51" />
        <path
           d="m 24.266,63.36 c -1.634,-0.409 -2.958,0.003 -3.66,1.719 -0.703,1.716 0.021,3.381 1.532,3.862 l -0.096,0.503 c -1.979,-0.508 -2.643,-2.66 -1.964,-4.515 0.68,-1.856 2.393,-2.618 4.354,-2.057 z"
           id="path53" />
        <path
           d="m 39.608,16.926 c 0.262,0.026 0.513,0.072 0.77,0.107 -0.257,-0.035 -0.509,-0.081 -0.77,-0.107 z m 2.165,0.325 c 0.299,0.06 0.588,0.136 0.88,0.208 -0.292,-0.072 -0.58,-0.148 -0.88,-0.208 z m -4.425,0.075 z m 2.906,0.208 z m 3.57,0.241 z m -1.295,0.18 z m 3.207,0.519 z M 44.57,18.56 Z m 1.922,0.805 z m 1.096,0.01 c 0.293,0.163 0.586,0.325 0.87,0.501 a 19.255,19.255 0 0 0 -0.87,-0.5 z m 0.649,0.948 c 0.238,0.148 0.466,0.309 0.696,0.467 -0.23,-0.158 -0.458,-0.318 -0.696,-0.467 z m 1.015,0.088 c 0.292,0.203 0.587,0.403 0.865,0.62 -0.279,-0.217 -0.573,-0.417 -0.865,-0.62 z m 0.584,1.026 c 0.193,0.15 0.37,0.315 0.556,0.473 -0.185,-0.158 -0.363,-0.323 -0.556,-0.473 z m 0.907,0.125 c 0.292,0.25 0.591,0.494 0.867,0.76 -0.276,-0.267 -0.574,-0.51 -0.867,-0.76 z m 0.867,0.76 -0.324,0.37 c 4.37,4.225 6.557,10.575 5.406,17.702 -2.066,12.774 -14.13,23.153 -26.898,23.15 a 21.77,21.77 0 0 1 -5.362,-0.672 l -0.166,0.487 c 1.767,0.459 3.623,0.695 5.528,0.7 C 42.839,64.061 55.087,53.517 57.196,40.477 58.372,33.194 56.107,26.669 51.61,22.323 Z"
           font-family="sans-serif"
           font-weight="400"
           overflow="visible"
           style="font-variant-ligatures:normal;font-variant-position:normal;font-variant-caps:normal;font-variant-numeric:normal;font-variant-alternates:normal;font-feature-settings:normal;text-indent:0;text-decoration:none;text-decoration-line:none;text-decoration-style:solid;text-decoration-color:#000000;text-transform:none;text-orientation:mixed;white-space:normal;shape-padding:0;isolation:auto;mix-blend-mode:normal"
           id="path55" />
      </g>
    </g>
    <path
       d="m 36.190245,70.062804 c -1.982,-1.524 -4.286,-0.987 -4.286,-0.987 0,0 2.168,0.579 3.671,1.775 l 0.011,0.01 c 1.095,0.85 2.17,2.106 2.17,2.106 0,0 -0.095,-1.739 -1.552,-2.893 l -0.013,-0.01 z m 38.169,-42.366 c -2.75,-3.032 -6.193,-4.816 -9.02,-5.888 -2.777,-1.053 -4.71,-1.397 -4.71,-1.397 0,0 1.872,0.592 4.512,1.858 2.705,1.298 5.882,3.207 8.475,6.097 l 0.042,0.047 c 2.306,2.562 3.89,5.378 5.004,7.793 1.08,2.338 1.614,3.982 1.614,3.982 0,0 -0.288,-1.704 -1.149,-4.17 -0.88,-2.523 -2.324,-5.59 -4.724,-8.273 l -0.044,-0.05 z"
       fill="#ffffff"
       id="path59"
       sodipodi:nodetypes="cccccccccccccccccccc"
       style="display:inline" />
  </g>
  <g
     id="g3131"
     transform="matrix(0.92796403,0,0,0.89729944,3.4369286,4.5163989)">
    <g
       transform="matrix(-1.0375,0,0,1.0375,100.54,-6.175)"
       id="g3103">
      <g
         font-family="sans-serif"
         font-weight="400"
         id="g3101" />
    </g>
    <g
       id="g3127">
      <g
         transform="matrix(1.0709,0,0,1.0709,14.069379,6.6732915)"
         id="g3125">
        <g
           font-family="sans-serif"
           font-weight="400"
           id="g3113">
          <path
             d="m 38.332,10.985 c -16.274,0 -31.58,13.176 -34.21,29.45 C 2.436,50.863 6.37,60.01 13.69,65.244 l 4.389,-4.965 C 11.889,56.027 8.91,48.522 10.205,40.437 12.292,27.533 24.443,17.072 37.347,17.07 c 5.476,0 10.466,1.925 14.101,5.435 4.85,1.267 5.018,-1.488 4.37,-4.944 -4.398,-4.11 -10.452,-6.575 -17.487,-6.575 z"
             fill="url(#linearGradient868)"
             overflow="visible"
             style="font-variant-ligatures:normal;font-variant-position:normal;font-variant-caps:normal;font-variant-numeric:normal;font-variant-alternates:normal;font-feature-settings:normal;text-indent:0;text-decoration:none;text-decoration-line:none;text-decoration-style:solid;text-decoration-color:#000000;text-transform:none;text-orientation:mixed;white-space:normal;shape-padding:0;isolation:auto;mix-blend-mode:normal;fill:url(#linearGradient3149)"
             id="path3105" />
          <path
             d="m 38.348,10.629 c -16.459,0 -31.92,13.311 -34.58,29.765 -1.47,9.094 1.29,17.26 6.846,22.74 l 0.36,-0.363 C 5.54,57.411 2.829,49.424 4.274,40.477 6.893,24.29 22.167,11.141 38.349,11.14 c 6.994,0 13.008,2.447 17.376,6.526 L 56.049,17.3 c -4.46,-4.166 -10.59,-6.67 -17.7,-6.671 z"
             overflow="visible"
             style="font-variant-ligatures:normal;font-variant-position:normal;font-variant-caps:normal;font-variant-numeric:normal;font-variant-alternates:normal;font-feature-settings:normal;text-indent:0;text-decoration:none;text-decoration-line:none;text-decoration-style:solid;text-decoration-color:#000000;text-transform:none;text-orientation:mixed;white-space:normal;shape-padding:0;isolation:auto;mix-blend-mode:normal"
             id="path3107" />
          <path
             d="M 37.348,16.812 C 24.306,16.814 12.063,27.357 9.954,40.394 8.88,47.097 10.714,53.376 14.8,57.785 l 0.376,-0.348 c -3.973,-4.288 -5.77,-10.396 -4.718,-16.96 2.066,-12.77 14.124,-23.149 26.89,-23.15 5.645,-0.002 10.475,2.016 13.938,5.364 L 51.61,22.323 C 48.055,18.887 43.108,16.811 37.348,16.812 Z"
             overflow="visible"
             style="font-variant-ligatures:normal;font-variant-position:normal;font-variant-caps:normal;font-variant-numeric:normal;font-variant-alternates:normal;font-feature-settings:normal;text-indent:0;text-decoration:none;text-decoration-line:none;text-decoration-style:solid;text-decoration-color:#000000;text-transform:none;text-orientation:mixed;white-space:normal;shape-padding:0;isolation:auto;mix-blend-mode:normal"
             id="path3109" />
          <path
             d="m 17.15,56.584 a 7.16,7.16 0 0 1 7.171,7.171 7.165,7.165 0 0 1 -7.172,7.178 7.165,7.165 0 0 1 -7.171,-7.178 7.16,7.16 0 0 1 7.171,-7.171 z"
             fill="url(#linearGradient1358)"
             overflow="visible"
             style="font-variant-ligatures:normal;font-variant-position:normal;font-variant-caps:normal;font-variant-numeric:normal;font-variant-alternates:normal;font-feature-settings:normal;text-indent:0;text-decoration:none;text-decoration-line:none;text-decoration-style:solid;text-decoration-color:#000000;text-transform:none;text-orientation:mixed;white-space:normal;shape-padding:0;isolation:auto;mix-blend-mode:normal;fill:url(#linearGradient3151)"
             id="path3111" />
        </g>
        <circle
           cx="17.209999"
           cy="63.785999"
           r="7.098"
           fill="none"
           stroke="#000000"
           stroke-width="0.512"
           id="circle3115" />
        <path
           d="m 55.82,17.56 c -39.043,74.825 -19.522,37.413 0,0 z m 0.01,0.01 -4.37,4.945 c 4.599,4.438 6.611,11.005 5.494,17.93 -2.087,12.908 -14.243,23.37 -27.15,23.367 -4.34,-0.01 -5.022,-1.028 -6.624,-1.03 -2.967,-0.005 -3.602,3.808 -3.038,4.653 1.58,2.37 2.833,2.462 8.68,2.462 16.275,0 31.58,-13.177 34.212,-29.451 1.493,-9.24 -1.426,-17.478 -7.204,-22.876 z"
           fill="url(#linearGradient1360)"
           font-family="sans-serif"
           font-weight="400"
           overflow="visible"
           style="font-variant-ligatures:normal;font-variant-position:normal;font-variant-caps:normal;font-variant-numeric:normal;font-variant-alternates:normal;font-feature-settings:normal;text-indent:0;text-decoration:none;text-decoration-line:none;text-decoration-style:solid;text-decoration-color:#000000;text-transform:none;text-orientation:mixed;white-space:normal;shape-padding:0;isolation:auto;mix-blend-mode:normal;fill:url(#linearGradient3153)"
           id="path3117" />
        <path
           d="m 56.048,17.3 -0.324,0.366 c 5.737,5.358 8.632,13.537 7.146,22.728 -2.617,16.187 -17.894,29.336 -34.076,29.337 -2.337,0 -4.564,-0.274 -6.656,-0.79 l -0.096,0.503 a 28.28,28.28 0 0 0 6.752,0.798 c 16.46,0 31.922,-13.311 34.582,-29.765 C 64.887,31.131 61.912,22.778 56.048,17.3 Z"
           font-family="sans-serif"
           font-weight="400"
           overflow="visible"
           style="font-variant-ligatures:normal;font-variant-position:normal;font-variant-caps:normal;font-variant-numeric:normal;font-variant-alternates:normal;font-feature-settings:normal;text-indent:0;text-decoration:none;text-decoration-line:none;text-decoration-style:solid;text-decoration-color:#000000;text-transform:none;text-orientation:mixed;white-space:normal;shape-padding:0;isolation:auto;mix-blend-mode:normal"
           id="path3119" />
        <path
           d="m 24.266,63.36 c -1.634,-0.409 -2.958,0.003 -3.66,1.719 -0.703,1.716 0.021,3.381 1.532,3.862 l -0.096,0.503 c -1.979,-0.508 -2.643,-2.66 -1.964,-4.515 0.68,-1.856 2.393,-2.618 4.354,-2.057 z"
           id="path3121" />
        <path
           d="m 39.608,16.926 c 0.262,0.026 0.513,0.072 0.77,0.107 -0.257,-0.035 -0.509,-0.081 -0.77,-0.107 z m 2.165,0.325 c 0.299,0.06 0.588,0.136 0.88,0.208 -0.292,-0.072 -0.58,-0.148 -0.88,-0.208 z m -4.425,0.075 z m 2.906,0.208 z m 3.57,0.241 z m -1.295,0.18 z m 3.207,0.519 z M 44.57,18.56 Z m 1.922,0.805 z m 1.096,0.01 c 0.293,0.163 0.586,0.325 0.87,0.501 a 19.255,19.255 0 0 0 -0.87,-0.5 z m 0.649,0.948 c 0.238,0.148 0.466,0.309 0.696,0.467 -0.23,-0.158 -0.458,-0.318 -0.696,-0.467 z m 1.015,0.088 c 0.292,0.203 0.587,0.403 0.865,0.62 -0.279,-0.217 -0.573,-0.417 -0.865,-0.62 z m 0.584,1.026 c 0.193,0.15 0.37,0.315 0.556,0.473 -0.185,-0.158 -0.363,-0.323 -0.556,-0.473 z m 0.907,0.125 c 0.292,0.25 0.591,0.494 0.867,0.76 -0.276,-0.267 -0.574,-0.51 -0.867,-0.76 z m 0.867,0.76 -0.324,0.37 c 4.37,4.225 6.557,10.575 5.406,17.702 -2.066,12.774 -14.13,23.153 -26.898,23.15 a 21.77,21.77 0 0 1 -5.362,-0.672 l -0.166,0.487 c 1.767,0.459 3.623,0.695 5.528,0.7 C 42.839,64.061 55.087,53.517 57.196,40.477 58.372,33.194 56.107,26.669 51.61,22.323 Z"
           font-family="sans-serif"
           font-weight="400"
           overflow="visible"
           style="font-variant-ligatures:normal;font-variant-position:normal;font-variant-caps:normal;font-variant-numeric:normal;font-variant-alternates:normal;font-feature-settings:normal;text-indent:0;text-decoration:none;text-decoration-line:none;text-decoration-style:solid;text-decoration-color:#000000;text-transform:none;text-orientation:mixed;white-space:normal;shape-padding:0;isolation:auto;mix-blend-mode:normal"
           id="path3123" />
      </g>
    </g>
    <path
       d="m 36.190245,70.062804 c -1.982,-1.524 -4.286,-0.987 -4.286,-0.987 0,0 2.168,0.579 3.671,1.775 l 0.011,0.01 c 1.095,0.85 2.17,2.106 2.17,2.106 0,0 -0.095,-1.739 -1.552,-2.893 l -0.013,-0.01 z m 38.169,-42.366 c -2.75,-3.032 -6.193,-4.816 -9.02,-5.888 -2.777,-1.053 -4.71,-1.397 -4.71,-1.397 0,0 1.872,0.592 4.512,1.858 2.705,1.298 5.882,3.207 8.475,6.097 l 0.042,0.047 c 2.306,2.562 3.89,5.378 5.004,7.793 1.08,2.338 1.614,3.982 1.614,3.982 0,0 -0.288,-1.704 -1.149,-4.17 -0.88,-2.523 -2.324,-5.59 -4.724,-8.273 l -0.044,-0.05 z"
       fill="#ffffff"
       id="path3129"
       sodipodi:nodetypes="cccccccccccccccccccc"
       style="display:inline" />
  </g>
  <g
     id="g3185"
     transform="translate(-16.30505,-17.303319)">
    <g
       transform="matrix(-1.0375,0,0,1.0375,100.54,-6.175)"
       id="g3157">
      <g
         font-family="sans-serif"
         font-weight="400"
         id="g3155" />
    </g>
    <g
       id="g3181">
      <g
         transform="matrix(1.0709,0,0,1.0709,14.069379,6.6732915)"
         id="g3179">
        <g
           font-family="sans-serif"
           font-weight="400"
           id="g3167">
          <path
             d="m 38.332,10.985 c -16.274,0 -31.58,13.176 -34.21,29.45 C 2.436,50.863 6.37,60.01 13.69,65.244 l 4.389,-4.965 C 11.889,56.027 8.91,48.522 10.205,40.437 12.292,27.533 24.443,17.072 37.347,17.07 c 5.476,0 10.466,1.925 14.101,5.435 4.85,1.267 5.018,-1.488 4.37,-4.944 -4.398,-4.11 -10.452,-6.575 -17.487,-6.575 z"
             fill="url(#linearGradient868)"
             overflow="visible"
             style="font-variant-ligatures:normal;font-variant-position:normal;font-variant-caps:normal;font-variant-numeric:normal;font-variant-alternates:normal;font-feature-settings:normal;text-indent:0;text-decoration:none;text-decoration-line:none;text-decoration-style:solid;text-decoration-color:#000000;text-transform:none;text-orientation:mixed;white-space:normal;shape-padding:0;isolation:auto;mix-blend-mode:normal;fill:url(#linearGradient3187)"
             id="path3159" />
          <path
             d="m 38.348,10.629 c -16.459,0 -31.92,13.311 -34.58,29.765 -1.47,9.094 1.29,17.26 6.846,22.74 l 0.36,-0.363 C 5.54,57.411 2.829,49.424 4.274,40.477 6.893,24.29 22.167,11.141 38.349,11.14 c 6.994,0 13.008,2.447 17.376,6.526 L 56.049,17.3 c -4.46,-4.166 -10.59,-6.67 -17.7,-6.671 z"
             overflow="visible"
             style="font-variant-ligatures:normal;font-variant-position:normal;font-variant-caps:normal;font-variant-numeric:normal;font-variant-alternates:normal;font-feature-settings:normal;text-indent:0;text-decoration:none;text-decoration-line:none;text-decoration-style:solid;text-decoration-color:#000000;text-transform:none;text-orientation:mixed;white-space:normal;shape-padding:0;isolation:auto;mix-blend-mode:normal"
             id="path3161" />
          <path
             d="M 37.348,16.812 C 24.306,16.814 12.063,27.357 9.954,40.394 8.88,47.097 10.714,53.376 14.8,57.785 l 0.376,-0.348 c -3.973,-4.288 -5.77,-10.396 -4.718,-16.96 2.066,-12.77 14.124,-23.149 26.89,-23.15 5.645,-0.002 10.475,2.016 13.938,5.364 L 51.61,22.323 C 48.055,18.887 43.108,16.811 37.348,16.812 Z"
             overflow="visible"
             style="font-variant-ligatures:normal;font-variant-position:normal;font-variant-caps:normal;font-variant-numeric:normal;font-variant-alternates:normal;font-feature-settings:normal;text-indent:0;text-decoration:none;text-decoration-line:none;text-decoration-style:solid;text-decoration-color:#000000;text-transform:none;text-orientation:mixed;white-space:normal;shape-padding:0;isolation:auto;mix-blend-mode:normal"
             id="path3163" />
          <path
             d="m 17.15,56.584 a 7.16,7.16 0 0 1 7.171,7.171 7.165,7.165 0 0 1 -7.172,7.178 7.165,7.165 0 0 1 -7.171,-7.178 7.16,7.16 0 0 1 7.171,-7.171 z"
             fill="url(#linearGradient1358)"
             overflow="visible"
             style="font-variant-ligatures:normal;font-variant-position:normal;font-variant-caps:normal;font-variant-numeric:normal;font-variant-alternates:normal;font-feature-settings:normal;text-indent:0;text-decoration:none;text-decoration-line:none;text-decoration-style:solid;text-decoration-color:#000000;text-transform:none;text-orientation:mixed;white-space:normal;shape-padding:0;isolation:auto;mix-blend-mode:normal;fill:url(#linearGradient3189)"
             id="path3165" />
        </g>
        <circle
           cx="17.209999"
           cy="63.785999"
           r="7.098"
           fill="none"
           stroke="#000000"
           stroke-width="0.512"
           id="circle3169" />
        <path
           d="m 55.82,17.56 c -39.043,74.825 -19.522,37.413 0,0 z m 0.01,0.01 -4.37,4.945 c 4.599,4.438 6.611,11.005 5.494,17.93 -2.087,12.908 -14.243,23.37 -27.15,23.367 -4.34,-0.01 -5.022,-1.028 -6.624,-1.03 -2.967,-0.005 -3.602,3.808 -3.038,4.653 1.58,2.37 2.833,2.462 8.68,2.462 16.275,0 31.58,-13.177 34.212,-29.451 1.493,-9.24 -1.426,-17.478 -7.204,-22.876 z"
           fill="url(#linearGradient1360)"
           font-family="sans-serif"
           font-weight="400"
           overflow="visible"
           style="font-variant-ligatures:normal;font-variant-position:normal;font-variant-caps:normal;font-variant-numeric:normal;font-variant-alternates:normal;font-feature-settings:normal;text-indent:0;text-decoration:none;text-decoration-line:none;text-decoration-style:solid;text-decoration-color:#000000;text-transform:none;text-orientation:mixed;white-space:normal;shape-padding:0;isolation:auto;mix-blend-mode:normal;fill:url(#linearGradient3191)"
           id="path3171" />
        <path
           d="m 56.048,17.3 -0.324,0.366 c 5.737,5.358 8.632,13.537 7.146,22.728 -2.617,16.187 -17.894,29.336 -34.076,29.337 -2.337,0 -4.564,-0.274 -6.656,-0.79 l -0.096,0.503 a 28.28,28.28 0 0 0 6.752,0.798 c 16.46,0 31.922,-13.311 34.582,-29.765 C 64.887,31.131 61.912,22.778 56.048,17.3 Z"
           font-family="sans-serif"
           font-weight="400"
           overflow="visible"
           style="font-variant-ligatures:normal;font-variant-position:normal;font-variant-caps:normal;font-variant-numeric:normal;font-variant-alternates:normal;font-feature-settings:normal;text-indent:0;text-decoration:none;text-decoration-line:none;text-decoration-style:solid;text-decoration-color:#000000;text-transform:none;text-orientation:mixed;white-space:normal;shape-padding:0;isolation:auto;mix-blend-mode:normal"
           id="path3173" />
        <path
           d="m 24.266,63.36 c -1.634,-0.409 -2.958,0.003 -3.66,1.719 -0.703,1.716 0.021,3.381 1.532,3.862 l -0.096,0.503 c -1.979,-0.508 -2.643,-2.66 -1.964,-4.515 0.68,-1.856 2.393,-2.618 4.354,-2.057 z"
           id="path3175" />
        <path
           d="m 39.608,16.926 c 0.262,0.026 0.513,0.072 0.77,0.107 -0.257,-0.035 -0.509,-0.081 -0.77,-0.107 z m 2.165,0.325 c 0.299,0.06 0.588,0.136 0.88,0.208 -0.292,-0.072 -0.58,-0.148 -0.88,-0.208 z m -4.425,0.075 z m 2.906,0.208 z m 3.57,0.241 z m -1.295,0.18 z m 3.207,0.519 z M 44.57,18.56 Z m 1.922,0.805 z m 1.096,0.01 c 0.293,0.163 0.586,0.325 0.87,0.501 a 19.255,19.255 0 0 0 -0.87,-0.5 z m 0.649,0.948 c 0.238,0.148 0.466,0.309 0.696,0.467 -0.23,-0.158 -0.458,-0.318 -0.696,-0.467 z m 1.015,0.088 c 0.292,0.203 0.587,0.403 0.865,0.62 -0.279,-0.217 -0.573,-0.417 -0.865,-0.62 z m 0.584,1.026 c 0.193,0.15 0.37,0.315 0.556,0.473 -0.185,-0.158 -0.363,-0.323 -0.556,-0.473 z m 0.907,0.125 c 0.292,0.25 0.591,0.494 0.867,0.76 -0.276,-0.267 -0.574,-0.51 -0.867,-0.76 z m 0.867,0.76 -0.324,0.37 c 4.37,4.225 6.557,10.575 5.406,17.702 -2.066,12.774 -14.13,23.153 -26.898,23.15 a 21.77,21.77 0 0 1 -5.362,-0.672 l -0.166,0.487 c 1.767,0.459 3.623,0.695 5.528,0.7 C 42.839,64.061 55.087,53.517 57.196,40.477 58.372,33.194 56.107,26.669 51.61,22.323 Z"
           font-family="sans-serif"
           font-weight="400"
           overflow="visible"
           style="font-variant-ligatures:normal;font-variant-position:normal;font-variant-caps:normal;font-variant-numeric:normal;font-variant-alternates:normal;font-feature-settings:normal;text-indent:0;text-decoration:none;text-decoration-line:none;text-decoration-style:solid;text-decoration-color:#000000;text-transform:none;text-orientation:mixed;white-space:normal;shape-padding:0;isolation:auto;mix-blend-mode:normal"
           id="path3177" />
      </g>
    </g>
    <path
       d="m 36.190245,70.062804 c -1.982,-1.524 -4.286,-0.987 -4.286,-0.987 0,0 2.168,0.579 3.671,1.775 l 0.011,0.01 c 1.095,0.85 2.17,2.106 2.17,2.106 0,0 -0.095,-1.739 -1.552,-2.893 l -0.013,-0.01 z m 38.169,-42.366 c -2.75,-3.032 -6.193,-4.816 -9.02,-5.888 -2.777,-1.053 -4.71,-1.397 -4.71,-1.397 0,0 1.872,0.592 4.512,1.858 2.705,1.298 5.882,3.207 8.475,6.097 l 0.042,0.047 c 2.306,2.562 3.89,5.378 5.004,7.793 1.08,2.338 1.614,3.982 1.614,3.982 0,0 -0.288,-1.704 -1.149,-4.17 -0.88,-2.523 -2.324,-5.59 -4.724,-8.273 l -0.044,-0.05 z"
       fill="#ffffff"
       id="path3183"
       sodipodi:nodetypes="cccccccccccccccccccc"
       style="display:inline" />
  </g>
</svg>
