<?xml version="1.0" encoding="UTF-8" standalone="no"?>
<svg
   viewBox="0 0 256 256"
   version="1.1"
   id="svg922"
   sodipodi:docname="cyber_bra.svg"
   xml:space="preserve"
   inkscape:version="1.2 (dc2aedaf03, 2022-05-15)"
   xmlns:inkscape="http://www.inkscape.org/namespaces/inkscape"
   xmlns:sodipodi="http://sodipodi.sourceforge.net/DTD/sodipodi-0.dtd"
   xmlns:xlink="http://www.w3.org/1999/xlink"
   xmlns="http://www.w3.org/2000/svg"
   xmlns:svg="http://www.w3.org/2000/svg"><sodipodi:namedview
     id="namedview924"
     pagecolor="#ffffff"
     bordercolor="#000000"
     borderopacity="0.25"
     inkscape:showpageshadow="2"
     inkscape:pageopacity="0.0"
     inkscape:pagecheckerboard="0"
     inkscape:deskcolor="#d1d1d1"
     showgrid="false"
     inkscape:zoom="3.3398438"
     inkscape:cx="105.69357"
     inkscape:cy="146.86316"
     inkscape:window-width="1920"
     inkscape:window-height="1051"
     inkscape:window-x="-9"
     inkscape:window-y="-9"
     inkscape:window-maximized="1"
     inkscape:current-layer="svg922" /><defs
     id="defs664"><linearGradient
       inkscape:collect="always"
       id="linearGradient10382"><stop
         style="stop-color:#ff8080;stop-opacity:1"
         offset="0"
         id="stop10378" /><stop
         style="stop-color:#ffaaaa;stop-opacity:1"
         offset="1"
         id="stop10380" /></linearGradient><linearGradient
       inkscape:collect="always"
       id="linearGradient10372"><stop
         style="stop-color:#ff8080;stop-opacity:1"
         offset="0"
         id="stop10368" /><stop
         style="stop-color:#ffaaaa;stop-opacity:1"
         offset="1"
         id="stop10370" /></linearGradient><linearGradient
       inkscape:collect="always"
       id="linearGradient10366"><stop
         style="stop-color:#ffb380;stop-opacity:1"
         offset="0"
         id="stop10362" /><stop
         style="stop-color:#ffccaa;stop-opacity:1"
         offset="1"
         id="stop10364" /></linearGradient><linearGradient
       inkscape:collect="always"
       id="linearGradient10356"><stop
         style="stop-color:#ffb380;stop-opacity:1"
         offset="0"
         id="stop10352" /><stop
         style="stop-color:#ffccaa;stop-opacity:1"
         offset="1"
         id="stop10354" /></linearGradient><inkscape:path-effect
       effect="fillet_chamfer"
       id="path-effect5764"
       is_visible="true"
       lpeversion="1"
       nodesatellites_param="F,0,0,1,0,2,0,1 @ F,0,0,1,0,2,0,1 @ F,0,0,1,0,2,0,1 @ F,0,0,1,0,2,0,1"
       unit="px"
       method="auto"
       mode="F"
       radius="2"
       chamfer_steps="1"
       flexible="false"
       use_knot_distance="true"
       apply_no_radius="true"
       apply_with_radius="true"
       only_selected="false"
       hide_knots="false" /><inkscape:path-effect
       effect="fillet_chamfer"
       id="path-effect5169"
       is_visible="true"
       lpeversion="1"
       nodesatellites_param="F,0,0,1,0,0,0,1 @ F,0,0,1,0,0,0,1 @ F,0,1,1,0,1,0,2 @ F,0,1,1,0,1,0,2"
       unit="px"
       method="auto"
       mode="F"
       radius="1"
       chamfer_steps="1"
       flexible="false"
       use_knot_distance="true"
       apply_no_radius="true"
       apply_with_radius="true"
       only_selected="true"
       hide_knots="false" /><inkscape:path-effect
       effect="fillet_chamfer"
       id="path-effect3282"
       is_visible="true"
       lpeversion="1"
       nodesatellites_param="F,0,0,1,0,2,0,1 @ F,0,0,1,0,2,0,1 @ F,0,0,1,0,2,0,1"
       unit="px"
       method="auto"
       mode="F"
       radius="2"
       chamfer_steps="1"
       flexible="false"
       use_knot_distance="true"
       apply_no_radius="true"
       apply_with_radius="true"
       only_selected="false"
       hide_knots="false" /><linearGradient
       id="innoGrad6"><stop
         offset="0"
         stop-color="#ff2a2a"
         stop-opacity="0"
         id="stop554" /><stop
         offset="1"
         stop-color="#ff2a2a"
         stop-opacity=".402"
         id="stop556" /></linearGradient><linearGradient
       id="innoGrad7"><stop
         offset="0"
         stop-color="#ff2a2a"
         stop-opacity="0"
         id="stop559" /><stop
         offset="1"
         stop-color="#ff2a2a"
         stop-opacity=".5"
         id="stop561" /></linearGradient><linearGradient
       id="innoGrad5"><stop
         offset="0"
         stop-color="#ff2a2a"
         stop-opacity=".502"
         id="stop564" /><stop
         offset=".385"
         stop-color="#ff2a2a"
         stop-opacity="0"
         id="stop566" /><stop
         offset=".577"
         stop-color="#ff2a2a"
         stop-opacity=".502"
         id="stop568" /><stop
         offset=".77"
         stop-color="#ff2a2a"
         stop-opacity="0"
         id="stop570" /><stop
         offset="1"
         stop-color="#ff2a2a"
         stop-opacity=".502"
         id="stop572" /></linearGradient><linearGradient
       id="innoGrad4"><stop
         offset="0"
         stop-color="#ff2a2a"
         stop-opacity=".502"
         id="stop575" /><stop
         offset=".5"
         stop-color="#ff2a2a"
         stop-opacity="0"
         id="stop577" /><stop
         offset="1"
         stop-color="#ff2a2a"
         stop-opacity=".502"
         id="stop579" /></linearGradient><linearGradient
       id="innoGrad3"><stop
         offset="0"
         stop-color="#ff2a2a"
         id="stop582" /><stop
         offset="1"
         stop-color="#ff2a2a"
         stop-opacity="0"
         id="stop584" /></linearGradient><linearGradient
       id="innoGrad2"><stop
         offset="0"
         stop-color="#ff7f2a"
         stop-opacity="0"
         id="stop587" /><stop
         offset="1"
         stop-color="#ff7f2a"
         stop-opacity=".502"
         id="stop589" /></linearGradient><linearGradient
       id="innoGrad1"><stop
         offset="0"
         stop-color="#ff2a2a"
         stop-opacity="0"
         id="stop592" /><stop
         offset="1"
         stop-color="#ff2a2a"
         stop-opacity=".502"
         id="stop594" /></linearGradient><radialGradient
       id="radialGradient1139"
       cx="135.506"
       cy="186.841"
       r="79.465"
       fx="135.506"
       fy="186.841"
       gradientTransform="matrix(0,0.53898553,-0.54078102,0,595.69978,80.850286)"
       gradientUnits="userSpaceOnUse"
       xlink:href="#innoGrad1" /><linearGradient
       id="linearGradient1162"
       x1="127.197"
       x2="127.197"
       y1="178.156"
       y2="246.185"
       gradientUnits="userSpaceOnUse"
       xlink:href="#innoGrad6"
       gradientTransform="matrix(0.93214,0,0,0.93213,376.22835,-7.6601186)" /><linearGradient
       id="linearGradient1164"
       x1="129.466"
       x2="129.466"
       y1="189.246"
       y2="116.749"
       gradientUnits="userSpaceOnUse"
       xlink:href="#innoGrad7"
       gradientTransform="matrix(0.93214,0,0,0.93213,376.22835,-7.6601186)" /><radialGradient
       id="radialGradient1182"
       cx="128.663"
       cy="178.455"
       r="55.609"
       fx="128.663"
       fy="178.455"
       gradientTransform="matrix(-2.1986013,0,0,-2.2050094,771.85363,551.55916)"
       gradientUnits="userSpaceOnUse"
       xlink:href="#innoGrad1" /><radialGradient
       id="radialGradient1190"
       cx="129.848"
       cy="177.734"
       r="55.782"
       fx="129.848"
       fy="177.734"
       gradientTransform="matrix(0,2.1561658,-2.1404917,0,877.70382,-122.62624)"
       gradientUnits="userSpaceOnUse"
       xlink:href="#innoGrad1" /><radialGradient
       id="radialGradient1215"
       cx="127.999"
       cy="171.553"
       r="60.893"
       fx="127.999"
       fy="171.553"
       gradientTransform="matrix(0,0.93213,-0.9393268,0,656.68597,32.937871)"
       gradientUnits="userSpaceOnUse"
       xlink:href="#innoGrad2" /><linearGradient
       id="linearGradient1244"
       x1="191.695"
       x2="197.612"
       y1="242.336"
       y2="254.268"
       gradientUnits="userSpaceOnUse"
       xlink:href="#innoGrad3" /><linearGradient
       id="linearGradient1258"
       x1="173.962"
       x2="173.082"
       y1="239.479"
       y2="244.177"
       gradientUnits="userSpaceOnUse"
       xlink:href="#innoGrad3" /><linearGradient
       id="linearGradient1266"
       x1="126.741"
       x2="128.013"
       y1="236.306"
       y2="244.171"
       gradientUnits="userSpaceOnUse"
       xlink:href="#innoGrad3" /><linearGradient
       id="linearGradient1274"
       x1="73.8"
       x2="74.373"
       y1="239.134"
       y2="247.763"
       gradientUnits="userSpaceOnUse"
       xlink:href="#innoGrad3" /><linearGradient
       id="linearGradient1282"
       x1="63.737"
       x2="59.555"
       y1="240.743"
       y2="252.632"
       gradientUnits="userSpaceOnUse"
       xlink:href="#innoGrad3" /><linearGradient
       id="linearGradient1290"
       x1="52.79"
       x2="47.393"
       y1="241.359"
       y2="251.234"
       gradientUnits="userSpaceOnUse"
       xlink:href="#innoGrad3" /><linearGradient
       id="linearGradient1298"
       x1="218.585"
       x2="221.499"
       y1="243.069"
       y2="247.95"
       gradientUnits="userSpaceOnUse"
       xlink:href="#innoGrad3" /><linearGradient
       id="linearGradient1306"
       x1="225.625"
       x2="236.745"
       y1="238.215"
       y2="249.006"
       gradientUnits="userSpaceOnUse"
       xlink:href="#innoGrad3" /><linearGradient
       id="linearGradient1314"
       x1="223.464"
       x2="225.859"
       y1="239.34"
       y2="250.727"
       gradientUnits="userSpaceOnUse"
       xlink:href="#innoGrad3" /><linearGradient
       id="linearGradient1322"
       x1="227.982"
       x2="240.406"
       y1="238.068"
       y2="239.492"
       gradientUnits="userSpaceOnUse"
       xlink:href="#innoGrad3" /><linearGradient
       id="linearGradient1330"
       x1="201.644"
       x2="208.188"
       y1="245.273"
       y2="253.89"
       gradientUnits="userSpaceOnUse"
       xlink:href="#innoGrad3" /><linearGradient
       id="linearGradient1338"
       x1="139.838"
       x2="146.589"
       y1="236.745"
       y2="243.553"
       gradientUnits="userSpaceOnUse"
       xlink:href="#innoGrad3" /><linearGradient
       id="linearGradient1346"
       x1="110.805"
       x2="111.266"
       y1="237.315"
       y2="245.644"
       gradientUnits="userSpaceOnUse"
       xlink:href="#innoGrad3" /><linearGradient
       id="linearGradient1354"
       x1="98.556"
       x2="98.053"
       y1="236.003"
       y2="242.331"
       gradientUnits="userSpaceOnUse"
       xlink:href="#innoGrad3" /><linearGradient
       id="linearGradient1362"
       x1="36.274"
       x2="31.81"
       y1="237.317"
       y2="246.665"
       gradientUnits="userSpaceOnUse"
       xlink:href="#innoGrad3" /><linearGradient
       id="linearGradient1406"
       x1="28.923"
       x2="35.501"
       y1="255.231"
       y2="237.014"
       gradientUnits="userSpaceOnUse"
       xlink:href="#innoGrad1" /><linearGradient
       id="linearGradient1414"
       x1="73.788"
       x2="79.071"
       y1="255.568"
       y2="239.912"
       gradientUnits="userSpaceOnUse"
       xlink:href="#innoGrad1" /><linearGradient
       id="linearGradient1422"
       x1="48.207"
       x2="58.592"
       y1="260.101"
       y2="240.158"
       gradientUnits="userSpaceOnUse"
       xlink:href="#innoGrad1" /><linearGradient
       id="linearGradient1430"
       x1="199.834"
       x2="200.031"
       y1="258.86"
       y2="246.028"
       gradientUnits="userSpaceOnUse"
       xlink:href="#innoGrad1" /><linearGradient
       id="linearGradient1438"
       x1="185.275"
       x2="181.381"
       y1="256.055"
       y2="242.803"
       gradientUnits="userSpaceOnUse"
       xlink:href="#innoGrad1" /><linearGradient
       id="linearGradient1446"
       x1="140.84"
       x2="138.203"
       y1="260.282"
       y2="236.504"
       gradientUnits="userSpaceOnUse"
       xlink:href="#innoGrad1" /><linearGradient
       id="linearGradient1456"
       x1="114.287"
       x2="111.716"
       y1="260.122"
       y2="237.07"
       gradientUnits="userSpaceOnUse"
       xlink:href="#innoGrad1" /><linearGradient
       id="linearGradient1464"
       x1="244.885"
       x2="229.918"
       y1="256.034"
       y2="237.242"
       gradientUnits="userSpaceOnUse"
       xlink:href="#innoGrad1" /><linearGradient
       id="linearGradient1482"
       x1="12.33"
       x2="240.392"
       y1="114.615"
       y2="114.615"
       gradientUnits="userSpaceOnUse"
       xlink:href="#innoGrad3" /><linearGradient
       id="linearGradient1484"
       x1="168.262"
       x2="161.636"
       y1="127.361"
       y2="112.234"
       gradientUnits="userSpaceOnUse"
       xlink:href="#innoGrad3" /><linearGradient
       id="linearGradient1486"
       x1="148.478"
       x2="148.277"
       y1="128.421"
       y2="113.615"
       gradientUnits="userSpaceOnUse"
       xlink:href="#innoGrad3" /><linearGradient
       id="linearGradient1488"
       x1="229.4"
       x2="236.077"
       y1="124.97"
       y2="112.697"
       gradientUnits="userSpaceOnUse"
       xlink:href="#innoGrad3" /><linearGradient
       id="linearGradient1490"
       x1="42.086"
       x2="31.547"
       y1="118.859"
       y2="100.553"
       gradientUnits="userSpaceOnUse"
       xlink:href="#innoGrad3" /><linearGradient
       id="linearGradient1492"
       x1="26.296"
       x2="17.206"
       y1="122.344"
       y2="110.276"
       gradientUnits="userSpaceOnUse"
       xlink:href="#innoGrad3" /><linearGradient
       id="linearGradient1494"
       x1="53.822"
       x2="52.189"
       y1="122.479"
       y2="99.971"
       gradientUnits="userSpaceOnUse"
       xlink:href="#innoGrad3" /><linearGradient
       id="linearGradient1496"
       x1="81.483"
       x2="82.29"
       y1="127.903"
       y2="110.547"
       gradientUnits="userSpaceOnUse"
       xlink:href="#innoGrad3" /><linearGradient
       id="linearGradient1498"
       x1="100.194"
       x2="102.9"
       y1="127.361"
       y2="110.005"
       gradientUnits="userSpaceOnUse"
       xlink:href="#innoGrad3" /><linearGradient
       id="linearGradient1500"
       x1="116.305"
       x2="116.731"
       y1="127.575"
       y2="110.276"
       gradientUnits="userSpaceOnUse"
       xlink:href="#innoGrad3" /><linearGradient
       id="linearGradient1502"
       x1="127.489"
       x2="128.405"
       y1="127.626"
       y2="115.765"
       gradientUnits="userSpaceOnUse"
       xlink:href="#innoGrad3" /><linearGradient
       id="linearGradient1504"
       x1="193.349"
       x2="194.29"
       y1="122.669"
       y2="109.327"
       gradientUnits="userSpaceOnUse"
       xlink:href="#innoGrad3" /><linearGradient
       id="linearGradient1506"
       x1="206.5"
       x2="204.215"
       y1="126.818"
       y2="109.491"
       gradientUnits="userSpaceOnUse"
       xlink:href="#innoGrad3" /><linearGradient
       id="linearGradient1508"
       x1="218.703"
       x2="217.884"
       y1="124.649"
       y2="109.734"
       gradientUnits="userSpaceOnUse"
       xlink:href="#innoGrad3" /><linearGradient
       id="linearGradient1510"
       x1="181.55"
       x2="179.375"
       y1="123.022"
       y2="112.988"
       gradientUnits="userSpaceOnUse"
       xlink:href="#innoGrad3" /><linearGradient
       id="linearGradient1512"
       x1="71.177"
       x2="72.014"
       y1="120.039"
       y2="112.24"
       gradientUnits="userSpaceOnUse"
       xlink:href="#innoGrad3" /><linearGradient
       id="linearGradient1547"
       x1="160.982"
       x2="169.441"
       y1="109.078"
       y2="127.383"
       gradientUnits="userSpaceOnUse"
       xlink:href="#innoGrad1" /><linearGradient
       id="linearGradient1555"
       x1="147.144"
       x2="147.101"
       y1="101.765"
       y2="123.596"
       gradientUnits="userSpaceOnUse"
       xlink:href="#innoGrad1" /><linearGradient
       id="linearGradient1563"
       x1="204.371"
       x2="202.974"
       y1="99.752"
       y2="128.498"
       gradientUnits="userSpaceOnUse"
       xlink:href="#innoGrad1" /><linearGradient
       id="linearGradient1571"
       x1="93.787"
       x2="93.881"
       y1="101.327"
       y2="127.597"
       gradientUnits="userSpaceOnUse"
       xlink:href="#innoGrad1" /><linearGradient
       id="linearGradient1579"
       x1="51.4"
       x2="49.345"
       y1="90.775"
       y2="121.073"
       gradientUnits="userSpaceOnUse"
       xlink:href="#innoGrad1" /><linearGradient
       id="linearGradient1605"
       x1="50.297"
       x2="50.297"
       y1="21.887"
       y2="117.928"
       gradientUnits="userSpaceOnUse"
       xlink:href="#innoGrad4" /><linearGradient
       id="linearGradient1607"
       x1="50.297"
       x2="40.88"
       y1="21.887"
       y2="116.887"
       gradientUnits="userSpaceOnUse"
       xlink:href="#innoGrad1" /><linearGradient
       id="linearGradient1656"
       x1="1.589"
       x2="44.646"
       y1="91.053"
       y2="28.315"
       gradientUnits="userSpaceOnUse"
       xlink:href="#innoGrad1" /><linearGradient
       id="linearGradient1664"
       x1="17.089"
       x2="46.67"
       y1="32.858"
       y2="24.995"
       gradientUnits="userSpaceOnUse"
       xlink:href="#innoGrad4" /><linearGradient
       id="linearGradient1672"
       x1="17.589"
       x2="50.59"
       y1="33.428"
       y2="24.996"
       gradientUnits="userSpaceOnUse"
       xlink:href="#innoGrad4" /><linearGradient
       id="linearGradient1680"
       x1="22.34"
       x2="44.188"
       y1="63.303"
       y2="72.915"
       gradientUnits="userSpaceOnUse"
       xlink:href="#innoGrad4" /><linearGradient
       id="linearGradient1696"
       x1="22.34"
       x2="41.525"
       y1="63.303"
       y2="27.557"
       gradientUnits="userSpaceOnUse"
       xlink:href="#innoGrad1" /><linearGradient
       id="linearGradient1712"
       x1="44.061"
       x2=".522"
       y1="30.437"
       y2="136.574"
       gradientUnits="userSpaceOnUse"
       xlink:href="#innoGrad5" /><linearGradient
       id="linearGradient1732"
       x1="6.786"
       x2="16.787"
       y1="51.304"
       y2="51.304"
       gradientUnits="userSpaceOnUse"
       xlink:href="#innoGrad1" /><linearGradient
       id="linearGradient1784"
       x1="205.69"
       x2="201.773"
       y1="21.887"
       y2="116.886"
       gradientUnits="userSpaceOnUse"
       xlink:href="#innoGrad4" /><linearGradient
       id="linearGradient1792"
       x1="215.12"
       x2="205.689"
       y1="116.886"
       y2="21.886"
       gradientUnits="userSpaceOnUse"
       xlink:href="#innoGrad1" /><linearGradient
       id="linearGradient1800"
       x1="254.398"
       x2="211.341"
       y1="91.053"
       y2="28.316"
       gradientUnits="userSpaceOnUse"
       xlink:href="#innoGrad4" /><linearGradient
       id="linearGradient1808"
       x1="207.148"
       x2="205.98"
       y1="27.944"
       y2="61.627"
       gradientUnits="userSpaceOnUse"
       xlink:href="#innoGrad4" /><linearGradient
       id="linearGradient1816"
       x1="210.94"
       x2="205.98"
       y1="21.887"
       y2="61.627"
       gradientUnits="userSpaceOnUse"
       xlink:href="#innoGrad4" /><linearGradient
       id="linearGradient1824"
       x1="211.417"
       x2="225.783"
       y1="53.649"
       y2="48.225"
       gradientUnits="userSpaceOnUse"
       xlink:href="#innoGrad4" /><linearGradient
       id="linearGradient1832"
       x1="224.773"
       x2="211.341"
       y1="98.12"
       y2="28.316"
       gradientUnits="userSpaceOnUse"
       xlink:href="#innoGrad1" /><linearGradient
       id="linearGradient1840"
       x1="-167.866"
       x2="-157.866"
       y1="135.842"
       y2="135.842"
       gradientUnits="userSpaceOnUse"
       xlink:href="#innoGrad1" /><linearGradient
       inkscape:collect="always"
       xlink:href="#linearGradient10356"
       id="linearGradient10358"
       x1="125.7608"
       y1="225.26851"
       x2="125.7608"
       y2="136.13501"
       gradientUnits="userSpaceOnUse"
       gradientTransform="matrix(0.95918796,0,0,0.959212,7.4495586,-2.2409045)" /><linearGradient
       inkscape:collect="always"
       xlink:href="#linearGradient10366"
       id="linearGradient10360"
       x1="125.7608"
       y1="225.26851"
       x2="125.7608"
       y2="136.13501"
       gradientUnits="userSpaceOnUse"
       gradientTransform="matrix(0.95918796,0,0,0.959212,7.4495586,-2.2409045)" /><linearGradient
       inkscape:collect="always"
       xlink:href="#linearGradient10372"
       id="linearGradient10374"
       x1="123.85533"
       y1="225.48022"
       x2="123.85533"
       y2="130.84204"
       gradientUnits="userSpaceOnUse"
       gradientTransform="matrix(0.95918796,0,0,0.959212,7.4495586,-2.2409045)" /><linearGradient
       inkscape:collect="always"
       xlink:href="#linearGradient10382"
       id="linearGradient10376"
       x1="123.85533"
       y1="225.48022"
       x2="123.85533"
       y2="130.84204"
       gradientUnits="userSpaceOnUse"
       gradientTransform="matrix(0.95918796,0,0,0.959212,7.4495586,-2.2409045)" /><linearGradient
       id="linearGradient23956"><stop
         stop-color="#faa"
         offset="0"
         id="stop23954" /><stop
         stop-color="#ff8080"
         offset="1"
         id="stop23952"
         style="stop-color:#ff8080;stop-opacity:1" /></linearGradient><linearGradient
       id="linearGradient23944"><stop
         stop-color="#ff8080"
         offset="0"
         id="stop23940"
         style="stop-color:#ff5555;stop-opacity:1" /><stop
         stop-color="#faa"
         offset="1"
         id="stop23942" /></linearGradient><linearGradient
       id="linearGradient69681"
       x1="140.94"
       x2="112.37"
       y1="155.89999"
       y2="154.37"
       gradientUnits="userSpaceOnUse"><stop
         stop-color="#f55"
         offset="0"
         id="stop69677"
         style="stop-color:#ff8080;stop-opacity:1" /><stop
         stop-color="#ff8080"
         offset="1"
         id="stop69679"
         style="stop-color:#ff8080;stop-opacity:0;" /></linearGradient><linearGradient
       id="linearGradient911"
       x1="130.2"
       x2="131.07001"
       y1="73.638"
       y2="33.176998"
       gradientUnits="userSpaceOnUse"><stop
         stop-color="#ff2a2a"
         offset="0"
         id="stop1892" /><stop
         stop-color="#f55"
         offset="1"
         id="stop1894" /></linearGradient><linearGradient
       id="linearGradient5045-4"
       x1="336.34"
       x2="336.61"
       y1="28.321"
       y2="13.589"
       gradientTransform="matrix(1.0673,0,0,1.0673,-233.26,-9.76)"
       gradientUnits="userSpaceOnUse"><stop
         stop-color="#ff7f2a"
         offset="0"
         id="stop16805"
         style="stop-color:#ffb380;stop-opacity:1" /><stop
         stop-color="#f95"
         offset="1"
         id="stop16807"
         style="stop-color:#ffccaa;stop-opacity:1" /></linearGradient><linearGradient
       id="linearGradient5081-9"
       x1="328.93"
       x2="320.71"
       y1="192.43"
       y2="193.5"
       gradientTransform="matrix(1.0673,0,0,1.0673,-233.26,-9.76)"
       gradientUnits="userSpaceOnUse"
       xlink:href="#linearGradient10382" /><linearGradient
       id="linearGradient5196-2"
       x1="378.21"
       x2="367.32"
       y1="109.75"
       y2="109.75"
       gradientTransform="matrix(1.0673,0,0,1.0673,-233.26,-9.76)"
       gradientUnits="userSpaceOnUse"
       xlink:href="#linearGradient10382" /><linearGradient
       id="linearGradient5218-2"
       x1="294.29"
       x2="308.93"
       y1="116.36"
       y2="115.11"
       gradientTransform="matrix(1.0673,0,0,1.0673,-233.26,-9.76)"
       gradientUnits="userSpaceOnUse"
       xlink:href="#linearGradient10382" /><linearGradient
       id="linearGradient5228-0"
       x1="324.02"
       x2="319.29"
       y1="61.982"
       y2="60.554"
       gradientTransform="matrix(1.0673,0,0,1.0673,-233.26,-9.76)"
       gradientUnits="userSpaceOnUse"
       xlink:href="#linearGradient10382" /><linearGradient
       id="linearGradient5216-4"
       x1="335.09"
       x2="328.48"
       y1="42.786"
       y2="34.839"
       gradientTransform="matrix(1.0673,0,0,1.0673,-233.26,-9.76)"
       gradientUnits="userSpaceOnUse"
       xlink:href="#linearGradient10382" /><linearGradient
       id="linearGradient5184-8"
       x1="336.57"
       x2="336.89"
       y1="83.138"
       y2="93.744"
       gradientTransform="matrix(1.0673,0,0,1.0673,-233.26,-9.76)"
       gradientUnits="userSpaceOnUse"><stop
         stop-color="#ffb380"
         offset="0"
         id="stop16820" /><stop
         stop-color="#f95"
         offset="0"
         id="stop16822" /><stop
         stop-color="#ffb380"
         offset="1"
         id="stop16824" /></linearGradient></defs><path
     style="fill:#ff2a2a;fill-opacity:1;stroke:#000000;stroke-width:0.5;stroke-linecap:round;stroke-linejoin:round;stroke-dasharray:none;stop-color:#000000"
     d="m 147.226,54.819436 -4.11881,-3.627868 c 0,0 1.11337,-3.18186 -1.47771,-6.49449 -2.59089,-3.312625 -13.52809,-12.912524 -14.47704,-15.081036 -0.94895,-2.168518 -0.85645,-18.465169 -0.85645,-18.465169 0,0 -6.30392,5.038417 -7.15278,5.41529 -0.84887,0.376845 -9.56838,2.831053 -10.90978,1.871086 -1.34141,-0.959973 1.86212,-6.104116 3.29823,-6.880145 1.4361,-0.776055 11.29946,-2.736346 11.29946,-2.736346 0,0 -6.64874,-2.0730293 -15.35155,0.8053894 -8.702821,2.8783906 -14.386011,5.8821186 -14.386011,5.8821186 l -3.403545,-4.914588 c 0,0 11.881196,-4.9329251 16.673676,-4.894331 4.79249,0.038561 20.8898,1.6221827 21.77762,1.4071853 0.88781,-0.2149991 6.20079,-2.2725161 8.01817,-2.883931 1.81739,-0.6113877 3.54566,-0.173411 3.54566,-0.173411 l -1.44468,6.7739157 c 0,0 -1.47914,0.376559 -2.97235,0.194866 -1.49366,-0.1834 -3.00309,-0.181293 -3.00309,-0.181293 0,0 -3.49142,7.326145 -3.55053,9.339145 -0.0582,2.013023 0.44457,4.858758 2.59738,8.031988 2.15276,3.173239 10.23947,8.79448 12.16243,12.525856 1.92298,3.73134 3.73157,14.085781 3.73157,14.085781 z"
     id="path23565" /><path
     id="path24231"
     style="fill:#ff7f2a;fill-opacity:1;stroke:#000000;stroke-width:0.5;stroke-linecap:round;stroke-linejoin:round;stroke-dasharray:none;stop-color:#000000"
     d="m 132.49487,223.81196 -3.30095,1.38663 v 5.22694 c 0,0 -2.49016,1.06299 -3.69707,3.26814 -1.20693,2.20517 0.23876,3.51039 0.23876,3.51039 0,0 -12.87384,0.32959 -19.06939,0.81962 -6.19557,0.49006 -18.586943,5.06197 -18.586943,5.06197 l 0.401186,5.06199 c 0,0 4.266764,-1.95626 7.968019,-3.26294 3.701258,-1.30677 8.932888,-1.96399 8.932888,-1.96399 0,0 -4.10399,4.00555 -3.13845,6.12904 0.96556,2.12348 2.89292,3.42701 6.83554,3.34545 3.94263,-0.0818 6.84104,-2.36552 9.97906,-4.40732 3.13801,-2.04181 6.52047,-5.47294 8.04925,-6.37132 1.52878,-0.8984 3.61755,-2.69725 4.82449,-3.3506 1.20691,-0.65337 2.49348,-1.63409 2.49348,-1.63409 0,0 6.59969,-0.40672 7.40431,0.16507 0.80461,0.57172 0.88331,3.42936 1.36608,5.14446 0.48277,1.71511 3.86415,8.24765 5.87573,8.24765 2.01152,0 3.9427,-2.44748 6.19562,-6.53111 2.25295,-4.08361 1.12695,-8.81882 0.56371,-10.28893 -0.56324,-1.47009 -5.63154,-3.75977 -11.26387,-3.43309 -5.63236,0.32669 -11.32799,4.33004 -11.32799,4.33004 0,0 0.0641,-1.30672 0.0641,-2.61349 0,-1.30665 -1.04616,-1.22684 -1.04616,-1.22684 z m 15.64655,7.74247 c 0,0 2.33263,2.42651 3.6412,3.63927 1.30858,1.21278 1.47783,5.08262 1.47783,5.08262 l -3.07245,6.18059 c 0,0 -1.42246,-3.87132 -3.07242,-7.27854 -1.64996,-3.40733 -7.17096,-5.77635 -6.31751,-6.18059 0.85342,-0.40427 7.34335,-1.44335 7.34335,-1.44335 z m -28.566,10.34047 3.07245,0.4021 c 0,0 -2.95822,3.1791 -4.49439,4.39186 -1.53617,1.21276 -3.18416,1.21136 -3.18416,1.21136 z m -7.33827,0.97944 c 0,0 1.48004,4.68026 0.7973,5.54652 -0.68275,0.86626 -9.43715,-0.45522 -8.07974,-3.46915 0.91032,-2.0213 7.28244,-2.07737 7.28244,-2.07737 z"
     sodipodi:nodetypes="cccscsccccscssscsssssscscccsccsscccscccssc" /><path
     id="path12184"
     style="fill:#ff7f2a;fill-opacity:1;stroke:#000000;stroke-width:0.5;stroke-linecap:round;stroke-linejoin:round;stroke-dasharray:none;stroke-opacity:1;stop-color:#000000"
     d="m 226.23438,218.6875 c -18.10949,8.80537 -54.92998,13.1931 -92.68165,13.49219 -0.71706,2.06472 -0.69312,3.80569 -1.41018,5.58203 38.41813,-0.26438 76.10178,-4.39249 92.86722,-12.45117 z m -196.628911,0.18555 1.304687,6.4375 c 17.457273,8.16651 56.336189,12.30069 95.233014,12.46875 -1.77786,-2.25736 -0.91308,-3.92631 0.22937,-5.59961 -38.642625,-0.28745 -77.804705,-4.82375 -96.767071,-13.30664 z"
     sodipodi:nodetypes="cccccccccc" /><path
     style="fill:#ff2a2a;fill-opacity:1;stroke:#000000;stroke-width:0.5;stroke-linecap:round;stroke-linejoin:round;stroke-dasharray:none;stroke-opacity:1;stop-color:#000000"
     d="m 50.935294,210.69156 c 2.659552,2.31853 4.542841,6.00786 5.686183,8.68179 l -6.092341,-0.10151 z"
     id="path9287-5"
     sodipodi:nodetypes="cccc" /><path
     style="fill:#ff2a2a;fill-opacity:1;stroke:#000000;stroke-width:0.5;stroke-linecap:round;stroke-linejoin:round;stroke-dasharray:none;stroke-opacity:1;stop-color:#000000"
     d="m 204.7397,210.69156 c -2.65955,2.31853 -4.54284,6.00786 -5.68619,8.68179 l 6.09234,-0.10151 z"
     id="path9287"
     sodipodi:nodetypes="cccc" /><path
     id="path11441"
     style="fill:#ffb380;fill-opacity:1;stroke:#000000;stroke-width:0.5;stroke-linecap:round;stroke-linejoin:round;stroke-dasharray:none;stroke-opacity:1;stop-color:#000000"
     d="m 37.46165,212.65818 c -3.048756,0.77467 -6.018864,2.53501 -7.791528,5.60726 -0.563849,1.55131 0.255172,5.12203 1.24582,6.84188 1.642694,-4.04864 4.841881,-5.52563 7.549859,-5.91451 24.331015,12.03111 64.210869,0.50209 89.534209,0.50209 25.32333,0 65.20131,11.52902 89.53232,-0.50209 2.70798,0.38888 5.90904,1.86587 7.55173,5.91451 0.99065,-1.71985 1.80967,-5.29057 1.24582,-6.84188 -1.77266,-3.07225 -4.74277,-4.83259 -7.79153,-5.60726 -28.93203,12.28539 -66.58391,0.57515 -90.53834,0.57515 -23.95445,0 -61.606326,11.71024 -90.53836,-0.57515 z" /><path
     id="path11274"
     style="fill:#ff2a2a;fill-opacity:1;stroke:#000000;stroke-width:0.5;stroke-linecap:round;stroke-linejoin:round;stroke-dasharray:none;stroke-opacity:1;stop-color:#000000"
     d="m 127.98438,7.6367188 c 1.72012,1.2849584 3.15979,2.8503592 3.88632,5.1289062 20.56807,1.396512 34.9205,7.607711 38.37344,19.103516 L 168.56641,20.496094 C 163.43521,12.05677 145.71524,7.753725 127.98438,7.6367188 Z M 170.24414,31.869141 170.92578,36.5 c 0,-1.626879 -0.24223,-3.167933 -0.68164,-4.630859 z M 126.1438,7.6503906 C 108.77002,7.8787151 91.513103,12.131538 87.001953,20.496094 L 85.355469,31.242188 C 89.135711,19.177952 105.48878,13.085075 126.3962,12.589844 Z M 85.355469,31.242188 c -0.485901,1.550699 -0.75586,3.193088 -0.75586,4.939453 z"
     sodipodi:nodetypes="cccccccccccccccc" /><path
     style="fill:url(#linearGradient10360);fill-opacity:1;stroke:#000000;stroke-width:0.5;stroke-linecap:round;stroke-linejoin:round;stroke-dasharray:none;stroke-opacity:1;stop-color:#000000"
     d="m 106.92527,210.86346 -14.503378,-43.6548 -20.534468,-43.6548 -10.626239,17.66296 -6.892687,26.42264 1.005181,13.35493 7.610687,5.45685 12.349401,28.86386 z"
     id="path7818-5" /><path
     style="fill:url(#linearGradient10374);fill-opacity:1;stroke:#000000;stroke-width:0.5;stroke-linecap:round;stroke-linejoin:round;stroke-dasharray:none;stop-color:#000000"
     d="m 54.647756,179.207 3.677297,-29.66432 12.135109,-24.88371 -16.302714,9.80638 -14.586651,17.77408 -5.39337,16.67085 -0.245149,20.34827 2.451521,21.45146 12.993141,2.32903 -2.206372,-18.01924 z"
     id="path3078-3"
     sodipodi:nodetypes="ccccccccccc" /><path
     style="fill:#ff5555;stroke:#000000;stroke-width:0.5;stroke-linecap:round;stroke-linejoin:round;stroke-dasharray:none;stop-color:#000000"
     d="m 57.589586,177.00057 c -0.91849,-14.96898 5.148086,-36.30823 14.464065,-48.90937 l -4.657922,-0.73547 c -7.477542,10.37809 -15.109867,25.10888 -15.199513,50.01257 z"
     id="path2931-4"
     sodipodi:nodetypes="ccccc" /><path
     style="fill:#ff5555;stroke:#000000;stroke-width:0.5;stroke-linecap:round;stroke-linejoin:round;stroke-dasharray:none;stop-color:#000000"
     d="M 110.56419,213.19435 C 94.585216,158.81005 80.061182,137.57948 75.741911,124.31627 l -6.240573,3.07704 c 12.787328,25.26632 25.66034,48.88733 33.865152,81.33404 -4.826782,1.19689 -18.270146,3.54297 -26.219234,3.38292 -5.069568,-15.35033 -9.403332,-28.36008 -19.816325,-35.82985 l -5.077902,0.21544 c -6.694597,10.19626 -9.457576,21.02757 -5.802869,33.67966 -3.02455,-0.52047 -6.049109,-1.20056 -9.073659,-2.37078 C 32.845134,174.46795 30.771197,145.192 76.3053,123.92621 92.579209,109.74153 117.82316,88.419202 137.17993,71.688772 156.5367,54.958348 172.3032,41.389659 171.09569,35.604715 c 0.20616,-6.484672 -0.92167,-10.287988 -2.57413,-15.13861 2.94363,17.496357 -9.85619,24.265895 -27.70875,40.224967 -17.85257,15.959072 -41.125625,35.59158 -67.16566,58.451808 -49.624656,28.37555 -42.93666,57.05926 -38.483946,93.15675 5.369188,1.47145 10.463512,2.89214 17.580133,4.3636 -3.30805,-12.08313 -6.141232,-23.05411 1.243184,-32.1931 l 3.120286,-0.17335 c 8.683299,9.54483 11.677001,19.85705 15.009633,33.18063 11.051475,0.61993 31.46301,-2.40877 38.44775,-4.28306 z"
     id="path634-7"
     sodipodi:nodetypes="ccccccccccsccsccccccc" /><path
     style="fill:#ff5555;fill-opacity:1;stroke:#000000;stroke-width:0.5;stroke-linecap:round;stroke-linejoin:round;stroke-dasharray:none;stroke-opacity:1;stop-color:#000000"
     d="m 108.73766,207.05803 6.94706,14.07293 c -1.17983,1.12605 -4.23839,2.29257 -6.31469,2.32226 l -5.98755,-14.74018 c 1.56547,-0.72876 3.51984,-1.33107 5.35518,-1.65501 z"
     id="path8602-7"
     sodipodi:nodetypes="ccccc" /><path
     style="fill:#ff5555;fill-opacity:1;stroke:#000000;stroke-width:0.5;stroke-linecap:round;stroke-linejoin:round;stroke-dasharray:none;stroke-opacity:1;stop-color:#000000"
     d="m 77.28465,212.06237 c 2.073956,5.14626 2.42758,10.01726 1.116926,14.62197 -1.979812,0.11711 -5.155242,-0.0781 -6.904647,-0.66001 0.377306,-3.96845 0.890635,-7.48707 -0.710778,-13.96196 2.216482,-0.55746 4.781735,-0.36385 6.498499,0 z"
     id="path9099-6"
     sodipodi:nodetypes="ccccc" /><path
     style="fill:#ff5555;fill-opacity:1;stroke:#000000;stroke-width:0.5;stroke-linecap:round;stroke-linejoin:round;stroke-dasharray:none;stroke-opacity:1;stop-color:#000000"
     d="m 51.290685,211.25004 c 1.502203,8.02004 -0.842112,12.57785 6.24464,13.30194 -1.780647,1.15404 -4.131376,1.54154 -6.549259,1.26926 -5.147734,-1.18502 -1.859062,-6.21406 -4.670797,-15.4343 1.201546,-0.16409 3.31694,0.11642 4.975416,0.8631 z"
     id="path9285-2"
     sodipodi:nodetypes="ccccc" /><path
     style="fill:#ff5555;fill-opacity:1;stroke:#000000;stroke-width:0.5;stroke-linecap:round;stroke-linejoin:round;stroke-dasharray:none;stroke-opacity:1;stop-color:#000000"
     d="m 37.430618,207.8484 c 1.029458,5.47675 -1.9037,10.77987 3.807708,13.50502 -1.340552,0.0165 -2.581865,0.63215 -4.668243,-0.59439 -3.887368,-2.72774 -1.407608,-8.37511 -2.033325,-13.41834 z"
     id="path9343-4"
     sodipodi:nodetypes="ccccc" /><path
     style="fill:url(#linearGradient10358);fill-opacity:1;stroke:#000000;stroke-width:0.5;stroke-linecap:round;stroke-linejoin:round;stroke-dasharray:none;stroke-opacity:1;stop-color:#000000"
     d="m 148.74973,210.86346 14.50337,-43.6548 20.53447,-43.6548 10.62624,17.66296 6.89268,26.42264 -1.00518,13.35493 -7.61068,5.45685 -12.34941,28.86386 z"
     id="path7818" /><path
     style="fill:url(#linearGradient10376);fill-opacity:1;stroke:#000000;stroke-width:0.5;stroke-linecap:round;stroke-linejoin:round;stroke-dasharray:none;stop-color:#000000"
     d="m 201.02724,179.207 -3.6773,-29.66432 -12.13511,-24.88371 16.30271,9.80638 14.58665,17.77408 5.39337,16.67085 0.24515,20.34827 -2.45152,21.45146 -12.99314,2.32903 2.20637,-18.01924 z"
     id="path3078"
     sodipodi:nodetypes="ccccccccccc" /><path
     style="fill:#ff5555;stroke:#000000;stroke-width:0.5;stroke-linecap:round;stroke-linejoin:round;stroke-dasharray:none;stop-color:#000000"
     d="m 198.08541,177.00057 c 0.91849,-14.96898 -5.14809,-36.30823 -14.46407,-48.90937 l 4.65792,-0.73547 c 7.47754,10.37809 15.10987,25.10888 15.19952,50.01257 z"
     id="path2931"
     sodipodi:nodetypes="ccccc" /><path
     style="fill:#ff5555;stroke:#000000;stroke-width:0.5;stroke-linecap:round;stroke-linejoin:round;stroke-dasharray:none;stop-color:#000000"
     d="m 145.11081,213.19435 c 15.97897,-54.3843 30.503,-75.61487 34.82227,-88.87808 l 6.24057,3.07704 c -12.78732,25.26632 -25.66034,48.88733 -33.86514,81.33404 4.82677,1.19689 18.27014,3.54297 26.21923,3.38292 5.06956,-15.35033 9.40333,-28.36008 19.81632,-35.82985 l 5.0779,0.21544 c 6.6946,10.19626 9.45758,21.02757 5.80287,33.67966 3.02455,-0.52047 6.04911,-1.20056 9.07366,-2.37078 4.53137,-33.33679 6.6053,-62.61274 -38.9288,-83.87853 C 163.09578,109.74153 137.85184,88.419202 118.49506,71.688772 99.138288,54.958348 83.37179,41.389659 84.579303,35.604715 84.346187,30.51531 85.681288,24.449093 87.15342,20.466105 84.209805,37.962462 97.009619,44.732 114.86218,60.691072 c 17.85257,15.959072 41.12563,35.59158 67.16566,58.451808 49.62466,28.37555 42.93666,57.05926 38.48395,93.15675 -5.36919,1.47145 -10.46352,2.89214 -17.58013,4.3636 3.30804,-12.08313 6.14122,-23.05411 -1.24319,-32.1931 l -3.12029,-0.17335 c -8.68329,9.54483 -11.677,19.85705 -15.00963,33.18063 -11.05147,0.61993 -31.46301,-2.40877 -38.44774,-4.28306 z"
     id="path634"
     sodipodi:nodetypes="ccccccccccsccsccccccc" /><path
     style="fill:none;stroke:#ffe680;stroke-width:1;stroke-linecap:round;stroke-linejoin:round;stroke-dasharray:none;stroke-opacity:1;stop-color:#000000"
     d="m 172.56473,159.86768 c 2.63341,-2.54022 8.16758,-7.91697 10.78763,-10.46365 0.79176,-0.76959 1.69049,-0.53585 2.00755,0.52223 l 4.30649,14.37145 a 1.1261352,1.1261352 133.93639 0 1 -1.36173,1.41325 l -15.25034,-3.95933 c -1.06912,-0.27757 -1.28457,-1.11712 -0.4896,-1.88395 z"
     id="path3280"
     sodipodi:nodetypes="cccc"
     inkscape:path-effect="#path-effect3282"
     inkscape:original-d="m 171.11851,161.24905 c 0.30644,-0.24516 13.66731,-13.23862 13.66731,-13.23862 l 5.45467,18.20311 z" /><ellipse
     style="fill:#ffeeaa;stroke:#ffe680;stroke-width:1;stroke-linecap:round;stroke-linejoin:round;stroke-dasharray:none;stroke-opacity:1;stop-color:#000000"
     id="path3336"
     cx="181.66011"
     cy="160.82002"
     rx="0.98061424"
     ry="0.9806388" /><path
     style="fill:#ffeeaa;stroke:#ffe680;stroke-width:1;stroke-linecap:round;stroke-linejoin:round;stroke-dasharray:none;stroke-opacity:1;stop-color:#000000"
     d="m 181.73157,158.03363 1.36514,0.30338 1.64681,-4.83225 -2.42689,-0.47672 z"
     id="path4127" /><path
     style="fill:none;stroke:#ffe680;stroke-width:1;stroke-linecap:round;stroke-linejoin:round;stroke-dasharray:none;stroke-opacity:1;stop-color:#000000"
     d="m 66.831664,142.59314 6.688236,-1.7527 0.602177,1.78942 a 0.99938561,0.99941066 0 0 1 -0.589836,1.25209 l -4.626994,1.77166 a 0.92851351,0.92853678 0 0 1 -1.209465,-0.56348 z"
     id="path5167" /><path
     style="fill:none;stroke:#ffe680;stroke-width:1;stroke-linecap:round;stroke-linejoin:round;stroke-dasharray:none;stroke-opacity:1;stop-color:#000000"
     d="M 71.638664,150.53598 71.17559,148.94717"
     id="path5206" /><path
     style="fill:none;stroke:#ffe680;stroke-width:1;stroke-linecap:round;stroke-linejoin:round;stroke-dasharray:none;stroke-opacity:1;stop-color:#000000"
     d="m 70.529242,155.64412 6.40772,-2.20474 -5.444369,4.2395 0.319145,0.81389 6.16048,-2.30019"
     id="path5208" /><path
     style="fill:none;stroke:#ffe680;stroke-width:1;stroke-linecap:round;stroke-linejoin:round;stroke-dasharray:none;stroke-opacity:1;stop-color:#000000"
     d="m 68.539489,148.79482 6.952578,-0.686 0.239311,0.85866 -6.217073,3.03419"
     id="path5210" /><path
     style="fill:none;stroke:#ffe680;stroke-width:1;stroke-linecap:round;stroke-linejoin:round;stroke-dasharray:none;stroke-opacity:1;stop-color:#000000"
     d="m 76.23105,163.00228 0.563165,1.32136 -2.490259,1.12138 -1.096398,-2.85411 5.866521,-2.45016 1.208519,2.81749 -1.57322,0.59159"
     id="path5212"
     sodipodi:nodetypes="ccccccc" /><path
     style="fill:none;stroke:#ffe680;stroke-width:1;stroke-linecap:round;stroke-linejoin:round;stroke-dasharray:none;stroke-opacity:1;stop-color:#000000"
     d="m 76.888136,172.37443 -1.226023,-2.92068 5.94434,-2.13862 1.105329,2.83499"
     id="path5214" /><path
     style="fill:none;stroke:#ffe680;stroke-width:1;stroke-linecap:round;stroke-linejoin:round;stroke-dasharray:none;stroke-opacity:1;stop-color:#000000"
     d="m 78.627423,168.63852 0.834852,2.05031"
     id="path5216"
     sodipodi:nodetypes="cc" /><path
     style="fill:none;stroke:#ffe680;stroke-width:1;stroke-linecap:round;stroke-linejoin:round;stroke-dasharray:none;stroke-opacity:1;stop-color:#000000"
     d="m 78.207407,176.39712 5.983311,-2.31384 1.335068,2.82723 -3.475283,0.16485 0.457342,1.00278 -2.68111,1.09175"
     id="path5376" /><path
     style="fill:none;stroke:#ffe680;stroke-width:1;stroke-linecap:round;stroke-linejoin:round;stroke-dasharray:none;stroke-opacity:1;stop-color:#000000"
     d="m 82.040536,177.09133 -0.831551,-1.74635"
     id="path5378"
     sodipodi:nodetypes="cc" /><path
     style="fill:#ffeeaa;stroke:#ffe680;stroke-width:1;stroke-linecap:round;stroke-linejoin:round;stroke-dasharray:none;stroke-opacity:1;stop-color:#000000"
     d="m 84.700521,180.67058 2.301976,-0.9027 1.200064,2.18094 z"
     id="path5540" /><path
     style="fill:#ffeeaa;stroke:#ffe680;stroke-width:1;stroke-linecap:round;stroke-linejoin:round;stroke-dasharray:none;stroke-opacity:1;stop-color:#000000"
     d="m 80.873066,182.21179 1.290797,2.87207 8.537667,2.74675 -1.392657,-2.95194 z"
     id="path5542"
     sodipodi:nodetypes="ccccc" /><path
     style="fill:#ffeeaa;stroke:#ffe680;stroke-width:1;stroke-linecap:round;stroke-linejoin:round;stroke-dasharray:none;stroke-opacity:1;stop-color:#000000"
     d="m 83.647386,188.02479 1.290797,2.87207 8.537667,2.74674 -1.392657,-2.95193 z"
     id="path5542-2"
     sodipodi:nodetypes="ccccc" /><path
     style="fill:#ffeeaa;stroke:#ffe680;stroke-width:1;stroke-linecap:round;stroke-linejoin:round;stroke-dasharray:none;stroke-opacity:1;stop-color:#000000"
     d="m 86.493333,193.60927 1.290797,2.87208 8.537667,2.74674 -1.392657,-2.95194 z"
     id="path5542-4"
     sodipodi:nodetypes="ccccc" /><path
     style="fill:#ffeeaa;stroke:#ffe680;stroke-width:1;stroke-linecap:round;stroke-linejoin:round;stroke-dasharray:none;stroke-opacity:1;stop-color:#000000"
     d="m 88.719757,199.29001 1.290884,2.40399 8.141267,2.2841 -1.189024,-2.32413 z"
     id="path5542-1"
     sodipodi:nodetypes="ccccc" /><path
     style="fill:#ffeeaa;stroke:#ffe680;stroke-width:1;stroke-linecap:round;stroke-linejoin:round;stroke-dasharray:none;stroke-opacity:1;stop-color:#000000"
     d="m 90.957349,204.12544 4.366595,1.27289 -3.133498,0.94661 z"
     id="path5592" /><path
     id="path5760"
     style="fill:none;stroke:#ffe680;stroke-width:1;stroke-linecap:round;stroke-linejoin:round;stroke-dasharray:none;stroke-opacity:1;stop-color:#000000"
     d="m 165.0018,179.05578 a 1.9862872,1.986337 0 0 0 -1.77037,1.58121 l -2.73331,13.35028 a 1.8654435,1.8654903 0 0 0 1.50435,2.21068 l 4.59923,0.80933 a 1.9427299,1.9427786 0 0 0 2.24435,-1.5531 l 2.53848,-13.44208 a 1.8814789,1.8815261 0 0 0 -1.53621,-2.20318 l -4.3407,-0.73253 a 1.9862872,1.986337 0 0 0 -0.50582,-0.0206 z m 1.0079,3.19426 2.16192,0.36532 -2.11508,11.20329 -2.3324,-0.41028 z" /><path
     style="fill:none;stroke:#ffe680;stroke-width:1;stroke-linecap:round;stroke-linejoin:round;stroke-dasharray:none;stroke-opacity:1;stop-color:#000000"
     d="m 175.64879,184.64331 0.48232,-3.52857 5.15309,0.73619 -1.82769,14.26658 2.71616,0.43154 -0.48231,3.24933 -9.54466,-1.47235 0.55846,-3.3001 3.35079,0.55848 1.52308,-10.56031 z"
     id="path5762"
     sodipodi:nodetypes="ccccccccccc" /><g
     aria-label="危険"
     id="text6186"
     style="font-stretch:condensed;font-size:16px;line-height:0px;font-family:Arial;-inkscape-font-specification:'Arial Condensed';text-orientation:upright;fill:#ffaaaa;stroke:#ffe680;stroke-width:0.367631;stroke-linecap:round;stroke-linejoin:round;stroke-dasharray:none;stroke-opacity:1;stop-color:#000000"
     transform="matrix(0.52769401,0.12648622,-0.12576665,0.53071318,128.6979,71.130531)" /><path
     style="fill:none;fill-opacity:1;stroke:#ffe680;stroke-width:1;stroke-linecap:round;stroke-linejoin:round;stroke-dasharray:none;stroke-opacity:1;stop-color:#000000"
     d="m 170.89853,170.52016 c 0.97987,-0.76905 1.80746,-2.18985 2.28831,-4.17246 l 2.40357,0.49674"
     id="path6295"
     sodipodi:nodetypes="ccc" /><path
     style="fill:none;fill-opacity:1;stroke:#ffe680;stroke-width:1;stroke-linecap:round;stroke-linejoin:round;stroke-dasharray:none;stroke-opacity:1;stop-color:#000000"
     d="m 171.60642,166.41393 c 1.17705,-0.29267 2.25722,-0.91937 3.12793,-2.26835"
     id="path6351"
     sodipodi:nodetypes="cc" /><path
     style="fill:none;fill-opacity:1;stroke:#ffe680;stroke-width:1;stroke-linecap:round;stroke-linejoin:round;stroke-dasharray:none;stroke-opacity:1;stop-color:#000000"
     d="m 174.48741,164.92378 2.73281,0.64573 -1.8109,1.22524 3.07852,0.66231"
     id="path6353"
     sodipodi:nodetypes="cccc" /><path
     style="fill:none;fill-opacity:1;stroke:#ffe680;stroke-width:1;stroke-linecap:round;stroke-linejoin:round;stroke-dasharray:none;stroke-opacity:1;stop-color:#000000"
     d="m 175.44225,169.90753 1.13592,0.23182 0.32925,-1.58951 -2.68343,-0.57952 -0.64203,3.03 3.63826,0.67885 0.69143,-0.92721"
     id="path6355"
     sodipodi:nodetypes="ccccccc" /><path
     style="fill:none;fill-opacity:1;stroke:#ffe680;stroke-width:1;stroke-linecap:round;stroke-linejoin:round;stroke-dasharray:none;stroke-opacity:1;stop-color:#000000"
     d="m 179.16282,172.73883 1.59689,-6.57325 1.48164,0.34771 -1.07008,2.13589 c 0.41778,0.99527 0.63931,2.695 -0.62558,2.84786"
     id="path6357"
     sodipodi:nodetypes="ccccc" /><path
     style="fill:none;fill-opacity:1;stroke:#ffe680;stroke-width:1;stroke-linecap:round;stroke-linejoin:round;stroke-dasharray:none;stroke-opacity:1;stop-color:#000000"
     d="m 182.42244,168.21869 c 0.90834,-0.20167 1.75749,-0.64249 2.61757,-1.49016 0.46095,1.06926 0.88097,1.99158 1.95907,2.5167"
     id="path6359"
     sodipodi:nodetypes="ccc" /><path
     style="fill:none;fill-opacity:1;stroke:#ffe680;stroke-width:1;stroke-linecap:round;stroke-linejoin:round;stroke-dasharray:none;stroke-opacity:1;stop-color:#000000"
     d="m 183.37728,168.78163 2.28833,0.49673"
     id="path6361" /><path
     style="fill:none;fill-opacity:1;stroke:#ffe680;stroke-width:1;stroke-linecap:round;stroke-linejoin:round;stroke-dasharray:none;stroke-opacity:1;stop-color:#000000"
     d="m 180.93177,172.89605 c 3.45284,-0.47672 3.00108,-1.40149 3.54852,-3.79981 -0.53666,2.4181 -1.33489,3.10804 1.27963,4.83752"
     id="path6363"
     sodipodi:nodetypes="ccc" /><path
     style="fill:none;fill-opacity:1;stroke:#ffe680;stroke-width:1;stroke-linecap:round;stroke-linejoin:round;stroke-dasharray:none;stroke-opacity:1;stop-color:#000000"
     d="m 182.40598,171.00032 0.27986,-1.20869 3.24315,0.74508 -0.27986,1.17559 z"
     id="path6365"
     sodipodi:nodetypes="ccccc" /><path
     style="fill:none;fill-opacity:1;stroke:#ffe680;stroke-width:1;stroke-linecap:round;stroke-linejoin:round;stroke-dasharray:none;stroke-opacity:1;stop-color:#000000"
     d="m 161.12873,200.13124 0.35539,-2.08159 17.31238,2.84316 -0.30462,1.95467 z"
     id="path7635"
     sodipodi:nodetypes="ccccc" /><path
     style="fill:#ff5555;fill-opacity:1;stroke:#000000;stroke-width:0.5;stroke-linecap:round;stroke-linejoin:round;stroke-dasharray:none;stroke-opacity:1;stop-color:#000000"
     d="m 146.93733,207.05803 -6.94706,14.07293 c 1.17983,1.12605 4.23839,2.29257 6.31469,2.32226 l 5.98755,-14.74018 c -1.56547,-0.72876 -3.51984,-1.33107 -5.35518,-1.65501 z"
     id="path8602"
     sodipodi:nodetypes="ccccc" /><path
     style="fill:#ff5555;fill-opacity:1;stroke:#000000;stroke-width:0.5;stroke-linecap:round;stroke-linejoin:round;stroke-dasharray:none;stroke-opacity:1;stop-color:#000000"
     d="m 178.39034,212.06237 c -2.07395,5.14626 -2.42758,10.01726 -1.11692,14.62197 1.97981,0.11711 5.15524,-0.0781 6.90464,-0.66001 -0.3773,-3.96845 -0.89063,-7.48707 0.71078,-13.96196 -2.21648,-0.55746 -4.78173,-0.36385 -6.4985,0 z"
     id="path9099"
     sodipodi:nodetypes="ccccc" /><path
     style="fill:#ff5555;fill-opacity:1;stroke:#000000;stroke-width:0.5;stroke-linecap:round;stroke-linejoin:round;stroke-dasharray:none;stroke-opacity:1;stop-color:#000000"
     d="m 204.38431,211.25004 c -1.50221,8.02004 0.84211,12.57785 -6.24464,13.30194 1.78064,1.15404 4.13137,1.54154 6.54926,1.26926 5.14773,-1.18502 1.85906,-6.21406 4.67079,-15.4343 -1.20155,-0.16409 -3.31694,0.11642 -4.97541,0.8631 z"
     id="path9285"
     sodipodi:nodetypes="ccccc" /><path
     style="fill:#ff5555;fill-opacity:1;stroke:#000000;stroke-width:0.5;stroke-linecap:round;stroke-linejoin:round;stroke-dasharray:none;stroke-opacity:1;stop-color:#000000"
     d="m 218.24437,207.8484 c -1.02946,5.47675 1.9037,10.77987 -3.80771,13.50502 1.34056,0.0165 2.58187,0.63215 4.66825,-0.59439 3.88737,-2.72774 1.40761,-8.37511 2.03332,-13.41834 z"
     id="path9343"
     sodipodi:nodetypes="ccccc" /></svg>
