<?xml version="1.0" encoding="UTF-8" standalone="no"?>
<svg
   viewBox="0 0 256 256"
   version="1.1"
   id="svg36125"
   sodipodi:docname="cyber_headband.svg"
   xml:space="preserve"
   inkscape:version="1.2 (dc2aedaf03, 2022-05-15)"
   xmlns:inkscape="http://www.inkscape.org/namespaces/inkscape"
   xmlns:sodipodi="http://sodipodi.sourceforge.net/DTD/sodipodi-0.dtd"
   xmlns:xlink="http://www.w3.org/1999/xlink"
   xmlns="http://www.w3.org/2000/svg"
   xmlns:svg="http://www.w3.org/2000/svg"><sodipodi:namedview
     id="namedview36127"
     pagecolor="#ffffff"
     bordercolor="#000000"
     borderopacity="0.25"
     inkscape:showpageshadow="2"
     inkscape:pageopacity="0.0"
     inkscape:pagecheckerboard="0"
     inkscape:deskcolor="#d1d1d1"
     showgrid="false"
     inkscape:zoom="1.7265625"
     inkscape:cx="46.334842"
     inkscape:cy="209.37557"
     inkscape:window-width="1920"
     inkscape:window-height="1051"
     inkscape:window-x="-9"
     inkscape:window-y="-9"
     inkscape:window-maximized="1"
     inkscape:current-layer="svg36125" /><defs
     id="defs36095"><linearGradient
       inkscape:collect="always"
       id="linearGradient41071"><stop
         style="stop-color:#ffe680;stop-opacity:1"
         offset="0"
         id="stop41067" /><stop
         style="stop-color:#ffeeaa;stop-opacity:1"
         offset="1"
         id="stop41069" /></linearGradient><linearGradient
       inkscape:collect="always"
       id="linearGradient41065"><stop
         style="stop-color:#ffe680;stop-opacity:1"
         offset="0"
         id="stop41061" /><stop
         style="stop-color:#ffeeaa;stop-opacity:1"
         offset="1"
         id="stop41063" /></linearGradient><linearGradient
       inkscape:collect="always"
       id="linearGradient41059"><stop
         style="stop-color:#ffe680;stop-opacity:1"
         offset="0"
         id="stop41055" /><stop
         style="stop-color:#ffeeaa;stop-opacity:1"
         offset="1"
         id="stop41057" /></linearGradient><linearGradient
       inkscape:collect="always"
       id="linearGradient41045"><stop
         style="stop-color:#ffe680;stop-opacity:1"
         offset="0"
         id="stop41041" /><stop
         style="stop-color:#ffeeaa;stop-opacity:1"
         offset="1"
         id="stop41043" /></linearGradient><linearGradient
       inkscape:collect="always"
       id="linearGradient38235"><stop
         style="stop-color:#ff8080;stop-opacity:1"
         offset="0"
         id="stop38231" /><stop
         style="stop-color:#ffaaaa;stop-opacity:1"
         offset="1"
         id="stop38233" /></linearGradient><linearGradient
       inkscape:collect="always"
       id="linearGradient38204"><stop
         style="stop-color:#ff8080;stop-opacity:1"
         offset="0"
         id="stop38200" /><stop
         style="stop-color:#ffaaaa;stop-opacity:1"
         offset="1"
         id="stop38202" /></linearGradient><linearGradient
       id="innoGrad4"><stop
         offset="0"
         stop-color="#ffd42a"
         stop-opacity=".502"
         id="stop36064" /><stop
         offset=".5"
         stop-color="#ffd42a"
         stop-opacity="0"
         id="stop36066" /><stop
         offset="1"
         stop-color="#ffd42a"
         stop-opacity=".502"
         id="stop36068" /></linearGradient><linearGradient
       id="innoGrad3"><stop
         offset="0"
         stop-color="#ff2a2a"
         stop-opacity=".502"
         id="stop36071" /><stop
         offset=".5"
         stop-color="#ff2a2a"
         stop-opacity="0"
         id="stop36073" /><stop
         offset="1"
         stop-color="#ff2a2a"
         stop-opacity=".502"
         id="stop36075" /></linearGradient><linearGradient
       id="innoGrad2"><stop
         offset="0"
         stop-color="#ff7f2a"
         stop-opacity=".502"
         id="stop36078" /><stop
         offset="1"
         stop-color="#ff7f2a"
         stop-opacity="0"
         id="stop36080" /></linearGradient><linearGradient
       id="innoGrad1"><stop
         offset="0"
         stop-color="#ff2a2a"
         stop-opacity=".502"
         id="stop36083" /><stop
         offset="1"
         stop-color="#ff2a2a"
         stop-opacity="0"
         id="stop36085" /></linearGradient><linearGradient
       id="linearGradient855"
       x1="163.457"
       x2="207.071"
       y1="94.726"
       y2="45.636"
       gradientTransform="matrix(1.0863621,0,0,1.0862528,-11.941359,-21.545011)"
       gradientUnits="userSpaceOnUse"
       xlink:href="#innoGrad1" /><linearGradient
       id="linearGradient863"
       x1="178.693"
       x2="200.152"
       y1="77.798"
       y2="52.849"
       gradientTransform="matrix(1.0863621,0,0,1.0862528,-11.941359,-21.545011)"
       gradientUnits="userSpaceOnUse"
       xlink:href="#innoGrad2" /><linearGradient
       id="linearGradient886"
       x1="148.633"
       x2="130.161"
       y1="64.412"
       y2="227.512"
       gradientTransform="matrix(1.0863621,0,0,1.0862528,-11.941359,-21.545011)"
       gradientUnits="userSpaceOnUse"
       xlink:href="#innoGrad3" /><linearGradient
       id="linearGradient917"
       x1="148.633"
       x2="145.922"
       y1="64.412"
       y2="230.667"
       gradientTransform="matrix(1.0863621,0,0,1.0862528,-11.941359,-21.545011)"
       gradientUnits="userSpaceOnUse"
       xlink:href="#innoGrad4" /><linearGradient
       id="linearGradient950"
       x1="179.071"
       x2="104.955"
       y1="68.818"
       y2="239.426"
       gradientTransform="matrix(1.0863621,0,0,1.0862528,-364.08616,30.0025)"
       gradientUnits="userSpaceOnUse"
       xlink:href="#innoGrad3" /><linearGradient
       id="linearGradient984"
       x1="94.366"
       x2="45.298"
       y1="91.852"
       y2="55.801"
       gradientTransform="matrix(1.0863621,0,0,1.0862528,-11.941359,-21.545011)"
       gradientUnits="userSpaceOnUse"
       xlink:href="#innoGrad1" /><linearGradient
       id="linearGradient992"
       x1="88.008"
       x2="55.471"
       y1="87.471"
       y2="62.445"
       gradientTransform="matrix(1.0863621,0,0,1.0862528,-11.941359,-21.545011)"
       gradientUnits="userSpaceOnUse"
       xlink:href="#innoGrad2" /><linearGradient
       inkscape:collect="always"
       xlink:href="#linearGradient38204"
       id="linearGradient38632"
       gradientUnits="userSpaceOnUse"
       x1="-240.362"
       y1="114.96832"
       x2="-243.25792"
       y2="44.307693"
       gradientTransform="matrix(0.81955881,0,0,0.81970805,286.28591,-16.152137)" /><linearGradient
       inkscape:collect="always"
       xlink:href="#linearGradient38235"
       id="linearGradient38634"
       gradientUnits="userSpaceOnUse"
       x1="-142.76923"
       y1="119.60181"
       x2="-113.52036"
       y2="56.760181"
       gradientTransform="matrix(0.81955881,0,0,0.81970805,286.28591,-16.152137)" /><inkscape:path-effect
       effect="fillet_chamfer"
       id="path-effect3282"
       is_visible="true"
       lpeversion="1"
       nodesatellites_param="F,0,0,1,0,2,0,1 @ F,0,0,1,0,2,0,1 @ F,0,0,1,0,2,0,1"
       unit="px"
       method="auto"
       mode="F"
       radius="2"
       chamfer_steps="1"
       flexible="false"
       use_knot_distance="true"
       apply_no_radius="true"
       apply_with_radius="true"
       only_selected="false"
       hide_knots="false" /><linearGradient
       inkscape:collect="always"
       xlink:href="#linearGradient41045"
       id="linearGradient41047"
       x1="46.073925"
       y1="132.6929"
       x2="87.847618"
       y2="66.551224"
       gradientUnits="userSpaceOnUse"
       gradientTransform="translate(-14.479638)" /><linearGradient
       inkscape:collect="always"
       xlink:href="#linearGradient41071"
       id="linearGradient41049"
       x1="46.073925"
       y1="132.6929"
       x2="87.847618"
       y2="66.551224"
       gradientUnits="userSpaceOnUse"
       gradientTransform="translate(-14.479638)" /><linearGradient
       inkscape:collect="always"
       xlink:href="#linearGradient41065"
       id="linearGradient41051"
       x1="46.073925"
       y1="132.6929"
       x2="87.847618"
       y2="66.551224"
       gradientUnits="userSpaceOnUse"
       gradientTransform="translate(-14.479638)" /><linearGradient
       inkscape:collect="always"
       xlink:href="#linearGradient41059"
       id="linearGradient41053"
       x1="46.073925"
       y1="132.6929"
       x2="87.847618"
       y2="66.551224"
       gradientUnits="userSpaceOnUse"
       gradientTransform="translate(-14.479638)" /><linearGradient
       inkscape:collect="always"
       xlink:href="#linearGradient41071"
       id="linearGradient43856"
       x1="298.50122"
       y1="173.1156"
       x2="329.51993"
       y2="173.1156"
       gradientUnits="userSpaceOnUse"
       gradientTransform="matrix(0.57002635,-0.12447826,0.10461963,0.59352572,0.187629,6.2713644)" /><linearGradient
       inkscape:collect="always"
       xlink:href="#linearGradient41071"
       id="linearGradient43858"
       x1="320.02094"
       y1="173.26357"
       x2="329.10947"
       y2="173.26357"
       gradientUnits="userSpaceOnUse"
       gradientTransform="matrix(0.57002635,-0.12447826,0.10461963,0.59352572,0.187629,6.2713644)" /><linearGradient
       inkscape:collect="always"
       xlink:href="#linearGradient41071"
       id="linearGradient43860"
       x1="306.00381"
       y1="206.96361"
       x2="352.77982"
       y2="206.96361"
       gradientUnits="userSpaceOnUse"
       gradientTransform="matrix(0.57002635,-0.12447826,0.10461963,0.59352572,0.187629,6.2713644)" /><linearGradient
       inkscape:collect="always"
       xlink:href="#linearGradient41071"
       id="linearGradient43862"
       x1="321.9151"
       y1="202.3604"
       x2="332.64182"
       y2="202.3604"
       gradientUnits="userSpaceOnUse"
       gradientTransform="matrix(0.57002635,-0.12447826,0.10461963,0.59352572,0.187629,6.2713644)" /></defs><path
     style="fill:#ff5555;stroke:#000000;stroke-width:0.5;stroke-linecap:round;stroke-linejoin:round;stroke-dasharray:none;stroke-opacity:1;stop-color:#000000"
     d="m 131.72829,72.284871 v 3.481141 C 23.509714,88.910991 18.035819,176.43194 57.702846,237.53669 l -1.433411,3.37875 -15.255589,-16.689 -14.538883,-52.42189 8.805239,-57.33644 33.353282,-32.802952 51.547506,-12.162896 z"
     id="path41208"
     sodipodi:nodetypes="cccccccccc" /><path
     fill="#ff8080"
     d="m 55.950627,240.84038 c -2.522955,0.86093 -5.830655,-1.73801 -8.644933,-4.99879 -59.42029,-78.21866 -23.579107,-171.190545 70.394116,-177.083163 7.03436,3.744953 11.10787,8.662215 14.10223,13.472441 C 28.725044,84.339025 9.626393,165.33247 55.950627,240.84038 Z"
     id="path36113-5"
     style="stroke:#000000;stroke-width:0.5;stroke-opacity:1;stroke-dasharray:none;stroke-linecap:round;stroke-linejoin:round"
     sodipodi:nodetypes="ccccc" /><path
     fill="#ff5555"
     d="m 159.70089,234.00402 c 0.5716,2.55111 2.99247,3.79579 6.18435,2.4867 48.52099,-53.74169 42.84518,-130.27058 16.43579,-145.777069 -8.0175,-3.91331 -9.84141,-11.327603 -23.55468,-9.169936 63.72602,39.463315 31.11168,113.533225 0.93454,152.460305 z"
     id="path36105-9"
     style="fill:#ff2a2a;stroke:#000000;stroke-width:0.5;stroke-opacity:1;stroke-dasharray:none"
     sodipodi:nodetypes="ccccc" /><path
     style="fill:#ff5555;stroke:#000000;stroke-width:0.5;stroke-linecap:round;stroke-linejoin:round;stroke-dasharray:none;stroke-opacity:1;stop-color:#000000"
     d="m 128.50679,62.117647 0.21719,3.040724 8.97738,10.280543 c 19.18717,5.844552 52.15018,28.165536 61.40821,55.926536 8.32449,24.96169 -4.84668,68.30699 -33.97769,103.20203 -2.17549,1.19067 -4.23876,0.22489 -5.42649,-0.46074 0.3797,2.07572 3.00198,3.46186 6.24558,2.38049 36.43088,-42.86629 42.47379,-88.90751 35.89518,-105.5913 -5.44913,-13.81935 -7.83837,-21.46356 -11.75756,-32.195342 L 145.03853,67.779865 Z"
     id="path41140"
     sodipodi:nodetypes="cccscccsccc" /><path
     style="fill:#ff2a2a;stroke:#000000;stroke-width:0.5;stroke-linecap:round;stroke-linejoin:round;stroke-dasharray:none;stroke-opacity:1;stop-color:#000000"
     d="m 99.414422,10.200951 -3.60821,0.335711 C 63.015565,37.326345 48.733359,80.271581 42.102686,104.19924 l 0.906883,1.95665 L 63.751921,58.878634 75.163917,38.06473 91.442802,20.188274 Z"
     id="path37155-5"
     sodipodi:nodetypes="cccccccc" /><path
     style="fill:#ff2a2a;stroke:#000000;stroke-width:0.5;stroke-linecap:round;stroke-linejoin:round;stroke-dasharray:none;stroke-opacity:1;stop-color:#000000"
     d="m 62.870847,63.074994 8.349214,-6.714165 C 76.458861,40.670245 85.02221,32.537273 93.792322,24.720333 l 1.67824,2.685658 -22.572265,32.395834 -10.237233,6.965946 z"
     id="path37112-0"
     sodipodi:nodetypes="ccccccc" /><path
     id="path36258-1"
     style="fill:url(#linearGradient38632);fill-opacity:1;stroke:#000000;stroke-width:0.5;stroke-linecap:round;stroke-linejoin:round;stroke-dasharray:none;stroke-opacity:1;stop-color:#000000"
     d="M 99.498532,10.368303 C 69.177467,35.79045 53.411966,74.423679 43.109039,106.21331 65.032679,83.884032 102.64033,69.27728 125.00729,69.118309 121.96559,52.984199 114.17152,25.245184 99.498532,10.368303 Z m -7.41445,11.163719 1.48385,5.163192 C 85.05146,33.824199 76.397091,44.007809 72.059314,57.466295 l -8.352452,6.73857 c 5.99595,-14.662903 13.015225,-30.451768 28.37722,-42.672843 z"
     sodipodi:nodetypes="ccccccccc" /><path
     style="fill:none;stroke:#000000;stroke-width:0.5;stroke-linecap:round;stroke-linejoin:round;stroke-dasharray:none;stroke-opacity:1;stop-color:#000000"
     d="m 99.144662,10.671971 c -2.54728,3.521163 -5.26868,7.419989 -7.0782,10.941152"
     id="path37283-0"
     sodipodi:nodetypes="cc" /><path
     style="fill:#ff8080;stroke:#000000;stroke-width:0.5;stroke-linecap:round;stroke-linejoin:round;stroke-dasharray:none;stroke-opacity:1;stop-color:#000000"
     d="m 128.86744,62.067861 9.81767,10.658734 c 22.05154,7.398606 56.93537,29.490125 64.84017,63.917125 -5.14204,-57.821451 -50.41735,-72.148421 -74.65784,-74.575859 z"
     id="path38388"
     sodipodi:nodetypes="cccc" /><path
     style="fill:#ff2a2a;stroke:#000000;stroke-width:0.5;stroke-linecap:round;stroke-linejoin:round;stroke-dasharray:none;stroke-opacity:1;stop-color:#000000"
     d="m 189.07413,10.998256 -2.72712,-0.04196 c -21.83446,16.988208 -30.72694,31.640391 -45.72,56.327694 l 1.19163,2.65861 z"
     id="path37380-1"
     sodipodi:nodetypes="ccccc" /><path
     id="path37328-2"
     style="fill:url(#linearGradient38634);fill-opacity:1;stroke:#000000;stroke-width:0.5;stroke-linecap:round;stroke-linejoin:round;stroke-dasharray:none;stroke-opacity:1;stop-color:#000000"
     d="m 189.11537,11.040717 c -20.88803,16.606547 -35.43847,38.376018 -47.38406,58.867098 23.38015,9.682002 40.69094,25.80272 53.60644,41.455355 4.84932,-31.381999 10.00986,-67.627053 -6.22238,-100.322453 z m -3.22382,11.085272 c 6.79838,14.396058 6.97495,29.053257 6.05226,42.549571 -3.13461,-1.469169 -6.38335,-4.131212 -8.95912,-7.121219 1.7782,-10.778459 0.0925,-21.65628 -2.90688,-29.434236 z"
     sodipodi:nodetypes="ccccccccc" /><path
     style="fill:none;stroke:#000000;stroke-width:0.5;stroke-linecap:round;stroke-linejoin:round;stroke-dasharray:none;stroke-opacity:1;stop-color:#000000"
     d="m 189.21455,11.265424 c -1.80594,4.106811 -2.66991,7.675254 -3.38208,11.156931"
     id="path37333-3"
     sodipodi:nodetypes="cc" /><path
     id="path38948"
     style="fill:url(#linearGradient41053);fill-opacity:1;stroke:#000000;stroke-width:0.5;stroke-linecap:round;stroke-linejoin:round;stop-color:#000000;stroke-dasharray:none"
     d="M 58.7938,57.380859 A 19.623202,21.285603 31.713318 0 0 41.864112,68.158203 19.623202,21.285603 31.713318 0 0 47.832862,96.447266 19.623202,21.285603 31.713318 0 0 75.619971,88.181641 19.623202,21.285603 31.713318 0 0 69.651221,59.894531 19.623202,21.285603 31.713318 0 0 66.246924,58.375 L 64.82505,61.925781 A 16.08,17.444434 31.624706 0 1 67.680518,63.189453 16.08,17.444434 31.624706 0 1 72.56919,86.375 16.08,17.444434 31.624706 0 1 49.803565,93.150391 16.08,17.444434 31.624706 0 1 44.910987,69.964844 16.08,17.444434 31.624706 0 1 57.340674,61.34375 l 2.09375,-3.962891 a 19.623202,21.285603 31.713318 0 0 -0.640624,0 z" /><path
     id="path3280"
     style="fill:url(#linearGradient41047);fill-opacity:1;stroke:#000000;stroke-width:0.5;stroke-linecap:round;stroke-linejoin:round;stroke-dasharray:none;stroke-opacity:1;stop-color:#000000"
     d="m 55.18605,89.973647 c -0.355884,-0.06936 -0.777742,0.204152 -1.183024,0.836736 -4.931139,7.696604 -20.874854,32.573507 -25.864245,40.263917 -0.818328,1.26134 -0.369745,2.74352 1.020505,3.32301 l 35.299208,14.71315 c 1.081472,0.44977 2.231619,-0.47723 2.017014,-1.62566 l -9.05661,-48.524938 c -1.139807,0.0318 -2.144105,-0.0174 -2.954916,-0.18239 -0.298491,0.27024 -0.634826,0.2886 -0.967219,0.22754 -0.77736,-0.14203 -1.219763,-1.285624 -0.988528,-2.555348 0.210636,-1.154709 0.912787,-2.035374 1.641335,-2.058616 0.06303,-0.0027 0.125372,0.0027 0.186516,0.0136 0.328464,0.05903 0.591608,0.302862 0.775369,0.653447 l 1.574706,-0.03182 -0.716748,-3.833015 C 55.831586,90.454812 55.541935,90.04338 55.18605,89.974019 Z"
     sodipodi:nodetypes="sssccccccccccccs" /><path
     id="path3280-7"
     style="fill:#ffb380;stroke:#000000;stroke-width:0.5;stroke-linecap:round;stroke-linejoin:round;stop-color:#000000;stroke-dasharray:none"
     d="M 53.019818,98.757978 C 46.734868,108.56447 36.448835,124.60968 31.821112,131.75696 L 62.38552,144.49649 53.893779,98.989072 c -0.131757,0.0335 -0.26455,0.0403 -0.397016,0.0159 -0.178331,-0.0326 -0.337944,-0.1196 -0.476945,-0.247034 z" /><ellipse
     style="fill:url(#linearGradient41051);fill-opacity:1;stroke:#000000;stroke-width:0.5;stroke-linecap:round;stroke-linejoin:round;stroke-dasharray:none;stroke-opacity:1;stop-color:#000000"
     id="path3336"
     cx="48.458538"
     cy="131.54738"
     rx="2.06833"
     ry="3.3207448" /><path
     style="fill:url(#linearGradient41049);fill-opacity:1;stroke:#000000;stroke-width:0.5;stroke-linecap:round;stroke-linejoin:round;stroke-dasharray:none;stroke-opacity:1;stop-color:#000000"
     d="m 48.120452,124.40934 2.879378,1.02734 3.473483,-16.36348 -5.118842,-1.61433 z"
     id="path4127" /><path
     id="path43684"
     style="fill:#ffdd55;stroke:#000000;stroke-width:0.5;stroke-linecap:round;stroke-linejoin:round;stroke-dasharray:none;stroke-opacity:1;stop-color:#000000"
     d="m 192.18298,59.612407 -1.43996,0.453999 -2.84961,6.199219 c 0.1507,1.280954 0.4713,2.39623 2.02734,4.464844 l 11.83984,12.455078 2.14063,-1.226563 -12.74414,-13.951172 c 0,0 -0.72053,-2.250013 0.78264,-4.110454 z"
     sodipodi:nodetypes="ccccccccc" /><path
     style="fill:url(#linearGradient43858);fill-opacity:1;stroke:#000000;stroke-width:0.5;stroke-linecap:round;stroke-linejoin:round;stroke-dasharray:none;stroke-opacity:1;stop-color:#000000"
     d="m 200.15667,62.941178 3.43998,12.979167 3.39151,-0.01487 -3.2228,-10.718807 -2.52749,-4.023405 z"
     id="path43603"
     sodipodi:nodetypes="cccccc" /><path
     id="path43601"
     style="fill:url(#linearGradient43856);fill-opacity:1;stroke:#000000;stroke-width:0.5;stroke-linecap:round;stroke-linejoin:round;stroke-dasharray:none;stroke-opacity:1;stop-color:#000000"
     d="m 192.21989,58.467876 c -4.58476,1.979081 -5.85463,7.076842 -3.44953,9.678608 3.93171,4.253181 13.69922,13.416016 13.69922,13.416016 l 5.11523,-2.095703 c 0,0 0.12192,-0.68838 -0.11133,-2.183594 -0.23325,-1.495211 -1.68141,-2.663235 -3.34179,-2.111328 -1.6604,0.551908 -2.76953,1.142578 -2.76953,1.142578 0,0 -8.7039,-8.259516 -9.94727,-9.503906 -0.99417,-0.994989 -1.72846,-3.760765 0.72641,-5.709858 z m 7.92547,0.100483 0.14441,3.441274 1.11926,0.472789 0.88867,2.109375 1.40235,0.736328 c 0,0 -0.27832,-1.233525 -1.28321,-4.011719 -0.38558,-1.06602 -1.16668,-2.0531 -2.27148,-2.748047 z"
     sodipodi:nodetypes="csccsscscccccccsc" /><path
     id="path43605"
     style="fill:url(#linearGradient43860);fill-opacity:1;stroke:#000000;stroke-width:0.5;stroke-linecap:round;stroke-linejoin:round;stroke-dasharray:none;stroke-opacity:1;stop-color:#000000"
     d="m 207.92877,79.516981 -5.49127,2.404202 c 0,0 -4.91698,5.360261 -5.34876,10.985435 -0.29631,3.860274 3.16647,7.028214 7.12671,5.181679 3.96026,-1.846549 13.41866,-6.544926 16.43731,-8.14123 3.01863,-1.596295 2.79776,-5.519359 -0.33238,-7.959514 -4.49249,-3.502199 -12.39161,-2.470572 -12.39161,-2.470572 z m 4.51952,3.030312 c 1.89157,0.119577 5.59985,0.83983 7.41774,3.421898 0,0 -0.54995,1.012453 -2.28247,1.881656 -1.7325,0.869199 -14.13456,7.10265 -14.13456,7.10265 -3.03798,1.243528 -3.83432,-2.062644 -3.53263,-3.51187 0.3017,-1.449237 2.07277,-3.799345 2.07277,-3.799345 z" /><path
     style="fill:url(#linearGradient43862);fill-opacity:1;stroke:#000000;stroke-width:0.5;stroke-linecap:round;stroke-linejoin:round;stroke-dasharray:none;stroke-opacity:1;stop-color:#000000"
     d="m 205.0693,85.822284 c 0.56181,-2.152779 3.61267,-3.158877 4.911,-2.397702 l 0.79951,2.128858 c -0.35397,1.425081 -2.76169,3.082955 -4.78137,2.365559 z"
     id="path43610"
     sodipodi:nodetypes="ccccc" /><path
     style="fill:#ff9955;stroke:#000000;stroke-width:0.5;stroke-linecap:round;stroke-linejoin:round;stroke-dasharray:none;stroke-opacity:1;stop-color:#000000"
     d="m 215.00552,110.74184 c 3.0726,25.43689 13.48555,55.56067 16.52247,136.69106 l -8.12092,-9.19525 c -1.98754,-36.01608 -6.42464,-73.26302 -14.57572,-111.63509 z"
     id="path45832"
     sodipodi:nodetypes="ccccc" /><path
     style="fill:#ffb380;stroke:#000000;stroke-width:0.5;stroke-linecap:round;stroke-linejoin:round;stroke-dasharray:none;stroke-opacity:1;stop-color:#000000"
     d="m 206.34554,91.235523 c 1.85136,-1.041349 5.1225,-1.932692 7.92486,-2.270066 2.72292,14.123183 0.84452,27.456603 1.23558,41.179543 l -8.47383,-0.58236 c -0.0468,-12.81185 1.65269,-25.97024 -0.68664,-38.327117 z"
     id="path45830"
     sodipodi:nodetypes="ccccc" /><ellipse
     style="fill:#ffe680;stroke:#000000;stroke-width:0.5;stroke-linecap:round;stroke-linejoin:round;stroke-dasharray:none;stroke-opacity:1;stop-color:#000000"
     id="path45912"
     cx="201.41164"
     cy="137.12881"
     rx="3.0798316"
     ry="3.7935269"
     transform="rotate(-4.4427596)" /><ellipse
     style="fill:#ffd42a;stroke:#000000;stroke-width:0.5;stroke-linecap:round;stroke-linejoin:round;stroke-dasharray:none;stroke-opacity:1;stop-color:#000000"
     id="path45912-0"
     cx="201.41164"
     cy="137.12881"
     rx="1.6928874"
     ry="2.1029336"
     transform="rotate(-4.4427596)" /></svg>
