<?xml version="1.0" encoding="UTF-8" standalone="no"?>
<svg
   viewBox="0 0 256 256"
   version="1.1"
   id="svg16379"
   sodipodi:docname="cyber_panties.svg"
   xml:space="preserve"
   inkscape:version="1.2 (dc2aedaf03, 2022-05-15)"
   xmlns:inkscape="http://www.inkscape.org/namespaces/inkscape"
   xmlns:sodipodi="http://sodipodi.sourceforge.net/DTD/sodipodi-0.dtd"
   xmlns:xlink="http://www.w3.org/1999/xlink"
   xmlns="http://www.w3.org/2000/svg"
   xmlns:svg="http://www.w3.org/2000/svg"><sodipodi:namedview
     id="namedview16381"
     pagecolor="#ffffff"
     bordercolor="#000000"
     borderopacity="0.25"
     inkscape:showpageshadow="2"
     inkscape:pageopacity="0.0"
     inkscape:pagecheckerboard="0"
     inkscape:deskcolor="#d1d1d1"
     showgrid="false"
     inkscape:zoom="4.8834564"
     inkscape:cx="117.33493"
     inkscape:cy="170.47352"
     inkscape:window-width="1920"
     inkscape:window-height="1051"
     inkscape:window-x="-9"
     inkscape:window-y="-9"
     inkscape:window-maximized="1"
     inkscape:current-layer="svg16379" /><defs
     id="defs16199"><linearGradient
       inkscape:collect="always"
       id="linearGradient21222"><stop
         style="stop-color:#ff8080;stop-opacity:1"
         offset="0"
         id="stop21218" /><stop
         style="stop-color:#ffaaaa;stop-opacity:1"
         offset="1"
         id="stop21220" /></linearGradient><linearGradient
       inkscape:collect="always"
       id="linearGradient21214"><stop
         style="stop-color:#ffb380;stop-opacity:1"
         offset="0"
         id="stop21210" /><stop
         style="stop-color:#ffccaa;stop-opacity:1"
         offset="1"
         id="stop21212" /></linearGradient><linearGradient
       id="innoGrad8"><stop
         offset="0"
         stop-color="#ff7f2a"
         stop-opacity=".502"
         id="stop16104" /><stop
         offset=".16"
         stop-color="#ff7f2a"
         stop-opacity="0"
         id="stop16106" /><stop
         offset=".444"
         stop-color="#ff7f2a"
         stop-opacity=".502"
         id="stop16108" /><stop
         offset=".729"
         stop-color="#ff7f2a"
         stop-opacity="0"
         id="stop16110" /><stop
         offset="1"
         stop-color="#ff7f2a"
         stop-opacity=".502"
         id="stop16112" /></linearGradient><linearGradient
       id="innoGrad7"><stop
         offset="0"
         stop-color="#ff7f2a"
         stop-opacity=".502"
         id="stop16115" /><stop
         offset=".529"
         stop-color="#ff7f2a"
         stop-opacity="0"
         id="stop16117" /><stop
         offset="1"
         stop-color="#ff7f2a"
         stop-opacity=".502"
         id="stop16119" /></linearGradient><linearGradient
       id="innoGrad6"><stop
         offset="0"
         stop-color="#ffd42a"
         stop-opacity="0"
         id="stop16122" /><stop
         offset="1"
         stop-color="#ffd42a"
         stop-opacity=".502"
         id="stop16124" /></linearGradient><linearGradient
       id="innoGrad5"><stop
         offset="0"
         stop-color="#ffd42a"
         stop-opacity=".502"
         id="stop16127" /><stop
         offset="1"
         stop-color="#ffd42a"
         stop-opacity="0"
         id="stop16129" /></linearGradient><linearGradient
       id="innoGrad4"><stop
         offset="0"
         stop-color="#ff7f2a"
         stop-opacity=".502"
         id="stop16132" /><stop
         offset=".828"
         stop-color="#ff7f2a"
         stop-opacity="0"
         id="stop16134" /><stop
         offset="1"
         stop-color="#ff7f2a"
         stop-opacity=".502"
         id="stop16136" /></linearGradient><linearGradient
       id="innoGrad3"><stop
         offset="0"
         stop-color="#ff7f2a"
         stop-opacity=".502"
         id="stop16139" /><stop
         offset=".5"
         stop-color="#ff7f2a"
         stop-opacity="0"
         id="stop16141" /><stop
         offset="1"
         stop-color="#ff7f2a"
         stop-opacity=".502"
         id="stop16143" /></linearGradient><linearGradient
       id="innoGrad2"><stop
         offset="0"
         stop-color="#ff7f2a"
         stop-opacity=".502"
         id="stop16146" /><stop
         offset="1"
         stop-color="#ff7f2a"
         stop-opacity="0"
         id="stop16148" /></linearGradient><linearGradient
       id="innoGrad1"><stop
         offset="0"
         stop-color="#ff2a2a"
         stop-opacity="0"
         id="stop16151" /><stop
         offset="1"
         stop-color="#ff2a2a"
         stop-opacity=".502"
         id="stop16153" /></linearGradient><linearGradient
       id="linearGradient949"
       x1="123.657"
       x2="123.657"
       y1="98.708"
       y2="151.969"
       gradientUnits="userSpaceOnUse"
       xlink:href="#innoGrad2"
       gradientTransform="matrix(0.84311,0,0,0.84248,21.704,22.646)" /><radialGradient
       id="radialGradient983"
       cx="101.654"
       cy="132.803"
       r="101.191"
       fx="101.654"
       fy="132.803"
       gradientTransform="matrix(0,0.52955765,-0.52685944,0,192.03342,110.95565)"
       gradientUnits="userSpaceOnUse"
       xlink:href="#innoGrad1" /><linearGradient
       id="linearGradient1019"
       x1="85.824"
       x2="109.825"
       y1="130.082"
       y2="136.533"
       gradientUnits="userSpaceOnUse"
       xlink:href="#innoGrad2"
       gradientTransform="matrix(0.84311,0,0,0.84248,-0.44984617,41.759122)" /><linearGradient
       id="linearGradient1021"
       x1="165.836"
       x2="141.835"
       y1="130.082"
       y2="136.533"
       gradientUnits="userSpaceOnUse"
       xlink:href="#innoGrad2"
       gradientTransform="matrix(0.84311,0,0,0.84248,31.550154,49.578127)" /><radialGradient
       id="radialGradient1060"
       cx="125.685"
       cy="235.659"
       r="100.784"
       fx="125.685"
       fy="235.659"
       gradientTransform="matrix(0,0.60272704,-0.60004139,0,260.67681,49.551842)"
       gradientUnits="userSpaceOnUse"
       xlink:href="#innoGrad2" /><linearGradient
       id="linearGradient1160"
       x1="-4.058"
       x2="24.98"
       y1="59.823"
       y2="100.021"
       gradientUnits="userSpaceOnUse"
       xlink:href="#innoGrad3"
       gradientTransform="matrix(0.84311,0,0,0.84248,21.704,22.646)" /><linearGradient
       id="linearGradient1184"
       x1="-4.058"
       x2="24.98"
       y1="59.823"
       y2="100.021"
       gradientUnits="userSpaceOnUse"
       xlink:href="#innoGrad3"
       gradientTransform="matrix(0.84311,0,0,0.84248,21.704,22.646)" /><linearGradient
       id="linearGradient1186"
       x1="-16.445"
       x2="25.856"
       y1="106.459"
       y2="98.183"
       gradientUnits="userSpaceOnUse"
       xlink:href="#innoGrad3"
       gradientTransform="matrix(0.84311,0,0,0.84248,21.704,22.646)" /><linearGradient
       id="linearGradient1188"
       x1="-16.445"
       x2="25.172"
       y1="106.459"
       y2="101.463"
       gradientUnits="userSpaceOnUse"
       xlink:href="#innoGrad3"
       gradientTransform="matrix(0.84311,0,0,0.84248,21.704,22.646)" /><linearGradient
       id="linearGradient1196"
       x1="-8.157"
       x2="24.809"
       y1="161.832"
       y2="99.599"
       gradientUnits="userSpaceOnUse"
       xlink:href="#innoGrad4"
       gradientTransform="matrix(0.84311,0,0,0.84248,21.704,22.646)" /><linearGradient
       id="linearGradient1212"
       x1="25.061"
       x2="7.697"
       y1="103.14"
       y2="180.112"
       gradientUnits="userSpaceOnUse"
       xlink:href="#innoGrad7"
       gradientTransform="matrix(0.84311,0,0,0.84248,21.704,22.646)" /><linearGradient
       id="linearGradient1220"
       x1="49.767"
       x2="54.925"
       y1="89.957"
       y2="89.957"
       gradientUnits="userSpaceOnUse"
       xlink:href="#innoGrad2"
       gradientTransform="matrix(0.84306507,0,0,0.84252496,26.967085,16.031656)" /><linearGradient
       id="linearGradient1243"
       x1="2.357"
       x2="6"
       y1="182.571"
       y2="190.369"
       gradientUnits="userSpaceOnUse"
       xlink:href="#innoGrad5" /><radialGradient
       id="radialGradient1278"
       cx="7.981"
       cy="185.933"
       r="2.492"
       fx="7.981"
       fy="185.933"
       gradientUnits="userSpaceOnUse"
       xlink:href="#innoGrad6" /><radialGradient
       id="radialGradient1280"
       cx="4.722"
       cy="189.327"
       r="1.054"
       fx="4.722"
       fy="189.327"
       gradientUnits="userSpaceOnUse"
       xlink:href="#innoGrad6" /><radialGradient
       id="radialGradient1282"
       cx="7.635"
       cy="189.659"
       r="1.054"
       fx="7.635"
       fy="189.659"
       gradientUnits="userSpaceOnUse"
       xlink:href="#innoGrad6" /><radialGradient
       id="radialGradient1284"
       cx="9.953"
       cy="188.291"
       r="1.054"
       fx="9.953"
       fy="188.291"
       gradientUnits="userSpaceOnUse"
       xlink:href="#innoGrad6" /><radialGradient
       id="radialGradient1286"
       cx="11.981"
       cy="185.913"
       r="1.054"
       fx="11.981"
       fy="185.913"
       gradientUnits="userSpaceOnUse"
       xlink:href="#innoGrad6" /><linearGradient
       id="linearGradient1379"
       x1="-13.579"
       x2="-5.979"
       y1="168.938"
       y2="164.758"
       gradientUnits="userSpaceOnUse"
       xlink:href="#innoGrad6" /><radialGradient
       id="radialGradient1387"
       cx="-10.325"
       cy="166.462"
       r="2.193"
       fx="-10.325"
       fy="166.462"
       gradientTransform="matrix(1,0,0,1.04776,0,-7.94)"
       gradientUnits="userSpaceOnUse"
       xlink:href="#innoGrad6" /><radialGradient
       id="radialGradient1389"
       cx="-9.949"
       cy="171.362"
       r=".939"
       fx="-9.949"
       fy="171.362"
       gradientTransform="matrix(1,0,0,1.04172,0,-7.142)"
       gradientUnits="userSpaceOnUse"
       xlink:href="#innoGrad6" /><radialGradient
       id="radialGradient1391"
       cx="-12.616"
       cy="170.059"
       r=".939"
       fx="-12.616"
       fy="170.059"
       gradientTransform="matrix(1,0,0,1.0421,0,-7.153)"
       gradientUnits="userSpaceOnUse"
       xlink:href="#innoGrad6" /><radialGradient
       id="radialGradient1393"
       cx="-13.792"
       cy="167.42"
       r=".939"
       fx="-13.792"
       fy="167.42"
       gradientTransform="matrix(1,0,0,1.04163,0,-6.968)"
       gradientUnits="userSpaceOnUse"
       xlink:href="#innoGrad6" /><radialGradient
       id="radialGradient1395"
       cx="-13.635"
       cy="164.713"
       r=".939"
       fx="-13.635"
       fy="164.713"
       gradientTransform="matrix(1,0,0,1.04202,0,-6.907)"
       gradientUnits="userSpaceOnUse"
       xlink:href="#innoGrad6" /><linearGradient
       id="linearGradient1444"
       x1="225.112"
       x2="272.622"
       y1="99.653"
       y2="86.5"
       gradientUnits="userSpaceOnUse"
       xlink:href="#innoGrad3"
       gradientTransform="matrix(0.84311,0,0,0.84248,21.704,22.646)" /><linearGradient
       id="linearGradient1452"
       x1="224.914"
       x2="271.227"
       y1="98.739"
       y2="83.627"
       gradientUnits="userSpaceOnUse"
       xlink:href="#innoGrad3"
       gradientTransform="matrix(0.84311,0,0,0.84248,21.704,22.646)" /><linearGradient
       id="linearGradient1460"
       x1="224.773"
       x2="267.778"
       y1="101.77"
       y2="106.459"
       gradientUnits="userSpaceOnUse"
       xlink:href="#innoGrad3"
       gradientTransform="matrix(0.84311,0,0,0.84248,21.704,22.646)" /><linearGradient
       id="linearGradient1476"
       x1="226.871"
       x2="267.778"
       y1="101.111"
       y2="106.459"
       gradientUnits="userSpaceOnUse"
       xlink:href="#innoGrad3"
       gradientTransform="matrix(0.84311,0,0,0.84248,21.704,22.646)" /><linearGradient
       id="linearGradient1484"
       x1="224.443"
       x2="228.258"
       y1="103.209"
       y2="164.985"
       gradientUnits="userSpaceOnUse"
       xlink:href="#innoGrad8"
       gradientTransform="matrix(0.84311,0,0,0.84248,21.704,22.646)" /><linearGradient
       id="linearGradient1492"
       x1="226.173"
       x2="248.75"
       y1="102.972"
       y2="179.156"
       gradientUnits="userSpaceOnUse"
       xlink:href="#innoGrad7"
       gradientTransform="matrix(0.84311,0,0,0.84248,21.704,22.646)" /><linearGradient
       id="linearGradient1512"
       x1="-192.43"
       x2="-187.272"
       y1="-157.079"
       y2="-157.079"
       gradientUnits="userSpaceOnUse"
       xlink:href="#innoGrad2"
       gradientTransform="matrix(0.84306507,0,0,0.84252496,-14.861779,-27.617324)" /><linearGradient
       id="linearGradient1550"
       x1="249.842"
       x2="252.971"
       y1="178.815"
       y2="186.833"
       gradientUnits="userSpaceOnUse"
       xlink:href="#innoGrad5" /><radialGradient
       id="radialGradient1558"
       cx="248.657"
       cy="185.289"
       r="2.492"
       fx="248.657"
       fy="185.289"
       gradientUnits="userSpaceOnUse"
       xlink:href="#innoGrad6" /><radialGradient
       id="radialGradient1560"
       cx="253.432"
       cy="185.356"
       r="1.054"
       fx="253.432"
       fy="185.356"
       gradientUnits="userSpaceOnUse"
       xlink:href="#innoGrad6" /><radialGradient
       id="radialGradient1562"
       cx="251.67"
       cy="188.129"
       r="1.054"
       fx="251.67"
       fy="188.129"
       gradientUnits="userSpaceOnUse"
       xlink:href="#innoGrad6" /><radialGradient
       id="radialGradient1564"
       cx="248.806"
       cy="188.868"
       r="1.054"
       fx="248.806"
       fy="188.868"
       gradientUnits="userSpaceOnUse"
       xlink:href="#innoGrad6" /><radialGradient
       id="radialGradient1566"
       cx="245.395"
       cy="188.771"
       r="1.055"
       fx="245.395"
       fy="188.771"
       gradientUnits="userSpaceOnUse"
       xlink:href="#innoGrad6" /><linearGradient
       id="linearGradient1604"
       x1="224.803"
       x2="231.728"
       y1="172.912"
       y2="169.138"
       gradientUnits="userSpaceOnUse"
       xlink:href="#innoGrad6" /><radialGradient
       id="radialGradient1612"
       cx="226.155"
       cy="169.238"
       r="2.221"
       fx="226.155"
       fy="169.238"
       gradientTransform="matrix(1,0,0,1.02393,0,-4.045)"
       gradientUnits="userSpaceOnUse"
       xlink:href="#innoGrad6" /><radialGradient
       id="radialGradient1614"
       cx="222.257"
       cy="166.49"
       r=".95"
       fx="222.257"
       fy="166.49"
       gradientTransform="matrix(1,0,0,1.02143,0,-3.567)"
       gradientUnits="userSpaceOnUse"
       xlink:href="#innoGrad6" /><radialGradient
       id="radialGradient1616"
       cx="221.974"
       cy="169.487"
       r=".95"
       fx="221.974"
       fy="169.487"
       gradientTransform="matrix(1,0,0,1.02268,0,-3.842)"
       gradientUnits="userSpaceOnUse"
       xlink:href="#innoGrad6" /><radialGradient
       id="radialGradient1618"
       cx="223.707"
       cy="171.654"
       r=".949"
       fx="223.707"
       fy="171.654"
       gradientTransform="matrix(1,0,0,1.02213,0,-3.798)"
       gradientUnits="userSpaceOnUse"
       xlink:href="#innoGrad6" /><radialGradient
       id="radialGradient1620"
       cx="226.172"
       cy="173.54"
       r=".949"
       fx="226.172"
       fy="173.54"
       gradientTransform="matrix(1,0,0,1.02256,0,-3.911)"
       gradientUnits="userSpaceOnUse"
       xlink:href="#innoGrad6" /><linearGradient
       id="linearGradient1605"
       x1="50.297001"
       x2="50.297001"
       y1="21.886999"
       y2="117.928"
       gradientUnits="userSpaceOnUse"
       xlink:href="#innoGrad4-7" /><linearGradient
       id="innoGrad4-7"><stop
         offset="0"
         stop-color="#ff2a2a"
         stop-opacity=".502"
         id="stop575" /><stop
         offset=".5"
         stop-color="#ff2a2a"
         stop-opacity="0"
         id="stop577" /><stop
         offset="1"
         stop-color="#ff2a2a"
         stop-opacity=".502"
         id="stop579" /></linearGradient><linearGradient
       id="linearGradient1607"
       x1="50.297001"
       x2="40.880001"
       y1="21.886999"
       y2="116.887"
       gradientUnits="userSpaceOnUse"
       xlink:href="#innoGrad1" /><linearGradient
       id="linearGradient1656"
       x1="1.589"
       x2="44.646"
       y1="91.053001"
       y2="28.315001"
       gradientUnits="userSpaceOnUse"
       xlink:href="#innoGrad1" /><linearGradient
       id="linearGradient1664"
       x1="17.089001"
       x2="46.669998"
       y1="32.858002"
       y2="24.995001"
       gradientUnits="userSpaceOnUse"
       xlink:href="#innoGrad4-7" /><linearGradient
       id="linearGradient1672"
       x1="17.589001"
       x2="50.59"
       y1="33.428001"
       y2="24.996"
       gradientUnits="userSpaceOnUse"
       xlink:href="#innoGrad4-7" /><linearGradient
       id="linearGradient1680"
       x1="22.34"
       x2="44.188"
       y1="63.303001"
       y2="72.915001"
       gradientUnits="userSpaceOnUse"
       xlink:href="#innoGrad4-7" /><linearGradient
       id="linearGradient1696"
       x1="22.34"
       x2="41.525002"
       y1="63.303001"
       y2="27.556999"
       gradientUnits="userSpaceOnUse"
       xlink:href="#innoGrad1" /><linearGradient
       id="linearGradient1712"
       x1="44.061001"
       x2="0.52200001"
       y1="30.437"
       y2="136.57401"
       gradientUnits="userSpaceOnUse"
       xlink:href="#innoGrad5-5" /><linearGradient
       id="innoGrad5-5"><stop
         offset="0"
         stop-color="#ff2a2a"
         stop-opacity=".502"
         id="stop564" /><stop
         offset=".385"
         stop-color="#ff2a2a"
         stop-opacity="0"
         id="stop566" /><stop
         offset=".577"
         stop-color="#ff2a2a"
         stop-opacity=".502"
         id="stop568" /><stop
         offset=".77"
         stop-color="#ff2a2a"
         stop-opacity="0"
         id="stop570" /><stop
         offset="1"
         stop-color="#ff2a2a"
         stop-opacity=".502"
         id="stop572" /></linearGradient><linearGradient
       id="linearGradient1732"
       x1="6.7859998"
       x2="16.787001"
       y1="51.304001"
       y2="51.304001"
       gradientUnits="userSpaceOnUse"
       xlink:href="#innoGrad1" /><linearGradient
       id="linearGradient1784"
       x1="205.69"
       x2="201.77299"
       y1="21.886999"
       y2="116.886"
       gradientUnits="userSpaceOnUse"
       xlink:href="#innoGrad4-7" /><linearGradient
       id="linearGradient1792"
       x1="215.12"
       x2="205.689"
       y1="116.886"
       y2="21.886"
       gradientUnits="userSpaceOnUse"
       xlink:href="#innoGrad1" /><linearGradient
       id="linearGradient1800"
       x1="254.39799"
       x2="211.341"
       y1="91.053001"
       y2="28.316"
       gradientUnits="userSpaceOnUse"
       xlink:href="#innoGrad4-7" /><linearGradient
       id="linearGradient1808"
       x1="207.14799"
       x2="205.98"
       y1="27.944"
       y2="61.626999"
       gradientUnits="userSpaceOnUse"
       xlink:href="#innoGrad4-7" /><linearGradient
       id="linearGradient1816"
       x1="210.94"
       x2="205.98"
       y1="21.886999"
       y2="61.626999"
       gradientUnits="userSpaceOnUse"
       xlink:href="#innoGrad4-7" /><linearGradient
       id="linearGradient1824"
       x1="211.41701"
       x2="225.783"
       y1="53.648998"
       y2="48.224998"
       gradientUnits="userSpaceOnUse"
       xlink:href="#innoGrad4-7" /><linearGradient
       id="linearGradient1832"
       x1="224.77299"
       x2="211.341"
       y1="98.120003"
       y2="28.316"
       gradientUnits="userSpaceOnUse"
       xlink:href="#innoGrad1" /><linearGradient
       id="linearGradient1840"
       x1="-167.866"
       x2="-157.866"
       y1="135.842"
       y2="135.842"
       gradientUnits="userSpaceOnUse"
       xlink:href="#innoGrad1" /><linearGradient
       inkscape:collect="always"
       xlink:href="#linearGradient21214"
       id="linearGradient21216"
       x1="154.64253"
       y1="217.19456"
       x2="184.51727"
       y2="165.45001"
       gradientUnits="userSpaceOnUse"
       gradientTransform="matrix(0.83026455,0,0,0.82991898,4.5472921,20.962362)" /><linearGradient
       inkscape:collect="always"
       xlink:href="#linearGradient21222"
       id="linearGradient21224"
       x1="142.47963"
       y1="214.58823"
       x2="112.5519"
       y2="162.75188"
       gradientUnits="userSpaceOnUse"
       gradientTransform="matrix(0.83026455,0,0,0.82991898,4.5472921,20.962362)" /></defs><path
     style="fill:#ff2a2a;stroke:#000000;stroke-linecap:round;stroke-linejoin:round;stop-color:#000000;stroke-width:0.5;stroke-dasharray:none"
     d="m 176.19307,84.470861 c -11.0773,-1.08695 -25.28838,-1.89088 -38.81755,-1.89088 L 128,106.65 l 0.11754,74.65806 c 10.60016,-39.28558 28.70181,-71.18694 48.07553,-96.837199 z"
     id="path22493-3"
     sodipodi:nodetypes="ccccc" /><path
     id="rect25868"
     style="fill:#ffd42a;stroke:#000000;stroke-linecap:round;stroke-linejoin:round;stop-color:#000000;stroke-width:0.5;stroke-dasharray:none"
     d="m 125.99729,69.724788 c -1.36133,0 -2.45703,1.095703 -2.45703,2.457032 v 3.99414 c 0,1.361329 1.0957,2.457031 2.45703,2.457031 h 4.10742 c 1.36133,0 2.45703,-1.095702 2.45703,-2.457031 v -3.99414 c 0,-1.361329 -1.0957,-2.457032 -2.45703,-2.457032 z m 0.0918,1.359375 c 0.5916,0 1.0664,0.474805 1.0664,1.066407 v 4.054687 c 0,0.5916 -0.4748,1.068359 -1.0664,1.068359 -0.5916,0 -1.06836,-0.476759 -1.06836,-1.068359 V 72.15057 c 0,-0.591602 0.47676,-1.066407 1.06836,-1.066407 z m 3.90039,0 c 0.5916,0 1.06836,0.474805 1.06836,1.066407 v 4.054687 c 0,0.591601 -0.47676,1.068359 -1.06836,1.068359 -0.5916,0 -1.06836,-0.476758 -1.06836,-1.068359 V 72.15057 c 0,-0.591602 0.47676,-1.066407 1.06836,-1.066407 z" /><path
     id="rect25868-0"
     style="fill:#ffd42a;stroke:#000000;stroke-linecap:round;stroke-linejoin:round;stop-color:#000000;stroke-width:0.5;stroke-dasharray:none"
     d="m 62.525329,61.371711 c -0.963026,-0.962185 -2.512581,-0.961508 -3.474766,0.0015 l -2.823052,2.825514 c -0.962184,0.963026 -0.961511,2.512581 0.0015,3.474766 l 2.905651,2.903118 c 0.963026,0.962185 2.512581,0.961509 3.474765,-0.0015 l 2.823052,-2.825515 c 0.962185,-0.963025 0.961512,-2.512581 -0.0015,-3.474766 z m -0.895863,1.026527 c 0.418507,0.418141 0.418796,1.089613 6.53e-4,1.508122 l -2.865847,2.868346 c -0.418141,0.418507 -1.090994,0.420185 -1.509502,0.002 -0.418506,-0.418142 -0.418801,-1.092382 -6.59e-4,-1.510888 l 2.865846,-2.868347 c 0.418143,-0.418508 1.091002,-0.417419 1.509509,7.23e-4 z m 2.759195,2.756788 c 0.418507,0.418143 0.420182,1.091 0.002,1.509508 l -2.865845,2.868347 c -0.418143,0.418508 -1.092382,0.4188 -1.510888,6.58e-4 -0.418508,-0.418141 -0.418803,-1.09238 -6.6e-4,-1.510889 l 2.865846,-2.868346 c 0.418143,-0.418508 1.091001,-0.417419 1.509509,7.22e-4 z" /><path
     id="path23945"
     style="fill:#ff7f2a;stroke:#000000;stroke-linecap:round;stroke-linejoin:round;stop-color:#000000;stroke-width:0.5;stroke-dasharray:none"
     d="M 126.04492,71.106705 C 68.487171,71.096238 14.238555,73.089632 5.3574219,104.84766 v 14.04492 c 0,-37.776764 59.8698661,-41.620088 120.6874981,-41.630968 z m 4.06672,0.0059 -0.0256,6.186363 c 60.76361,0.114297 120.6581,2.621084 120.6581,41.763573 l -0.10156,-14.21484 C 241.258,72.741815 187.40645,71.206032 130.11164,71.112564 Z"
     sodipodi:nodetypes="cccccccccc" /><path
     style="fill:#ff2a2a;stroke:#000000;stroke-linecap:round;stroke-linejoin:round;stop-color:#000000;stroke-width:0.5;stroke-dasharray:none"
     d="m 79.806928,84.470861 c 11.077304,-1.08695 25.288382,-1.89088 38.817552,-1.89088 L 128,106.65 127.88246,181.30806 C 117.2823,142.02248 99.180653,110.12112 79.806928,84.470861 Z"
     id="path22493"
     sodipodi:nodetypes="ccccc" /><path
     id="path19032-9"
     style="fill:#ff2a2a;stroke:#000000;stroke-width:0.5;stroke-linecap:round;stroke-linejoin:round;stop-color:#000000;stroke-dasharray:none"
     d="M 32.650391 51.775391 C 24.024812 51.888705 16.892051 55.655333 15.853516 64.917969 C 24.100396 49.181504 46.873648 58.011743 56.648438 65.759766 C 56.910246 65.967289 57.24888 66.278994 57.535156 66.519531 L 61.101562 62.763672 C 60.180837 61.987978 59.257318 61.208279 58.396484 60.550781 C 51.392833 55.201445 41.275969 51.662076 32.650391 51.775391 z M 64.275391 65.576172 L 60.470703 69.175781 C 74.898206 82.934058 106.5951 122.52545 122.44922 172.44141 C 124.16471 172.14157 125.34671 170.63832 127.22461 169.22852 C 111.90903 122.02368 83.367445 83.164822 64.275391 65.576172 z " /><path
     id="rect25868-0-4"
     style="fill:#ffd42a;stroke:#000000;stroke-linecap:round;stroke-linejoin:round;stop-color:#000000;stroke-width:0.5;stroke-dasharray:none"
     d="m 193.48513,61.371711 c 0.96302,-0.962185 2.51258,-0.961508 3.47476,0.0015 l 2.82305,2.825514 c 0.96219,0.963026 0.96152,2.512581 -0.001,3.474766 l -2.90565,2.903118 c -0.96302,0.962185 -2.51258,0.961509 -3.47476,-0.0015 l -2.82305,-2.825515 c -0.96219,-0.963025 -0.96152,-2.512581 0.002,-3.474766 z m 0.89586,1.026527 c -0.41851,0.418141 -0.4188,1.089613 -6.5e-4,1.508122 l 2.86584,2.868346 c 0.41814,0.418507 1.091,0.420185 1.50951,0.002 0.4185,-0.418142 0.4188,-1.092382 6.5e-4,-1.510888 l -2.86584,-2.868347 c -0.41814,-0.418508 -1.091,-0.417419 -1.50951,7.23e-4 z m -2.7592,2.756788 c -0.4185,0.418143 -0.42018,1.091 -0.002,1.509508 l 2.86585,2.868347 c 0.41814,0.418508 1.09238,0.4188 1.51089,6.58e-4 0.41851,-0.418141 0.4188,-1.09238 6.6e-4,-1.510889 l -2.86585,-2.868346 c -0.41814,-0.418508 -1.091,-0.417419 -1.50951,7.22e-4 z" /><path
     id="path19032-9-1"
     style="fill:#ff2a2a;stroke:#000000;stroke-width:0.5;stroke-linecap:round;stroke-linejoin:round;stop-color:#000000;stroke-dasharray:none"
     d="m 223.36007,51.775391 c 8.62557,0.113314 15.75834,3.879942 16.79687,13.142578 -8.24688,-15.736465 -31.02013,-6.906226 -40.79492,0.841797 -0.26181,0.207523 -0.60044,0.519228 -0.88672,0.759765 l -3.56641,-3.755859 c 0.92073,-0.775694 1.84425,-1.555393 2.70508,-2.212891 7.00365,-5.349336 17.12052,-8.888705 25.7461,-8.77539 z m -31.62501,13.800781 3.80469,3.599609 c -14.4275,13.758277 -46.12439,53.349669 -61.97851,103.265629 -1.71549,-0.29984 -2.89749,-1.80309 -4.77539,-3.21289 15.31558,-47.20484 43.85716,-86.063698 62.94921,-103.652348 z" /><path
     style="fill:#ff2a2a;stroke:#000000;stroke-width:0.5;stroke-linecap:round;stroke-linejoin:round;stop-color:#000000;stroke-dasharray:none"
     d="m 107.23682,138.18191 c 2.64317,2.06341 2.62355,8.0753 3.74035,12.23605 l -5.65304,-2.4642 -1.61514,-7.85996 z"
     id="path21376"
     sodipodi:nodetypes="ccccc" /><path
     style="fill:#ff2a2a;stroke:#000000;stroke-width:0.5;stroke-linecap:round;stroke-linejoin:round;stop-color:#000000;stroke-dasharray:none"
     d="m 149.2732,138.18191 c -2.64318,2.06341 -2.62355,8.0753 -3.74034,12.23605 l 5.65303,-2.4642 1.61513,-7.85996 z"
     id="path21376-1"
     sodipodi:nodetypes="ccccc" /><path
     style="fill:url(#linearGradient21224);fill-opacity:1;stroke:#000000;stroke-width:0.5;stroke-linecap:round;stroke-linejoin:round;stop-color:#000000;stroke-dasharray:none"
     d="m 128.13348,172.11784 v 34.02534 c -6.13164,0 -9.03139,-0.63986 -13.52542,-0.96134 l -45.863664,-60.68548 38.830834,5.52779 z"
     id="path20577"
     sodipodi:nodetypes="cccccc" /><path
     id="path19030"
     style="fill:#ff5555;stroke:#000000;stroke-width:0.5;stroke-linecap:round;stroke-linejoin:round;stop-color:#000000;stroke-dasharray:none"
     d="m 69.492789,141.45298 4.931319,6.20332 c 10.744365,2.58367 19.573204,5.54443 31.092092,5.38225 5.15912,7.97853 15.59998,15.01285 22.61728,19.07929 V 164.925 C 117.916,161.21138 111.33171,153.16004 109.34873,145.91704 l -5.7178,1.60309 c -10.954984,0.91032 -22.869146,-3.87833 -34.138141,-6.06715 z"
     sodipodi:nodetypes="cccccccc" /><path
     style="fill:#ff5555;stroke:#000000;stroke-width:0.5;stroke-linecap:round;stroke-linejoin:round;stop-color:#000000;stroke-dasharray:none"
     d="m 117.07257,205.42218 c -0.4852,1.67255 -1.88012,4.35565 -3.48638,6.06854 C 62.835099,120.62892 49.003206,147.95999 19.749561,97.291181 12.529202,84.785151 10.728591,69.885849 18.548562,57.69079 16.304576,69.036965 15.787623,81.746274 24.537731,95.042311 60.843477,150.20992 64.536759,115.80487 117.07257,205.42218 Z"
     id="path19032"
     sodipodi:nodetypes="ccscsc" /><path
     style="fill:url(#linearGradient21216);fill-opacity:1;stroke:#000000;stroke-width:0.5;stroke-linecap:round;stroke-linejoin:round;stop-color:#000000;stroke-dasharray:none"
     d="m 128.13348,172.11784 v 34.02534 c 6.13162,0 9.03137,-0.63986 13.5254,-0.96134 l 45.86366,-60.68548 -38.83083,5.52779 z"
     id="path20577-9"
     sodipodi:nodetypes="cccccc" /><path
     id="path19030-4"
     style="fill:#ff5555;stroke:#000000;stroke-width:0.5;stroke-linecap:round;stroke-linejoin:round;stop-color:#000000;stroke-dasharray:none"
     d="m 186.77415,141.45298 -4.93132,6.20332 c -10.74436,2.58367 -19.5732,5.54443 -31.0921,5.38225 -5.15912,7.97853 -15.59998,15.01285 -22.61725,19.07929 V 164.925 c 10.21746,-3.71362 16.80175,-11.76496 18.78472,-19.00796 l 5.71781,1.60309 c 10.95498,0.91032 22.86914,-3.87833 34.13814,-6.06715 z"
     sodipodi:nodetypes="cccccccc" /><path
     style="fill:#ff5555;stroke:#000000;stroke-width:0.5;stroke-linecap:round;stroke-linejoin:round;stop-color:#000000;stroke-dasharray:none"
     d="m 138.92743,205.42218 c 0.4852,1.67255 1.88012,4.35565 3.48638,6.06854 50.75109,-90.8618 64.58299,-63.53073 93.83663,-114.199539 7.22036,-12.50603 9.02097,-27.405332 1.201,-39.600391 2.24399,11.346175 2.76094,24.055484 -5.98917,37.351521 -36.30574,55.167609 -39.99903,20.762559 -92.53484,110.379869 z"
     id="path19032-90"
     sodipodi:nodetypes="ccscsc" /><path
     id="path21856"
     style="fill:#ffb380;stroke:#000000;stroke-width:0.5;stroke-linecap:round;stroke-linejoin:round;stop-color:#000000;stroke-dasharray:none"
     d="m 5.4097638,104.78985 c -0.9169277,5.29693 -0.9485689,10.10386 -0.028964,14.23425 2.2337642,3.67883 6.7653712,6.33363 12.3128882,8.11927 30.758551,9.90052 66.524678,19.51444 110.439792,19.51444 43.9151,0 79.68122,-9.61392 110.43978,-19.51444 5.5475,-1.78564 10.07911,-4.44044 12.31288,-8.11927 0.9196,-4.13039 0.78557,-8.63016 -0.13134,-13.92709 0.7751,10.10885 -5.61473,14.06427 -13.101,16.20612 -31.25796,8.94298 -57.94114,19.34727 -109.52032,19.46745 C 76.554284,140.6504 49.871098,130.24611 18.613141,121.30313 11.126868,119.16128 4.6346524,114.8987 5.4097638,104.78985 Z"
     sodipodi:nodetypes="cccssccscsc" /><path
     style="fill:#ff5555;stroke:#000000;stroke-width:0.5;stroke-linecap:round;stroke-linejoin:round;stop-color:#000000;stroke-dasharray:none"
     d="m 100.87301,139.29904 c 0.89163,-0.91955 4.00731,-1.45046 6.31151,-1.02144 -0.79789,5.17573 2.00494,7.83799 3.93719,12.10706 -1.26763,1.14567 -4.10401,2.1535 -5.71042,2.58364 -2.48961,-4.10137 -4.95232,-9.53432 -4.53828,-13.66926 z"
     id="path19439"
     sodipodi:nodetypes="ccccc" /><path
     style="fill:#ff5555;stroke:#000000;stroke-width:0.5;stroke-linecap:round;stroke-linejoin:round;stop-color:#000000;stroke-dasharray:none"
     d="m 84.132467,149.72372 c -0.258071,-4.49294 -2.23366,-8.07024 -0.360659,-13.69929 -1.061937,-0.44657 -4.047383,-1.0896 -6.071073,-0.42059 -1.291381,4.42003 0.104015,8.30293 0.240437,12.43752 1.666604,0.69403 4.018246,1.37646 6.191295,1.68236 z"
     id="path19441"
     sodipodi:nodetypes="ccccc" /><path
     style="fill:#ff5555;stroke:#000000;stroke-width:0.5;stroke-linecap:round;stroke-linejoin:round;stop-color:#000000;stroke-dasharray:none"
     d="m 155.39392,139.29904 c -0.89163,-0.91955 -4.00731,-1.45046 -6.3115,-1.02144 0.79788,5.17573 -2.00493,7.83799 -3.93718,12.10706 1.26762,1.14567 4.104,2.1535 5.7104,2.58364 2.48961,-4.10137 4.95233,-9.53432 4.53828,-13.66926 z"
     id="path19439-8"
     sodipodi:nodetypes="ccccc" /><path
     style="fill:#ff5555;stroke:#000000;stroke-width:0.5;stroke-linecap:round;stroke-linejoin:round;stop-color:#000000;stroke-dasharray:none"
     d="m 172.13447,149.72372 c 0.25807,-4.49294 2.23366,-8.07024 0.36066,-13.69929 1.06194,-0.44657 4.04739,-1.0896 6.07108,-0.42059 1.29137,4.42003 -0.10402,8.30293 -0.24045,12.43752 -1.6666,0.69403 -4.01824,1.37646 -6.19129,1.68236 z"
     id="path19441-2"
     sodipodi:nodetypes="ccccc" /><path
     style="fill:none;fill-opacity:1;stroke:#ffe680;stroke-width:1;stroke-linecap:round;stroke-linejoin:round;stroke-dasharray:none;stroke-opacity:1;stop-color:#000000"
     d="m 149.72461,161.38831 c 0.86392,-0.89734 1.48678,-2.41906 1.68843,-4.44915 l 2.4492,0.15909"
     id="path6295"
     sodipodi:nodetypes="ccc" /><path
     style="fill:none;fill-opacity:1;stroke:#ffe680;stroke-width:1;stroke-linecap:round;stroke-linejoin:round;stroke-dasharray:none;stroke-opacity:1;stop-color:#000000"
     d="m 149.85703,157.22361 c 1.12518,-0.45285 2.10814,-1.2231 2.78365,-2.67967"
     id="path6351"
     sodipodi:nodetypes="cc" /><path
     style="fill:none;fill-opacity:1;stroke:#ffe680;stroke-width:1;stroke-linecap:round;stroke-linejoin:round;stroke-dasharray:none;stroke-opacity:1;stop-color:#000000"
     d="m 152.50389,155.34884 2.7959,0.26105 -1.62377,1.46422 3.14058,0.2296"
     id="path6353"
     sodipodi:nodetypes="cccc" /><path
     style="fill:none;fill-opacity:1;stroke:#ffe680;stroke-width:1;stroke-linecap:round;stroke-linejoin:round;stroke-dasharray:none;stroke-opacity:1;stop-color:#000000"
     d="m 154.13971,160.15234 1.15707,0.0723 0.10596,-1.61979 -2.73782,-0.20232 -0.21623,3.08971 3.69721,0.16846 0.55636,-1.01403"
     id="path6355"
     sodipodi:nodetypes="ccccccc" /><path
     style="fill:none;fill-opacity:1;stroke:#ffe680;stroke-width:1;stroke-linecap:round;stroke-linejoin:round;stroke-dasharray:none;stroke-opacity:1;stop-color:#000000"
     d="m 158.21653,162.44111 0.6712,-6.73106 1.51551,0.13917 -0.76397,2.2635 c 0.55158,0.92782 1.00637,2.58049 -0.22516,2.90705"
     id="path6357"
     sodipodi:nodetypes="ccccc" /><path
     style="fill:none;fill-opacity:1;stroke:#ffe680;stroke-width:1;stroke-linecap:round;stroke-linejoin:round;stroke-dasharray:none;stroke-opacity:1;stop-color:#000000"
     d="m 160.81875,157.51311 c 0.87166,-0.32552 1.65158,-0.87969 2.38598,-1.8383 0.60459,0.99512 1.14829,1.85038 2.28873,2.22114"
     id="path6359"
     sodipodi:nodetypes="ccc" /><path
     style="fill:none;fill-opacity:1;stroke:#ffe680;stroke-width:1;stroke-linecap:round;stroke-linejoin:round;stroke-dasharray:none;stroke-opacity:1;stop-color:#000000"
     d="m 161.84236,157.93839 2.33507,0.17504"
     id="path6361" /><path
     style="fill:none;fill-opacity:1;stroke:#ffe680;stroke-width:1;stroke-linecap:round;stroke-linejoin:round;stroke-dasharray:none;stroke-opacity:1;stop-color:#000000"
     d="m 159.9902,162.35184 c 3.35356,-0.95031 2.77808,-1.8036 2.9881,-4.25462 -0.19661,2.46912 -0.8916,3.26295 1.93724,4.61369"
     id="path6363"
     sodipodi:nodetypes="ccc" /><path
     style="fill:none;fill-opacity:1;stroke:#ffe680;stroke-width:1;stroke-linecap:round;stroke-linejoin:round;stroke-dasharray:none;stroke-opacity:1;stop-color:#000000"
     d="m 161.18767,160.27021 0.10979,-1.2358 3.31507,0.28877 -0.11436,1.20302 z"
     id="path6365"
     sodipodi:nodetypes="ccccc" /></svg>
