<?xml version="1.0" encoding="UTF-8"?>
<svg cursor="default" version="1.1" viewBox="0 0 256 256" xml:space="preserve" xmlns="http://www.w3.org/2000/svg" xmlns:xlink="http://www.w3.org/1999/xlink"><g stroke="#000" stroke-width=".5"><g><path d="m125.98 139.22s-23.394-8.8209-38.543-25.696l-23.394-9.5879-14.957-36.434 43.529 15.916 4.2187 23.778s5.9445 10.547 52.925 31.448c0 0-1.7258-0.76703 0 0l-2.8764 5.1775-4.7939-2.1093s-16.491 19.368 11.122 25.312c0 0-31.64 5.7527-50.624-14.957 0 0 25.312-9.5879 23.394-12.848z" fill="#ff7f2a" stop-color="#000000" style="-inkscape-stroke:none;font-variation-settings:normal"/><path d="m66.156 82.072 18.409 6.328 2.1093 10.738-15.724-4.2187z" fill="#ff2a2a" stop-color="#000000" style="-inkscape-stroke:none;font-variation-settings:normal"/><path d="m46.118 14.286s4.4104 5.9445 9.492 12.464c0 0-1.5341 1.5341-8.0538 25.024 0 0-6.8074 28.764 1.2464 50.816 0 0-8.2456 2.7805-7.8621 3.2599 0 0-10.025-33.85 3.2631-74.664 0 0 2.5406-5.8688 1.9144-16.9z" fill="#ff2a2a" stop-color="#000000" style="-inkscape-stroke:none;font-variation-settings:normal"/></g><g fill="#abc837"><path d="m68.203 67.322-1.6271 6.1695 10.983 4.339z" stop-color="#000000" style="-inkscape-stroke:none;font-variation-settings:normal"/><path d="m121.56 124.34s-14.169-5.1525-25.153-17.356l-2.7119-18.644 3.4576 1.2881 1.9661 10.373 18.102 14.847 0.47458 2.1017z" stop-color="#000000" style="-inkscape-stroke:none;font-variation-settings:normal"/><path d="m93.695 119.86s12.407 11.39 32.203 19.661c0 0 0.67796 3.661-19.39 10.712 0 0 1.7627-5.7627 1.1526-7.7288z" stop-color="#000000" style="-inkscape-stroke:none;font-variation-settings:normal"/></g><g><path d="m55.729 26.847s12.746 18.644 21.085 23.119" fill="none" stop-color="#000000" style="-inkscape-stroke:none;font-variation-settings:normal"/><path d="m76.949 50.102c-0.11264 0.16896-6.3785 10.565-8.1564 15.129-0.09574 0.24576-0.22598 0.54652-0.29315 0.75595-0.18699 0.58302-0.18477 0.91967-0.26813 1.1716 0.0678 0.13559-1.7908 6.6044-1.7908 6.6044l-17.492-6.3051 15.051 36.271 23.525 9.8983 6.2373 6.2373 13.831 22.576s0.67797 0.33898-0.74576 7.661c0 0-9.3386-19.611-25.446-28.24 0 0-17.546-11.601-40.749-15.436l0.09588-0.86291 7.7662-3.0681s-5.3692-18.601-2.9722-36.242c0 0 1.0547-13.807 3.5475-20.039 0 0 6.1362-20.806 6.4239-19.368 0 0 14.248 18.373 21.435 23.256z" fill="#ffd42a" stop-color="#000000" style="-inkscape-stroke:none;font-variation-settings:normal"/><path d="m142.57 128.96s6.3759 2.349 5.9445 4.6022l-2.3011 3.0681 3.5475 2.1093-2.8764 5.0816-4.8898-2.2052c-14.957 21.285 10.786 25.264 10.786 25.264-21.717-8.677-5.8007-20.95-5.8007-20.95 2.9722-0.57527 7.1909 0.76704 7.1909 0.76704l7.3827-6.2321 22.915-6.0404 2.2052-1.1506c6.2321-1.2464 5.7527-2.7805 5.7527-2.7805l-6.7115-3.0681 3.4516-5.0816-7.958-0.76703-23.826 6.0883c-7.6944-2.7542-7.8586-2.2527-14.813 1.2944" fill="#abc837" stop-color="#000000" style="-inkscape-stroke:none;font-variation-settings:normal"/></g><g fill="#ffd42a"><path d="m181.02 121.36 13.695-3.8644s13.763 4.1356 20.136 2.3729c0 0-9.2203 4.1356-14.915 11.525l-14.305 4.6102-1.4915-1.5593 2.3051-1.1525s5.6271-1.1526 5.8983-2.6441l-6.7797-3.322 3.5932-5.0169z" stop-color="#000000" style="-inkscape-stroke:none;font-variation-settings:normal"/><path d="m118.31 117.83s21.695 13.424 24.203 11.051c0 0 6.3051 2.5763 6.1695 4.6102l-2.5763 3.3898s-8.4068-3.3898-19.39-9.2881l-9.2203-5.017 3.5254 1.3559z" stop-color="#000000" style="-inkscape-stroke:none;font-variation-settings:normal"/><path d="m5.561 105.66c53.117 1.3423 71.717 27.997 71.717 27.997-23.203-3.2599-10.738 8.0538-10.738 8.0538 16.299 9.3961 30.489 5.7527 30.489 5.7527l5.3692 4.4104s15.432 19.518 50.55 15.179c0 0 15.593 4.2034 21.695-9.4915l26.983 29.017s-8.4068 5.6949-17.898 7.4576c0 0 9.0848 2.4407 24.136 0.40678l18.983 18.712s-53.017-6.2373-79.186-14.915c0 0-31.729-8.8136-55.458-23.186 0 0-7.1864-2.983-21.559-12.339 0 0-22.915-37.153-41.356-46.237 0 0-17.081-11.327-23.727-10.816z" stop-color="#000000" style="-inkscape-stroke:none;font-variation-settings:normal"/></g><path d="m5.9661 105.76s45.559 37.966 53.559 61.424c0 0 21.424 16.678 59.932 33.22 0 0 54.373 20.61 80.407 22.373 0 0 46.237 8.9492 45.831 10.847l-18.983-20.61s-57.492-7.5932-73.492-13.153c0 0-35.525-8.9492-60.881-24.949 0 0-11.561-5.2096-21.82-12.209 0 0-16.06-25.024-23.73-31.832 0 0-9.3961-10.738-21.669-16.875 0 0-12.996-8.9001-19.154-8.2373z" fill="#ff2a2a" stop-color="#000000" style="-inkscape-stroke:none;font-variation-settings:normal"/><path d="m199.05 188.07 5.9661 6.6441s-10.644 1.6271-21.153-0.61016c0 0 11.322-2.7797 15.186-6.0339z" fill="#abc837" stop-color="#000000" style="-inkscape-stroke:none;font-variation-settings:normal"/></g></svg>
