<?xml version="1.0" encoding="UTF-8" standalone="no"?>
<svg
   xmlns:dc="http://purl.org/dc/elements/1.1/"
   xmlns:cc="http://creativecommons.org/ns#"
   xmlns:rdf="http://www.w3.org/1999/02/22-rdf-syntax-ns#"
   xmlns:svg="http://www.w3.org/2000/svg"
   xmlns="http://www.w3.org/2000/svg"
   xmlns:sodipodi="http://sodipodi.sourceforge.net/DTD/sodipodi-0.dtd"
   xmlns:inkscape="http://www.inkscape.org/namespaces/inkscape"
   cursor="default"
   viewBox="0 0 256 256"
   version="1.1"
   id="svg30"
   sodipodi:docname="primarch_item.svg"
   inkscape:version="1.0.2-2 (e86c870879, 2021-01-15)">
  <metadata
     id="metadata36">
    <rdf:RDF>
      <cc:Work
         rdf:about="">
        <dc:format>image/svg+xml</dc:format>
        <dc:type
           rdf:resource="http://purl.org/dc/dcmitype/StillImage" />
        <dc:title />
      </cc:Work>
    </rdf:RDF>
  </metadata>
  <defs
     id="defs34" />
  <sodipodi:namedview
     pagecolor="#ffffff"
     bordercolor="#666666"
     borderopacity="1"
     objecttolerance="10"
     gridtolerance="10"
     guidetolerance="10"
     inkscape:pageopacity="0"
     inkscape:pageshadow="2"
     inkscape:window-width="1920"
     inkscape:window-height="1017"
     id="namedview32"
     showgrid="false"
     inkscape:zoom="3.5713867"
     inkscape:cx="225.28199"
     inkscape:cy="124.50728"
     inkscape:window-x="-8"
     inkscape:window-y="-8"
     inkscape:window-maximized="1"
     inkscape:current-layer="svg30"
     inkscape:document-rotation="0" />
  <path
     style="fill:#151515;stroke:none;stroke-width:0.372139"
     d="m 99.875807,29.889845 c -14.654038,1.997382 -28.21779,4.106995 -41.273844,12.14354 -8.71463,5.364269 -16.138446,13.000427 -22.554541,21.061239 -5.649771,7.097761 -10.462733,14.899988 -13.67478,23.507541 -7.77301,20.830715 -4.530638,49.831055 6.28274,69.005985 8.663128,15.36219 22.201704,28.04565 35.790658,38.62555 11.048611,8.60263 23.434413,16.1182 36.89081,19.80813 12.2974,3.37184 25.79434,3.45902 38.35182,1.74487 16.03506,-2.18848 30.83996,-6.89376 45.29166,-14.39458 14.38558,-7.46667 28.95124,-16.147 37.82731,-30.61779 7.7971,-12.7119 8.45931,-27.49852 7.49686,-42.08609 -1.20022,-18.1937 -4.0883,-35.638186 -15.24977,-50.427462 C 204.06419,63.698239 187.61528,50.435436 171.10062,43.382795 159.9691,38.628962 147.43938,36.115931 135.67085,33.672286 124.33112,31.317359 111.47559,28.309154 99.875807,29.889845 m 81.451963,20.313549 c -2.11483,6.865337 -4.13104,12.713027 -8.36252,18.578538 -12.21451,16.931876 -33.83652,23.128386 -53.36565,23.128386 -11.14833,0 -25.307818,-2.673035 -32.702049,-12.132922 -9.279661,-11.871309 -4.96089,-29.065938 3.410408,-39.811157 2.095818,-2.690475 5.226805,-7.291507 8.472082,-8.493426 3.833369,-1.419552 10.250179,-0.307115 14.244959,0.08759 10.64063,1.051392 20.97993,3.01996 31.41198,5.504935 12.9998,3.09655 25.06346,6.678416 36.89079,13.138061 M 95.858015,31.624855 C 90.8708,38.981197 83.800916,44.40158 81.699236,53.615779 c -0.874038,3.831727 -1.409511,7.811705 -1.149075,11.753769 1.128995,17.099838 15.493395,25.041976 30.283309,27.249408 21.57638,3.220154 48.05593,-3.668692 62.09197,-21.941254 4.29138,-5.586833 8.5572,-12.399849 9.13284,-19.716003 5.70858,2.480426 10.63807,7.271036 15.34073,11.344287 12.50671,10.832425 25.97878,24.843677 28.48992,42.495564 -6.38138,-4.76483 -9.88162,-11.168356 -18.26277,-12.792273 -5.19247,-1.006273 -9.89441,-0.160013 -14.61022,2.269995 -4.00868,2.065252 -7.86613,4.363681 -10.89411,7.868578 -11.568,13.38868 -6.26412,33.64005 1.61809,47.39385 3.78185,6.59918 9.0061,16.39233 17.31164,17.0278 11.20202,0.85688 19.14048,-8.33836 27.39416,-14.37373 -1.45664,5.8424 -2.99985,11.44173 -6.00955,16.68278 -7.55275,13.1521 -20.03682,21.36645 -32.70752,28.35313 -23.48703,12.95074 -46.92913,18.47124 -73.41635,17.90365 v -0.37918 c 16.32949,-9.40148 29.92209,-26.22718 29.92209,-46.63591 0,-17.51464 -14.56564,-28.07255 -28.46105,-34.44992 -6.96798,-3.19816 -14.55325,-5.71953 -22.280599,-4.91724 -12.434755,1.29026 -24.796807,12.78507 -33.238233,21.54694 -7.23351,7.50838 -11.446375,17.30608 -13.514442,27.67822 -3.897285,-1.88668 -7.225127,-6.85852 -9.95175,-10.23715 C 30.174114,157.06829 24.778944,146.12591 22.149462,132.47978 19.603257,119.26779 18.293104,105.83816 21.766683,92.668626 30.222328,60.60927 63.217686,31.628268 95.858015,31.624855 M 202.51258,92.810809 c 9.11678,-0.472046 21.10263,7.081077 24.31725,16.161431 2.54144,7.17928 2.26129,16.71728 2.34786,24.26585 0.0556,4.84142 1.48111,12.17728 -0.74074,16.68276 -1.1016,2.23397 -3.62954,4.26019 -5.47007,5.8333 -5.34879,4.57146 -12.9903,9.2574 -20.08904,9.67675 -9.38524,0.55432 -15.80789,-11.49026 -19.44766,-18.92242 -6.44932,-13.16953 -11.19471,-32.24401 0.12199,-44.34622 2.47569,-2.647252 5.58292,-4.543779 8.73325,-6.174899 3.27159,-1.69368 6.5377,-2.985458 10.22716,-3.176552 M 114.48604,215.13533 c -11.59723,-2.23511 -21.912776,-5.03782 -32.507739,-10.71415 -6.861333,-3.67627 -13.279592,-8.41721 -19.358547,-13.33332 -3.230675,-2.61313 -6.51833,-5.27364 -9.496623,-8.19428 -0.97852,-0.95961 -2.595871,-2.06677 -3.052449,-3.43246 -1.142528,-3.41656 2.525386,-10.81157 3.786969,-13.99496 4.446975,-11.22068 12.913605,-18.85228 22.276572,-25.78245 4.013052,-2.97029 8.145926,-6.0949 12.783921,-7.93759 13.768306,-5.47081 29.832236,2.34469 41.273876,10.21402 8.86475,6.0968 14.62738,15.3618 14.6102,26.53926 -0.011,7.78593 -2.80077,15.86 -6.11911,22.74924 -3.16531,6.57148 -7.5177,11.60816 -13.2394,15.92028 -3.38921,2.55436 -8.26392,4.68029 -10.95767,7.96641 z"
     id="path21" />
  <path
     style="fill:#000000"
     d="m 214.81502,95.271116 c 3.90025,2.934857 7.08836,6.073184 10.36012,9.187604 l -0.245,0.36751 -10.41263,-9.170109 z"
     id="path23"
     sodipodi:nodetypes="ccccc" />
  <path
     style="fill:#ffccaa;stroke-width:0.197992"
     d="m 116.26101,215.06535 c -0.0661,-0.10693 0.69222,-0.70833 1.68512,-1.33645 4.94759,-3.12989 8.47073,-5.93506 12.37012,-9.84927 7.60986,-7.63878 12.49884,-16.15852 14.71581,-25.64441 1.23948,-5.3034 1.42491,-11.92833 0.45779,-16.35505 -0.57352,-2.6251 -1.09393,-4.06257 -2.50126,-6.90903 -4.29093,-8.67879 -13.4252,-16.11277 -27.10672,-22.06096 -8.2634,-3.5926 -15.69575,-4.90197 -21.911797,-3.86024 -3.641893,0.61034 -8.740988,2.66041 -12.615819,5.07213 -7.297468,4.54201 -17.978014,14.20712 -22.656469,20.50245 -4.265705,5.73992 -7.346872,12.59794 -9.289393,20.67618 l -0.650024,2.70322 -0.601431,-0.30917 c -2.093733,-1.07628 -3.993583,-3.03902 -8.551942,-8.83503 -3.921406,-4.98612 -5.485883,-7.17359 -7.615474,-10.64809 -5.98633,-9.76689 -9.170343,-19.31297 -11.250783,-33.73129 -1.05192,-7.29025 -1.400911,-16.4264 -0.828159,-21.68015 0.771636,-7.078079 2.471364,-13.606694 5.20262,-19.983132 11.038256,-25.770109 36.11716,-46.345606 61.54597,-50.49419 2.590724,-0.422664 8.847925,-0.927399 9.04566,-0.729665 0.181927,0.181929 -1.015371,1.861818 -3.350491,4.700958 -5.945414,7.228688 -7.126837,8.888978 -8.797593,12.363525 -1.905013,3.961716 -2.919225,9.054222 -2.916275,14.643055 0.002,3.678785 0.292187,5.795761 1.184513,8.639527 4.204638,13.39986 18.946287,21.35221 39.581617,21.35221 13.47662,0 27.02479,-3.682592 37.51953,-10.198356 4.76104,-2.95594 10.04215,-7.595302 13.40344,-11.774696 5.03451,-6.259847 8.60149,-13.230822 9.37124,-18.31428 0.33697,-2.225417 0.28258,-2.117875 0.92821,-1.835208 1.1372,0.497881 3.9188,2.165399 5.45053,3.267491 5.71577,4.112546 18.86682,16.274969 23.55303,21.782441 6.19703,7.283069 10.20201,14.033906 12.5388,21.135533 0.85847,2.608977 1.76498,6.539807 1.64355,7.126807 -0.0824,0.39806 -0.94023,-0.31749 -5.62843,-4.694637 -3.47773,-3.246993 -5.89311,-5.131691 -7.80247,-6.088213 -4.71393,-2.361507 -11.15526,-2.632677 -16.35418,-0.688487 -3.39484,1.269538 -8.7592,4.450626 -11.45725,6.7942 -4.1893,3.638907 -7.13729,8.823157 -8.43597,14.835247 -0.59376,2.74879 -0.73963,8.72825 -0.29559,12.11693 1.09079,8.32424 4.10545,16.35577 9.63258,25.66269 4.27337,7.19577 7.22731,10.62143 10.88828,12.62706 3.43101,1.87965 7.99491,1.98669 12.77925,0.29972 3.95333,-1.39395 6.82056,-3.24115 13.93446,-8.97719 4.73393,-3.81704 5.15065,-4.13444 5.27067,-4.01441 0.14463,0.14463 -1.18211,5.09503 -2.11721,7.89976 -4.65513,13.96269 -14.68992,24.60327 -33.14928,35.15048 -21.91169,12.51977 -41.7341,18.43814 -65.83242,19.65558 -5.02619,0.25391 -10.83071,0.25625 -10.98636,0.004 z"
     id="path25" />
  <path
     style="fill:#ffaaaa;stroke-width:0.280003"
     d="m 112.02066,214.75901 c -19.099396,-4.0829 -29.895544,-8.84716 -44.100517,-19.46124 -7.483109,-5.59144 -17.185707,-14.05459 -17.792562,-15.51967 -0.536033,-1.2941 -0.166333,-4.49172 0.850349,-7.35487 1.417392,-3.99161 4.371366,-10.61092 5.860124,-13.13144 3.886204,-6.57948 9.668901,-12.48844 19.202185,-19.62146 10.959182,-8.1999 15.416765,-9.95691 24.428371,-9.62872 4.66594,0.16992 7.53074,0.78649 12.81206,2.75744 7.00131,2.61284 16.88213,8.49027 21.36839,12.71063 6.72177,6.32336 10.13198,14.01937 10.13198,22.86541 0,5.26308 -0.9343,10.04805 -3.12377,15.99816 -4.51213,12.26221 -9.89248,18.99276 -20.63163,25.80916 -1.90035,1.20619 -4.12304,2.80347 -4.93932,3.5495 -1.56823,1.43328 -1.84204,1.50245 -4.06566,1.0271 z"
     id="path27" />
  <path
     style="fill:#ffaaaa;stroke-width:0.280003"
     d="M 111.04065,91.452235 C 93.054613,89.030848 82.877292,80.158446 81.644114,65.82487 c -0.508568,-5.911227 1.636293,-14.435181 5.223807,-20.760076 1.799452,-3.172489 5.909734,-8.664658 8.194237,-10.949161 3.83933,-3.83933 6.010572,-4.074106 21.073242,-2.278644 10.48106,1.249336 20.034,3.073715 32.28569,6.165782 12.74364,3.216226 20.89502,6.086498 29.45015,10.370013 l 3.54985,1.777396 -0.70791,2.31814 c -0.87392,2.861739 -2.95656,8.189577 -4.08029,10.438236 -7.83063,15.66965 -25.21143,26.126456 -47.44994,28.547306 -4.84665,0.527599 -14.21745,0.526759 -18.1423,-0.0017 z"
     id="path29" />
  <path
     style="fill:#ffaaaa;stroke-width:0.280003"
     d="m 198.82168,164.90128 c -3.34998,-1.19789 -5.85749,-3.2495 -8.91341,-7.29282 -4.64605,-6.14722 -9.27343,-15.93124 -11.52327,-24.36448 -2.18986,-8.20843 -2.25809,-16.12264 -0.19125,-22.18223 2.32286,-6.81018 6.54005,-11.289797 14.39179,-15.287359 5.89178,-2.999691 10.4762,-3.699407 15.58035,-2.378017 4.69073,1.21436 6.6991,2.399125 11.79603,6.958646 2.46403,2.20422 4.89233,4.63417 5.39622,5.39987 1.13129,1.71911 2.4436,5.7236 3.00232,9.16158 0.57414,3.53288 0.97587,12.51326 1.05531,23.59097 l 0.0663,9.24011 -0.76426,1.63128 c -0.94694,2.02124 -3.54032,4.74964 -7.32505,7.70643 -6.64928,5.1947 -12.84458,8.00288 -18.371,8.32716 -2.01256,0.1181 -2.66104,0.0392 -4.20005,-0.51114 z"
     id="path31" />
</svg>
