<?xml version="1.0" encoding="UTF-8" standalone="no"?>
<svg
   xmlns:dc="http://purl.org/dc/elements/1.1/"
   xmlns:cc="http://creativecommons.org/ns#"
   xmlns:rdf="http://www.w3.org/1999/02/22-rdf-syntax-ns#"
   xmlns:svg="http://www.w3.org/2000/svg"
   xmlns="http://www.w3.org/2000/svg"
   xmlns:xlink="http://www.w3.org/1999/xlink"
   xmlns:sodipodi="http://sodipodi.sourceforge.net/DTD/sodipodi-0.dtd"
   xmlns:inkscape="http://www.inkscape.org/namespaces/inkscape"
   viewBox="0 0 256 256"
   version="1.1"
   id="svg134"
   sodipodi:docname="fusion.svg"
   inkscape:version="1.0.2-2 (e86c870879, 2021-01-15)">
  <metadata
     id="metadata138">
    <rdf:RDF>
      <cc:Work
         rdf:about="">
        <dc:format>image/svg+xml</dc:format>
        <dc:type
           rdf:resource="http://purl.org/dc/dcmitype/StillImage" />
      </cc:Work>
    </rdf:RDF>
  </metadata>
  <sodipodi:namedview
     pagecolor="#ffffff"
     bordercolor="#666666"
     borderopacity="1"
     objecttolerance="10"
     gridtolerance="10"
     guidetolerance="10"
     inkscape:pageopacity="0"
     inkscape:pageshadow="2"
     inkscape:window-width="1920"
     inkscape:window-height="1017"
     id="namedview136"
     showgrid="false"
     inkscape:zoom="2.7691031"
     inkscape:cx="67.638393"
     inkscape:cy="103.93054"
     inkscape:window-x="-8"
     inkscape:window-y="-8"
     inkscape:window-maximized="1"
     inkscape:current-layer="svg134"
     inkscape:document-rotation="0" />
  <defs
     id="defs108">
    <linearGradient
       id="innoGrad5">
      <stop
         offset="0"
         stop-color="#ff2a2a"
         id="stop75" />
      <stop
         offset="1"
         stop-color="#f55"
         id="stop77" />
    </linearGradient>
    <linearGradient
       id="innoGrad4">
      <stop
         offset="0"
         stop-color="#fff"
         stop-opacity=".25"
         id="stop80" />
      <stop
         offset="1"
         stop-color="#fff"
         stop-opacity=".502"
         id="stop82" />
    </linearGradient>
    <linearGradient
       id="innoGrad3">
      <stop
         offset="0"
         stop-color="#fff"
         stop-opacity=".502"
         id="stop85" />
      <stop
         offset="1"
         stop-color="#fff"
         stop-opacity=".749"
         id="stop87" />
    </linearGradient>
    <linearGradient
       id="innoGrad2">
      <stop
         offset="0"
         stop-color="#faa"
         id="stop90" />
      <stop
         offset="1"
         stop-color="#ffd5d5"
         id="stop92" />
    </linearGradient>
    <linearGradient
       id="innoGrad1">
      <stop
         offset="0"
         stop-color="#f55"
         id="stop95" />
      <stop
         offset="1"
         stop-color="#ff8080"
         id="stop97" />
    </linearGradient>
    <linearGradient
       id="linearGradient840"
       x1="64.674"
       x2="199.286"
       y1="185.682"
       y2="46.416"
       gradientUnits="userSpaceOnUse"
       xlink:href="#innoGrad1" />
    <linearGradient
       id="linearGradient848"
       x1="49.223"
       x2="220.879"
       y1="199.516"
       y2="25.414"
       gradientUnits="userSpaceOnUse"
       xlink:href="#innoGrad2" />
    <linearGradient
       id="linearGradient856"
       x1="76.543"
       x2="215.999"
       y1="218.695"
       y2="82.163"
       gradientUnits="userSpaceOnUse"
       xlink:href="#innoGrad3" />
    <linearGradient
       id="linearGradient864"
       x1="34.947"
       x2="178.061"
       y1="170.207"
       y2="28.926"
       gradientUnits="userSpaceOnUse"
       xlink:href="#innoGrad3" />
    <linearGradient
       id="linearGradient872"
       x1="101.756"
       x2="201.304"
       y1="207.557"
       y2="115.113"
       gradientUnits="userSpaceOnUse"
       xlink:href="#innoGrad4" />
    <linearGradient
       id="linearGradient886"
       x1="53.292"
       x2="150.38"
       y1="149.616"
       y2="43.854"
       gradientUnits="userSpaceOnUse"
       xlink:href="#innoGrad4" />
    <linearGradient
       id="linearGradient894"
       x1="36.957"
       x2="10.898"
       y1="74.85"
       y2="101.369"
       gradientUnits="userSpaceOnUse"
       xlink:href="#innoGrad3" />
    <linearGradient
       id="linearGradient902"
       x1="9.196"
       x2="41.5"
       y1="104.197"
       y2="71.996"
       gradientUnits="userSpaceOnUse"
       xlink:href="#innoGrad5" />
  </defs>
  <path
     style="fill:#000000;stroke-width:0.319328"
     d=""
     id="path174" />
  <path
     style="fill:#000000;stroke-width:0.319328"
     d=""
     id="path190" />
  <path
     style="fill:#000000;stroke-width:0.319328"
     d=""
     id="path204" />
  <path
     style="fill:#000000;stroke-width:0.319328"
     d=""
     id="path212" />
  <path
     style="fill:#000000;stroke-width:0.319328"
     d=""
     id="path242" />
  <path
     style="fill:#000000;stroke-width:0.319328"
     d=""
     id="path244" />
  <path
     style="fill:#000000;stroke-width:0.0399161"
     d=""
     id="path296" />
  <path
     style="fill:#ffd42a;stroke-width:0.361128"
     d="m 86.636958,248.631 c -0.29793,-0.24196 -1.524078,-1.57748 -2.724774,-2.96782 -1.200692,-1.39034 -4.952636,-5.69679 -8.337649,-9.56989 -7.364901,-8.42683 -9.915427,-11.57256 -9.685093,-11.94525 0.09433,-0.15264 0.697801,-0.39085 1.341041,-0.52936 1.643663,-0.35394 3.028129,-1.1171 3.296819,-1.81729 0.126716,-0.33022 -0.09429,-1.11824 -0.495861,-1.76799 -0.398461,-0.64472 -5.172293,-5.54226 -10.608513,-10.8834 -9.865141,-9.69261 -11.656776,-11.68085 -10.787023,-11.97077 1.119338,-0.37311 0.295827,-1.87517 -2.986947,-5.44809 -4.406441,-4.7959 -4.588961,-5.88146 -0.611454,-3.63669 2.049646,1.15675 2.578644,1.05827 2.592127,-0.48256 0.0082,-0.93953 1.078578,-0.75632 2.685663,0.45969 0.778903,0.58936 1.490831,0.99692 1.582062,0.90569 0.09123,-0.0912 -1.455527,-2.64993 -3.43724,-5.68599 -5.540694,-8.48857 -10.575405,-17.22658 -10.575405,-18.35419 0,-0.23763 0.302838,-0.29965 0.757906,-0.15521 0.663454,0.21057 0.725115,0.13484 0.494782,-0.60764 -0.144718,-0.46651 -2.029597,-4.02752 -4.18862,-7.91337 -2.159022,-3.88585 -3.925495,-7.33913 -3.925495,-7.67396 0,-1.02877 0.946033,-0.67787 2.009732,0.74544 1.682984,2.25196 5.265687,6.22945 5.611141,6.22945 0.178166,0 0.323937,-0.48752 0.323937,-1.08338 0,-0.59586 0.149864,-1.08338 0.33303,-1.08338 0.183167,0 0.992972,0.77191 1.799567,1.71535 1.362212,1.59334 1.522516,1.68043 2.253477,1.22429 0.740899,-0.46235 0.947255,-0.31482 3.527068,2.52152 1.50707,1.65693 3.759537,4.06196 5.005482,5.34451 2.249086,2.31517 2.269333,2.32624 2.819217,1.54117 0.685415,-0.97857 1.069319,-0.9927 1.860647,-0.0685 0.720509,0.84149 1.541283,0.95017 1.541283,0.20407 0,-0.93996 -0.736169,-2.50554 -2.909513,-6.18754 -1.180452,-1.99988 -2.146275,-3.74684 -2.146275,-3.88213 0,-0.72124 1.098485,0.10089 4.496548,3.3653 2.06752,1.9862 3.97357,3.60879 4.235668,3.60575 1.842279,-0.0214 1.760414,-1.98512 -0.218647,-5.24476 -0.718886,-1.18406 -1.557736,-3.04662 -1.864111,-4.13903 -0.306375,-1.09241 -2.034606,-4.95354 -3.840513,-8.58028 -1.805907,-3.62674 -3.186491,-6.69105 -3.067964,-6.80957 0.118527,-0.11853 1.705026,1.26271 3.525553,3.06942 2.418695,2.40035 3.686135,3.38621 4.706651,3.661 0.947278,0.25508 1.712656,0.80813 2.378972,1.71901 1.75248,2.39571 2.767133,3.32914 3.618825,3.32914 1.372397,0 1.048816,-1.17381 -2.190124,-7.94481 -3.763109,-7.86678 -4.518255,-10.10081 -3.841623,-11.36511 0.598132,-1.11761 0.430483,-1.72979 -2.738126,-9.99828 -1.436315,-3.74807 -2.44678,-7.01364 -2.680794,-8.66365 -0.352059,-2.48234 -1.991715,-7.58433 -7.081477,-22.034879 -1.165836,-3.309974 -1.98268,-6.153855 -1.815209,-6.319736 0.407849,-0.403982 2.011895,1.528308 6.644618,8.004332 2.13129,2.979304 4.419398,6.020888 5.084684,6.75908 1.171533,1.299912 1.237405,1.323949 2.092579,0.763619 0.485633,-0.3182 0.943701,-0.515903 1.017928,-0.439344 0.07423,0.07656 1.057347,1.42683 2.184708,3.000598 2.825115,3.94379 9.334959,12.10414 9.66529,12.11582 0.574529,0.0203 0.172374,-1.35793 -2.79874,-9.59173 -1.688272,-4.678685 -3.069586,-8.657591 -3.069586,-8.842015 0,-0.184421 0.325015,-0.335314 0.722256,-0.335314 0.512039,0 0.722255,-0.240753 0.722255,-0.827163 0,-0.454942 -1.218806,-5.250715 -2.708458,-10.657278 -1.489652,-5.406559 -2.708458,-9.990816 -2.708458,-10.187233 0,-0.690928 1.509575,-0.366884 1.701002,0.365136 0.242535,0.927456 0.826892,0.938802 0.826892,0.01606 0,-0.388408 -0.978813,-4.567837 -2.175141,-9.287621 -1.196327,-4.719781 -2.095219,-8.789698 -1.997536,-9.044254 0.09768,-0.254555 0.588973,-0.462828 1.091757,-0.462828 1.182254,0 1.16813,-0.396385 -0.162087,-4.549047 -1.254001,-3.914733 -1.701935,-6.284786 -1.187809,-6.284786 0.195884,0 0.968424,0.934418 1.716754,2.076485 1.752646,2.674805 2.69985,3.701559 3.414773,3.701559 0.798392,0 2.646405,2.946164 5.132243,8.181992 2.981395,6.27959 4.058465,7.934443 5.329649,8.188681 1.176295,0.23526 2.211005,1.777127 5.493422,8.186015 1.62735,3.177379 1.960559,3.631053 2.056239,2.799621 0.08077,-0.701859 0.372309,-1.057007 0.996244,-1.213602 0.57112,-0.143343 0.955237,-0.55739 1.089645,-1.174547 0.362272,-1.663455 0.470033,-1.848031 0.967494,-1.657139 0.267548,0.102668 1.024819,1.074972 1.682826,2.160678 0.658004,1.085705 1.362614,1.974011 1.565799,1.974011 0.5541,0 0.107541,-4.032237 -1.179822,-10.653269 -1.069476,-5.50042 -1.22133,-7.179902 -1.118344,-12.368626 0.04918,-2.477881 0.367173,-2.749359 1.725602,-1.473181 0.458914,0.431129 0.940792,0.677462 1.070845,0.547412 0.130049,-0.130053 -0.35683,-2.488614 -1.081961,-5.241249 -0.72513,-2.752631 -1.318416,-5.391439 -1.318416,-5.864012 0,-0.858032 0.0011,-0.858226 0.719262,-0.139963 0.395594,0.395592 1.502039,2.493308 2.458767,4.661587 1.683311,3.814968 2.600015,5.040809 2.600015,3.476812 0,-1.906621 1.603736,0.256249 3.284262,4.429308 0.467802,1.161636 1.409984,2.705244 2.093742,3.43024 0.68376,0.724993 1.80386,2.49877 2.48912,3.941728 1.02542,2.159258 1.87033,3.460647 1.8866,2.905901 0.002,-0.06138 0.16389,-3.199238 0.3602,-6.973023 0.42174,-8.107311 0.92638,-12.235662 1.67746,-13.722855 0.38741,-0.767104 0.63763,-3.033766 0.85711,-7.764247 0.35871,-7.731392 0.27563,-6.861427 0.65527,-6.861427 0.47605,0 1.02831,1.457788 2.41035,6.362586 1.44191,5.117263 2.10897,6.638013 2.91167,6.638013 0.30296,0 0.78849,0.568776 1.07895,1.263947 0.29046,0.695171 0.6749,1.263948 0.85431,1.263948 0.1794,0 0.64971,-1.421941 1.04512,-3.159868 0.39542,-1.737928 1.15285,-5.070084 1.68319,-7.404792 0.53033,-2.334708 1.42478,-5.107944 1.98765,-6.162748 1.21186,-2.270971 2.46105,-6.264429 3.97408,-12.704505 1.24201,-5.286461 2.08304,-8.0774452 2.64851,-8.7890956 0.71134,-0.8952382 0.8485,-0.044682 2.74709,17.0354946 0.23061,2.074636 0.50553,3.007444 1.03054,3.496562 0.93441,0.870535 1.29842,3.15041 2.24767,14.077674 0.42272,4.866196 0.85614,9.091391 0.96314,9.389322 0.10701,0.29793 0.65483,-1.441922 1.21739,-3.866339 1.1732,-5.056042 1.53076,-5.884111 2.54078,-5.884111 1.01608,0 1.47354,-1.256243 3.98518,-10.94372 2.29147,-8.838253 2.68137,-9.948764 3.2821,-9.348034 0.52925,0.529254 0.96388,5.487657 0.95771,10.925821 -0.003,2.570668 0.16494,5.20149 0.37302,5.846272 0.20808,0.644782 0.54997,5.641287 0.75975,11.103344 0.4139,10.776489 0.69807,14.80917 1.04298,14.80098 0.12177,-0.0029 1.03394,-1.5665 2.02704,-3.474692 0.9931,-1.908188 2.34769,-4.059047 3.01019,-4.779685 0.66251,-0.720637 1.59967,-2.082161 2.08257,-3.025607 0.78156,-1.526913 1.01005,-1.715357 2.07991,-1.715357 1.35406,0 1.95008,-0.542082 3.09124,-2.811495 0.97036,-1.929733 1.64137,-1.672553 1.33384,0.511227 -0.7189,5.104855 -0.72531,4.811077 0.12467,5.715832 0.78918,0.840045 0.79379,0.897143 0.22924,2.839129 -0.68992,2.373241 -0.72735,3.624556 -0.13671,4.570324 0.35221,0.563963 0.30591,1.441149 -0.23323,4.418915 -0.36996,2.043402 -0.74735,4.790981 -0.83864,6.105731 -0.15203,2.189402 -0.0953,2.439985 0.67471,2.979304 0.46238,0.323867 1.15738,0.588848 1.54445,0.588848 0.38706,0 0.97348,0.244104 1.30315,0.542457 0.54275,0.491177 0.6823,0.414362 1.47626,-0.812537 1.05348,-1.627946 1.98453,-1.806636 1.88562,-0.361894 -0.15629,2.282938 0.95225,0.85635 4.2361,-5.451479 1.06976,-2.054868 2.35715,-4.04267 2.86086,-4.41734 1.89235,-1.407568 2.94872,-2.78002 5.66548,-7.360669 4.42932,-7.468151 4.50095,-7.572979 4.82089,-7.055309 0.51228,0.828878 1.42295,0.06684 2.30582,-1.92947 0.47467,-1.073337 1.0437,-2.063166 1.2645,-2.199626 0.5903,-0.364832 0.50866,2.120145 -0.15314,4.660972 -0.6542,2.511665 -0.51648,3.078357 0.74815,3.078357 0.72818,0 0.89428,0.141617 0.74125,0.631974 -0.71874,2.302901 -4.58662,18.767192 -4.74305,20.189569 -0.16513,1.50153 -0.12649,1.654005 0.27315,1.077848 1.2411,-1.78928 1.82462,-2.398492 2.29734,-2.398492 0.68278,0 0.69138,-0.05098 -0.75576,4.482592 -2.27085,7.114094 -3.89056,14.199165 -3.66955,16.051645 0.156,1.307611 -0.0796,2.546633 -1.07397,5.647525 -1.69248,5.277995 -3.73568,12.760835 -3.73568,13.681235 0,0.69927 0.0328,0.70528 0.62383,0.11424 0.34311,-0.34311 3.22762,-4.0645 6.41002,-8.26975 3.1824,-4.20525 5.99705,-7.713144 6.25478,-7.795311 0.36444,-0.116186 0.4127,0.272041 0.21709,1.746608 -0.16604,1.251623 -0.1269,1.818983 0.11515,1.669393 0.20166,-0.12464 1.96277,-2.546164 3.91358,-5.381172 5.61642,-8.162087 9.24784,-13.240337 9.78955,-13.689916 1.53497,-1.273911 0.66827,1.397261 -4.24252,13.075436 -4.41428,10.497442 -6.46961,15.887022 -6.46961,16.964932 0,0.75006 0.52958,0.94713 0.90646,0.33732 0.12476,-0.20186 0.36817,-0.27967 0.54092,-0.1729 0.43066,0.26616 -0.5699,3.01586 -3.35021,9.20699 -2.67348,5.95322 -3.51592,8.49464 -3.25987,9.83411 0.24007,1.25582 -0.55094,3.84003 -3.53924,11.56254 -1.38575,3.58114 -2.46418,6.67726 -2.39651,6.88027 0.0677,0.203 0.84554,-0.48908 1.72862,-1.53797 1.7344,-2.06007 3.95552,-3.7469 5.39743,-4.09908 0.49655,-0.12128 2.25458,-1.36489 3.90673,-2.76359 3.06768,-2.59707 4.40332,-3.51089 4.39393,-3.00626 -0.007,0.35715 -1.63882,3.60037 -4.97429,9.88421 -2.65057,4.99353 -3.02699,6.10839 -2.06243,6.10839 0.87961,0 0.63624,0.66108 -1.04157,2.82924 -2.06507,2.6686 -2.56006,3.64459 -2.08791,4.11674 0.64978,0.64979 1.98455,-0.0138 4.574,-2.27393 2.49672,-2.17922 4.42167,-3.44034 4.75003,-3.11198 0.0928,0.0928 -0.91031,2.32234 -2.22925,4.95441 -3.53069,7.04588 -3.65088,7.61483 -1.14353,5.41335 0.672,-0.59003 1.99566,-1.40448 2.94146,-1.8099 1.90833,-0.81801 4.58191,-2.82492 13.91824,-10.44773 6.2275,-5.08456 9.62638,-7.61501 10.22841,-7.61501 0.67817,0 -3.15088,6.24147 -13.36321,21.78244 -17.16124,26.11573 -18.37777,28.05319 -17.61455,28.05319 0.10783,0 1.04225,-0.62995 2.07648,-1.3999 2.35087,-1.75012 8.56795,-5.48096 10.72806,-6.43784 0.89379,-0.39593 2.3311,-1.31328 3.19403,-2.03855 2.76581,-2.32459 3.38088,-1.58949 1.28013,1.52995 -1.07688,1.59907 -1.26831,2.15542 -1.09952,3.19553 0.19911,1.22697 0.0422,1.42524 -6.09924,7.70535 -3.46698,3.54529 -6.3036,6.61065 -6.3036,6.81191 0,0.214 0.44983,0.27598 1.08339,0.14927 0.60978,-0.12196 1.08338,-0.0631 1.08338,0.13462 0,0.47672 -3.20277,3.47281 -8.88054,8.30744 -6.86657,5.8469 -7.90264,7.17867 -6.26612,8.0545 0.59257,0.31714 1.23812,0.20336 3.18913,-0.5621 1.34539,-0.52784 2.82642,-0.90419 3.29117,-0.83632 0.72208,0.10544 -0.94981,1.95921 -11.49257,12.74278 -11.84976,12.12041 -14.10298,14.21727 -14.80872,13.7811 -0.17709,-0.10945 -0.42054,-0.91797 -0.54099,-1.79671 -0.12044,-0.87873 -0.86189,-3.1989 -1.64766,-5.15593 -0.78577,-1.95702 -1.67399,-4.53327 -1.97381,-5.72499 -0.45589,-1.81206 -2.39958,-14.51333 -2.39958,-15.68035 0,-0.20059 0.4962,-0.92985 1.10267,-1.62058 1.56295,-1.7801 1.77243,-2.88043 1.38902,-7.29598 -0.18482,-2.12848 -0.25148,-4.13636 -0.14815,-4.46195 0.10334,-0.32559 0.91425,-0.94487 1.80202,-1.37618 1.17691,-0.57179 1.67431,-1.05569 1.8363,-1.78646 0.46248,-2.08627 0.93385,-3.3062 1.43973,-3.72604 0.28777,-0.23883 0.52322,-0.67238 0.52322,-0.96345 0,-0.41502 -0.30371,-0.47791 -1.40745,-0.29143 -0.86437,0.14603 -1.49965,0.0886 -1.64639,-0.14882 -0.41512,-0.67169 -1.53325,-0.42365 -3.44362,0.7639 l -1.8508,1.15052 -2.41645,-1.29821 c -2.60958,-1.40195 -4.04153,-3.042 -4.04153,-4.62887 0,-1.05072 0.54066,-1.42974 2.03948,-1.42974 1.05537,0 2.29405,-0.59666 2.29405,-1.10503 0,-0.19655 -0.44689,-0.5192 -0.9931,-0.717 -1.90406,-0.68954 -2.60255,-1.18619 -3.51015,-2.49585 -1.19266,-1.72102 -1.15286,-2.38951 0.16972,-2.85056 1.73663,-0.6054 1.30191,-1.88036 -0.82298,-2.41368 -1.18463,-0.29732 -2.09733,-1.45694 -1.79947,-2.28627 0.11665,-0.32479 0.52172,-1.03741 0.90017,-1.58362 0.80972,-1.16866 0.39251,-1.2908 -0.90985,-0.26636 l -0.9239,0.72673 -0.78332,-2.08096 c -1.17059,-3.10978 -2.16095,-7.23216 -2.16095,-8.99498 0,-1.09071 -0.38142,-2.28109 -1.26395,-3.94463 -0.99574,-1.87694 -1.26394,-2.79761 -1.26394,-4.33872 0,-2.00699 0.13288,-2.24001 2.11257,-3.70468 l 0.84863,-0.62785 -0.7787,-3.59417 c -0.68909,-3.18052 -1.58478,-5.37418 -3.26687,-8.00092 -0.43429,-0.6782 -0.43372,-0.9254 0.004,-1.74332 1.33666,-2.49756 2.62652,-1.67281 4.14864,2.65266 1.98494,5.64068 4.78914,9.32816 8.30121,10.91592 3.29194,1.48825 15.63178,5.02428 17.56267,5.03264 0.64653,0.003 3.4634,-3.96379 3.81789,-5.3762 0.14285,-0.56914 -0.0266,-1.35748 -0.46304,-2.15403 -1.56917,-2.86401 -4.35859,-3.55854 -6.23304,-1.55193 l -1.09136,1.1683 -1.37663,-0.57119 c -2.88815,-1.19835 -5.4151,-2.99178 -8.27848,-5.87538 l -2.96648,-2.98744 -0.13666,-9.2909 c -0.1176,-7.99552 -0.22873,-9.50636 -0.79702,-10.83623 -0.36321,-0.84994 -0.95981,-1.70559 -1.3258,-1.90146 -0.36598,-0.19587 -3.71853,-0.66725 -7.45009,-1.04751 -3.73157,-0.38026 -7.27214,-0.87525 -7.86794,-1.09999 -1.05556,-0.39818 -3.43058,-2.42213 -3.43058,-2.9235 0,-0.22158 1.48505,-0.66445 7.13227,-2.12697 1.79774,-0.46558 1.97615,-1.18259 0.45141,-1.81415 -1.36366,-0.56485 -1.36601,-1.20783 -0.0101,-2.75218 1.32481,-1.50888 2.68131,-5.74629 2.70273,-8.44279 l 0.0158,-1.986198 -1.17366,0.1175 c -1.07551,0.107671 -1.17367,0.03196 -1.17367,-0.905206 0,-1.586084 -0.57468,-3.217688 -1.43708,-4.080094 -0.46579,-0.465786 -0.69552,-1.020074 -0.56441,-1.361758 0.32767,-0.85389 -0.4888,-4.362702 -1.46458,-6.294074 -1.01959,-2.018091 -1.45858,-2.36187 -1.76862,-1.38503 -0.12699,0.400126 -0.37418,0.727499 -0.54931,0.727499 -0.47446,0 -1.88265,-2.01727 -3.46458,-4.963091 -0.77258,-1.438668 -1.50183,-2.616847 -1.62056,-2.618176 -0.11873,-0.0014 -1.17389,1.013256 -2.34481,2.254633 -2.10971,2.236666 -4.02375,3.882123 -4.5158,3.882123 -0.14041,0 -0.60056,-0.585186 -1.02256,-1.300417 -0.67159,-1.138261 -0.84066,-1.239579 -1.35588,-0.812538 -0.32374,0.268336 -1.20498,1.762076 -1.95831,3.319425 -1.19506,2.47054 -1.56504,3.689538 -2.35126,7.746906 -0.26873,1.386784 -1.15829,1.367298 -2.61724,-0.05733 -0.73917,-0.721797 -1.46496,-1.31236 -1.61285,-1.31236 -0.14789,0 -0.15601,2.138201 -0.0181,4.75156 l 0.25085,4.751556 -1.68209,-0.23055 c -1.10449,-0.15139 -1.68207,-0.0969 -1.68207,0.1588 0,0.87976 3.17273,6.40053 4.80659,8.36382 0.9652,1.1598 1.67304,2.32205 1.573,2.58278 -0.10005,0.26072 -1.04603,0.97294 -2.10217,1.5827 -1.23935,0.71553 -1.72993,1.17122 -1.38349,1.2851 0.29523,0.097 2.28984,0.24279 4.43247,0.32389 2.14263,0.0811 4.06824,0.32 4.27913,0.53089 0.65936,0.65936 -0.0432,1.88281 -1.51139,2.6318 -0.9521,0.48573 -3.02352,0.89764 -6.38376,1.26945 -10.10183,1.11777 -10.11896,1.13667 -10.5785,11.67046 -0.18826,4.31535 -0.52927,7.90946 -0.870637,9.17634 -1.308488,4.85596 -3.693625,7.82854 -8.168074,10.17979 l -2.6012,1.36689 -2.121488,-0.64233 c -2.478348,-0.75038 -4.220424,-0.42396 -6.077661,1.1388 -0.905206,0.76168 -1.099659,1.19448 -1.099659,2.44757 0,2.57831 2.612875,5.99721 4.583325,5.99721 0.446235,0 2.969568,-0.72038 5.607408,-1.60084 2.637839,-0.88045 5.394432,-1.70901 6.125766,-1.84122 3.177433,-0.57444 8.48999,-4.01261 10.79888,-6.98881 2.93948,-3.78903 3.3345,-3.79265 4.56679,-0.0418 0.73371,2.23323 0.85403,3.15199 0.68573,5.23635 -0.28302,3.50529 -1.80996,9.33424 -3.11143,11.87766 -0.61156,1.19514 -1.09005,2.69835 -1.09203,3.43071 -0.002,0.71693 -0.42318,2.1973 -0.93609,3.28971 -0.5129,1.09241 -1.07718,3.0425 -1.25395,4.33353 -0.23029,1.68184 -0.84795,3.3803 -2.17865,5.99082 -1.17156,2.29835 -1.8301,4.03158 -1.78372,4.69467 0.19305,2.76048 0.10304,3.181 -0.85777,4.00746 -0.60159,0.51746 -1.43677,0.83554 -2.193878,0.83554 -0.672373,0 -1.329261,0.17275 -1.459747,0.38389 -0.366133,0.59241 0.779487,1.62739 2.308415,2.08547 1.59699,0.47847 2.42282,1.27578 2.77245,2.67671 0.28842,1.15568 0.18807,1.17618 -2.431007,0.49658 -1.052446,-0.27308 -2.644824,-0.61912 -3.538615,-0.76897 l -1.625075,-0.27246 1.952451,1.83356 c 1.870079,1.7562 1.929658,1.86863 1.412151,2.6649 -0.297169,0.45723 -1.663293,1.60956 -3.035839,2.56073 -1.372542,0.95116 -2.549699,1.88558 -2.615905,2.07648 -0.06621,0.1909 0.543194,0.3471 1.354229,0.3471 1.295828,0 1.474604,0.10019 1.474604,0.82646 0,0.45455 -0.298132,1.41123 -0.662514,2.12594 -0.603834,1.18439 -0.62106,1.53501 -0.1945,3.95848 0.257409,1.46245 0.629312,3.20062 0.826456,3.86261 0.56277,1.88972 -0.326048,10.50446 -1.577905,15.29357 -0.625065,2.39124 -3.637679,10.81255 -4.433453,12.39304 -0.597851,1.1874 -1.530998,2.35389 -1.868584,2.33585 -0.118179,-0.006 -0.458635,-0.20946 -0.756566,-0.45141 z"
     id="path39" />
  <path
     style="fill:#ffd42a;stroke-width:0.361128"
     d="m 154.63224,247.24872 c -2.64029,-0.76323 -15.99289,-11.13298 -15.99289,-12.42022 0,-0.0673 0.48753,-0.22941 1.08339,-0.36028 0.59586,-0.13087 1.08338,-0.46412 1.08338,-0.74054 0,-0.27643 -1.2984,-1.57678 -2.88533,-2.88968 -3.4378,-2.84416 -4.68562,-4.38413 -3.82118,-4.71585 0.95124,-0.36502 0.64152,-0.99557 -0.99765,-2.03109 -0.86003,-0.54332 -1.85997,-1.31523 -2.22209,-1.71536 -1.59509,-1.76255 -5.82352,0.096 -10.08897,4.43436 -1.60402,1.63145 -3.6883,3.58314 -4.63175,4.33709 -0.94344,0.75395 -1.71535,1.57086 -1.71535,1.81536 0,0.2445 0.52814,0.64973 1.17366,0.90052 l 1.17367,0.45597 -1.08339,0.89417 c -3.33734,2.7545 -17.192308,12.07508 -17.949497,12.07508 -0.73495,0 -0.125285,-1.23515 1.608468,-3.25869 3.644959,-4.25419 4.232899,-5.19393 5.191159,-8.29739 2.07638,-6.72465 5.98804,-14.24256 9.41704,-18.0988 1.90569,-2.14313 2.04774,-2.51636 2.41662,-6.34946 0.0994,-1.03278 0.58348,-2.73911 1.07575,-3.79185 0.49228,-1.05273 1.00043,-2.7266 1.12922,-3.7197 0.12879,-0.9931 0.53314,-2.53692 0.89855,-3.43071 0.36541,-0.8938 0.77874,-2.27511 0.9185,-3.06959 0.54554,-3.10114 4.54703,-10.29214 5.72714,-10.29214 0.79857,0 3.11371,2.81127 4.11342,4.99493 0.51638,1.12792 1.02093,3.05115 1.14825,4.37687 0.23313,2.42755 0.59317,3.35561 2.04577,5.27331 0.45944,0.60655 1.09874,1.7441 1.42066,2.5279 0.32192,0.78379 1.08174,2.2072 1.68848,3.16315 1.08205,1.70482 1.09426,1.77518 0.63803,3.67696 -0.45732,1.90631 -0.44339,1.98467 0.82935,4.66471 0.71197,1.4992 2.01463,3.50099 2.89479,4.44841 2.05311,2.21001 2.77615,3.67583 5.13822,10.41681 2.30652,6.58242 3.21138,8.4454 5.19378,10.69314 1.74803,1.98202 4.74349,4.2665 5.5943,4.2665 0.79146,0 1.12569,0.95824 0.56844,1.62968 -0.49783,0.59985 -1.08004,0.6284 -2.78194,0.13643 z"
     id="path41" />
</svg>
