<?xml version="1.0" encoding="UTF-8" standalone="no"?>
<svg
   xmlns:dc="http://purl.org/dc/elements/1.1/"
   xmlns:cc="http://creativecommons.org/ns#"
   xmlns:rdf="http://www.w3.org/1999/02/22-rdf-syntax-ns#"
   xmlns:svg="http://www.w3.org/2000/svg"
   xmlns="http://www.w3.org/2000/svg"
   xmlns:xlink="http://www.w3.org/1999/xlink"
   xmlns:sodipodi="http://sodipodi.sourceforge.net/DTD/sodipodi-0.dtd"
   xmlns:inkscape="http://www.inkscape.org/namespaces/inkscape"
   viewBox="0 0 256 256"
   version="1.1"
   id="svg134"
   sodipodi:docname="fusion.svg"
   inkscape:version="1.0.2-2 (e86c870879, 2021-01-15)">
  <metadata
     id="metadata138">
    <rdf:RDF>
      <cc:Work
         rdf:about="">
        <dc:format>image/svg+xml</dc:format>
        <dc:type
           rdf:resource="http://purl.org/dc/dcmitype/StillImage" />
      </cc:Work>
    </rdf:RDF>
  </metadata>
  <sodipodi:namedview
     pagecolor="#ffffff"
     bordercolor="#666666"
     borderopacity="1"
     objecttolerance="10"
     gridtolerance="10"
     guidetolerance="10"
     inkscape:pageopacity="0"
     inkscape:pageshadow="2"
     inkscape:window-width="1920"
     inkscape:window-height="1017"
     id="namedview136"
     showgrid="false"
     inkscape:zoom="1.3479485"
     inkscape:cx="23.324311"
     inkscape:cy="116.35584"
     inkscape:window-x="-8"
     inkscape:window-y="-8"
     inkscape:window-maximized="1"
     inkscape:current-layer="svg134"
     inkscape:document-rotation="0" />
  <defs
     id="defs108">
    <linearGradient
       id="innoGrad5">
      <stop
         offset="0"
         stop-color="#ff2a2a"
         id="stop75" />
      <stop
         offset="1"
         stop-color="#f55"
         id="stop77" />
    </linearGradient>
    <linearGradient
       id="innoGrad4">
      <stop
         offset="0"
         stop-color="#fff"
         stop-opacity=".25"
         id="stop80" />
      <stop
         offset="1"
         stop-color="#fff"
         stop-opacity=".502"
         id="stop82" />
    </linearGradient>
    <linearGradient
       id="innoGrad3">
      <stop
         offset="0"
         stop-color="#fff"
         stop-opacity=".502"
         id="stop85" />
      <stop
         offset="1"
         stop-color="#fff"
         stop-opacity=".749"
         id="stop87" />
    </linearGradient>
    <linearGradient
       id="innoGrad2">
      <stop
         offset="0"
         stop-color="#faa"
         id="stop90" />
      <stop
         offset="1"
         stop-color="#ffd5d5"
         id="stop92" />
    </linearGradient>
    <linearGradient
       id="innoGrad1">
      <stop
         offset="0"
         stop-color="#f55"
         id="stop95" />
      <stop
         offset="1"
         stop-color="#ff8080"
         id="stop97" />
    </linearGradient>
    <linearGradient
       id="linearGradient840"
       x1="64.674"
       x2="199.286"
       y1="185.682"
       y2="46.416"
       gradientUnits="userSpaceOnUse"
       xlink:href="#innoGrad1" />
    <linearGradient
       id="linearGradient848"
       x1="49.223"
       x2="220.879"
       y1="199.516"
       y2="25.414"
       gradientUnits="userSpaceOnUse"
       xlink:href="#innoGrad2" />
    <linearGradient
       id="linearGradient856"
       x1="76.543"
       x2="215.999"
       y1="218.695"
       y2="82.163"
       gradientUnits="userSpaceOnUse"
       xlink:href="#innoGrad3" />
    <linearGradient
       id="linearGradient864"
       x1="34.947"
       x2="178.061"
       y1="170.207"
       y2="28.926"
       gradientUnits="userSpaceOnUse"
       xlink:href="#innoGrad3" />
    <linearGradient
       id="linearGradient872"
       x1="101.756"
       x2="201.304"
       y1="207.557"
       y2="115.113"
       gradientUnits="userSpaceOnUse"
       xlink:href="#innoGrad4" />
    <linearGradient
       id="linearGradient886"
       x1="53.292"
       x2="150.38"
       y1="149.616"
       y2="43.854"
       gradientUnits="userSpaceOnUse"
       xlink:href="#innoGrad4" />
    <linearGradient
       id="linearGradient894"
       x1="36.957"
       x2="10.898"
       y1="74.85"
       y2="101.369"
       gradientUnits="userSpaceOnUse"
       xlink:href="#innoGrad3" />
    <linearGradient
       id="linearGradient902"
       x1="9.196"
       x2="41.5"
       y1="104.197"
       y2="71.996"
       gradientUnits="userSpaceOnUse"
       xlink:href="#innoGrad5" />
  </defs>
  <path
     style="fill:#000000;stroke-width:0.319328"
     d=""
     id="path174" />
  <path
     style="fill:#000000;stroke-width:0.319328"
     d=""
     id="path190" />
  <path
     style="fill:#000000;stroke-width:0.319328"
     d=""
     id="path204" />
  <path
     style="fill:#000000;stroke-width:0.319328"
     d=""
     id="path212" />
  <path
     style="fill:#000000;stroke-width:0.319328"
     d=""
     id="path242" />
  <path
     style="fill:#000000;stroke-width:0.319328"
     d=""
     id="path244" />
  <path
     style="fill:#000000;stroke-width:0.0399161"
     d=""
     id="path296" />
  <path
     style="fill:#ffcc00;stroke-width:0.370934"
     d="m 85.588456,247.20449 c -2.755691,-2.98579 -15.609476,-17.85562 -17.67986,-20.45286 -1.909403,-2.39528 -1.935582,-2.46052 -1.112803,-2.77306 3.887416,-1.47668 4.437185,-2.03541 3.594875,-3.65346 -0.242969,-0.46673 -5.28088,-5.73029 -11.195359,-11.69678 -9.205568,-9.28653 -10.685613,-10.93009 -10.281339,-11.41721 0.695522,-0.83805 0.06115,-1.96596 -3.271478,-5.81671 -1.571175,-1.81544 -2.912321,-3.45896 -2.980326,-3.65225 -0.195234,-0.55494 0.587609,-0.41369 2.163782,0.39041 0.7998,0.40803 1.794672,0.74187 2.210827,0.74187 0.509356,0 0.756646,-0.24246 0.756646,-0.74187 0,-1.00291 0.863255,-0.93818 2.52226,0.18914 0.757857,0.51498 1.427528,0.75872 1.498616,0.54546 0.07068,-0.21205 -2.036478,-3.84422 -4.682581,-8.07149 -5.276001,-8.42864 -8.982581,-14.84692 -8.982581,-15.55416 0,-0.25161 0.248381,-0.3592 0.556401,-0.241 1.164883,0.44701 0.44471,-1.34483 -3.524147,-8.76828 -2.448166,-4.57911 -3.894906,-7.66196 -3.636725,-7.74948 0.235807,-0.0799 0.937551,0.50428 1.559432,1.29827 0.621881,0.79398 2.164199,2.52302 3.427372,3.8423 l 2.296678,2.39869 0.31653,-1.22153 0.31653,-1.22152 1.430802,1.54642 c 1.106646,1.19607 1.634477,1.50748 2.329807,1.37456 0.760025,-0.14529 1.626644,0.59488 5.605807,4.78783 2.588741,2.72782 4.940687,4.95968 5.226547,4.95968 0.285861,0 0.733346,-0.29211 0.994413,-0.64913 0.446048,-0.61 0.528227,-0.59882 1.363069,0.18546 2.579931,2.4237 2.241258,-0.40906 -0.661923,-5.53649 -1.151067,-2.03296 -2.016067,-3.77306 -1.922221,-3.86691 0.09385,-0.0938 1.820863,1.33571 3.837817,3.17679 3.650537,3.33221 4.414659,3.7543 5.262206,2.90676 0.706617,-0.70662 0.543387,-1.43152 -1.07354,-4.76758 -0.835263,-1.72333 -1.902847,-4.13484 -2.372408,-5.35892 -0.469561,-1.22409 -2.042682,-4.71241 -3.495824,-7.75183 -1.453142,-3.03943 -2.597253,-5.56847 -2.542468,-5.62008 0.05479,-0.0516 1.573396,1.21796 3.374692,2.82129 1.801295,1.60333 3.637419,3.01977 4.080274,3.14764 0.442856,0.12788 1.818812,1.30337 3.05768,2.61221 1.503419,1.58832 2.537338,2.37969 3.109046,2.37969 0.777098,0 0.83851,-0.12904 0.662016,-1.391 -0.107,-0.76505 -1.45664,-4.0993 -2.999201,-7.40944 -3.276424,-7.0308 -3.997214,-9.17516 -3.517853,-10.46566 0.452905,-1.21928 0.197032,-2.21929 -2.29024,-8.95083 -1.173695,-3.17648 -2.645102,-7.85025 -3.269793,-10.38615 -0.624692,-2.5359 -2.814878,-9.51608 -4.86708,-15.511493 -2.052204,-5.995418 -3.724495,-11.169948 -3.716203,-11.498955 0.02051,-0.813774 1.329649,0.759153 6.448477,7.747818 5.141457,7.01956 5.806286,7.693551 7.036208,7.133162 0.845864,-0.3854 1.033749,-0.219678 3.400006,2.998998 3.883346,5.28226 9.129875,11.75295 9.529475,11.75295 0.617138,0 -0.01636,-2.28049 -2.890827,-10.40662 -1.52136,-4.300886 -2.766107,-7.975315 -2.766107,-8.165403 0,-0.190089 0.273631,-0.345615 0.608069,-0.345615 0.915235,0 0.530101,-2.146677 -2.26266,-12.611758 -1.33388,-4.998336 -2.425337,-9.129614 -2.42546,-9.180618 -9.27e-4,-0.381661 1.180811,0.02441 1.349373,0.463668 0.215686,0.562069 1.248749,0.792946 1.244817,0.2782 -0.0012,-0.15301 -0.919231,-4.087786 -2.040137,-8.743943 -2.27798,-9.462546 -2.381185,-10.266427 -1.318036,-10.266427 0.395987,0 0.825943,-0.171457 0.955457,-0.381016 0.129514,-0.20956 -0.2635,-2.087413 -0.873366,-4.173009 -2.048727,-7.006161 -2.018138,-7.17451 0.638776,-3.515505 0.851124,1.172137 2.001833,2.421139 2.557132,2.775559 1.492308,0.952469 1.802472,1.433007 5.64631,8.747886 3.087874,5.876271 3.729564,6.849472 5.186329,7.865698 1.377746,0.961105 2.136362,2.028649 4.429676,6.233539 1.521976,2.790604 2.890856,5.073826 3.04196,5.073826 0.151104,0 0.38069,-0.333841 0.510194,-0.741869 0.129504,-0.408027 0.481435,-0.741868 0.782074,-0.741868 0.300638,0 0.84646,-0.70601 1.212932,-1.56891 l 0.66632,-1.568906 1.411126,2.125307 c 1.487757,2.240728 2.418894,2.720101 2.418894,1.245311 0,-0.483998 -0.584221,-4.356305 -1.298269,-8.605125 -1.425207,-8.480435 -1.778032,-15.367457 -0.787285,-15.367457 0.281038,0 0.718777,0.250381 0.972752,0.556401 0.253975,0.306021 0.608254,0.556401 0.787285,0.556401 0.565741,0 0.358823,-1.673354 -0.787285,-6.366845 -0.612041,-2.506402 -1.107494,-4.728205 -1.101007,-4.937337 0.02393,-0.771599 1.219899,1.205943 2.966746,4.90557 0.987367,2.091141 1.96473,3.802074 2.171912,3.802074 0.207181,0 0.532828,-0.278994 0.723655,-0.619983 0.380589,-0.680082 0.603758,-0.346764 2.720694,4.063549 0.566353,1.179916 1.765375,3.18296 2.664492,4.451209 0.89911,1.268253 2.07481,3.182243 2.61266,4.253316 0.53785,1.071072 1.12357,1.947403 1.3016,1.947403 0.17803,0 0.43264,-2.044774 0.56579,-4.543942 0.34456,-6.467024 0.94467,-12.829137 1.3733,-14.559162 0.20218,-0.816055 0.52342,-2.151417 0.71386,-2.967472 0.19043,-0.816055 0.47212,-3.948327 0.62596,-6.960604 0.16238,-3.179591 0.43489,-5.486291 0.64967,-5.499335 0.20348,-0.01236 1.15153,2.533702 2.10678,5.657906 1.26775,4.146232 1.97468,5.88193 2.61752,6.426669 0.48438,0.410464 1.17934,1.223173 1.54435,1.806019 0.40303,0.643549 0.79742,0.925967 1.00426,0.71913 0.18733,-0.187325 1.01622,-3.250505 1.84199,-6.807065 0.82576,-3.556559 1.91993,-7.468954 2.43148,-8.694211 1.69266,-4.054216 2.67836,-7.178726 4.41867,-14.006454 1.78708,-7.0111953 2.53621,-9.077315 2.92465,-8.0662584 0.11757,0.3060206 0.701,4.6549784 1.29651,9.6643504 0.8449,7.10726 1.24792,9.388725 1.8347,10.386154 0.93125,1.582932 1.28457,3.832382 2.29826,14.631831 0.44045,4.692315 0.86605,8.601033 0.9458,8.68604 0.3151,0.335903 0.59342,-0.412657 1.64822,-4.433089 1.12152,-4.274728 1.54586,-5.180287 2.42746,-5.180287 0.82045,0 1.49716,-1.755067 3.30198,-8.563753 2.39318,-9.028303 3.13703,-11.466686 3.498,-11.466686 0.48974,0 0.76318,2.581003 1.14151,10.774747 0.19265,4.172569 0.43191,7.92033 0.53168,8.328357 0.0998,0.408028 0.35889,4.831416 0.57584,9.829753 0.44771,10.315279 0.70836,13.353626 1.14555,13.353626 0.16767,0 0.92381,-1.126712 1.68031,-2.503805 0.75649,-1.377092 2.18713,-3.672247 3.17919,-5.100343 0.99206,-1.428096 2.18168,-3.18076 2.64358,-3.894808 0.62038,-0.959042 1.17209,-1.346732 2.11144,-1.483736 1.22586,-0.178794 1.59646,-0.549253 3.20217,-3.200946 0.69205,-1.142866 0.78766,-0.485686 0.39887,2.741941 -0.33094,2.747475 -0.29991,3.1414 0.29965,3.80391 0.6124,0.676688 0.62837,0.953468 0.18929,3.280471 -0.32841,1.740526 -0.37061,2.996579 -0.1339,3.985705 0.24887,1.039917 0.16045,2.638569 -0.31579,5.710018 -0.85827,5.535315 -0.85715,7.136879 0.006,7.917591 0.37309,0.337643 0.83212,0.61492 1.02007,0.616177 0.18795,0.0011 0.84249,0.263549 1.45453,0.582871 1.09916,0.573468 1.12661,0.564143 2.23968,-0.760982 1.19582,-1.42363 1.65513,-1.393195 1.65513,0.10967 0,0.878569 0.0334,0.892742 0.69459,0.294407 0.38202,-0.345729 1.75912,-2.577068 3.06021,-4.958532 1.45721,-2.667227 3.02756,-4.976225 4.08944,-6.012971 1.76764,-1.725826 3.81132,-4.691848 7.31693,-10.619197 1.73738,-2.937605 2.10408,-3.348588 2.85903,-3.204269 0.74159,0.141764 1.01262,-0.133358 1.88634,-1.914828 0.56117,-1.144206 1.15246,-2.080377 1.31397,-2.080377 0.39605,0 0.38088,0.200167 -0.27882,3.677774 -0.6129,3.230947 -0.53187,3.740908 0.59437,3.740908 0.39599,0 0.71998,0.145454 0.71998,0.323232 0,0.177777 -0.81936,3.724834 -1.82079,7.882348 -2.37234,9.848893 -3.16161,13.642911 -2.89386,13.910666 0.11974,0.119737 0.74605,-0.384047 1.3918,-1.11952 0.64575,-0.73547 1.30308,-1.337221 1.46073,-1.337221 0.15765,0 -0.28659,1.877854 -0.98718,4.173008 -2.02594,6.636916 -3.43776,12.808702 -3.64109,15.917048 -0.10343,1.581099 -0.596,4.175812 -1.09461,5.766029 -1.72666,5.506884 -3.54302,12.299644 -3.54302,13.250084 0,0.52509 0.14624,0.95471 0.32497,0.95471 0.17874,0 2.95224,-3.41746 6.16333,-7.59435 3.2111,-4.17689 6.06942,-7.786112 6.35184,-8.020498 0.42323,-0.351252 0.51348,-0.157391 0.51348,1.103002 0,0.841036 0.13773,1.529156 0.30607,1.529156 0.16833,0 3.10078,-3.990481 6.51654,-8.86773 5.4317,-7.755749 7.64382,-10.643953 7.64382,-9.980003 0,0.544865 -1.82135,5.223489 -5.38337,13.828625 -5.96804,14.417558 -6.88662,17.406578 -5.14386,16.737818 0.87952,-0.3375 0.49785,0.87457 -2.44211,7.75533 -3.16985,7.41881 -3.72269,9.07083 -3.72269,11.12418 0,0.98827 -0.60246,3.30357 -1.51682,5.82925 -0.83425,2.30439 -2.16691,5.9842 -2.96148,8.17735 -0.86128,2.37731 -1.27444,3.98754 -1.02312,3.98754 0.23185,0 1.4153,-1.01874 2.62989,-2.26387 1.21459,-1.24512 2.93096,-2.58351 3.81415,-2.97418 0.88319,-0.39068 3.07312,-1.8659 4.86652,-3.27826 1.79339,-1.41236 3.31904,-2.50959 3.39034,-2.43829 0.0713,0.0713 -1.46866,3.28972 -3.42213,7.15205 -3.45695,6.83498 -4.01879,8.40719 -3.11236,8.70933 0.26598,0.0887 -0.33923,1.26163 -1.5335,2.97213 -1.98026,2.83624 -2.22757,3.99098 -0.85474,3.99098 0.77742,0 1.50198,-0.47473 5.23973,-3.43301 1.50397,-1.19032 2.82104,-2.07768 2.92682,-1.97189 0.10579,0.10578 -0.91661,2.49188 -2.27199,5.30242 -3.12833,6.48697 -3.17976,7.11635 -0.40107,4.90812 0.78157,-0.62111 2.403,-1.65268 3.60319,-2.29237 1.20018,-0.63969 6.10384,-4.30462 10.89702,-8.14428 8.88219,-7.11524 12.00081,-9.44848 12.00081,-8.97856 0,0.6857 -5.45448,9.32357 -17.11096,27.09739 -10.86358,16.56483 -13.74768,21.1941 -13.60747,21.84139 0.0826,0.38118 1.1413,-0.15105 3.64507,-1.83237 1.94078,-1.30328 5.27918,-3.32532 7.41868,-4.49344 2.13949,-1.16812 4.49823,-2.6053 5.24163,-3.19374 2.3479,-1.85846 2.76249,-1.40618 1.05942,1.15572 -0.73624,1.10752 -1.11016,2.1369 -1.11121,3.05909 -0.002,1.50267 -0.29327,1.85654 -9.04576,10.9792 -2.57883,2.6879 -3.54133,3.92446 -3.21274,4.12754 0.25803,0.15947 0.82624,0.20222 1.26269,0.095 0.75958,-0.18662 0.75385,-0.15075 -0.1338,0.8381 -0.51003,0.56819 -3.43114,3.2449 -6.49135,5.94825 -7.31746,6.46415 -8.44113,7.6517 -8.28493,8.75589 0.17114,1.20979 1.29173,1.29224 4.23794,0.31181 1.33384,-0.44388 2.51182,-0.72041 2.61773,-0.61451 0.5078,0.50781 -24.5526,25.84909 -25.56258,25.84909 -0.37983,0 -0.72305,-0.64685 -1.03327,-1.9474 -0.25549,-1.07107 -1.10483,-3.65552 -1.88743,-5.74321 -1.37463,-3.66703 -2.25169,-7.75313 -3.46462,-16.14124 l -0.57651,-3.98689 1.34406,-1.94806 1.34405,-1.94806 -0.13192,-4.78902 -0.13191,-4.78901 1.63318,-1.15184 c 1.29874,-0.91596 1.76498,-1.55609 2.27673,-3.12591 0.35395,-1.08574 0.82919,-2.15972 1.05609,-2.38661 0.2269,-0.2269 0.41254,-0.68922 0.41254,-1.02739 0,-0.48017 -0.50094,-0.66719 -2.28704,-0.85388 -2.07713,-0.2171 -2.46347,-0.13948 -4.20918,0.84574 l -1.92213,1.08478 -1.8622,-1.06354 c -2.84697,-1.62598 -4.24888,-3.18845 -4.11303,-4.58412 0.10164,-1.04433 0.25723,-1.17645 1.59636,-1.35558 2.84853,-0.38103 3.21996,-1.36423 0.90906,-2.40631 -1.61451,-0.72804 -3.69107,-2.82198 -3.69107,-3.72196 0,-0.30329 0.4173,-0.74158 0.92734,-0.97397 1.48387,-0.67609 1.22849,-1.95706 -0.53049,-2.66086 -2.05474,-0.82215 -2.38009,-1.57856 -1.41644,-3.29313 0.92655,-1.64858 0.70615,-2.06595 -0.629,-1.19112 -0.53411,0.34995 -1.03074,0.57194 -1.10363,0.49331 -0.44742,-0.4827 -2.43905,-7.63512 -2.74835,-9.86996 -0.20393,-1.47358 -0.796,-3.60799 -1.31569,-4.74315 -1.79382,-3.91823 -1.65127,-5.96436 0.51671,-7.41694 0.60739,-0.40695 1.10365,-0.99029 1.10281,-1.29631 -0.004,-1.56884 -1.62484,-6.98281 -2.77187,-9.26051 -1.47902,-2.93693 -1.52879,-3.23724 -0.72639,-4.38282 0.93945,-1.34126 1.77057,-0.47493 3.51865,3.66773 2.92625,6.93474 5.12322,9.42105 9.9288,11.23642 3.50856,1.32541 12.39463,3.86865 14.48663,4.14617 1.68548,0.22359 1.81149,0.17503 2.9698,-1.1442 0.6653,-0.75774 1.56947,-2.11836 2.00927,-3.0236 l 0.79964,-1.64591 -0.88853,-1.67492 c -1.53137,-2.88664 -4.22827,-3.58124 -6.42297,-1.65426 l -1.23716,1.08624 -2.31432,-1.14708 c -2.21157,-1.09616 -6.40536,-4.4107 -8.77626,-6.93629 l -1.11281,-1.1854 -0.2014,-9.52728 c -0.17343,-8.20376 -0.29564,-9.72136 -0.87971,-10.92427 -0.37306,-0.76835 -0.82005,-1.4846 -0.9933,-1.59167 -0.17325,-0.10708 -3.70001,-0.62084 -7.83725,-1.14168 -7.66011,-0.96436 -8.87729,-1.32118 -10.45547,-3.06505 -0.64525,-0.71299 -0.60276,-0.74417 2.06454,-1.51439 5.28826,-1.52706 5.6855,-1.68195 5.79484,-2.25939 0.0628,-0.33172 -0.29553,-0.76795 -0.83141,-1.01211 -1.18406,-0.5395 -1.18443,-1.08482 -0.002,-2.68777 1.16617,-1.58067 2.3019,-5.17736 2.62228,-8.30445 l 0.24279,-2.369821 -1.24607,0.0599 c -1.18859,0.05714 -1.25569,-0.0097 -1.45474,-1.448416 -0.11477,-0.829572 -0.5771,-2.132749 -1.0274,-2.895942 -0.45029,-0.763197 -0.8207,-1.837118 -0.82312,-2.386493 -0.01,-2.201167 -1.63702,-6.714456 -2.64577,-7.337892 -0.23641,-0.146115 -0.63883,0.02014 -0.89427,0.369476 -0.42253,0.577853 -0.5471,0.524419 -1.38116,-0.592467 -0.50421,-0.675178 -1.55735,-2.354311 -2.34032,-3.731403 -0.78296,-1.377093 -1.5789,-2.503805 -1.76875,-2.503805 -0.18985,0 -1.76413,1.362248 -3.4984,3.027215 l -3.15322,3.027219 -0.96654,-1.175891 c -0.53159,-0.646738 -1.15932,-1.174385 -1.39496,-1.172545 -1.00888,0.0079 -3.89894,6.404403 -4.39837,9.734846 -0.37289,2.486597 -0.93417,2.802254 -2.5149,1.41436 -2.13552,-1.87502 -2.23912,-1.697658 -2.03924,3.491053 l 0.17804,4.621696 -1.6117,-0.22091 c -1.41619,-0.19411 -1.61166,-0.13497 -1.61166,0.48763 0,0.82635 2.89636,6.03538 4.40584,7.92379 2.136,2.67219 2.13794,2.80606 0.0605,4.16452 -1.02109,0.66771 -1.85952,1.31652 -1.86318,1.4418 -0.009,0.30986 2.99883,0.69956 5.3995,0.69956 1.08032,0 2.3991,0.16534 2.93063,0.36742 0.8402,0.31945 0.91212,0.46888 0.55069,1.14421 -0.64673,1.20842 -2.60591,1.81597 -8.31696,2.57912 -5.74638,0.76787 -7.00075,1.11794 -8.27158,2.30841 -1.19016,1.11491 -1.46686,2.55946 -1.93605,10.1074 -0.22827,3.67225 -0.595877,7.42796 -0.816906,8.34602 -0.647925,2.6912 -2.51721,5.85588 -4.525347,7.66137 -2.202681,1.9804 -5.975191,3.99042 -6.851675,3.65061 -2.844111,-1.10261 -5.566975,-0.80332 -7.501622,0.82458 -1.086236,0.91401 -1.153828,1.11117 -1.003288,2.92646 0.172933,2.08534 1.359181,4.06452 3.132553,5.22648 1.145077,0.75029 1.947159,0.60001 10.140421,-1.89996 7.795754,-2.37867 11.509424,-4.66237 14.979034,-9.21127 1.5526,-2.03555 2.23448,-1.83958 3.16268,0.90897 0.42676,1.2637 0.77231,3.22501 0.7679,4.35848 -0.0105,2.69891 -1.128,7.67448 -2.55433,11.37307 -1.1064,2.86898 -1.74361,4.9744 -3.54304,11.70657 -0.47248,1.76769 -1.57966,4.77225 -2.46038,6.67682 -1.1924,2.57856 -1.64001,4.04989 -1.75282,5.76168 -0.17385,2.63793 -0.66538,3.27817 -2.868157,3.73584 -2.202213,0.45755 -1.995933,1.49631 0.542792,2.73333 1.852175,0.90251 3.395995,2.64374 2.838375,3.20136 -0.12064,0.12064 -1.51079,-0.0693 -3.089231,-0.42213 -1.578435,-0.35282 -3.287184,-0.72761 -3.797218,-0.83286 -0.791362,-0.16332 -0.63281,0.10853 1.081306,1.85401 2.336988,2.37974 2.40093,2.16085 -1.553097,5.31645 -2.587533,2.06504 -2.835502,2.70201 -1.051877,2.70201 1.431335,0 1.541524,0.22705 0.938979,1.93484 -0.687166,1.94764 -0.666965,3.79957 0.07713,7.07111 0.678702,2.98403 0.536608,7.12397 -0.438537,12.77695 -0.604244,3.50284 -3.725446,13.19315 -5.163528,16.03107 -1.429966,2.82191 -1.70107,2.88687 -3.574903,0.85657 z"
     id="path40" />
  <path
     style="fill:#ffcc00;stroke-width:0.370934"
     d="m 154.8804,247.10587 c -2.06775,-0.6209 -11.7464,-7.77744 -14.64211,-10.82659 l -1.21598,-1.28042 0.93778,-0.42728 c 0.51578,-0.235 0.93778,-0.66131 0.93778,-0.94734 0,-0.28604 -1.40914,-1.72975 -3.13143,-3.20826 -3.38788,-2.90835 -3.73654,-3.39785 -3.17182,-4.45306 0.317,-0.5923 0.009,-0.96583 -2.12156,-2.56966 -2.86741,-2.15891 -3.62267,-2.27007 -6.3134,-0.92922 -1.84491,0.91935 -11.96904,9.89616 -11.96904,10.61264 0,0.19011 0.51072,0.56041 1.13494,0.82287 l 1.13495,0.47721 -2.02336,1.52765 c -5.43104,4.10048 -16.493216,11.40474 -16.803046,11.09491 -0.09717,-0.0972 1.015344,-1.65578 2.472246,-3.46359 2.9741,-3.69044 3.96497,-5.45951 5.16522,-9.22187 1.30508,-4.09095 5.34837,-11.9861 7.59855,-14.83736 2.78136,-3.52433 3.18998,-4.34274 3.58961,-7.18961 0.18952,-1.35007 0.75747,-3.70658 1.26213,-5.23668 0.50466,-1.5301 1.51928,-4.86851 2.25472,-7.41868 0.73543,-2.55017 1.81091,-5.64102 2.38996,-6.86856 1.3246,-2.80809 3.16551,-5.37227 3.85693,-5.37227 0.72638,0 3.00117,2.85012 3.90427,4.89173 0.40865,0.92383 0.90202,2.80257 1.09638,4.17498 0.25687,1.81386 0.75152,3.17045 1.81131,4.96758 4.03338,6.8396 4.24118,7.34863 3.96636,9.71646 -0.30978,2.66908 0.53378,4.7683 3.47312,8.64296 2.50148,3.29748 3.08032,4.47412 5.66713,11.52002 1.18994,3.24114 2.59505,6.62932 3.12246,7.52927 1.30249,2.22254 4.65484,5.45388 6.67035,6.42957 1.76311,0.85351 1.91192,1.07164 1.20993,1.77363 -0.50264,0.50265 -0.79091,0.51143 -2.26438,0.069 z"
     id="path42" />
</svg>
