<?xml version="1.0" encoding="UTF-8" standalone="no"?>
<svg
   xmlns:dc="http://purl.org/dc/elements/1.1/"
   xmlns:cc="http://creativecommons.org/ns#"
   xmlns:rdf="http://www.w3.org/1999/02/22-rdf-syntax-ns#"
   xmlns:svg="http://www.w3.org/2000/svg"
   xmlns="http://www.w3.org/2000/svg"
   xmlns:xlink="http://www.w3.org/1999/xlink"
   xmlns:sodipodi="http://sodipodi.sourceforge.net/DTD/sodipodi-0.dtd"
   xmlns:inkscape="http://www.inkscape.org/namespaces/inkscape"
   viewBox="0 0 256 256"
   version="1.1"
   id="svg134"
   sodipodi:docname="set_Saiyan.svg"
   inkscape:version="1.0.2-2 (e86c870879, 2021-01-15)">
  <metadata
     id="metadata138">
    <rdf:RDF>
      <cc:Work
         rdf:about="">
        <dc:format>image/svg+xml</dc:format>
        <dc:type
           rdf:resource="http://purl.org/dc/dcmitype/StillImage" />
      </cc:Work>
    </rdf:RDF>
  </metadata>
  <sodipodi:namedview
     pagecolor="#ffffff"
     bordercolor="#666666"
     borderopacity="1"
     objecttolerance="10"
     gridtolerance="10"
     guidetolerance="10"
     inkscape:pageopacity="0"
     inkscape:pageshadow="2"
     inkscape:window-width="1920"
     inkscape:window-height="1001"
     id="namedview136"
     showgrid="false"
     inkscape:zoom="2.0658359"
     inkscape:cx="86.141321"
     inkscape:cy="146.47639"
     inkscape:window-x="-9"
     inkscape:window-y="-9"
     inkscape:window-maximized="1"
     inkscape:current-layer="svg134"
     inkscape:document-rotation="0" />
  <defs
     id="defs108">
    <linearGradient
       id="innoGrad5">
      <stop
         offset="0"
         stop-color="#ff2a2a"
         id="stop75" />
      <stop
         offset="1"
         stop-color="#f55"
         id="stop77" />
    </linearGradient>
    <linearGradient
       id="innoGrad4">
      <stop
         offset="0"
         stop-color="#fff"
         stop-opacity=".25"
         id="stop80" />
      <stop
         offset="1"
         stop-color="#fff"
         stop-opacity=".502"
         id="stop82" />
    </linearGradient>
    <linearGradient
       id="innoGrad3">
      <stop
         offset="0"
         stop-color="#fff"
         stop-opacity=".502"
         id="stop85" />
      <stop
         offset="1"
         stop-color="#fff"
         stop-opacity=".749"
         id="stop87" />
    </linearGradient>
    <linearGradient
       id="innoGrad2">
      <stop
         offset="0"
         stop-color="#faa"
         id="stop90" />
      <stop
         offset="1"
         stop-color="#ffd5d5"
         id="stop92" />
    </linearGradient>
    <linearGradient
       id="innoGrad1">
      <stop
         offset="0"
         stop-color="#f55"
         id="stop95" />
      <stop
         offset="1"
         stop-color="#ff8080"
         id="stop97" />
    </linearGradient>
    <linearGradient
       id="linearGradient840"
       x1="64.674"
       x2="199.286"
       y1="185.682"
       y2="46.416"
       gradientUnits="userSpaceOnUse"
       xlink:href="#innoGrad1" />
    <linearGradient
       id="linearGradient848"
       x1="49.223"
       x2="220.879"
       y1="199.516"
       y2="25.414"
       gradientUnits="userSpaceOnUse"
       xlink:href="#innoGrad2" />
    <linearGradient
       id="linearGradient856"
       x1="76.543"
       x2="215.999"
       y1="218.695"
       y2="82.163"
       gradientUnits="userSpaceOnUse"
       xlink:href="#innoGrad3" />
    <linearGradient
       id="linearGradient864"
       x1="34.947"
       x2="178.061"
       y1="170.207"
       y2="28.926"
       gradientUnits="userSpaceOnUse"
       xlink:href="#innoGrad3" />
    <linearGradient
       id="linearGradient872"
       x1="101.756"
       x2="201.304"
       y1="207.557"
       y2="115.113"
       gradientUnits="userSpaceOnUse"
       xlink:href="#innoGrad4" />
    <linearGradient
       id="linearGradient886"
       x1="53.292"
       x2="150.38"
       y1="149.616"
       y2="43.854"
       gradientUnits="userSpaceOnUse"
       xlink:href="#innoGrad4" />
    <linearGradient
       id="linearGradient894"
       x1="36.957"
       x2="10.898"
       y1="74.85"
       y2="101.369"
       gradientUnits="userSpaceOnUse"
       xlink:href="#innoGrad3" />
    <linearGradient
       id="linearGradient902"
       x1="9.196"
       x2="41.5"
       y1="104.197"
       y2="71.996"
       gradientUnits="userSpaceOnUse"
       xlink:href="#innoGrad5" />
  </defs>
  <path
     style="fill:#000000;stroke-width:0.319328"
     d=""
     id="path174" />
  <path
     style="fill:#000000;stroke-width:0.319328"
     d=""
     id="path190" />
  <path
     style="fill:#000000;stroke-width:0.319328"
     d=""
     id="path204" />
  <path
     style="fill:#000000;stroke-width:0.319328"
     d=""
     id="path212" />
  <path
     style="fill:#000000;stroke-width:0.319328"
     d=""
     id="path242" />
  <path
     style="fill:#000000;stroke-width:0.319328"
     d=""
     id="path244" />
  <path
     style="fill:#000000;stroke-width:0.0399161"
     d=""
     id="path296" />
  <path
     style="fill:#000000;stroke-width:0.899644"
     d="M 66.071672,236.31372 C 53.796979,230.32213 39.733802,217.38485 34.98876,207.7193 c -3.443463,-7.01425 -2.797466,-8.72893 2.179231,-5.7844 l 3.253091,1.92476 -3.924207,-7.95808 C 29.282687,181.27162 21.677686,154.624 24.040411,152.25466 c 0.786513,-0.78872 1.689455,0.35631 3.714808,4.71082 l 2.675729,5.75281 0.07726,-7.72641 c 0.232739,-23.27439 5.218617,-50.92614 10.830545,-60.066356 3.026791,-4.929765 4.210992,-3.842685 4.906906,4.504502 0.340809,4.087834 0.958879,8.851354 1.373495,10.585574 0.414608,1.73424 1.037147,4.36937 1.383413,5.85586 0.540834,2.32174 0.98867,1.30582 3.177131,-7.20721 6.213254,-24.16933 15.384227,-44.749796 18.533773,-41.591431 0.286866,0.287671 -0.515025,5.709379 -1.781982,12.048231 -3.233743,16.179147 -4.201948,25.68385 -4.204864,41.27854 -0.0034,17.85921 1.647067,31.01462 5.817671,46.37275 2.509895,9.24262 1.001398,10.71625 -4.380535,4.27927 -1.894797,-2.26623 -3.208447,-3.2554 -3.218852,-2.42377 -0.03477,2.78041 3.798345,16.45552 6.35565,22.6744 2.789364,6.78322 3.172048,8.80342 1.667616,8.80342 -1.869725,0 -6.763161,-2.96669 -10.194211,-6.18034 -1.92551,-1.80351 -3.300213,-2.87371 -3.054888,-2.37821 1.528896,3.08798 4.51946,14.05408 3.980177,14.59487 -0.357723,0.35872 -1.455192,0.14823 -2.438821,-0.46778 -1.784679,-1.11766 -1.7847,-1.11272 -0.0099,2.37584 3.510889,6.90119 12.232201,16.83038 14.782962,16.83038 1.510355,0 4.81656,-7.67483 5.386756,-12.5045 0.299518,-2.53692 1.158152,-5.0627 1.908077,-5.61282 0.74993,-0.55012 1.363506,-1.51559 1.363506,-2.1455 0,-0.6299 1.768612,-4.63925 3.930252,-8.90969 2.161641,-4.27042 4.210815,-9.06227 4.553706,-10.64853 0.967534,-4.47579 6.78567,-12.73645 13.608989,-19.32213 10.69081,-10.31852 10.89046,-10.71359 7.18057,-14.20862 -1.19347,-1.12434 -2.414,-3.01934 -2.71227,-4.21108 -0.66242,-2.64664 -1.93388,-2.71786 -5.4492,-0.30521 -1.48234,1.01736 -4.899731,2.85312 -7.594212,4.07949 -5.541305,2.52206 -8.545285,2.30388 -11.958901,-0.86863 -3.593796,-3.33993 -8.213939,-18.15746 -8.26331,-26.50171 -0.03709,-6.27434 1.055045,-7.81469 4.907604,-6.92154 1.23528,0.28638 3.660922,0.81426 5.390308,1.17305 l 3.144347,0.65237 0.01735,6.2807 c 0.0095,3.45439 0.326271,7.14951 0.703853,8.21141 l 0.686501,1.9307 3.563478,-1.72651 c 1.959914,-0.94958 3.563485,-2.14175 3.563485,-2.64928 0,-0.50753 2.002118,-2.9305 4.449147,-5.38438 3.42887,-3.43847 5.09089,-4.4616 7.24762,-4.4616 2.34867,0 2.71067,-0.27742 2.2522,-1.72598 -0.30046,-0.94929 -0.12556,-1.98673 0.38865,-2.30542 0.51421,-0.31869 0.93493,-2.98795 0.93493,-5.93167 0,-4.55341 0.24135,-5.35224 1.61709,-5.35224 0.88941,0 2.05097,0.43509 2.58126,0.96687 0.68661,0.68854 1.14376,0.23472 1.58809,-1.57658 1.34069,-5.465274 5.89256,-9.169831 5.89256,-4.79569 0,0.99099 0.37493,1.8018 0.83318,1.8018 1.06485,0 4.31549,-4.123591 5.02983,-6.380589 0.9841,-3.109281 3.89857,-2.047287 5.76677,2.101312 0.94831,2.105853 1.95852,4.583947 2.24492,5.506867 0.41866,1.3491 0.77508,1.46635 1.81831,0.59811 2.15103,-1.79018 3.17307,-0.18477 3.17307,4.98423 0,3.93132 0.29007,4.90178 1.46513,4.90178 1.1768,0 1.36321,0.62978 0.94724,3.20023 -0.40476,2.50123 -0.18515,3.31825 1.00543,3.74055 0.83783,0.29715 2.24035,1.15828 3.11672,1.91361 1.16243,1.00187 1.86169,1.10426 2.58533,0.37861 3.70919,-3.71959 5.52389,-28.621254 3.11744,-42.778413 -2.18352,-12.845729 -2.87025,-14.038836 -3.47541,-6.038001 -0.8214,10.860117 -4.3361,15.734599 -5.64334,7.826665 -1.57385,-9.520393 -9.8883,-27.195746 -15.08282,-32.063815 l -2.25029,-2.108875 -3.11256,4.811579 c -1.71189,2.646366 -5.41849,7.446704 -8.23688,10.667423 -2.81839,3.22072 -6.81029,8.58887 -8.87087,11.929222 -2.06059,3.340352 -4.27459,6.076837 -4.92002,6.081085 -1.54398,0.0102 -4.82041,-7.510455 -5.358805,-12.300442 l -0.425354,-3.784388 -1.992076,2.415638 c -1.095658,1.328605 -4.113774,5.557535 -6.706938,9.397624 -5.43985,8.055571 -7.824367,9.148974 -6.87648,3.153152 0.729771,-4.616248 5.547979,-16.047205 9.658828,-22.915107 3.982275,-6.653089 13.934595,-17.400199 16.113405,-17.400199 1.76223,0 1.80696,1.615864 0.2743,9.909911 -0.47205,2.554575 4.03601,-5.019988 7.23844,-12.162162 2.70029,-6.022327 3.3716,-10.121896 3.2824,-20.045035 -0.0679,-7.561567 0.0804,-8.333328 1.60231,-8.333328 5.3092,0 26.28397,19.758481 38.42741,36.199089 l 6.12784,8.296266 0.28199,-4.43024 c 0.1551,-2.436635 -0.14811,-6.90698 -0.67379,-9.934095 -1.85546,-10.684659 -0.9784,-11.564392 6.23522,-6.254274 22.52822,16.583545 37.70488,52.884024 37.72294,90.22806 0.005,10.50689 0.0783,10.93255 1.80207,10.4805 1.62927,-0.42725 1.79978,-0.0204 1.82908,4.36362 l 0.0323,4.8348 2.22872,-2.7027 c 1.22579,-1.48649 3.08465,-5.03378 4.13079,-7.88288 3.68816,-10.04436 5.74172,-5.37253 5.64307,12.83783 -0.0376,6.94743 -0.66134,14.19467 -1.62821,18.91892 -1.85135,9.04607 -7.1338,25.37646 -9.52723,29.45287 -1.26891,2.16116 -1.36884,2.75318 -0.4019,2.38109 2.29873,-0.88457 1.39287,2.0329 -2.46167,7.92823 -4.9301,7.54036 -22.28046,24.73993 -28.87199,28.62104 -3.63495,2.14028 -6.39785,3.09371 -9.13734,3.15314 -6.24707,0.13558 -8.37766,-2.10027 -12.87392,-13.50988 -2.13021,-5.40557 -4.25031,-10.43642 -4.71135,-11.17966 -5.04508,-8.13326 -6.22296,-10.72403 -6.23047,-13.70401 -0.008,-3.1092 -0.24876,-3.40855 -3.43589,-4.26915 -3.93907,-1.06366 -6.35654,-3.41356 -9.05148,-8.79851 -2.13714,-4.27033 -4.12243,-5.66075 -8.08262,-5.66075 -4.51457,0 -7.01204,1.76605 -12.31412,8.7078 -2.78795,3.6501 -6.234,7.46843 -7.65791,8.48518 -1.92231,1.37263 -2.58977,2.58671 -2.59227,4.7152 -0.005,3.52708 -2.57981,7.9194 -6.231628,10.62687 -1.51188,1.12092 -2.74886,2.61692 -2.74886,3.32447 0,0.70755 -1.31389,3.16509 -2.919756,5.4612 -3.559966,5.09015 -4.679385,6.91057 -6.614876,10.75714 -2.238911,4.44958 -6.876221,7.59004 -11.839883,8.01816 -3.334734,0.28762 -5.369746,-0.19182 -9.619766,-2.26635 z m 12.897873,-1.00709 c 3.970921,-2.03148 4.527884,-2.64814 7.789486,-8.6244 1.352104,-2.47748 3.820027,-6.43112 5.484261,-8.78586 1.664242,-2.35476 3.02589,-4.73826 3.02589,-5.29667 0,-0.55841 1.819226,-2.71418 4.042733,-4.7906 3.514555,-3.28208 4.042735,-4.25511 4.042735,-7.44784 0,-3.02011 0.52192,-4.13209 2.93791,-6.2593 1.61586,-1.42271 5.09436,-5.21471 7.72999,-8.42666 6.15102,-7.49599 7.84693,-8.80354 12.30708,-9.48869 5.66968,-0.87097 9.70798,1.25517 12.36545,6.51035 2.62594,5.19283 4.45485,6.92323 8.79182,8.3182 2.97443,0.95672 3.2943,1.39014 3.70184,5.01591 0.24534,2.1828 1.61017,5.85545 3.03294,8.16147 4.23896,6.87045 4.64739,7.71321 8.06119,16.63383 3.73054,9.7483 4.87829,11.37534 8.60313,12.19575 5.25662,1.15779 14.83795,-4.88416 26.00734,-16.40008 7.41119,-7.64117 15.12469,-17.69059 12.93039,-16.8462 -1.91882,0.73838 -1.6931,-0.64393 0.85036,-5.20742 3.28907,-5.90123 9.48155,-25.22101 10.90762,-34.0304 1.60021,-9.88506 1.65906,-28.36044 0.0823,-25.83632 -5.38683,8.62342 -8.50426,12.74342 -9.82941,12.99059 -1.32597,0.24733 -1.57217,-0.40925 -1.57217,-4.19297 0,-4.08255 -0.1661,-4.44266 -1.846,-4.00212 -1.79938,0.47186 -1.83077,0.25924 -1.24273,-8.41767 1.59541,-23.54099 -5.35827,-53.047512 -17.35938,-73.661053 -4.15867,-7.143091 -19.42263,-23.979424 -21.73994,-23.979424 -0.72916,0 -0.82824,1.619715 -0.34443,5.630631 1.23603,10.246892 0.48206,17.792785 -1.7778,17.792785 -0.63449,0 -2.91542,-2.533783 -5.06874,-5.630624 C 151.94692,38.37965 132.25635,17.543624 125.14819,13.417783 l -2.67525,-1.552812 -0.49399,9.660919 c -0.5616,10.982544 -1.53049,14.168072 -7.90548,25.991698 -5.71307,10.595965 -7.39561,11.085645 -6.97443,2.029826 l 0.29832,-6.414161 -4.94112,5.394551 C 97.168419,54.3009 91.188295,64.124843 88.059838,72.177783 c -1.058721,2.725223 -1.737536,4.752247 -1.508484,4.504502 0.229046,-0.247745 2.522718,-3.288287 5.097047,-6.756752 7.704352,-10.380288 9.909479,-11.206668 9.909479,-3.713628 0,2.664712 0.6332,6.364659 1.40713,8.222103 l 1.40713,3.377174 3.17161,-4.84373 c 3.14637,-4.805147 6.51902,-9.137747 11.83542,-15.204082 1.51984,-1.734228 3.69055,-4.699489 4.82381,-6.589467 3.45152,-5.756195 4.68999,-7.068297 6.11108,-6.474336 4.00006,1.671881 13.33121,17.54232 16.68574,28.379118 0.84359,2.725223 1.84481,5.305152 2.22491,5.733163 1.25042,1.408024 1.96008,-9.024123 0.93876,-13.799722 -1.24521,-5.822447 -1.29354,-5.446952 0.70124,-5.446952 1.2068,0 2.22553,1.357131 3.55034,4.729728 3.78722,9.641176 4.14952,12.361056 4.17016,31.306297 0.0206,18.909451 -0.85799,25.560301 -3.83613,29.039481 -1.5035,1.75643 -5.5153,1.28233 -6.74443,-0.79707 -0.39514,-0.66846 -1.76192,-1.21539 -3.03729,-1.21539 -2.14841,0 -2.28136,-0.2318 -1.80862,-3.15316 0.38606,-2.38566 0.1941,-3.15315 -0.78869,-3.15315 -1.042,0 -1.19723,-1.02462 -0.78472,-5.18018 0.39733,-4.00282 0.28687,-4.82185 -0.48599,-3.6036 -1.49019,2.34894 -3.50131,1.90707 -4.10045,-0.9009 -0.29073,-1.36261 -1.1655,-4.26626 -1.94388,-6.45256 -1.30835,-3.674732 -1.5039,-3.844908 -2.58818,-2.252247 -4.05348,5.954077 -7.04287,9.400267 -7.90484,9.112787 -0.54653,-0.18227 -1.21806,-1.51417 -1.49228,-2.95978 -0.42655,-2.24856 -0.57914,-2.368 -1.05592,-0.82658 -0.30652,0.99099 -0.82175,3.11937 -1.14495,4.72973 -0.66152,3.296 -3.30832,4.03123 -4.86485,1.35135 -0.7919,-1.36342 -0.9194,-1.25979 -0.94302,0.76647 -0.015,1.28867 0.44394,3.69871 1.01995,5.35563 0.79742,2.29392 0.79742,3.09611 0,3.36266 -0.57601,0.19255 -1.04727,1.07372 -1.04727,1.95817 0,1.201 -0.93068,1.73329 -3.67626,2.10258 -2.86263,0.38503 -4.55269,1.41173 -7.63627,4.63894 -2.17801,2.27946 -3.960016,4.55144 -3.960016,5.04887 0,0.49742 -1.111753,1.37918 -2.470559,1.95948 -1.358806,0.5803 -3.185008,1.88916 -4.058227,2.90861 l -1.587667,1.85354 -2.258326,-2.70271 c -2.016841,-2.4137 -2.239916,-3.42402 -2.08616,-9.44826 l 0.172174,-6.74557 -3.93134,-0.67301 c -2.162241,-0.37017 -4.234928,-0.36858 -4.605966,0.003 -0.971182,0.9739 -0.967001,5.47911 0.0089,9.65613 3.265838,13.97747 5.139197,18.36519 8.644232,20.24627 2.928337,1.5716 6.769329,0.41967 13.731225,-4.11804 5.62581,-3.66685 8.79695,-3.9863 9.55377,-0.96242 0.28945,1.15652 1.74825,3.6447 3.24173,5.52929 3.18064,4.01351 3.62549,8.1731 0.96465,9.01999 -0.96294,0.30648 -1.97063,1.24596 -2.23929,2.08774 -0.26865,0.84177 -3.11371,3.88181 -6.32234,6.75565 -6.827055,6.11469 -10.840542,11.63962 -12.752841,17.55542 -0.75498,2.33554 -3.151048,7.83184 -5.324624,12.21401 -2.173568,4.38217 -3.951949,8.49419 -3.951949,9.13785 0,0.64365 -0.551743,1.38258 -1.226085,1.64207 -0.719059,0.27671 -1.40515,2.34055 -1.659089,4.99076 -0.598417,6.24499 -4.860194,14.54992 -7.466529,14.54992 -3.257797,0 -12.321269,-9.96873 -16.50745,-18.15624 -4.58772,-8.97284 -5.045926,-13.90225 -0.946445,-10.18188 1.407105,1.27697 1.394433,0.88901 -0.153852,-4.71023 -3.075144,-11.12096 -1.738683,-13.1193 3.849608,-5.75613 1.810004,2.38487 4.493849,5.19509 5.964097,6.24494 l 2.673187,1.90881 -2.611321,-6.74382 c -4.590125,-11.85415 -7.859454,-29.10518 -5.662119,-29.8769 0.527779,-0.18536 2.497311,1.90192 4.37673,4.6384 1.879426,2.73648 3.593899,4.97541 3.809937,4.97541 0.216045,0 0.168902,-0.36331 -0.104774,-0.80735 -0.273669,-0.44405 -1.510991,-5.50771 -2.749598,-11.25257 -5.289842,-24.53516 -5.013093,-52.25768 0.819423,-82.084202 0.828186,-4.235211 -4.249255,6.955529 -7.357586,16.21621 -2.923336,8.709512 -5.986921,20.068122 -7.149159,26.506352 -0.925534,5.12701 -2.582137,5.64404 -4.366018,1.36264 -1.764575,-4.23504 -3.960284,-15.5847 -3.960284,-20.470771 0,-4.843127 -1.024584,-3.632071 -3.994448,4.721421 -3.963836,11.14929 -6.033963,25.46709 -6.551508,45.31276 -0.486961,18.67295 -0.957976,20.40939 -4.276554,15.76576 -1.440886,-2.0162 -1.445436,-2.0126 -0.852103,0.67568 1.557521,7.05692 7.107282,22.14412 10.740496,29.19839 2.219654,4.3097 4.035731,8.37404 4.035731,9.03192 0,0.87598 -0.964501,1.06638 -3.603749,0.71139 l -3.603743,-0.48472 2.031569,3.6517 c 4.411693,7.92989 20.168276,21.54313 30.539066,26.38487 5.717057,2.66908 6.14692,2.6893 10.443538,0.49119 z M 172.9094,224.6552 c -0.30443,-1.36261 -0.91628,-3.8964 -1.35968,-5.63062 -0.4434,-1.73424 -0.80845,-4.50953 -0.8112,-6.16731 -0.003,-1.65778 -0.6079,-4.09022 -1.34479,-5.4054 -1.43305,-2.55772 -5.8473,-15.87946 -5.8473,-17.64653 0,-0.58374 -1.01945,-2.44699 -2.26543,-4.14057 -1.246,-1.69357 -2.69469,-4.71153 -3.21933,-6.70655 -0.65845,-2.5039 -2.43837,-5.04674 -5.74704,-8.21032 -2.63624,-2.52066 -4.92707,-5.3585 -5.09074,-6.30631 -0.26392,-1.52838 0.35981,-1.75422 5.5142,-1.99665 7.20365,-0.33878 9.04468,0.11 12.53587,3.05587 3.57597,3.0174 3.59604,1.06601 0.0259,-2.51417 l -2.73854,-2.7462 -8.04208,0.63089 c -5.57299,0.43717 -8.0421,0.33051 -8.0421,-0.34744 0,-1.29347 8.53796,-5.23629 12.80198,-5.91197 3.71012,-0.5879 4.40751,-1.77149 1.49398,-2.53553 -1.18286,-0.31019 -4.349,0.81493 -8.57733,3.04807 -8.20549,4.33362 -11.11467,4.61215 -11.0957,1.0623 0.007,-1.36262 0.51263,-3.33332 1.12298,-4.37937 0.61035,-1.04604 2.2283,-3.98522 3.59544,-6.53153 1.36712,-2.5463 2.93006,-4.62964 3.47317,-4.62964 0.54312,0 2.9183,1.42131 5.27818,3.15849 5.45777,4.01758 10.47003,6.1222 13.03995,5.47538 2.38322,-0.59983 4.60331,-4.9089 5.80621,-11.2695 0.47538,-2.51375 1.48127,-5.76678 2.23529,-7.22898 1.49904,-2.90695 1.7731,-7.02341 0.59194,-8.89142 -0.47087,-0.74469 -2.05917,-1.08108 -4.25357,-0.90089 l -3.5021,0.28757 0.20593,5.40539 c 0.36742,9.64495 -2.4753,13.92269 -6.28616,9.45946 -0.84615,-0.99099 -2.0676,-1.80181 -2.71434,-1.80181 -1.10944,0 -3.33362,-4.71392 -3.33362,-7.06527 0,-0.59483 1.94951,-3.60658 4.33224,-6.6928 9.6282,-12.47085 16.17436,-27.298384 16.29861,-36.917576 0.0447,-3.464532 2.04709,-3.145692 5.33048,0.848796 3.3342,4.05628 6.62802,12.087984 8.63255,21.04973 2.04003,9.12043 2.77017,32.14871 1.35159,42.62839 -1.18377,8.74517 -4.82112,22.56674 -6.54203,24.85916 -0.56964,0.7588 0.29555,0.16344 1.92265,-1.32305 1.62708,-1.48648 3.6191,-3.81757 4.4267,-5.18017 0.80762,-1.36262 1.98763,-2.47748 2.62226,-2.47748 2.50639,0 0.42131,11.71465 -3.78117,21.24382 -1.18423,2.68526 -1.98636,4.8823 -1.7825,4.8823 0.20387,0 2.0633,-2.24818 4.1321,-4.99595 5.15463,-6.8464 6.17437,-5.50182 3.58991,4.73343 -3.22217,12.7608 -9.21585,24.89138 -16.26571,32.92017 -4.31083,4.9094 -6.88889,5.51128 -7.71764,1.80179 z m 13.88476,-15.54054 c 3.15891,-6.08676 8.19575,-18.7889 8.19575,-20.66841 0,-0.40768 -1.56954,0.83271 -3.48786,2.7564 -3.98484,3.996 -6.88879,4.69369 -6.12094,1.47058 0.26559,-1.11486 1.88484,-5.47297 3.59832,-9.68468 1.71349,-4.21172 3.38242,-8.82118 3.70873,-10.24325 l 0.59333,-2.58561 -3.79942,3.26129 c -3.31565,2.846 -7.06956,4.30026 -7.06956,2.73871 0,-0.28741 1.16569,-3.8347 2.59039,-7.88288 4.44061,-12.61747 5.77176,-21.1464 5.78885,-37.09004 0.0212,-19.74165 -2.89172,-33.275124 -9.40443,-43.693679 l -2.53421,-4.054054 -0.0171,2.73865 c -0.0521,8.358716 -6.66186,23.666453 -14.88807,34.479693 -4.20542,5.52798 -4.92159,6.99873 -4.45204,9.14261 0.30778,1.40519 1.24398,2.75283 2.08045,2.99474 0.83646,0.24193 2.27552,0.7501 3.19789,1.12927 1.57381,0.64696 1.63946,0.30663 1.06625,-5.52842 -0.7433,-7.56674 0.12897,-9.03859 5.79137,-9.77224 5.8411,-0.7568 7.6506,0.90615 7.58747,6.97291 -0.0274,2.63826 -0.66877,5.67481 -1.4661,6.94186 -0.77951,1.23874 -1.68444,4.07658 -2.01095,6.30631 -0.95878,6.54749 -3.77088,11.47195 -7.27703,12.74335 -1.92308,0.69733 -3.13809,1.78646 -3.30592,2.96339 -0.20905,1.466 -1.12314,1.97548 -4.30809,2.40119 -2.2235,0.2972 -3.14131,0.60125 -2.03955,0.67568 3.32603,0.22465 9.22219,2.94813 10.15122,4.68891 1.34221,2.51495 1.05913,7.14271 -0.47299,7.73228 -0.77827,0.29949 -2.68444,-0.66157 -4.52317,-2.28052 -2.80907,-2.4733 -3.81148,-2.79816 -8.63424,-2.79816 h -5.45622 l 4.45413,4.01586 c 3.39666,3.06243 4.81933,5.18014 5.99233,8.91989 0.84602,2.69722 2.3217,5.61508 3.27931,6.48413 0.95761,0.86905 1.7411,2.31882 1.7411,3.2217 0,0.90288 1.01069,4.33425 2.24597,7.62528 1.23527,3.29103 2.24596,6.61296 2.24596,7.38206 0,0.76911 0.5568,2.0384 1.23734,2.82066 0.68053,0.78227 1.71914,4.80671 2.30801,8.94321 0.58888,4.13651 1.31488,8.15909 1.61335,8.93906 0.81137,2.12028 7.51568,-5.95178 11.80033,-14.20773 z m -36.7736,-55.73931 c 2.30524,-1.42241 5.11965,-2.88164 6.25422,-3.24276 l 2.06287,-0.65656 -2.56132,-1.69141 c -1.40873,-0.93028 -3.39837,-2.31 -4.42142,-3.06606 -1.77887,-1.31463 -1.94877,-1.17787 -3.89132,3.13236 -1.11716,2.47885 -2.35541,4.50701 -2.75165,4.50701 -0.39622,0 -0.93185,0.81081 -1.19028,1.8018 -0.67046,2.57103 1.4819,2.31124 6.4989,-0.78438 z"
     id="path22" />
  <path
     style="fill:#ff8080;stroke-width:0.484066"
     d="m 69.356602,234.84807 c -10.985178,-5.15504 -26.391128,-18.35706 -31.171424,-26.71215 -0.780198,-1.36364 -1.418542,-2.57565 -1.418542,-2.69335 0,-0.1177 1.323189,-0.11829 2.94042,-10e-4 1.701748,0.1231 3.154285,-9.7e-4 3.448104,-0.29499 0.354203,-0.35421 -0.187282,-2.01893 -1.791107,-5.50653 -6.359375,-13.82864 -11.332855,-26.76672 -12.575144,-32.71301 l -0.329001,-1.57479 1.54893,1.54893 c 2.808252,2.80825 3.044394,1.66487 3.868312,-18.73011 0.89682,-22.19954 3.179773,-35.94903 7.819455,-47.09405 1.683444,-4.043809 2.311155,-3.940717 2.324263,0.38172 0.01508,4.97262 2.638306,17.2268 4.30035,20.08872 0.560568,0.96526 1.22651,1.4522 1.986046,1.4522 1.3479,0 1.567168,-0.59706 3.881999,-10.57043 2.635246,-11.35388 6.571019,-23.550234 10.299733,-31.917287 0.803549,-1.803125 1.542646,-3.196759 1.642438,-3.096969 0.09979,0.0998 -0.357766,3.535542 -1.016796,7.634996 -4.427154,27.53884 -3.960305,52.52828 1.426875,76.3776 0.878878,3.89084 1.549211,7.12542 1.48963,7.18795 -0.05958,0.0625 -1.10767,-1.24444 -2.329085,-2.90439 -2.722321,-3.69974 -4.493372,-5.4011 -5.180376,-4.9765 -2.160513,1.33527 2.123993,22.16737 6.80519,33.08816 0.510595,1.19116 0.825603,2.26851 0.700018,2.3941 -0.262028,0.26202 -5.740565,-5.17533 -9.070192,-9.00202 -4.149387,-4.76882 -5.174744,-2.67788 -3.048152,6.21591 1.255547,5.25091 1.284027,6.58208 0.11583,5.41388 -0.315045,-0.31504 -0.993233,-0.57281 -1.507082,-0.57281 -0.815555,0 -0.904244,0.26641 -0.697956,2.09659 0.271731,2.4108 2.94009,8.83479 5.296352,12.75081 2.336001,3.88235 8.616102,11.32519 11.096241,13.15068 4.092389,3.01216 5.578685,2.53537 8.300454,-2.66276 1.828243,-3.49163 2.992532,-7.12236 3.505661,-10.93207 0.176742,-1.31222 0.785576,-2.8687 1.420103,-3.63049 0.610901,-0.73341 1.380942,-2.16227 1.711211,-3.17524 0.330263,-1.01298 1.963355,-4.71608 3.629087,-8.22912 1.665733,-3.51304 3.954869,-8.72726 5.086973,-11.58716 2.638597,-6.66558 5.290241,-10.36304 12.58693,-17.55127 3.24304,-3.19483 6.21158,-6.40413 6.59677,-7.13177 0.38518,-0.72764 1.33469,-1.65103 2.11002,-2.05197 2.78104,-1.43813 2.5287,-4.46888 -0.77369,-9.29252 -1.21407,-1.77332 -2.60368,-4.14872 -3.08803,-5.27866 -1.51114,-3.52535 -3.66494,-3.33688 -10.84731,0.94922 -2.442619,1.45764 -5.363499,3.01932 -6.490835,3.47038 -2.693258,1.07764 -5.990877,0.726 -7.674598,-0.81835 -1.849087,-1.69604 -3.79625,-6.3499 -5.685141,-13.58794 -1.945697,-7.45569 -2.449488,-10.78034 -1.998141,-13.18624 0.302885,-1.61451 0.436821,-1.72074 2.169577,-1.72074 1.015725,0 2.8574,0.13853 4.092624,0.30783 l 2.245856,0.30783 v 6.19554 c 0,6.89048 0.268139,7.96697 2.733988,10.97622 l 1.709613,2.08635 1.872782,-1.92977 c 1.030028,-1.06138 2.74166,-2.37305 3.803618,-2.91482 1.061957,-0.54177 2.576898,-1.92406 3.366537,-3.07176 0.78964,-1.1477 2.85457,-3.414 4.58875,-5.03624 2.74532,-2.56812 3.5422,-3.03416 6.16264,-3.60416 2.07186,-0.45068 3.17032,-0.95632 3.52536,-1.62279 0.28366,-0.53247 0.88901,-1.53579 1.34522,-2.2296 0.78669,-1.19643 0.78145,-1.44438 -0.10162,-4.80792 -0.5121,-1.95055 -0.93109,-3.98035 -0.93109,-4.51068 0,-0.9375 0.0311,-0.93505 1.12035,0.0883 2.42193,2.27529 4.29174,0.88499 5.23108,-3.88956 0.3033,-1.54164 0.74094,-2.80298 0.97254,-2.80298 0.2316,0 0.42108,0.3165 0.42108,0.70333 0,1.22949 1.09866,3.1692 1.79504,3.1692 0.88018,0 2.56352,-1.81318 5.97812,-6.43919 l 2.78778,-3.776826 0.97542,2.607041 c 0.53648,1.433875 1.34509,3.895855 1.79692,5.471055 0.45182,1.57521 1.0397,3.1363 1.30639,3.4691 0.61602,0.76869 2.41574,0.78241 3.17394,0.0242 0.4518,-0.45179 0.58088,0.34244 0.58088,3.57404 0,3.68683 0.10447,4.18223 0.92731,4.3974 0.82209,0.21499 0.89759,0.57024 0.66539,3.13101 l -0.26193,2.88851 2.04456,0.27423 c 1.1245,0.15083 2.51326,0.71324 3.08612,1.2498 2.43745,2.283 5.87907,2.36189 7.5999,0.17421 2.48533,-3.15958 3.33508,-10.55044 3.35252,-29.158917 0.0167,-17.755307 -0.64707,-22.689464 -4.19812,-31.209531 -1.52398,-3.656496 -2.36262,-4.598623 -4.09353,-4.598623 -1.63345,0 -1.63212,-0.01324 -0.59792,5.92959 0.53566,3.078115 0.68149,5.673815 0.46651,8.303946 -0.49283,6.029613 -0.87981,5.972938 -2.98853,-0.437668 -2.96798,-9.022768 -11.45076,-24.363078 -15.23112,-27.544038 -2.69354,-2.266465 -3.67652,-1.612386 -8.29433,5.519056 -1.46536,2.263007 -4.78267,6.619596 -7.37179,9.681311 -2.58913,3.061715 -6.27001,7.90084 -8.17974,10.753613 -1.90973,2.852768 -3.60602,5.194435 -3.76953,5.203705 -0.95284,0.054 -2.83781,-8.169081 -2.84549,-12.413266 -0.002,-1.185036 -0.31719,-2.336236 -0.76073,-2.779785 -1.496401,-1.4964 -4.010231,0.824514 -10.851805,10.019024 -1.144356,1.537915 -2.195833,2.681016 -2.336624,2.540226 -0.14079,-0.140786 1.411647,-3.577375 3.449853,-7.63686 3.888659,-7.745014 7.749556,-13.505115 12.777206,-19.062419 l 3.00765,-3.324499 0.0178,5.702962 c 0.0152,4.88227 0.13471,5.747836 0.83037,6.014787 1.25194,0.480417 3.47753,-2.455463 7.3366,-9.678074 4.54316,-8.502932 6.17933,-13.518086 6.82449,-20.918232 0.27852,-3.194832 0.50866,-7.38805 0.5114,-9.318261 0.003,-1.930212 0.13145,-3.509475 0.28601,-3.509475 0.82231,0 5.93637,3.893486 9.70524,7.388872 9.02561,8.370696 18.62117,18.960715 25.83141,28.508494 6.92967,9.176261 7.94103,9.999265 9.27482,7.547516 0.80493,-1.479603 1.09845,-11.225272 0.49929,-16.578196 -0.26813,-2.395547 -0.32952,-4.637852 -0.13642,-4.982899 0.49151,-0.878291 4.20274,2.172448 8.72,7.168114 11.29907,12.495685 14.79446,17.914665 20.13405,31.214259 7.55662,18.821683 10.88248,37.580238 10.1857,57.449638 l -0.33409,9.52715 1.60641,0.15416 1.60641,0.15416 0.24203,3.87253 c 0.21364,3.41823 0.35652,3.88893 1.21797,4.01237 1.3175,0.18879 3.31595,-1.9737 7.39655,-8.00368 l 3.35614,-4.95944 0.30752,2.24363 c 0.73823,5.38593 -0.0957,18.76499 -1.64009,26.31177 -1.90885,9.32792 -6.53437,23.10422 -10.54047,31.39295 -2.05984,4.26188 -2.14756,4.5998 -1.34612,5.18583 0.80216,0.58655 0.75543,0.77496 -0.72637,2.92868 -4.76684,6.92836 -17.36205,19.86328 -23.77826,24.4196 -9.2661,6.58009 -14.89146,7.10533 -18.06686,1.68691 -0.69293,-1.18239 -2.65167,-5.65094 -4.35275,-9.93011 -1.70108,-4.27917 -4.27581,-9.79097 -5.72162,-12.24844 -3.1684,-5.3854 -3.92745,-7.13997 -4.68795,-10.83626 -0.81648,-3.96839 -1.03779,-4.24632 -4.33977,-5.45028 -3.42375,-1.24837 -5.77301,-3.39142 -7.53978,-6.87798 -1.72775,-3.40954 -4.79982,-6.60254 -6.98132,-7.25613 -0.99446,-0.29795 -3.45858,-0.45837 -5.47582,-0.35651 -4.54705,0.22961 -6.18361,1.26351 -11.37864,7.18843 -1.98424,2.26301 -5.48578,6.15063 -7.78122,8.63917 -4.66937,5.06217 -4.81791,5.31099 -4.8656,8.15059 -0.0508,3.02509 -0.63635,4.11028 -4.174562,7.73663 -1.774613,1.81882 -3.777996,4.3962 -4.45196,5.72749 -0.673965,1.3313 -2.246088,3.94535 -3.493612,5.809 -1.24752,1.86365 -3.505095,5.50205 -5.016827,8.08531 -2.8495,4.86927 -4.405863,6.42827 -8.082239,8.0959 -2.975708,1.34982 -4.509023,1.23109 -8.541838,-0.66139 z m 108.383548,-8.88036 c 7.2948,-5.79718 15.44045,-20.87391 19.2313,-35.59509 2.69804,-10.47746 1.71382,-12.16497 -3.43573,-5.89075 -1.64171,2.00025 -3.05865,3.5631 -3.14877,3.47298 -0.0901,-0.0901 0.58591,-2.02321 1.50229,-4.29578 2.86858,-7.11396 4.67555,-15.60028 3.94311,-18.51856 -0.54422,-2.16836 -1.89375,-1.46754 -5.07361,2.63476 -1.65097,2.12989 -3.20134,3.87253 -3.44529,3.87253 -0.24395,0 -0.11668,-0.92578 0.28282,-2.05728 0.93808,-2.65689 2.92994,-10.48558 4.15669,-16.33721 0.75614,-3.6068 1.02023,-7.24692 1.22443,-16.87752 0.48116,-22.69093 -1.53112,-35.43606 -7.45207,-47.19917 -2.04417,-4.061141 -5.62458,-8.049081 -7.22653,-8.049081 -1.26847,0 -1.42218,0.432009 -1.83628,5.160724 -0.14364,1.640334 -0.94362,5.125606 -1.77773,7.745049 -2.73358,8.584558 -6.44821,15.316198 -15.8311,28.689038 -2.92219,4.16482 -3.14064,5.63236 -1.35862,9.12715 0.76011,1.49067 1.76827,2.60372 2.90439,3.20656 0.95709,0.50783 1.74016,1.10127 1.74016,1.31875 0,0.21747 0.68369,0.74895 1.51929,1.18106 3.58244,1.85255 5.25763,-1.57963 5.25763,-10.77199 v -5.4789 l 3.02541,0.007 c 1.66397,0.004 3.32744,0.19868 3.69659,0.43246 1.06277,0.67305 1.23095,4.81166 0.29685,7.30517 -0.82302,2.19704 -1.96661,5.98246 -3.77826,12.50657 -0.54238,1.95324 -1.60368,4.40382 -2.35844,5.44573 -1.22433,1.69014 -1.59378,1.89435 -3.42653,1.89401 -2.55786,-4.8e-4 -6.65829,-1.8943 -11.9539,-5.52102 -2.17453,-1.48924 -4.36534,-2.70771 -4.86845,-2.70771 -1.13497,0 -2.62776,1.95417 -5.54633,7.26053 -3.51366,6.3883 -4.08428,10.16941 -1.63151,10.81082 1.40886,0.36843 5.47817,-1.04654 11.55224,-4.0169 5.00671,-2.44839 6.40051,-2.8045 7.71733,-1.97172 0.98419,0.62242 0.77053,0.73735 -3.56566,1.91816 -4.45731,1.21378 -10.39714,3.85837 -11.39523,5.07349 -0.60392,0.73524 -0.60392,0.90371 0,1.28585 0.8946,0.56608 1.91568,0.56037 9.45887,-0.0529 l 6.24213,-0.50751 2.60175,2.70608 c 1.43095,1.48835 2.47588,2.83195 2.32206,2.98577 -0.15383,0.15382 -1.35535,-0.50993 -2.67005,-1.47501 -2.98911,-2.19421 -6.21194,-2.87611 -11.69303,-2.47406 -5.34046,0.39174 -5.80879,0.54832 -5.80879,1.94209 0,1.12645 3.27905,5.45944 6.03867,7.97959 2.00031,1.82673 3.89189,4.79973 4.78806,7.52542 0.44173,1.34349 1.77428,4.00325 2.96123,5.91056 1.18696,1.9073 2.29393,4.07552 2.45994,4.81825 0.72975,3.26481 2.89057,9.97539 4.79603,14.89436 1.3261,3.42336 2.18292,6.53024 2.3915,8.67176 0.36162,3.71286 1.96032,11.00521 2.72655,12.43691 0.70364,1.31477 2.47072,1.14723 4.44459,-0.42141 z"
     id="path243" />
</svg>
