<?xml version="1.0" encoding="UTF-8" standalone="no"?>
<svg
   xmlns:dc="http://purl.org/dc/elements/1.1/"
   xmlns:cc="http://creativecommons.org/ns#"
   xmlns:rdf="http://www.w3.org/1999/02/22-rdf-syntax-ns#"
   xmlns:svg="http://www.w3.org/2000/svg"
   xmlns="http://www.w3.org/2000/svg"
   xmlns:sodipodi="http://sodipodi.sourceforge.net/DTD/sodipodi-0.dtd"
   xmlns:inkscape="http://www.inkscape.org/namespaces/inkscape"
   cursor="default"
   viewBox="0 0 256 256"
   version="1.1"
   id="svg26"
   sodipodi:docname="alter.svg"
   inkscape:version="1.0.2-2 (e86c870879, 2021-01-15)">
  <metadata
     id="metadata32">
    <rdf:RDF>
      <cc:Work
         rdf:about="">
        <dc:format>image/svg+xml</dc:format>
        <dc:type
           rdf:resource="http://purl.org/dc/dcmitype/StillImage" />
      </cc:Work>
    </rdf:RDF>
  </metadata>
  <defs
     id="defs30" />
  <sodipodi:namedview
     pagecolor="#ffffff"
     bordercolor="#666666"
     borderopacity="1"
     objecttolerance="10"
     gridtolerance="10"
     guidetolerance="10"
     inkscape:pageopacity="0"
     inkscape:pageshadow="2"
     inkscape:window-width="1920"
     inkscape:window-height="1017"
     id="namedview28"
     showgrid="false"
     inkscape:zoom="1.450758"
     inkscape:cx="-97.695562"
     inkscape:cy="214.82741"
     inkscape:window-x="-8"
     inkscape:window-y="-8"
     inkscape:window-maximized="1"
     inkscape:current-layer="svg26" />
  <path
     style="fill:#000000;stroke-width:0.159881"
     d="m 126.10755,197.77295 c -3.71627,-2.81276 -6.47847,-5.2865 -8.2179,-7.35967 -2.63713,-3.14313 -7.1614,-10.63034 -7.82539,-12.95026 -0.29717,-1.03822 -0.28884,-1.15837 0.65082,-9.38968 0.34302,-3.00477 0.51878,-5.12649 0.43812,-5.28859 -0.0741,-0.14888 -2.90465,-3.70776 -6.29014,-7.90861 l -6.155431,-7.63791 -1.357098,0.10745 c -0.746399,0.0591 -1.375921,0.12629 -1.398937,0.14931 -0.127781,0.12777 -3.239508,10.76172 -3.239508,11.0706 0,0.42812 -0.04154,0.44065 -2.318278,0.69981 -2.398201,0.27297 -5.596825,0.89063 -7.022481,1.35607 -2.234213,0.7294 -7.685367,3.51725 -8.206811,4.19714 -0.289636,0.37765 -0.403714,0.20176 -1.323076,-2.04002 -2.207534,-5.38279 -4.008062,-9.0429 -5.308789,-10.7917 -1.268293,-1.70518 -3.575238,-3.92837 -4.609909,-4.44256 -1.315045,-0.65354 -2.616726,-0.85495 -3.944756,-0.61042 -1.478449,0.27223 -3.678988,1.22019 -5.944443,2.56078 -2.856882,1.69056 -3.964706,2.63052 -6.771811,5.74573 -0.419951,0.46605 -0.833716,0.82396 -0.919485,0.79538 -0.08575,-0.0286 -2.376785,-3.75323 -5.091146,-8.27698 l -4.935219,-8.225 -16.601807,-6.25034 -16.6017958,-6.25036 -0.7105818,-1.64034 c -0.4216432,-0.97334 -0.651953,-1.69873 -0.5663997,-1.78396 0.079286,-0.079 10.9531023,-6.54824 24.1640083,-14.37611 L 50.019132,95.000239 82.517322,81.738745 C 100.39133,74.444922 117.95374,67.278674 121.5449,65.813747 l 6.52936,-2.663503 1.06499,0.425813 c 0.58575,0.234197 18.24825,7.437771 39.25,16.007941 l 38.18503,15.582121 4.74308,2.81109 c 2.6087,1.54609 6.28996,3.729051 8.18055,4.851021 1.8906,1.12196 10.56016,6.25675 19.26569,11.41064 8.70553,5.15389 15.8867,9.46028 15.95815,9.56976 0.0787,0.12062 -0.14514,0.82683 -0.56818,1.79238 l -0.69805,1.59333 -16.60004,6.24968 -16.60004,6.24969 -4.93521,8.22499 c -2.71437,4.52375 -4.99993,8.24657 -5.07904,8.27294 -0.0791,0.0264 -0.4569,-0.29443 -0.83954,-0.7129 -0.38264,-0.41845 -1.05546,-1.15235 -1.49513,-1.63088 -1.38225,-1.50439 -3.00078,-2.77729 -5.19932,-4.08905 -6.08995,-3.63354 -8.91319,-3.67477 -12.3924,-0.18097 -1.90988,1.9179 -2.89562,3.27355 -4.13499,5.68662 -0.90594,1.76386 -2.87292,6.19067 -3.92623,8.83616 -0.41528,1.04302 -0.58666,1.21529 -0.85801,0.8625 -0.5131,-0.66707 -5.99036,-3.46183 -8.19558,-4.18176 -1.42565,-0.46544 -4.62427,-1.08312 -7.02248,-1.35609 -2.26418,-0.25771 -2.31825,-0.27373 -2.31838,-0.68643 -1e-4,-0.30441 -3.1113,-10.95588 -3.23677,-11.08134 -0.0244,-0.0244 -0.65517,-0.0932 -1.40157,-0.15294 l -1.3571,-0.10846 -6.15543,7.63847 c -3.38548,4.20116 -6.21349,7.75478 -6.28447,7.89693 -0.0734,0.14704 0.15563,2.7718 0.53128,6.08843 0.79366,7.00717 0.8335,8.05641 0.35195,9.26742 -0.48647,1.22339 -2.55746,4.98159 -4.00874,7.2746 -2.60001,4.10801 -4.7208,6.53094 -8.33683,9.52458 -2.43782,2.01821 -5.39909,4.30515 -5.57457,4.30515 -0.0773,0 -1.10305,-0.72843 -2.27933,-1.61873 z m 1.93829,-31.95633 V 133.04097 H 113.12642 98.206997 l -1.53201,3.47874 -1.532011,3.47874 -0.116919,1.95894 -0.116919,1.95895 -0.917321,0.91759 -0.917311,0.9176 -0.585406,2.63454 c -0.540286,2.43148 -0.758462,3.07237 -0.972883,2.85795 -0.04513,-0.0451 -0.396411,-1.75736 -0.780658,-3.805 l -0.698632,-3.72297 1.796804,-4.65805 1.796794,-4.65804 -0.264342,-0.71947 -0.264343,-0.71946 -15.823272,-0.0816 c -15.657601,-0.0808 -15.848032,-0.0855 -18.18862,-0.45921 -1.300942,-0.20766 -2.40098,-0.34194 -2.444531,-0.2984 -0.04359,0.0436 0.939086,1.83302 2.183615,3.97661 l 2.262788,3.89743 0.55764,2.28074 c 0.306704,1.25441 0.52011,2.37857 0.474221,2.49815 -0.0518,0.13501 -0.482036,0.26009 -1.135323,0.33004 l -1.051903,0.11265 -1.621646,-1.34946 -1.621636,-1.34946 -2.277004,-5.57387 -2.277005,-5.57387 L 38.8106,129.4168 c -7.330722,-1.07468 -13.411132,-1.92705 -13.51205,-1.89416 -0.100928,0.0329 -0.887022,1.23403 -1.746914,2.66918 -0.859893,1.43516 -1.657803,2.75729 -1.773132,2.93808 -0.203262,0.31863 0.01682,0.41351 7.182879,3.09675 4.767611,1.78517 7.506107,2.89109 7.712333,3.11455 0.175866,0.19056 2.433403,3.87331 5.016742,8.18387 l 4.696981,7.8374 2.337787,-2.32729 c 2.50074,-2.48949 3.898138,-3.48495 7.204019,-5.13187 3.530292,-1.75872 5.720144,-1.98505 8.135904,-0.84087 1.200403,0.56855 4.100242,3.46517 5.348524,5.34259 1.070601,1.6102 2.547748,4.62555 4.297544,8.77275 0.68693,1.62807 1.30406,2.94771 1.371418,2.93253 0.06739,-0.0152 0.913864,-0.47727 1.881147,-1.02686 4.664969,-2.65056 7.388757,-3.54502 13.005418,-4.27086 l 2.133489,-0.27571 1.673454,-5.59324 c 0.920399,-3.07629 1.762721,-5.68435 1.871824,-5.79568 0.128028,-0.13064 0.760718,-0.21568 1.784148,-0.23981 l 1.585767,-0.0374 6.360038,7.88726 c 4.11764,5.1064 6.36004,8.01308 6.36004,8.2441 0,0.19625 -0.29027,2.90633 -0.64505,6.02239 -0.35477,3.11607 -0.65927,6.24115 -0.67664,6.94462 -0.0292,1.1821 0.0144,1.37602 0.57491,2.55811 1.41315,2.98008 4.62287,8.20467 6.58094,10.71204 1.75561,2.24814 4.94188,5.19176 8.79496,8.12521 0.87935,0.66947 1.61681,1.21962 1.63879,1.22254 0.022,0.003 0.04,-14.74374 0.04,-32.77035 z m 2.9578,31.01694 c 3.98042,-3.08821 6.76749,-5.73881 8.57379,-8.15392 1.92372,-2.57212 4.45939,-6.78086 5.87582,-9.75275 0.91185,-1.91323 0.91177,-1.81206 0.008,-9.87064 l -0.68536,-6.11342 0.48137,-0.68154 c 0.26478,-0.37483 1.41939,-2.94784 2.56583,-5.71778 l 2.08444,-5.03626 0.40509,-9.11323 c 0.22281,-5.01227 0.39407,-9.12178 0.38059,-9.13221 -0.0134,-0.0105 -5.00682,-0.0696 -11.09629,-0.13162 l -11.07178,-0.11264 v 32.68078 c 0,17.97442 0.0473,32.72812 0.1052,32.78598 0.0579,0.0579 0.18377,0.045 0.2798,-0.0285 0.096,-0.0735 1.03794,-0.80353 2.09316,-1.62224 z m 51.66574,-35.04747 c 2.37455,-5.67476 3.9019,-8.63604 5.42906,-10.52618 l 0.87045,-1.07734 0.48524,-6.13262 0.48524,-6.1326 -0.79133,-2.23834 -0.79132,-2.23834 -7.49227,-0.11755 c -4.12075,-0.0646 -11.95296,-0.10062 -17.40492,-0.0799 l -9.91264,0.0376 -0.10649,6.31531 c -0.0586,3.47342 -0.18017,7.28659 -0.27019,8.4737 -0.15658,2.06476 -0.14849,2.19197 0.18645,2.93212 l 0.35012,0.77371 1.91858,-2.40095 c 1.05521,-1.32052 1.99051,-2.43081 2.07846,-2.46729 0.29274,-0.12147 3.03469,0.23561 3.23011,0.42066 0.10579,0.10021 0.91947,2.62836 1.80819,5.61814 0.88869,2.98977 1.63878,5.50902 1.66684,5.59833 0.028,0.0893 1.049,0.2886 2.26877,0.44289 2.91219,0.36836 5.06934,0.81172 6.93427,1.42519 1.48142,0.48732 5.5178,2.44298 7.11097,3.44533 0.43761,0.27533 0.82441,0.47184 0.85956,0.4367 0.0352,-0.0352 0.52421,-1.16399 1.08685,-2.50854 z m -32.47987,-5.64445 3.15749,-3.91926 -0.41698,-0.96146 -0.41699,-0.96148 0.23551,-3.87276 c 0.12953,-2.13003 0.23624,-5.97722 0.23715,-8.54931 l 0.002,-4.67652 h -0.86044 -0.86044 l -0.0973,1.31902 c -0.0536,0.72547 -0.25096,4.87632 -0.43876,9.22415 l -0.34144,7.90513 -1.4362,3.44644 c -1.72753,4.1455 -2.05418,4.96531 -1.97848,4.96531 0.0318,0 1.47864,-1.76367 3.21525,-3.91926 z m 64.9592,-8.88636 c 2.56093,-4.27314 4.74903,-7.84224 4.86245,-7.93135 0.11342,-0.0891 7.54476,-2.91721 16.5141,-6.28471 8.96934,-3.3675 16.39099,-6.20164 16.49259,-6.29809 0.10154,-0.0964 0.403,-0.6943 0.66985,-1.32856 l 0.48514,-1.15322 -0.43002,0.08 c -2.13355,0.39701 -60.03161,9.02136 -60.5633,9.02136 -0.38584,0 -0.70153,0.0515 -0.70153,0.11446 0,0.063 0.28116,1.01625 0.62482,2.11843 0.60746,1.94822 0.62757,2.08846 0.72298,5.04171 0.0539,1.67075 0.13977,3.68526 0.1906,4.47667 l 0.0924,1.43893 1.38295,0.001 c 2.16886,0.002 4.44294,0.89849 8.33777,3.28623 1.36615,0.83752 2.11045,1.46096 3.99702,3.348 1.91497,1.91541 2.34852,2.27701 2.4921,2.07846 0.0956,-0.13221 2.2691,-3.73659 4.83004,-8.00974 z m -122.947482,0.23541 0.464404,-2.08729 0.883238,-0.86516 0.883237,-0.86517 0.112006,-1.89769 0.111996,-1.8977 1.487198,-3.37838 c 1.01427,-2.30406 1.429666,-3.41574 1.306296,-3.49585 -0.180113,-0.11696 -3.778224,-0.17649 -3.778224,-0.0626 0,0.0329 0.109636,0.37061 0.243644,0.75042 l 0.243654,0.69058 -1.762526,4.57891 c -0.969385,2.5184 -1.764485,4.71682 -1.766874,4.88539 -0.0051,0.36572 1.003684,5.83564 1.065031,5.77431 0.02339,-0.0234 0.251511,-0.98182 0.50692,-2.12984 z m 99.557282,0.19522 c 0.43968,-0.28456 1.04076,-0.61422 1.33574,-0.73259 l 0.53633,-0.21521 -0.0937,-1.2927 c -0.0516,-0.71098 -0.14045,-2.78286 -0.19755,-4.60416 l -0.10383,-3.31148 -0.66704,-2.04455 -0.66702,-2.04455 -1.47042,-0.046 c -0.86717,-0.0271 -1.4704,0.0171 -1.4704,0.1079 0,0.0846 0.33258,1.10987 0.73908,2.27833 l 0.73908,2.12448 -0.42305,5.36199 c -0.23267,2.94909 -0.42138,5.55695 -0.41932,5.79524 l 0.004,0.43327 0.6795,-0.6463 c 0.37372,-0.35548 1.03922,-0.87913 1.4789,-1.1637 z M 61.64626,144.49306 c 0.01713,-0.0162 -0.216504,-1.01194 -0.519105,-2.21276 -0.548019,-2.17474 -0.559373,-2.19922 -2.890483,-6.23094 -1.287167,-2.22619 -2.349983,-4.06098 -2.361799,-4.07731 -0.04195,-0.0579 -3.041477,-0.51493 -3.086218,-0.47019 -0.05262,0.0526 4.123627,10.30764 4.325341,10.6212 0.07385,0.11477 0.785693,0.75088 1.5819,1.41357 1.446119,1.20361 1.448448,1.20478 2.183482,1.09538 0.404688,-0.0602 0.749794,-0.12275 0.766882,-0.13895 z M 22.899898,130.31158 c 0.953292,-1.5891 1.70842,-2.91112 1.678049,-2.93782 -0.03036,-0.0267 -0.547219,-0.11777 -1.148554,-0.20237 l -1.093351,-0.15381 -1.065042,1.21525 c -1.761736,2.01019 -3.065068,3.59935 -3.091059,3.7689 -0.02451,0.15971 2.291057,1.15912 2.746169,1.18529 0.147772,0.008 0.90892,-1.10037 1.973788,-2.87544 z m 165.181012,2.28972 c -0.063,-0.15389 -0.39158,-1.09539 -0.73027,-2.09222 l -0.61581,-1.81242 0.63325,-1.40632 c 0.34827,-0.77347 0.63322,-1.44861 0.63322,-1.5003 0,-0.0517 -0.64345,-1.38911 -1.42989,-2.97205 l -1.4299,-2.87808 0.54471,-1.61751 0.54474,-1.61752 -4.65597,-11.61726 c -2.56079,-6.389491 -4.6901,-11.824281 -4.73182,-12.077308 -0.0509,-0.308981 -0.0137,-0.439347 0.11322,-0.397026 0.10398,0.03467 2.61363,4.714693 5.57701,10.400084 2.96338,5.68539 5.43176,10.25279 5.48529,10.14978 0.0535,-0.103 0.62335,-1.89601 1.26624,-3.98446 0.72253,-2.34715 1.24637,-3.79718 1.37178,-3.79718 0.22163,0 0.24579,0.13373 0.6927,3.83393 l 0.29893,2.47495 -1.02411,4.45673 c -0.56326,2.4512 -1.02411,4.58406 -1.02411,4.7397 0,0.15564 0.33331,0.99345 0.74068,1.8618 l 0.74067,1.57882 -0.18879,1.9694 -0.1888,1.9694 0.76301,2.30743 0.76302,2.30741 0.64365,0.009 c 0.76893,0.0106 60.83893,-8.99942 60.83893,-9.12535 0,-0.12187 -33.29256,-19.83806 -33.3691,-19.76152 -0.0343,0.0343 -0.34377,1.73977 -0.68785,3.79006 l -0.62558,3.72779 0.47839,2.95844 c 0.71011,4.3914 0.55651,4.41806 -1.37731,0.23902 l -1.26522,-2.73414 -1.98624,-0.6575 c -1.09242,-0.36163 -2.03514,-0.62726 -2.09495,-0.59029 -0.0598,0.0369 -0.88668,1.94091 -1.83751,4.23101 -1.05487,2.54071 -1.81305,4.16382 -1.94501,4.16382 -0.11893,0 -0.21404,-0.09 -0.21134,-0.19985 0.0285,-1.16036 1.27496,-12.17578 1.3909,-12.29171 0.0998,-0.0997 1.33108,0.28104 3.46406,1.07123 1.82014,0.67429 3.33637,1.19894 3.36941,1.16589 0.0847,-0.0847 0.92516,-6.3879 0.85865,-6.43985 -0.0301,-0.0235 -2.63619,-1.56885 -5.7914,-3.434201 l -5.73678,-3.39192 -22.70595,-9.267168 c -12.48827,-5.096946 -22.71965,-9.247922 -22.7364,-9.224389 -0.0167,0.02353 0.13635,1.090294 0.34022,2.370585 l 0.37067,2.3278 -1.69234,3.268044 c -2.0108,3.883035 -2.12142,4.068091 -2.31566,3.873855 -0.0906,-0.09057 0.19387,-1.556477 0.73362,-3.781541 l 0.88145,-3.633706 -0.81075,-2.909346 c -0.44591,-1.60014 -0.82331,-2.918698 -0.83865,-2.930129 -0.0201,-0.01494 -27.19128,-11.110537 -29.03296,-11.855842 -0.19508,-0.07895 -0.2117,3.959441 -0.12006,29.153956 0.0585,16.085092 0.10645,31.554912 0.10653,34.377382 l 1.6e-4,5.13177 11.04658,0.1162 c 6.07563,0.0639 11.06625,0.0929 11.09026,0.0644 0.024,-0.0285 0.0817,-0.63415 0.12827,-1.34586 l 0.0846,-1.29403 -3.9993,-3.24175 -3.99931,-3.24175 0.0858,-0.66036 c 0.0472,-0.3632 0.35581,-3.51055 0.68589,-6.9941 l 0.60016,-6.33374 -2.38551,-2.591 c -1.31203,-1.42504 -2.40463,-2.64324 -2.428,-2.7071 -0.0234,-0.0639 1.01255,-1.65955 2.30204,-3.546 1.28948,-1.886441 2.37554,-3.577861 2.41345,-3.758691 0.0382,-0.18211 -0.54298,-1.82799 -1.30277,-3.68944 -0.75444,-1.848353 -1.37171,-3.409129 -1.37171,-3.468384 0,-0.392072 0.65746,0.116161 2.08399,1.610974 0.90211,0.945302 3.10454,3.23833 4.8943,5.09561 1.78976,1.85729 3.25244,3.476081 3.2504,3.597331 -0.002,0.12125 -0.55489,0.5442 -1.22856,0.93991 -1.2216,0.71756 -1.22582,0.72237 -1.59081,1.81708 -0.20128,0.60368 -0.44223,1.18951 -0.53545,1.30183 -0.0932,0.11233 -0.782,0.39519 -1.53061,0.6286 l -1.36113,0.42438 0.51826,0.91183 c 0.28505,0.5015 0.90901,1.55881 1.38655,2.34957 l 0.86828,1.43774 -0.18163,5.11739 c -0.0999,2.81456 -0.22061,5.62101 -0.26826,6.23656 l -0.0867,1.11917 3.28853,2.45771 c 1.80869,1.35174 3.31598,2.50289 3.34954,2.5581 0.0335,0.0552 -0.10948,1.17958 -0.31787,2.49861 -0.20839,1.31901 -0.38093,2.48775 -0.38342,2.59718 -0.003,0.1569 2.92827,0.2078 13.86519,0.24072 7.62833,0.023 15.40625,0.0593 17.28428,0.0808 3.19754,0.0366 3.4073,0.0213 3.30009,-0.24071 z m 3.55012,0.0668 c -0.0449,-0.11719 -0.383,-1.17144 -0.75116,-2.34278 l -0.66939,-2.12972 0.19037,-1.8541 0.19036,-1.8541 -0.78939,-1.73979 -0.78938,-1.7398 0.70144,-3.05665 c 1.54051,-6.71327 1.46102,-6.12118 1.15715,-8.61745 -0.14752,-1.21181 -0.29962,-2.2347 -0.33799,-2.27308 -0.0384,-0.0384 -0.56678,1.54906 -1.1742,3.52763 -0.85711,2.79183 -1.15962,3.58708 -1.35088,3.55125 -0.1445,-0.0271 -1.92752,-3.27095 -4.30941,-7.84021 -2.23459,-4.28672 -4.0857,-7.771281 -4.11352,-7.743441 -0.0278,0.0278 1.57446,4.111141 3.56068,9.073991 l 3.6113,9.02338 -0.53104,1.64668 -0.53105,1.64668 1.45059,2.90993 1.45058,2.90993 -0.6839,1.50647 -0.68389,1.50646 0.28422,0.73187 c 0.15631,0.40254 0.48004,1.32544 0.7194,2.0509 l 0.43516,1.31902 h 1.52285 c 1.20298,0 1.50568,-0.0447 1.4411,-0.21307 z M 153.279,131.56215 c 0.46923,-3.18668 0.56461,-3.95257 0.4991,-4.0079 -0.0392,-0.0331 -1.53231,-1.15484 -3.31797,-2.49269 l -3.24665,-2.43246 0.0947,-1.86877 c 0.12787,-2.5247 0.40195,-9.40627 0.40258,-10.10842 3.2e-4,-0.4245 -0.35801,-1.17557 -1.43841,-3.01435 -0.79141,-1.34693 -1.43893,-2.51137 -1.43893,-2.58764 0,-0.0763 0.71495,-0.36077 1.58878,-0.63226 l 1.58878,-0.49359 0.42457,-1.27486 0.42457,-1.27487 1.10162,-0.59444 c 0.6059,-0.32695 1.10285,-0.65414 1.10433,-0.72709 0.002,-0.123361 -1.75235,-1.968481 -6.45106,-6.782841 -1.05166,-1.077537 -1.92904,-1.940897 -1.94973,-1.918578 -0.0207,0.02236 0.46696,1.30604 1.08367,2.852708 l 1.12129,2.81211 -2.41662,3.531541 c -1.32915,1.94235 -2.4128,3.59074 -2.4081,3.66308 0.005,0.0723 1.0457,1.24671 2.31334,2.60969 2.16828,2.33138 2.30483,2.51605 2.3054,3.11769 3.3e-4,0.35174 -0.28044,3.51739 -0.62397,7.03478 l -0.62459,6.39524 0.42907,0.34233 c 0.23598,0.18829 2.01189,1.63393 3.94645,3.21257 l 3.51739,2.87024 -0.0564,1.46395 -0.0564,1.46397 h 0.95626 0.95627 z M 127.93986,98.226829 c -0.054,-18.883972 -0.11456,-34.354875 -0.13464,-34.379783 -0.0371,-0.04606 -42.272618,17.164056 -42.375885,17.267317 -0.03098,0.03102 -0.121535,0.809309 -0.201149,1.729527 l -0.144757,1.673123 -2.021339,2.681295 -2.021329,2.681297 v 1.172458 c 0,1.05656 -0.0718,1.326143 -0.726316,2.726736 l -0.726306,1.55425 0.766277,0.85986 c 0.421458,0.47291 1.47929,1.62151 2.350732,2.55243 0.961056,1.02663 1.526759,1.750281 1.4378,1.839241 -0.08893,0.0889 -1.089792,-0.20314 -2.543737,-0.742381 l -2.397093,-0.88904 -1.319948,0.69604 -1.319948,0.696051 -1.385162,2.31828 c -0.761846,1.27505 -1.478592,2.46402 -1.592783,2.64215 -0.182964,0.28543 -0.12336,0.47168 0.502048,1.56899 l 0.709648,1.2451 -0.198185,1.38723 c -0.141566,0.9909 -0.26583,1.39855 -0.434967,1.42692 -0.143854,0.0241 -0.978319,-0.97001 -2.126145,-2.53298 l -1.889374,-2.57272 3.243365,-5.68529 3.243364,-5.685291 0.224956,-1.68657 0.224955,-1.686573 2.378108,-3.705223 c 1.307968,-2.037878 2.37701,-3.839324 2.375666,-4.003212 -0.0072,-0.839412 0.185056,-0.906981 -14.789524,5.205936 -7.985394,3.259791 -14.535839,5.945032 -14.556537,5.967212 -0.02072,0.0222 0.03816,0.93965 0.130889,2.03883 0.160911,1.90814 0.152952,2.02895 -0.175876,2.67165 -0.189426,0.37021 -0.344419,0.753971 -0.344419,0.852801 0,0.0988 0.683493,1.11774 1.518872,2.26427 l 1.518871,2.08457 v 1.33944 c 0,0.86524 -0.06205,1.33944 -0.175373,1.33944 -0.176902,0 -6.089692,-5.53581 -6.198508,-5.80333 -0.03221,-0.0792 0.245562,-0.92016 0.617305,-1.868781 l 0.675882,-1.72478 -0.217601,-0.97094 -0.217602,-0.97093 -23.382633,13.858131 c -12.860446,7.62198 -23.38254,13.89643 -23.3824272,13.94323 1.231e-4,0.0468 4.1550339,0.68671 9.2331432,1.42203 5.078119,0.7353 9.412804,1.3684 9.632641,1.40688 0.338726,0.0593 0.56881,-0.13132 1.508256,-1.24954 0.840496,-1.00044 1.511753,-2.09455 2.775893,-4.52457 1.861679,-3.57865 5.440231,-9.50049 5.748391,-9.51256 0.321659,-0.0126 0.251224,0.31689 -0.767169,3.58846 -0.76001,2.44154 -1.341775,3.89972 -2.717634,6.81165 -0.962831,2.03778 -1.970762,4.06287 -2.239833,4.50017 -0.269081,0.4373 -0.449306,0.83501 -0.400514,0.88381 0.07765,0.0776 25.601327,3.86173 26.104974,3.87021 0.123371,0.002 -0.0021,-0.46315 -0.343362,-1.27207 l -0.537875,-1.27534 1.276274,-2.8416 1.276284,-2.84159 0.90571,-4.47668 c 0.686837,-3.39478 0.961909,-4.47667 1.138215,-4.47667 0.159855,0 0.619213,1.12403 1.470121,3.59732 0.680693,1.97854 1.241574,3.7244 1.246405,3.87971 0.0051,0.15531 -0.710684,1.99971 -1.590024,4.09866 -0.87935,2.09896 -1.598814,3.92727 -1.598814,4.06293 0,0.13566 0.259091,0.68158 0.575764,1.21318 0.468025,0.78568 0.669954,0.98275 1.079197,1.05318 0.276886,0.0476 1.704009,0.26537 3.171381,0.48385 l 2.667948,0.39721 H 77.73928 93.004143 l -0.890694,-2.68223 -0.890694,-2.68221 4.358357,-5.35182 c 2.397104,-2.94349 4.458918,-5.37506 4.581818,-5.40349 0.1229,-0.0284 0.22346,0.0603 0.22346,0.19712 0,0.13685 -1.22674,2.63468 -2.726068,5.55075 -1.499343,2.91606 -2.704454,5.42036 -2.678011,5.56511 0.02646,0.14474 0.659594,1.28141 1.40704,2.52594 l 1.358996,2.26278 1.998513,0.0543 c 1.09919,0.0298 7.91435,0.0698 15.14483,0.0889 l 13.1463,0.0348 z M 97.138006,132.28153 c -0.03826,-0.0659 -0.698365,-1.15066 -1.466827,-2.41047 l -1.397204,-2.29058 1.799933,-3.54509 c 0.989951,-1.94981 2.04768,-3.99476 2.350496,-4.54436 0.302816,-0.54959 0.512971,-0.99925 0.46702,-0.99925 -0.192082,0 -7.035538,8.57415 -7.018501,8.79347 0.01939,0.24919 1.458776,4.7853 1.585449,4.99628 0.03959,0.066 0.899372,0.11991 1.910626,0.11991 1.011245,0 1.807308,-0.054 1.769008,-0.11991 z m -77.570472,-2.81418 c 1.115865,-1.30597 1.967808,-2.42849 1.89321,-2.49448 -0.07457,-0.0659 -4.236587,-0.71144 -9.248857,-1.43433 -5.0122801,-0.72288 -9.2739966,-1.35259 -9.470479,-1.39933 -0.3320692,-0.079 -0.3457007,-0.0528 -0.1934976,0.37137 0.090056,0.25101 0.358727,0.84723 0.5970578,1.32492 l 0.4333259,0.86853 6.8748929,2.5925 c 3.781188,1.42588 6.92228,2.5819 6.980201,2.56892 0.05795,-0.013 1.018281,-1.09212 2.134146,-2.3981 z m 35.491818,1.13543 c -0.815254,-1.32359 -0.869965,-0.99763 0.855636,-5.09815 0.874416,-2.07787 1.63738,-3.92772 1.695486,-4.1108 0.142951,-0.45039 -2.003339,-6.7487 -2.153952,-6.32081 -0.05826,0.16559 -0.413212,1.88389 -0.788719,3.81846 -0.6682,3.44241 -0.710151,3.57965 -1.967983,6.43825 l -1.285228,2.92087 0.428382,1.09188 c 0.235612,0.60055 0.516253,1.2096 0.623623,1.35346 0.189046,0.25328 1.395942,0.52923 2.482605,0.56764 l 0.528675,0.0187 z m -29.373796,-4.95632 c 1.332851,-2.33989 3.856597,-7.94426 4.501678,-9.99663 0.357947,-1.13884 0.650814,-2.13194 0.650814,-2.20688 0,-0.35542 -2.702279,4.21601 -4.301739,7.27723 -1.338472,2.56173 -2.050357,3.73293 -2.818193,4.63656 l -1.027368,1.20904 0.516295,0.0989 c 0.283964,0.0544 0.809233,0.10834 1.167273,0.11991 0.646824,0.0209 0.655194,0.0136 1.31124,-1.13809 z M 210.95542,113.65537 c 0.7768,-1.86861 1.47857,-3.44313 1.5595,-3.49891 0.17587,-0.12126 4.4298,1.26124 4.67704,1.52002 0.0947,0.0991 0.56135,1.0206 1.03702,2.04771 0.47565,1.02712 0.887,1.84531 0.9141,1.81819 0.0271,-0.0271 -0.0981,-0.91321 -0.27824,-1.96911 l -0.32757,-1.91981 0.6402,-3.92988 c 0.35211,-2.16143 0.6402,-3.96743 0.6402,-4.01332 0,-0.13716 -1.30261,-0.91657 -1.38844,-0.83075 -0.0436,0.0436 -0.26198,1.50566 -0.48539,3.24914 -0.22343,1.74347 -0.46362,3.23313 -0.53374,3.31033 -0.071,0.0782 -1.59542,-0.40342 -3.44071,-1.08704 -1.82227,-0.67508 -3.36272,-1.16993 -3.42321,-1.09966 -0.0605,0.0703 -0.30734,2.17823 -0.54855,4.68436 -0.24121,2.50614 -0.47348,4.68252 -0.51617,4.83641 -0.24407,0.87989 0.22173,-0.10535 1.47396,-3.11768 z M 74.149928,108.76589 c 0.01221,-0.52905 -0.141925,-0.98388 -0.652609,-1.92622 l -0.668549,-1.23361 1.676418,-2.79029 1.676419,-2.79028 1.35037,-0.747261 c 0.742717,-0.411 1.46613,-0.75274 1.607594,-0.75944 0.141454,-0.007 1.034302,0.27611 1.984086,0.62845 0.949785,0.35235 1.74872,0.61879 1.775398,0.59211 0.02667,-0.0267 -0.812197,-0.95625 -1.864182,-2.06572 -1.051975,-1.10947 -1.912688,-2.12628 -1.912688,-2.25959 0,-0.1333 0.323751,-0.93992 0.719465,-1.79249 0.64623,-1.392356 0.719464,-1.669396 0.719464,-2.721812 v -1.171668 l 1.900472,-2.542245 c 1.045256,-1.398236 1.970988,-2.678643 2.057177,-2.845352 0.182338,-0.352699 0.379446,-2.940519 0.224115,-2.942436 -0.342296,-0.0042 -2.58295,1.053346 -2.58295,1.219125 0,0.110155 0.06831,0.380005 0.151845,0.599668 0.134786,0.354532 -0.124489,0.830155 -2.308658,4.235062 l -2.460512,3.835672 -0.205755,1.648684 -0.205754,1.648692 -3.098393,5.429431 c -1.704122,2.98618 -3.13343,5.52073 -3.176253,5.63232 -0.04287,0.11158 0.630321,1.16939 1.495865,2.35067 1.69724,2.31635 1.761367,2.34376 1.797615,0.76853 z M 54.660356,105.4178 c 0,-0.71237 -0.106354,-0.91046 -1.598814,-2.9782 -0.87935,-1.21829 -1.598814,-2.24426 -1.598814,-2.27994 0,-0.0357 0.188646,-0.437141 0.419222,-0.892161 0.410791,-0.81067 0.416146,-0.86196 0.266055,-2.55318 -0.08421,-0.94925 -0.200205,-1.77295 -0.257706,-1.83046 -0.09867,-0.0987 -1.311496,0.35342 -1.601163,0.5969 -0.07395,0.0622 -0.05108,0.64244 0.05077,1.2896 l 0.185149,1.17667 -0.650343,1.58529 c -0.357681,0.871901 -0.650333,1.603041 -0.650333,1.624751 0,0.0668 5.29767,5.02385 5.369018,5.02385 0.03682,0 0.06698,-0.3434 0.06698,-0.76312 z m 105.329774,-21.540312 1.12356,-2.238337 -0.21429,-1.27905 c -0.11784,-0.703477 -0.29629,-1.790463 -0.39653,-2.415527 l -0.18227,-1.136475 -1.0286,-0.408105 c -0.56573,-0.22446 -1.02861,-0.342738 -1.02861,-0.262844 0,0.07989 0.33097,1.339419 0.73548,2.798943 l 0.73548,2.653678 -0.5756,2.299312 c -0.31658,1.264621 -0.57559,2.351332 -0.57559,2.414913 0,0.280663 0.35795,-0.336677 1.40697,-2.426508 z"
     id="path48" />
  <path
     style="fill:#ff5555;fill-opacity:1;stroke-width:0.0430809"
     d="m 94.479066,132.35495 c -0.474764,-0.0153 -0.881114,-0.0479 -0.931019,-0.0746 -0.09703,-0.0519 -0.16558,-0.23356 -0.653236,-1.73093 -0.259294,-0.79617 -0.791383,-2.51131 -0.958404,-3.08931 l -0.0524,-0.18134 0.273016,-0.37871 c 0.948857,-1.31619 5.353013,-6.84122 6.324611,-7.93426 0.155445,-0.17487 0.289767,-0.29653 0.298493,-0.27035 0.0087,0.0262 -0.148125,0.35342 -0.348556,0.72722 -0.810407,1.51136 -4.165523,8.07771 -4.165523,8.1524 0,0.023 0.638167,1.0892 1.418148,2.36933 0.779982,1.28014 1.399515,2.33904 1.37674,2.35312 -0.02277,0.0141 -0.307139,0.0341 -0.631921,0.0444 -0.324782,0.0103 -0.706831,0.0236 -0.848999,0.0295 -0.142167,0.006 -0.637593,-0.002 -1.100948,-0.0165 z"
     id="path50" />
  <path
     style="fill:#ff5555;fill-opacity:1;stroke-width:0.0430809"
     d="m 91.665668,149.43323 c -0.164491,-0.65622 -0.747918,-3.79659 -0.954206,-5.13613 l -0.07113,-0.46186 0.21936,-0.64831 c 0.299376,-0.88481 1.091822,-3.00073 2.305881,-6.15696 l 1.017577,-2.64543 -0.244813,-0.70506 c -0.134647,-0.38778 -0.230646,-0.71917 -0.213331,-0.73642 0.04513,-0.045 2.858819,-0.0236 3.311018,0.0252 0.208444,0.0225 0.390257,0.0521 0.404028,0.0659 0.10305,0.10305 -0.374839,1.30396 -1.866887,4.69139 l -0.934756,2.1222 -0.112932,1.90632 -0.112932,1.90633 -0.889046,0.87239 -0.889047,0.8724 -0.413169,1.85248 c -0.227242,1.01886 -0.439145,1.94941 -0.470895,2.06788 -0.05045,0.18827 -0.06113,0.20184 -0.08472,0.1077 z"
     id="path52" />
  <path
     style="fill:#ff5555;fill-opacity:1;stroke-width:0.0430809"
     d="m 60.142398,144.58704 c -0.07699,-0.0335 -0.232078,-0.12412 -0.344647,-0.20146 -0.287584,-0.19759 -1.899997,-1.54927 -2.323021,-1.94738 l -0.352032,-0.3313 -0.387446,-0.91418 c -1.217602,-2.87293 -3.948705,-9.63115 -3.908392,-9.67146 0.01864,-0.0186 1.9886,0.26821 2.558597,0.37256 0.244815,0.0448 0.459882,0.0983 0.477925,0.11887 0.04579,0.0522 3.181272,5.48107 3.666755,6.34875 0.582355,1.04081 0.95545,1.82458 1.15686,2.43025 0.132869,0.39956 0.753653,2.8163 0.927227,3.60974 0.0126,0.0576 -0.03142,0.0828 -0.205559,0.11753 -0.722313,0.14421 -1.050509,0.16186 -1.266267,0.0681 z"
     id="path54" />
  <path
     style="fill:#ff5555;fill-opacity:1;stroke-width:0.0430809"
     d="m 54.617232,131.2198 c -0.813631,-0.0639 -1.731286,-0.26773 -1.993548,-0.44291 -0.185132,-0.12366 -0.345066,-0.43645 -0.802886,-1.57023 l -0.382163,-0.94642 0.623328,-1.41513 c 1.930761,-4.38338 1.908401,-4.31656 2.578352,-7.70495 0.517762,-2.61866 0.7987,-3.95743 0.839603,-4.00099 0.162514,-0.17308 1.837586,4.60974 2.067441,5.90315 l 0.05476,0.30816 -0.204083,0.51037 c -0.112245,0.28071 -0.621742,1.50878 -1.132214,2.72905 -1.732351,4.14112 -1.746663,4.17983 -1.752125,4.7389 -0.0032,0.32357 0.0108,0.39357 0.119935,0.60146 0.106564,0.20299 0.545207,0.92994 0.746509,1.23716 0.06525,0.0996 0.06472,0.1 -0.122514,0.094 -0.103427,-0.003 -0.391606,-0.0221 -0.640398,-0.0416 z"
     id="path56" />
  <path
     style="fill:#ff5555;fill-opacity:1;stroke-width:0.0430809"
     d="m 54.193603,105.79587 c -1.504073,-1.37213 -4.932767,-4.60207 -4.932767,-4.64682 0,-0.031 0.489144,-1.249688 1.008408,-2.512477 l 0.282235,-0.686362 -0.104649,-0.649147 c -0.164938,-1.023116 -0.212351,-1.592675 -0.144248,-1.732818 0.06787,-0.139655 0.464638,-0.350615 1.005301,-0.534508 0.526365,-0.179031 0.563573,-0.174054 0.618647,0.08275 0.06441,0.300317 0.210293,1.643854 0.257941,2.375508 0.0606,0.930531 0.02428,1.086257 -0.494623,2.121018 -0.127537,0.254322 -0.231884,0.492866 -0.231884,0.530106 0,0.0876 0.145792,0.30164 1.422057,2.08778 1.197544,1.67597 1.510944,2.15258 1.641633,2.49656 0.103888,0.27344 0.149889,0.85122 0.09528,1.19679 l -0.03561,0.22534 z"
     id="path58" />
  <path
     style="fill:#ff5555;fill-opacity:1;stroke-width:0.0430809"
     d="m 73.669666,109.64043 c -0.619628,-0.62199 -2.767843,-3.68873 -2.767843,-3.9513 0,-0.10972 1.340182,-2.49294 5.164273,-9.183499 l 1.084969,-1.898244 0.208528,-1.655933 0.208528,-1.655932 1.699227,-2.649477 c 2.718922,-4.23941 3.095201,-4.877605 3.093446,-5.246698 -3.02e-4,-0.06428 -0.03908,-0.23977 -0.08616,-0.389972 -0.04708,-0.150202 -0.08561,-0.306575 -0.08561,-0.347496 0,-0.04533 0.105195,-0.137443 0.269256,-0.235762 0.550504,-0.329907 1.924006,-0.946641 2.186357,-0.981725 l 0.107702,-0.0144 -0.0071,0.710835 c -0.0069,0.689683 -0.09961,1.65504 -0.192046,2.000462 -0.06861,0.256396 -0.571727,0.965825 -2.811717,3.964738 l -1.189481,1.592486 -3.45e-4,0.755425 c -6.29e-4,1.342358 -0.07252,1.680443 -0.614092,2.887931 -0.415004,0.925287 -0.668855,1.527599 -0.769507,1.825806 l -0.08551,0.253352 0.147458,0.220538 c 0.19837,0.296682 0.834763,1.030762 1.656767,1.911079 0.372703,0.399144 0.889969,0.957515 1.14948,1.240825 0.259511,0.28331 0.539355,0.587452 0.621874,0.675871 0.08252,0.08842 0.137625,0.173175 0.122454,0.188345 -0.03307,0.03307 -0.427185,-0.09503 -1.6895,-0.549166 -1.097055,-0.394678 -1.75082,-0.596939 -1.929482,-0.596939 -0.194242,0 -0.721956,0.247128 -1.908395,0.8937 l -1.086717,0.592227 -1.683413,2.805713 -1.683413,2.80572 0.348366,0.64094 c 0.499731,0.91942 0.742661,1.41669 0.86033,1.76104 0.09084,0.26585 0.102704,0.37556 0.100141,0.92624 -0.0029,0.62654 -0.04792,0.85127 -0.179032,0.89396 -0.02898,0.009 -0.145869,-0.0764 -0.259746,-0.19069 z"
     id="path60" />
  <path
     style="fill:#ff5555;fill-opacity:1;stroke-width:0.0430809"
     d="m 23.857449,126.72955 c -0.34313,-0.0341 -1.01501,-0.15342 -1.049424,-0.18642 -0.02036,-0.0195 0.184688,-0.29413 0.455667,-0.61023 1.209302,-1.41066 1.612313,-2.04372 3.231857,-5.07668 1.741029,-3.26047 3.684169,-6.6103 4.223306,-7.28068 l 0.08662,-0.1077 -0.02938,0.12924 c -0.08343,0.367 -0.713282,2.36351 -0.917231,2.90743 -0.717815,1.91438 -2.126311,5.08097 -3.286583,7.38891 -0.786067,1.5636 -1.258339,2.39451 -1.511415,2.65917 l -0.196715,0.20572 -0.427959,-0.007 c -0.235377,-0.004 -0.495811,-0.0136 -0.578742,-0.0219 z"
     id="path62" />
  <path
     style="fill:#ff5555;fill-opacity:1;stroke-width:0.0430809"
     d="m 20.682354,133.10849 c -0.542265,-0.13921 -2.292561,-0.90962 -2.419902,-1.06514 -0.05198,-0.0635 -0.02891,-0.11241 0.191501,-0.40609 0.512996,-0.68355 2.9313,-3.54014 3.834608,-4.52958 0.0627,-0.0687 0.346771,-0.0407 1.560357,0.15364 0.600535,0.0962 0.698463,0.12248 0.6758,0.18154 -0.106411,0.2773 -2.024786,3.50766 -2.637536,4.44136 -0.467418,0.71224 -0.849423,1.23186 -0.927412,1.2615 -0.02935,0.0112 -0.154188,-0.006 -0.277416,-0.0372 z"
     id="path64" />
  <path
     style="fill:#ff5555;fill-opacity:1;stroke-width:0.0430809"
     d="m 147.06886,159.79285 c 0.043,-0.1725 0.75548,-1.91902 2.13003,-5.22174 l 1.2095,-2.90614 0.17315,-3.98681 c 0.38763,-8.92537 0.5417,-12.17393 0.65237,-13.75541 l 0.0505,-0.72161 h 0.83833 0.83834 l -0.0238,4.51273 c -0.0273,5.17355 -0.0609,6.26445 -0.32836,10.64725 l -0.11935,1.95568 0.40289,0.9227 c 0.22159,0.50749 0.40289,0.9413 0.40289,0.96402 0,0.0708 -6.17621,7.7078 -6.23345,7.7078 -0.0124,0 -0.009,-0.0533 0.007,-0.11847 z"
     id="path66" />
  <path
     style="fill:#ff5555;fill-opacity:1;stroke-width:0.0609256"
     d="m 151.28448,131.2354 0.0442,-1.47745 -3.82935,-3.11988 c -2.10613,-1.71593 -3.8793,-3.15638 -3.94037,-3.201 -0.10674,-0.078 -0.0968,-0.2274 0.25753,-3.85611 0.54922,-5.62539 0.85877,-9.07832 0.85877,-9.57933 0,-0.29186 -0.0343,-0.51413 -0.0991,-0.64156 -0.16048,-0.31577 -0.65805,-0.90347 -1.97046,-2.32738 -1.53707,-1.66766 -2.49987,-2.75607 -2.49987,-2.82602 0,-0.0956 1.13016,-1.80689 2.98771,-4.523992 l 1.81919,-2.660992 -0.4001,-0.995673 c -0.90977,-2.264049 -1.72932,-4.397767 -1.71065,-4.45376 0.0418,-0.125458 8.21328,8.309314 8.20824,8.472737 -0.002,0.0773 -0.44709,0.35784 -1.3209,0.83321 l -0.86525,0.47073 -0.40625,1.22735 c -0.22344,0.67504 -0.43724,1.25781 -0.47511,1.29504 -0.0379,0.0372 -0.49382,0.19734 -1.01321,0.3558 -0.96758,0.29519 -2.00158,0.67114 -2.09137,0.76039 -0.0693,0.0689 0.1854,0.55801 1.28343,2.46502 0.51884,0.90109 1.07053,1.90179 1.22597,2.22378 l 0.28262,0.58544 -0.01,1.40129 c -0.009,1.32261 -0.0873,3.4729 -0.29499,8.10311 -0.0496,1.1058 -0.10609,2.20459 -0.12552,2.44176 l -0.0353,0.43121 3.29709,2.46276 3.29709,2.46275 -0.0344,0.46747 c -0.0189,0.25711 -0.17092,1.40861 -0.33779,2.55888 -0.16687,1.15027 -0.30349,2.09826 -0.3036,2.10663 -1.2e-4,0.008 -0.4148,0.0152 -0.92154,0.0152 h -0.92135 z"
     id="path68" />
  <path
     style="fill:#ff5555;fill-opacity:1;stroke-width:0.0215405"
     d="m 189.60744,149.09579 c 0.0286,-0.75758 0.18336,-2.8385 0.6738,-9.05874 l 0.16824,-2.13375 -0.26515,-0.76344 c -0.79933,-2.30154 -1.20861,-3.53003 -1.20861,-3.62772 0,-0.10241 0.64435,-0.13402 1.91147,-0.0938 0.5478,0.0174 0.9996,0.0358 1.004,0.0409 0.004,0.005 0.30603,0.92391 0.67027,2.04186 l 0.66226,2.03263 0.0401,1.26306 c 0.10228,3.2233 0.13899,4.22956 0.20364,5.58192 0.0271,0.56667 0.0519,0.95832 0.14449,2.28013 l 0.005,0.0722 -0.33353,0.13428 c -1.06806,0.43 -2.16017,1.16398 -3.18764,2.1423 -0.18363,0.17485 -0.37184,0.35109 -0.41824,0.39164 l -0.0844,0.0737 z"
     id="path70" />
  <path
     style="fill:#ff5555;fill-opacity:1;stroke-width:0.0430809"
     d="m 188.27403,131.62118 c -0.23349,-0.69975 -0.55738,-1.62543 -0.71977,-2.05706 l -0.29525,-0.78479 0.68359,-1.51062 0.68358,-1.51062 -1.4533,-2.91086 -1.45331,-2.91086 0.53226,-1.64387 0.53225,-1.64386 -2.75296,-6.88616 c -2.97644,-7.44514 -4.23883,-10.647635 -4.21952,-10.704226 0.0194,-0.05675 0.96097,1.708176 3.58838,6.726026 2.28192,4.35803 3.54384,6.69663 4.20764,7.79765 0.27061,0.44885 0.34183,0.53851 0.42777,0.53851 0.20033,0 0.46016,-0.67355 1.28799,-3.33877 0.68572,-2.20768 1.16991,-3.63887 1.20802,-3.57076 0.0389,0.0695 0.2065,1.21382 0.36526,2.49374 0.12817,1.03336 0.14098,1.80452 0.0412,2.47687 -0.12631,0.8506 -0.3229,1.7513 -1.48102,6.78531 l -0.47073,2.04613 0.79162,1.74047 0.79163,1.74047 -0.19157,1.85412 -0.19158,1.85413 0.42813,1.35993 c 0.23547,0.74796 0.55504,1.75481 0.71017,2.23745 0.15513,0.48263 0.28205,0.89385 0.28205,0.9138 0,0.0861 -0.40235,0.12365 -1.61554,0.15099 l -1.29242,0.0291 z"
     id="path72" />
  <path
     style="fill:#ff5555;fill-opacity:1;stroke-width:0.0304628"
     d="m 209.45931,116.93801 c 9e-5,-0.0209 0.0133,-0.0861 0.0293,-0.1447 0.0438,-0.16011 0.18307,-1.43417 0.47286,-4.32572 0.34652,-3.45766 0.53299,-5.07947 0.59566,-5.18087 0.019,-0.0307 0.0803,-0.0243 0.2931,0.0307 0.42889,0.11092 1.87606,0.5989 3.14784,1.06144 1.81079,0.65857 2.9503,1.02825 3.27903,1.06378 l 0.1566,0.0169 0.0495,-0.21769 c 0.0803,-0.35296 0.24984,-1.43663 0.39852,-2.54703 0.38482,-2.87384 0.52141,-3.75945 0.58353,-3.78329 0.0812,-0.0312 0.74913,0.33077 1.13439,0.61474 l 0.19443,0.14332 -0.0186,0.17786 c -0.0193,0.18512 -0.32812,2.11648 -0.90228,5.64367 -0.18489,1.13586 -0.33617,2.10704 -0.33617,2.15818 0,0.0511 0.10217,0.69826 0.22704,1.43803 0.25893,1.53398 0.36068,2.2118 0.34642,2.30787 -0.0125,0.084 -0.27996,-0.42865 -0.77235,-1.48028 -0.40423,-0.86336 -0.95586,-1.97465 -1.06974,-2.15505 -0.0919,-0.14558 -0.31784,-0.25759 -1.07701,-0.53394 -1.54413,-0.5621 -3.51658,-1.14376 -3.67386,-1.08341 -0.0856,0.0328 -0.6097,1.20174 -1.66219,3.70686 -0.35293,0.84004 -0.77194,1.82207 -0.93113,2.18229 -0.38675,0.87515 -0.46548,1.02862 -0.46493,0.90627 z"
     id="path74" />
  <path
     style="fill:#ff5555;fill-opacity:1;stroke-width:0.0304628"
     d="m 158.6507,86.055345 c 0.0322,-0.147456 0.29314,-1.212081 0.57988,-2.365834 l 0.52134,-2.097734 -0.46103,-1.666083 c -0.49525,-1.789764 -0.96382,-3.531917 -0.99581,-3.702446 l -0.0197,-0.105132 0.11737,0.01771 c 0.19291,0.02911 0.613,0.171544 1.28261,0.434881 l 0.63221,0.248625 0.0683,0.432402 c 0.0376,0.237821 0.21481,1.324109 0.39386,2.413973 l 0.32555,1.981572 -0.88423,1.750123 c -1.13486,2.246169 -1.48015,2.881659 -1.58375,2.914808 -0.024,0.0077 -0.0166,-0.07367 0.0234,-0.256865 z"
     id="path76" />
  <path
     style="fill:#ffb380;fill-opacity:1;stroke-width:0.0609256"
     d="m 128.64915,198.43012 c -0.0285,-0.0442 -0.0612,-14.77318 -0.0727,-32.73113 l -0.0208,-32.65081 4.10287,0.0402 c 2.25658,0.0221 6.95419,0.0683 10.43913,0.10263 3.48495,0.0343 6.61456,0.078 6.9547,0.097 l 0.61844,0.0346 -0.0274,0.58858 c -0.0151,0.32371 -0.14931,3.42618 -0.29827,6.89438 -0.14896,3.46819 -0.31565,7.29073 -0.37042,8.49453 l -0.0996,2.18874 -1.11152,2.68531 c -2.42366,5.85534 -3.20875,7.60494 -3.76901,8.39939 l -0.25132,0.35637 0.38783,3.45336 c 0.95046,8.46322 1.05677,9.67 0.93346,10.59622 -0.0973,0.73096 -0.22038,1.06491 -0.89263,2.42246 -1.53798,3.10584 -4.10981,7.29969 -5.86583,9.56533 -1.47568,1.90394 -3.8925,4.26245 -6.71809,6.55602 -1.17539,0.95408 -3.7029,2.91653 -3.80847,2.95705 -0.0431,0.0165 -0.10178,-0.006 -0.1303,-0.0502 z"
     id="path78" />
  <path
     style="fill:#ffb380;fill-opacity:1;stroke-width:0.0609256"
     d="m 181.41813,164.20477 c -0.0678,-0.0257 -0.3831,-0.20425 -0.70065,-0.39682 -1.3082,-0.79333 -3.97254,-2.1329 -5.81696,-2.92463 -1.97047,-0.84584 -4.25269,-1.38928 -7.92033,-1.88598 -1.43033,-0.19371 -2.41584,-0.38162 -2.50345,-0.47736 -0.0365,-0.0399 -0.22013,-0.5935 -0.40799,-1.23017 -1.44406,-4.89389 -2.54493,-8.48639 -2.90579,-9.48261 l -0.19073,-0.52655 -0.37739,-0.0941 c -0.4689,-0.11693 -1.52956,-0.2639 -2.30283,-0.3191 l -0.58507,-0.0418 -0.47352,0.54079 c -0.26043,0.29744 -1.14478,1.37699 -1.96523,2.39902 -0.82045,1.02203 -1.51185,1.86594 -1.53645,1.87536 -0.0246,0.009 -0.16554,-0.25103 -0.3132,-0.57879 l -0.26847,-0.59592 v -0.85296 c 0,-0.46913 0.0351,-1.48354 0.0779,-2.25425 0.11653,-2.09542 0.18427,-4.50461 0.26745,-9.51228 l 0.075,-4.51638 6.43069,-0.0465 c 9.64448,-0.0698 28.15718,0.086 28.31017,0.23824 0.0375,0.0373 0.41206,1.04495 0.83247,2.23929 l 0.76438,2.17154 -0.48443,6.10897 -0.48443,6.10898 -0.66021,0.82787 c -1.17272,1.47055 -1.81679,2.52992 -3.02209,4.97081 -0.88053,1.7832 -1.28845,2.68992 -2.62074,5.82535 -1.0648,2.50589 -1.05729,2.4909 -1.21815,2.42998 z"
     id="path80" />
  <path
     style="fill:#ffb380;fill-opacity:1;stroke-width:0.0609256"
     d="m 209.8186,155.02558 c -0.16209,-0.13394 -1.02521,-0.9534 -1.91804,-1.82103 -1.96321,-1.90777 -2.4925,-2.36737 -3.48157,-3.02314 -1.63733,-1.08556 -3.99864,-2.36477 -5.32041,-2.88225 -1.4271,-0.55872 -2.26149,-0.72798 -3.86413,-0.78385 -1.07817,-0.0376 -1.11189,-0.0427 -1.11189,-0.16725 0,-0.0707 -0.0276,-0.55298 -0.0613,-1.0718 -0.0337,-0.51881 -0.11583,-2.31413 -0.1825,-3.98958 -0.0683,-1.71487 -0.16031,-3.29926 -0.21065,-3.62508 -0.088,-0.56927 -0.17782,-0.90212 -0.82773,-3.06567 -0.36254,-1.20687 -0.36342,-1.19647 0.10169,-1.19819 0.28423,-0.001 1.4261,-0.15854 5.96312,-0.82241 3.82875,-0.56023 22.83726,-3.37627 27.38607,-4.05715 18.64067,-2.79016 24.89922,-3.73371 26.8359,-4.04584 0.50162,-0.0808 0.92332,-0.13571 0.93711,-0.12192 0.0305,0.0305 -0.53631,1.36364 -0.82165,1.93269 -0.16712,0.33327 -0.24886,0.42912 -0.43392,0.50887 -0.88351,0.38069 -6.36422,2.46979 -16.76934,6.39201 -9.02375,3.40152 -11.73063,4.42744 -13.98243,5.2994 -0.83773,0.3244 -1.64313,0.63547 -1.78978,0.69128 -0.20372,0.0775 -0.32015,0.18054 -0.49338,0.43655 -0.41384,0.61161 -2.32034,3.74314 -5.73071,9.41301 -3.84799,6.39745 -3.75383,6.24488 -3.85438,6.24488 -0.0415,0 -0.20802,-0.10959 -0.37011,-0.24353 z"
     id="path82" />
  <path
     style="fill:#ffb380;fill-opacity:1;stroke-width:0.0861619"
     d="m 191.52878,130.60483 c -0.41812,-1.29046 -0.73496,-2.41555 -0.73402,-2.60639 9.2e-4,-0.18469 0.0774,-1.08664 0.17002,-2.00435 l 0.16835,-1.66857 -0.48462,-1.04553 c -0.70659,-1.52444 -0.97571,-2.20341 -0.97407,-2.45752 0.001,-0.19744 0.31004,-1.60573 1.68894,-7.7034 l 0.32721,-1.44698 -0.32322,-2.67139 c -0.36934,-3.05257 -0.46119,-3.58212 -0.63267,-3.64792 -0.23098,-0.0886 -0.38701,0.33836 -2.19662,6.01133 l -0.54525,1.70928 -0.31244,-0.5461 c -0.70901,-1.23921 -2.71168,-4.98686 -5.28751,-9.89466 -2.67611,-5.09886 -5.02463,-9.497055 -5.28113,-9.890254 -0.0707,-0.108375 -0.17161,-0.18179 -0.22425,-0.163143 -0.29809,0.105595 -0.17364,0.437971 5.31144,14.185637 l 3.96915,9.94816 -0.53523,1.6132 -0.53524,1.6132 1.43546,2.93089 1.43546,2.93089 -0.64485,1.44769 -0.64486,1.44769 0.67876,1.9772 c 0.43082,1.25496 0.64873,2.00723 0.59654,2.05942 -0.0874,0.0874 -33.26331,-0.0788 -33.92672,-0.16999 -0.33539,-0.0461 -0.35936,-0.0667 -0.32274,-0.27805 0.1747,-1.00821 0.64196,-4.36414 0.64196,-4.61067 0,-0.37069 0.21675,-0.18802 -3.7724,-3.17928 -2.1143,-1.5854 -2.85697,-2.18748 -2.82685,-2.29172 0.0848,-0.29341 0.48063,-9.76473 0.48124,-11.51474 l 3.4e-4,-0.86161 -0.69972,-1.16319 c -1.12902,-1.8768 -1.98901,-3.37121 -1.95739,-3.40132 0.0162,-0.0154 0.37835,-0.13294 0.80485,-0.2612 0.4265,-0.12827 1.05401,-0.34793 1.39445,-0.48815 l 0.619,-0.25494 0.25378,-0.61899 c 0.13958,-0.34045 0.32064,-0.82529 0.40235,-1.07742 0.18736,-0.57815 0.48645,-0.8736 1.53973,-1.52104 0.46054,-0.28309 0.9189,-0.60153 1.01858,-0.70763 0.16715,-0.17793 0.17094,-0.20825 0.0487,-0.389993 -0.55186,-0.8203 -9.19591,-9.800684 -9.78481,-10.165539 -0.59335,-0.36761 -0.5448,-0.159626 0.69237,2.965836 1.50844,3.810783 1.58399,4.042315 1.43603,4.400828 -0.0625,0.15149 -1.05859,1.690645 -2.21351,3.420348 -1.15491,1.7297 -2.17061,3.28239 -2.25711,3.45042 l -0.15727,0.30552 1.6514,1.81628 c 0.90826,0.99896 1.99607,2.19015 2.41735,2.64709 l 0.76597,0.83081 -0.2305,2.43251 c -0.5786,6.10612 -1.09365,11.31649 -1.12831,11.4142 -0.0443,0.12489 -0.10021,0.0777 4.46838,3.77026 l 3.51791,2.84334 -0.0533,0.81854 c -0.0293,0.4502 -0.0759,1.0184 -0.10362,1.26269 -0.0502,0.44288 -0.0513,0.44424 -0.38532,0.47609 -0.48706,0.0464 -18.46157,-0.0893 -20.21834,-0.15275 l -1.48634,-0.0536 -0.007,-7.59452 c -0.004,-4.17699 -0.0194,-7.66124 -0.0351,-7.74277 -0.0598,-0.31112 -0.0844,-53.04525 -0.0248,-53.104989 0.0917,-0.09188 28.92931,11.69547 29.02039,11.862057 0.0418,0.07636 0.4266,1.387852 0.85522,2.914423 l 0.77931,2.775586 -0.56709,2.34145 c -0.61421,2.536041 -1.06916,4.639264 -1.07027,4.947846 -5.2e-4,0.13371 0.0504,0.193864 0.16408,0.193864 0.21135,0 0.51559,-0.530142 2.44766,-4.265011 l 1.51544,-2.929504 -0.35464,-2.262173 c -0.19505,-1.244195 -0.33524,-2.281572 -0.31153,-2.305281 0.0471,-0.04713 3.39207,1.300317 17.82027,7.178576 22.34653,9.104303 27.5485,11.243341 27.99933,11.51324 0.26244,0.157114 2.82292,1.672119 5.68995,3.366678 2.86704,1.694558 5.24201,3.107118 5.27773,3.139028 0.0819,0.0732 -0.53732,5.0761 -0.75963,6.13722 -0.057,0.27192 0.0766,0.30033 -1.89016,-0.40202 -2.99985,-1.07129 -4.56961,-1.59373 -4.78855,-1.59373 -0.22447,0 -0.23157,0.017 -0.33193,0.79699 -0.36277,2.81935 -1.00184,8.50047 -1.20427,10.70561 -0.0624,0.67992 -0.0552,0.88649 0.0343,0.97952 0.0624,0.0648 0.15691,0.091 0.21011,0.0581 0.17107,-0.10573 0.72639,-1.3066 2.1931,-4.74259 0.78893,-1.84817 1.47048,-3.41737 1.51456,-3.48712 0.0683,-0.10806 0.14134,-0.11079 0.49405,-0.0184 0.91888,0.24059 3.43622,1.07086 3.53172,1.16484 0.0562,0.0553 0.49204,0.94402 0.96858,1.97497 1.46503,3.16947 1.88357,3.93003 2.09192,3.80126 0.1508,-0.0932 0.0108,-1.50023 -0.39755,-3.99556 l -0.37366,-2.28329 0.50707,-3.01566 c 0.55832,-3.32045 0.74757,-4.3641 0.80112,-4.41765 0.0424,-0.0424 2.7153,1.51418 11.03405,6.42564 13.6927,8.08428 22.12195,13.1207 22.06122,13.18143 -0.066,0.066 -0.67168,0.16454 -6.98289,1.13611 -20.19715,3.10919 -53.26835,8.01519 -54.03021,8.01519 -0.18827,0 -0.25234,-0.15514 -0.93775,-2.27061 z"
     id="path84" />
  <path
     style="fill:#ffb380;fill-opacity:1;stroke-width:0.0861619"
     d="m 126.39589,197.31405 c -3.8365,-2.95415 -7.19124,-6.05709 -8.79357,-8.13354 -2.55727,-3.31396 -6.75541,-10.45253 -7.08734,-12.05141 -0.11327,-0.54564 -0.0814,-1.2271 0.18419,-3.94427 0.13127,-1.34274 0.84582,-8.0123 1.05975,-9.89164 0.0314,-0.27558 -0.0209,-0.41439 -0.32845,-0.87311 -0.57772,-0.86154 -2.06568,-2.76404 -5.86581,-7.50005 -1.94295,-2.42145 -4.19178,-5.22688 -4.99739,-6.23428 l -1.464751,-1.83164 -1.50887,0.0327 c -1.065787,0.0231 -1.584469,0.0686 -1.766318,0.15492 -0.23426,0.11122 -0.301757,0.25416 -0.749397,1.58698 -0.270572,0.80562 -1.056264,3.34255 -1.745982,5.63763 -0.689718,2.29508 -1.265325,4.18416 -1.279128,4.19797 -0.0138,0.0138 -1.031047,0.16306 -2.260544,0.33169 -5.688358,0.78016 -8.20816,1.62256 -13.103702,4.38069 -0.812136,0.45755 -1.51389,0.83191 -1.559455,0.83191 -0.102246,0 -0.622264,-1.10192 -1.687446,-3.57571 -2.024144,-4.7009 -3.274531,-7.13208 -4.525149,-8.79844 -0.6821,-0.90884 -2.830462,-3.13302 -3.712707,-3.84373 -0.77812,-0.62683 -1.596463,-1.03249 -2.587659,-1.28274 -0.621177,-0.15683 -0.889193,-0.1773 -1.809399,-0.13818 -1.627143,0.0692 -2.953398,0.49792 -5.388305,1.74187 -3.159532,1.61414 -4.237269,2.42169 -7.342121,5.50144 -0.910491,0.90313 -1.672374,1.62447 -1.693072,1.60298 -0.0207,-0.0215 -1.527346,-2.52054 -3.348105,-5.55344 -1.82076,-3.03289 -3.982538,-6.60685 -4.803951,-7.94213 l -1.493479,-2.42778 -0.761961,-0.35402 c -0.976871,-0.45387 -3.162948,-1.3113 -7.741377,-3.03635 -4.953431,-1.86634 -5.915587,-2.25241 -6.363513,-2.55339 -0.0909,-0.0611 0.164606,-0.54379 1.153259,-2.17874 1.337545,-2.21191 2.151215,-3.48496 2.277161,-3.5628 0.125471,-0.0775 3.430815,0.38587 20.596274,2.88767 3.340926,0.48693 6.119391,0.92767 6.174367,0.97944 0.05498,0.0518 1.114887,2.57558 2.355357,5.60847 l 2.255399,5.51436 1.597385,1.32494 1.597386,1.32494 0.720847,-0.0585 c 0.990133,-0.0803 1.58385,-0.26304 1.58385,-0.48739 0,-0.25776 -0.222312,-1.30892 -0.660995,-3.12539 l -0.392327,-1.62453 -1.33544,-2.29583 c -1.642198,-2.82321 -3.039435,-5.32049 -3.039435,-5.43238 0,-0.0929 -0.04126,-0.0971 2.067884,0.21051 0.829308,0.12093 2.108812,0.25727 2.843342,0.30296 1.198524,0.0746 20.448155,0.24547 28.305216,0.25131 l 3.102874,0.002 0.247912,0.71518 0.247912,0.71519 -1.79111,4.6429 -1.791109,4.6429 0.152939,0.82403 c 0.91769,4.94444 1.310001,6.81227 1.430825,6.81227 0.244575,0 0.447097,-0.65884 1.112387,-3.6188 l 0.435736,-1.93864 0.913724,-0.91742 0.913724,-0.91742 0.123355,-1.96878 0.123355,-1.96879 1.523984,-3.46757 1.523984,-3.46758 14.884459,-6.6e-4 14.88446,-6.5e-4 -0.005,32.37531 c -0.003,17.80643 -0.0318,32.51711 -0.0646,32.6904 l -0.0597,0.31507 -1.48468,-1.14322 z"
     id="path86" />
  <path
     style="fill:#ffb380;fill-opacity:1;stroke-width:0.0861619"
     d="m 16.817946,131.60911 c -0.531818,-0.19087 -12.7084988,-4.75032 -13.0629293,-4.8913 -0.1147509,-0.0456 -1.0529198,-1.87615 -1.2269363,-2.39393 -0.064017,-0.19048 -0.041463,-0.19017 1.2593102,0.0175 0.5797316,0.0926 3.3416548,0.50086 6.137607,0.90735 7.1532074,1.03998 11.2745994,1.68087 11.3624194,1.76691 0.08767,0.0859 -0.08847,0.35136 -0.94386,1.42248 -0.482088,0.60367 -2.570943,3.03075 -2.86664,3.33081 -0.03071,0.0312 -0.327248,-0.0408 -0.658971,-0.15981 z"
     id="path88" />
  <path
     style="fill:#ffb380;fill-opacity:1;stroke-width:0.0861619"
     d="m 106.6704,132.44879 c -4.80998,-0.0267 -8.789636,-0.077 -8.843659,-0.11178 -0.10411,-0.0669 -1.961371,-3.16429 -2.499711,-4.16877 l -0.318488,-0.59426 0.41038,-0.90344 c 0.225709,-0.4969 1.246435,-2.5513 2.26828,-4.56533 2.140105,-4.21809 2.783488,-5.57614 2.720068,-5.74142 -0.13611,-0.3547 -0.460991,-0.0279 -3.00946,3.02732 -2.175156,2.60768 -6.235758,7.64349 -6.205713,7.6961 0.04674,0.0819 1.692408,5.15804 1.692408,5.22038 0,0.028 -6.846555,0.0509 -15.214567,0.0509 H 62.45537 l -2.900963,-0.43181 c -1.598895,-0.238 -3.020149,-0.49196 -3.166507,-0.56582 -0.385562,-0.19458 -1.32845,-1.68463 -1.32845,-2.09935 0,-0.18365 0.424288,-1.27846 1.571279,-4.05445 0.381817,-0.92409 0.897926,-2.21826 1.146911,-2.87593 l 0.452699,-1.19577 -0.1588,-0.57055 c -0.235962,-0.84778 -1.601929,-4.8388 -1.986838,-5.80506 -0.535818,-1.34508 -0.663679,-1.45683 -0.887045,-0.77527 -0.191583,0.58458 -0.325564,1.19005 -1.12967,5.10509 l -0.716718,3.48955 -1.256875,2.79415 c -0.691281,1.53678 -1.256874,2.83458 -1.256874,2.88402 0,0.0494 0.174599,0.50351 0.387997,1.00908 0.213397,0.50557 0.413148,1.04498 0.443892,1.19869 l 0.05589,0.27948 -0.508513,-0.0605 c -1.899774,-0.22586 -25.435991,-3.72733 -25.51967,-3.79655 -0.01332,-0.011 0.41991,-0.88798 0.962733,-1.94882 1.168121,-2.28284 2.543922,-5.22696 3.191436,-6.82945 0.705502,-1.74599 1.972819,-5.73279 2.088154,-6.56904 0.05841,-0.42352 -0.07464,-0.55263 -0.331175,-0.32136 -0.560554,0.50533 -3.51345,5.42931 -5.624284,9.37854 -1.210476,2.26472 -1.705684,3.09933 -2.365538,3.98681 -0.571131,0.76816 -1.339393,1.62543 -1.564743,1.74603 -0.144324,0.0772 -9.822356,-1.28891 -16.5290977,-2.33325 -1.2038976,-0.18747 -2.241071,-0.34085 -2.3048297,-0.34085 -0.063759,0 -0.115925,-0.0363 -0.115925,-0.0806 0,-0.0847 3.706878,-2.31244 15.8107004,-9.50176 C 31.72821,106.4628 49.5384,95.911976 49.572301,95.911976 c 0.018,0 0.122431,0.408752 0.23207,0.908338 l 0.199342,0.908338 -0.325244,0.83644 c -0.709983,1.825888 -0.989757,2.710048 -0.906667,2.865298 0.133329,0.24913 5.516785,5.29898 6.038921,5.6647 0.288481,0.20206 0.332115,0.0176 0.333565,-1.41029 l 0.0013,-1.29897 -1.330111,-1.84302 c -0.73156,-1.01366 -1.407385,-1.98051 -1.50183,-2.14855 l -0.17172,-0.30554 0.305859,-0.688241 0.305858,-0.688243 -0.05252,-1.249347 c -0.02889,-0.68714 -0.07746,-1.618491 -0.107936,-2.069668 l -0.05542,-0.820321 0.765397,-0.308919 c 0.420968,-0.169906 3.227472,-1.318713 6.236675,-2.552905 17.581012,-7.210663 21.080319,-8.594874 21.885059,-8.657015 0.717367,-0.05539 0.409998,0.539074 -3.10645,6.008047 l -1.274212,1.981723 -0.225491,1.669307 c -0.12402,0.918119 -0.279185,1.77314 -0.344811,1.900047 -0.06563,0.126907 -1.518115,2.681959 -3.227753,5.677895 -1.709639,2.99593 -3.108434,5.48519 -3.108434,5.53168 0,0.10779 2.228179,3.14711 3.07965,4.20076 0.643512,0.79631 0.899563,1.02046 1.055558,0.92405 0.122654,-0.0758 0.238698,-0.57632 0.415886,-1.79377 0.12475,-0.85716 0.137177,-1.12776 0.05717,-1.2449 -0.350204,-0.51276 -1.183156,-2.12069 -1.182265,-2.28224 9.83e-4,-0.17799 2.814337,-4.966 3.058523,-5.20526 0.05877,-0.0576 0.662492,-0.3987 1.3416,-0.758017 l 1.234743,-0.653311 1.867083,0.683509 c 1.685763,0.617129 2.759306,0.957299 3.021166,0.957299 0.360827,0 -0.117406,-0.61125 -2.492708,-3.186045 -0.96976,-1.051205 -1.794983,-1.978507 -1.833828,-2.060671 -0.04982,-0.105381 0.09794,-0.515822 0.501589,-1.393243 0.718731,-1.562338 0.818386,-1.944817 0.818386,-3.141006 v -0.956247 l 2.017669,-2.672737 2.017667,-2.672736 0.138038,-1.501084 c 0.07592,-0.825596 0.158073,-1.598016 0.182563,-1.716489 0.05115,-0.247444 -1.053166,0.223852 11.454764,-4.888624 18.934878,-7.73942 30.802188,-12.545465 30.852828,-12.494828 0.0429,0.0429 0.20738,46.00141 0.208,58.11647 l 5.2e-4,10.44713 -6.26827,-0.0167 c -3.44756,-0.009 -10.20372,-0.0386 -15.01371,-0.0653 z"
     id="path90" />
</svg>
