<?xml version="1.0" encoding="UTF-8" standalone="no"?>
<svg
   xmlns:dc="http://purl.org/dc/elements/1.1/"
   xmlns:cc="http://creativecommons.org/ns#"
   xmlns:rdf="http://www.w3.org/1999/02/22-rdf-syntax-ns#"
   xmlns:svg="http://www.w3.org/2000/svg"
   xmlns="http://www.w3.org/2000/svg"
   xmlns:sodipodi="http://sodipodi.sourceforge.net/DTD/sodipodi-0.dtd"
   xmlns:inkscape="http://www.inkscape.org/namespaces/inkscape"
   version="1.1"
   viewBox="0 0 64 64"
   id="svg22"
   sodipodi:docname="icon.svg"
   inkscape:version="1.0.2-2 (e86c870879, 2021-01-15)">
  <metadata
     id="metadata28">
    <rdf:RDF>
      <cc:Work
         rdf:about="">
        <dc:format>image/svg+xml</dc:format>
        <dc:type
           rdf:resource="http://purl.org/dc/dcmitype/StillImage" />
        <dc:title />
      </cc:Work>
    </rdf:RDF>
  </metadata>
  <defs
     id="defs26" />
  <sodipodi:namedview
     pagecolor="#ffffff"
     bordercolor="#666666"
     borderopacity="1"
     objecttolerance="10"
     gridtolerance="10"
     guidetolerance="10"
     inkscape:pageopacity="0"
     inkscape:pageshadow="2"
     inkscape:window-width="1920"
     inkscape:window-height="1017"
     id="namedview24"
     showgrid="false"
     inkscape:zoom="7.3427118"
     inkscape:cx="34.901317"
     inkscape:cy="26.530318"
     inkscape:window-x="-8"
     inkscape:window-y="-8"
     inkscape:window-maximized="1"
     inkscape:current-layer="svg22"
     inkscape:document-rotation="0" />
  <path
     style="fill:#ff8080;stroke-width:0.1129"
     d=""
     id="path102" />
  <path
     style="fill:#ff8080;stroke-width:0.1129"
     d=""
     id="path152" />
  <path
     style="fill:#ff8080;stroke-width:0.1129"
     d=""
     id="path166" />
  <path
     style="fill:#ff8080;stroke-width:0.0564498"
     d=""
     id="path172" />
  <path
     style="fill:#000000;stroke-width:0.156402"
     d="M 28.689767,62.911292 C 20.936573,62.130696 13.40631,58.164893 8.4061576,52.228956 1.4074226,43.920399 -0.77112445,32.689583 2.6243666,22.422749 6.4418166,10.880054 16.660273,2.6336508 28.667262,1.4058561 37.761998,0.47585894 46.839512,3.6882198 53.340553,10.137267 60.785269,17.522444 64.007401,28.173271 61.891071,38.40119 58.683898,53.900995 44.343675,64.487336 28.689767,62.911292 Z m 2.967412,-2.995285 c -6.25e-4,-0.107643 -1.429625,-4.493634 -3.175721,-9.746646 L 25.306735,40.61843 15.202723,40.578145 c -5.5572074,-0.02216 -10.1040124,-0.0019 -10.1040124,0.04504 0,0.04693 0.245075,0.721296 0.544612,1.498585 3.691429,9.579158 12.2600464,16.351971 22.4400204,17.737061 2.14345,0.291637 3.57515,0.314542 3.573836,0.05717 z m 4.844198,-0.214377 c 8.697132,-1.478295 16.315273,-7.101049 20.233245,-14.933639 0.640799,-1.281046 1.79549,-4.046555 1.79549,-4.300231 0,-0.0463 -4.423324,-0.08419 -9.82961,-0.08419 h -9.829611 l -3.215775,9.668369 c -1.768678,5.317605 -3.215777,9.764772 -3.215777,9.882596 0,0.251573 1.828562,0.146729 4.062038,-0.232906 z M 33.836205,46.505351 c 1.036206,-3.177758 1.884011,-5.865956 1.884011,-5.973774 0,-0.154661 -0.7987,-0.17256 -3.784516,-0.08481 -2.081483,0.06117 -3.808372,0.135132 -3.837531,0.164353 -0.06122,0.06135 3.718949,11.67197 3.800145,11.67197 0.02963,0 0.901684,-2.599982 1.937891,-5.777739 z M 12.129159,35.162608 c 9.327801,-6.44254 9.244179,-6.382543 9.171833,-6.580651 -0.03539,-0.09691 -1.451494,-4.350811 -3.146899,-9.453122 -1.695406,-5.102311 -3.119458,-9.2769282 -3.164561,-9.2769282 -0.242198,0 -2.241167,1.7699692 -3.511622,3.1093342 -1.9848654,2.092523 -3.3643404,4.070997 -4.6551054,6.676455 -1.306041,2.63629 -1.905388,4.326979 -2.464331,6.951583 -0.383814,1.802256 -0.420678,2.278022 -0.425846,5.495942 -0.0045,2.774907 0.05376,3.822076 0.274201,4.932038 0.434044,2.185508 0.718457,3.081561 0.936911,2.951768 0.104126,-0.06186 3.247564,-2.224753 6.9854194,-4.806419 z m 46.702103,4.164097 c 1.21468,-4.543749 1.223103,-9.575796 0.02385,-14.247801 -1.223276,-4.765584 -3.741715,-9.121789 -7.358868,-12.728805 -1.772462,-1.767496 -2.461793,-2.303041 -2.574891,-2.000453 -0.721692,1.93085 -6.151507,18.36239 -6.088675,18.42536 0.214271,0.214738 15.631231,11.123786 15.730473,11.13089 0.06113,0.0044 0.181784,-0.25626 0.268113,-0.579191 z M 24.159035,37.369676 c 0,-0.274569 -1.73172,-5.490857 -1.875425,-5.649155 -0.09182,-0.101149 -7.550358,5.090458 -8.193738,5.703354 -0.08848,0.08429 1.914869,0.141388 4.960371,0.141388 3.9811,0 5.108792,-0.04317 5.108792,-0.195587 z M 38.06826,33.715518 c 0.712571,-2.14244 1.220663,-3.908327 1.145682,-3.98184 -0.0741,-0.07265 -1.711009,-1.234102 -3.637566,-2.581004 -2.18503,-1.527606 -3.603838,-2.422442 -3.771313,-2.378551 -0.147664,0.0387 -1.852241,1.208239 -3.787949,2.598977 l -3.519468,2.528614 1.083526,3.244626 c 0.59594,1.784546 1.155203,3.508845 1.242805,3.831776 l 0.15928,0.587147 h 4.902294 4.902295 z m 12.324761,3.78987 c -0.609646,-0.560751 -8.494687,-5.877841 -8.57896,-5.785019 -0.143805,0.158391 -1.875577,5.374552 -1.875577,5.649307 0,0.152528 1.15795,0.195587 5.259817,0.195587 2.892898,0 5.230522,-0.02694 5.19472,-0.05987 z M 26.453971,25.261494 c 1.444507,-0.997372 2.716581,-1.900552 2.826832,-2.007069 0.160974,-0.155523 -0.683708,-0.819346 -4.288828,-3.370521 -2.469104,-1.747273 -4.577429,-3.210757 -4.685166,-3.252189 -0.111608,-0.04292 0.27315,1.328548 0.894266,3.187623 0.599585,1.794626 1.372825,4.161292 1.71831,5.259257 0.345488,1.097966 0.69117,1.996301 0.768185,1.996301 0.07701,0 1.321894,-0.816031 2.766401,-1.813402 z M 42.029366,21.6799 c 0.905376,-2.751962 1.619461,-5.030303 1.586853,-5.062983 -0.03261,-0.03268 -1.031623,0.635719 -2.220034,1.485329 -1.188409,0.84961 -3.197736,2.279962 -4.46517,3.178561 -2.097856,1.487362 -2.551446,1.879774 -2.172835,1.879774 0.07238,0 1.319169,0.843082 2.770653,1.873516 1.451484,1.030435 2.687512,1.823084 2.746727,1.761443 0.05922,-0.06164 0.848428,-2.36368 1.753806,-5.11564 z m -8.122624,-1.631739 c 0.868519,-0.592336 2.422779,-1.65473 3.453912,-2.360873 1.031132,-0.706144 3.998575,-2.734218 6.594317,-4.506832 C 46.550713,11.407842 48.63991,9.9014291 48.59763,9.832871 48.412831,9.5332079 45.8084,7.9255437 44.234869,7.1398238 37.614554,3.8340665 29.690266,3.306555 22.742087,5.7090727 20.744251,6.3998778 18.085853,7.6946859 16.451789,8.7728449 15.450491,9.4335044 15.265988,9.6159554 15.43628,9.7770611 15.825605,10.145383 32.020504,21.125136 32.174448,21.125136 c 0.08424,0 0.863776,-0.484639 1.732294,-1.076975 z"
     id="path25" />
</svg>
