<?xml version="1.0" encoding="UTF-8" standalone="no"?>
<svg
   xmlns:dc="http://purl.org/dc/elements/1.1/"
   xmlns:cc="http://creativecommons.org/ns#"
   xmlns:rdf="http://www.w3.org/1999/02/22-rdf-syntax-ns#"
   xmlns:svg="http://www.w3.org/2000/svg"
   xmlns="http://www.w3.org/2000/svg"
   xmlns:xlink="http://www.w3.org/1999/xlink"
   xmlns:sodipodi="http://sodipodi.sourceforge.net/DTD/sodipodi-0.dtd"
   xmlns:inkscape="http://www.inkscape.org/namespaces/inkscape"
   version="1.1"
   viewBox="0 0 256 256"
   id="svg72"
   sodipodi:docname="shark_grog.svg"
   inkscape:version="1.0.2-2 (e86c870879, 2021-01-15)">
  <metadata
     id="metadata76">
    <rdf:RDF>
      <cc:Work
         rdf:about="">
        <dc:format>image/svg+xml</dc:format>
        <dc:type
           rdf:resource="http://purl.org/dc/dcmitype/StillImage" />
      </cc:Work>
    </rdf:RDF>
  </metadata>
  <sodipodi:namedview
     pagecolor="#ffffff"
     bordercolor="#666666"
     borderopacity="1"
     objecttolerance="10"
     gridtolerance="10"
     guidetolerance="10"
     inkscape:pageopacity="0"
     inkscape:pageshadow="2"
     inkscape:window-width="1920"
     inkscape:window-height="1017"
     id="namedview74"
     showgrid="false"
     inkscape:zoom="1.1428734"
     inkscape:cx="-202.47165"
     inkscape:cy="210.32222"
     inkscape:window-x="-8"
     inkscape:window-y="-8"
     inkscape:window-maximized="1"
     inkscape:current-layer="g62" />
  <defs
     id="defs38">
    <linearGradient
       id="innoGrad1">
      <stop
         stop-color="#d2b172"
         offset="0"
         id="stop2" />
      <stop
         stop-color="#dbc18e"
         offset=".5"
         id="stop4" />
      <stop
         stop-color="#d2b172"
         offset="1"
         id="stop6" />
    </linearGradient>
    <linearGradient
       id="linearGradient870"
       x1="105.28"
       x2="135.72"
       y1="8.481"
       y2="8.481"
       gradientTransform="matrix(-.96345 0 0 .96345 244.1 6.7656)"
       gradientUnits="userSpaceOnUse"
       xlink:href="#innoGrad1" />
    <linearGradient
       id="linearGradient882"
       x1="109.74"
       x2="131.05"
       y1="27.198"
       y2="27.198"
       gradientTransform="matrix(-.96345 0 0 .96345 244.1 6.7656)"
       gradientUnits="userSpaceOnUse"
       xlink:href="#innoGrad1" />
    <linearGradient
       id="linearGradient890"
       x1="76.407"
       x2="164.59"
       y1="135.37"
       y2="135.37"
       gradientTransform="matrix(-.96345 0 0 .96345 244.1 6.7656)"
       gradientUnits="userSpaceOnUse">
      <stop
         stop-color="#f6feff"
         offset="0"
         id="stop11" />
      <stop
         stop-color="#fafeff"
         offset=".304"
         id="stop13" />
      <stop
         stop-color="#fafeff"
         offset=".696"
         id="stop15" />
      <stop
         stop-color="#f6feff"
         offset="1"
         id="stop17" />
    </linearGradient>
    <linearGradient
       id="linearGradient934"
       x1="82.067"
       x2="159.96"
       y1="161.35"
       y2="161.35"
       gradientTransform="matrix(-.96345 0 0 .96345 244.1 6.7656)"
       gradientUnits="userSpaceOnUse">
      <stop
         stop-opacity=".125"
         offset="0"
         id="stop20" />
      <stop
         stop-opacity="0"
         offset=".145"
         id="stop22" />
      <stop
         stop-opacity="0"
         offset=".848"
         id="stop24" />
      <stop
         stop-opacity=".125"
         offset="1"
         id="stop26" />
    </linearGradient>
    <linearGradient
       id="linearGradient900-9"
       x1="80.833"
       x2="160.17"
       y1="125.69"
       y2="125.69"
       gradientTransform="matrix(-0.96345,0,0,0.96345,132.42291,-11.486334)"
       gradientUnits="userSpaceOnUse">
      <stop
         stop-color="#f6feff"
         stop-opacity=".502"
         offset="0"
         id="stop29" />
      <stop
         stop-color="#fafeff"
         stop-opacity=".125"
         offset=".397"
         id="stop31" />
      <stop
         stop-color="#fafeff"
         stop-opacity=".125"
         offset=".6"
         id="stop33" />
      <stop
         stop-color="#f6feff"
         stop-opacity=".502"
         offset="1"
         id="stop35" />
    </linearGradient>
  </defs>
  <g
     stroke-width="1.1576"
     id="g62">
    <path
       d="m137.88 23.921c-5.3575-0.39046-14.418-0.3176-19.76 0.07203l-2e-3 -0.01544s0.57953 42.667 0.24475 44.534c-1.0445 5.7758-8.8233 8.9968-15.199 12.693-7.7985 4.5209-13.384 10.264-13.385 20.061v126.53c4.4022 5.4468 70.534 5.9019 76.435 8.2e-4l-4.6e-4 -126.53c0-9.7966-5.5859-15.541-13.384-20.062-6.3758-3.6958-14.155-6.9152-15.198-12.692-0.33727-1.8663 0.24476-44.534 0.24476-44.534z"
       fill="#dde5e6"
       id="path40" />
    <path
       d="m139.28 5.7686c0.72363 0.078575 2.2248 0.47968 2.2486 1.8475 0.0286 1.7656 1.4259 11.601 0 15.094-0.27591 0.67367-2.9346 2.0914-2.2478 1.8467l-22.556 2e-6c0.66958 0.28322-1.9687-1.1746-2.2494-1.8467-1.4554-3.4805-0.0286-13.327 1e-5 -15.094 0.0237-1.3678 1.5282-1.7575 2.2502-1.8475 5.5949-0.69496 16.948-0.59673 22.555 2.2e-6z"
       fill="url(#linearGradient870)"
       stroke="#000"
       stroke-linejoin="round"
       stroke-miterlimit="10"
       id="path42" />
    <path
       d="m163.1 247.47c5.8413-1.3621 6.9005-6.9873 6.8989-13.49v-129.75c1e-5 -13.367-8.8831-21.24-16.404-25.303-12.481-6.745-12.334-4.1239-12.332-18.455l-0.0884-20.192 0.04-2.2846c-8.2e-4 -1.0257 1.1714-1.1484 1.1714-2.1111 7.9e-4 -1.3842-0.57137-1.1444-0.60166-1.6854-0.0303-0.54271 0.47723-0.70969 0.47478-0.90042-0.0221-1.5659-0.10969-8.6113-0.10969-8.6113-1.5504-1.5307-27.311-1.2041-28.299 0l-0.1097 8.6113c-3e-3 0.19155 0.50423 0.35853 0.47393 0.90124-0.0295 0.54188-0.60082 0.30123-0.60161 1.6854 0 0.96263 1.1714 1.0846 1.1722 2.1103l0.0394 2.2854-0.0884 20.192c2e-3 14.331 0.14981 11.711-12.332 18.455-7.5226 4.0634-16.404 11.938-16.404 25.303l-8.17e-4 129.74c8.22e-4 6.5051 1.1132 11.912 6.898 13.491 16.933 4.6199 53.111 3.984 70.203 1e-5zm-25.467-178.96c1.0445 5.7758 8.8241 8.996 15.199 12.691 7.7985 4.5209 13.384 10.266 13.384 20.062v126.53c-5.9018 5.9019-72.034 5.4468-76.434 0v-126.53c-8.21e-4 -9.7958 5.5867-15.54 13.384-20.062 6.375-3.695 14.154-6.9161 15.198-12.692 0.41668-14.835-0.24147-44.518-0.24147-44.518 5.3403-0.38964 14.402-0.4633 19.76-0.07203 0 0-1.4726 30.059-0.25048 44.59z"
       fill="url(#linearGradient890)"
       stroke="#000"
       stroke-miterlimit="10"
       id="path44" />
    <path
       d="m118.32 40.165s2.5998 2.4688 9.6844 2.468c7.0855-1e-6 9.885-2.4688 9.885-2.4688l2e-5 -16.244s0-0.6172-9.7843-0.61638c-9.7843-8.2e-4 -9.7843 0.61638-9.7843 0.61638l8.1e-4 16.244z"
       fill="url(#linearGradient882)"
       stroke="#000"
       stroke-linejoin="round"
       stroke-miterlimit="10"
       id="path54" />
    <path
       style="fill:#88aa00;stroke-width:0.179055"
       d="m 115.98926,231.74358 c -14.03562,-0.55983 -24.335678,-2.07537 -25.871423,-3.80672 -0.259191,-0.2922 -0.270179,-3.4252 -0.228058,-65.02551 0.04216,-61.65344 0.05741,-64.773463 0.32212,-65.878603 0.96674,-4.036102 2.502594,-6.957264 5.103455,-9.706666 2.502095,-2.644996 5.256216,-4.600239 10.822516,-7.683275 1.94051,-1.074801 4.1484,-2.337823 4.90642,-2.806716 4.06059,-2.511777 6.35707,-4.857028 7.09831,-7.249055 0.23199,-0.748637 0.34822,-0.927734 0.57671,-0.888678 0.15739,0.0269 5.37604,1.331814 11.597,2.899803 l 11.31084,2.850888 1.68206,1.13755 c 1.77829,1.202628 2.94883,1.891773 8.17851,4.81504 5.67328,3.171224 7.41475,4.460802 9.68186,7.169537 2.38641,2.851262 4.31852,6.191236 5.02596,8.688185 0.34117,1.204172 0.40423,4.05924 0.10142,4.59148 -0.15231,0.26771 -0.19222,13.48781 -0.19222,63.67315 v 63.33528 l -0.53273,0.31432 c -3.02087,1.78236 -11.73997,3.01797 -25.2984,3.58511 -4.15906,0.17397 -19.7874,0.16424 -24.28435,-0.0152 z"
       id="path106" />
  </g>
</svg>
