<?xml version="1.0" encoding="UTF-8" standalone="no"?>
<svg
   xmlns:dc="http://purl.org/dc/elements/1.1/"
   xmlns:cc="http://creativecommons.org/ns#"
   xmlns:rdf="http://www.w3.org/1999/02/22-rdf-syntax-ns#"
   xmlns:svg="http://www.w3.org/2000/svg"
   xmlns="http://www.w3.org/2000/svg"
   xmlns:sodipodi="http://sodipodi.sourceforge.net/DTD/sodipodi-0.dtd"
   xmlns:inkscape="http://www.inkscape.org/namespaces/inkscape"
   version="1.1"
   viewBox="0 0 64 64"
   id="svg173"
   sodipodi:docname="orkfood.svg"
   inkscape:version="1.0.2-2 (e86c870879, 2021-01-15)">
  <metadata
     id="metadata177">
    <rdf:RDF>
      <cc:Work
         rdf:about="">
        <dc:format>image/svg+xml</dc:format>
        <dc:type
           rdf:resource="http://purl.org/dc/dcmitype/StillImage" />
      </cc:Work>
    </rdf:RDF>
  </metadata>
  <sodipodi:namedview
     pagecolor="#ffffff"
     bordercolor="#666666"
     borderopacity="1"
     objecttolerance="10"
     gridtolerance="10"
     guidetolerance="10"
     inkscape:pageopacity="0"
     inkscape:pageshadow="2"
     inkscape:window-width="1920"
     inkscape:window-height="1017"
     id="namedview175"
     showgrid="false"
     inkscape:zoom="8.901276"
     inkscape:cx="64.913599"
     inkscape:cy="46.813537"
     inkscape:window-x="-8"
     inkscape:window-y="-8"
     inkscape:window-maximized="1"
     inkscape:current-layer="svg173"
     inkscape:document-rotation="0" />
  <defs
     id="defs7">
    <linearGradient
       id="c"
       x1="36.16"
       x2="52.088"
       y1="157.59"
       y2="157.59"
       gradientTransform="translate(48.831 -8.8576)"
       gradientUnits="userSpaceOnUse">
      <stop
         stop-color="#505050"
         offset="0"
         id="stop2" />
      <stop
         stop-color="#a0a0a0"
         offset="1"
         id="stop4" />
    </linearGradient>
  </defs>
  <g
     transform="matrix(1.3401 0 0 1.3401 -10.642 -10.285)"
     fill="none"
     stroke-linecap="round"
     stroke-linejoin="round"
     id="g13">
    <path
       transform="matrix(.288 -.0504 0 .288 -5.044 1.13)"
       d="m84.954 120.28v50.1"
       stroke="#505050"
       id="path9" />
    <path
       transform="matrix(.288 -.0504 0 .288 -5.044 1.13)"
       d="m100.08 175.36v-50"
       stroke="#a0a0a0"
       id="path11" />
  </g>
  <g
     transform="matrix(.38595 -.067541 0 .38595 -17.401 -8.7708)"
     id="g43">
    <path
       d="m99.951 175.36h100.24c3.8742 0 6.1474-1.0815 6.248-2.6719l0.23242 0.0586v-50h-106.72"
       fill="#a0a0a0"
       stroke="#000"
       stroke-linecap="round"
       stroke-linejoin="round"
       id="path15" />
    <path
       d="m84.954 120.28v50.1c2.7189 2.7573 9.5756 4.9773 15.127 4.9773v-50"
       fill="url(#c)"
       id="path17" />
    <g
       stroke="#000"
       stroke-linecap="round"
       stroke-linejoin="round"
       id="g29">
      <path
         d="m85.054 170.38-34.356-34.84c-0.75212-0.76275-1.1092-1.4801-1.1328-2.125l-0.23438-0.0586v-50l35.723 37.024"
         fill="#505050"
         id="path19" />
      <path
         d="m85.054 170.38c2.7189 2.7573 9.3763 4.9766 14.928 4.9766"
         fill="none"
         id="path21" />
      <rect
         transform="matrix(1 0 .70213 .71205 0 0)"
         x="-33.652"
         y="113.14"
         width="120.25"
         height="62.909"
         rx="10.021"
         ry="6.9898"
         fill="#787878"
         stroke-width="1.1851"
         id="rect23" />
      <rect
         transform="matrix(1 0 .70213 .71205 0 0)"
         x="-27.64"
         y="116.29"
         width="108.22"
         height="56.618"
         rx="9.0185"
         ry="6.2909"
         fill="#787878"
         stroke-width="1.0666"
         id="rect25" />
      <path
         transform="matrix(1 0 .70213 .71205 0 0)"
         d="m-18.621 123.63h90.185v41.939h-90.185z"
         fill="#b0a080"
         stroke-width="1.1851"
         id="path27" />
    </g>
    <g
       fill="none"
       stroke="#dcc8a0"
       stroke-linecap="round"
       stroke-linejoin="round"
       stroke-width="1.6667"
       id="g39">
      <path
         transform="matrix(1.2025 0 .58894 .59725 -87.385 36.822)"
         d="m115.72 97.78c-0.78562 1.4159-1.983 2.6002-3.4075 3.3702-1.4245 0.77-3.0712 1.123-4.6861 1.0047-1.6494-0.12086-3.2212-0.71484-4.7853-1.2523-1.5641-0.53746-3.1884-1.0296-4.8396-0.93516-1.1727 0.06712-2.3249 0.43549-3.3283 1.0464-1.0033 0.61086-1.857 1.4619-2.4859 2.454-1.2577 1.9843-1.573 4.5109-0.96704 6.7807 0.28472 1.0666 0.7652 2.0848 1.4418 2.957 0.67666 0.87222 1.5516 1.5958 2.5539 2.0585 1.0023 0.46267 2.1319 0.6594 3.2271 0.52106 1.0952-0.13833 2.1512-0.6172 2.9488-1.3804 0.6686-0.63974 1.1416-1.4552 1.5488-2.2862 0.4072-0.83096 0.75891-1.6912 1.2316-2.4867 0.47266-0.79555 1.0818-1.5356 1.8839-1.997 0.40106-0.23071 0.84698-0.388 1.3072-0.43584 0.4602-0.0478 0.9346 0.016 1.3565 0.20587 0.58735 0.26435 1.0541 0.76888 1.3115 1.3593 0.25742 0.59041 0.31136 1.2607 0.19431 1.894s-0.40018 1.2302-0.78162 1.7492c-0.38145 0.519-0.85952 0.96228-1.3804 1.3411-1.5844 1.1522-3.5938 1.7052-5.5446 1.526-1.9508-0.17916-3.8259-1.089-5.174-2.5104"
         id="path31" />
      <path
         transform="matrix(1.2025 0 .58894 .59725 -87.385 36.822)"
         d="m97.342 112.76c3.5669 1.5668 7.3666 2.6022 11.235 3.0615 1.0647 0.1264 2.1397 0.20947 3.2088 0.12929 1.0692-0.0802 2.1369-0.32862 3.0824-0.83428s1.7638-1.2809 2.2206-2.2508c0.45683-0.96999 0.5258-2.1386 0.086-3.1164-0.26693-0.59354-0.71746-1.1076-1.2851-1.4259-0.56764-0.31832-1.2513-0.43427-1.8868-0.29395-0.42062 0.0929-0.8155 0.295-1.1429 0.57492-0.3274 0.27993-0.58737 0.63663-0.76215 1.0303-0.34955 0.7874-0.34768 1.7101-0.0604 2.5223 0.28728 0.81218 0.8464 1.5147 1.5318 2.0366 0.68534 0.522 1.493 0.86969 2.3279 1.0819 1.4041 0.35691 2.9199 0.33189 4.2752-0.1798 1.3553-0.51168 2.5347-1.5278 3.1425-2.8428 0.17683-0.38263 0.30599-0.78981 0.35209-1.2088 0.0461-0.41899 7e-3 -0.85045-0.14116-1.245-0.1484-0.39452-0.4095-0.75042-0.75843-0.9869s-0.78674-0.34758-1.2025-0.27803c-0.27556 0.0461-0.53631 0.16933-0.75444 0.34391-0.21812 0.17458-0.39406 0.39954-0.52167 0.64808-0.25521 0.49708-0.314 1.0773-0.25512 1.633 0.11175 1.0546 0.64177 2.0529 1.4291 2.7633 0.78731 0.71042 1.8215 1.1331 2.8788 1.2138 1.0574 0.0807 2.1328-0.17519 3.059-0.69158 0.92622-0.51639 1.7031-1.288 2.2579-2.1918 0.42175-0.68697 0.71781-1.4472 1.1658-2.1174 0.22399-0.33508 0.487-0.64758 0.80481-0.89547 0.31781-0.24788 0.69294-0.42952 1.0918-0.48713 0.52126-0.0753 1.0662 0.069 1.4972 0.37174 0.43099 0.3027 0.7479 0.75736 0.90798 1.2591s0.16645 1.0478 0.044 1.56c-0.1225 0.51223-0.37118 0.99077-0.69915 1.4028-0.52913 0.66483-1.2695 1.1589-2.0865 1.3923-0.817 0.23343-1.7066 0.2051-2.5072-0.0798"
         id="path33" />
      <path
         transform="matrix(1.2025 0 .58894 .59725 -87.385 36.822)"
         d="m129.88 114.66c1.3605-1.0865 2.2979-2.6896 2.5777-4.4081 0.27975-1.7185-0.1008-3.5361-1.0464-4.998a7.11 7.11 0 0 0-1.0937-1.3125"
         id="path35" />
      <path
         transform="matrix(1.2025 0 .58894 .59725 -87.385 36.822)"
         d="m130.32 103.94c-0.6923 2.2039-0.45505 4.6837 0.64256 6.7164s3.0411 3.5911 5.2636 4.221c1.645 0.46621 3.4478 0.42664 5.0312-0.21875 0.68841-0.2806 1.3354-0.67507 1.8656-1.1962 0.5302-0.52109 0.94073-1.172 1.1346-1.8897 0.1939-0.71767 0.16364-1.502-0.13051-2.1847-0.29416-0.68273-0.85958-1.2538-1.5572-1.5106-0.47125-0.1735-0.99268-0.20256-1.4833-0.0955-0.49063 0.10707-0.94955 0.34844-1.3248 0.68212-0.75059 0.66734-1.1421 1.6903-1.1293 2.6946 0.01 0.7733 0.24736 1.542 0.67372 2.1873s1.0399 1.1648 1.7456 1.481c0.70577 0.31621 1.5014 0.42819 2.2673 0.32111 0.76592-0.10708 1.4998-0.43262 2.0945-0.92697 0.66419-0.55208 1.1418-1.2941 1.5571-2.0514 0.41528-0.75728 0.78093-1.5452 1.2736-2.2546s1.1322-1.3481 1.9351-1.6663c0.40146-0.1591 0.83906-0.23404 1.2689-0.19251 0.42983 0.0415 0.85097 0.20232 1.184 0.47728 0.33872 0.27969 0.57859 0.67141 0.69771 1.0942 0.11911 0.42282 0.12015 0.87515 0.0274 1.3045-0.18544 0.85876-0.73241 1.6028-1.3814 2.1949-0.22165 0.20226-0.45798 0.39107-0.72134 0.53487-0.26336 0.14381-0.55558 0.24171-0.8554 0.25383-0.29982 0.0121-0.60749-0.0657-0.84845-0.2445-0.12048-0.0894-0.2233-0.20319-0.29663-0.33409-0.0733-0.13089-0.11679-0.27891-0.12189-0.42886-6e-3 -0.17847 0.0425-0.35749 0.13193-0.51207 0.0894-0.15458 0.21883-0.28482 0.36908-0.38133 0.30051-0.19301 0.67613-0.24699 1.0302-0.20033 0.37085 0.0489 0.72235 0.2016 1.0383 0.40184 0.31595 0.20023 0.59921 0.44751 0.8745 0.70075 0.5506 0.50649 1.0997 1.0567 1.8059 1.3036 0.51642 0.18054 1.089 0.18193 1.6153 0.0326 0.52629-0.14935 1.0062-0.4455 1.3977-0.82761 0.78301-0.76424 1.196-1.8422 1.3619-2.9237 0.2254-1.469 0.0278-3.0005-0.56316-4.3642-0.59093-1.3637-1.5733-2.5551-2.7993-3.3951-1.226-0.84005-2.6917-1.326-4.1768-1.3847-1.485-0.0588-2.9846 0.30985-4.2731 1.0504"
         id="path37" />
    </g>
    <path
       d="m104.99 130.36h90.185v40h-90.185z"
       fill="#b0a080"
       stroke="#000"
       stroke-linecap="round"
       stroke-linejoin="round"
       id="path41" />
  </g>
  <path
     style="fill:#b0a080;fill-opacity:1"
     id="path193"
     d="m 45.922935,22.527481 c 0.05718,-0.0073 0.114122,-0.01684 0.171545,-0.02192 0.120334,-0.01063 0.27908,-0.01351 0.39961,-0.0141 0.18946,-9.32e-4 0.378548,0.0049 0.567779,0.01324 0.247084,0.01538 0.493648,0.04121 0.737662,0.08317 0.598362,0.110512 0.206793,0.139381 1.352415,-0.659066 0.02641,-0.01841 -0.03283,-0.05539 -0.04925,-0.08308 -0.08835,-0.09532 -0.210086,-0.142569 -0.321885,-0.203141 -0.09708,-0.0526 -0.117317,-0.06726 -0.209078,-0.124814 -0.13571,-0.09011 -0.264818,-0.188627 -0.406256,-0.269861 -0.08818,-0.04994 -0.17881,-0.09536 -0.270233,-0.139017 -0.0094,-0.0048 -0.01888,-0.0096 -0.02832,-0.01442 0,0 -1.109283,0.767035 -1.109283,0.767035 v 0 c 0.0086,-5.28e-4 0.01714,-0.0011 0.02571,-0.0016 0.09784,0.02355 0.190892,0.06366 0.28131,0.107259 0.149278,0.07549 0.29627,0.15597 0.441029,0.239784 0.102901,0.06007 0.204652,0.119389 0.300554,0.190393 0.02416,0.01789 0.08498,0.06481 0.109871,0.09056 0.0074,0.0076 0.01256,0.01713 0.01884,0.02569 -0.282141,-0.38388 -0.02786,-0.01918 1.131118,-0.690737 0.009,-0.0052 -0.01825,0.0107 -0.02836,0.0133 -0.05926,0.01522 -0.122219,-0.0021 -0.181981,0.0013 -0.269774,-0.01341 -0.538905,-0.03957 -0.809151,-0.04359 -0.193349,-0.0035 -0.386705,-0.0056 -0.580057,-0.0089 -0.107341,-0.0018 -0.252339,-0.0014 -0.360799,-0.0141 -0.03753,-0.0044 -0.07414,-0.01461 -0.11121,-0.02192 0,0 -1.071587,0.778554 -1.071587,0.778554 z" />
  <rect
     style="fill:#b0a080;fill-opacity:1;stroke-width:0.644417"
     id="rect35"
     width="27.478706"
     height="8.1900253"
     x="13.397322"
     y="24.245449"
     transform="matrix(0.98343114,-0.18128208,0.20855316,0.97801103,0,0)" />
  <rect
     style="fill:#b0a080;fill-opacity:1"
     id="rect39"
     width="6.909122"
     height="5.5610003"
     x="26.629549"
     y="1.1463338"
     transform="rotate(45.237264)" />
  <rect
     style="fill:#b0a080;fill-opacity:1"
     id="rect41"
     width="6.909122"
     height="6.3474045"
     x="17.546717"
     y="41.757095"
     transform="rotate(-39.954579)"
     inkscape:transform-center-x="21.358443"
     inkscape:transform-center-y="-7.7203946" />
  <path
     style="fill:#217821;fill-opacity:1;stroke-width:0.0561717"
     d="m 23.367078,42.135213 v -7.492596 l 0.126387,-0.02986 c 0.11287,-0.02666 34.138937,-5.98266 34.178385,-5.98266 0.0089,0 0.01615,3.374516 0.01615,7.498925 0,4.124409 -0.01457,7.498925 -0.03238,7.498925 -0.04144,0 -34.05889,5.94704 -34.190243,5.977249 -0.09324,0.02144 -0.0983,-0.363018 -0.0983,-7.469988 z"
     id="path45" />
  <path
     style="fill:#217821;fill-opacity:1;stroke-width:0.0561717"
     d="M 14.889702,25.337621 C 10.39384,21.564625 9.4367442,20.737557 9.5253025,20.702012 9.604068,20.670397 30.983043,16.919095 43.235419,14.787003 l 0.404839,-0.07045 5.352762,4.489179 c 2.94402,2.469048 5.409,4.54427 5.477735,4.611604 l 0.124971,0.122426 -16.976488,2.968868 c -9.337068,1.632878 -17.039682,2.980673 -17.116918,2.995101 -0.119349,0.02229 -0.961875,-0.663138 -5.612618,-4.566112 z"
     id="path47" />
</svg>
