<?xml version="1.0" encoding="UTF-8" standalone="no"?>
<svg
   viewBox="0 0 64 64"
   version="1.1"
   id="svg12"
   sodipodi:docname="penis_piercing.svg"
   inkscape:version="1.2.2 (732a01da63, 2022-12-09)"
   xmlns:inkscape="http://www.inkscape.org/namespaces/inkscape"
   xmlns:sodipodi="http://sodipodi.sourceforge.net/DTD/sodipodi-0.dtd"
   xmlns="http://www.w3.org/2000/svg"
   xmlns:svg="http://www.w3.org/2000/svg">
  <defs
     id="defs16" />
  <sodipodi:namedview
     id="namedview14"
     pagecolor="#ffffff"
     bordercolor="#666666"
     borderopacity="1.0"
     inkscape:showpageshadow="2"
     inkscape:pageopacity="0.0"
     inkscape:pagecheckerboard="0"
     inkscape:deskcolor="#d1d1d1"
     showgrid="false"
     inkscape:zoom="17.419726"
     inkscape:cx="29.133639"
     inkscape:cy="31.975245"
     inkscape:window-width="2880"
     inkscape:window-height="1526"
     inkscape:window-x="2869"
     inkscape:window-y="-11"
     inkscape:window-maximized="1"
     inkscape:current-layer="svg12" />
  <ellipse
     cx="48.282948"
     cy="27.728004"
     fill="#ff8080"
     stroke="#000000"
     stroke-linecap="round"
     stroke-linejoin="round"
     stroke-width="0.497476"
     rx="2.4489532"
     ry="2.273478"
     id="ellipse189" />
  <ellipse
     cx="53.603386"
     cy="19.799208"
     fill="#ff8080"
     stroke="#000000"
     stroke-linecap="round"
     stroke-linejoin="round"
     stroke-width="0.497476"
     rx="2.4489532"
     ry="2.273478"
     id="ellipse186" />
  <ellipse
     cx="42.514473"
     cy="34.781898"
     fill="#ff8080"
     stroke="#000000"
     stroke-linecap="round"
     stroke-linejoin="round"
     stroke-width="0.497476"
     rx="2.4489532"
     ry="2.273478"
     id="ellipse183" />
  <ellipse
     cx="35.457901"
     cy="40.578125"
     fill="#ff8080"
     stroke="#000000"
     stroke-linecap="round"
     stroke-linejoin="round"
     stroke-width="0.497476"
     rx="2.4489532"
     ry="2.273478"
     id="ellipse192" />
  <path
     fill="#808080"
     fill-rule="evenodd"
     stroke="#000000"
     stroke-width="0.557165"
     d="M 9.6621039,39.608977 C 1.9591861,43.048767 3.1583684,49.821908 8.3166462,53.287298 12.394418,56.026465 18.248194,55.723311 20.469923,53.349271 34.073535,57.383244 34.508222,45.825656 32.701859,42.914027 46.435187,35.220651 52.08059,24.16293 58.473928,14.505108 60.060878,11.472219 60.416908,7.0677239 56.097643,6.039694 53.278391,5.3687127 46.6546,8.3706135 41.728155,12.997422 41.26725,13.429921 41.459063,14.518582 42.440213,14.852726 34.335728,25.422705 23.399572,33.475829 9.6634838,39.607629 Z"
     id="path8" />
  <path
     fill-rule="evenodd"
     d="m 42.436072,14.859462 0.103501,-0.319322 c 0.371209,0.144166 0.735517,0.204797 1.159164,0.212881 0.426407,0.0067 0.896971,-0.04177 1.476553,-0.107792 1.156403,-0.130694 2.666077,-0.319323 4.974743,-0.233092 -2.304527,0.0256 -3.79488,0.323364 -4.919545,0.563194 -0.560262,0.118566 -1.048767,0.229048 -1.506912,0.277554 -0.463666,0.0512 -0.910772,0.04446 -1.390996,-0.0741 z M 20.338828,53.45437 c 0.117296,0.02425 0.234592,0.04581 0.354649,0.06736 0.298071,-0.437891 0.670659,-0.953927 1.001848,-1.495562 0.367069,-0.602267 0.678939,-1.228785 0.783816,-1.802757 -0.209754,0.536245 -0.614081,1.09405 -1.058427,1.61278 -0.404327,0.471573 -0.844533,0.913506 -1.224022,1.293459 0.04555,0.109131 0.09384,0.21827 0.142136,0.324712 z m 38.041263,-38.795663 0.226313,-0.22905 a 0.90249161,0.88116841 0 0 0 -0.287031,-0.134736 2.2921079,2.2379522 0 0 0 -0.31463,-0.06602 6.4664767,6.3136929 0 0 0 -0.717577,-0.05659 12.608663,12.310758 0 0 0 -1.25852,0.02425 c 0.121435,0.04042 0.30773,0.08489 0.521623,0.132041 0.213894,0.04716 0.455386,0.0997 0.689978,0.160335 0.234593,0.05928 0.458145,0.126651 0.63202,0.202103 a 1.1108651,1.0846186 0 0 1 0.211134,0.113177 c 0.04967,0.03638 0.07728,0.07275 0.069,0.08488 z"
     id="path10"
     style="stroke-width:1.36356" />
  <ellipse
     cx="51.979252"
     cy="18.869625"
     fill="#ff8080"
     stroke="#000000"
     stroke-linecap="round"
     stroke-linejoin="round"
     stroke-width="0.497476"
     rx="2.4489532"
     ry="2.273478"
     id="ellipse6"
     style="display:inline" />
  <ellipse
     cx="46.434795"
     cy="25.540745"
     fill="#ff8080"
     stroke="#000000"
     stroke-linecap="round"
     stroke-linejoin="round"
     stroke-width="0.497476"
     rx="2.4489532"
     ry="2.273478"
     id="ellipse177" />
  <ellipse
     cx="40.106281"
     cy="31.665062"
     fill="#ff8080"
     stroke="#000000"
     stroke-linecap="round"
     stroke-linejoin="round"
     stroke-width="0.497476"
     rx="2.4489532"
     ry="2.273478"
     id="ellipse179" />
  <ellipse
     cx="32.825687"
     cy="37.351921"
     fill="#ff8080"
     stroke="#000000"
     stroke-linecap="round"
     stroke-linejoin="round"
     stroke-width="0.497476"
     rx="2.4489532"
     ry="2.273478"
     id="ellipse181" />
</svg>
