<?xml version="1.0" encoding="UTF-8" standalone="no"?>
<svg
   xmlns:dc="http://purl.org/dc/elements/1.1/"
   xmlns:cc="http://creativecommons.org/ns#"
   xmlns:rdf="http://www.w3.org/1999/02/22-rdf-syntax-ns#"
   xmlns:svg="http://www.w3.org/2000/svg"
   xmlns="http://www.w3.org/2000/svg"
   xmlns:sodipodi="http://sodipodi.sourceforge.net/DTD/sodipodi-0.dtd"
   xmlns:inkscape="http://www.inkscape.org/namespaces/inkscape"
   viewBox="0 0 7256.693 7256.693"
   version="1.1"
   id="svg6"
   sodipodi:docname="SLAYER.svg"
   inkscape:version="1.0.2-2 (e86c870879, 2021-01-15)">
  <metadata
     id="metadata12">
    <rdf:RDF>
      <cc:Work
         rdf:about="">
        <dc:format>image/svg+xml</dc:format>
        <dc:type
           rdf:resource="http://purl.org/dc/dcmitype/StillImage" />
      </cc:Work>
    </rdf:RDF>
  </metadata>
  <defs
     id="defs10" />
  <sodipodi:namedview
     pagecolor="#ffffff"
     bordercolor="#666666"
     borderopacity="1"
     objecttolerance="10"
     gridtolerance="10"
     guidetolerance="10"
     inkscape:pageopacity="0"
     inkscape:pageshadow="2"
     inkscape:window-width="1920"
     inkscape:window-height="1017"
     id="namedview8"
     showgrid="false"
     inkscape:zoom="0.11403662"
     inkscape:cx="1848.2119"
     inkscape:cy="3573.344"
     inkscape:window-x="-8"
     inkscape:window-y="-8"
     inkscape:window-maximized="1"
     inkscape:current-layer="svg6" />
  <path
     style="fill:#000000;stroke-width:9.28831"
     d="m 3590.2596,7026.1782 c -12.0859,-14.2035 -18.078,-42.56 -22.7714,-107.7624 -3.5032,-48.6677 -14.9887,-118.0366 -25.5235,-154.1532 -35.7142,-122.4395 -24.1982,-198.2 43.8918,-288.7519 54.3682,-72.3033 63.5749,-102.0919 69.0191,-223.3125 8.1707,-181.9316 -25.4922,-291.248 -111.0933,-360.7626 -23.022,-18.6956 -52.0501,-33.7589 -65.048,-33.7546 -53.61,0.019 -152.2375,64.5207 -388.2388,253.9123 -47.0593,37.7652 -95.3272,74.1906 -107.2618,80.9453 -31.3537,17.7455 -97.9407,6.5726 -159.9208,-26.8337 -76.281,-41.1143 -91.7499,-62.9901 -111.086,-157.096 -20.5296,-99.9147 -48.6472,-171.9632 -117.308,-300.5897 -86.8773,-162.7526 -98.0547,-216.6696 -54.5167,-262.9742 33.0891,-35.1918 50.6695,-35.0827 115.3948,0.7165 61.8304,34.1978 135.7554,50.5746 191.5212,42.4283 182.7028,-26.6897 530.9521,-169.4791 610.7499,-250.4201 l 35.7369,-36.2491 7.7478,-124.5253 c 11.5264,-185.2526 8.612,-1626.4251 -4.058,-2006.7741 -13.3768,-401.5675 -17.1948,-447.5245 -39.1159,-470.8386 -33.7075,-35.8493 -314.9946,-19.8251 -846.8275,48.2418 -210.5457,26.9468 -231.6698,20.2376 -351.085,-111.5082 -121.6271,-134.1861 -167.8228,-220.5553 -143.6548,-268.583 16.7153,-33.2176 64.7145,-42.7571 193.324,-38.4217 129.413,4.3624 150.6015,11.3329 216.6634,71.2766 19.3822,17.5871 48.7163,34.6654 65.1869,37.9516 33.7343,6.7307 452.67,-35.58 624.4905,-63.071 92.4546,-14.7926 115.2958,-21.7053 128.3436,-38.8423 20.0572,-26.3437 19.9475,-34.8891 -0.5981,-46.5833 -9.0586,-5.1561 -145.8458,-12.0856 -303.9716,-15.3989 -337.5563,-7.073 -402.283,-13.6543 -432.6451,-43.9905 -37.5139,-37.4819 -29.3241,-71.3272 32.8097,-135.59 29.8579,-30.8811 67.3477,-61.8883 83.3107,-68.9049 54.4837,-23.9488 244.9299,-43.1843 524.3845,-52.9638 357.9045,-12.525 1506.837,-12.469 1648.2014,0.077 239.8772,21.2945 545.2043,81.1679 680.9161,133.5249 166.381,64.189 175.8262,131.5185 45.7381,326.0478 -57.0179,85.2624 -208.0067,244.6821 -289.8358,306.0198 -90.6058,67.9204 -184.4191,115.4542 -227.8541,115.4542 -44.5267,0 -82.0525,-37.8826 -95.7596,-96.6698 -22.6083,-96.9627 -29.3164,-114.3726 -54.3177,-140.962 -32.9415,-35.035 -92.6082,-65.1538 -164.9607,-83.2692 -83.1387,-20.8161 -417.1705,-37.8561 -486.6985,-24.8279 -90.7772,17.0099 -122.3947,29.2021 -133.8061,51.5976 -11.2275,22.034 -29.1506,161.0506 -133.634,1036.494 -59.4163,497.8324 -62.8685,537.3857 -62.7037,718.4155 0.2072,225.8497 13.9152,526.0293 24.9878,547.0719 6.4226,12.2061 20.3612,4.2156 79.0903,-45.3402 107.641,-90.8279 328.5289,-325.4975 361.0894,-383.6179 33.9493,-60.5998 158.5354,-427.4951 174.4337,-513.6938 24.6024,-133.3911 -2.6272,-343.9447 -82.9901,-641.7166 -31.7382,-117.6003 -46.1226,-188.5758 -46.8899,-231.3629 -1.0295,-57.4182 0.5674,-62.7335 22.9154,-76.2356 21.6509,-13.0811 28.8615,-12.8917 73.0369,1.9181 60.5313,20.2932 115.0553,61.3949 150.5231,113.4673 28.9282,42.4725 82.6767,207.1551 121.477,372.2006 13.0055,55.3179 45.4363,178.167 72.0696,272.9979 92.9108,330.8157 104.432,384.0225 110.0314,508.1279 4.588,101.69 3.0911,120.4602 -12.6029,158.0514 -29.5622,70.8094 -220.85,287.5137 -671.8087,761.0728 -235.7963,247.6139 -432.6394,461.3763 -437.4295,475.0275 -4.7899,13.6512 -27.4517,192.5367 -50.3594,397.5232 -72.6581,650.171 -112.3326,975.04 -123.7867,1013.6078 -16.7504,56.4008 -60.8073,101.4578 -99.2062,101.4578 -19.9408,0 -37.2728,-7.0014 -47.7171,-19.2755 z m 70.1203,-1.2886 c 29.1163,-16.5727 49.5123,-46.5646 64.1851,-94.3824 15.8389,-51.6183 32.6912,-186.2581 108.7455,-868.8138 36.9426,-331.5438 62.7104,-529.1799 71.2972,-546.8401 7.3957,-15.2104 211.704,-236.3342 454.0184,-491.3863 440.1635,-463.3021 617.8045,-662.5558 647.8396,-726.6601 12.4623,-26.5974 15.7128,-55.9511 14.904,-134.5942 -1.1519,-112.0179 -15.1103,-179.6418 -97.8743,-474.1542 -26.6496,-94.8309 -61.1879,-226.3009 -76.7522,-292.1557 -41.6454,-176.2113 -94.9211,-343.7603 -125.737,-395.4401 -40.6133,-68.1097 -141.2104,-129.045 -198.6813,-120.3492 -42.0345,6.3601 -42.9333,41.8861 -4.7464,187.6674 99.4757,379.758 116.898,484.5243 110.9861,667.3739 l -4.0521,125.3234 -68.6957,203.9989 c -37.7835,112.1994 -81.858,230.7379 -97.9437,263.419 -33.1361,67.3212 -197.1348,246.9787 -346.4457,379.5258 -93.4818,82.9854 -118.6642,92.2521 -129.7792,47.7562 -3.4162,-13.6797 -11.0312,-160.2365 -16.9206,-325.6817 -12.4304,-349.1666 -13.7633,-328.5066 62.6632,-971.3309 110.8321,-932.2157 120.5709,-1001.9915 142.4874,-1020.8663 50.9862,-43.9093 211.2184,-56.82 464.3173,-37.4119 254.0194,19.4784 349.4971,71.9602 379.4646,208.5815 17.3223,78.9727 30.834,106.6078 59.9558,122.6239 30.0513,16.5281 55.4759,11.345 127.0799,-25.9075 171.8777,-89.4207 392.2017,-317.4424 474.8198,-491.4085 32.8308,-69.1316 33.527,-91.5761 3.9972,-128.9 -55.0545,-69.5862 -358.5199,-150.5002 -729.1617,-194.4188 -141.5444,-16.772 -1512.0796,-17.0037 -1828.3327,-0.3094 -326.5115,17.2363 -378.3088,28.2114 -453.1791,96.0222 -58.76,53.2197 -78.4581,89.2397 -64.2468,117.4813 21.0946,41.92 52.6818,46.3154 402.4211,55.9982 182.4985,5.0524 338.9794,12.11 347.7353,15.6835 23.5667,9.6181 16.1148,60.0678 -12.0696,81.7111 -27.1884,20.8784 -129.318,37.3572 -436.8184,70.4814 -289.9418,31.2328 -325.9269,31.3094 -365.6857,0.7788 -97.3791,-74.7767 -145.6164,-91.4916 -263.7516,-91.393 -78.6936,0.067 -126.8629,13.4358 -144.413,40.0842 -11.5316,17.5098 -11.6349,24.5418 -0.7665,52.2058 19.8651,50.5646 61.4735,109.8708 137.0992,195.4124 75.1047,84.9525 135.2723,123.8829 191.6929,124.0317 17.3376,0.048 157.1645,-15.0499 310.7265,-33.5459 447.3538,-53.8821 667.0605,-60.8434 703.316,-22.2841 10.8927,11.5849 16.1155,48.7708 22.1458,157.6778 16.6315,300.3613 26.7278,876.4913 26.418,1507.507 -0.3521,717.4613 -7.1208,921.2554 -32.0906,966.2118 -28.6271,51.5411 -186.3729,139.1513 -364.0299,202.1779 -243.8227,86.4999 -351.535,95.1427 -468.8719,37.6219 -73.8907,-36.2226 -103.4545,-32.4434 -121.8707,15.5785 -14.8984,38.8491 2.0308,89.1029 80.5762,239.1881 68.504,130.8978 92.676,193.7521 108.7264,282.7205 14.3037,79.2865 22.9235,95.8028 66.9241,128.2329 43.8535,32.3216 141.269,65.8035 167.0056,57.4 10.3961,-3.3944 85.7757,-58.9458 167.5103,-123.4473 189.2346,-149.3362 252.5378,-192.5538 310.5146,-211.9907 43.6825,-14.6446 48.7681,-14.5728 79.8768,1.1273 47.1106,23.776 109.7606,101.8042 129.1029,160.7928 13.2976,40.5539 16.3941,79.8738 16.3847,208.0554 -0.01,174.6536 2.0412,166.4837 -67.4303,268.2085 -68.289,99.9934 -76.413,145.696 -44.4748,250.1976 10.2732,33.6137 23.8675,108.1295 30.2097,165.5905 8.9249,80.8614 15.2705,107.3828 28.0757,117.3412 20.1843,15.697 26.8962,15.9418 51.5989,1.8812 z m -1914.4942,-689.132 c -52.2995,-29.3551 -56.0054,-46.3856 -41.9832,-192.9324 6.6888,-69.9052 11.6009,-144.5664 10.9159,-165.9138 -1.3088,-40.7798 -29.7356,-131.7782 -50.6842,-162.2475 -11.8896,-17.2933 -12.6888,-17.1795 -22.9804,3.2725 -5.8644,11.6539 -18.6546,80.321 -28.4229,152.5935 -9.7681,72.2727 -22.2071,143.2586 -27.642,157.7467 -12.4264,33.1251 -42.1128,34.8059 -69.3875,3.9285 -61.15,-69.2272 -46.8189,-285.7583 30.3915,-459.1913 32.5284,-73.0664 53.5683,-94.8803 88.0358,-91.2745 27.8729,2.916 43.2697,19.9493 102.3041,113.1778 l 19.4386,30.6979 52.6121,-68.4932 c 28.9418,-37.6778 62.3123,-71.0823 74.1725,-74.2481 30.5487,-8.1545 64.8001,17.0446 89.4093,65.7795 27.1727,53.8112 22.0377,90.0103 -29.6501,209.0202 -43.9092,101.0997 -54.9943,140.6297 -63.1236,225.1035 -13.297,138.1718 -25.3427,231.2613 -32.5248,251.352 -9.952,27.839 -52.9476,28.5331 -100.8811,1.6287 z m 83.4895,-3.6722 c 6.056,-7.7608 16.5992,-64.8748 23.4293,-126.9201 23.1854,-210.6216 29.6813,-240.6924 75.9651,-351.6548 57.8853,-138.7762 59.439,-174.2181 9.9451,-226.857 -19.2317,-20.4537 -39.45,-37.1886 -44.9297,-37.1886 -5.4796,0 -37.3668,34.4726 -70.8604,76.6056 -33.4936,42.1332 -63.8137,76.6171 -67.378,76.631 -3.5643,0.01 -26.7914,-31.9867 -51.6158,-71.1126 -51.66,-81.4215 -72.8581,-94.1035 -104.4812,-62.5073 -26.7686,26.7457 -71.6654,140.0986 -95.9592,242.2719 -28.6311,120.4149 -14.4118,241.9298 33.2307,283.982 28.2496,24.9348 41.4376,-8.0656 59.83,-149.7118 18.9801,-146.1725 34.1902,-195.0024 60.7414,-195.0024 12.5913,0 23.9298,16.9773 42.6871,63.9161 29.7771,74.5147 32.3058,127.5257 14.5,303.9624 -11.2693,111.6657 -11.109,114.4909 7.7026,135.7875 19.7211,22.3259 67.9451,51.3022 86.0266,51.6905 5.5854,0.1198 15.1103,-6.1316 21.1664,-13.8924 z m 3238.0613,-82.0783 c -43.3963,-34.4549 -67.5492,-63.9512 -67.5492,-82.4918 0,-7.5447 18.7336,-35.0184 41.631,-61.0526 28.3094,-32.188 37.6763,-48.6775 29.2713,-51.5301 -6.7981,-2.3073 -34.6509,-11.6304 -61.8958,-20.7181 -53.4873,-17.841 -126.0919,-83.6434 -126.0919,-114.2784 0,-17.2083 44.9031,-66.6621 120.1962,-132.3779 38.703,-33.7797 41.922,-39.9339 41.922,-80.1526 0,-37.8323 4.6005,-48.4561 34.9671,-80.7521 45.2246,-48.0988 68.0446,-47.8653 110.1521,1.1269 32.4542,37.7604 33.8502,38.3155 96.3738,38.3155 78.7129,0 91.7499,11.0904 91.7499,78.052 0,39.764 -4.3124,52.5335 -25.2679,74.8207 l -25.2679,26.8736 23.172,35.2543 c 12.7443,19.3899 43.2667,46.8373 67.8267,60.9942 24.5609,14.1569 49.9036,36.516 56.3171,49.6869 12.1193,24.8849 7.7178,81.9382 -7.8681,102.0052 -4.7897,6.1664 -42.3408,12.4843 -85.4002,14.3683 l -76.8531,3.3624 -72.2542,83.8152 c -83.7539,97.1554 -103.4269,103.6695 -165.1309,54.6784 z m 156.6611,-66.652 77.8077,-86.2099 h 69.0083 c 77.515,0 97.315,-11.6734 97.315,-57.374 0,-44.0811 -8.7669,-57.1207 -55.248,-82.1708 -40.0657,-21.593 -97.8636,-87.8813 -97.8636,-112.2394 0,-5.1909 9.8658,-19.1626 21.9247,-31.0483 22.5281,-22.2054 38.1752,-79.2876 28.8318,-105.1835 -7.733,-21.4336 -45.0679,-33.4544 -103.9051,-33.4544 -49.1101,0 -53.7305,-2.08 -83.8286,-37.7377 -36.9711,-43.8002 -57.3385,-43.514 -92.7974,1.3041 -21.6986,27.4262 -26.1739,42.3891 -22.9487,76.7166 2.929,31.1601 -23.4035,66.5465 -90.0692,121.0405 -83.4224,68.1906 -89.238,89.9251 -36.6622,137.0218 21.1826,18.9759 60.6926,40.1271 96.5234,51.6731 38.875,12.5271 61.4131,24.9988 62.7559,34.7265 1.152,8.3486 -15.711,32.9995 -37.4736,54.78 -21.7625,21.7803 -39.5676,45.1799 -39.5676,51.999 0,22.8539 89.8963,102.3663 115.7343,102.3663 6.9603,0 47.6682,-38.7945 90.4629,-86.2099 z m -102.7883,-268.4954 c -3.5036,-6.0286 -2.2895,-15.3004 2.6965,-20.6037 12.7948,-13.6079 42.5029,-5.6096 42.5029,11.443 0,17.2212 -36.2469,24.5674 -45.1994,9.1607 z m 31.6896,-3.9372 c 0,-2.3232 -4.053,-6.8881 -9.0066,-10.1442 -4.9536,-3.256 -9.0066,-1.3552 -9.0066,4.2241 0,5.5793 4.053,10.1442 9.0066,10.1442 4.9536,0 9.0066,-1.9008 9.0066,-4.2241 z M 2982.4167,5276.5781 c -20.0685,-9.0445 -26.7284,-23.6046 -26.8818,-58.7702 -0.1919,-43.9063 -11.5749,-64.5428 -161.7964,-293.3164 -292.2801,-445.116 -450.8668,-715.3114 -473.0829,-806.0246 -25.5502,-104.3271 -14.2367,-206.7913 34.8317,-315.4619 16.652,-36.8787 45.0398,-85.0772 63.0841,-107.1077 40.1933,-49.0726 130.0494,-98.8381 178.4611,-98.8381 31.479,0 36.376,3.382 48.0976,33.2184 7.1776,18.2701 13.0502,50.5532 13.0502,71.7401 0,32.8391 6.7091,46.4009 45.4796,91.933 25.0137,29.3762 49.3315,64.1864 54.0394,77.3561 4.7079,13.1695 8.5598,65.9773 8.5598,117.3505 0,165.9272 29.1683,280.2947 120.5863,472.8132 99.2047,208.9165 220.7785,390.4211 261.5083,390.4211 6.7093,0 21.6233,8.1166 33.1424,18.0369 17.3268,14.9218 21.1465,27.821 22.1182,74.6939 1.0009,48.2815 6.7067,66.4127 38.5967,122.6469 60.9339,107.4494 49.8998,157.1857 -42.6299,192.1552 -42.6955,16.1357 -193.0677,28.0136 -217.1644,17.1536 z m 208.9332,-31.7916 c 54.1231,-21.8719 79.2769,-44.1696 79.2769,-70.2753 0,-10.5878 -17.1403,-51.9471 -38.0896,-91.9094 -30.3036,-57.8064 -39.0486,-85.2636 -42.7812,-134.3225 l -4.6916,-61.6639 -52.3579,-28.3017 c -48.1668,-26.0361 -58.0808,-37.5006 -123.8523,-143.2223 -87.1569,-140.0965 -186.9913,-347.2468 -220.2909,-457.0899 -20.4757,-67.5419 -25.6808,-105.912 -30.5365,-225.1036 -6.4667,-158.7393 -8.5719,-165.7529 -71.0845,-236.8307 -36.6299,-41.6488 -41.26,-52.087 -44.8763,-101.1716 -4.1468,-56.2861 -20.8424,-88.2633 -46.0759,-88.25 -28.4859,0.019 -124.6719,55.9232 -156.8655,91.1782 -102.3023,112.0308 -146.1936,310.4247 -98.036,443.1337 26.9279,74.2057 181.5158,337.5482 356.9337,608.0412 84.5896,130.4364 179.1301,276.1874 210.0902,323.8912 44.5174,68.593 56.291,94.2386 56.291,122.6145 0,42.5771 14.2207,65.1934 45.0329,71.6198 39.642,8.268 135.2201,-3.4683 181.9135,-22.3377 z m 308.9443,-3483.4708 c -183.5081,-29.6511 -311.8011,-63.1409 -348.5802,-90.9941 -41.6675,-31.5552 -45.6895,-69.882 -34.4094,-327.9011 11.5701,-264.6546 8.7569,-291.0023 -53.1038,-497.35639 -56.6352,-188.92249 -53.8434,-201.07119 60.9767,-265.35012 l 59.8869,-33.52606 4.5033,-138.89367 c 5.2246,-161.14273 12.0189,-181.9986 59.2896,-181.9986 45.1714,0 68.7951,31.08528 134.6723,177.20916 89.1016,197.63813 152.2412,407.90772 261.3126,870.23208 72.7861,308.5206 87.6135,445.5741 51.6401,477.3265 -13.4042,11.8313 -145.6587,19.4167 -196.1881,11.2523 z m 189.6509,-29.2615 c 27.7745,-29.5394 10.5909,-155.9871 -64.6112,-475.4509 C 3541.8465,901.94299 3484.2598,697.2119 3420.3402,527.81488 3362.792,375.30281 3315.8807,282.3002 3282.3521,254.25079 c -57.9079,-48.44484 -83.7444,4.95022 -83.7639,173.11131 -0.018,136.47988 -0.09,136.64656 -74.4745,170.55577 -51.2214,23.34956 -87.6576,59.5691 -87.6576,87.13624 0,11.00057 16.065,72.62108 35.6999,136.93431 64.7518,212.09068 65.5131,218.77318 58.2593,511.36808 -7.4204,299.3072 -6.1699,307.0363 54.7522,338.4022 110.0018,56.6347 468.0107,99.3987 504.7776,60.2955 z M 5378.163,1476.5881 c -140.1187,-65.2599 -263.1457,-142.3429 -305.473,-191.3943 -42.5389,-49.2974 -21.1861,-147.8156 54.7167,-252.4507 70.1449,-96.69837 128.9902,-126.11643 187.6923,-93.83141 30.1576,16.5864 72.0706,71.24661 72.0706,93.99111 0,8.5479 -26.3442,46.6502 -58.5427,84.672 -49.7676,58.768 -66.8278,84.4816 -56.291,84.8433 1.2384,0.038 48.8606,6.5742 105.8271,14.5149 75.9938,10.5929 106.6413,18.8106 115.0877,30.8591 8.2545,11.7748 10.8025,50.357 9.0065,136.3522 l -2.5056,119.931 -27.0197,1.9869 c -14.8608,1.0928 -57.4168,-12.1705 -94.5689,-29.4741 z m 115.5848,-103.3454 c -2.203,-75.7083 -6.6027,-107.0107 -16.5126,-117.4619 -8.1969,-8.645 -47.1575,-18.4132 -99.0722,-24.8397 -102.3263,-12.6668 -114.015,-15.8543 -120.1125,-32.7535 -2.6362,-7.3045 20.6818,-42.9656 53.2072,-81.373 31.8445,-37.6036 57.8987,-75.8149 57.8987,-84.9139 0,-23.1735 -41.8292,-68.58549 -77.9644,-84.64341 -40.1639,-17.84784 -64.8473,-4.33741 -131.0761,71.74311 -57.017,65.4979 -88.6111,128.2534 -95.022,188.7386 -4.0169,37.9059 -1.4978,45.1005 25.9668,74.1558 71.9499,76.1173 365.9115,229.6727 393.3365,205.4654 9.4344,-8.3273 11.6437,-35.291 9.3506,-114.1175 z m -3815.4818,66.6541 c -12.1993,-12.9745 -13.3938,-94.1019 -2.4315,-165.1475 5.3655,-34.7726 14.1827,-53.421 33.2378,-70.2977 14.2643,-12.6337 17.8292,-18.6293 7.922,-13.3236 -45.388,24.3072 -76.5558,73.4479 -76.5558,120.7016 0,39.1355 -32.957,72.5098 -71.6035,72.5098 -18.8483,0 -38.7187,-5.7013 -44.1562,-12.6695 -16.5382,-21.1936 -38.9715,-130.1019 -32.8773,-159.6115 6.1278,-29.6727 117.6158,-168.9807 151.0423,-188.7325 11.0611,-6.536 29.1261,-12.0365 40.1446,-12.2231 12.8717,-0.2184 24.9273,-10.4047 33.7232,-28.49468 26.6329,-54.77516 86.1809,-76.18864 114.8265,-41.29165 7.5681,9.21966 18.8631,40.47074 25.1001,69.44683 6.2369,28.9761 13.0477,55.8765 15.1352,59.7789 2.0874,3.9022 24.8033,-7.9516 50.4798,-26.3419 62.0223,-44.42243 83.8774,-43.1956 129.5601,7.2732 72.5033,80.0992 71.0961,92.856 -20.4173,185.0876 -45.2821,45.6374 -57.7254,64.2082 -57.7649,86.2099 -0.081,47.1295 -17.4197,98.4095 -35.3088,104.4481 -9.2319,3.1163 -32.5257,-1.0323 -51.764,-9.2191 -33.3707,-14.2008 -37.5467,-13.7754 -90.8342,9.2532 -60.8548,26.2988 -100.5964,30.5767 -117.4581,12.6436 z m 99.0027,-22.0314 c 62.863,-27.1666 79.0216,-28.7686 122.2991,-12.1248 27.3923,10.5346 32.1219,9.8135 43.4206,-6.6203 6.9739,-10.1434 12.6799,-37.5109 12.6799,-60.8167 0,-39.7841 4.1286,-46.8863 67.5492,-116.1982 37.1521,-40.6032 67.5492,-81.0721 67.5492,-89.931 0,-17.5382 -80.9616,-111.8322 -96.0201,-111.8322 -5.0963,0 -33.6697,16.7752 -63.4966,37.2782 -29.8268,20.503 -58.6698,34.3603 -64.0956,30.7939 -5.4257,-3.5664 -15.9673,-34.305 -23.4258,-68.3081 -7.4584,-34.00304 -20.1025,-66.91116 -28.0981,-73.12919 -21.9757,-17.09005 -63.0713,2.23427 -83.6543,39.3367 -12.6429,22.78989 -26.2259,33.24129 -49.1438,37.81399 -23.6701,4.7226 -46.5989,23.1482 -90.7547,72.9299 -82.8175,93.3695 -89.7811,106.5431 -84.8966,160.6068 8.0449,89.0453 43.0853,132.7924 85.8976,107.2413 18.4879,-11.0338 26.9978,-26.4287 34.5177,-62.4437 5.4892,-26.2897 14.6259,-57.0313 20.3038,-68.3148 14.519,-28.8526 70.5685,-63.8556 89.5874,-55.9474 13.6805,5.6884 12.7169,8.9411 -8.079,27.2735 -32.6442,28.7767 -40.7618,49.4345 -47.8376,121.7364 -6.697,68.4318 3.9279,114.6029 26.3728,114.6029 7.6514,0 38.8476,-10.7762 69.3249,-23.9472 z"
     id="path28" />
  <path
     style="fill:#ff5555;fill-opacity:1;stroke-width:8.76911"
     d="m 1763.0067,6318.0522 c -50.6509,-32.8427 -54.328,-45.3951 -44.5942,-152.2297 4.6012,-50.5009 7.0792,-133.2539 5.5065,-183.8955 -2.4219,-77.993 -6.4734,-99.7877 -26.4892,-142.4981 -17.783,-37.946 -28.2003,-50.4224 -42.1007,-50.4224 -26.7116,0 -39.0502,36.9722 -61.4564,184.1513 -10.6465,69.9337 -24.2431,136.5273 -30.2147,147.9857 l -10.8574,20.8336 -18.9706,-20.3625 c -58.3725,-62.6555 -47.4337,-249.3313 24.774,-422.7821 14.9227,-35.8459 36.8629,-74.316 48.7561,-85.489 l 21.6239,-20.3147 20.7734,19.5156 c 11.4254,10.7336 38.0302,44.9633 59.1219,76.0661 21.0916,31.1027 42.6234,56.5504 47.8484,56.5504 5.2249,0 29.5501,-24.6631 54.0559,-54.8069 24.5059,-30.1439 54.0227,-63.6521 65.5929,-74.4628 l 21.0367,-19.6557 34.5908,35.4364 c 30.8018,31.5547 34.4947,39.9515 33.7131,76.655 -0.5729,26.8996 -15.0044,76.6476 -41.5425,143.2048 -40.6659,101.9895 -45.6304,125.0025 -79.9263,370.4996 -12.13,86.829 -22.8305,119.4293 -39.2004,119.4293 -3.2671,0 -22.1856,-10.5338 -42.0412,-23.4084 z"
     id="path30" />
  <path
     style="fill:#ff5555;fill-opacity:1;stroke-width:8.76911"
     d="m 5081.0492,6231.5658 c -64.1263,-48.9641 -65.4889,-57.0546 -19.1837,-113.905 21.828,-26.7989 39.6872,-52.5508 39.6872,-57.2265 0,-4.6758 -33.4013,-23.9329 -74.2252,-42.7936 -79.54,-36.7475 -118.6952,-68.3758 -118.6952,-95.8779 0,-9.9919 26.4611,-41.5988 63.576,-75.9395 77.2551,-71.4802 94.1352,-95.8293 94.2102,-135.8955 0.035,-18.4951 8.9634,-43.9544 22.2967,-63.5761 28.1613,-41.4431 55.8743,-43.3415 85.2251,-5.8382 22.0655,28.1945 62.9987,42.6693 121.7537,43.0544 17.5533,0.1151 40.8094,7.4133 51.6849,16.2198 16.3163,13.2121 18.767,21.369 14.0209,46.6678 -3.1632,16.8614 -15.5696,43.9652 -27.5698,60.2305 -12.0002,16.2653 -21.8186,35.7998 -21.8186,43.4099 0,20.7647 48.726,75.7904 101.8943,115.0681 42.8415,31.6489 47.1807,37.9561 47.1807,68.5805 0,18.9058 -5.6391,38.4061 -12.8326,44.3762 -7.0578,5.8575 -44.5796,12.826 -83.3816,15.4856 l -70.5491,4.8355 -75.315,82.0484 c -41.4233,45.1266 -80.283,82.0484 -86.3551,82.0484 -6.072,0 -29.2937,-13.9378 -51.6038,-30.9728 z m 80.9729,-310.2719 c 18.4777,-11.7 4.5154,-35.8272 -20.7331,-35.8272 -15.6793,0 -22.198,4.7212 -22.198,16.0767 0,27.1768 18.0723,35.491 42.9311,19.7505 z"
     id="path32" />
  <path
     style="fill:#ff5555;fill-opacity:1;stroke-width:8.76911"
     d="m 2985.1711,5246.8233 c -7.982,-8.8201 -14.5995,-27.5641 -14.7054,-41.6533 -0.2984,-39.6897 -23.0963,-81.8813 -148.8843,-275.5366 -290.5874,-447.37 -455.9401,-725.4862 -479.4824,-806.469 -16.4329,-56.527 -17.595,-148.3886 -2.6958,-213.0976 15.6628,-68.0254 64.7017,-165.4256 103.3272,-205.2264 42.4007,-43.6911 126.708,-92.7312 153.0005,-88.9978 20.7558,2.9472 36.1458,38.0911 46.3023,105.7337 3.1899,21.2449 20.0572,51.6328 47.9537,86.3925 50.071,62.3896 57.3893,90.1866 65.592,249.1379 8.6214,167.064 33.3884,248.3161 141.6672,464.763 109.9761,219.8396 180.3544,317.8029 253.3073,352.5917 27.0965,12.9214 29.122,17.1097 34.6824,71.7162 4.2134,41.3785 17.0863,82.1381 44.9326,142.2699 23.0821,49.8441 36.737,90.245 33.4216,98.885 -21.207,55.2647 -239.9455,102.0033 -278.4189,59.4908 z"
     id="path34" />
  <path
     style="fill:#ff5555;fill-opacity:1;stroke-width:8.76911"
     d="m 3474.8823,1734.6132 c -92.5403,-11.8135 -226.6299,-42.3565 -268.9527,-61.262 -74.1641,-33.129 -73.5291,-30.055 -70.3425,-340.5156 1.617,-157.5471 -0.9574,-282.4198 -6.4179,-311.3035 -5.015,-26.52655 -27.6039,-114.01761 -50.1975,-194.42456 -39.7511,-141.4675 -40.5965,-146.93143 -26.1449,-168.98743 8.214,-12.53613 35.2153,-33.56284 60.0029,-46.72602 82.711,-43.92274 82.8492,-44.20275 90.1014,-182.5092 3.5195,-67.11951 10.9029,-135.79876 16.4076,-152.62055 29.1665,-89.13064 99.7727,1.51251 193.3934,248.27585 98.024,258.36948 265.9319,924.71081 282.5494,1121.29571 7.6258,90.2134 1.8341,95.1688 -109.2194,93.4496 -46.6798,-0.7227 -96.7108,-2.8252 -111.1798,-4.6723 z"
     id="path36" />
  <path
     style="fill:#ff5555;fill-opacity:1;stroke-width:8.76911"
     d="m 1689.4439,1409.5654 c -10.3009,-26.8289 -2.7678,-127.3263 11.6673,-155.6518 4.9158,-9.646 19.0841,-28.416 31.4851,-41.7111 47.689,-51.127 -20.8299,-51.8333 -71.9219,-0.7413 -12.0217,12.0217 -25.982,41.3346 -31.904,66.99 -14.9482,64.759 -30.6416,86.7496 -59.5269,83.4135 -51.6083,-5.9605 -75.4597,-127.5901 -36.0693,-183.9341 39.1652,-56.022 132.6858,-146.6311 156.812,-151.9301 13.1897,-2.897 32.5815,-16.8995 43.0927,-31.11666 10.5112,-14.21721 28.8977,-32.26172 40.8587,-40.09891 34.7704,-22.78243 46.7247,-6.71333 74.119,99.63137 11.8368,45.9505 21.8021,46.6966 87.8464,6.5768 27.7884,-16.8805 54.6347,-30.6919 59.6586,-30.6919 11.1539,0 89.4437,88.2325 89.3473,100.6942 -0.038,4.9059 -29.6338,43.8814 -65.7684,86.6123 -52.2574,61.7969 -65.6993,83.5072 -65.6993,106.113 0,15.6313 -4.4469,41.177 -9.882,56.7682 -8.0723,23.1562 -13.2916,27.3481 -28.4996,22.8901 -55.436,-16.2506 -76.4014,-15.0951 -132.3264,7.2932 -72.0601,28.8476 -81.8328,28.7317 -93.2893,-1.1068 z"
     id="path38" />
  <path
     style="fill:#ff5555;fill-opacity:1;stroke-width:8.76911"
     d="m 5390.7081,1457.3809 c -121.1647,-53.1188 -244.824,-130.0604 -297.5264,-185.1232 l -30.2939,-31.6505 10.3068,-49.1378 c 16.1771,-77.1248 95.6336,-194.31523 157.7964,-232.73397 25.2118,-15.58175 32.5422,-16.53972 55.0912,-7.19959 25.3605,10.50463 78.5439,63.28386 78.5439,77.94686 0,4.0371 -25.6496,41.7444 -56.9992,83.794 -31.3496,42.0495 -56.9992,79.9043 -56.9992,84.1217 0,13.8251 29.5882,23.8583 100.8448,34.1958 108.2492,15.7043 125.6984,23.0954 131.7087,55.7887 2.8224,15.353 3.9383,65.3574 2.4798,111.1209 -2.0927,65.6612 -5.4255,83.6916 -15.8055,85.5076 -7.2345,1.2656 -42.8508,-10.7181 -79.1474,-26.6305 z"
     id="path40" />
  <path
     style="fill:#ff5555;fill-opacity:1;stroke-width:8.76911"
     d="m 3611.024,7015.4864 c -5.8828,-7.0885 -18.3124,-63.3204 -27.6211,-124.9599 -9.3088,-61.6395 -22.7361,-132.4096 -29.8386,-157.267 -16.6616,-58.3122 -16.4186,-117.9398 0.648,-158.9683 7.4588,-17.9314 34.095,-63.9142 59.1916,-102.1839 l 45.63,-69.5812 2.7167,-169.7137 c 3.0986,-193.5756 -4.2027,-233.4616 -55.4255,-302.7835 -38.1574,-51.6395 -95.6654,-94.2538 -127.1957,-94.2538 -45.2439,0 -145.223,61.4017 -326.4138,200.4655 -100.0235,76.768 -187.6937,141.8164 -194.8227,144.552 -30.5793,11.7344 -156.1439,-40.8775 -191.9278,-80.4182 -8.8778,-9.8099 -27.5275,-64.2133 -41.4606,-120.9454 -19.9445,-81.209 -41.9728,-137.6942 -103.69,-265.8826 -85.3187,-177.2096 -92.8055,-198.8257 -80.2768,-231.7787 15.8004,-41.5581 37.1406,-44.1074 112.2236,-13.406 88.0992,36.0237 180.969,42.9999 279.78,21.0165 176.837,-39.3425 447.7368,-155.966 525.0124,-226.0199 30.745,-27.8718 43.1183,-46.8012 50.0029,-76.4976 13.883,-59.8828 19.2479,-1567.0204 7.1697,-2014.1617 -9.7568,-361.2064 -19.7063,-544.6439 -31.146,-574.2408 -8.5781,-22.1932 -26.7702,-26.6745 -127.2845,-31.3546 -109.6234,-5.1041 -230.097,4.1335 -619.9399,47.5354 l -291.3017,32.4311 -44.0647,-20.6388 c -101.5906,-47.5825 -294.9393,-294.8149 -266.4521,-340.7087 15.5194,-25.0022 57.4908,-39.4766 126.0421,-43.4673 91.3689,-5.319 163.6682,14.4864 240.9313,66 52.6969,35.1346 68.9046,41.4278 114.5279,44.4699 87.7499,5.8508 613.5514,-53.3595 697.6828,-78.5659 38.1642,-11.4343 63.5219,-46.1714 58.6558,-80.3519 -3.518,-24.7121 -37.1668,-28.5001 -322.797,-36.3386 -242.683,-6.6599 -386.9007,-17.5164 -412.1428,-31.0255 -48.0305,-25.7052 -38.3383,-66.9787 30.665,-130.5836 109.6963,-101.1146 217.3476,-109.6297 1389.9258,-109.9428 835.8813,-0.2231 847.8263,0.017 977.7561,19.6804 239.3579,36.2236 412.1901,75.9374 542.254,124.6005 55.9743,20.9427 119.814,75.251 119.814,101.9255 0,30.3964 -65.9771,154.5079 -120.512,226.6985 -63.7472,84.3856 -212.6148,230.6145 -292.7159,287.5274 -76.3428,54.2426 -148.8841,87.03 -184.8202,83.5355 -35.7913,-3.4805 -63.0923,-41.6426 -78.2518,-109.3825 -37.812,-168.9617 -148.6193,-218.3859 -512.3219,-228.5149 -237.7398,-6.621 -334.7628,10.7452 -354.824,63.5102 -12.5442,32.9938 -46.2184,287.7126 -117.9291,892.04 -86.5699,729.5513 -88.3516,755.0446 -75.8409,1085.1795 11.4228,301.4291 15.2612,341.3147 33.5206,348.3215 7.0679,2.7122 25.3167,-1.0619 40.5531,-8.3866 50.135,-24.1021 282.2783,-250.6258 375.3281,-366.2422 47.1448,-58.5785 68.3448,-106.4233 147.6527,-333.2263 l 72.0596,-206.0742 0.7954,-157.844 c 0.9329,-185.2586 -6.3175,-232.9589 -82.243,-541.0759 -57.364,-232.7916 -61.1835,-264.4381 -33.6917,-279.1513 23.1442,-12.3864 84.7352,7.3408 129.9606,41.6256 85.4017,64.7419 106.3185,116.65 216.5696,537.451 32.2229,122.9868 78.1747,296.6152 102.115,385.841 39.662,147.8202 43.9358,173.1746 48.1196,285.4739 4.173,112.0116 2.9665,126.399 -13.2372,157.844 -35.4755,68.8445 -147.7345,195.1985 -611.1613,687.8976 -427.0346,454.0083 -477.9498,509.5754 -486.5891,531.0472 -9.7853,24.3198 -35.6509,226.2847 -83.6017,652.7831 -82.2914,731.9393 -89.3015,774.3482 -136.9721,828.642 -28.8107,32.8137 -51.4849,38.695 -68.7904,17.843 z"
     id="path42" />
</svg>
